<svg xmlns="http://www.w3.org/2000/svg" width="2048" height="2048" viewBox="0 0 2048 2048"><path fill="#23222a" d="M0 0h2048v2048H0z"/><path fill="#080506" d="M808.322 334.5c8.385-.652 16.472-1.134 22.789 5.839a12.1 12.1 0 0 1 3.138 9.098c-.314 4.617-3.626 12.275-7.435 13.931-12.893 5.512-26.472 9.395-39.335 15.065-101.298 44.651-195.861 136.929-204.081 252.577-2.389 33.614 3.779 64.819 26.396 90.785 21.403 24.571 57.242 40.729 89.491 42.852a113.5 113.5 0 0 0 28.697-1.743c22.086-3.996 54.481-15.87 75.25-24.97-2.05.898 33.211-34.718 37.374-38.319a280.64 280.64 0 0 1 199.924-66.769c83.16 5.87 151.49 43.313 205.77 105.895 51.59 15.585 83.14 39.332 139.65 17.794 66.17-25.218 89.59-75.965 78.17-144.146-20.37-121.665-126.57-209.499-238.29-247.759-16.57-5.136-14.39-30.135 4.32-30.1 197.92.378 386.92 138.871 412.81 341.996a322.6 322.6 0 0 1-65.92 241.866c-57.29 73.399-133.06 108.478-223.77 119.748l-6.92 25.11c30.78 11.02 66.35 22.84 97.47 32.54-12.56 17.82-31.73 52.01-43.5 71.81-29.44 48.01-58.55 96.23-87.31 144.66-6.57-4.72-13.17-9.39-19.79-14.04-12.38-8.66-29.05-22.95-45.15-19.59-6.16 1.29-11.04 5.19-14.37 10.45-14.14 22.39-4.87 113.42.9 141.95-19.86 29.51-39.45 61.77-58.41 92.06L1091 1658.87c-13.19 21.05-26.43 43.55-40.13 64.09.51-39.71-1.75-82.24 1.74-121.56 2.96-33.42 6-69.03 10.88-102.17-12.79 7.95-26.52 17.55-39.11 26.05-12.47-7.83-26.672-18.13-39.208-26.52 2.584 21.51 3.655 43.6 6.408 65.02 6.9 53.66 5.441 106.01 5.487 160.04-60.326-97.63-124.006-194.81-182.721-293.2 5.203-30.93 16.831-117.73-.002-142.34-3.438-5.03-8.439-8.51-14.485-9.54-18.532-3.17-50.132 23.48-65.247 33.91-9.835-17.21-21.117-34.28-31.379-51.32l-100.028-165.51 98.417-32.72c-2.375-9.39-3.854-16.53-5.469-26.08-65.601-3.76-135.549-32.99-184.691-76.401a318.3 318.3 0 0 1-107.063-219.602c-7.935-128.433 59.257-249.88 161.472-324.437 72.332-52.759 153.726-77.103 242.451-82.08"/><path fill="#dadbe3" d="M1050.22 663.718c74.47 9.704 140.84 48.164 184.06 110.194 43.07 61.823 39.93 126.13 26 196.449 21.23-2.683 41.52 2.738 55.2 20.644 15.39 20.145 8.08 39.405 3.03 61.195-2.29 9.89-3.75 20.77-5.11 31.01 8.03 3.32 20.07 7.18 28.49 10.23 17.38 5.13 39.94 12.77 56.95 19.03l-94.4 157.55c-21.18-13.41-37.72-25.16-64-19.46-23.61 5.11-37.61 25.5-41.07 48.24-4.92 32.42-1.92 66.19.39 98.73.63 8.39 1.7 19.48 3.38 27.62-13.42 21.1-26.71 42.29-39.85 63.56-2.7 4.34-16.3 26.7-18.82 29.54-3.13 6.07-10.37 17.06-14.37 23.18-5.71 8.73-11.92 20.45-17.74 28.52-6.24 12.2-19.5 31.95-27.07 44.09l-3.73-1.52c7.66-57.2 13.01-122.96 19.09-181.05a5561 5561 0 0 0-63.68 46.38c-.09-39.61.33-79.67-.22-119.23l2.98-2.91 10.41 24.91c5.06-4.68 21.86-14.44 24.06-18.5 21.87-40.43-7.09-107.85-12.75-150.93-3.3-25.14-5.05-41.65-6.61-63.34 11.04 5.5 24.28 11.07 35.68 16.16 3.74 15.71 7.01 35.22 10.17 51.32 44.27-39.21 132.11-54.59 190.02-77.06-10.66-44.96-.01-75.98 9.79-120.21-4.15-5.48-8.68-10.84-14.33-14.8-27.53 12.97-54.09 28.44-82.1 40.56-9.3 4.03-39.58 12.56-43.84 17.33-14.61 16.31-31.8 41.76-45.24 59.59-18.44-4.62-36.61-9.85-54.98-14.75 8.53-37.25 29.34-66.69 58.65-90.43 11.78-9.54 26.89-21.18 37.58-31.316-.56-20.924-.4-41.861.48-62.773 2.55-53.852 8.39-95.115-10.65-147.725-18.8-51.92-46.57-85.886-95.85-110.028"/><path fill="#da8748" d="M1341.89 1093.44c17.38 5.13 39.94 12.77 56.95 19.03l-94.4 157.55c-21.18-13.41-37.72-25.16-64-19.46-23.61 5.11-37.61 25.5-41.07 48.24-4.92 32.42-1.92 66.19.39 98.73.63 8.39 1.7 19.48 3.38 27.62-13.42 21.1-26.71 42.29-39.85 63.56-2.7 4.34-16.3 26.7-18.82 29.54-3.13 6.07-10.37 17.06-14.37 23.18-5.71 8.73-11.92 20.45-17.74 28.52.11-5.56 5.78-13.64 9.01-18.51-.58-.51-1.15-1.03-1.73-1.55-5.06 4.86-8.6 10.48-12.62 16.23.57-6.42 2.08-19.53 3.45-25.82l.63.83c-1.02.44 72.61-110.94 79.54-121.58l-1.67-10.68c-6.03-39.05-14.24-95.21 3.79-132.14 4.9-10.04 15.21-17.33 19.92-25.14l.65-1.16c-7.99-3.83-32.93 6.16-39.25 7.11-30.02 15.74-54.03 40.38-63.42 73.69-.35-3.28-.52-4.75-.33-8.06l-.84-1.01c13.89-52.74 53.08-89.19 103.65-107.26 23.51-7.69 46.95-13.14 69.15-24.51 20.73-10.62 37.12-24.84 55.59-38.69 14.11-10.58 29.21-20.21 43.7-30.37l3.08-3.47c-2.15-5.21-34.36-17.94-42.77-24.42"/><path fill="#080506" d="M1381.58 1121.33c-3.15 5.66-6.63 10.51-9.98 15.96-22.06 35.88-48.92 71.19-69.36 107.86-46.43-19.49-82.8-18.84-127.92 4.44-27 14.64-42.24 29.46-56.75 57.07-3.03 5.76-4.95 11.91-7.24 16.51l-.84-1.01c13.89-52.74 53.08-89.19 103.65-107.26 23.51-7.69 46.95-13.14 69.15-24.51 20.73-10.62 37.12-24.84 55.59-38.69 14.11-10.58 29.21-20.21 43.7-30.37"/><path fill="#d0cfdc" d="M1119.64 1549.89c1-2.78 22.52-31.03 24.83-31.64-3.13 6.07-10.37 17.06-14.37 23.18-5.71 8.73-11.92 20.45-17.74 28.52.11-5.56 5.78-13.64 9.01-18.51-.58-.51-1.15-1.03-1.73-1.55"/><path fill="#080506" d="M1212.68 1251.59c-4.71 7.81-15.02 15.1-19.92 25.14-18.03 36.93-9.82 93.09-3.79 132.14l1.67 10.68c-6.93 10.64-80.56 122.02-79.54 121.58l-.63-.83c7.3-42.65 13.71-86.31 18.06-129.36 3.88-36.8-4.16-74.95 13.65-109.17 15.54-29.84 39.84-41.25 70.5-50.18"/><path fill="#b59282" d="M1105.63 1353.99c-.37-6.4.49-26.46 3.86-31.83l.84 1.01c-.19 3.31-.02 4.78.33 8.06l-.67 1.86c-.56 1.58-1.34 3.3-1.56 4.89l-.61 4.52c-.48 3.5-1.51 7.84-2.19 11.49"/><path fill="#da8748" d="M981.251 666.535c1.684-.252 16.56-3.047 7.18 1.159-48.785 27.878-77.761 71.768-93.147 125.61-10.831 37.903-5.905 80.475-4.687 119.674.74 23.536.867 47.088.379 70.631 45.038 44.651 79.79 47.341 96.796 121.961-17.378 5.17-37.18 11.35-54.774 15.56a3302 3302 0 0 1-45.074-62c-9.886-4.39-22.959-6.13-33.641-10.55-31.581-13.1-62.638-29.25-92.987-45.06-4.834 6.01-8.956 10.61-12.354 17.55l1.67 10.56c6.515 26.54 13.744 59.33 9.481 86.55.007 7.1-.821 14.17-2.465 21.07a3519 3519 0 0 0 73.597 24.27c48.421 15.48 72.551 20.4 115.779 52.27l10.653-51.2 35.669-14.26c-2.697 19.44-4.98 40.71-7.59 63.27-4.77 41.2-31.603 112.66-9.646 149.13 2.906 4.82 16.715 13.18 21.69 17.29l13.52-29.86-.08 127.7a4361 4361 0 0 0-62.237-46.96l11.252 121.99c2.07 21.41 5.796 48.8 6.99 69.58-6.894-10.95-39.167-58.98-41.765-67.31-6.504-7.63-27.531-43.89-34.17-54.89-3.534-4.58-12.664-20.16-15.9-25.43a4191 4191 0 0 0-29.98-48.34c5.166-38.04 15.909-120.1-5.293-152.52a53.36 53.36 0 0 0-35.124-23.44c-25.061-4.86-42.105 7.17-61.581 20.18a7270 7270 0 0 1-68.245-111.85c-4.6-7.68-23.893-38.8-26.636-45.36l1.358-1.46c29.199-9.89 56.633-19.43 86.266-28.78-.931-8.72-1.818-16.12-3.453-24.76-2.233-13.73-9.521-28.99-7.899-42.99 3.848-33.203 34.058-50.342 64.573-46.473-13.491-72.044-13.734-137.994 29.898-200.613 39.934-57.313 94.458-89.138 161.977-101.899"/><path fill="#dadbe3" d="M981.251 666.535c1.684-.252 16.56-3.047 7.18 1.159-48.785 27.878-77.761 71.768-93.147 125.61-10.831 37.903-5.905 80.475-4.687 119.674.74 23.536.867 47.088.379 70.631 45.038 44.651 79.79 47.341 96.796 121.961-17.378 5.17-37.18 11.35-54.774 15.56a3302 3302 0 0 1-45.074-62c-9.886-4.39-22.959-6.13-33.641-10.55-31.581-13.1-62.638-29.25-92.987-45.06 2.004-2.04 7.975-4.459 10.909-5.852 12.21-4.518 31.181-8.342 44.103-11.024-3.07-45.851-5.799-98.186 3.496-143.185 16.07-77.796 65.139-113.501 126.437-154.034l-2.743-1.571c-140.031 77.652-143.175 143.049-133.116 292.138-13.651 2.996-36.608 9.939-49.841 15.214-26.232 7.744-20.426 23.224-16.748 44.454 1.843 10.64 4.091 21.58 5.721 32.23 1.477 9.13 2.44 18.34 2.886 27.58-21.96 5.8-49.723 11.65-70.478 17.6-4.164.62-10.679 2.25-15.013 3.19-5.951-2.71-11.236-5.13-17.02-8.21 29.199-9.89 56.633-19.43 86.266-28.78-.931-8.72-1.818-16.12-3.453-24.76-2.233-13.73-9.521-28.99-7.899-42.99 3.848-33.203 34.058-50.342 64.573-46.473-13.491-72.044-13.734-137.994 29.898-200.613 39.934-57.313 94.458-89.138 161.977-101.899"/><path fill="#b59282" d="m962.722 678.516-1.182.978c-3.733 3.263-10.933 7.55-15.299 9.931l-2.743-1.571c2.049-1.147 2.843-1.478 4.952-2.469z"/><path fill="#d0cfdc" d="M981.251 666.535c1.684-.252 16.56-3.047 7.18 1.159-2.515-.472-4.639-.838-7.18-1.159"/><path fill="#dadbe3" d="M757.272 1107.04c3.059 3.5 2.244 6.58 2.821 11.14.007 7.1-.821 14.17-2.465 21.07a3519 3519 0 0 0 73.597 24.27c48.421 15.48 72.551 20.4 115.779 52.27l10.653-51.2 35.669-14.26c-2.697 19.44-4.98 40.71-7.59 63.27-4.77 41.2-31.603 112.66-9.646 149.13 2.906 4.82 16.715 13.18 21.69 17.29l13.52-29.86-.08 127.7a4361 4361 0 0 0-62.237-46.96l11.252 121.99c2.07 21.41 5.796 48.8 6.99 69.58-6.894-10.95-39.167-58.98-41.765-67.31-6.504-7.63-27.531-43.89-34.17-54.89 2.704 1.06 29.866 38.13 31.199 41.66 6.958 8.12 13.951 18.23 20.309 26.97l5.953 9.35c-.858-6.94-2.278-16.72-3.837-23.34-.071-1.55-.436-3.56-.663-5.14-4.377-34.02-12.961-69.43-17.446-105.55a484 484 0 0 1-3.836-47.55c-.682-29.77 3.508-58.04-8.641-85.69-13.813-31.44-36.145-43.58-66.117-55.67 8.452-3.83 24.311-.02 32.921 3.15 27.312 10.07 49.501 33.73 61.553 59.82 2.442 5.29 4.382 12.27 6.499 16.67-.681-7.17-3.663-13.83-5.301-20.78l2.835-.34a131.5 131.5 0 0 0-28.885-53.29c-45.952-51.58-96.094-42.46-152.539-71.94-21.682-11.33-29.641-19.8-48.284-34.38-11.632-9.09-30.02-20.55-42.712-28.03l-.764-1.5c2.493-1.92 8.896-2.43 12.346-2.97 23.843-4.67 47.641-9.57 71.392-14.68"/><path fill="#54382f" d="M946.718 1313.83c3.208 8.85 4.587 20.49 5.448 29.87l-1.139 1.28a92 92 0 0 0-1.843-10.03c-.681-7.17-3.663-13.83-5.301-20.78z"/><path fill="#d0cfdc" d="M952.166 1343.7c.701 2.33 1.6 7.36.395 9.56l-.104.03c-1.518-1.69-1.411-6.13-1.43-8.31z"/><path fill="#080506" d="M839.182 1257.36c-2.11-1.57-2.594-2.13-4.421-4.06l1-.81 5.168.67 7.282 2.15c29.972 12.09 52.304 24.23 66.117 55.67 12.149 27.65 7.959 55.92 8.641 85.69.496 15.9 1.777 31.77 3.836 47.55 4.485 36.12 13.069 71.53 17.446 105.55-8.236-7.15-74.359-116.06-82.596-130.96 8.902-45.36 15.859-128.77-22.473-161.45"/><path fill="#080506" d="M674.298 1126.19c12.692 7.48 31.08 18.94 42.712 28.03 18.643 14.58 26.602 23.05 48.284 34.38 56.445 29.48 106.587 20.36 152.539 71.94a131.5 131.5 0 0 1 28.885 53.29l-2.835.34c-11.997-37.36-49.246-65.04-85.67-76.03-38.922-11.74-71.327-10.63-107.494 7.81-18.784-30.1-38.759-59.72-57.419-89.92-6.136-9.93-13.201-19.76-19.002-29.84"/><path fill="#d0cfdc" d="M757.272 1107.04c-.258-14.51-3.697-30.84-4.479-45.54-.559-10.5-3.557-19.23-2.181-29.87 6.515 26.54 13.744 59.33 9.481 86.55-.577-4.56.238-7.64-2.821-11.14"/><path fill="#dadbe3" d="m726.89 376.117-.809.654c-15.209 12.079-32.128 20.994-48.008 34.356-65.095 54.778-111.301 118.752-123.352 205.285-13.025 93.521 42.465 165.098 135.763 178.039 31.981 4.436 56.989-3.253 86.854-13.965-25.049 47.15-28.027 92.1-25.136 143.926-76.121-7.57-143.353-35.839-193.125-95.798-41.416-49.893-59.098-118.72-51.784-182.693 9.309-81.427 45.252-144.048 101.692-201.016l-1.309-4.526c4.775-3.404 19.314-13.553 24.065-15.656 5.728-3.41 18.257-13.549 24.325-18.017 11.243-7.395 22.987-13.047 34.152-20.177a286 286 0 0 1 36.672-10.412"/><path fill="#23222a" d="M607.676 440.379c4.775-3.404 19.314-13.553 24.065-15.656-7.629 6.876-15.035 13.11-22.756 20.182z"/><path fill="#dadbe3" d="M1328.05 377.444c11.07 2.904 21.94 5.567 32.73 9.412 13.85 8.716 28.58 15.266 41.85 25.079 2.68 1.988 12.13 9.613 14.54 10.699 2.28 2.155 13.07 12.167 15.45 13.654 54.04 51.839 94.51 116.081 106.79 190.897 10.9 66.359-2.33 138.709-42.77 193.186-36.01 48.511-89.09 80.858-147.49 95.042-17.09 4.153-33.8 6.465-51.19 9.031 6.17-47.499-2.33-101.255-24.81-143.51 9.51 3.244 18.85 6.101 28.48 8.841 75.73 21.547 160.99-21.206 187.72-95.642 12.13-33.791 9.13-70.625.82-105.412-20.85-87.37-86.5-162.555-162.16-208.55z"/><path fill="#da8748" d="M1360.78 386.856c13.12 3.586 28.72 10.13 41.19 15.798a376 376 0 0 1 169.91 155.122c14.03 24.641 24.24 50.22 32.6 77.256 38.67 124.957-16.43 270.791-131.12 335.262-38.62 21.707-75.55 31.226-118.68 37.916-1.74-5.96-3.52-12.5-5.44-18.353 52.94 3.194 118.27-27.253 157.42-62.199 55.28-49.351 87.55-121.427 91.39-195.051 4.44-85.273-33.82-171.13-90.4-233.528a469.6 469.6 0 0 0-71.2-63.988l-3.83 1.197c-2.38-1.487-13.17-11.499-15.45-13.654-2.41-1.086-11.86-8.711-14.54-10.699-13.27-9.813-28-16.363-41.85-25.079"/><path fill="#23222a" d="M1417.17 422.634c6.61 2.578 13.56 8.083 19.28 12.457l-3.83 1.197c-2.38-1.487-13.17-11.499-15.45-13.654"/><path fill="#da8748" d="M650.852 402.149c9.899-4.857 29.061-12.789 39.366-15.62-11.165 7.13-22.909 12.782-34.152 20.177-6.068 4.468-18.597 14.607-24.325 18.017-4.751 2.103-19.29 12.252-24.065 15.656-94.148 69.098-160.291 172.713-155.215 293.272 3.053 72.491 34.456 143.38 88.55 192.019 39.47 35.489 104.2 67.331 158.603 64.536-1.845 5.956-3.104 12.004-4.475 18.084-25.786-3.94-45.714-7.85-70.642-16.292a277.83 277.83 0 0 1-161.34-142.237c-35.832-73.517-37.867-160.862-10.077-237.057 35.861-98.32 105.02-166.086 197.772-210.555"/><path fill="#d0cfdc" d="m1081.56 1612.52 3.73 1.52c-.72 1.27-4.82 8.54-4.12 1.94z"/><path fill="#838288" d="M1328.01 380.171c-1.25-.612-4.7-2.059-5.35-3.277.15-1.383 4.92.417 5.39.55z"/><path fill="#d0cfdc" d="M1036.75 1358.62c.2-4.2-.14-11.15 2.98-2.91z"/></svg>