<svg xmlns="http://www.w3.org/2000/svg" width="2048" height="2048" viewBox="0 0 2048 2048"><path fill="#171a22" d="M0 0h2048v2048H0z"/><path d="m1468.84 18.884.79 1.526c-9 23.788-29.67 65.303-40.9 88.715l-56.31 119.533-198.35 417.116c-24.26 51.134-50.86 103.887-73.96 155.26 20.57.312 47.39-1.641 68.74-2.358l136.52-4.252 459.23-15.118c-78.17 79.456-155.57 161.611-233.09 241.874l-719.87 746.47-193.105 199.77c-20.216 20.77-40.184 42.83-60.66 63.09 1.959-3.84 3.803-7.88 5.651-11.79 15.135-34.16 31.545-68.68 47.142-102.73l145.214-316.18 136.157-298 51.814-112.24c8.229-17.81 16.11-36.61 24.792-54.05l-399.872 13.97a20853 20853 0 0 1-279.549 9.91l692.239-669.371C1143.65 333.884 1308.73 176.924 1468.84 18.884"/><path fill="#835e42" d="M360.493 1129.11a19586 19586 0 0 0 181.578-175.663L684.409 815.78l407.471-392.917 192.6-186.178 68.16-66.616c11.9-11.726 29.75-30.456 42.09-40.892a7676 7676 0 0 0-57.77 119.814l-104.14 217.714-110.99 230.586c-21.12 43.942-44.34 90.416-64.15 134.681l466.22-18.729 123.98-4.985c17.21-.684 39.72-2.289 56.55-2.18L990.552 1548.65l-224.627 232.77c-34.394 35.51-75.524 75.19-108.16 111.02l-14.653 15.49a226 226 0 0 1 7.135-15.81l247.495-538.98c36.952-80.52 74.027-166.97 112.618-246.12l-481.217 16.11-110.15 3.93c-18.839.72-39.856 2.04-58.5 2.05"/><path d="M1247.44 299.382c26.93-25.287 52.4-51.647 78.84-77.139L1157.96 570.5l-85.43 178.369c-17.19 35.849-34.4 73.135-52.43 108.462l629.63-25.633a28916 28916 0 0 0-226.24 235.182l-353.17 368.21-252.82 262.39c-34.685 36.13-74.828 75.58-108.014 112.31l334.784-727.32-628.338 21.26 632.878-612.019 135.64-131.095c9.99-9.69 44.2-45.411 53.57-51.372.9-1.06 1.82-2.109 2.75-3.145l1.49-1.86c1.86-1.656 3.42-3.096 5.18-4.857"/><path fill="#826244" d="M1242.26 304.239c-2.85-4.967-1.91-10.844 5.18-4.857-1.76 1.761-3.32 3.201-5.18 4.857"/><path fill="#826244" d="M1238.02 309.244c-1.28-.275-6.82-.529-5.83-2.22 2.45-4.204 5.36-1.51 8.58-.925-.93 1.036-1.85 2.085-2.75 3.145"/></svg>