<svg xmlns="http://www.w3.org/2000/svg" width="2048" height="2048" viewBox="0 0 2048 2048"><path fill="#262835" d="M0 0h2048v2048H0V0"/><path fill="#232831" d="M0 104.845c1.79-3.093 1.698-4.832 2-8.277l1.522-1.198c1.222.236 1.986.006 2.668 1.201 4.536 7.942 2.298 290.424 2.297 322.859l-.01 1179.87.043 252.67c.005 12.58 1.503 76.37-.64 83.71-3.216 1.26-4.467.96-7.88.81z"/><path fill="#232831" d="M2048 1936.49c-3.19 0-11.7 2.71-7.94-8.45.33-.95 6.5-.53 7.94-.53z"/><path fill="#020102" d="M1445.95 160.634c-3.36 5.9-10.99 16.292-15.09 22.219l-29.21 42.289c-26.86 38.903-53.96 79.275-81.59 117.602.71 7.903 3.27 13.516-5.56 7.843-4.03 5.864-25.36 35.993-27.5 40.357 1.2 8.825 4.4 11.263-5.79 7.788l-38.91 56.196c4.8 1.835 6.69-.201 6.23 7.08-.07 1.097.03 1.115-.65 2.066.35-.144-13.35 1.95-13.53 1.974l-134.82 190.853c-27.06 38.37-59.94 87.39-88.45 123.634 15.29-6.487 33.37-15.936 48.42-23.433l79.63-39.819a26719 26719 0 0 0 272.86-138.504c-8.05-4.083-5.3-11.848 3.42-8.946 1.35.45 2.08 4.468 2.63 5.887 20.53-10.47 44.06-21.813 64.05-32.818-15.73 30.65-36.93 64.382-54.45 94.206l-90.91 154.687c-18.84 31.75-42.07 68.846-59.58 100.742a4903 4903 0 0 0 189.54-75.843c23.42-10.013 55.54-23.097 78.08-34.543l-533.88 772.279-169.436 246.37a2421 2421 0 0 0-37.443 54.84c-4.96 7.45-16.785 26.25-22.043 32.41l74.554-219.49 24.025-71.45c2.322-6.95 9.948-28.27 11.299-34.66-2.103-2.6-4.252-8.69-1.251-10.78 2.703.57 2.305.8 5.037.61 1.599-7.47 11.28-34.35 14.088-42.69l30.531-90.73 86.209-260.23-235.491 75.69c-45.254 78.89-90.23 161.76-134.191 241.51a14278 14278 0 0 0-95.715 173.16c3.96-32.5 14.375-80.09 20.398-113.35l43.549-238.31c.188-1.42 1.276-9.56 1.391-11.33l-.847-4.36c-2.813-3.26-.01-3.55.717-5.2-.615-.77-.96-.25-1.714-.94l.385-.36c1.065-.22.844.01 1.362-.64-.622-.8-.975-.29-1.729-.97-.874 1.49 6.877-6.44 5.946-5.67l90.41-496.772c-14.939 3.509-32.598 8.825-47.725 12.863l-97.211 25.974a21639 21639 0 0 0-223.814 60.028l531.856-345.847 137.203-89.471c10.19-6.7 20.78-12.809 31.04-19.707 2.34-1.441 2.8-1.634 4.78-3.385 9.52-4.939 29.25-18.748 39.39-25.374l78.79-51.311a25363 25363 0 0 1 270.71-174.224"/><path fill="#232831" d="M1242.3 454.928c4.8 1.835 6.69-.201 6.23 7.08-.07 1.097.03 1.115-.65 2.066.35-.144-13.35 1.95-13.53 1.974 2.39-3.389 5.33-8.03 7.95-11.12"/><path fill="#100f13" d="M630.521 1267.86c-.197 2.59-3.806 19.26-2.862 20.27 4.055 4.34 2.525 7.24-2.649 9.2.188-1.42 1.276-9.56 1.391-11.33l-.847-4.36c-2.813-3.26-.01-3.55.717-5.2-.615-.77-.96-.25-1.714-.94l.385-.36c1.065-.22.844.01 1.362-.64-.622-.8-.975-.29-1.729-.97-.874 1.49 6.877-6.44 5.946-5.67"/><path fill="#232831" d="M1411.99 578.779c-8.05-4.083-5.3-11.848 3.42-8.946 1.35.45 2.08 4.468 2.63 5.887-2.08.942-3.91 2.078-6.05 3.059"/><path fill="#232831" d="M1287 390.944c1.2 8.825 4.4 11.263-5.79 7.788l.93-1.336c1.83-2.691 2.79-3.901 4.86-6.452"/><path fill="#232831" d="M891.846 1562.45c-2.103-2.6-4.252-8.69-1.251-10.78 2.703.57 2.305.8 5.037.61-1.236 2.96-2.705 7.07-3.786 10.17"/><path fill="#232831" d="M1314.5 350.587c2.12-2.81 3.57-5.147 5.56-7.843.71 7.903 3.27 13.516-5.56 7.843"/><path fill="#4d2308" d="M743.11 658.213c6.206-4.952 24.614-16.147 31.877-20.828l54.311-35.419 139.2-90.62 356.942-232.135c-16.17 26.574-42.6 61.645-61.02 87.391L1171 498.404l-62.91 89.209c-5.19 7.335-22.61 33.018-27.94 38.523l-2.37 4.19-171.301 240.673 188.091-93.793c35.55-17.666 72.46-35.27 107.73-53.282l128.36-64.752c20.48-10.265 45.7-24.203 66.29-32.841A16372 16372 0 0 1 1291.23 805.3c-17.18 28.721-34.65 59.561-52.34 87.742l-2.09 3.215c-11.06 19.532-24.4 39.876-34.83 59.146 18.53-8.189 37.43-15.011 56.26-22.421 66.45-26.142 132.74-52.774 198.89-79.676-4.4 8.39-15.06 22.947-20.91 31.474l-40.09 58.223-122.66 175.947-205.65 296.35c-27.05 38.86-56.45 83.43-84.223 121.1-3.825-2.47-2.552-1.38-4.831-5.72 17.941-26.92 36.904-60.11 54.774-88.11a16599 16599 0 0 1 187.27-290.51l1.31-2.01c10.88-15.38 21.32-32.46 31.98-48.2 40.73-61.22 81.95-122.106 123.67-182.657-60.27 20.227-120.25 43.053-180.22 64.286-17.56 6.217-35.6 12.893-52.86 19.811 20.02-33.009 44.12-68.306 65.13-101.029l159.16-246.894c-.66-1.094-1.33-2.177-2.02-3.25-44.28 21.312-89.16 45.228-133.03 67.567l-213.76 107.575a8037 8037 0 0 1-92.559 46.022c-10.982 5.362-27.068 13.968-37.711 18.393a21309 21309 0 0 1 208.16-327.945 6779 6779 0 0 1 68.78-105.283c13.61-20.612 29.46-45.436 44.14-65.104-34.55 19.959-69.06 42.609-103.84 62.973-119.295 69.866-238.287 142.639-358.172 211.359l.025-1.861c-2.19-3.971-2.389-6.076-5.873-7.6"/><path fill="#100f13" d="M1366.95 652.117c8-5.479 6.74-2.44 2.02 3.25-.66-1.094-1.33-2.177-2.02-3.25"/><path fill="#4d2308" d="M758.072 1193.21c52.632-13.28 107.181-30.29 160.124-44.55-2.981 2.56-2.762 1.65-3.944 4.9l1.149 2.02c1.515.36 3.221.81 4.732 1.08a5729 5729 0 0 0-94.722 31.64c-17.502 5.84-42.675 13.25-59.187 19.69-12.364 20.74-23.053 42.6-35.06 63.56-1.849 3.22-4.175 7.79-6.244 10.74-1.116-.61-6.387-1.25-8.447-1.77z"/><path fill="#401f08" d="M743.11 658.213c3.484 1.524 3.683 3.629 5.873 7.6l-.025 1.861c-11.744 7.357-26.408 15.093-38.585 22.238-28.616 16.792-57.197 33.958-86.515 49.452-9.73 5.141-22.768 15.017-31.959 18.163l-.571-.691c7.059-3.552 10.837-7.303 16.882-11.013 45.477-27.91 89.448-59.805 134.9-87.61"/><path fill="#401f08" d="M918.196 1148.66c9.715-3.63 25.921-7.66 36.247-10.54a1875 1875 0 0 1 71.837-19.19c8.56-2.16 28.93-10.21 36.33-9.33-3.26 1.87-9 2.78-12.86 3.91-43.36 12.68-86.351 30.61-129.617 43.15-1.511-.27-3.217-.72-4.732-1.08l-1.149-2.02c1.182-3.25.963-2.34 3.944-4.9"/><path fill="#401f08" d="M716.473 1280.52c2.06.52 7.331 1.16 8.447 1.77-9.773 21.93-31.106 57.88-43.267 80.14l-18.628 33.95c-3.119 5.76-5.056 11.2-9.038 17.1-.162-2.84 56.909-121.42 62.486-132.96"/><path fill="#401f08" d="M983.587 1536.4c-.494 1.48-7.075 10.94-8.805 13.59-15.711 24.05-35.445 47.83-49.46 72.68-.633 1.12 1.333 3.98 2.153 5.57l-1.738 1.47c-4.416.53-6.838.35-8.99 4.78-3.047 6.29-6.657 5.54-7.129 12.96-2.349.28-2.232.37-4.475-.3l-.518-1.43c13.376-13.77 16.564-22.14 26.728-37.76 15.94-24.51 30.782-53.63 47.403-77.28 2.279 4.34 1.006 3.25 4.831 5.72"/><path fill="#232831" d="M1714.25 21.568c9-2.94 6.04 4.652 6.4 9.14.74.946 7.63-.508 8.6.856l-.23.372c-.24.102-.74.364-1.03.338-14.04-1.29-13.39 4.844-14.88-7.506-5.26-1.02-11.25-.135-16.61-.41-.44-.022-7.14.454-7.29-.89 1.81-1.55 18.34 1.106 25.04-1.9"/><path fill="#232831" d="M79.51 18.695c3.953 6.276 2.708-.737 6.76 4.935.872.368 1.856.078 2.742-.084.025.034.058.063.075.102.12.283-.107.943-.17 1.166-.238.855-.493 1.688-.587 2.577-.123 1.157-.206 2.323-.319 3.482-.962 1.06-1.016 1.332-2.456 1.612-8.292 1.617-6.033-7.054-6.045-13.79"/><path fill="#232831" d="M1200.97 2040.13c5.16-1.62 9.29-1 7.19 6.21-.22.75-7.9.28-10.16.15-2.11 0-9.66.44-11-.51-.25-.62-.25-.31.02-.93 4.37-2.87 10.58 3.19 13.33-3.48z"/><path fill="#232831" d="M608.032 1128.9a5.115 5.115 0 1 1 8.137 6.196 5.115 5.115 0 0 1-8.137-6.196"/><path fill="#232831" d="M2032.01 1864.89c1.72-2.2 4.9-2.6 7.1-.88s2.6 4.9.88 7.1-4.9 2.6-7.1.88-2.6-4.9-.88-7.1"/><path fill="#232831" d="M2032.01 1616.89c1.72-2.2 4.9-2.6 7.1-.88s2.6 4.9.88 7.1-4.9 2.6-7.1.88-2.6-4.9-.88-7.1"/><path fill="#232831" d="M1240.01 472.889a5.06 5.06 0 1 1 7.98 6.223 5.06 5.06 0 0 1-7.98-6.223"/><path fill="#232831" d="M2032.01 440.889a5.06 5.06 0 1 1 7.98 6.223 5.06 5.06 0 0 1-7.98-6.223"/><path fill="#232831" d="M656.01 856.889a5.06 5.06 0 1 1 7.98 6.224 5.06 5.06 0 0 1-7.98-6.224"/><path fill="#232831" d="M543.837 1502.9c10.787.24 7.6-1.23 7.651 10.32-6.392-1.04-10.32-.29-7.994-8.98z"/><path fill="#232831" d="M1335.65 1095.47c10.22.09 8.84-1 8.84 9.23-1.07-.06-2.15-.1-3.22-.13-7.46-.13-5.93-1.39-5.62-9.1"/><path fill="#232831" d="M1447.65 615.467c10.22.088 8.84-.992 8.84 9.229a102 102 0 0 0-3.22-.126c-7.46-.133-5.93-1.395-5.62-9.103"/><path fill="#232831" d="M1191.65 1303.47c10.22.09 8.84-1 8.84 9.23-1.07-.06-2.15-.1-3.22-.13-7.46-.13-5.93-1.39-5.62-9.1"/><path fill="#232831" d="M1303.65 1143.47c10.22.09 8.84-1 8.84 9.23-1.07-.06-2.15-.1-3.22-.13-7.46-.13-5.93-1.39-5.62-9.1"/><path fill="#232831" d="M1415.87 215.589c10.13-.2 8.62-.888 8.62 9.107-9.45-.429-9.73 1.164-8.62-9.107"/><path fill="#232831" d="M1279.29 2007.26c9.82.62 8.59-.15 9.78 9.23-10.98-.02-9.29 1.39-9.78-9.23"/><path fill="#232831" d="M880.642 1992.63a4.89 4.89 0 1 1 6.447 7.33 4.89 4.89 0 0 1-6.665-.64c-1.706-1.93-1.61-4.86.218-6.69"/><path fill="#232831" d="M847.974 1464.88a4.9 4.9 0 0 1 8.431 1.59c.557 1.7.147 3.56-1.069 4.87a4.89 4.89 0 0 1-6.813.34 4.897 4.897 0 0 1-.549-6.8"/><path fill="#232831" d="M2016.95 2024.44a4.897 4.897 0 0 1 6.86.74 4.9 4.9 0 0 1-.68 6.86 4.9 4.9 0 0 1-6.92-.69 4.9 4.9 0 0 1 .74-6.91"/><path fill="#232831" d="M1504.05 2008.91a4.85 4.85 0 0 1 4.71-1.82c1.79.32 3.25 1.61 3.79 3.34.55 1.73.08 3.62-1.2 4.91a4.883 4.883 0 0 1-6.66.21 4.88 4.88 0 0 1-.64-6.64"/><path fill="#232831" d="M1584.56 2008.56a4.85 4.85 0 0 1 6.77.12 4.86 4.86 0 0 1 .1 6.77 4.88 4.88 0 0 1-4.76 1.38 4.88 4.88 0 0 1-3.5-3.51c-.44-1.73.09-3.55 1.39-4.76"/><path fill="#232831" d="M216.571 2008.56a4.86 4.86 0 0 1 4.759-1.37 4.86 4.86 0 0 1 3.497 3.51 4.86 4.86 0 0 1-1.384 4.75 4.868 4.868 0 0 1-6.872-6.89"/><path fill="#232831" d="M1024.04 1592.91a4.857 4.857 0 0 1 8.48 1.52c.55 1.73.09 3.61-1.19 4.89a4.863 4.863 0 0 1-6.66.23 4.867 4.867 0 0 1-.63-6.64"/><path fill="#232831" d="M176.045 2008.91a4.88 4.88 0 0 1 4.7-1.81 4.863 4.863 0 0 1 2.587 8.22 4.854 4.854 0 0 1-6.653.22 4.865 4.865 0 0 1-.634-6.63"/><path fill="#232831" d="M2031.9 1255.38c10.21.33 8.59-.99 8.59 9.73-9.67-1.22-8.43.11-8.59-9.73"/><path fill="#232831" d="M1232.59 1832.58a4.83 4.83 0 0 1 6.83.01 4.83 4.83 0 0 1-.01 6.83 4.83 4.83 0 0 1-6.83-.01 4.83 4.83 0 0 1 .01-6.83"/><path fill="#232831" d="M1744.59 1832.58a4.83 4.83 0 0 1 6.83.01 4.83 4.83 0 0 1-.01 6.83 4.83 4.83 0 0 1-6.83-.01 4.83 4.83 0 0 1 .01-6.83"/><path fill="#232831" d="M1632.59 1480.58a4.83 4.83 0 0 1 6.83.01 4.83 4.83 0 0 1-.01 6.83 4.83 4.83 0 0 1-6.83-.01 4.83 4.83 0 0 1 .01-6.83"/><path fill="#232831" d="M2000.59 1848.58a4.83 4.83 0 0 1 6.83.01 4.83 4.83 0 0 1-.01 6.83 4.83 4.83 0 0 1-6.83-.01 4.83 4.83 0 0 1 .01-6.83"/><path fill="#232831" d="M1888.59 1832.58a4.83 4.83 0 0 1 6.83.01 4.83 4.83 0 0 1-.01 6.83 4.83 4.83 0 0 1-6.83-.01 4.83 4.83 0 0 1 .01-6.83"/><path fill="#232831" d="M1792.59 1832.58a4.83 4.83 0 0 1 6.83.01 4.83 4.83 0 0 1-.01 6.83 4.83 4.83 0 0 1-6.83-.01 4.83 4.83 0 0 1 .01-6.83"/><path fill="#232831" d="M1840.59 1800.58a4.83 4.83 0 0 1 6.83.01 4.83 4.83 0 0 1-.01 6.83 4.83 4.83 0 0 1-6.83-.01 4.83 4.83 0 0 1 .01-6.83"/><path fill="#232831" d="M1456.59 1640.58a4.83 4.83 0 0 1 6.83.01 4.83 4.83 0 0 1-.01 6.83 4.83 4.83 0 0 1-6.83-.01 4.83 4.83 0 0 1 .01-6.83"/><path fill="#232831" d="M1408.59 1640.58a4.83 4.83 0 0 1 6.83.01 4.83 4.83 0 0 1-.01 6.83 4.83 4.83 0 0 1-6.83-.01 4.83 4.83 0 0 1 .01-6.83"/><path fill="#232831" d="M1552.59 1432.58a4.83 4.83 0 0 1 6.83.01 4.83 4.83 0 0 1-.01 6.83 4.83 4.83 0 0 1-6.83-.01 4.83 4.83 0 0 1 .01-6.83"/><path fill="#232831" d="M1936.59 1224.58a4.83 4.83 0 0 1 6.83.01 4.83 4.83 0 0 1-.01 6.83 4.83 4.83 0 0 1-6.83-.01 4.83 4.83 0 0 1 .01-6.83"/><path fill="#232831" d="M896.59 1976.58a4.83 4.83 0 1 1 6.82 6.84 4.83 4.83 0 0 1-6.82-6.84"/><path fill="#232831" d="M944.59 1912.58a4.83 4.83 0 1 1 6.82 6.84 4.83 4.83 0 0 1-6.82-6.84"/><path fill="#232831" d="M1568.59 1000.58a4.83 4.83 0 1 1 6.82 6.84 4.83 4.83 0 0 1-6.82-6.84"/><path fill="#232831" d="M1104.59 1992.58a4.83 4.83 0 0 1 6.83.01 4.83 4.83 0 0 1-.01 6.83 4.83 4.83 0 0 1-6.83-.01 4.83 4.83 0 0 1 .01-6.83"/><path fill="#232831" d="M1744.59 1944.58a4.83 4.83 0 0 1 6.83.01 4.83 4.83 0 0 1-.01 6.83 4.83 4.83 0 0 1-6.83-.01 4.83 4.83 0 0 1 .01-6.83"/><path fill="#232831" d="M1376.59 1944.58a4.83 4.83 0 0 1 6.83.01 4.83 4.83 0 0 1-.01 6.83 4.83 4.83 0 0 1-6.83-.01 4.83 4.83 0 0 1 .01-6.83"/><path fill="#232831" d="M1168.59 1944.58a4.83 4.83 0 0 1 6.83.01 4.83 4.83 0 0 1-.01 6.83 4.83 4.83 0 0 1-6.83-.01 4.83 4.83 0 0 1 .01-6.83"/><path fill="#232831" d="M1312.59 1832.58a4.83 4.83 0 0 1 6.83.01 4.83 4.83 0 0 1-.01 6.83 4.83 4.83 0 0 1-6.83-.01 4.83 4.83 0 0 1 .01-6.83"/><path fill="#232831" d="M1888.59 1800.58a4.83 4.83 0 0 1 6.83.01 4.83 4.83 0 0 1-.01 6.83 4.83 4.83 0 0 1-6.83-.01 4.83 4.83 0 0 1 .01-6.83"/><path fill="#232831" d="M656.59 1768.58a4.83 4.83 0 1 1 6.82 6.84 4.83 4.83 0 0 1-6.82-6.84"/><path fill="#232831" d="M1088.59 1560.58a4.83 4.83 0 0 1 6.83.01 4.83 4.83 0 0 1-.01 6.83 4.83 4.83 0 0 1-6.83-.01 4.83 4.83 0 0 1 .01-6.83"/><path fill="#232831" d="M784.59 1560.58a4.83 4.83 0 1 1 6.82 6.84 4.83 4.83 0 0 1-6.82-6.84"/><path fill="#232831" d="M1584.59 1496.58a4.83 4.83 0 0 1 6.83.01 4.83 4.83 0 0 1-.01 6.83 4.83 4.83 0 0 1-6.83-.01 4.83 4.83 0 0 1 .01-6.83"/><path fill="#232831" d="M2000.59 1384.58a4.83 4.83 0 0 1 6.83.01 4.83 4.83 0 0 1-.01 6.83 4.83 4.83 0 0 1-6.83-.01 4.83 4.83 0 0 1 .01-6.83"/><path fill="#232831" d="M2016.59 1336.58a4.83 4.83 0 0 1 6.83.01 4.83 4.83 0 0 1-.01 6.83 4.83 4.83 0 0 1-6.83-.01 4.83 4.83 0 0 1 .01-6.83"/><path fill="#232831" d="M896.59 1336.58a4.83 4.83 0 1 1 6.82 6.84 4.83 4.83 0 0 1-6.82-6.84"/><path fill="#232831" d="M1696.59 1288.58a4.83 4.83 0 0 1 6.83.01 4.83 4.83 0 0 1-.01 6.83 4.83 4.83 0 0 1-6.83-.01 4.83 4.83 0 0 1 .01-6.83"/><path fill="#232831" d="M1376.59 1144.58a4.83 4.83 0 0 1 6.83.01 4.83 4.83 0 0 1-.01 6.83 4.83 4.83 0 0 1-6.83-.01 4.83 4.83 0 0 1 .01-6.83"/><path fill="#232831" d="M1472.59 1000.58a4.83 4.83 0 1 1 6.82 6.84 4.83 4.83 0 0 1-6.82-6.84"/><path fill="#232831" d="M576.59 1736.58a4.83 4.83 0 1 1 6.82 6.84 4.83 4.83 0 0 1-6.82-6.84"/><path fill="#232831" d="M1008.59 1672.58a4.83 4.83 0 0 1 6.83.01 4.83 4.83 0 0 1-.01 6.83 4.83 4.83 0 0 1-6.83-.01 4.83 4.83 0 0 1 .01-6.83"/><path fill="#232831" d="M1104.59 1496.58a4.83 4.83 0 0 1 6.83.01 4.83 4.83 0 0 1-.01 6.83 4.83 4.83 0 0 1-6.83-.01 4.83 4.83 0 0 1 .01-6.83"/><path fill="#232831" d="M1648.59 1144.58a4.83 4.83 0 0 1 6.83.01 4.83 4.83 0 0 1-.01 6.83 4.83 4.83 0 0 1-6.83-.01 4.83 4.83 0 0 1 .01-6.83"/><path fill="#232831" d="M1760.59 1048.58a4.83 4.83 0 0 1 6.83.01 4.83 4.83 0 0 1-.01 6.83 4.83 4.83 0 0 1-6.83-.01 4.83 4.83 0 0 1 .01-6.83"/><path fill="#232831" d="M1936.59 968.58a4.83 4.83 0 1 1 6.82 6.84 4.83 4.83 0 0 1-6.82-6.84"/><path fill="#232831" d="M1872.59 904.58a4.83 4.83 0 1 1 6.82 6.84 4.83 4.83 0 0 1-6.82-6.84"/><path fill="#232831" d="M1936.59 696.58a4.83 4.83 0 1 1 6.82 6.84 4.83 4.83 0 0 1-6.82-6.84"/><path fill="#232831" d="M1776.59 680.58a4.83 4.83 0 1 1 6.82 6.84 4.83 4.83 0 0 1-6.82-6.84"/><path fill="#232831" d="M464.59 1960.58a4.83 4.83 0 1 1 6.82 6.84 4.83 4.83 0 0 1-6.82-6.84"/><path fill="#232831" d="M528.59 1800.58a4.83 4.83 0 1 1 6.82 6.84 4.83 4.83 0 0 1-6.82-6.84"/><path fill="#232831" d="M544.59 1288.58a4.83 4.83 0 1 1 6.82 6.84 4.83 4.83 0 0 1-6.82-6.84"/><path fill="#232831" d="M1664.59 616.58a4.83 4.83 0 1 1 6.82 6.84 4.83 4.83 0 0 1-6.82-6.84"/><path fill="#232831" d="M1264.59 504.58a4.83 4.83 0 1 1 6.82 6.84 4.83 4.83 0 0 1-6.82-6.84"/><path fill="#232831" d="M1856.59 488.58a4.83 4.83 0 1 1 6.82 6.84 4.83 4.83 0 0 1-6.82-6.84"/><path fill="#232831" d="M1808.59 488.58a4.83 4.83 0 1 1 6.82 6.84 4.83 4.83 0 0 1-6.82-6.84"/><path fill="#232831" d="M1712.59 392.58a4.83 4.83 0 1 1 6.82 6.84 4.83 4.83 0 0 1-6.82-6.84"/><path fill="#232831" d="M496.59 1976.58a4.83 4.83 0 1 1 6.82 6.84 4.83 4.83 0 0 1-6.82-6.84"/><path fill="#232831" d="M992.59 1944.58a4.83 4.83 0 0 1 6.83.01 4.83 4.83 0 0 1-.01 6.83 4.83 4.83 0 0 1-6.82-6.84"/><path fill="#232831" d="M512.59 1752.58a4.83 4.83 0 1 1 6.82 6.84 4.83 4.83 0 0 1-6.82-6.84"/><path fill="#232831" d="M352.59 1736.58a4.83 4.83 0 1 1 6.82 6.84 4.83 4.83 0 0 1-6.82-6.84"/><path fill="#232831" d="M400.59 1704.58a4.83 4.83 0 1 1 6.82 6.84 4.83 4.83 0 0 1-6.82-6.84"/><path fill="#232831" d="M1440.59 1672.58a4.83 4.83 0 0 1 6.83.01 4.83 4.83 0 0 1-.01 6.83 4.83 4.83 0 0 1-6.83-.01 4.83 4.83 0 0 1 .01-6.83"/><path fill="#232831" d="M1648.59 1608.58a4.83 4.83 0 0 1 6.83.01 4.83 4.83 0 0 1-.01 6.83 4.83 4.83 0 0 1-6.83-.01 4.83 4.83 0 0 1 .01-6.83"/><path fill="#232831" d="M800.59 1544.58a4.83 4.83 0 1 1 6.82 6.84 4.83 4.83 0 0 1-6.82-6.84"/><path fill="#232831" d="M1248.59 1480.58a4.83 4.83 0 0 1 6.83.01 4.83 4.83 0 0 1-.01 6.83 4.83 4.83 0 0 1-6.83-.01 4.83 4.83 0 0 1 .01-6.83"/><path fill="#232831" d="M1792.59 1304.58a4.83 4.83 0 0 1 6.83.01 4.83 4.83 0 0 1-.01 6.83 4.83 4.83 0 0 1-6.83-.01 4.83 4.83 0 0 1 .01-6.83"/><path fill="#232831" d="M496.59 1288.58a4.83 4.83 0 1 1 6.82 6.84 4.83 4.83 0 0 1-6.82-6.84"/><path fill="#232831" d="M448.59 1288.58a4.83 4.83 0 1 1 6.82 6.84 4.83 4.83 0 0 1-6.82-6.84"/><path fill="#232831" d="M1456.59 1240.58a4.83 4.83 0 0 1 6.83.01 4.83 4.83 0 0 1-.01 6.83 4.83 4.83 0 0 1-6.83-.01 4.83 4.83 0 0 1 .01-6.83"/><path fill="#232831" d="M1888.59 1224.58a4.83 4.83 0 0 1 6.83.01 4.83 4.83 0 0 1-.01 6.83 4.83 4.83 0 0 1-6.83-.01 4.83 4.83 0 0 1 .01-6.83"/><path fill="#232831" d="M1392.59 1192.58a4.83 4.83 0 0 1 6.83.01 4.83 4.83 0 0 1-.01 6.83 4.83 4.83 0 0 1-6.83-.01 4.83 4.83 0 0 1 .01-6.83"/><path fill="#232831" d="M1904.59 1128.58a4.83 4.83 0 0 1 6.83.01 4.83 4.83 0 0 1-.01 6.83 4.83 4.83 0 0 1-6.83-.01 4.83 4.83 0 0 1 .01-6.83"/><path fill="#232831" d="M1712.59 920.58a4.83 4.83 0 1 1 6.82 6.84 4.83 4.83 0 0 1-6.82-6.84"/><path fill="#232831" d="M1792.59 664.58a4.83 4.83 0 1 1 6.82 6.84 4.83 4.83 0 0 1-6.82-6.84"/><path fill="#232831" d="M1728.59 600.58a4.83 4.83 0 1 1 6.82 6.84 4.83 4.83 0 0 1-6.82-6.84"/><path fill="#232831" d="M1760.59 488.58a4.83 4.83 0 1 1 6.82 6.84 4.83 4.83 0 0 1-6.82-6.84"/><path fill="#232831" d="M1952.59 344.58a4.83 4.83 0 1 1 6.82 6.84 4.83 4.83 0 0 1-6.82-6.84"/><path fill="#232831" d="M1136.59 280.58a4.83 4.83 0 1 1 6.82 6.84 4.83 4.83 0 0 1-6.82-6.84"/><path fill="#232831" d="M176.59 1816.58a4.83 4.83 0 1 1 6.82 6.84 4.83 4.83 0 0 1-6.82-6.84"/><path fill="#232831" d="M432.59 936.58a4.83 4.83 0 1 1 6.82 6.84 4.83 4.83 0 0 1-6.82-6.84"/><path fill="#232831" d="M304.59 872.58a4.83 4.83 0 1 1 6.82 6.84 4.83 4.83 0 0 1-6.82-6.84"/><path fill="#232831" d="M560.59 712.58a4.83 4.83 0 1 1 6.82 6.84 4.83 4.83 0 0 1-6.82-6.84"/><path fill="#232831" d="M544.59 568.58a4.83 4.83 0 1 1 6.82 6.84 4.83 4.83 0 0 1-6.82-6.84"/><path fill="#232831" d="M784.59 472.58a4.83 4.83 0 1 1 6.82 6.84 4.83 4.83 0 0 1-6.82-6.84"/><path fill="#232831" d="M1408.59 280.58a4.83 4.83 0 1 1 6.82 6.84 4.83 4.83 0 0 1-6.82-6.84"/><path fill="#232831" d="M1184.59 280.58a4.83 4.83 0 1 1 6.82 6.84 4.83 4.83 0 0 1-6.82-6.84"/><path fill="#232831" d="M1712.59 216.58a4.83 4.83 0 1 1 6.82 6.84 4.83 4.83 0 0 1-6.82-6.84"/><path fill="#232831" d="M160.59 1608.58a4.83 4.83 0 1 1 6.82 6.84 4.83 4.83 0 0 1-6.82-6.84"/><path fill="#232831" d="M336.59 1016.58a4.83 4.83 0 1 1 6.82 6.84 4.83 4.83 0 0 1-6.82-6.84"/><path fill="#232831" d="M384.59 1000.58a4.83 4.83 0 1 1 6.82 6.84 4.83 4.83 0 0 1-6.82-6.84"/><path fill="#232831" d="M512.59 968.58a4.83 4.83 0 1 1 6.82 6.84 4.83 4.83 0 0 1-6.82-6.84"/><path fill="#232831" d="M544.59 600.58a4.83 4.83 0 1 1 6.82 6.84 4.83 4.83 0 0 1-6.82-6.84"/><path fill="#232831" d="M784.59 536.58a4.83 4.83 0 1 1 6.82 6.84 4.83 4.83 0 0 1-6.82-6.84"/><path fill="#232831" d="M1728.59 344.58a4.83 4.83 0 1 1 6.82 6.84 4.83 4.83 0 0 1-6.82-6.84"/><path fill="#232831" d="M896.59 152.58a4.83 4.83 0 1 1 6.82 6.84 4.83 4.83 0 0 1-6.82-6.84"/><path fill="#232831" d="M1424.59 88.58a4.83 4.83 0 1 1 6.82 6.84 4.83 4.83 0 0 1-6.82-6.84"/><path fill="#232831" d="M96.59 1976.58a4.83 4.83 0 1 1 6.82 6.84 4.83 4.83 0 0 1-6.82-6.84"/><path fill="#232831" d="M144.59 664.58a4.83 4.83 0 1 1 6.82 6.84 4.83 4.83 0 0 1-6.82-6.84"/><path fill="#232831" d="M848.59 88.58a4.83 4.83 0 1 1 6.82 6.84 4.83 4.83 0 0 1-6.82-6.84"/><path fill="#232831" d="M160.59 616.58a4.83 4.83 0 1 1 6.82 6.84 4.83 4.83 0 0 1-6.82-6.84"/><path fill="#232831" d="M160.59 488.58a4.83 4.83 0 1 1 6.82 6.84 4.83 4.83 0 0 1-6.82-6.84"/><path fill="#232831" d="M512.59 216.58a4.83 4.83 0 1 1 6.82 6.84 4.83 4.83 0 0 1-6.82-6.84"/><path fill="#232831" d="M1376.59 88.58a4.83 4.83 0 1 1 6.82 6.84 4.83 4.83 0 0 1-6.82-6.84"/><path fill="#232831" d="M256.59 1880.58a4.83 4.83 0 1 1 6.82 6.84 4.83 4.83 0 0 1-6.82-6.84"/><path fill="#232831" d="M256.59 1784.58a4.83 4.83 0 1 1 6.82 6.84 4.83 4.83 0 0 1-6.82-6.84"/><path fill="#232831" d="M192.59 1432.58a4.83 4.83 0 1 1 6.82 6.84 4.83 4.83 0 0 1-6.82-6.84"/><path fill="#232831" d="M160.59 1416.58a4.83 4.83 0 1 1 6.82 6.84 4.83 4.83 0 0 1-6.82-6.84"/><path fill="#232831" d="M272.59 1144.58a4.83 4.83 0 1 1 6.82 6.84 4.83 4.83 0 0 1-6.82-6.84"/><path fill="#232831" d="M192.59 888.58a4.83 4.83 0 1 1 6.82 6.84 4.83 4.83 0 0 1-6.82-6.84"/><path fill="#232831" d="M384.59 744.58a4.83 4.83 0 1 1 6.82 6.84 4.83 4.83 0 0 1-6.82-6.84"/><path fill="#232831" d="M688.59 568.58a4.83 4.83 0 1 1 6.82 6.84 4.83 4.83 0 0 1-6.82-6.84"/><path fill="#232831" d="M736.59 504.58a4.83 4.83 0 1 1 6.82 6.84 4.83 4.83 0 0 1-6.82-6.84"/><path fill="#232831" d="M384.59 504.58a4.83 4.83 0 1 1 6.82 6.84 4.83 4.83 0 0 1-6.82-6.84"/><path fill="#232831" d="M208.59 488.58a4.83 4.83 0 1 1 6.82 6.84 4.83 4.83 0 0 1-6.82-6.84"/><path fill="#232831" d="M288.59 392.58a4.83 4.83 0 1 1 6.82 6.84 4.83 4.83 0 0 1-6.82-6.84"/><path fill="#232831" d="M352.59 280.58a4.83 4.83 0 1 1 6.82 6.84 4.83 4.83 0 0 1-6.82-6.84"/><path fill="#232831" d="M1904.59 248.58a4.83 4.83 0 1 1 6.82 6.84 4.83 4.83 0 0 1-6.82-6.84"/><path fill="#232831" d="M528.59 200.58a4.83 4.83 0 1 1 6.82 6.84 4.83 4.83 0 0 1-6.82-6.84"/><path fill="#232831" d="M1168.59 184.58a4.83 4.83 0 1 1 6.82 6.84 4.83 4.83 0 0 1-6.82-6.84"/><path fill="#232831" d="M752.59 184.58a4.83 4.83 0 1 1 6.82 6.84 4.83 4.83 0 0 1-6.82-6.84"/><path fill="#232831" d="M1664.59 152.58a4.83 4.83 0 1 1 6.82 6.84 4.83 4.83 0 0 1-6.82-6.84"/><path fill="#232831" d="M1040.59 152.58a4.83 4.83 0 1 1 6.82 6.84 4.83 4.83 0 0 1-6.82-6.84"/><path fill="#232831" d="M400.59 136.58a4.83 4.83 0 1 1 6.82 6.84 4.83 4.83 0 0 1-6.82-6.84"/><path fill="#232831" d="M256.59 200.58a4.83 4.83 0 1 1 6.82 6.84 4.83 4.83 0 0 1-6.82-6.84"/><path fill="#232831" d="M320.59 120.58a4.83 4.83 0 1 1 6.82 6.84 4.83 4.83 0 0 1-6.82-6.84"/><path fill="#232831" d="M448.59 104.58a4.83 4.83 0 1 1 6.82 6.84 4.83 4.83 0 0 1-6.82-6.84"/><path fill="#232831" d="M176.59 120.58a4.83 4.83 0 1 1 6.82 6.84 4.83 4.83 0 0 1-6.82-6.84"/><path fill="#232831" d="M144.59 376.58a4.83 4.83 0 1 1 6.82 6.84 4.83 4.83 0 0 1-6.82-6.84"/><path fill="#232831" d="M192.59 248.58a4.83 4.83 0 1 1 6.82 6.84 4.83 4.83 0 0 1-6.82-6.84"/><path fill="#232831" d="M176.59 152.58a4.83 4.83 0 1 1 6.82 6.84 4.83 4.83 0 0 1-6.82-6.84"/><path fill="#232831" d="M352.59 104.58a4.83 4.83 0 1 1 6.82 6.84 4.83 4.83 0 0 1-6.82-6.84"/><path fill="#232831" d="M272.59 88.58a4.83 4.83 0 1 1 6.82 6.84 4.83 4.83 0 0 1-6.82-6.84"/><path fill="#232831" d="M224.59 56.58a4.83 4.83 0 1 1 6.82 6.84 4.83 4.83 0 0 1-6.82-6.84"/><path fill="#232831" d="M112.59 1464.58a4.83 4.83 0 1 1 6.82 6.84 4.83 4.83 0 0 1-6.82-6.84"/><path fill="#232831" d="M64.59 1384.58a4.83 4.83 0 1 1 6.82 6.84 4.83 4.83 0 0 1-6.82-6.84"/><path fill="#232831" d="M160.59 1288.58a4.83 4.83 0 1 1 6.82 6.84 4.83 4.83 0 0 1-6.82-6.84"/><path fill="#232831" d="M112.59 1192.58a4.83 4.83 0 1 1 6.82 6.84 4.83 4.83 0 0 1-6.82-6.84"/><path fill="#232831" d="M160.59 1128.58a4.83 4.83 0 1 1 6.82 6.84 4.83 4.83 0 0 1-6.82-6.84"/><path fill="#232831" d="M160.59 904.58a4.83 4.83 0 1 1 6.82 6.84 4.83 4.83 0 0 1-6.82-6.84"/><path fill="#232831" d="M256.59 872.58a4.83 4.83 0 1 1 6.82 6.84 4.83 4.83 0 0 1-6.82-6.84"/><path fill="#232831" d="M240.59 840.58a4.83 4.83 0 1 1 6.82 6.84 4.83 4.83 0 0 1-6.82-6.84"/><path fill="#232831" d="M336.59 568.58a4.83 4.83 0 1 1 6.82 6.84 4.83 4.83 0 0 1-6.82-6.84"/><path fill="#232831" d="M336.59 504.58a4.83 4.83 0 1 1 6.82 6.84 4.83 4.83 0 0 1-6.82-6.84"/><path fill="#232831" d="M496.59 472.58a4.83 4.83 0 1 1 6.82 6.84 4.83 4.83 0 0 1-6.82-6.84"/><path fill="#232831" d="M304.59 376.58a4.83 4.83 0 1 1 6.82 6.84 4.83 4.83 0 0 1-6.82-6.84"/><path fill="#232831" d="M512.59 152.58a4.83 4.83 0 1 1 6.82 6.84 4.83 4.83 0 0 1-6.82-6.84"/><path fill="#232831" d="M368.59 152.58a4.83 4.83 0 1 1 6.82 6.84 4.83 4.83 0 0 1-6.82-6.84"/><path fill="#232831" d="M1568.59 136.58a4.83 4.83 0 1 1 6.82 6.84 4.83 4.83 0 0 1-6.82-6.84"/><path fill="#232831" d="M416.59 88.58a4.83 4.83 0 1 1 6.82 6.84 4.83 4.83 0 0 1-6.82-6.84"/><path fill="#232831" d="M1264.59 72.58a4.83 4.83 0 1 1 6.82 6.84 4.83 4.83 0 0 1-6.82-6.84"/><path fill="#232831" d="M320.59 152.58a4.83 4.83 0 1 1 6.82 6.84 4.83 4.83 0 0 1-6.82-6.84"/><path fill="#232831" d="M464.59 184.58a4.83 4.83 0 1 1 6.82 6.84 4.83 4.83 0 0 1-6.82-6.84"/><path fill="#232831" d="M416.59 120.58a4.83 4.83 0 1 1 6.82 6.84 4.83 4.83 0 0 1-6.82-6.84"/><path fill="#232831" d="M656.59 1912.58a4.83 4.83 0 1 1 6.82 6.84 4.83 4.83 0 0 1-6.82-6.84"/><path fill="#232831" d="M352.59 1864.58a4.83 4.83 0 1 1 6.82 6.84 4.83 4.83 0 0 1-6.82-6.84"/><path fill="#232831" d="M1120.59 1736.58a4.83 4.83 0 0 1 6.83.01 4.83 4.83 0 0 1-.01 6.83 4.83 4.83 0 0 1-6.83-.01 4.83 4.83 0 0 1 .01-6.83"/><path fill="#232831" d="M992.59 1736.58a4.83 4.83 0 0 1 6.83.01 4.83 4.83 0 0 1-.01 6.83 4.83 4.83 0 0 1-6.82-6.84"/><path fill="#232831" d="M112.59 1608.58a4.83 4.83 0 1 1 6.82 6.84 4.83 4.83 0 0 1-6.82-6.84"/><path fill="#232831" d="M1216.59 1544.58a4.83 4.83 0 0 1 6.83.01 4.83 4.83 0 0 1-.01 6.83 4.83 4.83 0 0 1-6.83-.01 4.83 4.83 0 0 1 .01-6.83"/><path fill="#232831" d="M1104.59 1528.58a4.83 4.83 0 0 1 6.83.01 4.83 4.83 0 0 1-.01 6.83 4.83 4.83 0 0 1-6.83-.01 4.83 4.83 0 0 1 .01-6.83"/><path fill="#232831" d="M240.59 1528.58a4.83 4.83 0 1 1 6.82 6.84 4.83 4.83 0 0 1-6.82-6.84"/><path fill="#232831" d="M1184.59 1512.58a4.83 4.83 0 0 1 6.83.01 4.83 4.83 0 0 1-.01 6.83 4.83 4.83 0 0 1-6.83-.01 4.83 4.83 0 0 1 .01-6.83"/><path fill="#232831" d="M256.59 1416.58a4.83 4.83 0 1 1 6.82 6.84 4.83 4.83 0 0 1-6.82-6.84"/><path fill="#232831" d="M208.59 1416.58a4.83 4.83 0 1 1 6.82 6.84 4.83 4.83 0 0 1-6.82-6.84"/><path fill="#232831" d="M192.59 1368.58a4.83 4.83 0 1 1 6.82 6.84 4.83 4.83 0 0 1-6.82-6.84"/><path fill="#232831" d="M1440.59 1352.58a4.83 4.83 0 0 1 6.83.01 4.83 4.83 0 0 1-.01 6.83 4.83 4.83 0 0 1-6.83-.01 4.83 4.83 0 0 1 .01-6.83"/><path fill="#232831" d="M1552.59 1288.58a4.83 4.83 0 0 1 6.83.01 4.83 4.83 0 0 1-.01 6.83 4.83 4.83 0 0 1-6.83-.01 4.83 4.83 0 0 1 .01-6.83"/><path fill="#232831" d="M112.59 1256.58a4.83 4.83 0 1 1 6.82 6.84 4.83 4.83 0 0 1-6.82-6.84"/><path fill="#232831" d="M1760.59 1176.58a4.83 4.83 0 0 1 6.83.01 4.83 4.83 0 0 1-.01 6.83 4.83 4.83 0 0 1-6.83-.01 4.83 4.83 0 0 1 .01-6.83"/><path fill="#232831" d="M1472.59 1176.58a4.83 4.83 0 0 1 6.83.01 4.83 4.83 0 0 1-.01 6.83 4.83 4.83 0 0 1-6.83-.01 4.83 4.83 0 0 1 .01-6.83"/><path fill="#232831" d="M256.59 968.58a4.83 4.83 0 1 1 6.82 6.84 4.83 4.83 0 0 1-6.82-6.84"/><path fill="#232831" d="M1904.59 936.58a4.83 4.83 0 1 1 6.82 6.84 4.83 4.83 0 0 1-6.82-6.84"/><path fill="#232831" d="M1808.59 888.58a4.83 4.83 0 1 1 6.82 6.84 4.83 4.83 0 0 1-6.82-6.84"/><path fill="#232831" d="M1888.59 792.58a4.83 4.83 0 1 1 6.82 6.84 4.83 4.83 0 0 1-6.82-6.84"/><path fill="#232831" d="M1840.59 648.58a4.83 4.83 0 1 1 6.82 6.84 4.83 4.83 0 0 1-6.82-6.84"/><path fill="#232831" d="M1744.59 648.58a4.83 4.83 0 1 1 6.82 6.84 4.83 4.83 0 0 1-6.82-6.84"/><path fill="#232831" d="M1664.59 648.58a4.83 4.83 0 1 1 6.82 6.84 4.83 4.83 0 0 1-6.82-6.84"/><path fill="#232831" d="M1792.59 632.58a4.83 4.83 0 1 1 6.82 6.84 4.83 4.83 0 0 1-6.82-6.84"/><path fill="#232831" d="M896.59 440.58a4.83 4.83 0 1 1 6.82 6.84 4.83 4.83 0 0 1-6.82-6.84"/><path fill="#232831" d="M192.59 440.58a4.83 4.83 0 1 1 6.82 6.84 4.83 4.83 0 0 1-6.82-6.84"/><path fill="#232831" d="M1984.59 424.58a4.83 4.83 0 1 1 6.82 6.84 4.83 4.83 0 0 1-6.82-6.84"/><path fill="#232831" d="M1584.59 424.58a4.83 4.83 0 1 1 6.82 6.84 4.83 4.83 0 0 1-6.82-6.84"/><path fill="#232831" d="M928.59 424.58a4.83 4.83 0 1 1 6.82 6.84 4.83 4.83 0 0 1-6.82-6.84"/><path fill="#232831" d="M240.59 392.58a4.83 4.83 0 1 1 6.82 6.84 4.83 4.83 0 0 1-6.82-6.84"/><path fill="#232831" d="M1472.59 248.58a4.83 4.83 0 1 1 6.82 6.84 4.83 4.83 0 0 1-6.82-6.84"/><path fill="#232831" d="M736.59 200.58a4.83 4.83 0 1 1 6.82 6.84 4.83 4.83 0 0 1-6.82-6.84"/><path fill="#232831" d="M576.59 136.58a4.83 4.83 0 1 1 6.82 6.84 4.83 4.83 0 0 1-6.82-6.84"/><path fill="#232831" d="M592.59 120.58a4.83 4.83 0 1 1 6.82 6.84 4.83 4.83 0 0 1-6.82-6.84"/><path fill="#232831" d="M160.59 1448.58a4.83 4.83 0 1 1 6.82 6.84 4.83 4.83 0 0 1-6.82-6.84"/><path fill="#232831" d="M112.59 1128.58a4.83 4.83 0 1 1 6.82 6.84 4.83 4.83 0 0 1-6.82-6.84"/><path fill="#232831" d="M400.59 632.58a4.83 4.83 0 1 1 6.82 6.84 4.83 4.83 0 0 1-6.82-6.84"/><path fill="#232831" d="M672.59 360.58a4.83 4.83 0 1 1 6.82 6.84 4.83 4.83 0 0 1-6.82-6.84"/><path fill="#232831" d="M432.59 328.58a4.83 4.83 0 1 1 6.82 6.84 4.83 4.83 0 0 1-6.82-6.84"/><path fill="#232831" d="M144.59 1656.58a4.83 4.83 0 1 1 6.82 6.84 4.83 4.83 0 0 1-6.82-6.84"/><path fill="#232831" d="M192.59 1624.58a4.83 4.83 0 1 1 6.82 6.84 4.83 4.83 0 0 1-6.82-6.84"/><path fill="#232831" d="M320.59 1528.58a4.83 4.83 0 1 1 6.82 6.84 4.83 4.83 0 0 1-6.82-6.84"/><path fill="#232831" d="M352.59 1256.58a4.83 4.83 0 1 1 6.82 6.84 4.83 4.83 0 0 1-6.82-6.84"/><path fill="#232831" d="M240.59 1080.58a4.83 4.83 0 1 1 6.82 6.84 4.83 4.83 0 0 1-6.82-6.84"/><path fill="#232831" d="M384.59 1032.58a4.83 4.83 0 1 1 6.82 6.84 4.83 4.83 0 0 1-6.82-6.84"/><path fill="#232831" d="M576.59 504.58a4.83 4.83 0 1 1 6.82 6.84 4.83 4.83 0 0 1-6.82-6.84"/><path fill="#232831" d="M304.59 456.58a4.83 4.83 0 1 1 6.82 6.84 4.83 4.83 0 0 1-6.82-6.84"/><path fill="#232831" d="M528.59 360.58a4.83 4.83 0 1 1 6.82 6.84 4.83 4.83 0 0 1-6.82-6.84"/><path fill="#232831" d="M1712.59 280.58a4.83 4.83 0 1 1 6.82 6.84 4.83 4.83 0 0 1-6.82-6.84"/><path fill="#232831" d="M1600.59 248.58a4.83 4.83 0 1 1 6.82 6.84 4.83 4.83 0 0 1-6.82-6.84"/><path fill="#232831" d="M1152.59 248.58a4.83 4.83 0 1 1 6.82 6.84 4.83 4.83 0 0 1-6.82-6.84"/><path fill="#232831" d="M144.59 1480.58a4.83 4.83 0 1 1 6.82 6.84 4.83 4.83 0 0 1-6.82-6.84"/><path fill="#232831" d="M1952.59 104.58a4.83 4.83 0 1 1 6.82 6.84 4.83 4.83 0 0 1-6.82-6.84"/><path fill="#232831" d="M336.59 1880.58a4.83 4.83 0 1 1 6.82 6.84 4.83 4.83 0 0 1-6.82-6.84"/><path fill="#232831" d="M352.59 1288.58a4.83 4.83 0 1 1 6.82 6.84 4.83 4.83 0 0 1-6.82-6.84"/><path fill="#232831" d="M400.59 664.58a4.83 4.83 0 1 1 6.82 6.84 4.83 4.83 0 0 1-6.82-6.84"/><path fill="#232831" d="M1520.59 632.58a4.83 4.83 0 1 1 6.82 6.84 4.83 4.83 0 0 1-6.82-6.84"/><path fill="#232831" d="M1296.59 488.58a4.83 4.83 0 1 1 6.82 6.84 4.83 4.83 0 0 1-6.82-6.84"/><path fill="#232831" d="M1712.59 456.58a4.83 4.83 0 1 1 6.82 6.84 4.83 4.83 0 0 1-6.82-6.84"/><path fill="#232831" d="M1808.59 392.58a4.83 4.83 0 1 1 6.82 6.84 4.83 4.83 0 0 1-6.82-6.84"/><path fill="#232831" d="M1648.59 296.58a4.83 4.83 0 1 1 6.82 6.84 4.83 4.83 0 0 1-6.82-6.84"/><path fill="#232831" d="M240.59 1800.58a4.83 4.83 0 1 1 6.82 6.84 4.83 4.83 0 0 1-6.82-6.84"/><path fill="#232831" d="M1504.59 1976.58a4.83 4.83 0 0 1 6.83.01 4.83 4.83 0 0 1-.01 6.83 4.83 4.83 0 0 1-6.83-.01 4.83 4.83 0 0 1 .01-6.83"/><path fill="#232831" d="M1120.59 1976.58a4.83 4.83 0 0 1 6.83.01 4.83 4.83 0 0 1-.01 6.83 4.83 4.83 0 0 1-6.83-.01 4.83 4.83 0 0 1 .01-6.83"/><path fill="#232831" d="M1424.59 1864.58a4.83 4.83 0 0 1 6.83.01 4.83 4.83 0 0 1-.01 6.83 4.83 4.83 0 0 1-6.83-.01 4.83 4.83 0 0 1 .01-6.83"/><path fill="#232831" d="M1216.59 1864.58a4.83 4.83 0 0 1 6.83.01 4.83 4.83 0 0 1-.01 6.83 4.83 4.83 0 0 1-6.83-.01 4.83 4.83 0 0 1 .01-6.83"/><path fill="#232831" d="M480.59 1832.58a4.83 4.83 0 1 1 6.82 6.84 4.83 4.83 0 0 1-6.82-6.84"/><path fill="#232831" d="M1552.59 1816.58a4.83 4.83 0 0 1 6.83.01 4.83 4.83 0 0 1-.01 6.83 4.83 4.83 0 0 1-6.83-.01 4.83 4.83 0 0 1 .01-6.83"/><path fill="#232831" d="M544.59 1784.58a4.83 4.83 0 1 1 6.82 6.84 4.83 4.83 0 0 1-6.82-6.84"/><path fill="#232831" d="M1552.59 1672.58a4.83 4.83 0 0 1 6.83.01 4.83 4.83 0 0 1-.01 6.83 4.83 4.83 0 0 1-6.83-.01 4.83 4.83 0 0 1 .01-6.83"/><path fill="#232831" d="M2016.59 1656.58a4.83 4.83 0 0 1 6.83.01 4.83 4.83 0 0 1-.01 6.83 4.83 4.83 0 0 1-6.83-.01 4.83 4.83 0 0 1 .01-6.83"/><path fill="#232831" d="M1216.59 1608.58a4.83 4.83 0 0 1 6.83.01 4.83 4.83 0 0 1-.01 6.83 4.83 4.83 0 0 1-6.83-.01 4.83 4.83 0 0 1 .01-6.83"/><path fill="#232831" d="M1504.59 1576.58a4.83 4.83 0 0 1 6.83.01 4.83 4.83 0 0 1-.01 6.83 4.83 4.83 0 0 1-6.83-.01 4.83 4.83 0 0 1 .01-6.83"/><path fill="#232831" d="M1616.59 1544.58a4.83 4.83 0 0 1 6.83.01 4.83 4.83 0 0 1-.01 6.83 4.83 4.83 0 0 1-6.83-.01 4.83 4.83 0 0 1 .01-6.83"/><path fill="#232831" d="M1776.59 1448.58a4.83 4.83 0 0 1 6.83.01 4.83 4.83 0 0 1-.01 6.83 4.83 4.83 0 0 1-6.83-.01 4.83 4.83 0 0 1 .01-6.83"/><path fill="#232831" d="M496.59 1320.58a4.83 4.83 0 1 1 6.82 6.84 4.83 4.83 0 0 1-6.82-6.84"/><path fill="#232831" d="M816.59 1288.58a4.83 4.83 0 1 1 6.82 6.84 4.83 4.83 0 0 1-6.82-6.84"/><path fill="#232831" d="M560.59 1272.58a4.83 4.83 0 1 1 6.82 6.84 4.83 4.83 0 0 1-6.82-6.84"/><path fill="#232831" d="M1440.59 1256.58a4.83 4.83 0 0 1 6.83.01 4.83 4.83 0 0 1-.01 6.83 4.83 4.83 0 0 1-6.83-.01 4.83 4.83 0 0 1 .01-6.83"/><path fill="#232831" d="M1632.59 984.58a4.83 4.83 0 1 1 6.82 6.84 4.83 4.83 0 0 1-6.82-6.84"/><path fill="#232831" d="M1856.59 920.58a4.83 4.83 0 1 1 6.82 6.84 4.83 4.83 0 0 1-6.82-6.84"/><path fill="#232831" d="M1744.59 904.58a4.83 4.83 0 1 1 6.82 6.84 4.83 4.83 0 0 1-6.82-6.84"/><path fill="#232831" d="M1712.59 760.58a4.83 4.83 0 1 1 6.82 6.84 4.83 4.83 0 0 1-6.82-6.84"/><path fill="#232831" d="M1840.59 680.58a4.83 4.83 0 1 1 6.82 6.84 4.83 4.83 0 0 1-6.82-6.84"/><path fill="#232831" d="M1632.59 536.58a4.83 4.83 0 1 1 6.82 6.84 4.83 4.83 0 0 1-6.82-6.84"/><path fill="#232831" d="M1456.59 520.58a4.83 4.83 0 1 1 6.82 6.84 4.83 4.83 0 0 1-6.82-6.84"/><path fill="#232831" d="M1856.59 424.58a4.83 4.83 0 1 1 6.82 6.84 4.83 4.83 0 0 1-6.82-6.84"/><path fill="#232831" d="M1744.59 328.58a4.83 4.83 0 1 1 6.82 6.84 4.83 4.83 0 0 1-6.82-6.84"/><path fill="#232831" d="M1680.59 536.58a4.83 4.83 0 1 1 6.82 6.84 4.83 4.83 0 0 1-6.82-6.84"/><path fill="#232831" d="M592.59 1720.58a4.83 4.83 0 1 1 6.82 6.84 4.83 4.83 0 0 1-6.82-6.84"/><path fill="#232831" d="M1024.59 1656.58a4.83 4.83 0 0 1 6.83.01 4.83 4.83 0 0 1-.01 6.83 4.83 4.83 0 0 1-6.83-.01 4.83 4.83 0 0 1 .01-6.83"/><path fill="#232831" d="M800.59 1608.58a4.83 4.83 0 1 1 6.82 6.84 4.83 4.83 0 0 1-6.82-6.84"/><path fill="#232831" d="M1440.59 1384.58a4.83 4.83 0 0 1 6.83.01 4.83 4.83 0 0 1-.01 6.83 4.83 4.83 0 0 1-6.83-.01 4.83 4.83 0 0 1 .01-6.83"/><path fill="#232831" d="M864.59 1288.58a4.83 4.83 0 1 1 6.82 6.84 4.83 4.83 0 0 1-6.82-6.84"/><path fill="#232831" d="M1392.59 1128.58a4.83 4.83 0 0 1 6.83.01 4.83 4.83 0 0 1-.01 6.83 4.83 4.83 0 0 1-6.83-.01 4.83 4.83 0 0 1 .01-6.83"/><path fill="#232831" d="M1584.59 984.58a4.83 4.83 0 1 1 6.82 6.84 4.83 4.83 0 0 1-6.82-6.84"/><path fill="#232831" d="M1840.59 936.58a4.83 4.83 0 1 1 6.82 6.84 4.83 4.83 0 0 1-6.82-6.84"/><path fill="#232831" d="M1200.59 1928.58a4.83 4.83 0 0 1 6.83.01 4.83 4.83 0 0 1-.01 6.83 4.83 4.83 0 0 1-6.83-.01 4.83 4.83 0 0 1 .01-6.83"/><path fill="#232831" d="M1776.59 1880.58a4.83 4.83 0 0 1 6.83.01 4.83 4.83 0 0 1-.01 6.83 4.83 4.83 0 0 1-6.83-.01 4.83 4.83 0 0 1 .01-6.83"/><path fill="#232831" d="M1264.59 1848.58a4.83 4.83 0 0 1 6.83.01 4.83 4.83 0 0 1-.01 6.83 4.83 4.83 0 0 1-6.83-.01 4.83 4.83 0 0 1 .01-6.83"/><path fill="#232831" d="M1520.59 1800.58a4.83 4.83 0 0 1 6.83.01 4.83 4.83 0 0 1-.01 6.83 4.83 4.83 0 0 1-6.83-.01 4.83 4.83 0 0 1 .01-6.83"/><path fill="#232831" d="M704.59 1784.58a4.83 4.83 0 1 1 6.82 6.84 4.83 4.83 0 0 1-6.82-6.84"/><path fill="#232831" d="M1984.59 1672.58a4.83 4.83 0 0 1 6.83.01 4.83 4.83 0 0 1-.01 6.83 4.83 4.83 0 0 1-6.83-.01 4.83 4.83 0 0 1 .01-6.83"/><path fill="#232831" d="M1696.59 1576.58a4.83 4.83 0 0 1 6.83.01 4.83 4.83 0 0 1-.01 6.83 4.83 4.83 0 0 1-6.83-.01 4.83 4.83 0 0 1 .01-6.83"/><path fill="#232831" d="M1760.59 1352.58a4.83 4.83 0 0 1 6.83.01 4.83 4.83 0 0 1-.01 6.83 4.83 4.83 0 0 1-6.83-.01 4.83 4.83 0 0 1 .01-6.83"/><path fill="#232831" d="M1392.59 1352.58a4.83 4.83 0 0 1 6.83.01 4.83 4.83 0 0 1-.01 6.83 4.83 4.83 0 0 1-6.83-.01 4.83 4.83 0 0 1 .01-6.83"/><path fill="#232831" d="M1488.59 1160.58a4.83 4.83 0 0 1 6.83.01 4.83 4.83 0 0 1-.01 6.83 4.83 4.83 0 0 1-6.83-.01 4.83 4.83 0 0 1 .01-6.83"/><path fill="#232831" d="M1536.59 1080.58a4.83 4.83 0 0 1 6.83.01 4.83 4.83 0 0 1-.01 6.83 4.83 4.83 0 0 1-6.83-.01 4.83 4.83 0 0 1 .01-6.83"/><path fill="#232831" d="M1536.59 984.58a4.83 4.83 0 1 1 6.82 6.84 4.83 4.83 0 0 1-6.82-6.84"/><path fill="#232831" d="M1488.59 984.58a4.83 4.83 0 1 1 6.82 6.84 4.83 4.83 0 0 1-6.82-6.84"/><path fill="#232831" d="M1984.59 776.58a4.83 4.83 0 1 1 6.82 6.84 4.83 4.83 0 0 1-6.82-6.84"/><path fill="#232831" d="M1536.59 760.58a4.83 4.83 0 1 1 6.82 6.84 4.83 4.83 0 0 1-6.82-6.84"/><path fill="#232831" d="M1808.59 616.58a4.83 4.83 0 1 1 6.82 6.84 4.83 4.83 0 0 1-6.82-6.84"/><path fill="#232831" d="M1232.59 1528.58a4.83 4.83 0 0 1 6.83.01 4.83 4.83 0 0 1-.01 6.83 4.83 4.83 0 0 1-6.83-.01 4.83 4.83 0 0 1 .01-6.83"/><path fill="#232831" d="M1664.59 1256.58a4.83 4.83 0 0 1 6.83.01 4.83 4.83 0 0 1-.01 6.83 4.83 4.83 0 0 1-6.83-.01 4.83 4.83 0 0 1 .01-6.83"/><path fill="#232831" d="M1504.59 712.58a4.83 4.83 0 1 1 6.82 6.84 4.83 4.83 0 0 1-6.82-6.84"/><path fill="#232831" d="M1472.59 1960.58a4.83 4.83 0 0 1 6.83.01 4.83 4.83 0 0 1-.01 6.83 4.83 4.83 0 0 1-6.83-.01 4.83 4.83 0 0 1 .01-6.83"/><path fill="#232831" d="M1152.59 1960.58a4.83 4.83 0 0 1 6.83.01 4.83 4.83 0 0 1-.01 6.83 4.83 4.83 0 0 1-6.83-.01 4.83 4.83 0 0 1 .01-6.83"/><path fill="#232831" d="M1760.59 1928.58a4.83 4.83 0 0 1 6.83.01 4.83 4.83 0 0 1-.01 6.83 4.83 4.83 0 0 1-6.83-.01 4.83 4.83 0 0 1 .01-6.83"/><path fill="#232831" d="M1280.59 1816.58a4.83 4.83 0 0 1 6.83.01 4.83 4.83 0 0 1-.01 6.83 4.83 4.83 0 0 1-6.83-.01 4.83 4.83 0 0 1 .01-6.83"/><path fill="#232831" d="M1968.59 1576.58a4.83 4.83 0 0 1 6.83.01 4.83 4.83 0 0 1-.01 6.83 4.83 4.83 0 0 1-6.83-.01 4.83 4.83 0 0 1 .01-6.83"/><path fill="#232831" d="M1488.59 1416.58a4.83 4.83 0 0 1 6.83.01 4.83 4.83 0 0 1-.01 6.83 4.83 4.83 0 0 1-6.83-.01 4.83 4.83 0 0 1 .01-6.83"/><path fill="#232831" d="M1760.59 1256.58a4.83 4.83 0 0 1 6.83.01 4.83 4.83 0 0 1-.01 6.83 4.83 4.83 0 0 1-6.83-.01 4.83 4.83 0 0 1 .01-6.83"/><path fill="#232831" d="M1568.59 1928.58a4.83 4.83 0 0 1 6.83.01 4.83 4.83 0 0 1-.01 6.83 4.83 4.83 0 0 1-6.83-.01 4.83 4.83 0 0 1 .01-6.83"/><path fill="#232831" d="M1824.59 1816.58a4.83 4.83 0 0 1 6.83.01 4.83 4.83 0 0 1-.01 6.83 4.83 4.83 0 0 1-6.83-.01 4.83 4.83 0 0 1 .01-6.83"/><path fill="#232831" d="M1712.59 1560.58a4.83 4.83 0 0 1 6.83.01 4.83 4.83 0 0 1-.01 6.83 4.83 4.83 0 0 1-6.83-.01 4.83 4.83 0 0 1 .01-6.83"/><path fill="#232831" d="M1472.59 1512.58a4.83 4.83 0 0 1 6.83.01 4.83 4.83 0 0 1-.01 6.83 4.83 4.83 0 0 1-6.83-.01 4.83 4.83 0 0 1 .01-6.83"/><path fill="#232831" d="M576.593 1144.58a4.78 4.78 0 0 1 6.729.05 4.77 4.77 0 0 1 .02 6.72 4.766 4.766 0 0 1-6.79.02 4.78 4.78 0 0 1 .041-6.79"/><path fill="#232831" d="m639.689 663.433 1.85.03c6.979.043 8.087 1.023 6.277 8.311-8.912 1.764-8.562-.046-8.127-8.341"/><path fill="#232831" d="M2032.29 1343.35c9.94.46 7.92-.92 8.42 9.3-9.94-.46-7.92.92-8.42-9.3"/><path fill="#232831" d="M2015.76 1367.38c9.71.26 7.72-.1 7.73 10.05-.86-.19-1.72-.36-2.58-.52-6.73-1.22-5.63-2.84-5.15-9.53"/><path fill="#232831" d="M958.669 2039.51c9.604.01 9.021-2.01 10.244 6.26l.145.93c-9.29-.06-8.703 2.13-10.032-5.26z"/><path fill="#232831" d="M885.667 1441.14c4.08 2.77 3.873 12.89 2.211 16.81-.924-.79-3.913-2.92-4.127-3.94.077-.21.181-.61.372-.72 2.489-1.54 1.54-8.06 1.544-12.15"/><path fill="#232831" d="M2027.34 1910.76c7.22 1.48 5.04 2.63 5.32 10.48-7.22-1.48-5.04-2.63-5.32-10.48"/><path fill="#232831" d="M2027.34 1718.76c7.22 1.48 5.04 2.63 5.32 10.48-7.22-1.48-5.04-2.63-5.32-10.48"/><path fill="#232831" d="M2027.34 534.759c7.22 1.48 5.04 2.636 5.32 10.482-7.22-1.48-5.04-2.636-5.32-10.482"/><path fill="#232831" d="M1052.28 414.928c.09-1.957.73-14.597 3.54-13.062 1.47 2.326.22 6.121 1.24 9.677-1.98 1.751-2.44 1.944-4.78 3.385"/><path fill="#232831" d="M767.717 2020.15c2.938 4.98-4.934 5.77-7.372 6.22-.882-7.97-.402-5.19 7.372-6.22"/><path fill="#232831" d="M614.044 1158.81c7.537 1.74 5.302 1.89 5.623 10.43-6.816-2.26-4.981-3.29-5.623-10.43"/><path fill="#232831" d="M604.149 1159.2c7.565.61 5.712 1.52 2.866 7.32-5.406 2.72-3.383-4.28-2.866-7.32"/><path fill="#232831" d="M639.414 1166.99c4.659 3.04 3.019 4.06 3.256 10.01-4.772-3.02-3.118-3.97-3.256-10.01"/><path fill="#232831" d="M563.673 1388.6a2.72 2.72 0 0 1 3.729-.93 2.72 2.72 0 0 1 .925 3.73 2.72 2.72 0 0 1-3.729.93 2.72 2.72 0 0 1-.925-3.73"/><path fill="#232831" d="M605.591 1174.52c2.82 1.97 3.705 3 2.982 6.67-4.947-1.64-7.215-1.73-2.982-6.67"/><path fill="#232831" d="M1237.51 21.564c4.08-.772 3.26.133 1.67 3.684l-.61 1.694c-1.73-1.978-5.04-4.258-1.06-5.378"/><path fill="#232831" d="M410.096 2034.65c2.256-1.36 2.625-1.78 3.811.67-2.265 1.4-2.633 1.81-3.811-.67"/><path fill="#232831" d="M1731.41 22.605c1.91-1.26 2.51-1.89 2.86.704-1.78 1.685-2.19 1.555-2.86-.704"/><path fill="#232831" d="M852.384 528.774c.866-.7.598-.559 1.21-.666.294.259.348.492.658 1.103q-.103.054-.204.112c-.131.077-.843.617-1.145.492-.329-.135-.461-.872-.519-1.041"/></svg>