<svg xmlns="http://www.w3.org/2000/svg" width="2048" height="2048" viewBox="0 0 2048 2048"><path fill="#1f2027" d="M0 0h2048v2048H0z"/><path d="M875.588 296.144c46.155-47.154 94.85-47.256 155.412-37.808 15.28 2.385 31.98 2.22 47.28 5.469 32.79 6.965 65.16 26.822 83.62 55.043 43.99-15.801 85.27-6.287 130.26-4.165 7.04.332 14.69.906 21.62 2.046a124.3 124.3 0 0 1 21.75 5.73c39.27 14.023 62.78 40.245 80.35 76.946 25.87-2.166 42.54.105 68.21 3.641 20.15 2.776 35.34 3.054 55.18 9.402 60.06 19.226 95.21 76.73 98.88 137.769 1.06 18.323-.92 36.767-2.43 55.071l-6.34 75.542-5.95 82.576c-1.58 22.357-1.58 43.154-8.62 64.699l.56 3.772c1.03 6.857 1.49 12.05-1.61 18.619.76 7.074 1.23 14.176 1.42 21.288.85 31.837-6.41 80.616-9.16 113.645-2.78 33.331-4.63 75.021-9.54 107.211a397.35 397.35 0 0 1-103.79 211.43c.22 49.93 1.36 99.85 3.42 149.73 20.61 10.31 47.43 35.5 54.84 57.88 14.22 42.95 23.02 88.7 35.52 132.3 2.95 10.29 6.61 23.55 8.44 33.98a92.5 92.5 0 0 1 1.38 22.59c-2.99 45.85-37.25 84.21-83.69 90.02-17.64 2.21-37.35 1.41-55.21 1.41l-78.32-.05-259.11.01-307.009.04-99.418-.02c-46.705-.09-83.993 5.79-116.57-33.85-33.972-41.33-13.485-88.99-2.946-134.58l13.934-60.88c11.085-48.58 13.477-70.25 53.553-103.26 1.469-32.28.702-71.11.778-103.97-24.156-21.58-44.012-47.12-64.969-71.8l-81.862-96.07-81.682-95.83c-9.674-11.36-47.158-52.97-50.636-63.13-17.317-50.607-19.312-117.802-.518-168.284 6.265-16.828 16.553-37.146 24.235-53.997l51.993-112.637 38.024-82.406c16.801-36.696 36.872-86.078 76.045-104.307 4.815-39.472 5.577-98.28 22.095-132.923 20.003-39.822 57.765-75.678 99.666-91.313 18.631-6.952 45.551-4.31 65.305-4.678 43.514-.809 75.713-2.073 115.61 18.099"/><path fill="#1d2225" d="m1614.81 828.105.56 3.772c1.03 6.857 1.49 12.05-1.61 18.619-2.41-13.128-2.55-10.963 1.05-22.391"/><path fill="#6e3d14" d="M881.812 352.553c19.448-26.123 45.79-51.796 79.506-56.581 15.299-2.172 102.062 7.371 117.282 11.728 10.46 2.996 20.48 8.221 29.14 14.787 17.37 13.164 29.85 33.702 34.93 54.817 43.76-29.148 74.8-25.299 124.31-20.044 15.16 1.61 31.66.728 46.61 3.843 40.43 8.425 68.76 52.07 70.8 91.135 12.09-4.96 23.62-8.696 36.69-9.902 22.96-2.118 94.94 7.112 116.16 16.042 24.97 10.508 40.07 29.156 50.19 53.823 2.77 9.488 7.32 20.619 7.58 30.645 4.62 20.656-1.09 59.978-2.92 82.155l-7.85 97.304c-2.33 27.075-3.54 54.916-6.55 81.866-1.02 9.166-6.06 19.17-10.49 27.142 4.57 23.48 8.37 45.216 6.13 69.597-4.33 46.958-8.89 93.955-12.3 141-.83 11.45-1.64 23.12-3.14 34.44a374 374 0 0 1-59.49 157.06c-15.47 22.96-28.9 38.22-48.67 57.27 2.01 64.31 2 128.23 6.29 192.84 60.09 23.85 57.06 47.55 71.54 103.32l16.89 65.95c2.76 10.91 7.77 28.59 8.87 39.02.97 8.81-.24 17.73-3.51 25.98-11.84 29.77-39.86 33.34-67.49 32.76l-247.89.04-74.87.09c-13.71 0-31.41.45-44.71-.54-19.72 1.2-47.76.24-68.11.27l-146.895-.05-166.137.15c-16.13.03-32.348-.12-48.467.01-21.933.17-45.585 1.43-58.678-20.62a44.8 44.8 0 0 1-6.206-24.56c.456-10.5 8.3-40.81 10.974-52.09l21.748-92.41c.347-1.81.651-3.08 1.142-4.83 7.388-37.4 15.968-53.05 50.025-71.3.909-16.41.68-36.11.882-52.71q.723-47.46.666-94.92c-14.927-13.91-43.067-36.78-53.619-54.51l-1.276-1.47c-3.594-2.96-17.04-19.52-20.598-23.73l-37.539-43.73-110.919-129.9c-16.86-19.97-33.974-39.63-50.552-59.85-13.711-16.73-16.133-40.033-17.956-60.96-2.007-23.042-.482-51.76 5.38-74.24 4.676-17.931 15.135-38.499 22.979-55.603l34.615-74.828a328 328 0 0 1 2.1-5.401c24.12-50.372 47.188-102.341 70.85-152.997 14.695-31.459 30.259-52.101 63.681-64.458 1.956-9.987 3.588-31.925 4.731-42.727a3458 3458 0 0 0 7.822-76.023c.407-1.438.584-2.92.81-4.395 10.179-37.225 35.9-62.64 68.487-82.23 23.991-14.423 51.517-7.542 78.377-8.438 12.53-.418 28.252-.865 40.4-.009 7.76.535 15.445 1.854 22.939 3.936a106.3 106.3 0 0 1 45.306 27.036"/><path fill="#1f2027" d="M915.643 374.834c13.341-30.242 36.675-46.768 70.312-41.818 26.375 3.881 55.405 7.34 82.015 9.088 15.9-.327 40.04 3.666 52.04 15.055 10.89 10.341 11.95 25.361 13.37 39.37 44.29-40.269 83.2-34.134 137.27-28.994 34.61 3.29 53.5-2.228 79.67 26.473a93.79 93.79 0 0 1 24.23 68.236c-.1 2.082-.26 4.16-.47 6.233 43.87-22.919 55.05-17.496 101.36-12.075 50.91 5.961 87.06 10.115 105.21 64.437 2.1 6.352 4.64 23.613 6.06 26.84 1.31 24.7-.99 42.57-3.16 67.183l-7.03 80.874-4.73 66.88c-1.99 28.274-.6 40.535-14.29 66.207 2.64 15.764 6.23 34.166 6.89 49.874.58 13.978-1.48 31.111-2.83 45.29a4895 4895 0 0 0-4.83 54.077 4601 4601 0 0 0-4.58 53.806c-1.03 13.98-1.79 31.15-3.71 44.76a367.34 367.34 0 0 1-62.71 157.95c-10.28 14.51-30.55 39.14-43.92 50.22l-1.55 1.29c-.31.26-.63.51-.94.77 1.56 21.32.28 47 .87 69.09 1.16 43.75 5.65 91.32 6.01 134.6 20.84 7.1 42.9 17.54 54.85 38 3.5 5.99 8.52 26.6 10.48 34.06l13.3 51.16c6.57 25.67 13.89 52.53 18.91 78.44 3.39 17.44-8.61 37.54-24.67 43.96-9.48 3.99-16.47 4.45-26.43 5.82-14.68-1.14-41.32-.4-56.64-.43l-117.67-.01-100.39-.15c-15.31-.04-41.06-.8-55.54.46-37-1.71-81.9-.17-119.53-.16l-228.548-.05-80.297-.07c-26.6-.05-76.173 5.86-75.677-34.06 10.54-53.68 25.304-110.39 38.431-163.76 4.417-17.96 28.585-27.57 46.42-27.92 3.228-3.37 4.318-37.95 4.68-44.44-.075-31.02.037-62.05.334-93.07-.839-18.87-.109-43.95-.06-63.29-16.754-11.29-31.534-20.6-45.155-35.81-7.021-5.72-21.736-23.63-28.188-31.15l-49.189-57.47-104.218-122.03c-17.81-20.9-35.73-41.84-53.412-62.85-2.188-3.31-9.041-10.835-9.894-14.544-7.102-30.882-6.837-69.461.949-99.938 3.447-13.493 12.057-29.596 17.325-40.93l23.878-51.782 83.918-181.555c13.513-28.572 20.419-38.674 50.547-49.448l17.371-4.03c1.137-12.904 1.524-30.727 3.471-43.195.175 2.814-.403 1.624 1.413 3.776 10.057 1.777 21.216 3.138 31.389 4.26 55.365 6.104 111.959 16.52 167.373 20.875 1.201-39.82 6.142-80.811 7.83-120.683.305-7.188 1.024-13.878.959-21.141 7.739-2.219 31.602-4.047 40.425-4.875 1.769-9.47 5.274-19.675 10.698-27.686"/><path d="M634.714 567.533c17.244 1.67 35.761 4.578 53.07 6.788l125.861 16.171 82.454 10.239c35.335 4.463 73.596 1.435 70.178 46.438-.449 5.914.21 11.753-.578 17.901a36.74 36.74 0 0 1-7.967 18.691c-10.396 12.881-63.506 49.616-78.656 62.542-24.521 20.923-64.6 13.465-93.269 8.829-14.73-2.382-34.027-3.974-48.696-6.616-20.711-3.731-44.908-11.146-66.043-16.063-2.613 15.89-5.14 31.276-8.738 46.982a3929 3929 0 0 1 41.708 12.307c-31.597 62.529-63.67 132.494-96.353 193.543 14.003 7.62 28.843 14.326 43.056 21.885 32.047-63.428 63.447-128.141 94.629-192.061 71.133 6.847 149.072 62.181 193.684 117.395 62.046 76.786 98.946 200.676 90.096 299.356-3.45 38.49-10.99 65.39-25.15 100.7l-106.195-.26c-27.81-.04-60.341 1.74-87.087-3.86-31.601-6.62-67.786-19.56-93.628-39.44-3.681-2.83-10.259-7.93-14.092-9.77-7.021-5.72-21.736-23.63-28.188-31.15l-49.189-57.47-104.218-122.03c-17.81-20.9-35.73-41.84-53.412-62.85-2.188-3.31-9.041-10.835-9.894-14.544-7.102-30.882-6.837-69.461.949-99.938 3.447-13.493 12.057-29.596 17.325-40.93l23.878-51.782 83.918-181.555c13.513-28.572 20.419-38.674 50.547-49.448"/><path d="M743.199 1515.84c7.338-1.63 60.716-.08 71.755.03l189.986 2.03 267.41 2.14c32.26.07 64.51.35 96.75.82 19.22.12 38.84 0 58.03.43 50.97 1.13 50.77 37.63 60.79 75.33l15.13 57.93c3.5 13.19 14.3 41.9 7.55 54.54-1.92 3.59-10.15 6.47-14.06 6.71-23.19.77-46.93-.13-70.12-.46l-126.92-.55-470.822.07-107.097.05c-11.562.02-52.258 2.22-59.493-3.46a19.8 19.8 0 0 1-3.74-3.93c10.54-53.68 25.304-110.39 38.431-163.76 4.417-17.96 28.585-27.57 46.42-27.92"/><path d="M915.643 374.834c13.341-30.242 36.675-46.768 70.312-41.818 26.375 3.881 55.405 7.34 82.015 9.088 11.68 1.158 22.06 7.872 29.2 16.986 18.88 24.099 12.57 61.219 10.37 89.524l-6.23 80.374-10.35 141.854c-1.92 26.908-3.58 54.482-6.17 81.558-3.15 23.322-19.17 52.772-44.35 56.928-6.28 1.035-18.78-.546-25.14-1.257-25.52-2.846-50.877-5.444-76.429-7.737-10.809-.97-23.579-10.379-32.988-15.315 17.771-12.13 79.899-59.311 91.361-73.774a70.5 70.5 0 0 0 14.406-31.649c1.77-9.53 1.16-17.718 1.39-27.059.55-21.827.59-38.348-12.38-56.918-24.522-35.097-60.462-36.046-98.854-39.842 1.048-33.768 4.623-70.462 6.511-104.399.944-16.965 3.126-62.22 7.326-76.544"/><path d="m1401.89 1334.22 4.24 138.36-456.405-.89-147.808-.12c-18.012.03-36.038-.57-54.038-.17-.075-31.02.037-62.05.334-93.07.752-7.6.646-15.49.69-23.15 65.87 27.79 100.995 23.76 170.068 24.43l160.819 1.34 125 1.09c19.13.04 41.29.88 59.98-.73 30.1-2.55 59.65-9.5 87.73-20.62 19-7.72 32.53-14.92 49.39-26.47"/><path d="M1100.62 825.974c1.14 1.285 4.16 6.885 5.22 8.534 23.48 36.42 51.96 37.975 91.29 38.861 26.06.587 58.84 11.728 86.17 8.923 26.49-2.72 43.72-16.517 59.45-36.157 24.7 40.136 54.18 40.642 96.45 44.326 38.24 3.332 64.51 11.447 93.94-19.993 4.44 34.393-5.37 89.24-8.08 125.664-2.02 27.138-4.46 66.218-8.77 91.988a287.3 287.3 0 0 1-12.76 48.88c-24.91 71.61-76.46 135.61-145.31 168.91-60.93 31.17-101.75 27.67-167.33 27.02-45.11-.59-90.21-.94-135.32-1.06 60.98-147.72-4.95-389.902-134.861-483.879 13.31 1.499 27.307 1.258 40.808 2.621 58.473 5.902 92.733 21.322 139.103-24.638"/><path d="M1213.62 393.386c10.84-.013 80.91 5.129 89.18 7.27a52.45 52.45 0 0 1 20.68 10.413c32.11 26.988 21.61 79.674 18.86 116.458l-9.98 127.265-6.61 84.425c-3.24 43.203-.92 94.16-59.32 96.911-15.33-.251-41.37-6.437-57.88-7.644-13.02-1.669-27.13-1.329-40-3.321-16.77-2.594-33.76-25.323-34.99-41.19-1.81-23.333 1.44-48.934 3.28-72.189l10.18-127.287 6-83.992c.8-10.986 2.09-22.572 2.48-33.517 1.21-34.137 22.12-67.606 58.12-73.602"/><path d="M1426.71 482.125c16.19-.924 67.93 5.382 84.78 9.006 60.85 13.083 49.9 77.932 45.88 120.393l-7.76 82.914-5.12 59.573c-3.46 44.021-2.29 64.143-44.46 88.199a77 77 0 0 1-8.97 3.422c-13.35 4.219-81.91-2.597-95.13-9.629-37.36-19.873-24.97-72.79-21.11-107.134q4.905-42.018 8.97-84.125 3.525-36.628 6.39-73.314c2.38-31.028-.78-79.64 36.53-89.305"/><path fill="#1d2225" d="m1120.05 371.707.29.183c2.21 1.371 2.79 1.542 1.15 3.58-3.5 1.628-2.09-1.273-1.44-3.763"/><path d="m655.556 520.308 5.996-68.307c.722-8.035 1.882-28.811 4.103-36.379 6.372-21.71 40.191-54.049 62.848-57.472 11.357-.834 23.81.135 35.09.118 40.632-.062 95.86-7.355 100.927 49.127.065 7.263-.654 13.953-.959 21.141-1.688 39.872-6.629 80.863-7.83 120.683-55.414-4.355-112.008-14.771-167.373-20.875-10.173-1.122-21.332-2.483-31.389-4.26-1.816-2.152-1.238-.962-1.413-3.776"/><path fill="#713b11" d="M1587.43 512.201c2.77 9.488 7.32 20.619 7.58 30.645-.42 3.71.09 15.778-.64 17.224-.11-.03-.21-.061-.32-.091-1.48-2.315-.37-7.363-3.39-7.324-.57.008-2.73-3.762-3.95-4.976-1.42-3.227-3.96-20.488-6.06-26.84 1.08-4.95 1.43-6.286 6.78-8.638"/><path fill="#713b11" d="M654.221 1556.01c2.814 3.93 2.979 5.55 2.09 10.47-.256 1.41-1.602 4.15-2.905 1.5-.377-.76-.273-5.96-.327-7.14.347-1.81.651-3.08 1.142-4.83"/><path fill="#713b11" d="M626.303 412.258c.666.797 5.523 2.605 4.09 5.745-2.665 5.838-3.312 1.407-4.9-1.35.407-1.438.584-2.92.81-4.395"/><path fill="#713b11" d="m478.409 752.858 1.296.416c5.049 1.503.536 3.813 3.521 6.208-.734.633-5.61.251-6.917-1.223a328 328 0 0 1 2.1-5.401"/><path fill="#713b11" d="m650.899 1281.1.281-1.42c.718-3.95 6.335-1.74.995 2.89z"/><path fill="#713b11" d="M658.924 439.202c3.819 2.954 2.088 7.6 1.394 12.397-4.655-5.956-2.131-3.702-1.612-9.674z"/><path fill="#713b11" d="M620.869 467.38c3.439 1.943 3.807 1.813 3.073 5.772l-.215 1.632c-4.294.413-2.805-1.641-2.834-5.421z"/></svg>