<svg xmlns="http://www.w3.org/2000/svg" width="2048" height="2048" viewBox="0 0 2048 2048"><path fill="#202226" d="M0 0h2048v2048H0z"/><path fill="#050d14" d="M702.672 395.26c10.798-17.464 25.377-37.996 37.055-55.332a4911 4911 0 0 1 62.61-92.444c13.701-19.789 31.377-50.009 47.353-65.611a148.35 148.35 0 0 1 61.007-35.477c76.263-23.182 157.173 20.985 185.573 94.315 3.12 8.053 5.5 15.856 7.98 24.11 2.78-.716 5.58-1.402 8.38-2.056a153.51 153.51 0 0 1 116.1 19.52c39.66 25.097 63.73 59.748 73.82 105.257 47.06-10.088 93.81 3.107 130 34.71a161.22 161.22 0 0 1 55.61 112.581c67.21-8.072 129.39 39.469 152.47 101.446 3 8.043 10.94 36.3 8.94 43.964l-71.26 264.209c-10.83 39.738-20.91 79.708-31.9 119.408-1.99 7.2-5.29 10.51-9.82 16.24-2.56 14.05-13.02 58.46-17.31 70.94-1.87 5.44-32.78 47.43-38.42 55.34l-70.22 99.74c-10.38 14.88-23.19 31.69-32.69 46.68 13.6 52.97 26.14 109.1 38.64 162.53l44.09 187.57-278.24 135.58-100.58 49.23c-17.81 8.74-41.02 20.98-58.99 28.44-146.696-68.75-293.096-142.93-439.402-212.98 2.326-14.48 8.153-35.67 11.712-50.38l19.179-80.64c17.126-71.9 33.829-147.99 52.4-219.35l-153.41-208.94-43.742-59.35c-7.361-10.01-15.135-20.29-22.056-30.6-3.06-4.56-5.418-11.81-6.603-17.31-7.616-35.33-15.422-70.68-23.12-105.994l-12.385-57.615c-5.918-27.884-12.819-51.402-7.716-80.04 5.512-30.934 23.754-54.891 40.569-80.21l41.713-62.979L606.952 459.82c17.853-26.85 36.84-54.344 53.91-81.58 11.392 3.612 29.441 12.185 41.81 17.02"/><defs><linearGradient id="a" x1="1685" x2="441.376" y1="919.413" y2="1110.419" gradientUnits="userSpaceOnUse"><stop offset="0" stop-color="#674427"/><stop offset="1" stop-color="#905f33"/></linearGradient></defs><path fill="url(#a)" d="M702.672 395.26c10.798-17.464 25.377-37.996 37.055-55.332a4911 4911 0 0 1 62.61-92.444c13.701-19.789 31.377-50.009 47.353-65.611a148.35 148.35 0 0 1 61.007-35.477c76.263-23.182 157.173 20.985 185.573 94.315 3.12 8.053 5.5 15.856 7.98 24.11 2.78-.716 5.58-1.402 8.38-2.056a153.51 153.51 0 0 1 116.1 19.52c39.66 25.097 63.73 59.748 73.82 105.257 47.06-10.088 93.81 3.107 130 34.71a161.22 161.22 0 0 1 55.61 112.581c67.21-8.072 129.39 39.469 152.47 101.446 3 8.043 10.94 36.3 8.94 43.964-3.9.889-16.46 15.773-19.9 19.566 1-12.399 1.45-24.354-1.07-36.614-11.51-56.081-60.38-105.967-118.89-110.189-14.28-1.03-27.64 1.2-41.51 4.134a135.77 135.77 0 0 0-28.56-99.838c-38.69-48.89-94.76-66.033-153.27-44.177-3.83-76.589-68.07-138.672-145.97-135.106-19.51.893-35.22 6.119-52.95 14.006-.82-12.393-2.08-23.543-5.72-35.505-17.69-58.257-75.08-101.258-136.659-96.976a128.2 128.2 0 0 0-89.163 44.193c-7.977 9.392-17.149 23.811-24.205 34.277l-38.893 57.908c-24.521 36.396-61.014 86.313-82.295 123.701-13.044-5.556-28.872-12.883-41.906-17.548L500.707 653.066l-42.064 63.573c-11.746 17.578-29.676 42.035-37.073 61.163-7.45 19.267-8.333 39.89-4.106 59.924 9.846 46.657 19.742 93.095 30.278 139.614 4.269 18.846 9.09 44.92 14.451 63.04 1.438 4.86 21.721 31.43 26.216 37.48l39.425 53.52c52.928 72.06 105.548 145.83 159.295 217.2a9103 9103 0 0 1-29.347 123.8c-17.178 73.05-34.344 147.45-52.518 220.23 138.935 66.95 278.577 136.73 418.096 202.06l289.12-140.97 82.55-40.31c13.26-6.44 31.04-14.4 43.52-21.31-28.27-113.82-52.71-230.51-81.57-344.08q52.86-73.425 104.52-147.72c12.96-18.53 27.97-38.23 40.26-57.24 1.68-2.6 4.17-18.89 4.54-22.82l-1.08-1.09c3.4-5.86 25.76-32.33 31.37-39.03-2.56 14.05-13.02 58.46-17.31 70.94-1.87 5.44-32.78 47.43-38.42 55.34l-70.22 99.74c-10.38 14.88-23.19 31.69-32.69 46.68 13.6 52.97 26.14 109.1 38.64 162.53l44.09 187.57-278.24 135.58-100.58 49.23c-17.81 8.74-41.02 20.98-58.99 28.44-146.696-68.75-293.096-142.93-439.402-212.98 2.326-14.48 8.153-35.67 11.712-50.38l19.179-80.64c17.126-71.9 33.829-147.99 52.4-219.35l-153.41-208.94-43.742-59.35c-7.361-10.01-15.135-20.29-22.056-30.6-3.06-4.56-5.418-11.81-6.603-17.31-7.616-35.33-15.422-70.68-23.12-105.994l-12.385-57.615c-5.918-27.884-12.819-51.402-7.716-80.04 5.512-30.934 23.754-54.891 40.569-80.21l41.713-62.979L606.952 459.82c17.853-26.85 36.84-54.344 53.91-81.58 11.392 3.612 29.441 12.185 41.81 17.02"/><path fill="#f1f1f7" d="M1629.67 699.809c3.44-3.793 16-18.677 19.9-19.566l-71.26 264.209c-10.83 39.738-20.91 79.708-31.9 119.408-1.99 7.2-5.29 10.51-9.82 16.24-5.61 6.7-27.97 33.17-31.37 39.03l-1.77 1.3c-1.01-7.43 76.67-295.221 85.61-329.329-20.79 21.754-45.04 51.18-64.97 74.258a4739 4739 0 0 1-71.89 80.985c-16.66 18.614-44.83 52.998-64.81 64.926a134.32 134.32 0 0 1-102.41 13.97c-43.84-11.51-73.73-35.445-96.45-74.019-24.67-1.189-59.3-10.394-84.15-16.011-39.67-8.964-79.38-17.708-119.147-26.231a600 600 0 0 1 40.427 51.379c73.45 106.582 102.94 224.402 79.61 352.042l-25.55-2.66c36.62-196.41-104.852-444.37-306.164-486.844a954 954 0 0 1 23.915-31.647 316.5 316.5 0 0 0 63.019 21.227c62.841 13.794 119.285-3.52 172.26-37.57-.02 14.667.83 26.617 5.1 40.862a137.54 137.54 0 0 0 67.56 81.395c29.51 15.82 64.84 22.072 97.28 12.109a126 126 0 0 0 35.95 55.875c39.1 35.233 96.09 45.263 142.1 14.639 9.84-6.552 24.45-24.774 32.67-34.096l34.43-38.722c61.09-68.544 120.73-138.968 181.83-207.159"/><path fill="#050d14" d="m1007.41 826.852 1.13-.045c2.35 2.073 4.83 11.276 5.88 14.724 5.98 19.499 17.4 34.436 30.44 49.677-27.73-1.216-55.031-4.138-82.62-6.944-11.673-.802-15.7-8.323-24.371-15.711-8.199-6.985-15.552-13.198-24.11-19.71 35.73-2.119 60.669-7.009 93.651-21.991"/><path fill="#f1f1f7" d="M691.117 479.763c30.937 12.091 73.724 33.71 105.429 47.987l226.504 101.388c-7.3 22.68-14.43 50.571-21.08 73.874a119.6 119.6 0 0 1-19.428 12.406c-81.211 42.054-191.558 13.491-254.07-49.012-18.791-18.789-31.221-38.799-43.246-62.114-1.344 3.088-1.005 5.542-1.346 8.938 1.8 48.259 26.538 97.619 59.763 132.16-20.246 24.393-39.694 53.532-59.755 78.412-7.057 8.752-14.184 19.305-21.546 27.616-15.149 3.031-35.485 6.832-49.417 13.24 5.74 4.133 12.967-1.775 16.77 2.2a377 377 0 0 1 38.36 2.499C871.82 893.512 1026 1107.29 1001.78 1307.62l-259.336-.1c-9.28-10.66-21.12-27.48-29.958-39.27l-60.136-80.9a13111 13111 0 0 1-102.174-138.17c-7.732-10.71-28.435-36.36-31.135-47.91-4.26-18.21-8.248-38.638-12.107-57.143a4943 4943 0 0 0-29.396-136.854c15.139-26.617 37.156-58.478 53.604-84.9 51.066-82.034 107.299-161.781 159.975-242.61"/><path fill="#202226" d="M629.695 866.858c-4.626.451-15.425.276-20.772.774l-.525-.415c-.067-1.343 3.85-2.346 4.527-2.559 5.74 4.133 12.967-1.775 16.77 2.2"/><path fill="#202226" d="M683.88 613.23c-.393-2.245-1.61-9.99-.529-11.656 1.12-.081 1.528 1.812 1.875 2.718-1.344 3.088-1.005 5.542-1.346 8.938"/><path fill="#f1f1f7" d="m764.796 1391.49 252.774.28-.02 422.4c-16.01-7.23-33.344-16.1-49.283-23.81l-282.731-138.09 61.794-260.46z"/><path fill="#f1f1f7" d="M1334.69 468.416c38.34 1.899 65.17 27.132 70.3 64.552 4.38 31.923-12.69 52.664-31.43 75.197-54.88 65.971-101.92 138.11-153.44 206.666-14.36 19.117-27.58 25.042-50.6 28.022-34.36-.253-67.79-18.727-71.9-56.856-.74-6.901-.19-13.832 3.12-20.061 6.95-13.078 15.36-25.562 23.41-38.046l42.95-66.158 69.55-105.447c7.14-10.752 14.61-21.769 21.7-32.512 20.71-31.385 36.47-53.148 76.34-55.357"/><path fill="#f1f1f7" d="M947.346 223.315c16.145-.921 30.412 3.266 43.622 12.488a86.54 86.54 0 0 1 35.282 55.448c3.34 19.658-.68 41.023-12.17 57.369-36.306 51.612-70.288 105.56-106.709 156.991a1403 1403 0 0 0-40.109-18.265c-29.924-14.415-67.184-29.766-98.182-43.635a6484 6484 0 0 1 82.138-124.792c13.495-20.188 27.263-41.395 41.231-61.21 13.961-19.803 30.926-30.76 54.897-34.394"/><path fill="#f1f1f7" d="M1137.44 345.282c43.42-3.691 71.32 15.677 84.41 57.23 14.62 46.393-25.74 85.918-49.69 123.265-23.83 37.17-50.03 76.715-75.41 113.099l10.14-36.636c.76-2.503.84-3.693 1.18-6.268-2.33-4.585-117.052-52.7-131.359-59.593 32.289-49.534 63.759-100.22 97.139-149.108 16.24-23.79 35.08-37.283 63.59-41.989"/><path fill="#f1f1f7" d="M1492.99 616.413c37.35-2.443 58.53 20.77 71.02 53.023l-142.75 163.18-41.98 48.054c-14.58 16.892-24.48 32.904-45.89 41.261-19.38 5.564-38.46 2.391-51.36-13.99-6.84-8.684-8.63-16.382-11.76-26.499-1.7-.957-3.07-1.708-4.84-2.563l-1.38-.648c4.23-8.103 24.37-29.62 31.23-39.424 29.22-42.308 58.72-84.413 88.52-126.313 15.19-21.526 31.2-45.024 47.46-65.647 16.02-20.327 36.35-28.222 61.73-30.434"/></svg>