<svg xmlns="http://www.w3.org/2000/svg" width="2048" height="2048" viewBox="0 0 2048 2048"><path fill="#27282e" d="M0 0h2048v2048H0z"/><path fill="#eca665" d="M1016.39 271.38a206.4 206.4 0 0 1 52.78 2.573c56.4 10.314 99.68 41.012 132.08 87.56a192.4 192.4 0 0 1 81.74-18.261c56.16-.28 106.62 21.349 146.28 60.969a228.8 228.8 0 0 1 34.63 45.152c32.05 54.464 28.94 96.573 28.96 156.534v103.714l97.8 101.326c18.08 18.675 41.18 40.844 56.53 61.579 4.18 5.639 8.3 21.052 8.43 28.293.46 26.253-.03 53.383-.02 79.692l.19 92.539c.03 10.26 0 20.76.08 30.97.19 26.2 1.66 44.63-14.89 66.66-17.93 23.87-36.24 47.38-54.6 70.96l-79.57 102.99-66.69 86.59c-11.31 14.67-23.45 31.08-35.38 45.09 6 32.89 9.79 74.52 15.26 108.44 3.53 21.9 11.36 74.54 11.53 93.8.2 28.7-11.12 56.27-31.42 76.54a104.03 104.03 0 0 1-51.74 28.27c-17.06 3.58-34.14 2.75-51.53 2.74l-56.05-.05-202.54-.12-240.263.08-67.115.01c-17.132-.01-36.343.7-53.054-2.33a104.44 104.44 0 0 1-66.795-43.8c-32.715-47.63-14.488-99.88-7.853-152.91 4.434-35.45 9.816-73.63 16.177-108.72-134.642-99.92-222.11-250.85-228.614-419.47-1.214-31.49-1.39-62.557-1.288-94.073l.089-104.115-.025-83.005c-.093-33.299-1.836-65.828 5.649-98.509a222.55 222.55 0 0 1 51.901-99.082c42.2-46.977 93.403-67.862 155.468-71.06 36.721-114.787 147.08-182.693 265.582-151.215 3.195-4.492 6.504-9.118 10.005-13.366a201.6 201.6 0 0 1 138.276-72.985"/><path fill="#27282e" d="M1022.64 294.415c74.38-3.19 135.41 32.15 169.54 98.124 28.02-17.016 58.15-26.264 91.09-26.35 49.15.184 96.2 19.927 130.76 54.868a199.9 199.9 0 0 1 32.23 43.462c28.17 50.913 23.77 91.418 23.8 147.127l.02 106.971 101.95 105.948c17.48 18.09 35.55 36.277 52.16 55.07 11.87 13.437 8.7 42.392 8.69 60.092l-.05 72.473.02 77.72c-.01 14.57.52 30.46-.95 44.88-.69 6.85-1.59 10.15-5.49 15.77-16.56 23.81-35 46.87-52.8 69.76l-80.41 104.1-65.35 84.84c-10.55 13.81-35.04 48.04-47.3 57.55 2.26 11.41 3.91 27.46 5.49 39.26l9.71 71.17 8.55 62.48c1.72 12.86 3.77 25.64 4.22 38.7 1.32 37.58-26.96 74.15-63.79 82.01-16.37 3.5-34.98 2.57-51.77 2.55l-56.35-.1-197.36-.01-233.903-.02-71.601.09c-40.143.04-73.77 2.79-101.287-32.73a85.6 85.6 0 0 1-17.297-43.7c-1.691-17.91 5.519-58.68 8.274-78.14 6.993-47.22 13.705-94.49 20.136-141.8-45.131-28.65-79.302-64.34-113.486-105a513.46 513.46 0 0 1-116.407-295.54c-1.724-24.54-1.336-49.55-1.324-74.18l-.05-95.947-.05-116.564c.03-19.811-.467-50.595 1.298-69.873a200.48 200.48 0 0 1 72.461-134.881 182.8 182.8 0 0 1 134.583-40.886c22.911-117.719 143.401-191.924 257.695-147.84 27.195-54.829 84.697-86.744 144.348-91.454"/><path fill="#efefef" d="M1111.13 748.372c102.35 1.475 206.85-1.791 308.69.186 18.33 17.771 37.4 38.093 55.31 56.479l101.81 104.449.17 213.544c-5.61 6-15.65 19.68-21.05 26.69l-40.38 52.55-125.49 162.93c-10.08 13.06-29.44 40.16-41.76 51.47-2.12 1.95-25.8 8.74-30.16 10.04l-49.63 14.67-186.65 55.49-53.58 15.86-.09-81.74c0-48.19-.76-78.02 11.29-125.54 20.47-80.71 69.71-149.8 141.63-192.67 49.36-29.42 113.52-45.27 171.15-40.58 14.29 1.16 27.4 4.47 41.21 8.05-.63-26.34-.65-52.7-.05-79.04 1.39-58.849 5.59-53.427 55.16-86.342-60.5 21.787-100.77 33.358-166.1 34.473-84.94 1.451-144.79-37.018-180.3-114.912-3.43-7.525-7.28-15.328-10.82-22.762 7.15-20.736 12.43-42.646 19.64-63.295"/><path fill="#d9d6d7" d="M1451.66 913.108c.6.335.76.34.89.642-.51.297-.97.429-1.56.611-.59-.317-.91-.383-1.05-.722.56-.276 1.07-.383 1.72-.531"/><path fill="#efefef" d="M483.467 1021.8c12.062-1.66 49.017-.93 62.566-.93h122.656l417.861.07c10.42.01 119.67-.28 122.41 1.3-1.8.86-.84.67-2.89.51-45.89 11.02-94.55 43.93-127.49 77.04-66.02 66.36-106.303 162.53-112.743 255.52-3.185 46-1.47 104.56-1.392 151.67-27.078-5.69-56.221-15.31-82.956-23.22l-122.646-36.34c-16.01-4.82-32.064-9.5-48.159-14.03-4.329-1.24-20.018-5.19-22.993-6.95-115.854-68.6-194.383-195.22-214.023-327.41-3.865-26.02-4.229-51.23-4.559-77.12z"/><path fill="#4c4e53" d="M483.467 1021.8c12.062-1.66 49.017-.93 62.566-.93h122.656l417.861.07c10.42.01 119.67-.28 122.41 1.3-1.8.86-.84.67-2.89.51-9.79-1.53-48.06-.75-60.12-.76l-133.76-.06-359.871-.06c-55.255-.04-114.079 1.17-168.852-.07"/><path fill="#efefef" d="M1019.53 412.349c33.91-4.668 72.12 10.969 95.89 34.884a126.3 126.3 0 0 1 32.88 58.871c5.64 23.008 3.88 58.956 3.87 83.787v99.289c-27.81-.148-55.62-.08-83.42.205-6.34 20.427-35.78 110.155-35.79 125.23-.01 19.796 37.9 81.67 51.06 99.97 6.84 9.507 14.42 18.187 22.53 26.627l5.96 5.817-3.01.381c-50.46 6.184-98.2.144-138.884-32.319-32.743-26.128-52.354-64.854-56.824-106.228-1.836-16.993-1.17-38.559-1.141-55.949l.138-89.44-.246-85.85c-.161-45.99-2.399-83.523 28.499-121.994a115.66 115.66 0 0 1 78.488-43.281"/><path fill="#efefef" d="M770.891 498.333c31.387-3.143 64.44 14 77.667 43.031 7.587 16.654 5.689 33.654 5.719 51.442.244 71-.264 142.036 0 213.036.22 59.189 23.285 103.157 64.85 143.416q-48.688.329-97.377.122c-32.222.137-58.323-9.212-83.941-28.986a162.82 162.82 0 0 1-62.24-107.547c-2.852-22.552-1.226-73.32-1.261-98.959l-.109-67.542c-.023-18.06-.787-39.021 2.51-56.522a118.95 118.95 0 0 1 23.326-52.264c18.011-23.119 42.135-35.511 70.856-39.227"/><path fill="#efefef" d="M1323.65 1484.23c2.72 2.91 14.97 98.37 16.71 110.64l7.21 50.69c1.32 9.3 3.65 19.95 3.67 29.21.06 36.27-31.33 32.13-54.15 32.16l-51.58.08-179.01-.1-29.38-.17-.02-137.85c94.88-28.35 191.36-57.61 286.55-84.66"/><path fill="#efefef" d="M697.979 1487.54c93.579 26.22 187.732 55.31 281.549 82.05q.42 68.625-.14 137.25l-27.638.06-178.48.05c-24.617-.09-49.225.61-73.815-.15-14.839-.46-28.319-12.64-27.76-27.85.792-21.55 4.892-43.86 7.969-65.3z"/><path fill="#efefef" d="M557.52 650.433c17.064-.24 32.998 3.966 46.411 14.891 18.308 14.395 14.142 38.889 14.145 60.118.011 87.872-9.488 159.359 65.168 223.656l-84.994.123c-32.856.292-57.756-5.078-84.193-26.427a120.38 120.38 0 0 1-43.752-80.973c-1.151-12.062-.523-35.303-.38-48.575.437-40.772-6.155-77.627 22.74-111.093 17.61-20.396 38.514-29.715 64.855-31.72"/><path fill="#efefef" d="M1305.73 479.45q1.74-.04 3.48-.045c47.95-.243 96.52 38.492 102.24 87.594 1.93 16.55.91 37.119.89 54.174v67.489l-96.38.219q-53.235.13-106.44-.603l-.16-76.886c-.05-14.825-.4-30.209.27-44.803 1.46-31.93 21.72-59.915 49.48-74.765 15.64-8.368 29.02-11.289 46.62-12.374"/><path fill="#efefef" d="M914.664 451.181c6.629-33.24 23.887-62.122 52.27-81.223a119.27 119.27 0 0 1 90.596-17.679 118.05 118.05 0 0 1 74.78 51.952 130.3 130.3 0 0 1 20.07 53.479c-24.74-35.731-52.19-59.599-96.45-67.517a135.19 135.19 0 0 0-101.788 23.344 142.6 142.6 0 0 0-35.628 36.792c-1.638 2.224-2.424 4.314-4.415 4.647z"/><path fill="#efefef" d="M797.667 429.374c18.466-2.524 39.078 1.096 56.424 7.461l-.051 52.177c-50.115-26.187-99.657-16.182-143.281 17.521-15.87 12.896-24.056 24.406-35.304 40.92a151.1 151.1 0 0 1 29.261-66.209 139.56 139.56 0 0 1 92.951-51.87"/><path fill="#efefef" d="M1270.23 423.34c63.02-8.41 131.7 43.253 139.56 106.018-12.5-18.923-21.76-30.084-39.7-43.861-51.95-36.166-107.12-35.095-160.05-2.975-.02-11.479-.26-23.346.57-34.768 21.23-15.224 33.58-20.804 59.62-24.414"/><path fill="#efefef" d="M589.262 589.347c8.487-1.233 19.746-.662 28.416-.276q.297 21.85-.045 43.702c-48.169-9.309-83.892-.905-121.295 31.384-7.191 6.91-12.682 13.236-19.221 20.706 16.033-51.573 58.524-88.459 112.145-95.516"/></svg>