<svg xmlns="http://www.w3.org/2000/svg" width="2048" height="2048" viewBox="0 0 2048 2048"><path fill="#1e1f25" d="M0 0h2048v2048H0z"/><path d="M508.623 112.176c-6.049 44.023-8.685 90.259-12.376 134.646-10.799 129.864-18.192 260.92-8.238 391.065 1.14 14.906 3.317 29.905 4.349 44.786C543 636.255 585.147 598.384 642.539 559.78A770.02 770.02 0 0 1 1104.8 432.352c205.04 8.679 401.84 108.817 537.84 260.227 133.78 148.93 218.38 355.651 209.13 556.781a652 652 0 0 1-14.73 115.74c-1.24-3.28-2.98-7.33-3.55-10.71l-.8 9.89c-.18 4.05-.1 10.22-1.48 13.79-1.6-1.88-1.57-3.36-2.05-5.84-12.96-42.36-28.4-83.91-46.24-124.45-44.42-98.3-110.76-204.96-216.16-244.8 7.11 21.18 14.64 44.23 18.64 66.31 49.64 274.32-116.67 548.15-327.36 711.01-23.11 17.86-48.15 36.04-73 50.75-.47 5.1-2.44 5.34-7.28 4.58-3.78 1.9-15.4 8.22-18.04 10.76l-.38 1.05c-48.1 28.7-105.14 49.7-157.97 68.02 51.18-52.07 101.06-119.99 139.86-181.5 15.68-24.85 32.6-49.73 44.64-76.69 4.6-10.3 8.99-27.35 11.88-38.56 1.96-31.8-5.5-47.43-35.42-61.18-7.16-2.16-14.49-4-21.98-4.53-5.54.01-17.84.78-21.93.2-4.66.58-11.01 3.15-15.55 4.53-29.28 9.04-54.57 29.42-73.14 53.42-11.52 14.89-21.08 31.2-31.108 47.06-3.837 6.07-14.217 26.63-20.458 28.23l2.427.98-.048 1.74-2.08 1.58c-6.218 1.17-20.131-1.14-27.118-1.97-40.225-4.76-79.969-12.29-118.923-23.56-207.965-61.63-383.441-202.4-488.697-392.06-94.064-171.33-108.189-377.282-82.059-568.161 4.681-34.197 14.268-85.501 23.768-118.065 3.795-20.922 17.531-60.413 24.677-80.695a1750.7 1750.7 0 0 1 131.698-289.127c6.29-10.829 18.819-33.767 26.758-42.622 2.804-2.259 8.155-11.941 10.038-15.535-.116-2.789-.322-8.19 3.879-6.821 7.328-9.023 19.701-29.666 26.139-39.948"/><path fill="#8b5327" d="m285.434 586.924 3.59.728.976 2.846c-38.957 159.322-45.422 362.944-1.018 521.572a771.6 771.6 0 0 0 81.419 186.53c112.747 183.82 293.018 316.17 502.177 368.67a842 842 0 0 0 105.586 19.17l2.427.98-.048 1.74-2.08 1.58c-6.218 1.17-20.131-1.14-27.118-1.97-40.225-4.76-79.969-12.29-118.923-23.56-207.965-61.63-383.441-202.4-488.697-392.06-94.064-171.33-108.189-377.282-82.059-568.161 4.681-34.197 14.268-85.501 23.768-118.065"/><path fill="#8b5327" d="M1562.72 992.487c132.66 40.243 209.48 193.643 254.94 314.223 5.88 15.6 10.12 32.05 15.83 47.68l-.8 9.89c-.18 4.05-.1 10.22-1.48 13.79-1.6-1.88-1.57-3.36-2.05-5.84-12.96-42.36-28.4-83.91-46.24-124.45-44.42-98.3-110.76-204.96-216.16-244.8z"/><path fill="#845028" d="M1197.75 1618.71c2.61-2.07 1.75-3.23 4.9-1.74-8.52 52.92-91.63 172.12-125.18 215.48a1200 1200 0 0 1-61.66 72.7c46.27-13.94 101.36-35.87 143.91-58.76l-.38 1.05c-48.1 28.7-105.14 49.7-157.97 68.02 51.18-52.07 101.06-119.99 139.86-181.5 15.68-24.85 32.6-49.73 44.64-76.69 4.6-10.3 8.99-27.35 11.88-38.56"/><path fill="#845028" d="M285.434 586.924c3.795-20.922 17.531-60.413 24.677-80.695a1750.7 1750.7 0 0 1 131.698-289.127c6.29-10.829 18.819-33.767 26.758-42.622C394.451 302.736 326.932 446.868 290 590.498l-.976-2.846z"/><path fill="#8b5327" d="m1129.93 1551.07 4.18-.66c9.73-1.5 19.25-.3 28.78 1.09 19.52 5.31 36.79 15.51 41.39 36.99 1.65 7.72 1.12 20.96-1.63 28.48-3.15-1.49-2.29-.33-4.9 1.74 1.96-31.8-5.5-47.43-35.42-61.18-7.16-2.16-14.49-4-21.98-4.53-4.19-1.09-6.13-1.27-10.42-1.93"/><path fill="#2f2624" d="M1118.42 1553.2c3.69-1.09 7.68-2.45 11.51-2.13 4.29.66 6.23.84 10.42 1.93-5.54.01-17.84.78-21.93.2"/><path fill="#2f2624" d="M478.605 158.945c-.116-2.789-.322-8.19 3.879-6.821-.457 2.593-2.437 4.701-3.879 6.821"/><path fill="#2f2624" d="M1185.04 1831.05c-.47 5.1-2.44 5.34-7.28 4.58 2.87-1.92 4.16-2.94 7.28-4.58"/><path fill="#1e1f25" d="m500.097 721.061.697-2.805c6.509-3.59 31.021-8.543 39.19-10.134 75.085-14.624 153.959-15.972 228.266 4.665 58.874 16.351 138.958 58.912 170.73 113.185 7.581 12.95 10.203 25.129 6.917 39.949-1.139 3.469-2.192 6.916-3.465 10.334-16.148 41.915-47.394 82.586-54.385 128.425-.213 1.4-.128 1.02-.908 2.11-7.836 44.23-3.876 87.81 22.266 125.79 15.032 21.83 47.23 46.52 71.888 55.84 3.694 1.48 7.345 2.67 11.001 4.11 14.346 6.37 37.376 9.46 53.086 8.23 41.86-3.6 80.54-23.78 107.44-56.06 39.16-46.39 46.44-113.15 20.36-167.665-10.97-22.942-31.35-55.119-34.15-81.193-1.36-12.595 18.58-51.264 27.2-61.02 11.27-4.425 33.27-12.905 44.69-13.754 14.47-3.471 36.35-.277 50.28 4.663 54.87 19.462 86.93 79.48 84.77 135.868-.19 4.925-.73 13.025-2.05 17.686.01 4.929-2.22 13.717-3.27 18.816-6.24 33.949-40.24 73.519-67.94 92.779-21.64 15.04-46.3 27.6-70.63 37.67-6.01 2.49-34.89 11.73-36.79 13.55 1.34 2.71 2.52 3.23 4.96 4.98 32.91 18.19 61.24 67.22 58.69 104.82.17 2.69.35 5.37.56 8.05-.87 3.84-3.97 13.87-7.03 13.98-6.36.23-3.88-1.1-10.36 5.03-5.73 5.41-12.42 12.18-18.63 17.54a296.1 296.1 0 0 1-90.49 53.61 318.56 318.56 0 0 1-244.049-9.74c-77.726-35.42-142.135-101.37-171.902-181.83a278.5 278.5 0 0 1-17.593-114.62c1.654-27 7.137-47.856 14.062-73.758 20.963-78.405 53.825-154.083 87.573-227.817a6938 6938 0 0 1-93.36 66.369c-20.164 14.16-89.38 64.549-111.284 62.786-42.241-3.4-65.243-115.486-66.34-150.439"/><path fill="#845028" d="m500.097 721.061.697-2.805c6.509-3.59 31.021-8.543 39.19-10.134 75.085-14.624 153.959-15.972 228.266 4.665 58.874 16.351 138.958 58.912 170.73 113.185 7.581 12.95 10.203 25.129 6.917 39.949-1.139 3.469-2.192 6.916-3.465 10.334-.844-4.703-.54-6.132-.65-10.941-3.551-25.232-15.84-45.539-34.038-63.027-84.055-80.776-202.476-106.107-314.562-95.398a654 654 0 0 0-50.197 6.765c-6.905 1.248-38.057 8.018-42.888 7.407"/><path fill="#8b5327" d="M941.782 865.314c.153-1.835.036-6.362.811-7.565.595.47.816.907.799 1.769-.029 1.456 1.719 1.165 1.482 2.244l-1.401 1.84c1.508-.134 1.759 1.172 2.424 2.319-1.139 3.469-2.192 6.916-3.465 10.334-.844-4.703-.54-6.132-.65-10.941"/><path fill="#8b5327" d="M1210.92 821.068c14.47-3.471 36.35-.277 50.28 4.663 54.87 19.462 86.93 79.48 84.77 135.868-.19 4.925-.73 13.025-2.05 17.686-3.44-5.905-.99-10.789-3.03-19.58-.39-.951-.28-.509-.39-1.64-4.67-47.579-26.34-91.75-68.15-117.129-20.87-12.668-37.61-15.81-61.43-19.868"/><path fill="#8b5327" d="M980.283 1190.75c-16.219-4-31.742-10.16-45.572-19.64a132.02 132.02 0 0 1-55.349-85.24c-3.348-18.77-2.744-63.85 7.777-79.08-7.836 44.23-3.876 87.81 22.266 125.79 15.032 21.83 47.23 46.52 71.888 55.84z"/><path fill="#8b5327" d="M1223.45 1259.15c-2.18-33.46-18.76-68.95-42.45-92.49-6.39-6.34-17.98-14.99-21.73-19.18 2.63-1.44 7.73-.61 10.98-.4 32.91 18.19 61.24 67.22 58.69 104.82.17 2.69.35 5.37.56 8.05-3.74 2.51-4.67 4.42-6.05-.8"/><path fill="#845028" d="M1223.45 1259.15c5.56-4.43 1.34-6.03 5.49-7.25.17 2.69.35 5.37.56 8.05-3.74 2.51-4.67 4.42-6.05-.8"/><path fill="#845028" d="M1340.89 959.705c2.04 8.791-.41 13.675 3.03 19.58.01 4.929-2.22 13.717-3.27 18.816-.59-8.09.07-29.034.24-38.396"/><path fill="#845028" d="M981.293 1188.42c3.694 1.48 7.345 2.67 11.001 4.11-4.727.45-7.456-.3-12.011-1.78z"/><path fill="#d2d4db" d="M448.102 299.95a169 169 0 0 0 1.142 5.13c-.223.968-.43 1.941-.6 2.921-21.944 125.775-20.131 469.888 53.074 573.031 12.555 17.691 30.697 35.821 53.119 39.226 35.293 5.359 90.114-40.232 116.993-60.746-20.159 46.187-41.157 111.662-46.515 161.738a344.44 344.44 0 0 0 76.098 254.45c117.726 144.83 329.037 187.29 487.447 82.5 14.58-9.64 27.17-20.07 40.69-31.1 10.18 59.47 8.78 122.38-12.01 179.43-26.12-12.69-60.43-15.76-88.95-12.72a197.43 197.43 0 0 0-133.217 73.37 735 735 0 0 1-104.653-25.56c-181.422-58.4-336.109-195.79-421.616-365.07-109.01-215.805-130.746-470.602-75.851-704.341a1159 1159 0 0 1 29.989-103.921c7.733-22.204 17.862-46.645 24.86-68.338"/><path fill="#d2d4db" d="M627.297 623.755C984.221 375.162 1426.45 452.946 1676.25 809.681c69.67 99.499 122.38 235.079 129.27 357.309-7.17-15.22-13.6-32.93-20.46-48.81a942 942 0 0 0-41.15-84.79c-78.09-143.718-206.15-287.192-363.06-346.404-65.44-24.696-142.22-29.892-206.3.759-27.72 13.257-44.44 26.9-66.14 47.97 24.81-74.299 48.7-153.91 75.18-227.5-17.98 20.851-37.17 46.125-54.58 67.879l-107.65 134.849c-63.876-66.764-163.937-99.861-254.79-101.945a497 497 0 0 0-135.325 16.563c-1.512.314-5.856 1.841-7.526 1.05-.128-.061-.091-.315-.036-.427.449-.925 3.122-2.173 3.614-2.429"/><path fill="#c7c8d2" d="m627.297 623.755 3.948 1.806c-1.512.314-5.856 1.841-7.526 1.05-.128-.061-.091-.315-.036-.427.449-.925 3.122-2.173 3.614-2.429"/><path fill="#d2d4db" d="M1373.51 882.945c55.63 14.521 101.31 54.901 129.71 104.07 55.15 95.465 53.69 219.895 26.31 323.575-51.73 195.93-192.9 366.13-361.17 475.22l-2.31-1.97c119.74-131.14 226.62-296.94 219.58-481.45-2.61-68.43-21.87-128.83-75.36-174.1 12.33-10.61 24.98-21.07 35.99-33.05a193.93 193.93 0 0 0 49.39-113.744c2.91-37.911-5.3-65.373-22.14-98.551"/><path fill="#fe0306" d="M1103.73 662.944c-2.43 6.479-3.39 12.66-5.18 19.264-25.31 93.782-22.75 193.382 18.4 282.374 8.3 17.953 19.4 32.762 22.95 52.578 5.59 29.83-.99 60.65-18.27 85.6-56.53 80.13-174.135 47.22-188.527-47.16-8.217-47.91 19.192-90.208 37.255-133.052 36.782-87.232 73.852-189.131 131.202-265.522 1.65 2.751 1.53 2.655 2.17 5.918"/><path fill="#eb1c1d" d="M1101.56 657.026c.93-2.323 4.13-6.334 5.71-8.463-.92 4.035-3.04 11.047-3.54 14.381-.64-3.263-.52-3.167-2.17-5.918"/><path fill="#c7c8d2" d="m1166.05 1783.84 2.31 1.97c-5.72 3.67-9.03 4.24-2.31-1.97"/><path fill="#777a81" d="M448.102 299.95c.372-.629.629-1.352 1.263-1.687 1.471.128.043 6.024-.121 6.817a169 169 0 0 1-1.142-5.13"/></svg>