<svg xmlns="http://www.w3.org/2000/svg" width="2048" height="2048" viewBox="0 0 2048 2048"><path fill="#21212a" d="M0 0h2048v2048H0z"/><path fill="#21212a" d="m263.426 275.245 1534.154.365a1993 1993 0 0 0-51.39 69.37c-39.38 54.768-72.83 100.25-64.44 172.344 5.23 44.859 29.18 74.502 60.74 105.502-58.47 151.269-155.71 278.289-292.46 366.503-26.06 16.811-71.96 46.271-101.49 55.781 35.71-80.427 83.02-208.492 90.24-296.019-17.9-18.746-36.58-38.626-55.05-56.724l-133.66-.115c-17.23 16.559-39.13 36.874-55.03 54.228l.98 566.7c28.39 30.91 58.17 63.77 86.97 94.03-63.46 17.47-127.35 59.64-163.46 116.26-.58.93-.93 2.06-1.27 3.09l.56 1.1c-.75 6.24-57.87 78.85-65.76 108.59-4.62 17.41 2.18 46.74-10.35 59.43-3.97 4.02-9.44 5.82-15.02 5.87-7.04.07-13.09-3.07-17.8-8.18-11.809-12.84-3.53-42.25-7.13-59.59-5.508-26.57-64.377-99.23-64.191-106.33l2.11-1.43c-2.497-7.3-9.781-15.42-14.591-21.6-25.892-33.25-60.254-58.94-98.075-77.47-16.53-8-33.67-14.67-51.258-19.95 27.741-29.93 60.274-63.27 86.764-93.81l.165-444.197c.159-41.025-.614-83.929.129-124.743a5837 5837 0 0 0-50.532-51.929l-131.903-.076c-18.876 19.073-40.551 39.466-58.566 58.778 5.494 63.713 25.143 122.441 45.243 182.958 11.725 35.298 27.315 77.089 43.351 110.239-33.9-12.88-67.846-34.4-98.476-53.716-113.496-71.554-206.932-174.129-263.797-295.957-10.838-23.218-24.063-47.787-30.268-72.678 35.801-31.652 58.414-65.417 61.533-114.344 5.675-89.039-69.545-163.26-116.972-232.28"/><path fill="#ca7840" d="m263.426 275.245 1534.154.365a1993 1993 0 0 0-51.39 69.37c-39.38 54.768-72.83 100.25-64.44 172.344 5.23 44.859 29.18 74.502 60.74 105.502-58.47 151.269-155.71 278.289-292.46 366.503-26.06 16.811-71.96 46.271-101.49 55.781 35.71-80.427 83.02-208.492 90.24-296.019-17.9-18.746-36.58-38.626-55.05-56.724l-133.66-.115c-17.23 16.559-39.13 36.874-55.03 54.228l.98 566.7c28.39 30.91 58.17 63.77 86.97 94.03-63.46 17.47-127.35 59.64-163.46 116.26-.58.93-.93 2.06-1.27 3.09-5.03.5-12.61 1.21-17.24-.79 40.7-62.1 86.83-98.48 156.02-125.5-23.67-28.5-51.02-54.34-74.75-82.02l-1.38-577.773 63.1-61.939c47.84.115 97.77.783 145.48-.282 20.68 22.14 42.09 43.448 62.88 65.455-3.21 58.075-22.58 122.696-40.86 177.695-8.98 27.009-23.81 69.276-35.75 95.724 177.8-99.23 269.73-204.324 350.91-390.098-38.95-40.611-60.39-74.865-59.49-134.044.89-57.793 24.56-93.423 55.94-138.576a3223 3223 0 0 1 46.69-65.181l-1478.677.21c50.981 70.574 117.25 145.57 100.424 237.511-7.086 38.723-28.33 74.945-58.178 100.252 20.901 49.04 42.197 94.143 70.905 139.261C471.113 871.499 574.438 959.633 684.628 1017c-14.53-33.401-28.5-74.298-39.387-109.07-17.416-55.625-33.054-104.166-36.262-162.597l65.711-66.636 144.638.02a4234 4234 0 0 1 58.173 60.569l-.34 579.994c-23.224 25.78-51.845 56.37-75.941 81.11 70.124 28.32 116.621 60.78 157.561 126.45-5.535.48-12.897 1.07-18.102-.82-2.497-7.3-9.781-15.42-14.591-21.6-25.892-33.25-60.254-58.94-98.075-77.47-16.53-8-33.67-14.67-51.258-19.95 27.741-29.93 60.274-63.27 86.764-93.81l.165-444.197c.159-41.025-.614-83.929.129-124.743a5837 5837 0 0 0-50.532-51.929l-131.903-.076c-18.876 19.073-40.551 39.466-58.566 58.778 5.494 63.713 25.143 122.441 45.243 182.958 11.725 35.298 27.315 77.089 43.351 110.239-33.9-12.88-67.846-34.4-98.476-53.716-113.496-71.554-206.932-174.129-263.797-295.957-10.838-23.218-24.063-47.787-30.268-72.678 35.801-31.652 58.414-65.417 61.533-114.344 5.675-89.039-69.545-163.26-116.972-232.28"/><path fill="#7a0d1d" d="M1042.24 1619.04c12.86-27.25 41.27-68.3 58.78-93.27 4.63 2 12.21 1.29 17.24.79l.56 1.1c-.75 6.24-57.87 78.85-65.76 108.59-4.62 17.41 2.18 46.74-10.35 59.43-3.97 4.02-9.44 5.82-15.02 5.87-7.04.07-13.09-3.07-17.8-8.18-11.809-12.84-3.53-42.25-7.13-59.59-5.508-26.57-64.377-99.23-64.191-106.33l2.11-1.43c5.205 1.89 12.567 1.3 18.102.82 2.885 3.34 11.294 18.09 14.454 22.65 15.133 21.83 29.015 47.68 43.665 69.37 8.23.26 17.06.14 25.34.18"/><path fill="#ebebee" d="m393.825 344.116 1272.065.035c-28.02 41.674-46.15 78.838-52.65 129.851-8.2 64.305 7.27 116.56 48.79 165.701-46.82 101.819-97.07 169.922-181.38 242.486 15.94-58.913 21.57-101.227 22.17-162.023-26.51-29.925-63.11-65.413-91.72-94.821-63.54-.685-128.45-.093-192.07-.085-27.58 26.511-62.05 61.681-89.98 86.191l.36 355.049.44 277.12c11.06 12.47 24.95 26.91 36.57 38.87-59.25 38.87-102.82 91.57-137.12 153.16a408.53 408.53 0 0 0-136.779-153.08c11.651-12.27 25.524-26.19 36.386-38.91l-.069-630.165a9191 9191 0 0 1-86.401-88.332l-193.472.313-90.051 94.042a624.5 624.5 0 0 0 19.981 162.227c-82.52-65.661-138.852-147.072-180.526-242.983a195.3 195.3 0 0 0 48.336-94.126c14.282-73.337-12.44-140.868-52.88-200.52"/><path fill="#7a0d1d" d="M1026.15 1731.19c-.03-.83-.27-3.67.41-4.36 1.53-1.54 2.86 5.17 2.86 5.17 1.59 22.93 10.43 47.04 20 68.03 8.65 18.99 25.93 38.76 25.62 60.3-.2 13.34-6.33 27.23-16.37 36.06a46.7 46.7 0 0 1-35.07 11.12 45.34 45.34 0 0 1-32.093-17.61c-27.334-35.67 5.529-66.77 18.373-98.03 6.92-16.85 13.77-42.87 16.27-60.68"/><path fill="#681924" d="M1026.15 1731.19c-.03-.83-.27-3.67.41-4.36 1.53-1.54 2.86 5.17 2.86 5.17z"/></svg>