<svg xmlns="http://www.w3.org/2000/svg" width="2048" height="2048" viewBox="0 0 2048 2048"><path fill="#262323" d="M0 0h2048v2048H0z"/><path fill="#e26f44" d="M1466.9 300.155c22.63-28.273 93.52-6.505 121.65 4.77 160.87 64.478 254.4 256.751 182.59 419.911-59.99 136.298-206.75 229.806-339.44 284.784.66 11.42 1.16 20.25.77 31.73-4.24 33.82-13.8 76.08-25.12 108.01 35.43 8.41 71.12 18.66 106.7 27.36l-141 237.17c-43.56-20.95-145.59-81.71-139.97 20.64.59 10.67.02 24.24.01 35.22-.18 41.99-.14 83.97.15 125.96l-38.24.01.01 68.54-340.123-.05.015-68.71-38.562.13.058-119.94c.009-20.15.4-40.54-.316-60.52-.926-29.15-27.795-43.71-54.508-37.35-29.524 7.03-58.158 22.9-85.367 36.23-16.765-25.52-34.941-57.62-50.801-84.32l-91.615-153.59a3681 3681 0 0 0 103.499-25.83c-17.59-42.46-27.068-95.22-20.896-140.96-80.673-34.805-152.189-71.564-218.982-129.866-75.225-65.663-137.162-149.062-143.792-251.96-5.502-85.399 24.922-168.029 80.739-232.2 48.711-56.001 125.813-102.707 200.362-107.838 16.447-.45 48.633.29 49.94 22.054.319 5.304-2.411 10.96-6.624 14.256-8.579 6.713-19.477 10.268-28.732 16.056-27.715 15.104-50.366 33.754-71.838 56.833-59.739 64.21-71.392 171.049-.93 232.233 26.41 22.933 58.841 37.85 92.392 47.784 28.564 8.459 58.815 14.67 88.675 16.152 27.861 1.183 56.693-2.106 84.481-3.968 57.476-45.828 141.788-77.673 213.895-89.752 103.48-17.333 213.77 7.709 304.45 58.951 16.6 9.382 31.68 20.433 47.16 31.433 21.28.978 47.94 4.851 68.53 4.169 94.46-3.129 227.45-40.964 242.98-150.206 12.45-87.571-42.19-157.833-112.76-201.471-12.21-7.547-28.61-11.194-38.4-21.325-4.22-4.878-2.23-14.54-1.04-20.53"/><path fill="#030303" d="M1494.08 311.414c-2.5-.564-2.2-.012-3.67-1.711l-.3.449c-.23-.304-.19-.213-.28-.563 1.17-1.954 21.42-.225 24.36.304 22.79-.235 57.55 12.238 77.99 21.777a312.96 312.96 0 0 1 162.61 177.95 277.97 277.97 0 0 1-10.03 216.382c-59.34 124.815-213.42 223.749-339.39 268.617 13.52 49.271-10.98 123.661-27.67 170.881 27.9 5.96 72.63 17.83 100.02 26.29-11.31 16.29-26.97 45.14-37.68 63.18l-76.61 128.92c-40.75-19.47-97.99-50.69-137.24-10.92a55.64 55.64 0 0 0-14.78 27.5c-2.51 11.44-1.51 46.51-1.51 60.06l-.11 111.66-37.92-.16.03 69.98-294.127-.07-.12-69.97-37.793.2.088-107.23c.012-41.66 7.725-91.06-42.956-107.73-36.286-11.93-79.467 10.35-111.696 26.81-38.777-62.14-77.531-129.74-114.892-193.02 32.598-7.19 65.38-17.27 98.139-23.84-4.859-9.87-9.686-23.6-13.328-34.1-16.495-47.52-24.33-89.42-12.103-138.653-84.034-29.072-182.958-86.369-247.332-147.293-65.144-61.954-117.719-140.125-119.331-233.11-1.725-99.522 48.064-194.317 128.672-251.872 35.789-25.553 89.318-51.282 133.694-52.204 2.787-.487 17.989-1.961 19.414-.344l-.085.157-.027.184-.044-.021c-1.292.881-1.674 1.024-3.235 1.4-52.527 21.477-112.062 76.569-133.574 129.665-19.698 48.619-23.692 96.489-3.561 145.615 20.1 49.046 64.374 81.216 112.062 100.511 46.43 18.787 101.629 29.841 151.773 28.327 23.214-.701 46.292-4.233 69.481-3.753 12.751-9.837 26.737-20.894 40.591-28.92 83.398-48.317 187.12-76.141 283.4-62.774 77.27 10.728 163.14 41.238 222.65 91.928 29.51-.239 58.63 4.265 86.06 3.892 70.87-.963 164.4-28.473 214.41-79.808a166.35 166.35 0 0 0 46.51-118.981c-.51-36.731-13.08-77.586-33.73-107.939-27.3-40.114-71.15-80.217-116.83-97.653"/><path fill="#390401" d="M1494.08 311.414c-2.5-.564-2.2-.012-3.67-1.711l-.3.449c-.23-.304-.19-.213-.28-.563 1.17-1.954 21.42-.225 24.36.304-7.62.745-15.39-1.203-20.11 1.521"/><path fill="#390401" d="M538.815 309.928c2.787-.487 17.989-1.961 19.414-.344l-.085.157-.027.184-.044-.021c-1.292.881-1.674 1.024-3.235 1.4-3.914-2.201-9.98-.884-16.023-1.376"/><defs><linearGradient id="a" x1="1040.617" x2="934.396" y1="1127.177" y2="1126.836" gradientUnits="userSpaceOnUse"><stop offset="0" stop-color="#3a3a3a"/><stop offset="1" stop-color="#ededed"/></linearGradient></defs><path fill="url(#a)" d="M1004.72 646.46c13.68-1.162 23.07-1.37 36.77-.606l11.22.798c8.04 1.108 28.37 3.601 35.5 5.76a506 506 0 0 1 61.15 15.486c11.36 3.662 22.89 7.091 33.8 11.923a303 303 0 0 1 34.8 17.032c1.43.829 2.86 1.666 4.28 2.512 1.41.893 2.82 1.772 4.25 2.639 4.87 2.26 14.54 9.188 19.19 12.498-9.17 6.098-10.4 8.155-18.19 15.571-1.88 1.937-3.35 3.647-5.12 5.629-1.1 1.314-2.2 2.635-3.29 3.962-16.12 19.901-25.16 38.172-33.23 62.581-7.61 32.662-9.61 55.132-2.97 88.633 7.34 26.359 13.92 43.998 31.95 65.419l2.89 3.379 1.97 2.212 3.79 3.912c10.91 10.486 14.86 13.5 27.89 21.171l3.72 2.107c24.38 11.272 45.05 16.682 72.29 17.142 15.61-.01 24.21-1.22 39.47-3.55 2.75-1.41 3.83-1.73 6.88-2.56 3.25 15.96 5.88 29.93 3.43 46.39-2.52 16.84-4.8 35.54-10.35 51.67-8.73 34.26-17.23 55.3-32.1 86.8 10.84 2.86 20.69 6.07 31.33 9.52 7.29 1.65 13.17 3.16 20.23 5.75 8.39.78 23.4 6.07 32.54 8.05 13.06 3.33 8.1 2.52 1.4 14.72l-30.72 52.06c-.76 1.28-.69 1.33-1.79 2.09-3.45 6.92-16.65 30.06-21.1 35.89a1158 1158 0 0 1-17.07 29.82c-9.6-5.45-16.75-8.83-27.18-12.67-19.67-5.58-29.26-8.37-49.95-8.25-8.39.21-16.44.54-24.6 2.77l-3.65.85c-1.82.79-2 .87-3.69 1.44-2.13.74-4.25 1.51-6.35 2.3-3.5 1.36-5.41 2.59-8.62 4.35-24.62 14.01-34.87 27.16-44.77 53.52-4.81 24.99-3.54 47.31-3.46 72.64l.49 81.32c-5.27.05-21.89.58-26.24.02-3.53.18-8.1-.06-10.98 1.68-1.53 12.36-.39 52.29-.38 66.83-16.46.29-32.93.41-49.4.39-9.07.04-18.13.01-27.2-.11-6.55.2-13.8.07-20.42.09l-8.97-.01q-7.245.015-14.49-.09l-15.78.15c-3.17.01-6.342-.05-9.512-.19-18.888.73-41.856.35-60.803.05-5.006.59-18.753.25-24.382.26l-.099-68.58-36.755.09q-.465-57.51-.038-115.02c.019-8.91.129-17.12-1.321-25.95-8.253-50.21-47.896-78.3-96.957-78.83-22.397 1.13-34.861 4.26-56.261 11.72l-2.363 1.12c-6.432 3.03-9.132 4.82-15.066 8.8-7.312-10.41-16.668-27.2-23.485-38.28-5.053-8.21-16.644-26.79-20.406-35.26-3.319-4.17-9.496-15.24-12.439-20.25l-22.827-38.93c13.342-3.36 26.637-6.9 39.879-10.63l51.884-14.72c-3.969-7.3-7.016-13.54-10.513-21.09-18.407-33.09-34.522-89.7-33.924-127.33.195-12.22 2.685-25.09 5.291-37.01 11.549 3.72 18.072 4.86 30.137 5.99q6.808.405 13.623.72c28.316-1.17 40.513-3.83 66.831-13.151 22.523-11.081 32.275-18.662 49.391-36.704 2.816-6.014 12.04-17.266 16.148-24.927 38.45-71.713 16.949-167.827-46.742-217.492 46.449-33.732 99.695-48.91 154.66-61.878 6.743-1.241 13.782-2.235 20.577-3.282a700 700 0 0 1 26.302-2.876"/><defs><linearGradient id="b" x1="1044.6" x2="1155.108" y1="1127.987" y2="1128.08" gradientUnits="userSpaceOnUse"><stop offset="0" stop-color="#5d5c5d"/><stop offset="1" stop-color="#f2f2f2"/></linearGradient></defs><path fill="url(#b)" d="m1041.49 645.854 11.22.798c8.04 1.108 28.37 3.601 35.5 5.76a506 506 0 0 1 61.15 15.486c11.36 3.662 22.89 7.091 33.8 11.923a303 303 0 0 1 34.8 17.032c1.43.829 2.86 1.666 4.28 2.512 1.41.893 2.82 1.772 4.25 2.639 4.87 2.26 14.54 9.188 19.19 12.498-9.17 6.098-10.4 8.155-18.19 15.571-1.88 1.937-3.35 3.647-5.12 5.629-1.1 1.314-2.2 2.635-3.29 3.962-16.12 19.901-25.16 38.172-33.23 62.581-7.61 32.662-9.61 55.132-2.97 88.633 7.34 26.359 13.92 43.998 31.95 65.419l2.89 3.379 1.97 2.212 3.79 3.912c10.91 10.486 14.86 13.5 27.89 21.171l3.72 2.107c24.38 11.272 45.05 16.682 72.29 17.142 15.61-.01 24.21-1.22 39.47-3.55 2.75-1.41 3.83-1.73 6.88-2.56 3.25 15.96 5.88 29.93 3.43 46.39-2.52 16.84-4.8 35.54-10.35 51.67-8.73 34.26-17.23 55.3-32.1 86.8 10.84 2.86 20.69 6.07 31.33 9.52 7.29 1.65 13.17 3.16 20.23 5.75 8.39.78 23.4 6.07 32.54 8.05 13.06 3.33 8.1 2.52 1.4 14.72l-30.72 52.06c-.76 1.28-.69 1.33-1.79 2.09-3.45 6.92-16.65 30.06-21.1 35.89a1158 1158 0 0 1-17.07 29.82c-9.6-5.45-16.75-8.83-27.18-12.67-19.67-5.58-29.26-8.37-49.95-8.25-8.39.21-16.44.54-24.6 2.77l-3.65.85c-1.82.79-2 .87-3.69 1.44-2.13.74-4.25 1.51-6.35 2.3-3.5 1.36-5.41 2.59-8.62 4.35-24.62 14.01-34.87 27.16-44.77 53.52-4.81 24.99-3.54 47.31-3.46 72.64l.49 81.32c-5.27.05-21.89.58-26.24.02-3.53.18-8.1-.06-10.98 1.68-1.53 12.36-.39 52.29-.38 66.83-16.46.29-32.93.41-49.4.39-9.07.04-18.13.01-27.2-.11-6.55.2-13.8.07-20.42.09-3.76-5.19-.75-99.21-.69-115.74.13-37.27-1.03-76.68-.96-113.92l7.83 3.94c12.04-12.38 23.97-24.87 35.78-37.47-11.03-15.72-23.58-30.7-34.82-46.73-2.86-4.03-5.78-8.03-8.76-11.98-.77-63.75.7-128.54-.01-192.33-.31-27.03 1.16-60.2-.33-86.65 3.94-8.05.3-323.017.32-363.306"/><path fill="#e6e6e6" d="M1250.02 1080.52c-.69 0-1.77.13-2.43-.21-.48-3.52 1.27-7.73-.07-11.31.74 1.97-.78-7.12-.74-6.89.37-.63.95-.83 1.6-1.16.78-1.65-.49-17.24 1.22-23.4 2.48-8.97-5.87-45.577 1.77-50.579l3.72 2.107c24.38 11.272 45.05 16.682 72.29 17.142 15.61-.01 24.21-1.22 39.47-3.55 2.75-1.41 3.83-1.73 6.88-2.56 3.25 15.96 5.88 29.93 3.43 46.39-2.52 16.84-4.8 35.54-10.35 51.67-8.73 34.26-17.23 55.3-32.1 86.8 10.84 2.86 20.69 6.07 31.33 9.52 7.29 1.65 13.17 3.16 20.23 5.75 8.39.78 23.4 6.07 32.54 8.05 13.06 3.33 8.1 2.52 1.4 14.72l-30.72 52.06c-.76 1.28-.69 1.33-1.79 2.09-3.45 6.92-16.65 30.06-21.1 35.89a1158 1158 0 0 1-17.07 29.82c-9.6-5.45-16.75-8.83-27.18-12.67-19.67-5.58-29.26-8.37-49.95-8.25-8.39.21-16.44.54-24.6 2.77l-3.65.85c-1.82.79-2 .87-3.69 1.44-2.13.74-4.25 1.51-6.35 2.3V1283c-.05-6.18-.63-20.55-.32-26 .28-4.84.22-9.69-.17-14.51 2.89-.9 5.6-1.42 8.36-2.46l2.89-1.07c6.96-2.41 13.91-5.51 20.7-8.41 27.34-13.78 36.6-21.54 53.97-46.5 10.02-24.42 13.68-39.56 4.81-65.9-14.38-25.14-35.34-34.55-63.59-36.46-2.06-1.11-7.99-1.03-10.74-1.17"/><defs><linearGradient id="c" x1="1242.572" x2="1320.817" y1="1259.993" y2="1256.929" gradientUnits="userSpaceOnUse"><stop offset="0" stop-color="#656565"/><stop offset="1" stop-color="#e6e6e6"/></linearGradient></defs><path fill="url(#c)" d="M1319.54 1184.05c-.25 8.4-13.2 22.54-20.05 27.03-.06 29.62-.39 59.39.95 88.96.22 4.97-.26 18.09.78 22.15 7.28 4.65 13.89-.1 21.13 8.01-19.67-5.58-29.26-8.37-49.95-8.25-8.39.21-16.44.54-24.6 2.77l-3.65.85c-1.82.79-2 .87-3.69 1.44-2.13.74-4.25 1.51-6.35 2.3V1283c-.05-6.18-.63-20.55-.32-26 .28-4.84.22-9.69-.17-14.51 2.89-.9 5.6-1.42 8.36-2.46l2.89-1.07c6.96-2.41 13.91-5.51 20.7-8.41 27.34-13.78 36.6-21.54 53.97-46.5"/><path fill="#3f3f3f" d="m1241.98 1240.03 2.89-1.07c.42 18.31-.43 39.59-.09 58.04.13 7.19-1.55 23.79 3.02 27.72l-3.65.85c-1.82.79-2 .87-3.69 1.44-2.13.74-4.25 1.51-6.35 2.3V1283c-.05-6.18-.63-20.55-.32-26 .28-4.84.22-9.69-.17-14.51 2.89-.9 5.6-1.42 8.36-2.46"/><path fill="#5b5b5b" d="m1241.98 1240.03 2.89-1.07c.42 18.31-.43 39.59-.09 58.04.13 7.19-1.55 23.79 3.02 27.72l-3.65.85c-3.38-.85-3.03-.61-2.95-4.56.46-23.81.16-47.69.2-71.51 0-3.89-.1-5.39.58-9.47"/><defs><linearGradient id="d" x1="1253.645" x2="1312.588" y1="1044.31" y2="1043.708" gradientUnits="userSpaceOnUse"><stop offset="0" stop-color="#787878"/><stop offset="1" stop-color="#d0d0d0"/></linearGradient></defs><path fill="url(#d)" d="M1250.02 1080.52c-.69 0-1.77.13-2.43-.21-.48-3.52 1.27-7.73-.07-11.31.74 1.97-.78-7.12-.74-6.89.37-.63.95-.83 1.6-1.16.78-1.65-.49-17.24 1.22-23.4 2.48-8.97-5.87-45.577 1.77-50.579l3.72 2.107c24.38 11.272 45.05 16.682 72.29 17.142-7.8 2.85-7.63.91-14.31 1.82.5 20.5-.03 67.94 1.09 90.41.07 1.43 9.06 6.28 10.19 19.7-14.38-25.14-35.34-34.55-63.59-36.46-2.06-1.11-7.99-1.03-10.74-1.17"/><path fill="#727272" d="M1250.02 1080.52c-.69 0-1.77.13-2.43-.21-.48-3.52 1.27-7.73-.07-11.31.74 1.97-.78-7.12-.74-6.89.37-.63.95-.83 1.6-1.16.78-1.65-.49-17.24 1.22-23.4 2.48-8.97-5.87-45.577 1.77-50.579l3.72 2.107c-.08 5.484 1.18 29.772.17 32.582-.25-2.11-.38-4.22-.66-6.32-.52 4.81-.47 4.77.48 9.34 1.07 5.11.48 11.68-.29 16.82-.27 7.66-.96 16.3.41 23.85.46 2.52.38 4.17-.36 6.78-.38 1.37-.69 6-1.62 7.3-.19.25-1.33.34-1.49.32-.43.02-1.65.74-1.71.77"/><defs><linearGradient id="e" x1="1416.938" x2="1390.817" y1="1233.152" y2="1232.993" gradientUnits="userSpaceOnUse"><stop offset="0" stop-color="#777"/><stop offset="1" stop-color="#a6a7a6"/></linearGradient></defs><path fill="url(#e)" d="M1386.27 1200.24c8.39.78 23.4 6.07 32.54 8.05 13.06 3.33 8.1 2.52 1.4 14.72l-30.72 52.06c-.76 1.28-.69 1.33-1.79 2.09-2.23-4.82 4.03-7.61 3.9-12.64-.43-15.62-2.11-31.27-.72-46.96.09-.93 1.01-2.99.37-4.3-1.78-2.64.93-10.14-2.45-10.82-2.21-.44-2.28.06-2.53-2.2"/><path fill="#8c8c8c" d="M1418.81 1208.29c13.06 3.33 8.1 2.52 1.4 14.72-2.8-4.08-3.25-10.19-1.4-14.72"/><path fill="#a6a6a6" d="M1366.04 1194.49c7.29 1.65 13.17 3.16 20.23 5.75.25 2.26.32 1.76 2.53 2.2 3.38.68.67 8.18 2.45 10.82.64 1.31-.28 3.37-.37 4.3-1.39 15.69.29 31.34.72 46.96.13 5.03-6.13 7.82-3.9 12.64-3.45 6.92-16.65 30.06-21.1 35.89 1.54-7.86 10.02-21.03 9.99-23.07-.31-25.94.75-65.85-1.47-90.55-3.99-1.65-5.7-2.34-9.08-4.94"/><path fill="#bdbebd" d="M1366.85 1002.67c2.75-1.41 3.83-1.73 6.88-2.56 3.25 15.96 5.88 29.93 3.43 46.39-2.52 16.84-4.8 35.54-10.35 51.67-.09-4.88.65-18.41 2.5-23.77 2.62-6.2-.89-7.94 2.88-13.93 4.62-7.33 1.22-27.51 2.34-36.49.03-.26-1.16-13.72-1.07-12.75l-.05-.03c-.76.19-.98.37-1.59.06-1.07-1.53 1.71-3.58.77-5.73-2.18-4.99-5.24 1.8-5.74-2.86"/><path fill="#030303" d="M1224.41 1084.1c14-1.55 22.06-2.14 36.35-2.41 28.25 1.91 49.21 11.32 63.59 36.46 8.87 26.34 5.21 41.48-4.81 65.9-17.37 24.96-26.63 32.72-53.97 46.5-6.79 2.9-13.74 6-20.7 8.41l-2.89 1.07c-2.76 1.04-5.47 1.56-8.36 2.46-3.53 1.33-6.03 1.7-9.4 2.85a505 505 0 0 1-46.61 9.08l-22.65 1.39c-23.75.79-43.05-3.81-62.09-17.96-25.73-24.37-14.2-52.88.48-79 18.05-24.16 29.13-33.31 54.77-48.97 11.47-6.06 23.8-10.95 35.75-16.08 10.86-3.42 20.83-5.83 31.87-8.51l1.57-.33 5.67-.75z"/><path fill="#e6e6e6" d="M1149.36 667.898c11.36 3.662 22.89 7.091 33.8 11.923a303 303 0 0 1 34.8 17.032c1.43.829 2.86 1.666 4.28 2.512 1.41.893 2.82 1.772 4.25 2.639 4.87 2.26 14.54 9.188 19.19 12.498-9.17 6.098-10.4 8.155-18.19 15.571-1.88 1.937-3.35 3.647-5.12 5.629-1.1 1.314-2.2 2.635-3.29 3.962-16.12 19.901-25.16 38.172-33.23 62.581-7.61 32.662-9.61 55.132-2.97 88.633 7.34 26.359 13.92 43.998 31.95 65.419l2.89 3.379 1.97 2.212 3.79 3.912c10.91 10.486 14.86 13.5 27.89 21.171-7.64 5.002.71 41.609-1.77 50.579-1.71 6.16-.44 21.75-1.22 23.4-.65.33-1.23.53-1.6 1.16-.04-.23 1.48 8.86.74 6.89 1.34 3.58-.41 7.79.07 11.31.66.34 1.74.21 2.43.21 2.75.14 8.68.06 10.74 1.17-14.29.27-22.35.86-36.35 2.41l-1.43.11-5.67.75-1.57.33c-11.04 2.68-21.01 5.09-31.87 8.51-11.95 5.13-24.28 10.02-35.75 16.08-2.53.48-2.83.39-5.44.28-2.27-19.95.5-49.37.51-69.95.09-84.054.78-167.618-.62-251.71-.39-39.662-.39-79.327.01-118.988 2.04-2.222 2.59-1.431 6.78-1.614"/><defs><linearGradient id="f" x1="1213.782" x2="1197.92" y1="1012.399" y2="1012.52" gradientUnits="userSpaceOnUse"><stop offset="0" stop-color="#a4a4a4"/><stop offset="1" stop-color="#c7c7c7"/></linearGradient></defs><path fill="url(#f)" d="M1182.88 890.878c7.34 26.359 13.92 43.998 31.95 65.419l2.89 3.379 1.97 2.212 3.79 3.912c10.91 10.486 14.86 13.5 27.89 21.171-7.64 5.002.71 41.609-1.77 50.579-1.71 6.16-.44 21.75-1.22 23.4-.65.33-1.23.53-1.6 1.16-.04-.23 1.48 8.86.74 6.89 1.34 3.58-.41 7.79.07 11.31.66.34 1.74.21 2.43.21 2.75.14 8.68.06 10.74 1.17-14.29.27-22.35.86-36.35 2.41l-1.43.11-5.67.75-1.57.33c-11.04 2.68-21.01 5.09-31.87 8.51.73-1.71.46-.7.54-3.1l2.03-.13-1.5-1.29 1.35-1.26c1.08 2.32.26 1.53 2.23 2.59 4.43-2.9 3.14-4.62 3.22-9.9.62 3.5.46 3.89 2.36 6.98 2.99.43 1.58.71 4.28-1.28-.3-10.39.04-20.81.12-31.17.28-38.73-1.03-77.881-.27-116.516.16-8.083-17.49-26.017-15.35-47.846"/><path fill="#5b5b5b" d="M1223.48 965.8c10.91 10.486 14.86 13.5 27.89 21.171-7.64 5.002.71 41.609-1.77 50.579-1.71 6.16-.44 21.75-1.22 23.4-.65.33-1.23.53-1.6 1.16-.04-.23 1.48 8.86.74 6.89 1.34 3.58-.41 7.79.07 11.31.66.34 1.74.21 2.43.21 2.75.14 8.68.06 10.74 1.17-14.29.27-22.35.86-36.35 2.41 1.14-39.12-1.02-79-.93-118.3"/><path fill="#8c8c8c" d="m1217.72 959.676 1.97 2.212 3.79 3.912c-.09 39.3 2.07 79.18.93 118.3l-1.43.11-5.67.75.81-1.75c-.81-8.64-.17-31.15-.18-40.66z"/><path fill="#a6a6a6" d="m1214.83 956.297 2.89 3.379.22 82.874c.01 9.51-.63 32.02.18 40.66l-.81 1.75-1.57.33c-2.06-3.09-1.09-9.14-.83-13.13l.26.55c.45-8.43.67-16.73.3-25.18-1.32-30.35.33-60.9-.64-91.233"/><defs><linearGradient id="g" x1="1215.897" x2="1199.394" y1="724.821" y2="725.007" gradientUnits="userSpaceOnUse"><stop offset="0" stop-color="#a4a4a4"/><stop offset="1" stop-color="#c8c8c8"/></linearGradient></defs><path fill="url(#g)" d="M1183.16 679.821a303 303 0 0 1 34.8 17.032c1.43.829 2.86 1.666 4.28 2.512 1.41.893 2.82 1.772 4.25 2.639 4.87 2.26 14.54 9.188 19.19 12.498-9.17 6.098-10.4 8.155-18.19 15.571-1.88 1.937-3.35 3.647-5.12 5.629-1.1 1.314-2.2 2.635-3.29 3.962-16.12 19.901-25.16 38.172-33.23 62.581-1.58-19.55 14.47-31.173 14.81-45.241.5-20.97.26-45.702-1.15-66.875-.17-2.551-12.85-2.879-16.35-10.308"/><path fill="#5b5b5b" d="M1226.49 702.004c4.87 2.26 14.54 9.188 19.19 12.498-9.17 6.098-10.4 8.155-18.19 15.571.03-9.89-1.01-18.646-1-28.069"/><path fill="#8c8c8c" d="M1222.24 699.365c1.41.893 2.82 1.772 4.25 2.639-.01 9.423 1.03 18.179 1 28.069-1.88 1.937-3.35 3.647-5.12 5.629-.1-10.997-1.13-25.865-.13-36.337"/><path fill="#a6a6a6" d="M1217.96 696.853c1.43.829 2.86 1.666 4.28 2.512-1 10.472.03 25.34.13 36.337-1.1 1.314-2.2 2.635-3.29 3.962-1.49-14.139-.92-28.493-1.12-42.811"/><path fill="#a6a6a6" d="M1214.83 699.637c2.76 7.153 2.47 27.895 1.2 35.407-.2-.006-.9.013-.9-.199-.07-8.664-.17-27.551-.3-35.208"/><path fill="#dbdbdb" d="M1233.62 1242.49c.39 4.82.45 9.67.17 14.51-.31 5.45.27 19.82.32 26v46.31c-3.5 1.36-5.41 2.59-8.62 4.35-24.62 14.01-34.87 27.16-44.77 53.52-4.81 24.99-3.54 47.31-3.46 72.64l.49 81.32c-5.27.05-21.89.58-26.24.02-3.06-.5-4.02-.54-7.1-.17l.43-1.01c1.29-.87 2.79-1.75 3.92-2.81 4.18-3.9 5.63-33.79 5.91-40.57.56-13.73-.15-27.38-.15-41.1l-.58-136c-.02-20.59-.44-43.27 1.02-63.69l22.65-1.39c15.67-2.29 31.23-5.33 46.61-9.08 3.37-1.15 5.87-1.52 9.4-2.85"/><defs><linearGradient id="h" x1="1223.227" x2="1193.069" y1="1302.63" y2="1302.388" gradientUnits="userSpaceOnUse"><stop offset="0" stop-color="#8f8f8e"/><stop offset="1" stop-color="#d0d0d0"/></linearGradient></defs><path fill="url(#h)" d="M1233.62 1242.49c.39 4.82.45 9.67.17 14.51-.31 5.45.27 19.82.32 26v46.31c-3.5 1.36-5.41 2.59-8.62 4.35-24.62 14.01-34.87 27.16-44.77 53.52-.67-6.57 4.22-19.72 6.17-27.09l.96-.26 1.57 3.17c.91-7.55 3.22-4.94 4.19-13.49 2.37-20.8-4.94-40.33-2.86-60.8l.84.01c1.3 6.28-.51 18.95.87 21.96l.84-.93c-.15-14.91 2.34-30.66.69-44.91-.6-5.26-.74-3.94-.55-9.82-4.87-1.29-8.8 1.65-15.83-.6 15.67-2.29 31.23-5.33 46.61-9.08 3.37-1.15 5.87-1.52 9.4-2.85"/><path fill="#8c8c8c" d="M1233.62 1242.49c.39 4.82.45 9.67.17 14.51-.31 5.45.27 19.82.32 26v46.31c-3.5 1.36-5.41 2.59-8.62 4.35 0-10.49.94-84.6-1.27-88.32 3.37-1.15 5.87-1.52 9.4-2.85"/><path fill="#5b5b5b" d="m1041.49 645.854 11.22.798-5.31 1.116c-2.55 4.939-.74 4.264-.45 8.563 3.4 50.553 3.26 106.082 3.28 156.258l-.64 368.371c-.12 23.76-.04 47.88.45 71.66.17 8.32-1.2 42.18.23 47.5-2.86-4.03-5.78-8.03-8.76-11.98-.77-63.75.7-128.54-.01-192.33-.31-27.03 1.16-60.2-.33-86.65 3.94-8.05.3-323.017.32-363.306"/><path fill="#5b5b5b" d="m1041.48 1380.38 7.83 3.94c-.56 10.25.68 24.13.77 35l-.06 95.31c0 16.68.7 45.65-.84 61.31l-.37-4.84c-.6 12.56-.41 24.74-.32 37.3 4.2.3 11.21.58 15.06 1.55-6.55.2-13.8.07-20.42.09-3.76-5.19-.75-99.21-.69-115.74.13-37.27-1.03-76.68-.96-113.92"/><path fill="#3f3f3f" d="M1046 1456.5c2.39 2.36 2.05 23.21 1.16 26.83-2.83 11.63-1.67 23.98-1.67 36.17-3.74-3.94.51-53.51.51-63"/><defs><linearGradient id="i" x1="715.796" x2="872.56" y1="1211.612" y2="1210.044" gradientUnits="userSpaceOnUse"><stop offset="0" stop-color="#4e4e4d"/><stop offset="1" stop-color="#f3f3f4"/></linearGradient></defs><path fill="url(#i)" d="M717.553 1006.77c28.316-1.17 40.513-3.83 66.831-13.151-2.283 2.15-3.644 3.321-6.111 5.257.261 24.994 4.958 60.054 4.213 83.104 22.391-.5 30.358.41 52.84 3.4 51.201 14.08 85.766 29.83 118.967 73.53 10.526 17.99 14.14 24.68 16.569 45.58-2.87 26.81-13.823 37.43-38.034 46.83-28.545 6.18-31.898 3.77-57.487 3.64-14.386 1.95-22.188-3.41-33.824-3.48-2.123 11.7-1.49 78.61.583 91.49 6.777 8.32 13.733 12.39 18.428 21.66 11.603 22.91 14.861 35.55 12.818 60.76l-1.045 1.31c.019-8.91.129-17.12-1.321-25.95-8.253-50.21-47.896-78.3-96.957-78.83-22.397 1.13-34.861 4.26-56.261 11.72l-2.363 1.12c-6.432 3.03-9.132 4.82-15.066 8.8-7.312-10.41-16.668-27.2-23.485-38.28-5.053-8.21-16.644-26.79-20.406-35.26-3.319-4.17-9.496-15.24-12.439-20.25l-22.827-38.93c13.342-3.36 26.637-6.9 39.879-10.63l51.884-14.72c-3.969-7.3-7.016-13.54-10.513-21.09-18.407-33.09-34.522-89.7-33.924-127.33.195-12.22 2.685-25.09 5.291-37.01 11.549 3.72 18.072 4.86 30.137 5.99q6.808.405 13.623.72"/><path fill="#030303" d="M782.486 1081.98c22.391-.5 30.358.41 52.84 3.4 51.201 14.08 85.766 29.83 118.967 73.53 10.526 17.99 14.14 24.68 16.569 45.58-2.87 26.81-13.823 37.43-38.034 46.83-28.545 6.18-31.898 3.77-57.487 3.64-41.612-8.62-54.434-6.04-97.524-27.07-42.702-22.85-74.901-68.72-46.963-117.57 10.264-17.95 32.415-24.72 51.632-28.34"/><defs><linearGradient id="j" x1="715.811" x2="621.617" y1="1251.091" y2="1250.17" gradientUnits="userSpaceOnUse"><stop offset="0" stop-color="#2f2f2f"/><stop offset="1" stop-color="#a7a7a7"/></linearGradient></defs><path fill="url(#j)" d="M712.939 1185.49c.024-7.35-.216-16.5.774-23.6.864 13.32-.084 30.54-.177 44.4l-.119 83.84c-.002 6.94-1.211 40.87 1.982 44.63-6.432 3.03-9.132 4.82-15.066 8.8-7.312-10.41-16.668-27.2-23.485-38.28-5.053-8.21-16.644-26.79-20.406-35.26-3.319-4.17-9.496-15.24-12.439-20.25l-22.827-38.93c13.342-3.36 26.637-6.9 39.879-10.63z"/><defs><linearGradient id="k" x1="704.91" x2="669.153" y1="1081.756" y2="1081.198" gradientUnits="userSpaceOnUse"><stop offset="0" stop-color="#3e3d3d"/><stop offset="1" stop-color="#717171"/></linearGradient></defs><path fill="url(#k)" d="M673.793 1000.06c11.549 3.72 18.072 4.86 30.137 5.99l1.474 1.98c-.712 42.58-.623 85.2-.783 127.81-.03 8.19-.053 20.72-2.195 28.56-18.407-33.09-34.522-89.7-33.924-127.33.195-12.22 2.685-25.09 5.291-37.01"/><path fill="#262323" d="M703.93 1006.05q6.808.405 13.623.72c.003 11.72.6 122.05-.43 123.91l.455 1.73c1.231 4.29-.141 8.66-.595 13.31 3.326 21.86-2.858 181.8.779 187.92l-2.363 1.12c-3.193-3.76-1.984-37.69-1.982-44.63l.119-83.84c.093-13.86 1.041-31.08.177-44.4-.99 7.1-.75 16.25-.774 23.6-3.969-7.3-7.016-13.54-10.513-21.09 2.142-7.84 2.165-20.37 2.195-28.56.16-42.61.071-85.23.783-127.81z"/><path fill="#3f3f3f" d="M716.983 1145.72c-2.123-5.93-2.361-9.22.14-15.04l.455 1.73c1.231 4.29-.141 8.66-.595 13.31"/><path fill="#dbdbdb" d="m978.418 649.336.358 372.834c-.334 42.33 1.405 83.82-1.45 126.04-1.603 23.7.074 23.22-5.594 47.53l-.87 8.75c-2.429-20.9-6.043-27.59-16.569-45.58-33.201-43.7-67.766-59.45-118.967-73.53-22.482-2.99-30.449-3.9-52.84-3.4.745-23.05-3.952-58.11-4.213-83.104 2.467-1.936 3.828-3.107 6.111-5.257 22.523-11.081 32.275-18.662 49.391-36.704 2.816-6.014 12.04-17.266 16.148-24.927 38.45-71.713 16.949-167.827-46.742-217.492 46.449-33.732 99.695-48.91 154.66-61.878 6.743-1.241 13.782-2.235 20.577-3.282"/><path fill="#a6a6a6" d="M784.384 993.619c22.523-11.081 32.275-18.662 49.391-36.704-6.269 15.321-23.083 22.192-34.436 31.757-3.978 3.352-.258 48.458.766 55.278l.076-.87c.3 4.28.939 36.37.992 36.55 9.772 2.59 27.733-.61 34.153 5.75-22.482-2.99-30.449-3.9-52.84-3.4.745-23.05-3.952-58.11-4.213-83.104 2.467-1.936 3.828-3.107 6.111-5.257"/><path fill="#a6a6a6" d="m978.418 649.336.358 372.834c-.334 42.33 1.405 83.82-1.45 126.04-1.603 23.7.074 23.22-5.594 47.53l-.87 8.75c-2.429-20.9-6.043-27.59-16.569-45.58-.251-.16 2.53 1.52 2.528 1.52 5.261 6.01 10.759 16.78 12.458 24.64.093.4.185.81.277 1.21l1.787.19c7.398-53.49 5.094-97.35 5.144-151.32l.285-177.927-.25-155.086c-.135-17.095.718-33.238-.123-50.405-10.67-.337-9.016 4.4-18.558.886 6.743-1.241 13.782-2.235 20.577-3.282"/><path fill="#e6e6e6" d="M932.828 1251.32q3.855-.255 7.706-.57c2.532 4.16 1.406 64.04 2.021 73.5 1.656 25.43-.016 52.68-.052 78.23l.894 124.52c.077 18.04-2.944 61.66 1.981 76.15.516 1.52.504 2.34.147 3.89-7.024 2.66-6.258-1.33-11.95 2.91-5.006.59-18.753.25-24.382.26l-.099-68.58-36.755.09q-.465-57.51-.038-115.02l1.045-1.31c2.043-25.21-1.215-37.85-12.818-60.76-4.695-9.27-11.651-13.34-18.428-21.66-2.073-12.88-2.706-79.79-.583-91.49 11.636.07 19.438 5.43 33.824 3.48 25.589.13 28.942 2.54 57.487-3.64"/><defs><linearGradient id="l" x1="1034.636" x2="1001.436" y1="1465.938" y2="1466.178" gradientUnits="userSpaceOnUse"><stop offset="0" stop-color="#373737"/><stop offset="1" stop-color="#7e7e7e"/></linearGradient></defs><path fill="url(#l)" d="M1022.66 1324.13c3.08-15.54 7.2 14.98 7.27 16.43 2.59 10.46 6.18 27 6.26 37.83l5.29 1.99c-.07 37.24 1.09 76.65.96 113.92-.06 16.53-3.07 110.55.69 115.74l-8.97-.01q-7.245.015-14.49-.09l-15.78.15c-2.91-17.89.18-53.24-.87-72.75-.4-7.34.56-16.19-.91-23.57-.97-2.8-.29-5.79.04-8.83 1.52-4.91-.66-21.12-.24-27.67 1.89-29.74-2.371-63.6-.59-92.74 3.06-2.59 7.41-4.32 11.1-6.06 2.95-18.2 6.36-36.32 10.24-54.34"/><path fill="#262323" d="m1036.19 1378.39 5.29 1.99c-.07 37.24 1.09 76.65.96 113.92-.06 16.53-3.07 110.55.69 115.74l-8.97-.01c1.94-3.25.49-70.79-.13-79.29.88-3.49.57-20.45.57-24.9l.22-55.05c.21-22.92 1.83-50.2 1.37-72.4"/><path fill="#3f3f3f" d="M1019.67 1609.94c3.62-.5 7.23-1.09 10.82-1.77 2.58-7.35-.88-47.63.45-58.12 2.56-20.24-3-124.23 1.46-134.28.06 6.79.32 13.53.6 20.32 1.26 30.93-.26 61.97.76 92.89.09.58.18 1.17.27 1.76.62 8.5 2.07 76.04.13 79.29q-7.245.015-14.49-.09"/><path fill="#3f3f3f" d="M1022.66 1324.13c3.08-15.54 7.2 14.98 7.27 16.43-.22 2.47-.46 4.95-.43 7.44.01.3.41 3.97-.4 4.07-4.2-6.68-1.48-24.33-6.44-27.94"/><path fill="#3f3f3f" d="M1029.22 1403.73c2.54 2.8 1.53 8.22 1.45 12.51-2.46-2.8-1.41-7.93-1.45-12.51"/><path fill="#030303" d="m1028.92 1279.13 5.69 1.41c2.72 2.63 4.45 4.69 6.9 7.6 2.98 3.95 5.9 7.95 8.76 11.98 11.24 16.03 23.79 31.01 34.82 46.73-11.81 12.6-23.74 25.09-35.78 37.47l-7.83-3.94-5.29-1.99c-.08-10.83-3.67-27.37-6.26-37.83-.07-1.45-4.19-31.97-7.27-16.43a1076 1076 0 0 0-10.24 54.34c-3.69 1.74-8.04 3.47-11.1 6.06l-6.071-4.59c-2.338-3.47-26.976-28.76-31.212-33.18 3.817-4.43 10.489-12.93 13.364-17.82 6.844-7.34 22.351-29.15 29.049-38.08 7.22-9.96 10.31-11.83 22.47-11.73"/><path fill="#3f3f3f" d="m1036.35 650.831-.65-1.533 1.28-1.45c3.94 4.008 2.57 34.777 2.55 42.184l.03 64.158.96 174.376c-.02 11.772-.64 74.864.65 80.594 1.49 26.45.02 59.62.33 86.65.71 63.79-.76 128.58.01 192.33-2.45-2.91-4.18-4.97-6.9-7.6l-5.69-1.41c4.6-9.5 2.87-259.58 1.54-286.622l-.58 18.492c-1.61-27.992.15-62.013-.39-90.723-.71-38.258-1.14-81.591.07-119.701.71 2.732.44 10.692.44 13.912l.82.493c.89-2.456.65-24.466.65-28.514l.05-95.464c0-7.721-1.15-36.81 1.36-42.354-.01 18.576 1.04 40.295 1.38 59.285.43-2.152.1-9.093.2-11.606.56-13.59-1.67-32.881 1.89-45.497"/><path fill="#262323" d="m1036.35 650.831-.65-1.533 1.28-1.45c3.94 4.008 2.57 34.777 2.55 42.184l.03 64.158.96 174.376c-.02 11.772-.64 74.864.65 80.594 1.49 26.45.02 59.62.33 86.65.71 63.79-.76 128.58.01 192.33-2.45-2.91-4.18-4.97-6.9-7.6 4.99-14.1 1.17-166.33.93-190.35l-.19-106.179 1.2-238.474c-.02-30.022.75-65.036-.2-94.706"/><path fill="#8c8c8c" d="m995.249 1379.94 6.071 4.59c-1.781 29.14 2.48 63 .59 92.74-.42 6.55 1.76 22.76.24 27.67-3.533-30.62 3.42-101.43-6.901-125"/><path fill="#8c8c8c" d="M1002.11 1513.77c1.47 7.38.51 16.23.91 23.57 1.05 19.51-2.04 54.86.87 72.75-3.17.01-6.342-.05-9.512-.19.554-.16 7.802-1.81 7.352-1.58 1.66-3.69-.47-83.57.38-94.55"/><path fill="#3f3f3f" d="M1028.99 1159.66c2.16 6.57.53 62.3.51 72.67-1.3-4.32-.52-64.58-.51-72.67"/><path fill="#dbdbdb" d="M944 1472.61c1.6 4.16.861 19.25.855 24.76-1.465-4.15-.842-19.33-.855-24.76"/><defs><linearGradient id="m" x1="723.159" x2="827.087" y1="857.355" y2="858.113" gradientUnits="userSpaceOnUse"><stop offset="0" stop-color="#4c4c4c"/><stop offset="1" stop-color="#bebebe"/></linearGradient></defs><path fill="url(#m)" d="m448.415 675.759 3.914 2.964c1.024.704 8.583 5.812 9.004 6.238l9.635 6.252 3.152 1.962a585 585 0 0 0 26.712 14.211l8.614 4.033c8.617 4.104 29.184 11.177 34.307 14.059 32.579 9.11 62.382 16.039 96.365 18.464l4.965-.007c18.878 1.987 47.388.223 66.626-1.233l8.539-.713 4.645-.356a808 808 0 0 1 28.493-.896c19.099 1.654 35.321 7.204 47.772 22.583 23.179 28.63 29.576 70.624 26.426 106.251-4.248 48.053-27.599 83.36-73.667 99.358-10.717 3.005-17.899 4.923-28.897 6.424l-1.465.421-11.576.452c-25.961.504-39.923-5.311-63.931-13.685-3.202-1.032-5.155-1.851-8.245-3.207-17.438-4.264-81.287-33.75-96.018-43.699-9.225-4.035-28.779-16.37-36.556-21.999-3.759-2.087-5.618-3.409-9.076-5.989-8.609-4.902-16.973-11.127-24.997-16.972l-5.429-4.046-7.946-5.805c-2.883-2.249-5.345-4.351-8.106-6.75-3.474-2.519-6.662-5.203-9.976-7.922 2.5-.546 1.481.125 3.266-1.743a2280 2280 0 0 1-1.471-98.713c.105-11.789 2.09-41.689.522-51.845.25-.734 3.105-8.34 3.105-8.357-.102-4.15.253-5.56 1.294-9.735"/><defs><linearGradient id="n" x1="640.097" x2="502.943" y1="834.927" y2="835.075" gradientUnits="userSpaceOnUse"><stop offset="0" stop-color="#a3a4a4"/><stop offset="1" stop-color="#fff"/></linearGradient></defs><path fill="url(#n)" d="m448.415 675.759 3.914 2.964c1.024.704 8.583 5.812 9.004 6.238l9.635 6.252 3.152 1.962a585 585 0 0 0 26.712 14.211l8.614 4.033c8.617 4.104 29.184 11.177 34.307 14.059 32.579 9.11 62.382 16.039 96.365 18.464 1.015 2.477.34 2.281-.204 4.628-1.962 8.476-.117 20.365-.638 29.143-1.888 31.817-.401 65.706-.822 97.189-.214 16.074 3.051 70.276-.588 81.82l2.301 1.752-.364.86c-17.438-4.264-81.287-33.75-96.018-43.699-9.225-4.035-28.779-16.37-36.556-21.999-3.759-2.087-5.618-3.409-9.076-5.989-8.609-4.902-16.973-11.127-24.997-16.972l-5.429-4.046-7.946-5.805c-2.883-2.249-5.345-4.351-8.106-6.75-3.474-2.519-6.662-5.203-9.976-7.922 2.5-.546 1.481.125 3.266-1.743a2280 2280 0 0 1-1.471-98.713c.105-11.789 2.09-41.689.522-51.845.25-.734 3.105-8.34 3.105-8.357-.102-4.15.253-5.56 1.294-9.735"/><defs><linearGradient id="o" x1="472.293" x2="496.238" y1="788.415" y2="788.596" gradientUnits="userSpaceOnUse"><stop offset="0" stop-color="#8c8c8c"/><stop offset="1" stop-color="#b9b9b9"/></linearGradient></defs><path fill="url(#o)" d="m448.415 675.759 3.914 2.964c1.024.704 8.583 5.812 9.004 6.238l9.635 6.252 3.152 1.962a585 585 0 0 0 26.712 14.211c-1.643.663-1.7.632-3.214 1.556-1.253 46.117.001 89.888-1.085 135.99-.274 11.658-.971 25.31-1.832 37.162-.062.863 2.795 4.309 3.452 5.553-8.609-4.902-16.973-11.127-24.997-16.972l-5.429-4.046-7.946-5.805c-2.883-2.249-5.345-4.351-8.106-6.75-3.474-2.519-6.662-5.203-9.976-7.922 2.5-.546 1.481.125 3.266-1.743a2280 2280 0 0 1-1.471-98.713c.105-11.789 2.09-41.689.522-51.845.25-.734 3.105-8.34 3.105-8.357-.102-4.15.253-5.56 1.294-9.735"/><path fill="#727272" d="m448.415 675.759 3.914 2.964c1.024.704 8.583 5.812 9.004 6.238l9.635 6.252c-2.031 1.64-2.019 1-2.243 4.157-.911 12.82-.929 26.231-1.042 39.074l-.193 73.789c.003 9.68-.716 51.456.237 58.396l-7.946-5.805c-2.883-2.249-5.345-4.351-8.106-6.75-3.474-2.519-6.662-5.203-9.976-7.922 2.5-.546 1.481.125 3.266-1.743a2280 2280 0 0 1-1.471-98.713c.105-11.789 2.09-41.689.522-51.845.25-.734 3.105-8.34 3.105-8.357-.102-4.15.253-5.56 1.294-9.735"/><path fill="#5b5b5b" d="m448.415 675.759 3.914 2.964c-1.367 10.222-.85 21.294-.869 31.628-.073 38.298 1.693 76.561 1.176 114.869-.069 5.07.577 24.946-.961 28.854-3.474-2.519-6.662-5.203-9.976-7.922 2.5-.546 1.481.125 3.266-1.743a2280 2280 0 0 1-1.471-98.713c.105-11.789 2.09-41.689.522-51.845.25-.734 3.105-8.34 3.105-8.357-.102-4.15.253-5.56 1.294-9.735"/><path fill="#3f3f3f" d="M452.329 678.723c1.024.704 8.583 5.812 9.004 6.238-3.91 14.688-2.561 157.137-1.552 175.863-2.883-2.249-5.345-4.351-8.106-6.75 1.538-3.908.892-23.784.961-28.854.517-38.308-1.249-76.571-1.176-114.869.019-10.334-.498-21.406.869-31.628"/><path fill="#8c8c8c" d="M467.727 866.629c-.953-6.94-.234-48.716-.237-58.396l.193-73.789c.113-12.843.131-26.254 1.042-39.074.224-3.157.212-2.517 2.243-4.157l3.152 1.962c-1.627 6.164-1.101 35.3-1.331 44.213-.828 32.07-1.09 64.39-.069 96.46.367 11.527-.415 25.723.436 36.827z"/><path fill="#bdbebd" d="m500.832 707.386 8.614 4.033-3.702 1.454c-.676 8.414-.447 18.387-.291 27.037.898 49.598-.896 99-1.728 148.518.004-.216 3.195 4.597 3.504 5.208-3.759-2.087-5.618-3.409-9.076-5.989-.657-1.244-3.514-4.69-3.452-5.553.861-11.852 1.558-25.504 1.832-37.162 1.086-46.102-.168-89.873 1.085-135.99 1.514-.924 1.571-.893 3.214-1.556"/><defs><linearGradient id="p" x1="711.106" x2="647.995" y1="858.997" y2="859.101" gradientUnits="userSpaceOnUse"><stop offset="0" stop-color="#3b3b3b"/><stop offset="1" stop-color="#909091"/></linearGradient></defs><path fill="url(#p)" d="M645.083 743.935c18.878 1.987 47.388.223 66.626-1.233-.408 20.043-.296 40.443-.032 60.504.754 57.3-1.723 115.829.302 173.02-25.961.504-39.923-5.311-63.931-13.685-3.202-1.032-5.155-1.851-8.245-3.207l.364-.86-2.301-1.752c3.639-11.544.374-65.746.588-81.82.421-31.483-1.066-65.372.822-97.189.521-8.778-1.324-20.667.638-29.143.544-2.347 1.219-2.151.204-4.628z"/><path fill="#8c8c8c" d="m640.118 743.942 4.965-.007c3.26 2.872 4.123 5.745 3.966 10.26-1.92 55.175-.857 109.886-.025 165.012.078 5.222-.043 41.251-.976 43.334-3.202-1.032-5.155-1.851-8.245-3.207l.364-.86-2.301-1.752c3.639-11.544.374-65.746.588-81.82.421-31.483-1.066-65.372.822-97.189.521-8.778-1.324-20.667.638-29.143.544-2.347 1.219-2.151.204-4.628"/><path fill="#262323" d="m720.248 741.989 4.645-.356c1.139 6.493.685 19.736.704 26.854l.269 41.157c-.047 39.417.926 78.817-.44 118.34-.285 8.249-1.837 41.036-.406 47.369l-1.465.421-11.576.452c-2.025-57.191.452-115.72-.302-173.02-.264-20.061-.376-40.461.032-60.504z"/><path fill="#3f3f3f" d="m720.248 741.989 4.645-.356c1.139 6.493.685 19.736.704 26.854l.269 41.157c-.047 39.417.926 78.817-.44 118.34-.285 8.249-1.837 41.036-.406 47.369l-1.465.421-2.3-1.388c-1.614-3.858-.78-210.627-1.007-232.397"/><defs><linearGradient id="q" x1="1347.807" x2="1568.867" y1="808.522" y2="860.576" gradientUnits="userSpaceOnUse"><stop offset="0" stop-color="#ababac"/><stop offset="1" stop-color="#ccc"/></linearGradient></defs><path fill="url(#q)" d="m1587.67 684.231 4.36-2.672c-.61 18.148-1.87 169.101 1.32 175.547l-3.1 2.764-8.04 5.777c-3.43 2.7-6.17 4.705-9.79 7.139l-6.42 4.591-1.45.753-2.22 1.662c-6.42 4.467-28.72 20.348-35.35 22.664-9.9 6.831-31.63 19.343-42.94 24.04-8.65 5.686-46.26 21.928-57.53 26.446-11.8 4.663-49.5 19.02-61.47 20.637-13.24 3.876-26.95 3.322-40.53 2.222-22.96-3.263-34.35-6.458-54.54-18.354-19.37-11.185-33.52-31.52-40.91-52.319-11.03-35.245-11.96-75.82 1.08-110.614 5.85-20.314 21.89-42.265 42-50.181 14.42-5.595 37.35-3.525 52.98-2.286 11.13-.215 25.38.939 36.53 2.162 22.18 1.052 37.29.293 59.25-1.354 24.62-2.827 41.62-6.145 65.47-12.087 1.13-.596 15.01-5.041 17.68-5.914 11.3-3.689 20.77-7.329 31.67-12.024 10.56-4.665 19.82-9.362 30.09-14.616l5.24-2.923c1.31-1.125 8.57-5.522 10.44-6.708z"/><defs><linearGradient id="r" x1="1229.286" x2="1322.767" y1="857.405" y2="858.018" gradientUnits="userSpaceOnUse"><stop offset="0" stop-color="#616061"/><stop offset="1" stop-color="#dcdcdd"/></linearGradient></defs><path fill="url(#r)" d="M1272.14 744.333c14.42-5.595 37.35-3.525 52.98-2.286 11.13-.215 25.38.939 36.53 2.162 5.1 3.009 14.13 3.275 19.93 3.02-.43 29.455.82 57.387.69 85.816l-1.51 124.225c-.05 3.318-.19 5.937-1.64 8.929-5.45 4.355-13.24 3.325-14.08 7.38-13.24 3.876-26.95 3.322-40.53 2.222-22.96-3.263-34.35-6.458-54.54-18.354-19.37-11.185-33.52-31.52-40.91-52.319-11.03-35.245-11.96-75.82 1.08-110.614 5.85-20.314 21.89-42.265 42-50.181"/><path fill="#e6e6e6" d="M1325.12 742.047c11.13-.215 25.38.939 36.53 2.162 5.1 3.009 14.13 3.275 19.93 3.02-.43 29.455.82 57.387.69 85.816l-1.51 124.225c-.05 3.318-.19 5.937-1.64 8.929-5.45 4.355-13.24 3.325-14.08 7.38-13.24 3.876-26.95 3.322-40.53 2.222-3.83-3.037-11.58-3.774-16.78-4.754l.33-1.497c3.36-14.916 1.86-30.288 2.36-45.547 1.01-30.115.39-59.801.14-89.849-.04-4.005-1.99-12.258-1.85-14.828.34-6.063.9-10.169.91-16.672l-.13-59.228c6.25-.841 9.68 1.04 15.63-1.379"/><path fill="#5b5b5b" d="M1229.06 905.128c-11.03-35.245-11.96-75.82 1.08-110.614 1.95 20.985 1.59 43.506.66 64.59-.68 15.619-.4 30.411-1.74 46.024"/><path fill="#5b5b5b" d="m1587.67 684.231 4.36-2.672c-.61 18.148-1.87 169.101 1.32 175.547l-3.1 2.764-8.04 5.777c-1.62-4.973-.74-47.064-.73-54.983l.01-122.081z"/><path fill="#727272" d="m1587.67 684.231 4.36-2.672c-.61 18.148-1.87 169.101 1.32 175.547l-3.1 2.764c-4.21-5.295-1.68-120.866-2.03-138.889l-.31 3.546c-.78-11.825-.4-28.232-.24-40.296"/><path fill="#3f3f3f" d="M1571.05 695.291c1.31-1.125 8.57-5.522 10.44-6.708l-.01 122.081c-.01 7.919-.89 50.01.73 54.983-3.43 2.7-6.17 4.705-9.79 7.139.38-2.611.05-15.469.02-18.509l-.21-40.816c-.04-13.476 1.24-112.531-1.18-118.17"/><path fill="#5b5b5b" d="M1571.05 695.291c2.42 5.639 1.14 104.694 1.18 118.17l.21 40.816c.03 3.04.36 15.898-.02 18.509l-6.42 4.591c1.17-59.716 1.11-119.45-.19-179.163z"/><path fill="#727272" d="M1561.16 805.791c2.84-8.207-.95-23.116 1.43-31.175 2.81 7.481 1.96 92.108 1.96 103.514l-2.22 1.662c-.82-14.366.08-30.462-.46-45.336-.09-10.656-.28-18.12-.71-28.665"/><path fill="#8c8c8c" d="M1561.87 834.456c-2.34-3.384-2.83-4.896-2.27-9.45.59-4.775-.44-23.184.69-26.615l.21-.003c.21.369.17 5.554.66 7.403.43 10.545.62 18.009.71 28.665"/><defs><linearGradient id="s" x1="1591.982" x2="1684.989" y1="627.124" y2="628.469" gradientUnits="userSpaceOnUse"><stop offset="0" stop-color="#7c7c7c"/><stop offset="1" stop-color="#f3f3f3"/></linearGradient></defs><path fill="url(#s)" d="M1640.66 397.524c16 14.105 34.88 33.055 46.92 50.402 6.34 7.207 12.4 17.158 17.29 25.393 4.5 7.505 9.89 17.21 13.15 25.339l1.98 4.401c26.81 66.44 30.03 132.94 1.92 200.214-2.4 5.754-11.66 24.966-15.14 29.701-3.22 5.398-17.83 29.084-21.87 32.254-16.42 23.612-49.82 56.807-71.58 75.544-6.19 5.161-13.58 11.662-19.98 16.334-3.19-6.446-1.93-157.399-1.32-175.547a840 840 0 0 0 17.73-13.541c1.13-1.519 16.42-16.189 19.79-20.006 18-20.397 29.59-45.058 37.3-70.905 19.56-65.562 5.08-121.289-26.19-179.583"/><path fill="#dbdbdb" d="M1684.91 765.228c-1.75.546-2.52 1.028-3.99 2.119-1.84-5.729.32-36.397.29-44.224l-.75-129.623c-.12-14.363-1.17-28.58-.97-42.947.46-34.008 4.46-70.576 3.88-104.287 2.02 1.457 1.78 1.205 4.21 1.66 6.34 7.207 12.4 17.158 17.29 25.393 4.5 7.505 9.89 17.21 13.15 25.339l1.98 4.401c26.81 66.44 30.03 132.94 1.92 200.214-2.4 5.754-11.66 24.966-15.14 29.701-3.22 5.398-17.83 29.084-21.87 32.254"/><path fill="#bdbebd" d="M1704.87 473.319c4.5 7.505 9.89 17.21 13.15 25.339l1.98 4.401c26.81 66.44 30.03 132.94 1.92 200.214-2.4 5.754-11.66 24.966-15.14 29.701-1.66-6.12-3.19-68.738-3.02-77.541 3.08 6.357-.44 11.131 1.9 16.417.51-.873 1.86-65.7 1.56-72.931.91-8.391 1.19-11.494.53-20.174-1.17-15.445.55-31.845-.56-47.391l.55.293c1.91 2.992 1.32 5.616 1.45 9.634.23-6.923 1.33-51.905-.15-55.383-2.88 11.288-3.07 29.405-3.28 41.326-1.96-6.319 2.32-41.263-.89-53.905"/><path fill="#a6a6a6" d="m1718.02 498.658 1.98 4.401-1.09 183.908-.45-.696.22 3.288.15-1.865c-1.93-2.845-.89-169.631-.81-189.036"/><path fill="#dbdbdb" d="M1711 576.5c2.59 2.579 1.49 70.47 1.49 80-2.59-2.579-1.49-70.47-1.49-80"/><path fill="#8c8c8c" d="M1727.51 587.23c.3.213 1.81 1.227 1.81 1.285 1.24 7.849.68 42.095.68 48.255-.3-.213-1.81-1.227-1.81-1.285-1.24-7.849-.68-42.095-.68-48.255"/><path fill="#e6e6e6" d="M1707.22 598.919c-3.63 4.996-1.04 15.225-4.06 13.298-1.08-.692.02-10.844-.05-12.663-.41-10.48-.96-21.791-.19-32.279 3.89-5.622 0-35.059 2.05-36.862.89-.067 1.36.432 2.22.941 1.11 15.546-.61 31.946.56 47.391.66 8.68.38 11.783-.53 20.174"/><defs><linearGradient id="t" x1="438.924" x2="349.924" y1="620.989" y2="621.044" gradientUnits="userSpaceOnUse"><stop offset="0" stop-color="#7f7f7f"/><stop offset="1" stop-color="#fff"/></linearGradient></defs><path fill="url(#t)" d="M353.019 459.346c18.145-26.573 29.85-39.74 54.552-60.802-43.335 84.484-50.746 158.192 4.1 240.96 8.969 10.768 15.547 18.58 26.308 27.834l4.157 3.396a242 242 0 0 0 6.279 5.025c-1.041 4.175-1.396 5.585-1.294 9.735 0 .017-2.855 7.623-3.105 8.357 1.568 10.156-.417 40.056-.522 51.845-.222 32.911.268 65.823 1.471 98.713-1.785 1.868-.766 1.197-3.266 1.743l-3.965-3.365c-9.1-7.75-17.922-16.119-26.703-24.249-23.48-23.082-39.501-41.344-58.508-68.082-10.081-13.265-21.788-38.102-27.792-53.875-1.11-1.328-1.548-2.716-2.143-4.415-16.558-47.297-20.28-92.833-8.704-141.698 2.682-11.324 5.598-23.404 10.384-33.843 4.413-9.739 6.534-17.07 11.737-27.621l2.146-4.214c2.017-3.921 4.609-8.154 6.846-12.004l.986-1.419c1.714-3.469 4.971-8.556 7.036-12.021"/><path fill="#e6e6e6" d="M345.983 471.367c1.714-3.469 4.971-8.556 7.036-12.021 3.353 10.682-.253 66.545-1.361 80.529-.844 10.664.746 22.996.61 33.244l-.818 109.245c-.002 19.124-.444 42.177.439 61.471.118 2.59.758 2.924.634 6.621-10.081-13.265-21.788-38.102-27.792-53.875-1.11-1.328-1.548-2.716-2.143-4.415-16.558-47.297-20.28-92.833-8.704-141.698 2.682-11.324 5.598-23.404 10.384-33.843 4.413-9.739 6.534-17.07 11.737-27.621l2.146-4.214c2.017-3.921 4.609-8.154 6.846-12.004z"/><path fill="#5b5b5b" d="M324.731 696.581c-1.11-1.328-1.548-2.716-2.143-4.415-16.558-47.297-20.28-92.833-8.704-141.698 2.682-11.324 5.598-23.404 10.384-33.843.59 47.191.486 94.388-.312 141.575-.034 3.929 1.159 37.344.775 38.381"/><path fill="#bdbebd" d="m336.005 489.004 2.146-4.214c2.047 16.283-.365 22.368.122 36.374.743 21.377 2.305 36.812.121 58.592l-.21-1.234c-1.419 18.611.249 37.224-1.373 55.081-2.518-7.961-.817-127.206-.806-144.599"/><path fill="#dbdbdb" d="m344.997 472.786.986-1.419c.856 6.806-.564 73.2-1.494 74.019-2.797-9.508 1.65-34.825-1.081-45.646-.665-2.638 1.134-6.05 1.341-8.352.536-5.948.253-12.558.248-18.602"/><path fill="#727272" d="m437.979 667.338 4.157 3.396a242 242 0 0 0 6.279 5.025c-1.041 4.175-1.396 5.585-1.294 9.735 0 .017-2.855 7.623-3.105 8.357 1.568 10.156-.417 40.056-.522 51.845-.222 32.911.268 65.823 1.471 98.713-1.785 1.868-.766 1.197-3.266 1.743l-3.965-3.365c2.004-16.577 1.156-37.035 1.736-53.9 1.388-40.343-.127-81.149-1.491-121.549"/><path fill="#5b5b5b" d="M442.136 670.734a242 242 0 0 0 6.279 5.025c-1.041 4.175-1.396 5.585-1.294 9.735 0 .017-2.855 7.623-3.105 8.357-2.093-8.799-.1-13.989-1.88-23.117"/></svg>