<svg xmlns="http://www.w3.org/2000/svg" width="2048" height="2048" viewBox="0 0 2048 2048"><path fill="#292524" d="M0 0h2048v2048H0z"/><path fill="#cd6539" d="M625.013 234.41c7.227-.529 14.195.146 21.034 2.682a41.66 41.66 0 0 1 23.969 22.77c7.296 16.86 1.826 37.392-11.718 49.006-14.577 12.501-36.372 19.182-53.436 28.536-66.728 36.578-126.741 89.695-153.78 162.675a212 212 0 0 0 5.788 164.323c29.4 62.958 88.908 105.83 152.749 129.296 46.866-93.138 111.81-164.503 204.856-213.422a441.45 441.45 0 0 1 342.025-31.695 465.24 465.24 0 0 1 239.14 172.457c17.8 24.885 29.31 46.023 43.36 72.776 46.57-17.977 83.23-38.516 117.19-76.66 38.47-43.343 58.64-98.468 54.44-156.858-7.64-106.159-93.18-188.303-184.58-231.819-22.75-10.829-50.2-20.624-51.17-50.743a40.98 40.98 0 0 1 11.23-29.656c17.28-18.279 40.81-14.071 62.98-10.984 94.22 13.122 183.41 54.107 250.98 121.463a468.32 468.32 0 0 1 139.28 329.003c-.06 126.181-53.3 237.007-141.56 325.19-72.05 69.9-157.27 115.17-256.63 130.12l-.01 70.37c31.05 19.03 64.18 41.43 94.95 61.31l-99.95 131.59c-19.52 25.63-41.08 55.52-61.21 80.12-15.43-5.88-45-13.81-61.97-18.88.38 67.17.32 134.33-.19 201.49-10.64 12.47-23.38 25.19-34.58 37.4-31.88 34.76-65.65 68.21-97.4 103.02-14.86-.27-30.07-.04-44.94.13-89.08 1.03-178.933-2.06-267.929.16-42.927-46.93-89.567-94.31-133.323-140.9 1.159-67.07-.062-134.64.275-201.75-18.053 6.87-41.558 13.17-60.585 19.59-53.968-70.11-109.418-140.99-162.39-211.8 30.673-19.21 65.303-41.37 95.122-61.73l-.084-70.31c-89.162-12.1-165.487-51.47-233.576-109.16-90.778-76.919-151.869-188.423-161.659-307.553a464.65 464.65 0 0 1 109.157-338.512A443 443 0 0 1 625.013 234.41"/><path fill="#010101" d="M621.267 255.391c16.351-1.914 34.655 5.451 30.695 25.486-3.153 15.948-28.443 24.013-42.304 30.76-82.287 40.052-157.458 107.688-183.345 198.07-42.652 146.226 57.072 270.297 194.984 309.314C740.573 549.829 1067.42 461.42 1298 647.885c58.16 47.036 98.79 102.816 129.12 170.997 68.02-19.027 131.32-60.3 169.21-120.822a229.54 229.54 0 0 0 29.1-177.349c-19.56-83.166-84.44-150.226-156.12-192.905a334 334 0 0 0-32.3-17.273c-13.86-6.574-38.85-14.838-40.7-31.912-3.69-34.141 45.67-21.646 64.14-18.619a420 420 0 0 1 205.14 95.084 448.5 448.5 0 0 1 151.73 302.899c8.09 119.06-33.74 227.245-111.55 316.295-55.09 61.89-137.14 116.08-217.44 138.01-19.94 5.44-47.07 9.11-67.73 11.77l-.04 99.97c27.73 19.06 57.33 36.98 85.48 55.68-44.2 60.26-92.85 122.28-138.35 181.91-24.74-6.43-50.6-14.9-75.39-21.94v221.04c-37.68 42.27-81.16 85.96-120.26 127.53-32.53-.65-67.16-.03-99.88-.02l-195.861-.1c-39.35-39.42-81.742-85.57-120.332-126.39l-.002-222.02c-23.766 6.16-50.513 15.08-74.612 22.05l-139.659-181.79c28.885-18.25 57.209-37.48 86.255-55.66l-.012-99.83c-19.621-2.83-43.978-5.6-62.959-10.84-173.401-47.9-314.141-202.227-332.273-383.334-11.355-113.429 24.316-228.663 94.844-317.696 74.504-94.052 175.719-143.806 293.718-157.229"/><path fill="#cfcfcf" d="M645.45 1074.59c-12.942-27.51-17.644-58.12-18.765-88.287a380.97 380.97 0 0 1 104.138-272.454A403.67 403.67 0 0 1 1013 583.774c92.64-3.172 202.61 34.302 270.59 97.792 13.74 10.022 28.34 25.902 39.79 38.562 82.99 91.773 127.95 235.747 79.13 354.222l-5.19-9.26c-6.82-13.03-17.46-22.89-22.22-32.93-2.29-4.84-8.55-31.04-10.17-37.343l-19.08-74.122c-2.96-11.457-7.04-29.258-10.74-39.812l-8.64 36.719c-2.49 10.093-29.63 117.658-28.73 121.048l.75.21 2.43 1.61c30.29 7.84 47.44 9.71 65.2 39.46 5.65 9.46 11.52 25.25 13.26 35.93 5.68 34.72 7.74 91.91 3.63 126.5 24.45 15.32 49 30.47 73.67 45.43a9649 9649 0 0 1-102.63 133.99q-37.305-10.425-74.46-21.36c-5.31-1.54-28.64-7.86-32.54-9.84-8.9 7.91-31.69 35.1-40 44.66l-63.74 72.84c33.44-21.02 72.65-45.2 104.44-68.12 3.33-2.21 6.81-4.6 10.26-6.58l.08 213.13a5214 5214 0 0 1-101.21 106.97q-83.19.69-166.381 0c-32.862-.06-66.41.68-99.212-.18-4.188-4.27-11.517-11.35-15.001-15.78-4.537-3.05-25.668-26.18-30.185-31.03a6044 6044 0 0 1-55.262-59.37l-.15-213.2 10.391 6.39c13.184 10.1 89.764 57.49 92.889 61.4 2.06.98 2.417 1.04 4.649 1.59-.494-3.8-12.286-15.72-15.78-19.56-17.835-18.48-48.33-53.99-64.492-74.25-2.186-1.53-14.688-15.37-17.273-18.16-13.134 2.81-27.462 7.54-40.561 11.29a2197 2197 0 0 0-65.576 19.27c-5.348-5.91-11.754-14.16-16.478-20.62-27.814-38-60.528-75.15-87.062-113.81 21.279-11.37 51.677-32.05 73.103-45.3-1.263-46.18-5.865-122.3 17.903-162.56 17.277-29.26 36.746-31.59 66.236-38.89l1.117-1.03c2.793-6.89-27.757-113.755-29.416-129.267-.406-3.789-5.876-25.96-7.221-29.664-1.016 3.789-4.32 17.103-5.57 20.005-7.306 37.834-25.367 94.961-35.76 133.836-.692 2.58-17.384 23.6-20.722 29.9z"/><path fill="#737271" d="M753.066 724.367a365.6 365.6 0 0 1 91.816-68.762c6.09 3.218 5.025 6.718 5.189 12.957.463 17.71-2.953 35.716-3.198 53.151l-.521 129.146c.077 58.403.901 117.669 1.428 176.141.127 14.08-2.734 101.67.047 108.71 16.305 8.04 32.649 17.3 48.383 24.97 8.766 5.87 18.117 10.66 27.015 16.45a434.7 434.7 0 0 1 64.961 50.92c-23.047 13.92-43.778 25.28-69.334 34.44-10.63 3.8-20.985 6.51-31.552 10.04-20.047 3.92-35.199 6.97-55.691 8.63l-.891.22c-4.17.99-6.319 1.15-10.594 1.47 5.341-.11 9.932-.61 15.014.9 5.184 5.31 1.573 13.45 2.326 20.5 1.647 15.43-2.261 32.44-1.702 47.33.947 25.25.93 50.18-.533 75.46-2.582-3.9-12.616-16.58-16.883-17.55-2.186-1.53-14.688-15.37-17.273-18.16-13.134 2.81-27.462 7.54-40.561 11.29a2197 2197 0 0 0-65.576 19.27c-5.348-5.91-11.754-14.16-16.478-20.62-27.814-38-60.528-75.15-87.062-113.81 21.279-11.37 51.677-32.05 73.103-45.3-1.263-46.18-5.865-122.3 17.903-162.56 17.277-29.26 36.746-31.59 66.236-38.89l1.117-1.03c2.793-6.89-27.757-113.755-29.416-129.267-.406-3.789-5.876-25.96-7.221-29.664-1.016 3.789-4.32 17.103-5.57 20.005-7.306 37.834-25.367 94.961-35.76 133.836-.692 2.58-17.384 23.6-20.722 29.9a244 244 0 0 1-4.495-18.66c-17.016-84.287 8.663-187.898 55.884-258.814 1.864-4.638 12.574-18.234 16.127-22.846 10.212-14.014 22.44-27.366 34.484-39.803"/><path fill="#010101" d="M732.584 1092.87c7.797 2.3 15.571 4.68 23.32 7.13 28.53 8.58 65.056 23.03 91.923 35.71 16.305 8.04 32.649 17.3 48.383 24.97 8.766 5.87 18.117 10.66 27.015 16.45a434.7 434.7 0 0 1 64.961 50.92c-23.047 13.92-43.778 25.28-69.334 34.44-10.63 3.8-20.985 6.51-31.552 10.04-20.047 3.92-35.199 6.97-55.691 8.63-95.032 1.53-141.063-51.2-122.142-145.32.756-1.26 5.188-12.24 6.322-14.7 5.252-11.38 9.613-18.02 16.795-28.27"/><path fill="#e8e8e7" d="M748.638 1040.71c-4.817 7.46-32.095 12.1-42.719 23.25-16.334 11.4-24.316 34-26.164 53.12-2.145 6.92-3.59 21.3-4.196 28.82a625 625 0 0 0-1.55 65.56c.34 11.14 1.642 24.7 1.598 35.37-14.64 10.02-56.523 34.78-66.713 44.38 7.633 11.76 84.666 115.37 90.954 117.72 3.913-.43 4.627-.71 8.406-2 9.871-2.6 83.337-22.33 89.632-21.07 2.141 2.46 2.458 2.38 3.187 5.47-13.134 2.81-27.462 7.54-40.561 11.29a2197 2197 0 0 0-65.576 19.27c-5.348-5.91-11.754-14.16-16.478-20.62-27.814-38-60.528-75.15-87.062-113.81 21.279-11.37 51.677-32.05 73.103-45.3-1.263-46.18-5.865-122.3 17.903-162.56 17.277-29.26 36.746-31.59 66.236-38.89"/><path fill="#443e3b" d="M750.711 1269.2c.759.43 1.219.63 1.876 1.28 2.935 2.89 2.124 62.2 2.593 71.87.402 8.27.883 41.55-3.218 46.06l-1.539-.49.312-1.35c-1.276-2.83-1.847-3.64-1.833-6.85.119-27.64-.649-55.22.226-82.82-.412-.46-.824-.93-1.235-1.39l-2.605 1.08c3.397-10.55 3.2-17.5 5.423-27.39"/><path fill="#010101" d="M1167.68 1151.48c53.21-26.49 89.62-42.07 147.5-58.32 8.74 12.84 16.5 24.94 21.13 39.98 13.77 44.69 4.83 100.44-36.27 127.96-35.72 23.91-76.26 22.05-116.81 16.35-46.58-9.14-84.08-24.31-123.97-49.95 40.96-37.19 60.38-48.24 108.42-76.02"/><defs><linearGradient id="a" x1="1438.168" x2="1293.736" y1="1234.064" y2="1231.103" gradientUnits="userSpaceOnUse"><stop offset="0" stop-color="#898989"/><stop offset="1" stop-color="#a6a6a6"/></linearGradient></defs><path fill="url(#a)" d="M1300.92 1040.47c30.29 7.84 47.44 9.71 65.2 39.46 5.65 9.46 11.52 25.25 13.26 35.93 5.68 34.72 7.74 91.91 3.63 126.5 24.45 15.32 49 30.47 73.67 45.43a9649 9649 0 0 1-102.63 133.99q-37.305-10.425-74.46-21.36c-5.31-1.54-28.64-7.86-32.54-9.84l-.36-2.17-.82-.33 1.47-2.76c.83-.53 1.66-1.07 2.49-1.6 17.94 1.69 48.71 13.44 65.52 15.76.16-1.29.32-1.23-.08-2.3-3.66-9.75-4.93-23.09-2.82-33.35.69-3.34-3.16-1.4-5.03-8.33l.84-1.09c.85-18.34-1.42-44.15-1.07-63.22.01-.57-4.7-5.67-5.52-6.57-.76-3.79-.96-1.89 1.46-5.78-.92-1.36-7.78-10.72-9.12-10.15-31.63 13.52-76.2 19.72-110.21 10.39l-.57-1.63c40.55 5.7 81.09 7.56 116.81-16.35 41.1-27.52 50.04-83.27 36.27-127.96-4.63-15.04-12.39-27.14-21.13-39.98-57.88 16.25-94.29 31.83-147.5 58.32 7.48-11.24 102.58-48.16 119.84-52.36 3.27-.79 20.98-6.62 23.9-7.01 11.33-1.5 13.58 20.52 22.92 25.41 1.63-2.54.93-7.81.92-11.44-2.43-.33-4.29-.64-6.69-1.13-2.9-4.08-.41-38.77-.75-45.89-.34-6.89-20.83-7.51-26.18-14.94-1.39-1.85-.89-.78-.72-3.65"/><path fill="#e8e8e7" d="M1300.92 1040.47c30.29 7.84 47.44 9.71 65.2 39.46 5.65 9.46 11.52 25.25 13.26 35.93 5.68 34.72 7.74 91.91 3.63 126.5 24.45 15.32 49 30.47 73.67 45.43a9649 9649 0 0 1-102.63 133.99q-37.305-10.425-74.46-21.36c-5.31-1.54-28.64-7.86-32.54-9.84l-.36-2.17c.65-.68 3.66-3.58 4.42-3.41 32.32 7.09 66.64 17.84 98.87 24.9 4.18-4.83 8.01-9.62 11.84-14.73 26.38-35.13 53.46-69.69 79.4-105.15-14.34-9.29-58.61-34.73-68.37-43.49 1.11-49.98 6.34-108.9-11.2-157.81-9.8-27.35-35.78-34.56-60.01-44.6-1.39-1.85-.89-.78-.72-3.65"/><path fill="#9a9999" d="M1325.07 915.415c.88-4.818 3.06-13.426 2.64-18.28-3.78-.983-5.7-.436-9.59-.828-2.78-8.387-3.78-22.622-4.64-31.763-.53-5.706 5.37-12.378.24-16.717-4.6-3.889-1.89-12.064-2.46-17.301-.9-14.063 1.54-31.86-.68-45.547l-.88.559a442 442 0 0 0-2.64 13.497c-2.32-2.254-.11-36.019.59-40.976.37-2.622 5.52-10.724 4.95-12.103-4.13-10.055-39.66-37.604-42.31-44.275 93.05 76.35 152.06 209.312 133.93 329.759-1.68 11.2-5.4 22.71-6.9 33.65-6.82-13.03-17.46-22.89-22.22-32.93-2.29-4.84-8.55-31.04-10.17-37.343l-19.08-74.122c-2.96-11.457-7.04-29.258-10.74-39.812l-8.64 36.719z"/><path fill="#010101" d="M1004.37 1276.04c6.85.01 34.59-1.17 39.2 1.05l.53 1.15c10.64 22.87 26.17 47.58 37.67 70.28 3.93 7.75 12.79 22.37 15 30.01a29.23 29.23 0 0 1-.68 18.07c-5.65 15.11-25.5 25.6-41.62 22.46-14.52-2.83-27.38-39.96-31.01-41.46l-.71 1.43c-9.64 19.99-14.23 36.28-37.658 42.55-7.175-2.69-11.242-4.58-18.097-8.06l-3.048-2.33c-28.445-21.62-6.316-44.02 4.627-68.06 2.49-3.54 9.762-17.76 11.973-21.95a4643 4643 0 0 1 23.823-45.14"/><path fill="#e8e8e7" d="M645.45 1074.59c-12.942-27.51-17.644-58.12-18.765-88.287a380.97 380.97 0 0 1 104.138-272.454A403.67 403.67 0 0 1 1013 583.774c92.64-3.172 202.61 34.302 270.59 97.792l-.69.411c-3.48-.006-24.53-18.471-29.45-21.966-69.17-49.071-154.59-77.544-239.74-74.029-14.423.595-38.041.393-52.015 4.509l.443 1.19c2.328.994 1.087.731 3.883.113 3.025 1.969 4.324 3.902 4.155 7.43-3.528 2.885-5.682.834-9.601 2.265-.228 10.928-6.723 8.972-14.438 6.818-2.304 1.945-1.323.78-2.21 4.243 5.876 8.047 27.166-4.074 38.466-.848l.095.705c-25.373 5.014-74.699 12.169-97.349 24.995a351 351 0 0 0-40.257 18.203 365.6 365.6 0 0 0-91.816 68.762c-12.044 12.437-24.272 25.789-34.484 39.803-3.553 4.612-14.263 18.208-16.127 22.846-47.221 70.916-72.9 174.527-55.884 258.814q1.88 9.42 4.495 18.66z"/><defs><linearGradient id="b" x1="800.714" x2="856.952" y1="1567.458" y2="1566.418" gradientUnits="userSpaceOnUse"><stop offset="0" stop-color="#787878"/><stop offset="1" stop-color="#a7a6a6"/></linearGradient></defs><path fill="url(#b)" d="M801.08 1440.31c13.184 10.1 89.764 57.49 92.889 61.4l-1.503.39c-5.585-3.04-33.684-22.17-36.484-22.45-5.909 12.14-1.67 33.9-.832 46.38 1.707 28.45 2.532 56.95 2.474 85.45.086 13.86 1.87 29.27-2.952 41.73-1.456 3.76.654 11.5.263 15.65-.093 4.49-3.196 3.51-2.339 6.62 1.5 5.45-2.694 12.92-1.688 16.98 7.009 10.91 35.587 34.94 38.581 42.21-1.237-.71-83.921-85.92-87.829-91.69-1.489-8.08-.972-42.39-.556-52.47-.933-10.3-.227-37.9-.225-49.15z"/><path fill="#737271" d="M801.104 1590.51c2.412 6.86.772 14.59 2.072 22.06.71 4.08.571 16.13-.515 19.96-2.027 7.16 4.475 5.73-1.001 10.45-1.489-8.08-.972-42.39-.556-52.47"/><path fill="#e8e8e7" d="m968.574 1343.13-.746-1.35c4.534-11.75 15.726-31.45 22.192-42.79 7.218-12.65-.053-50.9.066-66.89.052-6.95-.651-20.19.557-26.56.221-1.17 2.469-3.05 2.523-4.14.146-2.96-2.639-7.98-2.943-11.39-.311-3.49.679-7.26 1.111-10.74.694-5.6 3.247-29.93 1.991-33.67-.3-.9-1.949-2.52-2.584-3.35-1.974-25.26 1.81-54.49 1.609-79.95l-1.297-304.068.081-92.232c-.006-15.305-5.872-51.309 9.296-58.084 6.05.391 7.26 5.643 7.28 10.863.09 37.384-.89 74.88-1.08 112.221l-.19 120.69 1.05 422.31c6.88-.12 32.79-1.53 36.65 1.85l-.57 1.24c-4.61-2.22-32.35-1.04-39.2-1.05a4643 4643 0 0 0-23.823 45.14c-2.211 4.19-9.483 18.41-11.973 21.95"/><path fill="#e8e8e7" d="M1022.75 1379.03c1.74 9.6-16.95 29.22-16.58 42.57.89 32.33-.12 64.97 0 97.41l1.29 165.49c-.02 9.24-1.89 22.06-1.79 29.49l1.24-1.56 1.3 1.4c-3.02 10.41 2.04 19.04 2.19 29.68 13.01-.44 27.2-2.35 40-1.9 33.76 1.21 67.37 1.87 101.17 1.4 6.28-5.34 12.67-12.21 18.39-18.21 26.1-27.41 52.71-54.93 77.96-83.11-.01-65.99-1.35-136.18-.17-201.73 3.33-2.21 6.81-4.6 10.26-6.58l.08 213.13a5214 5214 0 0 1-101.21 106.97q-83.19.69-166.381 0c-32.862-.06-66.41.68-99.212-.18-4.188-4.27-11.517-11.35-15.001-15.78 3.979.9 12.181 10.33 15.646 13.91 27.768 1.15 55.938.16 83.746.74 6.695.13 14.44.3 21.022-.51.985-3.01-4.03-10.37-4.37-16.3-1.09-18.96-3.198-45.24-1.566-63.74l2.499-1.13c.078-4.42-3.083-11.1-2.786-14.45.963-10.82.798-21.04.446-31.9 2.002-2 2.724-2.33 3.562-5.01-8.903-12.88-1.241-44.4-1.366-58.22-1.906-6.67-5.023-14.55-1.487-21.31 4.036-7.71-.365-10.09-.136-16.25 1.235-33.25-1-66.8.57-99.86.127-2.67-10.458-.45-14.574-2.52q-5.37-2.7-10.679-5.52l.182-1.93c6.855 3.48 10.922 5.37 18.097 8.06 23.428-6.27 28.018-22.56 37.658-42.55"/><path fill="#9a9999" d="m885.139 637.402 1.6.523c-6.307 3.724-19.796 7.475-25.094 11.963-1.656 32.938-1.07 67.179-1.078 100.262l1.07 179.787c.277 34.192-.749 66.435-1.111 100.213l-.089 75.85c-.103 11.12-.947 21.91-.947 33.25 8.967 4.56 31.69 14.24 36.72 21.43-15.734-7.67-32.078-16.93-48.383-24.97-2.781-7.04.08-94.63-.047-108.71-.527-58.472-1.351-117.738-1.428-176.141l.521-129.146c.245-17.435 3.661-35.441 3.198-53.151-.164-6.239.901-9.739-5.189-12.957a351 351 0 0 1 40.257-18.203"/><path fill="#9a9999" d="M831.609 1281.16c20.492-1.66 35.644-4.71 55.691-8.63-5.904 5.31-16.607 4.06-23.976 6.42-6.682 1.84-3.596 7.72-3.944 13.34-2.342 37.86.495 75.65-1.153 113.64-.181 4.16-2.506 43.09-1.809 44.5 3.972 8.04 23.987 22.88 26.42 33.31-17.835-18.48-48.33-53.99-64.492-74.25 4.267.97 14.301 13.65 16.883 17.55 1.463-25.28 1.48-50.21.533-75.46-.559-14.89 3.349-31.9 1.702-47.33-.753-7.05 2.858-15.19-2.326-20.5-5.082-1.51-9.673-1.01-15.014-.9 4.275-.32 6.424-.48 10.594-1.47z"/><path fill="#9a9999" d="m1298.49 1038.86-2.12.38c-2.64-5.88 18.77-76.339 19.16-88.745.1-3.168.67-10.152.85-13.574l3.27-.181c.5-4.366 4.02-16.605 5.42-21.325l1.4 2.187c-2.49 10.093-29.63 117.658-28.73 121.048z"/><path fill="#9a9999" d="M854 1493.5c1.782 2.62.999 10.26 1 14-1.782-2.62-.999-10.26-1-14"/><path fill="#e8e8e7" d="M614.546 280.898c-4.652 2.589-14.618 8-19.539 9.52-90.277 45.386-165.263 98.071-198.67 199.875a267.25 267.25 0 0 0 14.627 205.233c37.819 74.263 102.933 121.091 179.011 150.071a153 153 0 0 1 8.869 3.117c3.426 1.232 6.694 2.231 10.085 3.402a894 894 0 0 0-8.653 34.901c-.501 2.468-.979 5.304-1.697 7.697-9.308 53.59-11.121 96.488.015 150.556 4.162 14.19 6.616 25.91 12.267 40.03-4.164-.33-12.874-.69-16.646-1.72-7.414-1.19-18.571-2.71-25.268-5.27-32.766-6.87-71.303-25.12-99.695-42.77-96.934-59.815-168.097-150.617-194.8-262.265-32.073-134.093 15.303-279.53 112.367-375.834 48.034-47.658 116.989-90.15 183.418-105.871 2.645-1.516 5.82-2.004 8.741-2.756a590 590 0 0 1 35.568-7.916"/><defs><linearGradient id="c" x1="596.549" x2="546.173" y1="958.864" y2="959.143" gradientUnits="userSpaceOnUse"><stop offset="0" stop-color="#7e7e7e"/><stop offset="1" stop-color="#c8c6c6"/></linearGradient></defs><path fill="url(#c)" d="m568.947 1078.31.381-.89c-1.403-1.11-29.95-13.43-34.805-16.03l1.659-.74c.22.16.439.33.659.49l1.112.8c3.693 2.68 5.484 4.46 10.159 3.21 3.71-5.55-4.072-59.07-1.093-67.773 2.169-6.331-1.219-63.573-1.187-76.095.051-19.989.679-39.596 2.016-59.538.296-4.419-.733-11.514 1.094-15.45.949-2.044.154-2.691-.524-4.786 1.215-2.66 1.062-1.599.893-4.456-3.293-2.084-4.81-3.338-8.637-4.009l-.466-.889c7.359.842 40.604 16.994 49.767 13.443a153 153 0 0 1 8.869 3.117c3.426 1.232 6.694 2.231 10.085 3.402a894 894 0 0 0-8.653 34.901c-.501 2.468-.979 5.304-1.697 7.697-9.308 53.59-11.121 96.488.015 150.556 4.162 14.19 6.616 25.91 12.267 40.03-4.164-.33-12.874-.69-16.646-1.72-7.414-1.19-18.571-2.71-25.268-5.27"/><path fill="#737271" d="M594.215 1083.58c3.456-5.57.236-36.94 2.439-40.37l.18.06c.355.9-.101 3.83.534 4.1.622-.35.965-1.53 1.226-2.1 4.162 14.19 6.616 25.91 12.267 40.03-4.164-.33-12.874-.69-16.646-1.72"/><path fill="#737271" d="M598.844 848.714c3.426 1.232 6.694 2.231 10.085 3.402a894 894 0 0 0-8.653 34.901c-.501 2.468-.979 5.304-1.697 7.697-.268-1.072-.301-1.735-.886-2.564l-.193.019c-.884 1.113-.387 3.268-.752 4.621l-.514-.321c.374.81.109-44.13.424-46.184.392 1.054.137 3.54.829 4.167.623-.461 1.18-4.806 1.357-5.738"/><path fill="#cfcfcf" d="M614.546 280.898c-4.652 2.589-14.618 8-19.539 9.52-5.695-5.634-20.766 4.053-24.77 1.152 2.645-1.516 5.82-2.004 8.741-2.756a590 590 0 0 1 35.568-7.916"/><defs><linearGradient id="d" x1="429.178" x2="272.764" y1="684.397" y2="694.155" gradientUnits="userSpaceOnUse"><stop offset="0" stop-color="#615a59"/><stop offset="1" stop-color="#818080"/></linearGradient></defs><path fill="url(#d)" d="M454.508 351.039c4.526-3.808 13.58-8.331 18.982-11.45v20.019c-4.261 5-10.225 10.963-14.95 15.568-10.378 10.586-16.212 17.57-24.901 29.588-27.067 29.32-45.666 83.261-54.719 121.611-5.507 36.66-6.702 94.017 7.375 127.906 2.399 9.682 6.249 18.064 9.319 27.433 6.016 12.565 13.014 24.39 18.758 36.344 14.965 22.739 31.708 44.966 52.293 62.99 3.339 2.924 15.905 12.552 17.58 15.333l-1.14.455c-2.963-2.193-19-15.615-20.129-15.838-.686 5.221 3.743 10.643 2.691 15.788-1.636 8.815 1.388 19.585.781 28.287a527 527 0 0 0-1.032 52.463c.175 5.902-2.248 8.244.482 13.647 1.057 2.091-1.435 12.339-.862 15.487-.152 37.606-2.69 75.544-1.278 113.11.056 1.49 7.313 6.67 8.861 7.78-4.452-.28-49.643-33.425-53.887-38.682-5.801-4.591-15.61-13.261-20.427-18.641-19.254-15.998-64.066-69.847-73.813-93.222-20.908-28.513-48.855-115.121-49.058-150.718-2.011-15.322-3.015-50.354-.49-65.379 1.828-49.164 20.63-114.828 44.231-158.124 1.236-3.532 4.229-8.592 6.28-11.77 3.248-6.255 6.251-11.012 10.039-16.972 5.72-9.574 10.763-17.61 17.831-26.248 4.831-8.36 18.959-24.681 25.808-30.981 16.746-21.53 53.233-49.983 75.375-65.784"/><defs><linearGradient id="e" x1="415.891" x2="465.779" y1="873.734" y2="873.25" gradientUnits="userSpaceOnUse"><stop offset="0" stop-color="#9a9796"/><stop offset="1" stop-color="#cac8c8"/></linearGradient></defs><path fill="url(#e)" d="M414.372 718.058c14.965 22.739 31.708 44.966 52.293 62.99 3.339 2.924 15.905 12.552 17.58 15.333l-1.14.455c-2.963-2.193-19-15.615-20.129-15.838-.686 5.221 3.743 10.643 2.691 15.788-1.636 8.815 1.388 19.585.781 28.287a527 527 0 0 0-1.032 52.463c.175 5.902-2.248 8.244.482 13.647 1.057 2.091-1.435 12.339-.862 15.487-.152 37.606-2.69 75.544-1.278 113.11.056 1.49 7.313 6.67 8.861 7.78-4.452-.28-49.643-33.425-53.887-38.682 2.006-4.402 1.138-29.339 1.092-35.234a2690 2690 0 0 0-1.336-80.188c-.645-21.141-7.959-129.7-2.362-140.548 1.082-2.096 1.632-2.881 1.504-5.397-2.147-4.031-2.541-4.97-3.258-9.453"/><defs><linearGradient id="f" x1="410.085" x2="456.531" y1="393.423" y2="392.527" gradientUnits="userSpaceOnUse"><stop offset="0" stop-color="#969392"/><stop offset="1" stop-color="#c4c0be"/></linearGradient></defs><path fill="url(#f)" d="M454.508 351.039c4.526-3.808 13.58-8.331 18.982-11.45v20.019c-4.261 5-10.225 10.963-14.95 15.568-10.378 10.586-16.212 17.57-24.901 29.588-27.067 29.32-45.666 83.261-54.719 121.611-.223-12.518 2.257-21.649 5.781-33.681l.101.281c7.248-19.641 15.054-39.647 25.656-57.632 1.706-2.896.646-43.198-.568-45.357-10.803 3.901-20.831 23.349-30.757 26.837 16.746-21.53 53.233-49.983 75.375-65.784"/><path fill="#cfcfcf" d="M454.508 351.039c4.526-3.808 13.58-8.331 18.982-11.45v20.019c-4.261 5-10.225 10.963-14.95 15.568-4.169-5.362-.708-5.108-1.644-9.622-1.511-7.296-2.357-6.543-2.388-14.515"/><path fill="#9a9999" d="M395.614 681.714c6.016 12.565 13.014 24.39 18.758 36.344.717 4.483 1.111 5.422 3.258 9.453.128 2.516-.422 3.301-1.504 5.397-5.597 10.848 1.717 119.407 2.362 140.548a2690 2690 0 0 1 1.336 80.188c.046 5.895.914 30.832-1.092 35.234-5.801-4.591-15.61-13.261-20.427-18.641 5.325.782 9.125 7.248 15.205 11.554-.044-42.676-.113-84.63-1.805-127.346-.244-6.15.813-18.632.082-23.399-3.364-21.935-2.138-46.517-2.948-68.81-.228-6.254 1.305-24.338-.471-28.738-4.212-10.441 5.409-11.758 3.376-15.968-4.86-10.069-15.993-24.05-16.13-35.816"/><path fill="#443e3b" d="m353.325 447.804.929 1.371c-3.191 4.069-7.082 7.647-7.346 12.382l1.581 1.341c1.759-2.372 1.174-1.334 1.546-4.61.876 5.976 1.925 19.993.793 25.61-1.772-3.54-3.385-15.116-3.692-19.38-3.444 2.449-5.401 6.518-5.668 10.542-1.17 17.679-.558 37.654-.468 55.364l1.768.613.882.986c-2.268 18.426-5.17 42.216-1.155 60.618.481 2.203-3.241 26.825-3.735 32.33l-1.034-.492c-.145-9.001-2.042-20.405-1.035-29.57 1.915-17.406.264-34.275.216-51.713-.06-21.678 1.754-44.488.082-66.124l-.927 18.327c-.575-7.812-.669-13.495-.568-21.347 5.72-9.574 10.763-17.61 17.831-26.248"/><path fill="#cfcfcf" d="M274.944 660.918c-.159-1.311 1.638 13.685 1.604 12.042.23 10.883 2.708 45.119-1.114 53.337-2.011-15.322-3.015-50.354-.49-65.379"/><path fill="#737271" d="M325.455 491.024c.011 1.151.639 8.909-.605 9.627-2.718 1.569-2.698 1.101-1.649 4.393.386 1.212 1.127 7.326-.612 7.791-.233-.58-.701-1.753-.983-2.359-.603 1.283.637 6.816-.624 8.28-.714.18-.938-.142-1.492-.636-.001-4.897.194-8.404-.178-13.308l-.137-2.018c1.236-3.532 4.229-8.592 6.28-11.77"/><path fill="#443e3b" d="m337.786 631.182 2.379.851c4.717 15.301 1.256 12.139 1.129 26.801.285 7.066 1.248 14.067 1.515 21.142.984 26.083-.578 52.821 1.335 78.725.369-1.404.906-2.902 1.072-4.355l1.037.736c-1.642 24.616 5.843 110.215-.338 128.138l-1.023.081c-.258-2.743-1.05-34.186-.757-35.103l-.947-.215c-1.563-2.758.815-13.905.65-18.432-.338-9.312-.31-18.901-.341-28.24-.226 3.193.267 3.861-1.282 6.123-4.067-5.63 1.233-12.83 1.887-19.287.375-3.705.14-6.584-.093-10.264-2.065 2.945-2.572 11.371-5.049 14.942-.428-6.918.934-15.282.807-23.173-.153-9.534-.834-18.962-.963-28.351-.084-6.115 2.589-14.1 1.66-21.136-1.823 1.19-2.267 4.373-3.164 7.042.363-26.306 2.382-52.53.44-79.035-.476-6.496 1.091-10.682.046-16.99"/><path fill="#443e3b" d="M344.51 471.232c.546.389 3.054 1.844 2.929 2.797-.565 4.299 1.463 20.106-1.192 22.581 1.423 18.705 1.235 35.713 1.243 54.676-.361-.065-.745-.073-1.076-.231-1.01-.483.007-5.741-.888-7.485-2.567-5.004-1.014-61.537-1.016-72.338"/><path fill="#443e3b" d="M344.51 681.5c.065.048 1.434 1.039 1.44 1.087 1.046 8.684.539 37.669.54 44.913-.065-.048-1.434-1.039-1.44-1.087-1.046-8.684-.539-37.669-.54-44.913"/><path fill="#443e3b" d="M344.51 553.5c3.962 3.931 1.968 19.051 1.98 24.021-3.748-.976-1.981-19.803-1.98-24.021"/><path fill="#443e3b" d="M344.953 897.46c.1.053.206.096.3.158.288.193.379 1.076.411 1.227-.858-.515-.527-.46-.711-1.385"/><path fill="#cfcfcf" d="M378.92 526.375c9.053-38.35 27.652-92.291 54.719-121.611-3.617 9.531-16.463 27.475-21.994 37.504-29.689 53.828-39.562 111.487-32.912 172.254 1.154 10.548 8.347 30.181 7.562 39.759-14.077-33.889-12.882-91.246-7.375-127.906"/><path fill="#e8e8e7" d="M1444.93 283.211c371.38 81.259 465.69 541.529 140.71 747.859-33.61 21.33-67.81 38.06-106.79 47.43-2.1.99-4.43 1.49-6.64 2.22l-10.2 1.55-1.31-.13c-2.82 1.06-3.49 1.02-6.57 1.46-1.81.43-16.02 1.7-18.16 1.9 9.16-21.34 10.99-37.11 17.13-58.06.16-1.77.47-3.72.86-5.45 2.8-12.47 1.88-26.887 3.96-39.124q-.33-12.672-.06-25.344c-.99-6.928-1.37-17.186-2.19-24.713a640 640 0 0 0-6.53-43.344c-3.56-11.531-6.18-25.168-9.19-36.928-.31-1.213 7.44-2.954 8.27-3.195l3.18-1.684c2.21.246 3.93-.654 6.22-1.39l1.07-.924 2.98-.797c2.21-.791 4.42-1.555 6.65-2.291 78.57-32.693 139.6-81.837 175.38-160.389 49.36-108.35 15.12-232.943-69.46-312.585-40.66-38.283-80.92-60.96-131.19-83.475z"/><defs><linearGradient id="g" x1="1479.758" x2="1518.56" y1="951.133" y2="950.85" gradientUnits="userSpaceOnUse"><stop offset="0" stop-color="#918e8d"/><stop offset="1" stop-color="#e0dedd"/></linearGradient></defs><path fill="url(#g)" d="M1511.79 829.446c2.33-1.315 3.17-1.126 5.95-1.457 1.3 16.596 1.47 51.79-.08 67.697l-1.08.683-2.28-.89c-2.28 5.404-.2 50.963-.16 59.342.04 8.939-2.18 13.284-.37 24.152l1.16-.551.72-2.236c3.27 4.228 3.2 68.524 3.82 78.694.47 7.85-32.31 19.35-40.44 21.4l-1.09.8.91 1.42c-2.1.99-4.43 1.49-6.64 2.22l-10.2 1.55-1.31-.13c-2.82 1.06-3.49 1.02-6.57 1.46-1.81.43-16.02 1.7-18.16 1.9 9.16-21.34 10.99-37.11 17.13-58.06.16-1.77.47-3.72.86-5.45 2.8-12.47 1.88-26.887 3.96-39.124q-.33-12.672-.06-25.344c-.99-6.928-1.37-17.186-2.19-24.713a640 640 0 0 0-6.53-43.344c-3.56-11.531-6.18-25.168-9.19-36.928-.31-1.213 7.44-2.954 8.27-3.195l3.18-1.684c2.21.246 3.93-.654 6.22-1.39l1.07-.924 2.98-.797c2.21-.791 4.42-1.555 6.65-2.291l.44 1.411 2.7.429.81-.431c17.17-4.956 23.47-6.24 39.52-14.219"/><defs><linearGradient id="h" x1="1464.263" x2="1476.143" y1="962.007" y2="961.98" gradientUnits="userSpaceOnUse"><stop offset="0" stop-color="#6a6665"/><stop offset="1" stop-color="#858281"/></linearGradient></defs><path fill="url(#h)" d="m1468.32 842.256.44 1.411 2.7.429.81-.431c9.16 4.674 1.95 1.57 4.35 12.241l1.36.02 1.09 153.094c-.01 14.08 1.25 47.71-1.16 60.06.07 2.67.08 5.34.03 8l.91 1.42c-2.1.99-4.43 1.49-6.64 2.22l-10.2 1.55-1.31-.13c-2.82 1.06-3.49 1.02-6.57 1.46-1.81.43-16.02 1.7-18.16 1.9 9.16-21.34 10.99-37.11 17.13-58.06.16-1.77.47-3.72.86-5.45 2.8-12.47 1.88-26.887 3.96-39.124q-.33-12.672-.06-25.344c-.99-6.928-1.37-17.186-2.19-24.713a640 640 0 0 0-6.53-43.344c-3.56-11.531-6.18-25.168-9.19-36.928-.31-1.213 7.44-2.954 8.27-3.195l3.18-1.684c2.21.246 3.93-.654 6.22-1.39l1.07-.924 2.98-.797c2.21-.791 4.42-1.555 6.65-2.291"/><path fill="#4f4946" d="M1458.69 845.344c.79 2.079 1.34 2.999 2.42 5.002 3.25 5.835-2.1 28.701 1.51 39.289.01 1.078.09 2.098.15 3.174-2.48 3.388-1.25 35.64-1.17 41.591-1.47 6.19-3.07 11.787-3.44 18.134l-.3 4.988c-.99-6.928-1.37-17.186-2.19-24.713a640 640 0 0 0-6.53-43.344c-3.56-11.531-6.18-25.168-9.19-36.928-.31-1.213 7.44-2.954 8.27-3.195l3.18-1.684c2.21.246 3.93-.654 6.22-1.39z"/><path fill="#5f5b59" d="M1458.69 845.344c.79 2.079 1.34 2.999 2.42 5.002-1.04 20.382 1.08 41.744-.68 62.02-.11 1.267-1.26 25.735-.95 25.531-2.66-.675-1.55-6.048-1.55-7.391.11-27.556-1.28-56.413-.31-84.238z"/><path fill="#292524" d="M1449.14 889.465c-3.56-11.531-6.18-25.168-9.19-36.928-.31-1.213 7.44-2.954 8.27-3.195-.03 3.005 0 6.009.1 9.012.48 6.507 1.29 24.701.82 31.111"/><path fill="#443e3b" d="m1448.22 849.342 3.18-1.684c.12 6.633.96 5.428-3.08 10.696-.1-3.003-.13-6.007-.1-9.012"/><path fill="#443e3b" d="M1457.92 982.866c1.17 10.309 3.07 21.894 3.37 32.644.12 4.16.81 21.28-.25 24.41l-.28.15c-1.41 2.2-1.25 38.53-.06 42.07-2.82 1.06-3.49 1.02-6.57 1.46-1.81.43-16.02 1.7-18.16 1.9 9.16-21.34 10.99-37.11 17.13-58.06.16-1.77.47-3.72.86-5.45 2.8-12.47 1.88-26.887 3.96-39.124"/><path fill="#292524" d="M1435.97 1085.5c9.16-21.34 10.99-37.11 17.13-58.06.83 12.94-1.61 46.34 1.03 56.16-1.81.43-16.02 1.7-18.16 1.9"/><path fill="#5f5b59" d="m1457.86 957.522.3-4.988c.37-6.347 1.97-11.944 3.44-18.134-.18 39.739 2.34 80.24 1.44 120.13-.18 7.67.94 20.8-1.03 27.74l-1.31-.13c-1.19-3.54-1.35-39.87.06-42.07l.28-.15c1.06-3.13.37-20.25.25-24.41-.3-10.75-2.2-22.335-3.37-32.644q-.33-12.672-.06-25.344"/><path fill="#737271" d="M1472.27 843.665c9.16 4.674 1.95 1.57 4.35 12.241-.02.474-.53 15.422-.66 15.092 2.88 7.085-2.63 13.204-3.11 4.032.08-2.589.18-7.567-.03-9.907-.62-6.858.41-12.051-.9-18.765-.15-.754-.3-1.508-.46-2.262z"/><path fill="#5f5b59" d="M1462.62 889.635c.85-4.925 1.98-37.61 2.09-37.798 1 1.339.73 82.898-.12 84.664l-.42.04c-1.09-1.415.1-38.194-1.4-43.732-.06-1.076-.14-2.096-.15-3.174"/><path fill="#737271" d="M1472.21 1080.72c5.55-9.59 1.76-4.3 3.83-11.08.46-.39 1.31-.45 1.87-.56.07 2.67.08 5.34.03 8l.91 1.42c-2.1.99-4.43 1.49-6.64 2.22"/><path fill="#737271" d="m1468.76 843.667 2.7.429c.16.754.31 1.508.46 2.262-1.37 5.345-1.02 24.44-1.56 25.255l-.08-.018c-2.06-5.191 1.49-21.706-1.62-26.589z"/><path fill="#cfcfcf" d="m1468.32 842.256.44 1.411-.1 1.339c-2.55-.078-4.45-.165-6.99-.459 2.21-.791 4.42-1.555 6.65-2.291"/><path fill="#9a9999" d="m1477.98 855.926 2.34.748c1.29 24.6 1.91 47.645.81 72.355-.89 19.902.12 41.145.23 61.191 0 12.29.1 24.58.31 36.87.29 11.25 1.22 23.48.03 34.59-.4 3.75.38 5.58 1.5 9.24-.63 2.07-2.57 1.7-4.17 5.36l-1.09.8c.05-2.66.04-5.33-.03-8 2.41-12.35 1.15-45.98 1.16-60.06z"/><path fill="#e8e8e7" d="M1511.79 829.446c2.33-1.315 3.17-1.126 5.95-1.457-3.19 5.102-2.44 5.789-5.95 1.457"/><path fill="#cfcfcf" d="M1509.19 1007.57c1.28 2.8 1.74 4.34 1.04 7.36-.55.59-.32.39-.71.69l-.08-.01c-.44-1.21-.21-6.47-.25-8.04"/><defs><linearGradient id="i" x1="1709.956" x2="1568.623" y1="689.386" y2="688.376" gradientUnits="userSpaceOnUse"><stop offset="0" stop-color="#443e3d"/><stop offset="1" stop-color="#e3e2e1"/></linearGradient></defs><path fill="url(#i)" d="M1599.41 381.724c1.04-15.494 5.41-16.595-4.47-29.811 9.49 8.043 11.75 8.383 20.95 14.676 8.66 5.925 22.79 19.086 30.42 26.398 21.84 20.878 47.26 49.32 63.04 75.301 1.14 1.628 1.45 2.009 2.33 3.665 1.62 2.554 4.91 7.389 5.92 10.022 12.98 19.258 42.74 85.694 45.28 108.574 1.56 5.55 4.46 15.683 4.93 21.43 7.72 32.672 9.1 71.751 6.47 105.223-.45 5.718-1.25 17.828-2.55 22.873-1.12 13.649-5.11 28.722-8.34 42.127-9.29 31.016-27.39 80.903-46.65 106.96-2.15 3.429-4.94 8.192-7.25 11.361-18.38 26.8-39.94 53.586-64.6 74.869-9.49 8.68-56.32 47.988-66.66 49.958 3.47-4.74 14.78-8.54 18.82-13.88-2.12 2.79-3.73-30.066-3.74-31.766-.31-49.616.91-98.997 1.96-148.623.31-14.564-.81-33.688 1.25-48.017 1.06-7.396 2.12-7.709 2.01-16.084a511 511 0 0 1-29.67 27.57l-.54-.471c2.59-3.637 13.88-13.405 17.99-17.268 26.25-24.677 44.01-51.39 61.08-82.88 2.35-8.983 12.46-29.101 16.41-43.066a278.5 278.5 0 0 0-3.5-161.081c-3.07-9.435-8.23-21.298-11.96-30.772-17.19-33.211-35.22-63.235-63.06-88.815-4.81-4.413-9.74-8.799-14.16-13.586 5.12.824 23.41 20.339 28.29 25.113"/><defs><linearGradient id="j" x1="1715.563" x2="1764.09" y1="687.01" y2="686.898" gradientUnits="userSpaceOnUse"><stop offset="0" stop-color="#5a5453"/><stop offset="1" stop-color="#aeafaf"/></linearGradient></defs><path fill="url(#j)" d="M1717.6 481.975c12.98 19.258 42.74 85.694 45.28 108.574 1.56 5.55 4.46 15.683 4.93 21.43 7.72 32.672 9.1 71.751 6.47 105.223-.45 5.718-1.25 17.828-2.55 22.873-1.12 13.649-5.11 28.722-8.34 42.127-9.29 31.016-27.39 80.903-46.65 106.96-.89-17.826-1.26-29.268-1.14-47.559 2.06-8.531 2.62-66.351 1.19-75.874-1.52-12.138-.31-26.16-.4-38.393-.51-66.926 2.03-133.678.16-200.581-.16-5.529.67-31.58 2.28-34.918V490c-.94-3.45-1.36-4.363-1.23-8.025"/><path fill="#9a9999" d="M1762.88 590.549c1.56 5.55 4.46 15.683 4.93 21.43 7.72 32.672 9.1 71.751 6.47 105.223-.45 5.718-1.25 17.828-2.55 22.873-1.12 13.649-5.11 28.722-8.34 42.127-.82-2.914 1.3-57.287 1.98-64.141 3.98-40.496-5.43-88.892-2.49-127.512"/><path fill="#cfcfcf" d="M1767.81 611.979c7.72 32.672 9.1 71.751 6.47 105.223-.45 5.718-1.25 17.828-2.55 22.873-1.8-34.309-.06-67.364-1.67-101.516-.4-8.475-2.83-18.299-2.25-26.58"/><path fill="#5f5b59" d="M1718.83 490c4.56 1.587-.19 18.795 1.03 23.507.38 1.468.9 22.014-.48 22.298-1.37-.598-.34-21.153-.18-24.309.3-6.15.51-13.673-.37-19.659z"/><path fill="#5f5b59" d="M1717.74 855.582c1.27 2.868 1.35 3.842.74 7.02-1.93-1.256-.9-4.889-.74-7.02"/><path fill="#5f5b59" d="M1719 553.371c1.48 1.163.85 3.329.84 5.213-1.53-.966-1.1-1.982-.93-3.711z"/><path fill="#4f4946" d="M1711.68 471.953c1.62 2.554 4.91 7.389 5.92 10.022-.13 3.662.29 4.575 1.23 8.025v1.837c-1.61 3.338-2.44 29.389-2.28 34.918 1.87 66.903-.67 133.655-.16 200.581.09 12.233-1.12 26.255.4 38.393 1.43 9.523.87 67.343-1.19 75.874-.12 18.291.25 29.733 1.14 47.559-2.15 3.429-4.94 8.192-7.25 11.361V486.915c3.37-.737 2.14-11.569 2.19-14.962"/><path fill="#443e3b" d="M1716.79 765.729c1.43 9.523.87 67.343-1.19 75.874-2.66-10.75.55-15.864-.3-25.114-1-10.862 1.34-21.41-.14-32.484-.62-4.555-1.82-13.061.81-16.998z"/><path fill="#443e3b" d="M1709.35 468.288c1.14 1.628 1.45 2.009 2.33 3.665-.05 3.393 1.18 14.225-2.19 14.962 0-5.585-.04-13.04-.14-18.627"/><path fill="#9a9999" d="M1432.55 280.908c4.21.804 8.15 1.42 12.38 2.303l-1.88 2.596c-3.28-1.259-7.23-3.353-10.5-4.899"/></svg>