<svg xmlns="http://www.w3.org/2000/svg" width="2048" height="2048" viewBox="0 0 2048 2048"><path fill="#fff" d="M0 0h2048v2048H0z"/><path fill="#010101" d="M1471.22 630.027c5.38-2.779 8.53-3.998 14.4-5.525-1.95 1.295-3.49 2.216-5.54 3.362l.65 2.302c-.81.46-1 .595-1.72 1.19a288 288 0 0 0-4.37 3.037l2.15 1.851c-34.35 35.403-21.59 78.98 18.97 101.123 29.18 15.926 57.84 18.918 90.57 17.635a261 261 0 0 0 65.25-11.015c-14.37-50.541 56.46-63.472 65.62-16.678 3.59 18.323-13.69 39.038-32.65 40.582l-.59 2.288c10.01 1.04 24.08 5.348 33.72 8.541 45.74 15.151 83.98 40.914 114.55 78.272 34.53 42.212 51.72 89.463 55.84 143.528 8.09.73 15.08 1.39 23.07 2.69 4.84-4.833 8.43-8.547 14.63-11.758 25.06-12.979 54.81 6.181 53.65 34.198a37.5 37.5 0 0 1-13.06 27.03c-19.25 16.71-40.11 9.15-56.15-7.23-7.37 1.44-15.18 3.12-22.59 3.99-6.74 73.87-30.76 124.69-87.99 175.07-27.23 23.98-77.62 48.13-114.47 53.56l.72 1.87c6.18 1.8 10.3 3.05 15.69 6.92 21.54 15.45 21.17 47.82-3.15 60.29a33.53 33.53 0 0 1-27.1 1.54 32.5 32.5 0 0 1-18.66-17.38c-4-9.09-3.49-16.06-1.48-25.38-27.49-9.6-62.69-11.99-91.89-10.83-36.52 1.46-85.23 18.96-98.97 56.44-8.62 23.5-.13 47.1 18.25 63.16 2.95 1.8 5.9 4.62 9.24 6.74 8.23 1.06 11.64 11.52-1.52 3.72-6.02-1.37-12.01-4.07-17.52-6.83-21.52-11.96-40.9-27.44-47.9-51.99-8.39-29.44 7.13-52.67 25.81-73.34l-837.383.23c30.822 36.65 35.903 77.6-3.663 110.35a109 109 0 0 1-28.27 16.82l-1.911-1.92c9.004-4.9 18.914-13.79 24.402-22.45 25.972-40.98-5.51-84.79-40.554-106.38-39.711-24.46-76.151-31.03-121.004-21.29.145.94.434 1.31.852 2.18 45.421-5.23 89.937 1.59 125.963 31.1 40.095 32.83 48.788 76.54 7.759 112.91l-.889-1.69c3.681-2.83 7.739-7.45 10.246-11.28 21.199-32.39 11.973-65.45-20.267-85.7-33.204-20.86-66.865-22.13-105.033-20.11-19.173 1.02-37.195 2.95-55.868 7.04 1.906 10.11.797 20.38-4.264 29.45a34.05 34.05 0 0 1-21.636 16.61 33.48 33.48 0 0 1-26.784-4.55 33.4 33.4 0 0 1-14.887-22.66c-3.372-20.91 11.944-38.69 32.614-41.28l-1.651-2.48c-40.106-5.78-90.954-31.27-120.608-58.74-50-46.3-78.041-101.57-81.294-169.58-7.861-1.78-16.652-3.11-24.657-4.5-16.35 16.6-37.629 25.2-57.003 7.04a37.36 37.36 0 0 1-11.858-26.24c-.618-20.63 15.485-39.131 36.965-39.683 12.412-.319 23.287 7.544 31.608 16.303 7.771-1.04 16.396-2.67 24.205-3.962 7.802-105.972 75.643-190.66 176.752-221.973 8.729-2.704 17.354-5.007 26.382-6.432l1.797-2.253a54 54 0 0 1-3.678-.468 35.06 35.06 0 0 1-23.295-15.132c-18.086-26.893 4.326-59.152 33.71-53.017a34.87 34.87 0 0 1 21.842 14.85c7.172 10.972 6.69 21.43 4.155 33.46 58.977 9.853 164.485 22.529 192.432-52.887 5.521-14.898-.796-31.85-8.298-45.219l1.346-2.468c10.155 14.234 17.907 30.138 13.932 47.843-15.125 67.354-97.935 93.466-156.684 83.024l-1.728-.324-2.055 2.144c28.675 7.868 58.787 6.8 87.418-3.077 42.796-14.764 96.992-59.419 80.008-110.775-4.918-14.871-19.748-29.81-33.983-36.301l-1.507-2.98c62.987 24.728 85.463 75.009 37.853 129.527l839.241.007c-16.06-16.69-28.94-34.279-28.79-58.542.18-30.217 26.36-56.183 52.56-67.518"/><path fill="#fff" d="M1638.84 780.021c2.07 17.763 3.52 32.327 7.97 49.719 14.12 55.188 52.63 101.715 96.44 136.711 24.92 19.905 58.38 38.709 89.29 46.949l-.52 2.04c-12.27-3.66-26.01-5.27-38.19-10.53-74.04-31.999-145.86-103.099-156.87-185.609-1.63-12.258-.48-27.004.11-39.17z"/><path fill="#fff" d="M1469.52 1415.67c-25.48-18.68-50.95-44.15-40.08-79.26 7.62-24.6 34.56-47.94 56.95-59.1 47.15-23.5 98.05-17.55 146.59-2.01l-2.44 2.17c-48.18-12.69-103.13-16.81-147.06 10.2-58.17 35.76-65.24 86.43-7.84 127.92l-2.77 1.6c-1.11-.52-2.22-1.03-3.35-1.52"/><path fill="#fff" d="M1471.22 630.027c5.38-2.779 8.53-3.998 14.4-5.525-1.95 1.295-3.49 2.216-5.54 3.362l.65 2.302c-.81.46-1 .595-1.72 1.19a288 288 0 0 0-4.37 3.037c-85.55 64.904-13.58 134.907 64.91 144.966 23.23 2.978 70.51-1 93.44-9.037l-.08 2.312c-35.85 12.051-70.26 17.264-108.88 11.131-42.84-6.802-105.01-46.338-95.62-97.201 4.37-23.635 25.03-41.948 44.56-54.613z"/><path fill="#282928" d="M1471.22 630.027c5.38-2.779 8.53-3.998 14.4-5.525-1.95 1.295-3.49 2.216-5.54 3.362a212 212 0 0 0-7.11 4.087z"/><path fill="#e4e4e4" d="M1478.57 1414.7c2.95 1.8 5.9 4.62 9.24 6.74 8.23 1.06 11.64 11.52-1.52 3.72-6.02-1.37-12.01-4.07-17.52-6.83l.75-2.66c1.13.49 2.24 1 3.35 1.52l2.77-1.6 1.2.6z"/><path fill="#282928" d="M1469.52 1415.67c1.13.49 2.24 1 3.35 1.52l1.66 1.25c.9.31.77.29 1.55.9 2.77 1.47 8.87 3.82 10.21 5.82-6.02-1.37-12.01-4.07-17.52-6.83z"/><path fill="#4d4e4d" d="M1478.57 1414.7c2.95 1.8 5.9 4.62 9.24 6.74-4.25.14-7.49-2.7-10.97-5.25z"/><path fill="#b3b3b2" d="M424.424 774.602c5.278.921 10.844 1.847 16.051 2.94l-2.055 2.144c-5.905-1.271-8.691-2.78-13.996-5.084"/><path fill="#9c9c9d" d="M425.117 1273.43c4.91-2.56 7.477-4.06 13.18-5.07.145.94.434 1.31.852 2.18-3.543 1.25-9.981 2.07-14.032 2.89"/><path fill="#747474" d="M1632.99 770.322c7.07-1.425 5.7.24 6.14 6.667l-2.07.376c.89-5.295 2.09-6.15-4.15-4.731z"/><path fill="#747474" d="M366.741 767.88c1.608.018 3.709-.056 5.203.535l.209.252c-.656 1.608-5.94 1.415-7.209 1.466z"/><path fill="#747474" d="M1832.54 1013.4c1.48.28 4.92.49 5.77 2.03-.87 1.27-5.2.22-6.29.01z"/><path fill="#b3b3b2" d="M1632.98 1275.3c9 4.81 3.09 3.29-2.44 2.17z"/><path fill="#747474" d="M1683.96 770.179c-1.08-.122-4.65-.205-5.2-1.546.64-.996 4.75-.725 5.79-.742z"/><path fill="#747474" d="M367.106 1277.87c1.279.18 4.827.5 5.662 1.56-.022.89-2.562.84-2.709.86-1.009-.81-1.981-1.57-2.953-2.42"/><path fill="#4d4e4d" d="M1683.42 1280.8c-.99-.23-3.15-.57-3.97-.9-3.95-1.59.94-1.96 1.83-2.05z"/><path fill="#9c9c9d" d="M1681.28 1277.85c1.31.09 2.57.18 3.88.22l.72 1.87-2.46.86z"/><path fill="#b3b3b2" d="m364.452 1277.9 2.654-.03c.972.85 1.944 1.61 2.953 2.42l-3.956.09z"/><path fill="#b3b3b2" d="m1639.13 776.989-.29 3.032-1.77.11-.01-2.766z"/><path fill="#01213d" d="M817 815.481c267.5-3.182 535.04-.448 802.42 8.2.18 2.337.47 4.664.86 6.976 10.63 62.962 64.18 125.361 115.55 161.326 14.89 10.427 30.45 19.147 45.98 28.477 2.06 1.24 1.56 3.79 1.41 5.7-4.81 7.62-21.23 12.64-29.99 18.29-49.36 31.83-93.51 75.61-118.46 129.33-8.6 18.51-12.89 34.91-17.41 54.21l-385.11 8.4c-120.25.84-240.501.95-360.75.32-145.092-.16-290.168-3.1-435.148-8.82-16.549-95.57-92.219-161.09-174.67-202.45 83.341-43.716 155.786-103.605 173.877-201.342A9676 9676 0 0 1 817 815.481"/><path fill="#01213d" d="M373.974 827.288c2.639-.476 2.459-.495 5.066.11.832 3.079-1.278 7.563-2.579 10.955-26.468 69.004-86.543 116.948-151.888 146.563-3.165.826-1.692.997-4.59.257-1.339-3.171.518-8.608 1.288-12.102a192.9 192.9 0 0 1 31.915-71.962c29.13-41.052 71.627-65.459 120.788-73.821"/><path fill="#01213d" d="M219.702 1064.13c4.405 1.19 14.956 6.73 19.223 8.88 60.826 30.63 120.283 82.53 141.148 149.44-53.227-3.34-107.101-43-134.922-86.98-10.77-17.03-25.39-51-25.449-71.34"/><path fill="#01213d" d="M1684.81 828.591a185.3 185.3 0 0 1 68.52 31.269c36.98 27.645 68.53 73.046 75.12 119.172-32.04-9.795-70.24-40.576-92.76-65.356-18.13-19.95-46.65-58.632-50.88-85.085"/><path fill="#01213d" d="m1826.58 1073.16.73.69c1.38 11.71-15.4 46.44-21.73 57.05a191.77 191.77 0 0 1-119.32 89.21l-.94-.81c-.95-5.12 6.87-19.86 9.39-24.49 26.17-48.05 78.6-105.53 131.87-121.65"/><path fill="#fff" d="M397.09 781.036c-.154-2.702-.544-27.007.689-27.756 1.594.469 1.288 2.877 1.156 4.175 26.724 118.369-108.08 236.335-215.188 255.815-13.297 2.41-30.601 4.94-44.117 4.02 23.26-6.74 46.093-10.54 69.493-18.152 90.922-29.559 185.883-116.803 187.967-218.102"/><path fill="#747474" d="M397.09 781.036c-.154-2.702-.544-27.007.689-27.756 1.594.469 1.288 2.877 1.156 4.175-1.798 8.462-.219 14.443-1.845 23.581"/><path fill="#fff" d="M149.186 1034.67c-6.52-1.36-1.753-3.36 3.562-2.19 80.636 7.75 150.524 51.45 202.689 112.6 33.93 39.78 51.627 83.17 46.221 136.03a86 86 0 0 1-.568 4.63c-.337 2.23-.875 5.16-1.072 7.35l-2.057.76-.119-9.68c-1.391-44.22-9.535-80.91-35.046-117.64-48.939-70.45-130.721-115.93-213.61-131.86"/><path fill="#b3b3b2" d="M149.186 1034.67c-6.52-1.36-1.753-3.36 3.562-2.19-1.384.76-2.241 1.32-3.562 2.19"/><path fill="#fff" d="M1637.21 1267.24c-2.72-38.33.93-65.41 20.12-99.59 35.43-63.12 101.6-121.54 174.31-133.1l-1.02 2.47c-70.15 20.72-128.04 71.8-164.74 134.98-13.36 23.02-25.82 63.5-25.85 90.41-.1 2.34-.32 10.45-1.28 12.15l-.19.12c-.96-1.09-1.4-5.69-1.35-7.44"/><path fill="#9c9c9d" d="M1637.21 1267.24c.34.19.71.59 1.07.45.44-.17.72-1.23.8-1.62.28-1.42.07-.94.38-1.9l.57-1.76c-.1 2.34-.32 10.45-1.28 12.15l-.19.12c-.96-1.09-1.4-5.69-1.35-7.44"/><path fill="#fff" d="M1934.28 994.247c11.93-1.085 12.69.165 24.07 4.274-4.62.121-9.4-.727-13.78.792-13.09 4.547-20.9 19.607-16.62 32.687a25.48 25.48 0 0 0 13.05 14.87c12.72 6.05 15.22-.51 22.97-.41-38.99 37.91-79.29-34.74-29.69-52.213"/><path fill="#fff" d="M97.206 995.451c5.9-.567 6.964-.531 12.631.748l-.932 2.256c-1.791-.06-2.218-.162-3.834.074l-1.022.52c-20.46 10.191-21.113 35.731-1.875 47.401 8.969 5.44 16.531 1.51 25.435-.88-12.277 8.19-22.949 13.84-38.104 6.43-13.254-6.48-19.729-29.72-11.891-42.31 5.083-8.17 10.543-11.503 19.592-14.239"/><path fill="#e4e4e4" d="M97.206 995.451c5.9-.567 6.964-.531 12.631.748l-.932 2.256c-1.791-.06-2.218-.162-3.834.074-2.714-2.082-2.737-2.049-6.015-2.644z"/><path fill="#fff" d="M360.74 1289.16c2.082-.06 16.961.76 15.8 3.71-.532.33-1.453.38-2.033.33-14.344-1.08-24.168 12.17-22.292 25.79 1.352 9.83 11.193 19.74 21.776 16.96 2.07-.54 3.846-.82 5.975-1.06-35.282 25.77-61.484-35.96-19.226-45.73"/><path fill="#fff" d="m374.897 754.567-.97.454c-39.928 19.026-50.857-55.387-2.852-46.665 1.389.393 3.35.74 4.257 1.84l-.013.264c-1.094.97-6.846.38-8.613.334-5.835 1.907-9.824 4.395-12.239 10.024-7.077 16.495.624 25.286 13.96 31.65 1.386-.182 10.369-2.033 10.91-1.819l.065.696c-1.818 1.721-2.271 2.086-4.505 3.222"/><path fill="#9c9c9d" d="M371.075 708.356c1.389.393 3.35.74 4.257 1.84l-.013.264c-1.094.97-6.846.38-8.613.334 1.693-.87 2.741-1.442 4.369-2.438"/><path fill="#fff" d="M1671.75 1298.77c2.24-.04 9.07-1.65 10.58-.22-.05 1.35-4.18 2.55-5.07 2.79-11.17 10.81-11.03 22.55 3.07 30.52 5.84 2.52 3.77 2.27-.75 4.08-15.01 1-26.26-4.76-22.46-23.43 1.37-6.75 8.62-10.9 14.63-13.74"/><path fill="#e4e4e4" d="M1671.75 1298.77c2.24-.04 9.07-1.65 10.58-.22-.05 1.35-4.18 2.55-5.07 2.79-2.66-1.77-2.52-1.77-5.51-2.57"/><path fill="#fff" d="M1678.93 750.596c-7.39-1.068-12.5-1.385-17.9-7.595a19.95 19.95 0 0 1-4.81-14.992c1.53-16.168 15.93-17.093 28.36-15.593l-1.65.888c-16.28 8.562-19.05 25.833-2.24 34.389z"/><path fill="#b3b3b2" d="M1836.47 1033.14c1.29.62 2.58 1.22 3.89 1.81-3.26.61-6.51 1.3-9.74 2.07l1.02-2.47c1.86-.64 2.92-.93 4.83-1.41"/><path fill="#282928" d="M1836.47 1033.14c.85-.01 5.99-.6 6.12 1-.58.64-1.44.64-2.23.81-1.31-.59-2.6-1.19-3.89-1.81"/><path fill="#b3b3b2" d="m1680.69 747.693 1.63.289c.78.123 1.47.238 2.06.801.08.305.09.154-.02.453-1.15.982-3.98 1.114-5.43 1.36z"/><path fill="#747474" d="M400.018 1293.09c-.205 1.45-.627 4.91-1.537 6.03-.786-.85-.539-4.28-.52-5.27z"/><path fill="#9c9c9d" d="M109.837 996.199c.963.189 3.02.408 3.665 1.229-.336.544-3.894.905-4.597 1.027z"/><path fill="#e4e4e4" d="M1485.62 624.502c6.02-6.726 15.92-.088 2.88 2.213-3.36.943-4.6 1.849-7.77 3.451l-.65-2.302c2.05-1.146 3.59-2.067 5.54-3.362"/><path fill="#282928" d="M572.339 634.394c4.934 4.063 8.638 7.576 12.616 12.605l-1.346 2.468c-3.626-4.516-4.861-6.688-9.486-10.683-1.461-2.115-1.434-1.922-1.784-4.39"/><path fill="#4d4e4d" d="M1480.73 630.166c3.17-1.602 4.41-2.508 7.77-3.451-2.22 1.981-9.22 8.004-11.71 9.529l-2.15-1.851a288 288 0 0 1 4.37-3.037c.72-.595.91-.73 1.72-1.19"/><path fill="#b3b3b2" d="M574.123 638.784c-1.427-1.141-2.714-2.447-4.173-3.546l-1.506-1.113c-1.542-1.152-4.939-2.901-5.651-4.525l.296-.655c1.734-.576 7.913 4.069 9.25 5.449.35 2.468.323 2.275 1.784 4.39"/><path fill="#9c9c9d" d="M572.871 1414.55c-1.494 1.71-9.063 7.32-11.44 7.55-.269-1.04 9.129-8.13 10.551-9.24z"/><path fill="#9c9c9d" d="M556.12 622.249c4.936 1.125 9.897 1.836 14.236 4.304l1.507 2.98c-5.238-2.391-10.508-4.866-15.743-7.284"/><path fill="#282928" d="m575.453 1418.48 1.911 1.92c-2.464 1.05-4.603 1.74-6.958 2.99l-1.961-1.19c2.46-1.19 4.603-2.45 7.008-3.72"/><path fill="#9c9c9d" d="m570.406 1423.39-1.245.42c-.339.27-7.538 2.75-7.521 1.54l.18.05.348-.6.543.53.113-.91a48 48 0 0 1 3.617-1.53c.203-.07.407-.14.61-.2l1.394-.49z"/></svg>