<svg xmlns="http://www.w3.org/2000/svg" width="2048" height="2048" viewBox="0 0 2048 2048"><path fill="#161525" d="M0 0h2048v2048H0z"/><path fill="#0b0a17" d="M990.658 265.738c419.442-19.147 775.012 305.304 794.252 724.741 19.25 419.441-305.12 775.081-724.56 794.421-419.564 19.35-775.349-305.15-794.599-724.72-19.249-419.577 305.33-775.288 724.907-794.442"/><path fill="#e8e8e8" d="M992.982 1718.1c-188.072-12.99-351.936-88.48-478.393-230.1-124.015-138.88-188.261-322.09-175.426-508.14 12.724-184.287 97.883-356.044 236.864-477.732C711.884 383.144 889.383 322.895 1069.6 334.593c182.11 12.371 351.66 97.274 470.65 235.691 120.66 138.7 181.43 319.568 168.99 502.986-16.03 224.56-143.97 432.95-337.18 548.13-99.78 59.48-201.16 89.83-316.81 96.64l-.38-26.7-.09-85.96c-.08-34.33-2.72-63.23 21.8-91.14 23.41-26.65 56.42-28.43 88.95-38.23a428.6 428.6 0 0 0 58.12-21.98 472.1 472.1 0 0 0 136.33-96.61 475.8 475.8 0 0 0 136.88-335.73 476.98 476.98 0 0 0-143.28-337.418 468.7 468.7 0 0 0-335.24-137.291 469.67 469.67 0 0 0-330.281 143.996 478.46 478.46 0 0 0-137.073 340.753c3.214 186.2 114.887 353.37 285.671 427.63a467 467 0 0 0 50.987 18.2c30.57 8.93 55.748 9.48 79.878 33.35 30.376 30.05 25.354 66.94 25.362 106.31l.061 73.58z"/><path fill="#e08539" d="M992.982 1718.1c-188.072-12.99-351.936-88.48-478.393-230.1-124.015-138.88-188.261-322.09-175.426-508.14 12.724-184.287 97.883-356.044 236.864-477.732C711.884 383.144 889.383 322.895 1069.6 334.593c182.11 12.371 351.66 97.274 470.65 235.691 120.66 138.7 181.43 319.568 168.99 502.986-16.03 224.56-143.97 432.95-337.18 548.13-99.78 59.48-201.16 89.83-316.81 96.64l-.38-26.7c156.98-10.74 297.64-67.76 413.09-176.19 132.62-124.51 210.82-296.28 217.65-478.06 5.07-170.702-67.24-345.56-183.99-469.122-118.13-125.738-281.13-199.752-453.54-205.943-176.633-6.493-348.347 58.919-475.893 181.282C443.885 665.911 369.145 834.19 364.204 1011.58a667.17 667.17 0 0 0 180.635 468.68c96.023 100.71 207.388 166.24 344.006 196.42 31.582 6.97 71.769 13.38 104.1 14.12z"/><path fill="#e8e8e8" d="M1105.35 696.344c15-.572 30.4 5.121 44.1 10.706a337.8 337.8 0 0 1 185.85 182.538 338.38 338.38 0 0 1 .86 261.332c-35.37 86.23-99.6 154.29-185.91 190.55-17.71 7.23-34.52 13.32-54.02 9.46-24.09-4.78-40.63-25.96-41.54-50.1-.42-11.14.26-22.71.1-33.94-.16-12.37-.95-25.7 2.63-37.61 9.28-31.43 40.51-35.84 64.7-51.44a176 176 0 0 0 49.06-47.23 185.37 185.37 0 0 0 31.39-139.239 178.67 178.67 0 0 0-86.38-124.931c-12.94-7.384-26.67-10.143-39.53-19.149-26.47-18.534-22.72-43.516-22.66-71.544.02-12.326-1.04-26.405 1.7-38.345a53.8 53.8 0 0 1 9.73-20.629c10.45-13.62 23.63-18.555 39.92-20.429"/><path fill="#e8e8e8" d="M929.346 697.19c31.057-3.219 58.669 13.074 62.509 46.753 1.566 15.605-.59 35.135.555 50.242 2.688 31.359-10.237 51.089-38.887 62.847-128.759 52.842-148.797 235.798-35.837 316.518 23.692 17.59 55.93 20.52 70.078 49.53 8.093 16.6 4.672 34.55 5.215 52.45.382 12.57 1.305 29-2.456 40.79a51.2 51.2 0 0 1-26.398 30.58c-19.116 9.22-38.651 4.86-57.504-1.82-23.059-9.25-41.332-17.76-62.399-31.32a342.45 342.45 0 0 1-148.477-214.49 343.94 343.94 0 0 1 48.992-265.041 339.7 339.7 0 0 1 141.34-121.212c13.955-6.498 28.162-12.618 43.269-15.827"/><path fill="#e8e8e8" d="M1013.98 914.31c61.22-5.647 115.43 39.411 121.08 100.64 5.64 61.22-39.43 115.43-100.65 121.06-61.221 5.64-115.418-39.42-121.058-100.64-5.641-61.213 39.41-115.414 100.628-121.06"/></svg>