<svg xmlns="http://www.w3.org/2000/svg" width="2048" height="2048" viewBox="0 0 2048 2048"><path fill="#242a33" d="M0 0h2048v2048H0z"/><path fill="#010101" d="M869.531 332.436c40.096-2.95 93.037 2.612 123.015 32.104 8.344 8.206 19.114 26.118 19.644 37.861 1.1 24.269.58 49.177.53 73.548l-.6 160.512-1.12 567.849c6.6 8.39 10.85 15.04 16.05 24.27 6.35-12.46 7.66-14.31 17.97-24.15l1.79-601.774.17-138.852c0-13.439-1.73-52.629 1.08-63.407 20.17-77.448 138.9-73.7 195.99-59.811 92.2 22.43 193.05 56.154 255.37 128.783 21.91 25.532 3.94 55.286-7.07 79.304-11.16 23.821-22 47.796-32.49 71.918-40.69 95.318-80.6 196.669-101.24 298.368 17.22 9.59 29.77 20.523 36.54 39.542 6.63 18.607 13.02 37.314 19.52 55.969l39.88 114.16c30.82 12.12 80.47 55.07 105.75 79.2 47.95 4.67 84.7 17.19 122.09 48.67 50.74 42.73 75.54 108.8 80.93 173.54 24.84 20.22 31.63 39.85 29.35 71.52-1.65 23.05 2.01 50.44-.65 72.82a55.9 55.9 0 0 1-4.76 17.19c-17.62 38.15-85.62 85.01-126.04 99.86l-1.06.45c-196.81 80.51-424.74-64.96-500.12-248.4-5.94 4.4-11.69 8.92-18.19 12.43-9.68-16.42-16.67-18.11-32.43-28.69-41.78-28.08-60.44-40.29-79.65-86.98-18.65 44.65-55.98 72.38-96.055 96.34-8.57 5.12-14.939 8.75-20.4 17.36-8.44-1.4-15.245-2.57-23.514-4.64-17.739 66.82-89.379 140.82-144.962 180.41-85.149 59.49-176.325 96.3-283.337 82.06-67.641-9-176.823-63.25-202.424-135.83-2.244-13.89-1.076-31.52-1.141-45.2-.207-43.95-6.197-73.87 33.539-101.51 2.493-53.79 25.433-109.15 60.812-149.71a205.43 205.43 0 0 1 142.666-71.24c8.339-8.69 16.816-14.57 25.594-22.23 27.481-23.99 44.955-38.97 78.56-54.52 5.683-14.4 11.825-33.8 17.328-48.93a6867 6867 0 0 1 34.131-91.201c13.547-36.045 12.05-52.548 48.12-72.23a1503 1503 0 0 0-65.038-203.048 3002 3002 0 0 0-38.885-92.033c-15.594-34.96-32.809-70.771-48.853-105.173-21.869-53.4 58.104-100.373 94.885-119.521 71.746-37.35 148.633-60.945 228.725-66.958"/><path fill="#acbecd" d="M1072.99 1063.83c27.6 27.56 64 52.27 104.51 38.57 25.51-8.63 38.81-33.5 43.9-58.39 3.02-18.91 4.53-32.76 12.48-50.462 18.43-41.109 72.36-66.331 114.67-48.206 4.46 2.338 10.06 6.009 12.3 10.676 8.84 18.395 15.41 39.634 22.22 58.862q18.6 51.51 36.6 103.23c-84.61-12.77-141.89 33.24-191.66 95.43l2.24.83c37.77-41.5 81.41-74.59 139.79-77.5 55.33-2.76 109.77 37.56 150.23 71.83-112.17 9.49-175.55 78.96-230.51 169.07l1.19 2.31c57.66-85.08 126.95-142.48 234.55-148.1 133.6-6.98 212.24 105.45 213 229.28.05 6.62 2.24 14.34 2.27 21.1-1.88 18-15.46 35.85-27.72 48.45-46.26 43.71-107.85 59.44-169.21 60.37-118.88 1.81-238.49-66.96-309.12-160.92a428 428 0 0 1-28.9-43.49c-9.84-17.07-17.17-33.44-29.86-48.67-19.48-23.37-44.99-33.05-65.97-54.67-11.92-12.25-29.8-33.96-33.97-51.08-4.74-19.45-2.72-51.03-2.77-71.72z"/><path fill="#585f6b" d="M1230.25 1214.37c-1.46 1.79-19.72 24.38-19.29 24.23-.46-.14-.33 0-.49-.32.32-2.39 15.05-23 17.54-24.74z"/><path fill="#585f6b" d="m1289.76 1377.77 1.19 2.31c-.91 1.83-11.46 18.83-12.39 18.92l-.25-.27.72-.81-.43.3.28-.42-.32-.88c.45-1.15 10.58-18.23 11.2-19.15"/><path fill="#acbecd" d="M631.041 1119.75c22.073-54.98 39.984-112.1 63.996-166.237 2.43-4.683 7.514-8.585 12.297-10.276 57.326-20.262 115.512 25.948 122.17 83.403 3.52 30.38 6.427 59.56 38.333 74.17 42.735 19.56 85.253-12.45 112.847-43.01l.394 115.71c.013 8.8 1.171 46.42-.926 52.08-11.518 29.13-36.702 56.38-61.728 74.64-10.544 7.69-21.694 13.76-32.388 21.74-24.878 18.57-32.624 41.28-47.591 66.53-68.998 116.4-196.376 201.83-333.956 202.73-58.706.41-121.665-15.23-165.351-56.41-19.782-18.64-27.525-40.59-27.245-67.4 1.242-119.2 70.745-237.57 202.39-235.58 110.022 1.66 181.615 60.19 242.506 144.85l1.28-3.08a437 437 0 0 0-34.662-50.87c-51.204-65.87-104.886-102.64-189.211-113.15 3.478-3.24 7.029-6.41 10.65-9.5 40.211-34.41 86.223-67.9 142.142-63.6 51.22 3.94 97.699 41.72 129.75 79.87l2.115-.78c-34.43-46.05-80.612-88.42-139.636-97.65-16.869-2.64-31.524-.89-48.176 1.82"/><path fill="#585f6b" d="M818.853 1215.58c2.416 2.25 13.969 18.9 14.791 21.83-1.56.97-4.95-5.65-5.494-6.38a552 552 0 0 0-11.412-14.67z"/><path fill="#242a33" d="M758.069 1373.61c4.405 7.09 7.591 13.59 11.313 20.95l-.935.87c-1.894-2.86-10.553-16.32-11.658-18.74z"/><path fill="#79838d" d="M769.382 1394.56c.149.36 1.057 1.97.224 2.32-.628-.07-.949-1.08-1.159-1.45z"/><path fill="#9ca9b8" d="M770.366 1399.55c1.294-.42 1.945-.75 2.103.86l.16 1.28c-2.071.63-1.885-.19-2.263-2.14"/><path fill="#acbecd" d="m733.326 368.912.7 1.557c-51.093 17.824-137.347 62.568-165.409 111.634-10.712 18.727.52 35.694 8.016 52.85.562-.134 2.315-.992 2.92-1.268l1.858.133c8.835.692 20.926 3.591 30.119 4.824 14.359 1.925 30.763 3.36 45.218 3.427 101.159.468 236.096-42.413 313.912-107.763a267 267 0 0 0 9.487-8.414c.108 11.102 1.715 99.147-.103 102.143-.987-.398-3.641-1.902-4.504-1.212-43.91 35.14-86.224 77.452-138.226 101.023 48.367 95.694 93.619 200.46 121.597 303.97l1.56-2.613c-3.239-10.027-6.394-24.954-8.975-35.475A1230 1230 0 0 0 936 835.129c-18.849-65.336-40.12-130.082-59.194-195.335 31.386-16.364 78.238-56.676 104.316-81.074l1.553 297.185.634 89.021c.154 16.027 3.614 47.431-5.565 60.164-17.618 24.3-46.154 59.12-76.348 66.74-38.749 7.72-37.281-31.85-40.669-56-9.233-65.814-70.989-116.547-137.806-104.025-2.227.031-1.499-.289-3.251.695-3.816.355-9.098 2.12-12.917 3.234-3.281-20.612-13.405-54.539-19.394-74.582-25.258-84.525-59.054-165.854-95.325-246.173a1879 1879 0 0 0-22.35-47.42c-10.387-21.196-25.275-41.859-14.072-65.47 8.587-19.086 24.708-32.065 40.865-44.602 41.947-32.55 88.349-49.298 136.849-68.575"/><path fill="#b85e1c" d="m733.326 368.912.7 1.557c-51.093 17.824-137.347 62.568-165.409 111.634-10.712 18.727.52 35.694 8.016 52.85 37.106 81.573 71.329 156.242 101.213 241.126a1760 1760 0 0 1 29.22 91.774c4.21 14.456 8.096 30.552 12.604 44.647-3.816.355-9.098 2.12-12.917 3.234-3.281-20.612-13.405-54.539-19.394-74.582-25.258-84.525-59.054-165.854-95.325-246.173a1879 1879 0 0 0-22.35-47.42c-10.387-21.196-25.275-41.859-14.072-65.47 8.587-19.086 24.708-32.065 40.865-44.602 41.947-32.55 88.349-49.298 136.849-68.575"/><path fill="#0f0201" d="M576.633 534.953c.562-.134 2.315-.992 2.92-1.268 34.765 77.898 70.669 153.457 98.871 234.23 11.574 33.148 21.896 65.497 31.896 99.166 2.147 7.231 10.069 40.484 12.601 44.724-2.227.031-1.499-.289-3.251.695-4.508-14.095-8.394-30.191-12.604-44.647a1760 1760 0 0 0-29.22-91.774c-29.884-84.884-64.107-159.553-101.213-241.126"/><path fill="#585f6b" d="M960.471 929.203c.305 1.435 5.009 22.41 4.906 22.287-2.509.721-5.857-16.89-6.466-19.674z"/><path fill="#acbecd" d="M1080.01 432.423c6.34 8.617 20.92 19.614 29.88 25.583 49.57 33.031 106.03 54.747 163.59 69.204 64.98 16.324 130.55 20.737 196.23 5.909-19.48 44.117-40.18 87.776-59.06 132.111-34.32 80.623-60.66 159.745-79.84 245.132-22.89-2.084-40.81-2.025-62.41 6.647-36.74 14.756-61.04 43.422-72.84 80.768-8.11 25.663-1.78 73.763-40.74 72.473-5.5-.16-11.43-2.76-16.47-4.86l.46 4.52c-2.59-.04-3.24-.57-5.75-1.55-1.18-.7-2.04-1.21-3.27-1.82a151.3 151.3 0 0 1-47.64-36.32c-29.92-34.208-27.7-36.063-27.42-79.419.18-21.053.24-42.107.19-63.161.04-111.977 2.5-225.974 1.62-337.614 5.26 4.081 10.51 9.892 16.22 14.488l3.48 3.454c26.02 23.492 63.77 54.718 95.1 70.318a6370 6370 0 0 0-59.36 203.148 2349 2349 0 0 0-15.13 57.827c-1.71 6.742-5.09 22.007-7.27 28.065l1.56 2.303c6.95-27.878 20.12-65.164 29.22-92.546 24.9-74.863 53.44-141.599 94.11-209.495-43.75-14.02-104.09-64.748-137.27-96.533.09-3.587-.02-7.311-.07-10.913 1.17-9.55.54-22.485.91-32.379.69-18.176.74-37.265 1.97-55.34"/><path fill="#b85e1c" d="M1056.54 550.026c5.26 4.081 10.51 9.892 16.22 14.488l-3.49 306.422c-.19 25.865-.61 51.728-1.25 77.587-.64 38.544-4.89 45.167 18.79 77.457-.53 4.56-.54 3.13-4.66 4.24-29.92-34.208-27.7-36.063-27.42-79.419.18-21.053.24-42.107.19-63.161.04-111.977 2.5-225.974 1.62-337.614"/><path fill="#0f0201" d="m1072.76 564.514 3.48 3.454c-2.13 24.172-1.56 64.915-1.88 89.716l-1.89 175.011-1.35 103.264c-.13 9.129-1.58 49.249.5 56.372 8.87 30.329 40.07 57.409 66.73 73.059l.46 4.52c-2.59-.04-3.24-.57-5.75-1.55-1.18-.7-2.04-1.21-3.27-1.82a151.3 151.3 0 0 1-47.64-36.32c4.12-1.11 4.13.32 4.66-4.24-23.68-32.29-19.43-38.913-18.79-77.457.64-25.859 1.06-51.722 1.25-77.587z"/><path fill="#a05420" d="M1086.81 1025.98c13.43 14.09 27.89 31.75 46.18 40.21l.07 2.17c-1.18-.7-2.04-1.21-3.27-1.82a151.3 151.3 0 0 1-47.64-36.32c4.12-1.11 4.13.32 4.66-4.24"/><path fill="#4b2612" d="M1132.99 1066.19c3.18 1.32 3.26 1.42 5.82 3.72-2.59-.04-3.24-.57-5.75-1.55z"/><path fill="#585f6b" d="M1083.4 954.322c1.59-9.47 3.73-17.727 6.18-26.996l1.56 2.303c-2.36 8.514-4.76 16.373-7.74 24.693"/><path fill="#acbecd" d="M1035.88 1318.27c-1.27-7.27-1.34-69.26-.38-75.91 1.99 1.52 2.13 2.94 3.23 5.52 2.94 4.96 5.98 9.85 9.13 14.68.71 2.35.77 2.49 1.97 4.63 2.38 2.41 2.71 2.73 4.27 5.82 14.88 20.7 26.29 32.56 47.32 47.61 16.78 12.01 35.53 23.14 48.99 38.94 12.24 14.36 20.6 33.67 30.15 50.1 6.3 10.83 12.51 19.84 19.72 29.88 67.07 93.55 174.01 164.32 288.35 182.85 75.47 12.23 166.26-.37 229.4-45.98a207.8 207.8 0 0 0 43.76-42.42c.47 34.26 3.9 45.35-21.64 71.1-52.08 52.51-123.72 80.77-197.33 81.97-123.66 2.02-256.32-84.43-321.36-186.99a585 585 0 0 1-27.55-49.54c-16.48-32.79-23.41-54.43-56.83-72.57.04 12.36-.37 28.47.28 40.53l-1.03 3.14c1.19 2.75 1.39 7.24.23 10.03l-1.56.2c-37.83-24.4-98.96-61.78-99.12-113.59"/><path fill="#b85e1c" d="M1035.88 1318.27c-1.27-7.27-1.34-69.26-.38-75.91 1.99 1.52 2.13 2.94 3.23 5.52 2.94 4.96 5.98 9.85 9.13 14.68.71 2.35.77 2.49 1.97 4.63 2.38 2.41 2.71 2.73 4.27 5.82-.82.15-1.84.19-2.52.7-.99 3.05.05 25.07-.73 31.31-1.67 51.86 46.34 88.74 86.51 113.47l-1.03 3.14c1.19 2.75 1.39 7.24.23 10.03l-1.56.2c-37.83-24.4-98.96-61.78-99.12-113.59"/><path fill="#0f0201" d="M1047.86 1262.56c.71 2.35.77 2.49 1.97 4.63 2.38 2.41 2.71 2.73 4.27 5.82-.82.15-1.84.19-2.52.7-.99 3.05.05 25.07-.73 31.31-1.67 51.86 46.34 88.74 86.51 113.47l-1.03 3.14c-36.86-21.14-85.01-61.02-88.54-105.58-.78-9.76-1.64-43.65.07-53.49"/><path fill="#9ca9b8" d="M1049.83 1267.19c2.38 2.41 2.71 2.73 4.27 5.82-.82.15-1.84.19-2.52.7-.99 3.05.05 25.07-.73 31.31-1.15-10.98-.26-26.07-1.02-37.83"/><path fill="#acbecd" d="M1003.84 1254.72c.41 51.58 8.38 81.91-31.328 120.99-16.321 16.07-37.459 29.75-57.57 40.91l.189-45.37c-19.837 10.5-33.861 31.29-46.255 49.65-7.385 10.93-11.476 25.4-16.597 37.67a255 255 0 0 1-26.479 47.65c-84.205 118.43-252.001 214.5-399.534 169.82-50.594-15.32-122.123-54.44-140.692-106.35-1.499-7.8-2.262-31.17-1.375-38.8 35.617 51.5 95.996 79.77 156.21 90.41 103.298 18.25 206.808-11.17 291.882-70.27a486.3 486.3 0 0 0 127.742-132.59c12.642-19.78 20.589-41.15 35.397-58.3 11.623-13.46 26.893-21.89 41.742-31.28 30.656-19.38 50.617-41.75 66.668-74.14"/><path fill="#b85e1c" d="M418.825 1241.37c2.041-.39 9.25-3.19 10.144-1.51-.078.5-3.28 4.04-4.138 5.59-13.409 9.36-27.447 19-39.376 29.88-38.796 35.36-63.082 88.61-71.567 139.85-5.741 34.67-11.707 78.76 10.78 108.04 3.489 4.54 5.599 7.31 9.485 11.58-1.567 2.09-2.01 2.79-3.319 5.01-12.494-11.59-21.751-22.19-28.795-37.98-7.793-16.05-5.049-30.88-4.24-47.99 3.444-72.83 29.312-149.41 90.294-193.86 9.428-6.87 20.006-14.1 30.732-18.61"/><path fill="#b85e1c" d="M385.044 1671.48c-30.427-11.82-59.185-28.4-83.11-50.42-14.773-13.42-36.252-38.37-33.998-60.56 3.521-34.67-10.93-84.22 15.149-111.62 2.08-2.19 4.266-4.47 7.126-4.46-2.798 11.54-9.75 21.83-12.256 33.74-3.481 16.55-4.785 31.34 2.993 46.76 3.118 1.31.241 2.89 1.516 4.73.453.66.708-.46 1.735 1.24-.887 7.63-.124 31 1.375 38.8-.894 3.26-1.067 3.36-1.001 6.65 17.252 36.69 66.614 74.2 102.757 91.4z"/><path fill="#0f0201" d="M280.948 1524.92c3.118 1.31.241 2.89 1.516 4.73.453.66.708-.46 1.735 1.24-.887 7.63-.124 31 1.375 38.8-.894 3.26-1.067 3.36-1.001 6.65-3.884-13.14-5.29-38.24-3.625-51.42"/><defs><linearGradient id="a" x1="1055.908" x2="1135.091" y1="437.333" y2="434.633" gradientUnits="userSpaceOnUse"><stop offset="0" stop-color="#bd5e1a"/><stop offset="1" stop-color="#975224"/></linearGradient></defs><path fill="url(#a)" d="m1132.51 343.66.31 2.005c-15.16 4.604-21.45 7.886-35.07 15.31-20.58 11.215-41.39 48.241-21.17 67.491 1.52 1.446 2.13 2.285 3.43 3.957-1.23 18.075-1.28 37.164-1.97 55.34-.37 9.894.26 22.829-.91 32.379-.16-1.05-.27-2.072-.58-3.079l.16.206-.28.388c-.19 3.887-.86 5.654-2.11 9.361l-1.14.354c-1.82-1.676-1.69-1.797-4.02-2.451-4.75 2.212-8.27 5.825-12.24 9.329l-.12-83.383c-.02-12.154-.71-33.988.65-44.904.83-6.971 3-13.717 6.39-19.867 13.55-24.696 43.21-35.239 68.67-42.436"/><path fill="#0f0201" d="M1076.58 428.466c1.52 1.446 2.13 2.285 3.43 3.957-1.23 18.075-1.28 37.164-1.97 55.34-.37 9.894.26 22.829-.91 32.379-.16-1.05-.27-2.072-.58-3.079l.16.206-.28.388c-.19 3.887-.86 5.654-2.11 9.361.17-29.2.89-67.747 2.2-96.809z"/><path fill="#b85e1c" d="m706.69 936.22.719 1.123c-4.983 2.961-9.079 4.905-12.313 9.755-9.636 14.449-15.865 34.144-21.951 50.559l-28.052 76.223c-5.262 14.33-11.624 33.28-17.995 46.73l-14.675 4.77-.724-.72c1.249-8.33 58.913-162.033 63.99-169.927 7.267-11.297 18.485-15.681 31.001-18.513"/><path fill="#b85e1c" d="M1053.64 1043.03c4.1 4.99 9.84 10.76 14.37 15.55l-.01 106.66c.03 32.82-3.32 52.95 10.3 83.43l-2.3 1.36c-5.41-7.47-20.38-27.64-21.25-35.51-1.95-17.73-.93-44.53-.86-62.6.12-36.3.03-72.59-.25-108.89"/><path fill="#b85e1c" d="M1188.18 1447.01c42.28 85.12 84.31 132.49 163.66 186.28 1.23 3.99-.03 4.05-3.81 4.49-67.05-35.07-146.72-114.59-164.52-189.4 2.02-.91 1.13.79 4.67-1.37"/><path fill="#b85e1c" d="M1262.82 945.444c1.62 2.623 1.61 2.509 4.01 4.374-17.36 13.096-29.08 26.661-37.79 46.811-13.5 31.241-4.77 79.671-44.34 93.821-11.96 4.27-24.33 5.14-36.75 3.52-1.76-.08-2.41-.19-4.02-.76-.08-.15-.17-.31-.25-.47l.04-.1c1.38-.95 10.04-.65 11.83-.6 45.76-3.73 51.29-47.42 56.8-82.48 4.31-27.397 27.64-49.891 50.47-64.116"/><path fill="#4b2612" d="M1147.95 1093.97c-1.76-.08-2.41-.19-4.02-.76-.08-.15-.17-.31-.25-.47l.04-.1c1.38-.95 10.04-.65 11.83-.6-3.24 1.08-4.25 1.38-7.6 1.93"/><path fill="#b85e1c" d="M616.987 1138.63c4.742.38 7.309-1.54 5.978 4.31-39.346 19.8-60.596 37.41-93.204 66.24-6.674-.2-13.775-.71-20.479-1.08 28.593-26.67 70.458-58.01 107.705-69.47"/><path fill="#a05420" d="M1351.84 1633.29c3.31 1.64 12.67 7.28 15.85 9.5 13.54 9.42 31.71 15.4 45.23 23.63-14.31-4.05-53.22-20.12-64.89-28.64 3.78-.44 5.04-.5 3.81-4.49"/><path fill="#a05420" d="M418.825 1241.37c10.815-6.62 55.21-23.06 67.642-22.87-.153 1.04-8.47 2.81-10.361 3.41-18.417 5.86-34.535 14.11-51.275 23.54.858-1.55 4.06-5.09 4.138-5.59-.894-1.68-8.103 1.12-10.144 1.51"/><path fill="#a05420" d="M334.153 1534.8c11.258 10.8 21.611 19.91 35.156 27.88 1.168.69 8.211 4.42 8.518 4.82-.143.17-.211.29-.419.24-13.896-3.87-37.045-19.74-46.574-27.93 1.309-2.22 1.752-2.92 3.319-5.01"/><path fill="#a05420" d="m1298.51 932.743.66 1.543c-9.54 2.127-24.28 10.072-32.34 15.532-2.4-1.865-2.39-1.751-4.01-4.374 12.32-5.476 18.89-8.428 32.16-11.783z"/><path fill="#a05420" d="M1174.11 1421.03c4.72 7.83 9.96 17.78 14.07 25.98-3.54 2.16-2.65.46-4.67 1.37-1.95-2.6-8.1-20.9-10.94-26.51z"/><path fill="#a05420" d="m644.758 1131.51 1.255 1.58-1.8.59c-6.819 2.13-14.636 6.28-21.248 9.26 1.331-5.85-1.236-3.93-5.978-4.31a221 221 0 0 1 15.572-4.32c1.568-.38 3.384-.82 4.954-1.17z"/><path fill="#a05420" d="M387.33 1667.74c9.571 4.54 17.88 8.91 28.129 12.12l-2.002 1.37c-3.756-2.39-22.121-6.94-28.413-9.75z"/><path fill="#4b2612" d="M733.326 368.912c5.16-1.979 16.169-6.453 21.569-6.436-.656 1.733-18.278 7.285-20.869 7.993z"/><path fill="#4b2612" d="M1132.51 343.66c2.73-.832 21.05-4.246 22.55-2.957-.28.611-20.22 4.736-22.24 4.962z"/><path fill="#4b2612" d="M1078.3 1248.67c1.08 1.54 7.81 10.52 6.96 11.82-1.54.41-8.34-9.2-9.26-10.46z"/><path fill="#0f0201" d="M415.459 1679.86c2.046.5 11.399 3.06 12.671 4.34 2.628 2.65-14.284-2.84-14.673-2.97z"/><path fill="#0f0201" d="M1169.31 1414.59c-5.01-6.7 3.15-5.74 3.27 1.56z"/><path fill="#4b2612" d="M644.758 1131.51c1.811-.91 6.426-2.44 8.217-.94-1.088 1.57-5.221 2.11-6.962 2.52z"/><path fill="#4b2612" d="m1169.31 1414.59 3.27 1.56c.55 2.16.76 2.77 1.53 4.88l-1.54.84c-.99-2.47-2.07-4.9-3.26-7.28"/><path fill="#0f0201" d="M1304.29 931.811c4.99-2.673 7.1 1.146-.01 1.519z"/><path fill="#4b2612" d="M1298.51 932.743c1.39-.57 2.64-.866 4.15-.884l1.63-.048-.01 1.519c-1.88.428-3.21.656-5.11.956z"/><path fill="#4b2612" d="m1412.92 1666.42 1.11-.16c1.59-.26 2.34-.24 2.86 1.42-2.44.06-2.35.28-3.97-1.26"/></svg>