<svg xmlns="http://www.w3.org/2000/svg" width="2048" height="2048" viewBox="0 0 2048 2048"><path fill="#262628" d="M0 0h2048v2048H0V0"/><path fill="#262628" d="M2048 1291.35V2048H0v-716.98c85.753 17.82 178.215 17.68 256.571-26.43 86.873 36.45 181.042 48.4 272.58 20.72 15.886-4.81 31.321-12.37 46.142-19.82 14.9 6.54 29.893 12.89 45.414 17.81 88.121 27.93 193.052 25.57 275.035-18.75a786 786 0 0 0 35.05 13.93c74.848 26.93 148.638 27.53 224.448 12.19 5.08-1.03 44.06 6.26 53.8 7.19 67.19 6.44 126.25-2.79 187.5-31.75 10.01 3.43 20.27 8.03 30.5 11.61 73.38 25.63 161.79 30.72 237 10.16 18.37-5.02 34.88-12.5 51.85-20.43 22.25 9.05 51.29 19.42 74.6 24.03 86.14 17.06 182.9 9.18 257.51-40.13"/><path fill="#070511" d="M523.854 761.484c16.945-8.37 35.113-17.825 52.933-24.16 86.596-30.784 184.619-17.735 265.095 24.87 82.037-42.522 164.358-55.111 253.948-26.805a469 469 0 0 1 66.02 26.913c16.57-8.184 31.99-15.914 49.54-22.122 48.91-17.294 102.4-20.589 153.79-16.219 12.88 1.096 38.02 3.859 49.8 7.685 80.97-23.649 175.95-7.717 249.92 30.896 18.91-9.483 38.15-19.49 58.26-26.143 85.33-28.23 186.98-17.455 265.43 25.965 14.39-9.573 43.37-20.049 59.41-25.754v554.74c-74.61 49.31-171.37 57.19-257.51 40.13-23.31-4.61-52.35-14.98-74.6-24.03-16.97 7.93-33.48 15.41-51.85 20.43-75.21 20.56-163.62 15.47-237-10.16-10.23-3.58-20.49-8.18-30.5-11.61-61.25 28.96-120.31 38.19-187.5 31.75-9.74-.93-48.72-8.22-53.8-7.19-75.81 15.34-149.6 14.74-224.448-12.19a786 786 0 0 1-35.05-13.93c-81.983 44.32-186.914 46.68-275.035 18.75-15.521-4.92-30.514-11.27-45.414-17.81-14.821 7.45-30.256 15.01-46.142 19.82-91.538 27.68-185.707 15.73-272.58-20.72C178.215 1348.7 85.753 1348.84 0 1331.02V724.146c72.754-5.987 140.226.569 205.794 35.887 73.115-42.173 162.203-48.929 243.113-27.67 27.835 7.314 49.284 16.678 74.947 29.121"/><path fill="#dbdfeb" d="M266.524 976.895a207 207 0 0 1 4.763-8.271c13.55-21.856 37.715-36.535 62.366-42.361 2.644 4.418 10.046 16.322 10.94 20.576 2.484 4.093 3.255 5.529 4.972 9.983l.179.921c2.095 10.405 5.37 20.697 7.549 31.749a243.15 243.15 0 0 1-1.931 106.748c-1.38 5.66-5.866 24.25-8.857 27.81-3.347 3.69-6.449 11.88-8.897 16.62a301 301 0 0 1-5.685 10.27c-.911 1.55-1.903 3.05-2.897 4.55-1.625 2.5-3.193 5.04-4.703 7.6l2.16 4.38c-72.891 110.29-198.796 136.65-320.64 106.26-2.36-.31-2.928-1.48-4.981-2.77l-.862-.54v-23.13c21.25-23.04 28.404-33.32 44.913-59.62l20.535.24c36.94-.58 74.474 3.74 110.209-7.22 81.671-25.06 111.314-107.03 86.386-184.801-.852-2.324-1.629-4.579-2.523-6.902 3.735-4.12 2.214-4.215 4.707-8.266l.999-1.698c.485-1.238.398-1.258 1.298-2.128"/><path fill="#b2b5bf" d="M344.593 946.839c2.484 4.093 3.255 5.529 4.972 9.983l.179.921c2.095 10.405 5.37 20.697 7.549 31.749a243.15 243.15 0 0 1-1.931 106.748c-1.38 5.66-5.866 24.25-8.857 27.81-3.347 3.69-6.449 11.88-8.897 16.62a301 301 0 0 1-5.685 10.27c-.911 1.55-1.903 3.05-2.897 4.55-1.625 2.5-3.193 5.04-4.703 7.6a293 293 0 0 1-44.582 49.41c-6.168 5.45-17.329 14.1-22.387 19.16l-3.789-.31c18.253-13.63 42.368-42.61 54.353-61.05 34.142-52.54 53.956-114.43 45.605-177.4-1.916-14.448-5.889-31.521-8.93-46.061"/><path fill="#faf9fb" d="M262.043 995.889c2.105-6.966 4.91-8.304 10.032-4.029 11.662 42.49 11.051 86.22-11.462 125.14-20.664 35.73-52.118 60.68-92.204 70.96-27.934 7.16-52.575 6.05-81.011 6.2-7.716.04-19.985-.36-27.276.64 2.267-3.96 2.154-3.6 5.326-6.89 36.94-.58 74.474 3.74 110.209-7.22 81.671-25.06 111.314-107.03 86.386-184.801"/><path fill="#c6a890" d="m44.913 1187.67 20.535.24c-3.172 3.29-3.059 2.93-5.326 6.89-1.536 10.79-20.043 36.85-26.633 46.18-8.028 11.38-18.6 21.83-28.18 31.64-.065.07.527 1.1.535 1.11-2.361-.31-2.93-1.48-4.982-2.77l-.862-.54v-23.13c21.25-23.04 28.404-33.32 44.913-59.62"/><path fill="#e0d9d3" d="M265.226 979.023c4.005 1.077 5.505 9.121 6.849 12.837-5.122-4.275-7.927-2.937-10.032 4.029-.852-2.324-1.629-4.579-2.523-6.902 3.735-4.12 2.214-4.215 4.707-8.266z"/><path fill="#d4d6e1" d="m253.565 1231.35 3.789.31c-5.829 5.61-12.393 5.25-3.789-.31"/><path fill="#dbdfeb" d="M2048 775.307V895.77c-69.19 50.857-80.43 128.18-45.82 204.35l-5.64 7.62c-9.13 11.37-16.99 20.01-29.38 27.9-4.14 2.32-7.67 4.43-12.08 6.24-7.14-3.23-19.31-20.67-23.94-27.24-39.95-56.61-51.13-135.912-26.98-201.1 3.03-8.183 9.07-19.29 10.29-27.607.26-.7.43-1.201.81-1.891 27.58-50.157 79.46-90.3 132.74-108.735"/><path fill="#faf9fb" d="M2048 775.307v7.219c-59.48 26.719-115.87 78.048-140.26 139.567-19.26 48.563-10.76 96.737 10.41 143.417 3.48 7.87 7.48 15.51 11.97 22.85-1.2-5.85-4.64-17.98-4.57-22.81l1.08-.54c6.91 17.38 11.23 28.17 21.7 44.18 5.99 9.15 13.01 17.72 18.83 26.45-4.14 2.32-7.67 4.43-12.08 6.24-7.14-3.23-19.31-20.67-23.94-27.24-39.95-56.61-51.13-135.912-26.98-201.1 3.03-8.183 9.07-19.29 10.29-27.607.26-.7.43-1.201.81-1.891 27.58-50.157 79.46-90.3 132.74-108.735"/><path fill="#cc863d" d="M2048 869.983v25.787c-69.19 50.857-80.43 128.18-45.82 204.35l-5.64 7.62c-33.93-56.82-38.12-133.148-.04-188.951 14.38-21.078 30.43-34.978 51.5-48.806"/><path fill="#dbdfeb" d="M2048 1094.06v126.85c-67.34 56.64-170.06 77.38-254.66 52.69 5.09-6.92 15.68-16.22 22.09-23.7 15.98-18.66 23.26-36.46 34.62-57.21 6.84 1.18 14.89.38 21.96.4 24.3.07 45.74-.69 69.41-7a162.22 162.22 0 0 0 90.92-64.37c5.77-8.4 10.45-18.68 15.66-27.66"/><path fill="#d4d6e1" d="M2048 1204.59v8.06c-4.67 4.09-31.6 22.85-36.44 22.94-.06-.07-.12-.13-.18-.2-.21 1.06 32.44-26.75 35.93-30.12z"/><path fill="#dbdfeb" d="M0 760.125c62.662-3.805 119.659-1.528 176.785 28.405-22.297 17.356-43.677 38.212-59.285 61.844-40.195-5.016-77.152-5.783-117.5-.568z"/><path fill="#d4d6e1" d="M58.195 764.479c17.534-1.947 36.775 2.552 54.253 4.43 3.129.336 13.417 1.633 13.814 4.283-3.959-.541-7.896-1.609-11.761-2.191-7.146-.484-13.216-2.752-20.501-2.743-8.476.012-22.612-4.516-30.305-1.888-1.725.589-4.604-1.386-5.5-1.891"/><path fill="#cc863d" d="M349.565 956.822c25.789 54.748 25.756 127.588 5.591 184.178a238.1 238.1 0 0 1-124.674 136.66C162.047 1309.85 72.54 1311.79 0 1292.39v-21.97l.862.54c2.053 1.29 2.62 2.46 4.982 2.77 121.843 30.39 247.748 4.03 320.639-106.26l-2.16-4.38c1.51-2.56 3.078-5.1 4.703-7.6.994-1.5 1.986-3 2.897-4.55a301 301 0 0 0 5.685-10.27c2.448-4.74 5.55-12.93 8.897-16.62 2.991-3.56 7.477-22.15 8.857-27.81a243.15 243.15 0 0 0 1.931-106.748c-2.179-11.052-5.454-21.344-7.549-31.749z"/><path fill="#d4d6e1" d="M324.323 1163.09c1.51-2.56 3.078-5.1 4.703-7.6.994-1.5 1.986-3 2.897-4.55a301 301 0 0 0 5.685-10.27c2.448-4.74 5.55-12.93 8.897-16.62-2.87 11.7-11.183 28.04-17.181 38.54l-2.164 3.75c-.226.38-.451.76-.677 1.13z"/><path fill="#cc863d" d="M1793.34 1273.6c84.6 24.69 187.32 3.95 254.66-52.69v25.21c-17.09 12.11-36.33 24.32-55.51 32.87-56.39 25.12-123.19 29.23-183.61 18.87a213 213 0 0 1-33.13-8.12c3.71-5.12 11.99-11.4 16.74-15.96z"/><path fill="#dbdfeb" d="M0 910.913c7.767 11.416 15.64 22.508 21.778 34.916 4.972 27.242 9.926 36.748 10.62 67.441-.12 43.34-9.716 88.84-32.398 126.23z"/><path fill="#cc863d" d="M21.778 945.829c3.694 7.324 5.403 11.048 8.058 18.756C61.195 1037.64 49.18 1137.29 0 1199.99v-60.49c22.682-37.39 32.278-82.89 32.397-126.23-.693-30.693-5.647-40.199-10.619-67.441"/><path fill="#b2b5bf" d="M32.397 1013.27c2.045 3.31.334 13.72 1.807 20.66l.38-6.26c2.43 16.15.92 29.6 2.382 44.49-1 7.09-6.437 38.68-10.58 44.08-.696-.48-.447-.38-.816-.47-1.108.39-3.169 5.83-3.816 7.2l-2.177 4.68C15.914 1135.7 5.38 1151.99 0 1159.06v-19.56c22.682-37.39 32.278-82.89 32.397-126.23"/><path fill="#d4d6e1" d="M21.778 945.829c3.694 7.324 5.403 11.048 8.058 18.756 1.437 9.221 3.979 18.845 5.524 27.787 3.429 19.838 6.56 61.438 1.606 79.788-1.463-14.89.048-28.34-2.382-44.49l-.38 6.26c-1.474-6.94.238-17.35-1.807-20.66-.693-30.693-5.647-40.199-10.619-67.441"/><path fill="#d4d6e1" d="M0 1159.06c5.38-7.07 15.914-23.36 19.577-31.41l2.177-4.68c.647-1.37 2.708-6.81 3.816-7.2.369.09.12-.01.817.47-.97 4.46-2.312 8.15-4.037 12.37-1.5 3.75-3.083 7.48-4.746 11.17l-2.156 4.64c-4.319 9.41-9.661 17.65-15.448 26.18z"/><path fill="#d4d6e1" d="M1929.41 1148.88c-51.97-63.69-61.3-155.57-30.65-230.781 4.11-10.093 9.57-23.153 15.69-32.166-1.22 8.317-7.26 19.424-10.29 27.607-24.15 65.188-12.97 144.49 26.98 201.1 4.63 6.57 16.8 24.01 23.94 27.24-6.23 3.48-18.73 5.87-25.67 7"/><path fill="#cc863d" d="M0 849.806c40.348-5.215 77.305-4.448 117.5.568A1542 1542 0 0 1 104.499 871C77.844 867.904 26.606 868.171 0 872.225z"/><path fill="#b2b5bf" d="M251.593 953.979c20.135-30.186 33.438-37.748 66.826-49.604 3.992 4.814 12.241 16.287 15.234 21.888-24.651 5.826-48.816 20.505-62.366 42.361a207 207 0 0 0-4.763 8.271 66 66 0 0 1-1.91-4.067c-2.453-5.728-8.428-14.629-13.021-18.849"/><path fill="#c6a890" d="M1833.79 1186.71c7.05.02 14.1.09 21.15.22-2.38 2.41-2.9 3.05-4.89 5.76-11.36 20.75-18.64 38.55-34.62 57.21-6.41 7.48-17 16.78-22.09 23.7l-.85.18c-8.12-2.1-17.44-3.65-25.29-6.17a263.6 263.6 0 0 0 47.25-50.74c7.69-10.8 12.48-19.22 19.34-30.16"/><path fill="#faf9fb" d="M1854.94 1186.93c39.38.23 83 1.65 118.35-18.53 41.32-23.58 61.59-50.76 74.71-94.93v20.59c-5.21 8.98-9.89 19.26-15.66 27.66a162.22 162.22 0 0 1-90.92 64.37c-23.67 6.31-45.11 7.07-69.41 7-7.07-.02-15.12.78-21.96-.4 1.99-2.71 2.51-3.35 4.89-5.76"/><path fill="#b76e2f" d="M1767.2 1267.61c7.85 2.52 17.17 4.07 25.29 6.17-4.75 4.56-13.03 10.84-16.74 15.96-.44-.18-.89-.36-1.33-.53l-25.42-8.39c5.4-3.78 13.23-10.04 18.2-13.21"/><path fill="#c6a890" d="M251.593 953.979c4.593 4.22 10.568 13.121 13.021 18.849a66 66 0 0 0 1.91 4.067c-.9.87-.813.89-1.298 2.128l-.999 1.698c-2.493 4.051-.972 4.146-4.707 8.266-3.722-8.951-8.145-15.953-13.49-23.932 1.813-4.003 3.705-7.237 5.563-11.076"/><path fill="#c6a890" d="m2035.92 955.573 1.13 1.392c3.97 4.707 6.58 9.869 10.95 13.978v30.687c-4.51-14.738-8.74-24.154-16.63-37.341 1.46-2.933 2.98-5.839 4.55-8.716"/><path fill="#c9996a" d="M2048 938.565v32.378c-4.37-4.109-6.98-9.271-10.95-13.978l-1.13-1.392c3.53-6.51 7.61-11.276 12.08-17.008"/><path fill="#dbdfeb" d="M1031.25 1186.01c37.56-1.68 70.96 4.34 108.68-8.39 40.49-11.1 86.25-57.11 89.61-101.08 4.17-63.16 3.28-123.848 34.24-181.738 72.81-136.155 241.67-172.726 373.82-103.41-24.67 18.48-40.23 37.893-58.3 62.174a801 801 0 0 0-13.07 20.532c-25.65-6.483-52.43-7.288-79.22-6.326-65.65 2.359-127.27 44.21-142.9 109.998-6 25.28-5.49 52.06-8.7 77.8-5.82 63.82-20.61 116.45-64.8 165.04-75.79 83.33-192.08 96.4-296.469 72.28-7.178-1.66-14.594-3.64-21.6-5.97 2.856-2.57 16.656-13.02 17.392-15.72-7.732-2.29-15.833-4.03-23.561-6.38 32.337-27.91 41.593-44.36 63.058-78.81 7.24-.04 14.64.16 21.82 0"/><path fill="#cc863d" d="M972.263 1271.59a389 389 0 0 0 21.045 5.05c165.412 33.72 318.832-51.33 334.142-228.99 2.42-28.09-1.76-54.494 4.81-82.594 9.17-39.233 31.24-71.885 65.76-93.112 55.41-34.421 120.44-31.851 181.28-18.378a801 801 0 0 0-13.07 20.532c-25.65-6.483-52.43-7.288-79.22-6.326-65.65 2.359-127.27 44.21-142.9 109.998-6 25.28-5.49 52.06-8.7 77.8-5.82 63.82-20.61 116.45-64.8 165.04-75.79 83.33-192.08 96.4-296.469 72.28-7.178-1.66-14.594-3.64-21.6-5.97 2.856-2.57 16.656-13.02 17.392-15.72 1.26.14 1.298.09 2.33.39"/><path fill="#c6a890" d="M1009.43 1186.01c7.24-.04 14.64.16 21.82 0-8.84 4.06-21.04 42.96-32.022 52.6-1.684 1.48-27.203 34.22-26.965 32.98-1.032-.3-1.07-.25-2.33-.39-7.732-2.29-15.833-4.03-23.561-6.38 32.337-27.91 41.593-44.36 63.058-78.81"/><path fill="#d4d6e1" d="M1505.88 764.475c13.93-1.651 35.42 1.054 49.62 3.073 4.88.693 35.81 6.104 36.97 9.205-.81.048-1.56.166-2.34-.031l-4.37-1.083-4-1.001-3.6-.899c-19.88-5.049-38.23-6.238-58.43-8.113-7.02-.652-7.94 1.548-13.85-1.151"/><path fill="#d4d6e1" d="M1309.01 955.724c2.72 2.297 3.76 3.236 1.88 6.3-.24.316-.23.471-.59.647-.37-.338-.48-1.033-.55-1.526z"/><path fill="#dbdfeb" d="M572.605 953.921c16.301-28.052 37.781-39.786 67.512-49.768 5.675 7.712 9.819 14.656 15.065 22.096 5.533 9.394 11.393 19.465 15.336 29.62 26.234 54.091 26.064 128.851 6.648 185.461a232 232 0 0 1-119.893 133.68c-73.382 35.62-164.784 35.81-241.893 12.05-7.034-2.92-16.813-6.06-24.702-9.22 4.198-3.24 14.291-10.45 17.316-13.51 30.709-26.95 42.545-43.61 62.362-78.48 6.827-.04 13.507.15 20.29.15 38.933-1.66 70.879 4.99 110.525-8.5 79.781-27.14 106.36-110.08 80.157-185.945l-.876-.572c-1.682-8.397-8.562-19.165-13.53-25.989 1.858-3.621 3.928-7.431 5.683-11.073"/><path fill="#cc863d" d="M670.518 955.869c26.234 54.091 26.064 128.851 6.648 185.461a232 232 0 0 1-119.893 133.68c-73.382 35.62-164.784 35.81-241.893 12.05 5.439-5.71 13.137-10.9 17.293-15.55l1.035.09c8.89 2.19 17.656 4.29 26.638 6.02 106.708 20.5 223.957-9.87 285.257-105.59 37.419-58.43 46.081-127.89 30.19-195.182-1.663-7.042-3.759-13.869-5.275-20.979"/><path fill="#c6a890" d="M370.356 1185.85c6.827-.04 13.507.15 20.29.15-1.324 1.56-2.508 3.07-3.761 4.68-8.318 24.81-27.575 50.98-44.353 70.64-2.665 3.12-7.536 6.83-8.824 10.28l-1.035-.09c-4.156 4.65-11.854 9.84-17.293 15.55-7.034-2.92-16.813-6.06-24.702-9.22 4.198-3.24 14.291-10.45 17.316-13.51 30.709-26.95 42.545-43.61 62.362-78.48"/><path fill="#b76e2f" d="M290.678 1277.84c4.198-3.24 14.291-10.45 17.316-13.51 6.209 1.53 16.589 4.8 23.18 6.75l1.499.43c-4.156 4.65-11.854 9.84-17.293 15.55-7.034-2.92-16.813-6.06-24.702-9.22"/><path fill="#b2b5bf" d="M572.605 953.921c16.301-28.052 37.781-39.786 67.512-49.768 5.675 7.712 9.819 14.656 15.065 22.096-35.978 9.298-48.142 21.859-68.072 50.938a40.5 40.5 0 0 0-6.658 13.796c-1.682-8.397-8.562-19.165-13.53-25.989 1.858-3.621 3.928-7.431 5.683-11.073"/><path fill="#c6a890" d="m572.605 953.921 1.364 1.425c6.389 6.49 9.138 14.075 13.141 21.841a40.5 40.5 0 0 0-6.658 13.796c-1.682-8.397-8.562-19.165-13.53-25.989 1.858-3.621 3.928-7.431 5.683-11.073"/><path fill="#faf9fb" d="M581.328 991.555c3.541-5.213 4.236-6.825 5.772-12.959 31.606 77.114 3.66 166.344-75.971 200.724-34.68 14.98-86.144 14.56-123.281 12-.321-.21-.642-.43-.963-.64 1.253-1.61 2.437-3.12 3.761-4.68 38.933-1.66 70.879 4.99 110.525-8.5 79.781-27.14 106.36-110.08 80.157-185.945"/><path fill="#dbdfeb" d="M1610.67 1149.43c-10.71-13.71-18.45-25.58-26.24-41.22-27.19-54.56-31.5-120.476-11.91-178.159 22.63-66.639 66.85-115.2 129.81-146.172 53.18-26.16 109.02-32.118 166.99-22.887 13.7 2.18 28.11 4.668 41.22 9.18 13.1 2.691 39.48 14.044 50.54 20.814-11.25 7.491-18.63 14.9-28.26 24.238-12.13 13.024-20.3 23.406-30.92 37.733-4.48 6.657-9 13.281-13.57 19.872-55.89-9.528-116.35-9.945-164.4 24.013a140.9 140.9 0 0 0-58.54 91.61c-6.85 40.128 1.55 79.458 19.4 115.558l-5.06 7.46c-20.77 26.48-36.42 32.87-69.06 37.96"/><path fill="#cc863d" d="M1679.73 1111.47c-27.8-43.52-38.68-99.87-24.34-149.996a155.5 155.5 0 0 1 75.74-94.735c38.86-21.473 84.35-25.144 127.68-20.727 14.28 1.456 29.28 2.965 43.09 6.945-4.48 6.657-9 13.281-13.57 19.872-55.89-9.528-116.35-9.945-164.4 24.013a140.9 140.9 0 0 0-58.54 91.61c-6.85 40.128 1.55 79.458 19.4 115.558z"/><path fill="#b2b5bf" d="M1853.27 764.835c16.26.534 31.8 3.483 48.03 4.501 4.27.268 4.67 1.282 9.24.836 13.1 2.691 39.48 14.044 50.54 20.814-11.25 7.491-18.63 14.9-28.26 24.238-1.48-3.395-6.63-7.277-9.52-9.758-24.58-21.096-55.2-32.224-86.24-38.899 4.47-2.643 9.82-1.214 16.21-1.732"/><path fill="#d4d6e1" d="M1837.06 766.567c-.01 0-5.24-.523-4.75-1.572.76-1.647 6.01-1.055 7.69-1.085 4.46-.08 8.85.14 13.27.925-6.39.518-11.74-.911-16.21 1.732"/><path fill="#dbdfeb" d="M1714.29 953.646c13.32-25.041 40.47-40.592 66.75-48.577 5.18 7.282 9.74 14.866 14.84 22.053 2.68 4.34 9.23 14.915 10.7 19.706a72.4 72.4 0 0 1 7.14 15.887c9.58 20.68 16.65 52.985 17.68 75.495 10.1 220.39-193.99 302.89-377.07 250.23l.93-.91c5.08-5.09 11.94-10.26 16.75-15.06-1.36-.35-2.77-.77-4.11-1.12l-12.42-3.14c-2.6-.66-5.21-1.28-7.82-1.86 28.69-23.99 45.56-47.93 63.86-79.66l21.12.18c37.75-1.55 72.63 5.17 109.36-7.68 78.67-27.52 107.31-111.31 80.84-186.773-2.92-8.187-9.25-20.081-14.23-27.123 2.08-4.622 3.16-7.102 5.68-11.648"/><path fill="#cc863d" d="M1813.72 962.715c9.58 20.68 16.65 52.985 17.68 75.495 10.1 220.39-193.99 302.89-377.07 250.23l.93-.91c5.08-5.09 11.94-10.26 16.75-15.06.53.1 1.07.19 1.6.31 52.4 12.84 112.62 15.41 165.37 2.73a242.36 242.36 0 0 0 150.79-108.54c5.23-7.06 16.41-30.23 18.7-38.59 2.97-4.28 6.37-18.17 7.88-23.47 9.87-34.48 10.41-72.29 4.67-107.552-1.89-11.625-5.06-23.071-7.3-34.643"/><path fill="#b2b5bf" d="M1806.58 946.828a72.4 72.4 0 0 1 7.14 15.887c2.24 11.572 5.41 23.018 7.3 34.643 5.74 35.262 5.2 73.072-4.67 107.552-1.51 5.3-4.91 19.19-7.88 23.47-2.29 8.36-13.47 31.53-18.7 38.59-1.2-3.86-1.25-2.09-4.03-.66l-1.48.75a273 273 0 0 1-28.56 33.96c-6.83 6.95-29.97 29.76-38.12 29.84 73.15-64.85 115-159.29 94.89-256.8-1.67-8.123-4.53-17.25-5.64-25.304z"/><path fill="#d4d6e1" d="M1784.26 1167.06c4.43-5.91 22.84-37.93 24.21-38.68-2.29 8.36-13.47 31.53-18.7 38.59-1.2-3.86-1.25-2.09-4.03-.66z"/><path fill="#b2b5bf" d="M1714.29 953.646c13.32-25.041 40.47-40.592 66.75-48.577 5.18 7.282 9.74 14.866 14.84 22.053-29.97 6.536-52.52 21.377-66.95 49.061-1.58 5.61-4.11 5.305-5.38 13.007-.23 1.111-.45 2.12-.71 3.227-2.92-8.187-9.25-20.081-14.23-27.123 2.08-4.622 3.16-7.102 5.68-11.648"/><path fill="#c6a890" d="M1714.29 953.646c7.66 9.072 9.13 12.593 14.64 22.537-1.58 5.61-4.11 5.305-5.38 13.007-.23 1.111-.45 2.12-.71 3.227-2.92-8.187-9.25-20.081-14.23-27.123 2.08-4.622 3.16-7.102 5.68-11.648"/><path fill="#faf9fb" d="M1723.55 989.19c1.61-2.728 3.28-5.417 5.02-8.062 5.14 2.239 10.62 31.732 11.58 38.062 11.31 74.63-36.54 150.03-109.91 168.93-16.34 4.21-83.66 7.78-100 3.34l-.74-1.28 3.14-3.31c37.75-1.55 72.63 5.17 109.36-7.68 78.67-27.52 107.31-111.31 80.84-186.773.26-1.107.48-2.116.71-3.227"/><path fill="#c6a890" d="m1511.52 1186.69 21.12.18-3.14 3.31c-1.19.84-9.46 18.88-11.45 22.83-11.39 22.61-27.59 41.06-44.33 59.44-.04.11-.07.22-.11.33-.53-.12-1.07-.21-1.6-.31-1.36-.35-2.77-.77-4.11-1.12l-12.42-3.14c-2.6-.66-5.21-1.28-7.82-1.86 28.69-23.99 45.56-47.93 63.86-79.66"/><path fill="#dbdfeb" d="M956.64 904.016c4.112 5.744 11.8 16.586 15.25 22.613 2.863 4.501 9.478 15.032 10.733 20.169 3.396 5.593 4.642 8.883 7.112 14.932 24.305 57.87 23.885 131.23.42 189.3a239.2 239.2 0 0 1-130.199 130.44c-67.503 28.46-155.369 29.13-225.23 7.48 4.972-5.41 13.942-11.24 17.44-15.8-8.047-2.56-16.087-5.15-24.347-6.93a246.4 246.4 0 0 0 35.794-36.6c2.244-2.81 4.436-5.66 6.576-8.54 9.418-12.8 14.201-21.41 22.048-34.84 7.129.09 14.255.28 21.379.56 33.139.15 72.491 1.46 103.853-8.73a131.92 131.92 0 0 0 76.257-65.65c18.129-36.42 17.617-82.3 4.771-120.291-2.647-8.255-8.538-18.883-13.226-26.279 2.108-4.428 3.395-7.362 5.894-11.698 12.574-26.459 38.862-41.396 65.475-50.136"/><path fill="#cc863d" d="M989.735 961.73c24.305 57.87 23.885 131.23.42 189.3a239.2 239.2 0 0 1-130.199 130.44c-67.503 28.46-155.369 29.13-225.23 7.48 4.972-5.41 13.942-11.24 17.44-15.8.887.3.859.36 1.636.4 95.818 22 196.292 12.29 271.674-57.71 23.107-21.46 46.374-53.69 56.946-83.62 3.16-3.63 8.538-23.58 9.882-28.69a254.6 254.6 0 0 0 4.477-106.946c-1.874-11.434-5.277-22.995-6.908-33.886z"/><path fill="#b2b5bf" d="M956.64 904.016c4.112 5.744 11.8 16.586 15.25 22.613-30.799 4.794-52.538 22.759-67.103 49.55-1.283 1.488-1.163 1.246-2.054 2.906-2.337 5.595-2.98 7.083-4.236 13.044-2.647-8.255-8.538-18.883-13.226-26.279 2.108-4.428 3.395-7.362 5.894-11.698 12.574-26.459 38.862-41.396 65.475-50.136"/><path fill="#c6a890" d="M891.165 954.152c7.059 8.069 8.924 13.094 13.622 22.027-1.283 1.488-1.163 1.246-2.054 2.906-2.337 5.595-2.98 7.083-4.236 13.044-2.647-8.255-8.538-18.883-13.226-26.279 2.108-4.428 3.395-7.362 5.894-11.698"/><path fill="#b2b5bf" d="M982.623 946.798c3.396 5.593 4.642 8.883 7.112 14.932l.138.968c1.631 10.891 5.034 22.452 6.908 33.886a254.6 254.6 0 0 1-4.477 106.946c-1.344 5.11-6.722 25.06-9.882 28.69-2.28-.24-3.665 4.01-4.916 6.38-20.419 38.73-51.02 71-86.483 96.37 2.883-4.3 5.721-7.09 9.49-10.6 59.105-55.09 97.692-135.25 92.903-217.03-1.194-20.386-6.377-40.796-10.793-60.542"/><path fill="#faf9fb" d="M902.733 979.085c2.462.896 2.584.502 3.714 3.322 14.332 36.293 14.426 77.123.35 113.593-13.23 34.27-40.167 66.17-74.305 81.51-36.715 16.51-82.122 16.76-121.932 15.7-.854-.02-1.892-.86-2.59-1.35 1.858-2 3.496-3.32 5.646-5.06 33.139.15 72.491 1.46 103.853-8.73a131.92 131.92 0 0 0 76.257-65.65c18.129-36.42 17.617-82.3 4.771-120.291 1.256-5.961 1.899-7.449 4.236-13.044"/><path fill="#c6a890" d="M692.237 1186.24c7.129.09 14.255.28 21.379.56-2.15 1.74-3.788 3.06-5.646 5.06-.872 19.3-54.195 81.95-54.168 81.69-.777-.04-.749-.1-1.636-.4-8.047-2.56-16.087-5.15-24.347-6.93a246.4 246.4 0 0 0 35.794-36.6c2.244-2.81 4.436-5.66 6.576-8.54 9.418-12.8 14.201-21.41 22.048-34.84"/><path fill="#dbdfeb" d="M153.362 1149.71C36.05 1007.68 119.646 805.531 292.327 764.178c60.8-14.56 147.253-6.634 201.352 26.022-22.738 18.781-39.634 38.719-56.628 62.594a882 882 0 0 1-12.731 20.782c-9.626-2.285-18.581-3.016-28.238-4.286-148.501-19.523-238.804 94.474-172.201 235.87l-4.985 6.92-.57.8c-17.541 24.26-36.522 32.1-64.964 36.83"/><path fill="#cc863d" d="M218.896 1112.08c-26.207-37.26-36.948-92.3-28.825-136.873a154.26 154.26 0 0 1 64.415-100.323c56.472-38.565 119.204-33.778 182.565-22.09a882 882 0 0 1-12.731 20.782c-9.626-2.285-18.581-3.016-28.238-4.286-148.501-19.523-238.804 94.474-172.201 235.87z"/><path fill="#dbdfeb" d="M948.456 761.033c55.024-12.693 137.384 2.362 186.354 30.24-26.67 23.165-39.08 35.046-59.69 64.127l-12.11 19.645c-58.06-9.649-112.777-14.247-163.572 22.426a139.36 139.36 0 0 0-56.196 91.947c-5.558 35.882 2.187 81.022 19.881 112.782l-5.019 7.64c-6.708 9.37-17.416 22.45-28.057 27.66-4.537 2.67-7.252 4.28-12.187 6.38-8.341 3.43-16.271 5.2-25.078 6.86-49.018-55.08-65.605-141.23-44.9-211.401 4.475-16.23 15.166-43.202 24.792-57.335.365-1.135 1.879-3.959 2.511-5.01 21.517-35.816 54.937-65.666 91.044-86.237 6.925-3.946 19.079-10.445 26.48-12.463 11.89-6.773 42.239-15.919 55.747-17.261"/><path fill="#faf9fb" d="M892.709 778.294c11.89-6.773 42.239-15.919 55.747-17.261 3.192.122 6.641-.322 8.847 1.258-2.302 1.875-23.091 7.185-25.441 7.242-65.465 22.263-127.051 70.867-158.958 133.436-22.793 44.697-22.322 85.048-7.516 132.561 2.418 7.75 17.144 42.79 22.665 47.79 3.154-4.16-.501-2.56 2.057-4.95 6.269 10.09 10.793 20.45 17.191 30.72 4.331 6.94 19.902 22.96 22.746 28.41-4.537 2.67-7.252 4.28-12.187 6.38-8.341 3.43-16.271 5.2-25.078 6.86-49.018-55.08-65.605-141.23-44.9-211.401 4.475-16.23 15.166-43.202 24.792-57.335.365-1.135 1.879-3.959 2.511-5.01 21.517-35.816 54.937-65.666 91.044-86.237 6.925-3.946 19.079-10.445 26.48-12.463"/><path fill="#dbdfeb" d="M747.882 939.339c2.743-2.703 4.414-5.403 7.266-8.197-13.651 61.812-4.192 117.548 29.507 171.658 6.49 10.42 23.583 33.97 33.205 41.08-8.341 3.43-16.271 5.2-25.078 6.86-49.018-55.08-65.605-141.23-44.9-211.401"/><path fill="#d4d6e1" d="M772.674 882.004c-1.274 5.909-3.629 9.966-6.144 15.45-4.423 9.646-7.459 18.895-10.351 29.069a72 72 0 0 0-1.031 4.619c-2.852 2.794-4.523 5.494-7.266 8.197 4.475-16.23 15.166-43.202 24.792-57.335"/><path fill="#cc863d" d="M858.104 1109.84c-28.787-39.36-37.047-101.09-25.056-147.739a151.76 151.76 0 0 1 71.112-93.556c50.634-29.506 115.81-27.697 170.96-13.145l-12.11 19.645c-58.06-9.649-112.777-14.247-163.572 22.426a139.36 139.36 0 0 0-56.196 91.947c-5.558 35.882 2.187 81.022 19.881 112.782z"/><path fill="#dbdfeb" d="M472.461 1150.47c-63.942-73.51-68.4-184.082-20.346-266.253 34.287-58.633 89.775-100.166 154.871-118.529 64.74-18.262 148.115-7.899 206.139 24.967-23.477 19.318-40.289 37.336-57.489 62.386-4.193 6.627-8.908 13.751-12.863 20.456-29.244-5.877-65.152-9.122-94.634-3.656C530.769 891.599 493.701 1004.3 543.95 1103.9l-4.643 7.65c-18.518 25.09-37.189 33.28-66.846 38.92"/><path fill="#cc863d" d="M539.307 1111.55a227 227 0 0 1-2.247-3.34c-25.398-38.62-34.938-92.57-25.315-137.848a154.66 154.66 0 0 1 68.843-98.597c52.533-33.54 116.443-31.458 175.048-18.724-4.193 6.627-8.908 13.751-12.863 20.456-29.244-5.877-65.152-9.122-94.634-3.656C530.769 891.599 493.701 1004.3 543.95 1103.9z"/><path fill="#faf9fb" d="M463.871 1061.72c2.73 1.96 3.265 4.85 4.001 8.22-4.355.15-3.567-4.01-4.001-8.22"/><path fill="#dbdfeb" d="M1338.07 758.875c5.27-.176 8.89.453 14.02 1.075 9.29.354 9.8.551.75 4.832-7.46 4.428-14.99 8.769-22.15 13.695-26.08 20.074-53.76 45.26-72.32 72.346-2.18 3.418-15.2 24.838-16.95 26.432-12.59 11.513-24.87 17.276-37.91 30.259-40.02 39.867-49.98 93.346-38.35 147.036 3.86 17.88 10.33 35.1 19.19 51.1l-5.48 7.4c-8.26 10.54-14.94 17.44-26.47 24.64-4.64 2.35-8.45 4.35-13.37 6.15-8.79 3.65-16.62 4.8-25.97 6.01-24.05-24.42-43.77-70.71-50-104.31a226.9 226.9 0 0 1 13.75-131.03c3.53-8.56 9.64-22.032 14.81-29.498 3.29-7.299 10.7-18.17 15.41-24.764 36.55-51.185 102.53-88.403 164.76-97.496 9.34-1.452 22.27-2.514 31.68-2.816 3.84-1.147 14.31-1.161 18.67-1.2q7.965-.237 15.93.139"/><path fill="#faf9fb" d="M1271.79 762.752c9.34-1.452 22.27-2.514 31.68-2.816l-1.7.646c-3.86 1.542-7.9 1.184-11.74 1.94-3.4.671-7.76 2.07-11.23 3.059-2.33.844-4.33 1.662-6.61 2.611-1.89.092-2.37.342-4.3.873-95.27 15.122-212.15 127.988-190.81 230.965 6.17 29.8 14.28 60.73 32.69 85.68l.48.66c-1.25-4.04-6.75-20.24-5.55-23.09 1.46 2.48 1.2 2.41 2.14 4.71 11.88 29.36 24.21 47.27 45.56 69.7-4.64 2.35-8.45 4.35-13.37 6.15-8.79 3.65-16.62 4.8-25.97 6.01-24.05-24.42-43.77-70.71-50-104.31a226.9 226.9 0 0 1 13.75-131.03c3.53-8.56 9.64-22.032 14.81-29.498 3.29-7.299 10.7-18.17 15.41-24.764 36.55-51.185 102.53-88.403 164.76-97.496"/><path fill="#dbdfeb" d="M1091.62 885.012c-.97 6.434-5.59 15.038-8.1 21.442a254 254 0 0 0-9.63 29.862c-13.69 54.296 2.31 126.134 34.06 171.364 5.56 7.93 23.46 31.56 31.08 36.16-8.79 3.65-16.62 4.8-25.97 6.01-24.05-24.42-43.77-70.71-50-104.31a226.9 226.9 0 0 1 13.75-131.03c3.53-8.56 9.64-22.032 14.81-29.498"/><path fill="#cc863d" d="M1258.37 850.823c-2.18 3.418-15.2 24.838-16.95 26.432-12.59 11.513-24.87 17.276-37.91 30.259-40.02 39.867-49.98 93.346-38.35 147.036 3.86 17.88 10.33 35.1 19.19 51.1l-5.48 7.4a228.3 228.3 0 0 1-23.45-49.54c-14.18-43.51-12.01-93.164 8.97-134.152a160.45 160.45 0 0 1 93.98-78.535"/><path fill="#cc863d" d="M1338.07 758.875c5.27-.176 8.89.453 14.02 1.075 9.29.354 9.8.551.75 4.832-7.46 4.428-14.99 8.769-22.15 13.695-3.92-.754-7.81-1.636-11.68-2.644-5.41-1.389-9.71-2.292-15.29-3.087-1.46-2.669-1.31-2.779-1.72-5.801 3.51-.879 7.09-1.903 10.51-2.747 3.43-.856 6.89-1.629 10.36-2.32-.2-1.608-.16-1.694-.73-3.142q7.965-.237 15.93.139"/><path fill="#c6a890" d="M1322.14 758.736q7.965-.237 15.93.139c-5.18 1.336-9.8 2.73-15.2 3.003-.2-1.608-.16-1.694-.73-3.142"/><path fill="#e0d9d3" d="M1303.47 759.936c3.84-1.147 14.31-1.161 18.67-1.2.57 1.448.53 1.534.73 3.142-3.47.691-6.93 1.464-10.36 2.32-3.42.844-7 1.868-10.51 2.747.41 3.022.26 3.132 1.72 5.801l-1.69.302c-3.91.359-17.47 1.85-19.75-.655-3.65-1.604-6.52-2.216-10.09-4.201 2.28-.949 4.28-1.767 6.61-2.611 3.47-.989 7.83-2.388 11.23-3.059 3.84-.756 7.88-.398 11.74-1.94z"/><path fill="#c9996a" d="M1287.53 771.766c5.13-2.007 9.7-3.052 14.47-4.821.41 3.022.26 3.132 1.72 5.801l-1.69.302c-4.94-.892-9.49-.907-14.5-1.282"/><path fill="#d4d6e1" d="M1267.89 769.065c1.93-.531 2.41-.781 4.3-.873 3.57 1.985 6.44 2.597 10.09 4.201-4.93-.343-10.37-.376-14.39-3.328"/><path fill="#dbdfeb" d="M1389.58 956.221c11.06-26.989 45.46-42.059 71.43-49.476 4.25 5.642 7.96 11.678 12.25 17.288l.98 1.319c2.22 3.947 10.44 18.159 11.4 21.521 2.97 4.685 3.85 6.689 6 11.838 4.12 7.953 8.4 21.557 10.79 30.37a254.8 254.8 0 0 1-2.78 143.159c-20.23 63.94-58.2 108.92-117.65 140.66-30.92 16.5-85.8 31.06-121.48 29.26-7.11.93-28.08.22-36.13-.32-.93.27-1.99.74-2.88.16-.28-1.28 2.32-2.64 3.16-3.22 8.72-5.38 16.77-12.61 24.01-17.22 28.31-23.46 51.04-44.97 72.62-75.01 5.32-7.41 14.36-27.03 19.76-31.66 4.88-4.19 17.81-12.31 24.85-17.94l.93-.49c52.13-49.14 58.12-99.57 32.52-165.722l-.75-.598c-2.65-8.389-8.53-17.862-13.32-25.299.81-1.824 1.56-3.658 2.51-5.413z"/><path fill="#cc863d" d="M1491.64 958.711c4.12 7.953 8.4 21.557 10.79 30.37a254.8 254.8 0 0 1-2.78 143.159c-20.23 63.94-58.2 108.92-117.65 140.66-30.92 16.5-85.8 31.06-121.48 29.26-7.11.93-28.08.22-36.13-.32-.93.27-1.99.74-2.88.16-.28-1.28 2.32-2.64 3.16-3.22 8.72-5.38 16.77-12.61 24.01-17.22 9.93.86 17.93-.29 27.73-.48 4.16.53 6.3-.09 10.5-.77 25.45-3.38 41.47-6.16 65.79-15.73a237.46 237.46 0 0 0 130.71-126.43c19.71-35.32 24.18-106.91 16.06-146.874-2.12-10.477-5.78-21.367-7.68-31.691z"/><path fill="#b76e2f" d="M1224.67 1298.78c8.72-5.38 16.77-12.61 24.01-17.22 9.93.86 17.93-.29 27.73-.48-9.61 8.65-20.7 13.82-31.54 20.56 5.91.08 9.68-.06 15.65.52-7.11.93-28.08.22-36.13-.32-.93.27-1.99.74-2.88.16-.28-1.28 2.32-2.64 3.16-3.22"/><path fill="#c6a890" d="M1365.91 1156.95c-.91 24.2-50 91.44-68.75 107.93-2.77 2.43-15.83 12.81-16.13 14.7 2.26.37 3.61.59 5.88.73-4.2.68-6.34 1.3-10.5.77-9.8.19-17.8 1.34-27.73.48 28.31-23.46 51.04-44.97 72.62-75.01 5.32-7.41 14.36-27.03 19.76-31.66 4.88-4.19 17.81-12.31 24.85-17.94"/><path fill="#b2b5bf" d="M1485.64 946.873c2.97 4.685 3.85 6.689 6 11.838l.15.874c1.9 10.324 5.56 21.214 7.68 31.691 8.12 39.964 3.65 111.554-16.06 146.874l-.39-.19c-2.34.37-14.76 22.8-18.27 27.66-13.89 19.2-43.57 53.01-64.26 62.61 7.14-7.64 14.77-14.66 21.81-22.52 48.29-53.85 78.72-124.56 73.9-197.74-1.36-20.631-6.09-40.89-10.56-61.097"/><path fill="#b2b5bf" d="M1389.58 956.221c11.06-26.989 45.46-42.059 71.43-49.476 4.25 5.642 7.96 11.678 12.25 17.288l.98 1.319c-31.87 5.983-54.66 23.036-70.53 50.97-3.03 5.839-4.59 6.11-5.05 13.156l-.05.662c-2.65-8.389-8.53-17.862-13.32-25.299.81-1.824 1.56-3.658 2.51-5.413z"/><path fill="#c6a890" d="m1389.58 956.221.86 1.001c5.56 5.157 8.19 9.164 11.28 15.994.71 1.064 1.32 2.024 1.99 3.106-3.03 5.839-4.59 6.11-5.05 13.156l-.05.662c-2.65-8.389-8.53-17.862-13.32-25.299.81-1.824 1.56-3.658 2.51-5.413z"/><path fill="#faf9fb" d="M1399.36 990.738c.93-3.691.96-5.116 3.56-7.929 1.85.01 2.06-.321 3.01.965 11.35 15.322 16.57 49.116 16.34 66.756-.54 42.41-16.9 74.23-46.89 103.17-2.68 2.58-2.99 3.24-6.35 4.71l-1.66-.29-.53-1.66c52.13-49.14 58.12-99.57 32.52-165.722"/><path fill="#262628" d="M82.198 1108.78c2.354 2.48 19.717 35.74 23.883 42.64-3.346.13-6.488.14-9.83.18l-26.087.36.528-1.54c2.33-6.46 5.362-14.88 7.038-21.44l1.005-4c1.32-5.38 2.05-10.91 3.463-16.2"/><path fill="#262628" d="M65.688 906.5c3.694-.23 8.474-.019 12.273.035l-.47 1.403c-1.088 3.344-11.655 37.967-12.007 38.058-.824-.339-1.393-1.569-1.804-2.3-.518-1.229-1.02-2.463-1.586-3.671a270 270 0 0 0-18.54-33.356q11.068.105 22.134-.169"/><path fill="#262628" d="M1042.56 1109.74c2.04 1.96 12.17 22.54 14.58 27.13 5.06 9.65 13.21 13.78 1.11 13.29-8.6 0-17.67.16-26.21-.02 5.05-13.66 7.95-26.16 10.52-40.4"/><path fill="#262628" d="M1004.14 906.71c11.53.132 22.16.928 33.58 2.36l-1.89 5.905-7.56 23.344c-.56 3.004-1.48 6.428-2.29 9.385a222.5 222.5 0 0 0-21.84-40.994"/><path fill="#262628" d="M1506.51 905.915c11.51.173 22.3.913 33.76 1.432a856 856 0 0 0-9.52 27.444c-.91 3.537-1.86 6.937-2.82 10.452a190.7 190.7 0 0 0-21.42-39.328"/><path fill="#262628" d="M1828.39 906.461c12.19.172 21.17 1.107 32.94 1.797-3.39 8.332-6.9 17.87-9.34 26.512-.73 3.326-2.09 6.99-3.03 10.37-4.05-8.268-7.49-16.458-12.16-24.537-2.7-4.663-6.06-9.406-8.41-14.142"/><path fill="#262628" d="M366.184 905.748c10.828.178 21.882 1.212 32.629 2.513-3.339 8.545-6.445 17.062-9.036 25.869-.946 3.765-1.794 7.619-2.732 11.305-6.332-16.017-13.419-25.198-20.861-39.687"/><path fill="#262628" d="M686.181 904.938c10.579.987 21.553 1.757 32.168 2.144-2.181 5.726-6.888 19.148-8.287 25.113q-1.572 5.595-3.036 11.22c-6.347-14.859-12.66-24.975-20.845-38.477"/><path fill="#262628" d="M723.148 1116.78c.569.57 20.159 33.21 20.338 33.75-1.577 1.61-7.435.93-9.558.9-1.625.02-3.308 0-4.927.07q-7.858.33-15.723.45c4.578-12.6 6.178-23.3 9.87-35.17"/><path fill="#262628" d="M403.308 1114.63c1.398 1.23 9.342 14.71 9.683 16.35 1.855 8.93 18.215 19.48 4.259 18.99l-23.199-.14c3.565-11.98 6.102-23.28 9.257-35.2"/><path fill="#b76e2f" d="M610.309 1279.61c5.951-4.43 11.642-8.89 17.51-13.39 8.26 1.78 16.3 4.37 24.347 6.93-3.498 4.56-12.468 10.39-17.44 15.8-5.131-2.75-17.87-6.57-24.417-9.34"/><path fill="#b76e2f" d="M1429.89 1279.75c5.99-4.41 11.85-8.99 17.77-13.4 2.61.58 5.22 1.2 7.82 1.86l12.42 3.14c1.34.35 2.75.77 4.11 1.12-4.81 4.8-11.67 9.97-16.75 15.06l-.93.91c-8.53-2.86-15.29-5.31-23.63-8.4z"/><path fill="#b76e2f" d="M946.372 1264.82c7.728 2.35 15.829 4.09 23.561 6.38-.736 2.7-14.536 13.15-17.392 15.72-8.224-2.91-15.669-5.64-23.746-9 5.512-4.04 12.161-9.36 17.577-13.1"/><path fill="#262628" d="M1545.07 1116.62c2.52 2.47 4.57 8.15 6.35 11.63 3.74 7.34 7.81 14.34 12.04 21.35 1.27 2.11-10.27 1.45-10.71 1.45l-17.74.46c2.21-7.11 5.23-15.37 6.88-22.54.95-4.14 2.01-8.26 3.18-12.35"/><path fill="#262628" d="M1865.35 1118.69c3.67 3.69 12.88 25.77 17.38 31.06 1.17 1.37-3.89 1.17-4.48 1.17l-21.24.13c2.81-10.86 5.6-21.48 8.34-32.36"/><path fill="#c6a890" d="M1218.63 942.925c-.1 2.235-6.82 30.519-7.15 30.653-.46-.199-.92-.892-1.18-1.206-.69-.953-4.07-5.286-4.01-6.008.44-5.892 9.19-19.362 12.34-23.439"/><path fill="#544132" d="m1367.66 1104.24 1.03.12c-.15.47-.3.94-.46 1.41-.35.3-.71.6-1.06.91.15-.93.25-1.46.49-2.44"/></svg>