<svg xmlns="http://www.w3.org/2000/svg" width="2048" height="2048" viewBox="0 0 2048 2048"><path fill="#262832" d="M0 0h2048v2048H0z"/><path fill="#030d15" d="M1206.65 298.558c1.61-.127 3.23-.222 4.84-.284 48.61-2.084 126.36 16.286 169.06 40.115 75.61 42.193 150.76 94.724 220.06 146.832 5.18 3.897 22.23 26.086 26.73 32.674 165.21 241.932 49.51 568.335-92.07 792.355-63.18 100.69-143.84 189.34-237.13 262.77-66.89 52.65-131.43 91.75-207.25 129.58-73.56 36.7-142.314 49.3-223.39 52.3-55.348.86-73.861 1.27-126.778-19.92-68.152-27.28-125.576-64.35-179.224-114.64-24.052-22.55-44.678-45.61-65.688-71.04-14.778-14.81-29.392-28.13-42.584-44.54-93.394-116.16-101.868-271.14-73.329-411.94 37.974-187.352 133.629-356.312 261.965-496.432a1031.4 1031.4 0 0 1 287.559-219.631c18.506-9.66 37.757-20.403 56.963-28.326a670.4 670.4 0 0 1 220.266-49.873"/><path fill="#3d839b" d="M1193.62 310.43c2.59-.125 5.19-.233 7.79-.324 83.96-2.865 173.27 24.413 235.65 81.646 84.02 77.081 121.53 183.307 124.46 295.387.39 14.854.85 30.558-.67 45.39-.76 8.296-3.86 16.126-4.29 24.49-1.69 32.809-5.99 67.228-13.87 99.232-10.28 41.733-18.89 88.098-36.46 127.078-.51 1.144-2.35-2.426-4.49 3.912-13.11 38.829-25.04 77.969-45.45 113.779-2.32 4.07-7.94 7.1-10.19 11.98-6.38 13.89-13.41 27.66-20.81 41.05-31.44 53.27-67.1 102.45-107.21 149.52-17.5 20.53-33.43 42.35-51.28 62.53-4.66 5.26-19.65 17.03-25.69 22.15a2291 2291 0 0 1-59.42 49.27c-18.56 14.96-42.41 35.02-61.42 48.61-27.66 19.27-57.24 34.79-86.25 51.59-18.71 10.83-33.41 21.99-53.744 31.4-34.091 15.76-68.149 29.14-105.253 36.24-9.16 1.75-18.573 4.91-27.895 6.22-33.164 3.19-66.037 8.65-99.378 9.59a318.4 318.4 0 0 1-135.663-21.56c-10.757-4.33-21.362-10.79-31.991-14.84-124.982-47.62-193.617-181.63-202.021-312.27-14.708-228.61 99.582-469.108 247.261-639.77 138.39-159.929 351.275-306.94 568.284-322.3"/><path fill="#030d15" d="M1173.33 354.409c86.51-6.802 185.9 28.424 246.03 90.811 31.18 32.349 59.13 74.421 74.27 116.654 29.74 82.975 30.82 168.18 17.48 254.39a915 915 0 0 1-9.67 53.506c-2.69 12.673-7.12 29.347-9.66 42.162l.33 3.174c-49.17 169.594-146.16 317.934-268.8 443.734-11.29 11.58-25.47 22.97-37.85 33.46a1085 1085 0 0 1-133.99 98.74c-14.73 9.35-45.6 28.64-60.854 35.1-63.861 27.04-158.675 54.48-227.866 55.78-54.807 1.24-124.187-16.29-174.28-39.31-19.939-10.95-42.403-26.06-59.197-41.36-111.475-101.54-130.645-262.96-103.455-403.8 32.767-169.725 118.597-326.594 232.09-455.097a982.2 982.2 0 0 1 227.489-188.989c14.23-8.578 27.816-18.507 42.634-26.089 78.249-40.04 157.249-67.422 245.299-72.866"/><path fill="#ecedef" d="M1183.36 365.472c86.82-.316 166.36 26.033 228.22 88.04 68.49 68.646 97.81 167.906 97.16 262.905-1.59 233.979-124.43 462.243-285.7 624.623a982.2 982.2 0 0 1-157.24 127.32c-10.14 6.62-27.57 18.43-38 23.88-88.995 46.47-176.419 76.42-276.95 76.88-75.075-.63-162.775-29.01-218.175-80.93-71.244-66.76-103.689-161.39-106.624-257.71-6.611-216.92 112.579-444.497 256.946-599.954 94.315-101.562 242.465-205.94 376.873-245.362a463.3 463.3 0 0 1 123.49-19.692"/><path fill="#030d15" d="M940.285 510.347c17.554 8.022 45.597 28.027 62.645 38.723 41.83 26.246 95.59 59.286 133.92 90.224l-1.17 3.07c-41.36-13.676-77.92-1.811-111.23 25.076-48.362 39.03-100.422 155.922-53.149 210.777a107.6 107.6 0 0 0 72.749 36.785c47.84 3.469 92.06-25.16 127.02-54.872 56.96-48.417 82.78-120.271 28.56-181.442 43.76 24.683 175.58 106.411 205.55 142.682-7.3-5.866-17.03-8.888-26.22-10.168-66.43-9.248-100.58 41.782-140.44 82.404a397 397 0 0 1-52.88 45.064c-63.3 45.529-127.85 66.66-205.978 53.946 26.658 27.624 33.918 48.314 40.198 86.494 11.4 69.25-16.73 136.38-46.589 197.26-13.564 27.66-29.439 53.59-34.768 84.58-5.062 29.1 4.156 58.44 20.938 82.24-17.756-12.37-35.125-25.05-52.694-37.63-15.305-12.36-40.806-23.58-55.051-36.13-26.732-23.54-64.837-44.24-88.848-68.92 145.215 68.34 274.322-236.89 104.483-267.98-40.975-7.5-83.189 10.52-115.962 33.95-64.199 45.89-103.395 121.57-51.601 192.33-31.93-15.69-48.679-31.85-76.36-50.42-38.444-25.79-84.747-52.63-117.547-85.84a79.8 79.8 0 0 0 24.129 7.11c34.061 4.69 67.422-10.48 93.028-32.1 12.853-11.68 24.638-24.59 37.053-36.77 72.523-71.106 147.496-122.445 255.052-106.586-60.457-91.122-39.169-179.941 9.468-269.565 7.358-14.725 18.552-28.627 25.304-43.557 22.698-50.194 25.346-84.659-9.61-130.735"/><path fill="#262832" d="M1136.85 639.294c.91.903 4.09 3.608 4.25 4.972-.63.4-4.7-1.602-5.42-1.902z"/><path fill="#ecedef" d="M1452.94 1121.37c9.43 6.45 30.44 23.32 38.5 30.83 5.16 4.81 20.02 24.44 25.08 30.85l45.62 58.36a1142.3 1142.3 0 0 1-135.42 195.12l-6.22-3.66c-4.15-2.32-15.56-8.56-18.81-11.42-17.37-16.78-34.73-36.61-50.64-54.87-18.87-21.68-20.11-20.63-46.31-33.06 52.21-56.71 114.52-142.98 148.2-212.15"/><path fill="#ecedef" d="M1222.98 1415.8c8.76 5.21 42.13 28.63 48.05 35.34 20.04 22.77 48.33 49.37 66.35 73.03-22.43 21.55-37.44 32.67-61.71 51.2-35.78 27.6-73.23 52.97-112.12 75.99-5.27-3.1-10.78-6.69-16-9.94-15.52-8.8-28.36-23.63-41.26-36.44a2818 2818 0 0 0-39.02-38.29c-16.08-2.1-32.05-4.92-47.87-8.43 73.38-39.07 141.74-86.9 203.58-142.46"/><path fill="#ecedef" d="M1566.2 765.436c11.77 7.332 33.55 28.361 44.71 38.001 8.68 7.492 22.98 26.618 30.84 36.074a4747 4747 0 0 1 46.61 56.467c-10.13 69.656-33.69 142.872-59.04 208.282-1.35 3.38-1.47 3.9-3.53 7.04-17.72-1.92-39.93-32.06-49.93-45.15l-35.66-46.67c-11.85-15.49-11.54-16.33-28.13-26.524 32.09-70.954 48-150.206 54.13-227.52"/><path fill="#ecedef" d="m887.308 1612.15 1.21-.28c6.156 1.43 15.922 7.06 22.177 9.99 49.164 23.04 91.035 56.77 134.985 88.58-53.301 12.03-118.381 26.43-171.679 30.9-2.754.5-3.811.42-6.583.43-9.596-4.62-46.042-30.42-56.887-37.81l-47.575-32.49c-22.328-15.39-27.748-19.95-45.931-39.72a615.3 615.3 0 0 0 170.283-19.6"/><path fill="#ecedef" d="M1508.51 461.784c6.86 3.568 31.98 23.391 39.79 29.286 29.98 22.9 60.24 45.444 90.76 67.628 3.29 9.577 13.75 28.874 18.49 40.246 16.78 40.309 32.1 90.779 34.76 134.518-42.09-34.639-83.3-72.776-124.9-108.153-8.68-63.987-26.56-108.556-58.9-163.525"/><path fill="#ecedef" d="M542.136 1581.58c4.983 1.05 48.513 22.89 54.186 26.03 19.378 10.73 41.018 30.99 58.465 44.96 27.75 22.23 55.55 44.58 82.666 67.6-4.547-.56-24.518-10.46-29.572-13.08-58.304-30.25-122.038-76.38-165.745-125.51"/><path fill="#3d839b" d="m1262.12 230.583.94.083c12.65.999 26.39-.332 39.2.082 16.17.522 32.15 1.427 48.2 3.543 191.14 25.213 388.44 145.139 392.57 357.476l-2.29 4.6c-10.13-77.597-56.52-153.648-112.15-207.163-80.37-77.305-182.82-126.347-291.99-147.184-18.18-3.47-50.79-9.189-68.94-8.962-1.86-.85-3.66-1.676-5.54-2.475"/><path fill="#3d839b" d="m361.489 1489.47 2.015-2.23c32.395 112.05 113.287 201.36 214.373 257.12a451.8 451.8 0 0 0 198.805 56.69c3.511.94 4.79.91 8.043 2.54a405.38 405.38 0 0 1-277.706-75.4c-81.825-59.13-129.546-139.72-145.53-238.72"/><path fill="#477286" d="M776.682 1801.05c6.946-.16 13.895-.13 20.841.07-4.396.89-8.416 1.65-12.798 2.47-3.253-1.63-4.532-1.6-8.043-2.54"/><path fill="#3b5463" d="M361.489 1489.47c-1.611-10.37.084-13.8 2.015-2.23z"/><path fill="#3b5463" d="m1740.74 596.367 2.29-4.6c0 1.689.41 8.619-1.29 9.618l-.12-.041c-.84-2.035-.69-2.588-.88-4.977"/><path fill="#3b5463" d="M1267.66 233.058c-1.23-.046-8.66.028-9.03-1.343.49-.833 2.75-.991 3.49-1.132 1.88.799 3.68 1.625 5.54 2.475"/></svg>