<svg xmlns="http://www.w3.org/2000/svg" width="2048" height="2048" viewBox="0 0 2048 2048"><path fill="#19191d" d="M0 0h2048v2048H0z"/><path fill="#17bcc4" d="M695.509 452.444c178.07-2.674 400.241 93.683 549.031 188.126a1410 1410 0 0 1 195.9 149.535c110.58 100.041 251.17 270.105 260.58 426.395 2.89 47.91-13.29 98.77-46.53 134.19-47.4 50.51-116.32 66.86-183.1 69.5l-4 .19c-45.64 2.01-105.51-5.68-150.31-15.5-214.86-47.15-436.237-173.93-597.9-321.81-108.775-99.497-245.487-262.858-253.396-417.756-2.637-51.648 12.271-105.325 48.463-143.313 48.973-51.404 113.307-67.095 181.262-69.557"/><path fill="#19191d" d="M736.601 486.428c58.398-3.48 128.867 8.455 185.174 23.914 176.775 48.534 351.175 150.296 488.715 271.02 104.79 91.983 235.67 241.548 246.93 388.188 3.84 49.94-10.13 103.11-44.16 140.84-45.13 50.03-110.62 69.28-176.01 72.66-226.18 10.6-507.248-141.55-673.34-287.86-109.218-96.202-240.6-245.912-250.28-398.573-3.217-50.743 11.557-101.985 46.647-139.38 47.44-50.556 109.89-67.326 176.324-70.809"/><path fill="#f3f3f3" d="M740.651 516.434c207.281-7.614 469.879 134.994 625.249 266.305 106.19 89.745 245.42 236.881 260.62 384.001 4.39 42.42-6.74 89.33-35.49 121.59-42 47.15-97.19 60.32-157.29 64.6-220.32 7.43-482.999-135.42-646.011-276.68-102.168-88.541-231.938-234.148-242.893-376.651-3.355-43.632 7.139-86.986 36.914-119.902 41.763-46.168 99.428-59.735 158.901-63.263"/><path fill="#f3f3f3" d="M576.531 976.661c15.921 16.537 30.676 36.339 46.634 53.409 179.167 191.69 433.435 348 690.245 405.6-28.74 16.13-62.43 32.49-91.94 47.43l-110.77 56.76c-30.75-9.47-77.64-29.32-106.92-42.27-163.011-72.1-343.104-188.83-461.217-322.73 11.13-64.48 21.364-134.33 33.968-198.199"/><path fill="#f3f3f3" d="m1608.21 1421.17.5.48c-.06.31-.11.62-.17.92-23.28 35.02-47.53 73.01-72.67 106.49-5.22 6.95-19.28 17.05-24.5 20.14-85.08 50.35-200.32 39.74-291.73 18.64l-19.49-4.63c19.52-12.99 44.36-27.17 64.75-39.4l128.07-76.17c74.03 6.52 146.18 4.47 215.24-26.47"/><path fill="#f3f3f3" d="M453.81 767.512c3.903 4.999 21.469 48.655 26.436 58.844a702.6 702.6 0 0 0 52.763 90.628c-7.723 52.735-24.189 148.266-33.908 205.666l-1.473 1.23-1.86-1.39c-29.85-35.7-60.904-77.93-82.926-119 14.654-77.864 26.888-157.734 40.968-235.978"/><path fill="#f3f3f3" d="M405.691 1137.8c3.53 3.19 25.384 32.3 30.29 38.29a1254 1254 0 0 0 66.372 74.65 1465.9 1465.9 0 0 0 337.88 255.11c26.432 14.54 53.264 28.96 80.893 41.14-2.339 4.77-5 10.96-8.241 14.99l-2.151-.18c-39.995-18.04-85.463-43.74-123.058-66.17a1417.4 1417.4 0 0 1-340.802-279.66c-18.623-21.29-37.905-46.23-55.179-68.64z"/><path fill="#f3f3f3" d="M436.588 613.745c.399 7.362-1.323 16.236-1.442 23.745-.66 41.562-10.193 82.091-17.521 123.165a13755 13755 0 0 1-31.558 173.66c-3.029-7.093-5.468-13.749-8.103-21.006a370 370 0 0 1-10.575-37.854c-8.168-37.229-17.824-96.924-4.071-132.309 5.587-14.375 23.438-44.023 32.138-58.422 13.637-22.569 27.104-49.017 41.132-70.979"/><path fill="#f3f3f3" d="M1233.03 524.337c6.74 1.953 43.7 24.984 52.3 30.345 114.45 71.318 230.13 163.899 318.75 266.02-3.53 2.852-7.38 6.52-10.8 9.605l-1.06.839-1.76.007c-15.07-16.414-45.32-48.437-60.06-62.885-91.54-89.733-194.78-165.836-305.74-229.212z"/><path fill="#f3f3f3" d="M360.507 617.998c2.941 1.347 6.02 7.15 8.208 10.38-34.744 20.876-63.684 47.897-80.591 85.111-47.121 103.725-3.892 231.551 50.614 322.851l-11.327 6.48c-.376.16-2.758.7-3.236.82-5.011-3.56-17.401-28.43-20.897-34.98-66.142-123.922-92.446-313.148 57.229-390.662"/><path fill="#f3f3f3" d="m1634.86 1484.68 17.05 2.13c-14.03 139.75-145.4 196.8-270.48 198.03-20.92.21-41.16-.88-62.07-2.06l-15.74-1.83c.53-5.33 1.4-11.07 2.11-16.43 139.16 13.32 306.19-11.77 329.13-179.84"/><path fill="#f3f3f3" d="M1745.2 1025.95c.32.16.64.33.96.49 55.88 104.54 84.58 254.78 4.91 354.67-14.48 18.16-45.62 42.73-54.82 43.62l-8.15-11.02c37.69-20.92 67.07-58.46 80.66-98.95 32.23-96.08 5.17-193.28-36.84-280.54z"/><path fill="#f3f3f3" d="m658.768 361.413 13.277-.493.027 16.805a352.2 352.2 0 0 0-115.922 21.299c-66.084 24.746-117.619 72.078-134.646 141.116-1.194 4.843-3.62 19.969-5.729 23.27-5.443-.781-10.887-1.317-16.353-1.9a204 204 0 0 1 47.207-109.024c55.098-63.832 131.624-85.188 212.139-91.073"/><path fill="#f3f3f3" d="M927.571 395.708c87.699 23.478 172.479 59.195 253.389 100.123l-6.51 12.928-.75 1.249c-4.57 1.164-15.11-5.54-20.02-7.985-73.11-36.402-150.6-68.275-229.682-89.321z"/><path fill="#f3f3f3" d="M1008.07 1586.18c5.59 1.88 12.01 4.61 17.52 6.83 52.2 21.01 105.23 35.65 159.75 49.21-.85 5.34-1.26 9.28-3.12 14.4l-2.42.66a1005 1005 0 0 1-178.7-55.33z"/><path fill="#f3f3f3" d="M1642.69 867.976c12.83 11.805 50.05 65.906 60.29 81.774-4.99 3.427-8.9 6.067-14.14 9.179-2.61-2.441-4.96-7.273-7.06-10.323-16.4-23.892-33.35-48.123-52.26-70.082 4.32-3.55 8.8-6.981 13.17-10.548"/><path fill="#f3f3f3" d="M751.956 363.536c24.473 2.198 46.84 5.141 71.157 8.867a336 336 0 0 1-1.833 15.373c-.041.037-1.052.993-1.103.987-13.565-1.539-58.107-7.144-68.521-8.121q.105-8.555.3-17.106"/></svg>