<svg xmlns="http://www.w3.org/2000/svg" width="2048" height="2048" viewBox="0 0 2048 2048"><path fill="#272531" d="M0 0h2048v2048H0z"/><path fill="#020202" d="M1009.66 219.443c155.53-8.2 327.84 56.271 451.78 146.75 19.97 14.578 70.68 52.279 84.19 71.424a59.2 59.2 0 0 1 10.23 24.842c1.79 11.52.26 23.31-4.41 33.993-7.42 16.979-48.66 62.455-62.43 81.701 10.45-5.643 30.2-14.009 41.59-19.217 19.02-7.425 38.74-20.173 58.6-24.9 39.81-9.473 59.69 22.371 77.91 49.355a754 754 0 0 1 85.4 167.586c9.89 27.858 23.13 62.08 3.51 88.121-17.06 22.642-32.19 44.686-47.98 68.246 35.59 13.259 91.77 24.247 96.05 70.181 3.19 34.165-.31 71.605-3.22 105.775-12.7 149.6-65.09 295.18-152.37 417.45-10.02 14.04-23.85 22.59-41.1 24.91-20.48 2.76-33.84-5.03-49.3-16.73-3.37 37.9-44.09 107.7-66.5 140.31-7.83 11.39-56.55 42.97-70.56 51.19a843.2 843.2 0 0 1-359.82 116.45c-32.98 1.37-49.91-9.59-67.113-37.02-8.128 9.16-17.133 19.1-28.211 24.6a55.05 55.05 0 0 1-24.822 5.69c-24.733-.23-95.787-22.94-121.211-31.67-109.026-37.44-209.051-98.38-295.239-174.61-21.037-18.61-57.006-44.45-51.974-76.29 4.501-28.48 18.066-62.38 28.48-89.65-33.588-3.72-67.501-6.97-100.946-11.78-19.529-2.81-36.569-10.25-48.495-26.6-27.779-38.09-110.723-276.93-101.769-324.62 1.645-8.76 6.348-17.16 12.006-23.99 13.781-16.64 51.971-43.66 70.684-56.242a66 66 0 0 1-2.496-1.899c-22.011-17.567-48.08-38.312-67.599-58.016-21.516-21.721-6.382-63.522.973-88.703 33.584-114.977 92.792-223.804 167.53-317.187 30.344-37.914 62.009-53.999 102.834-18.097-3.256-15.154-10.457-29.305-11.515-43.703-1.119-15.234 5.517-35.434 16.568-46.13 16.889-16.348 39.513-34.557 58.169-48.79a752.54 752.54 0 0 1 412.576-152.73"/><defs><linearGradient id="a" x1="384.692" x2="861.768" y1="938.048" y2="927.247" gradientUnits="userSpaceOnUse"><stop offset="0" stop-color="#c2bfbf"/><stop offset="1" stop-color="#ebebeb"/></linearGradient></defs><path fill="url(#a)" d="M494.115 570.942c6.492 2.131 11.894 4.506 18.16 7.199 19.552 30.288 33.313 41.327 48.405 76.477l74.929 13.801c6.003 20.011 12.766 44.523 20.06 63.812 2.428 6.42 15.811 28.876 19.942 36.081-6.417 27.354-18.749 65.09-26.856 92.581l1.579 3.806 55.891-90.627c8.975 20.261 16.149 48.189 25.039 69.112 3.831 9.429 9.657 18.333 14.095 27.404 19.11 39.06 45.417 75.026 73.496 108.636-14.943-29.567-32.657-57.691-45.015-88.532-3.458-8.628-7.537-17.485-11.219-26.042 8.648-6.253 15.834-14.794 23.384-22.128 15.541-15.096 32.14-34.809 48.243-48.972l1.654.328c4.958-3.909 14.126-14.552 19.528-19.786-.101 7.741-.691 21.795.316 28.993 1.599 1.597 1.521 1.477 3.635 2.329.44 20.777-.945 38.019-1.765 58.532-2.016 50.44 1.355 101.285 1.963 151.694.108 9.01 2.034 18.19 1.792 27.27.857 9.26-2.757 31.38-1.374 35.02l-1.254 1.55-1.172-.1c-3.915-.32-4.575-.65-7.907.96-7.935 7.73-.314 12.63-11.825 24.39l1.128 1.53c-8.246 9.82-10.942 18.57-15.947 30.33a8825 8825 0 0 1-94.966 40.66c-2.999 6.82-11.143 26.62-14.547 31.96-5.485 8.6-20.644 24.36-28.102 32.45a5766 5766 0 0 0-51.727 56.35 5796 5796 0 0 0-167.304-2.92c-9.788-24.11-22.618-47.66-32.539-72.84-22.705-57.63-40.996-122.71-48.271-184.21 26.309-16.66 55.74-33.38 82.674-49.38 19.439 9.283 38.806 23.15 58.208 31.51 5.67 2.44 29.341 4.25 37.043 5.2 25.515 3.13 51.737 5.82 77.191 9.4 11.537 1.62 27.774 7.23 39.302 10.66a4327 4327 0 0 1 47.485 13.98l2.06-1.41a10946 10946 0 0 0-220.331-89.594c13.036-12.922 30.289-17.403 47.16-24.196a6377 6377 0 0 1 75.122-29.825l-1.229-1.919c-41.826 12.995-80.228 17.999-123.271 25.762-13.495-8.449-32.859-23.45-46.079-33.189a8422 8422 0 0 0-77.738-56.876c17.465-64.504 34.254-121.615 62.113-183.039 15.715-34.648 30.305-61.298 48.841-94.182"/><path fill="#3e3d3e" d="m641.749 908.452 1.076 1.318c-3.519 1.559-7.715 3.123-11.347 4.615l-1.229-1.919c2.457-1.295 8.273-2.775 11.5-4.014"/><path fill="#aaa9aa" d="M641.749 908.452c2.104-.76 8.098-3.646 10.642-3.153.58.113.182.958-.26 1.337l-.539-.726-.62.021-.417 1.377c-2.721.584-4.866 1.814-7.73 2.462z"/><path fill="#272531" d="m648.755 860.893 1.579 3.806c-.761 1.446-2.234 4.738-3.625 5.482-1.116-.769 1.644-7.905 2.046-9.288"/><path fill="#5c5c5c" d="M729.527 1058c2.249.76 4.032 1.53 6.199 2.44l-.68-.35 1.582 1.31.328-.15.116.2c-1.044 1.27-8.23-1.6-9.605-2.04z"/><path fill="#d7d6d5" d="M1079.8 558.53c13.69 12.694 29.18 28.962 42.71 42.387l65.32 64.475c5.97 5.972 37 38.601 41.93 41.914 13.39 9.001 47.67 24.723 64.2 32.699 12.16 48.1 29.56 97.773 42.16 145.93l2.12-.132a6785 6785 0 0 1-16.36-160.987c22.06-27.449 43.53-56.553 65.65-84.342 31.17 4.668 63.48 10.681 94.73 15.861a765 765 0 0 1 19.16-7.802c31.69-13.399 64.83-26.882 96.15-40.872 39.88 52.427 76.41 124.129 95.49 187.006-35.38 25.176-70.88 51.797-106.36 76.505-18.91-1.974-56.81-5.164-73.86-8.983-5.13 2.425-43.28 50.542-48.74 58.94-16.24 24.954-16.01 26.342-41.79 44.153l-44.41 30.529c-20.12 14.099-39.19 29.099-60.25 41.889-5.02 3.05-13.87 10.41-18.53 12.74-6.84-.64-6.57 7.78 2.33 2.99 3.55-1.9 12.22-5.6 16.17-6.87-1.36 3.26-1.98 4.05-1.17 7.69l1.65 1.06c2.36-4.3 2.09-5.81 5.62-8.01l2.16.05c1.6 2.21 1.12 4.24 1.03 7.08l-.96 1.56-1.15.26c-5.66 1.33-5.22 1.25-5.61 7.17-3.15 1.89-1.43 1.26-5.52 1.39-1.68-2.63-1.97-4.43-2.78-7.41l-1.68-.36c-4.03 5.17 1.51 13.23-1.07 19.38-.19.45.43 2.12.62 2.68 3.88-3.11 3.32-6.02 7.68-7.85l2.23.52c1.8 2.92 1.57 2.8 1.57 6.29l-1.08 1.91c-3.41.59-4.82-.18-7.19 2.4-8.6 9.35 7.7 22.4 2.91 29.02-2.5 3.45-4.48 8.85-6.14 10.56-6.06-1.38-9.34-11.04-19.85-15.7-2.85-1.91-17.45-17.3-20.2-20.19a1397 1397 0 0 0-30.18-30.92l-158.79-161.478z"/><defs><linearGradient id="b" x1="1690.101" x2="1512.823" y1="739.195" y2="738.861" gradientUnits="userSpaceOnUse"><stop offset="0" stop-color="#d2d2d1"/><stop offset="1" stop-color="#fff"/></linearGradient></defs><path fill="url(#b)" d="M1597.57 607.661c39.88 52.427 76.41 124.129 95.49 187.006-35.38 25.176-70.88 51.797-106.36 76.505-18.91-1.974-56.81-5.164-73.86-8.983l-2.25-.574.41-.795c3.39.028 3.6.21 6.88-.972.45-3.932 3.52-10.89 3.36-13.719-3.75-66.071 1.11-131.977-1.94-198.215-5.74-4.983-9.08 3.361-17.88.619 31.69-13.399 64.83-26.882 96.15-40.872"/><path fill="#5c5c5c" d="m1336.12 885.935 2.12-.132c.48 2.394.86 4.502 1.2 6.922l-1.35 1.423c-.62-2.764-1.35-5.44-1.97-8.213"/><path fill="#aaa9aa" d="M1339.44 892.725c.21.798 1.27 4.174-.04 4.698-1.07-.179-1.2-2.618-1.31-3.275z"/><path fill="#d7d6d5" d="M1079.79 1013.06c42.7 44.44 88.21 88.64 132.07 132.12l191.2 190.22c14.36 2.79 28.75 5.46 43.16 8.01-4.55 4.59-21.45 19.98-23.56 24.99-7.96 18.9-13.11 44.94-19.27 64.86-2.54 8.19-3.37 19.19-6.55 26.33-5.07 11.42-11.75 22.5-17.46 33.57l1.66 1.05c16.35-24.1 31.93-47.25 50.06-70.1 7.39-9.31 15.66-23.89 22.64-34.19 9.35 26.63 20.75 53.93 29.24 80.55 2.73 8.55 6.62 31.69 8.48 41.37-57.36 63.53-163.42 116.18-244.64 140.13-42.03 12.4-81.04 19.16-124.46 24.02-23.27-20.33-49.52-41.53-73.69-60.89l52.29-61c-14.24-21.74-29.46-43.71-44.01-65.34 7.54-8.52 15.19-17.82 22.6-26.52z"/><path fill="#3e3d3e" d="m1379.38 1493.16 1.66 1.05c-.74 1.52-6.49 10.96-7.47 10.87-.98-1.22 4.72-10.8 5.81-11.92"/><path fill="#e6e5e5" d="M647.52 423.51a603 603 0 0 1 92.576-60.37 633.1 633.1 0 0 1 267.924-71.332c10.32-.483 41.82-1.633 51.01 1.189.34 1.382.72 2.708 1.11 4.077 3.27 15.272 7.87 31.224 12.01 46.377l-46.06 82.579c6.85 10.723 14.67 21.865 21.85 32.449-39.63 43.066-89.519 91.909-131.087 133.48L743.828 767.562a2134 2134 0 0 1-49.404-28.579l-23.822-58.432c-7.354-18.428-11.788-35.4-25.725-49.981 14.84-29.014 31.28-68.167 45.052-98.543-14.019-31.401-29.88-76.072-42.409-108.517"/><path fill="#e6e5e5" d="M1529.53 909.978c13.54 5.491 35.47 14.158 48.13 20.498 46.4 17.433 92.17 39.008 138.37 57.137 7.47 2.932 16.21 6.567 23.42 10.073-2.21 129.064-34.57 266.834-96.94 380.424-11.21-11.82-32.63-33.15-42.12-44.88-2.33-1.54-15.52-15.85-18.42-18.9-19.86-20.82-38.71-42.72-58.35-63.73 12.54-33.76 24.89-67.6 37.05-101.5 5.16-14.08 11.13-31.76 16.85-45.22 2.86-11.02 12.42-34.42 16.78-45.59l-1.31-1.7-2.59 5.2a6969 6969 0 0 1-34.8 69.76c-3.8 7.56-16.1 33.05-20.34 38.74-13.4 17.99-30.89 38.41-45.38 55.92-.6 12.4-.22 67.05-7.19 74.13-.26.26-.58.47-.87.7-9.03-4.37-107.35-107.38-121.5-121.88l-46.7-47.53c-7.37-7.5-18.11-17.8-24.73-25.38 10.51 4.66 13.79 14.32 19.85 15.7 1.66-1.71 3.64-7.11 6.14-10.56 4.79-6.62-11.51-19.67-2.91-29.02 2.37-2.58 3.78-1.81 7.19-2.4l1.08-1.91c0-3.49.23-3.37-1.57-6.29l-2.23-.52c-4.36 1.83-3.8 4.74-7.68 7.85-.19-.56-.81-2.23-.62-2.68 2.58-6.15-2.96-14.21 1.07-19.38l1.68.36c.81 2.98 1.1 4.78 2.78 7.41 4.09-.13 2.37.5 5.52-1.39.39-5.92-.05-5.84 5.61-7.17l1.15-.26.96-1.56c.09-2.84.57-4.87-1.03-7.08l-2.16-.05c-3.53 2.2-3.26 3.71-5.62 8.01l-1.65-1.06c-.81-3.64-.19-4.43 1.17-7.69-3.95 1.27-12.62 4.97-16.17 6.87-8.9 4.79-9.17-3.63-2.33-2.99.01.01.23 1.21.41 1.16 5.69-1.82 34.36-14.51 37.52-15.98l104.31-46.314c15.96-7.145 40.09-17.098 55.02-25.198z"/><path fill="#d7d6d5" d="M1577.52 1103.88c2.98-2.57 3.1-3.72 4.39-7.46l.9-.61c6.99 7.92 2.75 8.01 3.82 15.87 1.36 10.11.89 19.78.9 29.97-1.41 2.24-1.52 2.33-3.41 4.21.39 4.1 2.93 11.21 2.9 13.92-.35 28.82 8.23 59.39 8.6 87.79.36 27.6 6.67 56.86 5.08 83.5l1.32 1.96-1.63.2c-2.33-1.54-15.52-15.85-18.42-18.9-19.86-20.82-38.71-42.72-58.35-63.73 12.54-33.76 24.89-67.6 37.05-101.5 5.16-14.08 11.13-31.76 16.85-45.22"/><path fill="#d7d6d5" d="M1299.12 1050.44c.01.01.23 1.21.41 1.16 5.69-1.82 34.36-14.51 37.52-15.98-2.01 5.84.27 8.9-1.32 11.61-11.03 5.49-6.09-5.08-8.96-4.92-.97 1.22 1.69 3.21-2.91 1.91-3.02-.86-2.54 2.07-6.24 2.34-3.95 1.27-12.62 4.97-16.17 6.87-8.9 4.79-9.17-3.63-2.33-2.99"/><path fill="#5c5c5c" d="m1596.2 1049.38 1.2 1.91c-1.43 2.39-2.12 4.38-3.1 7l-1.31-1.7c.99-2.63 2.08-4.66 3.21-7.21"/><path fill="#d7d6d5" d="M1596.2 1049.38c1.19-5.8 4.27-6.75 1.2 1.91z"/><path fill="#e6e5e5" d="M750.705 1258.69c6.488 5.6 16.595 16.07 23.062 22.37l45.22 44.13a7274 7274 0 0 1 116.178 115.07c35.689 36.14 72.075 74.22 109.005 108.73-18.52 38.67-36.8 77.45-54.848 116.34-21.502-3.63-42.142-6.95-63.614-11.07a618.4 618.4 0 0 1-305.458-175.5c6.985-13.12 16.414-30.12 22.147-43.45 2.179-5.07 4.207-27.52 4.952-34.34l5.958-54.77c16.939-13.04 42.425-31.54 57.846-45.44 10.355-9.34 29.076-31.05 39.552-42.07"/><path fill="#d7d6d5" d="M834.248 793.55c25.274-27.583 53.85-55.044 79.915-82.103 25.776-26.757 52.042-55.472 78.313-81.453 1.193 47.204.496 96.793.493 144.166l-.027 247.89.004 233.13c-.004 40.34.849 84.83-.293 124.84-19.406-17.2-46.931-45.94-65.788-64.7a13544 13544 0 0 0-122.379-120.9c7.797-19.89 30.112-31.5 41.538-48.39 3.39-5.02 8.5-24.24 12.136-31.12 7.879-14.92 15.903-30.59 24.266-45.23 6.572-11.51 13.471-25.71 20.281-36.7l-2-1.2-41.059 50.31c-3.825 4.68-16.561 20.7-20.681 24.17l-1.128-1.53c11.511-11.76 3.89-16.66 11.825-24.39 3.332-1.61 3.992-1.28 7.907-.96l1.172.1 1.254-1.55c-1.383-3.64 2.231-25.76 1.374-35.02.242-9.08-1.684-18.26-1.792-27.27-.608-50.409-3.979-101.254-1.963-151.694.82-20.513 2.205-37.755 1.765-58.532-2.114-.852-2.036-.732-3.635-2.329-1.007-7.198-.417-21.252-.316-28.993-5.402 5.234-14.57 15.877-19.528 19.786z"/><path fill="#272531" d="M905.588 1025.39c-.11 3.25-1.097 4.79-2.881 7.59l-2-1.2q2.476-3.165 4.881-6.39"/><path fill="#d7d6d5" d="M1065.02 292.666c153.79 10.663 304.57 70.659 416.48 177.98-15.14 9.818-32.45 19.566-48.07 28.835-28.3 16.92-56.71 33.66-85.22 50.219l-.16 16.05-.04 46.663a2233 2233 0 0 0-46.7 72.264c-11.6-24.591-15.8-27.324-34.66-46.641l-40.77-41.594-73.94-75.628c-26.83-27.199-57.64-57.986-83.15-86.374 6.47-28.843 12.11-61.018 17.86-90.187-7.46-15.105-14.16-35.336-21.63-51.587"/><path fill="#17838e" d="M613.818 1370.76c.737 3.47-.276 14.51-.554 18.79-2.55 39.36-12.803 74.5-25.419 111.77 106.925 99.6 242.747 173.34 387.777 197-6.612 7.5-32.393 37.22-39.86 38.98-153.968-35.93-273.973-101.99-390.053-209.62 14.313-39.32 21.703-76.12 29.663-117.01 9.978-11.71 27.292-28.48 38.446-39.91"/><path fill="#17838e" d="M358.656 1057.83c.698.88 14.053 71.47 15.828 79.34a921.8 921.8 0 0 0 63.795 183.35c50.836 4.42 106.551 12.16 157.63 18.31l-43.879 39.4-5.132 4.06-139.801-26.84a824.3 824.3 0 0 1-87.52-268.54z"/><path fill="#17838e" d="m1429.21 1606.29 1.89 1.57c-23.01 16.24-39.48 28.79-64.74 43.49-95.56 55.59-202.85 85.83-312.68 94.19-10.93-16.35-21.84-33.73-32.66-50.29a1339 1339 0 0 0 28.8-43.19c11.99 17.78 28.2 41.99 38.73 60.35 126.96-9.4 231.49-38.12 340.66-106.12"/><path fill="#17838e" d="M413.777 669.841c-.229 4.128-15.963 40.132-18.773 47.576a1152 1152 0 0 0-17.548 50.169c-10.944 33.547-18.536 65.119-25.847 99.39 5.371 4.2 11.06 8.933 16.25 13.378 31.886 27.306 66.21 52.537 97.968 79.875a1826 1826 0 0 0-34.363 7.681c-4.884 1.061-10.24 2.482-15.136 3.681-29.468-23.923-66.01-52.408-96.489-74.878 5.719-19.029 10.09-38.455 16.24-57.813 17.953-56.514 44.569-119.71 77.698-169.059"/><path fill="#17838e" d="M1522.68 1304.25c3.31 2.36 26.69 27.25 31.12 31.87a5307 5307 0 0 0 71.28 73.43c-7.84 13.19-15.61 26.42-23.3 39.7l-19.84-20.56c-19.35-20.1-38.43-40.47-57.23-61.09l-37.36 14.07c-3.85-4.59-9.59-10.17-13.87-14.56 14.89-19.94 33.31-43.91 49.2-62.86"/><path fill="#17838e" d="M622.407 442.703c1.506 2.417 7.922 22.605 9.294 26.904 6.897 21.604 14.922 43.58 21.168 65.319-9.235 27.244-22.843 61.476-33.274 88.617-3.03.208-2.898-.493-6.084-2.471l-14.541-9.112c5.575-21.82 10.669-43.736 16.514-65.491-5.932-22.661-17.272-58.419-21.16-80.642a1544 1544 0 0 0 28.083-23.124"/><path fill="#17838e" d="M1445 523.918c1.16 1.049 1.26.923.29 2.296l-66.84 95.93c-2.14-2.327 1.57-44.531 2.01-50.447 20.92-16.209 43.25-31.533 64.54-47.779"/><path fill="#17838e" d="M1681.86 827.038c-.66 4.363-38.59 64.112-43.68 70.996-10.16.08-20.31-.043-30.46-.371-.42-1.962 66.36-63.573 74.14-70.625"/><path fill="#174d53" d="M1429.21 1606.29c.09-.07 13.29-10.29 11-5.93-.34.64-7.84 6.54-9.11 7.5z"/><path fill="#d7d6d5" d="M1059.03 292.997c7.92-.983 5.66 5.768 1.11 4.077-.39-1.369-.77-2.695-1.11-4.077"/></svg>