<svg xmlns="http://www.w3.org/2000/svg" width="2048" height="2048" viewBox="0 0 2048 2048"><path fill="#252b32" d="M0 0h2048v2048H0z"/><path fill="#0a0e14" d="m1933.05 136.783 1.25.664c-1.91 8.507-167.24 321.751-174.61 330.927-7.4 9.207-16.61 17.299-25.06 25.524a5538 5538 0 0 0-40.24 39.417l-145.54 143.13-122.5 121.171-252.78 251.244c27.19 27.6 56.42 55.23 84.16 82.41l135.73 132.76c17.81-17.03 34.28-34.25 51.69-51.49l109.74-108.96c8.87 6.51 30.25 28.6 38.69 37.05l59.35 58.94c-59.86 60.21-123.43 124.54-184.64 183.31 49.96 48.26 99.55 96.89 148.77 145.9 13.7 13.46 27.48 27.08 41.08 40.5 12.03 12.98 14.24 11.36 30.84 10.7 83.01-3.31 144.9 67.67 137.82 147.45a136.43 136.43 0 0 1-48.97 92.98c-27.51 22.79-63.91 33-99.32 29.43a134.7 134.7 0 0 1-90.94-49.32c-29.04-35.66-31.58-72.25-27.27-115.6-20.74-16.96-37.48-35.15-56.55-53.87a8422 8422 0 0 1-87.65-86.62c-17.33-17.33-36.43-37.47-54.22-53.95-12.35 15.64-49.55 50.36-64.89 65.3-37 36.54-74.21 72.87-111.62 108.99-31.61-31.69-64.62-65.39-97.53-95.62 52.22-51.26 104.1-102.86 155.63-154.81-10.62-9.8-21.34-20-31.39-30.37-61.42-63.32-127.18-123.61-188.32-187.03-43.28 43.38-86.802 86.52-130.566 129.41-29.482 29.35-58.538 58.93-88.776 87.49a17292 17292 0 0 0 154.369 153.62c-30.898 32.38-66.064 65.26-98.03 97.27-43.444-41.07-85.385-84.59-128.132-126.45-15.299-14.98-31.338-30.47-45.813-46.12-17.767 18.55-36.454 36.2-54.714 54.3l-119.513 117.17c-7.501 7.27-15.114 13.91-23.167 20.52l-.444 3.06a175.6 175.6 0 0 1 1.994 34.36c-5.215 122.64-158.28 172.82-236.099 84.04a138.73 138.73 0 0 1-34.064-101.14 135.73 135.73 0 0 1 47.135-92.5c33.214-28.85 66.332-33.63 108.263-30.81 8.866-8.11 18.151-17.51 26.541-26.14 56.767-58.39 118.59-114.42 173.783-174.2-22.495-19.83-49.481-48.24-71.186-69.92l-110.2-109.26c32.073-29.93 67.486-66.12 98.358-97.5 52.901 50.67 112.174 108.19 162.845 160.66 74.039-69.33 147.311-142.97 220.607-213.43-43.061-40.59-85.251-84.624-127.525-126.22L448.514 626.882l-113.72-112.435c-14.976-14.695-37.174-34.354-49.937-49.942-2.888-3.527-17.86-32.744-21.265-39.111a5745 5745 0 0 1-47.407-89.521l-71.246-135.701c-10.744-20.53-23.048-42.299-32.915-63.065 68.933 32.805 139.62 74.927 206.143 112.698a3401 3401 0 0 1 70.209 40.308c11.719 6.775 26.924 15.059 37.722 22.819 4.154 2.984 16.023 15.398 20.048 19.437a3696 3696 0 0 0 37.644 37.589l151.129 150.508C763.46 649.89 895.531 777.67 1022.75 908.224c11.5-10.527 24.79-24.465 35.99-35.617l80.7-80.562 322.25-320.583 102.21-101.653c16.73-16.672 34.99-35.597 52.53-51.379 5.05-4.552 23.31-14.515 29.84-18.223a3226 3226 0 0 0 45.15-25.835q74.505-42.94 149.49-85.022c29.68-16.652 63.44-34.85 92.14-52.567"/><path fill="#dedee0" d="M688.247 1297.68c-3.056-3.29-3.534-2.66-3.783-6.12 8.35-9.87 29.707-29.28 39.83-39.15l97.847-93.97a32983 32983 0 0 0 283.039-276.559l360.65-357.06 115.5-114.659 39.24-39.164c21.45-21.384 26.22-25.657 52.56-41.336l45.16-26.81c41.29-24.58 82.29-50.468 123.72-74.632-4.47 7.773-8.16 14.222-13.33 21.614-35.9 60.874-75.52 120.714-112.17 181.208-4.09 6.745-26.71 27.369-33.46 33.943l-53.07 52.114-195.6 193.25L766.686 1375.5c-25.715-25.14-53.17-52.19-78.439-77.82"/><path fill="#f9f2ec" d="M688.247 1297.68c-3.056-3.29-3.534-2.66-3.783-6.12 8.35-9.87 29.707-29.28 39.83-39.15l97.847-93.97a32983 32983 0 0 0 283.039-276.559l360.65-357.06 115.5-114.659 39.24-39.164c21.45-21.384 26.22-25.657 52.56-41.336l45.16-26.81c41.29-24.58 82.29-50.468 123.72-74.632-4.47 7.773-8.16 14.222-13.33 21.614-38.57 23.366-77.6 50.635-115.59 75.589a4245 4245 0 0 1-37.85 24.746c-6.61 4.223-20.1 12.23-25.77 17.023-14.09 11.916-28.15 26.874-41.23 40.06a8163 8163 0 0 1-57.36 56.76l-242.01 237.915a28441 28441 0 0 1-436.95 422.523l-125.072 117.97c-19.739 18.57-38.219 37.34-58.601 55.26"/><path fill="#dedee0" d="M206.4 228.179c36.863 20.222 81.41 49.255 118.232 71.63l50.34 30.608c6.311 3.841 25.401 14.973 29.951 18.95 16.335 14.274 33.419 31.913 49.011 47.33l94.061 92.851 311.667 308.951 91.131 90.341c13.767 13.609 32.086 32.721 46.253 45.303l-9.893 9.545-70.511 68.932-408.791-407.104L386.43 486.013c-17.088-16.856-36.886-34.725-52.935-52.419-5.172-5.701-15.704-24.291-20.056-31.525l-25.349-41.64c-22.135-36.587-46.624-74.489-67.917-111.062-4.552-6.729-9.847-14.172-13.773-21.188"/><path fill="#f9f2ec" d="M206.4 228.179c36.863 20.222 81.41 49.255 118.232 71.63l50.34 30.608c6.311 3.841 25.401 14.973 29.951 18.95 16.335 14.274 33.419 31.913 49.011 47.33l94.061 92.851 311.667 308.951 91.131 90.341c13.767 13.609 32.086 32.721 46.253 45.303l-9.893 9.545c-6.049-4.039-34.243-31.822-40.26-37.696l-88.783-87.451-327.213-320.973-89.472-87.332c-19.67-19.188-38.858-40.201-62.018-54.724-7.42-4.653-14.788-9.736-22.06-14.631a9349 9349 0 0 1-78.655-53.63c-8.482-5.831-51.64-35.878-58.519-37.884-4.552-6.729-9.847-14.172-13.773-21.188"/><path fill="#dedee0" d="M1142.81 1083.55c3.34-3.23 2.91-3.97 6.46-4.28 5.32 3.55 18.33 16.69 23.63 21.85l43.69 42.84c48.83 47.82 102.41 98.39 149.8 146.9l-8.68 8.83c-25.14 23.91-51.3 50.88-76.1 75.51-22.47-24.04-51.65-51.6-75.35-75.17l-141.88-141.02c26.32-24.97 52.46-50.12 78.43-75.46"/><path fill="#f9f2ec" d="M1142.81 1083.55c3.34-3.23 2.91-3.97 6.46-4.28 5.32 3.55 18.33 16.69 23.63 21.85l43.69 42.84c48.83 47.82 102.41 98.39 149.8 146.9l-8.68 8.83c-6.91-9.72-39.17-40.14-49.4-50.32-40.39-40.26-81.02-80.28-121.87-120.07-8.94-8.75-38.68-36.67-43.63-45.75"/><path fill="#dedee0" d="M1686.08 1621.36a92.73 92.73 0 0 1 60.48 16.14 89.63 89.63 0 0 1 36.67 57.82c3.57 20.37.41 37.98-11.84 54.7-18.42 25.11-38.87 34.76-68.41 39.88-40.37 3.82-94.29-17.73-100.69-62.11-8.18-56.68 28.1-99.86 83.79-106.43"/><path fill="#dedee0" d="M348.054 1621.39c47.47-3.36 90.594 27.76 98.543 75.39 9.219 55.26-28.803 85.77-79.346 93.16-26.496 1.61-48.85-3.21-69.933-19.49-65.721-50.75-25.708-141.19 50.736-149.06"/><path fill="#dedee0" d="M1556.03 1162.67c11.55 10.72 23.63 23.07 35.06 34.16l-12.3 5.03c-6.67 2.5-10.37 3.21-15.25 8.14l-244.29 243.59-88.49 88.34c-13.75 13.72-31.08 32.06-45.07 44.84-11.42-6.84-23.58-13.99-35.78-19.29l-2.09-2.1c2.37-6.41 49.98-51.86 58.4-60.23 42.22-42.05 84.74-83.8 127.58-125.22 73.98-71.99 147.57-146.2 222.23-217.26"/><path fill="#f9f2ec" d="M1556.03 1162.67c11.55 10.72 23.63 23.07 35.06 34.16l-12.3 5.03c-6.96-5.35-17.64-17.24-23.86-23.95-24.21 26.65-60.21 59.19-86.85 84.87l-197.29 188.85-75.55 71.28c-15.81 15.09-30.45 28.5-45.33 44.57l-2.09-2.1c2.37-6.41 49.98-51.86 58.4-60.23 42.22-42.05 84.74-83.8 127.58-125.22 73.98-71.99 147.57-146.2 222.23-217.26"/><path fill="#dedee0" d="m458.768 1196.27 34.195-33.8 300.825 294.78 68.344 66.98c6.721 6.51 36.914 34.85 40.124 40.24l-2.967 2.89c-5.202.7-30.411 15.76-36.271 19.13-23.23-24.68-49.939-50.1-74.227-73.94l-83.381-83c-72.777-72.59-145.188-145.55-218.194-217.91-6.765-6.71-9.672-7.03-18.19-10.78-3.127-1.38-7.312-3.06-10.258-4.59"/><path fill="#f9f2ec" d="m458.768 1196.27 34.195-33.8 300.825 294.78 68.344 66.98c6.721 6.51 36.914 34.85 40.124 40.24l-2.967 2.89c-12.392-9.24-32.562-29.81-44.808-41.23a6791 6791 0 0 1-98.253-93.14L636.77 1317.61a6326 6326 0 0 1-144.396-139.95c-5.704 6.28-16.646 18.64-23.348 23.2-3.127-1.38-7.312-3.06-10.258-4.59"/><path fill="#d08c50" d="m1841.27 241.342 1.08 2.067a6657 6657 0 0 1-81.8 143.67c-11.05 18.88-22.78 40.224-34.66 58.377-2.41 3.682-17.68 18.329-21.96 22.522l-44.66 43.373-173.43 171.036L1013.2 1155l-151.093 148.8c-27.487 26.87-57.774 55.19-84.216 82.66l-7.376-7.27c60.812-57.3 122.932-121.86 182.793-180.88l463.862-461.615 208.44-206.898 60.69-59.815c7.26-7.041 30.24-27.909 34.89-34.593 13.55-19.504 28.18-44.821 40.77-65.347z"/><path fill="#dedee0" d="m1433.9 1413.41 4.02-3.68c4.63.29 35.11 31.52 41.09 37.35l62.73 60.94c27.13 26.26 65.39 60.55 90.18 87.14l-6.97 5.55c-9.87 10.79-22.96 21.93-33.79 33.67-17.57-14.63-48.86-47.27-66.05-64.22l-124.55-123.23z"/><path fill="#f9f2ec" d="m1433.9 1413.41 4.02-3.68c4.63.29 35.11 31.52 41.09 37.35l62.73 60.94c27.13 26.26 65.39 60.55 90.18 87.14l-6.97 5.55c-13.63-10.32-33.39-31.16-45.93-43.66l-65.65-65.02-52.72-51.61c-8.88-8.72-18.63-17.67-26.75-27.01"/><path fill="#dedee0" d="M417.205 1594.93c16.689-16.6 189.319-183.73 193.165-184.63l3.58 2.75c5.541 9.01 25.806 25.8 34.016 34.56-61.639 60.19-129.825 125.44-189.633 187.26-7.92-8.09-27.294-25.66-33.613-32.94z"/><path fill="#f9f2ec" d="M417.205 1594.93c16.689-16.6 189.319-183.73 193.165-184.63l3.58 2.75c-8.09 11.63-47.175 47.99-58.844 59.49L424.72 1601.93z"/><path fill="#d08c50" d="M208.522 242.351c19.757 34.823 44.738 72.648 65.718 107.703l32.623 54.433c3.858 6.396 15.752 26.632 20.103 31.53 14.533 16.36 33.372 33.274 49.146 48.832L492.225 598.83l238.292 237.325c59.878 59.373 122.826 120.555 181.644 180.805l-6.998 6.85-415.311-412.197L373.34 496.098c-14.437-14.345-37.53-36.07-50.312-50.356-5.525-6.176-25.997-42.957-31.45-52.42l-56.177-98.719c-8.299-14.739-18.936-35.165-27.603-49.098z"/><path fill="#d08c50" d="M461.65 1206.43c4.829.93 15.684 3.63 19.049 6.63 15.217 13.6 29.908 29.42 44.401 43.87l88.203 87.99 245.001 244.74c.186 4.13.164 8.63.23 12.8-2.801-.29-52.833-51.13-59.667-57.93l-138.753-138.84-127.912-128.32c-23.182-23.26-48.071-47.25-70.552-70.94"/><path fill="#d08c50" d="m1584.98 1206.33.49 1.4c-19.44 21.26-42.64 43.54-63.18 64.17l-110.04 110.34-121.32 120.94c-32.66 32.89-66.28 67.96-99.57 99.96-1.98-2.57-1.48-9.22-1.48-12.64l260.39-260.01 79.78-80.02c12.88-12.88 26.16-26.5 39.58-38.82 2.34-2.15 11.62-4.3 15.35-5.32"/><path fill="#d08c50" d="M1059.48 1163.73c3.88.9 23.1 21.17 27.64 25.68l50.57 50.42c46.87 46.22 93.45 92.73 139.73 139.53l-6.36 6.74c-6.01-4.5-33.63-33.18-40.59-40.21l-88.59-89.12-59.3-59.04c-5.96-5.92-23.58-22.6-27.78-28.02.7-3.31 1.58-3.1 4.68-5.98"/><path fill="#d08c50" d="M1396.15 1451.08c7.07 5.38 18.07 16.75 24.7 23.35l38.19 37.97 128.57 126.68-6.72 7.25c-25.4-22.73-57.46-55.75-82.1-80.18l-110.35-107.28z"/><path fill="#d08c50" d="M651.808 1451.73c1.526 1.15 5.658 5.16 7.275 6.65-19.413 20.75-43.486 43.22-63.947 63.39L468.66 1647.06l-7.054-8.27c9.91-10.35 22.156-21.47 32.537-31.63l56.154-55.61c32.656-32.2 68.147-68.8 101.511-99.82"/><path fill="#d08c50" d="M1779.62 1740.77c.84 6.24-4.81 16.02-7.74 21.48-8.31 15.47-21.95 28.09-37.47 36.2a92.17 92.17 0 0 1-71.41 5.82c-25.18-8.2-41.61-23.73-53.44-46.92-1.58-3.82-2.97-8.68-4.25-12.69 3 4.97 5.37 9.26 8.89 13.95 29.97 39.88 90.68 48.6 131.72 21.11 15.82-10.6 24.74-22.19 33.7-38.95"/><path fill="#d08c50" d="M271.674 1745.29c12.777 23.11 31.173 39.01 56.872 46.34a101.9 101.9 0 0 0 77.387-8.34c18.721-10.46 25.701-20.46 37.652-37.34-9.111 25.42-22.641 42.41-47.603 54.26a91.1 91.1 0 0 1-70.54 3.33c-28.037-10.28-42.88-27.71-54.792-53.91l-1.065-2.37z"/><path fill="#d08c50" d="M883.12 1581.32c1.501 1.72-15.613 17.4-17.962 19.8-1.882-1.96-1.353-8.7-.848-9.16 4.755-4.39 12.896-7.59 18.81-10.64"/><path fill="#d08c50" d="M1162.8 1581.03c6.84 1.71 10.05 4.4 16.09 7.46 6.94 3.51 5.15 4.07 5.27 12.16-2.17-1.31-18.73-16.87-21.36-19.62"/><path fill="#69513e" d="M1841.27 241.342c.61-1.78 8.97-15.735 10.25-16.316l.16.015.15.235c-.29 1.388-8.24 16.035-9.48 18.133z"/><path fill="#69513e" d="M207.798 245.505c-1.178-1.856-9.14-15.683-9.464-17.345l.16-.364.14.001c1.413.905 8.773 12.666 9.888 14.554z"/><path fill="#a27553" d="M265.968 1732.83c2.063 4.07 4.139 8.18 5.706 12.46l-2.089 1.97c-.444-1.55-1.051-3.25-1.4-4.78z"/></svg>