<svg xmlns="http://www.w3.org/2000/svg" width="2048" height="2048" viewBox="0 0 2048 2048"><path fill="#25262e" d="M0 0h2048v2048H0z"/><path fill="#010100" d="M1024.25 871.234c30.5-31.096 66.95-64.393 98.61-94.733l229.74-218.894a5260 5260 0 0 0 105.45-102.878c9.93-9.854 19.77-19.805 29.5-29.853 19.92-20.623 21.65-22.443 46.06-36.703l36.97-21.78c62.85-36.942 127.59-70.909 191.04-106.849 16.01-9.07 33.2 3.576 34.74 21.311 15.69 1.62 14.21 12.902 8.1 23.879-31.37 56.327-62.63 112.703-94.26 168.888l-26.97 48.2c-3.19 5.703-12.71 23.459-16.21 27.192-15.5 16.518-33.05 33-49.02 49.154l-116.35 117.96-197.28 201.632c-34.69 35.576-74.65 78.648-110.09 112.46 37.66 37.98 78.4 75.79 116.74 113.63q76.095 76.605 153.33 152.04l53.81-51.9c13.55-13.19 37.49-45.4 57.56-28.14 12.45 10.71 23.91 22.47 35.58 34.04 10.77 11.25 34.45 27.01 35.65 42.28 7.74 2.58 16.01 10.81 10.41 18.57-8.1 11.23-21.26 22.85-31.41 32.83l-58.58 57.39c-9.76 9.58-22.83 21.73-31.79 31.64 25.02 24.37 49.84 48.95 74.46 73.73 20.27 20.24 39.46 38.72 59.11 59.63 32.57.47 58.95 9.73 82.62 33.17 11.02 10.92 22.72 28.22 26.87 43.31 4.26 1.82 9.2 10.34 10.73 14.43 8.07 21.53 6.76 44.4-2.23 65.13a104.54 104.54 0 0 1-57.27 54.83c-18.29 7.15-33.23 7.89-52.41 6.28-1.07-.82-2.13-1.59-3.22-2.39 3.92.24 6.77.74 10.49-.44-3.55-.58-10.58-.03-14.51-.22-60.88-2.96-102.75-54.37-101.34-112.91-43.55-44.94-89.31-87.26-132.2-131.26l-75.38 74.88c-12.21 12.15-24.32 25.29-37.45 36.39-6.86 5.8-14.92 5.61-22.72 1.69-11.49 3.36-19.68 1.45-28.6-7.05-8.04-8.76-20.89-19.42-28.38-27.95-13.01-14.81-52.6-38.75-35.82-61.53 7.27-9.88 26.08-26.7 35.2-35.52l60.65-59.19c-88.94-89.25-178.27-176.41-266.63-266.7l-196.897 196.36-53.935 54.02c-7.504 7.57-22.398 23.56-29.996 29.54l53.638 50.53c10.389 9.76 22.958 20.6 31.854 31.55 2.174 2.67 3.117 7.77 3.44 11.19 11.523.63 14.991 14.15 9.819 19.84-19.908 21.9-41.781 42.78-62.601 63.87-5.627 5.62-16.41 5.25-23.115 1.74-17.111 5.43-23-2.96-34.54-13.65-34.644-32.09-67.934-66.86-103.157-98.25a14557 14557 0 0 1-138.28 138.12c-.439 61.45-51.99 109.8-112.904 109.06-4.589-.03-9.171-.36-13.715-1.01l-.045-1.62-3.665-.64c-4.407-1.65-9.153-.28-13.507-1.22-52.417-11.36-91.366-66.09-83.57-119.44 4.33-29.27 20.3-55.55 44.285-72.88 19.604-14.27 45.768-24.01 70.211-20.08 13.239-12.89 27.826-30.02 41.218-43.86a7798 7798 0 0 1 101.738-102.59c-36.455-38.06-76.384-72.66-114.046-110.2-25.759-25.68 28.176-57.95 41.328-76.34 7.545-10.54 21.383-22.03 34.147-25.17.392.1.783.19 1.174.29l1.82.49c12.51 3.27 32.254 24.67 42.48 34.41l57.422 54.83a8768 8768 0 0 1 279.462-279.74L575.012 719.154 450.14 591.172c-10.156-10.569-37.985-37.064-45.438-46.63-6.162-7.908-27.493-47.434-33.349-57.811a7439 7439 0 0 0-69.798-122.667c-5.86-10.173-42.907-72.644-43.232-81.13-.257-6.753 2.498-13.658 7.118-18.557a22.47 22.47 0 0 1 15.909-7.16c11.758-.202 64.421 32.264 77.281 39.509a4617 4617 0 0 1 132.914 76.429c15.77 9.36 37.776 21.785 52.545 31.768 6.508 4.399 28.922 28.686 36.139 35.94a4367 4367 0 0 0 76.642 75.469z"/><path fill="#dea26e" d="M1796.36 280.855c15.69 1.62 14.21 12.902 8.1 23.879-31.37 56.327-62.63 112.703-94.26 168.888l-26.97 48.2c-3.19 5.703-12.71 23.459-16.21 27.192-15.5 16.518-33.05 33-49.02 49.154l-116.35 117.96-197.28 201.632c-34.69 35.576-74.65 78.648-110.09 112.46l-9.98-9.12.87-.81c9.78-9.29 20.05-20.598 29.64-30.379a5960 5960 0 0 0 60.34-61.596l185.33-190.003c42.71-43.878 85.77-87.425 129.16-130.637 20.86-20.873 41.3-41.856 62.64-62.26 4.69-4.485 16.46-27.034 20.07-33.477l35.56-63.818 52.86-94.906c10.93-19.506 22.22-39.271 32.44-59.152 2.65-5.154 2.99-7.46 3.15-13.207"/><path fill="#dea26e" d="m1027.44 1180.83 10.11 10.08-196.897 196.36-53.935 54.02c-7.504 7.57-22.398 23.56-29.996 29.54-2.789-3.03-6.673-6.54-9.712-9.46 72.947-71.4 144.03-145.11 216.937-216.59 21.411-21 43.003-42.07 63.493-63.95"/><path fill="#dea26e" d="M481.091 1669.42c13.891-15.07 32.692-32.77 47.553-47.54l93.286-93.33 10.13 9.1a14557 14557 0 0 1-138.28 138.12c-.439 61.45-51.99 109.8-112.904 109.06-4.589-.03-9.171-.36-13.715-1.01l-.045-1.62c63.567-4.64 110.539-48.16 113.975-112.78"/><path fill="#dea26e" d="M1646.95 1292.17c7.74 2.58 16.01 10.81 10.41 18.57-8.1 11.23-21.26 22.85-31.41 32.83l-58.58 57.39c-9.76 9.58-22.83 21.73-31.79 31.64-3.06-3.12-6.44-6.29-9.59-9.34 23.82-23.91 47.79-47.66 71.92-71.25 14.43-14.11 33.21-31.46 45.96-47.44 1.06-1.34 2.65-10.19 3.08-12.4"/><path fill="#dea26e" d="m1427.05 1525.59 9.63 10.3-75.38 74.88c-12.21 12.15-24.32 25.29-37.45 36.39-6.86 5.8-14.92 5.61-22.72 1.69 6.76-3.81 11.91-9.02 17.3-14.52 35.86-36.56 73.3-71.68 108.62-108.74"/><path fill="#dea26e" d="M1778.64 1642.44c4.26 1.82 9.2 10.34 10.73 14.43 8.07 21.53 6.76 44.4-2.23 65.13a104.54 104.54 0 0 1-57.27 54.83c-18.29 7.15-33.23 7.89-52.41 6.28-1.07-.82-2.13-1.59-3.22-2.39 3.92.24 6.77.74 10.49-.44 6.29-.24 13.31-1.6 19.39-3.23a106.57 106.57 0 0 0 64.09-49.69c15.25-26.86 18.41-55.33 10.43-84.92"/><path fill="#dea26e" d="M845.654 1564.1c11.523.63 14.991 14.15 9.819 19.84-19.908 21.9-41.781 42.78-62.601 63.87-5.627 5.62-16.41 5.25-23.115 1.74.726-.42 4.163-2.42 4.781-3.01 22.676-21.83 46.265-45.31 67.055-68.87 2.03-2.3 3.617-10.8 4.061-13.57"/><path fill="#95969f" d="m647.595 1406.57 774.735-771.774c94.5-93.637 189.81-192.001 285.86-283.562-8.08 15.947-18.87 34.897-27.77 50.52-11.22 22.072-24.81 44.602-36.81 66.575-8.43 15.426-19.99 36.108-29.52 50.484-2.76 4.167-21.45 21.979-26.08 26.502a3826 3826 0 0 0-45.61 44.922l-159.5 161.671a62473 62473 0 0 1-505.723 514.352L747.819 1396.1c-13.591 13.7-43.917 41.23-52.733 56.31-9.609-9.26-20.69-19.52-29.813-29.07z"/><path fill="#c5c6cd" d="m647.595 1406.57 774.735-771.774c94.5-93.637 189.81-192.001 285.86-283.562-8.08 15.947-18.87 34.897-27.77 50.52-16.64 13.49-42.49 40.609-58.22 56.279l-100.56 100.602-288.54 290.749-342.999 346.926-145.131 146.02c-25.957 26.18-54.953 54.04-79.697 81.01z"/><path fill="#c5c6cd" d="m1695.47 348.01.73.082.15 1.094A108794 108794 0 0 0 641.201 1400.14l-22.022-21.17-26.809-25.79c4.031-1.36 6.92-2.64 10.048-5.65 20.822-20.05 41.77-41.35 61.973-61.97q50.7-51.57 102.115-102.42a75646 75646 0 0 1 618.944-594.235 6991 6991 0 0 0 95.31-93.809l35.25-35.553c5.57-5.651 11.7-12.472 17.54-17.657 14.14-12.568 34-22.775 50.32-32.228a4207 4207 0 0 1 111.6-61.648"/><path fill="#95969f" d="M347.999 354.848a59820 59820 0 0 1 446.629 442.646c49.017 48.696 100.132 101.681 149.976 149.08l-15.968 15.597-27.442 26.994c-46.987-50.449-98.36-101.921-146.732-151.302L576.69 656.073a12285 12285 0 0 1-103.354-104.756c-15.351-16.01-31.254-28.886-41.968-48.692-15.732-29.085-33.544-57.502-48.802-86.848-11.792-20.048-22.91-40.759-34.567-60.929"/><path fill="#c5c6cd" d="M347.999 354.848a59820 59820 0 0 1 446.629 442.646c49.017 48.696 100.132 101.681 149.976 149.08l-15.968 15.597-393.645-395.075-113.74-113.37c-8.337-8.15-30.873-32.178-38.685-37.949-11.792-20.048-22.91-40.759-34.567-60.929"/><path fill="#c5c6cd" d="M355.99 348.636c12.541 2.717 139.416 77.416 158.218 90.204 3.454 2.35 44.337 43.966 50.324 50.017a6693 6693 0 0 0 93.974 93.136l222.872 215.199c36.047 34.713 74.265 70.354 109.654 105.495l-17.922 17.417-21.441 19.776c-5.251-5.883-14.191-14.057-20.013-19.84l-41.601-41.445-135.5-134.674z"/><path fill="#c5c6cd" d="M1151.15 1054.01c3.21 2.22 14.24 13.15 17.62 16.42l37.27 36.31 165.22 161.37 53.08 53.4c7.94 7.94 16.03 16.01 24.11 23.8 2.22 2.14 7.66 3.9 10.71 4.98-15.34 13.86-30.43 29.65-45.71 43.98-1.84 1.8-1.48 1.45-3.67 2.84-3.59-1.8-62.96-63.35-71.73-72.15l-228.5-227.81a5129 5129 0 0 1 41.6-43.14"/><path fill="#95969f" d="M1102.12 1104.67c43.87 41.22 89.63 88.6 132.44 131.49l168.38 168.49c-5.61 5.52-11.9 12.03-17.67 17.25-9.63 9.31-18.84 18.2-28.06 27.91-9.43-12.85-29.32-31.68-41.21-43.54l-63.83-63.71-193.85-193.21c8.78-9.33 17.64-18.58 26.6-27.73z"/><path fill="#c5c6cd" d="M1102.12 1104.67c43.87 41.22 89.63 88.6 132.44 131.49l168.38 168.49c-5.61 5.52-11.9 12.03-17.67 17.25-4.87-3.04-22.61-21.58-27.6-26.62l-47.35-47.61-225.4-226.05z"/><path fill="#c5c6cd" d="M1472.74 1429.3c2.11 5.28 2.16 6.2 6.07 10.05 11.27 9.06 34.87 33.51 46.42 44.86l85.02 84.01c14.06 14.03 30.87 31.95 45.21 45.12 22.1-3.17 38.78-3.47 57.98 11.04 7.81 5.9 14.08 13.6 18.27 22.45 3.66 5.3 6.92 16.71 7.29 23.05 3.16 53.63-61.4 89.18-103.11 51.7-26.02-23.37-31-59.57-7.4-85.78 4.07-5.85 10.98-7.24 14.64-12.84.51-3.04.45-2.82-.91-5.62-7.48-4.85-17.76 7.3-22.79 12.58-3.72 5.17-5.93 8.68-9.15 14.17-57.37-53.93-111.19-113.72-169.16-167.21-2.8-2.59-7.17-4.26-10.72-5.58 11.81-13.12 29.49-29.46 42.34-42"/><path fill="#95969f" d="M1472.74 1429.3c2.11 5.28 2.16 6.2 6.07 10.05-6.66 5.26-16.8 18.77-23.1 25.72 54.55 54.44 108.97 111.05 163.72 164.85-3.72 5.17-5.93 8.68-9.15 14.17-57.37-53.93-111.19-113.72-169.16-167.21-2.8-2.59-7.17-4.26-10.72-5.58 11.81-13.12 29.49-29.46 42.34-42"/><path fill="#95969f" d="M1731.71 1646.83c3.66 5.3 6.92 16.71 7.29 23.05 3.16 53.63-61.4 89.18-103.11 51.7-26.02-23.37-31-59.57-7.4-85.78-5.18 25.82-.23 50.28 23.08 65.91 37.67 25.27 89.68-10.14 80.14-54.88"/><path fill="#c5c6cd" d="M575.3 1431.84c13.101 10.78 29.926 28.05 42.192 40.43-2.995.95-8.037 2.49-10.342 4.67-57.351 54.41-110.978 113.12-167.726 168.15-3.246-6.47-6.089-11.58-10.639-17.3-4.316-4.76-12.917-15.33-19.69-8.37-.263 4.9 1.286 5.91 4.974 8.81 42.972 38.22 13.285 106.42-40.095 108.81-44.571 2-75.128-41.31-59.92-85.31 16.022-39.06 46.803-43.55 84.101-38.29 5.78-7.27 15.591-16.58 22.455-23.49l33.442-34a9093 9093 0 0 1 114.483-116.58c2.827-2.84 4.283-4.4 6.765-7.53"/><path fill="#95969f" d="M575.3 1431.84c13.101 10.78 29.926 28.05 42.192 40.43-2.995.95-8.037 2.49-10.342 4.67-57.351 54.41-110.978 113.12-167.726 168.15-3.246-6.47-6.089-11.58-10.639-17.3 4.514-2.76 44.663-43.68 50.941-50.1l112.29-114.26c-7.398-7.96-15.363-16.98-23.481-24.06 2.827-2.84 4.283-4.4 6.765-7.53"/><path fill="#95969f" d="M414.069 1628.23c42.972 38.22 13.285 106.42-40.095 108.81-44.571 2-75.128-41.31-59.92-85.31-1.32 23.77 7.009 40.35 27.935 52.18 26.952 15.24 59.196 1.34 72.011-25.38 8.576-17.88 6.455-32.27.069-50.3"/><path fill="#c5c6cd" d="M468.363 1282.69c5.627-5.6 11.644-11.86 17.373-17.26l136.082 130.48c21.348 20.52 42.618 41.25 64.081 61.65 5.309 5.05 7.084 14.36 11.504 18.69 10.79 10.56 22.055 21.01 33.052 31.37a4422 4422 0 0 1 60.493 58.11l-16.815 16.98c-2.391 3.06-10.113 10.58-13.173 13.72-60.569-58.22-122.389-120.42-183.384-177.38-1.047-4.97-1.946-8.47-5.395-12.32-12.128-13.52-26.657-26.92-39.746-39.61l-75.047-73.05z"/><path fill="#95969f" d="M468.363 1282.69c18.737 21.48 54.603 54.22 75.734 74.64l126.329 123.33 76.498 75.66c5.67 5.59 21.804 22.89 27.209 26.39-2.391 3.06-10.113 10.58-13.173 13.72-60.569-58.22-122.389-120.42-183.384-177.38-1.047-4.97-1.946-8.47-5.395-12.32-12.128-13.52-26.657-26.92-39.746-39.61l-75.047-73.05z"/><path fill="#c5c6cd" d="m1563.5 1264.84 17.15 16.36 11.2 11.01c-38.8 36.51-75.62 75.99-113.95 113.05-4.22 4.07-4.57 9.2-8.66 13.08-60.54 57.41-118.02 118.49-178.04 176.28-4.83-4.49-12.12-10.86-16.5-15.46-5.36-4.92-10.64-9.91-15.86-14.97 25.71-23.34 50.38-48.31 75.96-71.85 9.01-8.3 21.91-18.07 23.5-30.37 67.86-66.26 136.27-131.97 205.2-197.13"/><path fill="#95969f" d="m1580.65 1281.2 11.2 11.01c-38.8 36.51-75.62 75.99-113.95 113.05-4.22 4.07-4.57 9.2-8.66 13.08-60.54 57.41-118.02 118.49-178.04 176.28-4.83-4.49-12.12-10.86-16.5-15.46 6.53-5 36.56-35.97 44.01-43.38l90.68-89.32 114.04-109.99c14.91-14.3 44.83-40.97 57.22-55.27"/><path fill="#7b6758" d="M367.161 1783.82c-.882-.17-6.148-.95-6.714-1.45l.006-.25c.542-.3 1.066-.43 1.679-.46l1.319-.1 3.665.64z"/><path fill="#7b6758" d="M1677.46 1783.11c-.97-.14-6.58-.75-6.91-1.62.76-.64 2.84-.67 3.69-.77 1.09.8 2.15 1.57 3.22 2.39"/></svg>