<?xml version="1.0" encoding="utf-8" ?><svg xmlns="http://www.w3.org/2000/svg" xmlns:xlink="http://www.w3.org/1999/xlink" width="1024" height="1024" viewBox="0 0 1024 1024"><path fill="#242425" d="M0 0L1024 0L1024 1024L0 1024L0 0Z"/><path d="M614.683 156.289C630.34 155.18 654.189 155.913 669.648 158.643C599.865 181.268 544.486 212.93 501.562 274.047C433.785 370.549 439.645 493.133 516.822 582.283C526.381 593.325 537.273 604.152 548.58 613.394C555.037 618.673 562.734 623.222 568.6 629.117C570.897 631.426 572.638 633.347 573.168 636.641C574.08 642.308 574.2 661.365 573.086 666.829C572.616 669.132 571.762 671.277 570.294 673.129C566.915 677.396 561.986 678.013 556.961 678.603C557.846 692.235 559.527 705.732 560.328 719.619C561.328 739.668 561.671 759.745 561.355 779.817C571.463 791 579.557 799.464 579.847 815.463C580.39 845.462 557.287 866.992 528.303 867.787C526.432 867.713 524.564 867.573 522.702 867.367C493.932 864.029 472.539 839.511 476.742 810.194C478.913 795.059 486.476 784.955 498.489 775.943C498.349 745.369 498.137 708.813 501.01 678.547C490 677.107 485.162 674.006 485.159 661.853C485.158 656.642 485.434 651.336 485.558 646.121C474.412 640.936 459.146 629.109 449.861 620.995C394.031 572.21 360.633 505.4 357.941 430.447C352.753 285.996 471.219 163.161 614.683 156.289Z"/><path fill="#C0BFBF" d="M491.031 630.168C489.643 629.397 488.283 628.578 486.952 627.712C432.181 592.538 393.707 536.965 380.063 473.319C367.002 410 379.291 344.084 414.29 289.724C442.281 246.441 487.517 209.069 535.659 190.554C552.096 184.232 567.657 180.401 584.78 176.732C574.739 182.686 564.895 188.964 555.263 195.557C549.994 199.227 545.073 203.734 539.609 207.165C520.233 225.442 504.765 240.466 488.899 262.093C412.825 365.792 422.023 507.464 510.904 600.491C517.004 606.875 523.361 613.12 529.943 619.033C532.592 621.447 539.053 626.159 540.965 628.404L542.042 629.146L541.807 629.677C538.523 630.191 531.38 629.802 527.514 629.864C515.377 630.058 503.173 629.755 491.031 630.168Z"/><path fill="#D9D9D9" d="M491.031 630.168C489.643 629.397 488.283 628.578 486.952 627.712C432.181 592.538 393.707 536.965 380.063 473.319C367.002 410 379.291 344.084 414.29 289.724C442.281 246.441 487.517 209.069 535.659 190.554C552.096 184.232 567.657 180.401 584.78 176.732C574.739 182.686 564.895 188.964 555.263 195.557C549.994 199.227 545.073 203.734 539.609 207.165C537.085 207.246 530.308 210.462 527.831 211.684C503.002 223.937 474.767 242.921 455.855 263.057C413 308.615 389.972 369.316 391.826 431.835C394.124 482.686 413.216 531.34 446.115 570.183C464.238 591.363 488.293 610.629 513.095 623.34C515.688 624.669 518.99 627.426 521.533 628.135C520.967 624.918 516.567 625.313 513.796 622.901C515.481 622.612 516.169 622.825 517.891 622.988C513.727 617.68 501.992 622.838 503.148 612.324C503.08 612.945 490.947 596.117 490.091 594.402C482.881 579.954 474.861 565.553 468.906 550.591C468.301 549.073 469.529 548.03 470.364 547L470.708 546.955C472.67 551.912 476.65 557.303 479.509 561.899C492.699 583.104 509.481 601.917 527.996 618.602C530.594 620.943 537.908 627.633 540.965 628.404L542.042 629.146L541.807 629.677C538.523 630.191 531.38 629.802 527.514 629.864C515.377 630.058 503.173 629.755 491.031 630.168Z"/><path fill="#5E5E5E" d="M516.59 678.722C524.318 678.47 532.796 678.607 540.582 678.578C541.584 685.212 542.234 696.074 542.691 703.048C543.964 725.493 544.498 747.973 544.292 770.453C544.221 778.086 544.441 791.92 543.752 798.765C542.646 799.846 542.598 799.484 540.592 799.628L512.668 799.777C512.341 789.281 513.154 775.901 513.343 765.113C513.712 736.294 514.795 707.488 516.59 678.722Z"/><path fill="#BDA25F" d="M501.967 644.733C520.416 644.728 540.028 644.463 558.412 644.904C558.433 647.802 558.833 661.332 557.868 663.043L500.769 663.071C500.837 658.711 500.547 649.222 501.098 645.304L501.967 644.733Z"/><path fill="#5E5E5E" d="M498.132 799.855C498.413 801.06 498.523 806.571 498.543 808.111C498.541 818.14 500.574 827.999 507.67 835.266C525.677 853.705 559.108 839.487 557.111 813.21C556.854 809.826 557.23 804.63 557.259 801.199C561.489 806.414 562.997 808.554 563.807 815.321C563.902 821.364 562.92 826.516 560.167 831.942C555.828 840.415 548.245 846.773 539.144 849.566C529.723 852.552 519.942 851.823 511.197 847.15C502.945 842.746 496.789 835.234 494.094 826.276C491.162 816.369 493.437 808.597 498.132 799.855Z"/><path fill="#242425" d="M515.972 815.256C521.031 815.174 536.264 814.606 540.177 815.609L540.554 816.389C540.276 819.659 537.97 822.25 536.01 824.847C530.103 829.404 522.803 829.051 517.922 823.101C516.659 821.561 514.848 817.776 515.044 815.783L515.972 815.256Z"/></svg>