<svg xmlns="http://www.w3.org/2000/svg" width="2048" height="2048" viewBox="0 0 2048 2048"><path fill="#fbfaf9" d="M0 0h2048v2048H0z"/><path fill="#6a6061" d="M350.468 183.222c42.837 1.108 80.843 27.504 112.333 53.897 6.329 5.304 12.844 10.323 19.815 14.76 5.044-1.432 10.07-2.725 14.944-4.646-13.656-14.695-19.955-30.931-26.203-49.624 20.255 30.684 44.111 61.591 77.604 78.59-6.322-11.496-12.746-21.741-19.714-32.862 4.802-1.012 3.339.621 8.898-.704 23.323 17.18 74.201 60.324 104.356 59.202 30.169-1.124 62.178-7.86 93.012-1.718-5.259 1.83-6.148.773-11.32 3.841-10.416 1.496-23.352 3.181-29.34 13.042 9.116 3.036 74.626 12.005 85.252 12.057 33.086-.468 66.066-.162 99.015 3.287l-2.777.712-.673.248c.323 1.294 5.418-.471 6.205 3.149l-.138.294c-1.196.347-4.659-.082-5.459.839l.042.186 1.518-.331.216.642c1.734.003 3.283.24 5 .564-11.945.739-38.048 1.216-46.334 9.226 7.46 2.078 29.591 4.906 37.891 6.088 8.469 1.206 41.227 8.326 47.989 8.037l-2.709-3.707.8-1.402c54.878-4.765 114.429-18.305 168.169-29.837a2369 2369 0 0 0-57.84 29.034c45.66 13.652 171.94-39.386 214.76-59.644 5.09.067 6.05-1.277 10.32 2.063l-13.01 12.105c-9.82.909-20.62 3.317-30.39 5.232l1.79 25.54c-4.76-2.092-12.44-6.126-17.29-5.287l-1 3.382c-5.82 2.559-12.12-1.506-15.95 2.537.11 2.242.1 2.783-.13 5.032-.31 4.902-.07 5.53 1.83 10.158 4.27 3.565 54.13 3.214 63.78 4.803 4.54.749 17.62 1.016 22.97 1.615-8.11-9.172-12.72-14.465-25.4-16.089.3-.28 50.06-17.685 56.87-20.984 10.76-5.206 26.4-13.905 37.73-18.894 1.79-.789 3.07.414 5.46 1.469 7.3-1.721 21.83-8.551 29.41-11.811l2.26 1.967c-2.25 1.638-13.64 9.698-14.95 11.075-2.19 5.265-4.84 4.925-6.85 8.013-1.64 2.52-3.93 7.033-7.74 6.387-5.3-.233-7.21 4.744-14.23 6.008l-.64.649c3.75 4.389 19.31 7.335 25.04 6.123 61.19-12.923 124.79-39.883 181.85-64.285-13.03 11.549-24.64 19.27-37.34 32.524 4.68 1.806 12.79-1.19 18.84-.636l.99 1.973c7.55 2.428 139.55-9.934 155.21-11.546-7.28 11.371-14.75 21.082-22.57 32.032-6.93 9.707-12.79 19.311-20.19 28.826 20.35-16.18 41.95-31.435 62.73-47.129a2896 2896 0 0 0-35.75 72.393c8.84-8.541 19.45-17.443 27.65-25.624a2610 2610 0 0 0-20.77 137.723c-9-27.824-17.29-59.136-25.02-87.509l-1.85 2.393c7.68 45.435 11.31 92.663 17.43 138.376 2.41 18.037-.71 36.285-3.39 54.089-13.8-14.199-35.35-35.002-47.53-49.604 15.46 30.97 40.88 70.983 49.43 103.134 2.45 9.216 2.66 46.64 2.54 57.654a3039 3039 0 0 1-39.4-62.089l-1.86 1.9c11.53 28.9 20.56 59.637 32.26 88.507 7.39 18.226 8.76 33.765 11.72 52.906 3.49 22.804 7.15 45.583 10.97 68.335-19.79-23.769-29.64-45.94-44.9-71.758l-1.1 2.255c9.73 24.784 18.31 49.959 28.93 74.392 8.19 18.827 16.11 37.749 24.5 56.485-11.13 29.041-4.57 41.537 1.77 70.422 1.11 5.046 2.26 10.036 3.65 15.016a1006 1006 0 0 1-27.81-38.326c-4.7-6.783-10.73-16.397-15.64-22.644 16.27 38.407 31.4 73.19 46.94 112.32-.69 2.67-.7 2.56-2.15 4.84-14.86-13.52-30.66-30.43-44.53-45.01 28.41 53.08 50.47 98.21 75.49 152.69-18.02-12.98-40.34-32.13-58.27-46.31 11.49 20.95 25.26 45.23 35.31 66.66-39.04-20.41-76.6-39.78-117.79-55.61a363.4 363.4 0 0 1 32.28 41.57c-29.03-14.11-95.12-35.99-127.14-41.35l-3.13 2.33c24.06 14.34 44.82 28.71 57.73 54.43-35.32-20.62-68.52-30.58-107.62-41.4-17.62-4.88-38.14-10.94-56.3-12.93-.19 1.01-.38 2.01-.59 3.02 12.18 5.23 33.38 27.76 42.66 37.91-19.59-7.86-127.09-39.44-147.23-40.79-7.27-2.49-27.17-9.84-33.6-6.78-3.63 6.5 3.44 13.32 7.55 18.24-20.8 1.91-34.66 4.57-54.44 11.07-5.95 3.51-7.48 4.36-12.56 9.1l-1.41 1.3c-7.36 1.48-15.11 1.77-22.7 3.22-4.85.91-9.69 1.89-14.5 2.96-13.17 2.9-36.52 10.97-47.95 17.72l-2.03-1.79c11.65-11.33 29.87-24.48 43.21-34.06-6.5-.3-12.23-.67-18.73-1.51-3.27-.42-6.52-.9-9.77-1.43-9.65 5.67-18.64 12.79-27.36 19.78 1.63-6.45 6.67-22.83 4.66-28.36l-3.41-.57c-2.73 1.51-4.16 1.95-7.08 3.12l-2.54-2.66c-26.84 3.1-43.17 10.24-67.285 22.14-4.064 2-19.859 11.89-22.494 12.26-1.668-2.5-1.55-2.51-2.365-5.45.425-7.04.636-14.33.93-21.39-3.659 1.15-8.576 2.19-12.363 2.98-16.361 3.4-32.206 8.88-48.413 12.77 4.861 4.6 9.486 7.52 14.998 11.27-20.69.48-37.223 1.23-57.749 3.42-.136 3.37-.193 10.2-.568 13.26.433 5.46 1.082 10.61 1.637 16.04-5.746-8.72-7.824-11.73-11.076-21.97-.886-1.76-1.088-3.2-2.493-3.45-7.227-1.3-20.821 2.18-28.271 3.54 7.807 41.43 15.026 77.43 28.793 117.29-14.332-19.34-24.302-39.67-33.776-61.64l-7.179 6.65a1287 1287 0 0 0 17.271 87.04c6.805 28.26 15.914 60.15 21.55 88.13-.421.02-1.388-.01-1.858.2l-.018.2c3.3 2.22-3.169 3.74-3.972 3.99-1.651-3.09-3.229-7.64-5.816-8.49-1.658 2.89-1.92 3.76-3.054 6.82-2.237-3.05-7.275-33.15-8.287-39.01-3.682 2.23-8.138 4.76-11.669 7.09 3.765 23.19 8.084 46.29 12.956 69.28 1.901 8.93 7.158 30.42 7.885 38.65 1.758 3.92 3.093-1.07 4.226 1.31-7.036 6.57-4.964 2.01-6.682 13.96 1.156 32.46 3.869 63.96.598 96.39-.546 5.42-1.225 12.62-1.255 17.98l-2.45-1.52-.208-2.76c-1.01-.92-2.785-3.38-3.999-2.49-3.003-2.47 1.961-7.58-4.103-8.01-2.673 7.08-5.852 13.17-3.136 20.28 1.022 2.67-1.033 7.94-1.979 10.85-1.253-.56-.915-.46-2.093.53-1.113-1.35-.394-4.35-2.948-7.92.108-2.01 2.387-18.74 2.731-19.83 2.443-7.73 4.01-57.69 6.313-59.77 2.628 1.42 2.486 1.43 5.413 1.93l.703-1.51c-1.049-4.98-6.514-16.03-8.889-21.2l-7.697 14.3c.316-11.48 1.196-56.32-6.625-62.24-3.306 2.3-6.91 9.23-9.39 12.9-16.352 24.25-23.682 50.72-28.641 79.18l-2.278-1.73c-.167-5.48-2.631-15.37-7.82-18.01l-2.872 2.45c-.325.76-.354 1.08-.708 1.29-1.511-.95-1.65-6.65-1.777-8.29-2.46-6.42-.067-29.96.607-37.73-10.438 4.09-16.615 7.61-24.716 15.33-2.153 6.7-4.27 16.56-5.01 23.55 2.032 8.93-.728 10.83-7.223 13.33-1.447.55.198 7.44-.887 9.63a502.2 502.2 0 0 1-25.768 104.62l-1.837-.72c7.161-33.54 16.887-77.99 16.237-111.98-.852-2.12-.626-3.54-2.801-3.91-1.982 6.51-3.735 15.53-5.141 22.25-1.345-7.08-2.891-14.09-3.304-21.29-2.034-8.02.208-21.05-3.427-28.06-12.781 25.26-25.435 48.31-30.555 76.23-.378 2.06-1.954 10.04-2.609 11.59-.441 5.75-.971 10.28-2.042 15.93-1.406-5.86-2.863-11.21-3.865-17.2l-2.204-9.22c-3.381 2.81-6.971 5.2-8.94 8.99-.156 4.72-.807 2.76 1.161 6.34 1.951.76 4.408 1.16 4.743 2.63 1.926 8.45 1.864 18.87 2.705 27.56.886 8.84 2.225 17.63 4.011 26.34-3.18-3.84-5.181-7.31-9.972-8.05-6.334 3.25-6.043 18.7-6.757 25.8l13.774-5.07c.98 20.16 2.154 39.33 7.454 58.99 1.107 4.1 7.594 21.46 6.556 23.51-3.851.35-4.012-.6-7.834.92-4.19-2.54-1.369-1.64-5.999-.21-16.526-39.32-24.134-104.56-24.309-147.78-8.952 14.68-13.229 29.38-16.328 46.22-.456 5.91-.908 10.23-.083 16.2l-1.408 1.25c-3.201-10.16-6.237-25.62-7.487-36.06l-2.358-10.51c-7.957 40.3-8.986 63.03-6.56 103.69-2.448.89-3.081.74-5.358 2.09-1.542-2.18-1.466-2.24-3.565-3.84l-.429 2.36c-.13 5.49-.46 10.69-1.594 16.13-1.268 6.08 2.485 4.01 4.446 4.37.087.11.175.21.262.32-.119.43-.003.13-.507 1a430 430 0 0 0 4.376 33.57c1.155 6.76 5.319 25.93 4.936 31.11-2.477-1.17-3.494-1.8-5.768-3.22l-1.055.77c.658 4.64 1.948 18.07 4.608 20.82l2.748-.69c1.779 3.18 3.233 12.97 4.113 17.12 2.638 12.43 7.598 36.03 13.481 46.52l-1.215 1.9c-32.235-74.13-44.302-132.41-45.501-213-6.62 14.47-10.65 26.07-11.63 42.14.141 2.62.438 22.34-.726 22.94-1.338-1.05-1.258-3.89-1.215-5.37-.453-2.42-.834-4.86-1.14-7.3a444.2 444.2 0 0 1 6.25-105.5c4.174-24.4 10.438-52.14 13.067-76.39-.835-5.98.97-5.91-3.634-9.06-10.15 15.18-18.896 31.68-29.124 47.2 11.326-31.57 41.706-112.24 40.624-144.19 8.066-7.46 16.312-14.34 10.951-25.97l-1.533-.49c-10.428 5.48-25.595 29.32-35.551 39.32l-1.051 1.05c23.479-47.02 35.261-78.31 46.715-130.12-2.152-5.3-4.015-9.54-9.872-8.31-5.331 6.2-5.278 9.35-7.315 17.39-4.661-2.19-5.965-3.16-10.122-6.27-1.059 12.73-1.941 24.75-3.899 37.38-4.706-1.88-3.841-2.47-7.261-1.07-3.968 4.88-7.988 12-6.245 18.49 2.713-1.36 3.892-2.39 6.252-4.21 1.383 4.19-12.647 33.83-15.38 39.21-.883 1.74-1.812 3.45-2.787 5.14 2.672-8.81 5.61-19.71 6.981-28.56 2.14-13.82 4.418-62.13.274-73.78-12.829-6.47-14.064 4.92-15.252 13.4-17.528-17.52-30.423-24.56-53.579-32.71 6.537 14.96 9.146 22.66 3.979 38.93-3.015 2.29-5.617 4.39-8.898 6.29-2.42 39.42-6.434 95.63-15.678 134.24-.017 1.33.024 2.39-.988 3.47-.093-.01-.186-.02-.279-.02-1.288-2.03-.066-11.55.256-14.21.47-21.2-.513-42.41-2.941-63.48l10.935 12.02c-.399-6.63-3.922-30.53-8.619-33.69-3.652.85-5.874 2.98-8.923 5.24 4.048-26.65 6.744-51.7-6.884-76.13-8.229-14.74-17.933-29.31-30.425-40.72.319 11.52-.533 73.13-5.606 79.39-.904-2.2-1.06-2.28-2.518-4.2l-1.758.12c-2.123 2.24-4.298 6.53-4.536 9.57-2.322 29.65-.383 63.08-7.095 92.21-.752 8.85-2.834 19.28-4.938 27.95-1.164-5.76-2.128-10.9-2.821-16.78-1.868-5.79-2.393-12.9-3.136-19.04-6.849 3.69-10.958 4.87-14.19 11.86-2.482-3.62-2.998-6.39-4.094-10.5a535 535 0 0 0 18.907-125.41c.313-8.32 1.131-20.44-1.603-28.26-1.718-4.92-10.429-8.09-15.231-10.21-.937 12.23-.889 28.86-1.192 41.34l-13.391-6.83c5.895-7.76 6.525-28.58-3.149-33-4.156 1.03-3.969 1.93-7.62 5.29 5.557-17.32 14.162-36.51 20.207-53.85 2.758-7.9 11.202-24.9 11.736-31.78-1.214-3.5-3.867-4.86-6.928-7.18 7.087-17.73 10.511-30.16 14.466-48.78.922-4.34 4.573-8.05 4.199-12.08-2.285-2.14-7.275-3.06-8.34-1.14-14.533 26.15-25.625 52.69-42.025 77.9 2.327-11.38 4.855-20.56 6.818-32.41-7.383 8.67-27.992 28.92-31.72 37.38 2.747 1.25 4.593.14 8.285-.58l.273 1.43c-14.948 27.49-48.066 61.22-70.213 83.36 4.115-9.31 6.465-16.49 8.743-26.31-6.093 2.19-26.763 10.94-29.241 15.97 2.346-.12 11.988-2.66 11.505-1.15-.609 1.91-4.989 5.27-6.658 6.59-23.623 18.29-71.976 40.98-99.586 52.72l-2.498-1.31c125.544-61.79 221.277-180.91 267.244-311.86 4.814-13.72 16.05-29.81 21.875-44.97-8.261 3.95-13.607 8.12-21.003 13.52 3.895-14.83 8.151-29.28 11.953-44.3-11.209 12.64-22.867 23.41-34.177 36.72-2.85 2.5-5.259 5.06-8.069 7.62-.947-.87-7.182 2.05-9.464 2.86 15.625-26.07 31.296-52.58 44.68-79.894 7.88-16.082 14.535-31.427 11.587-49.639 13.658-18.546 15.722-32.859 10.11-55.133-10.954 20.921-32.776 60.209-47.351 77.673-.61 1.799-.546 1.977-2.446 2.28-1.157-6.686-1.629-13.676-2.232-20.449l-34.933 34.02c4.147.731 7.969 1.413 12.164 1.924-6.495 11.222-25.025 36.738-36.039 43.698-3.736 3.92-7.517 7.8-11.343 11.63 1.176-3.82 2.916-8.25 3.84-11.89l5.629-16.832c-4.708.256-9.562.588-14.259.754-5.246 5.338-11.132 11.618-16.625 16.548l10.122 2.25c-11.542 18.71-40.524 34.78-59.802 46.05l11.877-21.07c-6.235.63-22.548 1.2-26.227 5.39 3.739 4.6 4.746 1.79 4.62 5.46-9.338 7.8-72.839 26.06-86.999 29.95l-3.47-1.8c.316-.1.632-.2.948-.31 116.953-40.86 228.595-122.993 285.638-234.93 9.743-19.12 30.827-74.867 24.051-94.954-1.305-1.357-.072-3.366-4.514-4.941-2.487-.882-2.806 1.471-3.559 3.235-.728 4.268-2.031 2.873-5.402 5.513-4.407 7.42-8.596 14.401-13.336 21.641.207-10.942-1.138-13.144-5.833-23.095-4.564 5.677-14.364 17.22-17.465 23.101l.185 1.175c3.245-.255 4.734-.913 7.767-1.933l.583.776c-11.817 27.15-35.107 40.466-59.857 54.917l3.166-14.869c-6.384 1.845-18.528 4.229-21.761 9.146 2.145 2.589 3.524 2.211 7.466 3.368a375 375 0 0 1-40.108 17.825c-.487-.386-2.736-1.632-1.466-2.396 2.837-1.707.931-2.302 1.95-5.672 96.095-53.101 164.869-141.147 191.45-248.614 1.146-4.636 3.705-15.894 2.63-20.375l-5.269-2.29c-2.105-5.32 1.073-10.836-.923-16.189-2.952-2.907-1.27-2.097-5.031-2.874-1.971 1.464-10.859 33.42-13.133 39.189-4.024 10.21-9.014 19.577-14.717 28.936-.288.491-1.054 2.412-2.01 2.277-.512-.683.311-9.018.439-10.228l-.362-3.095c-5.768.423-15.38 12.053-16.578 17.328 4.151 1.842 4.762-2.049 6.594.568-9.209 18.321-38.227 48.31-52.465 63.331l-1.623-.825c56.38-66.598 97.73-165.011 111.125-251.083-3.63-8.816-5.383-11.757-11.996-18.574-9.033 26.105-16.876 39.836-31.701 62.357l-1.649-1.104c8.92-17.806 9.59-24.952 13.894-43.804.721-3.158 8.266-20.364 10.016-25.305 9.488-26.794 9.713-50.063 1.013-76.931-1.434-.046-8.534-.271-9.321.137-11.23 5.834-25.397 16.27-36.195 23.201a1128 1128 0 0 1 27.191-36.01c-24.68-14.667-31.116-26.015-63.021-31.202l7.558-6.841c-8.219-8.207-18.673-16.212-29.277-21.017-8.609.245-36.123.901-41.524 5.65-2.898 4.885-3.733 6.352-7.581 10.455-13.535 3.69-22.72 7.792-35.051 14.549-1.98 1.085-6.189 3.92-7.659 3.38 1.669-3.039 2.377-4.177 4.396-6.988-15.177 1.931-25.882 4.547-38.437 14.05-12.25 16.183-16.876 45.71-14.029 65.632 8.746 7.498 17.762 12.528 27.787 18.167l-17.7 7.368c3.528 8.536 5.814 13.592 10.248 21.645-6.59-4.834-16.334-12.434-23.083-16.46-3.316 27.973-2.626 35.486 10.26 60.259-3.613-.169-6.61-.239-10.225-.168-5.273-4.675-21.963-20.586-27.953-22.481-3.797-4.266-6.671-6.318-11.118-9.767.72-14.764 4.462-46.615 7.729-60.508l1.641.619c1.219-.56 2.99-1.286 4.074-2.002-4.949-24.548-5.305-45.281 3.421-68.678-1.737-.374-3.526-.287-4.694-1.786l-.935-1.159c8.445-13.065 16.418-20.527 27.948-30.501 1.787-1.491 3.583-2.45 5.521-3.883 6.134-4.547 15.557-9.109 22.456-12.278-15.139-15.539-22.631-7.694-38.621 3.864l-1.884-1.035c45.676-46.229 89.958-51.595 150.443-36.143 1.912-2.939 4.335-5.705 6.563-8.446-10.015-5.122-16.655-7.817-27.034-11.837.454-.327 1.331-.793 1.555-1.12 3.907-5.696 5.764-1.073 9.655-4.396"/><path fill="#172022" d="M350.468 183.222c42.837 1.108 80.843 27.504 112.333 53.897 6.329 5.304 12.844 10.323 19.815 14.76 5.044-1.432 10.07-2.725 14.944-4.646-13.656-14.695-19.955-30.931-26.203-49.624 20.255 30.684 44.111 61.591 77.604 78.59-6.322-11.496-12.746-21.741-19.714-32.862 4.802-1.012 3.339.621 8.898-.704 23.323 17.18 74.201 60.324 104.356 59.202 30.169-1.124 62.178-7.86 93.012-1.718-5.259 1.83-6.148.773-11.32 3.841-10.416 1.496-23.352 3.181-29.34 13.042 9.501 14.085 28.299 30.587 41.804 41.462-32.713-10.054-61.433-19.582-93.129-33.155-10.071-4.313-24.246-13.009-32.071-15.752-1.733 2.068-.896 1.014-2.512 3.161-18.409 3.299-78.569-17.638-97.07-22.621 17.287 18.391 34.815 36.435 51.93 54.977q-2.995.405-5.986.841a3322 3322 0 0 1-44.276-26.435c12.194 20.237 32.947 46.417 42.681 65.839-13.211-9.9-33.568-24.417-47.57-33.151 5.882 29.834 11.835 71.947 19.955 100.225-5.024-5.926-13.633-23.813-17.466-31.597l-1.999-3.161-1.116-.05c-.319 1.396-.615 2.449-.772 3.872 1.184 9.137 1.12 23.914 1.29 33.703q.44 33.247.401 66.497c9.385-11.768 21.765-31.98 31.353-45.554l1.014 2.098a5733 5733 0 0 1-23.988 64.614c-3.304 8.786-9.232 22.697-11.575 31.155-2.465 8.9-3.647 25.145-5.027 34.997l-8.595 58.101a4906 4906 0 0 1 37.998-50.387c6.381-8.399 15.642-21.39 22.355-28.869a5304 5304 0 0 0-51.252 107.771c-10.179 22.192-20.625 43.912-28.414 67.083-7.258 21.591-10.565 44.7-16.523 66.367 9.432-9.399 20.456-22.936 29.321-33.247a4129 4129 0 0 0 39.885-46.682c-9.891 19.528-22.152 40.392-32.767 59.95-11.693 21.544-23.062 45.83-35.013 66.818 2.183 5.715 5.563 11.652 3.949 16.939-2.784 1.799-5.783 1.16-9.27 1.019-1.588 23.925-4.36 47.444-6.013 70.973 17.525-22.768 33.738-46.609 50.984-69.613l1.124 2.384c-16.151 34.915-32.91 69.473-48.558 104.628-15.927 35.78-16.734 77.08-25.278 115.29 10.618-13.85 21.754-27.01 33.195-40.19 6.638-7.64 14.992-18.37 22.034-25.26l-71.982 159.77c11.733-8.81 35.206-28.8 45.482-39.05-16.963 26.9-35.471 51.7-52.5 80.07 13.071-8.93 25.057-18.15 37.835-27.32-9.039 10.33-25.542 35.6-32.585 47.91l.758 6.25a1322 1322 0 0 1 146.123-69.51q-2.043 1.425-4.021 2.94c-9.128 7.04-55.915 46.17-44.389 58.66 2.974.2 4.677-.38 7.207-2.16 23.629-16.64 47.968-32.32 73.513-45.99a757 757 0 0 1 112.843-48.3c-27.769 18.65-48.214 33.94-71.857 58.22 1.667 2.36 3.631 4.83 5.404 7.15 59.6-34.07 112.384-55.91 178.487-76.31l1.179 1.88c-27.307 18.02-48.956 33.01-75.264 51.97 32.643-9.25 64.96-19.63 96.894-31.1 26.261-9.65 52.283-20.41 78.431-29.89l-8.301 11.23 8.877 4.29c4.861 4.6 9.486 7.52 14.998 11.27-20.69.48-37.223 1.23-57.749 3.42-.136 3.37-.193 10.2-.568 13.26.433 5.46 1.082 10.61 1.637 16.04-5.746-8.72-7.824-11.73-11.076-21.97-.886-1.76-1.088-3.2-2.493-3.45-7.227-1.3-20.821 2.18-28.271 3.54 7.807 41.43 15.026 77.43 28.793 117.29-14.332-19.34-24.302-39.67-33.776-61.64l-7.179 6.65a1287 1287 0 0 0 17.271 87.04c6.805 28.26 15.914 60.15 21.55 88.13-.421.02-1.388-.01-1.858.2l-.018.2c3.3 2.22-3.169 3.74-3.972 3.99-1.651-3.09-3.229-7.64-5.816-8.49-1.658 2.89-1.92 3.76-3.054 6.82-2.237-3.05-7.275-33.15-8.287-39.01-3.682 2.23-8.138 4.76-11.669 7.09 3.765 23.19 8.084 46.29 12.956 69.28 1.901 8.93 7.158 30.42 7.885 38.65 1.758 3.92 3.093-1.07 4.226 1.31-7.036 6.57-4.964 2.01-6.682 13.96 1.156 32.46 3.869 63.96.598 96.39-.546 5.42-1.225 12.62-1.255 17.98l-2.45-1.52-.208-2.76c-1.01-.92-2.785-3.38-3.999-2.49-3.003-2.47 1.961-7.58-4.103-8.01-2.673 7.08-5.852 13.17-3.136 20.28 1.022 2.67-1.033 7.94-1.979 10.85-1.253-.56-.915-.46-2.093.53-1.113-1.35-.394-4.35-2.948-7.92.108-2.01 2.387-18.74 2.731-19.83 2.443-7.73 4.01-57.69 6.313-59.77 2.628 1.42 2.486 1.43 5.413 1.93l.703-1.51c-1.049-4.98-6.514-16.03-8.889-21.2l-7.697 14.3c.316-11.48 1.196-56.32-6.625-62.24-3.306 2.3-6.91 9.23-9.39 12.9-16.352 24.25-23.682 50.72-28.641 79.18l-2.278-1.73c-.167-5.48-2.631-15.37-7.82-18.01l-2.872 2.45c-.325.76-.354 1.08-.708 1.29-1.511-.95-1.65-6.65-1.777-8.29-2.46-6.42-.067-29.96.607-37.73-10.438 4.09-16.615 7.61-24.716 15.33-2.153 6.7-4.27 16.56-5.01 23.55 2.032 8.93-.728 10.83-7.223 13.33-1.447.55.198 7.44-.887 9.63a502.2 502.2 0 0 1-25.768 104.62l-1.837-.72c7.161-33.54 16.887-77.99 16.237-111.98-.852-2.12-.626-3.54-2.801-3.91-1.982 6.51-3.735 15.53-5.141 22.25-1.345-7.08-2.891-14.09-3.304-21.29-2.034-8.02.208-21.05-3.427-28.06-12.781 25.26-25.435 48.31-30.555 76.23-.378 2.06-1.954 10.04-2.609 11.59-.441 5.75-.971 10.28-2.042 15.93-1.406-5.86-2.863-11.21-3.865-17.2l-2.204-9.22c-3.381 2.81-6.971 5.2-8.94 8.99-.156 4.72-.807 2.76 1.161 6.34 1.951.76 4.408 1.16 4.743 2.63 1.926 8.45 1.864 18.87 2.705 27.56.886 8.84 2.225 17.63 4.011 26.34-3.18-3.84-5.181-7.31-9.972-8.05-6.334 3.25-6.043 18.7-6.757 25.8l13.774-5.07c.98 20.16 2.154 39.33 7.454 58.99 1.107 4.1 7.594 21.46 6.556 23.51-3.851.35-4.012-.6-7.834.92-4.19-2.54-1.369-1.64-5.999-.21-16.526-39.32-24.134-104.56-24.309-147.78-8.952 14.68-13.229 29.38-16.328 46.22-.456 5.91-.908 10.23-.083 16.2l-1.408 1.25c-3.201-10.16-6.237-25.62-7.487-36.06l-2.358-10.51c-7.957 40.3-8.986 63.03-6.56 103.69-2.448.89-3.081.74-5.358 2.09-1.542-2.18-1.466-2.24-3.565-3.84l-.429 2.36c-.13 5.49-.46 10.69-1.594 16.13-1.268 6.08 2.485 4.01 4.446 4.37.087.11.175.21.262.32-.119.43-.003.13-.507 1a430 430 0 0 0 4.376 33.57c1.155 6.76 5.319 25.93 4.936 31.11-2.477-1.17-3.494-1.8-5.768-3.22l-1.055.77c.658 4.64 1.948 18.07 4.608 20.82l2.748-.69c1.779 3.18 3.233 12.97 4.113 17.12 2.638 12.43 7.598 36.03 13.481 46.52l-1.215 1.9c-32.235-74.13-44.302-132.41-45.501-213-6.62 14.47-10.65 26.07-11.63 42.14.141 2.62.438 22.34-.726 22.94-1.338-1.05-1.258-3.89-1.215-5.37-.453-2.42-.834-4.86-1.14-7.3a444.2 444.2 0 0 1 6.25-105.5c4.174-24.4 10.438-52.14 13.067-76.39-.835-5.98.97-5.91-3.634-9.06-10.15 15.18-18.896 31.68-29.124 47.2 11.326-31.57 41.706-112.24 40.624-144.19 8.066-7.46 16.312-14.34 10.951-25.97l-1.533-.49c-10.428 5.48-25.595 29.32-35.551 39.32l-1.051 1.05c23.479-47.02 35.261-78.31 46.715-130.12-2.152-5.3-4.015-9.54-9.872-8.31-5.331 6.2-5.278 9.35-7.315 17.39-4.661-2.19-5.965-3.16-10.122-6.27-1.059 12.73-1.941 24.75-3.899 37.38-4.706-1.88-3.841-2.47-7.261-1.07-3.968 4.88-7.988 12-6.245 18.49 2.713-1.36 3.892-2.39 6.252-4.21 1.383 4.19-12.647 33.83-15.38 39.21-.883 1.74-1.812 3.45-2.787 5.14 2.672-8.81 5.61-19.71 6.981-28.56 2.14-13.82 4.418-62.13.274-73.78-12.829-6.47-14.064 4.92-15.252 13.4-17.528-17.52-30.423-24.56-53.579-32.71 6.537 14.96 9.146 22.66 3.979 38.93-3.015 2.29-5.617 4.39-8.898 6.29-2.42 39.42-6.434 95.63-15.678 134.24-.017 1.33.024 2.39-.988 3.47-.093-.01-.186-.02-.279-.02-1.288-2.03-.066-11.55.256-14.21.47-21.2-.513-42.41-2.941-63.48l10.935 12.02c-.399-6.63-3.922-30.53-8.619-33.69-3.652.85-5.874 2.98-8.923 5.24 4.048-26.65 6.744-51.7-6.884-76.13-8.229-14.74-17.933-29.31-30.425-40.72.319 11.52-.533 73.13-5.606 79.39-.904-2.2-1.06-2.28-2.518-4.2l-1.758.12c-2.123 2.24-4.298 6.53-4.536 9.57-2.322 29.65-.383 63.08-7.095 92.21-.752 8.85-2.834 19.28-4.938 27.95-1.164-5.76-2.128-10.9-2.821-16.78-1.868-5.79-2.393-12.9-3.136-19.04-6.849 3.69-10.958 4.87-14.19 11.86-2.482-3.62-2.998-6.39-4.094-10.5a535 535 0 0 0 18.907-125.41c.313-8.32 1.131-20.44-1.603-28.26-1.718-4.92-10.429-8.09-15.231-10.21-.937 12.23-.889 28.86-1.192 41.34l-13.391-6.83c5.895-7.76 6.525-28.58-3.149-33-4.156 1.03-3.969 1.93-7.62 5.29 5.557-17.32 14.162-36.51 20.207-53.85 2.758-7.9 11.202-24.9 11.736-31.78-1.214-3.5-3.867-4.86-6.928-7.18 7.087-17.73 10.511-30.16 14.466-48.78.922-4.34 4.573-8.05 4.199-12.08-2.285-2.14-7.275-3.06-8.34-1.14-14.533 26.15-25.625 52.69-42.025 77.9 2.327-11.38 4.855-20.56 6.818-32.41-7.383 8.67-27.992 28.92-31.72 37.38 2.747 1.25 4.593.14 8.285-.58l.273 1.43c-14.948 27.49-48.066 61.22-70.213 83.36 4.115-9.31 6.465-16.49 8.743-26.31-6.093 2.19-26.763 10.94-29.241 15.97 2.346-.12 11.988-2.66 11.505-1.15-.609 1.91-4.989 5.27-6.658 6.59-23.623 18.29-71.976 40.98-99.586 52.72l-2.498-1.31c125.544-61.79 221.277-180.91 267.244-311.86 4.814-13.72 16.05-29.81 21.875-44.97-8.261 3.95-13.607 8.12-21.003 13.52 3.895-14.83 8.151-29.28 11.953-44.3-11.209 12.64-22.867 23.41-34.177 36.72-2.85 2.5-5.259 5.06-8.069 7.62-.947-.87-7.182 2.05-9.464 2.86 15.625-26.07 31.296-52.58 44.68-79.894 7.88-16.082 14.535-31.427 11.587-49.639 13.658-18.546 15.722-32.859 10.11-55.133-10.954 20.921-32.776 60.209-47.351 77.673-.61 1.799-.546 1.977-2.446 2.28-1.157-6.686-1.629-13.676-2.232-20.449l-34.933 34.02c4.147.731 7.969 1.413 12.164 1.924-6.495 11.222-25.025 36.738-36.039 43.698-3.736 3.92-7.517 7.8-11.343 11.63 1.176-3.82 2.916-8.25 3.84-11.89l5.629-16.832c-4.708.256-9.562.588-14.259.754-5.246 5.338-11.132 11.618-16.625 16.548l10.122 2.25c-11.542 18.71-40.524 34.78-59.802 46.05l11.877-21.07c-6.235.63-22.548 1.2-26.227 5.39 3.739 4.6 4.746 1.79 4.62 5.46-9.338 7.8-72.839 26.06-86.999 29.95l-3.47-1.8c.316-.1.632-.2.948-.31 116.953-40.86 228.595-122.993 285.638-234.93 9.743-19.12 30.827-74.867 24.051-94.954-1.305-1.357-.072-3.366-4.514-4.941-2.487-.882-2.806 1.471-3.559 3.235-.728 4.268-2.031 2.873-5.402 5.513-4.407 7.42-8.596 14.401-13.336 21.641.207-10.942-1.138-13.144-5.833-23.095-4.564 5.677-14.364 17.22-17.465 23.101l.185 1.175c3.245-.255 4.734-.913 7.767-1.933l.583.776c-11.817 27.15-35.107 40.466-59.857 54.917l3.166-14.869c-6.384 1.845-18.528 4.229-21.761 9.146 2.145 2.589 3.524 2.211 7.466 3.368a375 375 0 0 1-40.108 17.825c-.487-.386-2.736-1.632-1.466-2.396 2.837-1.707.931-2.302 1.95-5.672 96.095-53.101 164.869-141.147 191.45-248.614 1.146-4.636 3.705-15.894 2.63-20.375l-5.269-2.29c-2.105-5.32 1.073-10.836-.923-16.189-2.952-2.907-1.27-2.097-5.031-2.874-1.971 1.464-10.859 33.42-13.133 39.189-4.024 10.21-9.014 19.577-14.717 28.936-.288.491-1.054 2.412-2.01 2.277-.512-.683.311-9.018.439-10.228l-.362-3.095c-5.768.423-15.38 12.053-16.578 17.328 4.151 1.842 4.762-2.049 6.594.568-9.209 18.321-38.227 48.31-52.465 63.331l-1.623-.825c56.38-66.598 97.73-165.011 111.125-251.083-3.63-8.816-5.383-11.757-11.996-18.574-9.033 26.105-16.876 39.836-31.701 62.357l-1.649-1.104c8.92-17.806 9.59-24.952 13.894-43.804.721-3.158 8.266-20.364 10.016-25.305 9.488-26.794 9.713-50.063 1.013-76.931-1.434-.046-8.534-.271-9.321.137-11.23 5.834-25.397 16.27-36.195 23.201a1128 1128 0 0 1 27.191-36.01c-24.68-14.667-31.116-26.015-63.021-31.202l7.558-6.841c-8.219-8.207-18.673-16.212-29.277-21.017-8.609.245-36.123.901-41.524 5.65-2.898 4.885-3.733 6.352-7.581 10.455-13.535 3.69-22.72 7.792-35.051 14.549-1.98 1.085-6.189 3.92-7.659 3.38 1.669-3.039 2.377-4.177 4.396-6.988-15.177 1.931-25.882 4.547-38.437 14.05-12.25 16.183-16.876 45.71-14.029 65.632 8.746 7.498 17.762 12.528 27.787 18.167l-17.7 7.368c3.528 8.536 5.814 13.592 10.248 21.645-6.59-4.834-16.334-12.434-23.083-16.46-3.316 27.973-2.626 35.486 10.26 60.259-3.613-.169-6.61-.239-10.225-.168-5.273-4.675-21.963-20.586-27.953-22.481-3.797-4.266-6.671-6.318-11.118-9.767.72-14.764 4.462-46.615 7.729-60.508l1.641.619c1.219-.56 2.99-1.286 4.074-2.002-4.949-24.548-5.305-45.281 3.421-68.678-1.737-.374-3.526-.287-4.694-1.786l-.935-1.159c8.445-13.065 16.418-20.527 27.948-30.501 1.787-1.491 3.583-2.45 5.521-3.883 6.134-4.547 15.557-9.109 22.456-12.278-15.139-15.539-22.631-7.694-38.621 3.864l-1.884-1.035c45.676-46.229 89.958-51.595 150.443-36.143 1.912-2.939 4.335-5.705 6.563-8.446-10.015-5.122-16.655-7.817-27.034-11.837.454-.327 1.331-.793 1.555-1.12 3.907-5.696 5.764-1.073 9.655-4.396"/><path fill="#6f5f61" d="M759.971 1334.23c-11.923-8.87-24.502-15.23-37.128-22.19-5.72-3.22-22.394-11.42-22.462-18.97-.098-11.06 20.183-12.42 27.593-11.49 35.578 4.48 68.586 16.97 76.38 55.81-6.932-3.51-12.417-6.31-19.629-9.14 7.888 12.15 16.367 25.25 20.633 39.22l-13.628-4.45a2889 2889 0 0 1 18.819 66.92c-6.274-2.66-10.975-4.59-16.912-7.95.874 14.41 2.013 30.29 2.249 44.69-16.387-36.94-29.464-51.83-61.959-76 3.742 13.3 8.66 33.14 9.848 47.12l-.871.18c-.353 2.72-.122 2.31-1.222 4.98-18.286-35.3-36.671-42.95-72.254-56.38 6.609 8.97 11.218 17.36 16.281 27.23-.946 2.52-1.364 3.5-2.616 5.86-24.054-19.57-36.496-28.87-63.206-44.64-.619 5.28-1.435 9.35-2.489 14.5-5.165-2.75-14.772-7.21-17.835-11.7-2.152-5.3-4.015-9.54-9.872-8.31-5.331 6.2-5.278 9.35-7.315 17.39-4.661-2.19-5.965-3.16-10.122-6.27-12.305-12.67-27.028-21.68-38.822-34.73 21.951-5.72 44.532-5.16 66.39.91-8.382-8.4-21.028-15.97-30.52-23.34 47.549-8.82 79.69 5.87 119.307 30.61-4.956-12.85-9.715-24.09-16.472-36.24 32.651 4.18 55.711 9.04 87.834 16.38"/><path fill="#6f5f61" d="M245.693 262.64a312 312 0 0 1 27.822-20.336c4.576-2.953 25.241-14.254 25.265-18.702-1.31-.978-2.466-1.832-3.831-2.745l-.992-.652c7.212-5.48 27.917-7.386 36.756-7.913 38.963-2.326 80.488 2.303 115.167 21.275-6.125 3.656-10.659-.818-14.633 2.005q-7.952.108-15.9.402c-2.742 1.006-3.945 1.282-6.751 1.936 18.305 8.658 28.817 16.521 41.468 32.064-13.981-2.007-24.656-3.069-38.959-2.97-23.23-13.938-40.193-22.32-67.54-21.143l.97 3.34a104.5 104.5 0 0 1 19.764 8.019c-8.609.245-36.123.901-41.524 5.65-2.898 4.885-3.733 6.352-7.581 10.455-13.535 3.69-22.72 7.792-35.051 14.549-1.98 1.085-6.189 3.92-7.659 3.38 1.669-3.039 2.377-4.177 4.396-6.988-15.177 1.931-25.882 4.547-38.437 14.05-12.25 16.183-16.876 45.71-14.029 65.632 8.746 7.498 17.762 12.528 27.787 18.167l-17.7 7.368c3.528 8.536 5.814 13.592 10.248 21.645-6.59-4.834-16.334-12.434-23.083-16.46-3.316 27.973-2.626 35.486 10.26 60.259-3.613-.169-6.61-.239-10.225-.168-5.273-4.675-21.963-20.586-27.953-22.481-3.797-4.266-6.671-6.318-11.118-9.767.72-14.764 4.462-46.615 7.729-60.508l1.641.619c1.219-.56 2.99-1.286 4.074-2.002-4.949-24.548-5.305-45.281 3.421-68.678-1.737-.374-3.526-.287-4.694-1.786l-.935-1.159c8.445-13.065 16.418-20.527 27.948-30.501 1.787-1.491 3.583-2.45 5.521-3.883 6.134-4.547 15.557-9.109 22.456-12.278.527 9.442-.799 11.524-4.098 20.305"/><path fill="#172022" d="M217.003 307.68a184.5 184.5 0 0 1 79.389-54.037c-1.451 6.566-2.648 10.436-4.793 16.812 6.166-2.006 26.224-9.428 31.176-7.585-2.898 4.885-3.733 6.352-7.581 10.455-13.535 3.69-22.72 7.792-35.051 14.549-1.98 1.085-6.189 3.92-7.659 3.38 1.669-3.039 2.377-4.177 4.396-6.988-15.177 1.931-25.882 4.547-38.437 14.05-4.916 2.614-17.72 8.938-21.425 11.722z"/><path fill="#171c20" d="m221.814 258.496 1.331.587-.117 1.181c-3.431 2.324-5.088 4.347-7.718 7.523-6.263 5.636-11.347 17.136-15.815 24.155-1.737-.374-3.526-.287-4.694-1.786l-.935-1.159c8.445-13.065 16.418-20.527 27.948-30.501"/><path fill="#171c20" d="M192 362.622c1.219-.56 2.99-1.286 4.074-2.002.403 1.952.787 4.009 1.3 5.896.128.471.362 2.35-.301 2.109-1.083-.393-4.254-4.987-5.073-6.003"/><path fill="#171c20" d="M344.535 249.201c-6.487-1.438-13.813-3.082-.97-3.34z"/><path fill="#555153" d="M227.335 254.613c.038.879.463 3.039.219 3.63.13-.09-3.914.679-4.409.84l-1.331-.587c1.787-1.491 3.583-2.45 5.521-3.883"/><path fill="#555153" d="M217.018 310.038c-6.528 5.867-6.94 3.536-.812-1.669l.797-.689z"/><path fill="#555153" d="M223.028 260.264c-1.972 3.981-3.967 4.917-7.718 7.523 2.63-3.176 4.287-5.199 7.718-7.523"/><path fill="#131518" d="M408.596 237.91c-.516-.361-1.109-.64-1.308-1.2.694-1.281 6.615-.745 8.059-.736-2.742 1.006-3.945 1.282-6.751 1.936"/><path fill="#6f5f61" d="M592.487 1533.12c10.377-21.77 20.794-39.71 44.817-49.06 5.529-2.15 10.526-3.25 16.13-1.02 7.805 9-8.036 25.11-13.062 34.74 12.398-6.57 27.341-15 39.828-20.86-2.646 8.25-6.138 18.21-8.311 26.45 18.441-9.48 37.276-19.63 55.843-28.68a441 441 0 0 0-12.919 19.17c6.56-1.45 23.705-7.44 25.453 1.78-5.156 16.72-43.679 40.26-44.451 60.34-.055 1.42.062 4.65.1 6.23-2.034-8.02.208-21.05-3.427-28.06-2.36-.3-1.655-.66-3.965 1.17-20.081 15.96-46.892 54.49-56.369 78.42-.925-11.78-.691-23.62.698-35.36-26.104 26.52-38.794 48.5-52.895 82.51 3.283-34.66 13.847-69.11 35.291-97.07-7.887 1.54-17.367 3.14-25.008 5.18 4.995-28.84 9.642-45.67 28.433-68.96a750 750 0 0 1-26.186 13.08"/><path fill="#fbf6f2" d="M441.59 723.899c.732.263 9.344 2.806 8.784 4.412-2.321 6.646-7.838 13.583-10.53 20.155-1.305-1.357-.072-3.366-4.514-4.941-2.487-.882-2.806 1.471-3.559 3.235-.728 4.268-2.031 2.873-5.402 5.513 4.745-9.457 10.584-18.866 15.221-28.374"/><path fill="#fbf6f2" d="M833.9 1519.93c-.596.34-1.704 1.1-2.369 1.21-.855-.66-1.003-14.22-.595-15.16 3.527-8.1 10.208 4.83 10.388 5.08 1.758 3.92 3.093-1.07 4.226 1.31-7.036 6.57-4.964 2.01-6.682 13.96l-.671-.22c-.033-1.36.3-10.18-1.637-10.36-1.334.64-2.052 2.86-2.66 4.18"/><path fill="#fbf6f2" d="M718.529 1593.24c-2.319-1.6-4.777 3.3-5.387 1.15-.812-2.86 1.975-13.07 3.219-15.81 2.479-5.45 8.145 7.13 9.04-3.53.059-.88.834-3.88 1.238-4.77 2.032 8.93-.728 10.83-7.223 13.33-1.447.55.198 7.44-.887 9.63"/><path fill="#171c20" d="m602.5 1679.06 1.059-.33c1.963 1.1 2.688 15.66 4.172 17.69.789 1.09 1.921-1.95 3.747 1.25-.456 5.91-.908 10.23-.083 16.2l-1.408 1.25c-3.201-10.16-6.237-25.62-7.487-36.06"/><path fill="#131518" d="M859.262 1194.77c.282-.55.661-1.7 1.32-1.97 1.079.62 1.679 6.22 3.728 7.28 1.231-.52.085-2.94 1.248-4.25l.335.03c1.294 2.26.023 2.97.204 5.1l.352.24c.721-1.12-.683-6.81.533-9.22l.414-.22c1.404 1.26-1.414 6.01 1.305 8.94.433 5.46 1.082 10.61 1.637 16.04-5.746-8.72-7.824-11.73-11.076-21.97"/><path fill="#171c20" d="M383.621 1514.13c.188-.08.801-.5 1.17-.38.775.25 1.018 2.68 1.422 3.31.285.43.323.35.807.45 3.216-1.03-.865-12.35 3.07-14.83.43.09.86.18 1.29.28-.752 8.85-2.834 19.28-4.938 27.95-1.164-5.76-2.128-10.9-2.821-16.78"/><path fill="#fbf6f2" d="M584.23 1772.85c-.13 5.49-.46 10.69-1.594 16.13-1.268 6.08 2.485 4.01 4.446 4.37.087.11.175.21.262.32-.119.43-.003.13-.507 1-.787.97-5.016 7.12-6.352 6.02-.845-2.17 2.661-24.56 3.745-27.84"/><path fill="#fbf6f2" d="M827.451 1625.92c6.363-13.17 7.452 5.86 8.102 10.5-1.01-.92-2.785-3.38-3.999-2.49-3.003-2.47 1.961-7.58-4.103-8.01"/><path fill="#131518" d="M653.417 1640.7c.395-1.41.312-1.8 1.012-2.73 1.055-.24 1.312 6.31 3.385 5l.155-1.2c.514-.24.618-.04 1.355.2-.441 5.75-.971 10.28-2.042 15.93-1.406-5.86-2.863-11.21-3.865-17.2"/><path fill="#131518" d="M304.341 1011.96c3.913 1.92 3.162.63 7.503.26-3.736 3.92-7.517 7.8-11.343 11.63 1.176-3.82 2.916-8.25 3.84-11.89"/><path fill="#fbf6f2" d="M568.532 1591.03c1.283-2.77 3.573-5.96 5.231-8.74-.461 5.72-.613 12.3-1.597 17.8-.835-5.98.97-5.91-3.634-9.06"/><path fill="#aca8a7" d="M555.204 1784.73c-.287-5.44-.189-7.58.726-13.02.141 2.62.438 22.34-.726 22.94-1.338-1.05-1.258-3.89-1.215-5.37-.453-2.42-.834-4.86-1.14-7.3.798.9 1.583 1.82 2.355 2.75"/><path fill="#6a6061" d="M552.849 1781.98c.798.9 1.583 1.82 2.355 2.75-.365 1.57-.777 3-1.215 4.55-.453-2.42-.834-4.86-1.14-7.3"/><path fill="#171c20" d="M225.182 1341.3c2.346-.12 11.988-2.66 11.505-1.15-.609 1.91-4.989 5.27-6.658 6.59-2.119-4.5 1.533-4.37-3.418-5.14z"/><path fill="#171c20" d="M833.9 1519.93c.608-1.32 1.326-3.54 2.66-4.18 1.937.18 1.604 9 1.637 10.36-.132.83-.556 5.11-.795 5.57-2.416.35 1.658-8.53-3.502-11.75"/><path fill="#555153" d="m406.136 1273.42.758 6.25c-2.767 1.64-5.483 3.37-8.26 4.99 2.667-3.89 4.966-7.5 7.502-11.24"/><path fill="#6a6061" d="M445.88 233.567c1.339.442 1.936.518 2.885 1.495.575 2.336-15.622.693-17.518.51 3.974-2.823 8.508 1.651 14.633-2.005"/><path fill="#6a6061" d="M685.709 1413.81c2.856 7.94 6.692 13.69-2.616 5.86 1.252-2.36 1.67-3.34 2.616-5.86"/><path fill="#131518" d="M441.096 606.089c2.145 2.015 1.225 2.784 1.467 5.928l.104 2.023c-.288.491-1.054 2.412-2.01 2.277-.512-.683.311-9.018.439-10.228"/><path fill="#6a6061" d="M741.682 1442.96c1.1-2.67.869-2.26 1.222-4.98l.871-.18c.339 2.82.525 5.61.639 8.45l-.768.73.087.18-.028.07c-.542-.64-1.503-3.28-2.023-4.27"/><path fill="#8f8d8c" d="M460.761 1533.39c-.017 1.33.024 2.39-.988 3.47-.093-.01-.186-.02-.279-.02-1.288-2.03-.066-11.55.256-14.21.234 4.04.445 6.72 1.011 10.76"/><path fill="#131518" d="M755.758 1569.13c.566-.43.352-.35.68-.41 1.472.52 1.963 5.8 1.805 7.41-.325.76-.354 1.08-.708 1.29-1.511-.95-1.65-6.65-1.777-8.29"/><path fill="#d3d2d0" d="M704.36 1581.25c2.326-11.3 2.665-.08 2.801 3.91-.852-2.12-.626-3.54-2.801-3.91"/><path fill="#131518" d="M372.884 953.027c.106-.747.208-3.44.835-3.835l.83.658.781.897c-.61 1.799-.546 1.977-2.446 2.28"/><path fill="#172022" d="M1031.02 356.086c45.66 13.652 171.94-39.386 214.76-59.644 5.09.067 6.05-1.277 10.32 2.063l-13.01 12.105c-9.82.909-20.62 3.317-30.39 5.232l1.79 25.54c-4.76-2.092-12.44-6.126-17.29-5.287l-1 3.382c-5.82 2.559-12.12-1.506-15.95 2.537.11 2.242.1 2.783-.13 5.032-.31 4.902-.07 5.53 1.83 10.158-9.48 1.326-32.01-4.418-36.61-.346-1.6 3.862-1.92 4.181-1.72 8.224 6.28 6.464 63.15 34.901 73.99 39.872l-2.14 1.517c-6.36-2.395-39.23-9.16-48.53-11.42a2407 2407 0 0 1-108.51-28.281c-3.36 1.971-9.12 4.948-12.89 5.101-32.7 1.328-92.902-.834-122.94-9.873l-2.709-3.707.8-1.402c54.878-4.765 114.429-18.305 168.169-29.837a2369 2369 0 0 0-57.84 29.034"/><path fill="#172022" d="m1331.26 330.763-.64.649c3.75 4.389 19.31 7.335 25.04 6.123 61.19-12.923 124.79-39.883 181.85-64.285-13.03 11.549-24.64 19.27-37.34 32.524l-1.87 1.89.11 1.911c6 5.264 42.58 9.316 52.27 10.354-40.19 5.532-79.68 12.531-120.2 15.901-16.25 1.352-32.37 1.791-48.64 2.59-7.37.362-18.45.347-25.25 1.825-1.02-.027-.83-.037-1.81.31-7.73.58-9.32.308-16.62 3.125l-.77 1.693c4.91 6.479 46.5 14.279 57.04 16.665-6.56 1.557-11.57.901-18.56 1.837-12.02.012-104.04 1.187-107.17-.253-8.11-9.172-12.72-14.465-25.4-16.089.3-.28 50.06-17.685 56.87-20.984 10.76-5.206 26.4-13.905 37.73-18.894 1.79-.789 3.07.414 5.46 1.469 7.3-1.721 21.83-8.551 29.41-11.811l2.26 1.967c-2.25 1.638-13.64 9.698-14.95 11.075-2.19 5.265-4.84 4.925-6.85 8.013-1.64 2.52-3.93 7.033-7.74 6.387-5.3-.233-7.21 4.744-14.23 6.008"/><path fill="#fbf6f2" d="M1360.08 310.355c-2.19 5.265-4.84 4.925-6.85 8.013-1.64 2.52-3.93 7.033-7.74 6.387-5.3-.233-7.21 4.744-14.23 6.008 6.69-5.93 21.03-15.494 28.82-20.408"/><path fill="#172022" d="M780.105 329.057c33.086-.468 66.066-.162 99.015 3.287l-2.777.712-.673.248c.323 1.294 5.418-.471 6.205 3.149l-.138.294c-1.196.347-4.659-.082-5.459.839l.042.186 1.518-.331.216.642c1.734.003 3.283.24 5 .564-11.945.739-38.048 1.216-46.334 9.226 10.437 22.021 20.123 31.84 39.049 48.33-14.284-7.911-38.487-17.943-53.859-24.927l-83.636-38.888c11.509-.972 31.273-1.919 41.831-3.331"/><path fill="#172022" d="m1104.69 1155.38 1.63-.78c16.88-8.57 44.42-14.01 63.11-12.48 3.92.31-1.62 15.19-2 16.57 6.26 1.42 12.57 2.49 18.75 3.93-5.95 3.51-7.48 4.36-12.56 9.1l-1.41 1.3c-7.36 1.48-15.11 1.77-22.7 3.22-4.85.91-9.69 1.89-14.5 2.96-13.17 2.9-36.52 10.97-47.95 17.72l-2.03-1.79c11.65-11.33 29.87-24.48 43.21-34.06-6.5-.3-12.23-.67-18.73-1.51-3.27-.42-6.52-.9-9.77-1.43 2.33-1.61 2.44-1.75 4.95-2.75"/><path fill="#131518" d="M1099.74 1158.13c2.33-1.61 2.44-1.75 4.95-2.75 2.07 2.43 2.18 2.38 4.82 4.18-3.27-.42-6.52-.9-9.77-1.43"/><path fill="#171c20" d="M563.805 345.072c2.746 3.125 6.084 6.213 9.038 9.265a884 884 0 0 1-15.024-8.424q2.99-.436 5.986-.841"/><path fill="#555153" d="M1394.43 362.038c1.25-.053 4.04-.35 4.38 1.225-1.69 1.135-20.07.796-22.94.612 6.99-.936 12-.28 18.56-1.837"/><path fill="#555153" d="M497.369 895.188c.632-1.707 2.484-6.445 4.633-5.873l.293.324c-.081.817-3.108 6.316-3.802 7.933z"/><path fill="#2b2e31" d="M1639.44 408.67c-.25-1.469-1.65-8.686-.84-9.945l.07.013c1.62 1.383 2.37 5.419 2.62 7.539z"/><path fill="#555153" d="M1625.61 792.375c-.44-.854-4.43-8.067-2.86-8.625l.16.158.14.04.01.053c1.92 1.661 2.74 3.687 3.65 6.119z"/><path fill="#131518" d="M1064.01 1149.44c4.1-.4 5.52-.51 9.62-.46-2.73 1.51-4.16 1.95-7.08 3.12z"/><path fill="#171c20" d="M1478.02 1139.85c-1.22-.66-4.94-2.26-5.6-3.38.44-1.52 7.7.81 8.73 1.05z"/><path fill="#2b2e31" d="M810.204 1164.37c1.005-.41 6.138-2.77 7.009-1.86-.069 1-4.933 3.22-5.83 3.74z"/><path fill="#131518" d="m1371.24 1142.97-1.18-.85c-4.41-3.14-2.53-4.02 1.77-2.17-.19 1.01-.38 2.01-.59 3.02"/><path fill="#2b2e31" d="M540.3 476.101c.558-1.293 1.467-4.008 3.056-4.42 1.184.913-1.548 5.573-2.042 6.518z"/><path fill="#2b2e31" d="M1616.66 652.13c-.4-1.285-2.36-5.751-1.84-6.628 1.52.077 3 3.502 3.7 4.728z"/><path fill="#555153" d="M1217.61 404.954c1.36.398 2.87.77 3.94 1.75l.12.49c-.54.961-5.38-.536-6.2-.723z"/><path fill="#172022" d="m1765.06 222.507 1.18 1.797c-41.62 50.381-38.15 92.35-21.55 152.45-3.37 3.405-1.3 3.974-5.9 5.914-5.43-10.971-10.16-23.958-15.22-33.765-1.74 4.795-4.19 11.34-4.84 16.283-3.98 30.158 8.72 73.794 21.43 100.713 26.02 55.108 68.34 105.694 119.63 138.588l-3.2.817c-10.61-6.024-57.91-33.766-61.83-42.803a35 35 0 0 0 2.13-3.69c-1.81-3.732-10.18-9.904-14.54-9.64l-.94 3.404c1.43 4.931 2.05 10.061 2.93 15.147-1.97-2.369-3.87-4.702-6.07-6.863-15.52-15.2-31.44-38.643-39.02-59.061-1.09-2.399-1.79-4.925-2.76-7.375.04-1.969-.77-7.934-.35-8.821 1.45-3.095 1.27-2.462 1.21-5.96-2.72-3.594-1.03-2.441-5.07-3.833-7.63 1.741-7.17 9.331-7.28 15.38-8.32-20.595-12.61-39.332-14.35-61.414-.1-1.298-7.07-3.86-8.34-4.359-.57 15.38.06 26.159 2 41.48l-12.85 10.307c14.31 24.495 12.24 31.316 16.07 58.18a410 410 0 0 0 9.25 46.837c32.45 128.059 103.49 214.139 216.53 281.334 11.91 7.082 21.15 10.758 32.87 16.576-21.97-2.258-111.39-50.593-123.87-68.097 3.32-2.193 5.57.639 7.89-1.572-7.13-7.768-17.28-10.429-24.99-18.099 2 9.818 3.64 16.596 6.53 26.177-23.05-16.23-48.26-42.697-58.7-69.309l11.98 5.672-19.75-33.13-11.16 10.567c-11.81-18.446-23.26-43.278-27.05-65.017 4.54 2.426 9.24 5.051 13.88 7.234-7.28-13.05-13.25-24.93-19.91-38.288-.73 3.022-1.6 7.413-2.7 10.2-.66 5.473-.55 11.656-4.3 4.739-12.94-27.726-20.23-45.092-29.53-74.05-3.28 26.994-5 53.994-3.52 81.178.96 17.527 9.18 22.495 20.83 33.864-3.45 2.427-6.49 4.522-9.75 7.253 4.43 34.63 13.2 70.678 34.25 99.237-5.07 23.125 20.81 47.841 32.53 66.946-28.99-25.001-46.73-44.49-61.71-81.031l-10.91-1.121a649.8 649.8 0 0 0 59.89 180.636c9.15 18.027 21.15 35.814 29.55 52.471-20.47-20.078-32.08-36.19-48.81-59.554q-4.59 8.882-9.03 17.837c-2.3-10.124-3.22-46.529-18.04-41.324-1.01 7.053 6.25 31.225 8.42 39.16 21.29 77.751 54.68 151.951 103.67 216.301 23.91 31.4 62.26 71.53 95.15 94.02l-2.18 1.16c-18.74-11.63-74.65-48.43-84.96-65.7 1.89-2.77 3.06-.03 8.59-1.53-2.72-6.25-16.23-13.51-22.53-16.2 1.07 6.29 1.57 12.25 2.87 18.63.46 7.28.65 7.98-4.15 2.19-1.75-3.3-6.03-9.71-8.43-12.86-6.81-8.9-34.03-59.74-27.77-68.23l4.09.22c.74-3.86-8.81-19.62-11.22-24.01-2.92 8.49-3.12 11.89-4.19 20.82-.32 10.69-.41 10.01-4.39.89l-.38-.86c-4.27-12.16-9.99-30.73-14.74-41.91l-16.67 1.76c14.17 50.03 31.85 105.17 26.84 157.59-7.26-4.29-13.89-7.94-21.73-11.14.29 8.56 1 13.72-1.1 21.96-1.15 4.49-5.08 15.85-5.07 19.35-3.83 5.41-2.93-.78-3.17-4.32-.94-16.19-3.79-37.5-6.45-53.57-4.78 8.23-8.27 14.29-14.11 21.79-24.15 9.81-37.92 17.92-41.81 45.93q7.74-5.115 15.24-10.56c-14.28 20.61-17.63 25.48-36.04 42.85 6.27 5.83 12.59 11.61 18.96 17.33l11.22.74c17.41-14.15 27.96-21.93 44.75-37.66l7.93-7.34c.51-.7.46-1.54 1.4-1.26.32.54.89 7.53-.27 8.39-2.65 1.98-4.47 3.64-5.53 6.79-2.73 4.88-4.13 8.76-8.48 12.1l-.31 1.54 1.98 1.64c4.94.92 27.04-16.11 35.91-19.06 28.23-9.41 79.68-9.99 106.19 1.93 7.46 1.97 1.23 4.59-2.37 4.67-3.07.78-5.18.95-7.4 3.15l.57 1.25c16.81 1.15 24.1 4.92 37.51 15.4-7.94-3.69-13.79-6.7-22.68-7.4l-1.54.82-.29 1.59c24.57 12.45 39.06 16.6 55.16 41.97.04.22.07.45.1.67-3.67.69-7.58-2.51-13.27.58 22.84 33.98 28.71 68.66 21.72 108.43-2.89-10.83-5.28-21.22-9.89-31.48 3.5 39.39 3.5 92.34-17.46 127.22-.47-.38-.76-.74-1.36-.5-2.14-.37-1.88-2.23-2.31-4.24l2.3-.1c2.88-2.59 4.21-10.44 5.23-14.6l-11 6.74c8.25-21.47 11.81-34.85 12.85-57.72-1.36-.23-1.69-.14-2.7-.77-.35-.22-.79-.34-1.18-.33l-.12.06-.05.21c-3.02 1.4-1.45 2.52-.52 3.61-.18.12-.35.25-.52.37l-.66-.53-1.02.53c-.44-.12-1.59-.3-2.37-.37-28.87 33.11-81.82 49.89-105.6 1.09 19.48 21 26.09 21.27 53.97 17.52-9.16-3.4-16.81-10.72-25.62-12.69-.76-.17-11.24 2.47-12.91 2.89l-1.28-1.12c-1.76-4.69-3.83-15.09-.23-18.91 1.33-.1 2.45-.11 3.73-.47 16.89 15.46 31.02 18.43 53.56 13.21 4.27-.99 10.99-4.09 13.1-8l-1.6-3.64c2.71-2.51 5.29-5.16 7.72-7.94 9.79-11.12 14.83-22.04 13.88-37.16l-.93-.25-3.72 4.32c-.76-2.89 1.27-36.05 1.72-40.58 2.07-.68 2.04.09 2.51 2.02 1.46 1.45 1.95 1.78 3.58 3.04l.76-1.95c-1.44-8.51-8.74-21.11-13.04-29.08-2.79 3.41-6.06 6.87-9.04 10.16.9-14.99-1.25-20.39-7.42-33.79-1.08 4.83-2.47 9.8-3.73 14.6-5.78-21.33-19.97-30.42-41.38-33.08-4.57-.57-12.23-1.28-15.86 1.64-.67 3.82-.08 3.32 1.68 7.6-6.37-.07-15.73-10.38-19.53-15.23-14.83 5.75-19.8 8.6-33.36 17.53.39 11.12 1.55 22.2 3.48 33.15l-2.17 2.69c-7.89-18.11-12.64-31.46-18.57-50.33-.72 7.56-1.38 17.67-2.92 24.89.16 1.19 1.04 9.68.46 10.64-1.3.68-2.57-1.46-3.34-2.31-.41-4-2.95-7.24-5.11-10.73-.81 16.5 1.25 28.5 3.39 44.82-.57.06-1.37.03-1.88.31-.1 3.52 1.01 4.91-.96 8.15-.3.5-.6 1.02-.89 1.53-2.49-4.06-4.52-8.25-8.27-11.01l-1.56.28c-2.37 4.53-1.89 12.19-1.91 17.37-.29 33.36 7.33 65.07 16.78 96.72 21.23 71.04 71.05 128.78 128.06 174.35 12.56 10.03 34.55 28.29 48.88 35.35l-2.63.91c-9.35-4.82-64.85-37.47-66.91-43.52l2.41-2.07c-3.51-3.83-13.74-7.19-18.83-8.99 4.62 7.88 9.82 15.08 15.06 22.54-22.17-14.52-45.56-38.37-56.64-63.41-1.12-2.53-.83-2.5-.02-4.06 2.42.27 2.43.35 4.84.21-2.6-4.83-13.25-14.94-17.56-19.44 2.31 15.99 4.99 25.85 9.54 41.1-18.74-27.83-30.42-50.24-37.96-83.62l.58-.66 3.78 3.4.6-.45c-1.27-5.47-5.81-14.64-8.31-20.12-.85.57-1.65 1.02-2.54 1.54l-.66 3.45c.03 1.25.52 6.71-.04 7.51-1.58.36-3.42-6.48-3.87-7.75-3.58-9.31-10.94-36.74-15.95-41.66-2.68-.26-1.43-.61-3.88.82-.55 4.21.26 24.25 2.67 27.46l4.07.88c2.68 4.6 1.83 25.02 2.63 31.66 2.07 16.95 4.83 35.04 9.09 51.52-4.88-7.7-9.76-16.47-14.53-23.79-1.54 38.59 8.56 62.24 11.45 98.33 5.61 70.19-19.34 149.51-46.93 212.29l-1.19-1.59c8.3-16.08 18.85-60.52 22.93-78.04-.52-6.96-2.12-8.43 3.7-9.77 1.32-.3 1.58-7.78 1.93-9.84l-1.84-1.55c-3.43 1.93-4.07 2.18-6.29 5.41l-1.72-.53c.43-1.98.71-3.4 1.34-5.34 3.58-18.22 6.55-36.56 8.88-54.98 1.89 3.39 4.15 8.04 7.22 10.21l.9-1.19-.68-2.08c-1.86-4.05-2.22-6.61-2.69-11.08-.49-4.71-1.18-2.98-4.29-5.46-1.9-1.52 1.5-2.78-.69-4.88-2.87-.73-2.47 8-3 8.95-1.05-.22.06-2.33-.7-3.14l-.18.07c-.43.52-.58 1.29-.79 1.92-3.13.82-3.53-1.46-1.8-3.7.64-6.21.8-11.84 1.18-18.03-.44-23.04-.06-32.07-7.08-54.1-1.6 11.79-1.26 25.61-2.79 37.66-2.57 20.31-5.59 40.68-8.51 60.95-3.41-14.83-6.55-39.1-6.22-54.45.2-8.86.27-14.11-4.05-22.34l-1.37.11-3.25 4.65c-.54.83-1.53 2.55-2.35 3l-.26-.2c-.56-1.56.11-16.24.15-19.23-.04-10.35.19-29.23-1.32-38.71-4.09-4.81.21-6.48-4.46-9.93-2.45 7.15-5.3 16.33-8.18 23.15-2.55 10.41-3.34 9.13-5.93-1.17-2.09-4.99-4.11-10.01-6.05-15.06-3.19-6.28-5.09-10.02-9-15.85-8.85-15.27-17.89-26.49-28.71-40.37l-3.12 1.97c-1-2.27-2.07-4.51-3.11-6.77-1.67-2.48-3.5-4.84-5.29-7.23-17.94 44.33-26.95 81.82-22.14 130.14l-1.88-.07c-2.06-10.36-7.89-47.17-5.28-55.34l3.03-.45c5.55-5.96-6.97-14.91-6.47-21.65.92-12.54 1.64-23.78 1.09-36.35-.68-7.69-1.22-8.66-5.94-14.93-2.68 6.23-4.91 11.57-7.95 17.78-2.64-16.56-5.97-29.7-11.32-45.57-.85-.96-2.88-5.08-3.96-6.59-5.14-7.17-9.84-9.82-17.12-14.09-2.66 1.77-4.83 2.74-5.14 6.49-1.19 14.43 5.88 45.03 1.87 58.56-1.03-.75-1.68-1.28-2.34-2.35l-.55-.88c-2.15-2.83-4.4-5.92-6.65-8.65-1.51 4.31-4.48 11.33-4.37 15.58l1.1 1.76c2.56.17 3.36-.61 5.69-1.83.07 8.73.66 28.19-.25 36.16-2.32-1.59-1.27-.77-2.18-4.86l-.51.84c-2.6-5.23-3.52-10.23-6.23-15.9l-1.69-.03c-1.43-1.73-7.4-34.11-8.9-39.38-3.33-11.69-6.61-20.4-11.72-31.8-2.62-5-4.9-8.57-8.2-13.14-8.21-8.31-14.57-9.93-25.45-12.97 4.26 11.05 9.33 26.16 10.86 37.99.31 1.36.87 4.59.24 5.94l-.17.09c-.59-.23-1.4-2.57-1.6-3.01-3.35-7.2-6.87-14.08-11.64-20.45-4.58 1.3-2.18-3.13-5.06-4.58-.53.06-.27-.01-.78.19.81-.99-2.07 6.16-2.24 6.55.55 1.51.83-.08 1.81 1.45.05 3.87-4.99 6.39 2.79 7.67l2.11.72c.73 7.1-1 29.45-1.21 38.1-1.02 41.65 1.63 67.92 12.58 107.65-12.6-22.5-27.62-67.95-29.45-93.03-1.77-12.86-4.22-19.52 5.49-7.76l2.01.56c-.01-3.83-2.91-13.6-5.07-16.97-2.96-.31-2.43-.07-5.5 1.29-1.57-5.74.63-14.83-.79-21.12-7.37-32.69-26.26-56.73-52.64-76.54 1.53 17.58 9.84 35.97 13.6 54.49-2.56-3.28-7.34-9.78-9.93-12.68-3.45 6.81-7.77 15.99-6.46 23.74 1.66-.41 2.87-.77 4.5-1.3 1.4 3.78 3.12 44.97 3.63 53.4-1.23 1.26-1.83 1.69-2.68 3.17-4.35-10.89-14.43-42.06-14.83-52.79 1.9.02 1.29-.03 2.93.14l1.02.11c.21-4.29-2.22-13.23-3.89-17.27-2.54.17-1.27.19-3.82-.08-2.61-5.17-3.5-16.11-6.48-20.69-8.84-13.59-16.53-19.05-23.31-34.48-.39.85-.74 1-1.54 1.72-.81 20.97.28 47.89 1.89 68.94-4.31-4.01-7.54-6.93-11.37-11.48-2.46 9.38-3.54 14.9-4.6 24.58l7.34-7.67c1.53 26.51 2.79 49.67 6.1 76.04l-4.21.99c-1.13-9.21-3.35-18.26-6.62-26.95l-3.34 14.35c-.67 5.24-1.83 10.4-2.64 15.62l-1.91.6c-.27-3.81-.91-6.47-1-10.37-2.95-14.36-7.94-119.01-2.47-126.53l3.48.58.72-1.55c-.44-5.07-3.11-9.66-5.32-14.37-1.99 2.58-4.14 5.79-6.06 8.49 10.21-40.8 14.19-79.4 22.26-119.43-4.46-.27-9.39-.17-13.9-.17-2.6 12.6-4.59 26.9-6.62 39.73-1.66-2.98-3.52-5.95-5.3-8.87-1.48 3.31-4.85 10.34-4.93 13.78-.55 25.53-10.69 49.98-13.97 75.55.02 1.07-.21 6.61-1.28 6.82-1.64-1.93-1.5-11.78-1.4-14.41-1.05-61.55 19.94-112.37 38.78-169.65 1.18-3.6 3.41-8.94 2.6-12.31-2.12-.88-2.63-1.08-4.55-2.29.45-5.83 5.04-20.53 6.49-27.2 2.77-12.74 4.55-24.53 6.54-37.41l-9.66-4.98c-6.34 17.62-12.55 37.07-24.06 51.89 9.67-23.56 11.48-33.47 9.81-58.73 4.59-8.53 25.3-49.65 8.81-54.74-7.25 1.78-17.57 7.38-24.32 11 3.73 4.64 7.94 8.58 12.16 12.77-8.58-.53-16.53-.07-25.09.28-.51 4.67-1.35 9.68-2.05 14.36-8.71 2.05-16.56 2.9-23.62 8.47-.04 1.42-.08 2.82-.21 4.24-.81 8.85-30.81 32.16-38.42 38.68l-1.71-3.25c1.73-3.5 6.4-10.82 8.57-14.48-9.98 1.34-14.62 1.51-23.48 6.67-.48-.63-.86-1.21-1.46-1.7 44.92-37.85 71.02-68.1 106.42-113.27 20.14 1.35 127.64 32.93 147.23 40.79-9.28-10.15-30.48-32.68-42.66-37.91.21-1.01.4-2.01.59-3.02 18.16 1.99 38.68 8.05 56.3 12.93 39.1 10.82 72.3 20.78 107.62 41.4-12.91-25.72-33.67-40.09-57.73-54.43l3.13-2.33c32.02 5.36 98.11 27.24 127.14 41.35a363.4 363.4 0 0 0-32.28-41.57c41.19 15.83 78.75 35.2 117.79 55.61-10.05-21.43-23.82-45.71-35.31-66.66 17.93 14.18 40.25 33.33 58.27 46.31-25.02-54.48-47.08-99.61-75.49-152.69 13.87 14.58 29.67 31.49 44.53 45.01 1.45-2.28 1.46-2.17 2.15-4.84-15.54-39.13-30.67-73.913-46.94-112.32 4.91 6.247 10.94 15.861 15.64 22.644a1006 1006 0 0 0 27.81 38.326c-1.39-4.98-2.54-9.97-3.65-15.016-6.34-28.885-12.9-41.381-1.77-70.422-8.39-18.736-16.31-37.658-24.5-56.485-10.62-24.433-19.2-49.608-28.93-74.392l1.1-2.255c15.26 25.818 25.11 47.989 44.9 71.758a4780 4780 0 0 1-10.97-68.335c-2.96-19.141-4.33-34.68-11.72-52.906-11.7-28.87-20.73-59.607-32.26-88.507l1.86-1.9a3039 3039 0 0 0 39.4 62.089c.12-11.014-.09-48.438-2.54-57.654-8.55-32.151-33.97-72.164-49.43-103.134 12.18 14.602 33.73 35.405 47.53 49.604 2.68-17.804 5.8-36.052 3.39-54.089-6.12-45.713-9.75-92.941-17.43-138.376l1.85-2.393c7.73 28.373 16.02 59.685 25.02 87.509 5.7-46.085 12.62-92.009 20.77-137.723-8.2 8.181-18.81 17.083-27.65 25.624a2896 2896 0 0 1 35.75-72.393c-20.78 15.694-42.38 30.949-62.73 47.129 7.4-9.515 13.26-19.119 20.19-28.826 7.82-10.95 15.29-20.661 22.57-32.032-15.66 1.612-147.66 13.974-155.21 11.546l-.99-1.973c60.61-19.694 125.97-54.284 184.48-79.784-19.46 12.853-35.97 27.127-56.74 39.787-.93 3.307-3.31 8.625-4.68 11.967 30.07-4.347 70.27-14.901 95.67-31.374 10.27-6.659 18.71-14.645 27.32-23.227"/><path fill="#6f5f61" d="M1583.55 1388.36c28.98-10.66 50.97-15.62 80.36-24l-18.09 28.7c11.88-6.77 24.29-13.42 36.29-20.04-7.99 18.24-17.18 35.82-25.29 54.12 11.07-12.22 21.93-24.62 32.59-37.2-2.04 28.15-5.19 56.12-5.77 84.36-.12 6.11.49 12.86.05 18.68l-1.36.85c-3.61 1.86-1.33-1.43-6.88 2.61 4.83 13.06 9.67 28.83 14.95 41.23-10.92-7.74-20.44-15.29-30.09-24.64 10.08 21.43 16.77 37.18 25.18 59.22l-12.74-.23a1827 1827 0 0 1 16.51 50.17c-3.46.01-7.95-.43-10.72 1.24 1.52 9.99 10.17 33.92 13.2 46.73l-2.17 2.35c-16.21-30.98-34.32-45.42-60.83-66.72 1.66 8.69 3.41 38.2 1.69 46.49l-1.95.74c-3.19-6.28-5.09-10.02-9-15.85-8.85-15.27-17.89-26.49-28.71-40.37l-3.12 1.97c-1-2.27-2.07-4.51-3.11-6.77-1.67-2.48-3.5-4.84-5.29-7.23-17.94 44.33-26.95 81.82-22.14 130.14l-1.88-.07c-2.06-10.36-7.89-47.17-5.28-55.34l3.03-.45c5.55-5.96-6.97-14.91-6.47-21.65.92-12.54 1.64-23.78 1.09-36.35-.68-7.69-1.22-8.66-5.94-14.93-2.68 6.23-4.91 11.57-7.95 17.78-2.64-16.56-5.97-29.7-11.32-45.57-.85-.96-2.88-5.08-3.96-6.59-5.14-7.17-9.84-9.82-17.12-14.09-2.66 1.77-4.83 2.74-5.14 6.49-1.19 14.43 5.88 45.03 1.87 58.56-1.03-.75-1.68-1.28-2.34-2.35l-.55-.88c-2.15-2.83-4.4-5.92-6.65-8.65-1.51 4.31-4.48 11.33-4.37 15.58l1.1 1.76c2.56.17 3.36-.61 5.69-1.83.07 8.73.66 28.19-.25 36.16-2.32-1.59-1.27-.77-2.18-4.86l-.51.84c-2.6-5.23-3.52-10.23-6.23-15.9l-1.69-.03c-1.43-1.73-7.4-34.11-8.9-39.38-3.33-11.69-6.61-20.4-11.72-31.8-2.62-5-4.9-8.57-8.2-13.14-8.21-8.31-14.57-9.93-25.45-12.97-15.81-4.09-23.28-6.59-34.2-18.49 11.58-2.65 15.42-2.92 27.29-2.2l-.55-1.62c-2.93-8.43-1.33-16.59 8.38-18.9 34.65-8.25 75.85 5.61 106.98 20.26-19.17-21.87-38.65-35.05-66.85-43.5 38.78-18.98 79.09-15.95 119.55-2.81-11.91-11.91-23.3-17.14-38.67-23.84-6.5-2.84-16.5-6.86-14.96-15.16 16.9-22.67 73.46 3.26 93.67 13.21-14.98-24.04-19.03-28.02-42.88-43.84"/><path fill="#171c20" d="M1488.77 1571.47c2.96-15.94 2.86-28.13-1.24-43.72l13.78 9.9c-2.66 1.77-4.83 2.74-5.14 6.49-1.19 14.43 5.88 45.03 1.87 58.56-1.03-.75-1.68-1.28-2.34-2.35l-.55-.88c-2.15-2.83-4.4-5.92-6.65-8.65-1.51 4.31-4.48 11.33-4.37 15.58l1.1 1.76c2.56.17 3.36-.61 5.69-1.83.07 8.73.66 28.19-.25 36.16-2.32-1.59-1.27-.77-2.18-4.86l-.51.84c-2.6-5.23-3.52-10.23-6.23-15.9l-1.69-.03c-1.43-1.73-7.4-34.11-8.9-39.38-3.33-11.69-6.61-20.4-11.72-31.8 1.94-2.3 1.97-2.35 3.33-5.07 9.12 8.42 17.54 16.07 26 25.18"/><path fill="#131518" d="M1495.15 1599.47c3.91-5.64 1.15-3.76 2.35-8.56-.07-.37.36 10.15.54 11.79-1.03-.75-1.68-1.28-2.34-2.35z"/><path fill="#172022" d="M1562.9 1569.34c5.71 4.45 12.31 9.46 16.35 15.43-17.94 44.33-26.95 81.82-22.14 130.14l-1.88-.07c-2.06-10.36-7.89-47.17-5.28-55.34l3.03-.45c5.55-5.96-6.97-14.91-6.47-21.65.92-12.54 1.64-23.78 1.09-36.35l.75-2.8c2.71 1.56 6.42 12.57 7.8 16.1 3.72-17.47 5.88-27.06 6.75-45.01"/><defs><linearGradient id="a" x1="1526.29" x2="1536.619" y1="1579.823" y2="1579.031" gradientUnits="userSpaceOnUse"><stop offset="0" stop-color="#17181d"/><stop offset="1" stop-color="#132123"/></linearGradient></defs><path fill="url(#a)" d="M1522.39 1558.33c4.1 1.15 6.62 7.14 9.4 11.29 3.62 5.3 6.92 10.81 9.87 16.5-2.68 6.23-4.91 11.57-7.95 17.78-2.64-16.56-5.97-29.7-11.32-45.57"/><path fill="#172022" d="M1451.24 1538.22c4.14.42 8.35 4.98 11.53 8.07-1.36 2.72-1.39 2.77-3.33 5.07-2.62-5-4.9-8.57-8.2-13.14"/><path fill="#171c20" d="M1671.54 1487.31c3.81 2.27 7.17 3.94 10.79 6.52-3.61 1.86-1.33-1.43-6.88 2.61-.66-2.76-2.65-6.36-3.91-9.13"/><path fill="#131518" d="M1584.54 1592c2.88-1.32 4.14 2.33 6.23 4.8l-3.12 1.97c-1-2.27-2.07-4.51-3.11-6.77"/><path fill="#6f5f61" d="M1364.95 1274.01c9.79-15.66 24.3-32.23 42.67-37.67 3.4-1.01 7.11-1.28 10.2.79 2.68 1.8 5.04 5.8 5.05 9.09.03 7.6-30.17 33.09-37.35 39.84-1.32 3.1-.66 2.98.26 6.33 36.31-16.63 72.82-32.83 109.52-48.57-15.72 25.84-31.03 45.58-48.51 69.99l.81 1.99c14-13.16 76.64-36.61 97.27-43.67-3.26 5.27-9.2 13.78-8.2 19.51 2.53-.26 19.53-8.48 24.38-10.23 20.02-7.22 40.12-14.24 60.1-21.53-2.66 6.38-8.47 17.7-4.39 24.22 2.18 3.49 7.31 3.24 11.02 3.5-10.94 6.22-23.07 23.17-29.72 33.83.26-4.95.51-23.35 1.7-26.89l-.36-.94.05-.04c-1.02-.31-1.15-.09-1.99.55-9.74-1.74-67.05 41.34-77.9 48.13-1.65-11.09-2.5-18.61-3.21-29.9-23.03 19.38-47.45 45.23-60.39 72.67-1.75-6.19-.55-18.71-1.3-19.78 1.06-10.64 3.69-15.72 8.03-25.33-39.25 25.73-60.87 43.19-89.09 81.22.32-15.92 1.67-28.49 3.91-44.37-30.3 24.03-45.96 39.19-68.25 71.16l-3.18.09c.31-14.38 9.17-33.98 14.9-47.14-7.15 2.03-13.81 3.57-21.07 5.22 4.95-19.04 15.16-49.84 22.27-67.72l-15.18 3.73c6.82-16.26 13.71-30.12 24.37-44.16-8.15 2.45-16.29 4.94-24.41 7.48.33-1.09.69-2.17 1.08-3.25 10.6-29.92 33.8-43.55 61.09-56.65-.79 11.03-2.07 17.77-4.18 28.5"/><path fill="#131518" d="M1385.52 1286.06c-1.32 3.1-.66 2.98.26 6.33-5.07 2.44-9.55 4.62-14.56 7.26z"/><path fill="#2b2e31" d="m1446.79 1313.81.81 1.99c-.68.44-1.98 1.79-2.94 1.41l-.06-.16c.23-1.23 1.44-2.34 2.19-3.24"/><path fill="#6f5f61" d="M1736.67 1339.07c23.63-24.87 46.13-32.65 79.58-23.18 5.71 1.61 23.35 6.3 26.1 11.1-1.83 1.72-10.08 2.73-13.28 3.35 5.09.66 18.6 3.29 22.04 1.56 24.57 12.45 39.06 16.6 55.16 41.97.04.22.07.45.1.67-3.67.69-7.58-2.51-13.27.58-1.4-2.44-4.4-.66-1.08-5.91-5.48-1.7-10.08-2.95-15.64-4.32 6.44 13.68 12.09 26.35 16.88 40.77l-3.21 1.49c-13.54-25.18-26.29-44.46-53.92-56.17-6.52-2.77-14.61-2.93-21.09-5.13-2.83-.97-9.3-6.27-12.4-7.52-25.77-10.39-41.62-7.53-65.97.74"/><path fill="#171c20" d="M1892.02 1369.21c5.17 1.52 9.22 2.8 14.25 4.66.04.22.07.45.1.67-3.67.69-7.58-2.51-13.27.58-1.4-2.44-4.4-.66-1.08-5.91"/><path fill="#fbf6f2" d="M1627.78 1287.6c9.37.35 18.01 3.78 26.58 7.39-8.62 7.83-25.06 14.23-32.66 24.84-7.48 10.43-31.84 15.02-44.2 17.17l-7.29 1.33c6.41-10.29 22.14-34.6 27.25-44.22.84-.64.97-.86 1.99-.55l-.05.04.36.94c-1.19 3.54-1.44 21.94-1.7 26.89 6.65-10.66 18.78-27.61 29.72-33.83"/><path fill="#fbf6f2" d="M1698.55 1740.46c2.15 9.39 4.56 24.06 4.56 33.58-1.86-4.05-2.22-6.61-2.69-11.08-.49-4.71-1.18-2.98-4.29-5.46-1.9-1.52 1.5-2.78-.69-4.88-2.87-.73-2.47 8-3 8.95-1.05-.22.06-2.33-.7-3.14l-.18.07c-.43.52-.58 1.29-.79 1.92-3.13.82-3.53-1.46-1.8-3.7 1.95-2.24 2.54-3.11 4.13-5.56.65-2.19 1.03-2.49 2.21-4.56 1.13-2.02 2.21-4.07 3.24-6.14"/><path fill="#fbf6f2" d="M1420 1557.09c-1.22.54-3.11 1.69-4.43 1.24-1.18-1.35-1.96-8.23-2.35-10.34l-.98-6.01c-.16-1.03-2.54-10.11.51-8.61 4.02 1.99 9.2 8.46 10.73 12.44-4.58 1.3-2.18-3.13-5.06-4.58-.53.06-.27-.01-.78.19.81-.99-2.07 6.16-2.24 6.55.55 1.51.83-.08 1.81 1.45.05 3.87-4.99 6.39 2.79 7.67"/><path fill="#fbf6f2" d="M1737.35 479.642c2 5.76 5.61 12.532 8.21 18.273-.5 3.381-3.72 2.77-6.31 3.883-1.09-2.399-1.79-4.925-2.76-7.375.04-1.969-.77-7.934-.35-8.821 1.45-3.095 1.27-2.462 1.21-5.96"/><path fill="#171c20" d="M1736.49 494.423c3.42 1.675 5.39 2.914 9.07 3.492-.5 3.381-3.72 2.77-6.31 3.883-1.09-2.399-1.79-4.925-2.76-7.375"/><path fill="#fbf6f2" d="M1716.42 1300.35c.51-.7.46-1.54 1.4-1.26.32.54.89 7.53-.27 8.39-2.65 1.98-4.47 3.64-5.53 6.79-2.73 4.88-4.13 8.76-8.48 12.1 2.5-6.39 5.35-10.26 8.38-16.21l-3.43-2.47z"/><path fill="#131518" d="M1716.42 1300.35c-1.62 4.34-2.47 5.7-4.5 9.81l-3.43-2.47z"/><path fill="#131518" d="M1654.42 1694.74c2.53-3.15-.12-25.6 1.22-26.45 1.28.93-.26 37.13 1.24 42.88-.54.83-1.53 2.55-2.35 3l-.26-.2c-.56-1.56.11-16.24.15-19.23"/><path fill="#171c20" d="M1279.91 1632.12c.16-1.42.2-3.37.72-4.66l-.24-.27c-.1-.55-.47-1.14-.24-1.65.07-.15.12-.14.25-.19l.08.11-.08.03c.34 4.13 2.7 2.32 5.06.78-.67 5.24-1.83 10.4-2.64 15.62l-1.91.6c-.27-3.81-.91-6.47-1-10.37"/><path fill="#fbf6f2" d="M1695.3 1824.09c.6 2.25 2.31 15.59-.33 16.09-1.61-.7-1.94-2.68-3.37-3.18-.87.72-1.71 5.55-1.93 6.7-.52-6.96-2.12-8.43 3.7-9.77 1.32-.3 1.58-7.78 1.93-9.84"/><path fill="#fbf6f2" d="M1893.62 1497.44c-.07 1.35-.17 2.71-.26 4.06l-.18 7.37c-1.36-.23-1.69-.14-2.7-.77-.35-.22-.79-.34-1.18-.33l-.12.06-.05.21c-3.02 1.4-1.45 2.52-.52 3.61-.18.12-.35.25-.52.37l-.66-.53-1.02.53c-.44-.12-1.59-.3-2.37-.37 3.48-4.42 6.51-9.47 9.58-14.21"/><path fill="#171c20" d="M1404.03 1610.53c-1.77-12.86-4.22-19.52 5.49-7.76-4.5 1.24-3.86 3.08-5.49 7.76"/><path fill="#d3d2d0" d="M1648.64 1646.1c.72-3.03 1.74-6.35 2.58-9.38 1.08 8.06 1.86 11.04 1.88 19.31-4.09-4.81.21-6.48-4.46-9.93"/><path fill="#555153" d="m1890.05 1407.15 3.21-1.49c1.04 4.09 1.98 8.2 2.81 12.33.25 1.24 1.17 2.92.29 4.11-.81-.33-5.5-12.94-6.31-14.95"/><path fill="#131518" d="M1690.15 1738.69c2-1.88 1.21-3.11 1.36-5.91.71 5.65-.97 14.47 1.59 18.38-1.59 2.45-2.18 3.32-4.13 5.56.64-6.21.8-11.84 1.18-18.03"/><path fill="#171c20" d="M1847.31 1312.42c7.46 1.97 1.23 4.59-2.37 4.67-1.85-1.13-2.95-1.43-3.44-3.55l.24-.38c-.05-.11-.1-.21-.15-.31.34-.22.73-.32 1.13-.29 1.29.1 1.85.31 2.97.13z"/><path fill="#171c20" d="M1778.27 560.859c4.86-2.908 1.91-2.679 2.9-7.191l.24-1.093c1.43 4.931 2.05 10.061 2.93 15.147-1.97-2.369-3.87-4.702-6.07-6.863"/><path fill="#6a6061" d="M1455.96 1385.01c-.34.3-.78.8-1.17.86-2.26-1.31-1.38-18.12-.13-20.64.75 1.07-.45 13.59 1.3 19.78"/><path fill="#131518" d="M1634.53 1668.08c2.69-.99 1.86 1.91 4.8.66.64.04.5.05 1.13.51-2.55 10.41-3.34 9.13-5.93-1.17"/><path fill="#131518" d="M1879.83 1419.92c2.07-.68 2.04.09 2.51 2.02-2.05 5.44.24 10.41-1.46 15.57-.03.09-.16.07-.27.07-.18-.19-.4-14.89-.78-17.66"/><path fill="#171c20" d="m1752.37 1137.55.86-.88c.37-.45.75-1.15 1.33-1.34-.17-.04 2.24 1.98 2.58 2.19-.32 10.69-.41 10.01-4.39.89z"/><path fill="#131518" d="M1721.94 1382.11c2.41-5.44.6-4.58 1.67-9.12l.16-.04c.39.18.75.56 1.05.83.16 1.19 1.04 9.68.46 10.64-1.3.68-2.57-1.46-3.34-2.31"/><path fill="#171c20" d="M1686.79 1822.08c2-.59 5.1-1.24 6.67.46-3.43 1.93-4.07 2.18-6.29 5.41l-1.72-.53c.43-1.98.71-3.4 1.34-5.34"/><path fill="#555153" d="M1687.95 1060.04c1.26 3.72 6.69 14.42-2.15 4.84 1.45-2.28 1.46-2.17 2.15-4.84"/><path fill="#131518" d="M1719.31 1565.82c2.01-.25 2.21-.55 3.91.24.03 1.25.52 6.71-.04 7.51-1.58.36-3.42-6.48-3.87-7.75"/><path fill="#131518" d="M1714.03 651.207c1.5-1.61 2.63-3.505 4.3-4.739-.66 5.473-.55 11.656-4.3 4.739"/><path fill="#8f8d8c" d="M1245.12 1491.74c.49 2.33.68 7.25 1.48 8.71.4-.37.8-.75 1.2-1.12.02 1.07-.21 6.61-1.28 6.82-1.64-1.93-1.5-11.78-1.4-14.41"/><path fill="#555153" d="M1691.74 1670.16c1.66 7.54.91 12.62-2.17 2.35z"/><path fill="#171c20" d="M1804.66 1221.58c1.39-.77 2.74-1.46 4.15-2.19.46 7.28.65 7.98-4.15 2.19"/><path fill="#2b2e31" d="M1436.65 1563.24c.31 1.36.87 4.59.24 5.94l-.17.09c-.59-.23-1.4-2.57-1.6-3.01z"/><path fill="#797877" d="m1716.73 1280.84 3.17 4.32c-3.83 5.41-2.93-.78-3.17-4.32"/><path fill="#fbf6f2" d="m1723.88 1562.61.05-1.78c.15-4.32 1.57-2.23 2.49.24-.85.57-1.65 1.02-2.54 1.54"/><path fill="#555153" d="m1306.08 1448 3.18-.09c-1.84 2.72-2.86 5.67-3.33 1.6z"/><path fill="#d3d2d0" d="M1300.27 1487.47c-.11-.86-.57-3 .65-3.34.74.44.61.82.89 1.62-.39.85-.74 1-1.54 1.72"/><path fill="#172022" d="m193.866 288.997.935 1.159c1.168 1.499 2.957 1.412 4.694 1.786-8.726 23.397-8.37 44.13-3.421 68.678-1.084.716-2.855 1.442-4.074 2.002l-1.641-.619c-3.267 13.893-7.009 45.744-7.729 60.508 4.447 3.449 7.321 5.501 11.118 9.767 5.99 1.895 22.68 17.806 27.953 22.481 3.615-.071 6.612-.001 10.225.168 4.872 7.225 19.657 21.666 20.503 25.341-1.986 1.664-3.232 2.241-3.874 4.664 28.673 38.457 109.172 4.81 114.218-39.292.363-3.174 3.144-13.711 4.064-17.269 4.303-6.046 1.211-14.155 2.786-15.325 1.365.329.517.853 1.742 2.044.681-.099 1.084-1.369 1.309-1.826 3.787 11.087 7.037 30.552 8.036 42.694.107 1.643 1.14 7.502-.248 8.48-1.133-.128-2.174-1.595-2.98-2.437l-2.791-1.257c-2.308 2.615-12.937 32.353-15.236 37.829-2.433-3.087-4.427-6.242-7.88-8.009-8.176-.223-18.117 20.98-28.386 21.037-.625-2.842-.491-3.137-.356-6.094-6.628-5.644-23.976 14.17-27.597 19.206 7.672-3.39 12.727-5.631 19.595-10.625-.899 4.7-1.879 9.227-2.306 13.995 5.094.017 13.586-.238 18.396.085 3.518 2.658 5.012 2.727 9.332 3.577-61.825 25.502-109.762-6.169-146.127-55.438-1.374 2.858-.837 5.565-1.131 8.867 2.626 24.45 15.879 59.955 26.117 82.443 1.387 4.161-1.994 2.092-3.541.958-6.192-4.541-5.209.72-8.05-.071l.125-.028-.119.036c-1.007 2.252 5.4 3.647 1.498 5.751-1.06.571.007 5.648.159 7.049 2.029 5.287 1.027 5.012 7.018 6.467l1.017 3.106c-3.431.887-3.178-1.542-7.94.443-33.003-57.417-39.853-130.381-33.226-194.948-.302-4.275.864-6.39-1.539-9.452-6.314 9.931-13.488 27.487-19.097 38.823 1.692-45.906 13.218-97.875 38.449-136.754"/><path fill="#fbf6f2" d="M193.748 432.278c5.99 1.895 22.68 17.806 27.953 22.481-4.18 1.263-10.453 2.4-14.945 3.463-4.046-7.4-9.339-18.181-13.008-25.944"/><path fill="#fbf6f2" d="M202.672 558.74c3.225 1.836 13.901 8.719 16.44 8.877 1.387 4.161-1.994 2.092-3.541.958-6.192-4.541-5.209.72-8.05-.071l.125-.028-.119.036c-1.007 2.252 5.4 3.647 1.498 5.751-1.06.571.007 5.648.159 7.049-1.602-4.496-4.003-11.684-5.089-16.318z"/><path fill="#fbf6f2" d="M174.514 386.928c.876-2.53 2.734-5.676 3.965-8.324-.647 6.107-1.034 11.739-2.426 17.776-.302-4.275.864-6.39-1.539-9.452"/><path fill="#171c20" d="M377.482 462.001c1.278-2.989 1.228-3.546 3.228-6.043.107 1.643 1.14 7.502-.248 8.48-1.133-.128-2.174-1.595-2.98-2.437"/><path fill="#fbf6f2" d="M192.995 485.174c-.377-1.655-2.217-10.59-1.239-11.595l.494-.034c1.055.783 1.33 1.562 1.876 2.762-1.374 2.858-.837 5.565-1.131 8.867"/><path fill="#171c20" d="M333.16 500.06c3.243 3.45-6.371 8.329-8.713 9.458-.687-4.654 4.257-3.633 8.713-9.458"/><path fill="#172022" d="M971.866 1178.39c.815 2.94.697 2.95 2.365 5.45 2.635-.37 18.43-10.26 22.494-12.26 24.115-11.9 40.445-19.04 67.285-22.14l2.54 2.66c-17.32 11.18-30 52.87-39.22 56.19-2.69-5.54.61-4.44-2.94-7.93-2.9.73-2.69.81-4.83 2.98-1.97 8.16-11.75 38.98-15.58 46.1-3.69-3.15-1.73-4.42-5.342-6.15-5.028 2.96-8.833 18.89-10.285 24.49a256 256 0 0 0-7.935 47.53c-.192.32-.447 1.11-.972 1.13-.598-.37-2.056-2.67-2.552-3.29-1.09-4.71-3.02-7.48-5.401-11.67-9.62 21.7-17.058 40.58-23.614 63.57l-2.485.83c4.746-26.71 10.82-51.17 19.892-76.75 13.757-38.78 24.972-53.79 28.757-95.9-8.045 5.09-11.569 8.82-17.989 15.65-7.381-1.13-12.783-1.7-20.237-2.22-10.71 8.57-18.875 19.83-31.252 26.12-6.092 3.1-12.252 6.05-18.418 9 20.734-27.72 37.988-43.25 65.719-63.39"/><path fill="#171c20" d="M976.894 1313.15c.26-.39 1.865-3.02 2.51-3.36.355.56.817 4.45 1.014 5.52-.192.32-.447 1.11-.972 1.13-.598-.37-2.056-2.67-2.552-3.29"/><path fill="#172022" d="M361.804 1517.69a192 192 0 0 0 7.148-3.97c.659 20.07-44.459 143.37-55.377 162.65-2.093.23-2.092.18-4.269.13l.726-20.17c-15.067 8.47-18.179 15.01-26.767 29.95l11.377-3.67c-20.042 29.17-53.157 71.21-78.437 96.81l-1.921-.91a799.4 799.4 0 0 0 117.666-194.47c9.663-23.02 16.148-43.12 24.561-66.06 2.265.84 1.732-.65 5.293-.29"/><path fill="#172022" d="m1587.65 1598.77 3.12-1.97c10.82 13.88 19.86 25.1 28.71 40.37-12.56 74.12-10.95 151.57 15.06 222.8l-1.68 1.11c-.76-1.77-1.51-3.54-2.25-5.32-5.13-12.36-28.32-73.58-24.26-83.36 1.8.87 2.48 1.42 4.04 2.65.69-3.94-2.35-15.42-5.32-17.84-3.2 3.87-5.65 13.89-7.2 19.14-.15-25.07-2.15-46.28-2.79-70.37-.3-2.41-2.23-19.19-.6-19.81 1.15 1.32 2.25 2.72 3.35 4.1 2.7 3.81 5.54 7.01 8.56 10.54-1.76-8.58-5.57-40.33-9.38-43.82-.59.84-3.54 5.41-4.81 4.86-.06-.14 2.09-24.77 2.21-27.12-.32-14.4-1.89-22.51-6.76-35.96"/><path fill="#171c20" d="M1594.41 1634.73c2.3-2.85.11-6.49 1.16-7.95 4.02 3.2-2.92 24.61 1.44 30.21-.59.84-3.54 5.41-4.81 4.86-.06-.14 2.09-24.77 2.21-27.12"/><path fill="#131518" d="M1595.08 1705.98c-.3-2.41-2.23-19.19-.6-19.81 1.15 1.32 2.25 2.72 3.35 4.1-2.63 6.51 1.47 14.04-2.75 15.71"/><path fill="#171c20" d="M849.309 1436.72c.803-.25 7.272-1.77 3.972-3.99l.018-.2c.47-.21 1.437-.18 1.858-.2 5.244 12.11 9.904 54.05 10.009 67.36l-3.48 1.38c-1.375-6.26-14.883-55.5-14.172-57.14 3.39-2.09 7.116 3.72 1.795-7.21"/><path fill="#171c20" d="M1160.25 1253.36c.6.49.98 1.07 1.46 1.7 3.66 1.96 10.28 2.23 4.8 5.96-23.17 15.78-48.13 29.35-73.82 40.57-1.99.87-9.31 4-10.98 3.81l.05-.32c16.44-6.59 44.53-25.14 58.68-36.11z"/><path fill="#2b2e31" d="m1295.42 1638.87 4.21-.99c3.32 31.95 12.84 65.6 22.84 96.06 2.37 7.2 5.87 11.68 6.88 19.4l-1.46-.95c-2.51-9.93-8.44-21.95-12.13-31.43-6.83-17.54-23.14-65.17-23.18-81.87l1.5.4z"/><path fill="#2b2e31" d="m1490.92 1606.33 1.56-.03c.43 4.5-.14 11.55-.12 16.57.06 13.89.24 27.79.55 41.67.79 25.4 3.72 38.07 6.45 61.85-5.74-15.22-15.98-71.92-16.47-88.52l1.01-.67 4.08 1.27.51-.84c.91 4.09-.14 3.27 2.18 4.86.91-7.97.32-27.43.25-36.16"/><path fill="#171c20" d="M1716.49 1426.19c.29-.51.59-1.03.89-1.53 1.97-3.24.86-4.63.96-8.15.51-.28 1.31-.25 1.88-.31.71 1.77 4.61 22.31 5.92 27.29 4.33 16.43 8.73 29.21 14.42 45.13l-1.78.74c-9.92-17.3-20.29-39.48-26.19-58.63-.77-2.51 5.23-.18 5.9-1.11-.03-1.03-1.42-2.67-2-3.43"/><path fill="#2b2e31" d="M209.279 591.328c4.762-1.985 4.509.444 7.94-.443 2.45 4.075 4.343 9.81 6.276 14.324 10.621 24.793 23.868 48.778 39.723 70.604.653.899 2.88 3.204 3.122 4.076l-.054.163c-1.005.062-4.754-5.007-5.489-5.93-20.533-25.769-37.581-52.833-51.518-82.794"/><path fill="#171c20" d="m1787.74 1442.49 1.61 1.73c-4.7 14.8-4 24.72-1.19 39.81-3.58.87.38 1.57-.32 5.99-1.03 1.96-1.6 3.28-2.39 5.34-1.63 6.87-2.95 13.8-5.67 1.94-4.85-20.72-1.39-36 7.96-54.81"/><path fill="#131518" d="M1779.78 1497.3c3.11-.47 3.15-.25 5.67-1.94-1.63 6.87-2.95 13.8-5.67 1.94"/><path fill="#171c20" d="M817.295 1649.66c2.554 3.57 1.835 6.57 2.948 7.92 1.178-.99.84-1.09 2.093-.53-3.917 22.45-15.379 54.15-22.982 75.91l-.394 1.1-1.542-1.14a490 490 0 0 0 11.32-41.93l.985-4.5c2.606-12.1 4.805-24.95 7.572-36.83"/><path fill="#2b2e31" d="M287.66 836.257c-1.019 3.37.887 3.965-1.95 5.672-1.27.764.979 2.01 1.466 2.396-9.188 3.871-50.177 18.496-58.718 18.178 2.245-.06 8.653-2.756 10.964-3.672a362 362 0 0 0 29.939-13.301c6.137-3.019 12.153-6.236 18.299-9.273"/><path fill="#171c20" d="M763.269 1611.21c-.14-2.73-2.229-21.27-1.882-21.77-.639.15 6.994 2.15 7.548 2.25l2.278 1.73c-1.776 9.97-4.089 19.8-5.449 29.94.022 3.36-1.584 8.27-2.541 11.53l.143-5.99c.157-4.76-.536-14.41-.097-17.69"/><path fill="#aca8a7" d="M763.269 1611.21c1.665 3.47-.099 11.33 1.549 12.66.528-.1.512-.22.946-.51.022 3.36-1.584 8.27-2.541 11.53l.143-5.99c.157-4.76-.536-14.41-.097-17.69"/><path fill="#fbf6f2" d="m373.837 1047.26.496.96c.165.4.33.8.495 1.21-.471.6-7.624 5.56-7.072 6.66.83 1.65.025 4.18-2.012 4.69-.194-.7-.146-1.42-.446-1.97-1.153-.49-10.232 10.21-12.019 11.72l.069.26c1.094.37 2.037-.79 3.12-.65-.046.93-1.605 1.43-2.321 1.68-4.49 1.51-3.187 6.97-3.694 7.65-.907-.56-1.558-1.3-2.498-1.54-.152.05-6.137 4.47-4.829-1.86.088-.43 2.158-.81 2.49-.89 2.876-5.56 6.866-12.54 10.688-17.44 2.282-.81 8.517-3.73 9.464-2.86 2.81-2.56 5.219-5.12 8.069-7.62"/><path fill="#171c20" d="M356.304 1057.74c2.282-.81 8.517-3.73 9.464-2.86-2.397 3.04-16.937 17.55-20.152 20.3 2.876-5.56 6.866-12.54 10.688-17.44"/><path fill="#2b2e31" d="M652.115 1799.23c4.63-1.43 1.809-2.33 5.999.21 2.734 13.34 15.383 46.58 23.126 58.1l-1.317.49c-11.4-20.16-19.105-37.47-27.808-58.8"/><path fill="#171c20" d="M1738.79 382.668c4.6-1.94 2.53-2.509 5.9-5.914 5.01 14.254 8.91 27.025 14.48 41.457-8.42-12.166-13.72-22.369-20.38-35.543"/><path fill="#171c20" d="M1865.34 1617.07c.26-.51.52-1.02.79-1.52 4.42-8.3 8.21-16.93 11.32-25.8.98-2.72 4.3-13.38 5.34-15.14.37-.18.48-.09 1.01-.06.43 2.01.17 3.87 2.31 4.24.6-.24.89.12 1.36.5-7.14 16.18-12.25 24.29-20.38 38.94z"/><path fill="#2b2e31" d="M879.12 332.344a950 950 0 0 1 34.377 3.783c.906.117 11.783 1.678 11.945 1.76l-.077.291c-1.011.43-38.578.531-42.311.469-1.717-.324-3.266-.561-5-.564l-.216-.642-1.518.331-.042-.186c.8-.921 4.263-.492 5.459-.839l.138-.294c-.787-3.62-5.882-1.855-6.205-3.149l.673-.248z"/><path fill="#171c20" d="m362.359 383.257.654 1.699c3.631 9.282 7.086 18.668 9.661 28.308-.225.457-.628 1.727-1.309 1.826-1.225-1.191-.377-1.715-1.742-2.044-1.575 1.17 1.517 9.279-2.786 15.325.14-14.936-.833-29.02-6.134-43.197z"/><path fill="#131518" d="M310.279 182.67c10.145-.74 28.305-1.642 38.053.129l2.136.423c-3.891 3.323-5.748-1.3-9.655 4.396-.224.327-1.101.793-1.555 1.12a248 248 0 0 0-15.567-4.121c-4.37-.295-9.075-1.206-13.412-1.947"/><path fill="#797877" d="M310.279 182.67c10.145-.74 28.305-1.642 38.053.129-7.406.368-19.021-1.789-24.641 1.818-4.37-.295-9.075-1.206-13.412-1.947"/><path fill="#171c20" d="M1245.78 296.442c9.51-5.671 21.66-11.931 31.58-17.163-6.49 6.245-14.27 13.564-21.26 19.226-4.27-3.34-5.23-1.996-10.32-2.063"/><path fill="#2b2e31" d="M735.513 300.117c6.92-.456 27.234 4.62 33.992 7.39-3.943.284-7.991-.95-11.988-1.722-11.429-2.21-21.785-1.631-33.324-1.827 5.172-3.068 6.061-2.011 11.32-3.841"/><path fill="#171c20" d="M362.201 1496.45c1.096 4.11 1.612 6.88 4.094 10.5-1.522 3.61-3.108 7.07-4.491 10.74-3.561-.36-3.028 1.13-5.293.29 1.427-6.09 3.912-15.47 5.69-21.53"/><path fill="#131518" d="M517.79 224.708c6.541 5.696 14.205 11.918 20.355 17.925-5.559 1.325-4.096-.308-8.898.704-3.395-3.726-8.871-14.017-11.457-18.629"/><path fill="#8f8d8c" d="M130.443 1399.46c-5.575 2.39-35.37 13.36-39.909 11.93l.018-.13c-1.895 1.8 38.082-13.29 37.393-13.11z"/><path fill="#171c20" d="M330.921 528.168c7.514-.645 14.235-1.141 21.613-2.852l1.941 2.042c-4.956 1.114-10.318 3.741-14.222 4.387-4.32-.85-5.814-.919-9.332-3.577"/><path fill="#131518" d="M1787.84 1490.02c.7-4.42-3.26-5.12.32-5.99 2.71 5 4.97 10.49 7.94 15.93-1.28.36-2.4.37-3.73.47-1.12-4.02-3-6.51-4.53-10.41"/><path fill="#fbf6f2" d="M1384.24 291.163c-2.18-6.801 12.27-3.294 5.78 3.595-.57.608-4.27-1.324-6.03-1.469.42-1.129.48-1.01.25-2.126"/><path fill="#555153" d="m132.677 1080.46-1.811.39c-2.955.62-23.262 5.78-24.43 5.5 2.129-1.38 20.652-7.32 22.771-7.69z"/><path fill="#171c20" d="m1180.25 342.014 2.41.838c3.45 1.218 12.69 1.14 14.03 2.769l-.04.164c-1.36.521-12.65.728-16.53 1.261.23-2.249.24-2.79.13-5.032"/><path fill="#aca8a7" d="m1865.34 1617.07 1.75 1.16c-1.84 2.6-10.82 17.4-13.8 16.85.23-.1.47-.2.71-.3l.04-.78c3.93-4.53 7.64-12.98 11.3-16.93"/><path fill="#171c20" d="M593.582 1772.24c.602 3.92 1.057 9.14 1.531 13.23-2.346-3.76-4.644-7.3-6.889-11.14 2.277-1.35 2.91-1.2 5.358-2.09"/><path fill="#797877" d="M790.617 1752.18c2.923-5.72 4.187-13.44 6.801-19.26l1.542 1.14c-2.177 7.1-4.604 12.16-7.022 18.94z"/><path fill="#797877" d="M1907.02 1283.03c3.31 1.79 8.61 5.73 12.38 8.08l-.71 1.24c-5-2.56-9.38-4.63-13.85-8.16z"/><path fill="#aca8a7" d="M614.276 1940.67c1.712 4.53 3.903 9.35 5.772 13.85.3.72 1.501 2.93.145 3.04-.256-.33-.511-.66-.766-.98l.077.15c-2.304-4.13-5.184-9.65-6.443-14.16z"/><path fill="#797877" d="M1859.79 604.487c4.31 2.273 12.57 7.535 17.02 10.273-6.62-2.638-14.18-5.629-20.22-9.456z"/><path fill="#8f8d8c" d="M1898.47 1739.25c2.76 1.7 5.52 3.39 8.3 5.05 2.78 1.44 4.25 2.24 6.63 4.14-1.91.03-15.65-6.99-17.56-8.28z"/><path fill="#d3d2d0" d="M681.24 1857.54c1.282 1.33 7.063 9.49 6.204 11.05-1.763 1.1-7.005-9.07-7.521-10.56z"/><path fill="#555153" d="M204.379 1788.81c4.41-3.5 6.578-7.52 9.905-10.3l1.921.91c-2.838 2.97-6.767 6.66-9.163 9.73z"/><path fill="#2b2e31" d="M1384.24 291.163c.23 1.116.17.997-.25 2.126-2.92 1.922-6.07 4.213-8.96 5.991l-2.26-1.967c3.73-2.17 8.53-4.007 11.47-6.15"/><path fill="#131518" d="M1350.19 1610.81c.85-1.48 1.45-1.91 2.68-3.17.89 5.29 1.66 10.97 2.48 16.35-1.81-4.51-3.55-8.59-5.16-13.18"/><path fill="#d3d2d0" d="M1919.4 1291.11c15.98 4.39 7.56 9.51-.71 1.24z"/><path fill="#131518" d="M865.166 1499.69c-.061 3.19.021 5.81.182 8.99l-2.038.12c-.509-2.59-1.082-5.15-1.624-7.73z"/><path fill="#131518" d="M309.306 1676.5c2.177.05 2.176.1 4.269-.13l-.724 1.79c-.526 1.33-1.867 5.77-3.179 6.38-.947-.56-.387-6.99-.366-8.04"/><path fill="#555153" d="m1773.67 214.07.61 1.193c-3.31 3.383-5.06 5.799-8.04 9.041l-1.18-1.797c2.72-2.966 5.59-5.782 8.61-8.437"/><path fill="#555153" d="M355.79 371.293c3.162 4.455 4.388 6.929 6.569 11.964l-1.656 1.917c-1.564-4.648-3.36-9.187-4.913-13.881"/><path fill="#171c20" d="m1176.62 1262.87 1.71 3.25c-.42.36-5.75 5.42-6.5 4.34.04-1.31 3.91-6.33 4.79-7.59"/><path fill="#797877" d="m1666.74 1921.74 1.19 1.59c-1.28 3.25-2.67 5.68-3.7 8.95l-1.71-.66c1.44-3.17 2.82-6.64 4.22-9.88"/><path fill="#555153" d="M1634.54 1859.97c.84 1.99 2.46 5.81 3.03 7.77l-.5.63h.64l-.14-.41.12 1.27c-1.2.78-4.3-7.1-4.83-8.15z"/><path fill="#8f8d8c" d="m376.662 683.396 1.623.825c-.972 1.02-5.744 6.41-6.922 6.094-.463-1.495 4.161-5.821 5.299-6.919"/><path fill="#797877" d="m690.924 1697.14 1.837.72c-.594 2.12-1.348 4.15-2.118 6.22l-1.24.21v.41l.462.52-.238.12c-1.344-.98.97-7.18 1.297-8.2"/><path fill="#555153" d="M1740.56 1488.62c1.03 2.26 1.83 4.6 2.78 6.89l-.99.92c-1.17-2.36-2.41-4.7-3.57-7.07z"/><path fill="#6a6061" d="M947.879 1365.05c-.402 1.53-1.396 7.34-2.501 8.1l-.164-.18c-.491-2.63-.207-4.38.18-7.09z"/><path fill="#2b2e31" d="M1748.48 1396.53c.21 1.11 1.79 6.91.88 7.74-1.24-.29-1.74-2.25-2.19-3.22l-.86-1.83z"/><path fill="#797877" d="m1555.23 1714.84 1.88.07c.57 2.41.99 3.94.92 6.46l-.04-.64-.22 1.74c-.09.04-.18.09-.28.14-1.59-1.09-1.96-6.05-2.26-7.77"/><path fill="#fbf6f2" d="m790.617 1752.18 1.321.82c-2.605 8.21-5.534 8.94-1.321-.82"/><path fill="#555153" d="m442.441 474.992 1.649 1.104c-1.191 1.67-2.431 3.535-3.749 4.982-.339.373-.987.647-1.095.264-.374-1.317 2.787-5.792 3.195-6.35"/><path fill="#131518" d="m1085.03 1195.13 2.03 1.79c-.78.38-5.29 3.06-6.11 2.39.28-1.38 3.05-3.32 4.08-4.18"/><path fill="#555153" d="M1787.74 1442.49c3.83-6.7 3.79-4.25 1.61 1.73z"/><path fill="#d3d2d0" d="m1662.52 1931.62 1.71.66-.15.32c-2.46 5.05-4.45 4.13-1.56-.98"/><path fill="#555153" d="M211.17 246.199c-.825.636-4.105 3.541-5.284 3.147-.09-1.106 2.784-3.557 3.4-4.182z"/><path fill="#797877" d="M352.534 525.316c.727-.12 4.766-1.104 4.949.087-.524.65-2.225 1.466-3.008 1.955z"/><path fill="#fbf6f2" d="m425.946 199.348 1.309-.655-.801 1.146c-.267.474-.593 1.163-.824 1.319z"/><path fill="#555153" d="M1687.17 1827.95c-.3.69-1.45 4.13-2.47 4.23l-.12-.1c-.28-.94.12-1.98.39-2.87l.48-1.79z"/><path fill="#aca8a7" d="m204.379 1788.81 2.663.34c-1.02.91-2.214 2.47-3.622 2.76-.372-.11-.218-.01-.465-.3-.141-1.09.768-1.92 1.424-2.8"/><path fill="#aca8a7" d="M611.395 1713.87c.332 1.3 1.142 3.44.054 4.59-1.137-.1-1.321-2.62-1.462-3.34z"/><path fill="#797877" d="m1280.91 1642.49 1.91-.6c-.02.75.23 3.44-.83 3.83-1.1-.39-.98-2.31-1.08-3.23"/><path fill="#d3d2d0" d="M1773.67 214.07c.71-.985 1.03-1.986 2.24-1.899 1.02 1.229-.72 2.512-1.63 3.092z"/><path fill="#fbf6f2" d="M1659.91 1938.31c.16-.01.33-.03.49-.04.12.32.07.07-.06.9l-.32-.13c-.15-.34-.09-.12-.11-.73"/><path fill="#797877" d="m863.31 1508.8 2.038-.12c-.177 1.01-.215 2.37-.892 3.04-.258.06-.124.07-.403-.06-.673-1.02-.622-1.62-.743-2.86"/><path fill="#6a6061" d="m835.761 1639.18 2.45 1.52c-.143.73-.14 2.19-.822 2.68-.744-.47-1.392-3.36-1.628-4.2"/><path fill="#d3d2d0" d="M1743.34 1495.51c.23.47 1.32 2.12.3 2.56-.73-.09-1.04-1.18-1.29-1.64z"/></svg>