<svg xmlns="http://www.w3.org/2000/svg" width="2048" height="2048" viewBox="0 0 2048 2048"><path d="M0 0h2048v2048H0z"/><path fill="#727271" d="M553.238 406.038a1034 1034 0 0 1 132.502-42.551c249.639-61.967 571.82-53.175 812.44 42.663a852 852 0 0 1 23.96-9.131c3.95 9.567 7.91 16.957 13.09 25.962q19.02 8.175 38.22 15.912c-6.49 5.453-14 11.465-20.12 17.198a2914 2914 0 0 1-32.93-3.461l.75 2.133c29.52 8.213 29.4 17.22 45.65 43.203l-14.37 9.564a832 832 0 0 1-37.66-8.186c-1.36.696-1.34.848-2.61 2.055a1643 1643 0 0 0 41.65 22.47l-7.44 5.351c20.97 13.861 47.84 29.705 69.86 42.231 20.27-7.666 29.06 1.273 50.54 4.864 2.8 11.103 5.96 22.762 8.18 33.945l12.65-21.327c28.5 9.458 32.12 10.204 58.46 24.361a506 506 0 0 1-12.11 24.088 574 574 0 0 0 36.74-4.856c5.39 6.447 12.07 14.01 16.84 20.776-6.86 1.237-19.96 3.264-25.79 5.748l.82.415c6.05 1.221 11.45 2.227 15.16 7.567 3.18 4.589 4.68 11.644-1.57 14.389-7.57 3.321-19.69-2.71-27.15-5.498 5.31 4.563 16.76 13.498 20.42 18.494-1.02 3.892-3.51 1.017-3.54 3.985-.06 6.546 5.34 6.717.31 12.171-8.34 1.557-15.42-8.216-19.07-14.604-6.79 2.075-12.67 3.989-19.65 5.303 11.53 2.635 16.79 4.292 25.88 12.761-12.33 6.407-23.8 11.559-36.5 17.231 16.96.142 21.33-.057 35.96 8.372a3880 3880 0 0 0-40.78 20.976l29.86 11.199a694 694 0 0 1-36.6 20.243c11.09 2.641 19.91 5.12 30.78 8.46-9.91 5.265-24.16 12.295-33.35 17.984 4.4 2.643 9.74 6.033 14.17 8.436l-.93 57.521c-14.33-.533-29.34-1.317-43.63-1.516 11.79 12.354 28.01 28.357 38.23 41.652l-20.38-4.958a1578 1578 0 0 0 13.54 29.337 3033 3033 0 0 0-35.33-4.274c11.62 13.744 31.58 34.711 40.47 48.68-13.33-4.515-25.27-10.72-38.13-15.709a3948 3948 0 0 1 33.81 42.883c-12.42-1.05-26.01-2.46-38.35-2.97 11.63 7.12 20.8 13.99 31.78 22.13-.72 14.47.92 24.62 1.07 38.46.68-1.81 1.38-3.61 2.1-5.41-.33-17.01 12.5-85.14 16.19-104.316 17.04-88.482 31.61-181.627 56.42-268.083l13.05 6.671c-10.26 14.276-16.82 24.153-20.54 41.522 12.18 14.537 32.38 35.881 48.33 46.556 3.65 2.443 19.01 8.496 23.72 10.418l-3.79 15.234c6.38 6.437 13.41 13.262 19.55 19.845l3.42-12.352c18.43 9.647 37.43 20.937 55.62 31.238 9.3-3.645 18.52-7.472 27.67-11.48-9.72 10.787-23.54 24.483-32.02 35.354l-26.38-2.63-15.22 13.317c6.56 3.023 12.01 5.423 18.75 7.975 1.01 4.305 2.89 12.99 4.85 16.545 9.04 16.358 34.99 32.387 51.1 42.406q1.605 1.008 3.24 1.987c6.48-.005 30.75-.857 35.04 1.754-2.08 3.985-20.83 11.311-26.17 13.757l-28.51-3.107-6.99 9.383c-14.81-12.295-19.96-17.15-26.85-35.227l-38.76-15.914c4.48 9.411 9.5 20.627 14.28 29.71a1239 1239 0 0 1 15.19 3.791c-28.96 5.372-45.33 1.022-73.89-2.689 28.68 20.095 43.1 48.835 63.19 77.355-7.55 1.22-15.22 2.38-22.74 3.68 22.73 14.8 62.14 38.5 81.71 53.95-19.15-5.47-38.6-10.3-56.69-18.57 2.6 3.89 5.97 8.64 8.26 12.6-5.66-.06-25.49-.01-29.8-.99-16.03-3.68-35.85-12.22-51.88-17.92 16.64 27.23 38.74 59.75 57.01 86.22l-24.98 2.78c-3.13 8.52-6.5 17.25-9.19 25.89-18.49-12.99-35.24-25.62-51.98-40.93 7.42 15.12 27.84 56.13 37.83 68.85-16.47-9.12-28.63-18.28-44.25-27.78 23.13 34.87 61.54 64.78 95.94 88.35-8.84-2.56-21.16-7.97-28.27-9.47l-.83 1 .74 4.05c-13.74 5.18-41.33-38.24-47.17-46.8a711 711 0 0 0-3.92 40.19c-7.66-9.67-15.59-19.45-22.88-29.37 5.26 16.86 10.49 40.66 11.91 58.12-15.91-7.23-35.93-24.09-49.86-35.36 9.69 14.07 35.65 39.73 48.28 52.92a1596 1596 0 0 0-32.95 58.08c-13.15-.53-27.19-2.24-39.87-2.49 19.55 51.04 71.57 122.89 105.36 166.17 5.75 7.36 19.61 20.84 26.85 27.97-78.13-17.61-113.66-35.99-183.55-72.11a690 690 0 0 1-86.3 220.63l-2.58-.47c15.36-80.5-21.21-151.49-57.77-220.38-13.83-25.84-27.45-51.8-40.86-77.86 8.61-23.71 17.45-59.33 24.73-84.74 14.39-50.12 29.06-100.15 43.99-150.11l-4.6-6.86a474 474 0 0 0-46.13 13.11l-33.34-35.73c13.56-56.55 29.76-116.44 42.19-172.739-7.06-2.105-15.3-5.119-22.39-7.497 1.93-8.402 3.56-16.87 4.88-25.389-27.45 1-54.75 4.517-81.56 10.505a947 947 0 0 0-31.72-36.766c-8.49 7.195-18.98 17.72-27.19 25.582-8.96-7.35-18.3-15.689-27.13-23.295 9.85-38.392 17.23-80.232 26.67-119.231-134.37-25.708-265.5-41.089-402.47-28.16-65.55 6.188-129.386 13.55-193.743 27.929 8.583 34.86 18.714 83.881 25.375 119.53a808 808 0 0 1-29.253 22.941c-8.939-8.457-17.208-16.381-26.713-24.212-10.15 10.316-21.862 24.809-31.438 36.053-27.662-6.777-53.284-8.828-81.619-11.126l5.562 25.333a532 532 0 0 0-20.963 7.88c14.93 55.132 26.274 116.352 41.023 172.422-10.18 11.62-22.747 24.36-33.402 35.68a1068 1068 0 0 0-49.006-13.87c3.46 18.9 13.707 51.71 19.033 71.13l30.544 112.63c5.424 20.14 11.638 41.19 16.354 61.42-12.121 20.45-23.877 44.02-35.801 65.11-41.55 73.5-82.582 150.34-61.032 237.47-46.409-65.4-75.551-148.78-91.502-226.85-69.59 37.43-106.593 54.42-182.794 70.4 39.167-39.51 70.909-86.21 99.767-133.58 10.822-17.77 23.873-38.94 30.525-58.57-12.573.52-25.692 1.5-38.298 2.26-8.487-17.25-23.322-40.77-33.156-58.3 15.621-16.07 35.514-35.77 49.219-53.04-14.688 11.56-34.898 28.46-51.222 36.47 1.605-17.95 7.241-41.83 11.726-59.19-7.143 10.59-14.132 20.13-21.753 30.39a1191 1191 0 0 0-4.737-40.78c-8.405 12.01-31.081 48.49-47.758 47.21.264-2.34.397-3.32.316-5.65-3.68.37-23.146 7.9-28.197 9.46 32.254-22.28 75.655-54.78 95.594-88.4-15.32 9.24-28.064 18.9-44.254 28.26 11.553-12.85 29.77-51.99 37.769-68.91-18.598 15.79-32.164 26.8-51.941 40.86l-9.361-26.14c-7.849-1.18-16.982-1.98-24.963-2.88a3591 3591 0 0 1 35.055-53.13c5.819-8.73 16.617-24.04 20.802-32.88-14.794 4.78-28.102 11.19-42.421 16.46-8.506 3.12-27.342 2.11-37.672 2.95l7.715-12.75c-13.095 6.66-42.46 14.22-57.458 18.34 21.451-16.02 60.292-40.31 83.307-54.44l-22.215-3.99c12.66-19.5 28.597-44.621 43.838-62.177 3.16-3.639 14.194-11.654 18.492-14.837-17.559 2.058-37.195 5.867-54.714 5.859-3.308-.002-16.003-2.375-20.058-3.053l17.525-3.979c4.177-8.411 9.062-20.384 12.992-29.263-11.231 3.913-26.819 11.049-38.007 15.796-7.176 18.557-12.26 21.725-26.388 35.041-2.86-3.213-4.935-6.152-7.437-9.6-9.62.951-17.857 1.899-27.44 3.371-9.387-3.822-25.761-9.844-33.455-15.073 9.41-1.119 31.057-.638 41.687-.809 16.499-10.68 45.066-26.671 53.65-44.215 1.462-2.99 3.569-12.607 4.412-16.331l19.353-7.621-15.471-13.665c-8.549.555-18.125 1.748-26.726 2.627-8.336-10.86-22.15-25.334-31.506-35.593 8.725 3.112 19.387 7.87 28.103 11.472 17.368-8.749 38.278-21.648 55.395-31.572l3.314 12.959a1758 1758 0 0 1 19.153-19.078 657 657 0 0 0-2.932-16.187c5.964-2.328 23.147-8.454 27.141-12.085 13.688-12.444 32.013-29.962 43.126-44.16-3.71-19.056-9.131-27.132-20.462-42.548l13.403-6.315c22.3 74.986 35.913 147.286 49.898 224.09 9.714 53.349 19.548 102.486 25.036 156.656 2.79-12.4 2.686-28.57 2.655-41.48 8.76-7.29 16.628-12.77 25.954-19.14-2.946-1.25-5.576-1.08-8.771-1.48-8.275.41-16.361 1.37-24.588 2.27 10.529-14.46 21.643-28.981 32.373-43.325-12.702 4.886-23.874 11.144-36.957 15.546 11.777-16.894 27.796-34.14 41.636-49.75-11.716 2.253-24.697 3.531-36.601 4.801q6.969-14.437 13.491-29.082l-20.7 5.234c11.732-13.905 25.805-28.472 38.279-41.91q-21.435.746-42.862 1.723l-.058-58.307 12.478-7.002a1924 1924 0 0 0-32.071-18.492c10.121-3.666 19.032-6.108 29.463-8.603a1511 1511 0 0 1-35.299-19.295c8.97-4.605 19.339-8.487 28.765-12.273-13.596-6.657-27.584-14.14-41.084-21.106 6.993-3.605 13.87-5.718 21.494-7.657 3.452-.744 6.128-.909 9.503-1.558-10.732-4.89-20.759-10.5-31.111-16.126 6.707-5.841 10.009-8.227 18.547-11.129 1.39-.789 2.702-1.539 4.074-2.365-5.759-.485-10.859-2.652-16.281-4.625-3.101 4.751-6.822 8.94-10.466 13.299l-11.625.701 2.356-8.544c-1.127-2.495-2.339-4.382-2.149-7.048 4.448-5.844 15.154-14.241 21.028-19.15-6.17 2.456-28.638 10.901-32.328-1.064-1.177-3.818 3.642-8.388 6.246-11.246 4.889-1.507 10.312-2.625 15.327-3.784-9.213-1.804-18.651-3.937-27.859-5.894a378 378 0 0 1 16.647-20.435c11.434 1.731 24.016 3.062 35.571 4.502-2.79-8.301-6.746-16.392-10.418-24.364 27.015-16.042 26.697-14.325 57.678-23.768a680 680 0 0 1 12.106 20.555 3259 3259 0 0 1 8.756-33.122c20.419-4.64 31.443-12.243 51.37-5.279 23.478-14.364 47.082-27.866 70.459-42.482-1.806-1.45-5.101-3.64-7.091-5.049 15.467-8.59 32.778-17.761 47.606-27.131a1468 1468 0 0 1-47.836 11.301c-5.512-5.26-6.819-6.481-13.417-10.207 5.879-11.27 14.257-23.145 21.602-33.563 9.192-4.318 15.74-6.302 25.495-9.285l1.287-2.199-34.748 3.634c-7.234-6.295-13.464-11.763-21.221-17.47 10.02-4.286 28.575-12.773 38.295-15.64 5.697-8.848 9.45-15.896 14.284-25.137a435 435 0 0 1 21.888 8.018"/><path fill="#424242" d="M1521.15 454.763c-.83-.152-10.51-1.437-9.44-3.165 1.52-.74 7.04.47 8.69 1.032z"/><path d="M371.904 1018.92c1.609-.29 11.378-2.08 12.299-1.26-.029 1.22-2.659 2.29-3.528 2.74-2.946-1.25-5.576-1.08-8.771-1.48"/><path fill="#262626" d="M1512.16 501.399c-1.26-.675-5.09-2.264-5.46-3.751 1.06-.723 6.92 1.301 8.07 1.696-1.36.696-1.34.848-2.61 2.055"/><path fill="#262626" d="M329.166 730.134c1.372.316 1.562.369 2.847 1.056l.162.311c-.93 1.081-10.867.296-12.512.191 3.452-.744 6.128-.909 9.503-1.558"/><path fill="#5f5f5e" d="M1701.14 1072.76c-.04 2.12-.2 8.66-1.24 10.38l-.24.11c-.93-.44-.64-4.49-.62-5.08.68-1.81 1.38-3.61 2.1-5.41"/><path fill="#424242" d="M534.74 452.633c1.993-.62 2.68-.83 4.773-.598.212.172.451.32.62.534-.673 1.525-3.175 1.552-4.484 1.797q-1.101.217-2.196.466z"/><path fill="#424242" d="M320.676 700.514c11.012 2.299-2.233 2.353-4.074 2.365 1.39-.789 2.702-1.539 4.074-2.365"/><path fill="#424242" d="M1762.56 659.465c-.59.024-2.64.407-3.03-.412.57-.665 1.45-.199 2.21-.003z"/><path d="M521.553 1183.77c2.606 2.97 54.566 195.83 60.534 215.28-12.627-11.36-27.148-23.72-40.876-33.69-14.14 5.58-32.838 17.67-46.333 25.98l-10.549-33.61c-9.346.13-49.603-1.39-53.817 4.86 2.861 2.9 12.4 2.72 16.774 2.95-12.32 7.81-24.793 17.08-36.707 25.64-2.581-10.16-4.74-23.56-6.172-33.85l-16.656.76c-24.657 1.49-49.341 2.5-74.037 3.03a549 549 0 0 1-4.628-19.25c-2.239-10.43-7.578-38.53-1.629-47.67 5.302-2.66 29.185 5.62 37.347 7.84.455-11.79 1.439-23.11 2.432-34.86 15.705-1.54 31.87-2.69 47.63-4-3.677-10.08-7.578-23.99-10.841-34.49 13.932 5.17 32.226 10.32 46.617 14.78-3.092-10.57-5.835-25.11-8.402-36.15 9.023 6.45 18.388 14.17 27.136 21.11l6.095-42.69a1098 1098 0 0 0 42.081 28.8z"/><path d="m1595.27 1186.95 1 .73c2.6 10.68 4.94 30.31 6.64 41.77 8.65-7.32 17.38-14.11 26.11-21.63a993 993 0 0 1-7.4 36.22c15.67-5.18 31.21-9.99 46.97-15.32-3.63 11.55-7.23 23.83-11.6 35.07 15.99.86 31.96 1.93 47.91 3.2.84 11.85 1.58 23.7 2.25 35.56 4.41-1.36 31.77-9.94 33.8-9.63 14.77 2.25-1.65 61.8-3.35 68.21-29.42-1.11-61.16-1.39-90.42-4l-6.04 33.7c-11.92-7.54-24.38-16.45-36.46-24.31 5.07-1.24 13.26-.32 16.33-3.53l-.76-1.56c-7.28-3.53-42.26-3.29-52.63-3.66l-9.46 33.03c-14.16-8.69-32.33-20.11-47.8-24.89-12.09 8.08-28.57 23.16-40.04 33.17 21.76-68.98 42.08-142.07 62.5-211.66 6.54 6.64 16.21 19.76 22.19 27.52q20.385-13.635 40.26-27.99"/><path d="M560.776 978.85c2.703 3.093 33.772 138.35 37.48 154.06-.787-.38-1.576-.75-2.368-1.12-14.305-6.67-48.202-20.95-63.037-19.43-11.556 1.2-37.74 11.25-49.364 15.48l-10.627-24.85c-12.157-.14-24.636.04-36.821.06-4.052 4.97-10.699 13.66-15.593 17.23l-2.053-.81c-8.11-6.59-16.516-13.17-24.036-20.4l-38.255-2.67c5.397-26.74 9.704-33.84 26.358-55.59a802 802 0 0 1 39.976 11.12c4.072-10.74 7.948-24.47 11.397-35.69 15.516-.48 33.377-2.11 48.936-3.34-2.492-7.6-4.877-17.927-6.947-25.837l42.401-.086c3.813 3.573 7.884 7.171 11.768 10.694a1157 1157 0 0 0 30.785-18.821"/><path d="m1492.95 979.406 29.49 19.025 10.76-11.239c14.14-.226 28.5-.135 42.66-.168-2.22 8.887-4.5 17.756-6.84 26.616 15.78.3 32.99 1.6 48.88 2.47 3.58 12 7.31 23.96 11.21 35.86 13.53-3.93 27.1-7.72 40.7-11.37 16.47 19.55 21.24 30.98 25.76 55.65-11.57 1.45-26.15 2.15-38 3-6.88 6.77-14.77 12.85-22.3 18.93-2.11 1.66-.94 1.04-3.51 1.85-5.47-3.73-11.5-11.65-16.01-16.92l-36.49-.13-10.28 24.75c-13.8-4.38-35.05-13.97-48.92-15.12-18.89-1.58-48.64 12.47-65.24 20.55z"/><path d="M719.289 802.319c2.753 2.532 22.337 97.594 25.158 111.338-44.219-17.269-64.307-28.381-110.749-16.035-5.52-6.291-11.352-13.714-16.725-20.239-9.961 2.562-42.549 12.796-50.95 7.226-17.684-11.723 9.139-27.846 18.711-33.625 41.532-25.073 87.564-38.205 134.555-48.665"/><path d="M1333.65 802.5c49.47 10.569 110.15 28.683 150.77 59.952 6.97 5.362 11.2 16.159 2.01 20.888-12.51 6.443-38.5-1.75-51.56-4.842l-15.24 19.649c-46.49-13.249-66.28-1.785-110.24 15.056 8.24-33.554 17.76-76.598 24.26-110.703"/><path d="M1487.25 528.958c32.28-.164 48.93-2.24 74.44 20.035-10.43 60.017-23.4 120.292-33.97 180.32-1.89 10.765-12.06 57.023-12.11 64.822l-1.76-.06c-16.25-15.781-24.98-24.765-42.94-39.791 16.57 7.011 27.6 14.888 46.32 21.558-6.61-10.2-38.83-40.906-48.97-50.289 13.6.521 30.71 2.598 44.56 3.882-5.12-23.251-12.61-48.965-18.83-72.237-8-6.97-16.04-13.882-24.14-20.736 12.18 5.625 26.05 13.241 38.11 19.523 6.11-5.864 12.08-11.141 18.44-16.722-9.68-4.847-19.82-9.481-29.63-14.113l1.23-1.73c10.2 2.531 21.34 4.655 31.68 6.827-5.25-13.759-11.27-30.735-17.49-43.78-7-4.463-15.1-9.024-22.3-13.3l.62-1.718c12.5 4.52 25.44 8.288 38.16 12.171-1.67-6.165-8.61-30.654-7.97-35.642q.975-1.856 1.92-3.729c-11.23-4.802-24.5-10.107-35.37-15.291"/><path fill="#5f5f5e" d="M1522.62 544.249c5.17-.172 9.94-5.48 11.79-4.628 1.1 2.829-10.54 7.737-13.71 8.357q.975-1.856 1.92-3.729"/><path d="M490.432 548.745c24.531-19.759 41.969-20.348 74.107-19.723-10.086 4.452-29.014 13.31-39.229 14.757l-.682 1.664c3.531 1.417 5.538 1.395 6.958 3.958-1.301 9.293-5.879 24.458-8.445 33.947a2554 2554 0 0 0 43.302-13.407c-7.824 5.013-20.137 11.608-26.972 16.403-5.474 14.294-11.412 29.157-16.204 43.628l36.093-7.59a591 591 0 0 1-33.95 17.04c6.337 5.487 12.376 10.585 18.227 16.631a1337 1337 0 0 1 37.649-19.501l-23.899 20.305c-5.687 23.54-11.78 49.076-18.19 72.379l44.548-4.295c-13.639 13.513-37.613 36.115-48.612 50.513 8.454-3.323 27.177-11.158 34.66-16.184l1.175 2.679c-12.426 10.621-20.726 19.294-32.303 30.663-1.114.474-1.227.459-2.023.948-3.039-24.237-10.933-59.572-15.752-84.528z"/><path fill="#5f5f5e" d="M524.628 545.443c-13.487-9.406-4.827-8.353.682-1.664z"/><path d="M539.167 796.333c8.057-.768 20.52-5.977 28.663-8.716-2.816 11.052-6.261 22.628-9.216 33.788l-.443 1.612c-1.307 4.92-2.453 9.166-3.919 14.069 10.78-1.834 21.437-3.182 32.24-5.21l21.363-4.043c-7.156 5.118-15.461 8.817-23.053 13.616-12.149 7.681-22.468 16.38-33.267 25.788-1.123-4.575-1.82-9.103-2.695-13.731a1475 1475 0 0 0-4.54-22.517c-2.267-11.132-3.861-22.971-6.737-33.903z"/><path d="M1484.24 788.151c5.84 1.87 23.22 8.728 27.98 8.812l2.22.3c-.68 3.926-1.44 7.851-2.25 11.751l-2.48 12.474c-.8 4.012-1.66 8.022-2.52 12.02l-1.47 6.984q-2.895 13.213-5.31 26.523c-14.81-14.51-33.67-28.456-52.69-36.979.99-.553 1.99-1.111 2.97-1.674 15.47 3.636 30.77 6.125 46.33 9.069-3.89-15.319-8.23-30.596-11.95-45.944-.27-1.114-.53-2.23-.83-3.336"/><path d="M542.558 1121.09c12.498 2.03 39.15 12.88 51.089 18.19a233 233 0 0 0-8.029 6.87 659 659 0 0 1-8.093 8.53c-13.208-16.83-19.879-20.27-34.967-33.59"/><path d="m1506.86 1122.31.57.27c-.07.62-1.23 1.52-1.66 1.82-12.41 8.7-20.73 18.25-29.82 30.36-3.03-3.03-5.12-4.93-8.33-7.73-2.9-2.67-5.78-5.36-8.63-8.07a358 358 0 0 1 47.87-16.65"/><path d="M552.441 1378.55c6.221 2.81 24.059 19.11 30.101 24.38-2.1 3.94-3.982 7.62-5.773 11.71-.345 1.02-.755 3.85-2.211 4.05 1.333.52-19.939-36.69-22.117-40.14"/><path d="M1498.01 1379.03c.08.1.78.85.64 1.07-8.16 11.91-13.69 25.32-19.74 38.4-.19.4-.53.51-.94.55-.74-.43-.66-.58-.95-1.53-2.17-5-4.05-9.7-6.39-14.67 9.24-7.81 18.36-15.75 27.38-23.82"/><path fill="#262626" d="M569.793 759.27c1.036-.51 4.409-2.567 5.585-1.826.399 1.21-3.663 3.913-4.41 4.505z"/><path fill="#262626" d="M1447.72 830.036c-1.32-.587-1.65-.756-2.83-1.776-.06-.217-.11-.434-.17-.651 1.27-.737 4.68.327 5.97.753-.98.563-1.98 1.121-2.97 1.674"/><path fill="#262626" d="M536.642 793.56c.796-.489.909-.474 2.023-.948.145 1.359.286 2.332.502 3.721l-1.604.753q-.49-1.755-.921-3.526"/><path fill="#262626" d="M1489.89 573.167c-.95-.51-3.85-1.68-4.29-2.75.86-1.197 3.98.582 4.91 1.032z"/><path fill="#262626" d="M1496.77 625.15c-.67-.345-3.76-1.52-3.9-2.501 1.06-.595 3.99.478 5.13.771z"/><path fill="#262626" d="m1513.85 794.075 1.76.06q-.57 1.57-1.17 3.128l-2.22-.3c.63-1.228.88-1.794 1.63-2.888"/><path fill="#727271" d="M207.774 1173.74c6.875 6.48 11.438 13.75 16.936 21.31-12.541 10.35-37.924 31.17-53.235 35.79l-7.802 2.36c5.992-11.22 7.702-11.11-4.586-9.04-13.011 1.03-17.366 2.09-31.46 2.1 1.554-.57 3.515-1.35 5.051-1.79 30.132-8.6 53.9-28.3 75.096-50.73"/><path fill="#727271" d="M1825.72 1194.63c5.91-8.04 10.22-13.64 16.96-20.93 24.16 24.12 37.9 36.26 69.32 49.81 1.49.37 4.16.87 5.19 2.03-.18 1.94-13.38.1-15.47-.47-6.17-.09-14.11-1.7-20.26-2.73 2.11 3.9 4.24 7.55 6.34 11.53-22-7.78-45.22-23.24-62.08-39.24"/><path fill="#727271" d="M1912 1223.51c1.49.37 4.16.87 5.19 2.03-.18 1.94-13.38.1-15.47-.47 6.41-.65 5.96 1.25 10.28-1.56"/><path fill="#5f5f5e" d="m1555.83 1710.97 2.58.47-1.49 2.15c-.32.26-.77 1.27-1.31 1.17-1.04-.19.22-3.78.22-3.79"/></svg>