<svg xmlns="http://www.w3.org/2000/svg" width="2048" height="2048" viewBox="0 0 2048 2048"><path fill="#fff" d="M0 0h2048v2048H0z"/><path fill="#7f8589" d="M119.995 619.345c41.575-11.693 94.193-21.835 136.771-29.656a1762 1762 0 0 1 271.227-30.314c55.419-1.44 106.63 1.677 161.671 5.035a4172 4172 0 0 1 189.246 15.297c-51.067 10.187-108.517 24.119-159.676 36.102-105.238 24.651-225.754 47.976-315.641 110.757-9.991 6.978-29.687 23.377-37.391 32.629 3.03 30.048 9.211 67.332 13.843 97.469 6.238 40.581 11.97 85.098 19.384 125.229a4160 4160 0 0 0 103.11-57.611c-21.451-5.803-50.815-13.058-71.422-20.183 27.122-7.37 59.067-14.064 85.191-21.929a3594 3594 0 0 0-73.311-37.146c-12.303-6.004-34.03-15.691-44.898-22.036l53.88-16.06c-20.553-8.464-39.61-19.278-59.538-28.71l1266.299-17.662a5390 5390 0 0 1-117.73 84.936c36.64 2.73 69.47 5.352 106.33 6.844-12.65 8.735-29.55 18.268-42.98 26.312a4460 4460 0 0 0-67.87 41.148c-9.37 5.773-20.45 11.968-29.31 18.252l103.3 10.103c8.85.725 17.07 1.646 25.87 2.657-3.8 2.981-6.97 4.756-10.95 7.383a4945 4945 0 0 0-74.69 47.259c23.88 2.32 51.86 4.79 75.87 5.7 6.27.49 12.37.81 18.64 1.21-3.37 2.45-5.18 3.69-9.14 5.34a1912 1912 0 0 1-81.71 40.73c-10.44 4.9-37.9 17.33-45.84 22.54a5239 5239 0 0 0 88.92 23.59c17.92 4.59 37.66 9.16 55.27 14.53-35.04 15.7-72.8 29.2-107.13 45.57 33.45 8.36 74.02 16.62 108.59 24.02-26.23 6.91-55.75 14.39-81.52 22.32 31.44 20.24 61.91 37.87 94.08 59.08-37.48-.31-76.12.9-113.71 1.36l-215.53 2.55c-210.04 2.13-420.073 5.84-630.064 11.14l-227.401 4.55-59.203.89c-7.197.11-24.327.06-30.895 1.23l-.615-4.14c6.666-3.36 13.424-7.17 19.914-10.89 31.847-18.24 64.659-35.39 96.074-54.33-27.078-4.96-54.601-8.17-81.746-13.44-1.45-.16-4.938-.29-5.861-1.58.595-1.74 6.848-1.86 8.45-2.04a3321 3321 0 0 0 46.532-7.46c4.745-6.04 4.858-1.44 10.643-5.46 2.435-1.7 3.419-1.83 6.216-2.98-3.723-.83-6.028-2.91-7.768-6.1-5.543-3.7-19.093-10.18-25.574-13.44l-49.802-24.73c56.859-22.87 120.012-41.37 177.532-63.21-22.597-4.74-46.682-7.9-69.024-13.34-23.999-5.85-49.473-14.28-73.186-21.72 18.531-4.36 37.141-8.38 55.819-12.06 9.225-1.86 26.106-4.72 34.574-7.58-32.391-11.8-66.77-20.83-99.396-32.295-10.543-3.705-22.373-7.465-33.139-10.179a2453 2453 0 0 0 7.066 46.784c-61.299 6.84-123.529 22.96-182.815 39.64-47.799 13.45-93.866 31.31-140.764 47.49 51.27-54.77 105.69-86.53 168.387-124.783a871 871 0 0 1-43.026-9.867c-6.315-1.434-10.612-2.431-16.895-4.2 3.6-1.777 7.316-3.442 10.952-5.19 17.672-7.817 36.853-14.839 54.11-22.989-31.405-10.847-67.712-21.263-99.742-30.847 44.719-12.22 100.384-23.585 146.128-33.604-18.316-8.47-41.722-17.457-60.75-25.096a8081 8081 0 0 0-101.652-40.074c3.839-1.68 8.385-3.219 12.365-4.675.973-.549.893-.508 1.98-.829 10.591-4.655 24.629-9.332 35.74-13.501a3726 3726 0 0 1 76.526-27.928 471 471 0 0 1-5.429-2.317c-11.947.299-31.487-1.168-44.074-1.673a5794 5794 0 0 0-76.405-2.399c27.676-21.971 57.975-42.213 85.52-64.35-4.733-1.975-8.162 2.604-16.303.065-3.665-1.142-22.137 1.597-26.543 1.647-.267.171-.645.267-.772.558l.674.712c.19-.095-15.37 1.784-15.786-1.341-1.16-.668-7.016 1.065-8.556 1.181a4.2 4.2 0 0 0-1.74.538l.052.303c-2.293.911-6.942-.932-8.998-2.215-22.978.421-46.987 2.557-70.15 3.541 39.862-23.966 82.052-47.672 121.327-71.882-4.412-2.647-7.691-1.146-9.693-3.284a6697 6697 0 0 1-81.766-2.927c-8.796.425-21.804-.037-30.976-.125 11.995-4.341 29.911-9.435 42.423-11.844"/><path fill="#f5f5f5" d="M148.83 705.866c23.352-4.007 56.329-2.097 80.504-4.217.308-.027.906 1.273-2.532 2.769-4.733-1.975-8.162 2.604-16.303.065-3.665-1.142-22.137 1.597-26.543 1.647-.267.171-.645.267-.772.558l.674.712c.19-.095-15.37 1.784-15.786-1.341-1.16-.668-7.016 1.065-8.556 1.181a4.2 4.2 0 0 0-1.74.538l.052.303c-2.293.911-6.942-.932-8.998-2.215"/><path fill="#888989" d="M77.572 631.189c11.995-4.341 29.911-9.435 42.423-11.844l.398 2.17c-2.503 1.18-23.553 4.702-24.7 6.643.242 3.163 20.958.14 24.769.358l.014.089c-.421.426-1.358.423-1.97.486-1.111.113-.514 1.783-1.359 1.83-2.669.149-5.953.222-8.599.393-8.796.425-21.804-.037-30.976-.125"/><path fill="#f5f5f5" d="M481.776 1183.38c6.914 2.62 13.874 6.47 20.427 9.94-9.886 1.35-19.65 3.1-29.518 4.6 4.745-6.04 4.858-1.44 10.643-5.46 2.435-1.7 3.419-1.83 6.216-2.98-3.723-.83-6.028-2.91-7.768-6.1"/><path fill="#888989" d="M1610.48 948.151c8.85.725 17.07 1.646 25.87 2.657-3.8 2.981-6.97 4.756-10.95 7.383 3.83-9.93-9.04-5.115-14.92-10.04"/><path fill="#888989" d="M1626.58 1011.15c6.27.49 12.37.81 18.64 1.21-3.37 2.45-5.18 3.69-9.14 5.34-4.58-6.44-5.45-2.33-8.48-5.52z"/><path fill="#888989" d="M191.533 979.89c3.6-1.777 7.316-3.442 10.952-5.19-.923 7.061.796 5.299 5.943 9.39-6.315-1.434-10.612-2.431-16.895-4.2"/><path fill="#6c7073" d="M152.944 817.415c.973-.549.893-.508 1.98-.829.9 1.238 3.822 3.969 3.351 4.676-4.611 6.924-5.318-3.809-5.331-3.847"/><path fill="#f5f5f5" d="M190.314 634.241c1.229-.04 19.884-.144 9.693 3.284-4.412-2.647-7.691-1.146-9.693-3.284"/><path fill="#888989" d="M426.153 1205.38c-1.934 1.29-1.735 1.25-2.589 3.62-1.45-.16-4.938-.29-5.861-1.58.595-1.74 6.848-1.86 8.45-2.04"/><path fill="#f5f5f5" d="M261.761 772.84c.773.012 7.682-.409 7.561 1.082-.796.814-.993.785-2.132 1.235a471 471 0 0 1-5.429-2.317"/><path fill="#7f8589" d="M1644.8 1013.55c104.04-8.51 226.17-48.35 323.07-85.209a1389.6 1389.6 0 0 1-150.4 138.339c25.56 3.92 65.93 6.64 92.95 9.33 4.49.56 8.76 1 13.25 1.47-4.24 2.71-7.01 4.36-11.4 6.78-28.93 16.61-57.8 31.97-87.11 47.86-12.49 6.77-28.92 15.11-40.7 22.35 31.88 4.04 92.34 11.8 122.68 19.21-35.2 23.94-79.59 47.7-116.52 71.66 14.24 1.1 28.5 2.03 42.76 2.77 3.75.21 20.6.99 23.3 1.7 10.96-.11 22.82.77 33.9 1.3-3.4 2.24-7.47 4.88-10.93 6.95-19 12.15-37.84 24.55-56.52 37.18 24.97 1.19 50.47 2.72 75.42 2.72a6666 6666 0 0 0-56.62 35.89c43.15 2 86.9 3.33 129.93 5.66-45.52 23.3-94.82 44.37-140.4 67.98 39.12 5.79 84.52 6.28 122.86 12.1 6.35.7 12.43 1.28 18.79 2.08-6.36 1.56-14.95 3.93-21.22 4.93-142.54 31.89-284.7 52.67-431.04 55.44-112.65 2.13-223.59-7.38-335.69-13.39-2.94-1.27-3.17-1.51-5.7-3.43 17.46-4.92 47.08-10.54 65.67-14.8a8761 8761 0 0 0 171.26-41.42c100.69-25.92 190.86-47.68 268.01-120.98-1.26-9.86-2.64-19.92-4.24-29.73-13.25-81.27-22.51-163.48-35.36-244.74"/><defs><linearGradient id="a" x1="1949.428" x2="1963.422" y1="1417.737" y2="1428.151" gradientUnits="userSpaceOnUse"><stop offset="0" stop-color="#7a7d7e"/><stop offset="1" stop-color="#979695"/></linearGradient></defs><path fill="url(#a)" d="M1954.32 1419.59c6.35.7 12.43 1.28 18.79 2.08-6.36 1.56-14.95 3.93-21.22 4.93-3.53-2.24-5.72-.98-5.9-1.14-.54-4.1 5.74-4.96 8.33-5.87"/><path fill="#888989" d="M1856.68 1249.81c10.96-.11 22.82.77 33.9 1.3-3.4 2.24-7.47 4.88-10.93 6.95 2.84-9.31-15.71-4.72-21.42-7.56z"/><path fill="#888989" d="M1910.42 1076.01c4.49.56 8.76 1 13.25 1.47-4.24 2.71-7.01 4.36-11.4 6.78.17-.67.36-1.33.56-1.99.98-3.31-.13-3.82-2.41-6.26"/><path fill="#6c7073" d="M1132.68 1476.5h-.13c3.9-.19 23.58.91 26.24 2.15 24.44 1.26 49.38 3.8 73.86 5.56 128.49 9.27 265.14 24.26 393.5 8.34 43.19 43.57 83.62 89.5 125.55 134.02-60.94-16.38-121.18-31.89-183.14-44.1-7.27-1.43-15.25-2.94-22.35-4.81l8.08 43.07c.89 4.75 3.5 17.56 3.74 21.82 1.89 7.49 3.04 15.98 4.55 23.7l16.99 90.97c-3.32-2.24-3.86-2.64-7.69-3.28l-1.98-.41c-59.43-82.21-195.17-169.86-285.24-214.56a1206 1206 0 0 0-137.7-57.55c-3.98-.8-10.34-3.42-14.28-4.92"/><path fill="#6c7073" d="M1558.03 1642.55c1.89 7.49 3.04 15.98 4.55 23.7-.86-.69-5.02-3.34-5.04-3.42-.91-4.21.03-16.05.49-20.28"/><path fill="#888989" d="M1132.68 1476.5h-.13c3.9-.19 23.58.91 26.24 2.15-5.92 1.23-8.34-2.84-11.83 2.77-3.98-.8-10.34-3.42-14.28-4.92"/><path fill="#6c7073" d="M466.864 276.706c1.393 2.35 3.721 5.79 4.561 8.24 88.311 126.716 281.52 227.096 423.901 279.289l-.346 1.414c-.96 4.112-4.621 2.514-8.511 2.71-158.855-19.504-307.769-37.984-467.648-17.041a11564 11564 0 0 1-121.308-128.061c30.72 7.765 62.4 14.742 93.291 22.08 36.835 8.751 75.1 17.84 112.333 24.564-4.918-19.736-9.001-44.708-12.787-64.955l-20.585-111.508c-1.26-5.823-1.966-10.904-2.901-16.732"/><path fill="#7f8589" d="M466.864 276.706c1.393 2.35 3.721 5.79 4.561 8.24-1.951 3.528-1.326 4.19-1.66 8.492-1.26-5.823-1.966-10.904-2.901-16.732"/><path fill="#6c7073" d="m907.207 588.193 11.836-2.939c-1.383 4.276-2.644 8.282-4.291 12.476-19.62 49.002-38.251 99.606-58.338 148.148a19461 19461 0 0 0-472.061 14.715c74.78-70.73 238.357-105.394 336.684-128.581z"/><path fill="#6c7073" d="M1626.95 1290.89c7.69-1.17 26.62-1.19 35.44-1.56-2.37 2.24-4.61 4.45-7.37 6.19-75.65 62.45-233.36 94.58-327.34 118.3-64.46 16.27-133.96 30.78-198.76 47.2l62.67-161.19c40.26.34 83.71-1.61 124.21-2.44l195.44-3.83c36.53-.91 79.73-3.15 115.71-2.67"/><path fill="#6c7073" d="M1626.95 1290.89c7.69-1.17 26.62-1.19 35.44-1.56-2.37 2.24-4.61 4.45-7.37 6.19-1.81-7.31-19.33-3.43-28.07-4.63"/><path fill="#888989" d="M895.326 564.235c6.174 1.493 15.87 5.282 22.537 7.305-9.348-.093-22.121-1.717-31.394-3.181 3.89-.196 7.551 1.402 8.511-2.71z"/><path fill="#6c7073" d="m1569.9 1753.53 1.98.41c3.83.64 4.37 1.04 7.69 3.28l.11.65c.49 3.16 1.09 6.43 1.62 9.62l.68 3.86c-3.97-5.58-8.11-12.02-12.08-17.82"/><path fill="#888989" d="M1168.12 1467.44c3.91-.85 7.33-1.65 11.34-2.22 2.53 1.92 2.76 2.16 5.7 3.43-5.83-.31-11.22-.72-17.04-1.21"/><path fill="#888989" d="m389.322 1287.66.615 4.14c-3.865-.44-6.3-.86-1.826-3.41z"/></svg>