<svg xmlns="http://www.w3.org/2000/svg" width="2048" height="2048" viewBox="0 0 2048 2048"><path fill="#26242e" d="M0 0h2048v2048H0z"/><path fill="#0cd6ce" d="M1015.68 308.218c34.93-3.364 61.04 15.267 92.34 28.78l167.01 73.693 214.76 93.687a9546 9546 0 0 1 90.23 39.327c38.13 16.597 86.94 29.675 91.26 78.654 1.93 21.854 2.25 45.334 3.23 67.341l7.49 184.335 15.73 335.255 4.87 98.84c1.01 19.84 2.21 40.26 2.55 60.05.2 11.55-1.41 24.61-6.75 34.87-6.11 11.74-14.52 22.85-26.26 29.49-20.38 11.51-42.41 21.33-63.56 31.41l-88.63 42.88-258.4 126.39-155.77 76.54c-17.64 8.66-56.71 29.71-73.69 35.17-33.593 9.27-51.601-4.6-80.199-20.01a5334 5334 0 0 1-61.311-33.38l-196.063-105.35-218.151-117.8-68.748-36.64c-10.101-5.47-26.278-13.78-35.367-20.07a65.22 65.22 0 0 1-27.314-42.11c-2.762-15.3.352-57.37 1.221-74.26a7828 7828 0 0 0 5.063-107.74l18.285-391.687 5.525-113.062c.856-18.765 1.277-45.689 3.368-63.66a70.65 70.65 0 0 1 12.513-32.36c15.673-22.244 35.27-27.263 59.101-37.499l67.227-28.94 233.993-100.719 169.402-73.106c21.226-9.191 74.691-34.637 95.045-38.319"/><path fill="#26242e" d="M400.88 621.543c3.527-34.608 40.898-44.541 67.89-56.125l90.081-38.558 299.851-129.407 94.489-40.601c17.936-7.741 35.81-16.146 54.069-23.079 8.63-3.274 17.03-4.6 26.22-3.429 15.45 1.968 65.38 26.9 82.9 34.74 39.35 17.649 78.81 35.07 118.37 52.263l258.3 112.809c40.98 17.88 82.23 35.252 123.01 53.506 17.58 7.868 31.86 22.597 33.05 42.562 1.26 21.162 2.09 42.227 2.96 63.4l4.83 120.375 15.28 327.081 8.45 172.82c4.51 100.32 10.96 89.12-79.7 133.11l-135.59 65.73-275.62 134.9-103.12 50.58c-17.77 8.78-35.34 18.12-53.27 26.57-12.1 5.7-28.6 6.72-40.781.46-23.372-11.99-46.468-24.79-69.581-37.36l-124.707-67.2-306.862-165.73c-33.715-18.43-68.246-35.41-101.645-54.65-29.408-16.93-23.765-41.33-22.527-70.31l2.49-57.52 8.408-180.37 7.837-179.207 2.916-55.084c.404-7.461.739-21.686 1.617-28.644.711-11.746 1.044-23.664 1.783-35.487a6484 6484 0 0 1 6.162-124.983c.392-9.8.712-34.89 2.44-43.162"/><path d="M398.44 664.705c.392-9.8.712-34.89 2.44-43.162.415 9.024.818 34.293-.534 42.764-.434.386-1.256.336-1.906.398"/><path d="M392.278 789.688c.951 5.077 1.945 36.549-.722 39.134l-.187-.035c-.328-1.02-.524-2.427-.874-3.612.711-11.746 1.044-23.664 1.783-35.487"/><defs><linearGradient id="a" x1="728.932" x2="658.251" y1="1675.253" y2="635.57" gradientUnits="userSpaceOnUse"><stop offset="0" stop-color="#cacacb"/><stop offset="1" stop-color="#fff"/></linearGradient></defs><path fill="url(#a)" d="M442.747 649.2c9.517-1.326 9.729-.765 18.611 3.369L801.883 812.9l110.45 52.201c20.5 9.63 42.465 18.297 61.959 29.681 5.583 3.26 8.516 5.602 10.658 11.857 3.532 10.317.587 82.483.384 98.191l-1.249 130.07-1.951 363.33-.715 100.81c-.037 14.92.153 29.79.376 44.7.106 7.05-2.838 15.23-10.393 17.07-8.91 2.16-15.197-1.83-22.643-5.88l-403.562-214.27c-14.956-7.95-137.179-71.1-141.451-76.46-.241-.3-.456-.62-.691-.93-2.435-3.19-3.66-5.38-3.92-9.45-1.225-19.1 1.165-38.89 2.312-57.99 1.576-26.33 2.882-52.68 3.919-79.04l14.995-315.624 8.805-174.376c.962-17.499 2.213-34.874 2.747-52.418.399-13.063-.383-17.911 10.834-25.172"/><path d="M531.308 796.307c55.658-3.118 100.283 68.751 106.111 117.186 4.616 38.362-3.413 85.444-49.103 91.747-101.34.43-157.251-193.674-57.008-208.933"/><path d="M663.122 1039.21c94.4-8.3 160.926 189.25 60.124 207.64-17.321 1.17-29.642-3.57-45.237-13.1-54.129-33.1-96.583-142.05-35.363-187.12 5.365-3.95 13.644-6.11 20.476-7.42"/><path d="M799.782 1285.26c92.406-9.15 161.433 184.43 62.352 207.75-97.938 6.63-160.51-189.52-62.352-207.75"/><defs><linearGradient id="b" x1="1437.802" x2="601.368" y1="379.576" y2="822.745" gradientUnits="userSpaceOnUse"><stop offset="0" stop-color="#c5c5c6"/><stop offset="1" stop-color="#fff"/></linearGradient></defs><path fill="url(#b)" d="M1017.26 365.17c6.28-.409 8.7-.721 14.47 1.679 35.74 14.868 71.05 30.74 106.58 46.088L1401 527.432c47.74 20.825 95.66 41.703 143.37 62.605 3.42 1.5 8.6 4.603 10.69 7.723 1.29 1.914 2.01 4.062 1.14 6.306-.87 2.265-3.31 5.154-5.53 6.159-9.33 4.218-18.88 8.223-28.21 12.414l-60.36 27.441-205.66 93.835-155.12 70.727c-19.58 8.976-61.34 29.622-80.39 36.169-15.63 3.824-34.862-8.453-49.216-15.177l-64.977-30.365-308.275-143.746c-14.334-6.708-110.308-49.426-113.669-55.019-1.398-2.326-2.044-4.558-1.142-7.224.886-2.62 1.873-3.52 4.193-4.821 12.543-7.033 27.324-12.179 40.547-17.899l80.355-34.738L879.84 425.116l81.432-34.827c18.601-7.948 38.107-15.797 55.988-25.119"/><path d="M852.511 539.399c32.49-2.761 78.556 5.919 105.217 26.287 20.224 15.45 27.991 41.257 9.058 61.774-22.589 24.478-58.444 32.304-90.447 34.822-23.235 2.469-46.423-1.596-69.356-8.041-32.768-9.209-75.95-42.969-45.336-79.242 20.411-24.184 60.228-32.95 90.864-35.6"/><path d="M1171.73 539.414c36.84-4.23 118.72 13.544 122.91 58.405 4.31 46.173-70.65 62.491-102.39 64.676-34.5 2.721-77.76-5.607-105.43-27.783-19.47-15.607-24.96-41.164-6.89-60.432 22.75-24.261 59.93-32.413 91.8-34.866"/><path fill="#d2d2d2" d="M1557.62 662.125c4.48-.048 8.91.844 12.42 3.807 2.87 2.42 4.47 5.778 4.63 9.517.35 8.133-42.91 121.056-48.4 135.841l-133.93 365.69c-8.78 23.77-17.42 47.59-25.93 71.46-4.74 13.32-12.61 38.19-19.2 49.5-3.08 5.29-21.19 24.49-26.07 29.87l-54.86 60.23-212.09 233.13c-13.68 1.98-16.88-6.17-16.86-18.13.09-50.13 1.02-100.25 1.41-150.37l1.95-275.51c.73-84.06-.72-168.43 1.32-252.569.35-5.013.64-14.875 2.9-19.274 4.91-9.579 23.2-15.763 32.46-20.059l49.63-23.15 180.64-84.528 166.29-77.254c23.75-10.99 60.19-29.32 83.69-38.201"/><path d="M1213.22 887.349c47.59-2.867 69.07 39.979 63.83 81.893-6.52 52.038-46 106.318-99.81 115.518-106.18 11.15-74.14-181.802 35.98-197.411"/><path d="M1213.45 1102.26c106.55-6.54 73.87 177.15-32.2 194.5-29.78 1.7-51.81-14.7-61-42.52-20.24-61.24 30.56-141.41 93.2-151.98"/><path fill="#d2d2d2" d="M1620.58 696.665c1.89 7.509 3.64 47.875 4.23 58.283l6.96 122.551 25.18 487.551c-52.51-17.62-106.41-34.55-159.2-51.56-25.8-8.68-51.93-16.71-77.86-24.98-2.75-.88-10.93-4.34-11.76-6.87-.98-3 1.19-12.3 2.28-15.54 8.44-24.99 18.15-49.91 27.41-74.61l38.77-106.16a27517 27517 0 0 1 143.99-388.665"/><path d="M1578.97 953.92c11.05.241 14.99 9.469 16.51 19.085 5.53 34.975-8.45 123.175-43.32 139.765-30.48-4.98-15.17-81.71-8.77-100.64 6.69-19.776 15.97-47.633 35.58-58.21"/><path d="M1583.57 1112.87c13.79 1.19 15.91 15.56 16.67 26.98 2.27 34.35-10.93 110.88-43.23 129.23-37.91-1.97-12.34-134.24 26.56-156.21"/><path fill="#d2d2d2" d="M1391.09 1330.19c8.7.75 60.77 17.41 71.84 20.75a12692 12692 0 0 0 155.46 45.72 16810 16810 0 0 0-371.85 181.41c-52 26.09-104.2 51.78-156.6 77.08l209.28-228.58c27.58-30.07 54.84-60.87 82.64-90.75 2.97-3.2 5.12-4.37 9.23-5.63"/><path d="M1453.4 1395.39c20.36.68 17.06 13.9 6.92 26.26-18.41 22.44-46.32 39.18-71.62 53.1-21.76 11.97-46.24 22.64-71.1 25.54-24.46-.69-17.57-19.44-6.04-31.48 33.82-35.3 92.49-69.26 141.84-73.42"/></svg>