<svg xmlns="http://www.w3.org/2000/svg" width="2048" height="2048" viewBox="0 0 2048 2048"><path fill="#14181d" d="M0 0h2048v2048H0z"/><path fill="#d39057" d="M1234.48 227.01c1.37-.113 3.66-.338 5-.104 133.35 23.266 260.83 80.133 348.57 186.027 76.12 91.873 128.53 231.23 118.52 350.807-11.46 136.927-85.03 274.39-189.56 362.3 1.69 61.8-17.7 136.49-42.3 192.91 26.08 54.23 22.46 108.71-11.31 158.47-43.68 64.33-97.86 98.57-172.94 114.16-.31 47.68 7.21 92.22-30.54 128.43-54.95 52.7-154.9 68.3-228.88 68.2-78.081-.11-182.817-11.85-242.066-67.97-37.342-35.37-30.145-81.32-30.018-128.84-106.414-22.34-224.156-114.53-198.527-235.82 2.819-13.35 7.522-24.58 12.952-36.93-29.848-61.67-41.17-124.64-40.273-193.04-42.301-33.46-69.074-66.49-100.055-109.84-51.35-75.749-85.421-167.998-91.096-259.611-7.012-129.474 46.117-260.57 131.366-357.443 86.133-97.876 210.169-150.471 337.268-170.526 10.353-1.634 21.475 14.964 8.586 25.176-11.228 8.896-23.12 16.395-34.696 24.888a527 527 0 0 0-58.468 50.25c-76.671 76.257-129.968 188.445-129.809 297.495a307.53 307.53 0 0 0 90.089 220.034c8.784-7.847 21.977-17.155 31.84-23.845 63.573-43.118 130.899-67.574 205.99-81.078a567.3 567.3 0 0 1 364.527 56.471c25.63 13.67 49.88 30.872 73.71 47.443 26.96-27.08 49.94-56.432 64.78-92.015 74.23-178.079-25.58-386.184-179.51-486.381-15.69-10.211-38.48-24.665-13.15-39.618"/><path d="M1282.4 260.948c20.93 4.086 44.44 11.826 64.69 18.404 90.33 29.35 169.92 82.028 229.41 156.734 70.69 88.783 117.66 222.254 104.98 336.169-15.53 135.19-84.24 258.635-190.94 343.085 3.86 52.46-3.7 95.99-19.98 145.82-6.58 20.11-12.79 37.95-22.77 56.86 36.32 63.09 22.76 119.41-23.67 172.31-39.6 45.13-96.85 76.24-157.09 80.08l.11 50.59c.09 31.8 1.35 57.53-24.03 82.04-48.73 47.08-144.54 61.51-210.36 61.56-70.684.05-173.744-10.46-227.387-61.26-25.322-23.98-23.517-50.61-23.437-81.92l.156-50.96a226.9 226.9 0 0 1-94.46-30.14c-81.528-46.91-140.64-130.54-87.056-222.04-23.158-42.84-37.762-98.65-40.909-147.09-1.129-17.38-.705-37.41-.567-55.04-12.15-10.64-25.055-20.17-37.16-31.42-26.635-24.76-47.994-51.89-68.803-81.54-32.688-50.578-56.247-96.644-71.16-155.938-31.76-126.278-11.059-245.265 54.71-356.917 55.364-93.988 133.657-160.433 234.932-200.534 31.548-12.492 61.347-20.637 94.307-28.927-14.418 11.252-28.793 22.638-42.122 35.013-98.265 91.236-162.113 229.909-149.613 365.303 7.699 83.391 47.804 162.88 111.853 216.112 90.963-78.987 199.413-115.321 319.086-121.393 121.02-6.141 267.45 39.683 357.77 122.003a428 428 0 0 0 51.85-56.455c52.98-69.659 69.1-161.105 57.6-246.516-14.71-109.28-73.2-212.243-154.77-285.65-11.28-10.146-23.12-19.154-35.17-28.343"/><path fill="#14181d" d="M1474.97 408.268c30.38 24.76 62.9 61.103 84.35 93.653 62.31 93.078 84.62 207.275 61.95 316.96-21.42 94.171-66.84 172.511-139.3 237.019-11.88 10.56-36.54 25.28-43.31 36.38-4.3 7.05-.33 35.63-.64 47.28-1.68 63.15-16.51 130.22-50.24 184.4 14.94 20.4 34.39 47.52 28.58 73.64-13.28 59.69-87.31 112.46-146.23 119.07-20.55 2.3-43.54 1.33-45.46 27.07l-10.62 10.17c-.32 31.4 1.51 65.58-.91 96.97-.36 4.68-5.59 14.65-9.57 17.86-44.12 35.52-111.65 40.78-166.44 43.64-55.413 1.2-149.891-7.23-193.752-44.15-4.011-3.86-7.789-8.36-8.953-13.98-2.99-14.44-1.835-31.46-1.779-46.15.142-18.06.048-36.12-.282-54.17-13.19-12.53-1.092-33.64-34.354-35.22-68.474-3.27-156.858-50.65-166.046-125.23-3.313-26.89 13.802-50.22 31.028-69.84-25.165-40.24-40.058-85.91-47.467-132.62a331 331 0 0 1-3.971-59.69c.155-9.88 3.365-34.36-2.238-40.46-12.89-14.04-33.536-26.6-48.318-39.96-192.91-174.358-185.75-470.94 10.174-640.008.345 3.163-13.692 33.716-15.874 39.597a614 614 0 0 0-21.88 70.653c-23.676 100.61-15.409 198.44 32.687 290.887 52.968 101.809 153.567 165.618 263.383 191.261-48.136-30.071-69.49-47.52-108.577-88.182 11.213-7.598 21.684-17.094 33.052-24.876 168.74-115.523 415.667-111.307 573.017 26.137-34.63 37.652-65.2 60.803-109.43 87.411 31.49-7.009 74.59-23.292 103.56-37.644 92.02-45.583 154.47-117.986 187.34-214.806 37.81-111.39 18.41-239.22-33.48-343.072"/><path d="M1316.57 1188.54c10.55 7.56 23.39 62.05 26.29 76.04 16.98 81.99-29.58 170.5-115.9 185.3-38.35 6.58-81.48-1.77-113.91-24.7-32.25-21.51-47.3-51.12-58.11-86.83 57.91 10.42 137.16-5.92 185.46-39.43 40.78-28.29 66.47-61.64 76.17-110.38"/><path d="M730.485 1186.64c1.528 3.92 2.249 10.1 3.427 14.51 28.177 105.46 157.123 152.35 258.756 137.38-11.286 36.34-24.874 60.35-54.331 84.44-42.281 32.79-109.308 38.14-156.639 13.2a148.43 148.43 0 0 1-73.068-88.19c-15.6-52.09-3.629-114.32 21.855-161.34"/><path d="M1017.99 1453.24c48.25-6.25 75.19 71.48 79.22 108.12 4.13 37.48-20.22 47.33-51.96 50.99-5.62-17.73-13.22-35-19.1-52.96-.77-2.22-.25-1.52-1.93-3.04-2.96 4.92-18.52 49.38-20.97 56.22-11.332-1.62-23.036-2.84-33.011-8.58-7.946-4.58-17.667-14.37-19.185-23.75-4.519-27.95 11.552-71.22 25.932-94.41 10.137-16.35 22.539-28.43 41.004-32.59"/></svg>