<svg xmlns="http://www.w3.org/2000/svg" width="2048" height="2048" viewBox="0 0 2048 2048"><path fill="#302f36" d="M0 0h2048v2048H0z"/><path d="M897.069 305.229c8.665-.858 16.847-.095 25.068 2.945a54.18 54.18 0 0 1 30.034 27.783 54.04 54.04 0 0 1 2.798 36.572c-4.757 17.88-18.128 34.198-26.374 50.763-17.671 35.498-34.029 71.204-47.738 108.45-38.455 104.475-80.296 289.016-31.205 394.052 22.615 48.388 63.632 88.206 114.155 106.386a176.45 176.45 0 0 0 137.873-7.06c47.15-22.48 89.04-69.731 104.88-118.76 35.99-111.344-4.54-290.221-46.85-394.34a1028 1028 0 0 0-37.75-83.095c-7.83-15.131-16.6-29.743-24.52-44.859-14.81-28.261-2.85-63.323 26.96-75.614a51.16 51.16 0 0 1 38.84.113c20.95 8.846 50.29 43.823 66.44 61.266 121.23 130.993 220.05 277.376 257.14 454.721 26.7 127.68 27.86 233.508-22.63 355.108-6.94 15.09-14.04 28.83-21.74 43.58 14.7 13.82 28.54 22.25 39.2 40.89 10.74 18.44 13.7 41.84 8.16 62.49-6.41 23.89-25.27 40.43-42.01 57.31l-44.58 45.06-52.52 53.76c-36.59 37.87-58.83 68.33-116.62 50.24.13 19.47 3.55 66.29-6.71 80.1-17.62 22.64-39.89 43.06-60.35 63.27-42.67 42.14-78.91 94.28-143.19 53.73-13.62 9.45-26.768 14.12-43.321 14.3-36.528.38-58.351-27.63-81.756-51.13l-60.017-60.07c-16.114-16.32-24.29-26.88-23.93-50.69.245-16.19.136-33 .255-49.25-69.177 21.89-93.299-31.48-137.651-72.11-7.579-6.94-14.888-14.99-22.173-22.32-24.035-24.17-48.323-47.97-71.608-72.87-17.605-18.83-26.742-40.1-25.36-65.97 1.928-36.08 23.51-54.73 48.597-76.66-21.106-33.24-46.041-100.02-53.139-139.4-23.827-137.085 1.844-290.81 57.909-417.744C661.722 552.777 747.128 445.62 831.581 355.52c19.546-20.853 36.56-44.404 65.488-50.291"/><path d="M694.324 595.132c51.331-87.248 123.434-166.697 192.553-239.939 2.746-2.91 10.506-9.447 14.048-9.634 36.624-1.931.369 44.27-4.873 54.318a1150 1150 0 0 0-39.531 85.141c-46.49 109.353-89.625 299.813-57.565 416.669a253.1 253.1 0 0 0 78.816 126.073c97.807 85 237.898 70.48 320.638-27.906 61.85-73.55 66.48-161.574 58.67-252.555a910.5 910.5 0 0 0-102.54-341.672c-3.23-6.117-23.7-40.509-23.55-44.281.94-23.862 18.04-18.651 31.51-4.873a1449 1449 0 0 1 191.24 239.556c86.21 144.988 136.93 340.209 94.5 507.061a408.5 408.5 0 0 1-58.01 130.1c28.23 22.99 86.82 58.83 50.53 100.56-10.45 12.02-22.38 23.37-33.56 34.78l-64.64 65.72a2838 2838 0 0 0-31.57 32.4c-6.64 6.95-14.27 16.31-21.8 21.79-26.93 19.57-46.01 8.23-63.95-12.77-13.98-4.77-21.07-3.06-29.06 9.62-2.2 32.43-.22 71.38-.47 104.46-7.9 13.88-39.69 40.77-51.5 53.72-15.95 17.48-36.39 35.85-53.68 52.42-7.13 6.84-20.04 7.83-29.47 6.77-17.86-5.51-27.56-14.6-37.02-30.18-9.74 18.12-32.898 37.23-52.611 29.58-21.951-8.52-49.512-42.16-67.165-59.11-11.659-11.2-42.826-40.26-49.94-51.68-1.028-22.76.259-46.03-.222-68.88-.209-9.94 1.849-35.85-5.741-43.19-22.583-21.87-38.93 23.83-64.397 19.13-5.131-.26-13.338-1.77-17.491-5.2-22.465-18.55-43.063-41.36-63.585-62.07-30.671-30.96-61.05-61.96-91.462-93.14-9-9.23-13.968-21.69-13.063-34.6 1.546-22.99 17.282-34.18 33.238-47.71 8.633-7.31 17.206-14.68 25.716-22.13-38.929-58.9-60.937-116.5-69.706-187.36-15.899-128.467 19.151-283.219 76.408-398.454 5.611-11.293 23.136-43.338 30.305-52.534"/><path fill="#302f36" d="M694.324 595.132c51.331-87.248 123.434-166.697 192.553-239.939 2.746-2.91 10.506-9.447 14.048-9.634 36.624-1.931.369 44.27-4.873 54.318a1150 1150 0 0 0-39.531 85.141c-46.49 109.353-89.625 299.813-57.565 416.669a253.1 253.1 0 0 0 78.816 126.073c97.807 85 237.898 70.48 320.638-27.906 61.85-73.55 66.48-161.574 58.67-252.555a910.5 910.5 0 0 0-102.54-341.672c-3.23-6.117-23.7-40.509-23.55-44.281.94-23.862 18.04-18.651 31.51-4.873a1449 1449 0 0 1 191.24 239.556c-6.03-2.979-8.66-5.223-15.06-3.154-9.49 10.404 10.9 34.252 11.51 46.087-8.65-13.179-16.36-27.791-25.89-42.107a1378.6 1378.6 0 0 0-120.89-156.937c14.37 37.001 29.25 69.21 41.26 108.416 35.92 117.249 65.24 272.601 20 390.985-24.93 65.251-77.47 122.431-141.28 150.151a246.78 246.78 0 0 1-190.692 3.52c-64.236-25.35-117.936-79.82-145.281-142.941a318 318 0 0 1-21.378-70.793c-16.155-94.145 5.406-227.901 33.266-317.962a1101 1101 0 0 1 28.318-80.624c5.556-13.928 11.898-27.382 17.375-41.181-10.64 14.453-26.57 31.769-38.374 46.259a1581 1581 0 0 0-61.017 80.224c-10.541 14.806-20.805 29.681-30.985 44.726-4.792 7.081-12.402 22.752-17.84 27.605 4.16-11.167 20.972-35.135 11.562-44.571-5.55-2.006-8.549-.584-14.02 1.4"/><path fill="#ec924f" d="M694.324 595.132c5.471-1.984 8.47-3.406 14.02-1.4 9.41 9.436-7.402 33.404-11.562 44.571-68.208 136.46-114.495 332.738-64.721 482.107a368 368 0 0 0 34.166 75.28c6.98 11.54 15.231 22.88 21.834 34.61 2.415 3.65 1.475 6.64.255 9.91-5.554 14.9-75.327 53.33-61.785 71.28 16.924 22.44 57.519 60.92 77.692 81.6a3957 3957 0 0 0 46.424 47.27c7.976 8.07 15.814 16.37 24.066 24.15 11.446 10.84 19.369 2.25 28.057-6.38 27.996-27.79 72.022-10.77 77.511 27.33 1.677 11.65.855 24.28.841 36.05l-.013 60.11c20.41 19.6 40.2 39.74 60.124 59.83 10.284 10.36 20.75 22.73 32.514 31.35 2.928 2.14 5.438 3.12 9.066 3.13 4.71.03 8.692-1.75 11.973-5.12 16.604-17.04 11.164-42.35 13.354-62.24.85-7.71 5.07-17.86 14.21-18 4.26-.07 9.34 2.13 12.27 5.21 15.25 16-11.29 76.25 36.44 80.66 16.68 8.72 6.74 23.47-8.8 26.04l-1.2.18c-17.86-5.51-27.56-14.6-37.02-30.18-9.74 18.12-32.898 37.23-52.611 29.58-21.951-8.52-49.512-42.16-67.165-59.11-11.659-11.2-42.826-40.26-49.94-51.68-1.028-22.76.259-46.03-.222-68.88-.209-9.94 1.849-35.85-5.741-43.19-22.583-21.87-38.93 23.83-64.397 19.13-5.131-.26-13.338-1.77-17.491-5.2-22.465-18.55-43.063-41.36-63.585-62.07-30.671-30.96-61.05-61.96-91.462-93.14-9-9.23-13.968-21.69-13.063-34.6 1.546-22.99 17.282-34.18 33.238-47.71 8.633-7.31 17.206-14.68 25.716-22.13-38.929-58.9-60.937-116.5-69.706-187.36-15.899-128.467 19.151-283.219 76.408-398.454 5.611-11.293 23.136-43.338 30.305-52.534"/><path fill="#38200e" d="M1350.19 638.962c-.61-11.835-21-35.683-11.51-46.087 6.4-2.069 9.03.175 15.06 3.154 86.21 144.988 136.93 340.209 94.5 507.061a408.5 408.5 0 0 1-58.01 130.1c28.23 22.99 86.82 58.83 50.53 100.56-10.45 12.02-22.38 23.37-33.56 34.78l-64.64 65.72a2838 2838 0 0 0-31.57 32.4c-6.64 6.95-14.27 16.31-21.8 21.79-26.93 19.57-46.01 8.23-63.95-12.77-13.98-4.77-21.07-3.06-29.06 9.62-2.2 32.43-.22 71.38-.47 104.46-7.9 13.88-39.69 40.77-51.5 53.72-15.95 17.48-36.39 35.85-53.68 52.42-7.13 6.84-20.04 7.83-29.47 6.77l1.2-.18c15.54-2.57 25.48-17.32 8.8-26.04 31.99-32.12 65.81-63.9 96.89-96.61.33-22.84-3.56-90.97 3.87-108.3a45.65 45.65 0 0 1 26.66-25.11c14.11-4.98 33.37-3.17 44.55 7.59 4.55 4.38 8.6 11.17 14.49 13.75 3.46 1.51 8.03 1.77 11.53.24 4.92-2.16 133.98-134.85 147.06-149.17 2.28-2.48 5.03-5.34 6.09-8.58 1.51-4.62.54-9.96-1.96-14.03-10.65-17.32-51.96-39.14-60.43-55.56-1.81-3.49-2.04-6.23-.43-9.89 5.71-12.99 15.8-25.12 22.99-37.53 15.08-26.04 26.27-53.77 35.36-82.39 46.44-146.254 1.17-339.357-67.54-471.888"/><path fill="#302f36" d="M1273.34 1200.66c13.06 49.4-4.81 142.05-60.44 160.99-9.79 3.33-45.21 2.03-57.42 2.02l-74.73.18-3.28-.32c.04-.27 107.05-60.49 121.06-72.32 36.52-30.82 52.18-48.6 74.81-90.55"/><path fill="#302f36" d="M773.453 1200.71c3.089 3.17 11.115 19.4 14.529 24.9 32.261 51.87 84.91 85.33 137.885 113.03 10.445 5.46 36.791 17.41 45.043 24.09l-1.037 1c-27.754-.34-55.98.22-83.775.19-35.535-.05-62.454 5.62-85.815-27.48-28.65-40.6-33.873-87.66-26.83-135.73"/></svg>