<svg xmlns="http://www.w3.org/2000/svg" width="2048" height="2048" viewBox="0 0 2048 2048"><path fill="#242529" d="M0 0h2048v2048H0z"/><path d="M992.146 317.797c11.754-2.777 41.854-.82 55.004-.941 17.44-.16 42.73-3.827 57.81 5.654 22.04 13.861 18.39 41.04 18.16 63.216-.21 11.012.38 25.101-.56 35.848-1.91 21.689 2.37 37.049 9.33 57.251 2.51 7.318 2.99 16.799 8.05 22.906 5.46 6.461 10.89 13.658 16.7 19.845 8.15 8.692 16.93 21.455 26.59 28.175 12.41 8.634 28.21 11.103 42.31 15.462 22.89 8.625 41.19 31.438 46.27 55.16 7.9 36.855-16.93 79.607-54.12 88.804-12.9 3.079-23.51 8.352-34.62 15.36-12.26 7.735-18.72 21.288-26.95 32.211-13 17.252-22.48 31.019-26.43 52.672-.89 4.885-3.1 11.374-2.98 16.655 1.26 36.3 1 72.585.11 108.904-.22 7.724-.86 15.9.44 23.519 5.31 19.828 11.79 41.162 19.11 60.412 8.94 12.75 56.99 62.37 69.36 66.95l42.13 15.71c3.24 1.23 19.51 7.61 21.49 7.75 21.12 1.5 46.01-1.95 67.58-2.02 11.25-.04 52.95 3.24 60.68.96 11.9-3.52 33.66-16.77 48.9-19.93 5.34-5.48 30.52-39.43 32.86-45.61 9.34-26.69-.52-52.34 15.3-77.789 15.62-25.129 29.9-28.871 56.57-36.051 32.38-9.559 69.26 21.723 75.44 51.26 4.56 21.77.75 42.46 8.51 63.05 5.69 9.14 25.5 42.81 33.31 48.29 15.28 10.7 41.73 28.21 57.85 38.64 32.21 21.12 108.52-10.07 120.04 39.64 4.63 20.01 1.6 60.2 1.46 81.35-.2 32.6-38.55 41.62-64.89 38.24-8.83.11-44.16 1.22-49.57 4.73-23.83 15.42-53.42 31.19-73.31 50.44-1.07 1.04-28.67 54.75-28.64 54.45-2.98 37.11 1.01 67.55-34.03 91.73-7.51 5.1-31.28 13.35-40.11 10.35l-.26-.62c-15.06-.77-28.24-3.21-40.7-12.2-39.1-28.22-28.32-62.69-36.04-103.29-9.83-10.68-19.4-25.39-27.78-35.49-9.71-11.71-45.52-25.37-61.42-32.98-7.09 6.31-78.41 4.79-90.32 5-3.83.07-24.96-4.48-29.75-2.29-16.35 7.47-48.1 16.1-62.92 24.08-20.96 11.29-40.56 32.8-60.58 46.28-8.56 6.31-12.75 16.96-17.78 26.18-3.81 7-18.85 30.67-20.37 35.61-5.91 19.12-15.08 55.63-17.85 74.82 5.69 14.16 9.97 29.61 14.4 44.24 16.98 55.97 45.67 85.66 19.65 146.08a118.27 118.27 0 0 1-65.39 62.99c-15.76 6.19-29.76 8-46.42 7.88l.78-.6-4.24.39c1.86-.2 6.01-.51 7.43-1.57-46.353-.49-84.811-22.02-105.85-64.26-24.558-49.29-5.784-87.68 11.618-134.92 7.17-19.47 13.161-41.93 20.44-62.22-6.718-26.11-15.299-55.57-22.304-81.2-.182-.66-32.416-52.9-33.623-53.95-13.201-11.49-49.304-39.73-65.317-48.69-12.282-6.87-44.897-18.76-58.118-23.8-9.651 3.67-75.032 6.7-88.664 4.25-4.827-.87-31.162-2.53-33.859-1.55-18.279 6.65-37.328 18.63-55.746 26.41-4.775 6.67-9.884 13.43-14.49 20.16-7.007 10.24-16.089 20.07-21.368 31.27-2.794 7.6-2.843 18.7-2.704 26.66.412 23.71-8.689 46.8-27.618 61.61-7.001 5.48-17.82 13.11-27.138 12.1q-5.541 1.275-11.151 2.19a66.3 66.3 0 0 1-49.842-12.77c-34.875-26.22-28.703-55.67-30.727-91.03-5.92-16.26-25.506-43.3-33.765-57.44-3.235-5.54-63.237-43.25-69.282-45.77-30.362-12.65-72.399 2.44-99.713-14.85-7.903-5-13.935-17.16-14.63-26.59 1.424-21.8-3.3-56.03.657-76.67a37.4 37.4 0 0 1 7.913-16.95c18.438-22.29 47.562-12.17 72.464-15.48 9.666-1.29 26.294-2.76 35.261-6.86 6.199-2.83 19.271-12.88 25.359-17.28 12.253-8.85 32.707-18.85 42.155-30.11 5.517-6.57 13.188-20.49 18.707-28.07 2.991-5.39 13.424-18.33 14.338-24.24 4.635-30.01-4.094-54.587 18.069-80.146 16.774-19.344 31.419-25.12 56.923-27.473 34.719-3.562 73.395 34.623 72.414 65.55-1.596 50.329 6.724 50.809 36.575 90.649 18.437 7.56 36.962 16.37 54.908 24.43 6.794 3.05 44.909-.71 55.133-.92 25.057-.5 48.285.76 73.243 2.08 4.071-1.62 7.086-2.64 10.838-5.03 4.124-5 35.88-17.31 43.41-16.99 10.573-.77 53.535-44.16 62.081-53.88 13.835-15.75 11.193-16.08 17.854-35.09 3.918-11.186 10.439-25.796 12.932-36.805 1.923-12.946 1.293-27.817.584-40.874-1.848-34.076-1.627-67.095.169-100.997.305-5.763-6.064-34.864-8.949-39.716-10.602-17.825-25.031-37.384-38.36-53.476-2.143-2.54-22.331-13.55-25.727-14.895-17.765-7.04-30.318-5.841-45.857-19.61-12.111-10.732-24.659-31.236-26.189-47.279-1.288-13.519.823-27.63 5.97-40.031 5.427-15.411 26.996-36.871 43.023-39.307 32.439-4.929 47.731-14.884 65.634-42.26 3.158-4.828 15.824-17.147 17.823-22.087 7.155-17.681 13.555-38.37 16.755-57.244 3.494-26.222-4.311-71.226 1.312-95.542a41.4 41.4 0 0 1 9.849-18.921c14.745-15.968 31.06-10.894 50.986-11.849"/><path fill="#673e2c" d="M992.146 317.797c11.754-2.777 41.854-.82 55.004-.941 17.44-.16 42.73-3.827 57.81 5.654 22.04 13.861 18.39 41.04 18.16 63.216-.21 11.012.38 25.101-.56 35.848-1.91 21.689 2.37 37.049 9.33 57.251 2.51 7.318 2.99 16.799 8.05 22.906 5.46 6.461 10.89 13.658 16.7 19.845 8.15 8.692 16.93 21.455 26.59 28.175 12.41 8.634 28.21 11.103 42.31 15.462 22.89 8.625 41.19 31.438 46.27 55.16 7.9 36.855-16.93 79.607-54.12 88.804-12.9 3.079-23.51 8.352-34.62 15.36-12.26 7.735-18.72 21.288-26.95 32.211-13 17.252-22.48 31.019-26.43 52.672-.89 4.885-3.1 11.374-2.98 16.655 1.26 36.3 1 72.585.11 108.904-.22 7.724-.86 15.9.44 23.519 5.31 19.828 11.79 41.162 19.11 60.412 8.94 12.75 56.99 62.37 69.36 66.95l42.13 15.71c3.24 1.23 19.51 7.61 21.49 7.75 21.12 1.5 46.01-1.95 67.58-2.02 11.25-.04 52.95 3.24 60.68.96 11.9-3.52 33.66-16.77 48.9-19.93-2.66 2.59-46.97 21.56-51.68 22.21-17.52 2.43-45.86-1.53-64.82-.97-8.83.27-57.05 3.3-60.09 2.4-9.05-2.69-67.76-23.33-72.56-27.35-15.11-12.67-49.81-45.65-61.73-61.5-3.5-4.65-20.73-56.563-21.28-63.505-1.31-16.426-.65-50.802-.18-69.478.99-39.57-6.19-73.29 11.9-110.056 1.97-3.99 11.99-17.281 14.9-21.348a2279 2279 0 0 0 22.6-32.303c6.44-3.21 21.01-12.51 26.07-14.536 22.51-8.994 31.2-6.193 49.3-25.251a74.78 74.78 0 0 0 20.96-54.834c-1-26.308-20.68-54.543-44.85-63.652-13.57-5.111-38.48-8.265-49.22-20.261-8.78-9.802-32.13-35.449-38.98-45.43-3.96-5.775-17.8-53.222-17.72-60.51-.37-27.279 1.94-55.573 1.11-82.729-1.37-45.01-41.03-42.142-73.85-41.629-18.36.287-36.25-.598-54.244.199"/><path fill="#673e2c" d="M1561.24 928.88c32.38-9.559 69.26 21.723 75.44 51.26 4.56 21.77.75 42.46 8.51 63.05 5.69 9.14 25.5 42.81 33.31 48.29 15.28 10.7 41.73 28.21 57.85 38.64 32.21 21.12 108.52-10.07 120.04 39.64 4.63 20.01 1.6 60.2 1.46 81.35-.2 32.6-38.55 41.62-64.89 38.24-8.83.11-44.16 1.22-49.57 4.73-23.83 15.42-53.42 31.19-73.31 50.44-1.07 1.04-28.67 54.75-28.64 54.45-2.98 37.11 1.01 67.55-34.03 91.73-7.51 5.1-31.28 13.35-40.11 10.35l-.26-.62c34.25 2.27 67.96-31.42 69.23-64.67.23-6.05-.59-30.35.84-33.88 7.48-17.6 23.53-48.09 33.72-63.09 3.8-5.61 60.8-41.9 67.37-45.76 15.13-8.86 60.56-5.74 79.12-6.79 11.17-.63 20.48-4.91 27.85-13.64a41.6 41.6 0 0 0 8.69-17.67c3.15-13.92 1.18-57.68 1.58-73.89.43-17.97-17.57-36.86-36.1-38.33-10.32-.81-23.01-.7-33.39-.72-7.81-.02-35.32-2.2-42.1-5.32-17.04-7.86-55.45-34.19-69.66-45.34-6.66-5.23-34.27-47.94-35.83-58.08-2.6-11.44-1.56-23.2-1.96-34.915-1.44-41.766-34.25-71.484-75.16-69.455"/><path fill="#673e2c" d="M1098.19 1524.34c5.74-23.5 10.63-52.28 18.34-74.7 1.64-4.79 15.2-26.41 18.21-32.29 6.26-10.23 11.19-22.3 20.64-29.98 10.76-10.1 26.13-19.25 36.7-28.94 19.19-17.59 39.49-23.39 63.16-32.69 4.31-1.7 21.93-9.31 26.45-9.13 17.78.74 37.96 3.8 56.02 3.83 18.09.56 47.23-4.88 63.39-3.97-7.09 6.31-78.41 4.79-90.32 5-3.83.07-24.96-4.48-29.75-2.29-16.35 7.47-48.1 16.1-62.92 24.08-20.96 11.29-40.56 32.8-60.58 46.28-8.56 6.31-12.75 16.96-17.78 26.18-3.81 7-18.85 30.67-20.37 35.61-5.91 19.12-15.08 55.63-17.85 74.82 5.69 14.16 9.97 29.61 14.4 44.24 16.98 55.97 45.67 85.66 19.65 146.08a118.27 118.27 0 0 1-65.39 62.99c-15.76 6.19-29.76 8-46.42 7.88l.78-.6-4.24.39c1.86-.2 6.01-.51 7.43-1.57 41.49-.92 80.34-23.94 100.09-60.68a125 125 0 0 0 12.97-37.47c6.31-34.97-4.88-54.08-17.24-85.63-9.33-23.8-17.85-52.78-25.37-77.44"/><path fill="#673e2c" d="M485.735 927.891c34.719-3.562 73.395 34.623 72.414 65.55-1.596 50.329 6.724 50.809 36.575 90.649 18.437 7.56 36.962 16.37 54.908 24.43 6.794 3.05 44.909-.71 55.133-.92 25.057-.5 48.285.76 73.243 2.08-5.965 2.71-10.404 2.44-16.788 1.85-37.447-3.47-73.188-1.08-110.654.82-16.254-9.16-39.136-16.21-55.393-25.57-7.718-5.61-14.663-16.06-20.119-23.43-12.196-16.48-21.489-27.32-20.059-49.01 1.398-21.194-1.461-40.285-15.082-57.419-14.082-17.715-31.925-26.329-54.178-29.03"/><path fill="#673e2c" d="M648.889 1316.04c21.717 1.63 43.346 3.93 65.184 4.23 11.033.14 53.325-6.33 60.513-3.75-9.651 3.67-75.032 6.7-88.664 4.25-4.827-.87-31.162-2.53-33.859-1.55-18.279 6.65-37.328 18.63-55.746 26.41-4.775 6.67-9.884 13.43-14.49 20.16-7.007 10.24-16.089 20.07-21.368 31.27-2.794 7.6-2.843 18.7-2.704 26.66.412 23.71-8.689 46.8-27.618 61.61-7.001 5.48-17.82 13.11-27.138 12.1 9.676-3.54 17.935-7.58 25.667-14.45 29.523-26.21 24.87-52.18 27.293-86.31 7.424-11.2 17.236-23.44 24.26-34.35 12.899-20.04 20.927-22.18 40.91-31.96 9.321-4.64 18.575-9.42 27.76-14.32"/><path fill="#403535" d="M788.846 1104.65c4.124-5 35.88-17.31 43.41-16.99-6.809 3.9-35.755 14.93-43.41 16.99"/><path fill="#d4d1cb" d="M993.004 380.965c20.996.166 41.986.167 62.986.001-.01 15.192-.12 30.384-.35 45.575-.08 6.435-.93 24.515.46 29.979 5.86 23.579 14.79 46.3 21.49 69.681 5.37 18.733 22.28 32.351 35.01 47.123 6.87 7.978 20.3 23.941 28.57 30.234 11.59 8.825 35.47 16.986 49.09 23.273 1.59.646 8.81 1.461 10.76 1.667l-.29 14.233c-18.32 4.071-25 6.98-41.52 16.664-5.71 3.349-25.43 13.504-29.52 17.961-16.11 17.579-38.4 47.835-50.91 68.141-5.53 13.066-9.39 28.168-13.74 41.517-6.02 18.48-4.33 38.5-4.33 57.458q-.225 33.563-.06 67.124c.12 22.376-2.45 50.46 4.8 71.216 8.44 24.148 14.58 50.508 25.19 73.708 3.85 8.42 20.11 21.93 26.26 29.63 15.92 17.52 35.25 34.28 54.04 48.8 24.02 13.79 72.57 30.66 99.64 38.84 10.02 3.02 62.18-1.36 76.66-1.23 13.77.12 54.82 3.88 65.07.92 23.93-6.91 61.04-25.46 83.81-38.05 9.66-5.34 19.58-20.64 26.27-28.81 24.38-29.73 30.59-42.29 36.53-80.6.91-5.83 1.66-19.52 2.64-23.89 2.83-2.06 3.54-1.39 7.75-1.68l1.92 1.22c2.73 46.18 7.31 70.55 36 106.85 6.9 8.74 13.89 22.85 22.83 30.56 10.92 8.19 26.14 17.7 37.84 25.83 32.79 22.75 47.06 35.88 88.32 38.48 8.68.55 22.8 1.04 31.38 1.89.09 5.48.57 10.89-.84 16.1l-1.62 1.53c-7.87.35-60.23 5.82-66.68 9.3-26.99 14.56-72.49 43.39-96.81 64.21-2.26 1.94-10.9 18.39-13.33 22.42-26.89 44.47-36.13 57.54-36.33 109.83l-11.85.29c.22-25.26-1.07-46.49-9.63-70.55-3.59-10.1-12.57-16.92-17.79-25.42-27.72-45.09-75.72-64.67-124.31-79.08-13.39-3.83-53.89 5.13-69.95 2.92-22.54.33-46.38-4.52-68.7-2.02-2.84.32-19.16 5.83-22.39 7.39-15.56 7.31-51.66 16.65-65.16 23.85-12.44 6.63-74.47 51.45-81.08 60.61-29.25 40.5-49.8 82.89-56.92 132.32-2.47 17.16-12.2 40.9-8.79 59.87 6.52 28.41 18.14 58.27 28.31 85.72 5.11 13.6 11.82 26.79 13.11 41.5 5.35 60.85-81.392 76.23-99.805 21.48a57.2 57.2 0 0 1-2.341-26.72c4.271-28.8 27.436-67.57 33.626-97.67 1.85-7.77 8.87-23.08 8.81-30.43-.3-38.89-17.2-79.03-27.535-116.69-1.337-4.87-38.751-68.96-42.232-71.69-24.202-18.94-53.947-39.31-79.117-57.89-7.351-5.05-84.484-32.92-93.73-33.39-10.444-.54-59.823 7.38-78.86 2.99-10.142-.12-42.837-3.82-48.837-3-30.558 5.55-60.38 22.34-87.989 36.78-23.907 14.67-39.882 46.7-56.187 68.54-14.077 18.86-8.664 50.52-14.006 69.53-2.029.54-4.102 1.24-6.064.97-1.433-.19-2.18.21-2.256-1.5-.62-13.85-1.209-30.16-3.82-43.58-1.195-6.13-3.686-21.23-5.92-25.05-5.74-9.84-38.941-64.21-43.968-67.74-24.187-16.99-69.967-46.73-96.058-59.27-9.047-4.36-58.16-9.89-67.553-9.92-.099-5.31-.029-10.84-.031-16.18 14.762-.93 29.48-2.49 44.113-4.65 4.239-.65 20.631-3.2 24.49-5.52 31.558-18.97 65.332-39.96 95.119-61.13 1.276-.9 36.962-53.6 39.844-58.58a58.7 58.7 0 0 0 5.062-11.47c3.781-11.86 5.408-25.27 6.924-37.62.872-7.1-.311-19.36 3.804-24.97 2.658-1.02 2.772-.67 5.653-.03 1.75 4.89 2.182 15.79 2.91 21.69 1.804 14.62 5.132 34.64 10.214 48.32.868 2.34 15.529 21.2 17.445 23.59 7.179 8.96 20.739 28.47 28.982 35.33 12.631 10.51 39.126 22.56 54.351 29.38 6.485 2.91 34.239 13.73 39.99 14.31 18.918.31 43.403.86 62.142-1.39 20.259-2.42 60.943 5.06 77.422 1.12 23.184-5.53 55.224-19.49 77.526-28.64 3.768-1.52 14.53-5.68 18.383-8.3 29.887-20.28 60.752-53.8 82.192-82.93 3.391-8.62 8.28-21.42 10.566-30.02 4.752-18.76 18.321-45.924 18.34-64.69.05-51.102.425-102.319-.849-153.407-.163-6.518-15.629-60.351-19.86-66.277-12.966-18.16-29.702-42.695-44.766-59.98-16.059-14.203-51.627-32.464-71.983-37.052-.561-4.738-.446-8.962-.449-13.716 16.089-2.299 56.382-21.218 67.058-32.979 12.309-15.529 40.889-43.654 50.122-59.634 5.165-8.938 25.493-74.534 25.812-83.753.755-21.8-.644-49.892-.52-71.677"/><path fill="#403535" d="M993.004 380.965c20.996.166 41.986.167 62.986.001-.01 15.192-.12 30.384-.35 45.575-.08 6.435-.93 24.515.46 29.979 5.86 23.579 14.79 46.3 21.49 69.681 5.37 18.733 22.28 32.351 35.01 47.123 6.87 7.978 20.3 23.941 28.57 30.234 11.59 8.825 35.47 16.986 49.09 23.273 1.59.646 8.81 1.461 10.76 1.667l-.29 14.233c-18.32 4.071-25 6.98-41.52 16.664-5.71 3.349-25.43 13.504-29.52 17.961-16.11 17.579-38.4 47.835-50.91 68.141-5.53 13.066-9.39 28.168-13.74 41.517-6.02 18.48-4.33 38.5-4.33 57.458q-.225 33.563-.06 67.124c.12 22.376-2.45 50.46 4.8 71.216 8.44 24.148 14.58 50.508 25.19 73.708 3.85 8.42 20.11 21.93 26.26 29.63 15.92 17.52 35.25 34.28 54.04 48.8 24.02 13.79 72.57 30.66 99.64 38.84 10.02 3.02 62.18-1.36 76.66-1.23 13.77.12 54.82 3.88 65.07.92 23.93-6.91 61.04-25.46 83.81-38.05 9.66-5.34 19.58-20.64 26.27-28.81 24.38-29.73 30.59-42.29 36.53-80.6.91-5.83 1.66-19.52 2.64-23.89 2.83-2.06 3.54-1.39 7.75-1.68-3.06 3.96-5.48 8.86-4.21 14.02-.37 11.57-9.29 53.13-15.37 61.92-7.44 10.76-33.33 49.72-42.98 56.75-26.13 18.21-65.19 36.25-95.31 45.68-8.73 2.73-56.88-1.75-69-1.41-40.01 1.11-72.45 6.99-109.86-11.45-17.35-8.55-42.24-14.12-59.69-24.5-29.91-20.01-57.06-48.71-81.08-75.23-10.5-13.78-15.9-36.59-21.31-52.91-3.38-10.17-13.51-37.3-13.78-46.708-1.47-52.914-.59-105.167-.57-158.261.01-15.377 13.59-51.217 19.49-66.63 11.36-17.982 36.35-53.505 52.18-68.159 8.23-7.627 38.77-22.185 49.79-29.318 4.31-2.787 17.2-2.643 18.76-7.536-6.45-8.006-46-19.258-54.67-26.733-22.25-19.19-43.58-46.193-62.92-68.585-4.42-5.121-8.79-26.507-11.98-33.425-2.56-10.12-13.87-39.063-14.73-48.061-2.13-22.131-.26-51.511-.7-74.306q-26.984.2-53.974-.136c.239 14.02 1.965 57.542.269 70.005-2.27 16.69-19.035 64.066-25.183 81.979-1.151 3.354-17.251 22.896-20.332 26.218-8.746 9.434-27.954 34.724-37.613 41.611-12.25 8.733-42.059 22.258-57.115 27.616-1.84.654-.985.045-2.086 2.105.241 9.227 13.09 5.37 18.116 9.191 12.056 9.104 40.773 21.329 50.348 30.701 18.326 17.938 36.667 47.047 51.004 68.369 1.842 2.739 17.099 56.961 17.358 60.775 1.592 23.478.848 51.399.927 75.202l.169 54.771c.012 4.993.269 28.776-.757 33.011-6.861 28.341-18.193 59.454-27.796 87.254-.814 2.36-4.593 8.3-6.376 10.4-22.99 27.17-48.48 56.05-77.965 76.31-3.837 2.64-12.7 5.93-17.055 7.61-2.112-2.42-1.326-1.6-4.351-3.21 3.768-1.52 14.53-5.68 18.383-8.3 29.887-20.28 60.752-53.8 82.192-82.93 3.391-8.62 8.28-21.42 10.566-30.02 4.752-18.76 18.321-45.924 18.34-64.69.05-51.102.425-102.319-.849-153.407-.163-6.518-15.629-60.351-19.86-66.277-12.966-18.16-29.702-42.695-44.766-59.98-16.059-14.203-51.627-32.464-71.983-37.052-.561-4.738-.446-8.962-.449-13.716 16.089-2.299 56.382-21.218 67.058-32.979 12.309-15.529 40.889-43.654 50.122-59.634 5.165-8.938 25.493-74.534 25.812-83.753.755-21.8-.644-49.892-.52-71.677"/><path fill="#403535" d="M714.937 1252.8c7.505-1.04 61.4-4.93 66.383-3.38 26.782 8.33 64.344 22.07 90.401 33.98 8.143 5.96 19.07 13.11 26.575 19.57 14.397 12.38 47.529 29.3 57.148 44.64 13.94 22.22 27.221 44.77 39.022 68.01 4.119 8.11 6.034 22.36 9.354 31.1 7.34 26.73 23.55 69.92 15.63 96.84-6.55 22.74-14.72 44.84-22.554 67.12-9.802 27.88-29.498 58.12-9.954 86.25a47.14 47.14 0 0 0 31.158 19.65 45.77 45.77 0 0 0 35.65-9.06c28.6-22.04 18.95-48.2 8.07-75.18-8.6-26.88-28.67-68.41-31.32-95.68-2.72-28.12 18.45-92.96 25.27-121.9 1.23-5.21 39.27-69.59 43-72.56 24.47-19.47 51.89-41.6 78.22-58.79 26.87-12.44 68.38-25.07 97.1-33.79 14.62-3.73 59.62 6.06 77.54 2.31 9.66-1.3 50.71-4.56 57.81-2.71 32.52 8.47 69.17 25.92 96.82 45.22 11 9.67 20.39 25.95 30.17 35.99 21.29 21.81 25.34 46.37 28.54 75.56.51 4.7-1 15.12 1.44 18.56 2.41-2.37 1.58-19.39 2.65-24.84 1.7-8.75 1.14-15.99 4.76-25.23 11.09-28.33 28.69-56.35 45.41-81.84 17.54-16.06 78.13-56.54 101.62-66 6.78-2.73 53.39-7.76 62.35-8.58l1.94 4.85c-7.87.35-60.23 5.82-66.68 9.3-26.99 14.56-72.49 43.39-96.81 64.21-2.26 1.94-10.9 18.39-13.33 22.42-26.89 44.47-36.13 57.54-36.33 109.83l-11.85.29c.22-25.26-1.07-46.49-9.63-70.55-3.59-10.1-12.57-16.92-17.79-25.42-27.72-45.09-75.72-64.67-124.31-79.08-13.39-3.83-53.89 5.13-69.95 2.92-22.54.33-46.38-4.52-68.7-2.02-2.84.32-19.16 5.83-22.39 7.39-15.56 7.31-51.66 16.65-65.16 23.85-12.44 6.63-74.47 51.45-81.08 60.61-29.25 40.5-49.8 82.89-56.92 132.32-2.47 17.16-12.2 40.9-8.79 59.87 6.52 28.41 18.14 58.27 28.31 85.72 5.11 13.6 11.82 26.79 13.11 41.5 5.35 60.85-81.392 76.23-99.805 21.48a57.2 57.2 0 0 1-2.341-26.72c4.271-28.8 27.436-67.57 33.626-97.67 1.85-7.77 8.87-23.08 8.81-30.43-.3-38.89-17.2-79.03-27.535-116.69-1.337-4.87-38.751-68.96-42.232-71.69-24.202-18.94-53.947-39.31-79.117-57.89-7.351-5.05-84.484-32.92-93.73-33.39-10.444-.54-59.823 7.38-78.86 2.99 5.034-.31 12.208-2.52 19.281-3.26"/><path fill="#403535" d="M262.967 1205.64c14.762-.93 29.48-2.49 44.113-4.65 4.239-.65 20.631-3.2 24.49-5.52 31.558-18.97 65.332-39.96 95.119-61.13 1.276-.9 36.962-53.6 39.844-58.58a58.7 58.7 0 0 0 5.062-11.47c3.781-11.86 5.408-25.27 6.924-37.62.872-7.1-.311-19.36 3.804-24.97 2.658-1.02 2.772-.67 5.653-.03 1.75 4.89 2.182 15.79 2.91 21.69 1.804 14.62 5.132 34.64 10.214 48.32.868 2.34 15.529 21.2 17.445 23.59 7.179 8.96 20.739 28.47 28.982 35.33 12.631 10.51 39.126 22.56 54.351 29.38 6.485 2.91 34.239 13.73 39.99 14.31 18.918.31 43.403.86 62.142-1.39 20.259-2.42 60.943 5.06 77.422 1.12 23.184-5.53 55.224-19.49 77.526-28.64 3.025 1.61 2.239.79 4.351 3.21-24.461 10-54.898 22.97-80.232 29.76-24.639 1.8-49.527-.56-74.662-1.13-17.854-.4-48.751 4.85-64.98 1.67-30.023-5.89-74.892-27.54-99.764-45.93-9.169-6.77-19.323-24.87-27.528-33.29-4.13-4.94-17.6-22.04-19.38-27.46-5.686-17.33-9.504-40.81-12.483-58.89-5.605 52.13-5.88 56.81-37.626 99.92-6.089 7.7-10.972 20.49-18.891 26.23-15.214 11.02-31.581 21.3-47.643 31.13-18.682 11.42-36.926 27.17-58.323 32.56-17.715 4.47-36.023 3.56-53.534 7.64-1.049.25.076 5.54.24 6.21 9.825 3.34 41.714 3.97 58.492 8.75a74 74 0 0 1 14.476 5.78c14.677 7.88 34.153 21.63 48.706 30.2 6.299 3.71 37.336 22.95 40.588 27.06 13.737 17.37 31.309 47.4 42.611 66.32 6.868 11.5 10.742 47.57 11.16 60.94l.204-.82c2.426-10.17 5.178-41.27 8.879-48.34 10.143-19.35 33.122-56.51 49.736-71.41 20.542-18.42 73.952-40.12 101.238-47.02 2.85-.72 24.34 1.27 27.639 1.52l42.705 2.81c-7.073.74-14.247 2.95-19.281 3.26-10.142-.12-42.837-3.82-48.837-3-30.558 5.55-60.38 22.34-87.989 36.78-23.907 14.67-39.882 46.7-56.187 68.54-14.077 18.86-8.664 50.52-14.006 69.53-2.029.54-4.102 1.24-6.064.97-1.433-.19-2.18.21-2.256-1.5-.62-13.85-1.209-30.16-3.82-43.58-1.195-6.13-3.686-21.23-5.92-25.05-5.74-9.84-38.941-64.21-43.968-67.74-24.187-16.99-69.967-46.73-96.058-59.27-9.047-4.36-58.16-9.89-67.553-9.92-.099-5.31-.029-10.84-.031-16.18"/><path fill="#403535" d="m1569.31 1000.45 1.92 1.22c2.73 46.18 7.31 70.55 36 106.85 6.9 8.74 13.89 22.85 22.83 30.56 10.92 8.19 26.14 17.7 37.84 25.83 32.79 22.75 47.06 35.88 88.32 38.48 8.68.55 22.8 1.04 31.38 1.89.09 5.48.57 10.89-.84 16.1l-1.62 1.53-1.94-4.85c-.1-1.32-.14-2.75-.35-4.06-.25-1.51-.09-3.2-1.63-3.82-6.99-2.81-21.49-1.69-29.57-2.71-10.38-1.32-20.84-3.59-31.05-5.88-16.95-3.8-71.28-43.19-88.8-55.23-3.39-2.33-6.37-4.8-9.08-7.92-8.94-10.3-41.6-58.04-45.52-69.53-6.04-17.73-7.07-36.71-10.47-54.95l-1.63.51c-1.27-5.16 1.15-10.06 4.21-14.02"/><path fill="#260e10" d="M1039.99 1336.16c-5.33 1.95-17.13 1.5-22.96.56a74.7 74.7 0 0 1-49.962-30.92c-27.32-38.53-10.909-74.34 5.362-112.85 9.814-23.22 19.886-46.94 28.34-70.69 12.52-35.18 17.78-67.97 24.1-104.33a664 664 0 0 0 31.72 123.01c9.85 26.5 22.37 53 32.47 79.55 10.97 28.81 15.05 46.1 2.38 74.6-10.54 21.06-27.17 37.74-51.45 41.07"/><path d="M1025.02 1045.77c1.94 12.49 5.49 23.85 8.33 36.02 11.39 48.67 32.57 94.18 51.23 140.35 10.64 26.33 14.37 44.17 2.69 70.64-8.36 16.68-21.25 31.5-39.61 37.25-1.4.43-2.81.81-4.23 1.15-31.77 5.19-57.779-5.14-75.234-32.68-21.589-34.06-6.407-68.61 7.874-102.01 15.037-35.16 30.09-70.56 39.35-107.84 3.6-14.3 6.35-28.41 9.6-42.88"/></svg>