<svg xmlns="http://www.w3.org/2000/svg" width="2048" height="2048" viewBox="0 0 2048 2048"><path fill="#1f2126" d="M0 0h2048v2048H0z"/><path d="m1281.66 159.499 130.41-.467c19.67-.07 40.84-.826 60.1.512 20.29 1.409 35.29 30.846 24.04 47.919-9.41 14.278-20.11 28.213-30.33 41.794l-56.19 74.897a19671 19671 0 0 0-166.26 226.468l-47.42 65.869c-8.82 12.325-18.96 25.85-26.91 38.631l249.09-.02 75.09-.132c15.92-.024 42.17-3.209 54.62 6.777 11.95 9.581 14.6 27.439 4.41 39.741-15.69 18.94-31.86 37.551-47.6 56.404l-99.16 120.389c-75.79 93.109-148.09 188.769-223.28 281.709l173.7.1c23.69.02 48.8-1.07 72.45.24 14.83.82 29.57 13.1 30.73 28.91.56 8.42-1.87 16.76-6.87 23.56-10.17 13.6-36.13 41.26-48.37 55.18l-105.7 119.98-273.43 310.59c-30.822 35.22-62.622 70.41-93.027 105.92-31.287 32.54-59.76 70.16-90.629 103.2-2.428 2.6-10.721 3.7-13.998 2.6-12.247-4.12-15.011-12.71-12.151-24.61 4.108-20.02 8.616-39.5 13.173-59.21l23.547-102.06 56.411-248.59c-45.414.28-92.519-1.24-138.072-1.56l-130.285-1.22c-15.365-.1-32.161-.55-47.64.3-21.115 1.16-31.697-20.02-25.756-38.24 4.416-13.55 12.541-28.86 18.864-42.17l31.94-67.6 122.144-256.26-206.037-.19c-17.32-.03-34.64.05-51.959.25-25.025.17-55.252 2.47-56.069-31.62-.431-18 13.156-34.74 21.523-50.433a9279 9279 0 0 1 73.526-135.222L765.538 401.73l76.765-142.603c9.686-18.091 39.751-78.862 51.554-90.643 5.777-5.767 10.293-7.039 18.4-7.97 11.617-1.335 24.082-.33 35.8-.362l71.733-.219z"/><path fill="#b16c37" d="M913.047 190.518c53.717.548 542.863-3.531 550.073-.282 2.13.961 3.3 2.074 4.11 4.223-2.34 8.89-41.83 59.343-49.34 69.427l-102.06 137.113-206.56 283.867c66.08.71 132.17.93 198.25.658l219.14.122c-15.63 21.023-42.44 51.283-59.76 72.242a18104 18104 0 0 0-120.98 147.662l-164.42 206.42c-20.68 25.99-41.05 53.07-62.27 78.52l189.95.18c12.63.01 110.78-1.19 115.14 2.25.71 8.64-36.47 47.14-44.23 55.89a8203 8203 0 0 0-59.68 68.07c-84.18 96.43-168.9 192.39-254.13 287.9-2.41-1.12-2.79-2.02-4.47-4.12 22.2-26.66 46.08-53.23 68.94-79.39l88.51-101.96 178.86-206.38-215.63 2.38c-42.3.65-89.89 2.17-131.83 1.89a24517 24517 0 0 0 266.37-312.077l102.69-121.299c18.53-21.84 39.24-45.401 57.15-67.518q-113.505 2.881-227.04 3.452c-72.36 1.076-151.1 3.628-223.02 2.615a49572 49572 0 0 1 408.85-509.9l-514.842 2.325-313.43 584.9c-38.556 71.064-78.414 147.627-118.428 217.472 113.539-1.02 227.083-1.44 340.626-1.28-48.714 99.04-104.492 202.39-155.821 300.38l-40.559 77.29c-6.818 12.98-15.742 28.82-21.777 41.82l195.992-2.3c52.914-.4 113.464.29 165.75-1.87-10.871 34.6-20.746 71.36-30.733 106.39l-55.105 194.25c-1.008-1.72-2.528-5.77-.551-5.81-.958.02-2.17-4.49-2.377-6.03 21.361-90.89 40.164-182.67 62.372-273.38-42.373-2.33-91.756-1.61-134.827-2.13l-214.151-2.3L786.7 1039.14l-251.474-.77c-11.273-.04-72.153 1.08-79.741-.99-.5-3.11.242-4.9 1.713-7.69 21.549-40.852 43.964-81.555 66.115-122.06l114.229-209.215z"/><path fill="#b16c37" d="M1066.28 1604.78c-2.45 3.57-14.83 17.16-17.94 20.63-11.67 12.9-23.27 25.87-34.78 38.91l-83.452 94.32c-21.293 23.8-46.075 50.68-66.415 75.08l-1.166-.06c2.336-5.31 32.514-39.51 37.48-45.41a6490 6490 0 0 1 106.503-124.19c18.03-20.76 36.82-43.24 55.3-63.4 1.68 2.1 2.06 3 4.47 4.12"/><path fill="#b16c37" d="M864.306 1808.49c2.107-6.89 4.048-15.85 5.432-23 4.166-21.53 10.924-44.02 14.667-65.48.207 1.54 1.419 6.05 2.377 6.03-1.977.04-.457 4.09.551 5.81-4.911 24.58-15.147 53.17-21.479 78.01z"/><path fill="#4d2f1a" d="M865.854 1809.86c-.621 3.95-2.487 11.19-3.977 14.92l-.461.03c-.794-1.31.107-4.43.422-5.82l1.884-7.99c.195-.84.389-1.68.584-2.51z"/></svg>