<svg xmlns="http://www.w3.org/2000/svg" width="2048" height="2048" viewBox="0 0 2048 2048"><path fill="#1f2026" d="M0 0h2048v2048H0z"/><path d="M467.876 252.58c6.745 5.011 30.874 30.004 38.22 37.281a9055 9055 0 0 0 91.967 91.378l377.784 374.193c-30.256 7.668-53.595 23.095-69.745 49.968-22.464 37.378-17.021 94.605-17.234 136.537l-.943 153.563-.723 118.36c-.058 19.66-2.693 52.1 2.388 70.12 7.533 26.73 80.227 94.3 105.328 107.63 28.712 15.26 55.372 16.86 86.152 7.43l1 398.48-6.41-6.39-370.131-372.88c-42.469-42.38-84.689-85-126.658-127.87 55.86-8.65 94.203-50.65 104.182-105.65 4.018-22.15 3.142-41.93 3.139-64.3l-.012-74.55-.05-277.926c-14.241-11.952-42.23-41.099-56.681-55.443L526.334 609.666c-18.126-18.119-39.795-40.799-58.443-57.744.144-98.875-1.522-200.674-.015-299.342"/><path d="m482.175 286.211 467.291 462.684c-25.439 14.09-43.685 27.054-57.851 53.637-17.341 32.54-14.522 66.048-14.486 101.475l.101 96.843-.056 180.41c-.014 27.15-2.426 89.72 3.237 114.79 4.348 19.24 50.838 59.65 66.797 76.58 28.968 30.74 69.412 47.83 112.602 46.11 3.33-.63 7.04-1.24 10.31-2-.36 107.16-.07 214.33.88 321.49.33 6.93.01 16.16-.04 23.26-54.61-52.88-110.631-111.28-164.315-165.42l-296.764-300.03c47.261-17.85 77.578-57.39 87.403-106.06 4.261-21.11 3.43-40.5 3.373-61.83l-.023-61.38-.264-205.354c.056-31.361-.52-65.799.598-96.98-18.554-19.138-40.718-39.856-59.968-59.034L482.115 546.7z"/><path fill="#1f2026" d="m482.175 286.211 467.291 462.684c-25.439 14.09-43.685 27.054-57.851 53.637-17.341 32.54-14.522 66.048-14.486 101.475l.101 96.843-.056 180.41c-.014 27.15-2.426 89.72 3.237 114.79 4.348 19.24 50.838 59.65 66.797 76.58 28.968 30.74 69.412 47.83 112.602 46.11-.09 8.5.25 27.8-.64 35.53q-.255-8.265-.24-16.53c-42.3 3.1-83.88-11.37-115.069-40.59-18.601-17.42-73.804-67.15-81.123-89.25-8.578-25.91-5.542-83.63-5.52-113.16l-.148-156.42.002-122.462c.018-77.747-6.188-114.518 57.64-169.601L634.185 467.558l-85.583-84.539c-14.749-14.575-31.287-31.894-46.552-45.558.833 66.589.4 134.139.231 200.79L649.91 685.023l44.774 44.378c7.963 7.932 19.2 18.58 26.147 26.861l.105 284.328.008 79.95c-.021 25.43 1.005 53.32-4.156 77.98a155.9 155.9 0 0 1-41.614 78.07c-10.518 10.47-19.06 16.49-31.929 23.66 39.579 42.14 83.781 85.69 124.63 126.85l182.459 184.62 78.486 79.01c9.29 9.53 21.59 21.55 30.26 31.35-.04-7.26-.4-17.44.09-24.48.81 8.91.77 18.06.89 27.02 2.51 3.25 8.34 11.16 10.94 13.61.33 6.93.01 16.16-.04 23.26-54.61-52.88-110.631-111.28-164.315-165.42l-296.764-300.03c47.261-17.85 77.578-57.39 87.403-106.06 4.261-21.11 3.43-40.5 3.373-61.83l-.023-61.38-.264-205.354c.056-31.361-.52-65.799.598-96.98-18.554-19.138-40.718-39.856-59.968-59.034L482.115 546.7z"/><path fill="#4c2e1d" d="M1059.81 1418.74c3.33-.63 7.04-1.24 10.31-2-.36 107.16-.07 214.33.88 321.49-2.6-2.45-8.43-10.36-10.94-13.61-.12-8.96-.08-18.11-.89-27.02v-243.33c.89-7.73.55-27.03.64-35.53"/><path d="M1581.68 261.753c1.77 5.661.44 68.259.43 77.519l.14 211.903c-20.58 22.379-51.36 51.122-73.33 72.765l-138.64 136.927-.16 226.813c-104.28 66.8-217.03 136.93-296.99 232.61-16.53 19.78-28.63 39.7-42.18 61.41l-.15-92.2-.02-166.07c20.95-1.29 42.06-6.51 60.53-16.49 64.7-34.938 115.39-127.109 75.07-197.166-18.63-32.371-42.86-50.284-78.22-60.471 24.92-23.502 48.91-48.018 73.23-72.14l107.42-106.187z"/><path d="M1557.55 304.874c3.83-3.735 8.33-8.329 12.26-11.838l-.52 253.148-211.61 208.597.23 222.808c-16.66 12.348-35.37 24.571-52.48 36.561a8081 8081 0 0 0-104.09 74.23c-66.06 48.22-102.89 81.94-154.9 145.49l-1.38-.84.26-198.02c8.44-1.43 16.21-2.84 24.34-5.15 93.85-26.68 165.54-153.76 101.58-240.06-16.13-21.761-32.72-33.711-56.27-46.242z"/><path fill="#1f2026" d="m1114.97 743.558 442.58-438.684c.03 9.311 1.29 73.601-.36 78.927-.85-15.418-.25-34.546-.21-50.322-12.17 14.06-29.81 30.806-43.33 44.257l-89.7 88.466-207.74 206.597c-22.66 22.312-45.27 45.351-68.14 67.367 22.08 15.992 42.11 36.175 53.57 61.215 47.04 102.782-31.76 226.859-136.43 250.759-.24 48.6.02 97.19.78 145.78-7.73 9.43-22.06 23.4-19.55 35.95l-1.38-.84.26-198.02c8.44-1.43 16.21-2.84 24.34-5.15 93.85-26.68 165.54-153.76 101.58-240.06-16.13-21.761-32.72-33.711-56.27-46.242"/><path fill="#4c2e1d" d="M1557.55 304.874c3.83-3.735 8.33-8.329 12.26-11.838l-.52 253.148-211.61 208.597.23 222.808c-16.66 12.348-35.37 24.571-52.48 36.561a8081 8081 0 0 0-104.09 74.23c-66.06 48.22-102.89 81.94-154.9 145.49-2.51-12.55 11.82-26.52 19.55-35.95 33.81-46.68 110.9-102.74 157.19-136.24 40.51-29.32 81.37-58.16 122.56-86.525l-.06-224.51 211.53-209.249c.59-52.043-.04-105.45-.02-157.595 1.65-5.326.39-69.616.36-78.927"/><path d="M1372.47 1012.8c.43.57.85 1.15 1.27 1.72 1.37 40.48-1.31 99.44.38 137.85.49 10.29 1.87 20.52 4.12 30.57a151.65 151.65 0 0 0 27.22 59.35c17.86 23.79 43.6 42.16 73.51 46.28-109.8 107.39-219.35 217.99-330.07 324.05l-55.08 53.98-.72-268.4c62.64-30.53 128.46-95.25 136.24-167.27 1.69-15.57 1.34-31.98 1.33-47.66l.1-74.16c5.77-3.38 11.51-7.42 17-11.28 41.18-28.97 83.32-56.3 124.7-85.03"/><path d="m1352.21 1041.69 9.82-6.41-.16 69.22c-.04 14.98-.71 31.84.31 46.7 4.03 58.45 32.35 125.83 93.93 142.56-93.61 89.64-186.51 183.55-279.55 274.36l-48.83 48.14c-4.07 4.02-14.99 15.96-18.62 18.03l-1.76-.06c-1.12-2.3-.75-4.3-.65-6.9-.46-73.68-.41-147.36.14-221.03 27.95-15.09 52.07-34.03 74.66-55.86 75.21-72.69 63.63-138.24 63.48-233.37 5.81-3.6 12.62-8.28 18.11-12.35 29.11-21.6 60.18-41.35 89.12-63.03"/><path fill="#1f2026" d="m1352.21 1041.69-.14 25.03c-16.55 11.71-32.67 24.29-49.52 36.04-9.58 6.68-29.24 19.32-37.44 26.18.08 100.37 8.85 158.82-71.03 238.49-22.48 22.41-41.39 35.5-68.77 51.74 0 19.98-1.72 180.71.76 187.58-4.13 5.96-13.83 14.95-19.37 20.58-.46-73.68-.41-147.36.14-221.03 27.95-15.09 52.07-34.03 74.66-55.86 75.21-72.69 63.63-138.24 63.48-233.37 5.81-3.6 12.62-8.28 18.11-12.35 29.11-21.6 60.18-41.35 89.12-63.03"/><path fill="#4c2e1d" d="m1352.21 1041.69 9.82-6.41-.16 69.22c-.04 14.98-.71 31.84.31 46.7 4.03 58.45 32.35 125.83 93.93 142.56-93.61 89.64-186.51 183.55-279.55 274.36l-48.83 48.14c-4.07 4.02-14.99 15.96-18.62 18.03l-1.76-.06c-1.12-2.3-.75-4.3-.65-6.9 5.54-5.63 15.24-14.62 19.37-20.58 101.57-104.41 206.64-205.17 309.02-308.55-20.3-9.82-34.51-21.88-48.09-39.86-42.74-56.59-35.11-125.13-34.93-191.62z"/><path d="M1056.68 1247.86c2.09 3.5 2.88 25.81 4.26 33.02 6.14 31.99 39.63 75.13 7.82 102.87-7.85 6.85-16.21 6.75-25.61 5.94-12.27-4.94-21.58-11.67-25.62-24.98-6.62-21.81 6.16-42.41 14.32-61.87 7.73-18.45 15.17-37.44 24.83-54.98"/><path fill="#fe242c" d="M1049.64 1277.95c2.26-8.05 3.57-6.47 4.21.96 6.23 26.01 39.6 86.15 8.35 102.32a23.88 23.88 0 0 1-19.31 1.28c-44.139-16.05-3.61-76.9 6.75-104.56"/><path fill="#e32e31" d="M1049.64 1277.95c2.26-8.05 3.57-6.47 4.21.96-1.53-.4-2.65-.65-4.21-.96"/><path fill="#fdf6e0" d="M1061.01 1321.78c7.84 6.32 14.21 40.05 6.45 49.67-13.19 16.37-33 7.43-37.08-11.35.34-3.08.45-5.89 1.26-8.88l.87-.68-.03-.68c1.56.84 1.84 15.76 11.34 20.68 7.05 4.98 14.47 6.28 19.91-2.26 8.15-12.81-1.42-32.65-2.72-46.5"/></svg>