<svg xmlns="http://www.w3.org/2000/svg" width="2048" height="2048" viewBox="0 0 2048 2048"><path fill="#202226" d="M0 0h2048v2048H0z"/><path fill="#080202" d="M1431.99 186.594c13.67-7.409 37.75-26.886 52.48-36.483-17.49 36.569-37.77 76.904-53.92 113.906-.15 4.105-1.64 6.583-3.34 10.367a15760 15760 0 0 1-119.53 252.482l-87.89 184.529-38.48 80.706c-3.38 7.174-15.66 36.201-19.96 40.886l-1.11-.916c-3.15 5.703-10.34 20.683-12.61 26.898 2.04 3.74-4.08 11.744-5.21 19.024 1.06 3.475.06 2.143 3.07 4.148 13.56-5.843 42.42-25.555 57.45-34.645 66.21-40.045 131.98-81.44 198.26-121.402 8.74-5.274 54.86-34.644 62.24-36.687 3.83-3.567 34.34-21.285 41.07-25.275-2.68 7.491-4.95 13.778-8.2 21.011a19817 19817 0 0 1-144.37 361.137l-43.69 105.39c-5.41 12.99-11.12 25.8-16.51 38.78-2.16 5.2-4.87 12.8.72 16.37 5.64-2.07 22.07-14.6 27.96-18.88l71.37-51.76c12.07-8.76 25.44-19.68 38.52-26.42l.88.67c7.12-5.22 14.31-10.33 21.58-15.33 2.71-3.61 40.4-29.44 47.53-35.79l-.59-2.05c6.68-2.49 56.43-40.51 66.45-47.86l161.59-117.003c34.32-24.806 68.78-49.417 103.39-73.831 13.7-9.789 41.2-30.804 54.61-38.228.63-.643.57-.675 1.42-.913 7.19-6.09 26.81-17.658 35.36-22.12-4.1 4.931-17.91 22.847-21.66 25.616-4.12 3.216-13.81 17.341-17.6 22.28a641 641 0 0 1-18.16 22.181c-41.85 49.024-85.04 98.819-127.92 146.814-11.28 12.623-63.1 76.264-73.03 81.584l-.45.72c-.31 5.06-6.42 12.6-11.4 13.32l-.22.64c-1.14 5.97-9.64 15.77-14.83 16.25-9.81 10.72-53.87 64.58-61.6 69.61-17.27 20.87-36.74 42.24-54.73 62.71-38.14 43.4-76.55 86.55-115.23 129.47-19.47 21.64-42.71 45.72-60.92 67.65l-.1 1.44c-.11 3.31-11.98 16.36-15.26 19.24-5.19 4.55-15.9 20.4-22.44 20.84-3.28 3.42-18.77 19.97-20.3 23.27-1.04 3.91-1.59 4.61-4.34 7.66-21.14 23.4-42.57 46.62-63.75 69.98-51.2 57.1-102.94 113.72-155.19 169.85-8.6 9.33-66.863 74.58-72.164 75.26-1.686 1.9-2.786 3.05-4.216 5.16.954 3.29-7.557 10.47-10.999 11.99-6.409 5-15.004 15.84-20.913 21.9-16.606 17.06-36.06 42.08-53.153 57.65 2.823-7.48 6.087-15.6 8.433-23.17-.635-10.73 73.96-227.63 82.899-254.61l119.873-366.45 25.47-77.16c2.29-6.95 13.26-36.52 10.1-40.85-10.51 1.02-315.195 182.21-342.732 197.79-13.337 7.54-61.038 39.58-80.078 46.43-7.087 2.99-42.233 24.81-49.876 29.59-28.519 17.84-58.95 34.57-87.209 52.3 7.122-13.66 18.49-33.94 24.459-47.4 15.293-26.93 30.311-57.09 44.751-84.58l81.38-154.76c1.232 2.31 2.442 4.46 3.439 6.88a6543 6543 0 0 0 52.753-97.54c9.889-18.49 21.548-39.09 30.669-57.79l-1.588-.88c-.363-2.24-2.14-5.67-3.135-7.9a8123 8123 0 0 0 68.824-131.825l26.957-52.053c4.339-8.476 16.515-28.913 15.299-37.365l-1.149-.701c-5.04 1.359-15.12 7.403-19.229 10.704-5.894 2.395-84.493 47.764-89.334 52.162.167.431.875 1.832.63 2.435-3.672 2.785-13.26 7.914-17.571 10.165-6.819 3.559-8.198 7.639-15.067 5.917a5581 5581 0 0 0-53.524 31.127c-3.965 2.31-19.993 11.149-22.766 13.372-1.098 2.643-1.029 3.682-3.561 4.87-12.47 5.856-31.104 21.531-44.111 22.739-19.158 10.855-49.874 27.538-67.383 39.122-4.53 2.346-13.821 7.278-17.563 10.271l.299 2.43c-30.855 19.55-68.491 40.38-100.35 59.1l-194.352 114.88-93.244 55.98c-4.289 2.59-35.297 21.7-38.349 22.83l-31.489 18.7c5.801-6.91 15.906-20.73 20.595-28.26 18.473-22.32 43.843-59.06 61.684-83.19l134.84-183.55 37.163-50.609c4.265-5.807 19.193-28.23 24.14-29.264 1.668-1.208 9.612-12.891 11.215-15.189-.711-5.694 6.864-14.117 11.312-16.918l1.481-.988c3.07-1.938 37.013-49.947 41.18-55.783-1.171-4.382-4.674-3.6-3.556-6.552 2.648-1.514 4.779 1.575 6.257 3.294l47.026-63.242c9.647-12.847 21.135-26.93 30.223-39.911.132-2.765.192-3.596 1.862-5.866 20.114-27.339 40.907-54.148 61.372-81.209L796.19 377.192l77.468-101.023c6.257-8.123 27.127-36.497 32.359-41.587 11.338-14.666 38.249-51.52 49.938-63.21-9.126 19.09-18.284 38.332-27.645 57.31-4.239 8.594-11.735 18.151-15.371 27.187-1.218 11.852-15.378 25.54-15.228 36.023.101 7.031-111.789 230.584-124.788 257.269-7.922 16.262-15.579 32.586-23.794 48.716-1.583 3.108-2.685 7.522-4.58 10.3-1.124 1.649-3.13 2.606-4.172 4.332-1.785 2.957-2.504 7.114-3.846 10.352-2.341 5.647-13.883 31.718-17.143 34.058-.867.623-2.103 1.098-3.087 1.52-3.274 5.878-17.241 31.095-18.629 36.309.36 2.837-.6 4.115.731 6.884 2.842-.541 371.037-264.005 410.667-292.104l179.44-126.145a5710 5710 0 0 1 92.87-63.938c11.85-8.137 38.91-27.862 50.61-32.851"/><path fill="#6e442f" d="M1158.09 1124.61c3.02 2.44 7.29 6.82 6.86 10.62-1.43 12.65-10.11 33.95-14.09 45.51l-24.47 72.1-80.29 237.8-85.764 252.96c-14.912 43.9-32.581 100.24-49.532 142.97L1095 1682.58l43.44-48.56c2.56-2.87 15.74-17.94 17.56-19.27 13.77-17.41 35.48-39.7 50.43-56.82 10.5-12.03 30.4-35.42 41.38-45.83l-1.87 5.23.76 1.27c3.15-.84 4.18-1.32 7.12-2.58 2.86-1.94 26.69-29.27 32.86-35.08-1.04 3.91-1.59 4.61-4.34 7.66-21.14 23.4-42.57 46.62-63.75 69.98-51.2 57.1-102.94 113.72-155.19 169.85-8.6 9.33-66.863 74.58-72.164 75.26-1.686 1.9-2.786 3.05-4.216 5.16.954 3.29-7.557 10.47-10.999 11.99-6.409 5-15.004 15.84-20.913 21.9-16.606 17.06-36.06 42.08-53.153 57.65 2.823-7.48 6.087-15.6 8.433-23.17-.635-10.73 73.96-227.63 82.899-254.61l119.873-366.45 25.47-77.16c2.29-6.95 13.26-36.52 10.1-40.85-10.51 1.02-315.195 182.21-342.732 197.79-13.337 7.54-61.038 39.58-80.078 46.43 3.444-2.99 20.306-12.84 24.798-15.55l56.794-34.11a11626 11626 0 0 1 234.698-137.81l66.2-38.15c12.19-6.99 28.17-16.72 40.53-22.69l1.97-.34.52-.82.73-1.14c2.21-3.47 3.74-3.5 5.93-7.15"/><path fill="#080202" d="M1148.94 1134.06c2.71 2.12 3.07 2.04 4.13 5.37-.17 4.85-12.56 40.69-14.85 47.61l-28.57 87.48-130.143 397.19a20690 20690 0 0 1-69.119 205.51c-.635-10.73 73.96-227.63 82.899-254.61l119.873-366.45 25.47-77.16c2.29-6.95 13.26-36.52 10.1-40.85-10.51 1.02-315.195 182.21-342.732 197.79-13.337 7.54-61.038 39.58-80.078 46.43 3.444-2.99 20.306-12.84 24.798-15.55l56.794-34.11a11626 11626 0 0 1 234.698-137.81l66.2-38.15c12.19-6.99 28.17-16.72 40.53-22.69"/><path fill="#080202" d="M1253.82 1516.02c2.86-1.94 26.69-29.27 32.86-35.08-1.04 3.91-1.59 4.61-4.34 7.66-21.14 23.4-42.57 46.62-63.75 69.98-51.2 57.1-102.94 113.72-155.19 169.85-8.6 9.33-66.863 74.58-72.164 75.26 53.834-62 114.444-122.6 169.114-184.66-2.59-1.1-2.75-1.92-4.35-4.28 13.77-17.41 35.48-39.7 50.43-56.82 10.5-12.03 30.4-35.42 41.38-45.83l-1.87 5.23.76 1.27c3.15-.84 4.18-1.32 7.12-2.58"/><path fill="#6f442f" d="M1156 1614.75c13.77-17.41 35.48-39.7 50.43-56.82 10.5-12.03 30.4-35.42 41.38-45.83l-1.87 5.23.76 1.27c3.15-.84 4.18-1.32 7.12-2.58-24.61 28.97-51.83 56.53-76.87 85.22-5.1 5.84-11.07 12.36-16.6 17.79-2.59-1.1-2.75-1.92-4.35-4.28"/><path fill="#080202" d="M976.021 1820.84c2.271-3.05 7.832-10.15 10.999-11.99.954 3.29-7.557 10.47-10.999 11.99"/><path fill="#5a3221" d="M1431.99 186.594c13.67-7.409 37.75-26.886 52.48-36.483-17.49 36.569-37.77 76.904-53.92 113.906-.15 4.105-1.64 6.583-3.34 10.367a15760 15760 0 0 1-119.53 252.482l-87.89 184.529-38.48 80.706c-3.38 7.174-15.66 36.201-19.96 40.886l-1.11-.916c2.97-6.334 5.89-12.691 8.75-19.071 4.64-8.67 20.21-41.48 23.89-50.68 4.43-7.131 12.56-25.426 15.89-33.298-9.88-6.449-1.91-1.241-6.11-7.604 21.75-46.914 48.36-101.359 72.04-147.075 1.3-3.747 3.63-7.823 5.35-11.455 11.65-24.547 24.42-48.643 36.11-73.151l114.05-233.389c13.21-27.497 34.99-69.721 45.71-96.631a22661 22661 0 0 0-193.48 136.76l-123.15 88.672c-19.64 14.148-41.61 31.171-61.36 44.364-4.84-2.921-2.11-.912-4.19-5.6 8.96-7.269 22.45-16.162 32.16-22.987l58.45-41.076 147.05-103.065c32.32-22.411 69.2-46.878 100.59-70.191"/><path fill="#6e442f" d="M1274.7 574.343c5.1-4.502 11.88-18.403 15.06-24.828l.65.043c-1.93 6.976-7.3 15.498-6.59 21.678-19.61 42.962-40.55 85.552-60.7 128.277-2.45 5.193-11.44 25.726-14.35 29.509-9.88-6.449-1.91-1.241-6.11-7.604 21.75-46.914 48.36-101.359 72.04-147.075"/><path fill="#080202" d="M1430.55 264.017c-.15 4.105-1.64 6.583-3.34 10.367a15760 15760 0 0 1-119.53 252.482l-87.89 184.529-38.48 80.706c-3.38 7.174-15.66 36.201-19.96 40.886l-1.11-.916c2.97-6.334 5.89-12.691 8.75-19.071 4.64-8.67 20.21-41.48 23.89-50.68 4.43-7.131 12.56-25.426 15.89-33.298 2.91-3.783 11.9-24.316 14.35-29.509 20.15-42.725 41.09-85.315 60.7-128.277 3.42-5.548 11.17-23.021 14.42-29.863l29.07-60.775z"/><path fill="#080202" d="M697.672 694.748c.36 2.837-.6 4.115.731 6.884 2.842-.541 371.037-264.005 410.667-292.104l179.44-126.145a5710 5710 0 0 1 92.87-63.938c11.85-8.137 38.91-27.862 50.61-32.851-31.39 23.313-68.27 47.78-100.59 70.191L1184.35 359.85l-58.45 41.076c-9.71 6.825-23.2 15.718-32.16 22.987 2.08 4.688-.65 2.679 4.19 5.6-14.87 11.707-32.57 23.485-48.04 34.739a344 344 0 0 0-6.5 4.597l-38.49 27.937c-4.13 2.98-16.719 12.683-20.464 14.741l-73.052 52.611c-11.284 8.079-27.11 20.176-38.577 27.109-16.515 13.263-39.109 28.39-56.661 40.97l-120.409 86.414.609-6.216-3.672-2.6.265-1.456c-1.071-3.314 3.079-10.268 4.733-13.611"/><path fill="#6e442f" d="M870.552 582.502c3.721 1.604 2.494.336 4.223 3.478l.357-.16-1.904-2.58c1.626.973 3.524 1.634 3.994 2.997-3.986 1.967-2.738.529-4.618 3.75l.203 1.26c-16.515 13.263-39.109 28.39-56.661 40.97l-120.409 86.414.609-6.216-3.672-2.6.265-1.456c15.864-8.687 54.475-37.541 70.877-49.47z"/><path fill="#6e442f" d="M977.746 506.214c4.189 1.484 3.865 1.569 6.69 5.313l-73.052 52.611c-11.284 8.079-27.11 20.176-38.577 27.109l-.203-1.26c1.88-3.221.632-1.783 4.618-3.75-.47-1.363-2.368-2.024-3.994-2.997l1.904 2.58-.357.16c-1.729-3.142-.502-1.874-4.223-3.478 11.461-9.007 27.245-19.495 39.559-28.213z"/><path fill="#6f442f" d="M1044.05 459.299c2.97 1.659 3.41 2.453 5.84 4.953a344 344 0 0 0-6.5 4.597l-38.49 27.937c-4.13 2.98-16.719 12.683-20.464 14.741-2.825-3.744-2.501-3.829-6.69-5.313 2.135-2.052 7.767-5.648 10.481-7.523 18.713-12.933 36.923-26.751 55.823-39.392"/><path fill="#6e442f" d="M1093.74 423.913c2.08 4.688-.65 2.679 4.19 5.6-14.87 11.707-32.57 23.485-48.04 34.739-2.43-2.5-2.87-3.294-5.84-4.953 2.18-2.001 4.9-3.68 7.33-5.407l8.76-6.331c10.89-7.707 22.53-16.293 33.6-23.648"/><path fill="#6e442f" d="M596.896 984.598 824.36 849.061l64.863-38.944c11.667-7.038 23.31-14.259 35.197-20.917 4.754-2.25 7.282-4.46 12.698-3.334 5.876 1.222 11.529 8.778 9.059 14.498-10.683 24.739-25.19 49.943-37.805 73.787a13974 13974 0 0 1-82.086 154.919l-1.588-.88c-.363-2.24-2.14-5.67-3.135-7.9a8123 8123 0 0 0 68.824-131.825l26.957-52.053c4.339-8.476 16.515-28.913 15.299-37.365l-1.149-.701c-5.04 1.359-15.12 7.403-19.229 10.704-5.894 2.395-84.493 47.764-89.334 52.162.167.431.875 1.832.63 2.435-3.672 2.785-13.26 7.914-17.571 10.165-6.819 3.559-8.198 7.639-15.067 5.917a5581 5581 0 0 0-53.524 31.127c-3.965 2.31-19.993 11.149-22.766 13.372-1.098 2.643-1.029 3.682-3.561 4.87-12.47 5.856-31.104 21.531-44.111 22.739-19.158 10.855-49.874 27.538-67.383 39.122-1.003-3.322-2.556-3.736-2.682-6.361"/><path fill="#080202" d="M666.961 951.837c15.015-8.585 32.751-19.834 47.672-27.609-1.098 2.643-1.029 3.682-3.561 4.87-12.47 5.856-31.104 21.531-44.111 22.739"/><path fill="#080202" d="M822.931 861.212c.167.431.875 1.832.63 2.435-3.672 2.785-13.26 7.914-17.571 10.165-6.819 3.559-8.198 7.639-15.067 5.917 10.036-5.945 21.808-13.044 32.008-18.517"/><path fill="#6e442f" d="M1561.62 1161.61c1.68 1.78 1.14 1.23 3.4 2.44 4.17-1.78 4.58-4.21 8.59-8.21l2.05.48c-17.27 20.87-36.74 42.24-54.73 62.71-38.14 43.4-76.55 86.55-115.23 129.47-19.47 21.64-42.71 45.72-60.92 67.65l-.1 1.44c-.11 3.31-11.98 16.36-15.26 19.24-5.19 4.55-15.9 20.4-22.44 20.84-3.28 3.42-18.77 19.97-20.3 23.27-6.17 5.81-30 33.14-32.86 35.08-2.94 1.26-3.97 1.74-7.12 2.58l-.76-1.27 1.87-5.23c1.15-1.94 20.59-23.47 23.33-26.55l61.2-68.54 227.61-255.8z"/><path fill="#080202" d="m1344.78 1416.15-.1 1.44c-.11 3.31-11.98 16.36-15.26 19.24-5.19 4.55-15.9 20.4-22.44 20.84 11.58-13.14 25.74-28.74 37.8-41.52"/><path fill="#6f442f" d="M646.295 576.029c12.774-7.254 37.204-52.931 48.169-55.525-3.804 5.956-9.591 9.753-10.155 16.629-3.036 5.974-31.201 42.627-36.571 49.805L564.156 698.87 452.789 847.764l-36.987 49.476c-3.3 4.385-13.902 18.977-17.403 22.691-7.017 2.738-11.274 13.624-20.657 21.77l-.783-.363c4.724-9.16 15.571-20.267 17.595-29.176 2.681-3.989 5.597-7.966 8.398-11.885 1.668-1.208 9.612-12.891 11.215-15.189-.711-5.694 6.864-14.117 11.312-16.918l1.481-.988c3.07-1.938 37.013-49.947 41.18-55.783-1.171-4.382-4.674-3.6-3.556-6.552 2.648-1.514 4.779 1.575 6.257 3.294l47.026-63.242c9.647-12.847 21.135-26.93 30.223-39.911 33.104-41.287 64.995-86.978 98.205-128.959"/><path fill="#080202" d="M414.167 885.088c-.711-5.694 6.864-14.117 11.312-16.918l1.481-.988c-2.246 3.771-4.932 7.235-7.489 10.795a418 418 0 0 1-5.304 7.111"/><path fill="#080202" d="M468.14 811.399c-1.171-4.382-4.674-3.6-3.556-6.552 2.648-1.514 4.779 1.575 6.257 3.294-1.033 1.496-1.419 1.918-2.701 3.258"/><path fill="#6e442f" d="M739.425 1177.52c1.232 2.31 2.442 4.46 3.439 6.88-38.465 77.04-83.904 152.65-123.033 229.54-7.071 13.9-15.268 28.89-23.209 42.34l283.807-171.39c34.621-21.45 69.36-42.7 104.216-63.76 10.256-6.24 38.845-24.68 47.655-28.81 3.68 3.26 4.83 3.52 9.91 2.58a11626 11626 0 0 0-234.698 137.81l-56.794 34.11c-4.492 2.71-21.354 12.56-24.798 15.55-7.087 2.99-42.233 24.81-49.876 29.59-28.519 17.84-58.95 34.57-87.209 52.3 7.122-13.66 18.49-33.94 24.459-47.4 15.293-26.93 30.311-57.09 44.751-84.58z"/><path fill="#6e442f" d="m1341.64 1045.11 4.28-1.62 1.71.8c.08 3.5-.2 4.54-.83 7.89a8991 8991 0 0 1-41.89 101.08c-6.24 14.94-12.87 29.89-18.17 45.17-1.5 4.35 1.58 8.81 5.29 10.8 9.13 0 101.55-72.87 115.41-81.13 2.14-1.28 21.96-15.97 23.75-17.67 7.12-5.22 14.31-10.33 21.58-15.33l1.01 2.53c-2.07 1.6-1.21 1.04-4.11 1.49.46 2.92-.14 1.7 1.74 3.85 2.18-.34 3.32-.53 5.45-1.1l.51.51c-10.32 8.34-22.85 16.71-33.75 24.69a6336 6336 0 0 1-73.15 53.15c-18.3 13.19-36.28 27.1-55.02 39.56-10.68 6.31-23.64-9.94-20.35-19.37 4.15-11.87 10.94-23.12 15.57-34.92 15.84-40.35 35.29-80.06 50.97-120.38"/><path fill="#3c241b" d="M1401.42 904.687c.62-2.598 8.27-19.747 9.71-23.059 6.84-15.63 13.56-31.311 20.17-47.042q23.22-55.801 47.25-111.254c6.17-14.226 8.34-23.755 16.14-38.513l1.62.324a19817 19817 0 0 1-144.37 361.137l-43.69 105.39c-5.41 12.99-11.12 25.8-16.51 38.78-2.16 5.2-4.87 12.8.72 16.37 5.64-2.07 22.07-14.6 27.96-18.88l71.37-51.76c12.07-8.76 25.44-19.68 38.52-26.42l.88.67c-1.79 1.7-21.61 16.39-23.75 17.67-13.86 8.26-106.28 81.13-115.41 81.13-3.71-1.99-6.79-6.45-5.29-10.8 5.3-15.28 11.93-30.23 18.17-45.17 14.17-33.61 28.13-67.3 41.89-101.08.63-3.35.91-4.39.83-7.89l-1.71-.8-4.28 1.62c20.23-45.746 40.48-94.182 59.78-140.423"/><path fill="#6f442f" d="M1401.42 904.687c.61 4.144.15 4.781-1.12 8.939 2.29-1.581 3.12-3.524 4.55-5.933.08 3.912-52.71 132.757-58.05 144.487.63-3.35.91-4.39.83-7.89l-1.71-.8-4.28 1.62c20.23-45.746 40.48-94.182 59.78-140.423"/><path fill="#5a3221" d="m1500.3 1059.31-.59-2.05c6.68-2.49 56.43-40.51 66.45-47.86l161.59-117.003c34.32-24.806 68.78-49.417 103.39-73.831 13.7-9.789 41.2-30.804 54.61-38.228-4.14 6.739-27.7 21.49-35.84 27.442l-37.26 26.854c-2.51 1.848-5.47 3.569-7.67 5.706l1.1.271c3.12.679-.14 4.209-1.08 6.129l-104.9 77.147c-15.93 11.696-38.06 29.065-53.99 39.499-.25-.866-.27-1.41-1.09-1.792-1.65.358-2.74 3.058-3.63 2.816-1.25-.338-2.47-2.197-4.42-3.111-2.21 1.586-4.34 3.006-6.57 4.616a1577 1577 0 0 1-30.12 21.649c-3.98 2.917-8.22 5.589-11.9 8.88-21.46 13.766-44.3 32.796-65.63 47.346-3.71 2.53-19.38 14.42-22.45 15.52"/><path fill="#080202" d="m1500.3 1059.31-.59-2.05c6.68-2.49 56.43-40.51 66.45-47.86l161.59-117.003c34.32-24.806 68.78-49.417 103.39-73.831 13.7-9.789 41.2-30.804 54.61-38.228-4.14 6.739-27.7 21.49-35.84 27.442l-37.26 26.854c-2.51 1.848-5.47 3.569-7.67 5.706-43.34 29.711-85.44 61.876-128.43 92.14-13 9.15-27.21 18.885-39.58 28.819-2.21 1.586-4.34 3.006-6.57 4.616a1577 1577 0 0 1-30.12 21.649c-3.98 2.917-8.22 5.589-11.9 8.88-21.46 13.766-44.3 32.796-65.63 47.346-3.71 2.53-19.38 14.42-22.45 15.52"/><path fill="#3c241b" d="M912.939 255.869c-1.218 11.852-15.378 25.54-15.228 36.023.101 7.031-111.789 230.584-124.788 257.269-7.922 16.262-15.579 32.586-23.794 48.716-1.583 3.108-2.685 7.522-4.58 10.3-1.124 1.649-3.13 2.606-4.172 4.332-1.785 2.957-2.504 7.114-3.846 10.352-2.341 5.647-13.883 31.718-17.143 34.058-.867.623-2.103 1.098-3.087 1.52 4.623-11.644 14.388-29.119 20.249-41.234 15.059-31.129 31.705-62.188 46.486-93.422-2.455-.735-3.677-2.49-5.05-2.497l-1.366-.061.765-1.558 2.304-4.773c10.676-21.662 22.303-43.064 32.953-64.663 1.823-5.647 24.362-48.029 28.144-55.369a10596 10596 0 0 1 72.153-138.993"/><path fill="#6e442f" d="M812.642 450.231c2.524 4.548-.847 3.873-1.369 7.203.688.223 3.107 1.801 2.926 2.215-9.368 21.45-20.852 43.04-31.163 64.134-2.455-.735-3.677-2.49-5.05-2.497l-1.366-.061.765-1.558 2.304-4.773c10.676-21.662 22.303-43.064 32.953-64.663"/><path fill="#3c241b" d="M1742.7 956.577c6.27-8.405 19.26-22.082 26.64-30.377l48.64-54.838 50.72-56.868c9.48-10.609 22.32-25.714 32.68-34.983l.99.148-1.5 3.262c-4.12 3.216-13.81 17.341-17.6 22.28a641 641 0 0 1-18.16 22.181c-41.85 49.024-85.04 98.819-127.92 146.814-11.28 12.623-63.1 76.264-73.03 81.584 8.36-10.83 18.54-20.96 27.13-31.98 1.75-2.61 4.4-8.89 7.33-11.14 1.07-.81 5.22-4.61 1.83-5.02-3.79 2.13-3.48 3.95-9.06 6.33 5.58-7.11 11.75-12.96 17.51-19.52a1938 1938 0 0 1 33.8-37.873"/><path fill="#5a3221" d="m1742.7 956.577 1.52.889c4.13 2.329 1.74 3.82-1.05 6.681-17.35 17.812-34.14 43.003-51.88 59.653 1.75-2.61 4.4-8.89 7.33-11.14 1.07-.81 5.22-4.61 1.83-5.02-3.79 2.13-3.48 3.95-9.06 6.33 5.58-7.11 11.75-12.96 17.51-19.52a1938 1938 0 0 1 33.8-37.873"/><path fill="#6e442f" d="M159.799 1249.48c30.424-20.43 63.247-40.17 94.81-58.97 102.27-60.89 203.592-124.76 306.586-184.35-.422 3.66-.995 3.83 2.002 5.9-22.583 13.97-47.024 27.63-70.042 41.14l-127.113 75.02-114.184 67.88c-28.149 16.98-56.299 34.12-84.597 50.86-2.828 1.67-4.207 2.71-7.462 2.52"/><path fill="#6e442f" d="M1157.46 814.313c1.55 2.302.44 1.911 1.09 4.042-.17-.549 6.2 2.568 6.49-.717.21-2.32.98-5.428 3.95-4.638-2.86 6.38-5.78 12.737-8.75 19.071-3.15 5.703-10.34 20.683-12.61 26.898-5.08 9.947-10.47 22.836-14.32 33.221 11.8-5.341 25.19-14.115 36.45-21.077l45.97-28.283c4.7.793 3.93-.027 8.37-1.328.28-.642.4-2.248.81-2.309 2.9-.427 13.15-9.455 15.53-5.704-1.72 2.87-17.4 9.232-20.74 16.087-11.55 10.305-65.32 41.668-81.58 52.702-2.23 1.51-8.1 1.067-10.9-.419a10.25 10.25 0 0 1-4.9-5.784c-2.8-8.162 8.2-26.627 12.08-34.561z"/><defs><linearGradient id="a" x1="707.84" x2="756.597" y1="601.744" y2="644.111" gradientUnits="userSpaceOnUse"><stop offset="0" stop-color="#6a3621"/><stop offset="1" stop-color="#7a5a43"/></linearGradient></defs><path fill="url(#a)" d="m776.62 521.225 1.366.061c1.373.007 2.595 1.762 5.05 2.497-14.781 31.234-31.427 62.293-46.486 93.422-5.861 12.115-15.626 29.59-20.249 41.234-3.274 5.878-17.241 31.095-18.629 36.309-1.654 3.343-5.804 10.297-4.733 13.611l-.265 1.456 3.672 2.6-.609 6.216c-4.653 3.614-7.849 5.739-14.068 4.644-2.177-.383-3.444-2.297-4.045-4.277-.757-2.494.129-5.121 1.213-7.371 11.55-21.779 22.74-43.738 33.995-65.67z"/><path fill="#6e442f" d="M1691.39 1013.97c5.58-2.38 5.27-4.2 9.06-6.33 3.39.41-.76 4.21-1.83 5.02-2.93 2.25-5.58 8.53-7.33 11.14-8.59 11.02-18.77 21.15-27.13 31.98l-.45.72c-.31 5.06-6.42 12.6-11.4 13.32l-.22.64c-1.14 5.97-9.64 15.77-14.83 16.25-9.81 10.72-53.87 64.58-61.6 69.61l-2.05-.48c-4.01 4-4.42 6.43-8.59 8.21-2.26-1.21-1.72-.66-3.4-2.44l-1.67-.4c5.99-7.08 20.66-24.41 26.7-30.05 2.49-3.71 7.58-9.06 10.74-12.5 31.69-34.45 61.96-70.62 94-104.69"/><path fill="#6f442f" d="M1586.65 1131.16c1.49 3.26-3.67 8.87-5.99 10.11-7.25 3.88-2.38 11.83-9.05 11.19-1.37-.13-7.41 7.29-9.99 9.15l-1.67-.4c5.99-7.08 20.66-24.41 26.7-30.05"/><path fill="#080202" d="M1637.26 1086.71c3.35-4.02 11.13-12.96 14.83-16.25-1.14 5.97-9.64 15.77-14.83 16.25"/><path fill="#080202" d="M1663.71 1056.5c-.31 5.06-6.42 12.6-11.4 13.32 3.38-4.55 7.51-9.17 11.4-13.32"/><path fill="#5a3221" d="M646.295 576.029c8.312-12.601 25.334-33.538 34.911-45.866l60.535-78.395L850.26 310.72c6.06-7.837 36.31-50.193 42.32-52.466-47.508 67.06-101.485 136.948-150.927 202.856l-37.5 50.675c-3.486 4.705-15.979 21.868-19.844 25.348.564-6.876 6.351-10.673 10.155-16.629-10.965 2.594-35.395 48.271-48.169 55.525"/><path fill="#6f442f" d="M1588.38 996.444c6.92.126 20.82-14.219 24.06-11.709.2.736-7.28 6.778-7.96 7.22-5.87 3.816-5.78.516-7.51 7.839l-92.12 68.096c-12.19 9.02-35.22 27.05-47.48 34.49l-.51-.51c-2.13.57-3.27.76-5.45 1.1-1.88-2.15-1.28-.93-1.74-3.85 2.9-.45 2.04.11 4.11-1.49l-1.01-2.53c2.71-3.61 40.4-29.44 47.53-35.79 3.07-1.1 18.74-12.99 22.45-15.52 21.33-14.55 44.17-33.58 65.63-47.346"/><path fill="#6e442f" d="M394.554 912.162c-2.024 8.909-12.871 20.016-17.595 29.176l.783.363c9.383-8.146 13.64-19.032 20.657-21.77-27.094 37.811-56.919 75.351-84.437 113.069-5.144 7.05-32.428 44.47-36.251 48.13l-3.897 1.8-.969-.86 1.797-6.1c1.879-4.53 15.894-22.58 19.932-27.82 34.183-44.28 65.534-92.105 99.98-135.988"/><path fill="#6f442f" d="M1035.07 1190.14c4.55-2.02 18.29-10.79 23.06-13.69l53.69-32.66c10.34-6.31 21.16-13.28 31.97-18.74 5.49-2.76 8.72-2.43 14.3-.44-2.19 3.65-3.72 3.68-5.93 7.15l-.73 1.14-.52.82-1.97.34c-12.36 5.97-28.34 15.7-40.53 22.69l-66.2 38.15c-5.08.94-6.23.68-9.91-2.58z"/><path fill="#080202" d="M1147.63 858.969c2.04 3.74-4.08 11.744-5.21 19.024 1.06 3.475.06 2.143 3.07 4.148 13.56-5.843 42.42-25.555 57.45-34.645 66.21-40.045 131.98-81.44 198.26-121.402 8.74-5.274 54.86-34.644 62.24-36.687-2.68 6.604-98.71 58.44-113.77 71.221-5.81 3.127-20.33 11.457-25.07 15.172-11.33 8.872-38.28 20.86-47.78 29.79-13.73 7.018-47.35 28.304-61.09 37.24l-45.97 28.283c-11.26 6.962-24.65 15.736-36.45 21.077 3.85-10.385 9.24-23.274 14.32-33.221"/><path fill="#5a3221" d="M149.565 1246.59c2.102-4.68 12.4-18.08 15.995-22.98l34.192-46.34 48.464-66.11c6.971-9.49 18.94-26.76 26.426-35.19l-1.797 6.1.969.86 3.897-1.8c-11.753 17.9-117.789 160.07-128.146 165.46"/><path fill="#6e442f" d="M1183.23 761.084c4.14-2.926 5.76-1.736 9.65 1.236-3.68 9.2-19.25 42.01-23.89 50.68-2.97-.79-3.74 2.318-3.95 4.638-.29 3.285-6.66.168-6.49.717-.65-2.131.46-1.74-1.09-4.042 2.65-7.964 20.01-41.147 24.39-50.324z"/><path fill="#3c241b" d="M1463.44 689.407c2.33-.757 22.68-10.747 21.22-10.72-7.51 6.748-21.18 14.999-30.03 20.678l-43.95 28.156c-10.16 6.503-44.54 29.618-53.84 34.326l-.62-.048c-3.3-.229-3.3-.173-6.55-1.171 15.06-12.781 111.09-64.617 113.77-71.221"/><path fill="#6e442f" d="M1349.67 760.628c3.25.998 3.25.942 6.55 1.171l.62.048a2521 2521 0 0 1-40.82 25.966c-7.35 4.656-22.55 15.285-29.84 18.916-3.81-2.768-8.39 5.648-12.79 6.106-.6.063-1.54.604-1.92 1.145-2.54 3.858-9.06.158-.86-2.48 2.26-.73 7.5-2.66 6.21-5.91 9.5-8.93 36.45-20.918 47.78-29.79 4.74-3.715 19.26-12.045 25.07-15.172"/><path fill="#3c241b" d="m1887.17 779.425 1.74-.397c1.12-.303 2.72-.996 3.89-.797 1.55 2.133-13.53 12.563-15.54 14.383-3.46 3.127-7.9 6.05-11.57 9.04a374 374 0 0 1-11.87 9.124c-13.59 10.151-27.29 19.971-40.86 30.077l-7.96 5.885c.94-1.92 4.2-5.45 1.08-6.129l-1.1-.271c2.2-2.137 5.16-3.858 7.67-5.706l37.26-26.854c8.14-5.952 31.7-20.703 35.84-27.442.63-.643.57-.675 1.42-.913"/><path fill="#080202" d="M1885.75 780.338c.63-.643.57-.675 1.42-.913-.03.668-.03 1.131-.23 1.718-.5-.043-.76-.436-1.19-.805"/><path fill="#6f442f" d="M1276.82 805.59c1.29 3.25-3.95 5.18-6.21 5.91-8.2 2.638-1.68 6.338.86 2.48.38-.541 1.32-1.082 1.92-1.145 4.4-.458 8.98-8.874 12.79-6.106-.95 1.355-61.75 40.204-66.48 42.847 3.34-6.855 19.02-13.217 20.74-16.087-2.38-3.751-12.63 5.277-15.53 5.704-.41.061-.53 1.667-.81 2.309-4.44 1.301-3.67 2.121-8.37 1.328 13.74-8.936 47.36-30.222 61.09-37.24"/><path fill="#6e442f" d="M1636.97 961.299c1.95.914 3.17 2.773 4.42 3.111.89.242 1.98-2.458 3.63-2.816.82.382.84.926 1.09 1.792-6.11 5.372-14.49 10.639-21.08 15.597-9.3 6.99-18.56 14.132-28.06 20.811 1.73-7.323 1.64-4.023 7.51-7.839.68-.442 8.16-6.484 7.96-7.22-3.24-2.51-17.14 11.835-24.06 11.709 3.68-3.291 7.92-5.963 11.9-8.88a1577 1577 0 0 0 30.12-21.649c2.23-1.61 4.36-3.03 6.57-4.616"/><path fill="#6f442f" d="M1202.66 721.418c4.2 6.363-3.77 1.155 6.11 7.604-3.33 7.872-11.46 26.167-15.89 33.298-3.89-2.972-5.51-4.162-9.65-1.236 6.03-12.473 13.01-27.629 19.43-39.666"/><path fill="#6e442f" d="M561.195 1006.16c11.356-6.995 24.207-14.94 35.701-21.562.126 2.625 1.679 3.039 2.682 6.361-4.53 2.346-13.821 7.278-17.563 10.271-5.992 3.15-12.943 7.31-18.818 10.83-2.997-2.07-2.424-2.24-2.002-5.9"/><path fill="#080202" d="M912.265 809.05c4.109-3.301 14.189-9.345 19.229-10.704l1.149.701c1.216 8.452-10.96 28.889-15.299 37.365l-26.957 52.053a8123 8123 0 0 1-68.824 131.825c.995 2.23 2.772 5.66 3.135 7.9l1.588.88c-9.121 18.7-20.78 39.3-30.669 57.79a6543 6543 0 0 1-52.753 97.54c-.997-2.42-2.207-4.57-3.439-6.88l-81.38 154.76c-14.44 27.49-29.458 57.65-44.751 84.58l-.615-1.16c25.887-54.18 58.186-112.48 86.207-166.03l143.137-274.66a8662 8662 0 0 0 54.655-104.472c11.481-21.891 25.84-47.421 34.806-70.172-5.447 2.917-13.769 9.392-19.219 8.684"/><path fill="#6f442f" d="M821.563 1020.29c.995 2.23 2.772 5.66 3.135 7.9l1.588.88c-9.121 18.7-20.78 39.3-30.669 57.79a6543 6543 0 0 1-52.753 97.54c-.997-2.42-2.207-4.57-3.439-6.88a15467 15467 0 0 0 82.138-157.23"/><path fill="#080202" d="M1595.55 1140.81c.99-.66 2.32-.46 3.06.47s.64 2.28-.22 3.09a2.286 2.286 0 0 1-3.83-1.39c-.1-.85.28-1.69.99-2.17"/></svg>