<svg xmlns="http://www.w3.org/2000/svg" width="2048" height="2048" viewBox="0 0 2048 2048"><path fill="#252a2e" d="M0 0h2048v2048H0z"/><path d="M559.438 1048.52c-10.708-6.74-21.651-16.31-31.717-24.09-144.882-111.936-194.7-304.978-143.914-478.088 50.8-173.157 203.363-287.291 372.226-333.17 3.055-.83 9.693 1.201 12.774 2.103 22.533-1.975 29.529 30.135 16.686 40.495-17.806 14.365-40.661 25.284-58.597 39.908-89.573 65.514-153.144 162.774-165.609 275.362a314.64 314.64 0 0 0 66.499 230.987c8.338 10.381 26.806 30.089 37.938 38.44 5.043-7.715 30.66-32.587 38.308-39.382 92.566-82.244 195.914-126.007 320.228-119.457 14.79-6.758 112.71 11.713 133.79 17.464 9.95 3.017 21.16 6.145 30.89 9.521 79.2 26.944 139.62 65.94 193.84 129.637 53.05-45.003 89.13-117.5 99.4-185.854 20.39-135.661-43.47-260.585-144.71-347.285a467 467 0 0 0-28.68-22.663c-12.5-9.027-35.2-21.945-44.85-33.72-6.74-8.229-2.16-24.866 6.95-31.086 11.09-7.579 19.96-5.12 32.15-1.153 7.31-.001 53.3 17.494 59.95 21.715 131.77 57.859 238.8 148.385 291.54 285.224 69.92 181.381 4.32 403.128-155.01 515.282 6.34 67.25-4.53 140.03-40.67 198.17 21.53.05 43.13-.01 64.65.31 22.67.34 35.05 5.84 37.99 29.46-3.91 11.52-40.08 60.98-49 74.04-29.61 43.7-59.5 87.2-89.69 130.5-13.37 19.19-26.71 38.41-40.32 57.42-4.65 6.5-8.99 9.39-17.32 9.24-6.77 8.43-22.09 9.27-29.63 2.31-15.04-13.89-30.67-32.4-43.54-48.28-5.91 4.45-10.34 7.67-16.62 11.54.06 59.04 1.42 124.83-.24 183.45-8.57 11.69-19.08 23.54-28.4 34.84-16.5 20.34-33.21 40.51-50.13 60.5-4.85 5.76-27.33 31.72-29.81 36.79-4.15 5.67-11.28 13.51-18.41 13.68-20.88.5-102.91 3.81-118.12.19-3.67-.56-19.12.47-24.45.49-33.795.16-68.61 3.34-102.214 1.12-10.38-.68-28.526-23.21-35.637-30.95a3064 3064 0 0 1-48.285-53.94c-10.469-11.89-39.892-44.01-46.924-55.16 1.044-48.63-.435-98.67.213-147.41.268-20.17-.635-41.19.293-61.24-1.719 1.95-2.916 3.19-4.787 5l-32.818 31.88c-7.348 7.09-16.159 18.57-26.972 19.01-8.776 5.06-28.066 11.4-36.247 2.14-13.559-15.35-25.378-34.93-36.878-52.12l-63.822-95.62-53.159-79.17c-9.449-14.06-18.957-28.08-28.186-42.27-6.709-9.69-4.168-25.51 3.289-34.17 9.985-11.61 27.137-11.05 40.988-11.48 18.488-.58 36.922-1.15 55.374-1.69-33.958-61.84-36.27-111.11-30.6-178.77"/><path fill="#86532c" d="M1303.04 216.489c7.31-.001 53.3 17.494 59.95 21.715 131.77 57.859 238.8 148.385 291.54 285.224 69.92 181.381 4.32 403.128-155.01 515.282 6.34 67.25-4.53 140.03-40.67 198.17 21.53.05 43.13-.01 64.65.31 22.67.34 35.05 5.84 37.99 29.46-3.91 11.52-40.08 60.98-49 74.04-29.61 43.7-59.5 87.2-89.69 130.5-13.37 19.19-26.71 38.41-40.32 57.42-4.65 6.5-8.99 9.39-17.32 9.24l124.16-180.55c17.44-25.59 35.97-50.84 53.09-76.64 2.07-3.67 6.25-9.87 6.18-14.1-.43-26.07-30.88-22.79-48.85-23.29-18.22-.56-36.43-.97-54.66-1.23 34.8-58.8 52.26-134.97 42.65-202.83 56.02-37.81 109.48-107.215 138.37-167.763a442.6 442.6 0 0 0 19.4-338.603c-48.44-136.46-158.61-230.723-286.47-291.384-19.18-9.013-36.4-16.847-55.99-24.971"/><path fill="#5a3521" d="M768.807 215.275c22.533-1.975 29.529 30.135 16.686 40.495-17.806 14.365-40.661 25.284-58.597 39.908-89.573 65.514-153.144 162.774-165.609 275.362a314.64 314.64 0 0 0 66.499 230.987c8.338 10.381 26.806 30.089 37.938 38.44-.634.632-1.64 1.358-2.37 1.933-1.692-.558-2.833-1.055-4.235-2.21-101.886-83.919-130.453-227.365-87.094-349.359 24.86-69.944 72.006-136.097 130.894-183.121a579 579 0 0 1 28.863-21.799c14.19-9.868 35.965-21.36 47.741-33.009 2.905-2.874 5.384-13.516 4.177-18.368-2.538-10.204-7.062-13.592-14.893-19.259"/><path fill="#5a3521" d="M1263.86 1505.45c8.03-4.62 16.19-12.74 24.35-15.95 1.02-.41 2.51 1.34 3.78 2.38-5.91 4.45-10.34 7.67-16.62 11.54.06 59.04 1.42 124.83-.24 183.45-8.57 11.69-19.08 23.54-28.4 34.84-16.5 20.34-33.21 40.51-50.13 60.5-4.85 5.76-27.33 31.72-29.81 36.79-6.51 4.82-12.12 11.4-19.03 12.02l-1.91-1.17c15.19-17.44 30.89-37.24 45.72-55.21 24.11-28.82 47.94-57.89 71.47-87.19 1.28-22.54.55-46.49.55-69.2z"/><path fill="#86532c" d="M1158.05 699.092c9.95 3.017 21.16 6.145 30.89 9.521 79.2 26.944 139.62 65.94 193.84 129.637l-8.42 7.579c-39.81-58.523-122.34-109.282-188.48-132.357-10.81-3.815-19.12-6.566-30.23-9.585z"/><path fill="#5a3521" d="M1024.26 681.628c14.79-6.758 112.71 11.713 133.79 17.464l-2.4 4.795c-39.91-11.776-89.7-20.912-131.39-22.259"/><path fill="#5a3521" d="M708.679 1541.67c21.064-18.8 41.116-39.16 61.846-58.38 1.209-1.12 2.604 2.2 2.731 2.49-1.719 1.95-2.916 3.19-4.787 5l-32.818 31.88c-7.348 7.09-16.159 18.57-26.972 19.01"/><path fill="#3a2a27" d="M1166.79 1819c-4.15 5.67-11.28 13.51-18.41 13.68-20.88.5-102.91 3.81-118.12.19 25.29-2.62 58.54-.32 84.53-1.78 8.91-.5 22.85.59 31.06-1.24l1.91 1.17c6.91-.62 12.52-7.2 19.03-12.02"/><defs><linearGradient id="a" x1="1428.216" x2="717.022" y1="1234.094" y2="1273.849" gradientUnits="userSpaceOnUse"><stop offset="0" stop-color="#4c5b63"/><stop offset="1" stop-color="#f7f8f6"/></linearGradient></defs><path fill="url(#a)" d="M899.286 730.471c4.403-2.207 23.441-6.759 28.459-7.814 49.222-10.348 98.995-9.139 147.055 5.844 82.55 20.9 149.12 86.347 191.62 157.87a460 460 0 0 1 17.7 32.851c-12.73 8.462-28.77 18.495-40.89 27.422 14.75-4.805 32.81-11.952 46.74-16.047l.33 1.307c-4.61 1.873-24.43 8.776-24.16 14.049.72 14.558-4.49 110.107.6 115.997-.92 5.67-4.43 5.87-1.84 11.95 1.74 4.08 1.67 10.78 2.18 15.2.27 6.98 1.62 13.41 1.41 20.39 7.01-3.19 13.2-6.57 19.98-10.24l1.37 1.46c-16 8.8-32.7 16.71-48.99 25.01 19.7-3.77 41.6-5.35 61.66-7.97 33.66-4.39 61.6-9.79 93.53-21.21-.27 61.99-15.41 103.76-37.08 161.07 24.22 3.65 48.55 6.53 72.95 8.63-14.74 25.76-34.7 55.3-50.87 80.5l-74.82 117.06-17.44-18.34c-39.09 26.74-76.1 58.9-114.8 86.44-6.9 4.91-14.4 10.45-21 15.71 2.69 6.97 4.58 11.04 5.48 18.43l.24 1.92c.99 8.26.64 24.07.64 32.95l-.09 61.03-60.17 75.03c-8.44 10.59-26.95 34.73-35.8 43.79-5.28 7.02-9.8 12.51-15.57 19.14l-135.252-.08c-4.55-5.01-12.549-13.31-16.284-18.51-4.418-3.09-36.234-39.43-40.019-44.83-3.214-2.35-21.372-23.53-24.42-27.44-3.987-3.46-13.983-14.58-17.125-18.91-2.627-2.62-3.501-3.65-5.783-6.61-3.995-8.48 3.515-141.82-.709-165.09 7.836 6.57 22.242 17.59 28.854 24.33 4.406 3.43 23.337 18.52 26.425 22.17 8.758 6.84 15.423 12.74 23.619 20.15 2.14 7.02 4.713 14.84 6.425 21.89.113-.23.558-.98.826-2.14 3.038-13.25 7.299-27.85 8.464-41.3-.604-1.15-1.208-2.3-1.813-3.44-4.251-2.36-40.123-32.3-43.221-36.49-7.065-5.08-39.552-33.34-45.822-39.81-7.778-5.46-31.673-26.6-38.764-33.42-4.366-2.96-5.967-4.67-9.69-8.29-9.651 9.6-21.088 21.53-31.104 30.38-5.3 6.6-32.638 31.44-40.652 39.32-9.166-13.68-19.865-28.82-28.315-42.77-5.455-5.18-50.143-73.36-54.737-82.13-9.732-12.09-26.899-39.68-36.019-53.46l-1.666-2.25c-3.225-5.07-6.509-10.46-9.975-15.35-.408-.55-.815-1.11-1.223-1.66l-33.268-49.94c12.951-.53 31.807-2.26 43.808-2.12l1.31.15 2.091-.48c10.407.15 25.298-.94 35.819-1.6 14.554-.44 29.818-1.47 44.414-2.24-14.433-18.69-25.304-34.59-36.36-55.35l-3.546-7.28-3.843-9.05c-1.221-2.9-1.917-5.03-2.861-7.99l-.468-1.07c-1.646-3.72-2.783-6.56-3.75-10.58-11.257-30.85-11.194-62.91-9.968-95.09 1.691 1.13 7.082 4.48 8.179 5.61q2.783 1.545 5.612 3l3.176 2 3.932 2 3.3 1.81c12.044 6.03 21.843 9.98 33.826 15.44 18.31 5.7 35.837 11.2 54.786 14.47 3.485.6 18.614 2.72 20.922 3.83 12.464 1 25.587 3.16 37.846 3.46 5.145.8 7.328.86 12.557.84l.492-.81-3.982-1.55-9.949-4.05c-5.641-1.91-18.769-7.41-23.993-10.03-6.862-2.18-16.756-6.49-23.102-9.99-20.963-7.28-65.017-32.03-83.773-42.88l-26.038-15.93 1.68-5.27c2.231-7.81.499-43.107.742-53.292 1.088-45.544-.671-91.734.146-137.205l2.733-.715c8.945 9.272 15.277 14.663 24.847 23.019 31.238 24.267 46.831 33.491 81.268 51.314 17.928 7.753 32.357 13.489 51.034 19.312 7.493 2.336 30.019 8.777 35.814 11.654 2.305.284 1.987.261 4.229.164l-1.403-2.141c-8.854-4.448-31.704-21.937-40.712-28.558a3995 3995 0 0 1-73.742-54.823c30.922-32.721 70.793-71.344 111.661-91.738 11.863-7.72 35.212-18.422 48.206-24.006 15.974-5.445 27.807-11.997 45.884-15.984"/><defs><linearGradient id="b" x1="738.935" x2="571.732" y1="1301.922" y2="1295.105" gradientUnits="userSpaceOnUse"><stop offset="0" stop-color="#879196"/><stop offset="1" stop-color="#fff"/></linearGradient></defs><path fill="url(#b)" d="M593.108 1071.52c1.691 1.13 7.082 4.48 8.179 5.61q2.783 1.545 5.612 3l3.176 2 3.932 2 3.3 1.81c12.044 6.03 21.843 9.98 33.826 15.44 18.31 5.7 35.837 11.2 54.786 14.47 3.485.6 18.614 2.72 20.922 3.83l-1.732.99-2.307-.03c-1.358 5.27-2.577 53.05-1.927 58.97 2.359.33 4.307.16 5.808 1.44l-32.759 3.63c.234 33.88 5.846 58.24 21.661 88.6 2.643 5.07 12.507 18.75 13.837 21.89 11.693 14.08 22.118 27.36 36.803 38.32 2.172 1.62 8.221 6.26 9.975 8.07l-.476 1.68c1.847 1.85 7.936 5.51 7.494 7.51-3.726 16.9 2.87 94.23-1.815 104.83-3.784-3.44-4.036-4.75-8.292-5.21-4.366-2.96-5.967-4.67-9.69-8.29-9.651 9.6-21.088 21.53-31.104 30.38-5.3 6.6-32.638 31.44-40.652 39.32-9.166-13.68-19.865-28.82-28.315-42.77-5.455-5.18-50.143-73.36-54.737-82.13-9.732-12.09-26.899-39.68-36.019-53.46l-1.666-2.25c-3.225-5.07-6.509-10.46-9.975-15.35-.408-.55-.815-1.11-1.223-1.66l-33.268-49.94c12.951-.53 31.807-2.26 43.808-2.12l1.31.15 2.091-.48c10.407.15 25.298-.94 35.819-1.6 14.554-.44 29.818-1.47 44.414-2.24-14.433-18.69-25.304-34.59-36.36-55.35l-3.546-7.28-3.843-9.05c-1.221-2.9-1.917-5.03-2.861-7.99l-.468-1.07c-1.646-3.72-2.783-6.56-3.75-10.58-11.257-30.85-11.194-62.91-9.968-95.09"/><path fill="#6f7a81" d="M722.49 1287.07c2.367 4.58 3.009 6.21 6.289 10.05l.643-1.95c11.693 14.08 22.118 27.36 36.803 38.32 2.172 1.62 8.221 6.26 9.975 8.07l-.476 1.68c1.847 1.85 7.936 5.51 7.494 7.51-3.726 16.9 2.87 94.23-1.815 104.83-3.784-3.44-4.036-4.75-8.292-5.21-4.366-2.96-5.967-4.67-9.69-8.29-9.651 9.6-21.088 21.53-31.104 30.38l-.123-.86-.893-.58-3.349 3.41-1.072-.11c-1.056-6.41-3.608-15.89-3.839-22.08-1.547-43.3-3.332-86.64-2.463-129.98.241-12.01 2.038-22.87 1.912-35.19"/><path fill="#bfc4c5" d="M593.108 1071.52c1.691 1.13 7.082 4.48 8.179 5.61q2.783 1.545 5.612 3l3.176 2 3.932 2c-2.632 6.59-.324 96.08-.009 111.17l-3.843-9.05c-1.221-2.9-1.917-5.03-2.861-7.99l-.468-1.07c-1.646-3.72-2.783-6.56-3.75-10.58-11.257-30.85-11.194-62.91-9.968-95.09"/><path fill="#9ba3a7" d="M593.108 1071.52c1.691 1.13 7.082 4.48 8.179 5.61-3.006 12.87-.173 72.22 1.789 89.48-11.257-30.85-11.194-62.91-9.968-95.09"/><path fill="#bfc4c5" d="M601.287 1077.13q2.783 1.545 5.612 3c-3.311 12.85-.935 53.49-.4 68.87l.471 18c.101 3.44.42 8.09.324 11.26l-.468-1.07c-1.646-3.72-2.783-6.56-3.75-10.58-1.962-17.26-4.795-76.61-1.789-89.48"/><path fill="#d2d6d6" d="m606.899 1080.13 3.176 2c-2.361 6.62-.303 90.52.08 104.12-1.221-2.9-1.917-5.03-2.861-7.99.096-3.17-.223-7.82-.324-11.26l-.471-18c-.535-15.38-2.911-56.02.4-68.87"/><defs><linearGradient id="c" x1="559.174" x2="528.325" y1="1285.227" y2="1281.998" gradientUnits="userSpaceOnUse"><stop offset="0" stop-color="#59646c"/><stop offset="1" stop-color="#7a8489"/></linearGradient></defs><path fill="url(#c)" d="M526.462 1264.22c12.951-.53 31.807-2.26 43.808-2.12-1.887.51-3.861 1.14-5.766 1.06-.494-.02-1.571.09-1.602.43-1.091 11.65.148 26.03-.871 37.91-.559 6.51.617 6.4-.753 12.26l-.325 2.06c-.408-.55-.815-1.11-1.223-1.66z"/><path fill="#9ba3a7" d="m571.58 1262.25 2.091-.48c-.688 8.83-.085 43.51 1.076 51.68.02 3.06-.003 5.5-.109 8.55l-.183 7.26c-.603 1.43-1.215 2.75-1.861 4.16l-1.666-2.25c-3.225-5.07-6.509-10.46-9.975-15.35l.325-2.06c1.37-5.86.194-5.75.753-12.26 1.019-11.88-.22-26.26.871-37.91.031-.34 1.108-.45 1.602-.43 1.905.08 3.879-.55 5.766-1.06z"/><path fill="#d2d6d6" d="m614.007 1084.13 3.3 1.81c-1.148 9.48-.627 21.65-.516 31.49.308 20.33.472 40.65.493 60.98.021 6.07.634 18.86.26 24.17l-3.546-7.28c-.315-15.09-2.623-104.58.009-111.17"/><path fill="#a0a9ab" d="M574.747 1313.45c.135-3.59.162-32.24.544-33.22l.216-.14c.997.74 1.387 49.79.489 51.53-.845.14-1.19-1.59-1.541-2.36l.183-7.26c.106-3.05.129-5.49.109-8.55"/><path fill="#6f7a81" d="M608.579 1033.47c2.231-7.81.499-43.107.742-53.292 1.088-45.544-.671-91.734.146-137.205l2.733-.715c8.945 9.272 15.277 14.663 24.847 23.019 31.238 24.267 46.831 33.491 81.268 51.314 17.928 7.753 32.357 13.489 51.034 19.312 7.493 2.336 30.019 8.777 35.814 11.654-4.609 1.263-13.609-2.271-18.48-3.822-2.559 8.461-1.01 29.821-1.111 39.756l-.593 114.939c-.177 11.7-3.068 10.77-1.075 24.74 2.285 16.01-1.709 41.63-1.414 58.15 7.265 1.02 14.707.99 19.845 5.83-31.184-6.78-44.714-7.26-75.652-6.1-1.501-1.28-3.449-1.11-5.808-1.44-.65-5.92.569-53.7 1.927-58.97l2.307.03 1.732-.99c12.464 1 25.587 3.16 37.846 3.46 5.145.8 7.328.86 12.557.84l.492-.81-3.982-1.55-9.949-4.05c-5.641-1.91-18.769-7.41-23.993-10.03-6.862-2.18-16.756-6.49-23.102-9.99-20.963-7.28-65.017-32.03-83.773-42.88l-26.038-15.93z"/><defs><linearGradient id="d" x1="717.713" x2="607.382" y1="969.315" y2="968.697" gradientUnits="userSpaceOnUse"><stop offset="0" stop-color="#8d979b"/><stop offset="1" stop-color="#fffffd"/></linearGradient></defs><path fill="url(#d)" d="M608.579 1033.47c2.231-7.81.499-43.107.742-53.292 1.088-45.544-.671-91.734.146-137.205l2.733-.715c8.945 9.272 15.277 14.663 24.847 23.019 31.238 24.267 46.831 33.491 81.268 51.314l-.588 1.454c-3.976-1.52-6.676-2.819-10.51-4.703.71-1.028-2.099 26.51-2.115 28.138-.395 41.498-1.97 83.06-3.901 124.51-.192 4.14-2.442 20.93-.214 22.52 4.054 2.9 11.034 4.25 15.528 7.6l.195 1.44c-20.963-7.28-65.017-32.03-83.773-42.88l-26.038-15.93z"/><path fill="#6f7a81" d="m739.812 1107.54 2.018-.03c4.685-.13 10.505 4.5 16.625 5.27 1.568-.78-.465-7.3 1.109-9.13 2.74-.22 1.648 5.57 2.015 6.83l.173.01c.988-.88-.488-5.05.513-6.11 1.778-.22 1.58 11.55 1.54 13.19-5.641-1.91-18.769-7.41-23.993-10.03"/><path d="M726.683 1181.05c30.938-1.16 44.468-.68 75.652 6.1 20.586 6.09 33.258 11.71 52.322 21.39 3.669 2.7 11.405 6.85 15.964 9.87 9.325 6.18 16.477 12.57 25.126 19.01 41.978 40.75 50.283 58.25 72.078 110.43a309.3 309.3 0 0 1-65.517 22.66c-10.383 1.43-18.07 2.38-28.567 2.89-25.188-.06-37.168-2.83-60.635-10.88-.812-.65-11.491-5.95-13.178-6.8-8.953-4.51-15.462-8.42-23.728-14.16-1.754-1.81-7.803-6.45-9.975-8.07-14.685-10.96-25.11-24.24-36.803-38.32-1.33-3.14-11.194-16.82-13.837-21.89-15.815-30.36-21.427-54.72-21.661-88.6z"/><path fill="#9ba3a7" d="M808.827 1683.52c-3.995-8.48 3.515-141.82-.709-165.09 7.836 6.57 22.242 17.59 28.854 24.33-5.035-1.56-7.333-4.13-11.477-7.26-.015 5.73 3.793 3.46 3.863 8.4-1.288.38-2.157.62-3.486.93-.255 3.43 2.682 9.59 2.724 16.2.09 14.21-2.129 27.2-2.676 41.05-.886 22.4-.827 45.19-1.634 67.56-.205 5.69 2.131 11.63.236 14.64l-1.285-.3c-1.934-4.14-2.032-6.66-2.696-11.18-.008.35-.448 16.85-.597 16.47 1.686 4.26 11.27 15.62 11.791 19.77-3.987-3.46-13.983-14.58-17.125-18.91-2.627-2.62-3.501-3.65-5.783-6.61"/><path fill="#a0a9ab" d="M808.827 1683.52c4.734-6.98 2.592-4.05 3.802-12.25.322-2.19 3.092-26.54 2.738-26.02l.308-.11c2.028 1.12.089 17.19.505 19.37 1.696 8.88-3.407 18.19-1.57 25.62-2.627-2.62-3.501-3.65-5.783-6.61"/><path fill="#f3f3f3" d="M863.397 1564.93c8.758 6.84 15.423 12.74 23.619 20.15 2.14 7.02 4.713 14.84 6.425 21.89l-.597 1.21c-2.84-2.66-4.173-15.88-8.129-21.96l-1.219.21-1.831-1.51c-5.381 8.77-1.228 101.68-6.299 110.81l-1.718-.11c-5.137-10.62-.212-25.8-1.315-37.28-2.712-28.21-1.036-56.01-1.226-84.22-.015-2.21-6.705-3.16-7.71-9.19"/><path fill="#f3f3f3" d="M854.657 1208.54c.071-.45.091-1.03.313-1.44 2.592-.38 10.658 6.95 12.788 6.55.529-2.23-3.606-5.01.731-8.91 1.07-1.34 1.771-4.2 1.597-5.75-.647-5.79-.097-12.1-.81-18.01-.603-.66-1.207-1.33-1.811-1.99.275-.91.332-.68.933-1.34 3.308-3.61-1.701-25.7 3.314-25.44.922.88.849 2.7.67 3.81-.664 4.51 3.78 2.54 4.906 5.51.962 2.49-.187 4.5-.439 6.46-1.663 12.99 2.697 26.56-.137 39.55-.659 3.02-.287 6.08.604 8.98.724 2.35-.518 3.87 1.999 5.39 1.726 1.08 5.107 4.68 6.792 5.42 3.393 1.5 3.659 3.22 6.825 5.01 2.086 1.17 4.025 2.88 2.815 5.08-8.649-6.44-15.801-12.83-25.126-19.01-4.559-3.02-12.295-7.17-15.964-9.87"/><path fill="#f3f3f3" d="M873.741 1373.4c10.497-.51 18.184-1.46 28.567-2.89 1.326.36 1.359.15 1.964 1.11l.291-.29.118.36c-1.429 1.06-22.156 2.77-24.997 3.44-1.808 2.42 2.64 25.18-2.446 27.44-.066 3.95 1.326 10.54-.602 13.94-.468.82-.201 4.76-.166 5 .435 3.07 2.183 7.62.067 10.63-.245.36-.643.57-1.073.58-8.093.22-3.731-20.32-4.861-22.31-4.366-7.68-1.573-6.48-2.663-13.91-1.177-8.04-.489-13.12.436-20.56-1.615-1.39-8.491-.32-11.386-1.17l-.223-.27c.893-1.27 13.662 1.48 16.974-1.1"/><path fill="#9ba3a7" d="M773.111 1450.37c4.256.46 4.508 1.77 8.292 5.21 4.685-10.6-1.911-87.93 1.815-104.83.442-2-5.647-5.66-7.494-7.51l.476-1.68c8.266 5.74 14.775 9.65 23.728 14.16 1.687.85 12.366 6.15 13.178 6.8l-1.607.83c-8.298-2.21-21.417-11.52-25.883-11.78-1.428 34.32-.883 69.79-.977 104.16-.003 1.03 1.932 3.69 2.5 4.51l1.809.83c3.271-3.92 2.947-14.06 3.212-19.51 1.436 7.1.591 17.02.458 22.04-.106 4 17.543 12.63 19.257 20.19-7.778-5.46-31.673-26.6-38.764-33.42"/><path fill="#f3f3f3" d="M853.402 746.455c15.974-5.445 27.807-11.997 45.884-15.984.609.352 1.047.461 1.384.986l-.014.199c-.932.735-18.106 4.938-20.348 7.352-2.655 2.858-.036 3.006-1.403 4.977-2.848-.295-3.183-1.094-1.838 4.536.789 3.3-.072 6.543.439 9.357 2.559 14.094-5.271 6.946-4.987 14.613.118 3.161-.913 3.17-2.071 2.923-1.628-1.478-1.33-22.358-.164-25.797.691-2.039-1.645-3.282-2.436-4.181.217-.893 1.131-2.042 1.654-2.812-.532-.781-5.213 1.344-5.851 1.631-8.365 3.768-4.646.603-6.997 6.713l-.352.201c-1.814-2.25.551-2.231-2.9-4.714"/><path fill="#f3f3f3" d="M857.697 1523.6c.072-.53.002-1.24.388-1.67.588.04 7.701 6.7 8.931 6.85 1.553-.86-.478-3.1 1.041-4.52 1.446-1.35 2.731-.37 3.401-2.67 1.154-3.97 2.63.09 2.082-5.59-.357-3.7.59-7.63-.552-11.47.75-2.4 3.155-1.05 3.334.04.838 5.11-.757 12.03.745 16.93 1.169 3.81-.709 8.53 1.353 11.51 1.453 2.11-1.221 5.13.519 6.73 2.779 2.56 6.107 4.49 8.601 7.21.765 1.43 3.267 2.5 4.107 3.44 2.897 3.24 6.913 5.32 9.575 8.45.357.42-.067.74-.304 1.25-4.251-2.36-40.123-32.3-43.221-36.49"/><path fill="#f3f3f3" d="M856.155 1736.48c5.566.01 8.522 9.67 13.233 12.24.3-1.72-.274-3.76 1.513-4.55 7.643-3.25 4.784 6.34 6.092 6.89 4.738 1.48 1.761 4.19 1.685 6.54-.149 4.65 10.116 11.01 11.561 14.73 1.506 3.87 9.169 5.88 5.935 8.98-4.418-3.09-36.234-39.43-40.019-44.83"/><path d="M1280.11 1181.41c22.17-2.24 51.7.68 73.79 2.85.5 56.14-22.22 103.9-64.41 140.7-40.07 34.96-77.78 50.4-130.72 46.95-31.74-3.59-50.02-11.59-78.05-25.36 10.76-31.1 24.81-60.42 46.23-85.72a228.6 228.6 0 0 1 153.16-79.42"/><path d="M968.456 1560.13c-5.054-.01-12.693.65-16.238-3.75-1.505-1.86-1.837-3.32-1.578-5.62.495-4.39 2.327-8.95 4.184-12.94 6.303-13.56 51.956-97.2 60.356-102.07 2.44-1.42 4.61-1.29 7.27-.54 6.92 1.96 11.61 12.74 15.08 18.55 5.82 3.37 12.58 19.23 16.59 25.88 2.65 4.38 7.85 13.55 10.29 18.08 1.75 3.25 7.39 12.65 8.26 15.19.59 3.1.94 1.28 2.78.78 1.12.61 1.78 6.3 2.21 8.01.87 3.49 6.26 7.85 3.82 10.37 2.88 5.86 7.83 13.22 5.89 20.02-.76 2.67-2.18 4.56-4.71 5.78-10.64 5.14-94.912 1.51-114.204 2.26"/><path fill="#9ba3a7" d="M1037.53 1453.76c5.82 3.37 12.58 19.23 16.59 25.88 2.65 4.38 7.85 13.55 10.29 18.08 1.75 3.25 7.39 12.65 8.26 15.19.59 3.1.94 1.28 2.78.78 1.12.61 1.78 6.3 2.21 8.01.87 3.49 6.26 7.85 3.82 10.37-2.4-2.84-18.74-32.53-21.2-37.2-6.29-11.95-17.56-29.45-22.75-41.11"/><path fill="#9ba3a7" d="M1076.06 1402.55c3.17 3.15 3.27 9.55 2.97 13.92-.32 4.45-.92 8.68-.51 13.27.09.95 1.21.44 1.7 1.76-.46 1.2-1.25.89-1.44 1.27-.95 2.15.06 6.18-.09 8.67-.26 4.57.17 10.08.01 14.56-.37 10.71-.23 21.3 0 31.99.06 2.75.26 15.36-1.27 16.73-.3-.01-.6-.02-.9-.02h.62c-1.84-1.1-1.51-1.18-2.15-3.69-.27 1.63 1.28-28.83 1.3-28.57-2.09-20.63-.43-42.21-1.01-62.96-.1-3.58-.69-.45.42-5.35z"/><path fill="#f3f3f3" d="M872.333 1447.17c5.244 2.22 4.064 1.59 4.162 7.32.199 11.59 1.404 10.43-3.136 19.41-.989-5.43-2.157-21.66-1.026-26.73"/><path fill="#f3f3f3" d="M874.922 774.603c4.789 5.738 2.272 5.267-.171 11.286-3.783-3.911-5.888-8.472.171-11.286"/><path fill="#9ba3a7" d="M1080.06 1453.44c1.69 2.99 2.18 15.02 1.28 17.29-.79-.39-.8-.51-1.66-1.24-.81-2.98-.37-12.75.38-16.05"/><path fill="#9ba3a7" d="M1079 872.5c2.09 3.096.45 24.795 1.49 32-2.73-2.702-1.49-26.557-1.49-32"/><path fill="#f3f3f3" d="M871.784 1487.48c6.311 2.41 4.827 2.01 4.437 9.35l-.922-.88c-1.949-1.84-3.947-4.09-3.645-6.95z"/><path fill="#9ba3a7" d="M1080.29 1500.97c1.58 4.56 2.09 6.03-.41 10.15l-.17-1.34c-.45-3.47-.59-2.49.12-6.2.16-.87.31-1.74.46-2.61"/><path fill="#9ba3a7" d="M1079 988.5c1.75 2.575.82 7.387 1.49 12-2.6-2.565-1.49-8.264-1.49-12"/><path fill="#9ba3a7" d="M1078.03 1513.73c-.59-2.47-.63-2.25 1.85-2.61-.3 1.84.14 2.33-1.85 2.61"/><path fill="#9ba3a7" d="M1079 849.401c1.61 1.032 1.1 2.471 1 4.344l-.03 1.854c-1.56-1.035-1.07-2.506-.98-4.344z"/><path fill="#9ba3a7" d="M1080.43 1476.47c.1.05.21.09.3.15.29.19.37 1.03.4 1.19-.26-.12-.53-.23-.79-.34-.08-.42-.06-.13.09-1"/><path fill="#9ba3a7" d="M1079.13 818.391c1.31.962.86 1.53.71 3.223-1.27-.972-.84-1.571-.71-3.223"/><defs><linearGradient id="e" x1="706.092" x2="395.698" y1="622.063" y2="649.369" gradientUnits="userSpaceOnUse"><stop offset="0" stop-color="#556269"/><stop offset="1" stop-color="#f7f8f7"/></linearGradient></defs><path fill="url(#e)" d="m675.907 279.422 1.136 2.52c-43.155 35.708-72.703 72.25-101.502 119.893-16.556 29.688-24.01 47.607-35.869 79.532l-.171.842c-2.903 13.892-8.689 29.043-11.375 43.003-13.252 68.862-13.361 126.783 8.799 193.573 1.24 3.435 3.79 9.844 4.673 13.122 14.675 32.697 20.519 39.882 37.422 68.941 8.199 11.288 15.972 20.883 24.236 31.788l4.044 4.496 4.9 5.126-2.733.715c-.817 45.471.942 91.661-.146 137.205-.243 10.185 1.489 45.482-.742 53.292l-1.68 5.27-7.296-4.9c-6.811-4.27-16.338-11.55-23.108-16.4-11.628-7.53-24.508-18.642-35.09-27.597-1.912-1.778-3.827-3.728-5.696-5.568-22.812-18.817-53.887-52.61-69.234-78.063-8.025-6.726-30.534-52.385-35.289-64.234-14.038-25.694-28.561-97.658-29.03-127.011-2.198-26.848-.32-42.166-.208-67.37 3.566-48.199 14.43-96.599 34.924-140.516 5.78-14.571 21.453-43.752 30.689-55.99 1.133-3.012 7.086-11.35 9.11-14.276 18.498-26.738 38.34-47.396 61.759-69.682 12.117-10.552 22.85-19.782 36.154-28.983 13.818-14.906 81.918-49.025 101.323-58.728"/><defs><linearGradient id="f" x1="575.846" x2="541.769" y1="876.537" y2="876.468" gradientUnits="userSpaceOnUse"><stop offset="0" stop-color="#525e66"/><stop offset="1" stop-color="#949da1"/></linearGradient></defs><path fill="url(#f)" d="M541.598 731.907c14.675 32.697 20.519 39.882 37.422 68.941 8.199 11.288 15.972 20.883 24.236 31.788l4.044 4.496 4.9 5.126-2.733.715c-.817 45.471.942 91.661-.146 137.205-.243 10.185 1.489 45.482-.742 53.292l-1.68 5.27-7.296-4.9c-6.811-4.27-16.338-11.55-23.108-16.4-11.628-7.53-24.508-18.642-35.09-27.597 1.903-26.087 1.421-54.531 1.816-80.824.889-59.109-.447-118.033-1.623-177.112"/><path fill="#9ba3a7" d="M579.02 800.848c8.199 11.288 15.972 20.883 24.236 31.788l4.044 4.496 4.9 5.126-2.733.715c-.817 45.471.942 91.661-.146 137.205-.243 10.185 1.489 45.482-.742 53.292l-1.68 5.27-7.296-4.9c-6.811-4.27-16.338-11.55-23.108-16.4l.287-135.467c.089-12.624-.781-73.022 2.238-81.125"/><path fill="#bfc4c5" d="M599.603 1033.84c-6.577-11.01.655-15.1 1.544-25.83.566-6.84-1.775-15.745-2.747-22.667-1.237-8.807 1.779-17.942 1.973-26.796.432-19.689-2.943-118.064 2.883-125.911l4.044 4.496 4.9 5.126-2.733.715c-.817 45.471.942 91.661-.146 137.205-.243 10.185 1.489 45.482-.742 53.292l-1.68 5.27z"/><path fill="#d2d6d6" d="m607.3 837.132 4.9 5.126-2.733.715c-.817 45.471.942 91.661-.146 137.205-.243 10.185 1.489 45.482-.742 53.292-4.906-7.5-.848-108.998-1.744-126.596-.486-9.546-2.421-63.201.465-69.742"/><path fill="#a0a9ab" d="m593.51 880.5.858.854c3.447 11.054-.55 96.951-1.868 111.646-3.99-10.075.99-94.142 1.01-112.5"/><path fill="#6f7a81" d="M585 817.448c4.212 7.736 2.212 10.539 1.805 18.57-.746 14.717-.316 32.649-.315 47.268-.039-.007-1.239-.193-1.243-.295-.431-11.252-.247-56.987-.247-65.543"/><path fill="#a0a9ab" d="M594.982 843.554c1.739 4.116 1.235 17.183.518 21.446-4.605-4.533-1.193-15.635-.518-21.446"/><path fill="#9ba3a7" d="M536.925 718.785c1.24 3.435 3.79 9.844 4.673 13.122 1.176 59.079 2.512 118.003 1.623 177.112-.395 26.293.087 54.737-1.816 80.824-1.912-1.778-3.827-3.728-5.696-5.568.953-4.06.664-59.954.872-67.464 1.076-38.793.883-78.652.884-117.588.001-25.87-2.521-54.353-.54-80.438"/><path fill="#9ba3a7" d="M401.948 647.597c1.034-.526 2.498-1.85 3.473-1.856 1.132 1.161-.801 7.002-.781 7.926-.55 5.418 1.2 13.923.751 19.056-.896 10.245-.079 20.232-1.742 30.288-.979 5.925 3.062 5.371-1.493 11.956-2.198-26.848-.32-42.166-.208-67.37"/><path fill="#f3f3f3" d="M470.938 499.449c1.253.839 1.077.865.734 2.293-.765-1.049-.67-.952-.734-2.293"/><path fill="#f3f3f3" d="M471 803c.714 1.273.595 1.105.671 2.692-.622-1.363-.577-1.198-.671-2.692"/><path fill="#6f7a81" d="M1432.45 331.124c2.4 2.228 4.68 4.481 7.04 6.738 1.63 1.605 3.46 3.241 4.78 5.089 1.19 1.087 2.1 1.944 3.21 3.125 3.57 3.52 6.81 6.865 10.03 10.706 25.37 24.512 71.72 96.56 82.17 129.884 4.57 9.614 17.14 43.286 17.97 52.27 24.91 73.6 21.77 187.51-4.09 260.757-3.67 14.155-9.35 27.952-14.76 41.546-19.71 46.668-43.33 84.426-75.75 123.599-4.16 5.033-17.62 20.772-22.3 24.427-33.55 39.465-105.07 88.135-150.91 111.445l-1.37-1.46c-6.78 3.67-12.97 7.05-19.98 10.24.21-6.98-1.14-13.41-1.41-20.39-.51-4.42-.44-11.12-2.18-15.2-2.59-6.08.92-6.28 1.84-11.95-5.09-5.89.12-101.439-.6-115.997-.27-5.273 19.55-12.176 24.16-14.049l-.33-1.307c9.49-4.483 20.42-8.195 30.43-12.716 34.49-15.566 64.02-32.619 92.53-57.714 14.87-13.093 22.48-25.402 34.5-37.547l1-.998c5.19-8.629 13.88-19.895 19.83-29.295a350 350 0 0 0 36.66-78.833 374.78 374.78 0 0 0-15.3-265.4c-6.7-14.961-13.61-28.738-21.79-42.924-4.33-7.496-12.1-18.525-15.68-25.706l-.74-1.511c-2.26-2.594-12.76-16.859-14.61-20.062-1.48-1.885-5.22-6.492-6.35-8.48 3.92-6.955 2.47-10.305 2-18.287"/><defs><linearGradient id="g" x1="1455.931" x2="1544.019" y1="651.581" y2="648.797" gradientUnits="userSpaceOnUse"><stop offset="0" stop-color="#828d92"/><stop offset="1" stop-color="#a8afb3"/></linearGradient></defs><path fill="url(#g)" d="M1432.45 331.124c2.4 2.228 4.68 4.481 7.04 6.738 1.63 1.605 3.46 3.241 4.78 5.089 1.19 1.087 2.1 1.944 3.21 3.125 3.57 3.52 6.81 6.865 10.03 10.706 25.37 24.512 71.72 96.56 82.17 129.884 4.57 9.614 17.14 43.286 17.97 52.27 24.91 73.6 21.77 187.51-4.09 260.757-3.67 14.155-9.35 27.952-14.76 41.546-19.71 46.668-43.33 84.426-75.75 123.599-4.16 5.033-17.62 20.772-22.3 24.427l-1.72-.686c8.73-9.854 21.08-22.636 29.12-33.113.26-.333-.21-42.946-.28-47.438-.05-3.122 1.34-3.054 3.88-4.962-.67-6.179-2.99-5.806-4.07-11.159 1.18-3.748.23-1.994 3.76-4.944.03-24.557.09-48.929-.85-73.469-.2-5.297 1.37-16.125.3-19.705-3.08 1.9-15.91 22.185-21.02 28.093l-1.44-.26c5.19-8.629 13.88-19.895 19.83-29.295a350 350 0 0 0 36.66-78.833 374.78 374.78 0 0 0-15.3-265.4c-6.7-14.961-13.61-28.738-21.79-42.924-4.33-7.496-12.1-18.525-15.68-25.706l-.74-1.511c-2.26-2.594-12.76-16.859-14.61-20.062-1.48-1.885-5.22-6.492-6.35-8.48 3.92-6.955 2.47-10.305 2-18.287"/><defs><linearGradient id="h" x1="1535.093" x2="1549.518" y1="609.362" y2="609.599" gradientUnits="userSpaceOnUse"><stop offset="0" stop-color="#b2b9bc"/><stop offset="1" stop-color="#d5d8d9"/></linearGradient></defs><path fill="url(#h)" d="M1536.12 525.618c5.13-4.718 1.74-25.91 1.61-33.648l.48 1.618c1.44-4.071-.35-3.494 1.47-6.922 4.57 9.614 17.14 43.286 17.97 52.27 24.91 73.6 21.77 187.51-4.09 260.757-3.67 14.155-9.35 27.952-14.76 41.546-7.58-15.385-2.24-44.893-2.32-61.808-.07-16.027-1.75-31.709-.29-47.939.85-9.539-4.61-28.37.65-36.329l-.51-4.99-.71-.164c-1.54 6.143-.94 14.008-2.31 17.564-3.13-4.692-.98-76.634-1.11-89.574-.21-21.82-3.3-62.941 1.34-83.351-.67-2.039-.33-12.944.71-12.987.92.501 1.56 3.066 1.87 3.957"/><path fill="#f3f3f3" d="M1551.15 602.064c-1.27-5.47 1.22-55.697 1.27-65.021.01-4.322-3.08-13.402-1.53-16.402 1.62 5.814 3.37 11.59 5.24 17.325l1.52.97c24.91 73.6 21.77 187.51-4.09 260.757l-3.04 3.601-2.87-.949-.47-8.761c.55-7.569.39-16.773.46-24.479l.52-.077c.07 4.838-.63 25.115 3.26 27.559.59-4.505.24-17.883.29-23.081q.195-22.099 1.14-44.18l.16.675c.92-7.869-.45-14.726-.46-22.577l-.19-66.052c-.61-10.296-2.12-22.09-1.34-32.369.27-3.583.4-2.949.13-6.939"/><path fill="#d2d6d6" d="M1551.15 602.064c4.82-9.257-1.03-34.316 3.93-46.452l1.57-.584c1 6.311-.28 16.875-.29 23.595l.12 60.014c.04 13.926.39 26.937.81 40.742-4.64-2.996-3.29-38.819-3.02-45.278l-.91-.208c-.93 3.406.33 3.62-1 7.479-.61-10.296-2.12-22.09-1.34-32.369.27-3.583.4-2.949.13-6.939"/><path fill="#bfc4c5" d="M1536.84 695.163c1.43.074.66.185 2.25-.572.57-13.309-4.71-14.686-4.56-24.456.13-9.171 4.49-18.112 4.58-28.831l1.47 1.086c.37 4.141.43 5.056 2.52 8.621 2.46 3.292 2.84 90.701 2.84 102.852-.01 10.84-2.22 28.113 1.24 39.721l.47 8.761 2.87.949 3.04-3.601c-3.67 14.155-9.35 27.952-14.76 41.546-7.58-15.385-2.24-44.893-2.32-61.808-.07-16.027-1.75-31.709-.29-47.939.85-9.539-4.61-28.37.65-36.329"/><path fill="#d2d6d6" d="M1543.1 651.011c2.46 3.292 2.84 90.701 2.84 102.852-.01 10.84-2.22 28.113 1.24 39.721l.47 8.761-1.15 4.085-1.18-.73c-4.99-14.508-2.86-83.142-1.02-100.387l-2.16-1.961c-1.14-4.193.25-46.934.96-52.341"/><path fill="#9ba3a7" d="M1533.54 534.648c-.67-2.039-.33-12.944.71-12.987.92.501 1.56 3.066 1.87 3.957.51 3.789-.82 45.046-1.54 48.541l-.1.075-.05-.028c-1.95-9.149.79-29.057-.89-39.558"/><path fill="#9ba3a7" d="M1533.23 577.387c2.11 1.368 1.78 19.314 1.52 22.011-1.35-3.297-1.61-18.067-1.52-22.011"/><path fill="#d2d6d6" d="m1543.37 565.2.64-.064c.39.407.22 1.255.21 1.758-.43-.017-.5.039-.8-.162-.11-.518-.08-.979-.05-1.532"/><path fill="#bfc4c5" d="M1432.45 331.124c2.4 2.228 4.68 4.481 7.04 6.738 1.63 1.605 3.46 3.241 4.78 5.089 1.19 1.087 2.1 1.944 3.21 3.125 3.57 3.52 6.81 6.865 10.03 10.706-3.41-.459-2.03-1.199-5.59-.915-.48-.613-.75-5.757-3.48-5.588-.47 9.362-.21 8.387.71 17.296-4.21 5.661 2.52 2.063 2.26 10.378-2.26-2.594-12.76-16.859-14.61-20.062-1.48-1.885-5.22-6.492-6.35-8.48 3.92-6.955 2.47-10.305 2-18.287"/><path fill="#d2d6d6" d="M1432.45 331.124c2.4 2.228 4.68 4.481 7.04 6.738-.01 6.144 1.76 15.981-2.69 20.029-1.48-1.885-5.22-6.492-6.35-8.48 3.92-6.955 2.47-10.305 2-18.287"/><path fill="#9ba3a7" d="M1444.27 342.951c1.19 1.087 2.1 1.944 3.21 3.125-.62 4.327-.78 11.301-3.95 15.141-5.79-5.3 3.8-7.106 1.46-15.692z"/><defs><linearGradient id="i" x1="1358.998" x2="1408.002" y1="294.998" y2="295.002" gradientUnits="userSpaceOnUse"><stop offset="0" stop-color="#b0b1b3"/><stop offset="1" stop-color="#d5d9d8"/></linearGradient></defs><path fill="url(#i)" d="m1358.62 276.178 1.37-2.967c4.21 2.533 8.3 5.271 12.24 8.203 11.25 8.216 34.56 25.139 43.82 35.295 3.29 1.4 12.98 11.425 16.4 14.415.47 7.982 1.92 11.332-2 18.287-2.11-2.495-16.23-19.017-16.83-20.225-5.93-5.764-11.97-12.928-18.14-19.144a657 657 0 0 0-36.86-33.864"/><path fill="#f3f3f3" d="M1413.62 329.186c-3.63-7.581-5.26-8.568-4.04-15.563l.07-.045c3.05 1.983 2.9 2.11 6.4 3.131 3.29 1.4 12.98 11.425 16.4 14.415.47 7.982 1.92 11.332-2 18.287-2.11-2.495-16.23-19.017-16.83-20.225"/><path fill="#9ba3a7" d="M1341.52 261.053c3.75 2.368 15.92 9.748 18.47 12.158l-1.37 2.967c-7.04-5.707-10.75-8.816-17.1-15.125"/><path fill="#252a2e" d="M675.907 279.422c6.544-3.119 5.57-.98 1.136 2.52z"/></svg>