<svg xmlns="http://www.w3.org/2000/svg" width="2048" height="2048" viewBox="0 0 2048 2048"><path fill="#272d36" d="M0 0h2048v2048H0z"/><path fill="#0e0b0d" d="m811.154 470.07.764-.548c10.107-7.387 20.593-19.04 29.925-26.011 14.49-10.825 46.75-47.041 63.613-49.394 54.496-7.603 108.594-16.133 163.294-21.373 9.31-.88 76.49 42.972 88.36 48.182 2.62 1.153 21.69 12.615 24.97 14.78q37.215-5.452 74.49-10.371c6.24-.822 34.95-4.95 38.35-3.894 56.83 17.69 113 38.888 169.63 57.588 6.13 2.023 19.37 6.738 22.59 13.448 8.34 26.968 16.88 59.842 24.62 86.634l41.91 142.922c8.09 28.323 17.13 54.956 19.63 84.763.26 3.141 9.45 22.857 11.34 27.14l21.37 48.558 66.58 152.896 26.25 59.76c25.46 57.95 41.83 102.93 28.04 168.32-11.95 56.67-36.14 80.29-71.15 123.14l-86.21 104.43-57.42 69.88c-10.54 13.04-23.83 30.77-35.06 42.63a213 213 0 0 1-42.35 34.66c-34.32 21.79-72.07 34.16-112.83 35.45-24.6.78-56.37-7.49-81.21-12.52l-108.4-21.75-176.691-32.75c-24.079-4.51-48.561-8.28-72.612-13.49-39.449-8.55-73.523-36.89-94.397-70.64-31.039-50.18-27.239-125.64 3.385-175.54-47.912 19.61-86.444 21.19-135.584 1.52-11.872-4.75-25.95-12.1-36.608-19.31-8.026-5.44-16.153-13.16-24.455-18.13-35.187 22.19-72.399 30.39-113.281 20.94-56.525-13.06-105.939-56.13-115.831-114.88-3.043-18.06-4.362-36.93-6.623-55.22l-15.671-132.08-13.31-115.347c-1.767-15.444-5.489-40.858-6.181-55.771-.625-3.461-.903-7.485-1.534-11.292-1.618-15.507-6.487-51.129-6.787-64.573-.407-18.232 28.886-61.102 41.359-75.674 47.292-55.249 98.457-83.868 170.351-93.981 40.167-64.005 105.781-119.607 180.461-136.749 40.631-9.327 61.857-9.161 102.913-6.353"/><path fill="#0c0812" d="M322.857 847.4c11.931-2.882 2.003 9.576 1.534 11.292-.625-3.461-.903-7.485-1.534-11.292"/><defs><linearGradient id="a" x1="1343.647" x2="485.159" y1="410.535" y2="1024.947" gradientUnits="userSpaceOnUse"><stop offset="0" stop-color="#b8bec7"/><stop offset="1" stop-color="#f2f4fa"/></linearGradient></defs><path fill="url(#a)" d="M920.072 447.684c45.054-5.089 94.458-12.794 139.778-18.956 34.73 20.201 77.12 45.579 112.32 63.221 37.97-3.453 76.94-10.533 114.9-13.997 4.88-.445 30.87 9.522 36.94 11.711 15.79 3.991 51.21 17.453 67.44 23.478 13.68 4.294 27.87 10.134 41.34 13.826-3.74 9.45-7.59 19.819-14.65 27.409-37.49-15.382-95.62-34.546-135.02-46.312-6.2 29.806-8.95 61.168-15.78 90.343 9.86-1.525 18.64-2.716 28.66-2.926 62.49-1.314 120.36 42.954 137.75 102.747l-2.27 2.489c-42.08-73.141-133.05-95.141-205.21-52.219-43.51 25.883-65.35 61.161-82.36 107.668-18.7-50.278-40.09-92.02-91.86-115.722a141.86 141.86 0 0 0-110.204-4.084c-60.24 22.41-103.172 77.654-115.066 140.094-.926 4.863-2.442 11-2.688 15.918-1.556 6.099-1.512 5.636-4.607 1.147-35.09-69.035-111.205-94.88-180.516-59.567-36.324 18.507-65.459 49.897-78.663 88.723-4.545 13.573-6.833 30.915-8.305 45.135-6.463-6.484-10.636-10.265-18.141-15.64-5.361 4.098-5.674 2.472-6.11-3.906-28-16.943-66.077-16.535-95.028-2.212-20.95 10.365-35.443 24.695-49.136 43.235-5.052-32.488-8.447-71.134-11.902-104.075 26.501-52.242 66.81-87.543 121.413-107.596-2.324-7.704 2.378-6.833 5.713-1.781 17.573-5.156 38.363-8.864 56.579-11.058 4.062-3.701 7.3-9.293 11.201-13.609 10.348-17.946 45.124-57.116 60.192-70.251a229.78 229.78 0 0 1 151.062-57.698c14.746-.068 29.359 2.043 43.994 3.446 5.167.481 8.986-1.313 12.999-4.427 11.83-9.18 22.651-19.911 33.952-29.711 17.182-14.899 34.299-29.736 51.283-44.843"/><path fill="#bcc2cb" d="M1324.01 489.663c15.79 3.991 51.21 17.453 67.44 23.478-11.44.081-4.51 1.363-13.89-2.847-.49.686-.83 2.144-2.04 1.138-.1-.858.21-.962-.1-1.889-.98-.259-9.22-1.947-9.98-1.817-3.57.611-2.4-1.628-2.9-1.826-4.46-1.769-8.4-3.789-13.14-5.029-4.27-1.407-8.67-3.652-13.2-4.742-.64-.153-6.86-2.446-6.79-2.373-3.35-3.236-6.04-.151-5.4-4.093"/><path fill="#dfe3ea" d="M566.59 651.168c-.238 1.467-5.58 15.235-6.104 15.849-2.049.679-3.645-1.042-5.097-2.24 4.062-3.701 7.3-9.293 11.201-13.609"/><path fill="#0c0812" d="M493.097 677.616c-2.324-7.704 2.378-6.833 5.713-1.781a145 145 0 0 1-5.713 1.781"/><path fill="#0c0812" d="M527.75 848.264a218 218 0 0 0 4.941 3.159l1.169.747c-5.361 4.098-5.674 2.472-6.11-3.906"/><path fill="#dfe3ea" d="M819.485 793.519q2.293-.615 4.607-1.147c-1.556 6.099-1.512 5.636-4.607 1.147"/><path fill="#0e0b0d" d="M1047.82 460.389c7.28-1.833 27.89 12.019 35.16 16.117a4988 4988 0 0 1 80.74 46.429l10.87-.781c-10.24 60.97-13.92 127.258-24.94 187.393-16.1-32.258-22.66-43.763-49.36-68.392-40.58-35.52-102.605-48.923-154.718-36.783-10.304 2.401-19.637 5.463-29.61 8.868a3148 3148 0 0 1 18.905-137.935c37.246-4.322 75.023-10.514 112.953-14.916"/><path fill="#0e0b0d" d="M686.267 577.918c52.961-26.086 88.68-25.033 146.059-20.901-6.512 60.211-13.646 123.144-17.42 183.545-55.323-52.51-124.622-66.337-194.427-33.172 1.708-16.278 5.227-73.268 11.683-84.67 5.206-9.195 15.306-17.493 23.399-24.084 7.656-6.236 16.459-13.065 25.37-17.399 1.556-1.272 3.553-2.243 5.336-3.319"/><path fill="#0c0812" d="M686.267 577.918c.133 1.681.711 4.731-.33 6.231-2.57 1.07-3.143-1.532-5.006-2.912 1.556-1.272 3.553-2.243 5.336-3.319"/><path fill="#0e0b0d" d="m541.575 699.373 15.796-.911c-6.274 43.25-9.435 83.518-13.103 127.053a365 365 0 0 0-10.144-5.784c-32.424-17.564-63.88-19.462-98.797-9.228-10.061 3.716-16.733 6.232-26.417 11.053a1956 1956 0 0 1-3.345-31.495 161 161 0 0 1 15.348-23.974c30.122-39.45 72.097-60.396 120.662-66.714"/><defs><linearGradient id="b" x1="1140.501" x2="782.215" y1="907.41" y2="1018.296" gradientUnits="userSpaceOnUse"><stop offset="0" stop-color="#d1d6df"/><stop offset="1" stop-color="#f9fbff"/></linearGradient></defs><path fill="url(#b)" d="M977.499 646.35c41.191-4.036 99.971 13.936 103.551 65.446.96 13.85-2.59 35.056-3.93 49.335l-8.89 93.243a14384 14384 0 0 1-22.24 234.526c-2.05 19.42-3.18 39.04-5.54 58.4-2.65 21.68-14.55 40.4-35.02 49.51a67.6 67.6 0 0 1-25.984 5.66c-20.442.46-86.224-12.05-105.211-19.36 7.2 8.67 13.231 15.97 21.865 23.34 49.33 42.13 113.47 45.79 169.88 17.61 10.32-5.42 19.91-12.94 29.09-20.08l-.61.85c-23.57 32.13-61.11 55.79-101.693 62.34-75.04 12.09-157.95-45.12-171.553-120.23-1.478-8.16 2-32.78 2.904-42.46l6.963-75.83a12369 12369 0 0 1 16.751-181.654c2.939-30.855 5.552-65.192 10.761-95.567 2.655-15.488 16.375-42.542 26.319-54.658 24.816-30.235 54.339-45.775 92.587-50.421"/><path fill="#dfe3ea" d="M1259.92 649.262c43.77-15.351 107-7.543 124.48 41.911 5.67 16.045 1.24 44.464-.31 61.607l-6.22 68.049-3.8 41.106c-.38 4.168-1.19 15.945-2.01 19.392-.35 13.518-2.88 32.733-4.18 46.634l-7.29 82.559-7.12 79.21c-2.22 25.58-.87 56.82-20.57 75.49-16.98 16.1-41.16 20.39-63.55 15.7-30.05-6.29-59.57-11.18-88.25-22.43 50.24 72.79 136.44 94.64 210.77 43.06 2.93-2.03 5.79-4.17 8.56-6.42l3.3 1.12c-81.07 107.16-231.9 67.37-264.85-59.05-5.4-20.72 1.87-69.55 4.03-92.65 3.52-40.39 7.32-80.757 11.41-121.092l10.62-110.785c1.93-20.131 4.54-50.941 8.03-70.707a101.8 101.8 0 0 1 9.66-28.472c15.94-31.487 44.02-53.308 77.29-64.232"/><path fill="#bcc2cb" d="M1259.92 649.262c43.77-15.351 107-7.543 124.48 41.911 5.67 16.045 1.24 44.464-.31 61.607l-6.22 68.049-3.8 41.106c-.38 4.168-1.19 15.945-2.01 19.392-2.48-17.52 2.18-43.625 3.6-61.836 3.76-33.022 5.42-65.688 8.58-98.753 5.21-54.578-42.42-80.247-90.87-75.65-9.98.948-23.19 4.936-33.45 4.174"/><defs><linearGradient id="c" x1="1335.533" x2="823.139" y1="1432.434" y2="1424.751" gradientUnits="userSpaceOnUse"><stop offset="0" stop-color="#c9d0d9"/><stop offset="1" stop-color="#f8f9fd"/></linearGradient></defs><path fill="url(#c)" d="M860.163 1522.33c-18.715-12.98-33.139-40.6-37.372-63.34-10.919-58.66 30.312-121.86 89.241-133.54 13.492-2.67 30.163-3.88 44.142-5.72l89.706-12.06 62.29-8.77c22.44-3.18 38.55-6.18 61.12-5.25 85.86 3.55 153.86 57.66 166.61 144.26 5.05 34.32-1.33 61.21-5.75 94.94-70.32-23.61-153.3-36.84-227.58-11.4-6.24 2.13-7.8 15.8-10.86 20.94-16.69 32.77-48.65 22.81-77.45 18.1l-70.311-12.1c-10.125-1.76-46.874-6.67-54.607-9.99-9.822-3.15-21.368-9.33-29.179-16.07"/><path fill="#dfe3ea" d="M860.163 1522.33c4.867.72 5.565 1.31 9.489 4.11 1.961 1.4 6.121-.59 7.596 2.87.497 1.17 3.842 2.33 5.098 3.65l-.087-.04.101.14-.019.11c5.633 1.22 4.207-.52 7.001 5.23-9.822-3.15-21.368-9.33-29.179-16.07"/><path fill="#0e0b0d" d="M980.135 1354.6c33.985-3.98 71.175 16.32 91.455 42.91 4.31 5.56 11.64 19.27 10.98 26.04-3.25 32.98-10.27 68.2-16.19 100.72-2.57 14.13-34.19 5.67-44.46 4l-49.736-7.83c-22.946-3.18-72.596-7.07-89.516-19.93-33.48-25.46-33.636-79.83-7.885-110.4 28.569-33.92 66.027-31.4 105.352-35.51"/><path fill="#dfe3ea" d="M688.747 738.42c32.47-3.241 82.012 18.295 87.597 54.567 4.032 26.19 1.527 60.647.822 87.78l-2.626 122.743-2.319 116c-.132 9.24-.21 18.51-.391 27.74-.601 30.65 2.334 70.45-27.822 89.37a46.6 46.6 0 0 1-21.361 7.05c-14.981 1.28-56.142-6-71.527-9.41 37.442 43.58 105.69 54.75 157.073 31.19 4.255-1.95 9.408-5.69 13.714-6.77l-1.017 1.92c-.521.64-1.047 1.27-1.579 1.9a126.98 126.98 0 0 1-86.71 43.83c-33.995 2.7-66.672-9.69-92.078-31.74-48.02-41.68-44.323-84.2-47.786-141.35a3418 3418 0 0 0-6.442-87.24c-4.7-57.35-7.275-115.202-11.295-172.635-.847-12.087-1.065-23.574 1.025-35.557a117 117 0 0 1 26.928-57.36c22.096-25.72 52.296-39.462 85.794-42.028"/><path fill="#dfe3ea" d="M464.442 854.349c30.648-1.712 53.88 17.952 57.465 48.184 3.174 26.771 5.427 53.531 8.19 80.338 5.148 47.399 9.972 94.839 14.473 142.309 1.348 14.65 6.455 49.53 3.391 62.39-9.141 38.39-41.042 48.15-74.345 40.77 29.931 31.62 78.474 31.51 116.836 17.61-3.814 3.8-8.15 7.36-12.25 10.89-15.116 11.79-28.689 18.6-47.939 21.65-48.345 7.67-105.802-24.58-111.701-75.99-2.385-20.79-4.295-41.87-6.477-62.76l-11.091-97.73-7.885-65.329c-1.382-11.46-4.396-32.463-3.62-43.426a87.07 87.07 0 0 1 17.835-46.795c14.677-18.953 33.571-29.155 57.118-32.111"/><path fill="#b46832" d="M1432.79 526.967c2.68.917 6.15 2.004 8.7 3.044a14037 14037 0 0 0 71.23 246.317c5.15 17.266 5.94 40.995 11.01 53.172 15.62 37.549 32.08 75.765 48.47 112.957l65.23 150.933c10.89 25.64 31.28 66.14 36.48 91.01 8.26 37.65 2.61 77.01-15.89 110.82-11.27 20.47-34.38 43.59-48.79 62.86-4.15 5.55-9.71 10.43-13.76 16.73 4.97 5.33-2.47 13.93-7.4 8.94-4.4 4.68-19.77 23.05-22.58 28.08-1.15 1.24-2.28 2.5-3.39 3.77-4.67 5.55-27.71 32.41-30.52 37.37-1.44 1.51-2.73 2.84-4.06 4.45l-52.99 64.82c-37.24 45.75-74.32 90.73-139.03 95.33-33.35 2.36-78.62-10.95-112.57-16.98l-4.01-.98c-7.84-.56-26.91-4.75-34.89-6.32l-57.21-10.86c1.92-3.24 4.95-7.35 7.15-10.54 30.95 7.03 69.71 12.05 101.07 16.05 29.29 3.74 61.53 11.15 90.44 6.26 72.33-12.23 99.76-55.01 141.87-107.34 16.25-20.19 36.61-42.63 51.34-62.77.95-1.06 1.82-2.01 2.73-3.12 6.64-9.04 16.43-20.29 23.68-29.47 1.12-1.23 2.24-2.46 3.37-3.69 11.75-14.19 31.46-37.45 41.91-51.92 2.07-2.14 3.72-4.2 5.68-6.43 7.84-9.63 15.92-19.48 23.58-29.19 58.81-74.61 18.72-137.98-13.4-211.12-35.95-81.86-70.15-160.845-105.9-242.537-8.37-19.143-8.02-41.319-13.98-61.832l-48-161.774c-3.55-12.082-7.18-24.14-10.88-36.173-2.76-8.701-7.92-23.748-9.34-32.458 7.06-7.59 10.91-17.959 14.65-27.409"/><path fill="#0c0812" d="M1588.07 1383.75c2.31-3.1 4.78-6.09 7.4-8.94 4.97 5.33-2.47 13.93-7.4 8.94"/><path fill="#bcc2cb" d="M1306.06 1323.18c34-10.83 58.93-27.62 84.98-51.8 19.07-17.69 28.97-28.8 51.06-44.38 34.17-24.1 86.97-47.06 129.6-39.29 2.15.09 17.52-.27 8.17 4.38-37.24 23.45-47.97 45.4-71.62 79.24-16.23 23.22-31.97 42.92-47.24 67.8-34.91 56.89-57.84 108.05-78.94 170.75-9.07-68.65-32.15-132.57-76.01-186.7"/><path fill="#bcc2cb" d="M1571.7 1187.71c2.15.09 17.52-.27 8.17 4.38-1.99-2.2-5.33-3.07-8.17-4.38"/><path fill="#bcc2cb" d="M1484.04 927.612c5.2 6.055 19.99 48.45 24.06 58.801 25.97 65.957 53.39 131.447 79.03 197.517l-12.83-6.88c-37.38-18.17-73.66-39.2-110.38-58.66 3.27-17.65 5.78-43.79 7.81-61.77q4.995-42.3 9.06-84.717c1.23-14.327 1.51-30.405 3.25-44.291"/><path fill="#0c0812" d="M1590.38 1335.89c-6.11-4.37 2.52-18.03 5.68-6.43-1.96 2.23-3.61 4.29-5.68 6.43"/><path fill="#0c0812" d="M1527.52 1457.42c1.33-1.61 2.62-2.94 4.06-4.45 4.47 3.2 2.98 8.5-2.63 8.99-.82.07-1.18-3.52-1.43-4.54"/><path fill="#0c0812" d="m1218.92 1599.61 4.01.98c.32.32 2.76 2.44 2.74 3.01-2.15 2.76-13.36 3.28-7.58-2.89z"/><path fill="#0c0812" d="M1518.69 1424.09c-.37-.06-1.77-.22-2.23-.42-.51-.23-.89-.67-1.05-1.21-1.12-3.65 6.5-12 6.05-2.98l-.04 1.49c-.91 1.11-1.78 2.06-2.73 3.12"/><path fill="#0c0812" d="M1432.82 1575.49c5.42 2.06 4.66 2.97 2.43 8-5.81-3.55-6.65-2.46-2.43-8"/><path fill="#0c0812" d="M1562.1 1415.6c1.11-1.27 2.24-2.53 3.39-3.77 4.33 2.82 2.75 5.2-.95 7.99-.2.15-2.24-3.86-2.44-4.22"/><path fill="#0c0812" d="M1642.76 1191.86c1.14-.85 2.76-.65 3.65.46.89 1.12.74 2.74-.34 3.67-.73.63-1.75.81-2.66.47-.9-.34-1.55-1.15-1.69-2.11-.13-.96.26-1.91 1.04-2.49"/><path fill="#bcc2cb" d="m1400.43 1195.13 10.08-8.83c-1.8 2.89-4.56 7.66-6.78 9.95z"/><path fill="#0c0812" d="M1545.1 1391.5c-1.66-1.54-3.79-2.3-3.2-4.37 2.31-1.29 4.33-.31 6.57.68-1.13 1.23-2.25 2.46-3.37 3.69"/><path fill="#bcc2cb" d="M1433.75 698.228c.38 1.25 1.88 5.099.82 6.255-1.1.133-2.7-3.165-3.09-3.766z"/></svg>