<svg xmlns="http://www.w3.org/2000/svg" width="2048" height="2048" viewBox="0 0 2048 2048"><path fill="#24212b" d="M0 0h2048v2048H0z"/><path d="M1370.8 118.562c79.84-3.935 149.64 6.04 227.29 12.811-61.35 23.5-122.99 46.832-181.66 76.359-19.52 9.831-39.79 18.721-58.41 30.239-103.56 64.082-183.8 161.611-193.47 286.697-48.53 3.711-92.45 7.131-141.13 8.007 32.39 28.228 91.76 45.793 134.11 52.959-62.46 43.333-89.64 117.907-105.9 188.854-51.54 27.269-99.22 41.615-156.372 50.234 53.318 13.908 97.454 15.52 151.332 2.47l-1.82 3.003c-38.72 64.908-33.26 138.981-15.61 208.905-27.96 34.19-57.423 63.39-94.071 88.14-8.005 5.41-17.33 10.99-24.756 17.01l-.803.66c54.621-7.73 91.82-26.48 137.1-55.92 8.3 72.63 29.07 138.51 81.7 192.02a1992 1992 0 0 1-83.3 155.44c52.13-25.45 78-54 97.11-107.99 19.89 48.42 64.7 100.77 108.42 128.99 17.28 11.15 33.76 18.68 52.33 27.25-2.05 87.3 32.74 138.72 93.36 196.62 74.27 70.93 162.34 105.09 260.98 126.62 59.06 11.52 145.13 16.07 204.86 7.46-27.71 20.17-64.09 36.84-95.65 50.07-100.41 42.1-218.29 72.9-327.71 76.55-238.88 7.98-477.228-84.31-652.679-244.88-180.922-165.57-291.826-392.18-299.362-638.19-7.649-249.676 82.43-472.722 251.633-654.007C903.743 230.67 1130.7 127.907 1370.8 118.562"/><path fill="#e5e5e3" d="M1367.56 167.117c7.25-.413 15.14-1.034 22.34-.824-110.81 57.265-218.5 132.34-258.2 257.631a346.5 346.5 0 0 0-11.92 50.151c-85.27 12.092-172.564-1.184-246.138-47.796C893.756 493.87 939 553.017 1001.4 586.696a406.6 406.6 0 0 0 63.03 27.168c-30.44 38.043-46.98 78.222-55.99 126.003-102.289 39.974-220.293 40.944-321.366-3.482a598 598 0 0 1-11.301-5.125c13.336 18.911 24.861 34.095 41.265 50.687 54.495 55.122 130.022 92.211 206.088 105.577a296 296 0 0 0 48.824 4.437c-13.555 46.383-11.54 80.125-1.379 126.199-45.164 64.03-141.271 110.29-217.17 123.35a443.2 443.2 0 0 1-98.895 5.4c20.474 10.73 42.802 19.21 64.159 27.14 83.288 30.91 165.339 40.55 250.98 12.28 13.831-4.57 27.059-9.81 40.695-14.49 11.96 47.33 23.92 77.77 53.7 117.15-53.39 110.99-100.915 183.18-215.097 238.5 27.784 2.54 59.369 3.79 87.077.94 67.14-6.91 164.57-44.45 206.28-99.32 31 46.25 62.12 67.26 109.63 92.12 10.63 96.29 58.59 161.37 131.97 220.92 60.54 49.12 129.98 78.25 204.59 99.13 23.35 6.53 46.4 10.6 69.53 16.36-22.65 6.34-43.81 12.38-66.9 17.06-8.77 3.37-29.08 7.35-38.85 9.15a679.3 679.3 0 0 1-140.22 12.08c-230.66-2.76-467.508-110.65-627.948-275.33-158.669-160.9-246.869-378.28-245.171-604.25 5.327-229.311 101.7-447.073 267.844-605.212C932.302 289.304 1105.86 196.796 1279.6 174.805c23.71-3.002 64.56-8.03 87.96-7.688"/><path fill="#cb8237" d="M1591.12 1874.7c-8.77 3.37-29.08 7.35-38.85 9.15a679.3 679.3 0 0 1-140.22 12.08c-230.66-2.76-467.508-110.65-627.948-275.33-158.669-160.9-246.869-378.28-245.171-604.25 5.327-229.311 101.7-447.073 267.844-605.212C932.302 289.304 1105.86 196.796 1279.6 174.805c23.71-3.002 64.56-8.03 87.96-7.688l-.9.169c-15.56 2.812-38.65 4.515-55.05 6.588a759 759 0 0 0-83.99 15.799C803.494 296.878 505.434 729.814 582.079 1165.19c40.441 229.73 169.129 423.31 359.416 556.49 142.735 100.72 326.195 166.67 501.635 165.89 35.41-.43 70.77-2.73 105.94-6.89 13.5-1.6 29.37-4.74 42.05-5.98"/></svg>