<svg xmlns="http://www.w3.org/2000/svg" width="2048" height="2048" viewBox="0 0 2048 2048"><path fill="#27242c" d="M0 0h2048v2048H0z"/><path fill="#010101" d="M1565.73 74.455c71.66-1.983 157.29 5.171 230.26 7.843-87.49 31.568-358.11 112.094-395.34 199.219 1.7 20.974 9.25 57.692 12.84 79.747-39.45-2.549-85-10.486-125.93-13.635l49.12 104.614c-14.13-2.503-40.02-4.206-55.05-5.63l-99.64-9.415a7802 7802 0 0 1 80.44 123.063c-54.52-5.131-112.95-7.198-168.31-11.657 11.59 12.024 25.54 28.871 36.82 41.635a6102 6102 0 0 1 75.51 86.6c-23.16 1.582-50.99 1.285-74.57 1.608l-119.66 1.429c50.79 46.153 103.56 89.995 154.14 136.674-52.02 6.353-104.61 10.12-156.75 15.612-15.405 1.623-31.223 3.245-46.67 4.115 37.76 25.73 78.77 49.527 117.02 74.775 16.05 10.595 47.64 28.568 61.59 40.021-46.43 13.637-93.64 26.185-140.19 39.515-19.305 5.528-39.354 10.362-58.457 16.182 12.783 7.81 49.641 23.05 65.517 30.21l129.44 58.62c-67.16 28.64-138.051 57.13-204.232 86.5 7.29 3.96 37.049 14.2 46.019 17.48l108.553 39.64c12.3 4.52 41.7 14.51 52.35 19.81-59.56 31.81-126.91 69.06-185.288 102.93 22.814 3.82 49.388 10.11 72.328 14.92l125.24 25.95c-26.22 25.71-64.18 55.94-92.26 80.71-26.27 23.16-57.18 50.74-84.098 72.23 17.162 35.77 63.948 81.35 97.408 102.69 5.1 3.08 10.36 5.9 15.74 8.44 75.49 34.88 147.75-10.84 143.02-92.94-3.43-59.59-30.84-136.66-52.06-192.24 28.77 24.2 56.8 58.29 85.71 83.21 3.91 3.37 10.61 10.71 13.82 14.79 48.96 62.59 88.46 135.52 93.59 216.15 10.19 160.17-114.28 277.53-270.87 284.46-165.019 7.3-309.716-79.98-410.333-205.87-237.921-297.7-228.514-725.01-60.229-1053.298a1288 1288 0 0 1 185.321-265.56C973.684 283.5 1191.65 141.926 1420.58 92.677a861 861 0 0 1 145.15-18.222"/><path fill="#dee0e1" d="M1592.59 112.854c.16-.024 27.98-1.548 18.47.752-1.57.47-6.09 1.943-7.45 2.149-48.62 17.726-95.78 35.068-140.08 61.636-40.11 24.055-80.9 49.919-103.5 92.077-6.97 13.006-1.51 25.788 2.02 38.617l.39 2.711c.83 3.918 1.99 5.359.92 8.589-10.21-.568-25.58-3.186-36.01-4.686a1961 1961 0 0 1-69.33-11.079c-1.76-.158-17.94-2.761-18.46-3.18.46-.158.92-.316 1.39-.474l-.77-2.946c-7.37-.659-15.02-1.235-22.33-2.173 1.98 4.347 8.31 17.325 9.58 21.134 14.09 28.529 29.6 61.578 42.9 90.59l.22 1.733c1.21 1.599.74.631 1.12 3.021-13.8 5.653-90.83-8.397-109.98-10.707-4.96-.598-33.1-9.078-39.44-11.062-3.01-.562-4.56-1.08-7.48-2.013-1.88-.132-1.21-.07-3-1.085l-.16-2.661c-3.69-.603-4.56-1.403-7.5-.221l.13 2.077c23.34 30.693 44.61 67.484 67.13 99.223 6.88 9.704 14.1 21.783 21.39 30.949.16 3.104-.27 1.612 2.16 4.288l.14 1.29c-23.54 6.123-135.05-5.947-160.6-12.641-4.98-.042-15.32-3.185-20.75-4.345l.21.073c.88-.184 3.16-.229 4.14-.326l1.47-2.171c-6.56-.598-17.75-1.953-23.947-1.647-.595 1.41-.611.753-.228 1.96 16.255 14.567 45.105 48.357 61.015 66.043 17.27 19.213 43 45.52 58.37 64.449l4.07 4.937 2.78 3.002-.56 1.318c-4.2 1.35-23.57 6.062-27.51 6.141-43.22.867-86.84.286-130.081.33-11.525.012-30.392-3.931-42.149-5.845-2.937-.226-4.256-.717-7.138-1.452l-1.891-.262c-.84 1.264-1.398 1.951-2.022 3.329 50.238 45.923 105.921 93.978 157.451 139.11l3.71 3.089 3.76 2.889c2.65 3.531-6.13 4.01-8.17 4.256-31.94 7.416-67.175 8.778-100.023 10.976-31.528 2.11-74.697 8.277-105.017 1.268l-2.095.331c-3.765-1.585-4.731-1.84-8.749-2.725l-3.757.701-.559 1.045c4.202 4.244 25.124 18.122 31.455 22.446l65.649 44.733c2.569 1.749 21.237 14.259 22.36 15.494 13.546 8.206 29.011 19.933 42.366 28.804 5.17 3.432 24.54 16.482 27.99 19.764 1.91 1.789 1.79 1.648 4.34 2.325-2.01 2.465-2.1 2.072-5.3 3.142-5.91 2.43-22.89 9.619-28.2 10.847-23.825 5.512-51.401 11.669-75.25 16.154-19.307 3.63-63.9 14.623-81.122 14.124-8.673 1.579-16.783-.124-23.679 2.315-1.895.254-6.583-1.831-9.78-2.226l-3.317 1.475-.06 1.251c3.973 2.747 35.878 17.756 42.548 21.036l117.078 56.91c11.36 5.5 50.362 23.79 59.092 29.76l2.19 2.39 1.4.72c-3.87 3.28-22.69 13.51-27.55 15.4-47.556 18.52-95.766 35.79-143.734 53.23-7.893 2.87-21.124 4.8-29.504 6.31-3.071 1.02-10.359 2.31-13.607 2.82l-1.391-.05-.933-2.21c-3.541 1.42-8.229 3.14-11.559 4.8 6.424 2.09 30.172 9.5 34.906 12.49 17.853 5.48 198.132 70.2 200.612 73.78l.51 2.83 3.99-.84.84.58c-18.68 18.56-57.771 34.99-82.393 46.21-38.362 17.48-77.556 40.55-117.946 51.66a68 68 0 0 1-9.608 2.74l-4.339 2.48-1.602-.72c-.213-.6-.425-1.21-.638-1.81l-.149-.18-11.704 6.19a11505 11505 0 0 1 167.668 33.08c11.42 2.25 73.491 13.68 80.261 17.3l1.21 2.12c3.16-1.74 3.19-2.08 6.87-1.85l.3 1.2c-4.57 5.15-37.74 30.12-44.96 35.47-31.27 23.16-62.273 48.13-94.203 70.29-8.843 6.14-26.791 15.5-36.538 20.68-3.113 2.11-5.826 3.27-9.165 4.83-2.535 2.46-2.285 1.97-7.206 1.97-6.774 4.31-13.065 9.32-19.666 13.9 9.192-2.4 63.803-17.65 68.281-15.99l.657 1.68c5.806 10.73 10.465 22.02 16.706 33.03a275.7 275.7 0 0 0 82.074 89.31c15.88 11.07 33.68 21.19 51.89 27.94 115.49 42.79 205.06-44.29 182.36-162.59l-2.99-12.83c3.3-1.43 1.2.05 3.83-.26.9-.89-1.1-.63 1.17-3.52 25.83 34.52 46.41 78.29 57.54 120.22 15.94 57.88 10.96 120.64-19.95 173.04-85.65 145.17-292.82 109.2-413.241 34.73-155.071-95.89-246.777-256.87-289.792-429.31a933.4 933.4 0 0 1-27.544-221.15c.486-193.38 66.031-401.557 165.001-566.727 117.076-195.386 282.556-347.67 490.586-441.59 42.56-19.215 97.9-41.424 143.11-52.684 55.84-19.422 159.12-31.218 217.58-31.845"/><path fill="#f2eae3" d="m1267.29 1544.78 2.44-1.21c7.48 10.46 9.88 64.55 6.82 78.44-36.69 166.32-243.49 106.35-314.231.68-11.048-16.52-26.882-44.47-29.681-63.14.658-1.19.69-1.54 1.622-2.46 5.806 10.73 10.465 22.02 16.706 33.03a275.7 275.7 0 0 0 82.074 89.31c15.88 11.07 33.68 21.19 51.89 27.94 115.49 42.79 205.06-44.29 182.36-162.59"/><path fill="#c28d5a" d="M949.446 640.175a5194 5194 0 0 1 120.564-1.097c10.03.004 43.07-.416 51.58 1.659l-.56 1.318c-4.2 1.35-23.57 6.062-27.51 6.141-43.22.867-86.84.286-130.081.33-11.525.012-30.392-3.931-42.149-5.845.439-2.777 23.912-1.963 28.156-2.506"/><path fill="#c28d5a" d="m1044.3 1266.1 3.99-.84.84.58c-18.68 18.56-57.771 34.99-82.393 46.21-38.362 17.48-77.556 40.55-117.946 51.66l-2.655-1.53c47.666-22.62 94.592-47.24 142.531-69.42 18.423-8.52 37.563-17.51 55.633-26.66"/><path fill="#c28d5a" d="M838.207 981.315c17.237-5.09 50.081-11.22 68.41-15.099L1034.8 939.21l.85 2.734c-5.91 2.43-22.89 9.619-28.2 10.847-23.825 5.512-51.401 11.669-75.25 16.154-19.307 3.63-63.9 14.623-81.122 14.124-8.673 1.579-16.783-.124-23.679 2.315l1.627-2.202c1.278-.557 1.348-.732 2.529-.754 2.368-.453 4.249-.813 6.652-1.113"/><path fill="#aa7d53" d="M831.555 982.428c2.368-.453 4.249-.813 6.652-1.113 3.843 2.123 7.482 1.14 12.871 1.754-8.673 1.579-16.783-.124-23.679 2.315l1.627-2.202c1.278-.557 1.348-.732 2.529-.754"/><path fill="#c28d5a" d="m1035.15 1095.98 1.4.72c-3.87 3.28-22.69 13.51-27.55 15.4-47.556 18.52-95.766 35.79-143.734 53.23-7.893 2.87-21.124 4.8-29.504 6.31-1.031-.67-1.672-1.26-2.612-2.06 47.867-18.32 96.652-35.33 144.652-53.42 7.612-2.86 51.948-19.65 57.348-20.18"/><path fill="#c28d5a" d="M861.95 805.884c16.38-2.928 49.067-4.729 67.162-6.207l128.378-10.009c4.14 1.488 6.63 1.027 9.5 3.972-31.94 7.416-67.175 8.778-100.023 10.976-31.528 2.11-74.697 8.277-105.017 1.268"/><path fill="#c28d5a" d="M1069.89 1424.91c3.16-1.74 3.19-2.08 6.87-1.85l.3 1.2c-4.57 5.15-37.74 30.12-44.96 35.47-31.27 23.16-62.273 48.13-94.203 70.29-8.843 6.14-26.791 15.5-36.538 20.68l-1.358-1.68 99.865-73.47c.624-.58.504-.54 1.264-.88 22.79-16.71 46.16-33.03 68.76-49.76"/><path fill="#f2eae3" d="M995.355 502.306c16.255 14.567 45.105 48.357 61.015 66.043 17.27 19.213 43 45.52 58.37 64.449-1.36.835-2.27 1.917-3.95 1.61-15.29-2.804-82.42-87.219-95.47-103.144-6.11-7.449-14.84-15.517-19.569-23.804-1.313-2.302-1.041-2.744-.396-5.154"/><path fill="#f2eae3" d="m905.864 641.462 4.375 2.834c50.238 45.923 105.921 93.978 157.451 139.11-8.88-.467-25.45-12.5-32.38-18.49-27.24-23.55-52.467-49.906-79.335-73.897-8.288-7.4-49.203-42.501-50.111-49.557"/><path fill="#f2eae3" d="M1181.52 515.541c-2.03-3.852-6.17-8.948-8.89-12.528-26.02-34.336-44.42-73.602-67.32-109.969-1.79-2.851-1.92-4.324-1.07-7.391 23.34 30.693 44.61 67.484 67.13 99.223 6.88 9.704 14.1 21.783 21.39 30.949-4.19.479-7.05.07-11.24-.284"/><path fill="#c28d5a" d="M1043.79 506.704c34.64 1.521 70.84 5.946 105.58 8.508 6.47.478 41.35 3.403 45.55 4.901l.14 1.29c-23.54 6.123-135.05-5.947-160.6-12.641 5.26-3.682 3.63-1.011 9.33-2.058"/><path fill="#c28d5a" d="m1123.94 387.846 92.11 13.049c15.48 2.25 39.62 6.589 54.5 7.409 1.21 1.599.74.631 1.12 3.021-13.8 5.653-90.83-8.397-109.98-10.707-4.96-.598-33.1-9.078-39.44-11.062z"/><path fill="#f2eae3" d="M1040.98 1264.86c-37.97-6.04-54.394-12.43-89.705-26.86l-64.687-25.8c-11.598-4.68-20.336-9.02-32.394-13.46l.574-.7c3.347.59 3.882.66 6.922 1.94 23.162 9.22 47.504 20.34 70.862 28.75 26.117 9.39 72.078 33.1 99.348 32.59l.91-1.06-2.15-.77c-50.916-17.73-101.798-37.91-152.751-55.95-11.003-3.89-24.57-7.32-34.873-12.64l.142-1.41c17.853 5.48 198.132 70.2 200.612 73.78z"/><path fill="#c28d5a" d="M1263.71 301.538c32.77 3.009 66.02 5.848 98.73 9.258.83 3.918 1.99 5.359.92 8.589-10.21-.568-25.58-3.186-36.01-4.686a1961 1961 0 0 1-69.33-11.079c2.69-1.516 2.66-1.442 5.69-2.082"/><path fill="#27242c" d="m1043.79 1263.27.51 2.83c-18.07 9.15-37.21 18.14-55.633 26.66-47.939 22.18-94.865 46.8-142.531 69.42l2.655 1.53a68 68 0 0 1-9.608 2.74l-4.339 2.48-1.602-.72c-.213-.6-.425-1.21-.638-1.81l-.149-.18c15.566-8.92 40.658-19.69 57.283-28.25 49.433-25.44 101.671-48.19 151.242-73.11z"/><path fill="#aa7d53" d="m846.136 1362.18 2.655 1.53a68 68 0 0 1-9.608 2.74c2.669-2.46 3.357-2.64 6.953-4.27"/><path fill="#27242c" d="M851.106 803.49c72.597-4.215 147.365-13.588 220.294-16.995l3.76 2.889c2.65 3.531-6.13 4.01-8.17 4.256-2.87-2.945-5.36-2.484-9.5-3.972l-128.378 10.009c-18.095 1.478-50.782 3.279-67.162 6.207l-2.095.331c-3.765-1.585-4.731-1.84-8.749-2.725"/><path fill="#aa7d53" d="M1075.16 789.384c2.65 3.531-6.13 4.01-8.17 4.256-2.87-2.945-5.36-2.484-9.5-3.972 6.31-.637 11.38-.992 17.67-.284"/><path fill="#27242c" d="m1032.96 1093.59 2.19 2.39c-5.4.53-49.736 17.32-57.348 20.18-48 18.09-96.785 35.1-144.652 53.42.94.8 1.581 1.39 2.612 2.06-3.071 1.02-10.359 2.31-13.607 2.82l-1.391-.05-.933-2.21c16.158-7.6 50.01-18.86 67.932-25.49 48.288-18.01 96.688-35.72 145.197-53.12"/><path fill="#aa7d53" d="M833.15 1169.58c.94.8 1.581 1.39 2.612 2.06-3.071 1.02-10.359 2.31-13.607 2.82 3.627-2.18 6.955-3.55 10.995-4.88"/><path fill="#27242c" d="M1036.61 936.477c1.91 1.789 1.79 1.648 4.34 2.325-2.01 2.465-2.1 2.072-5.3 3.142l-.85-2.734-128.183 27.006c-18.329 3.879-51.173 10.009-68.41 15.099-2.403.3-4.284.66-6.652 1.113-1.181.022-1.251.197-2.529.754l-1.627 2.202c-1.895.254-6.583-1.831-9.78-2.226 69.708-13.827 142.468-32.712 212.461-45.357 2.17-.464 4.35-.906 6.53-1.324"/><path fill="#aa7d53" d="M1034.8 939.21c2.17-.243 3.98-.312 6.15-.408-2.01 2.465-2.1 2.072-5.3 3.142z"/><path fill="#27242c" d="m905.864 641.462-.513-1.689.733-1.189c5.238-.987 44.673-.94 52.988-1.068a4410 4410 0 0 1 112.568-.921c15.67.181 31.57-.048 47.17 1.14l2.78 3.002c-8.51-2.075-41.55-1.655-51.58-1.659-40.19-.101-80.381.265-120.564 1.097-4.244.543-27.717-.271-28.156 2.506-2.937-.226-4.256-.717-7.138-1.452l-1.891-.262c-.84 1.264-1.398 1.951-2.022 3.329z"/><path fill="#976844" d="M914.152 641.229c4.455-2.088 29.322-1.329 35.294-1.054-4.244.543-27.717-.271-28.156 2.506-2.937-.226-4.256-.717-7.138-1.452"/><path fill="#27242c" d="M884.988 1557.5c5.866-5.57 38.077-28.47 46.443-34.64l92.979-68.34c13.72-9.99 31.36-21.55 44.27-31.73l1.21 2.12c-22.6 16.73-45.97 33.05-68.76 49.76-.76.34-.64.3-1.264.88l-99.865 73.47 1.358 1.68c-3.113 2.11-5.826 3.27-9.165 4.83-2.535 2.46-2.285 1.97-7.206 1.97"/><path fill="#976844" d="m900.001 1549.02 1.358 1.68c-3.113 2.11-5.826 3.27-9.165 4.83 3.067-3.33 4.102-3.83 7.807-6.51"/><path fill="#f2eae3" d="M1227.43 315.981c14.09 28.529 29.6 61.578 42.9 90.59-2.62-.508-5.24-1.148-7.86-1.549-7.44-11.595-36.67-78.462-35.04-89.041"/><path fill="#27242c" d="M1019.53 501.993a9306 9306 0 0 1 161.99 13.548c4.19.354 7.05.763 11.24.284.16 3.104-.27 1.612 2.16 4.288-4.2-1.498-39.08-4.423-45.55-4.901-34.74-2.562-70.94-6.987-105.58-8.508-5.7 1.047-4.07-1.624-9.33 2.058-4.98-.042-15.32-3.185-20.75-4.345l.21.073c.88-.184 3.16-.229 4.14-.326z"/><path fill="#aa7d53" d="M1018.06 504.164c4.23.337 23.67 1.617 25.73 2.54-5.7 1.047-4.07-1.624-9.33 2.058-4.98-.042-15.32-3.185-20.75-4.345l.21.073c.88-.184 3.16-.229 4.14-.326"/><path fill="#f2eae3" d="M1592.59 112.854c.16-.024 27.98-1.548 18.47.752-1.57.47-6.09 1.943-7.45 2.149-12.51-8.029-153.08 10.984-176.13 17.486-7.21 2.034-48.42 12.512-51.61 12.211l-.86-.753c55.84-19.422 159.12-31.218 217.58-31.845"/><path fill="#8d8883" d="M1592.59 112.854c.16-.024 27.98-1.548 18.47.752-6.77-.883-11.7-.368-18.47-.752"/><path fill="#27242c" d="M1111.61 383.797c50.34 6.697 100.63 13.772 150.86 21.225 2.62.401 5.24 1.041 7.86 1.549l.22 1.733c-14.88-.82-39.02-5.159-54.5-7.409l-92.11-13.049-1.69 1.71c-3.01-.562-4.56-1.08-7.48-2.013-1.88-.132-1.21-.07-3-1.085z"/><path fill="#976844" d="M1114.77 387.543c4.73-.628 4.67-.79 9.17.303l-1.69 1.71c-3.01-.562-4.56-1.08-7.48-2.013"/><path fill="#27242c" d="m1240.18 297.02 121.87 11.065.39 2.711c-32.71-3.41-65.96-6.249-98.73-9.258-3.03.64-3 .566-5.69 2.082-1.76-.158-17.94-2.761-18.46-3.18.46-.158.92-.316 1.39-.474z"/><path fill="#aa7d53" d="M1240.95 299.966c7.02.323 15.81.311 22.76 1.572-3.03.64-3 .566-5.69 2.082-1.76-.158-17.94-2.761-18.46-3.18.46-.158.92-.316 1.39-.474"/><path fill="#f2eae3" d="M1030.08 937.801c-.65-2.263-.99-2.135-.44-4.26.51.065-61.395-41.448-63.869-43.601-.2-.655.244-1.388.483-2.031 13.546 8.206 29.011 19.933 42.366 28.804 5.17 3.432 24.54 16.482 27.99 19.764-2.18.418-4.36.86-6.53 1.324"/><path fill="#c28d5a" d="m742.605 612.026 2.328 2.094c-.064 2.098-.209 3.213-.51 5.298-111.732 172.9-181.217 410.902-176.148 616.982a947.5 947.5 0 0 0 21.969 173.79c38.24 177.74 128.713 345.93 281.97 449.28 84.715 57.13 194.916 89.35 296.476 67.46a201 201 0 0 0 33.85-10.29l2.02 1.46a228 228 0 0 1-61.99 20.27c-102.78 18.59-209.476-14.93-294.283-72.87-160.052-109.35-253.464-291.36-286.687-479.27-39.749-224.83 4.145-451.256 108.693-652.894a1091 1091 0 0 1 72.312-121.31"/><path fill="#976844" d="M742.605 612.026c4.286-7.172 9.518-14.223 14.364-21.058 25.12-35.425 51.393-69.839 80.257-102.31 4.165-4.685 16.446-20.207 21.004-22.749-4.88 7.131-12.273 14.911-18.004 21.652a1903 1903 0 0 0-29.698 36.293c-24.801 31.61-44.513 62.336-66.105 95.564.301-2.085.446-3.2.51-5.298z"/><path fill="#f2eae3" d="M1258.05 1512.86c3.02 4.03 9.04 11.51 11.25 15.31-2.27 2.89-.27 2.63-1.17 3.52-2.63.31-.53-1.17-3.83.26-1.88-7.12-3.83-12.24-6.25-19.09"/><path fill="#3d2615" d="M1215.67 1910.59c1.48-1.09 8.72-5.72 10.43-4.29-.48 1.46-9.49 6.17-11.52 7.09z"/><path fill="#976844" d="m1215.67 1910.59-1.09 2.8c-2.03.64-7.79 3.61-10.02 4.71l-2.02-1.46c3.78-1.69 7.64-3.25 11.32-5.15z"/></svg>