<svg xmlns="http://www.w3.org/2000/svg" width="2048" height="2048" viewBox="0 0 2048 2048"><path fill="#262931" d="M0 0h2048v2048H0z"/><path fill="#010101" d="M1308.6 41.665c19.32 24.474 38.57 60.41 52.4 88.423a1251.7 1251.7 0 0 1 101.41 294.986 1529 1529 0 0 1 28.75 207.423 1596.47 1596.47 0 0 1-258.47 959.273c-9.43 17.12-30.21 45.54-42.14 62.41a1476.2 1476.2 0 0 1-269.817 290.8c-24.675 19.99-57.188 44.66-84.152 61.21a1126 1126 0 0 0 85.406-151.25c90.163-194.41 155.403-467.84 133.743-683.04-15.47-150.76-76.329-283.018-190.481-383.818-75.773-66.91-169.487-124.16-238.514-195.937A397.74 397.74 0 0 1 517.141 361.1C504.8 250.251 544.696 130.415 613.802 43.837c.421 2.21-7.906 39.733-8.686 46.516C589.523 226.002 645.055 357.9 758.697 435.71a360.95 360.95 0 0 0 270.333 57.55 343.48 343.48 0 0 0 219.43-145.817c58.21-85.409 79.24-205.054 60.14-305.778"/><path fill="#d3d2d3" d="M1342.23 178.844c-.47-6.562-.35-11.838-.98-18.965 5.99 12.847 12.6 28.936 16.9 42.484 33.92 82.742 52.75 174.956 67.09 262.938 78.99 484.346-101.98 969.959-407.13 1342.939-16.39 20.03-42.501 50.87-61.89 67.84-1.971 2.59-12.404 12.59-15.157 15.3 8.281-17.48 21.799-45.52 30.875-62.43 42.312-95.84 74.332-173.54 102.482-275.78 70.58-256.35 79.37-548.8-109.606-758.006-22.942-25.399-53.56-54.546-80.897-75.097a7106 7106 0 0 0-112.345-82.506c-12.654-9.122-27.1-17.307-38.93-26.226-51.946-39.163-100.478-83.836-132.998-140.705-42.583-74.465-56.708-174.369-33.838-257.28 3.559-2.548 5.358-11.45 6.162-8 1.321 5.673-1.608 5.487 1.735 11.04q.387-3.317.737-6.638c.921-1.395 1.56-5.325 2.582-8.01 4.051 93.27 42.768 174.636 111.501 237.703a381.3 381.3 0 0 0 69.885 51.107 399.73 399.73 0 0 0 212.31 50.882c113.332-4.774 202.492-53.113 278.242-135.316 55-62.727 92.14-142.994 93.27-227.274"/><path fill="#a6a9b0" d="M1342.23 178.844c-.47-6.562-.35-11.838-.98-18.965 5.99 12.847 12.6 28.936 16.9 42.484 33.92 82.742 52.75 174.956 67.09 262.938 78.99 484.346-101.98 969.959-407.13 1342.939-16.39 20.03-42.501 50.87-61.89 67.84-1.971 2.59-12.404 12.59-15.157 15.3 8.281-17.48 21.799-45.52 30.875-62.43-.301 4.28-4.253 14.48-3.649 15.18 6.389-3.11 10.159-25.07 14.536-20.25-1.593 3.43-2.731 5.67-4.585 8.96l3.872 2a1497 1497 0 0 0 103.078-142.77c1.97-5.09 12.11-21.3 15.58-27.18 8.44-14.41 16.61-28.98 24.51-43.69 24.79-46.98 49.56-102.8 69.06-151.95a1638.5 1638.5 0 0 0 68.04-212.67c51.61-214.99 68.32-500.935 22.86-717.948a1106 1106 0 0 0-23.04-91.995c-3.58-12.247-8.24-28.949-13.24-40.519 55-62.727 92.14-142.994 93.27-227.274"/><path fill="#c47231" d="M1342.23 178.844c-.47-6.562-.35-11.838-.98-18.965 5.99 12.847 12.6 28.936 16.9 42.484 33.92 82.742 52.75 174.956 67.09 262.938 78.99 484.346-101.98 969.959-407.13 1342.939-16.39 20.03-42.501 50.87-61.89 67.84-1.971 2.59-12.404 12.59-15.157 15.3 8.281-17.48 21.799-45.52 30.875-62.43-.301 4.28-4.253 14.48-3.649 15.18 6.389-3.11 10.159-25.07 14.536-20.25-1.593 3.43-2.731 5.67-4.585 8.96l3.872 2a1497 1497 0 0 0 103.078-142.77c4.82-4.89 17.34-24.94 21.61-31.61 16.74-25.93 32.96-52.19 48.66-78.76 214.04-361.45 296.29-785.884 232.77-1201.13-9.09-56.433-22.88-114.832-37.3-170.146-1.64-5.919-6.49-27.693-8.7-31.58"/><path fill="#be743c" d="M971.938 1828.95c-.301 4.28-4.253 14.48-3.649 15.18 6.389-3.11 10.159-25.07 14.536-20.25-1.593 3.43-2.731 5.67-4.585 8.96l3.872 2c-2.179 3.59-9.591 12.53-12.85 17.28-.342 4.11-13.542 17.26-15.221 21.15.252 1.08 1.39 1.86 2.179 2.81-1.971 2.59-12.404 12.59-15.157 15.3 8.281-17.48 21.799-45.52 30.875-62.43"/><path fill="#a6a9b0" d="m978.24 1832.84 3.872 2c-2.179 3.59-9.591 12.53-12.85 17.28-.317-5.94 5.477-12.62 8.978-19.28"/><path fill="#be743c" d="M1342.23 178.844c-.47-6.562-.35-11.838-.98-18.965 5.99 12.847 12.6 28.936 16.9 42.484-4.59-4.767-11.17-22.891-11.56-23.174-.31.098-.13.001-.54.39-.32 1.348 2.75 10.863 3.29 12.875 1.32 4.976 1.62 13.046 1.59 17.97-1.64-5.919-6.49-27.693-8.7-31.58"/><path fill="#c47231" d="M577.022 201.742c4.051 93.27 42.768 174.636 111.501 237.703a381.3 381.3 0 0 0 69.885 51.107c-13.013 25.698-26.169 60.969-31.437 89.388 15.732 12.353 33.007 23.779 49.516 35.13 46.938 32.273 94.28 62.417 140.488 95.847 132.525 95.879 206.285 244.226 225.775 404.973 24.53 202.3-26.73 407.44-105.33 593.28a1352 1352 0 0 1-40.964 88.67c-2.08 4.08-11.402 22.81-13.631 26.04-4.377-4.82-8.147 17.14-14.536 20.25-.604-.7 3.348-10.9 3.649-15.18 42.312-95.84 74.332-173.54 102.482-275.78 70.58-256.35 79.37-548.8-109.606-758.006-22.942-25.399-53.56-54.546-80.897-75.097a7106 7106 0 0 0-112.345-82.506c-12.654-9.122-27.1-17.307-38.93-26.226-51.946-39.163-100.478-83.836-132.998-140.705-42.583-74.465-56.708-174.369-33.838-257.28 3.559-2.548 5.358-11.45 6.162-8 1.321 5.673-1.608 5.487 1.735 11.04q.387-3.317.737-6.638c.921-1.395 1.56-5.325 2.582-8.01"/><path fill="#a6a9b0" d="M577.022 201.742c4.051 93.27 42.768 174.636 111.501 237.703a381.3 381.3 0 0 0 69.885 51.107c-13.013 25.698-26.169 60.969-31.437 89.388a494.7 494.7 0 0 1-66.011-62.491 369.38 369.38 0 0 1-90.728-234.709c-.545-22.374 1.929-44.073 3.471-66.35q.387-3.317.737-6.638c.921-1.395 1.56-5.325 2.582-8.01"/><path fill="#be743c" d="m578.353 171.476 2.263 2.991c-1.458 5.275-2.301 17.036-3.492 20.194.05 2.591.108 4.492-.102 7.081-1.022 2.685-1.661 6.615-2.582 8.01a593 593 0 0 1-.737 6.638c-3.343-5.553-.414-5.367-1.735-11.04-.804-3.45-2.603 5.452-6.162 8 2.868-16.481 10.123-29.801 12.547-41.874"/><path fill="#b79b88" d="M574.44 209.752c-.088-5.055 1.191-10.27 2.684-15.091.05 2.591.108 4.492-.102 7.081-1.022 2.685-1.661 6.615-2.582 8.01"/><path fill="#744829" d="m578.353 171.476.986-1.766c3.31-3.758 1.649 2.273 1.277 4.757z"/></svg>