<svg xmlns="http://www.w3.org/2000/svg" width="2048" height="2048" viewBox="0 0 2048 2048"><path fill="#221d27" d="M0 0h2048v2048H0z"/><path fill="#c06828" d="M1045.31 181.581c5.68-.43 11.67-.669 17.38-.989a18766 18766 0 0 0 200.06 143.953c16.99-20.992 36.7-48.484 52.81-70.379 4.98 3.767 10.21 8.496 14.91 12.674 28.39 25.265 58.18 48.842 87.85 72.579a10335 10335 0 0 0 233.52 179.111c-2.02 24.068-2.21 52.479-2.73 76.811 24.99 19.688 57.35 42.135 83.53 61.36l146.69 107.268c-.54 48.459-4.49 100.604-5.92 149.687-11.5 14.354-24.15 32.639-35.07 47.71a4697 4697 0 0 1-60.92 83.234c22.19 10.33 46.63 23.47 68.95 34.52 3.22 45.3 8.21 94.67 10.16 139.62-34.77 46.5-69.91 92.73-105.42 138.67-16 5.8-32.93 11.19-49.11 16.59-.01 19.48-.66 39.44-.91 59-33.68 46-66.85 95.75-100.78 140.64-18.53 6.83-40.12 12.07-59.54 19.01-1.17 18.5-.99 39.41-1.21 58.11-11.84 14.5-24.21 33.86-35.7 49.18-32.46 43.27-63.72 91.42-96.5 134.03l-111.93 41.59-210.86-114.86-9.77 13.23a3980 3980 0 0 0-46.36 62.58c-34.936-28.4-81.398-60.27-118.519-87.67l-249.366-183.67-157.682-116.47c-19.678-14.32-40.495-30.94-60.52-44.25-6.528-4.34-35.251-8.11-45.306-9.93-40.192-37.3-81.972-80.53-121.232-119.14l-91.334-90.35c-16.446-16.24-32.887-31.63-48.943-48.32 38.55-51.63 76.39-105.11 114.289-157.308l142.416-194.187a1297 1297 0 0 0-41.246-29.069l263.851-354.608c23.568-31.501 46.751-64.018 70.763-95.055 30.037 18.496 65.678 37.416 96.848 54.838 7.719-12.527 30.968-41.786 40.715-54.992l86.291-117.384c43.928-1.373 91.535-5.077 135.845-7.364"/><path fill="#221d27" d="m1048.4 201.426 8.27-.377c22.57 17.623 51.79 37.39 75.44 54.347 44.68 32.364 89.6 64.392 134.75 96.083a2540 2540 0 0 0 51.52-67.841l311.66 243.464c.02 24.423-.33 52.574-1.88 77.001 7.29 6.011 19.45 14.226 27.52 20.135l45.78 33.937 156.64 114.381c.04 40.078-2.82 93.257-5.39 133.592-8.91 14.204-22.99 32.712-32.98 46.608a11876 11876 0 0 1-72.87 99.574l79.5 39.84c2.68 38.75 5.64 81.89 9.71 120.29l-97.46 128.37c-18.35 5.99-38.49 13.2-56.87 18.18-.05 22.43-.67 45.55-.97 68.05-30.15 39.39-64.14 88.67-92.91 129.76-18.73 6.87-47.32 14.69-67.27 20.98-.02 21.64-1 44.49-1.61 66.2-29.18 44.29-63.44 86.87-93.5 130.68-9.71 14.16-20.22 28.9-30.59 42.55-32.15 11.77-66.16 25.36-98.27 36.19-41.73-21.9-84.76-46.03-126.1-68.78a6614 6614 0 0 1-90.09-49.46l-.99-.01c-4.15 2.46-49.52 65.78-54.89 73.12-42.491-30.87-84.801-62-126.926-93.37l-270.207-198.75-110.613-81.85-42.464-31.5c-32.808-24.44-28.111-20.26-68.329-27.49-33.743-30.78-72.468-70.26-105.356-102.93l-139.54-137.31a7464 7464 0 0 0 90.494-124.12l169.436-230.773-41.467-28.976c11.148-16.162 26.702-35.596 38.786-51.76l74.014-99.507 198.409-267.036 96.541 54.537c12.263-13.601 37.453-49.758 48.724-65.144l83.749-113.038a8352 8352 0 0 1 128.599-7.847"/><defs><linearGradient id="a" x1="1222.66" x2="650.125" y1="1089.209" y2="478.234" gradientUnits="userSpaceOnUse"><stop offset="0" stop-color="#d2d2d2"/><stop offset="1" stop-color="#fbfbfb"/></linearGradient></defs><path fill="url(#a)" d="M708.057 420.684c7.571 2.858 24.074 13.166 31.38 17.559l40.021 23.633 162.685 95.729 264.547 155.048c58.79 34.19 122.23 70.26 179.98 105.87.53 16.314 2.26 51.513-.28 66.45-2.32 13.609-39.29 82.215-48.39 100.322-74.7 24.415-149.6 48.225-224.69 71.425-45.17-25.73-91.76-54.86-136.821-81.443-75.004-46.243-152.276-89.511-227.979-134.661-20.266-12.087-41.297-24.588-62.108-35.666 42.642 39.869 86.321 78.605 128.868 118.572a1809 1809 0 0 1-64.438 19.721c-28.677-19.245-66.162-48.94-94.439-70.194L475.691 737.662a12000 12000 0 0 1 232.366-316.978"/><path fill="#e4e4e3" d="M852.474 981.889c5.534-.081 147.249 87.371 162.406 96.791 1.13 21.04 2.14 42.08 3.04 63.13-13.87 19.56-29.824 40.08-44.246 59.48l-80.875 109.61a17254 17254 0 0 0-148.631 207.17 3269 3269 0 0 0-32.029-23.27l-189.9-139.32a14403 14403 0 0 1 249.14-344.72c26.118-8.51 54.969-19.553 81.095-28.871"/><path fill="#e4e4e3" d="M1059.66 1202.44c21.84 11.21 46.82 26.36 68.6 38.68l131.59 74.54.88 54.59c-25.17 36.95-57.49 78.75-84.38 115.17-41.46 56.25-82.56 112.77-123.29 169.54-9.31 12.92-18.57 25.79-27.6 38.9-2.8 4.05-11.75 18.74-15.74 19.77l-3.92-2.48c-27.375-18.56-58.987-43.3-86.094-63.35l-121.055-88.46a10550 10550 0 0 1 261.009-356.9"/><path fill="#e4e4e3" d="M475.219 824.488c7.009 2.589 37.454 27.007 45.879 33.109a16023 16023 0 0 1 178.44 131.37c-22.822 34.703-53.905 75.753-78.547 110.253a14712 14712 0 0 0-144.44 206.29c-2.789 1.74-40.311-1.14-46.061-1.49-58.125-56.45-122.884-118.64-178.294-177.16 33.536-49.57 73.05-101.32 108.919-149.456 37.265-50.008 75.695-104.105 114.104-152.916"/><path fill="#e4e4e3" d="M1329.97 384.009a6167 6167 0 0 0 229.22 171.25l.01 42.443c-42.81 54.925-85.29 112.288-128.53 166.361-7.26-4.483-15.75-9.097-23.22-13.389-80.16-43.665-161.18-94.44-241.47-139.2 14.71-25.031 41.35-61.236 58.47-85.178a4938 4938 0 0 1 105.52-142.287"/><path fill="#e4e4e3" d="M1443.88 931.402c4.82 1.379 21.56 9.696 26.63 12.149 17.94 8.55 35.74 17.381 53.39 26.49.32 28.861 1.19 58.049 1.84 86.929-48.81 68.16-98.12 135.95-147.94 203.36-16.97 4.95-36.19 10.54-53.27 14.44-31.56-16.49-68.96-39.04-100.17-56.86-43.99-25.08-97.91-54.08-140.23-80.95 98.9-31.04 202.86-62.52 300.61-96.65z"/><path fill="#e4e4e3" d="m1594.63 663.629 192.51 141.99c-.1 24.633-1.13 49.116-1.15 73.991-32.17 42.364-65.86 91.705-97.2 135.33l-26.75-14.03c-25.28-13.445-53.9-27.677-78.46-41.734-1.8-12.926-4.15-26.405-6.21-39.341l-119.12-56.695-1.4-20.298a4198 4198 0 0 1 89.74-118.358c15.74-20.098 31.63-41.417 48.04-60.855"/><path fill="#e4e4e3" d="M1018.49 270.411c2.97-.451 10.72-.704 14.08-.917 26.43 17.235 53.98 37.119 80.02 55.14a8572 8572 0 0 1 115.81 80.734A12696 12696 0 0 0 1108.37 574.7c-11.25-6.156-22.63-12.76-33.81-19.091-53.06-31.774-108.002-61.984-161.063-93.953-22.512-13.564-45.981-26.032-68.125-40.263A7991 7991 0 0 1 957.053 274.65z"/><path fill="#e4e4e3" d="M1277.91 1461.21c12.96 5.15 37.27 19.78 50.93 27.04 40.95 21.54 81.63 43.61 122.02 66.18-.09 21.49.27 43.22.46 64.73-32.49 46.5-67.86 93.94-99.36 140.72-17.34 5.66-34.3 13.17-51.92 17.74-1.35.35-3.63-.66-4.82-1.17-59.14-31.86-118.03-64.19-176.66-96.97 16.05-19.17 39.24-53.41 54.37-74.25z"/><path fill="#e4e4e3" d="M1462.93 1262.72c8.64 3.77 41.51 23.96 50.99 29.5l96.75 55.88c.1 17.26.38 34.52.82 51.77-21.73 32.24-44.7 66.86-67.93 97.85-13.87 4.63-27.79 9.58-41.61 14.38l-17.46-11.68c-44.68-30.72-110.33-64.76-159.37-91.85 2.44-21.97 6.61-44.59 9.26-66.91l90.49-26.29c11.08-16.53 26.14-36.18 38.06-52.65"/><path fill="#e4e4e3" d="M1589.88 1037.17c12.48 5.09 37.58 20.48 50.4 27.42 39.87 21.58 79.35 45.96 119.1 67.55l4.81 58.35c-20.14 29.99-46.79 65.16-68.2 94.48l-26.87 5.64-10.88 2.95c-22.64-11.07-45.75-23.52-68.29-35.09-30.3-15.39-60.52-30.94-90.65-46.66 26.88-40.07 64.47-88.71 93.7-127.75-1.49-14.82-2.21-31.89-3.12-46.89"/></svg>