<svg xmlns="http://www.w3.org/2000/svg" width="2048" height="2048" viewBox="0 0 2048 2048"><path fill="#252227" d="M0 0h2048v2048H0z"/><path fill="#040100" d="M1015.51 306.212c1.48-3.916 2.63-8.595 5.78-11.061 3.3-.517 1.72-.687 4.89.671 5.34 10.099 14.03 40.931 17.93 53.643l29.75 96.83c-7.71 11.87-20.06 28.896-26.24 40.575 7.01 20.082 15.39 40.544 23.21 60.392l-2.94 16.835c17.61-.021 63.73-1.132 78.87.444 3.17-12.61 38.39-136.16 39.83-137.941l2.1 1.566c4.97-6.314 1.82-15.848 8.91-19.127 1.21.278 2.56.143 2.88 1.408 12.93 51.385 28.71 102.393 42.2 153.628 21.09-.082 42.17-.03 63.26.156 4.23.041 19.86.932 22.29.55-2.86-.378-3.78-.589-6.57-1.371.21-3.773 38.32-133.403 40.69-136.932l2.22 1.809c3.03-6.454 2.71-15.536 8.46-19.11 1 .247 2.49.282 2.82 1.343 15.52 50.232 27.58 103.79 43.89 153.709l52.77-.001c6.53-.012 22.45-.429 28.23.191 9.1-15.127 27.75-33.528 46.75-32.843 23.85-3.531 38.16-4.09 58.56 10.705 28.89 20.96 33.98 64.173 12.19 91.94-7.29 9.289-13.76 13.207-23.32 19.589l-.12 967.61c30.05 12.6 49.18 28.16 62.75 58.16 13.17 3.94 33.31 12.23 44.76 14.87.25 19.83.22 39.66-.1 59.49l-125.96.05c-19.77.01-39.78.11-59.57.13-3.66 0-4.02-.09-6.1-2.02-.47-2.77-.63-3.68-.67-6.47-2.8.1-3.67.41-6.21-.73-1.6-3.67-.92-263.22-.36-286.07-30.88 1.01-64.83.37-95.86.12-4.16 30.72-12.75 68.22-18.64 99.55-2.66 14.3-5.25 28.61-7.76 42.93-1.08 6.18-2.04 20.75-6.1 24.85-10.13-.09-9.26-33.55-12.4-40.06-.31 3.35-.34 4.65-1.33 7.95l-1.09.03c-.89-2.62-7.62-46.25-7.67-48.05-.34-11.65-15.73-79.51-13.31-86.98l-106.71-.02c-7.47 42.88-23.4 117.44-30.86 164.17-.76.79-1.51 1.58-2.27 2.38-4.01-.13-2.42.6-5.11-1.85-1.38-3.88-6.73-29.44-6.47-32.93-.82 2.39-.81 2.25-2 4.46-.99-2.3-3.25-13.21-3.3-15.25-.28-14.43-20.9-112.89-18.1-121.12-35.63.42-71.89.02-107.57-.04-2.51 16.32-27.91 160.38-30.44 165.15-2.85 2.03-1.28 1.57-4.92 1.24-5.19-6.18-4.9-23.92-8.21-33.44l-1.55 3.18-.97-.21c-3.08-16.71-23.661-130.48-21.228-136.13-7.664 1.11-28.005.63-36.896.61l-68.334-.26c-3.811 17.63-30.635 162.77-34.023 166.62l-2.929-.24c-4.895-6.13-6.495-28.94-8.639-38.12-.385 2.92-.898 5.04-1.56 7.87l-.778-.45c-.87-3.63-3.846-17.26-4.08-20.55-1.037-14.58-20.865-109.24-17.957-115.54-8.381 1.05-26.948.53-36.169.52l-69.514-.14c-4.769 23.04-28.271 158.56-33.198 166.17l-2.284.41c-4.905-3.94-8.211-30.94-9.967-39.01l-2.309 12.42c-2.936-13.78-24.502-134.16-22.67-140.11-32.04.28-64.082.37-96.123.26l.103 294.93c-63.322.18-126.779-.43-190.109.28-2.016.03-2.51-.31-4.149-1.28-1.592-2.26-1.212-3.36-1.188-6.21-.52.02-6.686.52-6.757-.55-.948-14.19-.497-29.16.044-43.41.049-1.28 5.749-4.5 6.822-5.13 3.486-1.1 7.811-2.02 10.381-4.42 3.841-3.09 21.911-10.02 27.026-11.22 1.495-1.59 2.29-2.5 3.042-4.63 7.539-20.85 26.172-35.78 44.343-47.24 5.269-3.32 11.891-5.09 16.671-8.49-.884-7.5-.421-24.3-.41-32.66l.016-60.95.018-208.34-.003-661.636c-1.135-10.776.75-6.176-8.523-12.282-11.081-8.166-18.759-15.052-24.481-28.044a63.2 63.2 0 0 1-.78-48.025c7.509-19.004 20.325-28.833 38.428-36.608 6.371-1.418 6.083-2.091 12.933-2.056 32.221-6.489 58.03 4.016 74.548 32.93q40.565-.165 81.128.127c13.24-45.402 26.378-92.74 40.213-137.741l1.14.486 1.512 6.085.385-1.075c2.555-7.303 3.652-19.575 8.66-23.138 3.926.53 5.083 4.602 5.93 8.268 2.542 11.003 4.982 21.891 7.877 32.821a6464 6464 0 0 0 31.87 114.183c19.012-.075 61.714-1.346 78.509.18 9.393-36.047 21.903-71.668 32.046-107.535 1.732-6.126 6.148-26.28 10.098-29.565l1.316 3.817c1.543-6.514 3.116-17.795 7.872-21.619 1.277.104 2.889-.075 3.173.853 13.15 42.938 30.416 113.903 42.971 153.928 10.475-.041 72.39-.726 78.515.635-1.074-3.258-2.023-8.721-2.758-12.248 8.152-21.203 18.657-44.494 27.49-65.711-10.271-12.208-20.353-25.366-30.248-37.944 4.7-16.359 41.304-139.253 44.924-143.998z"/><path fill="#f4a367" d="M448.344 649.412c2.123 1.262 6.509 3.387 6.584 5.669.666 20.202.383 42.654.37 62.772l-.04 147.125-.005 542.752-.108 143.75c-.008 9.99.853 66.69-1.251 70.25l-2.56 1.62c-.941-.57-2.057-1.03-3.063-1.5-.884-7.5-.421-24.3-.41-32.66l.016-60.95.018-208.34-.003-661.636c.319-3.434.44-5.416.452-8.852"/><path fill="#f4a367" d="M1503.34 1458.83c4.65.42 4.44-.42 6.77 2.13.82 12.1.24 30.55.23 43.02l-.01 83.31q.255 53.115-.06 106.23c-.05 14.25.66 38.47-.36 52.11-2.8.1-3.67.41-6.21-.73-1.6-3.67-.92-263.22-.36-286.07"/><path fill="#f4a367" d="M967.716 448.986c4.7-16.359 41.304-139.253 44.924-143.998l2.87 1.224c-1.06 8.885-9.71 37.329-12.82 47.629-9.191 30.424-18.058 63.493-28.522 93.406a3192 3192 0 0 0 28.402 38.702l-27.188 62.739c1.182 4.943 2.998 10.069 1.993 14.849-2.378 1.404-1.468 1.109-4.143 1.352-1.074-3.258-2.023-8.721-2.758-12.248 8.152-21.203 18.657-44.494 27.49-65.711-10.271-12.208-20.353-25.366-30.248-37.944"/><path fill="#f4a367" d="M621.145 564.306c13.24-45.402 26.378-92.74 40.213-137.741l1.14.486 1.512 6.085a6387 6387 0 0 1-23.993 89.93c-2.232 8.24-8.568 33.904-11.415 40.333-2.891 1.165-4.372.924-7.457.907"/><path fill="#f4a367" d="M439.369 645.982c-11.081-8.166-18.759-15.052-24.481-28.044a63.2 63.2 0 0 1-.78-48.025c7.509-19.004 20.325-28.833 38.428-36.608l.559 2.548c-32.909 17.255-44.699 57.104-27.104 89.509a65.5 65.5 0 0 0 13.924 17.544z"/><path fill="#f4a367" d="M1328.23 564.781c-2.86-.378-3.78-.589-6.57-1.371.21-3.773 38.32-133.403 40.69-136.932l2.22 1.809c-3.49 17.64-10.08 39.739-14.9 57.465z"/><path fill="#f4a367" d="M797.241 564.375c9.393-36.047 21.903-71.668 32.046-107.535 1.732-6.126 6.148-26.28 10.098-29.565l1.316 3.817c-12.076 35.288-24.384 94.015-36.026 131.629l-1.66 1.261z"/><path fill="#f4a367" d="M1146.76 564.541c3.17-12.61 38.39-136.16 39.83-137.941l2.1 1.566c-6.69 28.294-15.02 57.428-22.33 85.637-2.52 9.704-10.48 42.643-13.95 49.545-2.69 1.187-2.66 1.037-5.65 1.193"/><path fill="#f4a367" d="M638.165 1458.96c5.971 5.44 19.543 108.84 24.979 127.69l-2.309 12.42c-2.936-13.78-24.502-134.16-22.67-140.11"/><path fill="#f4a367" d="M838.651 1587.37c-.385 2.92-.898 5.04-1.56 7.87l-.778-.45c-.87-3.63-3.846-17.26-4.08-20.55-1.037-14.58-20.865-109.24-17.957-115.54 3.49 6.7 5.825 23.39 7.217 31.58l10.491 62.19c1.358 8.06 4.352 27.8 6.667 34.9"/><path fill="#f4a367" d="m1013.22 1591.92-1.55 3.18-.97-.21c-3.08-16.71-23.661-130.48-21.228-136.13 3.62 7.51 22.818 120.97 23.748 133.16"/><path fill="#f4a367" d="M448.271 1621.85c1.006.47 2.122.93 3.063 1.5-12.503 4.23-27.806 16.05-37.176 25.2-9.339 9.12-14.302 19.4-19.867 30.95-3.162 1.5-5.78 2.56-8.974 3.89l-1.102-1.18c1.495-1.59 2.29-2.5 3.042-4.63 7.539-20.85 26.172-35.78 44.343-47.24 5.269-3.32 11.891-5.09 16.671-8.49"/><path fill="#f4a367" d="M1339.18 1459.17c3.79 4.61 19.87 112.07 23.4 127.05-.31 3.35-.34 4.65-1.33 7.95l-1.09.03c-.89-2.62-7.62-46.25-7.67-48.05-.34-11.65-15.73-79.51-13.31-86.98"/><path fill="#f4a367" d="M1187.76 1590.92c-.82 2.39-.81 2.25-2 4.46-.99-2.3-3.25-13.21-3.3-15.25-.28-14.43-20.9-112.89-18.1-121.12 2.23 6.15 4.98 24.6 6.23 31.78 3.53 20.22 6.93 40.47 10.22 60.73 1.95 12.08 3.93 27.84 6.95 39.4"/><path fill="#f4a367" d="M346.699 1746.94c-.52.02-6.686.52-6.757-.55-.948-14.19-.497-29.16.044-43.41.049-1.28 5.749-4.5 6.822-5.13.248 14.62.471 34.51-.109 49.09"/><path fill="#f4a367" d="M1500.74 564.419c9.1-15.127 27.75-33.528 46.75-32.843l-1.71.672c-18.97 6.992-26.39 16.297-37.35 31.645-.48.663-6.67.506-7.69.526"/><path fill="#b6805b" d="M357.189 1693.43c3.841-3.09 21.911-10.02 27.026-11.22l1.102 1.18c-7.947 3.33-19.878 7.85-28.128 10.04"/><path fill="#b6805b" d="M439.915 642.906c2.183 1.673 6.638 4.879 8.429 6.506-.012 3.436-.133 5.418-.452 8.852-1.135-10.776.75-6.176-8.523-12.282z"/><path fill="#976b4e" d="M452.536 533.305c6.371-1.418 6.083-2.091 12.933-2.056l-10.662 4.029-1.712.575z"/><path fill="#dcdde8" d="M1565.72 542.337c7.7.179 14.61 1.174 21.74 4.217a51.3 51.3 0 0 1 27.68 29.109c11.1 29.364-3.76 57.498-32.45 68.331l-.09 988.996c3.13 1.25 6.22 2.59 9.27 4.03 25.18 11.7 40.82 28.27 50.31 54.16 11.39 3.24 31.32 11.27 42.83 15.52-.07 6.35 1.47 24.31-1.37 28.73l-3.39.42-157.44-.17-.08-1116.079c-22.68-31.577 4.24-74.319 42.99-77.264"/><path fill="#040100" d="M1565.86 573.588c12.2-1.031 22.91 8.035 23.91 20.23s-8.1 22.884-20.29 23.852c-12.16.965-22.8-8.088-23.79-20.239-1-12.151 8.03-22.816 20.17-23.843"/><path fill="#dcdde8" d="M1565.81 586.424a9.346 9.346 0 0 1 3.66 18.329c-5.06 1.029-10.01-2.256-11.02-7.328s2.29-10.004 7.36-11.001"/><path fill="#dcdde8" d="M472.964 543.164c10.565-1.054 19.825-.624 29.786 3.704 13.465 5.85 23.516 17.424 28.508 31.116 3.628 9.954 4.324 23.087-.35 32.822-1.901 3.959-2.739 4.636-3.057 9.182-1.154 16.477-.717 33.469-.668 50.027l.189 76.779-.134 240.066.026 748.89-138.735-.01-26.638.04-.166-28a5082 5082 0 0 1 46.427-17.05c5.316-28.79 34.722-47.66 59.713-57.84l.029-988.12a343 343 0 0 1-8.272-4.153 53.43 53.43 0 0 1-26.717-32.569c-8.425-29.908 10.294-57.515 40.059-64.884"/><path fill="#040100" d="M479.729 573.764c12.147-1.335 23.071 7.444 24.38 19.594 1.31 12.15-7.493 23.055-19.646 24.338-12.116 1.28-22.981-7.491-24.286-19.604-1.306-12.113 7.441-22.997 19.552-24.328"/><path fill="#dcdde8" d="M479.67 586.59c5.025-1.304 10.158 1.703 11.479 6.724s-1.669 10.164-6.685 11.502c-5.04 1.344-10.214-1.663-11.541-6.708a9.423 9.423 0 0 1 6.747-11.518"/><path fill="#252227" d="M1231.46 1040.3c36.04.15 72.68-.68 108.62-.07l.6 1.83c1.94 5.6 3.48 14.9 4.61 20.92l.88 4.5c.76 3.32 1.39 6.67 2.08 10l1.07 4.99c1.43 7.03 3.02 14.02 4.46 21.04.7 3.32 1.35 6.65 1.94 10 .24 1.34.54 3.34.07 4.64-.77.26-.24.4-1.27-.34-5.53-5.63-10.53-19.13-16.24-20.95l-1.66 1.07c-1.96 4.27-1.57 8.24-1.68 13.02.03 11.9-1.93 28.28-2.77 40.55-.56 8.09-.54 24.76-1.85 31.62-4.63-.6-23.38-.23-29.12-.22l-61.13.08c.03-11.09.63-72.08-6.82-77.19-5.51 1.51-12.71 14.73-17.9 20.81l-.84.96c1.51-22.26 13.57-62.23 16.95-87.26"/><path fill="#b6805b" d="M1354.52 1117.81c-1.68-10.86-16.55-72.42-14.44-77.58l.6 1.83c1.94 5.6 3.48 14.9 4.61 20.92l.88 4.5c.76 3.32 1.39 6.67 2.08 10l1.07 4.99c1.43 7.03 3.02 14.02 4.46 21.04.7 3.32 1.35 6.65 1.94 10 .24 1.34.54 3.34.07 4.64-.77.26-.24.4-1.27-.34"/><path fill="#b6805b" d="M1334.94 1110.95c.03 11.9-1.93 28.28-2.77 40.55-.56 8.09-.54 24.76-1.85 31.62-3.48-7.24 1.14-63.75 4.62-72.17"/><path fill="#252227" d="M1056.55 1040.02c36.02.27 72.04.29 108.06.08 2.17 4.88 15.27 73.04 14.55 75.37-.73.66-1.11-.05-1.5-.66-6.06-8.35-8.63-14.49-16.44-21.28.01 6.5.46 18.16-.94 24.05-1.59 11.15-1.99 25.44-3.13 36.92-.92 9.26.29 19.28-1.84 28.64-3.37-.58-21.92-.36-26.52-.36l-63.13.09c-.44-20.77-1.23-41.81-2.4-62.57-.27-4.83-1.15-9.66-5.25-12.52-4.38.65-14.52 16.04-18.9 21.11 2.73-25.89 13.56-60.68 17.44-88.87"/><path fill="#b6805b" d="M1155.31 1183.14c-4.13-8.17 2.39-60.78 4.21-72.58.47 2.12.57 4.82.76 7.02-1.59 11.15-1.99 25.44-3.13 36.92-.92 9.26.29 19.28-1.84 28.64"/><path fill="#976b4e" d="M1164.61 1040.1c2.17 4.88 15.27 73.04 14.55 75.37-.73.66-1.11-.05-1.5-.66-.83-4.78-1.7-9.56-2.62-14.32l-2.89-15.06-4.46-22.8c-1.08-5.47-3.75-17.42-3.08-22.53"/><path fill="#252227" d="m707.322 1040.33 107.273-.04c2.516 5.31 3.577 12.34 4.702 18.19l.883 4.5c1.143 5.07 2.168 10.39 3.121 15.5l.984 5.01c.96 4.8 6.938 29.81 5.539 32.37-.102.02-.204.04-.306.07-.561-.59-.524-.86-.874-1.8-4.585-4.46-10.884-16.9-15.996-16.25-2.359 3.16-1.788 7.19-1.825 11.29-.069 15.58-2.216 32.76-3.505 48.33-.668 8.07.388 18.33-1.73 25.6-5.496-.82-24.537-.4-31.138-.37l-58.474.2c-.675-18.46-.746-55.36-4.933-74.24-.239-1.08-1.403-1.04-2.73-1.38-4.754 1.83-14.277 16.43-19.177 22.05 3.367-24.68 12.767-63.34 18.186-89.03"/><path fill="#b6805b" d="M810.823 1109.17c-.069 15.58-2.216 32.76-3.505 48.33-.668 8.07.388 18.33-1.73 25.6-3.667-6.73 2.022-68.95 5.235-73.93"/><path fill="#976b4e" d="M814.595 1040.29c2.516 5.31 3.577 12.34 4.702 18.19l.883 4.5c1.143 5.07 2.168 10.39 3.121 15.5l.984 5.01c.96 4.8 6.938 29.81 5.539 32.37-.102.02-.204.04-.306.07-.561-.59-.524-.86-.874-1.8-1.071-5.34-2.453-10.75-3.549-16.14a2271 2271 0 0 1-5.984-30.54c-1.243-6.81-5.426-21.66-4.516-27.16"/><path fill="#252227" d="m882.493 1040.14 67.807.22c11.728.03 27.909.55 39.346-.23 3.04 7 4.988 21.04 6.558 28.85l1.041 5 1.006 5c1.979 9.8 6.419 27.84 7.489 38.32.03.33-1.35.51-1.34.51-4.92-5.42-10.877-17.84-15.672-19.91l-1.961.84c-2.237 3.44-1.794 8.22-1.921 12.5.114 14.21-1.188 27.14-2.557 41.26-.892 9.21-.167 22.01-1.989 30.67-3.591-.76-23.13-.48-27.956-.46l-61.361.26c-.021-22.1-1.034-44.41-2.389-66.47-.26-4.23.214-9.19-3.751-11.22-8.018 1.98-13.289 17.26-19.211 20.1-1.37-6.14 14.952-71.78 16.684-83.92z"/><path fill="#b6805b" d="M989.646 1040.13c3.04 7 4.988 21.04 6.558 28.85l1.041 5 1.006 5c1.979 9.8 6.419 27.84 7.489 38.32.03.33-1.35.51-1.34.51-.45-1.93-1-3.9-1.39-5.81l-2.8-13.01-1.155-5.52c-1.741-8.51-10.346-47.45-9.409-53.34"/><path fill="#b6805b" d="M984.846 1111.24c.114 14.21-1.188 27.14-2.557 41.26-.892 9.21-.167 22.01-1.989 30.67-4.219-7.77.935-38.21 1.543-48.18l.495-6.99c.443-6.01.777-10.98 2.508-16.76"/><path fill="#252227" d="m1231.67 1249.66 107.42.15c2.63 4.17 5.26 20.73 6.18 26.17l.87 4.51c.23 1.01.45 2.02.68 3.03l1.49 6.96c.89 4.06 8.18 31.95 6.24 33.62-.49-.75-.98-1.5-1.46-2.26-6.5-6.91-9-14.3-16.25-22.02-.94 6.41-.19 14.51-1.83 20.12-.27 18.53-2.3 36.59-3.74 55.06-.5 6.42.7 10.89-.17 16.93l-91.13.06c-.05-10.41 1.26-76.06-8.89-76.78-4.9 4.43-13.66 17.01-18.12 22.86 5.6-28.26 14.07-60.93 18.71-88.41"/><path fill="#b6805b" d="M1339.09 1249.81c2.63 4.17 5.26 20.73 6.18 26.17l.87 4.51c.23 1.01.45 2.02.68 3.03l1.49 6.96c.89 4.06 8.18 31.95 6.24 33.62-.49-.75-.98-1.5-1.46-2.26-2.95-11.65-5.55-24.04-7.93-35.85l-4.1-20.51c-1.09-5.65-2.25-9.98-1.97-15.67"/><path fill="#b6805b" d="M1335.01 1319.94c-.27 18.53-2.3 36.59-3.74 55.06-.5 6.42.7 10.89-.17 16.93-3.01-11.03-.43-61.84 3.91-71.99"/><path fill="#252227" d="m1056.61 1249.82 107.62.03c2.11 3.47 4.44 18.28 5.48 23.17l1.65 7.96c1.26 6.37 2.66 13.06 3.86 19.56-.2-1.12 7 30.65 2.31 21.52-6.11-8.2-8.93-14.89-16.51-22.69-.23 6.32.49 13.92-.93 19.82-.33 13.64-1.45 27.73-2.86 41.31-.97 9.39-.45 22.97-1.89 31.54-6.55-.66-23.1-.18-30.27-.16l-59.99.16c.09-21.82-.7-52.28-3.41-73.81-2.03-2.81-.72-1.89-4.08-2.85-7.95 2.84-10.59 14.84-16.95 19.88-2.09-4.15 14.31-75.09 15.97-85.44"/><path fill="#b6805b" d="M1155.34 1392.04c-3.61-7.54 2.46-72.3 4.07-73.12.32.01.11-.03.68.27-.33 13.64-1.45 27.73-2.86 41.31-.97 9.39-.45 22.97-1.89 31.54"/><path fill="#976b4e" d="M1164.23 1249.85c2.11 3.47 4.44 18.28 5.48 23.17l1.65 7.96c1.26 6.37 2.66 13.06 3.86 19.56-.2-1.12 7 30.65 2.31 21.52-.77-3.88-1.71-7.72-2.47-11.61l-1.37-7.3c-.22-1.06-.43-2.12-.64-3.18-.97-5.82-2.06-11.61-3.29-17.38-1.65-8.01-5.98-25.44-5.53-32.74"/><path fill="#252227" d="m707.594 1249.8 106.855.09c2.62 2.71 4.03 13.35 4.808 17.59l.984 5c1.996 8.89 3.785 18.09 5.541 27.03l1.508 7.98.981 5.01c.165.74 4.765 19.2.047 9.76-4.138-4.55-10.217-17.75-14.813-18.2-3.119 3.69-2.488 8.03-2.709 13.16-.264 19.8-3.802 39.47-4.129 59.28-.096 5.83.559 9.43-.117 15.41l-90.639.09c-.23-11.54.576-73.19-7.604-77.7-4.759 2.03-14.691 17.21-19.224 22.8 4.516-27.88 13.291-58.54 18.511-87.3"/><path fill="#b6805b" d="M810.796 1317.22c-.264 19.8-3.802 39.47-4.129 59.28-.096 5.83.559 9.43-.117 15.41-6.37-10.82 1.876-53.68 2.304-67.93.088-2.93.506-4.38 1.942-6.76"/><path fill="#b6805b" d="M814.449 1249.89c2.62 2.71 4.03 13.35 4.808 17.59l.984 5c1.996 8.89 3.785 18.09 5.541 27.03l1.508 7.98.981 5.01c.165.74 4.765 19.2.047 9.76l-2.566-11.67c-2.528-11.25-11.611-51.57-11.303-60.7"/><path fill="#252227" d="m706.867 831.718 108.43.234c2.451 3.202 4.433 17.225 5.553 22.07l.951 4.501c1.063 5.777 10.013 46.283 8.896 48.292-.628.005-1.06-1.561-1.182-1.842-6.124-5.662-9.245-15.497-14.966-18.829l-2.039.624c-2.16 3.325-1.618 7.221-1.627 11.307-.24 13.883-2.286 30.88-3.642 44.925-1.004 10.4.164 20.946-.714 29.912-29.352 1.003-61.299.562-90.849.708-.127-18.645-.161-59.147-3.874-78.939-.187-.996-1.69-1.044-2.908-1.329-4.882 1.789-15.615 17.887-19.704 23.147 5.112-28.598 12.432-56.436 17.675-84.781"/><path fill="#b6805b" d="M810.883 898.075c-.24 13.883-2.286 30.88-3.642 44.925-1.004 10.4.164 20.946-.714 29.912-4.749-7.603.214-68.198 4.356-74.837"/><path fill="#976b4e" d="M815.297 831.952c2.451 3.202 4.433 17.225 5.553 22.07l.951 4.501c1.063 5.777 10.013 46.283 8.896 48.292-.628.005-1.06-1.561-1.182-1.842a1460 1460 0 0 1-3.829-17.289l-4.567-21.706c-1.492-7.177-6.374-27.985-5.822-34.026"/><path fill="#252227" d="M1230.85 831.528c15.54.093 99.58 2.209 108.6-.539 4.04 9.105 11.44 50.651 13.75 62.994l1.37 7.021c.23 1.218.48 2.265-.15 3.403-1.22-.51-1.38-2.821-1.75-4.165-3.74-2.699-4.38-3.562-7.13-7.38-1.97-3.141-3.15-5.847-6.29-7.652l-1.79.524c-2.65 5.296-1.21 8.254-2.35 13.904-.98 18.59-2.53 36.327-3.74 54.862-.37 5.699.42 11.594.19 17.643-3.58 1.942-81.15 1.433-91.62 1.465.02-16.879-.24-60.611-4.12-78.979-.23-1.103-1.84-.892-3.26-1.018-6.9 3.263-12.29 15.304-17.95 22.526l-.82 1.036c4.73-28.672 12.82-56.546 17.06-85.645"/><path fill="#976b4e" d="M1339.45 830.989c4.04 9.105 11.44 50.651 13.75 62.994l1.37 7.021c.23 1.218.48 2.265-.15 3.403-1.22-.51-1.38-2.821-1.75-4.165-3.74-2.699-4.38-3.562-7.13-7.38 1.09-2.462 1.4-3.728 3.08-5.856l.85-1.122c-1.82-9.949-4.26-20.001-6.38-29.909l-.4-1.961c-1.29-6.076-4.18-17.148-3.24-23.025"/><path fill="#1e1e27" d="M1345.54 892.862c1.09-2.462 1.4-3.728 3.08-5.856l.85-1.122c1.08 4.933 2.29 9.368 3.2 14.358-3.74-2.699-4.38-3.562-7.13-7.38"/><path fill="#b6805b" d="M1335.11 899.638c-.98 18.59-2.53 36.327-3.74 54.862-.37 5.699.42 11.594.19 17.643-4.92-8.532-.61-61.117 2.97-70.875z"/><path fill="#252227" d="m882.018 1249.9 107.351.06c2.119 2.66 7.761 35.46 8.85 41.02q1.42 7.29 3.071 14.52c-.11-.41 6.09 25.6 1.25 15.75-2.22-2.47-13.006-17.34-14.655-17.56-3.693 10.47-1.241 13.81-2.415 18.56-1.873 18.48-3.124 37.91-4.248 56.5-.296 4.9.669 8.1-.312 13.19h-90.043c-.175-10.45.977-73.65-7.339-76.66-6.773 2.75-14.9 16.42-19.368 22.84 4.878-29.48 13.062-58.7 17.858-88.22"/><path fill="#b6805b" d="M980.91 1391.94c-3.909-10.1.674-61.56 3.587-73.43.312 1.34.605 2.42.973 3.74-1.873 18.48-3.124 37.91-4.248 56.5-.296 4.9.669 8.1-.312 13.19"/><path fill="#b6805b" d="M989.369 1249.96c2.119 2.66 7.761 35.46 8.85 41.02q1.42 7.29 3.071 14.52c-.11-.41 6.09 25.6 1.25 15.75-.97-5.28-2.29-10.49-3.343-15.76l-1.057-5.07c-1.981-9.31-9.676-43.06-8.771-50.46"/><path fill="#252227" d="m1056.66 831.745 107.7.278c1.99 1.939 2.73 6.527 2.85 8.962.34 6.623 13.74 60.991 11.26 63.075-.31-.558-.56-1.152-.8-1.766-5.65-6.245-8.24-12.694-13.07-17.849l-1.57.385c-2.92 4.463-2.5 7.95-3.11 13.213-.29 23.353-5.03 47.846-3.6 71.461.09 1.337-.06 2.291-.22 3.618l-90.56.349c-.26-18.882-.97-37.867-1.71-56.745-.26-6.419.05-18.144-5.72-21.825-5.03 1.702-14.71 17.055-20.2 22.509a3053 3053 0 0 0 18.75-85.665"/><path fill="#b6805b" d="M1159.92 898.043c-.29 23.353-5.03 47.846-3.6 71.461.09 1.337-.06 2.291-.22 3.618-3.58-9.38-.88-67.633 3.82-75.079"/><path fill="#976b4e" d="M1164.36 832.023c1.99 1.939 2.73 6.527 2.85 8.962.34 6.623 13.74 60.991 11.26 63.075-.31-.558-.56-1.152-.8-1.766-2.47-16.372-7.36-34.354-10.61-50.851l-1.47-7.71c-.89-4.407-1.76-7.301-1.23-11.71"/><path fill="#252227" d="m882.472 831.576 106.924.392c2.181 2.367 3.582 13.235 4.427 17.053l2.402 11.461c.558 2.339 1.039 4.692 1.569 7.037l1.607 7.913c.669 3.437 5.619 26.582 5.099 28.006-.23.208-.11.154-.37.186-.86-.358-1.15-1.483-1.51-2.266-6.135-4.251-8.071-12.783-13.489-16.986l-1.8 1.089c-2.316 4.474-1.98 8.589-2.221 13.719-1.044 19.817-5.527 49.538-3.433 67.859.996 2.764.745 3.745-.55 5.822-9.538.984-25.516.484-35.511.469q-27.36-.03-54.718.248c-.221-20.941-.798-41.952-1.952-62.867-.298-5.395-.566-13.964-5.588-16.789-4.615 1.624-15.792 19.349-19.537 24.48a3139 3139 0 0 1 18.651-86.826"/><path fill="#976b4e" d="M989.396 831.968c2.181 2.367 3.582 13.235 4.427 17.053l2.402 11.461c.558 2.339 1.039 4.692 1.569 7.037l1.607 7.913c.669 3.437 5.619 26.582 5.099 28.006-.23.208-.11.154-.37.186-.86-.358-1.15-1.483-1.51-2.266-1.01-5.868-2.39-11.556-3.542-17.368l-2.475-12.414c-1.645-8.084-7.95-32.762-7.207-39.608"/><path fill="#b6805b" d="M985.11 899.18c-1.044 19.817-5.527 49.538-3.433 67.859-.065.586-.111 4.121-1.098 4.252-4.953-4.419 2.087-63.957 4.531-72.111"/><path fill="#dcdde8" d="M1023.1 329.615c2.21 2.082 30.49 101.845 35.29 115.145-7.07 9.686-22.4 29.911-27.57 39.721 9.23 21.223 18.17 43.009 28.03 63.893a6548 6548 0 0 1-22.52 113.638c-3.27 16.077-8.16 44.683-12.74 59.522-.29-.162-.59-.3-.86-.487-4.63-3.226-32.162-151.172-35.57-170.739 9.191-20.239 20.58-45.782 28.39-66.339a3697 3697 0 0 0-26.606-37.537c1.371-5.221 3.009-10.646 4.713-15.772 11.093-33.357 19.963-67.222 29.443-101.045"/><path fill="#252227" d="M1407.24 1040.2c29.53-.09 67.61 1.21 96.05-.24 4.43.51 4.55-.28 6.86 2.18.33 14.15 1.29 136.69-.62 140.13-2.89.85-3.18.76-6.25.86-22.38-1.5-63.45-.07-87.22.02-.26-21.59-1.19-44.57-2.78-66.15-.32-4.37-1.38-8.22-4.83-10.9-4.87 1.46-13.64 16.36-18.4 22.07l-.88 1.04c4.85-29.72 12.96-59.09 18.07-89.01"/><path fill="#f4a367" d="M1503.29 1039.96c4.43.51 4.55-.28 6.86 2.18.33 14.15 1.29 136.69-.62 140.13-2.89.85-3.18.76-6.25.86-1.22-32.62.59-66.75-.24-99.56-.34-13.63-.55-30.18.25-43.61"/><path fill="#252227" d="M1407.3 1249.73c28.86.08 67.93 1.4 95.92-.07 3.53.36 4.39-.16 6.79 1.65 1.74 38-.75 77.46.5 115.57.24 7.34.24 15.97-.28 23.26-2.61 2.6-2.31 1.75-7.05 2.23-5.23-.8-22.6-.45-28.75-.44l-58.66.14c.04-7-.01-14-.14-21-.2-10.69-.5-52.05-6.51-57.83-4.71 1.33-15.05 16.89-19.83 22.34 5.81-24.94 14.26-61 18.01-85.85"/><path fill="#f4a367" d="M1503.22 1249.66c3.53.36 4.39-.16 6.79 1.65 1.74 38-.75 77.46.5 115.57.24 7.34.24 15.97-.28 23.26-2.61 2.6-2.31 1.75-7.05 2.23-.62-15.3-.09-34.44-.09-49.97z"/><path fill="#252227" d="m1407.55 831.867 62-.069c9.96.011 24.15.448 33.58-.362 4.18.404 4.43-.296 7.03 1.894 1.46 37.023-.21 99.267 0 138.493l-1.38 1.583c-2.47.107-3.15.213-5.58.001q-43.77-.205-87.54.05c-.26-22.301-.1-56.142-4.21-78.514-.23-1.281-1.07-1.146-2.6-1.624-5.02 1.661-15.21 18.159-19.45 23.73 4.43-26.964 12.44-57.915 18.15-85.182"/><path fill="#f4a367" d="M1503.13 831.436c4.18.404 4.43-.296 7.03 1.894 1.46 37.023-.21 99.267 0 138.493l-1.38 1.583c-2.47.107-3.15.213-5.58.001.05-47.191-.59-94.83-.07-141.971"/><path fill="#252227" d="m1054.75 631.752 74.04.076c6.97.001 30.98.414 36.44-.867 2.69 5.935 4.74 19.178 6.03 26.017l.93 4.507.69 3.037 1.97 9.007c.12.644.25 1.289.37 1.933l1.07 5.01 1.1 4.948c.35 1.65 2.49 8.643.97 9.88-.24-.2-.47-.401-.71-.602-6.39-6.839-8.11-13.368-16.53-21.015-.19 4.99.38 14.178-1.08 18.475-.64 22.954-4.05 45.808-3.79 68.863.02 1.511-.55 2.295-1.36 3.496-29.77-.166-59.55-.115-89.33.153-.61-12.232.92-71.658-7.31-76.48-5.64 2.209-15.03 17.909-19.75 24.087a2535 2535 0 0 0 16.25-80.525"/><path fill="#f4a367" d="M1154.89 764.517c-2.13-8.004 1.65-70.147 4.69-72.803.16.148.31.296.46.444-.64 22.954-4.05 45.808-3.79 68.863.02 1.511-.55 2.295-1.36 3.496"/><path fill="#976b4e" d="M1177.65 694.698c-1.4-6.375-3.21-12.803-4.56-19.209l-.95-4.534c-1.64-8.403-7.7-32.719-6.91-39.994 2.69 5.935 4.74 19.178 6.03 26.017l.93 4.507.69 3.037 1.97 9.007c.12.644.25 1.289.37 1.933l1.07 5.01 1.1 4.948c.35 1.65 2.49 8.643.97 9.88-.24-.2-.47-.401-.71-.602"/><path fill="#252227" d="m706.634 631.864 109.714.097c2.629 2.48 4.082 12.418 4.973 16.505l1.03 4.517 1.91 8.497 2.081 9.51 1.93 8.991c.938 4.507 2.026 8.981 2.87 13.508l.341 1.758c.25 1.344.459 2.286.251 3.627l-.508.309c-.906-.871-.675-.522-1.029-1.86-6.391-5.028-10.418-19.13-16.393-20.035-3.565 3.476-2.745 7.891-2.788 12.662-.203 7.846-4.137 72.739-5.146 74.112l-89.967.312c-.183-14.239-.52-28.803-1.219-43.026-.322-6.546-.229-32.168-4.863-35.209-5.336 1.158-14.475 14.616-18.741 19.774 2.622-19.897 11.4-53.345 15.554-74.049"/><path fill="#f4a367" d="M811.016 689.95c-.203 7.846-4.137 72.739-5.146 74.112-3.676-9.489 1.21-64.821 5.146-74.112"/><path fill="#b6805b" d="M816.348 631.961c2.629 2.48 4.082 12.418 4.973 16.505l1.03 4.517 1.91 8.497 2.081 9.51 1.93 8.991c.938 4.507 2.026 8.981 2.87 13.508l.341 1.758c.25 1.344.459 2.286.251 3.627l-.508.309c-.906-.871-.675-.522-1.029-1.86a788 788 0 0 1-5.026-20.839c-1.745-7.905-9.324-38.637-8.823-44.523"/><path fill="#252227" d="m1230.49 631.734 70.96.385c7.82.035 31.55.613 37.85-.878 2.11 4.231 2.42 7.714 3.54 12.276l.96 4.503 1.6 7.393c1 4.509 2.04 9.008 3.14 13.496l1.36 5.613.44 1.929.98 4.061c.6 2.402 3.56 14.191 3.09 15.523-.91.715-1.68-1.788-1.85-2.182l-.69-.796c-4.35-5.099-8.94-14.797-13.95-15.415-3.33 3.92-2.86 11.444-3.07 16.78-.7 8.027-3.51 67.718-5.11 69.823-29.55-.328-59.65-.008-89.24.024-.23-14.3-.03-70.907-6.36-78.637l-1.72-.081c-4.88 3.502-13.31 15.508-17.14 20.582 1.76-17.971 11.01-55.388 15.21-74.399"/><path fill="#b6805b" d="M1329.74 764.245c-3.24-11.993 1.94-54.636 3.83-69.584.03-.232 1.14-.232 1.28-.239-.7 8.027-3.51 67.718-5.11 69.823"/><path fill="#976b4e" d="M1339.3 631.241c2.11 4.231 2.42 7.714 3.54 12.276l.96 4.503 1.6 7.393c1 4.509 2.04 9.008 3.14 13.496l1.36 5.613.44 1.929.98 4.061c.6 2.402 3.56 14.191 3.09 15.523-.91.715-1.68-1.788-1.85-2.182-2.39-10.123-14.45-54.721-13.26-62.612"/><path fill="#252227" d="m882.599 631.772 107.05.066c2.404 2.634 3.413 11 4.167 14.679l5.461 26.969c.803 4.105 5.663 24.355 4.153 25.889-.55-.329-.8-.9-1.17-1.453-2.933-4.53-9.765-17.34-13.977-18.695-4.802 3.951-.753 13.481-2.982 18.544-1.415 21.181-4.334 42.034-3.996 63.264.024 1.513-.536 2.141-1.466 3.227l-88.735.036c-.031-13.154-.766-65.563-4.175-76.631l-1.762-.667c-5.935 1.069-10.104 8.757-13.705 13.818l-4.289-1.273c5.8-21.203 9.605-45.523 15.426-67.773"/><path fill="#b6805b" d="M979.839 764.262c-2.225-7.585 2.44-66.306 4.726-68.703l.186.605.55 1.607c-1.415 21.181-4.334 42.034-3.996 63.264.024 1.513-.536 2.141-1.466 3.227"/><path fill="#976b4e" d="M989.649 631.838c2.404 2.634 3.413 11 4.167 14.679l5.461 26.969c.803 4.105 5.663 24.355 4.153 25.889-.55-.329-.8-.9-1.17-1.453-.59-3.695-1.24-7.377-2.06-11.028a466 466 0 0 1-3.096-14.467l-.6-3.168-1.306-6.386-.525-2.717-1.095-5.14c-1.299-6.268-4.373-17.353-3.929-23.178"/><path fill="#252227" d="M541.946 1040.12c31.397.13 66.246 1 97.412.05 2.001 4.62 2.961 10.83 3.887 15.81l1.036 5c3.688 17.78 8.012 36.12 11.48 54.01.318 1.63 1.233 5.15-1.592 3.37-3.874-5.35-11.723-19.33-16.851-21.29-3.828 5.49-1.406 20-3.118 27.48-1.152 9.4-1.818 20.18-3.053 29.45-1.084 8.13.114 22.98-1.558 29.2-4.897-.73-23.214-.39-29.172-.38l-58.378.13z"/><path fill="#f4a367" d="M629.589 1183.2c-5.116-9.67 1.882-58.79 3.937-71.7.401 4.73.51 8.33.674 13.05-1.152 9.4-1.818 20.18-3.053 29.45-1.084 8.13.114 22.98-1.558 29.2"/><path fill="#b6805b" d="m654.169 1118.36-3.02-14.37-2.005-9.5-1.993-9.5-1.992-9.5-.376-1.91c-1.167-5.76-7.034-29.61-5.425-33.41 2.001 4.62 2.961 10.83 3.887 15.81l1.036 5c3.688 17.78 8.012 36.12 11.48 54.01.318 1.63 1.233 5.15-1.592 3.37"/><path fill="#252227" d="m542.073 1249.86 62.482.01c10.485 0 24.926-.4 34.945.4 1.971 4.57 2.791 10.26 3.712 15.21l.976 5c.585 2.51 1.043 5.03 1.609 7.54l2.419 11.46c1.458 6.23 2.896 12.69 4.121 18.96l1.44 6.58c.287 1.63 4.205 16.65-.545 8.13-4.668-5.52-9.08-16.32-15.44-18.2l-1.74 1.16c-1.899 4.39-1.152 8.86-.922 13.77-1.178 15.98-2.406 31.65-3.966 47.62-.791 8.1.515 16-.569 24.64-6.911-.62-21.998-.19-29.716-.19l-58.928.02z"/><path fill="#b6805b" d="M635.13 1319.88c-1.178 15.98-2.406 31.65-3.966 47.62-.791 8.1.515 16-.569 24.64-5.292-9.1.713-60.26 3.828-71.2z"/><path fill="#b6805b" d="M653.232 1323.15a172 172 0 0 1-2.131-9.16c-.645-3.1-1.382-6.43-1.987-9.5l-.963-5c-1.295-6.57-10.358-46.78-8.651-49.22 1.971 4.57 2.791 10.26 3.712 15.21l.976 5c.585 2.51 1.043 5.03 1.609 7.54l2.419 11.46c1.458 6.23 2.896 12.69 4.121 18.96l1.44 6.58c.287 1.63 4.205 16.65-.545 8.13"/><path fill="#252227" d="m541.999 831.81 61.726-.135c10.243-.012 26.892-.41 36.74.585 4.06 10.234 7.48 34.264 10.344 46.262l2.507 11.459c.612 2.821 3.666 13.641 2.007 15.492-.468-.081-.852-.681-1.166-1.076-8.289-8.613-6.926-14.192-18.494-22.405-.358 4.328-.684 18.737-1.549 21.224-.722 20.742-4.525 41.775-3.299 62.285.189 3.168-.006 4.369-.354 7.578-6.186-.721-22.782-.145-29.934-.103l-58.489.316z"/><path fill="#f4a367" d="M630.461 973.079c-5.062-9.261.328-69.425 2.973-70.338.336.081.12-.016.68.475-.722 20.742-4.525 41.775-3.299 62.285.189 3.168-.006 4.369-.354 7.578"/><path fill="#b6805b" d="M654.157 904.397a1044 1044 0 0 1-7.031-32.407l-1.997-9.503c-1.063-5.131-6.498-27.218-4.664-30.227 4.06 10.234 7.48 34.264 10.344 46.262l2.507 11.459c.612 2.821 3.666 13.641 2.007 15.492-.468-.081-.852-.681-1.166-1.076"/><path fill="#252227" d="M1407.28 631.879c11.21.048 91.08 1.011 96.04-1.036 3.84.179 4.26-.478 6.78 1.424.61 13.22.79 28.759.34 42.074-.97 28.957 1.57 60.158-.36 88.808-2.2 1.686-3.97 1.417-6.79 1.542-4.12-.624-22.19-.339-27.25-.347l-60.08-.091c.08-20.741-.5-55.608-3.6-77.202-.15-1.068-1.64-1.353-2.92-1.902-4.52.906-14.51 16.537-18.99 21.891 6.2-24.918 11.81-49.979 16.83-75.161"/><path fill="#f4a367" d="M1503.32 630.843c3.84.179 4.26-.478 6.78 1.424.61 13.22.79 28.759.34 42.074-.97 28.957 1.57 60.158-.36 88.808-2.2 1.686-3.97 1.417-6.79 1.542-.86-17.313-.16-41.288-.19-58.974-.04-24.015-.63-51.057.22-74.874"/><path fill="#252227" d="M541.956 631.807c30.408-.007 69.974-1.085 99.502.529 1.869 4.366 15.522 64.199 15.178 65.713-.979.814-1.718-.416-2.208-1.122-5.88-5.376-9.515-16.899-15.867-19.791l-1.968.854c-2.131 3.787-1.593 7.387-1.596 11.873.047 5.871.15 8.846-.749 14.638-1.042 11.963-2.129 24.035-3.081 35.998-.662 8.322.682 15.199-.758 23.685-3.636-.467-21.899-.06-26.618-.049l-61.76.149z"/><path fill="#f4a367" d="m632.749 699.244 1.499 5.257c-1.042 11.963-2.129 24.035-3.081 35.998-.662 8.322.682 15.199-.758 23.685-5.544-10.135.831-51.862 2.34-64.94"/><path fill="#f4a367" d="M654.428 696.927a291 291 0 0 1-3.267-13.442l-1.98-9.001c-1.388-6.162-9.798-39.254-7.723-42.148 1.869 4.366 15.522 64.199 15.178 65.713-.979.814-1.718-.416-2.208-1.122"/><path fill="#976b4e" d="M634.997 689.863c.047 5.871.15 8.846-.749 14.638l-1.499-5.257c.159-3.081.303-5.107 1.599-7.915z"/><path fill="#dcdde8" d="M1372.39 447.782c1.03 1.402 32.5 113.229 34.81 121.214-12.66 47.326-19.7 104.382-33.15 152.478l-1.37-1.315c-5.23-15.039-33.3-143.79-32.86-150.127.88-12.463 13.5-50.314 17.34-64.199 5.31-19.189 9.13-39.139 15.23-58.051"/><path fill="#dcdde8" d="M848.854 445.465c.276.517.783 1.428 1.033 2.018 5.099 12.063 9.774 35.717 13.494 49.525 4.211 15.633 17.294 56.021 18.268 69.69.548 7.689-27.698 141.697-32.234 153.177-3.748-8.536-11.453-52.468-13.903-63.667l-13.313-61.093c-1.778-8.209-6.336-24.206-4.667-31.482 2.758-12.025 6.681-25.156 9.928-37.148a3876 3876 0 0 0 21.394-81.02"/><path fill="#dcdde8" d="M672.505 447.661c2.98 3.344 10.734 36.515 12.606 43.231l13.441 47.251c2.673 9.378 6.388 19.447 7.389 29.141.808 7.816-26.414 133.35-31.184 151.023-.188-.222-.404-.422-.565-.665-1.244-1.878-33.409-146.747-33.051-150.617 1.229-13.298 7.482-28.706 11.136-41.739a1933 1933 0 0 0 20.228-77.625"/><path fill="#dcdde8" d="M1196.25 445.663c.7 1.389 12.64 45.149 14.03 50.306 5.81 21.589 14.66 49.394 19.12 70.86.92 4.405-7.81 42.445-9.35 49.5l-22.15 101.174-1.19.045c-2.18-4.875-6.68-28.418-8.16-34.886-8.78-38.54-15.08-78.511-24.11-116.875 11.77-34.625 22.85-84.322 31.81-120.124"/><path fill="#dcdde8" d="M1344.68 1332.42c3.17 2.92 24.06 40.98 29.86 49.66 9.24-13.98 18.56-28.44 28.26-42.06.82 20.22 1.92 44.55 1.35 64.64-.19 6.77-5.32 31.46-6.81 39.42l-13.26 71.15c-2.77 15.26-7.84 47.45-12.13 60.71-6.7-57.14-21.9-115.35-29.23-172.5-2.36-18.39.21-52.04 1.96-71.02"/><path fill="#dcdde8" d="M645.177 1333.81c4.597 5.33 24.908 41.54 29.632 49.81 5.635-10.35 21.022-33.37 27.897-42.93 1.359 19.88 1.984 46.42 1.304 66.39-.189 5.56-5.226 30.37-6.476 37.04l-12.813 68.13c-3.234 18.39-7.194 44.36-11.804 61.9l-21.273-118.04c-2.313-12.91-4.891-25.87-7.089-38.78-4.481-26.31-2.97-57.21.622-83.52"/><path fill="#dcdde8" d="M995.056 1333.63c3.262 3.16 25.544 42.86 29.404 49.51 8.77-13.57 18.13-28.07 27.41-41.21 1.54 18.43 2.51 43.55 1.9 61.84-.35 10.21-5.21 32.54-7.24 43.5l-13.07 70.99c-3.28 19.09-6.76 38.14-10.42 57.16-5.83-25.8-10.38-57.02-15.05-83.57l-9.958-56.31c-2.713-15.38-5.878-29.76-5.836-45.45.051-19.19.321-37.38 2.86-56.46"/><path fill="#dcdde8" d="M1170.14 1333.67c4.94 5.2 23.54 40.81 28.54 49.74 8.42-13.55 19.04-28.72 27.98-42.17 1.25 19.19 2.31 44.54 1.66 63.53-.27 7.91-5.44 32.64-7.13 41.64l-13.42 71.45a3039 3039 0 0 1-10.79 57.59c-2.83-10.26-4.71-23.98-6.53-34.68l-9.1-53.13-9.22-54.13c-6.13-36.32-7.08-62.98-1.99-99.84"/><path fill="#dcdde8" d="M820.426 1334.63c4.675 3.67 24.264 40.5 29.619 49.1 7.175-13.14 19.205-30.18 27.745-43.01 1.019 20.14 1.97 45.49 1.486 65.55-.14 5.8-5.439 31.93-6.715 38.78l-12.832 69.2c-3.524 17.77-7.115 43.98-11.773 60.63-9.479-58.52-21.809-116.95-30.173-175.59-2.136-14.98 1.248-49.51 2.643-64.66"/><path fill="#dcdde8" d="M644.409 913.706c4.555 4.132 26.048 42.894 29.932 49.817 9.375-13.109 19.236-29.899 28.669-43.857.394 21.622 1.715 45.561 1.164 66.938-.169 6.534-5.301 29.836-6.828 37.436l-11.144 57.19c-4.332 20.07-7.659 40.4-12.051 60.51-7.308-27.87-12.696-64.74-19.614-93.65-4.057-16.95-11.293-53.381-13.221-69.04-1.503-12.209 1.839-52.832 3.093-65.344"/><path fill="#dcdde8" d="M1371.33 923.562a3356 3356 0 0 1-20.88-102.241c-2.03-10.443-8.21-39.07-8.68-48.665-1-20.413.96-49.447 2.52-69.972a4621 4621 0 0 0 29.76 51.341c9.04-14.103 18.98-30.401 28.65-43.854.55 13.684 3.65 55.178 1.58 65.64-9.51 47.836-18.76 102.135-29.76 149.145-1.85 5.474-2.48 1.783-3.19-1.394"/><path fill="#c8cbd0" d="m1371.33 923.562 3.19 1.394c-1.85 5.474-2.48 1.783-3.19-1.394"/><path fill="#dcdde8" d="M1344.34 912.578c4.11 2.914 26.08 43.464 29.68 50.522 9.64-13.44 19.69-29.377 28.9-43.347.69 21.159 1.66 45.462 1.22 66.534-.13 6.208-5.08 28.743-6.58 36.273l-11.86 60.21c-3.53 19.23-7.44 38.39-11.72 57.47-7.92-27.89-13.54-66.54-20.02-95.72-3.29-14.78-10.37-49.929-11.87-63.78-1.46-13.478 1.27-52.94 2.25-68.162"/><path fill="#dcdde8" d="M994.373 914.523c4.594 2.531 25.617 41.575 29.967 48.99 7.49-9.261 20.61-30.461 27.72-41.182 1.5 19.468 2.38 45.488 1.64 64.941-.3 7.815-5.07 30.278-6.73 38.758l-11.74 59.6c-3.38 18.32-7.55 37.51-11.23 55.83-4.42-12.38-11.62-52.93-14.73-68.5l-11.316-57.83c-1.431-7.45-5.515-26.685-5.821-33.486-.976-21.728.483-45.569 2.24-67.121"/><path fill="#dcdde8" d="M644.572 702.873c10.674 17.241 20.165 33.735 30.428 51.073 8.607-14.131 18.154-30.065 27.899-43.449.428 12.28 2.594 56.239 1.259 65.334-2.813 19.182-9.465 53.465-13.93 73.848-4.329 19.759-10.222 58.141-15.494 75.488-.125.803-.069 1.432-.787 1.895-1.098-.363-1.019-1.036-1.31-2.14L651.92 823.559c-2.34-11.4-9.31-41.312-9.984-51.216-1.296-19.019 1.105-50.198 2.636-69.47"/><path fill="#c8cbd0" d="m672.637 924.922 2.097.245c-.125.803-.069 1.432-.787 1.895-1.098-.363-1.019-1.036-1.31-2.14"/><path fill="#dcdde8" d="M820.211 914.529c4.184 3.178 25.131 41.405 29.153 48.484a4694 4694 0 0 1 28.317-42.232c1.014 20.394 2.265 45.234 1.56 65.471-.251 7.212-5.45 30.468-7.094 38.308a3192 3192 0 0 0-12.137 59.21c-4.519 18.78-6.744 37.28-12.125 56.56-7.759-27.56-12.926-66.66-18.94-95.48-3.58-17.15-9.556-50.066-11.502-66.415-1.321-11.102 1.792-51.435 2.768-63.906"/><path fill="#dcdde8" d="M1169.68 914.441c4.16 3.437 25.03 41.321 29.08 48.324 9.66-13.795 18.99-28.564 28.2-42.734 1.27 20.432 1.96 46.793 1.24 67.269-.23 6.289-5.29 28.8-6.87 36.54l-12.11 59.86c-3.41 17.63-7.47 40.61-12.31 57.43-6.55-25.06-11.06-57.92-16.39-84.12-4.53-22.27-10.79-54.9-13.38-76.883-1.52-12.878 1.17-51.596 2.54-65.686"/><path fill="#dcdde8" d="M1170.02 705.601c4.21 4.334 24.34 40.6 28.58 48.071 9.65-13.638 18.91-28.159 28.09-42.173 1.03 20.636 2.28 44.358 1.92 64.92-.13 7.161-5.06 28.715-6.66 36.327a3349 3349 0 0 0-12.8 61.936 2049 2049 0 0 1-11.78 55.935c-12.86-48.445-20.71-108.093-30.33-157.886-2.17-11.223 1.22-55.284 2.98-67.13"/><path fill="#dcdde8" d="M821.017 706.567c4.165 3.281 24.725 40.75 28.801 47.82a1373 1373 0 0 1 27.997-42.791c1.088 20.857 2.102 46.215 1.252 67.025-.266 6.504-4.857 27.65-6.268 34.703l-11.647 57.895a3414 3414 0 0 1-12.687 60.662c-9.656-42.045-15.996-85.206-24.987-127.226-7.603-35.533-6.689-62.126-2.461-98.088"/><path fill="#dcdde8" d="M1344.16 1127.46c4.28 3.09 25.81 42.81 29.82 50.3 8.72-13.92 19.12-31.19 28.96-43.94.7 16.48.93 32.94 1.41 49.41.46 16-3.58 31.07-6.7 46.69l-12.42 62.44c-3.62 18.97-7.37 39.51-12.15 58.1-8.02-28.23-13.99-68.09-20.15-97.36-3.58-17.01-9.5-47.39-11.28-63.44-1.31-11.85 1.56-49.44 2.51-62.2"/><path fill="#dcdde8" d="M1169.33 1126.47c4.6 2.74 24.61 40.23 29.64 48.32 7.59-12.14 19.33-29.91 27.88-40.93 1.4 18.23 2.23 42.67 1.39 60.91-.33 7.34-4.74 27.48-6.32 35.37l-12.16 60.25c-3.58 19.04-7.56 41.65-12.69 60.11-2.03-7.09-3.49-14.93-4.89-22.19-8-41.66-16.12-83.55-23.38-125.33-3.95-22.68-1.37-53.34.53-76.51"/><path fill="#dcdde8" d="M644.408 1127.75c4.161 3.9 25.794 42.99 30.106 50.65 8.542-15.18 18.697-29.88 28.379-44.4.645 18.55 1.643 40.94 1.134 59.23-.244 8.81-5.29 30.9-7.222 40.39l-11.752 59.16c-3.715 18.35-7.613 40.77-12.455 58.49-11.974-51.37-21.265-108.73-30.871-160.82-2.148-11.65 1.242-49.77 2.681-62.7"/><path fill="#dcdde8" d="M820.275 1126.73c4.455 4 25.314 40.91 29.694 48.56 5.824-10.48 20.711-32.76 27.731-42.27.977 18.45 1.849 40.86 1.528 59.34-.133 7.65-5.011 29.51-6.641 37.68a4772 4772 0 0 0-11.957 60.74c-4.296 20.02-7.645 39.84-12.686 59.77-7.368-30-12.427-65.79-18.915-96.44-3.23-15.26-9.67-48.39-11.141-63.36-1.499-15.25 1.069-48.96 2.387-64.02"/><path fill="#dcdde8" d="M994.569 1128.35c4.17 3.41 25.531 42.57 29.451 49.95 8.95-14.99 19-29.89 28.61-44.51.48 11.8 2.28 48.22.98 58.42-3.98 31.23-12.23 68.05-18.57 99.01-4.44 20.73-7.45 40.72-12.6 61.64-8.81-53.32-23.002-107.8-30.267-161.49-2.22-16.4.674-46.49 2.396-63.02"/><path fill="#dcdde8" d="M995.183 708.723c4.623 4.799 23.387 41.251 28.507 50.06 9.02-13.767 18.6-28.993 28.2-42.21 3.76 38.411 2.11 57.526-5.09 94.448-3.78 19.795-7.76 39.55-11.95 59.261-3.58 19.124-7.31 39.733-12.14 58.482-11.63-49.781-21.76-104.263-30.555-154.835-2.021-11.621.952-52.873 3.028-65.206"/><path fill="#dcdde8" d="M1420.05 1196.03c29.79-.34 60.26-.1 90.1-.08l.44 37.62c.02 4.28-2.66 3.42-6.34 3.41l-93.11-.14 1.56-6.85 3.07-14z"/><path fill="#dcdde8" d="m718.576 577.857 87.729-.096c2.085 11.378 6.393 28.498 7.399 39.507-2.532 1.73-5.922 1.199-9.204 1.182l-94.373.117q4.516-20.294 8.449-40.71"/><path fill="#dcdde8" d="m1067.33 577.613 87.58.265c1.58 7.621 8.42 34.997 6.47 40.021l-3.13.354-99.05.034z"/><path fill="#dcdde8" d="m719.154 777.848 87.245.006a932 932 0 0 0 4.423 24.664c1.627 8.783 6.316 16.329-2.572 16.204l-96.944.004a1997 1997 0 0 1 6.488-34.229c.441-2.328.838-4.336 1.36-6.649"/><path fill="#dcdde8" d="m719.023 1405.22 87.242-.17 1.546 8.96c1.118 6.42 2.727 13.57 3.476 19.98.744 6.36 4.847 12.04-2.227 11.92h-1.81l-95.726.17c2.681-13.25 4.68-28.14 7.499-40.86"/><path fill="#dcdde8" d="M1069.1 778.558c5.19-1.577 84.85-1.026 86.44.349 2.56 13.206 4.72 26.607 7.44 39.733l-102.32.08a768 768 0 0 0 5.1-23.23l1.02-4.996z"/><path fill="#dcdde8" d="M1069.1 778.558c5.19-1.577 84.85-1.026 86.44.349-6.47 2.46-77.81 1.741-86.44-.349"/><path fill="#dcdde8" d="m1243.62 1405.05 86.92.03c2.01 12.95 5.94 27.3 6.45 40.29.03.88-5.38.61-5.74.6l-95.37-.04c2.97-13.56 5.02-27.3 7.74-40.88"/><path fill="#dcdde8" d="m719.449 1196 86.729-.01 2.621 14.52a639 639 0 0 1 3.956 24.53c.301 2.12-2.809 1.8-4.008 1.77l-1.497-.01-95.858-.08c1.389-7.25 2.998-14.49 4.39-21.73z"/><path fill="#dcdde8" d="m1419.65 1405.08 90.47-.02c.05 5.89.6 33.2-.59 40.11-.11.66-4.17.61-5.28.62l-92.83.01c2.86-13.61 5.46-27.11 8.23-40.72"/><path fill="#dcdde8" d="m1243.29 777.971 87.32-.107c.24 1.705.42 3.421.7 5.118.17 1.009.39 2.009.54 3.022.5 3.505 5.91 30.58 5.02 31.745-1 1.299-5.46.745-6.62.74-31.54-.005-63.39.379-94.9.024 2.62-13.586 5.96-26.811 7.94-40.542"/><path fill="#dcdde8" d="m1421.41 986.492 88.75-.038.18 40.316c-4.26.29-8.34.19-12.59.18l-86.5.03c1.63-6.47 3.12-12.97 4.5-19.5l1.49-7.46c.67-3.312 1.13-12.034 4.17-13.528"/><path fill="#dcdde8" d="M1243.56 986.471c28.77-.266 58 .067 86.81.111 2.07 11.977 5.91 27.358 6.95 39.548.08.95-3.79.86-4.26.85l-1.81-.03h-96.2c3.26-13.67 6.13-26.63 8.51-40.479"/><path fill="#dcdde8" d="m1068.81 1405.1 86.71-.01c1.51 10.39 3.71 20.58 5.34 30.92.68 4.3 3.36 9.83-1.85 9.83l-1.26-.01-1.5.02-95.69.1c2.89-13.59 5.64-27.21 8.25-40.85"/><path fill="#dcdde8" d="m1420.49 777.866 89.65-.103c.17 13.027.9 27.328-.16 40.118-.07.84-2.69.858-3.23.841l-1.5-.02-93.96-.147c2.96-13.54 6.31-27.161 9.2-40.689"/><path fill="#dcdde8" d="m718.866 986.461 86.886.046c2.528 12.142 4.587 24.373 6.822 36.573.127.7.474 2.7-.117 3.25-1.038.98-4.102.64-5.207.64l-95.817.08c1.867-12.09 4.533-28.856 7.433-40.589"/><path fill="#dcdde8" d="m1244.03 1195.9 86.25.08c1.3 8.64 3.34 17.54 4.48 26.03 1.44 10.77 6.55 14.79-3.51 14.66l-95.85.13c.81-3.17 1.62-6.09 2.3-9.32l2.04-9.49c1.51-7.35 2.94-14.71 4.29-22.09"/><path fill="#dcdde8" d="m1242.82 577.656 86.14.038c2.4 13.256 5.58 26.757 7.43 39.968.13.906-4.18.817-4.33.815l-1.81.007-96.11-.075c1.81-7.864 4.06-16.607 5.63-24.415 1.14-5.422 2.15-10.87 3.05-16.338"/><path fill="#dcdde8" d="m894.06 1196.02 86.528-.11c.386 2.38.845 4.74 1.228 7.09l1.362 7.99c.144.8 1.85 9.96 1.755 10.52-.834 4.9 5.99 15.32-.921 15.28l-.951-.01-1.811-.01-95.449-.02 4.927-23.26c1.197-5.87 2.2-11.62 3.332-17.47"/><path fill="#dcdde8" d="m894.053 777.955 86.502-.078c.394 2.395.862 4.757 1.255 7.127 1.761 10.642 3.965 21.216 5.671 31.868.179 1.117-.982 1.796-1.967 1.808l-2.264-.024-96.832.062c2.779-13.553 4.963-27.248 7.635-40.763"/><path fill="#dcdde8" d="m894.307 1405.12 86.57-.03 2.409 13.9c.787 4.31 2.287 10.79 2.577 15.02.69 10.07 4.986 11.86-4.613 11.8l-94.397.19c1.601-7.97 2.933-15.99 4.378-23.99l1.483-8.02z"/><path fill="#dcdde8" d="m1069.36 1195.99 86.22-.01c1.68 9.92 3.95 20.1 5.29 30.03 1.33 9.84 4.13 10.85-4.62 10.78l-95.44-.08 2.88-12.72c.68-3.1 1.42-6.39 2.06-9.5l.92-4.5c.96-4.65 1.85-9.32 2.69-14"/><path fill="#dcdde8" d="m932.758 986.5 47.729-.182a1971 1971 0 0 1 5.309 29.682c.611 3.7 1.221 7.27 1.782 10.97l-47.078.05-54.325-.07a658 658 0 0 0 8.26-40.336z"/><path fill="#dcdde8" d="M1068.84 986.608c28.74-.262 57.96-.08 86.7.119.77 4.096 1.62 8.176 2.31 12.285l.97 5.508c1.19 6.71 2.44 13.42 3.56 20.14.5 2.97-3.36 2.35-5.13 2.35l-96.24-.1c3.23-13.54 5.48-26.63 7.83-40.302"/><path fill="#dcdde8" d="m542.087 777.76 88.405.029c1.94 13.245 5.126 27.694 7.986 40.819-31.638.458-64.347-.012-96.061-.049z"/><path fill="#dcdde8" d="M542.202 1195.97h87.93l2.673 15.04c1.325 7.22 3.948 18.88 4.8 25.69-31.641.47-63.809.14-95.508.3z"/><path fill="#dcdde8" d="m894.441 577.864 85.392.009c1.602 7.58 4.065 17.68 4.936 25.145 1.578 13.519 7.023 15.26-5.519 15.243l-93.255.204 3.771-17.971 1.12-5.498c1.131-5.746 2.541-11.36 3.555-17.132"/><path fill="#dcdde8" d="m542.166 1405.15 88.089-.08q3.525 20.43 7.382 40.8l-95.478.12z"/><path fill="#dcdde8" d="m542.191 986.327 87.441.066c.744 3.559 1.488 7.029 2.155 10.615l1.943 10.502c1.181 6.52 2.703 12.89 3.954 19.41l-95.47.08c-.072-13.18-.332-27.599-.023-40.673"/><path fill="#dcdde8" d="M545.461 577.933c27.901-.475 56.839-.132 84.772-.097l2.599 12.673 1.902 9.004c.602 2.814 3.732 16.252 3.793 17.949-.462.582-1.654.744-2.277.902a8608 8608 0 0 1-94.116.035l.392-1.024c5.814-14.852 4.889-24.09 2.935-39.442"/><path fill="#dcdde8" d="M1419.5 577.826c26.42.037 58.99-.907 84.88.378-2.47 10.291-3.39 17.864-1.16 28.25.53 2.453 3.01 9.313 2.86 10.913-.65.828-2.96.986-3.95 1.154a5868 5868 0 0 0-90.86-.041 2806 2806 0 0 0 8.23-40.654"/><path fill="#1e1e27" d="m867.173 699.545 4.289 1.273c-.916 1.076-2.459 3.391-3.792 3.593-1.314-.868-.634-3.476-.497-4.866"/></svg>