<svg xmlns="http://www.w3.org/2000/svg" width="2048" height="2048" viewBox="0 0 2048 2048"><path fill="#26282f" d="M0 0h2048v2048H0z"/><path d="M622.726 521.528c2.774-16.833 4.738-29.045 9.632-45.837 35.654-122.352 129.612-206.133 238.989-266.045 34.035-18.643 113.69-62.245 152.843-81.89l3.09.873c5.97.89 9.2 2.718 14.6 6.107 116.71 59.111 239.32 114.453 321.8 219.709 25.99 33.159 48.48 70.979 61.52 111.144a272.4 272.4 0 0 1 12.15 54.245c16.78 17.688 41.17 41.991 56.55 60.151l-41.23 410.816-11.72 115.699c-1.94 20.1-3.84 45.31-7.1 64.88-1.8 10.83-16.86 35.47-21.82 46.74 9.64 26.89 14.95 46.1 20.54 74.44 13.56 7.91 28.95 15.74 43.09 22.63 54.17 26.39 106.71 56.03 160.28 83.47-8.92 25.28-17.65 49.32-28.61 73.76-71.94 160.42-195.89 294.47-355.29 370.37-5.73 2.73-11.3 5.47-17.25 7.75-13.43 7.22-33.77 14.46-48.21 19.45-49.97 17.28-100.44 28.08-153.59 26.32-2.74-.56-10.4.81-13.99.95-12.28.46-24.039-.5-36.235-1.8a562.5 562.5 0 0 1-168.974-46.69c-161.715-73.24-281.616-204.22-357.105-363.26-13.54-28.53-23.8-56.28-34.921-85.75 11.54-6.75 29.021-15.06 41.238-21.34l108.681-55.06c17.93-9.09 39.554-19.33 56.565-29.28 3.236-22.71 11.321-52.12 17.448-74.23-6.551-12.9-19.798-34.72-23.809-47.17-1.94-6.02-3.858-32.75-4.598-41.11a7244 7244 0 0 0-7.544-85.67c-9.802-94.159-16.893-189.304-25.958-283.596-5.737-59.675-9.579-121.285-16.581-180.678 18.537-19.106 37.46-40.378 55.519-60.098"/><path fill="#b27542" d="M1041.88 134.736c116.71 59.111 239.32 114.453 321.8 219.709 25.99 33.159 48.48 70.979 61.52 111.144a272.4 272.4 0 0 1 12.15 54.245c16.78 17.688 41.17 41.991 56.55 60.151l-41.23 410.816-11.72 115.699c-1.94 20.1-3.84 45.31-7.1 64.88-1.8 10.83-16.86 35.47-21.82 46.74 9.64 26.89 14.95 46.1 20.54 74.44 13.56 7.91 28.95 15.74 43.09 22.63 54.17 26.39 106.71 56.03 160.28 83.47-8.92 25.28-17.65 49.32-28.61 73.76-71.94 160.42-195.89 294.47-355.29 370.37-5.73 2.73-11.3 5.47-17.25 7.75-13.43 7.22-33.77 14.46-48.21 19.45-49.97 17.28-100.44 28.08-153.59 26.32 11.18.48 27.91-1.97 39.35-3.44 58.78-7.54 109.66-25.46 163.56-49.48 7.14-4.51 27.84-14.02 36.96-18.87 21.7-11.6 42.75-24.37 63.07-38.25 141.69-95.84 232.99-226.07 290.25-385.48a10174 10174 0 0 0-202.23-105.44c-6.18-29.21-11.71-46.13-21.63-74.27 5.02-9.42 20.91-39.6 22.48-48.61 2.49-14.38 4.49-38.95 6-54.12l10.94-109.82 27.76-276.954c4.85-49.389 10.72-100.013 14.97-149.261-17.17-18.798-37.55-41.325-55.53-58.968-15.96-120.418-102.35-213.976-200.04-278.947-46.49-30.92-96.75-56.221-145.12-84.025a2277 2277 0 0 0-43.83-24.581z"/><path fill="#685042" d="M1027.28 128.629c5.97.89 9.2 2.718 14.6 6.107l-1.93 1.058c-4.37-2.384-8.38-4.623-12.67-7.165"/><path fill="#e8e8e7" d="M994.565 324.578c-12.564 1.512-53.414 9.361-62.617 2.092-3.231-2.553-4.961-8.191-4.796-12.173.351-8.496 84.888-142.967 93.778-149.515 2.63-1.934 6.25-2.263 9.39-1.574 3.34.731 6.6 2.799 8.73 5.458 12 14.963 22.07 35.161 32.18 51.621 16.44 26.775 34.04 53.023 49.84 80.168 2.27 3.91 7.77 13.106 7.13 17.48-.58 3.925-4.94 7.432-8.3 8.943-13.69 6.16-38.32.235-53.11-1.678l-1.69 2.341c166.81 40.932 285.85 137.312 392.26 267.625-1.93 32.4-8.49 75.61-11.96 109.102l-23.36 234.347-14.67 147.865c-1.65 16.46-3.61 52.67-7.64 67.03-39.86 142-141.7 248.95-260.06 331.58-35.3 24.65-74.18 47.1-111.02 68.48a927.8 927.8 0 0 1-174.351-110.33c-80.244-65.34-149.578-143.85-187.871-240.91-4.94-12.52-16.825-42.97-18.712-55.46-3.228-21.38-5.129-49.69-7.106-71.74l-12.303-133.65c-10.071-113.861-19.89-231.028-31.595-344.535 25.986-34.811 64.923-83.303 97.435-112.586 81.874-73.742 192.435-132.97 299.534-157.68z"/><path fill="#26282f" d="M1053.87 323.625c2.64.285 10.58 1.155 12.92 1.775l-1.69 2.341c-4.11-.924-8.36-2.06-12.5-2.641z"/><path fill="#575757" d="M994.565 324.578c1.607-.461 10.235-1.873 11.415-1.066-2.23 1.433-9.357 2.699-12.299 3.367z"/><path fill="#a6a6a6" d="M1038.59 321.058c2.54.334 13.6 1.527 15.28 2.567l-1.27 1.475-1.1-.257c-4.98-1.226-8-2.166-12.91-3.785"/><path d="m1028.31 327.218.55.296c1.42 2.186 1.06 4.106 1.07 6.818l-.61 1201.518-19.05-9.49c-6.36-3.23-12.752-6.41-19.168-9.53l-.052-1181.391c11.62-1.584 25.62-5.397 37.26-8.221"/><path d="M1373.63 799.23c.75.63.99.623.98 1.576-.07 23.034-9.47 52.201-20.93 70.956-37.4 61.209-119.06 75.662-183.87 89.531a2925 2925 0 0 0-85.47 19.533c-1.17-4.375-.93-30.99-.95-37.134l.1-83.175c100.58-12.979 192.61-35.107 290.14-61.287"/><path d="M676.639 799.251c63.973 14.446 126.871 34.325 191.873 45.685 29.758 5.2 60.648 10.175 90.131 16.074 1.101 37.704.299 79.975.1 117.951a2020 2020 0 0 0-77.877-17.931c-52.917-11.371-116.043-21.763-157.344-59.812a148.7 148.7 0 0 1-46.883-101.967"/><path d="M1023.78 177.885c2.68-.206 8.47-.461 10.02 1.721 26.53 37.32 51.8 79.225 75.92 117.993 18.94 30.446-18.69 21.415-35.74 19.517a927 927 0 0 0-44.16-3.76c-23.1 3.105-56.017 5.689-79.587 6.666-2.449.102-6.378-1-7.999-2.988-1.792-2.197-2.846-6.481-2.077-8.59 6.517-17.893 74.833-123.91 83.623-130.559"/><path fill="#e8e8e7" d="M1026.72 1689.06c13.34-7.23 26.34-14.39 39.29-22.17 136.51-82.04 251.81-207.28 303.61-359.59 5.45-16.03 9.15-34.54 12.97-51.32 36.29 54.96 15.12 135.25-11.42 189.59l2.17.81c21.49-37.5 41.07-77.01 49.55-119.8 36.08 19.2 73 37.4 109.13 56.46 16.39 8.65 41.25 20.37 56.48 29.8-17.75 50.38-41.58 92.46-71.46 137.29-103.26 154.94-272.66 272.81-459.68 294.84-11.27 1.33-23.38 2.49-34.75 2.68-227.217-12.91-439.484-178.45-535.401-379.23a510 510 0 0 1-22.293-53.72 13173 13173 0 0 1 160.341-81.89c11.386 44.19 40.6 97.63 66.557 135.15l2.658-.23c-36.714-60.8-53.59-135.46-29.987-203.94a602 602 0 0 0 6.572 25.22c33.987 116.13 124.374 233.99 216.976 309.86 43.308 35.49 89.73 63.56 138.687 90.19"/><path fill="#575757" d="M1358.5 1468.65c1.22-3.43 10.37-19.65 12.67-23.08l2.17.81c-2.9 5.45-10.69 17.84-14.84 22.27"/><path fill="#575757" d="M694.472 1467.73c3.352 5.11 4.627 7.73 7.294 13.08-3.831-4.54-6.538-7.9-9.952-12.85z"/><path fill="#a6a6a6" d="M1357.56 1470.04c.21-.84.22-.98.94-1.39-.15.92-.12.78-.94 1.39"/><path fill="#fefefe" d="M1352.82 1474.7c2.49 2.58.49 3.14-1.64 5.67-1.83-.77.93-4.29 1.64-5.67"/><path fill="#e8e8e7" d="m988.182 186.129.361.373c.21 9.666-72.932 111.623-72.025 132.712.2 4.643 4.331 9.462 7.177 12.86-93.105 30.951-186.872 84.319-256.652 153.598-1.971 2.294-2.286 3.017-4.971 4.426-1.413-3.246 5.518-21.307 7.056-25.299 19.564-50.775 49.651-95.746 86.688-135.343 63.823-68.235 148.866-105.482 232.366-143.327"/><path fill="#e8e8e7" d="M1062.98 184.842c16.26 6.033 31.98 14.343 47.7 21.69 116.39 54.415 211.29 125.357 266.14 244.66a249 249 0 0 1 15.51 43.372l-20.48-21.84c-69.11-65.248-151.95-108.963-240.9-140.457 6.02-7.968 9.99-15.385 5.33-25.343-6.22-13.255-14.43-25.97-22.06-38.489a5253 5253 0 0 1-44.06-72.292z"/><path fill="#fefefe" d="M1062.98 184.842c16.26 6.033 31.98 14.343 47.7 21.69 116.39 54.415 211.29 125.357 266.14 244.66a249 249 0 0 1 15.51 43.372l-20.48-21.84-.42-1.078c-51.52-116.194-153.82-197.753-264.09-255.275-12.43-6.483-25.17-15.121-37.18-20.228z"/></svg>