<svg xmlns="http://www.w3.org/2000/svg" width="2048" height="2048" viewBox="0 0 2048 2048"><path fill="#252532" d="M0 0h2048v2048H0z"/><path fill="#040111" d="M849.371 252.441c20.743-1.699 47.063-.45 68.235-.436l119.704.098 99.22-.08c39.51-.049 73.13-2.17 111.97 7.031a264.06 264.06 0 0 1 119.97 65.038 259.7 259.7 0 0 1 82.79 181.423c3.38 123.722-67.36 239.695-155.29 320.865-39.43 36.604-79.02 68.661-116.83 107.233-42.74 43.586-67.66 91.077-31.81 148.387 11.98 19.15 31.22 34.6 47.31 50.31 28.91 27.24 58.88 52.41 88.16 79.32 88.71 81.54 161.27 191.03 168.34 314.35 3.95 68.94-24 141.05-71.3 191.47-50.15 53.47-112.82 80.28-186.03 82.03l-234.348-.12c-106.73-.18-189.228 11.72-275.676-66.76a263.72 263.72 0 0 1-86.624-181.36c-5.647-122.68 67.425-242.91 153.376-324.14 43.888-41.48 90.767-79.89 132.692-123.26 20.182-20.88 37.391-51.62 35.813-81.53a94.7 94.7 0 0 0-11.112-39.118c-22.754-43.329-91.595-100.476-129.741-133.699-94.426-81.503-173.033-189.299-180.904-317.669-5.914-96.457 42.672-186.902 123.145-238.952 40.022-25.886 81.576-37.771 128.94-40.431"/><path fill="#844925" d="M824.046 820.207c-9.251-4.789-59.64-54.896-68.351-64.369-60.227-65.494-109.489-154.816-106.198-245.857a212.25 212.25 0 0 1 68.115-149.125c62.965-58.43 125.103-59.002 205.08-55.853 25.047-1.212 54.952.199 80.468-.182 10.61-.158 41.75-.656 51.26.254 30.43-.32 60.87-.469 91.3-.449 20.22-.051 44.03-.674 64.07.623 123.97 17.033 204.73 121.127 187.09 245.586-12.62 89.111-62.67 165.981-126.12 227.792-7.26 7.076-35.74 35.684-43.73 39.63-4.31 4.786-25.15 23.318-30.69 27.392-1.46 2.155-13.87 13.451-16.34 14.597-47.82 47.48-102.78 92.646-102.1 165.154.47 50.22 25.65 91.88 60.71 126.08 3.51 3.42 31.75 30.27 32.51 31.62 6.92 5.06 13.75 11.19 20.2 16.88 31.73 27.98 64.31 55.09 92.67 86.59 7.57 8.39 16.27 17.08 22.83 26.27 6.86 7.04 17.63 21.62 23.42 29.81 38.91 55.08 70.03 131.19 69.14 199.37A208.66 208.66 0 0 1 1334.9 1689c-51.8 50.13-108.53 62.1-177.99 58.91-21.93-1-45.59 1.01-67.61-.18-18.17.48-37.75.1-56.02.09-31.55.19-63.097.17-94.647-.05-30.193.17-78.508 1.54-107.041-1.46-52.363-5.5-108.31-39.27-139.7-81.48-37.979-51.08-48.236-101.47-39.814-163.71 2.489-16.22 11.587-57.55 19.993-71.99.684-4.06 3.113-9.72 4.764-13.6 29.872-70.17 81.431-127.78 137.897-177.87 5.348-4.75 10.416-9.4 16.126-13.55 3.149-4.8 24.835-22.06 30.695-27.57 50.628-47.56 106.797-91.38 109.978-167.5 3.054-73.053-56.723-123.564-104.623-170.237-13.133-12.796-29.002-23.928-42.019-37.69z"/><defs><linearGradient id="a" x1="646.171" x2="990.067" y1="1027.301" y2="1025.439" gradientUnits="userSpaceOnUse"><stop offset="0" stop-color="#9c9ba4"/><stop offset="1" stop-color="#fff"/></linearGradient></defs><path fill="url(#a)" d="M824.046 820.207c-9.251-4.789-59.64-54.896-68.351-64.369-60.227-65.494-109.489-154.816-106.198-245.857a212.25 212.25 0 0 1 68.115-149.125c62.965-58.43 125.103-59.002 205.08-55.853 25.047-1.212 54.952.199 80.468-.182 10.61-.158 41.75-.656 51.26.254 4.13 3.534 11.41 2.594 16.81 2.563-.88 3.749-2.91 8.13-1.98 11.187l1.57 1.008 3.42-6.802-.1.159c2.03 2.864 1.42 1.208 1.01 5.392-6.96 9.155-11.65 2.355-16.63 5.955l-.44 1.49c-11.76 1.011-42.82.398-56.48.248-25.109-.276-55.508.942-79.943-.26-24.487.766-49.136-.413-73.512.774-104.628 5.096-183.903 95.204-178.41 199.457 4.618 87.636 50.721 162.888 109.649 224.978a668 668 0 0 0 32.268 31.874c4.912 4.604 15.552 14.029 19.504 18.643 5.693 3.503 31.752 27.402 38.146 33.245 46.433 42.432 102.423 92.013 117.592 155.4a161.95 161.95 0 0 1-21.074 123.354c-24.108 38.7-72.149 81.13-106.706 111.83l-46.952 42.14c-66.511 61.99-119.434 132.17-137.668 222.73-1.337 6.63-1.925 14.69-3.378 20.96-4.627 55.26 4.694 104.31 41.42 147.95a183.5 183.5 0 0 0 124.888 65.41c29.591 2.4 76.824.28 108.187.6 29.88-.28 59.759-.32 89.639-.11l-1.4 2.98c1.77 3.63-.98 12.68-2.23 16.34l1.66 3.25c-31.55.19-63.097.17-94.647-.05-30.193.17-78.508 1.54-107.041-1.46-52.363-5.5-108.31-39.27-139.7-81.48-37.979-51.08-48.236-101.47-39.814-163.71 2.489-16.22 11.587-57.55 19.993-71.99.684-4.06 3.113-9.72 4.764-13.6 29.872-70.17 81.431-127.78 137.897-177.87 5.348-4.75 10.416-9.4 16.126-13.55 3.149-4.8 24.835-22.06 30.695-27.57 50.628-47.56 106.797-91.38 109.978-167.5 3.054-73.053-56.723-123.564-104.623-170.237-13.133-12.796-29.002-23.928-42.019-37.69z"/><path fill="#e8e7e9" d="M922.692 305.003c25.047-1.212 54.952.199 80.468-.182 10.61-.158 41.75-.656 51.26.254 4.13 3.534 11.41 2.594 16.81 2.563-.88 3.749-2.91 8.13-1.98 11.187l1.57 1.008 3.42-6.802-.1.159c2.03 2.864 1.42 1.208 1.01 5.392-6.96 9.155-11.65 2.355-16.63 5.955l-.44 1.49c-11.76 1.011-42.82.398-56.48.248-25.109-.276-55.508.942-79.943-.26-13.585-5.324-61.553-.123-66.436-2.4-3.353-7.777 6.134-10.455 3.353-16.027l-2.461-.436c6.395-3.637 50.008 3.623 66.579-2.149"/><path fill="#e8e7e9" d="M945.611 1725.36c29.88-.28 59.759-.32 89.639-.11l-1.4 2.98c1.77 3.63-.98 12.68-2.23 16.34l1.66 3.25c-31.55.19-63.097.17-94.647-.05-14.281-4.64-38.227 1.27-44.791-4.61-.6-5.41-1.23-9.29-.674-14.77 13.141-3.18 36.11 1.34 52.443-3.03"/><path fill="#c1c0c6" d="M672.071 1429.13c1.342.45 1.755.27 1.773 1.73-1.378-.09-1.225-.49-1.773-1.73"/><defs><linearGradient id="b" x1="1405.904" x2="1050.206" y1="1294.506" y2="1283.836" gradientUnits="userSpaceOnUse"><stop offset="0" stop-color="#7c7b86"/><stop offset="1" stop-color="#f6f4f5"/></linearGradient></defs><path fill="url(#b)" d="M1220.84 798.019c4.9 1.305 4.96-5.109 7.23-1.428 1.09 1.756 2.98.914 3.03 1.034 1.53 3.811 2.38 1.686 3.42 2.056.38.44 2.7 6.726 2.4 7.265-2.21 4.039-10.01 6.313-9.89 11.311-4.31 4.786-25.15 23.318-30.69 27.392-1.46 2.155-13.87 13.451-16.34 14.597-47.82 47.48-102.78 92.646-102.1 165.154.47 50.22 25.65 91.88 60.71 126.08 3.51 3.42 31.75 30.27 32.51 31.62 6.92 5.06 13.75 11.19 20.2 16.88 31.73 27.98 64.31 55.09 92.67 86.59 7.57 8.39 16.27 17.08 22.83 26.27 6.86 7.04 17.63 21.62 23.42 29.81 38.91 55.08 70.03 131.19 69.14 199.37A208.66 208.66 0 0 1 1334.9 1689c-51.8 50.13-108.53 62.1-177.99 58.91-21.93-1-45.59 1.01-67.61-.18-18.17.48-37.75.1-56.02.09l-1.66-3.25c1.25-3.66 4-12.71 2.23-16.34l1.4-2.98c31.8.04 75.17-1.22 106.1.61 3.36-.51 31.65-.7 36.52-.55 44.75 1.43 83.84-6.29 121.49-32.63a184.71 184.71 0 0 0 76.72-120.52c12.25-69.73-15.59-144.81-52.51-203.18-6.44-10.19-14.8-21.06-21.85-31.15-28.4-34.58-53.91-60.63-87.44-90.28-16.26-14.38-45.4-38.2-59.3-53.34-9.42-5.4-40.24-38.84-48.63-48.37-33.73-38.35-51.08-79.05-47.33-130.74 5.56-76.629 74.66-142.12 130.67-189.645 2.53-3.575 26.83-24.475 31.15-27.436"/><defs><linearGradient id="c" x1="1170.979" x2="1032.109" y1="1742.238" y2="1730.203" gradientUnits="userSpaceOnUse"><stop offset="0" stop-color="#c7c6cc"/><stop offset="1" stop-color="#f7f7f8"/></linearGradient></defs><path fill="url(#c)" d="M1035.25 1725.25c31.8.04 75.17-1.22 106.1.61l1.63 1.2c5.27-.03 20.31-.84 24.33.83 2.4 5.07 3.38 12.37 2.35 17.89l5.07.5c-11.01.77-82.22-1.08-85.43 1.45-18.17.48-37.75.1-56.02.09l-1.66-3.25c1.25-3.66 4-12.71 2.23-16.34z"/><path fill="#c1c0c6" d="M1220.84 798.019c4.9 1.305 4.96-5.109 7.23-1.428 1.09 1.756 2.98.914 3.03 1.034 1.53 3.811 2.38 1.686 3.42 2.056.38.44 2.7 6.726 2.4 7.265-2.21 4.039-10.01 6.313-9.89 11.311-4.31 4.786-25.15 23.318-30.69 27.392-1.46 2.155-13.87 13.451-16.34 14.597-1.03-4.07 5.38-7.708 7.6-9.685 2.46-5.166 4.7-5.387 4.97-10.882 9.92-.781 2.15-10.352-1.42-4.409-1.58 2.629-3.76-2.78-4.49-3.74.24-2.864 5.09-2.312 3.03-6.075 2.53-3.575 26.83-24.475 31.15-27.436"/><defs><linearGradient id="d" x1="1399.558" x2="1062.847" y1="554.627" y2="563.577" gradientUnits="userSpaceOnUse"><stop offset="0" stop-color="#7f7e8a"/><stop offset="1" stop-color="#f0eef1"/></linearGradient></defs><path fill="url(#d)" d="M1054.42 305.075c30.43-.32 60.87-.469 91.3-.449 20.22-.051 44.03-.674 64.07.623 123.97 17.033 204.73 121.127 187.09 245.586-12.62 89.111-62.67 165.981-126.12 227.792-7.26 7.076-35.74 35.684-43.73 39.63-.12-4.998 7.68-7.272 9.89-11.311.3-.539-2.02-6.825-2.4-7.265-1.04-.37-1.89 1.755-3.42-2.056-.05-.12-1.94.722-3.03-1.034-2.27-3.681-2.33 2.733-7.23 1.428 1.86-3.067 42.75-40.812 47.43-45.406 100.82-98.946 169.97-281.484 38.31-386.828-31.51-25.206-65.12-35.203-103.11-39.674-5.29.443-12.39.187-17.78.143-42.44-.344-85.2.732-127.61-.227l.44-1.49c4.98-3.6 9.67 3.2 16.63-5.955.41-4.184 1.02-2.528-1.01-5.392l.1-.159-3.42 6.802-1.57-1.008c-.93-3.057 1.1-7.438 1.98-11.187-5.4.031-12.68.971-16.81-2.563"/><path fill="#252532" d="M892.582 335.154q45.659-.487 91.319-.288c18.259.007 41.169-.578 59.049.251 42.22-1.087 84.91.241 127.18-.168 6.61-.063 13.97-.145 20.51.154 47-.756 92.32 17.496 125.67 50.617a182.39 182.39 0 0 1 54.53 130.51c.6 87.736-55 178.345-116.36 237.207-4.99 4.794-26.55 26.514-31.43 28.846-4.86 5.392-14.34 13.305-20.11 18.422-64.98 56.732-146.6 123.123-153.43 216.015-6.6 89.6 60.89 152.89 123.99 206.61 41.7 36.42 84.67 73.72 119.18 117.26 2.62 3.3 12.32 15.91 14.02 19.21 1.05 1.33 1.78 2.46 2.72 3.87 39.4 56.14 70.55 138.16 58.34 206.91a176.5 176.5 0 0 1-72.87 114.5c-58.13 39.92-106.98 31.16-173.68 31.82-23.87.23-60.9 1.12-83.91-.16-50.438 1.32-107.843.37-158.594-.05q-7.56.15-15.121.21c-52.488.27-95.461-14.23-133.395-51.49-58.997-57.96-62.39-140.71-36.003-215.07 22.19-62.54 59.211-111.75 105.551-158.38 51.964-52.34 140.18-116.12 176.434-178.29a165.5 165.5 0 0 0 22.442-67.85c13.366-133.208-126.627-210.368-205.999-294.341-5.146-5.445-10.742-10.656-15.471-16.474l-.561-.703-1.647-1.6c-53.731-58.917-98.423-137.762-96.833-218.945a181.3 181.3 0 0 1 57.13-130.044c47.6-45.257 95.773-50.259 157.349-48.559"/><path fill="#e8e7e9" d="M892.582 335.154q45.659-.487 91.319-.288c18.259.007 41.169-.578 59.049.251 42.22-1.087 84.91.241 127.18-.168 6.61-.063 13.97-.145 20.51.154 4.19 2.268 5.3 2.221 10.05 1.968l1.89 1.082c1.22 9.45 1.72 23.224-.35 32.347-3.49 15.404-1.09 20.299 1.11 35.132 1.29 8.721-2.11 24.093-1.17 33.51.6 14.413.2 27.663.05 41.942-.11 9.454 1.5 20.04 1.06 29.651-2.86 3.218-2.54 6.358-2.06 10.888 1.21 11.407-4.9 22.917 2.12 32.386l.26 4.22c-14.42 3.914-24.48 7.398-38.24 13.313-5.61 2.409-18.27 8.582-23.37 10.148-12.33 7.554-25.9 14.402-38.57 22.09-17.17 10.418-35.24 23.707-52.66 33.224-64.244 35.083-122.794 45.988-193.777 28.921q-5.1-1.181-10.145-2.583l-.167-1.102c-4.2-2.724-13.264-4.46-18.169-6.367-12.926-5.028-47.447-14.459-57.673-20.215-1.863-9.443 4.809-10.201 7.146-15.917.944-7.952.35-16.203.514-24.241 1.002-49.148 2.241-98.253 2.029-147.432-.085-19.647-2.034-39.147-2.263-59.018l-5.746-5.556c.533-22.194-8.05-22.637 17.389-32.761 24.974-9.939 47.784-13.675 74.684-13.68 4.042-.001 25.633-.149 28-1.899"/><path fill="#c1c0c6" d="M1042.95 335.117c42.22-1.087 84.91.241 127.18-.168 6.61-.063 13.97-.145 20.51.154 4.19 2.268 5.3 2.221 10.05 1.968l1.89 1.082c1.22 9.45 1.72 23.224-.35 32.347-3.49 15.404-1.09 20.299 1.11 35.132 1.29 8.721-2.11 24.093-1.17 33.51.6 14.413.2 27.663.05 41.942-.11 9.454 1.5 20.04 1.06 29.651-2.86 3.218-2.54 6.358-2.06 10.888 1.21 11.407-4.9 22.917 2.12 32.386l.26 4.22c-14.42 3.914-24.48 7.398-38.24 13.313-5.61 2.409-18.27 8.582-23.37 10.148 7.25-9.577 34.76-14.105 44.41-21.613 5.27-4.1 1.66-13.652-2.24-17.86.47-3.376 3.42-1.672 3.42-5.205 0-10.462-4.2-19.568-.72-30.153 4.44-13.491.97-100.51.95-119.815-7.18-10.727 2.03-37.474-1.52-46.44-.32-.249-3.36-2.595-3.36-2.595-21.06-.82-61.22-1.614-80.56-2.08-22.29-.537-39.41.751-58.16-.705z"/><path fill="#c1c0c6" d="M1181.35 519.096c4.61 3.035 3.08 3.924 3.36 9.788-4.66-3.034-3.15-3.989-3.36-9.788"/><defs><linearGradient id="e" x1="677.761" x2="1014.003" y1="1025.585" y2="1025.429" gradientUnits="userSpaceOnUse"><stop offset="0" stop-color="#a5a4ad"/><stop offset="1" stop-color="#fff"/></linearGradient></defs><path fill="url(#e)" d="m776.583 734.302-1.647-1.6c-53.731-58.917-98.423-137.762-96.833-218.945a181.3 181.3 0 0 1 57.13-130.044c47.6-45.257 95.773-50.259 157.349-48.559-2.367 1.75-23.958 1.898-28 1.899-26.9.005-49.71 3.741-74.684 13.68-25.439 10.124-16.856 10.567-17.389 32.761l5.746 5.556c.229 19.871 2.178 39.371 2.263 59.018.212 49.179-1.027 98.284-2.029 147.432-.164 8.038.43 16.289-.514 24.241-2.337 5.716-9.009 6.474-7.146 15.917 10.226 5.756 44.747 15.187 57.673 20.215 4.905 1.907 13.969 3.643 18.169 6.367l.167 1.102c-28.961-7.626-55.788-19.155-84.448-27.379-4.964-1.424-14.903-2.5-15.901 5.273-1.619 28.197 24.307 54.396 41.305 74.634 24.862 23.93 47.936 48.761 73.357 72.106 69.886 64.676 153.979 134 153.549 238.424-.56 137.57-25.225 281.77-125.731 383.41-23.938 24.2-60.977 60.95-88.616 81.1l-.562.59c-16.066 16.46-34.281 28.58-49.307 46.74-30.496 36.85-28.308 85.99 5.955 119.4 1.139 1.11 12.46 11.2 12.69 11.6-5.342.33-12.141-6.82-15.094-11.09l-.809.61c.521 2.63 1.974 7.02.88 8.75-2.58-1.23-2.351-1.27-3.739-3.83-2.464 3-1.723 1.34-2.324 5.16 1.283 2.36 6.915 13 8.349 14.24 21.939 18.83 53.351 27.38 81.628 30.55 6.536.73 37.67.24 40.686 3.06q-7.56.15-15.121.21c-52.488.27-95.461-14.23-133.395-51.49-58.997-57.96-62.39-140.71-36.003-215.07 22.19-62.54 59.211-111.75 105.551-158.38 51.964-52.34 140.18-116.12 176.434-178.29a165.5 165.5 0 0 0 22.442-67.85c13.366-133.208-126.627-210.368-205.999-294.341-5.146-5.445-10.742-10.656-15.471-16.474z"/><defs><linearGradient id="f" x1="1377.411" x2="1026.696" y1="1253.144" y2="1243.467" gradientUnits="userSpaceOnUse"><stop offset="0" stop-color="#858390"/><stop offset="1" stop-color="#fdfcfc"/></linearGradient></defs><path fill="url(#f)" d="M1200.68 775.419c.09.176.78 1.195.6 1.64-.08.211-.24.327-.35.525-.15.26-.39.77-.21 1.068.33.529.84.92 1.26 1.377.66.714 1.02 1.194.93 2.209-.38 4.328-.3 8.448-.39 12.779-.03 1.241-.77 1.599-1.52 2.44-.49.552-.37.445-.32 1.117.66.806 1.49 1.438 2.26 2.131-64.98 56.732-146.6 123.123-153.43 216.015-6.6 89.6 60.89 152.89 123.99 206.61 41.7 36.42 84.67 73.72 119.18 117.26 2.62 3.3 12.32 15.91 14.02 19.21 1.05 1.33 1.78 2.46 2.72 3.87 39.4 56.14 70.55 138.16 58.34 206.91a176.5 176.5 0 0 1-72.87 114.5c-58.13 39.92-106.98 31.16-173.68 31.82-23.87.23-60.9 1.12-83.91-.16 6.04-5.46 94.36.48 109.63-2.97 1.17-2.52 1.02-1.24.08-3.96-8.1-6.26-7.58-12.56-7.57-22.21-20.15-.87-49.37 1.87-68.04-2.16 33.35-.35 66.8.51 100.14.12 25.33-1.18 53.22 3.09 77.85-3.65 52.54-14.37 79.19-61.85 64.72-113.43-.99-2.36-1.14-3.11-1.85-5.58-1.87-3.32-2.39-4.67-3.87-8.22-16.83-29.22-41.5-46.65-66.95-68.35-14.99-12.7-29.64-25.81-43.92-39.31-5.77-5.43-13.96-12.5-18.81-18.23-7.94-6.14-21.25-20.71-28.19-28.31-78-85.03-103.08-183.12-113.43-294.5-11.28-121.401.23-171.136 88.03-260.204a1504 1504 0 0 1 75.56-70.357"/><path fill="#c1c0c6" d="M1308.39 1554.68c4.97.85 6.75 3.26 3.87 8.22-1.87-3.32-2.39-4.67-3.87-8.22"/><path fill="#c1c0c6" d="M1307.93 1364.73c-5.48 0-5.1-1.93-1.23-4.93 1.05 1.33 1.78 2.46 2.72 3.87z"/><path fill="#c1c0c6" d="M1306.93 1449.61c2.5.65 1.63 2.24 1.39 4.82-2.34-.7-1.44-2.49-1.39-4.82"/><defs><linearGradient id="g" x1="1369.173" x2="1200.236" y1="552.626" y2="557.388" gradientUnits="userSpaceOnUse"><stop offset="0" stop-color="#868490"/><stop offset="1" stop-color="#c0bfc6"/></linearGradient></defs><path fill="url(#g)" d="M1190.64 335.103c47-.756 92.32 17.496 125.67 50.617a182.39 182.39 0 0 1 54.53 130.51c.6 87.736-55 178.345-116.36 237.207-4.99 4.794-26.55 26.514-31.43 28.846-1.14-4.917.64-1.302 1.46-5.664.82-4.411.15-18.535-1.96-22.162 2.69-3.468 9.12-9.716 12.6-13.051 54.64-52.361 86.8-110.338 114.3-180.007-37.39-18.369-106.41-14.431-145.85-3.17l-.26-4.22c-7.02-9.469-.91-20.979-2.12-32.386-.48-4.53-.8-7.67 2.06-10.888.44-9.611-1.17-20.197-1.06-29.651.15-14.279.55-27.529-.05-41.942-.94-9.417 2.46-24.789 1.17-33.51-2.2-14.833-4.6-19.728-1.11-35.132 2.07-9.123 1.57-22.897.35-32.347l-1.89-1.082c-4.75.253-5.86.3-10.05-1.968"/><defs><linearGradient id="h" x1="938.297" x2="955.458" y1="1629.872" y2="1742.924" gradientUnits="userSpaceOnUse"><stop offset="0" stop-color="#c4c1c6"/><stop offset="1" stop-color="#fbfafc"/></linearGradient></defs><path fill="url(#h)" d="M878.706 1716.69c-3.016-2.82-34.15-2.33-40.686-3.06-28.277-3.17-59.689-11.72-81.628-30.55-1.434-1.24-7.066-11.88-8.349-14.24.601-3.82-.14-2.16 2.324-5.16 1.388 2.56 1.159 2.6 3.739 3.83 1.094-1.73-.359-6.12-.88-8.75l.809-.61c2.953 4.27 9.752 11.42 15.094 11.09 10.237 5.38 25.874 13.3 37.562 14.49 29.611 3.04 63.425 1.75 93.501 1.67l171.208.04c18.67 4.03 47.89 1.29 68.04 2.16-.01 9.65-.53 15.95 7.57 22.21.94 2.72 1.09 1.44-.08 3.96-15.27 3.45-103.59-2.49-109.63 2.97-50.438 1.32-107.843.37-158.594-.05"/><path fill="#c1c0c6" d="M1222.55 754.457c2.11 3.627 2.78 17.751 1.96 22.162-.82 4.362-2.6.747-1.46 5.664-4.86 5.392-14.34 13.305-20.11 18.422-.77-.693-1.6-1.325-2.26-2.131-.05-.672-.17-.565.32-1.117.75-.841 1.49-1.199 1.52-2.44.09-4.331.01-8.451.39-12.779.09-1.015-.27-1.495-.93-2.209-.42-.457-.93-.848-1.26-1.377-.18-.298.06-.808.21-1.068.11-.198.27-.314.35-.525.18-.445-.51-1.464-.6-1.64 2.84-3.761 17.92-17.553 21.87-20.962"/></svg>