<svg xmlns="http://www.w3.org/2000/svg" width="2048" height="2048" viewBox="0 0 2048 2048"><path fill="#2a2d36" d="M0 0h2048v2048H0z"/><path fill="#020104" d="m1264.14 126.5 66.15.071c14.89 24.415 31.81 47.369 47.41 71.249 26.52 40.606 55.16 80.458 81.02 121.399-86.12 22.575-169.26 57.439-221.97 133.055-32.49 46.613-49.94 104.189-51.67 160.657-3.22 105.029 48.06 186.771 124.35 253.494 27.23 23.813 58.35 46.617 86.75 69.133 66.02 51.806 131.6 99.272 183.18 166.522 64.14 83.63 93.17 170.13 111.88 272.37-12.95-5.58-26.71-12.97-39.84-18.87a699 699 0 0 0-75.47-28.26c-84.68-25.64-169.13-17.62-247.18 24.17-31.83 17.04-60.32 38.76-84.08 66.08-96.55 111.02-157.36 336.07-193.04 479.38-6.29 25.26-12.02 50.7-18.02 76.03-2.97 12.57-5.5 25.52-9.29 37.86l-.32 1.01c-12.17-59.58-29.927-131.01-46.145-189.6a2070 2070 0 0 0-72.636-223.72c-43.562-108.88-98.094-211.91-211.49-259.22-94.671-39.49-170.769-34.55-264.629 2.83-23.515 9.37-47.705 22.12-69.937 31.03 6.327-51.56 26.09-116.62 47.879-163.5a566.5 566.5 0 0 1 128.474-177.13C645.43 929.305 807.994 856.35 851.824 701.814a297.92 297.92 0 0 0-26.509-226.739C771.167 379.203 689.487 347 589.954 319.315c6.373-7.462 15.279-21.089 20.948-29.396a3280 3280 0 0 0 33.541-49.687c25.421-38.05 51.479-75.164 76.829-113.573l319.668.156q111.6.456 223.2-.315"/><path fill="#03f8f3" d="m733.326 150.914 583.644.004c23.88 33.667 45.89 69.747 69.34 103.809 11 15.978 22.59 33.36 32.47 49.985-24.38 7.971-50.63 17.068-73.77 28.212-56.85 27.369-109.04 72.244-139.92 127.636a326.5 326.5 0 0 0-41.78 185.657c8.11 101.685 62.65 177.583 136.98 243.543 18.27 16.474 39.5 30.138 58.27 45.865 59.43 49.804 128.08 94.845 178.74 153.655a553 553 0 0 1 104.37 185.22c6.1 18.43 10.89 38.72 16.23 57.61-18.45-7.61-33.3-13.44-51.95-19.96-90.51-31.62-187.92-31.46-274.98 11.97a326.5 326.5 0 0 0-84.86 59.82c-77.22 75.59-124.17 201.21-158.08 302.29-23.89 70.32-46.07 153.81-63.01 226.13-7.14-20.83-14.56-57.29-20.62-80.02a2860 2860 0 0 0-45.361-152.51c-34.815-105.19-84.416-231.66-168.582-307.12-20.765-18.62-47.995-35.83-72.926-48.36a338.97 338.97 0 0 0-243.104-22.03c-14.368 4.04-30.445 9.35-44.447 14.58-13.156 4.92-25.361 10.77-38.891 15.24 21.794-96 70.058-191.99 139.11-262.89 116.219-119.344 297.56-191.299 345.412-364.74a323.68 323.68 0 0 0-31.074-242.795C798.452 380.61 717.746 329.142 629.259 305.04c7.12-12.625 26.488-39.392 35.618-52.817z"/><path fill="#020104" d="m736.872 158.123 576.478.047c32.03 46.821 63.09 94.881 94.85 142.077-6.42 2.756-14.31 5.382-20.98 7.63-78.89 26.585-149.64 78.662-190.66 152.906a340.7 340.7 0 0 0-40.83 177.706c4.96 102.684 58.81 183.907 133.43 250.867 22.16 19.886 47.55 38.419 71.13 56.849l67.51 53.687c34.73 27.318 66.76 52.188 96.45 85.308a541.1 541.1 0 0 1 107.95 183.27c5.69 16.27 10.74 35.2 15.57 51.83-106.8-42.99-210.24-56.07-317.71-3.74a334.3 334.3 0 0 0-70.77 45.47c-84.52 71.83-133.69 192.76-169.21 295.47-26.13 75.91-44.51 146.61-65.36 223.51-29.523-104.37-53.362-202.49-95.954-304.02-48.329-115.22-106.157-217.87-226.954-267.81-104.531-43.23-199.151-31.3-300.6 11.43 22.847-93.61 71.845-184.63 140.311-252.89 13.608-13.57 28.137-25.64 42.823-38.02a1975 1975 0 0 1 75.339-60.379c89.076-67.722 176.756-131.693 215.945-242.295a327.48 327.48 0 0 0-15.508-250.965c-30.669-63.839-85.737-115.96-148.846-147.422-23.439-11.685-46.492-19.571-71.153-28.154 32.412-43.954 65.633-96.516 96.749-142.362"/><path fill="#e4e4e1" d="m781.224 217.165 488.376.147c10.62 17.43 24.2 36.613 35.72 53.714-15.81 7.037-31.52 14.081-46.6 22.586-83.59 47.131-141.09 126.4-166.45 218.445-19.05 69.145-19.93 139.43-1.37 208.78 69.22 258.744 321.69 295.463 439.55 502.483a352.6 352.6 0 0 0-211.89 9.32c-119.37 43.27-181.78 124.99-233.54 236.48-20.61 44.68-35.65 93.6-48.38 141.07-4.37 16.31-7.27 32.65-11.49 48.66a539 539 0 0 0-7-28.86c-37.58-142.09-92.966-291.26-226.738-368.93a362.08 362.08 0 0 0-272.962-37.94c55.45-93.14 131.392-151.79 216.667-214.82 82.588-61.052 159.123-129.235 200.909-225.34a402.8 402.8 0 0 0 7.432-310.321c-29.264-74.045-78.043-135.174-147.129-175.993-17.715-10.467-33.226-17.353-52.097-25.524 7.402-12.682 27.576-40.116 36.992-53.957"/></svg>