<svg xmlns="http://www.w3.org/2000/svg" width="2048" height="2048" viewBox="0 0 2048 2048"><path fill="#14171f" d="M0 0h2048v2048H0z"/><path fill="#ef9e4a" d="M1000.37 242.425c15.8-.791 35.37-.333 51.26.06 32.69 114.27 101.51 178.327 215.34 208.181-7.12 13.769-16.28 29.426-24.38 42.638 93.47 42.42 112.96 107.862 149.15 195.921-37.12 90.744-103.35 189.117-212.62 190.515-13.54 1.271-57.55-11.553-66.96-.019-20.21 24.794 47.47 90.738 60.34 103.624-21.44 9.315-40 19.175-57.02 35.505 8.96 25.87 7.27 39.47-10.53 60.47-.59 68.64-.64 137.28-.16 205.93l215 .02-.01 437.82c-61.01.94-123.65-.19-184.92.21l-2.23.59c-.46 2.86 2.26 6.98 3.74 9.84-37.01 12.64-64.7 32.96-78.08 70.38-18.62.17-37.54-.09-56.17-.18-18.675-38.6-55.193-58.47-92.943-74.1 14.121-16.86 28.638-33.12 42.726-50.13l.117-596.03c-23.057-17.8-27.38-38.38-17.465-65.26-18.927-17.62-33.049-24.398-56.239-34.63 24.442-22.934 48.557-48.362 61.702-79.689 17.189-41.21-34.099-27.631-54.962-25.811-120.731 10.537-185.597-94.602-227.521-187.947q1.134-3.06 2.314-6.102c25.127-64.728 51.516-136.588 113.939-173.402 11.117-6.557 22.085-11.387 33.833-16.587-7.266-14.457-16.784-29.775-24.672-44.363 98.406-23.605 172.676-87.183 207.505-181.901 2-5.438 6.989-22.869 9.916-25.553"/><path fill="#14171f" d="m1008 253.886 34.42.114c34.44 106.535 98.19 172.703 206.59 203.996-6.96 13.527-15.96 28.692-23.69 41.856 93.12 34.095 121.41 103.961 153.53 189.853-37.97 84.771-96.93 179.112-203.48 177.831-23.2-.279-51.93-13.343-72.01 4.019-4.37 3.782-7.06 10.788-6.99 16.607 2.6 34.758 32.41 67.579 55.09 91.794-21.68 11.858-34.11 20.384-51.61 37.834 13.46 23.53 12.57 38.23-7.26 57.19-.3 74.02-.22 148.03.26 222.04 71.36-.11 143.52-.82 214.82-.06.53 46.28-.09 93.44.09 139.86-9.15-.05-69.11-1.28-72.33 1.32-.3 3.39-.3 4.72-.19 8.14 3.98 3.44 63.52 1.71 72.45 1.78l.05 123.39-69.4-.07-.02 12.4 69.39-.65.11 128.16-29.41.06c-55.37.87-113.12.49-168.54.38l9.17 16.07c-31.95 13.04-54.31 33.49-69.59 64.19l-39.97.05c-24.072-36.38-42.43-47.64-80.504-67.21 11.19-13.37 24.568-28.45 34.801-42.26l-.335-605.94c-26.131-14.12-26.194-36.69-14.768-60.88-16.759-17.278-28.814-24.946-49.737-35.995 18.395-17.861 88.169-92.812 39.635-113.948-19.277-8.394-50.199 1.138-72.218 1.259a143 143 0 0 1-50.644-9.516c-72.485-27.367-115.224-99.678-145.309-166.566 8.084-24.809 22.554-56.704 33.592-80.506 26.666-57.505 62.239-89.094 120.955-110.451-6.04-12.226-16.802-29.488-23.876-42.521C908.186 426.43 972.247 357.394 1008 253.886"/><path fill="#14171f" d="M1025.35 294.783c35.32 65.884 71.06 117.774 136.56 158.297 12.77 7.899 30.69 17.973 44.66 22.97-8.79 17.783-18.28 36.696-25.95 54.909 47.09 3.271 77.78 13.873 109.5 49.963 22.29 25.365 44.16 72.861 52.79 105.724l-4.33 10.673c-31.43 68.186-88.22 140.276-170.77 138.938-13.95-.226-28.58-6.516-42.4-8.228-48.58-4.458-78.79 43.474-60.16 87.01 5.76 13.448 8.59 18.298 17.56 29.538-5.22 1.949-8.9 2.155-11.47 7.495-5.59-4.491-39.86-57.61-46.3-67.477-16.67 22.825-34.3 50.122-50.652 73.716 9.697-.131 36.022-2.476 41.422 4.654 11.44 15.079 8.41 47.705 8.3 65.905l-30.266-.24c.77-34.767-26.869-48.349-54.346-60.583 20.799-14.269 36.593-32.444 46.649-56.335 17.683-42.026-16.838-88.693-62.016-84.095-13.68 1.392-27.743 8.149-42.129 9.001-54.559 3.232-102.971-34.417-134.407-75.673-17.663-23.134-30.224-48.563-42.363-74.952 19.461-53.89 39.825-107.487 92.645-137.554 18.068-10.284 48.709-18.282 69.379-17.31l2.101-1.502c-8.964-15.389-16.47-36.261-25.366-51.756 69.433-34.634 112.174-71.289 154.88-137.559 9.499-14.744 17.749-31.869 26.479-45.529"/><path fill="#c5cbdd" d="M705.232 685.993c19.461-53.89 39.825-107.487 92.645-137.554 18.068-10.284 48.709-18.282 69.379-17.31-2.142 6.519 3.628 5.279-2.501 10.263.352.493 1.547.806 1.976.969-4.805 1.084-9.514 1.956-14.248 3.354-63.592 18.771-100.96 83.359-128.394 138.987 19.721 40.389 39.137 77.514 75.127 106.293 41.224 32.964 89.277 42.638 137.615 18.723 39.125-19.356 63.429-47.26 87.809-82.467 92.17 141.741 225.1 119.781 293.41-28.429 1.51-3.256 4.2-8.993 6.03-11.93 3.4 6.474 5.82 12.516 14.5 10.427-31.43 68.186-88.22 140.276-170.77 138.938-13.95-.226-28.58-6.516-42.4-8.228-48.58-4.458-78.79 43.474-60.16 87.01 5.76 13.448 8.59 18.298 17.56 29.538-5.22 1.949-8.9 2.155-11.47 7.495-5.59-4.491-39.86-57.61-46.3-67.477-16.67 22.825-34.3 50.122-50.652 73.716 9.697-.131 36.022-2.476 41.422 4.654 11.44 15.079 8.41 47.705 8.3 65.905l-30.266-.24c.77-34.767-26.869-48.349-54.346-60.583 20.799-14.269 36.593-32.444 46.649-56.335 17.683-42.026-16.838-88.693-62.016-84.095-13.68 1.392-27.743 8.149-42.129 9.001-54.559 3.232-102.971-34.417-134.407-75.673-17.663-23.134-30.224-48.563-42.363-74.952"/><path fill="#c5cbdd" d="M1025.35 294.783c35.32 65.884 71.06 117.774 136.56 158.297 12.77 7.899 30.69 17.973 44.66 22.97-8.79 17.783-18.28 36.696-25.95 54.909 47.09 3.271 77.78 13.873 109.5 49.963 22.29 25.365 44.16 72.861 52.79 105.724l-4.33 10.673c-8.68 2.089-11.1-3.953-14.5-10.427.15-.462.56-1.631.38-2.052-25.58-59.246-72.94-131.864-141.97-142.217-7.16-1.074-17.29-.79-24.83-.795 9.78-18.671 20.79-38.772 29.65-57.745-83.44-33.693-125.71-83.856-162.71-162.965-2.1 6.047-4.53 11.97-7.3 17.741-29.956 63.084-89.775 122.06-155.793 145.378 8.731 19.17 19.609 37.708 28.238 56.961-4.96 1.113-17.075.868-23.014 1.163-.429-.163-1.624-.476-1.976-.969 6.129-4.984.359-3.744 2.501-10.263l2.101-1.502c-8.964-15.389-16.47-36.261-25.366-51.756 69.433-34.634 112.174-71.289 154.88-137.559 9.499-14.744 17.749-31.869 26.479-45.529"/><path fill="#bbc4d7" d="M869.357 529.627c4.406 4.704 1.368 11.759 11.138 11.007 2.362-.181 6.807.211 9.25.564-4.96 1.113-17.075.868-23.014 1.163-.429-.163-1.624-.476-1.976-.969 6.129-4.984.359-3.744 2.501-10.263z"/><path fill="#14171f" d="M1025.13 329.857c30.06 66.407 76.94 125.577 147.45 151.883 3.73 1.353 7.49 2.598 11.29 3.735a5200 5200 0 0 1-30.22 58.832c44.06-.288 70.92 11.484 103.14 42.775 23.87 23.189 48.86 62.285 62.71 93.288a762 762 0 0 1-33.31-14.096l-.01 2.691c6 1.928 30.13 12.461 35.04 15.469-28.49 65.537-86.23 144.791-169.07 134.427-53.68-6.717-97.02-53.858-127.85-95.617-25.149 34.176-48.227 60.814-85.946 81.653-64.919 35.868-130.532 2.493-171.448-52.466-16.429-22.067-26.657-43.43-39.451-67.829 9.061-4.725 24.507-10.961 34.292-15.272l-1.359-1.801c-10.64 4.21-20.458 8.951-30.869 13.585 33.04-67.838 81.001-139.513 165.202-136.575-9.617-18.692-19.863-40.427-29.871-58.539 68.258-23.148 122.623-78.712 153.99-142.559a451 451 0 0 0 6.29-13.584"/><path fill="#c5cbdd" d="M1025.13 329.857c30.06 66.407 76.94 125.577 147.45 151.883 3.73 1.353 7.49 2.598 11.29 3.735a5200 5200 0 0 1-30.22 58.832c44.06-.288 70.92 11.484 103.14 42.775 23.87 23.189 48.86 62.285 62.71 93.288a762 762 0 0 1-33.31-14.096c-17.03-9.351-32.83-63.472-75.14-74.724-27.01-7.184-45.61-4.048-71.15 8.483-9.23-15.193-19.71-29.599-30.41-43.779 13.04-19.274 19.94-33.206 28.5-54.44-52.65-29.388-80.73-68.281-114.02-115.128-35.72 53.179-56.976 78.787-111.21 115.3 7.304 20.016 16.421 35.284 28.659 52.496a639 639 0 0 0-31.192 44.578c-48.31-21.875-91.551-13.81-120.827 32.351-7.542 11.891-16.722 29.478-29.012 36.118-10.64 4.21-20.458 8.951-30.869 13.585 33.04-67.838 81.001-139.513 165.202-136.575-9.617-18.692-19.863-40.427-29.871-58.539 68.258-23.148 122.623-78.712 153.99-142.559a451 451 0 0 0 6.29-13.584"/><path fill="#c5cbdd" d="M761.747 669.33c1.82 2.645 2.848 11.006 3.541 14.562 8.539 43.793 38.784 93.559 83.095 108.923 74.522 25.839 143.885-47.647 176.007-107.082 33.36 63.927 112.49 141.942 189.99 100.997a134.78 134.78 0 0 0 65.05-80.006c3.32-11.061 6.11-26.156 6.75-37.759 6 1.928 30.13 12.461 35.04 15.469-28.49 65.537-86.23 144.791-169.07 134.427-53.68-6.717-97.02-53.858-127.85-95.617-25.149 34.176-48.227 60.814-85.946 81.653-64.919 35.868-130.532 2.493-171.448-52.466-16.429-22.067-26.657-43.43-39.451-67.829 9.061-4.725 24.507-10.961 34.292-15.272"/><path fill="#ef9e4a" d="M1024.81 444.694c4.53 3.729 21.18 25.499 27.29 31.947 15.23 16.086 28.21 26.07 44.62 40.332a1523 1523 0 0 1-28.15 39.102 483.3 483.3 0 0 1 65.89 90.727c17.51-15.124 36.79-22.937 60.08-18.337 30.18 5.962 41.62 37.768 56.71 61.419q-1.275 4.351-2.67 8.664c-6.52 19.975-16.66 37.989-33.55 50.68-61.82 46.471-136.68-12.836-170.05-65.91-7.78-12.364-13.7-23.205-20.23-36.136-5.11 9.103-9.68 18.135-15.01 27.553-31.233 55.218-102.599 119.356-169.067 80.646-24.358-14.186-35.76-40.232-42.101-66.971 3.468-6.09 8.096-12.377 11.386-18.421 11.834-21.738 20.28-39.011 47.664-42.659 23.022-3.066 39.824 4.086 58.044 17.73 14.094-24.505 47.706-69.986 66.405-91.159-9.393-11.079-20.288-25.993-29.362-37.716 28.876-20.083 50.091-44.596 72.101-71.491"/><path fill="#14171f" d="M1024.33 463.642c2.44 1.543 7.64 7.643 9.57 10.024 14.21 17.452 29.71 31.044 47.2 45.049-9.29 13.8-16.75 24.581-28.1 36.968a559 559 0 0 1 79.19 110.605c31.66-34.064 71.26-41.889 94.26 5.724 2.98 6.158 8.2 14.158 11.79 20.247-1.5 4.394-2.98 8.786-4.68 13.132-16.1 40.986-58.26 59.272-99.08 41.831-58.76-25.106-86.4-75.819-109.91-131.474-2.18 2.286-15.14 35.52-18.55 42.122-25.605 49.612-84.085 112.866-146.275 93.339-28.444-8.931-40.975-35.153-48.668-61.119 17.283-24.704 22.754-54.029 59.459-51.137 22.162 1.747 32.752 10.662 47.021 26.465 19.901-37.379 53.605-80.389 80.554-112.593-10.874-11.031-19.231-22-28.486-34.277 22.644-19.315 35.555-32.156 54.705-54.906"/><path fill="#c5cbdd" d="m1025.07 1055.17 2.2.27c11.94 8.59 23.41 17.79 35.35 26.3l-.27 595.65-7.2 4.64c2.98 3.38 17.69 19.13 18.44 22.01l-.63 3.43 1.33.51 1.83.68c7.43 2.8 14.48 6.82 21.38 10.73-35.72 3.07-54.08 17.48-70.35 48.77-1.4-2.71-2.88-5.35-4.26-8.06-.34-4.75-1.07-16.97 3.68-20.07-.91-2.74-1.56-5.54-2.43-8.29l-.48-1.62 1.26-4.69c-11.85-17.06-18.95-22.31-39.994-23.86 7.568-3.89 14.883-8.52 22.154-12.96-4.49-3.38-9.928-6.59-14.73-9.61 1.194-68.46.001-140.92-.01-209.67l.082-394.19c6.628-3.78 28.748-19.74 32.648-19.97"/><path fill="#c5cbdd" d="M992.422 1075.14c6.628-3.78 28.748-19.74 32.648-19.97-1.49 23.33-.36 58.9-.4 83.17l-.09 161.72.34 425.37c-11.85-17.06-18.95-22.31-39.994-23.86 7.568-3.89 14.883-8.52 22.154-12.96-4.49-3.38-9.928-6.59-14.73-9.61 1.194-68.46.001-140.92-.01-209.67z"/><path fill="#14171f" d="m1025.07 1055.17 2.2.27-.08 671.8c10.41-19.2 24.05-28.36 46.4-23.2l-.63 3.43 1.33.51 1.83.68c7.43 2.8 14.48 6.82 21.38 10.73-35.72 3.07-54.08 17.48-70.35 48.77-1.4-2.71-2.88-5.35-4.26-8.06-.34-4.75-1.07-16.97 3.68-20.07-.91-2.74-1.56-5.54-2.43-8.29l-.48-1.62 1.26-4.69-.34-425.37.09-161.72c.04-24.27-1.09-59.84.4-83.17"/><path fill="#c5cbdd" d="M1026.57 1740.03c4.93-9.79 4.2-19.33 15.43-27.07 10.94-7.52 18.49-7.33 30.96-5.49l1.33.51 1.83.68c7.43 2.8 14.48 6.82 21.38 10.73-35.72 3.07-54.08 17.48-70.35 48.77-1.4-2.71-2.88-5.35-4.26-8.06-.34-4.75-1.07-16.97 3.68-20.07"/><path fill="#c5cbdd" d="M1110.3 1328.95c19.24-.09 158.52-1.63 165.71 1.17l-.13 4.25-.96.85c1.27 3.55.88 9.27.84 13.28-.19 19.3.46 38.8-.22 58.06-.02.38-2.14.9-2.51.82-2.74-.13-6.17.26-8.79.65l-1.61-.12c-3.04-.26-3.22-.04-5.84-1.46-.03-1.87-.14-3.73-.3-5.59-.6-6.39-3.11-13.61-8.18-17.81-9.48-2.36-16.99 11.92-20.73 18.96l-68.74-.06c-.8.57-1.6 1.14-2.39 1.73.04 8.9-.11 17.53.18 26.46-3.87 2.15-7.5 3.89-11.32 6.23-3.91 2.54-6.3 4.14-10.58 5.95-1.91.33-3.19 1.58-4.53.9l-1-.47c-3.89 3.11-7.76 6.26-11.6 9.45l28.42 18 .12 26.97 116.41-.23c.11 9.29 1.28 32.02-1.64 39.79l-1.5 1.08c-4.89-4.17-.65-14.07-6.92-16.79-13.15-5.72-18.61 7.1-17.92 18.91l-16.68-.05c-.36-8.6-3.2-21.36-14.92-14.55-4.56 5.66-1.09 11.76-5.38 11.95-7.16.34-15.08.05-22.28-.06l-44.57-.65c-1.35 1.11-8.31 6.66-9.02 7.57.33.82.66 1.65.99 2.47 11.14 6.57 20.57 14.96 33.98 22.41-.04 10.57.67 32.79-.11 42.25l1.64 1.06c-3.96 3.9-5.07 4.47-7.95 9.11-1.19 1.94-1.85 1.92-3.93 2.77 10.58-1.15 30.54-.6 41.81-.59l74.57.09c-.01 18.68.17 39.42-.55 58.24-.1 2.72-1.26 3.1-3.03 4.41-5.94-6.49-.52-26.61-7.1-37.71-10.93-5.82-14.56 8.34-24.15 9.57-7.5.56-11.22-9.04-16.75-12.79-8.16-5.53-14.76 2.43-19.18 8.58-.16 6.99-.1 14.27-.15 21.29-14.91-.01-29.82.07-44.73.26-6.66-27.01-25.93-25.64-33.41-.6l-21.85-.03-.05-225.17c-.01-32.35-1.28-72.94-.08-104.59 2.1-1.37 1.43-.83 3.03-2.8z"/><path fill="#c5cbdd" d="M1110.3 1328.95c19.24-.09 158.52-1.63 165.71 1.17l-13.68 12.75c-38.41-.36-76.82-.46-115.24-.28-12.63 0-41.15.92-52.37-.22z"/><path fill="#c5cbdd" d="M1274.92 1335.22c1.27 3.55.88 9.27.84 13.28-.19 19.3.46 38.8-.22 58.06-.02.38-2.14.9-2.51.82-2.74-.13-6.17.26-8.79.65 1.55-10.32.72-50.68.77-63.62z"/><path fill="#272c39" d="m1276.01 1330.12-.13 4.25-.96.85-9.91 9.19c-.05 12.94.78 53.3-.77 63.62l-1.61-.12c.33-20.58-.19-42.28-.37-62.94-54.35-.32-116.72-1.39-170.57.2 2.1-1.37 1.43-.83 3.03-2.8 11.22 1.14 39.74.22 52.37.22 38.42-.18 76.83-.08 115.24.28z"/><path fill="#c5cbdd" d="M1122.71 1546.61c11.14 6.57 20.57 14.96 33.98 22.41-.04 10.57.67 32.79-.11 42.25-2.81 1.89-5.24 4.56-7.67 6.96l.16-47.49c-3.49-2.44-29.02-19.33-29.6-21.07.4-.95 2.46-2.43 3.24-3.06"/><path fill="#14171f" d="M1121.72 1544.14c.33.82.66 1.65.99 2.47-.78.63-2.84 2.11-3.24 3.06.58 1.74 26.11 18.63 29.6 21.07l-.16 47.49c2.43-2.4 4.86-5.07 7.67-6.96l1.64 1.06c-3.96 3.9-5.07 4.47-7.95 9.11-1.19 1.94-1.85 1.92-3.93 2.77-1.18-13.33-.41-37.61-.43-51.65-10.16-7.08-20.55-14.01-30.57-21.2l-1.55-1.1c2.84-2.4 4.88-3.97 7.93-6.12"/><path fill="#c5cbdd" d="M1143.41 1434.75c.88-.72 4.98-3.81 5.17-4.6 1.64-6.81-.79-18.72.93-25.43.23-.88 5.69-.93 6.94-1.04.04 8.9-.11 17.53.18 26.46-3.87 2.15-7.5 3.89-11.32 6.23z"/><path fill="#14171f" d="M1146.02 1401.86c4.6-.12 8.22-.16 12.82.09-.8.57-1.6 1.14-2.39 1.73-1.25.11-6.71.16-6.94 1.04-1.72 6.71.71 18.62-.93 25.43-.19.79-4.29 3.88-5.17 4.6l1.9 1.62c-3.91 2.54-6.3 4.14-10.58 5.95-1.91.33-3.19 1.58-4.53.9l-1-.47c5.19-4.83 11.15-9.69 16.69-14.16z"/><path fill="#7f8797" d="m1143.41 1434.75 1.9 1.62c-3.91 2.54-6.3 4.14-10.58 5.95 1.98-2.25 6.17-5.86 8.68-7.57"/><path fill="#c5cbdd" d="M1071.34 952.072c2.57-5.34 6.25-5.546 11.47-7.495 9.34 10.741 15.32 15.592 26.15 24.344l-3.45 1.17c-29.27 10.084-48.98 26.758-50.42 58.889-9.57-.14-19.13-.19-28.7-.16.01-17.53-4.33-55.823 11.25-69.357 3.46-3.008 34.17.049 36.56-1.981.05-1.323-2.12-4.228-2.86-5.41"/><path fill="#c5cbdd" d="M989.078 1031.25c25.072-.04 50.142.17 75.212.61 4.66 6.82 9.04 13.26 13.93 19.96-4.05.11-8.04.08-12.09.07-29.54-.27-59.07-.24-88.603.06 3.782-6.9 7.863-13.86 11.551-20.7"/><path fill="#c5cbdd" d="M1022.58 892.669c2.67 2.559 1.63 72.148 1.41 80.805-7.49-16.808-7.3-17.737-25.333-17.65a480 480 0 0 0-19.157-.104c14.36-20.896 28.48-42.377 43.08-63.051"/><path fill="#c5cbdd" d="M1026.07 892.785c3.69 3.346 19.15 26.961 22.64 32.172a1429 1429 0 0 0 21.68 30.858q-8.82.123-17.64.088c-19.61.074-16.91-1.682-26.24 16.621-.01-25.929-.87-54.266-.44-79.739"/><path fill="#c5cbdd" d="m990.872 1704.45 1.556.33c16.792 3.46 23.732 10.48 31.232 25.34l.48 1.62c.87 2.75 1.52 5.55 2.43 8.29-4.75 3.1-4.02 15.32-3.68 20.07-16.49-24.91-28.019-33.62-57.255-41.39 9.109-8.51 13.021-10.73 25.237-14.26"/><path fill="#c5cbdd" d="M1158.22 1612.33c7-3.94 33.06-2.59 42.47-2.57l74.3.17c-3.35 3.65-6.73 7.27-10.15 10.86l-75.93.07c-7.77 0-31.93-.45-38.64.58 2.88-4.64 3.99-5.21 7.95-9.11"/><path fill="#c5cbdd" d="m1265.12 1480.42 11.38-.2-14.37 14.07c-32.63.22-65.25.18-97.88-.14l-12.12-.05c3.15-2.14 6.5-4.9 9.54-7.28 25.83-.65 51.92.41 77.59-.51 7.76-.28 10.51-5.42 25.86-5.89"/><path fill="#c5cbdd" d="M1272.64 1617.76c.51.49 1.05.93 1.06 1.34.41 21.55.63 43.67-.17 65.13-.03.9-6.82 1.25-7.14 1.28-2.16-3.44-1.15-52.5-1.16-60.22 2.64-2.92 4.6-4.83 7.41-7.53"/><path fill="#c5cbdd" d="M1274.56 1486.76c.48.45.9.71 1.06 1.34.69 2.64.59 48.02-.28 49.09-1.14 1.41-7.52.66-9.03.67-2.27-2.37-1.27-36.5-1.29-42.18 3.16-3.1 6.32-5.91 9.54-8.92"/><path fill="#c5cbdd" d="M1151.82 1466.54c.79.4 4.91 2.12 4.92 3.4.02 5.97.46 11.45 1.03 17.39-2.04 1.63-3.78 2.95-5.88 4.5l-3.02 2.27c-.03-8.37-.58-18.07-.29-26.26z"/><path fill="#bbc4d7" d="M1148.58 1467.84c-2.91-1.25-22.96-13.66-24.08-16.44.25-.2.51-.4.76-.61 3.07.49 22.92 13.35 26.56 15.75z"/></svg>