<svg xmlns="http://www.w3.org/2000/svg" width="2048" height="2048" viewBox="0 0 2048 2048"><path fill="#1f242b" d="M0 0h2048v2048H0z"/><path fill="#14181c" d="M1082.02 161.855c58.92 2.133 121.53-1.215 180.22 1.354-23.07 8.121-46.33 15.584-69.33 24.011-34.41 12.609-63.59 26.979-95.57 44.236-.35 12.713.15 27.441.29 40.281 31.11 3.998 74.19 23.882 97.55 44.35 25.61 21.564 45.3 51.024 54.2 83.394 1.94 7.054 8.95 21.606 3.71 27.352-6.83-1.445-34.33-12.79-44.38-16.212 5.34 13.815 10.67 32.604 15.2 47.058 106.94 19.626 189.37 88.534 228.74 189.957 4.38 11.271 7.66 59.857 9.46 75.492l19.26 163.435a25343 25343 0 0 1 42.05 362.517l14.39 121.54c2.43 21.01 6.06 47.56 6.93 68.13 11.7-22.46 20.03-44.03 29.71-67.12 8.39-20.03 17.29-39.85 26.68-59.43 5.42-11.4 10.98-23.73 17.46-34.46.09 1.5.16 3 .21 4.51.45 18.86.63 194.9-2.29 200.64-3.38 6.65-26.98 28.29-33.7 35.35l-87.6 92.96 120.53 118.61c-.31 33.89.37 68.68.24 102.82l-332.56-.15c-34.92-1.67-82.44-.09-117.92-.04l-230.186.26-347.814.02c-51.196-.47-102.395-.43-153.59.11-1.366-9.71-.816-21.07-1.032-30.97-.52-23.77 1.06-48.16.326-71.8 8.139-9.67 21.615-21.99 30.723-31.57 28.352-29.81 59.578-58.25 87.656-88.13-36.455-42.36-80.992-84.62-119.37-125.97l3.972-213.66c6.074 10.84 19.873 47.76 25.201 61.88 13.907 36.86 28.202 69.99 43.76 105.98 4.236-52.53 12.542-110.51 18.644-163.25l34.831-307.883 24.776-221.218 7.629-62.227c1.18-9.564 2.753-30.794 6.419-38.833 10.412-22.837 21.816-45.726 36.003-66.441A295.1 295.1 0 0 1 823.523 457.23a1332 1332 0 0 0 16.103-46.654c-13.695 4.097-31.087 12.871-44.249 15.989-.919-.593-1.973-.835-1.764-2.26 7.077-48.248 35.224-91.412 75.197-119.513 26.952-18.947 51.786-25.945 83.289-33.34-.104-13.126.287-26.85.481-40.02-29.965-16.062-50.299-26.712-82.432-39.256-26.366-10.292-56.017-18.489-81.245-28.65 9.254-.708 19.212-.774 28.541-1.005 18.868-1.015 42.505-.432 61.584-.429q43.493-.208 86.985.305a6154 6154 0 0 1 58.097 56.488c18.21-17.748 40.96-38.736 57.91-57.03"/><path fill="#1f242b" d="m865.758 688.396 216.742-.183c32.49-.052 67.29.784 99.57-.156-1.11 56.509 1.38 116.323-.82 172.34 13.78 12.175 26.95 25.919 40.27 38.713l79.89 77.089c-.13 109.311 1.22 221.031-.34 330.001-9.2 9.77-24.99 23.78-35.2 33.65a5487 5487 0 0 1-82.8 78.66c-1.69 19.8 1.27 159.82-2.47 163.98-18.04.33-36.31-.33-54.41-.24l-261.17.15c.011-53.08 1.933-111.6.404-164.1-8.025-5.93-30.245-28.25-38.396-36.07l-80.276-76.87.008-329.781a8696 8696 0 0 1 74.75-72.147c12.704-12.219 31.36-31.525 44.343-42.231l.365-120.164c-.02-16.46-1.306-36.696-.46-52.641"/><path fill="#fb501f" d="M1003.18 892.146c138.01-11.815 259.5 90.428 271.42 228.434 11.92 138-90.23 259.56-228.22 271.59-138.144 12.04-259.868-90.24-271.804-228.4-11.935-138.15 90.445-259.796 228.604-271.624"/><path fill="#d4d7dd" d="M564.867 1619.21a2960 2960 0 0 0 384.624 29.89 3540 3540 0 0 0 374.499-11.53c33.7-3.07 67.35-6.57 100.96-10.5 19.05-2.4 37.98-5.5 57.06-7.66 6.76 8.52 28 28.34 36.97 37.23 27.14 26.49 54.13 53.14 80.96 79.94l.06 81.65-85.25-.25-1065.745.14c-.246-27.56-.297-55.13-.151-82.69l64.052-64.22c16.559-16.77 34.817-36.11 51.961-52"/><path fill="#d4d7dd" d="M996 381.443c8.32-.832 22.78-.538 31.39-.64 57.62-.68 109.28 10.684 164.5 25.966 5.83 20.69 12.63 44.798 19.54 64.967 107.7 16.374 178.88 74.112 222.25 173.312-43.79-7.629-107.97-13.035-152.37-16.224a3016 3016 0 0 0-225.06-8.804c-153.597-.529-289.22 3.969-441.247 24.891 42.294-96.805 115.959-157.449 221.183-174.289 7-18.294 14.645-44.857 20.676-64.042 47.821-13.848 89.689-22.462 139.138-25.137"/><path fill="#d4d7dd" d="M608.991 659.957c16.554 4.036 56.844 20.629 73.245 28.054l-50.65 492.969a11768 11768 0 0 1-20.589 192.32c-3.324 29.36-6.669 67.53-11.432 96 16.812 20.17 34.109 41.65 51.216 61.39l-75.459 70.24-10.831-.04c-38.776-41.91-78.618-81.59-117.169-122.84.114-39.41 1.924-90.11.436-128.99l2.673-2.06a772 772 0 0 0 64.063 142.7l61.453-538 22.84-202.144c3.178-27.669 6.06-62.595 10.204-89.599"/><path fill="#d4d7dd" d="m1437.58 660.279 1.13.077c.43.379.96.664 1.27 1.137 1.68 2.508 85.11 746.337 96.3 827.417 15.81-29.58 30.47-59.77 43.94-90.49 7.76-17.77 14.55-35.81 22.36-53.58l-.31 131.41a3452 3452 0 0 0-50.27 51.7c-22.34 24.23-46.33 48.98-69.02 73.2-3.66-.23-7.85-.83-11.55-1.26-20.38-21.8-51.38-48.58-73.79-69.68 17.1-20.25 36.18-42.05 52.26-62.84-3.95-21.97-7.02-63.97-9.51-87.87l-17.58-170.09-53.24-516.877c18.57-9.164 49.85-29.487 68.01-32.254"/><path fill="#d4d7dd" d="M1197.09 638.772c20.78.131 45.69 2.131 66.81 3.297a8867 8867 0 0 0-.64 183.794c29.92 31.845 68.03 66.688 99.6 98.366 1.22 141.471-1.83 284.321-.5 425.691-32.54 31.06-64.91 62.3-97.1 93.72 1.1 60.1.34 122.94.4 183.27l-21.91 1.17c-15.37.87-30.75 1.63-46.14 2.27l-.25-204.48c12.74-10.84 27.67-25.94 40.12-37.73l79.45-75.68.23-343.202c-13.72-12.144-29.33-27.885-42.86-40.848a7239 7239 0 0 1-76.94-74.294z"/><path fill="#d4d7dd" d="M831.601 639.433c5.935-.54 13.156-.541 19.209-.682l.277 214.805c-25.32 25.954-53.792 50.554-79.476 76.357-12.755 12.816-27.136 26.75-40.714 38.451l.063 343.596c13.536 14.03 28.408 27.59 42.574 41.07l77.407 73.56c.154 21.44-.688 43.15-.802 64.68l-.057 138.86c-8.345-.08-17.253-.66-25.634-1.05q-20.562-.84-41.105-2.1c-1.872-59.72.36-123 .07-183.07-32.483-29.63-65.464-62.91-97.532-93.49l-.931-425.786c11.982-12.394 25.856-25.209 38.251-37.464a4434 4434 0 0 1 62.736-61.761c.199-60.364.948-122.773-.253-182.976a4456 4456 0 0 0 45.917-3"/><path fill="#1f242b" d="M1378.29 943.818c2.54 3.456 5.27 36.579 5.95 42.727a5315 5315 0 0 1 10.14 99.185l23.19 225.75 9.41 89.02c2.13 20.51 3.95 42.97 7.01 63.2-8.38 10.11-52.84 59.83-53.59 66.4-.33 2.94.41 5.35 2.16 7.68 4.24 5.64 11.44 10.47 16.74 15.19 12.68 11.3 32.23 28.3 42.91 40.99.24.29.48.59.72.88-14.7-1.68-29.43-3.08-44.17-4.21-37.29-3.58-79.97-4.63-117.7-6.22-1.31-43.7-.71-89.86-.85-133.81l64.65-61.8c9.9-9.47 22.96-23.06 33.14-31.53l-.13-304.01c.03-22.22.2-44.45.5-66.668.17-9.219 1.4-34.877-.08-42.774"/><path fill="#d4d7dd" d="M1011.92 281.52c20.5-1.045 41.72.81 62.12 2.878 74.5 7.553 136.91 45.303 160.19 119.298-64.1-23.096-130.17-36.957-198.48-37.886-11.58-.873-30.44.134-42.248.679-63.527 2.931-118.486 16.518-178.463 36.042 30.254-92.498 108.595-117.48 196.881-121.011"/><path fill="#1f242b" d="M1346.61 684.52c2.49-.508 4.44-.436 6.36 1.039 4.84 36.856 8.08 75.294 11.66 112.388l11.52 116.646-34.34-33.243a3589 3589 0 0 0-63.58-61.818c.06-42.63 1.42-88.834.29-131.007 21.72-.981 46.74-1.59 68.09-4.005"/><path fill="#1f242b" d="M698.328 684.08c23.222 1.857 49.171 4.088 72.298 4.963l.328 130.331c-17.461 16.169-41.51 39.324-57.653 56.399-12.725 12.544-25.836 24.507-38.482 37.213 3.317-17.344 5.642-53.549 7.504-72.604 5.055-51.748 11.655-104.641 16.005-156.302"/><path fill="#c76f34" d="M963.304 635.472a4007 4007 0 0 1 219.056 2.547l-.3 35.21-99.31.042c-72.46.51-144.929.484-217.392-.077l-.165-35.341c30.157.195 67.158-1.8 98.111-2.381"/><path fill="#c76f34" d="M942.484 1597.52c79.066-.85 160.736-.26 239.866.14l-.14 33.83-79.46 1.64a4948 4948 0 0 1-237.49-2.18l-.119-33.35c25.83-.12 51.421.21 77.343-.08"/><path fill="#d4d7dd" d="M1095.81 176.991c25.5-1.295 53.72.135 79.27.458.18.002.15.263.12.353-.41 1.135-2.41 1.378-3.3 1.603-34.77 13.163-59.34 24.395-90.95 44.542l.11 45.799c-13.77-1.319-30.16-2.656-43.86-2.769.09-13.076.07-26.153-.05-39.229 14.34-13.185 37.65-38.364 53.92-50.709z"/><path fill="#bebdc4" d="M1095.81 176.991c25.5-1.295 53.72.135 79.27.458.18.002.15.263.12.353-.41 1.135-2.41 1.378-3.3 1.603-7.12-3.986-62.36.299-76.09-2.414"/><path fill="#d4d7dd" d="M887.561 177.109c22.109-.919 48.357-.368 70.586-.185l53.053 51.708-.06 37.811a776 776 0 0 0-43.024 3.09l.069-46.047c-34.25-20.205-53.208-29.454-90.091-43.782-.872-.242-4.905-.921-5.179-2.129 1.27-1.16 12.115-.549 14.646-.466"/><path fill="#bebdc4" d="M878.094 179.704c-.872-.242-4.905-.921-5.179-2.129 1.27-1.16 12.115-.549 14.646-.466-3.997 1.085-5.983.539-9.467 2.595"/><path fill="#c76f34" d="M751.665 644.593c5.798-.588 13.626-.665 19.589-.878l-.205 28.899c-31.073-1.116-65.513-1.139-95.803-6.994-10.032-2.488-16.622-4.786-26.271-8.24 32.813-6.258 69.488-9.982 102.69-12.787"/><path fill="#c76f34" d="M628.942 1608.11c15.462-2.3 35.557-3.31 51.508-4.31a5522 5522 0 0 1 88.182-4.51l.287 26.07c-31.279-1.61-64.526-5.41-95.87-8.05-9.538-.81-37.521-3.62-46.082-5.47-3.853-.29-7.249-.48-11.111-.56l.307-2.26c4.64-.52 8.112-.77 12.779-.91"/><path fill="#c76f34" d="M1279.15 643.15c41.19 3.1 82.22 7.983 122.99 14.636l-13.17 4.893c-24.87 8.067-81.35 8.652-109.86 9.566z"/><path fill="#c76f34" d="M1280.67 1598.93c37.18.62 96.7 4.18 133.54 9.09 5.5-.09 11.04.82 16.63 1.18l.37 2.15c-5.18-.41-8.54.36-13.71.81a95 95 0 0 0-3.77.44c-44.2 5.46-88.54 9.66-132.97 12.59z"/><path fill="#af6739" d="M1414.21 1608.02c5.5-.09 11.04.82 16.63 1.18l.37 2.15c-5.18-.41-8.54.36-13.71.81a95 95 0 0 0-3.77.44c-.39-2.94-2.66-1.35-5.52-1.64l1.15.16-1.2-.32c.36-1.8 8.39 1.78 6.05-2.78"/><path fill="#bebdc4" d="M447.758 1349.06c.036-.93-.065-5.67.794-6.22 1.101.69 1.542 2.97 1.879 4.16z"/><path fill="#5c3c2e" d="M615.856 1611.28c-.955-.27-3.949-.83-4.463-1.8l.082-.17c1.023-.69 3.488-.35 4.688-.29z"/><path fill="#5c3c2e" d="M1430.84 1609.2c1.03-.04 3.73-.35 4.58.29.12 1.08-3.48 1.68-4.21 1.86z"/></svg>