<svg xmlns="http://www.w3.org/2000/svg" width="2048" height="2048" viewBox="0 0 2048 2048"><path fill="#202226" d="M0 0h2048v2048H0z"/><path d="m1486.17 99.162 1.25.219c-1.46 6.223-139.74 202.483-155.72 225.514q-51.585 74.371-102.36 149.302c38.17-15.272 89.69-31.36 129.62-45.258a24244 24244 0 0 0 283.83-100.277c-14.41 23.223-38.26 56.006-54.37 78.762a9394 9394 0 0 0-59.38 85.939L1356.1 750.316c-30.56 45.807-63.45 93.255-92.93 139.438 8.11-4.166 27.38-10.413 36.62-13.643a6440 6440 0 0 1 73.24-25.216l245.61-85.863c-28.72 34.523-57.88 73.543-85.44 109.339l-182.08 239.389a30561 30561 0 0 1-471.79 608.36l-144.527 184.71c-9.174 11.76-18.065 23.81-27.54 35.38-7.153 8.73-15.349 22.1-23.843 29.1.398-4.56 20.169-47.79 23.511-55.9 7.6-20.59 23.054-53.31 32.108-74.36l71.694-167.48 130.217-307.75a13294 13294 0 0 1 75.8-178.02c-12.81 6.94-27.218 13.51-40.424 19.97-108.107 52.9-215.397 105.67-320.943 163.58 11.022-23.77 21.704-51.34 32.011-75.65l63.896-149.2a21056 21056 0 0 0 88.198-202.977c10.018-23.4 20.894-47.146 30.312-70.723a26669 26669 0 0 1-388.026 187.68c4.365-11.81 19.701-41.64 25.794-54.35a2799 2799 0 0 0 50.648-109.261l160.863-371.238 56.214-129.043c13.899-31.615 29.06-64.634 41.803-96.59 19.897-7.005 49.803-13.859 71.324-20.391l195.84-58.987z"/><path d="M851.987 334.788c36.001-11.522 75.083-22.09 111.634-33.216l419.009-126.617c-10.66 17.352-30.79 44.457-42.77 61.212l-58.12 82.309-61.86 88.035c-10.81 15.433-24.64 36.108-36.15 50.73-24.79 37.198-52.57 72.922-77.24 109.798a5488 5488 0 0 0 100.39-37.853c10.44-5.063 29.3-11.409 40.65-15.525l66.87-24.315c70.58-25.805 145.46-53.961 216.47-77.987-10.98 14.543-22.51 32.47-32.82 47.763a5464 5464 0 0 0-60.77 91.307L1289.3 772.33c-18.38 27.531-42.71 68.478-61.66 93.529-23.91 38.406-51.98 75.822-74.91 113.307 18-6.435 50.96-19.937 67.98-24.576 5.11-3.047 41.1-15.767 49.05-18.558 31.95-11.21 65.4-24.789 97.52-35.079 19.35-8.203 42.95-13.607 62.23-22.03a5683 5683 0 0 1 64.64-22.279c-56.21 76.471-117.8 155.216-175.62 230.566l-468.697 602.76c5.91-16.39 14.435-34.88 21.412-51.05l29.692-69.46a21392 21392 0 0 1 84.756-197.94l59.417-136.96 20.16-46.53c2.75-6.3 7.97-19.18 11.1-24.71 1.33-3.14 2.35-5.62 3.9-8.71 8.01-18.14 16.31-37.91 25.3-55.44-40.48 17.57-85.61 40.25-125.815 59.56l-235.066 114.54c12.497-30.72 28.126-62.1 41.42-92.8l100.763-230.298c16.598-37.36 33.636-74.522 50.278-111.854 9.355-20.984 17.625-43.262 26.478-64.561-20.743 12.819-42.366 23.159-64.149 34.037l-103.517 50.855-146.813 72.189c-22.006 10.826-49.705 25.801-71.539 35.471 27.56-67.381 59.467-138.169 88.541-205.231z"/><defs><linearGradient id="a" x1="695.177" x2="1217.955" y1="604.031" y2="771.243" gradientUnits="userSpaceOnUse"><stop offset="0" stop-color="#6f3814"/><stop offset="1" stop-color="#905020"/></linearGradient></defs><path fill="url(#a)" d="M851.987 334.788c36.001-11.522 75.083-22.09 111.634-33.216l419.009-126.617c-10.66 17.352-30.79 44.457-42.77 61.212l-58.12 82.309-61.86 88.035c-10.81 15.433-24.64 36.108-36.15 50.73-24.79 37.198-52.57 72.922-77.24 109.798a5488 5488 0 0 0 100.39-37.853c3.89 3.394 2.92 4.41 2.07 9.445-28.35 9.553-65.95 23.27-93.7 34.685l-1.48-1.593c-2.89 1.625-16.45 6.52-19.08 4.913 2.25-5.393 13.08-19.954 17.06-25.762l39.08-57.019c6.17-8.974 16.7-23.147 21.43-31.971l-.74-2.12c17.09-26.118 36.22-51.968 54.13-77.625 45.07-64.558 92.48-128.193 136.26-193.583a15408 15408 0 0 1-375.582 114.353l-85.352 25.267c-13.221 3.945-30.377 9.594-43.43 12.86-8.651 17.119-17.29 40.055-24.869 58.094l-40.732 95.112-135.054 309.771c-20.8 47.732-40.3 96.059-62.439 143.269q103.501-49.872 206.357-101.058a6627 6627 0 0 0 184.039-93.797c-14.455 31.036-30.184 63.487-44.1 94.591a24047 24047 0 0 0-112.194 258.572c-18.885 43.24-38.796 85.7-58.497 128.55-2.863 6.23-5.946 12.94-8.122 19.43 27.578-11.54 62.239-29.64 89.944-43.06l166.001-79.88c8.51-4.06 57.1-28.45 62.13-29.39 3.25 6.02 39.65-23.65 35.71-9.2-1.12 4.13-2.94 8.79-6.48 11.29-.47 4.09 3.1 1.13-2.62 7.16-.64 5.82-1.96 5.63-4.24 10.82-1.28 2.93-1.72 4.14-2.58 6.13-1.85 4.33-4.74 6.83-3.25 11.64-2.43 7.52-5.93 13.63-8.77 20.79-2.38-2.76-2.54-2.65-5.91-4.4l-1.6-.86c8.01-18.14 16.31-37.91 25.3-55.44-40.48 17.57-85.61 40.25-125.815 59.56l-235.066 114.54c12.497-30.72 28.126-62.1 41.42-92.8l100.763-230.298c16.598-37.36 33.636-74.522 50.278-111.854 9.355-20.984 17.625-43.262 26.478-64.561-20.743 12.819-42.366 23.159-64.149 34.037l-103.517 50.855-146.813 72.189c-22.006 10.826-49.705 25.801-71.539 35.471 27.56-67.381 59.467-138.169 88.541-205.231z"/><path fill="#ba7030" d="M1113.77 571.723c2.48-2.129 28-10.336 34.39-13.952l.06-2.213c-7.99-2.866-36.8 17.023-42.43 10.995.25-2.353 1.37-5.526 2.82-7.442 25.19-33.185 48.26-68.435 72.64-102.084 1.04-1.448-.24-1.118 1.98-3.171l.5 3.385c-24.79 37.198-52.57 72.922-77.24 109.798a5488 5488 0 0 0 100.39-37.853c3.89 3.394 2.92 4.41 2.07 9.445-28.35 9.553-65.95 23.27-93.7 34.685z"/><defs><linearGradient id="b" x1="1053.053" x2="1249.712" y1="1210.238" y2="1314.097" gradientUnits="userSpaceOnUse"><stop offset="0" stop-color="#673210"/><stop offset="1" stop-color="#965522"/></linearGradient></defs><path fill="url(#b)" d="M1429.51 878.923a5683 5683 0 0 1 64.64-22.279c-56.21 76.471-117.8 155.216-175.62 230.566l-468.697 602.76c5.91-16.39 14.435-34.88 21.412-51.05l29.692-69.46a21392 21392 0 0 1 84.756-197.94l59.417-136.96 20.16-46.53c2.75-6.3 7.97-19.18 11.1-24.71 1.33-3.14 2.35-5.62 3.9-8.71l1.6.86c3.37 1.75 3.53 1.64 5.91 4.4-1.33 2.89-2.63 5.78-4.13 8.59-.77 6.66-33.56 77.31-38.11 87.61l-118.675 274.95a4068 4068 0 0 1-25.649 58.97c-6.09 13.65-14.612 31.22-18.552 45.19 8.337-8.81 19.301-23.6 26.769-33.24l42.009-54.44 129.378-167.23 169.21-218.85a12753 12753 0 0 0 219.62-287.397c-11.88 4.442-23.99 9.149-36 13.146 2.91-2.849 12.78-7.878 12.43-7.095 3.2-7.219-8.26.247-16.57-1.151"/><path fill="#8b4b1e" d="M1076.37 1163.32c1.33-3.14 2.35-5.62 3.9-8.71l1.6.86c3.37 1.75 3.53 1.64 5.91 4.4-1.33 2.89-2.63 5.78-4.13 8.59-6.21-2.91 5.62-4.13-3.65-6.09-.87-.19-2.02 2.55-2.44 2.9-.88-.09-.92-1.09-1.19-1.95"/><path fill="#8b4b1e" d="M1206.88 529.186c10.44-5.063 29.3-11.409 40.65-15.525l66.87-24.315c70.58-25.805 145.46-53.961 216.47-77.987-10.98 14.543-22.51 32.47-32.82 47.763a5464 5464 0 0 0-60.77 91.307L1289.3 772.33c-18.38 27.531-42.71 68.478-61.66 93.529l-.97-1.596c-6.51 7.841-11.8 18.524-16.75 23.99l-1.47-.211c-2.79-8.347 13.02-16.971 13-28.132 1.32-4.037 17.44-27.274 20.57-31.934l32.95-49.569 142.89-215.577a5695 5695 0 0 0 87.97-133.667c-98.12 38.087-198.39 71.536-296.88 109.468.85-5.035 1.82-6.051-2.07-9.445"/><path fill="#8b4b1e" d="M1429.51 878.923c8.31 1.398 19.77-6.068 16.57 1.151.35-.783-9.52 4.246-12.43 7.095-19.43 7.974-47.93 18.441-67.76 24.463-9.94 4.487-24.35 9.229-34.81 13.015l-61.76 22.256c-8.27 2.982-45.99 17.45-52.46 18.789l-.28-1.217c-2.48-.461-5.77 1.363-8.53 2.43-2.98-.891-1.87-.015-3.41-2.743 1.31-3.536 10.52-5.446 16.29-8.283l-.22-1.289c5.11-3.047 41.1-15.767 49.05-18.558 31.95-11.21 65.4-24.789 97.52-35.079 19.35-8.203 42.95-13.607 62.23-22.03"/><path fill="#ba7030" d="M1429.51 878.923c8.31 1.398 19.77-6.068 16.57 1.151.35-.783-9.52 4.246-12.43 7.095-19.43 7.974-47.93 18.441-67.76 24.463-.71-.337-1.77-.682-2.17-1.211.67-1.3 2.57-.309 3.88-1.346l1.83-.532c4.98-2.968 10.38-3.306 15.55-5.61 3.83-1.816 6.77-2.888 10.47-4.481.82-.349 2.32-3.177 2.03-4.139-.07-2.597-4.04.73-5.21.382-6.1 2.263-12.16 4.213-18.36 6.217-3.42 1.106-3.36.7-6.82 2.643l-.15-.107c-.12-.478-.04-.902.08-1.372l.26-1.123c19.35-8.203 42.95-13.607 62.23-22.03"/><defs><linearGradient id="c" x1="1207.191" x2="1132.809" y1="939.866" y2="940.134" gradientUnits="userSpaceOnUse"><stop offset="0" stop-color="#b76f2e"/><stop offset="1" stop-color="#e8a656"/></linearGradient></defs><path fill="url(#c)" d="M1221.45 859.91c.02 11.161-15.79 19.785-13 28.132l1.47.211c4.95-5.466 10.24-16.149 16.75-23.99l.97 1.596c-23.91 38.406-51.98 75.822-74.91 113.307 18-6.435 50.96-19.937 67.98-24.576l.22 1.289c-5.77 2.837-14.98 4.747-16.29 8.283 1.54 2.728.43 1.852 3.41 2.743 2.76-1.067 6.05-2.891 8.53-2.43l.28 1.217c-26.19 10.899-59.02 21.267-86.66 31.823 29.34-44.861 60.85-93.887 91.25-137.605"/><path fill="#8b4b1e" d="m1171.52 459.764.74 2.12c-4.73 8.824-15.26 22.997-21.43 31.971l-39.08 57.019c-3.98 5.808-14.81 20.369-17.06 25.762 2.63 1.607 16.19-3.288 19.08-4.913l1.48 1.593-28.85 10.907c5.88-10.415 22.26-32.841 29.71-43.765 18.08-26.491 36.62-54.777 55.41-80.694"/><path fill="#ba7030" d="M1080.01 1101.24c12.85-6.92 29.94-14.98 43.46-20.6-8.93 19.35-17.37 39.42-26.92 58.44-1.49-4.81 1.4-7.31 3.25-11.64.86-1.99 1.3-3.2 2.58-6.13 2.28-5.19 3.6-5 4.24-10.82 5.72-6.03 2.15-3.07 2.62-7.16 3.54-2.5 5.36-7.16 6.48-11.29 3.94-14.45-32.46 15.22-35.71 9.2"/><path fill="#eaeaea" d="m1299.82 220.345 1.44-.441c10.72-3.51 21.98-6.518 32.82-9.802-8.64 12.711-28.57 42.122-37.47 52.986-19.23 30.534-45.61 63.729-66.03 94.503-4.67 7.024-33.67 48.635-38.15 53.459-2.61 5.102-10.34 15.427-13.9 20.466l-26.42 37.337c-32.42 45.804-69.65 96.451-100.37 142.732 49.44-18.524 98.39-38.58 147.78-57.285 3.29-1.246 10.85-4.482 14.02-5.038 5.43-2.781 17.94-7.25 24.08-9.587l44.3-16.782c33.03-12.384 68.51-26.852 101.37-38.269 25.5-9.135 51.7-20.029 77.31-28.404 8.44-3.668 18.58-6.811 27.32-10.025-5 7.288-17.51 25.733-22.56 31.667-7.41 12.568-74.81 111.112-80.69 116.264-10.23 17.145-29.02 42.656-40.85 60.035l-79.98 118.348c-4.65 6.92-40.86 62.098-43.21 63.604-10.06 16.308-22.53 33.921-33.41 50.006l-59.71 88.161c-9.03 13.361-25.67 36.41-32.96 49.45a9379 9379 0 0 0 101.2-37.537c8.26-3.102 41.87-16.288 48.94-17.822 8.17-4.203 45.13-17.828 54.85-21.24 19.54-6.859 55.31-22.75 74.34-27.72l3.59-1.524c19.25-8.13 45.72-15.618 66.32-23.789-20.73 24.724-40.14 49.854-59.74 75.45-1.12 1.458-1.07 1.647-2.43 2.733-6.28 9.644-16.18 21.712-23.42 30.999a4888 4888 0 0 0-39.06 50.51l-45.12 59.86c-4.63 6.07-15.86 21.51-20.66 26.39-5.27 8.32-17.3 23.1-23.66 31.38l-45.04 58.58-58.21 75.61c-9.02 11.7-21.28 28.67-30.79 39.51-11.5 16.5-26.27 34.84-38.68 50.91l-77.314 99.83-1.343-3.64c1.066-5.13 5.891-8.46 6.209-10.65 1.644-11.31 4.978-47.19 1.722-56.56-5.263.48.419 1.25-5.565 3.97 4.308-12.39 14.198-33.48 19.671-45.95l40.07-90.87 40.22-92.01c6.2-14.17 14.65-35.1 21.7-48.42.95-7.55 37.81-86.1 42.66-97.02-32.06 14.88-63.14 32-95.79 46.77-6.57 4.27-22.4 11.19-30.18 14.87l-58.287 27.52c-31.565 14.94-64.481 33.15-94.966 47.31-23.509 12.9-56.914 28.31-81.795 39.11 8.602-18.44 16.303-38.85 24.244-57.85 14.4-34.22 29.169-68.29 44.305-102.2 2.308-7.4 10.937-26.33 14.306-34.14a8808 8808 0 0 1 36.915-82.457l101.488-225.395c-48.217 24.926-98.669 54.586-146.395 78.04-22.485 12.327-45.857 23.717-68.776 35.265-3.333 1.679-25.786 13.21-28 13.905-40.183 23.742-105.05 49.858-149.069 71.4l144.451-332.631c14.682-35.111 30.423-70.029 45.259-105.092 15.749-37.223 31.588-74.348 48.789-110.941 2.052-6.457 8.236-19.689 11.137-26.405a5921 5921 0 0 0 124.111-38.533c15.123-4.759 43.953-15.011 58.773-17.978 7-2.437 14.94-4.909 22.09-6.885 39.14-10.828 78.96-25.417 118.29-35.133 9.39-3.761 31.78-9.471 42.56-12.538a4938 4938 0 0 1 71.35-20.377"/><path fill="#b1b1b1" d="M1045.53 295.278c3.57.433 4.94.339 8.51-.178l1.55.639c-.59 4.824-.55 8.755-1.27 13.945-1.24 8.944-3.95 16.245-4.69 25.622-.63 8.136.78 11.703.74 22.266-.15 34.86-.39 70.758.1 105.686-.42.369-.83.738-1.25 1.106-1.37 1.029-1.8 1.876-2.43 3.375 6.44 12.726 1.5 5.61-.1 15.121l1 1.129-1.05-1.51 3.17.183-1.34.61 1.1-.712c-2.79 29.944-1.26 52.123-.87 81.946.16 11.911 3.48 23.76.4 34.869-1.2 4.316-1.46 7.349-.68 11.632 3.6 19.813 1.69 40.243 1.29 60.479-.34 21.012-.43 42.028-.26 63.042.13 14.874 3.5 29.973 3.12 44.633-.87 33.661 1.99 68.261-2.18 101.607-2.44 19.448.68 39.396-.05 58.947.36 6.702-2.53 14.383-2.48 20.801.08 9.668.75 19.841-.04 29.499-.33 4.1 3.12 6.577 2.94 10.485-1.17 24.65-.54 49.44-.27 74.11.09 8-3.8 19.82-1.27 26.87-6.57 4.27-22.4 11.19-30.18 14.87l-58.287 27.52c-31.565 14.94-64.481 33.15-94.966 47.31-23.509 12.9-56.914 28.31-81.795 39.11 8.602-18.44 16.303-38.85 24.244-57.85 14.4-34.22 29.169-68.29 44.305-102.2 2.308-7.4 10.937-26.33 14.306-34.14a8808 8808 0 0 1 36.915-82.457l101.488-225.395c-48.217 24.926-98.669 54.586-146.395 78.04-22.485 12.327-45.857 23.717-68.776 35.265-3.333 1.679-25.786 13.21-28 13.905-40.183 23.742-105.05 49.858-149.069 71.4l144.451-332.631c14.682-35.111 30.423-70.029 45.259-105.092 15.749-37.223 31.588-74.348 48.789-110.941 2.052-6.457 8.236-19.689 11.137-26.405a5921 5921 0 0 0 124.111-38.533c15.123-4.759 43.953-15.011 58.773-17.978"/><defs><linearGradient id="d" x1="619.557" x2="862.067" y1="648.702" y2="653.615" gradientUnits="userSpaceOnUse"><stop offset="0" stop-color="#6e6e6e"/><stop offset="1" stop-color="#f6f6f6"/></linearGradient></defs><path fill="url(#d)" d="m851.509 378.194 1.445 1.358c-1.875 3.621-9.707 19.757-8.467 22.902 10.271 26.037 8.168 52.309 8.142 79.742l-.157 61.331 1.051 166.645-.078 60.205c-.074 11.109-.824 25.763.119 36.637 1.8-.802 3.099-1.505 4.831-2.452l.46 1.726c-22.485 12.327-45.857 23.717-68.776 35.265-3.333 1.679-25.786 13.21-28 13.905-40.183 23.742-105.05 49.858-149.069 71.4l144.451-332.631c14.682-35.111 30.423-70.029 45.259-105.092 15.749-37.223 31.588-74.348 48.789-110.941"/><path fill="#eaeaea" d="m852.541 1070.24 1.324 1.37c-1.158 2.92-11.168 25.11-11.058 25.96 4.34 33.21 10.396 64.46 9.683 98.29 3.451-1.87 8.296-4.93 11.978-5.39l1.319.71c-23.509 12.9-56.914 28.31-81.795 39.11 8.602-18.44 16.303-38.85 24.244-57.85 14.4-34.22 29.169-68.29 44.305-102.2"/><path fill="#c7c7c7" d="M1460.6 456.22c8.44-3.668 18.58-6.811 27.32-10.025-5 7.288-17.51 25.733-22.56 31.667-7.41 12.568-74.81 111.112-80.69 116.264-10.23 17.145-29.02 42.656-40.85 60.035l-79.98 118.348c-4.65 6.92-40.86 62.098-43.21 63.604-.34-5.568 13.41-22.61 13.63-25.316.96-11.932.02-31.391-.17-43.795-.33-21.821 1.42-40.847.87-62.331-.39-3.84 2.48-10.375 2.31-13.822-.47-9.635 2.57-28.236-1.97-36.03l-.84-1.398c-.32-10.084 7.06-4.521.32-15.272-.64-7.933 1.03-20.927.66-28.245-1.08-21.427-4-43.982-5.22-65.089-3.73 1.834-12.62 4.404-16.68 4.447 5.43-2.781 17.94-7.25 24.08-9.587l44.3-16.782c33.03-12.384 68.51-26.852 101.37-38.269 25.5-9.135 51.7-20.029 77.31-28.404"/><path fill="#eaeaea" d="M1460.6 456.22c8.44-3.668 18.58-6.811 27.32-10.025-5 7.288-17.51 25.733-22.56 31.667-7.41 12.568-74.81 111.112-80.69 116.264l-.91-1.194c10.59-18.616 11.74-11.382 10.6-36.637-.99-21.945 5.56-46.762 3.51-68.516-.28-2.966-.69-1.757-.38-5.663-3.72-1.264-7.69 4.778-14.2 2.508 25.5-9.135 51.7-20.029 77.31-28.404"/><path fill="#c7c7c7" d="M1460.6 456.22c8.44-3.668 18.58-6.811 27.32-10.025-5 7.288-17.51 25.733-22.56 31.667.65-8.824 15.91-24.121 15.06-26.289-1.54-.598-11.71 5.829-19.82 4.647"/><path fill="#c7c7c7" d="m1373.88 919.411 3.59-1.524c19.25-8.13 45.72-15.618 66.32-23.789-20.73 24.724-40.14 49.854-59.74 75.45-1.12 1.458-1.07 1.647-2.43 2.733-6.28 9.644-16.18 21.712-23.42 30.999a4888 4888 0 0 0-39.06 50.51l-45.12 59.86c-4.63 6.07-15.86 21.51-20.66 26.39 2.35-9.93 9.94-13.49 14.34-22.47 1.44-3.33-2.29-7.99-2.42-10.7-.87-17.85-.46-35.76-.75-53.62-.06-3.81-3.68-9.14-3.54-13.89.76-25.23-.38-50.68.87-75.885-6.15 2.573-10.4 4.83-17.17 4.896 8.17-4.203 45.13-17.828 54.85-21.24 19.54-6.859 55.31-22.75 74.34-27.72"/><path fill="#eaeaea" d="m1373.88 919.411 3.59-1.524c19.25-8.13 45.72-15.618 66.32-23.789-20.73 24.724-40.14 49.854-59.74 75.45-1.12 1.458-1.07 1.647-2.43 2.733-.54-.065-1.26.016-1.7-.373.47-2.2 5.5-6.756 6.91-9.24.37-1.146 5.68-6.815 5.76-7.031 2.63-7.556 13.18-10.305 8.66-17.645.03.052-.04-18.93.14-19.326 3.22-6.904.08-7.868-7.51-4.705-6.57 1.474-14.14 6.701-20 5.45"/><defs><linearGradient id="e" x1="983.677" x2="1075.806" y1="1348.699" y2="1352.4" gradientUnits="userSpaceOnUse"><stop offset="0" stop-color="#a1a1a1"/><stop offset="1" stop-color="#d2d2d2"/></linearGradient></defs><path fill="url(#e)" d="M980.689 1428.98c4.308-12.39 14.198-33.48 19.671-45.95l40.07-90.87 40.22-92.01c6.2-14.17 14.65-35.1 21.7-48.42.16 12.39-22.46 47.85-21.78 55.5 3.09 34.76-1.63 63.94-4.61 99.04-.64 7.55-.28 49.73-2.93 60.73l1.91 2.06c4.29-5.09 16.19-22.34 20.72-23.94-11.5 16.5-26.27 34.84-38.68 50.91l-77.314 99.83-1.343-3.64c1.066-5.13 5.891-8.46 6.209-10.65 1.644-11.31 4.978-47.19 1.722-56.56-5.263.48.419 1.25-5.565 3.97"/><defs><linearGradient id="f" x1="1302.922" x2="1209.405" y1="295.034" y2="300.056" gradientUnits="userSpaceOnUse"><stop offset="0" stop-color="#a0a0a0"/><stop offset="1" stop-color="#d3d3d3"/></linearGradient></defs><path fill="url(#f)" d="m1299.82 220.345 1.44-.441c10.72-3.51 21.98-6.518 32.82-9.802-8.64 12.711-28.57 42.122-37.47 52.986-19.23 30.534-45.61 63.729-66.03 94.503-4.67 7.024-33.67 48.635-38.15 53.459 1.27-9.009 18.22-26.908 23.16-37.141-3.67-5.409-1.88-9.068-2.32-15.639-1.79-26.674 1.12-52.543-2.76-79.212-1.42-9.718.75-20.199-2.33-30.27-3.87 1.538-18.5 4.856-22.27 4.472 9.39-3.761 31.78-9.471 42.56-12.538a4938 4938 0 0 1 71.35-20.377"/><path fill="#b1b1b1" d="m1299.82 220.345 1.44-.441c10.72-3.51 21.98-6.518 32.82-9.802-8.64 12.711-28.57 42.122-37.47 52.986-.35-8.991.96-14.423 2.3-23.006.3-1.962.95-19.634.91-19.737"/><path fill="#c7c7c7" d="M1052.19 338.382c.81.605.61 1.413.61 2.36-1.06-.731-.74-1.13-.61-2.36"/><path fill="#b1b1b1" d="M980.689 1428.98c5.984-2.72.302-3.49 5.565-3.97 3.256 9.37-.078 45.25-1.722 56.56-.318 2.19-5.143 5.52-6.209 10.65l1.343 3.64-62.434 79.96c6.309-17.03 16.935-39.9 24.432-57.2 12.404-28.61 25.42-61.85 39.025-89.64"/></svg>