<svg xmlns="http://www.w3.org/2000/svg" width="2048" height="2048" viewBox="0 0 2048 2048"><path d="M0 0h2048v2048H0z"/><path fill="#282c31" d="M1498.24 1403.05c3.55-11.26 5.72-28.48 7.36-40.47l.15.95c.23 1.55.32 4.54.93 5.77l.25.13c1.2-.63 1.41-1.7 1.54-2.96.22 4.86 1.03 8.78 1.63 13.69-1.05 37.29-7.93 74.44-26.7 107 12.01.79 26.43 5.35 17.14 20.02l-.38-1.41c-.96-3.47-2.09-8.57-5.6-9.94-7.84-2.91-19.63 1.93-22.27 10.33-2.51 8.01 0 15.33 2.95 22.79 4.29 10.84 27.48 17.42 23.85.15l.7-.76c2.89 2.02 3 1.77 4.28 4.96-1.93 6.92-9.5 9.73-16.21 8.93 86.32 86.3-37.07 201.77-137.12 168.19 21.74 18.45 59.21 39.4 87.59 42.3 18.87-8.1 14.72-15.58 7.62-30.31 11.83 9.66 20.54 18.5 5.71 31 20.09-4.45 53.48-13.89 45.49-41.5-3-10.39-8.71-9.7-16.83-7.28-.63-2.47-1.06-2.73.71-5.37 5.32-7.92 23.01-14.68 30-5.93 12.33 15.44-3.22 41.11-16.61 51.4-16.17 13.16-34.97 18.36-54.66 18.42-1.98 2.59-.6 5.02-.45 8.46 4.04 10.42 11.84 20.39 22.45 24.19 21.57 7.72 24.58-5.51 21.49-22.23 21.36 14.66-20.69 33.9 15.14 37.67-2.6 2.32-6.77 5.85-8.23 8.91-7.11 14.88-3.65 37.36-.15 52.86-13.01-5.01-38.98-13.48-52.69-8.06-9.69 3.82-11.64 14.24-13.65 23.34-.64-6.94-1.53-14.68-1.76-21.56-6.28 3.51-10.75 5.66-17.82 2.8-1.13-.44-2.58-.96-3.04-2.18.45-1.92 8.46-.17 10.65.01 24.52-13.72-1.81-38.02-19.34-44.27-3.8.32-7.29-1.55-10.12.64-1.38 28.93-21.56 74.09-56.15 72.32-11.21-.58-21.57-10.8-18.23-22.58 1.66-5.85 10.16-14.27 16.58-13.46.23 2.07.31 2.56-.55 4.57-2.78 6.56 3.52 13.75 9.8 14.92 20.28 3.77 50.31-35.51 23.52-46.83-1.84-.78-3.23-1.08-3.84-2.84l.94-.32-.76 1.05c6.4-2.97 14.13 3.94 18.13 8.52 1.34-44.45-17.19-79.57-44.02-113.85 11.93 42.22 8.2 76.74-12.76 116.05-14.55 27.3-40.1 49.27-70.29 57.58a80.59 80.59 0 0 1-62.59-7.87c-24.1-14.05-37.35-39.82-38.44-67.23-7.82 13.52-26.33 33.49-24.21 49.28 1.06 7.81 12.53 14.93 18.33 5.66l-.01-2.09c-1.77-1.28-2.83-2.07-4.37-3.63 4.49-2.82 7.41-2.08 10.81 1.9 3.12 12.96-13.5 19.33-23.76 12.7-7.96-5.15-10.03-18.43-13.26-20.3-27.58 17.73-64.27 25.76-96.83 26.15 3.63 1.79 10.27 1.31 15.1 1.71l20.79.21c-3.58 16.37-6.82 32.81-9.74 49.32-34.99 3.91-75.204 10.69-110.515 15.81-4.392-21.43-10.72-45.01-15.995-66.43 16.098.18 32.194.49 48.286.92-1.747-1.66-3.525-3.3-5.332-4.9-14.319-12.51-44.75-7.94-62.984-6.8l-.698-.71 1.707-1.08c2.004-.78 6.203-2.69 7.984-2.85 13.267-5.09 20.339-7.74 31.613-16.19 6.864-5.7 4.365-.04 2.097 4.27 1.59.61.912.61 2.379.3 8.932-1.87 21.424.89 29.481 5.11-5.075-9.66-6.937-21.5 3.851-28.31 3.923-.41 1.99-.64 5.911 1.25-1.285 3.56-6.72 6.04-5.617 10.54 4.931 20.09 36.032 23.19 52.162 21.57 12.98-2.19 20.87-3.8 33.13-8.43-3.17-1.94-6.31-1.23-10.45-2.47l-2.49-.23c6.97-5.61 1.99-1.7 12.11-3.73 21.55.21 31.78-8.85 47.51-21.53 1.84-1.74 5.41-4.83 6.69-6.74 17.11-15.35 25.79-29.88 38.16-48.96 3.9-11.14 11.29-23.76 15.62-36.09 8.68-3.6 18.85-8.06 27.11-12.42l3.91-2.02c7.58-3.87 15.41-8.1 23.25-11.32 6.93-3.84 21.83-9.88 29.52-11.63 1.27-2.13 16.46-5.97 19.87-6.96-.02-5.78.26-12.19.4-18.03-3.85-30.05-12.53-44.54-31.2-68.38 18.62 8.81 39.32 20.58 60.1 23.64l5 .75c6.53.93 7.55 1.3 14.53 1.74 5.54.51 8.84 2.05 12.49-2.62.41-4.56 1.09-11.13 3.77-14.88 1.11-5 6.95-22.84 9.61-26.17 2.9-10.16 9.28-21.39 13.13-31.63 3.05-8.09 6.78-16.97 10.08-25.03a264 264 0 0 0 28.77-12.37c5.67-2.87 11.04-6.33 16.47-9.06 13.3-8.16 19.42-13.1 31.05-23.13-.62-1.28-1.6-2.39-1.1-3.82 2.36-1.06 2.51-1.7 4.23-3.84l1.33 2.99c15.65-14.86 36.84-44.88 31.53-67.77 5.92-4.15 2.86-4.95 2.98-12.34 2.7 7.05 2.36 10.66 1.67 18.2q1.5 1.71 3.03 3.42c8.56-15.99 11.94-39.56 11.03-57.58l1.75-.01c.94 4.16 1.13 13.32 1.72 18.47l.35-.11c.6 2.72.76 3.22.82 5.97"/><path d="M1350.46 1729c23.58 21.59 47.83 30.83 79.45 34.09 3.49-.11 6.35-.18 9.85.06-1.98 2.59-.6 5.02-.45 8.46 4.04 10.42 11.84 20.39 22.45 24.19 21.57 7.72 24.58-5.51 21.49-22.23 21.36 14.66-20.69 33.9 15.14 37.67-2.6 2.32-6.77 5.85-8.23 8.91-7.11 14.88-3.65 37.36-.15 52.86-13.01-5.01-38.98-13.48-52.69-8.06-9.69 3.82-11.64 14.24-13.65 23.34-.64-6.94-1.53-14.68-1.76-21.56-6.28 3.51-10.75 5.66-17.82 2.8-1.13-.44-2.58-.96-3.04-2.18.45-1.92 8.46-.17 10.65.01 24.52-13.72-1.81-38.02-19.34-44.27-3.8.32-7.29-1.55-10.12.64-.11-1.12-.19-1.18.08-2.26 3.52-31.82-14.49-67.02-31.86-92.47"/><path fill="#282c31" d="M1439.31 1771.61c4.04 10.42 11.84 20.39 22.45 24.19 21.57 7.72 24.58-5.51 21.49-22.23 21.36 14.66-20.69 33.9 15.14 37.67-2.6 2.32-6.77 5.85-8.23 8.91-7.11 14.88-3.65 37.36-.15 52.86-13.01-5.01-38.98-13.48-52.69-8.06-9.69 3.82-11.64 14.24-13.65 23.34-.64-6.94-1.53-14.68-1.76-21.56-6.28 3.51-10.75 5.66-17.82 2.8-1.13-.44-2.58-.96-3.04-2.18.45-1.92 8.46-.17 10.65.01 24.52-13.72-1.81-38.02-19.34-44.27 1.42-.83 2.47-1.41 3.96-2.17 17.72 6.47 29.2 16.65 31.18 35.96 15.59-16.72 26.35-12.11 45.34-4.16-10.38-20.85-8.87-31.18 5.75-48.67-21.52 3.86-36.93-10.6-40.61-31.17z"/><path fill="#1b1f22" d="M1404.09 1869.53c-1.13-.44-2.58-.96-3.04-2.18.45-1.92 8.46-.17 10.65.01-3.5.78-4.56.54-7.61 2.17"/><path fill="#1b1f22" d="M1382.32 1821.47c5.76-.52 8.79-.28 14-.55-1.49.76-2.54 1.34-3.96 2.17-3.8.32-7.29-1.55-10.12.64-.11-1.12-.19-1.18.08-2.26"/><path fill="#1b1f22" d="M1429.91 1763.09c3.49-.11 6.35-.18 9.85.06-1.98 2.59-.6 5.02-.45 8.46l-1.33 1.27c-3.17-10.69 3.82-7.09-8.07-9.79"/><path d="M1254.9 1637.06c-.08-.19-.16-.37-.24-.56.69-1.53 9.11 2.38 10.3 2.96 19.13 13.38 34.58 18.4 57.93 18.42.16 12.01.38 16.36 5.21 27.6l1.24 2.9c-.67-.35-1.35-.7-2.02-1.05-6.24-3.58-12.63-6.88-19.18-9.87-7.02-3.23-14.36-6.41-21.09-10.16 5.7 12.45 11.84 28.2 16.39 41.25-13.49-5.45-13.43-5.14-27.67-6.54 1.97-17.35.6-34.19-9.02-49.4l-4.35-6.9c-2.93-4.65-3.11-5.65-7.5-8.65"/><path fill="#df0d25" d="M964.453 1872.12c-5.075-9.66-6.937-21.5 3.851-28.31 3.923-.41 1.99-.64 5.911 1.25-1.285 3.56-6.72 6.04-5.617 10.54 4.931 20.09 36.032 23.19 52.162 21.57l-.84 1.57c-5.33.2-9.22.45-14.51 1 7.65.11 11.83 1.41 20.71 1.51l-18.31 3.87c-16.664.38-31.686 3.15-51.667 3.18-.664-.51-1.332-1.02-2.005-1.52-13.905-10.32-29.517-10.23-45.933-7.82-4.774.14-4.879.77-9.322-.33 13.267-5.09 20.339-7.74 31.613-16.19 6.864-5.7 4.365-.04 2.097 4.27 1.59.61.912.61 2.379.3 8.932-1.87 21.424.89 29.481 5.11"/><path fill="#d9172f" d="M930.496 1862.44c6.864-5.7 4.365-.04 2.097 4.27-1.979-.38-1.325-.52-1.667-2.96z"/><path d="m1493.6 1378.73 1.75-.01c.94 4.16 1.13 13.32 1.72 18.47l.35-.11c.6 2.72.76 3.22.82 5.97l.01 1.6c2.75 17.11-14.22 56.77-25.17 71.95-10.01 13.86-47.19 47.08-61.1 50.74l-4.98 2.16c-.06-4.46 2.17-3.41.85-6.9 13.3-8.16 19.42-13.1 31.05-23.13-.62-1.28-1.6-2.39-1.1-3.82 2.36-1.06 2.51-1.7 4.23-3.84l1.33 2.99c15.65-14.86 36.84-44.88 31.53-67.77 5.92-4.15 2.86-4.95 2.98-12.34 2.7 7.05 2.36 10.66 1.67 18.2q1.5 1.71 3.03 3.42c8.56-15.99 11.94-39.56 11.03-57.58"/><path fill="#d9172f" d="m1493.6 1378.73 1.75-.01c.94 4.16 1.13 13.32 1.72 18.47l.35-.11c.6 2.72.76 3.22.82 5.97l.01 1.6c-13.25 41.09-28.94 69.23-60.54 99.84-4.54 4.41-22.71 19.1-25.73 22.85l-4.98 2.16c-.06-4.46 2.17-3.41.85-6.9 13.3-8.16 19.42-13.1 31.05-23.13-.62-1.28-1.6-2.39-1.1-3.82 2.36-1.06 2.51-1.7 4.23-3.84l1.33 2.99c15.65-14.86 36.84-44.88 31.53-67.77 5.92-4.15 2.86-4.95 2.98-12.34 2.7 7.05 2.36 10.66 1.67 18.2q1.5 1.71 3.03 3.42c8.56-15.99 11.94-39.56 11.03-57.58"/><path fill="#190000" d="M1479.54 1432.89q1.5 1.71 3.03 3.42c-.67 2.32-1.83 4.42-2.8 6.62l-2.52-.51c.87-3.41 1.67-6.04 2.29-9.53"/><path fill="#320304" d="m1442.03 1491.81 1.33 2.99c-1.41 1.95-2.64 3.04-4.46 4.67-.62-1.28-1.6-2.39-1.1-3.82 2.36-1.06 2.51-1.7 4.23-3.84"/><path fill="#8a1a28" d="M1472.08 1456.42c1.69-4.44 3.23-8.61 4.82-13.06l.35-.94 2.52.51c-1.54 3.16-3.54 7.47-5.46 10.29z"/><path d="M1107.26 1834.04c17.11-15.35 25.79-29.88 38.16-48.96 1.53 3.44.01 3.79 2.27 7.25l1.64-1.56c.1 5.23-8.3 15.59-10.98 20.23-27.69 47.84-72 70.5-125.92 74.62-1.42.11-3.23-.24-4.62-.5l18.31-3.87c-8.88-.1-13.06-1.4-20.71-1.51 5.29-.55 9.18-.8 14.51-1l.84-1.57c12.98-2.19 20.87-3.8 33.13-8.43-3.17-1.94-6.31-1.23-10.45-2.47l-2.49-.23c6.97-5.61 1.99-1.7 12.11-3.73 21.55.21 31.78-8.85 47.51-21.53 1.84-1.74 5.41-4.83 6.69-6.74"/><path fill="#d9172f" d="M1107.26 1834.04c17.11-15.35 25.79-29.88 38.16-48.96 1.53 3.44.01 3.79 2.27 7.25-35.46 50.72-63.92 70.72-121.57 88.92-8.88-.1-13.06-1.4-20.71-1.51 5.29-.55 9.18-.8 14.51-1l.84-1.57c12.98-2.19 20.87-3.8 33.13-8.43-3.17-1.94-6.31-1.23-10.45-2.47l-2.49-.23c6.97-5.61 1.99-1.7 12.11-3.73 21.55.21 31.78-8.85 47.51-21.53 1.84-1.74 5.41-4.83 6.69-6.74"/><path fill="#190000" d="M1043.44 1866.27c2.04-.03 17.05-1.57 16.11.21l-.18-.4-.64.95c-1.84.83-2.92 1.17-4.84 1.71-3.17-1.94-6.31-1.23-10.45-2.47"/><path fill="#df0d25" d="M1407.85 1522.6c1.32 3.49-.91 2.44-.85 6.9-1.8 2.66-16.25 12.02-20.2 15.26-15.84 13-25.72 25.14-36.32 42.61l-2 3.29c-2.38 3.87-4.19 7.64-6.24 11.62-.99-.53-1.87-1.02-2.84-1.59 2.9-10.16 9.28-21.39 13.13-31.63 3.05-8.09 6.78-16.97 10.08-25.03a264 264 0 0 0 28.77-12.37c5.67-2.87 11.04-6.33 16.47-9.06"/><path fill="#df0d25" d="M1215.31 1723.23c1.4.95 1.27.86 1.81 2.6-26.87 16.94-53.36 34.99-67.79 64.94l-1.64 1.56c-2.26-3.46-.74-3.81-2.27-7.25 3.9-11.14 11.29-23.76 15.62-36.09 8.68-3.6 18.85-8.06 27.11-12.42l3.91-2.02c7.58-3.87 15.41-8.1 23.25-11.32"/><path fill="#df0d25" d="M1233.9 1618.23c18.62 8.81 39.32 20.58 60.1 23.64l5 .75c6.53.93 7.55 1.3 14.53 1.74-.04 4.35-33.49-.1-38.04-2.25-1.1-.53-9.17-2.4-10.53-2.65-1.19-.58-9.61-4.49-10.3-2.96.08.19.16.37.24.56 2.45 6.68 6.07 13.5 8.43 20.35 2.35 6.82 6.95 32.77 3.11 37.66-.52-1.64-.86-6.17-1.34-8.46-3.85-30.05-12.53-44.54-31.2-68.38"/><path fill="#1b1f22" d="M1025.38 1895.14c-5.37.9-52.905 1.25-53.709.2.044-.09.088-.19.133-.29 3.105-1.55 32.456-1.44 38.476-1.62 3.63 1.79 10.27 1.31 15.1 1.71"/><path fill="#d9172f" d="M1215.31 1723.23c6.93-3.84 21.83-9.88 29.52-11.63-2.05 1.89-25.09 13.44-27.71 14.23-.54-1.74-.41-1.65-1.81-2.6"/><path fill="#bb1b2e" d="M1329.79 1626.86c1.11-5 6.95-22.84 9.61-26.17.97.57 1.85 1.06 2.84 1.59-2.66 5.46-5.09 10.66-7.7 16.17-1.76 3.7-1.72 8.37-4.75 8.41"/><path fill="#bb1b2e" d="M890.899 1881.48c2.004-.78 6.203-2.69 7.984-2.85 4.443 1.1 4.548.47 9.322.33-4.929 1.36-12.279 2.99-17.306 2.52"/><path d="M1368.97 1616.18c4.94-12.76 18.08-25.01 32.44-23.64-.19.26-.39.52-.58.79 7.61.94 16.09-.18 20.79 4.97 1.38 4.23-1.12 11.32-2.34 15.72 7.23 1.08 11.69-4.95 11.79-11.86l.85-.79c6.9 3.16 13.27 13.34 15.24 20.19 16.59 57.75-41.74 96.02-92.54 72-16.68-7.88-22.45-19.4-25.02-35.95 9.82-2.05 20.93-3.94 28.58-10.64 8.3 9.91 11.51 13.66 24.74 16.71-12.38-13.72-19.85-28.78-13.95-47.5"/><path fill="#df0d25" d="M1368.97 1616.18c4.94-12.76 18.08-25.01 32.44-23.64-.19.26-.39.52-.58.79-9.03 1.05-13.38 3.87-20.31 9.51-7.09 7.36-5.82 9.38-7.3 18.77 3.8 11.22 10.62 5.71 15.62 11.3-.94-1.05-8.83 10.11-6.91 11.58-1.49 6.21 2.28 15.46.99 19.19-12.38-13.72-19.85-28.78-13.95-47.5"/><path fill="#282c31" d="M1373.22 1621.61c1.48-9.39.21-11.41 7.3-18.77-3.82 16.04-5.23 22.18 14 26.96 2.31.57 2.77.49 5.04 1.69-8.55 5-6.8 3.28-11.99 13.17-3.32 6.31-.73 19.23-4.65 19.02 1.29-3.73-2.48-12.98-.99-19.19-1.92-1.47 5.97-12.63 6.91-11.58-5-5.59-11.82-.08-15.62-11.3"/><path d="M1257.83 1739.98c2.23-3.2 17.26-28.92 19.02-28.76 45.65 4.12 54.52 68.21 28.87 99.17a64.72 64.72 0 0 1-43.75 23.39c-14 1.39-27.96-3.02-38.63-12.19-13.71-11.71-7.29-18.31 4.96-25.43-4.99-.21-18.77.61-21.27-.12-3.32-4.41-1.99-9.38-1.2-15.05.24-1.78.52-3.55.83-5.31-1.53-7.81 15.51-22.07 23.3-23.08 2.37 3.4 3.08 1.59 7.14 2.75 6.38 1.89 7.03 1.92 12.31 5.27-9.94 18.05-13.22 22.21-11.71 44.07 4.79-10.31 8.46-17.59 19.82-22.66 6-2.68 14.26-1.51 18.6-4.87 1.07-2.73.64-4.23.36-7.14-1.2-16.48-4.25-20.98-18.65-30.04"/><path fill="#d9172f" d="M1206.66 1775.68c-1.53-7.81 15.51-22.07 23.3-23.08 2.37 3.4 3.08 1.59 7.14 2.75-19.51 3.55-18.22 4.65-30.44 20.33"/><path d="m1451.19 1578.9-1.36.15c-6.59.7-15.56.43-20.67-4.38-7.09-6.66-9.28-19.1-1.9-26.38 16.08-15.87 46.01-3.83 58.79 10.74 15.43 17.77 18.38 40.23 13.67 62.39-3.89-4.33-5.42-6.5-11.43-6.86-7.08-.43-14.6 1.34-12.9 10.42 4.11-.25 12.1-2.1 14.61 1.79 16.79 25.97-31.47 55.13-47.6 64.04 6.93-7.28 13.15-13.63 16.92-23.19 9.14-23.2.98-52.69-16.94-69.5a63.63 63.63 0 0 0-45.82-17.22c-13.61.52-22.63 4.89-33.71 11.96 16.03-21.55 25.2-31.65 48.84-45.65-10.6 28.26 20.54 42.7 41.64 33.31z"/><path fill="#1b1f22" d="M1451.19 1578.9c2.29-.98 8.53-4.47 9.9-4.59.04.06.08.12.11.18-1.06 2.86-5.36 4.81-7.87 6.03z"/><path d="m1206.66 1746.85.97 1.26c-5.68 10.36-9.76 16.51-11.15 28.66-4.58 39.93 23.3 66.92 61.83 70.05 24.39 1.98 35.19-6.94 52.38-21.65-17.42 26.99-31.27 40.63-60.24 54.07-.11-3.42-.42-7-.67-10.43-4.11-6.13-9.17-10.21-16.61-6.45l-.08.94c1.52 1.6 5.05 5.11 5.67 7.11 2.35 7.6-2.72 15.24-10.73 15.34-20.91.26-38.22-4.75-54.24-18.32 18.05-3.69 28.03-13.13 29.54-32.53 1.39-17.85-11.82-40.44-31.56-39.82-2.98.1-2.33.46-5.17-.76 2.01-10.62 30.43-40.15 40.06-47.47"/><path d="M1179.33 1807.16c28.21 4.95 27.89 46.46 1.69 57.03-19.65-2.11-22.68-18.4-21.24-36.2.9-11.13 8.88-18.06 19.55-20.83"/><path fill="#df0d25" d="M1229.96 1752.6c9.42-2.87 15.65-3.96 24.93.83 7.49 3.86 17.3 14.34 19.37 22.6-7.48-2.03-15.42-2.55-22.67 2.18-3.73 2.44-4.28 1.42-2.23-1.83 5.02-7.95 6.06-8.97.05-15.76-5.28-3.35-5.93-3.38-12.31-5.27-4.06-1.16-4.77.65-7.14-2.75"/><path d="M1462.61 1507.77c1.04 6.22-1.7 14.47 1.33 21.25.34.77.59 2.19.79 3.05-9.06-2.06-14.71-2.84-23.97-3.32-1.43.15-3.32.42-4.69-.1-.28-.35-.19-.14-.17-.66-.01.03 24.78-18.78 26.71-20.22"/><path d="M1256.78 1726.95c2.59 2.74-4.11 8.87-5.75 11.22-1.03 1.47-7.22.07-8.9-.15-1.05-.28-2.01-.18-1.55-1.46 3.58-1.3 12.74-7.34 16.2-9.61"/><path d="M1350.8 1621.73c2.08 12.23-1.97 10.99-12.13 15.54-.51-3.31 9.44-12.54 12.13-15.54"/><path fill="#282c31" d="M721.705 320.411c-13.435-44.047-6.569-83.809 19.25-121.873 29.636-43.691 88.086-65.511 134.554-34.554 19.249 12.825 28.423 36.914 31.912 58.756 8.548-10.81 42.877-52.5 11.883-57.461-7.7 2.884-2.854 8.47-7.126 13.117-6.501-.803-6.672-8.482-3.177-12 17.177-17.288 32.679-.737 34.211 17.708a103 103 0 0 1 3.98-2.876c29.856-20.657 84.578-27.342 121.748-25.459 1.64.083 4.93.685 6.26 1.648.03-.007-.89.992-3.27.399-9.33-2.326-67.42.855-72.41 5.472l-.007 2.99c2.237 2.853.857 1.963 4.157 2.956-2.61 2.037-1.16 1.208-4.983 1.833 4.293.633 5.893 1.724 10.413 2.243l15.78-4.447c3.36.074 10.74-.253 13.23 1.08l.44.859-3.49 2c-14.72 1.859-27.61 3.735-41.323 9.741 4.014 2.101 8.873 1.179 14.823 3.363l3.56 1.074c-5.55-.152-9.48-2.629-9.96 2.745-23.376-2.417-34.641 5.618-52.31 19.977a97 97 0 0 0-4.116 3.56c3.128 13.293 6.436 16.015 20.144 19.3-5.265 1.05-5.817-1.315-7.174 4.231-2.374 3.933-3.456 5.365-8.296 6.184l-.754-1.064.295-1.18c3.474-14.404-9.989-8.433-5.833-22.724l-1.151-1.419c-9.688 3.429-33.06 41.416-38.4 50.752-2.316 6.716-6.418 14.452-9.07 21.691a136 136 0 0 1-3.232 7.989c-.518 1.201-.966 2.458-1.426 3.686-7.675 2.698-14.425 6.205-21.817 9.513l-8.948 4.106c-9.877 4.49-20.311 9.29-30.051 14.044-7.506 2.949-15.716 6.3-23.562 8.069-3.045 2.312-15.628 4.987-20.22 6.155q-.328 9.459-.496 18.921c1.071 27.899 13.005 47.613 28.813 69.393-21.436-11.094-39.261-21.415-64.044-25.07l-4.008-.618c-5.173-.779-4.188-1.126-10.376-1.481a359 359 0 0 1-10.999-1.08c-.885 4.553-1.252 8.287-3.474 12.328-4.057 19.841-16.11 43.493-23.842 62.735-2.99 7.441-7.233 19.37-10.388 26.25-9.406 3.502-16.376 6.5-25.337 11.061-2.571 1.308-12.362 6.78-13.862 7.318-14.196 8.68-28.356 18.008-39.949 30.117.734.8 1.462 1.526 2.224 2.297-2.102 1.887-2.095 1.883-3.652 4.244l-3.905-.598c-14.364 15.646-33.938 42.031-27.43 64.669-4.156 2.884-2.571 4.21-3.219 9.174-3.296-8.039-1.724-16.163-.065-24.266l-1.557-3.653c-7.367 15.339-9.035 22.467-13.343 38.715-.816 8.063-4.818 57.563 20.937 45.308-.184.087 2.609-3.907 2.924-4.295 6.239 10.796-6.849 16.778-15.71 14.614-1.456-.355-5.844-4.576-7.57-5.827-2.3 3.703 2.112 9.335 4.567 12.037-8.507 16.139-12.336 30.025-14.963 48.064-.576 4.897-1.589 11.517-1.514 16.31.369 5.752-.585 13.944-1.147 19.767-1.413-10.885-2.642-19.373-1.894-30.426l-.259-5.079c-1.273-7.405-1.545-19.182-1.875-26.978-2.163-51.067-2.388-108.384 20.171-155.362.991-2.064 4.229-7.972 3.72-9.794-2.538-.372-8.981-1.09-10.778-2.406-7.721-5.649-7.938-12.247-3.022-19.394l.924.39c.056 5.13-.723 7.869 3.794 11.031 9.323 5.625 17.33-1.104 22.302-8.471 10.62-15.737-19.266-49.448-26.017-24.025l-.415 1.598-1.747-.257c-3.033-3.198-2.351-1.419-2.911-5.148 2.514-5.908 7.628-7.725 13.27-10.493-14.964-16.129-20.842-27.18-23.431-49.623l-.147-1.349c-.503-4.048-.501-10.354-.63-14.592-.525-56.801 58.526-96.987 109.076-104.595 21.097-3.175 33.918-2.415 54.259 3.196-15.548-13.388-73.88-48.348-93.983-36.213a14.77 14.77 0 0 0-6.882 10.176c-.811 4.781.133 7.502 3.014 11.219l-.41.934c-10.298-3.05-8.984-14.412-7.512-22.274l-1.184-1.489c-11.505-1.15-40.625 16.531-38.893 30.873 1.669 13.831 3.099 17.42 17.676 16.211l1.237-.113c.022 2.392-.249 2.797-1.53 4.825-9.016 14.189-31.031 16.067-33.691-3.959-3.351-25.223 19.082-43.951 39.511-53.746 8.974-4.304 17.366-5.521 27.146-6.831 13.444-3.043 8.207.875 6.615-12.714-7.639-14.301-31.506-32.071-43.107-14.478-4.376 6.637-.255 10.123-1.412 14.028-14.417-10.338 7.721-21.512-.355-31.579-4.296-2.351-8.576-1.976-13.601-2.194 20.357-13.714 13.678-39.76 10.08-60.427 12.258 3.791 39.231 10.043 51.02 4.07 10.067-5.101 11.528-12.023 14.693-21.627.292 6.797.933 13.013 1.629 19.783 3.688-2.304 6.646-4.228 11.111-4.689 3.777-.39 12.532 1.426 12.787 5.926-5.07-.529-12.05-3.146-16.387-.645-10.055 5.8-8.397 17.24-2.896 25.404 6.897 10.234 14.238 16.35 25.922 19.113 3.949.124 5.551 1.259 7.993-1.815.212-26.728 21.598-69.054 51.923-70.892 19.776-1.198 31.072 15.403 16.093 31.467-2.873 3.08-5.806 3.48-9.886 3.251.637-6.471 2.186-12.297-4.027-16.598-14.517-10.047-42.112 16.677-38.085 31.77 2.117 7.932 4.63 9.879 11.021 14.247l1.598 1.083c-6.603 2.202-11.253-2.59-15.683-6.588-9.58 36.765 17.405 81.351 40.916 107.65"/><path d="M561.963 179.501c12.258 3.791 39.231 10.043 51.02 4.07 10.067-5.101 11.528-12.023 14.693-21.627.292 6.797.933 13.013 1.629 19.783 3.688-2.304 6.646-4.228 11.111-4.689 3.777-.39 12.532 1.426 12.787 5.926-5.07-.529-12.05-3.146-16.387-.645-10.055 5.8-8.397 17.24-2.896 25.404 6.897 10.234 14.238 16.35 25.922 19.113 3.949.124 5.551 1.259 7.993-1.815-.149 5.404.122 10.915.054 16.369 1.928 26.811 12.828 50.689 28.535 72.302-26.364-16.634-50.479-27.472-82.62-27.416-3.486.806-6.519.618-10.061.589 13.444-3.043 8.207.875 6.615-12.714-7.639-14.301-31.506-32.071-43.107-14.478-4.376 6.637-.255 10.123-1.412 14.028-14.417-10.338 7.721-21.512-.355-31.579-4.296-2.351-8.576-1.976-13.601-2.194 20.357-13.714 13.678-39.76 10.08-60.427"/><path fill="#282c31" d="M561.963 179.501c12.258 3.791 39.231 10.043 51.02 4.07 10.067-5.101 11.528-12.023 14.693-21.627.292 6.797.933 13.013 1.629 19.783 3.688-2.304 6.646-4.228 11.111-4.689 3.777-.39 12.532 1.426 12.787 5.926-5.07-.529-12.05-3.146-16.387-.645-10.055 5.8-8.397 17.24-2.896 25.404 6.897 10.234 14.238 16.35 25.922 19.113q-2.489.708-4.964 1.46c-18.785-6.273-28.938-15.088-31.306-35.566-15.994 17.917-27.121 12.992-47.159 4.183 10.995 21.118 10.879 30.783-4.492 48.479 20.753-.825 30.448 5.318 39.423 24.953l-.986 3.806c-7.639-14.301-31.506-32.071-43.107-14.478-4.376 6.637-.255 10.123-1.412 14.028-14.417-10.338 7.721-21.512-.355-31.579-4.296-2.351-8.576-1.976-13.601-2.194 20.357-13.714 13.678-39.76 10.08-60.427"/><path fill="#1b1f22" d="M611.344 270.345c2.327 7.162 2.544 8.418 2.46 15.931-3.486.806-6.519.618-10.061.589 13.444-3.043 8.207.875 6.615-12.714z"/><path fill="#1b1f22" d="M667.835 225.021c-.149 5.404.122 10.915.054 16.369-3.471-16.509 4.128-10.633-13.011-13.094q2.475-.752 4.964-1.46c3.949.124 5.551 1.259 7.993-1.815"/><path fill="#d9172f" d="m1009.1 173.31 15.78-4.447c3.36.074 10.74-.253 13.23 1.08l.44.859-3.49 2c-14.72 1.859-27.61 3.735-41.323 9.741 4.014 2.101 8.873 1.179 14.823 3.363l3.56 1.074c-5.55-.152-9.48-2.629-9.96 2.745-23.376-2.417-34.641 5.618-52.31 19.977a97 97 0 0 0-4.116 3.56c3.128 13.293 6.436 16.015 20.144 19.3-5.265 1.05-5.817-1.315-7.174 4.231-2.374 3.933-3.456 5.365-8.296 6.184l-.754-1.064.295-1.18c3.474-14.404-9.989-8.433-5.833-22.724l-1.151-1.419c-9.688 3.429-33.06 41.416-38.4 50.752-2.802-1.974-2.816-1.924-4.688-4.747l9.439-13.715c.314-5.462 12.003-21.712 15.83-26.839 20.042-26.849 42.286-40.763 73.541-50.974 4.293.633 5.893 1.724 10.413 2.243"/><path d="M998.687 171.067c4.293.633 5.893 1.724 10.413 2.243l-10.008 4.215c-42.146 17.268-61.475 36.293-89.776 71.355.314-5.462 12.003-21.712 15.83-26.839 20.042-26.849 42.286-40.763 73.541-50.974"/><path fill="#320304" d="M1008.56 185.906c-7.43-.51-10.531-1.074-18.149.002-5.398.763 1.538-2.87 3.326-3.365 4.014 2.101 8.873 1.179 14.823 3.363"/><path d="M643.948 518.161c2.904 1.51 2.801 1.298 4.278 4.191-14.196 8.68-28.356 18.008-39.949 30.117.734.8 1.462 1.526 2.224 2.297-2.102 1.887-2.095 1.883-3.652 4.244l-3.905-.598c-14.364 15.646-33.938 42.031-27.43 64.669-4.156 2.884-2.571 4.21-3.219 9.174-3.296-8.039-1.724-16.163-.065-24.266l-1.557-3.653c-7.367 15.339-9.035 22.467-13.343 38.715-3.743 4.373-2.514 16.556-2.51 23.285-1.069-8.692-1.487-16.043-2.046-24.764l-.071-.855c-2.358-11.544 10.485-41.581 15.069-52.346 9.209-21.622 48.04-58.117 69.063-64.894z"/><path fill="#d9172f" d="M643.948 518.161c2.904 1.51 2.801 1.298 4.278 4.191-14.196 8.68-28.356 18.008-39.949 30.117.734.8 1.462 1.526 2.224 2.297-2.102 1.887-2.095 1.883-3.652 4.244l-3.905-.598c-14.364 15.646-33.938 42.031-27.43 64.669-4.156 2.884-2.571 4.21-3.219 9.174-3.296-8.039-1.724-16.163-.065-24.266l-1.557-3.653c-7.367 15.339-9.035 22.467-13.343 38.715-3.743 4.373-2.514 16.556-2.51 23.285-1.069-8.692-1.487-16.043-2.046-24.764l-.071-.855c16.486-54.469 41.995-81.521 84.132-117.24z"/><path fill="#320304" d="M570.673 604.336c1.683-4.345 3.217-6.652 5.626-10.366-1.38 5.231-2.37 8.899-4.069 14.019z"/><path fill="#320304" d="M608.277 552.469c.734.8 1.462 1.526 2.224 2.297-2.102 1.887-2.095 1.883-3.652 4.244l-3.905-.598a139 139 0 0 1 5.333-5.943"/><path fill="#df0d25" d="M552.774 641.572c.559 8.721.977 16.072 2.046 24.764-.004-6.729-1.233-18.912 2.51-23.285-.816 8.063-4.818 57.563 20.937 45.308-.184.087 2.609-3.907 2.924-4.295 6.239 10.796-6.849 16.778-15.71 14.614-1.456-.355-5.844-4.576-7.57-5.827-2.3 3.703 2.112 9.335 4.567 12.037-8.507 16.139-12.336 30.025-14.963 48.064-.576 4.897-1.589 11.517-1.514 16.31.369 5.752-.585 13.944-1.147 19.767-1.413-10.885-2.642-19.373-1.894-30.426l-.259-5.079c-.092-12.562-.687-34.831 1.215-46.664-.75-19.539 4.231-46.083 8.858-65.288"/><path fill="#8a1a28" d="M542.96 758.603c.968 4.558.696 8.302 1.433 12.511.178-.135 1.472-1.668 1.608-1.852.369 5.752-.585 13.944-1.147 19.767-1.413-10.885-2.642-19.373-1.894-30.426"/><path fill="#df0d25" d="M643.948 518.161c7.781-5.98 15.568-10.846 22.886-17.502 18.719-17.025 31.976-37.322 43.401-59.68 2.51-4.912 9.136-24.135 11.42-25.991-4.057 19.841-16.11 43.493-23.842 62.735-2.99 7.441-7.233 19.37-10.388 26.25-9.406 3.502-16.376 6.5-25.337 11.061-2.571 1.308-12.362 6.78-13.862 7.318-1.477-2.893-1.374-2.681-4.278-4.191"/><path fill="#df0d25" d="M826.24 326.533c4.439-2.332 8.643-4.59 12.988-7.09l3.346-1.954c28.98-17.211 37.938-28.15 57.303-54.894 1.872 2.823 1.886 2.773 4.688 4.747-2.316 6.716-6.418 14.452-9.07 21.691a136 136 0 0 1-3.232 7.989c-.518 1.201-.966 2.458-1.426 3.686-7.675 2.698-14.425 6.205-21.817 9.513l-8.948 4.106c-9.877 4.49-20.311 9.29-30.051 14.044z"/><path fill="#df0d25" d="M797.874 416.679c-12.099-20.025-17.762-41.366-13.37-64.768.328.475 1.053 8.327 1.239 9.605 1.071 27.899 13.005 47.613 28.813 69.393-21.436-11.094-39.261-21.415-64.044-25.07l-4.008-.618c-5.173-.779-4.188-1.126-10.376-1.481 1.16-4.147 24.218.204 28.367 1.088 10.589 2.255 22.913 6.729 32.505 11.461z"/><path fill="#bb1b2e" d="M806.459 336.44c1.628-2.792 16.562-9.047 19.781-9.907l3.781 1.838c-7.506 2.949-15.716 6.3-23.562 8.069"/><path d="M645.148 350.501c28.316-6.194 67.706.81 73.931 34.481q.472 2.643.757 5.311c-7.708 1.452-25.041 2.97-27.318 11.125-3.199-3.338-6.66-7.121-9.938-10.313-6.878.665-3.338.725-5.763 5.612 7.441 13.679 10.491 26.005 2.448 40.236-4.05 8.467-11.204 14.355-20.022 17.459-2.551 1.587-19.496 7.016-16.121 1.367-12.233-6.095-17.048 1.159-11.59-19.153l-2.074-.494c-6.047 2.982-4.926 10.88-12.625 9.997-8.71-6.11-12.515-20.164-15.894-29.826-3.997-4.523-3.585-6.84-2.368-12.825.461-2.272-.124-6.312.63-7.799.484-.315 1.034-.333 1.597-.377l1.365-.135.464-.422c-3.468-17.621 24.25-46.461 42.521-44.244"/><path fill="#df0d25" d="M666.177 384.881c6.16 5.648 5.665 5.757 10.64 11.836 7.441 13.679 10.491 26.005 2.448 40.236-3.082-2.276-1.665-6.864-2.289-11.248-7.353-7.509-12.124-6.704-21.632-8.534 18.036-5.183 15.772-17.393 10.833-32.29"/><path fill="#1b1f22" d="M665.589 382.779c6.771 2.499 10.972 4.29 16.991 8.326-6.878.665-3.338.725-5.763 5.612-4.975-6.079-4.48-6.188-10.64-11.836 4.939 14.897 7.203 27.107-10.833 32.29-1.889-.043-1.848-.09-3.635.432-1.198-.184-3.806-.219-3.589-2.018 3.304-1.813 4.016-.624 7.629-4.18 8.829-8.688 9.136-17.14 9.84-28.626"/><path fill="#bb1b2e" d="M602.627 394.745c-3.468-17.621 24.25-46.461 42.521-44.244l-.915.342c-24.695 9.016-32.636 20.271-41.606 43.902"/><path fill="#1b1f22" d="M651.709 417.603c1.787-.522 1.746-.475 3.635-.432 9.508 1.83 14.279 1.025 21.632 8.534-.897 6.016-.157 8.858-2.903 13.86.018-1.64.468-6.492.038-7.594-2.564-6.573-16.598-11.756-22.402-14.368"/><path fill="#d9172f" d="M676.976 425.705c.624 4.384-.793 8.972 2.289 11.248-4.05 8.467-11.204 14.355-20.022 17.459l-1.003-1.202.646-.321c7.871-3.817 10.564-6.151 15.187-13.324 2.746-5.002 2.006-7.844 2.903-13.86"/><path fill="#1b1f22" d="M600.939 416.303c-3.997-4.523-3.585-6.84-2.368-12.825.461-2.272-.124-6.312.63-7.799.484-.315 1.034-.333 1.597-.377l1.365-.135c.002 6.044-1.232 13.022-1.224 21.136"/><path fill="#54232c" d="M643.122 455.779c4.414-.415 10.63-1.743 15.118-2.569l1.003 1.202c-2.551 1.587-19.496 7.016-16.121 1.367"/><path d="M745.022 238.256c-.933-3.145 8.27-10.898 10.598-12.45l2.994-1.995 2.993-1.996c8.759-5.508 28.27-14.194 37.592-8.269 3.484 1.477 4.892 2.02 8.53 2.988 4.995-2.411 10.989 2.663 14.346 6.065 15.019 11.944 18.144 21.796.927 32.75l1.803-.142c7.076-.604 19.013-4.852 20.518-4.575 1.555 8.11-.285 15.687-1.47 23.47-.087 8.257-9.769 18.023-16.939 20.7-.263-.99-.364-1.06-.883-2.18-7.685 1.376-9.49 1.435-16.957.194-2.51-2.261-6.4-4.948-9.205-7.026 12.389-14.753 13.725-19.14 12.644-38.703-9.68 17.441-18.314 21.953-38.176 20.508-.814 16.905-.719 29.662 15.361 39.287-6.004 9.243-10.007 18.068-15.628 27.424-18.461 11.597-42.303-27.924-44.073-44.23-2.493-22.968 3.063-33.719 15.025-51.82"/><path fill="#3f252d" d="M745.022 238.256c-.933-3.145 8.27-10.898 10.598-12.45l2.994-1.995 2.993-1.996c8.759-5.508 28.27-14.194 37.592-8.269-9.461 1.004-16.562.821-25.693 4.732-6.85 2.934-12.112 5.986-18.121 10.416-3.56 2.625-6.81 7.636-10.363 9.562"/><path fill="#8a1a28" d="M843.853 274.102c-.087 8.257-9.769 18.023-16.939 20.7-.263-.99-.364-1.06-.883-2.18l1.252-.764a52.9 52.9 0 0 0 16.57-17.756"/><path fill="#1b1f22" d="M807.729 216.534c4.995-2.411 10.989 2.663 14.346 6.065-5.963-.09-9.462-2.702-14.346-6.065"/><path d="M603.888 360.059c1.135 2.015-.553 2.477-2.292 4.686-44.855 56.955 24.7 133.599 86.452 89.311-4.916 7.839-40.871 50.852-49.045 44.453 1.04-2.23 2.493-5.139 2.225-7.601-2.488-22.804-26.758-27.309-44.861-25.074-1.131.423-2.611 1.297-3.724 1.89 2.148 1.076 8.857-.77 12.849-.674a22.92 22.92 0 0 1 16.089 7.098c15.478 16.434-4.404 35.542-23.056 32.997-15.998-.709-23.276-8.771-33.996-18.456-9.595-8.668-22-51.682-11.308-59.18 1.977 1.368 4.312 3.045 6.512 3.924 5.374 2.146 14.766-6.093 15.806-10.917-2.931.283-4.668 1.616-7.478 1.275-7.854-.951-10.67-12.033-8.677-18.389 5.989-19.106 28.816-35.377 44.504-45.343"/><path d="M740.751 222.454c12.661-20.88 32.094-42.121 55.349-50.943 9.916-3.762 1.466 24.373 20.364 17.452.805-3.24-5.17-11.315-3.831-15.154 8.539-24.476 53.61-2.37 63.654 9.396l.169 3.482c-10.164-1.202-12.928 2.19-19.315 9.41l-1.736-.63c-14.402 19.507-1.38 67.112 32.258 56.908-14.256 21.658-23.315 35.252-44.942 50.737 12.839-26.565 17.872-52.229-1.601-78.283-9.576-12.812-27.26-20.399-43.01-22.143-23.81-2.637-39.146 5.109-57.359 19.768"/><path fill="#1b1f22" d="M855.405 195.467c5.891-9.742 10.163-11.322 20.882-12.262l.169 3.482c-10.164-1.202-12.928 2.19-19.315 9.41z"/><path d="M744.727 338.437c12.171 4.236 13.103 6.842 27.419 7.74-.312 32.763 4.2 38.82 20.972 65.64-16.369-7.206-24.036-15.379-42.881-19.616-11.04-1.881-11.526-1.927-22.918-1.113-.432-13.235-1.105-19.438-6.368-31.901 13.056 6.416 28.273 14.471 41.453 20.014-6.186-13.422-12.669-26.821-17.677-40.764"/><path d="M857.141 196.097c6.387-7.22 9.151-10.612 19.315-9.41l1.243.774c8.126 4.925 12.422 13.513 14.085 22.549 6.255 33.994-32.048 48.268-40.409 10.502-1.84-8.313 1.36-17.358 5.766-24.415"/><path fill="#df0d25" d="M775.695 270.381c7.755 3.267 10.956 5.008 19.71 3.222.55-.113 2.825-1.604 3.271-.947-.31 2.508-5.28 6.806-3.161 10.654 2.147 3.898 7.377 7.792 11.668 8.949l1.891.557c7.467 1.241 9.272 1.182 16.957-.194.519 1.12.62 1.19.883 2.18-22.938 9.897-38.647 1.505-49.46-20.86z"/><path d="M586.572 515.926c12.11 3.152 18.825 2.722 30.802 1.966-4.226 3.042-8.083 5.675-11.996 9.172a83 83 0 0 0-2.97 2.254c-4.48 3.614-9.193 7.314-13.901 10.612.589-10.726.633-13.647-1.935-24.004"/><path d="m798.801 308.754 17.292.773c-3.575 1.591-7.739 3.555-11.35 4.943-5.307 2.478-6.972 3.55-11.865 6.349 1.897-4.061 3.55-8.251 5.923-12.065"/><path d="M710.983 411.097c2.029 2.132-7.884 10.798-10.208 13.5-5.863-9.222 3.16-9.972 10.208-13.5"/><path fill="#282c31" d="m544.021 1396.86 2.041-.77c-.034 7.18 1.195 12.22 1.207 18.49 3.703 28.56 9.405 83.26 42.074 92.63l3.488 1.31c1.846 0 5.021.83 6.408 1.94-.087.26-.174.53-.26.8-34.945 4.46-40.005 45.31-43.482 73.61l2.321 2.79c.759-7.25 8.888-21.72 17.125-21.05 5.987.49 13.475 11.23 14.406 17.02l-.584 1.19c-5.823-.63-8.652-3.2-14.031.73-10.887 7.95-15.816 26.07-18.079 38.54a180.3 180.3 0 0 0-2.635 32.7c.574 3.46.778 6.16 1.687 9.58 4.754-10.99 8.854-18.84 17.631-27.12 33.303-31.4 89.424-11.96 102.912 29.68 9.219 28.46 4.339 49.95-16.721 71.29 20.295 2.12 35.516 11.66 32.824 34.26-.159 1.32-.344 2.63-.554 3.94 19.148-17.22 45.014-32.49 70.685-17.78 5.304 2.3 13.365 5.62 18.013 8.83 9.516 6.59 18.679 17.17 21.623 28.55.196.74.318.86.743 1.59 14.063 32.09-7.489 60.65-34.323 76.27 9.408-.74 121.508 1.69 91.016-28.44l-.862-.84.688-1.26c27.534-2.43 26.971 41.72-13.549 42.24-62.028.79-123.697 16.04-163.671-42.32-5.188 9.4-21.122 33.46-.252 37.05 10.877-2.08 8.872-16.28.508-14.89l-1.263 1.93c.351 3.03.56 2.66.117 5.54-2.421-1.13-2.239-1.08-3.859-3.24-.282-4.44-.831-2.55.967-6.03 3.712-2.32 10.476-1.64 11.92 1.61 9.263 20.86-13.174 28.27-26.617 7.2-29.648 21.41-60.455-.04-53.736-36.24-40.24-2.76-68.871-27.87-51.416-70.62-7.875.15-12.632-1.54-17.554-8.13-6.237-8.35-5.085-20.58 3.977-26.41 7.144-4.6 11.997-3.06 19.699-1.49-46.142-58.43-17.876-165.39-14.837-232.61.265-5.87-5.974-20.29-8.047-27.15 1.262-16.98 1.326-37.18 2.308-54.88-.516-5.21-.17-14.6-.056-20.04"/><path d="M744.569 1772.51c7.677-1.02 8.258-1 15.975-.67 6.038 1.92 8.611 3.22 13.826 6.84 1.086 1.14 4.309 3.79 4.302 5.45-4.789 2.17-10.14.34-14.882 7.59-1.676 2.56-4.262 7.72-.097 9.91 3.755 1.98-.08-13.88 11.317-12.02 12.786 2.08 16.214 12.91 17.763 24.4.636 5.65.167 11.37-.784 16.98-2.244 9.55-7.708 18.73-14.936 25.36-.36.45-1.775.78-1.71-.24.311-4.88 1.936-6.2-.306-11.12-1.493-3.28-13.3-2.23-6.462 1.45 3.461 1.86 1.92 11.37-1.221 13.19-3.17 3.28-4.643 3.86-8.329 6.12-4.935 3.02-8.254 3.21-13.521 4.02-11.251 1.75-19.835-1.05-28.624-8.25-3.53-2.8-5.152-5.08-8.142-8.55 1.111-2.09 9.359-14.2 9.108-13.49-.401-1.67-5.27-.44-6.266-.19-4.874 1.21-5.435 6.51-8.038 8.75-.486.09-.99-.21-1.322-.57-16.452-17.75-14.155-43.09 1.973-60.21 1.574-1.67 14.623-13.99 16.375-9.96-1.206 8.07-4.149 12.62.622 22.1 5.237 10.41 10.548 11.72 20.382 15.41-8.939-11.33-15.773-18.92-10.093-33.54 4.804-4.75 5.366-5.15 10.961-8.77 1.07.56 1.251.83 2.129.01"/><path fill="#df0d25" d="m544.021 1396.86 2.041-.77c-.034 7.18 1.195 12.22 1.207 18.49 3.703 28.56 9.405 83.26 42.074 92.63l-1.791.75c-2.675 1.17-5.557.88-7.004 1.91l.295 1.08c-10.385 3.31-14.691 8.29-19.568 17.89-2.653 1.01-2.503.03-2.823-2.65a59.2 59.2 0 0 0 .926-20.55c-1.621-12.72-7.3-25.86-17.609-33.86 1.262-16.98 1.326-37.18 2.308-54.88-.516-5.21-.17-14.6-.056-20.04"/><path fill="#df0d25" d="m544.021 1396.86 2.041-.77c-.034 7.18 1.195 12.22 1.207 18.49-.153 2.71.812 15.85-1.933 16.22-.454-.74-.094-9.4-1.259-13.9-.516-5.21-.17-14.6-.056-20.04"/><path fill="#df0d25" d="M762.484 1760.64c5.304 2.3 13.365 5.62 18.013 8.83 9.516 6.59 18.679 17.17 21.623 28.55.196.74.318.86.743 1.59.822 14.61-.756 17.5-6.356 30.7 1.059-25.83.079-31.79-17.72-51.85l-4.417.22c-5.215-3.62-7.788-4.92-13.826-6.84 2.815-2.46 4.823-2.95 7.426-5.13-2.646-2.43-3.952-2.84-5.486-6.07"/><path fill="#1b1f22" d="M767.97 1766.71c3.402 2.69 8.537 8.05 10.817 11.75l-4.417.22c-5.215-3.62-7.788-4.92-13.826-6.84 2.815-2.46 4.823-2.95 7.426-5.13"/><path fill="#8a1a28" d="M731.479 1781.27c-7.854.67-4.025 5.19-5.956 7.29-5.32.21.002-19.79 9.057-20.44 2.824-.2 3.636-3.63 10.139-1.47l1.23 1.06c.797.69 1.823 1 2.65 1.63l.012.15c-.197.22-3.315 2.37-4.042 3.02-.878.82-1.059.55-2.129-.01-5.595 3.62-6.157 4.02-10.961 8.77"/><path fill="#1b1f22" d="m744.719 1766.65 1.23 1.06c.797.69 1.823 1 2.65 1.63l.012.15c-.197.22-3.315 2.37-4.042 3.02-.878.82-1.059.55-2.129-.01-5.941-.14-5.674 1.75-10.879 2.53 4.973-6.58 7.141-5.42 13.158-8.38"/><path fill="#320304" d="M731.561 1775.03c.543 2.71.623 4.01-2.457 2.95.869-1.63 1.064-1.86 2.457-2.95"/><path fill="#bb1b2e" d="m589.343 1507.21 3.488 1.31c1.846 0 5.021.83 6.408 1.94-.087.26-.174.53-.26.8-6.188.19-11.811-.54-18.136-.31l-.295-1.08c1.447-1.03 4.329-.74 7.004-1.91z"/><path fill="#d9172f" d="m589.343 1507.21 3.488 1.31c-4.094 2.17-6.94 1.14-12.283 1.35 1.447-1.03 4.329-.74 7.004-1.91z"/><path fill="#8a1a28" d="M555.942 1539.03c.132-2.01 1.743-10.92 2.51-12.84.32 2.68.17 3.66 2.823 2.65-1.389 2.97-3.118 7.82-3.453 11.11z"/><path fill="#54232c" d="m555.942 1539.03 1.88.92c-.683 1.64-1.752 6.1-3.236 6.6l-.02-.15.12-.26-.893-1.19c.126-2.48.91-3.85 2.149-5.92"/><path fill="#1b1f22" d="M554.02 1656.79c.574 3.46.778 6.16 1.687 9.58-.807 8.96-1.789-7.66-1.687-9.58"/><path fill="#1b1f22" d="m555.497 1584.87 2.321 2.79c-.327.92-.801 3.55-2.18 3.72-1.327-1.24-.399-5.05-.141-6.51"/><path d="M641.955 1642.51c-1.961-1.78-3.052-2.52-5.244-4.12a112 112 0 0 0-9.348-6.08c-4.314-2.51-15.768-5.88-20.895-5.8.02-.29-.035-.09.377-.64 4.886-2.06 21.977 2.54 27.142 4.32 16.499 5.67 28.752 17.3 18.557 36.21 2.512.86 2.397.73 4.338 2.51l-.362.31c9.802 11.85 9.328 24.66.608 36.76-10.896-15.98-21.03-2.55-37.313-6.27-13.16-3-17.328-7.94-24.943-18.28 12.25 51.92 43.579 15.5 56.491 25.11 4.791 10.18-5.773 24.04-13.875 28.4-22.923 11.57-53.983 2.99-66.973-19.61-11.184-19.45-1.099-19.86 1.801-31.6l-1.507-.49c-4.189 1.74-4.665 2.35-8.272 5.37l-1.06.89c-.918-2.9-1.158-6.03-.22-8.95 12.608-39.19 45.901-46.9 80.698-38.04"/><path fill="#df0d25" d="M641.955 1642.51c-1.961-1.78-3.052-2.52-5.244-4.12a112 112 0 0 0-9.348-6.08c-4.314-2.51-15.768-5.88-20.895-5.8.02-.29-.035-.09.377-.64 4.886-2.06 21.977 2.54 27.142 4.32 16.499 5.67 28.752 17.3 18.557 36.21-1.023.31-5.392 1.97-6.406.9.932-2.51 5.892-2.21 5.89-6.74-.002-7.93-4.991-12.78-10.073-18.05"/><path d="M633.496 1795.58c9.647 19.36-15.371 38.69-33.492 34.04-9.535-2.44-15.571-3.34-22.186-11.01-7.149-8.28 7.868-15.99 7.795-16.23-7.229-5.95-16.19 6.8-18.961-.65-2.241-6.03-2.076-13.72.133-19.74a41.07 41.07 0 0 1 21.212-22.8c15.255-7.1 20.835-.9 33.348 4.18 11.869 4.81 20.7 33.43 13.873 28.55a82 82 0 0 0-1.722 3.66"/><path fill="#1b1f22" d="M633.496 1795.58c-2.708-2.41-7.521-5.13-8.425-6.03l-.077.02c3.167-1.24 7.524.68 10.224 2.35a82 82 0 0 0-1.722 3.66"/><path fill="#282c31" d="M604.214 1767.02c1.787-.08 5.525-.44 7.215.39l.01.04c-3.206 4.12-9.122 4.55-11.199 13.57-2.082 9.03-1.756 11.67 2.408 19.76-.044.18-.089.35-.134.52-1.183.72-5.87-5.18-6.358-5.95-7.396-11.61-1.643-22.15 8.058-28.33"/><path d="M648.897 1751.41c12.136-.4 23.485 2.03 30.497 12.78 9.347 14.33-1.15 28.76-2.343 42.82-1.24 14.6-3.821 24.01-9.78 37.59-2.523-4.97-3.615-7.17-6.841-11.58-7.678-7.83-12.059-8.73-22.178-11.06 17.607-26.68 10.836-50.73-14.436-67.98l-.809-.56c9.337-.48 16.656-1.2 25.89-2.01"/><path d="M633.712 1830.91c11.68-2.43 23.147 4.98 25.717 16.64 2.57 11.65-4.713 23.2-16.335 25.9a21.79 21.79 0 0 1-20.953-6.45 21.78 21.78 0 0 1-4.723-21.41 21.8 21.8 0 0 1 16.294-14.68"/><path fill="#282c31" d="M638.649 1846.93c2.006.34 4.974.39 6.567 1.9a4.47 4.47 0 0 1 1.385 3.17c.044 2.87-4.529 6.54-6.427 8.25-11.349-.94-10.103-8.32-1.525-13.32"/><path d="M554.843 1733.18c12.877 1.85 20.089 7.57 32.528 12.94-9.368 3.2-8.994 3.32-17.767 8.03-1.772-11.61-7.864-19.92-16.154-6.7.323.67.635 1.35.936 2.03 2.578 5.98 5.53 3.11 4.437 1.71-4.735-6.07 3.228-8.79 5.231-4.71 5.162 8.12-3.179 17.33-11.47 13.23-15.196-7.52-10.433-20.71 2.259-26.53"/><path fill="#df0d25" d="M667.492 1675.64c13.366 8.76 3.501 51.02-19.335 54.63 4.842-5.05 10.16-9.02 11.383-16.41.481-2.91-4.914-4.45-3.194-6.48 1.037-.15 3.176 3.66 6.567-.89 6.472-8.67 5.814-20.71 4.579-30.85"/><path fill="#282c31" d="M1191.94 204.966c-31.59-9.67-26.3-40.827 9.98-42.394 59.2-2.555 127.89-15.373 166.39 41.685 3.25-4.626 9.49-12.493 11-17.734 2.27-7.891-1.35-19.723-11.16-19.466-6.85 3.538-6.33 6.749-5.19 13.618l1.48 1.885c4.04-.646 5.91-3.098 9.13-6.149l.92-.221c.45 3.129-.41 4.781-1.4 7.781-1.6 1.178-4.18 2.655-6.12 1.889-23.65-9.362 4.41-41.284 21.69-9.091 7.99-6.199 15.42-9.55 25.95-8.139a30.8 30.8 0 0 1 21.2 12.803c6.59 9.334 6.78 17.74 6.15 28.428 17.72 1.919 34.06 5.893 45.78 20.984a45.87 45.87 0 0 1 8.93 34.592c-.59 4.198-2.12 9.894-3.24 13.982 12.48 4.185 25.93 9.225 20.56 26.436a19.84 19.84 0 0 1-10.05 11.687c-18.72 9.116-28.07-14.198-17.45-18.936 2.67.197 4.06.253 6.72.747l-1.02.946c-4.52 1.112-2.77-.029-5.68 3.138-2.47 17.077 24.57 13.868 21.89-4.589-1.17-8.002-9.57-13.356-17.28-10.193-10.22 4.648-15.03 9.869-26.01 13.859 16.04 11.046 25.08 18.012 32.49 36.638 27.41 68.906 8.47 136.559 1.51 206.341-.88 8.884 9.32 23.332 10.44 32.969-.8 18.713-1.37 37.435-1.69 56.162.06 3.271.17 27.506-1.08 28.899-2.16.073-2.66-20.354-2.73-23.095-.11-2.051-.16-4.106-.16-6.161-1.2-4.325-1.83-12.093-2.76-17.005-3.15-16.662-6.61-35.607-13.35-51.09-6.3-14.477-16.99-20.305-30.81-25.552-1.71-.472-8.59-.851-9.26-1.977l.1-.144c1.65-.745 5.35-.713 7.23-.8 3.87-2.227 7.98-2.823 11.33-5.495 18.27-14.58 22.78-37.984 26.3-59.37-.19-2.697-.24-2.476-1.88-4.858-1.22 2.275-2.74 5.071-4.28 7.105-9.99 13.19-24.2 2.03-25.44-11.149 2.82-2.903 14.08 1.594 17.65-3.535 15.14-21.708 17.25-52.295 17.38-76.735l-2.31-5.958c-2.92 15.772-9.77 26.334-22.88 36.236-5.53 4.172-18.99 9.957-25.88 8.933l-3.54.391c-62.48 8.825-92.41-69.045-53.79-113.68a94 94 0 0 1-3.63-.535c-22.31-3.759-30.74-16.267-25.73-37.899-20.1 19.833-45.54 31.422-72.87 17.297-19.75-6.081-28.41-18.162-37.5-35.215-14.29-29.217 4.24-61.926 30.04-77.487-5.51-.875-9.59-.374-15.23-.843-16.09.259-70.28.638-76.34 17.212 1.17 5.132 3.09 8.203 5.5 12.852"/><path d="M1456.71 365.248c-6.01-20.005-14.73-34.642-38.62-26.151-3.2 1.137-18.13 8.475-19.49 1.193-1.38-35.573 44.88-41.905 67.31-23.219 11.24 9.365 24.97 27.502 16.44 41.154a241 241 0 0 1-3.76 5.973c4.4 2.891 9.12-2.239 12.83-5.124-7.15 32.373-30.34 55.619-66.71 50.736-8.01-1.076-16.34-6.753-22.35-12.099-5.56-12.083 2.87-12.733 3.52-15.736-5.29-1.271-7.31-.086-12.59 1.461-10.32-5.547-7.36-26.615-4.1-35.759 1.78-2.428 1.95-2.788 4.12-4.804l1.69-.756c4.61 4.366 6.16 6.026 11.38 9.124 21.83-9.941 35.51-2.539 50.33 14.007"/><path fill="#3f252d" d="M1395 342.117c4.61 4.366 6.16 6.026 11.38 9.124-7.01 1.221-9.21-3.784-13.07-8.368z"/><path fill="#df0d25" d="m1490.5 516.744 1.91 4.388c-4.23 22.514.62 40.991 17.14 57.33-.8 18.713-1.37 37.435-1.69 56.162.06 3.271.17 27.506-1.08 28.899-2.16.073-2.66-20.354-2.73-23.095-.11-2.051-.16-4.106-.16-6.161-1.2-4.325-1.83-12.093-2.76-17.005-3.15-16.662-6.61-35.607-13.35-51.09-6.3-14.477-16.99-20.305-30.81-25.552 4.04-2.523 6.76-1.081 11.7-2.102 1.15-.322 2.3-.684 3.42-1.085 10.45-3.795 14.08-11.425 18.41-20.689"/><path fill="#8a1a28" d="m1506.8 634.876 1.06-.252c.06 3.271.17 27.506-1.08 28.899-2.16.073-2.66-20.354-2.73-23.095.2.738 1.2 6.552 2.18 6.397 1-1.073.61-10.285.57-11.949"/><path fill="#d9172f" d="m1503.89 634.267.07-2.026c.05-2.586 1.2-7.757 2.56-9.788.95.52.1 10.353.28 12.423.04 1.664.43 10.876-.57 11.949-.98.155-1.98-5.659-2.18-6.397-.11-2.051-.16-4.106-.16-6.161"/><path fill="#df0d25" d="M1252.11 223.047c1.85 11.531-.43 19.349 6.14 30.922 4.37 7.701 8.9 11.761 13.52 18.645l.66 1.008c4.67 6.972 7.83 8.939 13.04 14.825-19.75-6.081-28.41-18.162-37.5-35.215-.61-13.846.36-17.029 4.14-30.185"/><path fill="#df0d25" d="M1405.88 381.975c-.65 3.003-9.08 3.653-3.52 15.736 5.66 12.464 19.06 20.235 32.14 22.444 4.24.715 6.77.633 10.53 2.718l-3.54.391c-14.07-1.883-34.78-4.074-43.25-18.283-4.05-6.799-2.75-21.808 7.64-23.006"/><path fill="#df0d25" d="M1389.19 347.677c-.37-1.021-.69-1.394-.36-2.371-.12.028 1.18-2.696.62-2.853-4.22-1.181-6.44 11.977-6.67 13.554-.77 5.202-1.08 8.594-.13 13.4.17.892 1.17 2.496.29 3.239-1.26-.498-2.67-4.84-2.95-6.103-5.07-22.798 3.33-36.387 22.03-48.311-8.3 10.196-11.5 11.241-7.02 23.885l-1.69.756c-2.17 2.016-2.34 2.376-4.12 4.804"/><path fill="#8a1a28" d="M1490.5 516.744c-.02-1.562 3.91-14.692 4.44-15.165l.4.048c1.48 2.341-2.09 16.567-2.93 19.505z"/><path fill="#bb1b2e" d="M1455.04 537.699c4.67.349 8.95.334 13.63.819-4.94 1.021-7.66-.421-11.7 2.102-1.71-.472-8.59-.851-9.26-1.977l.1-.144c1.65-.745 5.35-.713 7.23-.8"/><path fill="#1b1f22" d="M1495.46 454.902c-.56 4.501-1.41 14.171-2.79 17.932-.19-2.697-.24-2.476-1.88-4.858 1.39-4.431 2.98-8.746 4.67-13.074"/><path fill="#1b1f22" d="M1262.78 174.902c2.85-.399 15.42-1.674 17.5-.275.01.109.01.217.02.326l-.27.097.12.281-.73-.105-.43.528-.98-.009c-5.51-.875-9.59-.374-15.23-.843"/><path fill="#1b1f22" d="M1493.79 377.704c.16-1.228.18-2.601 1.02-3.559 1.78-.092 1.28 8.332 1.29 9.517z"/><path d="M1275.55 192.558c-.73 3.99-4.91 17.579 3.82 15.927 1.18-.225 4.39-.282 5.16-1.197l-.03-.368c-.71-.996-3.26-1.644-3.77-2.766-3.44-7.526 2.84-14.961 9.24-18.296 3.53-1.727 6.46-3.659 10.42-4.169 3.23-.417 6.97-2.057 10.37-2.109 8.8-.135 18.45 5.622 25.08 10.978.6.485 7.81 5.784 5.07 6.33-1.51.262-3.01 2.825-2.82 4.093.69 4.876-2.58 7.754-2.97 11.943.48 1.77 4.25-.462 4.94-.947 4.34-3.052 1.87-7.964 4-11.132.89-1.311 5.21 3.968 5.8 4.748 7.45 9.975 10.66 21.588 8.15 33.907-2.38 12.352-9.01 22.006-19.08 29.353-3.65 2.715-6.33 4.432-10.25 6.7 6.09-22.325 2.04-31.469-19.27-40.872 7.67 10.423 13.85 18.216 9.92 31.464 2.93.326 7.49-1.364 6.67 2.819-1.63 8.326-6.13 11.457-13.91 14.448-2.66 1.024-13.22 1.593-14.5-.248.46-1.892 9.39-1.476 11.36-1.629-.89-4.129-3.9-2.7-8.12-2.514-6.37.053-9.27-.316-15.44-2.763-1.13-.449-16.3-8.398-9.01-9.219 6.52 1.003 16.71-8.733 13.05-15.447-4.31-7.905-4.53 5.287-6.46 7.778a9.3 9.3 0 0 1-6.48 3.543c-12.98 1.139-19.55-19.609-19.36-29.413.38-19.112 6.08-28.086 18.42-40.942"/><path fill="#8a1a28" d="M1319.33 266.145c2.93.326 7.49-1.364 6.67 2.819-1.63 8.326-6.13 11.457-13.91 14.448-2.66 1.024-13.22 1.593-14.5-.248.46-1.892 9.39-1.476 11.36-1.629 2.11-.559 9.31-3.591 8.24-6.636 1.26-3.277 2.94-4.321 1.63-7.426.13-.757.04-.79.51-1.328"/><path fill="#3f252d" d="M1317.19 274.899c1.07 3.045-6.13 6.077-8.24 6.636-.89-4.129-3.9-2.7-8.12-2.514 2.69-.675 7.84-2.322 10.27-2.629 2.1-.472 4-.925 6.09-1.493"/><path fill="#bb1b2e" d="M1318.82 267.473c1.31 3.105-.37 4.149-1.63 7.426-2.09.568-3.99 1.021-6.09 1.493 3.93-3.686 4.82-4.44 7.72-8.919"/><path d="M1422.4 257.576c-3.81-2.176-7.45-4.813-8.02-9.159-2.06-15.628 11.01-26.852 25.1-29.614 13.67-2.677 44.13 8.388 29.73 24.807-7.19 7.263 7.91 3.698 8.26 3.359 9.3-8.979 9.25 13.048 6.2 20.956-7.64 19.809-30.67 29.019-50.59 20.554a34.47 34.47 0 0 1-18.6-19.181c-.96-2.498-3.7-11.323-1.97-13.772-.69.09 8.55 3.824 9 3.991z"/><path fill="#1b1f22" d="M1422.4 257.576c1.04.119 4.92.12 5.08 1.688-.77 1.548-4.84.476-5.97.253z"/><path fill="#282c31" d="M1448.52 247.416c15.39 7.709 10.95 26.464-2.37 35.266-1.38-.06-4.81.159-5.97-.675-.74-2.532 18.95-10.858 8.34-34.591"/><path d="M1384.22 203.667c9.19 16.293 7.7 16.104 26.38 23.667-10.68 14.78-10.73 34.653-2.93 50.853 3.4 7.063 8.21 10.847 14.33 15.451l-2 .333-10.08 1.3c-9.47.984-13.85 3.123-23.82.311-28.04-8.644-19.17-30.447-13.75-50.991 4.45-16.874 3.33-24.283 11.87-40.924"/><path d="M1406.96 177.975c11-3.149 22.48 3.207 25.65 14.205s-3.16 22.488-14.15 25.68c-11.03 3.202-22.56-3.152-25.74-14.182s3.2-22.546 14.24-25.703"/><path fill="#282c31" d="M1409.74 189.781c11.25.688 12.83 4.84 4.54 12.7-10.5-.906-13.33-5.561-4.54-12.7"/><path fill="#282c31" d="M473.15 1121.45c4.773 2.63 19.04 15.37 24.01 19.65 12.451 10.7 25.802 21.39 37.929 32.35.221 22.77 2.228 230.6-.614 234.58l-3.704-.1-66.274-10.28z"/><path fill="#282c31" d="m1586.59 703.891 2.83.047c.42 4.778-22.32 61.415-25.83 69.768 7.16 50.125 12.87 101.307 19.54 151.662-15.28 1.84-31.83 4.631-47.15 6.91-6.79.916-12.94 1.984-19.68 3.232 2.1-68.001.62-142.64.6-211.112 22.61-7.347 46.74-13.232 69.69-20.507"/><path fill="#282c31" d="M1168.99 84.553c24.51 4.243 52.9 7.395 77.83 10.626l122.87 16.194c-3.59 12.176-5.4 32.297-11.06 43.875-.58 1.176-2.51.881-4.42 1.046-67.83-1.123-135.29-.109-203.11-.827 5.6-23.834 11.9-47.197 17.89-70.914"/><path fill="#282c31" d="M1558.02 937.5c3.74-.437 9.91-.503 13.85-.674-.22 62.72.88 126.864-.31 189.464l-45.85 35.52-9.71 7.2.23-229.011q20.88-1.479 41.79-2.499"/><path fill="#282c31" d="M534.148 446.613c1.633-2.132 1.374-4.794 1.761-7.962.129 4.238.127 10.544.63 14.592-3.855 7.634-.004 122.084-1.636 143.198l.084 11.29c-20.09 1.746-40.333 5.192-60.751 6.727-4.728-41.406-8.565-87.675-14.326-128.484 8.024-10.025 17.749-23.208 24.948-33.767 16.412-2.03 32.726-3.431 49.29-5.594"/><path fill="#1b1f22" d="M534.148 446.613c1.633-2.132 1.374-4.794 1.761-7.962.129 4.238.127 10.544.63 14.592-3.855 7.634-.004 122.084-1.636 143.198-1.678-16.57-.941-42.816-.882-60.168z"/><path fill="#282c31" d="M533.566 761.907c1.957 3.442.707 161.61.783 180.165-13.788 10.691-37.071 27.322-51.934 36.165l-1.915-14.065c-6.323-42.884-11.97-92.157-16.825-135.324a5236 5236 0 0 1 69.891-66.941"/><path fill="#282c31" d="m1581.71 1580.17.6.47c1.52 3.78-6.36 105.61-7.25 120.31-1.66 27.55.5 51.87 2.83 80.27-12.2-2.35-30.9-3.93-43.39-5.25l-11.45-1.09v-176.25c19.63-5.9 39.18-12.05 58.66-18.46"/><path fill="#282c31" d="M528.325 1802.02c.488 0 1.749.41 2.288.56 8.898 46.05 39.799 63.67 81.224 78.57a2082 2082 0 0 0-25.762 60.8 1069 1069 0 0 0-27.326-10.48q-1.145-.48-2.273-.99c-10.884-4.86-29.685-13.8-38.682-21.16-25.223-20.65-43.647-55.86-55.071-85.59 19.394-7.78 45.372-15.37 65.602-21.71"/><path fill="#282c31" d="M1516.08 1209.97c21.54 3.22 43.94 5.94 65.59 8.81 4.77 26.14 9.4 52.31 13.89 78.5a1939 1939 0 0 0-20.01 50.16l-7.33 17.98c-17.31-7.6-34.78-15.74-52.32-22.73-.48-43.71-.14-88.96.18-132.72"/><path fill="#282c31" d="M495.167 1407.29c12.799 1.81 27.053 4.56 40.078 6.59l.022 172.38c-11.876-.21-24.132-1.16-36.016-1.91-7.5-.36-15.208-1.05-22.715-1.62 2.945-8.25 8.399-21.43 12.257-29.07-7.328-25.45-13.366-57.82-20.197-84.39 7.564-20.23 19.152-41.19 26.571-61.98"/><path fill="#282c31" d="M1517.08 558.983c21.48 2.667 50.96 10.102 74.2 13.833-3.98 27.808-10.19 54.886-6.44 82.675 1.47 10.912 2.07 22.899 2.7 33.93l-9.15 3.852c-15.49 5.909-31.15 11.7-46.29 18.437-4.81-2.964-9.73-6.881-14.28-10.303-.72-47.471-.97-94.948-.74-142.424"/><path fill="#282c31" d="M460.289 284.417q33.791 2.49 67.634 4.17c-.012 13.919.513 145.359-1.007 147.862l-2.947.479a2887 2887 0 0 1-48.752 5.269c-4.258-31.515-6.353-65.2-9.852-96.937-.962-8.72-6.032-54.988-5.076-60.843"/><path fill="#282c31" d="m1426.49 1894.16 2 .38c4.54 6.12 19.04 54.13 22.43 64.62-47.27.27-98.99 2.57-146.67 3.77l-27.7.51c6.11-16.62 11.73-34.5 17.33-51.37 42.76-.31 91.14-7.87 132.61-17.91"/><path fill="#282c31" d="M1521.05 1365.81c22.29 3.15 44.62 5.98 66.99 8.51-6.91 44.05-12.73 91.56-18.43 135.92-.49 4.03-1.21 8.27-1.83 12.3-14.68 2.43-31.79 3.86-46.04 6.92z"/><path fill="#282c31" d="m1592.04 277.367 1.14.6c.49 3.824-5.2 33.668-6.17 39.6q-10.05 63.144-20.88 126.16l-26.59-11.753-15.99-7.108.02-138.744c21.98-2.082 46.63-5.627 68.47-8.755"/><path fill="#282c31" d="M759.585 84.588c3.46-.23 5.922-.273 9.392-.226 1.786 3.614-13.243 47.923-15.042 53.701-35.211.641-90.378 7.363-123.786 17.86-1.138-3.39-2.456-6.829-3.695-10.192-5.512-16.81-15.543-39.264-22.012-56.933 18.055.291 39.012-.973 57.281-1.498z"/><path fill="#282c31" d="M477.717 1595.22c16.304 2.31 39.753 3.97 56.262 5.27l-.085 113.64-22.391.65c-15.258-.07-30.88.23-46.168.36q-5.64-31.5-12.098-62.85a2907 2907 0 0 0 24.48-57.07"/><path fill="#282c31" d="M1507.16 127.307c22.78 17.309 34.97 28.503 49.78 53.083 16.31 27.064 24.61 48.684 32.92 78.618a2448 2448 0 0 0-38.1 9.16c-9.13 2.291-18.28 4.49-27.44 6.596-1.59-41.663-15.19-66.968-50.5-89.133 12.36-19.753 24.11-36.826 33.34-58.324"/><path fill="#282c31" d="M615.591 1880.51c39.122 14.55 90.802 14.52 132.267 13.15-6.646 18.32-16.221 42.02-24.11 59.67l-4.099 10.32a4456 4456 0 0 1-119.627-22.78 4211 4211 0 0 1 15.569-60.36"/><path fill="#282c31" d="m1007.86 112.246 119.23-26.305c5.29 10.725 18.13 40.185 23.41 48.006-.95 7.246-2.08 14.846-2.64 22.1-17.2-.008-38.25.572-55.13-.185-2.29-.691-12.25-.632-15.13-.643-6.12.364-16.48-.664-23.3-.849-19.25-.524-37.89-1.098-57.178-.019a3344 3344 0 0 1 10.738-42.105"/><path fill="#282c31" d="M758.444 1892.96c46.672 1.89 101.152 1.75 148.013.88.79 12.18 1.869 24.56 2.828 36.75-7.667.89-18.362 3.22-26.166 4.67-23.542 4.78-49.205 9.97-72.701 14.24-11.384 2.07-47.857-12.86-61.39-17.19z"/><path fill="#282c31" d="M499.136 153.497c5.565 2.438 39.867 35.304 46.854 41.765-15.575 28.407-17.611 52.52-17.925 84.311l-14.353-4.043c-16.709-4.075-34.518-9.377-51.177-14.01 1.72-41.792 11.386-74.226 36.601-108.023"/><path fill="#282c31" d="m980.97 89.403 4.09-.18c2.902 3.675 8.32 57.94 9.212 66.054-33.762.512-68.016-.213-102.022.144q-7.897.065-15.793.224c4.926-16.238 9.403-39.144 13.833-56.332 29.045-2.034 61.128-7 90.68-9.91"/><path fill="#282c31" d="M1521.91 432.217c18.23 7.853 44.29 21.837 62.83 30.953-3.08 28.353-3.84 59.35-6.29 88.074-.15 2.734.08 7.053-2.1 8.662-7.86-.019-44.74-4.661-52.42-6.558z"/><path fill="#282c31" d="M1390.88 93.734c33.19 9.16 69.34 18.728 102.12 28.781a2022 2022 0 0 1-26.14 54.803l-.9 1.327c-3.55-.101-11.1-4.056-14.8-5.487-26.92-10.421-55.55-14.995-84.29-16.488 8.12-19.942 16.74-42.701 24.01-62.936"/><path fill="#282c31" d="M1511.25 1849.39c8.08 5.62 39.59 36.74 48.21 45.01-24.84 25.96-44.87 37.98-77.32 51.73l-23.79 8.56c-6.41-17.72-13.08-39.52-18.81-57.61 37.11-9.71 52.93-12.12 71.71-47.69"/><path fill="#282c31" d="M1048.63 1895.07c39.82.46 89.84 2.13 129.03.09-1.86 7.57-7.5 40.87-10.89 45.15-37.09 4.47-74.47 8.24-111.46 12.98-2.68-18.55-4.57-39.44-6.68-58.22"/><path fill="#282c31" d="M534.923 612.329c1.468 2.696.723 98.401.71 109.562a2444 2444 0 0 1-58.913-9.206l-13.591-2.05c3.722-22.232 13.911-59.998 19.202-83.326z"/><path fill="#282c31" d="M520.151 1718.41c3.467-.56 8.091-.57 11.757-.84-.26 26.02.267 52.25-.159 78.11-7.514 2.14-15.148 3.75-22.734 5.6a292 292 0 0 1-6.524 1.55c-10.118 2.17-23.089 5.75-32.743 7.43l-12.504 2.99c2.241-17.15 4.374-35.2 7.057-52.24a364 364 0 0 0 2.674-19.51l2.069-18.53c16.724-2.19 34.264-2.98 51.107-4.56"/><path fill="#282c31" d="m593.288 95.005.588.154c2.765 2.332 15.411 54.808 17.529 62.815-29.978 7.748-41.055 9.354-61.904 32.084l-11.797-11.705a2207 2207 0 0 1-32.937-36.069c33.843-24.75 48.656-32.933 88.521-47.279"/><path fill="#282c31" d="M532.65 951.905c1.857 2.09 1.309 113.395 1.349 122.485-14.082-7.56-29.622-17.26-43.495-25.55a973 973 0 0 1-29.618-17.56 2379 2379 0 0 0 19.516-43.22z"/><path fill="#282c31" d="M460.475 1049.27c23.963 10.35 49.676 23.08 73.45 34.31-.122 9.52.999 70.26-1.004 74.23l-2.282-.34c-19.94-17.37-53.629-39.08-76.061-56.91 1.525-16.53 4.032-34.64 5.897-51.29"/><path fill="#282c31" d="M1524.67 1785.42c20.34 2.83 39.86 7.19 60.08 10.3-6.47 29.08-13.18 58.11-20.14 87.08-1.19 4.03-.77 5.16-3.38 7.49-8.55-4.93-40.01-35.75-48.43-43.99 5.56-14.2 8.35-27.38 9.89-42.52.58-5.72.81-12.95 1.98-18.36"/><path fill="#282c31" d="M464.675 718.392a2766 2766 0 0 1 70.455 5.469l-.289 31.807c-8.771 8.736-22.114 19.049-31.926 27.595-12.836 9.713-24.77 20.984-37.91 30.714-.26-13.515-2.796-87.147-.33-95.585"/><path fill="#282c31" d="M1178.72 1901.83c41.09 4.98 67.72 4.45 109.4 4.22-3.74 10.88-7.15 22.24-10.59 33.24-30.02 3.9-69.7 7.52-99.73 9.82z"/><path fill="#282c31" d="m872.841 105.419 1.453.061c1.823 3.811.988 38.566.954 44.57-14.072-1.01-28.197-3.075-42.413-3.719-20.652-.935-41.41-.632-62.085-.52-1.906.019-2.652-.152-4.546-.405-1.952-5.521 4.454-20.606 6.565-26.828 33.31-4.085 66.978-9.389 100.072-13.159"/><path fill="#282c31" d="M1571.19 1134.62c3.3 1.08 7.82 28.71 8.64 33.38.72 4.18 1.5 8.34 2.36 12.49 2.04 9.4 4.1 19.51 5.51 29-5.49-.69-10.75-1.44-16.21-2.36l-5-.86c-8.6-1.42-17.86-2.71-26.35-4.48-5.35-.49-16.9-2.7-23.06-3.62.03-3.95.1-7.89.19-11.83 16.34-17.21 36.29-35.52 53.92-51.72"/><path fill="#282c31" d="M1521.84 1530.82c17 .19 31.9.48 48.92.18 4.9 10.59 12.62 27.27 18.46 36.94l-1.84.53c-4.55 1.24-9.13 2.84-13.65 3.97-16.16 5.09-32.41 9.9-48.74 14.4l-3.95 1.06c.34-19.11.88-37.95.8-57.08"/><path fill="#df0d25" d="M1077.6 155.219c2.88.011 12.84-.048 15.13.643 12.68 15.046 40.38 10.872 57.97 9.545 4.45-.336 8.21-1.298 12.68-.439l-.09 1.092c-2.76 1.109-3.36 1.664-6.3 1.343-3.4 1.908-15.89 6.764-19.87 7.949-5.44 2.727-20.18 12.453-22.12 13.077l-.75-1.077c.82-2.622 1.38-3.099.89-5.548-14.16.944-18.36-.656-31.48-5.404 1.27 2.349 3.97 6.99 4.66 9.431 1.91 6.757-1.7 23.819-12.13 16.305 5.57-6.814 8.34-10.583-.12-18.734-10-9.63-27.54-11.24-41.01-10.6l3.49-2-.44-.859c-2.49-1.333-9.87-1.006-13.23-1.08l-15.78 4.447c-4.52-.519-6.12-1.61-10.413-2.243 3.823-.625 2.373.204 4.983-1.833 15.71-5.1 39.95-7.428 56.78-10.469 3.83-.691 18.15 3.491 21.2-2.667z"/><path fill="#1b1f22" d="M1077.6 155.219c2.88.011 12.84-.048 15.13.643 12.68 15.046 40.38 10.872 57.97 9.545 4.45-.336 8.21-1.298 12.68-.439l-.09 1.092c-2.76 1.109-3.36 1.664-6.3 1.343-3.4 1.908-15.89 6.764-19.87 7.949-3.94-6.845-18.36 1.29-20.12-4.003-11.94-2.108-16.89-3.279-26.09-10.584-26.41 1.436-40.07 2.448-66.03 8.098l-15.78 4.447c-4.52-.519-6.12-1.61-10.413-2.243 3.823-.625 2.373.204 4.983-1.833 15.71-5.1 39.95-7.428 56.78-10.469 3.83-.691 18.15 3.491 21.2-2.667z"/><path fill="#d9172f" d="M1117 171.349c8.78.933 39.3-4.133 39.99-3.946-3.4 1.908-15.89 6.764-19.87 7.949-3.94-6.845-18.36 1.29-20.12-4.003"/><path fill="#df0d25" d="M1506.51 1261.82c.01 1.93.19 1.88.52 3.67 1.57 8.54.81 18.27 1.3 26.96 2.24 10.84 3.61 76.85 1.77 87.71-.6-4.91-1.41-8.83-1.63-13.69-.13 1.26-.34 2.33-1.54 2.96l-.25-.13c-.61-1.23-.7-4.22-.93-5.77l-.15-.95c-1.64 11.99-3.81 29.21-7.36 40.47-.06-2.75-.22-3.25-.82-5.97l-.35.11c-.59-5.15-.78-14.31-1.72-18.47l-1.75.01c-3.52-6.84-2.38-19.77-14.18-21.56-5.43.96-5.57 4.11-10.05 4.88l-.9-1.94c3.11-17.97 16.69-11.1 26.12-3.61-1.61-6.37-1.84-8.66-6.09-13.7 10.44-19.12 13.04-32.98 16.23-54.32-.28-6.39 1.4-19.39 1.78-26.66"/><path fill="#1b1f22" d="M1508.33 1292.45c2.24 10.84 3.61 76.85 1.77 87.71-.6-4.91-1.41-8.83-1.63-13.69-.13 1.26-.34 2.33-1.54 2.96l-.25-.13c-.61-1.23-.7-4.22-.93-5.77l-.15-.95c.79-8.69 1.71-19.28 2.2-27.91 1.08-8.5.66-32.67.53-42.22"/><path fill="#bb1b2e" d="M1506.51 1261.82c.01 1.93.19 1.88.52 3.67 1.57 8.54.81 18.27 1.3 26.96.13 9.55.55 33.72-.53 42.22-.6-.73-1.31-26.48-2.1-30.1-.93-4.22-.72-11.45-.97-16.09-.28-6.39 1.4-19.39 1.78-26.66"/><path fill="#282c31" d="M751.522 1708.33c15.407 21.13-14.244 61.56-35.113 33.29-3.226-4.37-1.645-14.96 3.163-17.43l.397.08c.529 1 .145 2.17.109 3.22-.431 12.91 13.905 12.9 20.443 4.63 2.717-3.44 5.07-8.8 5.327-13.19.112-1.93-6.819-1.03-8.271-1.06 9.209-1.04 12.023.62 13.945-9.54"/><path fill="#282c31" d="M1299.59 343.083c-.32-.458-.64-.915-.95-1.373-6.45-13.445-3.64-33.624 10.8-40.242 13.58-6.224 29.65 5.839 24.36 19.977-.23.604-1.79 4.666-3.06 5.15-1.57-1.139-.33-6.361-1.1-8.292-2.21-5.567-7.17-7.98-13.13-5.286-8.21 3.711-8.36 11.62-10.96 18.852-4.45 2.789-4.65 5.832-5.96 11.214"/><path fill="#df0d25" d="M1072.31 1829.31c-1.35-3.19-2.74-6.29-2.42-9.82.08-.78.48-3.14-.85-3.17-2.11-.06-4.75 1.16-6.53 2.26-.29.24-2.33 2.06-2.95 1.88-3.16-.94.35-7.68 2.21-8.83 4.73-2.93 9.83-3.6 15.22-2.63 3.24.59 6.34 1.17 9.5 1.93 2 .62 3.61 1.47 5.22-.18 1.47-1.5 4.41-4.57 6.78-3.72.55 1.06-2.96 7.85.87 10.35 1.28.83 3.18 3.19 3.55 4.9l.29 1.17c.78 1.2 1.56 2.39 2.36 3.57 1.67 2.97.01 2.85 1.7 7.02-1.28 1.91-4.85 5-6.69 6.74l-.14-2.95.58-3.79c-3.3-12.06-18.04-23.19-25.77-9.35-.95 2.33-1.25 2.49-2.93 4.62"/><path fill="#320304" d="M1103.2 1823.45c.78 1.2 1.56 2.39 2.36 3.57 1.67 2.97.01 2.85 1.7 7.02-1.28 1.91-4.85 5-6.69 6.74l-.14-2.95.58-3.79c3.36-5.65 1.99-4.01 2.19-10.59"/><path fill="#d9172f" d="M1103.2 1823.45c.78 1.2 1.56 2.39 2.36 3.57-.98 5.82-.81 6.82-5.13 10.81l.58-3.79c3.36-5.65 1.99-4.01 2.19-10.59"/><path fill="#df0d25" d="M610.501 554.766c.295 5.049-1.033 5.308-.133 11.518 7.35 10.999 21.615 11.653 17.884-1.998l-.502-3.071c10.244 5.391 6.304 13.041-.209 20.13-2.352 2.559-.833 8.977-.871 12.874.973 9.659-7.056 15.059-5.539 4.944-3.219-4.468-4.721 1.013-11.659-1.741 1.206-1.929 7.295-4.731 7.433-8.446.185-4.976-6.992-9.817-9.998-14.194-1.762-5.724-1.698-7.935-.404-13.99l.346-1.782c1.557-2.361 1.55-2.357 3.652-4.244"/><path fill="#d9172f" d="M610.501 554.766c.295 5.049-1.033 5.308-.133 11.518-5.631-.877-3.423 3.552-3.461 8.498-1.762-5.724-1.698-7.935-.404-13.99l.346-1.782c1.557-2.361 1.55-2.357 3.652-4.244"/><path fill="#df0d25" d="M1002.16 189.725c.48-5.374 4.41-2.897 9.96-2.745 13.87 1.498 15.57 14.749 28.45 15.195.39.013 2.66.356 2.1 1.257-3.15 5.07-10.17 2.578-14.7 1.615-.31.882-2.12 5.938-2.11 6.432.06 4.664-12.09 16.673-15.81 9.855.64-.911 2.15-1.371 3.06-1.898 6.65-3.89 8.84-12.695 4.04-18.992-5.35-7.03-10.79-2.144-15.52-1.44-4.469-2.243 8.28-7.323.53-9.279"/><path fill="#df0d25" d="M1305.55 331.869c2.77.274 12.23-.436 12.08 4.305-1.12 1.877-7.47 1.16-8.26 3.445-2.41 7.299 5.02 17.384 11.57 20.337.93.423 2.84.459 2.84-.57-.02-5.13 1.68-9.791 7.54-11.463.71.338.49.114.8.514-.14 1.237-2.39 3.367-2.95 9.658 1.97 2.788 2.88 4.944 5.64 7.137 2.48 1.969 7.51 1.244 7.85 4.454-17.9-.138-36.03-6.601-42.39-25.219-.23-.461-.46-.923-.68-1.384 1.31-5.382 1.51-8.425 5.96-11.214"/><path fill="#df0d25" d="M704.896 1680.15c15.969-1.03 29.779 3.68 40.805 16.48 3.617 4.2 3.789 6.98 5.821 11.7-1.922 10.16-4.736 8.5-13.945 9.54-1.607-1.37-4.548-2.91-4.805-5.03 1.544-1.76 9.972.69 9.308-6.29-.829-8.74-7.878-13.84-13.93-19.19-1.031 3.52-3.154 15.53-9.257 14.37-.955-1.27 2.516-2.87 2.915-4.29.618-2.2-.886-4.58-1.544-6.72-5.722-8.91-7.605-6.94-15.368-10.57"/><path fill="#df0d25" d="M1420.12 1470.9c1.99-3.77 4.45-12.48 4.16-16.37-.53-7.25 7.58-16.48 6.34-4.53-.36 3.45-1.8 5.29 3.46 2.97 3.19.5 2.62.22 3.01 3.18l-.92 1.43c-7.72 11.95 10.07 6.75 7.79 29.43-.76 1.69-1.13 3.05-1.93 4.8-1.72 2.14-1.87 2.78-4.23 3.84l.2-1.07c1.06-5.36.94-7.37.88-12.8-3.76-4.11-4.05-4.43-8.92-7.14-1.69-3.84-6.69 2.36-9.84-3.74"/><path fill="#d9172f" d="M1438.88 1481.78c2.08 2.8 2.23 3.49 5.08 5.23-.76 1.69-1.13 3.05-1.93 4.8-1.72 2.14-1.87 2.78-4.23 3.84l.2-1.07c1.06-5.36.94-7.37.88-12.8"/><path fill="#282c31" d="M1358.38 347.895c7.32-11.453 4.78-12.206 8.08-23.637l.16.043c1.04 1.337 1.1 5.795 1.11 7.438.11 3.792.55 9.141-.43 12.84-3.01 11.383-12.06 23.794-24.64 25.107-.34-3.21-5.37-2.485-7.85-4.454-2.76-2.193-3.67-4.349-5.64-7.137 17.64.595 15.54-1.274 29.21-10.2"/><path fill="#8a1a28" d="M1358.38 347.895c7.32-11.453 4.78-12.206 8.08-23.637l.16.043c1.04 1.337 1.1 5.795 1.11 7.438l-.72 1.811c-1.57 4.07-1.59 12.024-7.64 14.028z"/><path fill="#df0d25" d="M575.514 623.081c4.436 14.045 12.45 8.286 19.201 9.019 2.356 1.651-2.962 6.11 1.561 5.686 1.977-.186 5.596-2.779 7.155-4.156l1.343-1.167c1.837 1.643 1.83 1.661 3.257 3.588-2.62 4.636-4.111 7.486-9.546 9.104-.223.086-3.744.957-4.02 1.554-.946 2.043-.08 6.48-.569 8.786-.156.735-.286 3.361-1.45 3.061-4.865-18.272-16.991-11.213-20.151-26.301.648-4.964-.937-6.29 3.219-9.174"/><path fill="#df0d25" d="M1457.03 1402.88c.97-3.1.94-3.57 2.52-6.18 5.72 6.8 16.46 11.44 18.32 17.99-.12 7.39 2.94 8.19-2.98 12.34-2.3-4.19-3.78-8.01-8.12-10.68-2.94-1.81-11.2 5.91-9.76-.3.12-.54 1.84-3.47.02-3.97-2.75-.75-7.22 2.01-9.55 3.22-1.48-1.65-2.32-2.38-3.99-3.83 4.61-5.3 13.02-7.43 13.54-8.59"/><path fill="#df0d25" d="M1026.62 1833.98c.44 4.75.58 5.03 2.18 9.58 4.19 8.07 8.68 15.12 16.57 6.88 6.19 6.03-3.77 9.81-1.02 11.08 1.17.55 7.49.7 8.71.79-10.12 2.03-5.14-1.88-12.11 3.73-15.3-5.61-13.53-5.25-24.95-16.62 2.7-3.17 2.04-2.05 5.86-2.51 1.15-5.83 1.82-7.66 4.76-12.93"/><path fill="#282c31" d="M684.054 1712.12c-.06-13.28 6.29-29.29 20.842-31.97 7.763 3.63 9.646 1.66 15.368 10.57-10.423.12-17.448 1.24-25.75 8.35-1.803 1.55-1.936 3.07-4.078 4.02l-1.274.83c-3.804 2.39-2.985 4.28-5.108 8.2"/><path fill="#df0d25" d="M974.739 220.849c1.223 1.029 2.705 1.037 4.236 1.333l.398 3.825c.287 3.047-.161 6.066-.279 9.111 3.041 1.548 2.935 1.267 4.104 4.524-8.109.777-15.322 1.179-22.867-2.172l-1.627-.677c1.357-5.546 1.909-3.181 7.174-4.231 7.352-4.389 7.656-3.121 8.861-11.713"/><path fill="#d9172f" d="M1026.62 1833.98c2.8-3.38 14.63-10.75 15.35-4.89-.75 1.28-5.28 1.88-8.24 5.72-2.63 3.42-2.92 5-4.93 8.75-1.6-4.55-1.74-4.83-2.18-9.58"/><path fill="#bb1b2e" d="M1429.96 1474.64c-2.35.16-7.63-.53-8.97 1.44-5.96 8.76 5.26 9.76 5.02 9.43-.03.57.08.73-.39.98-10.07 5.31-13.56-11.38-5.5-15.59 3.15 6.1 8.15-.1 9.84 3.74"/><path fill="#d9172f" d="M1443.49 1411.47c1.67 1.45 2.51 2.18 3.99 3.83-5.17 11.07-.24 9.12 1.89 14.34l-1.26.78c-8.43-4.4-6.67-11.04-4.62-18.95"/><path fill="#d9172f" d="M1016 1849.42c-2.6-.84-4.65-2.75-7.48-2.1-5.42 1.26-2.89-3.13.46-3.53 5.1-.6 8.66.38 12.88 3.12-3.82.46-3.16-.66-5.86 2.51"/><path fill="#d9172f" d="M604.774 632.463c.143-4.063 1.588-8.111-1.471-11.758-.242-.29-.391-.69-.446-1.058 1.049-1.092 4.063 1.871 4.66 3.015 2.612 5.003.643 8.583.514 13.389-1.427-1.927-1.42-1.945-3.257-3.588"/><path fill="#d9172f" d="M979.094 235.118c1.996-.36 12.384-3.536 12.912-2.879 2.297 2.859-7.444 6.906-8.808 7.403-1.169-3.257-1.063-2.976-4.104-4.524"/><path fill="#8a1a28" d="M684.054 1712.12c2.123-3.92 1.304-5.81 5.108-8.2l1.274-.83c-2.781 5.6-5.955 25.12-4.941 23.74-2.384-.53-1.544-13.19-1.441-14.71"/><path fill="#d9172f" d="M1436.52 1451.65c12.14.7 12.39 5.04 5.37 2.98-1.81.66-2.9 1.13-4.8 1.52-.39-2.96.18-2.68-3.01-3.18 1.05-.68 1.28-.92 2.44-1.32"/><path fill="#8a1a28" d="M1436.52 1451.65c12.14.7 12.39 5.04 5.37 2.98 1-2.09-1.83-1.78-3.66-2.4z"/><path fill="#bb1b2e" d="M1457.03 1402.88c-.34-2.74-2.01-10.65.32-12.82l.03.04-.12.29.86.4c.5 2.05 1.26 3.88 1.43 5.91-1.58 2.61-1.55 3.08-2.52 6.18"/><path fill="#bb1b2e" d="M1072.31 1829.31c1.68-2.13 1.98-2.29 2.93-4.62.2 1.65 2.53 10.05 1.63 10.23-1.65-.55-3.65-4.19-4.56-5.61"/><path fill="#bb1b2e" d="M974.739 220.849c-.684-1.616-2.305-4.278-2.4-6.002-.026-.468.948-.643 1.212-.337 2.464 1.901 3.894 5.07 5.424 7.672-1.531-.296-3.013-.304-4.236-1.333"/><path fill="#1b1f22" d="M1493.21 299.353c1.99 2.502 3.63 8.844-.47 8.856-.74-.451-.44-.152-.88-.901.65-4.072 1.91-1.929.33-7.009z"/><path fill="#8a1a28" d="M544.021 1396.86c-.051-1.53-.586-9.15.697-10.04 1.804.63 1.356 7.87 1.344 9.27z"/><path fill="#8a1a28" d="M628.252 564.286c-9.76-.516-5.893-3.55-.502-3.071z"/></svg>