<svg xmlns="http://www.w3.org/2000/svg" width="2048" height="2048" viewBox="0 0 2048 2048"><path fill="#050810" d="M0 0h2048v2048H0V0"/><path fill="#2f3038" d="m1714.23 1024.97 333.77.05v516.92c-53.53.43-107.06 1.41-160.57 2.95l-262.56 5.21c-1.64-136.95.23-274.16-.38-411.13-.09-19.65.33-39.35-.19-58.99 29.98.29 59.95.36 89.92.21z"/><path fill="#2f3038" d="M0 1025.01c110.561.02 223.661-1.18 334.059.2-.041 18.27.106 36.86-.15 55.11l89.603-.03-.23 469.72c-93.463-1.29-186.916-3.16-280.357-5.6-46.324-1.09-96.635-2.64-142.925-2.4z"/><path fill="#2f3038" d="M1831.6 290.929c53.83.475 108.31 4.443 162.19 5.3 17.97.286 36.29.651 54.21 1.501v369.476l-293.72 6.135c-43.26 1.13-86.53 2.039-129.8 2.727.52-111.912 1.18-227.373-.08-339.12 9.8.008 20.28.402 30.1.949 60.87 3.393 122.61 4.592 183.35 9.136-2.38-18.667-4.47-37.37-6.25-56.104"/><path fill="#2f3038" d="M0 297.956a9072 9072 0 0 1 115.924-3.526c33.035-1.104 67.665-2.982 100.521-3.456a4426 4426 0 0 1-6.038 56.396c15.361-1.434 31.507-2.202 46.959-2.78 55.308-2.068 111.102-6.553 166.395-7.631-.897 33.511-.205 69.306-.263 103.082l-.133 235.975c-45.431.143-94.56-1.856-140.277-2.938l-166.436-3.31C79.058 668.817 37.145 666.875 0 667.12z"/><path fill="#2f3038" d="M0 0h1013.08l.34 43.216-429.055.065c-53.492-.131-107.535.368-160.978-.437.061 80.544 1.466 164.264.104 244.521C282.832 283.428 140.996 274.635 0 270.014z"/><path fill="#2f3038" d="M1035.78 0H2048v269.47c-123.16 6.396-247.02 9.012-370.24 15.605-17.65.945-35.48 1.661-53.15 2.173l-.06-244.437c-27.57 1.101-57.74.61-85.37.499l-109.57-.1-393.68-.002z"/><path fill="#2f3038" d="M1624.3 1575.07c31.91-1.6 64.87-3.59 96.72-4.4l.11 53.91 91.28-.27c1.65 105.48-.5 211.41.47 316.94.15 16.19.14 33.4-.54 49.55l-61.02.1-.14 57.1h-556.14l-.05-44.99 429.55.12z"/><path fill="#2f3038" d="M327.027 1570.61c29.472.86 67.138 2.08 96.453 4.45-1.519 104.24 1.128 209.82.019 314.16-.388 36.47 1.033 77.81-.251 113.83l430.871.03-.199 44.92H296.543l.252-57.08-60.771-.18.025-366.04c30.364-.24 60.729-.22 91.092.03z"/><path fill="#2f3038" d="M1829.78 1577.16c72.28-.16 145.74-3.33 218.22-4.47v293.12c-32.97.19-68.71-1.36-101.85-2.21l-116.52-1.99c-.53-94.82-.48-189.64.15-284.45"/><path fill="#2f3038" d="M0 1572.8c72.518.72 145.36 3.93 218.024 4.57l.021 284.46a7949 7949 0 0 0-144.848 2.58c-23.686.56-49.625 1.71-73.197 1.58z"/><path fill="#2f3038" d="M2048 685.014v321.346c-64.64-.69-129.31-2.97-193.64-3.38-4.95-65.181-11.47-130.466-16.08-195.588 16.21.355 32.41.433 48.62.234-2.26-36.452-4.51-83.904-4.71-120.459 55.27-.368 110.55-1.085 165.81-2.153"/><path fill="#2f3038" d="m0 684.898 165.707 2.366c-1.503 38.081-4.607 82.603-4.811 120.089l48.433.082c-1.261 24.925-4.159 52.063-6.351 77.082l-10.089 118.493L0 1006.59z"/><path fill="#2f3038" d="M0 1890.53c66.799.07 138.333-.54 204.885 1.22l.033 111.13 71.895.04.048 45.08H0z"/><path fill="#2f3038" d="M2048 1890.17V2048h-276.96l-.05-45.06 73.01-.1.06-110.91z"/><path fill="#2f3038" d="m875.281 2003.07 298.559-.07-.16 45H875.357z"/><path fill="#2f3038" d="m409.601 703.443 14.141-.337c-1.372 37.878-.246 83.102-.255 121.526l-.005 231.188c-13.993-1.86-46.943-2.49-62.532-3.14.02-17.4-.414-35.19-.653-52.63a3728 3728 0 0 0-61.544-2.378c-24.99-1.682-50.358-1.792-75.454-3.71-1.09-41.379-1.918-81.56-.956-122.983 1.261-54.328 6.742-108.062 9.95-161.966 7.88.047 16.614-.352 24.517-.789 50.829-2.807 102.007-2.445 152.791-4.781"/><path fill="#2f3038" d="M1624.38 703.093c63.79 1.374 127.58 3.348 191.33 5.922.42 21.935 4.08 49.249 5.27 72.145 3.66 70.211 7.69 142.526 2.94 212.778-18.57 1.581-40.03 2.05-58.87 2.942-25.02.213-51.49 2.619-77.03 3.13-.29 17.31-.41 34.62-.37 51.94-18.59 1.84-44.08 2.69-62.91 3.36z"/><path fill="#a9aab3" d="m510.99 1439.32 1.099 1.36c3.579 4.35-.544 13.53 2.565 17.04.868 34.33-1.891 87.11 33.195 104.58-6.962.43-19.025.41-23.12 6.55-11.602 17.4-2.597 60.29 2.096 79.06 3.342-8.39 6.967-15.67 15.604-19.73 5.232-2.45 14.039-1.96 18.221 2.05-9.318.21-16.494-1.52-23.881 6.2-9.533 9.97-8.384 24.35-5.168 36.34.805 3.32 1.748 5.06 3.088 8.25.704 2.53 2.186 2.81 4.392 4.29 4.23 8.37 16.328 29.56 29.131 24.87 2.632-.97 5.626-5.96 7.151-8.43 1.997 1.83 4.087 7.29 4.151 9.61a13.05 13.05 0 0 1-4.106 9.99c-2.027 1.94-5.837 4.74-8.192 6.36 5.205 5.19 9.89 8.33 6.15 16.07l-.779-1.09c-2.637-3.63-2.885-4.36-6.533-6.64-4.73-.6-7.654-.66-11.59 2.4-4.42 3.43-7.013 9.54-7.255 14.99-.858 19.28 17.355 31.11 33.2 37.41 2.457.97 4.882 2.01 7.352 2.95l.589 3.8c1.9 1.04 5.761 1.14 7.522 1.06 8.96-.37 15.488-3.72 22.985-7.89-12.023-3.64-13.839-4.74-23.41-12.63 20.518 4.49 34.08-1.3 51.499-12.62 22.385-14.55 44.371-33.17 65.138-50.06l1.233 1.86c-16.828 17.68-34.508 35.66-49.521 54.96-13.705 17.62-21.118 32.64-14.563 55.31-7.582-6.23-10.278-10.17-15.613-18.44-1.293 7.44-4.554 23.57-1.202 30.34 2.715.38 4.384-1.08 6.869-2.52 2.661 4.71 2.495 8.82 4.585 13.69 6.753 15.72 30.364 37.02 48.191 27.33 4.591-2.49 9.709-9.54 7.423-15.63-3.123-3.24-5.475-3.19-9.934-4.14 2.08-3.1 9.723-5.05 12.79-1.94 1.34 1.35 2.784 3.57 3.9 5.18 7.2 1.26 8.614-14.84 26.135-5.69-.872 4.11-8.256 3.93-8.837 10.79-1.308 15.45 16.852 27.36 29.742 30.93 9.984.17 16.957 3.68 28.072.89 11.055-2.77 18.647-6.41 22.386-18.36.809-2.59 1.075-6.2 2.016-8.47 1.027-.97 1.212-2.38 1.478-3.71-.36-.81-.591-1.14-.707-1.92 1.797-2.3 6.119 7.86 6.57 9.85 3.501 11.89-1.568 18.47-8.626 27.48 21.652 6.61 37.042 10.94 56.436-4.95 19.228 13.26 78.213 18.6 103.069 19.93-4.382 3.26-10.122 1.35-17.507 1.88-27.33.08-100.412-9.48-118.704 6.95-18.486-9.96-30.521-8.1-49.094-.75 2.02 2.81 2.132 3 3.505 6.18-.555 3.65.275 2.2-2.495 4.55-7.241 1.76-13.545-.45-20.635-2.33-2.73 1.73-10.177 10.52-13.4 13.72 4.84-15.23 5.248-26.26-1.546-42.39-4.376-10.39-27.752-31.18-32.816-9.22-1.939 8.41 8.699 23.82 14.947 30.45-23.602-11.52-27.179-20.63-23.965-45.6-24.054 24.42-47.386 7.51-64.608-13.73 9.099 34.69 25.893 50.58 59.584 62.72 10.053 3.63 19.074 5.09 28.994-.13 4.752-2.5 12.326-6.5 14.247-12.03.657-2.28.35-1.96 2.171-3.54l.873.54c1.694 7.53 3.099 18.68-4.037 23.54-25.509 17.37-52.335-4.32-77.194-9.27-6.445-1.28-19.226 7.55-24.033 12.07-5.35 5.03-7.196 7.15-7.325 14.55-17.931-8.22 4.943-31.42 12.516-38.51a129 129 0 0 0-11.684-5.48c-34.214-13.73-69.709-7.73-102.513 6.47l1.681 1.56c32.638-6.16 71.435-4.35 104.53-1.92l-19.508 11.39c-36.849-2.63-91.327-.23-124.145 16.29-10.807 5.44-19.381 12.3-28.777 19.77 7.483-9.81 15.717-20.6 21.064-31.68 14.692-30.47 13.025-79.93 12.616-113.82 6.021-3.78 7.368-5.1 12.423-9.95-.051 31.15.756 60.75-3.921 91.63q2.818-4.56 5.4-9.27c19.055-35.41 15.858-65.09 5.091-101.63-8.099 14.63-16.994 25.51-35.051 17.83-4.287-4.33-4.306-4.2 2.136-3.71 3.771-1.44 5.857-2.5 9.219-5.16 30.782-24.57-4.474-49.78-8.239-79.38-3.742-29.42 5.842-35.48 35.327-30.23-28.016 9.2-27.002 30.59-15.521 53.49 13.702 27.34 30.964 38.55 59.491 47.85-14.51-9.74-33.28-24.25-27.752-45.68 2.116-8.21 9.044-12.42 16.128-16.23-25.405 2.15-35.158.13-51.535-20.29 8.282 5.18 20.871 11.54 30.598 11.61 19.889.15 15.11-18.2 3.875-26.86-17.552-13.53-33.719-10.44-53.302-8.41 7.352-3.85 30.648-21.62 24.406-30.53-3.394-.74-5.601.98-8.867 2.62 1.313-9.86.079-15.54.661-24.87 7.724-4.59 8.973-5.68 11.281-15.17 3.666-15.08-.823-30.69-8.337-43.74 14.459-26.38 8.611-100.59 10.761-135.06"/><path fill="#2f3038" d="M807.234 1867.84c-.36-.81-.591-1.14-.707-1.92 1.797-2.3 6.119 7.86 6.57 9.85-3.155 2.11-2.261 1.98-2.963 5.57-5.632 26.61-32.054 28.28-55.914 19.1-.762-.29-.91-.64-1.493-1.04.006-1 .02-.74.555-1.91 9.984.17 16.957 3.68 28.072.89 11.055-2.77 18.647-6.41 22.386-18.36.809-2.59 1.075-6.2 2.016-8.47 1.027-.97 1.212-2.38 1.478-3.71"/><path fill="#888992" d="M807.234 1867.84c-.36-.81-.591-1.14-.707-1.92 1.797-2.3 6.119 7.86 6.57 9.85-3.155 2.11-2.261 1.98-2.963 5.57-.039-6.68.035-7.4-2.9-13.5"/><path fill="#a9aab3" d="M480.66 1809.07c-4.287-4.33-4.306-4.2 2.136-3.71-.73 1.23-1.442 2.46-2.136 3.71"/><path fill="#2f3038" d="M530.938 1920.43c-.911.41-2.747 1.37-3.596.4-.015-1.04 1.154-1.46 1.915-1.96z"/><path fill="#050810" d="m603.081 1856.75-1.147 1.58c-5.971 8.08-8.616 13.6-10.18 23.65-.214 1.37-.614 5.08-1.767 5.7-3.572-1.16-1.452-19.08.329-23.08 8.045-18.03 21.718-22.11 40.13-23.88-2.511 27.18 3.181 38.98 14.526 62.56-10.387-3.91-27.478-9.61-37.163-14.03-9.094-4.14-7.989-21.16-3.79-30.19z"/><path fill="#686a73" d="M603.081 1856.75c1.679-1.77 3.496-3.33 5.353-4.91l1.158.28.17-.32-.323-.48c.537 0 .305-.08.708.19.302.8-5.37 6.75-6.128 7.55z"/><path fill="#050810" d="M524.624 1780.55a139.45 139.45 0 0 0 53.368 20.69c3.355.58 5.348.82 8.739 1.2-2.689 19.55-8.069 33.76-29.507 38.69-1.516.32-13.892 2.25-13.238-.46l.855-.45.054-.1c.933-.23 1.253-.25 2.288-.38 14.015-4.71 16.982-6.62 27.062-16.87-14.319 6.26-18.191 7.91-34.026 3.17-5.718-15.72-8.887-29.23-15.595-45.49"/><path fill="#151720" d="M557.224 1841.13c-1.516.32-13.892 2.25-13.238-.46l.855-.45.054-.1c.933-.23 1.253-.25 2.288-.38 3.593 1.96 5.815 1.23 10.041 1.39"/><path fill="#a9aab3" d="m1535.69 1403.64 2.37 4.88c.31 35.16 2.47 70.69 2.46 105.94 0 18.78.2 43.44 9.53 59.94-9.04 16.36-18.55 48.51 3.16 58.56.95 8.21-.59 13.96.77 23.59l-1.4.68-5.97-3.2c-4.04 1.64-2.35 7.92-.5 10.83 5.88 9.26 14.6 16.47 24.28 21.46-20.07-2.36-37-5.03-54.88 8.89-11.36 8.83-17.5 25.06 3.34 25.98 8.82.4 22.96-5.92 31.11-10.05-13.38 15.31-23.24 21.01-44.19 19.52l.84 3.39c23.97 21.9.19 45.04-19.53 57.97 27.21-8.67 46.59-20.81 59.85-46.76 11.97-23.45 12.54-44.18-14.97-54.39 12.89-2.71 32.17-5.58 34.7 12.32 1.99 14.12-4.51 41.14-13.29 52.31-14.19 18.05-5.87 48.93 18.55 49.69l.26 1.49c-15.6 13.63-29.67-.44-36.62-14.82-12.24 30.94-13.19 61.67.12 92.57a84 84 0 0 0 5.94 11.36c.75-1.52 1.24-2.94 1.45-4.64l.23-1.78c-2.34-27.61-2.2-51.35-2.24-79.09 8.2 8.78 12.69 7.69 12.5 17.3-.89 45.73-3 95.51 29.09 131.95l-2.87.53c-38.83-31.36-97.71-32.4-145.74-30.32-7.28-4.51-12.34-6.86-20.17-10.49 32.25-5.48 79.56-3.13 111.98 1.73-7.83-3.77-15.41-7.09-23.7-9.77a125.75 125.75 0 0 0-95.38 6.87c10.1 8.86 24.26 20.66 15.68 35.51-.92 1.59-.66 1.16-2.45 1.54-10.27-24.05-29.33-30.18-50.41-19.13-13.51 7.08-48.33 16.19-59.46 2.6-5.72-6.98-4.62-16.89-3.61-25.35l.63 1.21c15.38 28.89 44.78 19.59 67.37 6.28 23-13.54 31.19-26.8 38.12-52.3-16.91 20.45-41.8 38.89-64.22 12.74 2.81 25.77.21 33.3-23.4 45.87l1.14-1.31c5.81-6.74 15.01-22.24 12.75-29.96-6.31-21.57-29.64 2.02-33.19 12.12-5.94 16.91-5.23 28.02.69 43.45-19.98-21.92-11.23-11.82-40.02-16.58l5.71-7.88c-17.9-7.93-32.79-10.13-50.95-.25-25.76-15.46-83.46-6.88-115.73-6.52-4.22-.33-17.72 1.25-18.1-1.91 23.45-1.29 83.93-6.92 100.93-20.52 21.05 16.58 34.18 12.58 57.35 5.34-9.74-8.96-14.88-27.6-3.45-36.78-8.58 36.37 16.39 42.79 46.81 36.25 4.43-.51 8.18-1.31 9.34-5.7 10.96-3.85 30.56-14.6 29.38-28.86-.44-5.31-6.76-8.76-10.92-11.3 2.47-2.26 9.4-4.16 12.9-3.46 6.41 1.3 8.8 4.74 12.4 9.87 3.27-4.83 9.27-12.87 15.74-6.94-4.01 4.12-10.57 9.92-5.95 16.18 14.94 20.23 40.52.6 50.31-14.86 4.93-7.79 6.28-12.34 8.34-21.1l8.73 5.31c.15-5.13.22-10.26.21-15.38-.51-7.15-.61-10.48-2.55-17.39-5.37 9.4-8.37 12.32-16.01 19.59 13.59-41.74-36.18-82.81-63.07-110.24l1.23-1.7c19.05 14.96 39.54 31.77 59.32 45.46 18.7 12.93 34.2 21.08 56.99 16.58-9.23 6.86-12.15 8.68-23.04 12.17 7.58 4.15 22.39 11.02 30.64 6.72.03-.54.36-4.02.77-4.19 17.45-7.3 42.25-18.09 39.42-41.15-.98-8.05-8.55-19.05-17.9-16.02-4.71 1.53-4.71 4.62-7.61 8.42-1.58-2.34-1.09-1.63-1.85-4.53.86-5.83 4.72-8.52 9.09-12.27-11.87-8.14-17.23-11.65-9.29-26.21 1.61 3.77 1.73 6.05 5.13 8.68 17.74 4.96 29.66-19.43 33.46-33.25l1.84-.09c.47-.77.93-1.54 1.39-2.31l1.37.17c5.42-23.24 3.18-40.19-22.14-46.03-3.2.97-5.92 1.68-9.16 2.46 4.07-3.86 12.97-6.18 18.5-4.12 9.6 3.58 13.59 10.79 17.94 19.32.22-.82.42-1.65.6-2.47 4.16-18.27 12.01-58.02 1.28-73.7-3.99-5.83-7.86-6.28-14.33-7.44-2.81.13-3.56-.07-6.29-.47l.07-1.16 3.62-1.86c25.37-18.5 24.51-56.01 25.89-84.54 1.13-23.23.77-47.74.94-71.05"/><path fill="#050810" d="M1420.51 1840.97c12.98.79 23.4 3.65 32.51 13.52a33.05 33.05 0 0 1 8.75 24.01c-.2 3.8-1.05 8.31-1.63 12.12-3.95-17.06-2.9-21.76-15.21-35.62l-.83 1.85c7.75 10.54 5.76 21.39-.2 32.16-13.18 5.13-24.66 8.45-38.13 14.06 8.8-18.74 17.45-36.24 14.91-57.86z"/><path fill="#2f3038" d="M1444.1 1856.85c-.93-.78-5.78-4.61-5.19-5.99 1.47-1.11 5.32 3.39 6.02 4.14z"/><path fill="#888992" d="M1419.44 1826.26c1.77 2.39.69 10.42 1.07 14.71l.17 4.24c-.56-1.24-1.13-2.26-1.45-3.57.15-5.13.22-10.26.21-15.38"/><path fill="#151720" d="M1543.3 1889.37c.29 1.54 1.87 8.94 1.19 9.93-.97.46-2.63-3.06-2.87-3.51.75-1.52 1.24-2.94 1.45-4.64z"/><path fill="#151720" d="M1506.61 1734.05c-.86-.48-4.98-2.31-5.12-3.18.82-1.06 3.19-.35 4.28-.21z"/><path fill="#2f3038" d="m1517.4 1674.53 1.37.17c-.62 1.85-1.09 4.1-2.24 5.61-.53-.57-.47-2.9-.52-3.47.47-.77.93-1.54 1.39-2.31"/><path fill="#050810" d="M1500.39 1842.55c-18.49-3.04-29.46-10.79-34.26-29.06-2.77-10.55-1.77-11.22 5.88-12.26 19.96-2.73 36.46-10.38 54.08-20.07-3.31 7.28-5.61 14.16-8.21 21.71-7.66 22.29-3.68 28.68-29.2 24.81l-2.53 3.74c5.81 3.65 8.22 5.25 14.66 7.45z"/><path fill="#888992" d="M1486.15 1831.42c-3.1-2.44-9.12-7.51-10.84-11.08l.47-.11-.2-.11-.04-.16c-1.15-.25 11.5 6.96 13.14 7.72z"/><path fill="#151720" d="M1500.81 1838.87c7.51 2.35 8.03 3.03-.42 3.68z"/><path fill="#a9aab3" d="M462.577 78.54c10.035 8.516 19.389 15.421 31.35 21.224 31.796 15.425 86.202 19.494 121.79 16.589 4.115 2.799 10.049 6.017 14.446 8.383 1.13.333 2.189.421 2.783 1.398.008 1.278-3.326 1-3.912 1.035-4.023 1.003-16.072.985-20.819 1.119-29.544.84-54.346-.106-83.44-5.271 32.016 21.336 84.477 24.686 117.97 5.128l-.927-.952c-8.998-9.3-24.84-25.155-11.446-37.27l.783.197c-1.303 10.934 7.998 14.993 15.475 20.308 18.469 12.841 30.494.001 48.998-6.312 12.497-4.265 35.365-8.645 45.661 3.766 2.931 3.533 7.28 21.35 1.461 24.417l-1.716-.837c-.227-.992-1.444-6.154-1.824-6.593-18.64-21.548-48.37-9.525-66.658 2.431-21.433 14.014-29.539 28.982-34.69 51.947 17.484-22.689 37.901-38.604 63.813-15.447-2.363-23.764 2.304-34.508 24.573-44.957-6.148 6.102-7.298 7.845-11.206 15.474-11.31 22.078 5.592 35.924 22.71 15.924 12.272-14.337 12.125-26.888 10.686-44.442-.762-2.219-.807-3.05-1.236-5.403l.767-.824 2.229 2.7 9.38 9.46c4.248-3.247 4.719-4.059 10.296-3.139 4.874.805 9.73 1.86 14.566 2.857l-5.763 8.544c19.178 7.666 31.744 8.836 51.111.521 21.664 13.1 61.406 6.954 86.682 7.336 10.234.813 16.634-2.318 22.045 1.979-25.543 3.775-55.012 6.414-77.636 18.321-20.855-17.562-33.952-9.894-55.844-4.837 5.77 6.587 10.411 12.401 9.687 21.741-.352 4.537-2.541 12.038-6.281 14.818-.454-2.715 1.386-6.593 1.691-9.876a25.45 25.45 0 0 0-10.963-23.135c-11.793-8.159-29.353-6.147-42.211-1.398-3.037.672-3.471.329-3.257 3.479-12.612 4.601-33.688 16.622-29.235 33.439.845 3.19 6.252 5.978 9 7.551-3.39 4.055-13.875 5.216-17.763 1.174-2.832-2.945-4.098-5.276-7.827-6.069-6.833 5.537-7.971 10.064-17.155 4.453l-.478-1.177c15.227-2.571 10.363-16.641 2.19-20.161-26.788-11.539-47.444 21.422-52.839 40.596-2.596-1.125-4.517-2.236-7.327-2.329l-.854.18c-.528 11.291.542 19.675 2.246 30.87 5.465-10.9 7.764-13.245 16.695-21.738-4.792 13.67-6.121 25.431 1.116 38.878 13.372 24.846 43.804 56.451 64.252 76.954l-3.494-.264c-18.419-15.981-38.428-31.581-57.955-46.195-18.015-13.483-35.677-23.036-58.659-17.932 8.92-7.755 11.503-9.01 22.694-12.946-10.788-5.176-17.549-8.377-29.905-7.248-1.061 1.635-.599 4.488-.285 4.311-16.696 9.431-44.824 17.779-40.634 42.595 2.749 16.29 15.717 26.243 25.26 7.723 4.513 2.746 2.782 9.201-.422 12.519a32 32 0 0 1-5.304 4.417c10.457 6.91 17.778 13.44 9.315 27.039-2.552-1.601-1.776-7.499-7.092-9.012-14.257-4.058-26.462 16.524-30.715 27.372-2.358.357-2.886-.078-3.456 2.138-1.62 3.197-2.675 5.655-3.532 9.182-4.293 16.981-3.766 35.288 16.421 40.776 7.622 2.072 11.887-.644 18.906-2.005-17.818 10.397-29.221 7.573-39.136-11.197a216 216 0 0 1-1.798-3.487c-3.458 21.238-11.273 55.21.485 75.163 4.186 7.103 15.164 6.075 22.625 6.269-35.513 17.343-32.329 66.231-34.117 100.563-1.032 2.964-2.496 7.603-2.251 10.748l-.712.531.497 1.213-.22-.086.087.327-.064.097c-.54-.146-1.699-6.851-1.982-7.806-.998-31.412 3.073-88.271-8.268-114.791 7.202-15.26 10.107-24.287 7.626-41.751-1.614-11.367-11.188-14.835-11.498-16.355-1.118-5.464-.712-19.093-1.559-26.431 3.38 2.195 4.987 3.77 8.372 3.327 4.287-9.038-12.196-22.492-19.437-26.659-.54-.346-1.414-.678-1.77-1.232l.078-.17c1.401-.98 6.951.076 8.678.378 17.846 1.755 41.697-1.576 50.188-18.789 8.243-16.708-8.343-20.804-21.106-16.59-9.026 2.98-12.29 4.385-20.423 9.144 13.527-17.15 23.041-20.92 44.138-19.968l1.692-2.795c-15.879-8.694-15.455-24.617-6.621-38.687 5.939-9.46 13.691-14.816 22.782-20.905-29.338 10.029-44.635 19.635-59.239 48.237-5.698 11.159-10.031 25.274-5.556 37.617a23.93 23.93 0 0 0 12.333 13.505c2.385 1.142 5.222 1.677 7.822 2.139l.326 1.179c-57.426 11.22-30.966-48.87-16.938-74.482 9.23-16.853-2.518-33.9-17.884-41.04-.482-.225-3.634.747-5.99-.215 2.268-5.283 12.71-7.236 18.035-5.819 9.98 2.656 14.641 10.494 19.635 18.621 12.961-37.469 12.441-70.486-7.372-105.561-1.15 2.498-1.141 2.796-1.698 5.517 2.931 27.258 2.64 53.011 2.076 80.433-4.898-4.183-6.11-5.183-11.952-8.358.044-61.376 5.419-97.778-34.172-147.327"/><path fill="#151720" d="M506.625 153.793c-.264-1.291-1.744-8.065-1.052-8.986 1.288.007 2.237 2.51 2.75 3.469-1.15 2.498-1.141 2.796-1.698 5.517"/><path fill="#a9aab3" d="M630.163 124.736c1.13.333 2.189.421 2.783 1.398.008 1.278-3.326 1-3.912 1.035-.168-.031-.335-.066-.504-.095-.661-.115-1.802-.084-2.337-.681.431-.627 3.202-1.376 3.97-1.657"/><path fill="#888992" d="M485.515 363.709c-.54-.346-1.414-.678-1.77-1.232l.078-.17c1.401-.98 6.951.076 8.678.378q-3.497.487-6.986 1.024"/><path fill="#151720" d="M546.99 313.687c.486.395 2.248 1.508 2.557 1.898-.303.551-3.576.793-4.249.897z"/><path fill="#050810" d="m544.618 204.707-1.777-.233.006-.092c2.095-2.627 11.171-1.211 14.247-.476 21.551 6.325 27.207 18.601 29.263 39.58-25.493 3.06-39.125 9.413-60.942 21.865 5.546-14.609 9.955-29.428 14.979-44.18.387-1.137 2.033-2.645 3.128-3.06 9.527-3.61 17.38-2.046 26.008 2.438l.89-1.887c-9.221-8.835-13.963-10.088-25.802-13.955"/><path fill="#2f3038" d="m544.618 204.707-1.777-.233.006-.092c2.095-2.627 11.171-1.211 14.247-.476-6.606-.049-6.127-.832-12.476.801"/><path fill="#686a73" d="M570.42 218.662c.913.948 4.511 4.02 4.032 5.539-1.042.347-4.198-2.919-4.922-3.652z"/><path fill="#050810" d="M607.159 189.817c-7.737-9.625-8.146-27.753.41-33.764 2.356-1.654 31.848-11.255 36.981-13.259-8.29 18.449-16.95 39.619-13.847 60.403-1.547.758-1.925.942-3.506 1.539-2.733-.415-5.46-.715-8.192-1.126-21.986-3.307-34.419-22.783-29.835-44.532l1.178-.374c4.119 15.691 3.469 20.749 15.99 33.049z"/><path fill="#686a73" d="M607.159 189.817c8.258 7.124 3.088 6.367-.821 1.936z"/><path fill="#a9aab3" d="M1434.41 116.763c48.99.916 107.28.119 146.69-32.886l.99 2.31c-33.24 40.545-29.48 89.687-28.54 139.667-5.77 3.959-7.21 5.112-12.14 10.044-.41-30.738-1.43-63.307 4.46-93.584-23.88 37.3-25.14 70.876-10.62 112.059 7.16-13.191 10.77-17.972 26.27-19.723 2.94.799 8.43 2.505 10.54 4.687 1.35 1.399-6.85 2.313-10.57 4.645-5.7 4.998-16.74 15.131-15.81 23.415 2.82 25.179 23.79 42.861 21.95 70.11-1.34 19.836-15.21 21.937-32.14 19.745l.55-2.084c21.57-4.062 21.62-30.588 14.1-46.828-13.84-29.909-27.45-40.722-57.28-52.918l-1.32 1.9c22.98 13.161 39.38 47.535 7.4 58.006 8.41 1.37 14.67-.145 23.17 1.348 12.35 3.436 18.68 7.312 26.71 17.832-8.09-3.732-35.39-15.542-41.66-2.78-5.8 11.795 13.65 26.903 23.34 29.257 13.57 4.364 27.16 1.383 40.57.638-8.88 4.35-31.5 18.925-25.32 31.228 2.58.002 4.26-1.356 6.55-2.688l1.27.567c.18 7.775-.32 14.882-.79 22.646-7.17 5.499-9.86 6.264-11.72 16.621-2.65 14.742 1.24 28.686 7.47 42.007-11.36 24.845-7.68 80.255-8.96 109.23-.65 14.818-1.57 37.27-1.67 52.139.12 7.518 0 11.718-2.32 18.711-.52-11.586-1.05-27.118-.43-38.605-.07-30.717 3.7-114.546-28.99-129.274-2.62-1.343-5.69-3.073-.41-3.185 17.59-1.684 24.37-5.215 24.65-25.657.23-17.273-2.71-37.515-5.93-54.582-6.79 14.598-14.92 21.109-31.15 18.187l.56-2.28c25.43 1.873 31.03-21.253 25.65-41.742-1.1-4.292-2.23-6.363-4.09-10.405l-.35-.885c-.82-1.815-1.28-1.48-3.31-1.868-5.4-12.072-27.97-41.089-36.28-16.582l-.7-.505c-6.96-14.78-2.31-18.302 10.16-26.076-6.54-4.435-10.95-8.11-7.37-16.287 2.68 3.905 6.03 10.45 11.33 8.911 22.6-6.575 16.74-35.764-.03-46.261-9.75-6.101-17.4-8.433-25.63-13.428-.16-1.944-.2-2.231-.54-4.057-8.92-3.219-22.96 2.849-30.95 7.209 10.78 3.572 14.21 5.017 22.88 12.481-37-9.312-86.19 39.151-114.38 61.994l-3.08-.68c19.9-20.258 52.07-51.563 63.48-77.426 5.54-12.551 4.21-23.334-1.1-35.458 8.95 7.918 11.47 11.408 17.91 21.576.89-4.446 1.38-8.948 1.96-13.449-.47-6.285.02-13.163-.71-19.478-2.48 1.308-5.18 3.695-7.42 5.488-5.83-18.814-15.81-36.032-36.07-43.173-11.27-3.973-30.89 4.057-23 18.845 1.24 2.334 5.82 2.01 8.56 3.312-7.89 7.677-14.1-.034-19.01-6.066-5.38 8.735-10.49 12.104-22.37 10.343-1.99-.294-2.51-2.018-3.1-3.653 9.75-.722 13-8.148 9.78-16.811-4.22-11.356-17.29-18.521-27.75-23.637-2.19-2.634-3.52-3.726-7.09-4.434-3.37-.978-5.75-1.804-9.24-2.179-21.56-4.461-44.03 5.465-41.77 30.242-.53 1.09-1.08 2.173-1.64 3.251-5.9-13.132-1.39-22.759 6.98-33.082-26.74-4.298-30.45-12.957-57.93 6.135-12.41-11.744-57.32-16.079-75.96-18.839 1.63-4.575 17.75-1.738 23.83-2.162 29.2.591 60.59 5.391 86.82-7.977 17.94 10.533 32.33 6.682 50.2-.118l-5.99-8.337c28.61-6.25 17.06 8.35 38.9-14.693-8.39 22.727-4.35 51.105 20.44 62.615 11 5.11 14.88-9.361 11.87-17.03-3.01-11.724-6.29-14.616-13.2-23.578 22.12 12.379 26.77 20.226 24.07 45.68 21.76-20.105 41.58-12.189 59.41 8.356l.91 1.056c1.45-1.766 1.57-1.557 1.81-3.626l-.38-1.213c-7.32-22.483-21.75-37.301-42.64-47.37-13.62-6.561-27.83-13.15-42.81-6.696-9.36 4.033-13.89 9.217-18.13 17.844-6.48-40.985 25.42-34.387 52.71-26.313 11.37 3.365 23.76 13.934 35.8 8.869 9.95-4.189 19.3-10.934 24.19-20.701.49-6.16 1.47-5.144 4.32-.267 4.76 16.035-6.38 23.706-16.78 33.699 9.85 4.391 17.22 7.54 27.75 10.06a119.38 119.38 0 0 0 89.86-15.021c-34.44 7.233-75.7 5.712-110.55 3.992 8.43-3.247 12.89-5.302 20.3-10.32"/><path fill="#050810" d="M1405.67 142.584c5.04 1.907 10.47 4.003 15.54 5.762 21.17 7.355 28.43 5.073 27.34 30.563l3.35 2.722c5.83-10.353 6.03-15.893 8.24-27.23 4.13 28.669-3.68 43.755-32.97 50.271-2.97-.529-4.5-.53-7.51-.654 4.41-21.056-4.99-42.783-13.99-61.434"/><path fill="#888992" d="m1448.55 178.909 3.35 2.722c-2.75 5.049-8.35 11.257-13.48 13.92l-1.05-.082.42.295-.36-.046-.08-.257c7.09-7.369 7.48-6.594 11.2-16.552"/><path fill="#a9aab3" d="M1561.52 234.65c2.94.799 8.43 2.505 10.54 4.687 1.35 1.399-6.85 2.313-10.57 4.645q-.015-4.665.03-9.332"/><path fill="#686a73" d="M1535.15 613.479c1.14 7.955.86 16.881 1.37 25.022.09-1.42.54-2.594 1-3.953l.38-1.175c.12 7.518 0 11.718-2.32 18.711-.52-11.586-1.05-27.118-.43-38.605"/><path fill="#888992" d="M1419.66 204.018c3.01.124 4.54.125 7.51.654-1.55.534-6.38.448-6.61 1.036-1.68 4.2 1.29 14.488-1.12 18.042-.47-6.285.02-13.163-.71-19.478z"/><path fill="#686a73" d="M1522.11 316.676c-2.49.175-25.4.88-25.91-.302l.1-.229c1.01-.768 1.23-.634 2.64-.817 8.41 1.37 14.67-.145 23.17 1.348"/><path fill="#a9aab3" d="M1419.51 94.62c.49-6.16 1.47-5.144 4.32-.267q-2.16.102-4.32.267"/><path fill="#151720" d="M1410.77 170.2c.21 1.035 1.61 5.602.46 6.368-1.26-.631-1.64-1.445-2.27-2.742 1.45-1.766 1.57-1.557 1.81-3.626"/><path fill="#2f3038" d="M1491.54 257.322c-.87-.565-2.94-1.692-3.1-2.686 1.13-.953 3.29.251 4.42.786z"/><path fill="#a9aab3" d="M1506.16 484.205c-2.62-1.343-5.69-3.073-.41-3.185.22.893.32 2.285.41 3.185"/><path fill="#050810" d="M1464.51 243.764c2.7-21.139 10.57-37.603 35.03-40.317 1.78-.197 6.6-.365 7.95.832.02.092.03.184.05.276-15.22 5.799-16.41 4.487-29.21 16.436l1.86 1.156c8.98-7.133 29.5-11.469 32.04 3.819 2.04 12.231 9.14 28.439 14.8 39.532-22.2-12.008-35.89-17.388-60.74-21.428z"/><path fill="#686a73" d="M1480.19 222.147c-4.69 5.309-5.29 3.546-1.86-1.156z"/><path fill="#888992" d="M1282.02 142.307c3.49.375 5.87 1.201 9.24 2.179 3.57.708 4.9 1.8 7.09 4.434-20.68-4.762-42.67-3.938-52.72 17.544-.06 2.789 1.46 9.799-1.4 7.556.01-20.916 9.46-25.87 29.31-29.093 3.74-.921 5.23-.544 8.48-2.62"/><path fill="#151720" d="M1282.02 142.307c3.49.375 5.87 1.201 9.24 2.179-6.11.823-11.57.566-17.72.441 3.74-.921 5.23-.544 8.48-2.62"/><path fill="#151720" d="M1244.23 174.02c.36-3.351.57-4.301 1.4-7.556-.06 2.789 1.46 9.799-1.4 7.556"/><path fill="#888992" d="M510.279 586.369c.283.955 1.442 7.66 1.982 7.806l.064-.097-.087-.327.22.086-.497-1.213.712-.531c-.245-3.145 1.219-7.784 2.251-10.748.185 17.347-1.883 39.907-.858 56.593a491 491 0 0 0-2.126 6.115c.306-18.2-2.129-39.048-1.661-57.684"/><path fill="#888992" d="M1049.46 126.855c5.27-2.206 76.69-.678 86.07.997-6.08.424-22.2-2.413-23.83 2.162-12.56.464-33.28-2.912-49.96-2.352-4.39.592-8.17.642-12.28-.807"/><path fill="#151720" d="M1049.46 126.855c3.21-.213 9.89-1.031 12.28.807-4.39.592-8.17.642-12.28-.807"/><path fill="#888992" d="M533.295 1659.49a97 97 0 0 1 1.869-7.96c2.814-10.43 12.173-20.59 23.842-18.01l.026.05c-1.284 1.13-3.627.94-5.037 1.3-21.916 5.52-19.516 34.27-14.914 50.44-2.206-1.48-3.688-1.76-4.392-4.29-1.34-3.19-2.283-4.93-3.088-8.25 2.508-4.92.244-7.34 1.694-13.28"/><path fill="#2f3038" d="M531.601 1672.77c2.508-4.92.244-7.34 1.694-13.28.243 1.87 1.316 18.81 1.394 21.53-1.34-3.19-2.283-4.93-3.088-8.25"/><path fill="#888992" d="M1288.96 1902.5c-6.72-3.81-35.2 3.3-42.66-14.72-2.4-5.8-3.75-6.9-2.84-13.28l.1.03c.67 1.09.81 2.26 1.14 3.47 6.97 25.67 34.52 22.25 53.6 18.8-1.16 4.39-4.91 5.19-9.34 5.7"/><path fill="#686a73" d="M1511.78 361.788c2.03.388 2.49.053 3.31 1.868l.35.885c1.86 4.042 2.99 6.113 4.09 10.405-3.01 4.839-.08 4.263-2.04 7.827-.92 10.909-3.62 25.26-16 29.059-1.05.323-6.35 1.849-7.35.64l.02-.183c1.16-1.167 2.88-1.002 4.32-1.354 18.88-4.623 17.85-28.781 15.03-42.67-.54-2.169-1.11-4.328-1.73-6.477"/><path fill="#151720" d="M1515.44 364.541c1.86 4.042 2.99 6.113 4.09 10.405-3.01 4.839-.08 4.263-2.04 7.827-.49-4.019-1.92-14.409-2.05-18.232"/><path fill="#888992" d="M753.701 148.943c-.214-3.15.22-2.807 3.257-3.479l2.024.166c1.864.144 3.216-.226 5.015-.411 16.713-1.723 40.866 1.935 42.654 22.78.104 1.213.377 3.284-.447 4.353-.252.082-.12.085-.396-.03-.68-.956-.437-2.303-.611-3.347-4.023-24.062-33.557-23.786-51.496-20.032"/><path fill="#888992" d="M535.07 366.081c.57-2.216 1.098-1.781 3.456-2.138-4.036 16.784-5.869 39.229 13.102 47.305l-.811 1.023c-13.792-4.571-17.666-17.994-17.542-31.384-.557-2.847-.491-3.03-1.737-5.624.857-3.527 1.912-5.985 3.532-9.182"/><path fill="#151720" d="m535.07 366.081-1.795 14.806c-.557-2.847-.491-3.03-1.737-5.624.857-3.527 1.912-5.985 3.532-9.182"/><path fill="#888992" d="M510.99 1439.32c-.51-3.41.559-39.91 1.842-41.68.315-.1.181-.11.412-.02 1.229 5.27 1.848 53.11 1.41 60.1-3.109-3.51 1.014-12.69-2.565-17.04z"/><path fill="#888992" d="M916.47 127.851c15.374-2.584 52.676-1.465 69.182-1.681l.209.759c-9.769-.209-41.12 3.62-47.346 2.901-5.411-4.297-11.811-1.166-22.045-1.979"/><path fill="#888992" d="M1514.17 1676.93c.85-11.17 2.18-20.62-3.36-31.34a20.76 20.76 0 0 0-12.83-10.53c-1.37-.37-2.2-.4-3.21-1.49 2.23-1.35 10.64 2.19 12.76 4.35 10.99 11.19 9.4 22.72 9.87 36.61-.46.77-.92 1.54-1.39 2.31z"/><path fill="#888992" d="M1064.45 1919.09c7.17.01 16.74-1.13 22.87-.88.38 3.16 13.88 1.58 18.1 1.91-10.81 1.7-42.25.89-54.77.62-.42-.1-.83-.19-1.24-.29l.05-.14c2.19-1.73 12.19-1.39 14.99-1.22"/><path fill="#2f3038" d="M1050.65 1920.74c-.42-.1-.83-.19-1.24-.29l.05-.14c2.19-1.73 12.19-1.39 14.99-1.22-5.49 1.15-8.3 1.04-13.8 1.65"/><path fill="#686a73" d="M963.976 1918.23c3.324-.18 36.414 1.49 36.744 1.83l.03.36c-4.543 1.48-47.774.79-54.281-.31 7.385-.53 13.125 1.38 17.507-1.88"/><path fill="#686a73" d="m1337.19 328.507 3.08.68c-4.31 4.127-6.89 5.896-11.9 8.892 2.51-2.781 6.2-7.173 8.82-9.572"/><path fill="#686a73" d="m1535.69 1403.64-.06-4.63c-.02-1.3-.11-.9.78-1.91-.02-.42.02-.23-.13-.57 2.38-.58 1.78 10.95 1.78 11.99z"/><path fill="#2f3038" d="M715.722 331.564c1.115.728 5.451 4.369 5.303 5.628-1.257 1.46-7.758-4.912-8.797-5.892z"/><path fill="#888992" d="M1337.81 1718.22c-1.11-1.05-7.51-6.54-7.15-7.79.45-.25.89.1 1.39.25l-.45.96 1.18-.44c2.04 1.83 4.28 3.41 6.26 5.32z"/><path fill="#2f3038" d="M514.066 637.938c.012 1.842.559 11.14-1.445 11.995l.069-.234c-1.222-1.558-.791-3.671-.75-5.646a491 491 0 0 1 2.126-6.115"/><path fill="#2f3038" d="M985.652 126.17c5.154-.36 10.372-.425 15.468.236l.07.143-.11.201c-3.326.488-11.745.359-15.219.179z"/><path fill="#888992" d="M712.084 1715.46c2.817-2.6 7.667-5.97 10.824-8.11-3.16 3.36-6.357 6.68-9.591 9.97z"/><path fill="#888992" d="M1240.25 172.549c.36 1.221 2.56 6.901 2.02 7.643-1.5-.046-3.02-3.344-3.66-4.392.56-1.078 1.11-2.161 1.64-3.251"/><path fill="#888992" d="M1493.32 418.968c-7.92-3.961-5.31-5.349.56-2.28z"/><path fill="#2f3038" d="M551.628 411.248c1.719.148 2.695.248 4.432.585.547.107 1.433.19 1.973.209.216.008.915.244 1.076.558l-.146.165-.286-.323-1.02.743c-2.755.226-4.295-.068-6.84-.914z"/><path fill="#686a73" d="m1581.1 83.877 1.03-1.019c5.81-6.016 2.9-.172-.04 3.329z"/><path fill="#888992" d="m1582.65 1959.53.55.84c.25.39 1.93 2.37 1.18 3.05-1.11.11-2.5-1.53-3.13-2.09l-1.47-1.27z"/><path fill="#686a73" d="M1535.49 357.252c-.54-.117-3.4-.295-3.1-1.431.85-.853 2.6-.621 3.65-.653z"/><path fill="#686a73" d="m518.511 355.593 1.282-.124c.564-.07 1.165-.17 1.7.064-.619.708-1.785.911-2.656 1.239z"/></svg>