<svg xmlns="http://www.w3.org/2000/svg" width="2048" height="2048" viewBox="0 0 2048 2048"><path fill="#02030c" d="M0 0h2048v2048H0z"/><path fill="#02030c" d="M1597.13 1454.7c.92 13.9.29 33.54.23 47.73l-.11 81.38c.09 83.35-.04 166.76-.04 250.08.69 46.1-17.96 89.95-51.37 121.61-22.7 21.91-55.74 40.23-87.34 44.88-26.95 3.97-59.17 2.17-86.9 2.33l-176.37.11-395.731-.09c-59.913-.07-120.765.79-180.621-.08a168.03 168.03 0 0 1-119.078-52.49c-23.211-24.14-41.445-59.16-44.927-92.53-2.027-19.43-1.253-44.43-1.272-64.46l.129-116.53.12-373.83-.02-737.652-.175-236.389c-.03-39.969-.851-83.566.09-123.279a166.66 166.66 0 0 1 52.839-117.564c55.921-53.055 112.524-46.839 183.149-46.38 5.687.038 11.468.061 17.163.09l181.659.288 361.525.096 121.26-.222c21.45-.056 44.25-.887 65.64.026 74.74 3.193 141.47 61.949 156.41 134.863 5.47 26.671 3.9 55.568 3.87 82.525l.03 89.704.07 166.45c.02 30.501.76 63.805-.26 93.916 1.14 15.737.35 42.311.34 58.7v110.772l-.02 355.476.14 221.07-.03 67.55c-.01 6.22.34 26.5-.4 31.85"/><path fill="#fc543f" d="M1597.13 1454.7c.92 13.9.29 33.54.23 47.73l-.11 81.38c.09 83.35-.04 166.76-.04 250.08.69 46.1-17.96 89.95-51.37 121.61-22.7 21.91-55.74 40.23-87.34 44.88-26.95 3.97-59.17 2.17-86.9 2.33l-176.37.11-395.731-.09c-59.913-.07-120.765.79-180.621-.08a168.03 168.03 0 0 1-119.078-52.49c-23.211-24.14-41.445-59.16-44.927-92.53-2.027-19.43-1.253-44.43-1.272-64.46l.129-116.53.12-373.83-.02-737.652-.175-236.389c-.03-39.969-.851-83.566.09-123.279a166.66 166.66 0 0 1 52.839-117.564c55.921-53.055 112.524-46.839 183.149-46.38 5.687.038 11.468.061 17.163.09l181.659.288 361.525.096 121.26-.222c21.45-.056 44.25-.887 65.64.026 74.74 3.193 141.47 61.949 156.41 134.863 5.47 26.671 3.9 55.568 3.87 82.525l.03 89.704.07 166.45c.02 30.501.76 63.805-.26 93.916-2.33-8.479-1.17-46.11-1.89-57.225l-1.09-.776c-.5 6.61-3.26 11.091-2.71 17.691l-1.11-1.677c-1.63-74.26 0-153.012-.24-227.835-4.33-2.751-4.84-3.441-8.43-7.251l-.55.625c-19.06 21.693-31.57 44.88-29.93 74.702 1.02 18.451 9.78 37.215 23.75 49.478l-1.51 2.786c-8.65-7.586-11.59-7.734-21.96-18.398-21.47-22.066-21.59-51.947-36.59-73.349 7.3-10.041 16.63-20.335 24.7-29.835 11.98-14.081 33.92-35.093 6.33-46.91 12.19-7.092 17.29-15.644 9.2-29.708-10.41-18.113-26.23-34.447-39.19-51.176-.07 32.901 1.15 80.023-21.59 106.168l-1.2.022c-.23-6.731 5.63-24.958 6.73-34.691 4.19-36.858-39.27-40.382-37.7-3.567-5.03-2.515-12.4-5.175-17.82-7.297 2.71-10.915 3.98-21.939 10.6-31.448 13.27-19.034 31.7-22.162 50.05-8.778l.38-65.99c20.26-6.785 35.28-16.029 42.15-38.168 1.41-4.546 3.83-12.706 1.64-16.825-6.3-2.266-19.01.295-24.93 3.08-16.34 7.685-29.31 23.435-35.53 40.08-12.74-.093-47-1.154-58.05.274l-.72 1.22c7.42 13.071 10.97 24.097 2.01 38.339-9.57 15.223-26.1 18.03-42.21 21.678-1.79-6.494-3.79-11.776-6.13-18.08 10.24 4.709 18.33.883 21.99-9.759a23.3 23.3 0 0 0-1.17-18.169c-7.26-14.252-27.58-14.507-38.23-4.255-2.31 2.227-4.22 4.749-7.26 5.732l-.98-1.192-10.37-4.803c38.39-26.913 64.18-23.992 108.43-23.151-14.99-15.197-31.47-34.435-45.86-50.513-16.99 8.618-35.19 10.127-50.06-3.387-21.62 12.78-41.5 30.921-57.4 50.28-20.51-8.072-41.76-9.493-62.03-17.464-18.43-7.246-33.35-19.786-40.95-38.288-1.66-4.053-4.59-11.317-2.92-15.474 8.9 26.43 28.91 34.204 54.84 35.144 35.49 1.286 67.96-14.587 93.4-38.602-7.18-4.684-8.61-5.549-11.61-13.443l-611.304-.189c-2.914 5.748-5.272 9.038-10.927 12.193l-.222 1.503c4.197 7.67 16.964 15.306 24.366 20.017 31.554 20.08 94.279 30.947 116.955-7.606l2.629 1.103c-9.036 22.302-20.471 33.728-42.963 43.493-21.204 9.206-41.547 8.754-62.475 18.417-18.251-23.129-31.505-32.791-54.979-49.75-17.079 11.85-31.878 11.047-49.709 1.412-16.519 17.292-32.698 33.606-49.036 51.224 48.892-1.619 66.4-2.88 108.391 23.561-3.732 2.147-7.993 4.461-11.61 6.696-11.212-11.922-30.29-20.831-44.209-7.801a21 21 0 0 0-6.703 15.483 18.3 18.3 0 0 0 6.235 13.486c5.914 5.218 12.696 6.471 20.304 6.765-2.183 5.318-4.323 10.215-5.959 15.74-16.982-3.448-35.74-5.897-46.091-21.834a29.13 29.13 0 0 1-4.01-22.694c1.773-7.817 4.247-11.199 9.014-17.177l-57.991-.098c-13.288-26.084-29.273-44.869-61.085-43.244-.376 28.394 16.441 49.423 44.128 54.939l-.094 65.263c24.664-17.443 47.998-3.758 55.102 23.371 1.808 6.907 3.211 13.759 4.659 20.743-6.103 2.074-9.814 3.351-15.668 6.122-.216-9.316-.571-15.743-7.817-22.62-7.758-7.364-19.237-4.679-25.14 3.438-6.838 9.403-5.771 19.585-3.974 30.29 1.09 4.985 2.653 9.844 4.944 14.398l.154 1.231c1.945 5.279 3.929 10.169 5.173 15.661-5.482-4.241-8.997-9.928-13.038-15.594-.466-1.82-.425-2.131-1.656-3.408-14.822-33.498-12.948-59.419-12.717-95.424l-.788 1.332c-10.421 17.399-62.301 64.434-33.064 79.48q2.049 1.047 4.129 2.031c-10.931 5.179-19.238 14.634-10.782 26.83 11.297 16.293 27.451 35.221 41.24 49.68l-.83 1.259c-5.428 8.314-9.206 18.502-12.65 27.813-12.351 33.393-23.395 55.253-58.326 67.807 5.942-4.256 14.653-9.978 18.773-15.686l-.796-1.957c7.157-12.241 10.36-17.742 13.728-32.301 5.462-23.615-3.44-38.282-10.945-59.102l.014-2.926c-4.195-7.29-9.642-13.389-15.261-19.645-11.95 11.769-9.624 3.951-9.753 22.066l.285 1352.622c3.245 1.93 6.54 3.81 9.618 5.99 5.026-5.9 9.458-11.34 13.782-17.78 25.462-37.88 22.411-88.84-18.677-113.84 20.107 7.19 29.771 14.74 42.078 32.8 13.568 19.91 15.777 42.8 28.774 62.63-13.142 16.41-28.495 31.95-40.317 49.03-8.562 12.37-2.508 22.89 9.848 28.35-13.679 6.1-18.241 14.56-9.911 28.83 9.656 16.55 24.163 30.85 35.643 46.41 7.205-4.9-.571-24.86 3.914-29.63 1.684-22.78 3.886-43.27 15.191-63.68 1.977-3.57 5.097-10 8.566-11.99l.875.32c1.297 5.3-4.813 20.18-6.679 27.12-4.993 18.6-1.047 42.33 23.862 37.2 10.942-2.25 12.585-15.94 12.631-26.03 6.26 3.35 10.991 5.84 17.517 8.59-1.765 8.99-3.066 17.53-6.902 25.94-9.987 21.89-32.965 32.18-53.349 16.31l-1.482-1.14.03 66.73c-27.39 9.05-44.198 24.84-44.227 55.65 31.037 1.77 49.209-17.86 61.2-43.98 9.127.37 49.273 1.38 57.022.09-3.211-6.3-6.551-10.22-7.82-17.46-5.506-31.41 26.843-39.66 49.617-43.72.879 3.48 3.34 11.88 3.244 14.97-11.086 2.68-28.963 9.09-23.984 23.44 9.646 27.82 37.055 17.51 54.331 6.3l11.474 4.24c-36.677 27.64-67.573 27.03-111.836 25.1 16.927 18.04 32.201 33.94 50.314 50.92 16.758-7.85 33.165-8.51 48.87 2.14 22.171-16.1 36.727-27.99 54.561-49.51 14.861 7.09 25.181 7.21 40.993 11.17 27.268 6.83 52.955 20.75 62.746 48.6.472 1.34.929 2.69 1.372 4.04l-2.384 1.75c-9.273-19.42-27.875-28-48.333-29.52-37.033-2.77-68.092 14.81-95.127 38.45 11.589 5.85 7.456 4.04 13.379 12.99 11.042 1.24 28.685.62 40.442.57l68.156-.2 237.307.06 190.97-.08c10.21.01 67.46.99 74.78-.66 2.5-7.39 4.1-8.32 10.98-12.12l1.27-.69c-34.93-31.19-97.81-57.7-138.04-21.07-2.21-1.43-2.48-1.62-5.04-2.56 21.26-40.56 67.65-37.38 101.12-50.19 16.22 20.46 35.14 35.75 56.98 49.7 17.35-10.82 30.8-10.92 49.17-2.79 15.23-17.21 31.75-33.79 46.69-51.13-47.42.87-69.16 3.67-110.62-24.1l9.78-5.18c10.85 9.1 29.08 17.03 42.32 8.47a19.54 19.54 0 0 0 8.62-12.79c1.02-5.04-.11-10.27-3.11-14.44-5.41-7.41-12.77-8.75-21.04-10.23 2.36-7.33 2.83-7.79 4.45-15.66 13.06 2.78 25.6 4.93 36.18 13.95 16.63 14.19 18.78 31.24 4.38 47.81l61.4-.2c12.28 26.19 31 44.81 61.59 44.14-1.01-28.31-18.19-48.74-44.98-55.86.15-22.38.14-44.76-.04-67.13-12.6 9.21-27.8 12.99-41.37 2.74-14.02-10.59-16.42-27.68-18.65-43.91 5.11-1.79 9.9-4.02 14.85-6.21-.75 22.07 17.58 33.81 33.43 17.41 14.66-15.16-1.56-39.03-2.66-52.95 1.45-3.85.26-2.92 2.89-4.63 2.33 2.05 4.72 7.22 6.3 10.1 16.62 30.24 16.06 67.64 15.87 101.14 10.74-19.2 28.98-34.36 39.12-53.75 7.38-14.08 2.76-22.44-10.43-28.41 30.87-11.59 4.09-36.79-7.99-50.9-7.47-8.74-14.7-17.66-21.71-26.76l.83-1.13c6.55-8.86 8.34-16.28 12.05-26.38 10.21-27.74 18.7-46.79 44.65-61.92l2.33 1.97c-39.29 33.69-24.6 91.02 7.18 124.63 2.56-2.26 5.53-4.37 8.29-6.44l.12-282.39c.18-.38.38-.77.54-1.16 3.84-9-1.98-105.72 1.1-126.82-.07 9.73 1.9 16.32 2.25 25.05 1.77 43.38-.5 88.55.9 131.74 1.65.76.93.62 2.07.73"/><path fill="#0b0308" d="M485.76 352.467c18.927 27.167 20.799 70.753-2.001 96.286l-.796-1.957c7.157-12.241 10.36-17.742 13.728-32.301 5.462-23.615-3.44-38.282-10.945-59.102z"/><path fill="#0b0308" d="M531.869 1829.93c7.205-4.9-.571-24.86 3.914-29.63.51 4.47.369 27.28-.158 33.24-.02.23-.24.22-.639.31-1.365-.5-2.485-2.69-3.117-3.92"/><path fill="#02030c" d="M608.715 49.45c6.757-.07 5.891 2.895 10.92 7.283 3.222 2.812 5.296 3.557 9.213 5.104-14.158 25.805-45.772 46.153-70.882 59.727-7.326-7.45-11.42-10.209-20.625-15.112-13.86-4.829-21.158-4.843-35.725-3.424 28.966-31.654 64.141-50.001 107.099-53.579"/><path fill="#02030c" d="M557.212 1924.1c14.831 5.94 69.783 44.1 70.023 58.99-8.051 3.51-8.533 2.67-12.721 10.94l-.562 1.13c-15.249-.52-21.848-1.85-36.711-5.67-32.291-10.12-52.66-23.64-75.94-47.86 24.637 2.83 37.445-.04 55.911-17.53"/><path fill="#02030c" d="M1493.14 1924.7c3.98 1.04 14.69 11.18 19.93 13.61 12.21 5.67 23.97 5.14 36.54 3.22-24.24 24.82-42.3 37.41-75.37 47.79-8.68 3.6-24.38 5.3-33.74 5.92-5.16-8.36-7.66-9.26-16.91-12.16 19.93-29.69 39-41.77 69.55-58.38"/><path fill="#02030c" d="M1440.59 49.936c40.63-.932 79.59 25.403 107.4 52.54-12.61-.994-19.33-.455-31.22 3.144-8.97 4.456-14.61 8.92-22.22 15.267-31.15-19.733-48.21-25.696-70.96-58.558 9.49-3.561 11.8-3.948 17-12.393"/><path fill="#02030c" d="M495.522 110.785c6.901 10.372-8.513 32.141 23.243 55.47-7.666 25.87-20.294 44.95-39.385 64.012-2.575 2.483-4.614 5.494-7.42 5.503-3.742-4.462-4.713-5.048-9.443-8.034l-1.268-.785c-1.276-5.984-.504-14.254-.389-20.478.652-35.26 12.559-68.208 34.662-95.688"/><path fill="#02030c" d="M472.199 1808.08c21.227 17.98 37.297 43.81 46.427 69.95-16.178 11.34-21.37 26.69-21.881 45.47l.034 13.19c-30.766-41.9-37.236-67.78-35.944-119.26 5.637-3.26 7.378-4.15 11.364-9.35"/><path fill="#02030c" d="M1579.75 1807.75c4.15 4.74 4.74 6.17 10.29 9.56.4 53.6-3.73 73.47-34.91 118.38l.56-12.97c-.05-4.29-.49-8.56-1.33-12.76-2.86-14.62-9.97-23.86-22.01-31.89 9.96-28.67 24.46-50.05 47.4-70.32"/><path fill="#02030c" d="M1554.25 133.176c.65-4.173.82-19.892 1.34-20.457l.38-.003c1.52.81 2.57 2.982 3.42 4.411 25.81 35.072 30.9 67.98 30.58 109.873-5.58 3.624-6.79 4.695-9.83 10.586-20.48-19.747-40.33-42.787-47.23-71.152 12.04-8.041 18.82-19.117 21.34-33.258"/><path fill="#0b0308" d="M1554.25 133.176c.65-4.173.82-19.892 1.34-20.457l.38-.003c1.52.81 2.57 2.982 3.42 4.411-6.38 3.757 1.78 10.949-5.14 16.049"/><path fill="#121627" d="M921.926 148.007c46.091 2.577 51.56 32.095 95.624 50.194.87 40.785 7.01 71.669 33.76 102.965a404 404 0 0 1-35.27-19.295c-.1-16.95-.73-30.419-7.62-46.166-12.913-29.499-32.879-48.749-63.098-59.447 5.368 11.016 9.743 28.784-3.733 36.656-1.105.645-2.094.668-3.328.651-1.494-2.416.215-8.408.77-12.023-8.963-18.996-27.254-14.575-42.987-6.582-41.685 21.176-54.732 71.792-34.005 112.771a93.52 93.52 0 0 0 54.03 46.16c2.209.716 4.366 1.408 6.633 1.928-7.782 31.74-5.505 61.177 11.998 89.655a95.6 95.6 0 0 0 21.458 24.471c3.862 3.082 12.528 7.178 13.29 9.578-13.629 3.287-36.824-10.706-53.015-15.261-.035-13.203-.604-24.231-4.571-37.024-5.066-16.339-14.971-35.04-34.662-34.965-4.577.063-10.004 1.492-14.523 2.436 13.513-16.44 15.98-32.55-6.827-41.101 1.008-24.009-3.448-40.539-31.403-40.557l-1.125.007c.071-10.015.942-20.646-7.336-27.779-16.942-14.6-56.84-12.633-72.291 3.449-1.409 1.467-4.226 5.778-5.308 7.417-5.66-7.915-9.888-12.196-20.267-13.501-11.111-1.396-27.89.242-39.07 1.684-1.446 18.894-5.068 47.944 7.973 62.807-15.096 15.344-13.579 35.345-14.443 55.372-.936 21.675 9.607 35.922 32.204 27.094 1.683-.633 1.559-.473 3.562-.575 2.162 7.342-.313 9.326 4.086 16.874 8.838 15.167 27.159 18.925 41.214 8.427 8.496 24.746 24.504 39.483 48.536 20.189-5.885 37.937 24.018 42.623 53.985 42.972 1.226 6.195 1.786 8.218 3.915 14.171 3.763 10.525 16.069 28.421 12.468 39.174l-.646.61c-7.68-.333-9.718-10.874-14.136-16.309-30.69-37.753-67.224-47.873-113.161-34.96-6.967-15.173-12.516-24.396-24.829-35.82-26.501-24.819-63.427-34.347-96.982-18.051-18.529 8.999-34.555 25.143-41.465 44.857-4.309 12.296-8.905 37.027 7.496 41.93 10.35 3.094 15.222-3.116 20.928-10.464 2.339 1.196 4.479 2.188 4.855 5.094 2.589 20.023-16.429 21.45-29.234 21.261 21.342 35.821 56.53 47.386 96.566 45.774 4.611 15.171 22.989 48.185 20.647 58.449l-1.649 1.223c-6.524-2.136-10.624-13.305-15.236-18.65-23.001-26.656-46.161-30.124-77.619-30.259-7.908-9.928-24.639-23.487-34.939-31.756-6.749 7.953-12.667 15.406-23.536 17.017-1.913-1.098-1.083-.335-2.368-2.413a53 53 0 0 0-3.677 1.142c-2.363-3.155-.735-3.816.4-6.985 3.705-10.343-1.711-24.384-2.624-35.242-.075-.865 1.985-2.488 2.856-3.207-6.29-18.215-47.773-49.226-65.238-58.687-3.479-13.304-5.934-25.759-8.617-39.252 31.868 12.59 44.744 21.312 66.273 49.177 6.967 9.018 13.992 17.658 20.434 27.431-.016-41.496 7.122-66.877 36.722-96.753q.957-.964 1.927-1.917c-36.48-34.92-39.314-85.861-32.629-131.904.146-1.001-2.621-4.446-3.37-5.374-.329-3.756-.974-2.543.636-4.738 8.666-.401 9.651 1.025 14.723-6.449 1.596-2.094 3.014-3.022 4.981-4.67l1.986-1.69c8.072-6.955 17.281-9.952 27.15-13.805-3.298-14.416-6.619-28.631-11.669-42.886-3.086-8.707-9.161-31.389 5.702-33.741 8.897-1.407 19.094 8.318 27.094 11.063 10.735 3.989 22.769 5.396 33.338 8.725 1.795-6.235 3.545-10.305 6.362-16.129 4.064-8.399 9.053-11.374 7.638-21.048l1.215-1.944c2.952-.537 3.575-.221 6.511.279 6.445-2.928 11.006-8 17.657-11.186 36.83-17.647 78.086-7.523 109.836 15.796 8.016 5.887 16.473 13.664 24.579 18.988 25.78-17.192 64.937-34.289 84.488-55.353"/><path fill="#02030c" d="m721.458 190.363 2.014-.375c8.137-1.564 10.88-1.169 18.885-.069 8.303 4.452 6.385 6.818 11.145 13.864 3.457-.066 2.129-6.006 7.539-10.612 11.605-3.074 24.563 3.426 31.2 13.003.212 12.249.032 14.509-5.293 25.108 16.956-10.537 24.001-14.513 32.102-33.211-3.237 18.803.466 23.065 2.284 41.815.774 7.985.808 18.151.808 26.333-16.213 1.073-32.849 2.546-49.097 2.307-19.4-.286-28.048-4.622-35.078-22.284a74 74 0 0 1-1.88 3.354c-13.61 22.627-56.112 22.928-61.336-5.277-4.462-24.087 24.425-50.663 46.707-53.956"/><path fill="#0b0308" d="m721.458 190.363 2.014-.375c8.137-1.564 10.88-1.169 18.885-.069-10.254 3.927-10.204 2.116-20.899.444"/><path fill="#121627" d="M718.057 193.968c2.388 2.329 2.702 21.635 2.769 25.666-6.44-1.648-12.356-3.963-19.072-5.562-3.775-1.25-7.599-2.134-11.454-3.091 10.257-7.945 15.387-11.807 27.757-17.013"/><path fill="#02030c" d="M625.008 282.027a52.8 52.8 0 0 1 11.562-.266 24.87 24.87 0 0 1 16.882 8.75c7.756 9.37 7.711 25.608 4.533 36.798-2.458 8.656-6.27 12.008-12.843 17.347 29.614 12.27 17.148 57.489 14.2 82.325-10.795-.081-17.627-.41-28.42-1.417-5.176-1.687-9.935-2.818-14.549-5.852-25.174-16.554-43.861-53.801-10.558-73.08-29.594-14.652-8.667-57.567 19.193-64.605"/><path fill="#121627" d="M639.668 361.499c.047 2.395-.291 6.366.31 8.599l.443.418c2.04-3.877-.237-7.674 4.402-15.075 11.04-17.614 15.957 17.034 16.183 24.559.447 14.882-1.94 28.841-4.27 43.753-3.675-.039-7.421-.158-11.114-.231-1.86-3.042-8.788-18.389-8.501-18.088a789 789 0 0 1-23.359-2.512c.808-8.31 2.067-16.612 3.005-24.925l1.743-14.662c5.885-.73 11.316-1.466 17.029-3.069 2.56-.719 3.813-1.774 4.129 1.233"/><path fill="#fc543f" d="M618.51 363.335c5.885-.73 11.316-1.466 17.029-3.069 2.56-.719 3.813-1.774 4.129 1.233-.459 3.639-.526 6.935-1.337 10.505-1.764 7.765 1.13 26.741-1.21 33.43a789 789 0 0 1-23.359-2.512c.808-8.31 2.067-16.612 3.005-24.925z"/><path fill="#121627" d="M622.313 285.76c4.308.932 3.8 6.35 4.465 10.748 1.272 8.413 3.658 16.769 5.008 25.008l1.17 6.773c-7.097 7.298-14.973 12.3-24.395 16.218-5.848-2.815-10.807-5.06-12.43-11.996-4.836-20.665 8.007-38.994 26.182-46.751"/><path fill="#121627" d="M604.526 405.094c2.398-.056 5.109-.239 7.466.108q5.49.842 11.009 1.463c4.165.484 7.459.966 11.71 1.363 2.084 5.521 4.635 10.4 6.599 15.579-15.955-2.372-26.19-4.803-36.784-18.513"/><path fill="#121627" d="M595.418 391.564c4.298 1.54 12.907 6.153 15.139 10.205-10.639 2.929-9.725.432-15.139-10.205"/><path fill="#121627" d="M1117.7 167.44c-7.03-11.372-23.58-43.337-17.22-56.97-2.72-1.277 26.05 27.837 29.22 30.63 1.42 22.364 21.31 28.925 40.36 32.854 3.34.689 6.67-.152 10.74.67 6.4 16.982 21.27 17.403 35.13 29.179 41.03-35.855 85.52-59.152 138.69-33.493 1.02.641 2.04 1.262 3.08 1.862 1.34 1.263 5.22 5.649 6.8 4.637 4.28-2.739 18.97 5.121 17.38 9.968-3.72 11.367 2.44 19.096 5.95 31.248 8.92-2.467 17.2-3.901 26.58-6.634 11.35-3.306 26.47-19.915 38.88-12.929 2.85 1.605 5.01 7.12 4.98 10.083-.3 23.438-13.79 40.096-16.26 65.123 18.44 5.986 30.04 13.32 43.29 27.915 3.97-2.354 4.18-3.422 7.93-3.221 1.71 4.148-2.93 11.271-5.38 14.76 9.55 24.156 6.31 65.919-4.49 89.541-7.91 17.296-15.96 27.517-28.9 40.943 31.66 35.411 38.57 51.159 40.6 99.989 28.26-41.751 38.6-58.877 87.1-77.199-3.13 12.724-6.55 26.428-8.99 39.29-29.57 16.666-54.86 37.446-72.5 66.948-8.32 13.927-12.79 22.171-2.09 36.033-7.9 1.421-16.66-10.468-20.45-16.392-10.4 10.668-26.08 23.575-34.53 33.594-30.55-.153-52.8 1.021-76.85 23.716-8.88 8.382-10.82 20.405-18.7 24.406l-1.58-.37c-3.29-9.911 16.36-46.663 20.85-60.266 45.72 2.09 69.62-6.361 97.39-44.431-9.14.055-17.62.08-25.02-6.292-5.33-4.586-3.98-16.027.86-20.179 4.14 1.419 4.52 5.503 7.8 8.207 3.15 2.601 9.1 3.231 12.78 1.325 18.47-9.574 9.09-39.504 1.95-54.022-40.45-67.21-134.3-42.73-160.48 21.531-28.67-7.675-54.37-6.722-80.58 8.294-12.92 7.397-23.69 18.27-32.83 29.906-4.29 5.473-3.33 11.698-10.92 13.735-7.24-5.094 12.32-43.843 14.62-54.652 15.87-.79 36.69-1.277 48.35-13.862 7.53-8.12 7.1-16.405 6.94-26.583 24.74 13.408 40.09 4.385 47.36-22.082 21.54 15.135 46.39-1.238 46.69-26.061 4.94-.007 11.29.148 16.1-.129 8.62-5.342 15.21-11.665 16.89-22.193 3.38-21.101 3.03-44.323-12.81-60.179 15.53-14.25 11-43.626 9.28-63.289-15.59-1.059-42.62-4.966-55 5.879-2.15 1.89-4.4 6.32-5.8 8.996-13.48-25.552-45.35-23.749-70.59-21.086-15.61 11.215-11.47 20.55-14.68 37.54-10.67 1.806-17.59 3.544-24.94 12.537-5.76 7.047-3.91 22.546-5.83 24.936-6.06 7.56-22.06 8.615-18.71 24.469 1.43 6.753 5.57 13.404 10.05 19.13-9.58-2.683-20.25-5.157-29.07.684-21.07 13.968-23.72 46.129-24.57 68.115-10.89 4.084-42.99 18.927-51.53 16.041 1.34-2.563 14.18-10.852 19.05-16.132 27.8-30.105 36.89-67.756 27.14-106.951 37.44-14.438 62.52-34.894 68.33-76.861 4.04-23.335 4.4-40.268-7.59-60.816a58.67 58.67 0 0 0-19.3-23.013c-17.25-12.382-40.33-18.185-54.68 1.792-11.66-15.068-4.29-16.478 3.73-30.219"/><path fill="#02030c" d="M1409.01 282.149c18.67-1.249 34.11 2.459 44.46 19.219 11.92 19.309 11.52 34.939-7.35 47.109 26.07 11.114 19.66 36.987 7.09 56.146-5.84 8.91-12.23 13.546-21.34 18.778-15.68 5.84-25.12 5.548-41.73 5.701-2.48-19.841-7.06-53.508 1.94-71.56 4.08-8.189 9.86-10.391 17.98-12.61-23.28-15.387-28.7-50.318-1.05-62.783"/><path fill="#121627" d="M1441 291.98c11.99 9.906 17.66 23.512 16.76 38.95-7.55-9.618-8.09-9.024-17.48-16.611.25-6.927.21-15.623.72-22.339"/><path fill="#0b0308" d="M1264.43 231.308c-4.55-6.93-6.94-11.191-5.34-19.755 2.83-15.124 18.57-22.018 32.66-21.016 2.62.186 7.72 5.962 9.39 7.764 1.4-2.831 5.13-10.147 8.94-10.261 20.94-.626 42.47 7.167 55.61 24.142 29.58 38.211-11.9 71.048-46.41 43.265-1.31-1.051-2.3-2.509-2.94-4.128l2.43-.654-.9-.148c-2.32-2.392-2.88-3.172-5.85-4.87-3.34 2.035-4.12 8.554-8.83 12.983-15.93 14.971-47.78 7.94-69.3 7.198a207.4 207.4 0 0 1 4.45-46.084c.44-1.748.85-3.502 1.24-5.262 8.59 9.515 12.43 12.067 24.85 16.826"/><path fill="#121627" d="M1318.77 250.665c7.65 2.528 44.62 3.216 46.25 4.922-.2.987-1.72 1.999-2.5 2.644-15.14 5.865-32.76 6.006-43.75-7.566"/><path fill="#121627" d="M1308.74 191.172c27.06-1.013 50.07 10.591 62.05 35.623-6.08 3.228-14.6 8.838-20.66 12.568a1132 1132 0 0 0-31.18-10.378c5.06-2.304 13.93-6.779 18.2-10.044l-1.58-.081c-6.96 2.493-17.26 7.464-24.27 10.589-8.01-1.708-20.4-5.104-28.52-3.581-13.79 2.36-21.66 7.537-20.93-12.06.51-13.715 17.14-21.539 29.19-20.161 6.82 3.573 6.04 9.303 12.03 12.083 3.55-3.218-.04-8.639 5.67-14.558"/><path fill="#fc543f" d="M1272.11 230.181c22.08-1.191 15.14.851 36.51 4.461-2.59 15.628-.17 16.488-15.74 16.508-11.46-7.676-6.32-4.612-16.37-2.985-.06.009-17.03-11.315-17.23-11.669 1.46-2.879 8.18-1.366 9.83-3.436 1.02-1.289 1.76-1.849 3-2.879"/><path fill="#121627" d="M1282.37 249.408c3.75-.656 8.01 4.901 14.61 4.308 20.78-1.923-15.27 15.605-20.48 10.272-.49-.496-14.76-1.18-16.72-.455l-1.2.288c-3.76.93-21.61 1.913-21.1-4.247.64-7.682 7.71-6.665 14.3-8.961q1.815.808 3.6 1.681c1.13.543 2.22 1.073 3.36 1.589 7.77-1.165 16.67-1.335 23.63-4.475"/><path fill="#fc543f" d="M1316.75 247.301c-2.62-4.41-10.84-19.316 1.71-14.452 11.27 4.367 23.75 7.752 34.86 12.266-.83 2.385-.99 3.833-1.9 6.311-13.58-1.059-21.15-1.242-34.67-4.125"/><path fill="#121627" d="M1370.27 230.061c3.04 1.403 2.54 8.772 2.12 11.441-1.68 10.649-.58 13.012-9.41 6.358a276 276 0 0 0-11.5-6.786c6.23-3.763 12.39-7.563 18.79-11.013"/><path fill="#fb4639" d="M1353.32 245.115c1.74.86 8.88 4.028 9.08 6.113-.77 1.168-9.26.277-10.98.198.91-2.478 1.07-3.926 1.9-6.311"/><path fill="#0b0308" d="M1238.34 219.744c-.32-2.378-2.96-11.022-1.8-12.053 1.45.036 2.95 5.515 3.04 6.791-.39 1.76-.8 3.514-1.24 5.262"/><path fill="#fc543f" d="M1130.19 237.178a23.8 23.8 0 0 1 9.83-4.995c7.41-1.645 41.89-13.83 45.45-12.893l2.48-.41c11.99 20.548 11.63 37.481 7.59 60.816l-1.91-2.184c-2.29 12.18-3.14 6.612-13.38 13.766-6.71 4.687-11.76 1.492-17.88-.465l-3.14.497-1.6-.662c-8.64-3.524-10.42-5.021-20.14-6.592-16.85-2.722-32.72-11.421-48.83-16.604-4.25-1.367-11.93-4.908-15.67-5.604l-1.99-.352c-3.1-.572-5.9-.854-9.03-1.285l6.05-.283.67-1.402c-2.16-.243-3.6-.223-5.8-.24-.5-1.697-.91-3.167-1.53-4.82 31.89-12.765 28.97-25.683 67.12-13.001z"/><path fill="#fc543f" d="M1150.84 253.109c7.46-1.984 14.47-4.787 21.89-6.964 12.28 7.426 8.78 6.4 22.84 11.529-.5 7.332-1.28 12.71-1.94 19.838-2.29 12.18-3.14 6.612-13.38 13.766-6.71 4.687-11.76 1.492-17.88-.465l-.34-.374c-3.25-3.529-10.24-31.799-11.19-37.33"/><path fill="#fc543f" d="M1130.19 237.178a23.8 23.8 0 0 1 9.83-4.995c7.41-1.645 41.89-13.83 45.45-12.893l.89 1.835.69 1.366 2.35 4.895c4.29 8.954 5.28 17.584 5.91 27.298-11.95-4.49-11.82-5.403-22.52-11.758l-21.57 6.861-1.75-1.046c-5.31-3.026-14.67-8.123-19.28-11.563"/><path fill="#0b0308" d="m1185.47 219.29 2.48-.41c11.99 20.548 11.63 37.481 7.59 60.816l-1.91-2.184c.66-7.128 1.44-12.506 1.94-19.838-14.06-5.129-10.56-4.103-22.84-11.529-7.42 2.177-14.43 4.98-21.89 6.964.95 5.531 7.94 33.801 11.19 37.33l.34.374-3.14.497-1.6-.662c-8.64-3.524-10.42-5.021-20.14-6.592-16.85-2.722-32.72-11.421-48.83-16.604-4.25-1.367-11.93-4.908-15.67-5.604l-1.99-.352c-3.1-.572-5.9-.854-9.03-1.285l6.05-.283.67-1.402c15.95.599 44.96 18.491 61.86 21.162 1.52.241 3.44.758 4.96 1.14l4 .897c6.23 1.34 12.17 3.342 18.23 5.297-5.26-13.796-7.66-20.899-10.43-35.469-6.24-4.02-13.54-7.616-18.83-11.088l1.71-3.287c4.61 3.44 13.97 8.537 19.28 11.563l1.75 1.046 21.57-6.861c10.7 6.355 10.57 7.268 22.52 11.758-.63-9.714-1.62-18.344-5.91-27.298l-2.35-4.895-.69-1.366z"/><path fill="#fb4639" d="m1590.3 567.295 1.11 1.677c-.55-6.6 2.21-11.081 2.71-17.691l1.09.776c.72 11.115-.44 48.746 1.89 57.225 1.14 15.737.35 42.311.34 58.7v110.772l-.02 355.476.14 221.07-.03 67.55c-.01 6.22.34 26.5-.4 31.85-1.14-.11-.42.03-2.07-.73-1.4-43.19.87-88.36-.9-131.74-.35-8.73-2.32-15.32-2.25-25.05-3.08 21.1 2.74 117.82-1.1 126.82-.16.39-.36.78-.54 1.16-.94-33.72-.12-71.89-.1-105.88l.03-198.76z"/><path fill="#121627" d="M1058.97 270.478c-1.54-6.381-4.59-11.232 3-10.267 3.13.431 5.93.713 9.03 1.285l1.99.352c3.74.696 11.42 4.237 15.67 5.604 16.11 5.183 31.98 13.882 48.83 16.604 9.72 1.571 11.5 3.068 20.14 6.592l1.6.662c-.12 2.27-.73 3.1-3.21 3.635-5.3.169-17.64 9.225-21.52 9.313-9.07.205-23.59-.44-32.59-.508-5.04-3.792-9.96-7.294-15-11.171l-5.93-4.491c-7.88-5.953-14.71-10.87-22.01-17.61"/><path fill="#121627" d="M482.963 446.796c-.574.2-.979.469-1.442.304-.708-.907-.054-4.811-.007-6.089.58-15.715.052-27.263.211-43.511.087-14.844-.657-29.872-.265-44.65.043-1.629 3.027 1.472 3.024 1.469l1.262 1.074c7.505 20.82 16.407 35.487 10.945 59.102-3.368 14.559-6.571 20.06-13.728 32.301"/><path fill="#fc543f" d="M571.729 279.49c2.283 2.289 6.312 5.821 8.043 8.156-3.056 2.048-4.706 3.443-7.986 5.347-8.881.033-13.068 2.871-16.707-4.573 6.9-4.438 8.674-5.821 16.65-8.93"/><path fill="#0b0308" d="M553.197 291.343c.232-.846.558-3.08.995-3.536.515.112.174-.001.887.613 3.639 7.444 7.826 4.606 16.707 4.573 3.28-1.904 4.93-3.299 7.986-5.347l2.253 1.602-1.986 1.69c-1.967 1.648-3.385 2.576-4.981 4.67-21.97-1.276-16.627-3.467-16.917 10.133-2.291-4.554-3.854-9.413-4.944-14.398"/><defs><linearGradient id="a" x1="548.757" x2="541.005" y1="306.983" y2="308.835" gradientUnits="userSpaceOnUse"><stop offset="0" stop-color="#090813"/><stop offset="1" stop-color="#1d233c"/></linearGradient></defs><path fill="url(#a)" d="M550.43 307.039c-2.212 4.838 2.038 5.313 1.26 7.553-.92.817-14.068 1.714-10.707-2.613.928-1.195 2.827-9.257 3.541-9.68 2.142.893 1.947 1.203 4.25 1.332 1.231 1.277 1.19 1.588 1.656 3.408"/><path fill="#fb4639" d="M1195.08 1980.63c1.54-8.43 2.11-14.45 7.2-22.05 2.56.94 2.83 1.13 5.04 2.56-7.66 10.43-5.89 7.79-12.24 19.49"/><path fill="#bd433c" d="M1574.9 457.014c2.34 1.676 4.72 3.287 7.13 4.865q1.89 1.22 3.81 2.419c-4.52-1.397-8.12-2.562-12.45-4.498z"/><path fill="#bd433c" d="M852.248 75.015c1.318-3.076 2.98-6.164 3.281-9.538.155 5.147 1.467 4.621-.652 10.641z"/><path fill="#fb4639" d="M1062.89 258.286c-5.45-1.384-6.65-1.321-1.53-4.82.62 1.653 1.03 3.123 1.53 4.82"/><path fill="#bd433c" d="M1572.35 1587.39c1.07-.47 5.7-2.91 6.77-1.91-.03 1.14-3.64 3.37-4.44 3.88z"/><path fill="#bd433c" d="M853.92 1971.66c.106 1.04.996 5.58.572 6.35l-.115.07c-1.025-.62-2.264-3.62-2.841-4.67z"/><path fill="#0b0308" d="m1357.91 168.798.98 1.192-1.19 2.182c-1.04-.6-2.06-1.221-3.08-1.862z"/><path fill="#121627" d="M1367.27 1427.9c-3.97-10.43-28.08-54.18-19.5-60.29 9.16 1.91 7.17 10.84 15.3 19.56 25.01 26.81 45.32 29.74 79.87 30.71 3.32 3.8 32.48 30.02 36.65 32.49 8-7.89.96-8.36 15.58-17.15 3.64-2.37 2.46 1.28 5.35 1.75 1.21-.61 3.07-2.58 4.32-2.42.36.42-1.01 7.01-1.23 7.94-2.11 8.86 2.73 18.01 4.45 26.99 2.02 10.58 2.08 5.31.22 15 17.36 21.25 38.46 41.22 62.81 54.11 4.16 14.29 8.11 26.77 13.37 40.73-48.83-18.74-57.26-31.76-89.18-73.54-1.89 36.2-10.81 72.09-39.81 96.47 23 18.78 34.21 45.7 37.04 74.75 1.79 19.17-.01 38.51-5.31 57.02l.27-.56c7.44 15.46 9.83 26.57 7.98 43.63-9.27 13.61-24.75 20.72-32.28-.19-1.44-4.02 3.26-6.37-.11-11.72-6.13-.36-14.92 4.25-21.21 6.38.61 3.91 3.41 23.45 5.15 26.7 10.94 20.4 25.09 65.63-17.31 41.39-9.4-5.37-31.96-17.27-43.31-10.84-5.16 12.74-7.78 19.69-14.66 31.59 1.72 6.9 4.2 15.83 5.11 22.68-9.58-2.54-20.83-2.72-12.81-13.99l-.36-1.29c-7.78 2.8-16.09 11.17-24.36 13.39-30.08 8.07-58.04.12-85.15-13.19-14.64-7.19-25.88-16.12-39.87-23.66-11.85 9.63-27.49 20-40.17 29.09-7.75 5.55-35.09 12.28-40.62 21.41l1.78 1.18c-.18 3.24-.64 6.14.28 9.2.9-5.11-.07-9.98 3.57-12.04 9.01-5.1 32.57-16.41 41.97-19.26 3.82 1.09 8.39 2.25 12.06 3.59-33.36 19.51-41.13 55.29-21.71 88.47 7.22 12.33 14.22 13.99 23.17 23.17-18.55-3.93-37.02-9.81-47.95-26.64a626 626 0 0 1-7.1-11.26c-.36.97-.72 1.93-1.09 2.9-1.92-1.31-1.21-.41-1.97-2.8l-1.78 2.3c-19.25 1.37-64.33-.11-85.12-.27-42.56-.22-85.13.03-127.691.77 6.618-20.16 9.708-29.6-.144-49.69 19.791-3.68 34.55-11.38 50.941-23 .488-.34 2.743.25 3.322.48l2.235-1.06-2.74-2.6-1.583-2.19c7.289-7.8 28.45-18.23 37.85-22.86 4.16-2.05 3.94-3.11 5.14-7.07l.99-.91c1.37-1.28.85-.74 2.02-2.13l.7 3.92c.42-4.59 1.22-9.08 1.73-13.7 5.5-2.66 10.3-5.61 15.67-8.43l1.75 1 1.75 1.03c8.66 5.03 21.15 8.18 30.89 10.53 2.48 8.39 7.9 17.49 7.35 25.44.53 3.35.41 4.97 1.95 7.87 2.06-17.66 2.23-13.93-4-31.13 5.62 1.44 16.9 3.44 21.65 5.76 8.39 4.1 17.06 8.85 25.66 12.91.99.35 1.93.58 2.95.86l4.38.6c.88 1.68 1.84 3.17 3.02 4.66 5.25-.81 10.39-2.28 15.27-4.37 42.38-18.29 61.68-73.08 41.58-114.22-14.59-29.85-33.61-45.24-64-57.14 10.71-40.37.72-84.25-32.35-111.65-4.48-3.71-10.02-7.15-14.9-10.39 8.17-5.22 43.22 10.18 53.6 13.83-1.4 21.81 4.64 56.29 25.61 69.04 8.58 5.22 17.29 3.05 26.38.62-1.47 1.96-4.36 5.85-5.13 7.45-10.81 22.6-2.48 23.36 13.26 34.51 2.32 1.64 1.48 16 3.45 21.67 5.05 14.49 18.01 12.48 28.07 17.83 5.02 7.91-.98 19.9 11.81 27.32 22.71 13.16 59.34 15.08 74.27-10.32 4.13 5.96 5.67 9.92 12.87 11.74 8.74 2.2 38.56 2.93 45.36-1.33 2.18-2.98 3.65-6.63 3.61-10.29-.25-19.69 2.71-35.24-10.59-50.87 12.6-8.21 13.39-22.09 13.8-35.95.12-14.05.85-33.12-12.12-42.2-7.29-5.1-13.78-4.13-21.54-3.15-1.03-9.19-1.92-15.75-7.01-23.78-8.83-13.9-27.04-14.22-39.67-4.76-9.64-22.88-26.37-33.51-48.67-17.48l.07-1.89c.38-10.14.75-18.72-7.18-26.65-11.2-11.19-31.73-12.38-46.55-12.63-4.89-17.78-13.66-31.48-18.2-48.88-.6-2.29.73-3.49 2.1-4.91 2.1-.28 3.03-.91 3.93.13 3.51 4.2 6.57 9.33 9.62 13.95 24.53 37.21 70.59 51.81 112.57 37.2 20.41 41.7 60.99 69.83 108.58 58.42a77.95 77.95 0 0 0 48.46-35.45c8.04-13.5 18.13-46.77.33-57.17-5.32-3.11-16.41-2.58-18.56 4.28-.65 2.06-.94 2.18-2.62 3.6-8.45-4.24-7.33-12.22-1.68-18.48 6.75-7.47 15.19-6.96 24.45-6.91-10.27-21.11-29.25-33.09-50.95-40.62-15.42-5.35-29.42-5.07-45.45-4.64"/><path fill="#fc543f" d="m1038.04 1822.91 1.75 1 1.75 1.03c8.66 5.03 21.15 8.18 30.89 10.53 2.48 8.39 7.9 17.49 7.35 25.44-.86 5.52-1.13 11.46-1.96 17.36 7.58 2.71 15.03 6.33 22.52 9.45-.87 4.13-3.85 9.51-.1 11.66.71.41 1.9 1.06 1.77 1.99-1.31 1.04-10.37.07-13 .64-8.67 1.86-17.82 5.65-26.51 6.97l-3.76.56c-6.3-2.49-11.8-5.72-18.25-7.37-4.17-1.06-8.26-1.98-12.25-3.7l-1.67-.74-1.78-.75c-13.03-28.52-9.95-23.21-4.15-51.94.42-4.59 1.22-9.08 1.73-13.7 5.5-2.66 10.3-5.61 15.67-8.43"/><path fill="#0b0308" d="M1077.73 1837.65c5.62 1.44 16.9 3.44 21.65 5.76 8.39 4.1 17.06 8.85 25.66 12.91.99.35 1.93.58 2.95.86l4.38.6c.88 1.68 1.84 3.17 3.02 4.66l-14.85-.4c-1.89 11.09-6.59 24.27-10.88 34.65l-.02-.46-4.45 11.22c-.61-2.25-.4-1.05-.58-3.61-17.22-1.82-32.02 6.75-47.77 8.38-11.77-6.53-19.87-7.7-32.02-12.55-3.09-1.23-5.93-9.38-7.66-10-12.35-4.46-32.285 2.33-41.132-9.73l2.235-1.06-2.74-2.6-1.583-2.19c7.289-7.8 28.45-18.23 37.85-22.86 4.16-2.05 3.94-3.11 5.14-7.07l.99-.91c1.37-1.28.85-.74 2.02-2.13l.7 3.92c-5.8 28.73-8.88 23.42 4.15 51.94l1.78.75 1.67.74c3.99 1.72 8.08 2.64 12.25 3.7 6.45 1.65 11.95 4.88 18.25 7.37l3.76-.56c8.69-1.32 17.84-5.11 26.51-6.97 2.63-.57 11.69.4 13-.64.13-.93-1.06-1.58-1.77-1.99-3.75-2.15-.77-7.53.1-11.66-7.49-3.12-14.94-6.74-22.52-9.45.83-5.9 1.1-11.84 1.96-17.36.53 3.35.41 4.97 1.95 7.87 2.06-17.66 2.23-13.93-4-31.13"/><path fill="#fc543f" d="M1077.73 1837.65c5.62 1.44 16.9 3.44 21.65 5.76 8.39 4.1 17.06 8.85 25.66 12.91-1.48 1.29-2.55 1.84-4.25 2.87-.84.11-1.57.1-2.31.42-1.24 3.18-1.55 8.28-2.77 11.83-2.72 7.95-5 16.02-7.78 23.96l-.58-1.71c-1.1-3.29-4.27-13.98-8.77-11.15-1.49.94-16.35-5.39-17.01-6.37-.49-.72.2-5.63.16-7.39 2.06-17.66 2.23-13.93-4-31.13"/><path fill="#fc543f" d="M1015.82 1852.67c-1.89 6.3-3.1 11.93-4.53 18.33l.64 1.5c2.01 4.45 3.63 9.57 5.28 14.19-12.83-1.53-29.185.41-38.947-7.81l-2.74-2.6c16.25-12.07 22.159-15.19 40.297-23.61"/><path fill="#fb4639" d="M1125.04 1856.32c.99.35 1.93.58 2.95.86.66.53 1.49.97 1.65 1.85-.48 1.44-7.46.25-8.85.16 1.7-1.03 2.77-1.58 4.25-2.87"/><defs><linearGradient id="b" x1="1495.372" x2="1508.15" y1="1458.803" y2="1455.782" gradientUnits="userSpaceOnUse"><stop offset="0" stop-color="#000002"/><stop offset="1" stop-color="#1b1e35"/></linearGradient></defs><path fill="url(#b)" d="M1495.17 1433.22c3.64-2.37 2.46 1.28 5.35 1.75 1.21-.61 3.07-2.58 4.32-2.42.36.42-1.01 7.01-1.23 7.94-2.11 8.86 2.73 18.01 4.45 26.99 2.02 10.58 2.08 5.31.22 15-23.08-28.14-10.38-44.03-13.11-49.26"/><path fill="#02030c" d="M1232.91 1776.02c21.23 1.5 50.02-3.84 68.07 5.51 6.49 3.36 8.03 8.69 9.6 15.31 11.22-16.37 29.8-23.46 48.58-15.06a28.3 28.3 0 0 1 15.42 16.71c8.74 25.65-15.72 46.28-37.33 53.98-7.65 2.45-20.4 5.29-27.86 1.62-5.95-2.93-6.4-5.91-8.47-11.85-2.62 3.37-4.61 6.5-8.58 8.17a23 23 0 0 1-17.61-.02c-18.13-7.52-16.5-24.29-9.12-39.02-20.02 11.91-23.23 20.04-30.77 40.79.68-4.57 2.88-15.81 2.47-19.86-1.93-19.46-4.45-36.45-4.4-56.28"/><path fill="#121627" d="M1367.01 1824.87c.42.29.27.12.48.47.07 4.86-14.02 15.94-18.23 18.69-2.14-2.19.9-14.22 1.23-18.5 5.82-.07 10.71-.32 16.52-.66"/><path fill="#121627" d="M1304.72 1843.91c5.58.51 11.04 1.18 16.66 1.62 1.98.16 17.18 1.26 17.25 2.44-.38.62-.63.67-1.33 1.09-9.25 2.78-26.88 8.01-31.86-3.6z"/><path fill="#02030c" d="M1389.98 1615.29c32.06.87 75.26 8.44 70.73 56.25-.84 8.89-9.23 14.22-16.52 18.45l1.78 1.07c23.52 13.85 16.81 41.71.37 58.53-18.28 15.72-53.05 18.62-55.31-12.07-1.58-21.27 4.1-26.55 16.01-41.54-.75-3.1-7.29 1.06-13.14-8.07-10.13-15.8-6.81-55.05-3.92-72.62"/><path fill="#121627" d="M1440.52 1692.71c13.64 2.29 23.07 22.87 13.04 21.37l-1.1-.88c-8.22-6.45-9.84-9.07-19.51-14.6 2.97-2.18 4.77-3.54 7.57-5.89"/><path fill="#121627" d="M1454.48 1651.53c6.77 5.9 4.19 23.12-2.3 29.98-.54-.32-4.65-2.51-4.7-3.04-.72-7.12 4.41-20.64 7-26.94"/><path fill="#121627" d="M1443.12 1729.98c4.33.02 8.66.09 12.98.23-1.91 3.73-3.11 6.08-5.13 9.7l-.94 1.7c-.97 1.2-4.04 5.81-5.68 5.67-.29-.03-.55-.16-.75-.37-1.14-1.24-.54-14.57-.48-16.93"/><path fill="#0b0308" d="M1103.41 1918.69c1.12 4.27.09 8.51.81 10.66 1.78 1.02 3.89-.89 5.62 1.53l1.13 1.63c-11.07 7.06-7.69-6.34-7.56-13.82"/><path fill="#121627" d="M626.876 1344.64c1.929-1.85 6.683-3.89 9.078-2.56 19.371 10.74 29.747 31.26 36.883 51.08 1.623.97 3.672 2.09 5.146 3.19 8.408-9.2 13.092-16.72 19.467-27.37 1.035-1.73 2.607-1.94 4.368-2.46 9.469 5.68-17.33 51.37-20.813 60.72-47.799-1.49-65.848 10.72-96.598 45.97 9.575-.32 17.704-1.07 25.278 5.89 4.883 4.48 7.436 10.22 4.557 16.45-3.053 2.45-1.415 1.85-4.856 2.44-5.925-7.27-15.551-15.23-23.79-4.96-17.462 21.78 2.083 59 21.229 73.58 18.155 14.64 38.901 19.73 61.935 17.33 37.704-3.95 60.675-27.3 77.714-59.19a98.73 98.73 0 0 0 76.777-5.31c10.884-5.46 15.932-9.38 24.467-17.75 7.275-7.15 18.218-28.99 25.627-29.96 4.695 8.16-7.92 29.71-10.987 38.01-2.306 6.24-3.832 10.4-5.318 17.08-14.779.45-37.544 3.04-48.179 14.57-7.012 7.6-6.875 17.44-6.169 27.16-21.781-15.26-38.809-6.74-47.218 17.28-26.176-11.63-44.974-1.61-44.754 27.88-9.973.05-18.056-.32-25.977 7.26-8.936 8.56-9.289 22.78-9.139 34.4.101 7.82 1.016 14.85 1.858 22.88.832 7.93 7.762 12 10.625 18.21-.02-.04-3.452 6.61-4.083 7.55-6.845 10.16-5.458 43.37-3.245 55.51 13.197.75 34.274 1.74 46.858-.94 5.787-4.75 6.979-6.34 10.156-13.09 5.471 9.96 11.294 16.32 22.997 19.06 29.095 6.81 67.787 3.13 64.622-35.95 12.214-1.61 17.928-2.24 27.334-11.35 6.856-6.64 2.86-23.87 4.433-25.11 16.11-12.74 29.625-17.42 7.866-44.22 9.913 2.36 20.4 5.2 29.425-1.11 20.722-14.48 23.756-46.83 23.645-69.2l1.399-.33c12.63-3.1 39.845-16.84 49.265-13.42l.529.88c-42.502 29.79-55.286 71.24-45.913 121.29-29.717 11.21-51.068 27.53-64.292 57.24a86.43 86.43 0 0 0-1.964 66.29c9.112 23.78 37.843 53.54 69.747 46.93 3.974-.82 8.926-6.25 10.091-9.77 2.13-5.2.572-9.69.94-14.99l2.873-.71c2.685 2.06 5.619 4.13 7.898 6.6 2.795 12.77 3.224 19.56-4.501 31.39-.493.76-.998 1.5-1.513 2.24 28.823-8.94 49.747-26.8 64.116-53.34 9.59-17.7 11.13-35.56 10.56-55.33 7.45-4.11 26.58-13.42 34.51-16.84-22.43 28.77-35.6 61.53-34.91 98.42-1.2 3.96-.98 5.02-5.14 7.07-9.4 4.63-30.561 15.06-37.85 22.86-17.168 13.81-30.406 21.57-52.065 25.12-10.226-13.87-29.847-20.52-42.988-29.34-16.038-10.77-26.667-18.89-44.077-28.09-22.632 12.51-46.142 35.62-72.09 40.01-40.775 6.9-90.523-10.28-98.79-54.99-16.199-.06-25.185 5.11-38.871 11.63-44.611 21.26-30.229-15.76-21.011-39.97 2.712-7.13 5.593-21.69 7.113-29.58-13.407-4.16-22.788-9.28-32.512-19.55-13.217-13.95-15.335-18.69-17.291-37.03-4.797-44.96 2.883-81.01 35.899-112.83-31.703-29.04-36.862-61.86-37.304-102.67-5.386 9.94-11.615 15.8-17.808 23.96-24.475 32.28-37.021 38.27-70.717 56.89 1.898-13.33 3.171-27.59 8.926-39.9 1.817-4.99 6.408-7.02 11.256-9.44 21.922-10.96 35.938-27.47 52.029-45.76-8.248-9.4 2.84-26.39 2.156-38.39-.42-7.35-5.015-11.04-5.082-15.6l3.294-2.54c-18.593-5.16 3.64 12.19-1.733 24.5-3.284 7.53-4.512 25.13-4.771 33.68-5.835 7.06-12.125 13.71-18.467 20.32l-16.529 1.84c-.007-26.8.901-53.98.306-80.86-.06-2.7.185-2.2-.151-4.94l-.673.52-.829-.94c-.233-4.92-1.399-20.9.361-24.97-.059 4.44.098 8.42.299 12.84l1.165 1.26c-.71-13.06-.069-13.93 6.351-25.48 9.159-2.38 49.911-16.72 56.021-15.64l1.417-1.36c9.771-8.14 17.786-10.16 28.288-14.12l4.132-.13c7.465-1.05 15.737-3.68 22.8-6.35 1.768-.67 3.067-1.02 4.882-1.55"/><path fill="#121627" d="M626.876 1344.64c1.929-1.85 6.683-3.89 9.078-2.56 19.371 10.74 29.747 31.26 36.883 51.08 1.623.97 3.672 2.09 5.146 3.19l-3.925 3.09-4.112-.11c-22.116 15.32-40.027 16.13-66.499 14.34l-7.67 11.4c-23.192-4.38-51.677-11.83-75.217-11.83-10.356 0-8.477 2.47-17.575-3.97-.71-13.06-.069-13.93 6.351-25.48 9.159-2.38 49.911-16.72 56.021-15.64l1.417-1.36c9.771-8.14 17.786-10.16 28.288-14.12l4.132-.13c7.465-1.05 15.737-3.68 22.8-6.35 1.768-.67 3.067-1.02 4.882-1.55"/><path fill="#0b0308" d="M626.876 1344.64c1.929-1.85 6.683-3.89 9.078-2.56 19.371 10.74 29.747 31.26 36.883 51.08 1.623.97 3.672 2.09 5.146 3.19l-3.925 3.09-4.112-.11c-6.315-4.33-8.574-5.84-13.946-11.23-7.369.32-7.888.27-14.263-3.64-24.57.05-28.841 5.71-47.343-13.06-4.294.24-8.589.42-12.887.56-6.768.16-9.886.6-14.512-3.82l-.221-1.35c9.771-8.14 17.786-10.16 28.288-14.12l4.132-.13c7.465-1.05 15.737-3.68 22.8-6.35 1.768-.67 3.067-1.02 4.882-1.55"/><path fill="#fc543f" d="M626.876 1344.64c1.929-1.85 6.683-3.89 9.078-2.56 19.371 10.74 29.747 31.26 36.883 51.08-.953 8.12-12.821-5.09-15.202-7.33-26.674-1.28-13.264-13.09-36.306-24.08 1.686-5.05 4.092-12.1 5.547-17.11"/><path fill="#fc543f" d="M621.994 1346.19c-.251 3.91-3.288 13.07-4.569 16.82 12.942 6.32 11.726 6.54 20.184 18.93-8.487.2-17.209.51-25.666.61l-3.295-1.98c-3.748-2.29-6.711-5.49-9.833-8.54.046-5.06-.225-14.87.379-19.49 7.465-1.05 15.737-3.68 22.8-6.35"/><path fill="#fc543f" d="M595.062 1352.67c1.402 4.22.815 12.38.77 17.22-11.136-.01-18.14.97-28.837-1.75l-.221-1.35c9.771-8.14 17.786-10.16 28.288-14.12"/><path fill="#121627" d="m502.662 1420.56 1.154-.18c11.897-1.94 11.325-5.51 24.246-3.28 20.317 3.51 42.811 11.27 63.043 13.27-4.837 5.62-9.17 10.21-13.852 16.04-14.194-21.6-17.607-9.79-33.246-20.39-18.593-5.16 3.64 12.19-1.733 24.5-3.284 7.53-4.512 25.13-4.771 33.68-5.835 7.06-12.125 13.71-18.467 20.32l-16.529 1.84c-.007-26.8.901-53.98.306-80.86-.06-2.7.185-2.2-.151-4.94"/><defs><linearGradient id="c" x1="587.48" x2="583.472" y1="1395.098" y2="1481.915" gradientUnits="userSpaceOnUse"><stop offset="0"/><stop offset="1" stop-color="#101324"/></linearGradient></defs><path fill="url(#c)" d="m502.662 1420.56-.673.52-.829-.94c-.233-4.92-1.399-20.9.361-24.97-.059 4.44.098 8.42.299 12.84l1.165 1.26c9.098 6.44 7.219 3.97 17.575 3.97 23.54 0 52.025 7.45 75.217 11.83l7.67-11.4c26.472 1.79 44.383.98 66.499-14.34l4.112.11c-21.492 16.89-42.119 19.67-69.121 18.02-9.396 14.74-17.116 22.65-29.652 35.01-5.845-13.55-6.776-13.57-20.398-19.24 9.958 18.8 1.542 34.52-11.248 49.32-8.248-9.4 2.84-26.39 2.156-38.39-.42-7.35-5.015-11.04-5.082-15.6l3.294-2.54c15.639 10.6 19.052-1.21 33.246 20.39 4.682-5.83 9.015-10.42 13.852-16.04-20.232-2-42.726-9.76-63.043-13.27-12.921-2.23-12.349 1.34-24.246 3.28z"/><path fill="#02030c" d="M776.937 1775.61c13.941-1.08 30.941-.82 45.141-.94.398 10.44.775 22.32-.914 32.66-1.638 10.03-4.167 17.61-4.409 28.01-8.489-13.05-8.701-15.12-23.732-22.2 6.086 23.75 2.67 43.01-30.472 39.11-3.123-.37-6.787-13.68-7.881-16.97-2.418 12.47-2.076 17.44-15.106 20.81-23.031.21-44.818-9.88-57.875-29.23-18.909-28.02 6.012-55.4 36.531-47.57 10.887 2.79 15.875 10.5 20.887 19.66 5.68-21.68 17.489-22.84 37.83-23.34"/><path fill="#121627" d="M715.919 1818.32c2.638.18 2.793.96 2.404 3.59a302 302 0 0 0-2.82 28.22c-5.155-2.74-9.221-4.84-14.197-8.06-7.581-5.34-8.232-6.17-14.565-13.29 10.22-4.55 18.238-8.7 29.178-10.46"/><path fill="#02030c" d="M594.238 1681.29c-10.771-29.05 6.496-52.2 33.939-61.68 10.755-3.71 23.157-4.95 34.478-5.75 3.302 16.75 12.588 78.15-14.176 81.74l-.31 1.29c11.782 14.57 14.835 20.21 13.563 39.69-2.37 36.28-46.238 28.09-61.287 5.69-9.889-14.71-15.235-33.97.9-46.76 2.976-.55 7.883-.84 9.461-2.66-2.461-2.2-2.567-2.09-5.636-3.46-6.11-3.8-5.906-3.21-10.932-8.1"/><path fill="#fb4639" d="M592.687 1658.74c6.84 14 9.198 16.55 15.855 28.5-1.44 1.41-1.451 1.23-3.372 2.15-6.11-3.8-5.906-3.21-10.932-8.1 1.002-.15 2.003-.31 3.005-.46-4.128-10.73-3.501-10.53-4.556-22.09"/><path fill="#0b0308" d="M594.238 1681.29c1.002-.15 2.003-.31 3.005-.46 3.632 2.43 7.289 4.66 11.299 6.41-1.44 1.41-1.451 1.23-3.372 2.15-6.11-3.8-5.906-3.21-10.932-8.1"/><path fill="#121627" d="M612.58 1697.33c7.186.23 10.196 7.31 14.751 13.04.162 6.23.314 11.8.304 18.06l-1.369 1.06c-5.158 4.04-9.621 6.2-15.088 9.42-12.594 6.64-10.028-2.08-15.005-14.42-2.611-6.47-1.125-16.83 2.985-22.41 3.089-4.19 8.279-3.98 13.422-4.75"/><path fill="#121627" d="M624.52 1623.93c2.166 2.37-1.417 23.3-1.866 28.18-11.396.4-15.603.83-26.573 3.68-1.644-1.48-.384-2.95.438-4.72 6.312-13.52 14.862-20.75 28.001-27.14"/><path fill="#121627" d="m1345.29 1045.82-.13-1.64c4.45-9.01 28.87-39.29 36.06-48.859 1.18-1.566 11.56-7.156 14.12-8.563l2.61.904c15.15 5.364 65.63 15.928 75.12 28.348l2.35 2.48c1.21-.68 2.39-1.34 3.61-1.98l1.27-.02 1.82-2.37c12.56-5.15 39.6 7.42 52.1 12.26 2.83-.59 3.99-.54 6.94-.61l1.85-1.25c2.52.54 1.73.12 3.8 1.46 2.83 12.2 1.29 138.58.18 151.9-25.6 9.29-35.82 14.63-57.69 32.68-8.59.82-19.67 2.18-28.1 2.34-15.61-8.56-28.98-17.27-44.07-26.64-3.82-11.72-11.44-36.54-18.47-44.98l-1.07.39-.38-1.7c-2.21-1.99-2.84-2.17-5.67-3.12l-.01-1.28c-8.52-10.93-19.88-20.74-30.48-29.59-3.42-16.61-9.96-32.91-15.07-49.05-1.08-3.4-2.33-5.95-.96-8.56z"/><path fill="#0b0308" d="m1345.29 1045.82-.13-1.64c4.45-9.01 28.87-39.29 36.06-48.859 1.18-1.566 11.56-7.156 14.12-8.563l2.61.904c15.15 5.364 65.63 15.928 75.12 28.348l2.35 2.48c1.21-.68 2.39-1.34 3.61-1.98l1.27-.02 1.82-2.37c12.56-5.15 39.6 7.42 52.1 12.26 2.83-.59 3.99-.54 6.94-.61l1.85-1.25c2.52.54 1.73.12 3.8 1.46-5.54 3.44-35.44 16.97-42.58 19.37-16.09 5.41-19.67 4.53-35.97 13.54-2.93 8.01-5.66 15.75-9.43 23.42-3.94 8.05-9.18 15.78-12.44 24.04 11.21 2.36 20.96 4.48 31.8 8.61 2.83 3.11 18.68 29.22 19.3 32.02l-1.21.25c-11.34-9.18-10.23-18.85-20.02-29.49-5.94-1.93-13.21-4.35-19.32-5.5-10.76-2.02-17.07-1.82-27.59-5.23-9.63 2.59-22.63 6.64-31.76 10.59-.02 5.73-.34 18.81 1.07 23.68l-1.07.39-.38-1.7c-2.21-1.99-2.84-2.17-5.67-3.12l-.01-1.28c-8.52-10.93-19.88-20.74-30.48-29.59-3.42-16.61-9.96-32.91-15.07-49.05-1.08-3.4-2.33-5.95-.96-8.56z"/><path fill="#121627" d="M1345.02 1048.37c19.7 6.89 33.55 8.5 54.74 4.66 18.23 10.1 39 17.09 56.89 27.09-4.18 8.53-10.99 19.64-13.49 27.95-4.5-1.6-9.11-3.15-13.49-5.03-10.4 3.3-25.93 7.67-34.98 13-.07 4.29.29 16.48-1.04 19.55l-2.12-.02c-8.52-10.93-19.88-20.74-30.48-29.59-3.42-16.61-9.96-32.91-15.07-49.05-1.08-3.4-2.33-5.95-.96-8.56"/><path fill="#fc543f" d="m1345.29 1045.82-.13-1.64c4.45-9.01 28.87-39.29 36.06-48.859 1.18-1.566 11.56-7.156 14.12-8.563l2.61.904c15.15 5.364 65.63 15.928 75.12 28.348-10.02 5.55-28.32 8.45-36.19 13.49-11.46 7.35-8.55 9.68-24.72 15.69-23.99 8.91-41.67 10.25-65.67 1.09z"/><path fill="#fc543f" d="M1479.03 1016.51c-.49 6.24-1.08 11.01-1.2 17.4-11.45 10.27-6.32 8.72-12.06 20.56-6.69 13.8-6.45 6.65-8.69 22.81-16.43-9.31-37.82-17.91-55.44-25.1 3.92-1.51 7.83-3.06 11.72-4.66 2.26-.92 13.45-5.13 14.26-6.12 12.16-14.99 31.51-14.14 47.8-22.91 1.21-.68 2.39-1.34 3.61-1.98"/><path fill="#fc543f" d="M1482.12 1014.12c12.56-5.15 39.6 7.42 52.1 12.26l.42 2.56c-15.54 5.31-25.62 16.15-43.14 17.13-3.45.2-18.56 7.1-22.49 8.92 5.72-17.29 6.2-17.57 23.94-25.91l-1.08-2.06c-3 1.2-5.62 2.49-8.56 3.8-.55-6.13-1.27-10.47-1.19-16.7"/><path fill="#791e1b" d="m1507.6 1020.59-2.55 1.79c-1.84 1.27-9.98 5.67-12.1 6.7l-1.08-2.06c5.68-3.16 9.64-4.25 15.73-6.43"/><path fill="#fb4639" d="M1534.22 1026.38c2.83-.59 3.99-.54 6.94-.61-2.5 1.39-3.92 2.07-6.52 3.17z"/><path fill="#121627" d="M569.797 954.195c19.389-2.021 19.156-3.69 36.211-12.05 15.986 16.978 18.725 30.195 30.711 49.467 4.272 6.868 12.079 16.708 17.33 24.528-6.136-1.79-12.101-3.16-18.051-5.55l-1.645 1.98c5.044 2.29 10.876 3.84 16.226 5.46.452 14.04 3.59 31.09 5.807 45.15-17.352 16.37-36.411 25.73-59.474 32.63-7.117 1.79-22.873 1.14-28.865 4.29-17.646 9.27-44.726 24.11-65.166 20.12.493-47.12.507-94.25.043-141.368 12.267.657 20.009.872 30.054-6.597 4.416-.09 7.055.126 11.25-1.236l-.186-.896c-1.182-1.109-1.841-1.761-3.13-2.705 8.149-3.318 15.831-7.816 24.257-10.27 2.882-1.39-.174-1.892 4.628-2.953"/><path fill="#fc543f" d="M569.797 954.195c19.389-2.021 19.156-3.69 36.211-12.05 15.986 16.978 18.725 30.195 30.711 49.467 4.272 6.868 12.079 16.708 17.33 24.528-6.136-1.79-12.101-3.16-18.051-5.55-14.034-11.281-48.57-10.31-57.379-33.284-2.286-5.962-11.294-16.648-8.822-23.111"/><path fill="#0b0308" d="M565.169 957.148c2.882-1.39-.174-1.892 4.628-2.953-2.472 6.463 6.536 17.149 8.822 23.111 8.809 22.974 43.345 22.003 57.379 33.284l-1.645 1.98c-13.65-7.59-24.95-8.44-34.011-12.989-29.616-14.863-29.131-26.709-67.364-27.326 4.416-.09 7.055.126 11.25-1.236l-.186-.896c-1.182-1.109-1.841-1.761-3.13-2.705 8.149-3.318 15.831-7.816 24.257-10.27"/><path fill="#fc543f" d="M540.912 967.418c8.149-3.318 15.831-7.816 24.257-10.27 3.459 10.005 7.856 15.332 12.651 24.759-10.117-6.676-11.751-9.481-23.819-9.364-2.638.026-7.081-.476-9.773-1.524l-.186-.896c-1.182-1.109-1.841-1.761-3.13-2.705"/><path fill="#121627" d="M571.975 701.904c8.279 1.53 13.351 1.414 21.547.482 9.733 8.639 45.077 25.696 47.408 30.32-8.529 24.031-18.705 36.468-31.169 56.89a360 360 0 0 0-19.833 37.84c-4.976-5.731-11.53-16.06-15.746-19.817l-.232 1.463c3.2 9.107 5.91 11.173 12.347 18.304-10.115 8.621-17.803 16.384-26.878 25.88l-25.019 7.615c-10.596 4.969-19.667 2.613-31.289 1.408l.065-148.006c11.062.014 18.99-1.756 29.753-3.728 2.388 7.979 5.923 15.298 6.341 23.849.401 8.221-2.03 21.123-.67 28.862 2.148-8.617.511-18.76 4.657-24.669 2.606-.409 4.794-.562 7.403-.758l.822-1.121-1.417-1.713c-8.892.367-10.126-10.845-12.316-17.904 10.567-4.296 24.206-9.977 34.226-15.197"/><path fill="#0b0308" d="M567.88 756.69c10.629 8.622.246 33.489.563 44.69-6.234-1.221 5.306-28.71.695-34.928-1.963-2.647-2.168-6.395-1.258-9.762"/><path fill="#121627" d="M1451.73 724.256c8.98-2.2 55.95 6.138 66.22 9.536 13.66 4.516 12.52 9.521 29.69 9.431l.13 86.265c-8.28-1.277-32.13-6.267-38.28-4.768-11.98 2.916-13.39 5.672-27.73 6.446-2.86.425-7.33.674-10.34.944-1.99 5.771-3.31 9.764-5.97 15.271-26.2-1.699-37.89-12.318-61.05-24.297-2.7-4.058-5.42-8.75-7.97-12.951 3.99-22.573 8.72-42.849 11.94-65.849l8.76-8.667c8.94-1.883 23.55-8.264 34.6-11.361"/><path fill="#fb4639" d="M514.794 1508.53a353 353 0 0 1-13.06 10.72l-2.032-.61c-2.695-3.75-3.87-8.1-3.888-12.71-.079-20.11.114-40.41.11-60.51l-.024-134.65.014-571.025-.04-151.26c0-18.497-.344-39.659.199-58.263.079-2.707 1.579-3.751 3.31-5.013 5.73-.065 9.334 4.458 13.379 8.345-3.989-.844-8.053-1.438-12.082-2.084 2.794 14.819-1.916 80.708 1.893 86.093.553.22 1.93.7 2.343 1.011 15.355 6.436 22.822 7.908 38.558 9.914 4.984 4.098 10.209 6.448 12.782 12.163 1.98-1.207.988-.567 2.974-1.926 2.302 1.628 15.421 11.549 16.18 12.977 1.653 3.111 12.204 23.333 12.688 25.592-.677 1.675-2.512.826-4.011.59l-.151 2.687.336.133c1.31.522 7.661 2.185 6.489 3.664-1.157 1.461-4.795 1.654-7.099 3.216-13.273 8.999-26.922 16.965-41.655 23.385-1.536.67-4.69 3.103-5.147.051-.039-.276-.438-2.47-1.045-2.835-5.847-1.622-13.448.92-19.336 1.645-4.694.578-8.814 1.305-13.423 2.225-.129-15.512.289-32.24-.173-47.601l-.649-1.687c-1.256 1.926-1.384 206.762-.558 223.15.057-3.071-.025-14.728 1.075-16.971 1.694 21.253-.559 58.162-.193 81.336-1.169-6.181-.591-47.339-.771-57.249-.774 7.537.779 38.246-1.722 41.619-.972 21.537-.201 47.515-.163 69.418l.006 121.28.032 384.44c5.152 0 9.754-.66 14.854-1.26"/><path fill="#121627" d="M502.883 664.454c4.988.762 12.847.99 18.125 1.069 7.423.112 21.973 7.082 27.635 6.914 16.256-.483 20.22 1.524 35.293 8.134l.336.133c1.31.522 7.661 2.185 6.489 3.664-1.157 1.461-4.795 1.654-7.099 3.216-13.273 8.999-26.922 16.965-41.655 23.385-1.536.67-4.69 3.103-5.147.051-.039-.276-.438-2.47-1.045-2.835-5.847-1.622-13.448.92-19.336 1.645-4.694.578-8.814 1.305-13.423 2.225-.129-15.512.289-32.24-.173-47.601"/><path fill="#fc543f" d="M503.178 661.962c-.032-6.425-1.621-41.458 1.738-43.388 15.355 6.436 22.822 7.908 38.558 9.914 4.984 4.098 10.209 6.448 12.782 12.163-.876 9.072 3.249 20.774 5.962 29.259-16.716.264-23.612-1.25-38.721-7.888-.423-.186-18.326-.049-20.319-.06"/><path fill="#0b0308" d="M500.68 531.47c2.794 14.819-1.916 80.708 1.893 86.093.553.22 1.93.7 2.343 1.011-3.359 1.93-1.77 36.963-1.738 43.388 1.993.011 19.896-.126 20.319.06 15.109 6.638 22.005 8.152 38.721 7.888-2.713-8.485-6.838-20.187-5.962-29.259 1.98-1.207.988-.567 2.974-1.926 2.302 1.628 15.421 11.549 16.18 12.977 1.653 3.111 12.204 23.333 12.688 25.592-.677 1.675-2.512.826-4.011.59l-.151 2.687c-15.073-6.61-19.037-8.617-35.293-8.134-5.662.168-20.212-6.802-27.635-6.914-5.278-.079-13.137-.307-18.125-1.069l-.649-1.687c-1.256 1.926-1.384 206.762-.558 223.15.057-3.071-.025-14.728 1.075-16.971 1.694 21.253-.559 58.162-.193 81.336-1.169-6.181-.591-47.339-.771-57.249-.774 7.537.779 38.246-1.722 41.619-.746-7.742-.164-29.308-.157-37.861l.013-75.082.01-214.881c-.001-11.403-1.599-67.475.749-75.358"/><path fill="#fc543f" d="M565.947 670.938c-3.255-9.181-7.223-22.373-6.717-32.213 2.302 1.628 15.421 11.549 16.18 12.977 1.653 3.111 12.204 23.333 12.688 25.592-.677 1.675-2.512.826-4.011.59-4.42-2.75-13.059-5.348-18.14-6.946"/><path fill="#121627" d="M503.319 1261.96c11.515 1.94 21.75 5.8 32.88 7.57 6.677 1.07 19.414.57 26.574.45 10.707 7.71 22.084 9.5 33.41 15.87 3.206 1.81 9.134 7.21 12.095 9.85 7.033.97 11.338 1.35 18.433 1.6l.379 34.22c-10.915 3.97-23.272 13-31.625 14.24-8.312 1.47-11.626 2.94-18.999 7-15.707 8.66-32.628 14.75-48.976 22.05-8.455-3.36-16.232-4.83-25.066-6.8-.83-30.19.015-75.38.895-106.05"/><path fill="#121627" d="m1545.22 877.792 1.65.418c1.09 3.796.85 29.303.87 34.573l-.22 98.007c-6.89 2.17-16.88 5.27-23.15 8.44-8.9-3.99-14.87-5.68-24.43-7.27-6.57-1.09-14.24-1.4-20.15-4.09l-6.89-4.96c-5.59-19.096-2.73-24.282-4.01-43.455-.23-3.324-3.16-12.743-4.26-16.321 7.12-26.135 18.14-16.729 29.29-35.544l.78-13.134c21.77-6.194 30.06-3.144 50.52-16.664"/><path fill="#121627" d="M805.397 1865.24c7.273 20.44 37.097 19.1 53.857 13.29 26.053 10.82 33.756 37.98 27.472 63.99-2.023 8.37-4.406 14.24-10.727 20.35-4.022.94-18.718-2.15-23.274-3.01-13.334-21.95-24.666-31.62-49.442-39.82-3.081-.88-5.716-3.1-10.364-3.99-17.161-3.3-29.861-3.66-45.595-11.97-6.102 9.39-12.509 15.49-20.653 23.11a140 140 0 0 1-26.756-39.59c3.471-2.29 6.728-4.96 10.013-7.52 39.328 11.38 61.451 7.84 95.469-14.84"/><path fill="#121627" d="M1451.42 888.262c20.55 1.337 20.67.363 40.22 8.418-.22 4.016-.71 8.394-1.07 12.433-5.3 5.247-17.49 13.821-24.15 19.469l-.33 1.025c-5.09 15.437-6.88 15.804-17.63 28.03-9.12 1.475-18.61 1.954-28.05 3.35l.5.534c9.33.624 18.81-.238 28.17-.836 4.09-3.98 9.73-10.862 13.63-15.368 4.17 15.48 4.35 18.267 3.98 34.439-1.12 6.566 2.15 17.011 4.44 23.314-23.61-6.874-46.81-10.249-69.77-17.453-.21-14.008-2.29-17.226-9.46-28.84.33-15.665 2.14-28.63 6.72-43.525 4.34-14.093 6.97-7.901 15.94-10.127 3.93-2.172 9.62-7.403 13.82-8.814 8.36-2.803 14.85-1.664 23.04-6.049"/><path fill="#121627" d="m1546.13 1184.43.65.17c2.82 3.62.78 91.73.91 104.59-10.58-.49-31.17-1.83-41.07-1.03-2.16 2.46-1.26 2.05-3.96 3.33-7.2-2.76-9.3-3.69-16.99-4.13l-1.61-.09c-4.52-3.61-8.37-7.82-12.42-11.98-7.46-6.83-8.25-27.61-13.42-37.54-1.9-3.65-6.18-15.33-5.02-18.79 6.11-3.78 28.12-4.39 36.55-5.04 27.68-18.5 24.91-20.88 56.38-29.49"/><path fill="#121627" d="M1099.94 139.365c2.7 3.29 10.83 22.142 14.02 27.685-12.28 16.436-13.92 20.331 1.04 35.678 15.17-24.979 40.13-13.716 58.54.344-12.3 5.657-19.43 11.107-32.26 10.568-9.1 7.631-11.11 8.511-22.03 12.731-11.08 3.2-15.36 2.514-25.74 4.411-2.59.474-17.41 8.345-22.22 10.42-8.98-2.966-35.56-9.104-34.37-19.741 1.53-13.754 3.22-29.272 4.23-43.364 22.89-21.572 36.36-22.915 58.79-38.732"/><path fill="#121627" d="M1516.84 1319.19c5.38.06 5.53-3.32 14.05-.58 3.12 1 12.74 2.26 16.17 2.47.28 20.9 1.02 44.13.72 64.86-13.94-1.69-21.12 6.04-35.27 5.97-.79-.01-3.99.26-4.89.31-11.65 11.46-12.99 13.92-28.61 18.07-7.02-5.63-14.6-11.64-22.82-15.43-10.66-4.9-18.2-7.3-28.38-13.69 19.98-10.19 32.84-20.66 48.79-35.8 5.4-5.12 18.57-11.37 22.16-17.04 2.68-2.41 13.95-7.18 18.08-9.14"/><path fill="#121627" d="M502.751 868.946c2.835.027 15.95.385 17.683.173 15.753-1.931 24.174-4.977 40.475-3.926a753 753 0 0 1 11.081 35.923c-3.327-3.731-6.162-7.526-10.449-9.944-4.12-.158-18.786 11.211-23.225 13.968-5.858 3.638-13.337 7.788-18.774 11.799l.41 1.099c12.599-3.586 29.439-17.724 39.517-24.924 11.898 12.538 12.398 7.976 24.522 14.912-1.901 6.102-8.289 24.816-12.685 29.088-11.567 11.24-28.257 21.817-42.352 29.644-5.697 3.163-19.632 9.677-25.362 5.369-1.346-5.945-1.012-15.425-1.034-21.845-.366-23.174 1.887-60.083.193-81.336"/><path fill="#121627" d="M697.446 307.565c17.876 4.731 40.171 32.224 61.063 11.926 21.964 25.387 42.452.503 69.778-2.651 27.463-3.17 31.274 39.698 14.923 41.035-1.333-16.472-2.832-18.792-18.587-24.005-17.121 2.888-19.889 7.296-19.737 23.783-19.231-9.777-32.804-13.952-51.575.33-13.599 17.105-11.689 34.466-1.935 52.853-11.691.415-24.61 3.494-24.08 18.357a19.48 19.48 0 0 0 6.433 13.708c7.43 6.681 13.904 5.86 22.911 5.198-12.438 10.649-24.911 13.849-37.87.965-18.199-18.095 6.811-45.932 5.231-67.113-.822-11.032-11.37-12.05-12.488-19.114 15.84-17.013-3.027-40.335-14.067-55.272"/><path fill="#121627" d="M1307.97 1583.4c6.88-.67 14.97.03 20.74 4.3 35.06 26-29.05 65.51 12.08 90.98-2.86 2.66-7.01 6.2-7.96 10.09-3.65 15.01 11.91 34.53 19.15 47.4-17.99-11.63-40.07-29.62-59.95-12.83l-.61-.74-1.05-1.21c-20.45-24.19-41.8-.67-64.1 3.07-35.47-2.18-30.22-37.61-17.86-40.04-1.6 21.48 16.09 30.83 33.44 17.87 5.14-3.84 4.48-11.39 4.36-17.42 3.73 2.32 7.64 4.43 11.69 5.92 32.07 11.82 57.72-12.89 47.61-45.46-1.56-5.02-4.07-9.25-6.53-13.83 11.2-.41 21.57.07 23.26-14.76 2.98-26.17-24.27-21.08-26.87-24.25 1.79-4.28 8.53-7.39 12.6-9.09"/><path fill="#121627" d="m1346.75 309.873 1.57.476c.45 8.64-32 35.933-7.19 53.224-31.81 19.892 1.2 48.794-3.47 75.253-2.85 16.159-35.66 25.185-41.11 10.576 3.74-3.482 14.17.084 20.33-6.622 7.18-7.802 8.63-18.321 1.19-26.595-5.18-5.762-11.87-5.367-19.08-5.506 9.94-17.745 11.69-32.217.86-50.052-17.47-17.445-35.87-12.813-55.41-2.469.18-6.064 1.13-11.269-2.72-16.6-7.54-10.419-20.38-10.289-29.77-2.368-5.18 4.368-2.63 11.57-4.93 17.215l-1.95-.084c-13.14-10.832-3.61-30.348 9.49-36.121 30.66-13.511 49.62 33.123 77.25-1.229 15.62 17.052 39.18-.145 54.94-9.098"/><path fill="#121627" d="M734.942 1584.44c6.907.09 15.945 1.22 19.979 7.78-2.898 3.69-24.179 2.35-24.28 17.96-.125 19.55 6.415 20.7 23.278 20.85-24.405 44.65 8.343 78.85 52.094 54.1-.22 6.37-1.015 11.07 3.328 16.26 10.936 13.06 35.184 7.04 34.714-11.37-.049-1.91-.056-2.92.521-4.76 10.27.09 17.664 28.63-7.135 38.08-19.966 5.37-28.369-7.4-48.334-11.4-18.335-3.68-16.372 3.15-27.142 9.91-24.163-12.78-38.57-1.34-58.629 12.81 6.079-12.56 17.285-24.92 17.996-39.66.365-7.57-2.846-9.83-7.787-14.84 1.35-4.78 8.655-7.07 11.231-12.59 7.315-15.9-4.028-33.63-8.321-48.56-5.57-19.38.232-29.32 18.487-34.57"/><path fill="#fb4639" d="M1538.08 533.589c4.48-4.057 8.66-9.721 14.75-7.151 3.48 5.226 1.5 28.65 1.57 36.569l.06 238.966-.05 489.157c3.54-2.47 3.09 2.76 3.12 4.75 1.51-.05 5.5-.47 6.78.64 1.31 1.13.87 85.86.47 93.05-.17.82-.29.85-.77 1.67l-7.8-.61c-2-3.11.74-5.37-1.72-8.37l.19 85.62c.08 13.64.37 27.96.03 41.6-.1 3.75-.36 3.74-2.41 6.1-3.01 1.21-2.82 1.35-5.95.73-2.63-2.36-4.16-3.31-5.47-6.61 5.29-2.87 3.94-.61 8.84-2.43.94-4.24.44-47.44.46-54.67l.08-164.6.04-756.946z"/><path fill="#121627" d="M1554.41 1291.13c3.54-2.47 3.09 2.76 3.12 4.75 1.51-.05 5.5-.47 6.78.64 1.31 1.13.87 85.86.47 93.05-.17.82-.29.85-.77 1.67l-7.8-.61c-2-3.11.74-5.37-1.72-8.37z"/><path fill="#0b0308" d="M1554.41 1291.13c3.54-2.47 3.09 2.76 3.12 4.75-1.72 27.62 1.48 57.7-.25 85.63-.49 7.81.92 5.4 7.5 8.06-.17.82-.29.85-.77 1.67l-7.8-.61c-2-3.11.74-5.37-1.72-8.37z"/><path fill="#121627" d="M1516.74 307.146c5.97-.613 25.3 11.881 28.01 17.755-.69 4.971-28.48 36.743-33.45 42.934 13.6 19.57 14.18 41.289 30.81 65.617-4.05 1.509-10.07 3.027-14.36 4.247-9.27 2.883-28.99 10.023-38.36 7.372-5.12-1.448-7.3-17.842-10.58-26.298 17.27-28.946 20.93-62.045 15.13-94.935 3.46-5.403 5.02-7.646 9.25-12.604 4.82-1.631 8.55-2.866 13.55-4.088"/><path fill="#121627" d="M1195.57 1878.14c3.04.4 28.18 14.5 35.32 17.04 4.22 8.81 8.77 17.53 12.96 26.26-20.2 8.71-30 14.41-42.35 33.05-2.06 3.34-3.9 6.84-5.69 10.33-20.38.93-23.2 1.59-29.61-20.82-4.82-16.87-.57-35.11 8.8-49.55 5.6-8.63 11.54-11.49 20.57-16.31"/><path fill="#121627" d="M1499.28 1592.66c18.25-.12 25.57 7.9 39.18 7.81l3.48 11.85c-15.82 22.39-16.94 49.71-30.85 64.32 6.71 8.14 16.61 19.71 22.43 28.11-17.26 6.26-19.64 6.68-38.06 7.89 3.49-34.89-.45-64.25-18.93-94.31 8.68-13.51 10.36-15.52 22.75-25.67"/><path fill="#121627" d="M515.735 1594.21c.664-.09 2.784.08 3.075.49 8.201 11.77 12.756 24.22 21.692 35.68 12.027 3.15 14.264 4.47 24.488 11.34-9.096 23.51-10.068 51.83-6.725 76.46.165 1.22-15.101 28.94-16.872 32.73-.443.94-3.403 2.73-4.624 3.39-4.555-15.45-11.98-39.32-15.328-53.96 6.31-7.59 13.174-15.48 18.745-23.57-6.436-7.99-9.956-17.81-13.352-27.42-7.032-19.89-13.153-34.81-28.029-50.09z"/><path fill="#121627" d="M511.306 431.95c31.813 7.922 38.759 7.521 64.569 29.19l-.319.532c-7.336 12.502-10.682 18.621-16.173 32.104q-7.186-.2-14.375-.104c-8.059.865-10.085 1.71-16.853 6.167-13.888-14.237-20.828-18.764-37.585-29.069l-.77-.481c-.867-4.122-1.454-8.423-2.718-12.431 12.403-12.104 13.25-12.189 24.224-25.908"/><path fill="#121627" d="M1183.09 122.058c9.14 2.882 13.93 6.834 24.31 8.382 7.61 1.135 15.29 2.257 22.92 3.367 7.33 12.051 13.18 26.992 18.9 39.845l.39.867c-5.54 3.835-23 15.841-27.22 19.531-.55.468-1.1.941-1.64 1.421-6.75 6.074-9.42 1.23-16.9-4.915-1.11-2.871-4.15-10.092-4.28-13.097-.16-3.525 9.56-3.514 9.55-5.897-1.7-2.264-12.98-6.49-16.5-8.836-17.09-11.373-18.28-15.223-24.24-32.587l-.31-.896c6.28-3.691 8-5.224 15.02-7.185"/><path fill="#fc543f" d="M1534.58 646.044c4.22-.065 8.45-.178 12.67-.339l.1 53.793c-4.74-.099-14.52-.599-18.84-.188-2.45.233-19.04 9.705-22.04 9.636-9.53-.221-15.57-.423-25.33.081-6.99-7.742-12.59-14.224-20.04-21.554l3.4-1.535c5.83-2.68 11.9-5.787 17.87-8.539 2.13-.965 4.25-1.972 6.34-3.021.8-.538 1.56-1.078 2.4-1.541 12-3.597 31.52-19.492 43.47-26.793"/><path fill="#791e1b" d="M1488.71 674.378c.8-.538 1.56-1.078 2.4-1.541l-.95 6.163c-.54 3.682-1.79 6.942-2.66 10.522-1.43-2.092.94-12.291 1.21-15.144"/><path fill="#121627" d="M503.104 1186.01c6.374.05 19.315-.81 24.587.48 8.921 2.19 12.346 1.22 21.462.83 9.997 8.07 10.872 7.85 9.824 21.18-.485 6.18-.899 12.78-1.598 19.06-5.117 2.55-9.304 4.59-14.346 7.43-6.492 4.44-9.334 9.54-18.034 10.92-7.292 1.15-14.846 3.5-22.222 4.94.491-21.7-.082-43.33.327-64.84"/><path fill="#121627" d="M1545.95 536.573c1.49.875 1.93 66.881 1.75 74.308-9.81 2.017-20.21 2.938-30.19 4.302l-9.64 1.662c.57-16.02.42-16.724 6.57-31.751-4.61 5.099-5.77 6.462-7.77 13.319l-.52 1.675c-1.42 13.522-4.25 10.174-9.84-1.101-4.14-8.329 6.05-24.355 11.51-31.95.78.851 12.09 13.677 12.72 8.551-.97-1.343-9.26-8.839-11.23-10.786 6.34-7.732 14.97-19.85 22.86-25.658l1.45-1.111q6.15-.823 12.33-1.46"/><path fill="#121627" d="M859.054 61.065c31.902-.446 64.776 32.987 60.202 65.161-1.509 10.616-3.443 16.903-6.537 26.997-9.148 7.222-15.112 11.732-25.477 16.934-6.258 2.86-18.389 5.754-23.849.502.525-5.75 11.945-9.36 15.542-14.656 24.118-35.503 12.241-70.613-19.881-94.938"/><path fill="#121627" d="M875.198 1872.61c6.889 1.37 38.846 18.9 41.085 25.96 12.266 38.63-2.84 68.79-39.986 84.41-4.118 1.36-11.464 4.12-15.462 2.51 2.095-4.17 11.366-10.32 14.784-14.84 24.114-31.83 24.385-77.96-16.877-96.06 6.345-.46 10.183-.87 16.456-1.98"/><path fill="#121627" d="M555.547 1508.71c2.242 2.13 1.645 6.55 1.847 9.73.832 13.09 2.994 24.51 7.051 36.99-14.222 10.23-30.745 31.1-48.947 34.46l-4.003.77c-5.36 1-9.971 2.08-15.162 3.81-2.947-1.12-5.055-3.02-7.519-5.07l-.397-17.29.649-.4c12.43-7.86 25.99-13.6 36.022-25.17 10.595-12.22 20.192-25.3 30.459-37.83"/><path fill="#fc543f" d="M565.41 1226.74c6.29.18 55.489 58.01 62.415 67.36-6.195.05-11.938-.44-18.106-.9-6.259-6.26-10.151-9.2-17.75-13.28-14.512-4.98-18.588-6.19-31.336-14.57-21.58 1.7-25.175 2.54-44.501-7.88 17.13-9.97 30.814-20.36 49.278-30.73"/><path fill="#121627" d="M575.808 1101.21c1.254-.06 7.179-.46 7.6.12 3.515 4.87 16.639 25.77 18.048 29.84 1.847 5.33 4.245 16.14 5.231 20.25-5.159 2.24-17.684 7.17-23.198 8.42l-8.224 1.8c-5.092-10.05-4.932-9.3-15.151-15.67-1.732-1.01-6.714-3.35-8.641-3.94-14.173-4.27-25.853-10.32-38.845-17.27 10.336-1.1 18.304-2.74 28.379-4.6a37.7 37.7 0 0 0 11.507-4.09c9.203-4.98 14.951-8.65 23.294-14.86"/><path fill="#121627" d="M540.078 368.476c7.032 3.321 10.905 4.037 18.362 5.787 2.687 11.739 4.819 23.564 9.641 34.712l2.517 5.69c-5.448 9.066-10.02 18.036-14.74 27.471-2.428-1.59-4.683-3.43-7.309-4.544l-2.882-1.204c-2.36-.633-4.777-.933-7.184-1.504-1.503-.356-3.689-.473-4.707-1.872-.232-.318-.698-1.71-1.421-1.522-6.317 1.794-12.38-1.356-18.501-2.977l-.95-.245c8.735-18.368 16.411-44.501 27.174-59.792"/><path fill="#121627" d="M1254.03 278.467c28.07-2.149 46.22.053 57.7 28.299 2.32-10.458 2.61-12.364 10.32-19.77 14.55-3.703 21.54-2.998 36.53-2.937-14.08 7.701-22.87 14.661-35.82 23.953-2.15 1.768-5.9 4.172-8.75 3.907-19.32-1.794-32.86-2.924-52.35-.712-2.84-2.946-4.8-6.327-8.38-6.991-4.13 4.304.01 7.56-5.45 12.799-3.29.674-13.6-3.222-17.33-4.528.26-4.254-.54-2.588 1.64-5.5 6.8-1.928 6.28-1.57 6.62-8.025 7.05-2.981 20.82-7.806 21.71-16.16-2.19-3.633-1.46-2.478-6.44-4.335"/><path fill="#121627" d="M543.575 1580.12c8.747 1.62 11.906.03 19.883 5.06 9.764 6.15 17.031 11.25 27.813 15.81-12.24 13.1-16.414 19.49-24.374 35.43-1.048 1.39-1.754 1.79-3.299.55-6.304-5.03-13.931-7.58-21.547-9.88-5.474-8.75-10.097-17.16-15.383-25.84a323 323 0 0 1-5.341-8.91c7.26-3.58 15.458-7.84 22.248-12.22"/><path fill="#121627" d="M631.169 1087.27c4.521.02 11.688.59 16.326 1.07l4.083.46c-5.378 16.47-11.187 35.16-14.404 52.21l-1.101 5.8c-5.932.94-9.325 1.37-15.148 2.59-5.367.68-6.198.68-11.502 1.84-1.321-5.35-3.307-13.44-4.153-18.75-1.594-10.01-.912-23.65-1.36-34.15 8.882-3.73 17.612-6.82 26.524-10.75z"/><path fill="#fc543f" d="M1511.39 826.165c11.85 1.574 23.85 4.408 35.67 6.217.07 5.71.22 11.419.43 17.126-20.45 2.241-29.55 8.092-48.25 13.899-7.27 2.219-25.96-3.009-33.85-4.755l-.89-.19c3.31-8.27 6.72-15.203 9.16-23.89 19.49-2.272 19.15-1.83 37.73-8.407"/><path fill="#121627" d="M1499.02 478.77c-.28-27.691 2.31-19.699 27.98-25.581 8.2-1.877 26.36-1.564 34.3.713 1.33.893 1.91 1.561 3.06 2.681 2.41 3.625 1.55 8.05 1.56 12.758-20.48 10.348-29.55 14.781-44.77 32.565-8.22-15.698-10.23-9.814-20.96-21.858z"/><path fill="#121627" d="M1544.32 852.383c6.18-1 3.46 15.702 3.49 20.9l-1.65.861c-10.12 5.389-10.84 7.544-22.14 10.054l-13.85 3.194c-6.45 1.437-12.03 3.106-18.28 5.133-6.87-3.101-12.84-4.312-19.12-8.35-3.88-5.179-3.37-4.732-7.91-9.397-.06-4.745.05-9.228.13-13.96 11.03 3.061 20.14 5.207 31.45 6.88a111 111 0 0 1 9.41-3.651c3.84-1.28 9.01-3.313 12.58-5.089 7.96-3.96 17.22-4.974 25.89-6.575"/><path fill="#121627" d="M521.393 1136.29c2.058-.06 2.542-.07 4.357 1.05 11.295 6.97 23.51 11.72 35.676 16.87l-7.721 16.18c-2.987 6.22-3.18 12.55-9.706 12.64-4.75.53-8.772.66-13.543.78-13.115-7.19-12.875-7.9-27.614-12.19-.105-6.89-.018-13.49-.005-20.37 4.245-3.31 15.014-13.18 18.556-14.96"/><path fill="#121627" d="M502.208 534.423c6.408.937 10.698 2.665 16.79 4.362 10.757 11.886 15.399 12.094 18.753 27.721l.829 4.503c1.575 8.269 4.032 23.468 2.578 31.592l-.661 3.613c-2.774.545-6.256-6.483-8.675-9.011l-1.972-2.029c-7.834-2.127-13.551-4.762-20.877-7.07a280 280 0 0 0-6.879-2.075c.274-17.225.033-34.403.114-51.606"/><path fill="#121627" d="M1537.66 1388.31c1.44.08 2.89.13 4.33.15 1.59.01 5.36.04 5.39 1.02.25 7.4.38 31.21.42 37.17-14.22-.87-39.83 3.13-51.97-2.14-6.15-3.92-8.78-7.09-14.19-12.01l1.35-.4c11.14-3.35 12.27-4.24 20.48-12.27l4.95-4.87c13.41-1.48 16.57-.69 29.24-6.65"/><path fill="#121627" d="M481.822 714.764c3.606-.047 7.816-.586 10.729 1.184 1.253 8.467.644 38.238.612 47.977l-.294 95.539c-4.628-.311-7.605-.028-10.984-2.744-1.134-7.735-.498-34.783-.49-44.146q-.105-48.906.427-97.81"/><path fill="#121627" d="M1444.81 1398.21c15.64-2.78 39.41 22.03 51.26 30.93l-3.47 2.11c-6.79 4.15-9.75 7.86-14.76 13.81l-1.48-1.43c-11.41-11.19-21.85-16.08-31.21-29.54-17.47.02-27.08.48-44.02-4.67l2.41-2.87c1.76-2.08 3.13-3.61 5.03-5.6 7.24.2 14.33.13 21.53.32 4.98-.16 10.08-1.27 14.71-3.06"/><path fill="#121627" d="M1188.7 288.522c4.13 1.782-.33 8.846-1.77 12.321-6.52 15.649-19.18 31.012-33.27 40.403-6.51-4.171-11.86-8.741-18.16-13.035-3.81-2.951-11.22-7.516-15.56-10.009l-.9-.562c14.37-6.857 39.06-19.061 55.98-21.652 8.74-1.339 6.95-3.411 13.68-7.466"/><path fill="#fc543f" d="M1480.14 1289.76c10.34 1.36 10.18 1.45 19.98 6.72-7.58 11.77-13.67 23.27-22.95 34.12-4.87 5.7 5.86 9.53-6.33 14.17-1.9.72-14.31 17.58-19.54 18.76-.16.04-3.25 2.05-3.72 2.36-8.55 6.54-6.17 4.91-16.07 9.56 12.65-21.5 21.61-43.42 37.36-63.02 4.17-5.19 8.67-16.2 11.27-22.67"/><path fill="#121627" d="m481.408 978.177 11.529-.049c-.553 38.252.6 76.752.232 115.032-.075 7.75.434 16.29-.507 23.9-3.692.01-7.805.34-11.184-.89-.434-5.93-.303-11.44-.318-17.36-.1-40.15 1.129-80.5.248-120.633"/><path fill="#fc543f" d="M1505.33 1292.66c14.07.44 27.85 1.73 41.84 2.36-.01 7.63.14 15.61-.09 23.19-8.75-.54-17.03-1.92-25.72-2.96-1.42 1.17-3.42 2.5-4.52 3.94-4.13 1.96-15.4 6.73-18.08 9.14l-1.39.64c-5.28 2.39-10.18 6-14.86 8.47-3.88-.6.2-9.03 1.61-10.84 7.69-9.92 15.97-22.63 21.21-33.94"/><path fill="#121627" d="M1527.43 701.931c6.69-.088 13.58.345 20.31.568-.24 9.841-.31 19.685-.2 29.528.22 16.719-23.53-.492-29.05-1.92-1.18-.306-1.43-.241-2.72-.691-6.42-1.094-12.45-2.946-18.86-3.848l-.9-.158c-4.96-5.004-8.91-8.712-13.51-14.155 21.74.417 25 3.479 44.93-9.324"/><path fill="#121627" d="M1512.97 1532.58c6.21 3.28 22.95 28.89 34.21 32 1.79.49 14.89 7.52 15.22 8.87 2.41 9.8-.59 10.81-6.63 12.52-2.26.64-4.51 1.33-6.74 2.08-4.66 1.58-6.94 2.44-11.31 4.72-10.79-12.72-20.69-26.49-28.77-41.08.11-10.92-1.85-11.08 4.02-19.11"/><path fill="#121627" d="M493.416 972.566c-.725-.189-12.505-2.576-12.176-2.225-1.233-7.034.084-98.795.595-99.356 1.609-1.768 9.104-.753 11.451-.734.984 4.864.763 16.874.657 22.749-.466 25.773.723 54.097-.527 79.566"/><path fill="#0b0308" d="M493.286 870.251c.984 4.864.763 16.874.657 22.749-.466 25.773.723 54.097-.527 79.566-1.713-15.889.074-43.411-.476-60.565-.273-8.524-.475-34.297.346-41.75"/><path fill="#121627" d="m489.002 1420.19 3.005-.08c3.479 4.68-1.07 84.52 1.19 98.25l2.748 1.5-.306 2.87c-2.289 2.87-5.874 4.12-9.271 5.72-3.095 1.16-1.63 1.25-4.475.5-1.909-6.73-.612-94.13-.267-106.47 2.94-2.3 3.082-1.63 7.376-2.29"/><path fill="#fc543f" d="M915.793 92.847c-1.598-2.874-1.903-3.457-3.071-6.698 7.235-.853 19.531-.539 27.163-.556l48.713-.096a9168 9168 0 0 1 152.982.299c-6.13 13.504-10.22 26.435-7.74 41.715.76 4.703 3.08 8.891 2.52 13.165-4.79-2.897-9.26-6.138-13.84-9.35 1.34-.584 7.84-3.393 7.81-4.731-.34-15.151 1.3-22.417 6.98-36.643-72.94-.027-147.202-.782-220.034.195z"/><path fill="#121627" d="M481.76 607.125c3.974 1.834 7.527 4.007 11.307 6.203-.592 32.848.447 65.691-.133 98.552l-11.123.053c-.019-34.695.681-70.194-.051-104.808"/><path fill="#121627" d="M1557.84 1022.45c3.93.25 3.71-.39 6.39 1.54.99 5.87.48 40.76.48 47.91l-.21 104.67c-3.98.12-4.58.9-6.98-.99-1.13-13.51-.27-39.19-.24-53.4-.09-33.24.1-66.49.56-99.73"/><path fill="#121627" d="M492.02 1260.46c2.545 1.67-.01 87.05.996 96.04.712 6.35-4.368 2.43-8.703.79-.583-.21-2.778-.78-2.766-1.82.348-30.83-.688-62.23.866-92.86.01-.2 1.71-.53 1.878-.48 2.775.11 5.135-.79 7.729-1.67"/><path fill="#121627" d="M481.245 1598.72c6.094 3.64 13.21 20.54 14.557 27.29l.886 4.49c3.929 20.03.356 34.95-8.461 52.94-1.012 1.77-4.476 10.38-6.731 10.06-.465-.95.327-84.61-.251-94.78"/><path fill="#fc543f" d="m915.967 1953.75 1.38-.04c3.886 2.03 38.571 1.15 45.118 1.14l117.885-.08c9.38.01 54.86-1.34 59.64 2.12l-.04 1.72c-7.63 1.16-29.05.6-37.78.61l-76.42-.01c-23.21-.12-46.411-.09-69.616.09-11.71.12-29.723.94-41.022.23l-.854-1.47z"/><path fill="#121627" d="M684.442 353.483c3.377 2.088 8.653 9.304 11.461 12.559 1.226 1.42-.255 5.563-.983 6.96-2.634 5.06 4.201 11.53 6.66 16.638-4.037 6.937-7.718 13.622-10.928 21.009-3.802 7.951-8.987-2.008-15.644-7.296 2.04-16.928.26-35.002 9.434-49.87"/><path fill="#121627" d="m1561.74 869.365 1.97.332c1.37 1.778 1.25 128.282.58 141.773l-4.76-1.82c-.47-.6-.94-1.2-1.42-1.8-1.52-43.423-.3-87.294-.53-130.772-.03-4.862 1.15-4.801 4.16-7.713"/><path fill="#121627" d="M912.566 1962.03c50.301-.48 100.604-.6 150.904-.33l50.26-.17c7.52 0 25.14-1.26 30.5 2.39l-.02 1.41-2.96.48c-71.74 1.58-144.229-1.29-216.022-.18-3.424.05-12.418.95-14.478-1.28z"/><path fill="#121627" d="m1559.57 738.634 4.12.83c3.46 5.616-.02 110.425 1.15 125.431.15 1.967-4.37 3.303-6.09 4.069l-1.45-1.502c.31-42.007-.14-84.04.46-126.034.61-.931 1.21-1.862 1.81-2.794"/><path fill="#fc543f" d="M599.785 683.361c2.523 1.282 22.557 11.944 23.477 13.357 4.352 6.68 26.273 23.89 18.222 32.433-8.672-5.467-18.557-10.546-26.314-16.757-7.195-5.76-9.83-1.862-17.906-12.111.812-6.406.879-10.678 2.521-16.922"/><path fill="#121627" d="M481.289 1184.21c4.566.59 7.192.5 11.797.56-.117 9.01 1.215 66.07-1.198 69.09-.301.37-.627.73-.921 1.11-.38.5-.732 1.01-1.099 1.52-1.034.53-7.671 2.82-7.752 1.1-1.132-23.95-.714-49.17-.827-73.38"/><path fill="#121627" d="M1557.15 1180.99c2.97.13 5.17-.2 7.41 1.58 1.26 13.23 1.59 94.31-.54 104.77-2.8.87-3.49 1.4-6.31.74-1.03-3.65-.55-29.87-.53-35.2.18-23.96.17-47.92-.03-71.89"/><path fill="#121627" d="M481.055 511.272c10.868 4.575 20.988 10.143 12.525 11.867-.847.173-.582 11.151-.551 13.861.161 14.245-.019 28.687-.03 43.035-.717 2.537-2.282 1.916-4.508 1.083a186 186 0 0 1-7.24-2.831c.697-20.061.289-46.567-.196-67.015"/><path fill="#121627" d="M656.37 1848.9c3.526-.11 8.489-.65 11.77.93 1.892 1.22 1.48 3.48 2.216 5.55.788 2.23 3.811 1.98 4.039 2.72 1.154 3.73-7.83 6.5-7.426 11.83.039 3.53 1.293 6.85 3.85 9.43 1.956 1.98 8.604-.71 9.659.29-1.345 1.53-2.177 1.43-4.229 2.12-6.377.85-18.532 3.18-23.673-1.38-13.494-11.98-9.718-23.74 3.794-31.49"/><path fill="#121627" d="M1564.7 513.925c1.53 1.687.39 20.597.35 24.075l-.12 56.5c-.01 5.672 2.54 17.974-3.43 18.431l-4.56.347c.84-28.538 1.21-65.723.39-93.971l-.26.193c2.15-1.755 5.36-3.946 7.63-5.575"/><path fill="#fc543f" d="M1468.58 701.722c7.74 7.321 14.59 15.167 22.36 22.777-25-1.796-42.62-8.597-64.59 6.041-4.41 1.207-9.16 2.583-2.47-2.905 14.16-13.553 27.72-18.498 44.7-25.913"/><path fill="#fb4639" d="M1426.35 730.54c-4.41 1.207-9.16 2.583-2.47-2.905z"/><path fill="#fc543f" d="M865.019 143.172c6.385.851 10.633 2.147 16.819 3.64-7.105 10.031-11.371 14.316-22.5 19.331-4.209-1.272-12.338-4.357-16.596-3.562-6.148 1.397-11.929 2.704-18.016 4.389.989-3.53 1.847-7.13 2.761-10.689 15.114-3.914 23.375-7.153 37.532-13.109"/><path fill="#121627" d="M1557.28 643.911c.02.001 2.1.187 2.12.176.22-.131 2.75.202 3.13.182.54-.027 2.12.705 2.11 1.095-.41 15.153 1.64 77.412.02 88.238-.52.017-6.92.721-6.95-.501-.55-29.58-.38-59.498-.43-89.19"/><path fill="#121627" d="M1564.11 361.618c4.37 5.755-.27 65.104 1.04 75.952.17 1.467-1.57 4.177-3.23-.975-8.97-20.773-11.18-38.582-3.98-60.514 1.31-3.974 3.85-11.051 6.17-14.463"/><path fill="#121627" d="M586.894 505.163c4.619 1.898 9.418 4.845 14.182 7.001 1.188 5.045 2.524 9.613 3.091 14.801 1.029 9.419 4.714 10.534-5.415 10.351-8.365.636-10.118.562-18.463 2.087.471-13.13 1.371-22.072 6.605-34.24"/><path fill="#121627" d="M572.24 418.64c2.5 2.729 5.263 9.854 9.15 14.633 4.182 5.14 5.031 5.9 10.107 10.657-1.882 1.904-3.894 3.892-5.665 5.901l-4.941 5.614-2.662 3.02c-6.653-4.689-13.025-9.806-19.635-14.603l3.657-7.259c2.766-5.356 6.822-12.79 9.989-17.963"/><path fill="#121627" d="M481.271 1364.48a214 214 0 0 1 11.818 3.94c-.109 8.1 1.403 42.43-2.058 47.19-4.142 1.27-5.658 1.45-9.927 2.13.008-16.67.749-37.1.167-53.26"/><path fill="#121627" d="M1248.73 1946.2c4.68.43 6.56 12.99 7.93 17.46l-37.91.16c-14.02-.09-3.32-6.67 2.3-9.82 8.54-4.8 18.06-6.52 27.68-7.8"/><path fill="#121627" d="M780.033 1945.99c17.705.35 46.445-.29 58.974 15.04-14.442-.27-28.903-.81-43.36-1.14-5.789-4.98-9.94-8.74-15.614-13.9"/><path fill="#121627" d="M481.546 1124.16c2.962-.09 6.089-.25 9.011-.19.505.01 1.967.34 1.985.66.467 8.74.964 36.57.195 43.72-4.021.16-7.718.17-11.745.17.373-14.84.243-29.53.554-44.36"/><path fill="#121627" d="M542.233 497.564c5.585-.401 10.655-.546 16.238-.668l-1.907 9.089c-.81 3.835-1.064 25.553-6.359 20.311-5.967-7.564-12.398-15.708-18.857-22.814 2.332-1.219 9.089-5.237 10.885-5.918"/><path fill="#121627" d="M538.845 318.242c5.082-.025 23.631-2.597 19.631 7.742-1.642 4.244.704 10.609-3.71 11.961-6.669-1.572-14.396-2.424-20.693-5.158l-1.611-.665c2.079-4.416 4.662-9.372 6.383-13.88"/><path fill="#121627" d="m1556.21 1390.63 7.8.61c2.28 4.38.22 31.12.75 37.66.21 2.57-6.84-1.08-6.86-1.18-2.43-11.38.72-25.24-1.69-37.09"/><path fill="#121627" d="M1477.02 597.629c5.46 2.914 11.45 14.627 22.5 15.289 7.62.457 8.21 6.381-1.02 6.036a204 204 0 0 1-13.58-4.457c-5.39-1.967-11.13-4.392-16.67-5.835l-1.88-.537c4.29-3.929 6.7-6.264 10.65-10.496"/><path fill="#fc543f" d="M1410.7 1398.5c4.54-4.77 8.66-9.54 13.59-13.92l1.17.82c6.36 4.58 11.86 6.65 18.35 10.65l1 2.16c-4.63 1.79-9.73 2.9-14.71 3.06l-2.1-2.71c-5.8.16-11.49-.05-17.3-.06"/><path fill="#0b0308" d="m1443.81 1396.05 1 2.16c-4.63 1.79-9.73 2.9-14.71 3.06l-2.1-2.71c7.34-.68 8.49-.22 15.81-2.51"/><path fill="#121627" d="M502.454 1123.23q1.266.345 2.54.66c4.832 1.17 7.675 6 12.381 8.34 3.583 1.79-3.725 7.1-4.975 8.18-3.275 2.84-6.561 5.66-9.955 8.36.12-8.87.4-16.64.009-25.54"/><path fill="#fb4639" d="M1241.26 278.515c5.5.575 11.84 2.514 17.17 4.04-2.6 3.299-4.33 5.781-7.2 8.921-6.62-.65-12.1-1.225-18.79-1.659 4.03-6.824 2.4-5.498 8.82-11.302"/><path fill="#fc543f" d="M1439.58 884.264c16.91-9.43 19.32-13.339 32.28 2.824-12.44-.568-15.73-2.942-27.09.502-2.01-1.227-3.27-1.831-5.19-3.326"/><path fill="#121627" d="M678.237 1861.82c1.43.04 8.381 6.65 11.041 7.86 7.497 3.41-5.888 5.47-7.29 5.71-3.781-.68-7.122 2.78-8.507 1.66-9.666-7.79 3.424-13.82 4.756-15.23"/><path fill="#121627" d="M591.344 1099.33c15.557-.68 7.934 1.96 10.401 18.67.313 2.12.495 4.2-2.05 3.51-3.306-6.09-6.982-11.68-10.694-17.53-2.328-3.67-1.741-3.56 2.343-4.65"/><path fill="#fc543f" d="M594.951 683.94c2.456 2.572-.801 12.205-1.489 16.002q-8.094.156-16.19.146c-2.532-4.268 14.333-14.164 17.679-16.148"/><path fill="#fc543f" d="M822.981 157.224c2.346 1.765-.121 7.229-.936 9.76-5.392 1.382-9.682 2.64-15.245 3.446-.503-1.493-2.862-7.232-2.276-7.838 1.365-1.412 16.79-4.992 18.457-5.368"/><path fill="#fc543f" d="M1466.33 279.182c10.24-.772 11.3 4.776 20.06 10.391 2.67 1.713 8.09 1.61 5.29 5.006-.89.36-5.6 2.469-5.8 2.346-3.78-2.288-18.79-14.372-19.55-17.743"/><path fill="#fb4639" d="M675.676 409.256c9.127 11.016 8.438 11.431 21.116 15.508l-1.861 3.951c-8.448 1.097-17.3-.676-18.197-10.195z"/><path fill="#121627" d="M647.933 461.385c10.726-.582 14.894.346 25.156 1.249-1.826 2.852-3.475 5.784-5.158 8.721a69 69 0 0 0-7.023-3.004c-1.869-.685-15.063-4.854-15.42-5.71.757-1.019.944-.586 2.445-1.256"/><path fill="#121627" d="M1248.33 160.797c2.98.512 21.4 1.507 21.48 3.492-.66.883-5.21 2.86-6.42 3.426-3.71 1.642-7.56 3.85-11.25 5.657-.75-2.524-1.75-6.469-2.51-8.761z"/><path fill="#121627" d="M502.48 1371.75c7.233 1.51 14.442 3.12 21.644 4.77-4.273 1.2-8.6 2.26-12.897 3.39-6.799.78-5.173 4.61-7.923 7.16-1.613-.73-.853-13.16-.824-15.32"/><path fill="#fb4639" d="M1444.77 887.59c-2.23.836-6.74 2.104-9.28 2.3-6.76-1.06-17.68 9.469-21.51 10.31-17.48 3.839 9.63-8.89 11.87-9.567 3.17-.959 9.78-4.727 13.73-6.369 1.92 1.495 3.18 2.099 5.19 3.326"/><path fill="#bd433c" d="m915.793 92.847 1.483-2.7c5.019 16.609 11.322 27.343 5.755 45.492l-1.549-2.303c3.126-16.401.04-25.736-5.689-40.49"/><path fill="#121627" d="M712.958 411.172c1.338 2.098-3.374 11.428-4.553 13.514-.431.762-7.846-1.239-9.042-1.47-1.038-.332-2.485-.337-2.191-1.738 1.934-1.809 12.391-7.704 15.786-10.306"/><path fill="#791e1b" d="M922.44 1910.02c3.366 9.76 4.92 15.03 1.521 25.47-1.898 5.83-3.381 12.98-6.614 18.22l-1.38.04c.832-3.02 2.314-6.48 3.434-9.43 4.263-11.24 3.532-22.47 3.039-34.3"/><path fill="#121627" d="M1509.52 295.701c.95.925 6.81 8.928 6.92 9.699-1.18 1.172-3.17.765-4.7.919-12.48 4.419-6.78-1.558-2.22-10.618"/><path fill="#121627" d="M573.543 597.693c8.742 6.946 4.364 5.138-4.97 11.923-9.973 2.14 2.467-8.51 4.97-11.923"/><path fill="#121627" d="M562.854 1732.71c1.4 1.36 6.222 9.11 6.403 10.72-.364.25-.761.33-1.399.46-12.244 2.06-10.109.94-5.004-11.18"/><path fill="#fb4639" d="M696.792 424.764c8.66 3.016 7.189 2.749-1.861 3.951z"/><path fill="#fb4639" d="M544.042 970.123c-1.165-.013-11.38.225-4.359-2.245l1.229-.46c1.289.944 1.948 1.596 3.13 2.705"/><path fill="#791e1b" d="M923.031 135.639c-.424 1.009-1.417 4.397-2.462 4.763-1.113-.872.597-5.986.913-7.066z"/></svg>