<svg xmlns="http://www.w3.org/2000/svg" width="2048" height="2048" viewBox="0 0 2048 2048"><path fill="#01050a" d="M0 0h2048v2048H0z"/><path fill="#040210" d="M973.001 175.155c-28.229-65.216 62.789-61.74 43.779-121.322-1.54-4.832-3.5-12.074.93-15.459 17.39-1.246 34.35 17.364 42.51 31.164 9.71 16.418 13.79 37.779 4.81 55.449-3.32 6.538-9.49 14.201-11.23 21 2 1.694 13.05-.471 18.87.908 17.19 4.076 16.46 15.94 24.61 28.923-.9 3.111 14.33 1.966 14.73 1.663 7.61-5.804 59.7 14.629 60.34 14.195 29.02-19.747 54.49-9.853 73.43 16.547l264.24.096 82.51-.149c13.13.036 30.89-.374 43.69.694-.07-5.959-.33-11.113.55-17.027.53-13.635.21-29.547.22-43.327 4.93-5.023 9.65-10.192 14.53-15.221 1.37-4.465.05-3.143 3.1-5.065 29.5-1.01 61.51-.292 91.22-.263l149.76-.113c8.8-8.969 16.52-16.641 24.38-26.456.64-9.28.67-10.397-.3-19.673-1.03-9.805-9.32-20.695-6.17-28.367 5.89-4.78 35.32-2.953 43.84-2.268.61 12.896.74 24.51.71 37.426 9.2-.08 31.58-1.28 39.17 1.863 3.94 4.922 3.91 41.887-2.38 48.532-3.66.618-19.63-9.493-25.57-11.024-8.53-2.195-12.79-2.559-21.76-2.394-7.98 8.439-19.96 19.907-27.03 28.221-.32 47.026-.41 94.053-.26 141.079.15 24.721 1.24 49.977.14 74.649-.29 6.309 2.27 15.982-1.46 21.021l-1.89.683c-4.8 3.5-12.13 10.657-16.8 14.926-15.83-.17-41.22-.696-56.47.288l-1.53 1.602c.95 18.617.29 39.404.26 58.27l.49 74.274.02 265.213c21.84 23.647 33.13 34.536 14.13 67.801a117.2 117.2 0 0 1 17.13 46.061c1.87 12.724-.98 49.294 4.07 55.88 11.91-4.578 24.71-8.703 37.79-3.975 23.34 8.438 33.17 34.02 55.04 44.18 17.68 8.33 38.59-12.19 45.19-1.86.57 7.72-3.1 15.33-8.77 22.4-20.87 26.03-56.74 39.27-87.6 22.68-2.53-1.36-7.89-3.89-10.52-4.34-.78 6.03-.39 9.64-.74 15.38-14.47 22.42-16.79 15.16-35.46 26.69 1.71 29.21-2.06 47.37-14.06 74.1-.94 2.11 4.79 12.1 5.8 14.42 10.31 24.51-5.41 40.87-21.76 55.96-2.12 29.8-.22 61.55-.4 92.03-.55 62.37-.64 124.74-.26 187.12.32 23.15.48 46.3.49 69.46.02 15.92.57 32.8-1.39 48.54l58.92.13c5.14 4.7 10.87 9.87 16.3 14.24 1.8 1.4 3.79 2.61 3.9 4.92.83 18.3.07 38.32.02 56.54l.13 106.56c-.04 19.09-.74 53.88.74 71.91l.72.91c7.69 9.58 23.44 27.5 36.23 29.07 11.33 1.39 34.84-17.89 39.57-12.44 3.45 3.98.07 34.27 1.72 41.13.35 1.45-2.3 4.7-3.85 5.26-9.84 3.53-27.07 1.11-37.95 1.66l.14 39.75c-10.86.09-39.79 1.89-47.8-1.63-1.29-1.71-2.59-3.18-1.55-5.48 7.93-17.53 11.65-24.08 11.09-43.88-5.84-7.03-21.12-25.91-29.47-26.94l-1.81-.23c-5.97-.71-11.89-.45-17.87-.48-18.23-.09-36.58.65-54.79.49-53.95-.46-107.92-1-161.88-.57-.58-.5-1.15-.99-1.73-1.48-.24-1.17-.77-3.36-.84-4.57-4.98-4.46-9.86-9.03-14.65-13.69-.04-14.25.73-43.03-.57-56.28l-.64-2.19c-.51-.4-1.03-.8-1.55-1.2-29.42-.74-69.36-.48-97.36-.4l-290.53.53c-13.28 12.32-24.32 25.78-44.04 26.78-11.92.61-22.5-3.1-31.41-11.04-17.93 8.76-33.25 15.8-54.05 16.06-20.77.26-19.51-3.47-39.98 3.75 17.28 55.2-22.75 53.11-44.83 89.75-8.34 13.83 7.52 35.16 2.15 44.97-20.97 12.81-51.158-32.41-54.025-50.67-4.042-25.73 2.057-33.11 15.077-53.16-27.003.31-35.472-12.04-44.944-34.8-20.552 1.55-32.873-.62-52.537-7.36-2.084-.58-18.117-6.66-19.169-6.02-31.085 18.99-50.872 10.23-74.874-17.92-44.535-1.47-89.482-.58-134.044-.52l-158.793-.48c-26.558.01-53.112 1.08-79.673 1-6.129-.01-12.377.26-18.417-.92l-.044 59.11c-4.305 4.43-11.154 10.83-14.855 15.36l-.335 3.12c-5.466 4.22-131.588 1.54-149.225 2.07-27.483.81-65.095-.52-93.688.83-26.449 29.97-33.523 30.03-14.944 70.62 5.081 11.1-41.578 7.48-46.949 7.42-1.043-11.45-.625-28.22-.616-40.14-7.819-.03-38.818 1.89-42.14-3.49-2.29-3.71-3.05-37.89 3.132-43.07 11.742-3.92 40.509 25.98 57.391.51 1.901-2.87 14.285-13.83 17.465-16.26.27-23.03-1.831-234.6 1.063-239.58.864-1.49 5.325-2.42 7.069-2.97q7.076-7.41 14.349-14.64l57.679-.21-.202-234.46c-.167-53.1-1.055-108.43.035-161.36-27.256-25.71-36.291-33.99-16.084-68.01 1.467-2.47-11.295-26.4-13.118-32.4-6.84-22.55 2.705-46.42-5.497-67.99-3.902-1.57-20.158 4.37-23.92 4.41-32.53.39-41.872-27.84-66.058-43.5-19.071-12.35-38.384 4.35-45.766 2.75-1.117-1.11-2.594-2.65-2.782-4.19-2.744-22.56 26.183-42.918 43.694-48.163 26.168-7.837 42.631-1.774 64.713 9.475l-3.159-15.257c7.827-20.795 16.295-22.317 36.074-31.761-2.465-27.862 2.574-49.916 17.101-74.301-24.592-28.735-3.764-47.809 14.724-68.792l.154-224.559c-.104-57.534-1.242-116.461.398-173.901l-58.309.085-16.145-14.613-4.361-1.771c-2.697-3.242-1.435-54.565-1.502-62.4l.009-175.656c-6.484-9.869-16.515-19.132-26.712-25.619-17.421-11.082-39.23 16.948-50.191 11.231-2.57-5.877-1.227-39.895-1.102-48.537 14.024.017 28.034.403 42.012-.6.016-8.18-1.705-29.883 1.596-36.033 6.304-3.523 40.765-4.223 45.119 4.289a2210 2210 0 0 0-9.403 22.831c-2.191 5.274-1.571 12.652-1.586 18.64 8.731 12.761 17.642 18.722 26.144 30.03l149.627.189c28.235-.09 64.182-1.294 91.9.017 2.47 2.314 1.484.88 2.135 4.999 5.103 5.115 9.631 10.258 14.92 15.167q.317 30.422.278 60.847c6.322-1.283 65.759-.506 75.776-.521l234.845-.334q25.35.01 50.697.405c9.17.082 21.69.654 30.417-.777 19.847-21.957 40.81-38.041 70.066-17.518 4.365 3.062 17.044-3.13 21.707-5.121 14.543-6.392 31.274-8.609 47.067-7.128 13.233 1.241 16.916.54 29.587-2.918"/><path fill="#9b5836" d="M397.641 133.053c5.103 5.115 9.631 10.258 14.92 15.167q.317 30.422.278 60.847c-2.602.99-12.191.644-15.632.698-.028-21.625-.684-55.933.434-76.712"/><path fill="#9b5836" d="M396.996 1838.54c3.667 0 13.508-.83 15.755.76l-.044 59.11c-4.305 4.43-11.154 10.83-14.855 15.36-1.279-5.67-.744-19.41-.761-25.83z"/><path fill="#9b5836" d="M1651.52 133.289c1.49 17.415.47 57.033.47 76.041-5.02.184-10.05.325-15.08.422 0-5.925.09-12.012-.14-17.915.53-13.635.21-29.547.22-43.327 4.93-5.023 9.65-10.192 14.53-15.221"/><path fill="#9b5836" d="M1636.39 1843.14c.66-4.52.96-4.87 5.59-4.78 3.35.04 6.71.04 10.06.02l-.09 48.36c0 7.12.39 19.69-.34 26.37-4.98-4.46-9.86-9.03-14.65-13.69-.04-14.25.73-43.03-.57-56.28"/><path fill="#9b5836" d="m1841.48 390.509 46.52.312c8.06.026 21.46-.329 29.02.319-4.8 3.5-12.13 10.657-16.8 14.926-15.83-.17-41.22-.696-56.47.288-3.85-1.806-2.26-11.605-2.27-15.845"/><path fill="#a25b38" d="M133.956 391.443c5.929-1.247 64.955-.613 74.986-.638-.035 4.977.057 10.234-.532 15.166l-58.309.085z"/><path fill="#9b5836" d="m1841.67 1638.24 58.92.13c5.14 4.7 10.87 9.87 16.3 14.24-6.2.88-20.49.42-27.39.4l-48.22-.17c-.02-4.39-.35-10.53.39-14.6"/><path fill="#9b5836" d="M208.103 1637.98c1.136 2.85.619 11.55.611 15.15-20-.36-54.722 1.19-72.639-.3q7.076-7.41 14.349-14.64z"/><path fill="#01050a" d="M420.898 374.505c44.844 1.078 92.458-1.115 136.179 7.265 119.402 22.885 244.27-44.147 360.944-4.739 18.31 6.19 41.483 5.679 60.062 3.436l13.185 12.575c6.974 3.97 14.552 14.159 20.332 19.754 4.64 4.489 10.44 13.02 17.84 11.336 4.02-.913 9.34-9.551 12.39-12.695 6.03-6.228 12.75-11.901 18.33-18.489 1.93-2.427 3.6-4.216 5.96-6.263l6.49-6.159c51.33 5.937 83.01-14.704 132.25-14.606 70.91.229 141.46 14.347 211.66 20.843 21.23 1.965 68.25-3.111 90.51-7.851 43.24-9.207 78.98-.66 121.73-3.679l-18.58 17.908c-21.79.006-49-.748-70.34.131 9.17 1.785 66.86-1.121 70.14 2.181.02.41.25 4.667.25 4.667 11.41 13.073 23.53 25.802 35.8 38.079 5.15 5.156 8.36 4.59 14.33 1.817 5.97-5.926 12.19-11.944 18.04-17.967 0 18.452.27 36.902.8 55.346.21 9.431 1.36 24.263.1 33.136-5.61 38.865-13.9 77.817-12.99 117.307.3 13.065 3.13 27.87 4.88 40.931 8.61 64.32 16.86 128.879 16.91 193.887.01 11.306-6.05 18.659-9.75 28.879-10.46 30.402-11.81 52.227-7.99 83.359-2.09 2.101-7.91 8.411-10.31 9.105-2.02 4.954-31.51 34.651-36.75 38.681 8.15 8.84 16.46 17.51 24.95 26.02 2.62 2.64 9.98 9.64 11.87 12.05l9.5 10.51c-2.19 23.12-.02 51.56 6.25 73.76 4.59 16.2 12.16 25.27 12.08 42.36-.1 22.85-1.74 45.26-3.68 67.99-2.84 32.87-6.25 65.7-10.24 98.45-1.79 14.57-3.26 30.4-5.54 44.79-8.49 53.47 12.56 105.28 11.31 158.2-.55 23.09-.84 46.42-1.62 69.48-3.71-3.63-16.89-15.97-18.14-19.89-3.6-1.25-6.09-2.69-9.58-1.61-10.35 9.33-32.53 32.86-41.96 44.85-.14 1.09-.29 2.19-.44 3.28.98 3.46 2.54 4.64 4.99 7.26 3.01 3.51 14.67 13.86 18.63 17.57l-58.85-.08c-28.13.02-38.04-.77-65.49-6.07-21.78-4.21-58.53-8.28-80.81-7.16-78.66 3.97-156.94 21.52-236.01 21.48-22.39.05-39.6-7.84-61.05-13.28-20.08-5.08-37.55-4.1-57.87-2.43-4-3.68-6.28-5.76-9.82-10.04-3.23-1.17-28.36-29.83-35.65-34.78-11.37-1.3-30.777 30.99-41.031 34.92-1.834 2.91-4.891 5.5-7.445 7.92-20.69-1.15-31.72-1.56-51.891 2.88-19.466 3.98-39.62 14.35-59.561 14.39-81.301.16-161.153-15.28-241.803-21.38-33.396-2.53-71.583 6.46-104.091 12.97-7.829 1.56-33.309.05-42.34-.08-20.148-.17-40.297-.15-60.445.07 5.231-5.45 11.93-11.51 17.465-16.92.633-.71 1.257-1.43 1.872-2.15 3.126-3.72 4.067-4.77 3.681-9.69-9.74-13.69-25.772-27.55-37.43-39.91-3.271-3.46-8.25-.37-12.54-1.09-1.011 2.37-14.725 16.26-17.383 19.01-.06-16.63-.233-33.27-.518-49.9-.274-11.53-1.694-29.04-.373-40.12 5.753-48.21 14.957-90.95 9.844-139.82-7.535-72-16.679-144.55-18.248-217.02-.291-13.43 8.116-25.57 11.591-38.19 6.743-23.35 7.774-46.24 6.369-70.34l9.061-9.26c2.83-5.14 29.236-32.17 34.319-38.05-3.467-3.62-34.866-37.839-34.71-37.371L380.284 976.2a186.9 186.9 0 0 0-8.002-82.964c-4.13-12.084-9.505-17.483-9.435-30.541.285-52.829 7.278-104.83 13.695-157.106 2.851-23.23 6.749-52.778 7.14-76.037.627-37.291-6.063-77.477-10.151-114.481-1.237-11.196-.619-25.696-.633-37.344a1666 1666 0 0 1 .289-52.709l1.235-.607c2.687 2.455 3.996 3.674 6.359 6.411 2.6 2.475 7.262 7.187 10.011 9.092 17.097 2.293 31.754-23.915 43.048-34.984 1.483-1.608 6.927-9.887 8.231-10.196 21.928-5.189 66.117 4.01 86.092-1.428l-87.748-.271c-6.333-5.981-13.428-12.401-19.517-18.53"/><path fill="#9b5836" d="M420.898 374.505c44.844 1.078 92.458-1.115 136.179 7.265 119.402 22.885 244.27-44.147 360.944-4.739 18.31 6.19 41.483 5.679 60.062 3.436l13.185 12.575-463.105.264-87.748-.271c-6.333-5.981-13.428-12.401-19.517-18.53"/><path fill="#9b5836" d="M1072.61 380.526c51.33 5.937 83.01-14.704 132.25-14.606 70.91.229 141.46 14.347 211.66 20.843 21.23 1.965 68.25-3.111 90.51-7.851 43.24-9.207 78.98-.66 121.73-3.679l-18.58 17.908c-21.79.006-49-.748-70.34.131-35.58-1.122-76.95-.211-112.86-.176l-214.89.016c-38.92.001-79.81.738-118.49-.191-6.11-1.676-23.69-.79-26.64-5.054l-.84-1.182z"/><path fill="#9b5836" d="m1660.12 1060.75 9.5 10.51c-2.19 23.12-.02 51.56 6.25 73.76 4.59 16.2 12.16 25.27 12.08 42.36-.1 22.85-1.74 45.26-3.68 67.99-2.84 32.87-6.25 65.7-10.24 98.45-1.79 14.57-3.26 30.4-5.54 44.79-8.49 53.47 12.56 105.28 11.31 158.2-.55 23.09-.84 46.42-1.62 69.48-3.71-3.63-16.89-15.97-18.14-19.89 1.25-61.06.08-125.07.1-186.37z"/><path fill="#9b5836" d="M1660.36 440.016c5.97-5.926 12.19-11.944 18.04-17.967 0 18.452.27 36.902.8 55.346.21 9.431 1.36 24.263.1 33.136-5.61 38.865-13.9 77.817-12.99 117.307.3 13.065 3.13 27.87 4.88 40.931 8.61 64.32 16.86 128.879 16.91 193.887.01 11.306-6.05 18.659-9.75 28.879-10.46 30.402-11.81 52.227-7.99 83.359-2.09 2.101-7.91 8.411-10.31 9.105z"/><path fill="#9b5836" d="M380.284 976.2a186.9 186.9 0 0 0-8.002-82.964c-4.13-12.084-9.505-17.483-9.435-30.541.285-52.829 7.278-104.83 13.695-157.106 2.851-23.23 6.749-52.778 7.14-76.037.627-37.291-6.063-77.477-10.151-114.481-1.237-11.196-.619-25.696-.633-37.344a1666 1666 0 0 1 .289-52.709l1.235-.607c2.687 2.455 3.996 3.674 6.359 6.411 2.6 2.475 7.262 7.187 10.011 9.092l.121 372.082-.094 115.035c-.013 15.316.856 44.769-.296 59.228z"/><path fill="#a25b38" d="M374.422 424.411c2.687 2.455 3.996 3.674 6.359 6.411-3.543 2.235-2.239.437-4.127.173-.623 1.15-1.879 7.212-2.148 8.524-.011-4.838-.232-10.38-.084-15.108"/><path fill="#9b5836" d="m381.853 1070.94 9.061-9.26-.343 545.64c-1.011 2.37-14.725 16.26-17.383 19.01-.06-16.63-.233-33.27-.518-49.9-.274-11.53-1.694-29.04-.373-40.12 5.753-48.21 14.957-90.95 9.844-139.82-7.535-72-16.679-144.55-18.248-217.02-.291-13.43 8.116-25.57 11.591-38.19 6.743-23.35 7.774-46.24 6.369-70.34"/><path fill="#9b5836" d="M1613.05 1660.18c3.01 3.51 14.67 13.86 18.63 17.57l-58.85-.08c-28.13.02-38.04-.77-65.49-6.07-21.78-4.21-58.53-8.28-80.81-7.16-78.66 3.97-156.94 21.52-236.01 21.48-22.39.05-39.6-7.84-61.05-13.28-20.08-5.08-37.55-4.1-57.87-2.43-4-3.68-6.28-5.76-9.82-10.04z"/><path fill="#9b5836" d="m434.988 1660.16 550.111.15c-1.834 2.91-4.891 5.5-7.445 7.92-20.69-1.15-31.72-1.56-51.891 2.88-19.466 3.98-39.62 14.35-59.561 14.39-81.301.16-161.153-15.28-241.803-21.38-33.396-2.53-71.583 6.46-104.091 12.97-7.829 1.56-33.309.05-42.34-.08-20.148-.17-40.297-.15-60.445.07 5.231-5.45 11.93-11.51 17.465-16.92"/><path fill="#a25b38" d="m1066.12 386.685.84 1.182c2.95 4.264 20.53 3.378 26.64 5.054-10.97.46-22.43.078-33.44.027 1.93-2.427 3.6-4.216 5.96-6.263"/><path fill="#01050a" d="M197.661 1180.58c2.512 1.76 8.555 8.41 11.084 10.91 14.721 14.59 24.082 19.29 43.743 24.24 6.461 7.72 14.25 20.98 20.062 29.69 30.449 45.66 56.234 92.48 72.967 144.89 12.208 38.25 11.646 33.31-.434 71.17-20.844 65.34-51.043 113.12-94.162 165.57l-.011 70.76c-18.476.35-36.859-.16-55.369.47-.96 17.4-1.64 143.02 1.046 150.72 10.551 3.28 55.922 1.75 70.274 1.72l85.291.22c1.174-15.37.468-39.47.494-55.47 22.801-.41 45.698.8 68.91.24 48.236-45.55 103.185-70.84 166.116-89.62 44.69-13.34 41.901-14.95 85.656 4.05 43.791 19.02 85.156 39.07 125.106 65.86 11.596 7.78 25.086 15.53 35.58 24.67 9.691 26.44 16.751 33.96 38.776 51.08-17.487 11.47-34.769 10.57-49.843-3.49-28.407-26.5-55.535-52.67-88.797-73.35-56.603-33.79-103.654-46.4-168.425-26.09-55.517 17.41-97.969 46.77-141.818 83.7-10.964.12-21.929.12-32.893-.01-.684 25.21.075 53.88.418 79.24-78.203 3.38-163.442-1.12-242.526 1.15-8.454 8.54-20.962 22.81-27.968 32.35-1.907 19.61 2.108 28.18 10.215 45.68l-32.034-.22c.129-13.71.09-27.42-.117-41.12-14.337.13-28.675.08-43.011-.14l-.045-32.29c16.578 9.54 29.8 14.75 49.208 10.96 7.539-5.93 22.444-22.07 29.832-29.7 1.089-79.02.034-160.59-.034-239.76 26.321.63 52.653.71 78.977.23l.414-41.19c40.145-40.89 65.199-78.01 84.428-131.19 35.58-94.55-18.747-184.73-85.355-248.96-16.486-15.9-36.604-34.2-15.755-56.97"/><path fill="#01050a" d="M1851.82 1179.66c10.34 6.55 9.22 26.84 3.5 35.88-5.84 9.22-16.2 18.15-23.95 26.06-46.27 47.19-90.9 106.81-92.1 175.71-1.25 75.52 46 149.35 96.19 202.19-.16 12.98.03 26.34.06 39.35l78.3.07c.92 78.83 0 159.05.2 238.04 9.43 10.84 19.84 20.9 30.14 30.93 3.22.73 6.48 1.27 9.77 1.62 15.45 1.68 26.48-3.61 38.01-12.86.4 10.2.11 22.82.12 33.21-14.18-.04-28.52.19-42.71.32-.69 11.1-.07 28.98-.01 40.59-11.22.62-22.57.49-33.81.5 11.26-17.79 15.6-27.06 11.87-48.82-7.41-9.28-20.17-21.63-28.77-30.01l-240.99.05c1.06-24.08.32-54.72.21-79.25-10.05-.64-23.78-.4-34.14-.61-31.41-32.31-103.5-74.26-147.5-86.03-62.76-16.78-102.76-5.47-156.9 25.27-18.25 10.1-32.57 22-49.46 35.02-19.01 14.64-40.93 41.8-62.19 51.36-8.52 3.83-23.06-3.13-30.92-7.56 19.76-14.04 32.21-29.1 37.69-53.27 11.65-6.05 36.22-23.89 49.34-31.81a716 716 0 0 1 119.7-57.63c7.22-2.66 23.86-10.13 30.21-11.17 12.71-2.08 35.73 5.75 48.1 9.62 45.89 14.37 87.9 32.76 127.92 59.61 13.32 8.94 26.79 20.67 40.14 30.05l67.39.03.19 55.67c19.62.62 42.04.13 61.94.12 30.88.1 61.76.01 92.64-.25.79-29.45.01-60.42.22-90.08.09-13.53.91-50.46-1.51-62.5-5.15-3.09-44.11-1.75-52.73-1.72l-.11-70.64c-9.88-10.14-17-20.63-25.81-32.05-37.74-48.93-59.6-107.21-76.04-166.18-2.22-7.97 4.3-26.77 6.99-34.91 21.34-64.58 55.57-121.83 93.17-178.05 25.48-4.68 39.26-17.12 55.64-35.87"/><path fill="#01050a" d="M99.523 58.267c9.601-.492 20.942-.242 30.845-.548-10.259 16.272-12.481 26.83-9.905 45.914 6.572 8.888 19.901 21.917 28.025 30.318 24.642 1.111 54.235.046 79.535.075l163.185.006c.928 26.649.42 55.006.12 81.672 9.027.719 24.059.382 33.579.423a523 523 0 0 0 69.57 51.096c43.877 26.735 105.556 50.22 156.526 40.988 55.656-10.08 106.865-46.229 147.176-84.06 12.494-11.726 26.983-29.554 43.276-34.502 9.477-2.878 22.342 2.58 30.418 8.063-21.664 17.694-28.795 25.671-37.524 52.352-13.984 8.076-29.337 20.625-44.032 29.623-40.176 25.218-80.916 44.725-124.539 62.927-34.907 14.565-37.506 12.968-73.664 2.176-66-19.699-122.281-48.183-173.993-94.14l-64.305.436c-.526-11.142 1.305-46.594-1.195-54.409-10.283-2.987-144.226-2.375-155.009-.292-3.043 5.083-2.169 31.919-2.187 39.865-1.281 32.881-.228 76.497-.026 109.987l55.549-.063-.37 69.511c41.951 53.292 73.924 101.867 93.242 167.975 10.509 35.959 14.445 34.616 1.725 72.994-17.566 53-43.806 101.08-74.634 147.454-5.49 8.259-12.441 20.248-19.165 27.251-27.759 8.402-34.432 12.853-52.606 34.727-9.735.322-8.723-27.034-5.322-32.226 9.843-15.033 24.165-27.94 36.735-40.879 48.83-50.259 87.471-120.443 78.615-192.48-8.456-66.945-49.84-127.475-94.609-175.946-.501-12.428.017-26.878-.191-39.698l-79.348-.093.195-237.456c-5.745-7.174-12.758-14.512-19.123-21.184-16.686-17.489-41.061-10.25-58.206 3.368-.678-10.797-.457-22.584-.472-33.473q21.09.142 42.179-.013z"/><path fill="#01050a" d="M1918.89 58.144c9.34-.648 21.52-.298 31.07-.288l-.1 38.957 41.73.174c.51 10.139.22 23.079.24 33.447-40.4-24.532-51.41-14.222-78.3 19.038-.69 25.957-.26 53.987-.28 80.071l.12 155.503-78.03-.143c-.6 11.68-.22 27.135-.28 39.105-.22.193-.44.385-.65.577-48.13 49.077-93.68 123.85-94.76 193.378-1.35 85.99 56.35 153.637 113.59 210.361 3.46 3.428 5.69 15.482 5.14 20.32-.51 4.537-.6 11.596-4.74 14.76-.9.733-1.98.847-2.99 1.29-16.77-19.397-27.37-25.762-52.47-33.27-37.67-53.734-70.38-107.801-91.61-170.229-11.83-34.792-15.42-32.341-4.37-69.553 20.21-68.02 54.48-120.225 96.18-176.428.78-22.588.19-47.44.06-70.174 10.74-.059 43.56 1.527 51.72-1.116 4.57-7.367 2.74-64.786 2.71-76.674-.23-12.755 1.49-61.505-1.42-70.06-9.87-4.06-149.43-3.184-153.79-.237-1.82 6.292-.54 44.153-.4 53.122l-68.08-.038c-47.07 49.763-132.13 85.409-197.83 101.204-19.06 4.583-39.14-6.53-56.68-13.504-57.26-22.765-108.63-53.599-159.07-88.655-4.15-14.103-8.19-22.239-17.22-33.861-4.24-5.46-17.43-14.132-18.37-17.166 6.58-10.648 26.05-11.619 36.67-4.88 16.23 10.295 26.76 23.13 41.3 35.605 44.03 37.786 96.07 74.163 155.38 80.178 80.3 6.044 153.33-44.919 211.72-92.998 10.93.154 21.85.117 32.78-.11 1.47-20.543.22-60.179.2-81.756 81.18-.05 164.16.991 245.07-.076 7.3-10.263 22.19-21.986 25.4-33.874 3.76-13.957-3.13-29.952-9.64-42"/><path fill="#01050a" d="m1738.75 204.497 105.4.336c-25.5 17.887-57.85 41.443-87.18 52.162l-4.29 7.561c-4.81 8.593-25.76 32.937-33.57 38.235-13.44-.181-26.89.26-40.29 1.323-.95 9.094-2.02 14.92-3.91 23.911-4.75 4.698-25.35 26.433-29.04 31.168-29.04 3.883-77.48-.621-108 .878-11.51.565-27.48 7.026-39.1 9.402-25.74 5.266-59.69 7.448-85.82 5.693-14.73-.99-35.34-5.352-50.5-7.371-45.33-6.035-102.49-15.82-147.7-15.678-11.8-.779-26.8-.265-38.63.237 31.79-26.317 43.26-49.074 44.06-90.284 28.34 27.634 156.86 94.727 196.58 96.778 21.86 1.129 45.88-6.14 66.38-13.219 57.2-19.76 107.5-47.467 152.41-88.415 20.59-.04 49.77 1.544 69.57-.24.2-17.37.19-34.741-.04-52.11 8.99.082 25.46.87 33.67-.367"/><path fill="#01050a" d="M210.75 204.328c7.648 1.416 45.9.141 55.492-.016 26.127-.426 54.255.846 80.12-.113-.648 17.005-.154 36.284-.023 53.455 19.776 1.359 46.989.595 67.334.611a345.2 345.2 0 0 0 59.683 44.661c34.348 20.725 127.866 62.974 167.297 56.807 35.351-5.529 126.281-54.322 159.814-75.206 4.761-2.965 28.362-19.782 30.656-19.697 1.54 4.416-.826 12.405.658 18.692 2.672 11.317 5.479 21.64 11.01 31.999l.23.236c10.877 18.787 16.484 26.207 34.991 36.231-14.427.632-28.631.676-43.077.606-102.225-.495-200.676 38.454-302.45 10.62-5.118-1.399-13.223-4.644-18.213-4.752-36.167-.78-72.83 1.453-108.852-1.855-3.854-.375-25.014-22.237-30.23-26.399l-1.156-.912c-1.218-36.156-11.406-26.626-43.58-26.825-17.947-20.417-22.967-22.987-38.476-46.126-23.295-9.512-56.646-31.38-77.413-45.788-3.049-2.116-3.543-3.304-3.815-6.229"/><path fill="#01050a" d="M1416.11 1676.37c32.14-.4 67.17.64 98.5 8.37 33.64 8.29 68.14 2.35 102.47 4.04 8.83.44 18.16.59 26.96.48 20.78 26.1 25.9 19.05 37.09 53.25l36.89-.23c13.08 13.42 29.72 29.16 36.81 46.23 21.07 7.68 72.26 38.28 86.25 53.72l-81.28-.31c-16.25-.02-38.85-.36-54.56 1.39 1.29-9.73 1.24-44.83.49-55.04-21.04-1.18-49.59-.48-71.14-.54-7.74-8.13-26.17-21.34-35.38-28.11-50.79-33.87-101.46-55.22-161.83-68.7-7.26-1.21-23.5-2.41-30.11-.35-68.85 21.52-130.71 52.73-189.82 93.25-.89-24.98-3.52-44-18.52-65.89-3.68-5.37-13.49-14.18-18.37-19.64 4.28-2.7 46.23-2.44 56.41-3.11 60.14-3.97 119.05-13.07 179.14-18.81"/><path fill="#01050a" d="M593.67 1676.49c11.089-.29 27.183-1.16 37.919-.1 80.636 7.98 162.583 23 243.928 19.39-32.648 21.44-45.573 52.69-45 90.75-19.168-18.31-81.973-53.41-106.512-64.15-24.438-8.71-61.16-31.26-86.199-33.81-30.583-3.11-83.733 19.91-112.642 29.8-5.281 1.81-37.028 17.49-38.598 19.06-20.018 8.83-53.719 35.56-69.795 49.69-18.905-.42-52.184-.17-70.901.83-1.81 9.13-1.02 41.3-.921 52.57-43.551-.48-91.76 1.01-134.893-.67 27.247-18.49 50.762-35.76 80.68-49.75 1.652-.77 34.659-41.82 38.393-46.75 27.677-3.11 42.839 10.08 45.018-21.75 9.463-11.02 23.33-21.28 32.437-33.12q32.646-.375 65.293-.15c22.691.21 46.21 2.09 68.285-4.18 17.578-4.99 36.352-4.36 53.508-7.66"/><path fill="#01050a" d="M349.458 1179.72c3.121 3.3 2.583 35.48 3.096 42.71 3.666 51.64 10.517 102.66 15.901 154.05 1.643 15.68 5.86 37.43 5.454 52.19-.741 26.9-4.851 55.21-8.789 81.86-1.063 7.19-4.696 22.09-5.029 28.27-1.773 32.85-.781 67.21-.939 100.11-4.807 5.54-24.334 27.38-30.729 30.34-10.036 4.65-26.851-1.29-27.01 17.43-.096 11.28.988 21.76 1.536 31.83-15.445 13.99-32.416 24.51-48.466 36.9-1.909 1.47-16.527 31.1-19.137 35.9a344 344 0 0 1-31.79 47.92c1.512-17.45.802-50.84.995-69.73l-.402-64.19c17.32 1.22 36.864.7 54.16.05 1.128-24.21-.255-48.77 1.111-74.18 3.44-5.01 7.378-9.81 11.228-14.5 34.501-42.01 60.737-87.39 77.348-139.22 12.396-38.67 18.804-42.57 7.49-83.42-17.973-64.88-52.094-120.61-88.027-175.92a100.3 100.3 0 0 0 31.882-3.41c18.79-4.98 40.299-17.96 50.117-34.99"/><path fill="#01050a" d="M1699.76 1182.42c-.17-.1 18.15 16.41 20.19 18.12 12 10.03 26.37 14.36 41.57 17.41 5.23 1.05 12.9-.23 20.08 1.01.98 1.73-7.08 13.52-8.8 16.15-36.59 56.33-71.84 120.74-84.78 187.02-1.38 7.06 5.59 24.64 7.61 32.71 16.63 66.31 50.69 126.5 95.4 176.53-.04 11.8-1.83 65.54 2.52 72.9 7.22 3.26 41.64 1.66 51.56 1.21-.29 19.25-.41 38.51-.36 57.77.78 22.57.18 47.7.15 70.46l-1 .57c-15.97-11.8-37.3-58.47-45.54-77.24-3.39-7.72-41.53-32.11-50.27-37.71-.12-10.17.17-20.13.56-30.3.6-15.81-9.89-16.49-22.63-17.81-12.03-10.87-24.32-23.34-35.96-34.76-3.04-48.23 5.86-88.26-4.96-137.3-13.97-63.33-1.42-128.41 6.21-191.62 5.07-42.07 6.86-82.78 8.45-125.12"/><path fill="#01050a" d="M1843.58 211.587c.29.268.63.49.87.803 2.34 3.026.41 113.335.47 125.257-17.4.787-34.98-.542-53 .28.41 23.864-.14 49.425-.18 73.411a445.4 445.4 0 0 0-45.71 63.653c-18.53 31.068-58.98 113.396-57.78 149.231.96 28.353 41.53 118.975 59.04 146.588 4.02 6.351 34.82 55.978 35.16 57.332-3.77 1.226-9.91.293-14.44.754-9.54.971-16.33 2.852-25.26 6.003-20.04 7.297-31.95 19.414-44.79 36.075 2.26-17.645.92-33.262.31-50.95-1.5-44.334-8.08-87.55-13.14-131.506-1.95-18.703-5.92-38.574-6.56-57.325-1.44-42.066 5.67-83.59 11.31-125.075 1.2-8.869.21-24.277.17-33.728l-.22-59.816c8.38-7.704 29.05-27.881 36.03-36.352 7.44-1.454 14.86-2.987 22.27-4.597-.1-6.717-1.95-35.01-.04-38.326 6.64-11.49 36.45-31.146 48.38-37.279 11.15-27.015 29.66-60.842 47.11-84.433"/><path fill="#01050a" d="M204.544 211.492c11.813 5.913 44.211 70.293 50.523 83.202 9.496 4.738 39.769 26.244 48.528 33.309-.289 9.691-.667 19.654-1.76 29.28-1.841 16.205 11.113 16.08 23.648 18.157 8.081 10.337 24.812 26.451 34.267 35.751-2.28 16.231-.503 43.832-1.186 61.544-.405 10.516-1.064 32.187-.576 41.533.301 5.767 4.843 26.247 6.051 33.888a593 593 0 0 1 6.819 72.344c1.185 40.62-7.635 83.796-11.936 124.209-3.568 33.518-7.753 67.647-7.077 101.508.123 6.109.203 13.626-.581 19.614-2.245.008-15.692-14.25-20.291-17.649-8.531-6.307-12.953-8.614-22.522-13.448-6.909-3.017-23.897-5.756-31.598-6.161-3.418-.179-5.52.43-9.697-.082.329-4.007 19.534-31.595 23.216-37.501 24.618-39.134 46.012-79.754 60.461-123.764 8.692-23.849 14.022-42.1 7.067-67.162-15.677-56.488-39.241-110.209-74.742-157.161-8.042-10.636-15.056-20.639-25.01-29.932.051-21.265 2.074-54.585-.034-74.295a3758 3758 0 0 1-53.511-.957c-.384-9.004-.04-19.293.265-28.346 1.101-32.643-.366-65.285-.324-97.881"/><path fill="#01050a" d="M202.161 943.316c21.457-2.762 31.864 10.894 38.263 29.195 27.906 24.46 60.481 29.089 96.002 28.389 10.828-9.675 20.133-18.262 34.118-22.523 13.514 12.336 30.981 30.893 43.717 44.503-8.006 8.81-36.984 43.41-47.715 45.5-7.782 1.51-26.683-16.9-32.967-23.19-34.789-1.55-68.131 5.93-94.099 30.99-2.588 2.5-5.559 13.06-9.148 17.61-8.815 9.73-21.785 9.41-33.642 5.99-16.595-4.79-14.452-19.83-18.452-32.96-3.916-4.96-18.824 3.5-24.359 4.27-39.383 5.45-45.789-39.15-78.688-47.07-13.207-3.19-25.374 1.29-36.356 7.98 14.427-34.072 42.722-52.368 79.802-41.924 19.593 5.518 37.144 24.484 53.208.741l-.481-2.438.315 2.689 1.212-3.168c-3.157.608-7.574 5.706-11.063 6.914-14.453 5.005-18.003-14.69-12.186-23.343 6.168-8.005 16.653-12.579 25.527-16.885 9.198-4.463 16.915-9.669 26.992-11.27"/><path fill="#01050a" d="M1835.06 946.065c46.55-2.722 28.71 36.045 40.62 37.248 10.18-6.167 17.78-7.736 29.64-7.034 30.67 1.659 37.11 36.261 63.26 45.781 14.85 5.41 28.89.66 42.28-5.79-6.24 16.19-16.08 27.86-31.41 36.18a61.13 61.13 0 0 1-53.31 2.93c-12.33-5.19-41.82-21.87-47.24 1.63 2.78 1.33 16.41-13.57 22.72-.71 8.65 17.65-16.48 27.48-28.25 33.43-15.26 7.71-24.96 15.08-42.86 10.54-16.75-8.31-13.55-18.53-24.45-27.78-26.5-22.5-58.84-27.9-91.58-27.34-28.64 22.57-28.02 35.56-57.36 2.15-6.43-7.32-15.41-16.24-22.31-23.21 11.46-14.46 27.54-28.964 40.58-42.163 10.51-10.634 32.43 10.492 38.85 18.633 33.88.68 68.89-5.199 95.3-30.537 10.5-10.077 3.81-17.837 25.52-23.958"/><path fill="#01050a" d="M1020.01 44.918c15.68 1.058 31.17 20.74 37.36 33.11 14.62 29.257 2.46 42.729-10.38 67.867-3.97 7.776-.15 25.322 10.86 28.325l1.15-1.011c-.86-4.492-7.1-5.573-7.56-10.05-1.31-12.708 17.72-14.42 25.21-7.35 10.35 9.76 13.16 19.899 19.61 31.296 9.38 13.791 11.96 36.052-5.14 46.379-34.18 20.636-46.1 61.824-42.44 103.104 30.19 33.649 30.88 26.57-3.71 60.733l-18.85 19.356c-9.26-9.605-44.679-40.163-45.563-52.03-.47-6.32 16.584-22.413 22.093-28.023 1.71-31.961-5.957-70.509-29.303-95.533-5.241-5.618-21.141-8.208-24.721-19.262-2.592-8.003-1.256-18.148 1.962-25.146 5.704-12.404 15.206-12.678 26.568-15.715 1.069-.286 3.42-1.352 3.084-2.558-3.138-11.258-8.888-24.174-4.661-36.078 9.001-25.348 36.871-31.512 47.421-54.009 6.53-13.951 2.55-29.756-2.99-43.405"/><path fill="#01050a" d="M1023.05 1634.57c3.88.84 43.65 40.25 45.47 46.31 3.37 11.25-14.35 24.19-21.21 34.47-.39 6.05-.48 12.1-.29 18.16.76 23.17 11.11 56.93 27.83 73.46 11.57 11.43 24.14 6.94 25.43 30.24 1.71 30.98-23.21 25.43-31.35 33.92-.8 4.97 6.36 11.58 5.94 23.12-1.09 30.34-21.7 35.98-40.14 53.72-12.16 11.7-14.78 27.41-10.05 43 1.39 4.58 3.94 9.55 3.98 14.16l-1.48 1.13c-7.31-.62-17.8-9.69-23.06-14.73-17.546-20.8-28.738-49.33-10.507-73.49 8.397-11.13 20.657-32.87 1.535-41.06 2.383 5.74 6.662 11.58 3.769 17.51-28.042 23.67-49.265-34.98-52.183-54.87-2.674-18.24 21.649-26.67 30.82-37.2 20.746-23.84 25.516-57.54 24.016-88.02-21.014-24.05-33.012-27.7-4.382-54.52 8.342-7.81 17.562-17.22 25.862-25.31"/><path fill="#01050a" d="m214.627 435.456 1.103.739c38.062 37.425 75.335 102.553 84.956 152.737 11.985 62.511-11.543 114.555-44.32 162.614-7.37 12.655-31.042 37.6-42.037 49.553-1.423-96.881 1.12-194.334-.122-291.273-.313-24.385-.462-50.095.42-74.37"/><path fill="#01050a" d="M1833.84 433.87c3.25 5.414-.71 329.658 1.79 366.415-13.1-13.518-29.47-31.543-40.03-46.776-9.22-11.333-16.17-24.007-23.3-36.648-58.25-103.212-8.96-202.077 61.54-282.991"/><path fill="#01050a" d="M1834.15 1249.16c2.06 2.56-.42 325.69 1.4 362.01-15.11-17.83-25.01-29.76-38.47-48.78-41.23-60.35-68.01-135.47-37.9-206.53 15.74-37.16 43.91-80.31 74.97-106.7"/><path fill="#01050a" d="M214.567 1248.61c7.087 5.69 15.01 14.9 21.04 21.85 83.21 95.96 88.232 183.86 19.5 288.37-11.686 17.15-26.342 36.44-40.92 51.19l.084-221.46c-.043-45.46-.985-94.81.296-139.95"/><path fill="#01050a" d="M435.645 216.154c52.89-.681 107.609.199 160.671.259l200.61-.098c-14.013 14.081-31.644 27.485-47.366 39.97-34.775 22.631-73.202 45.432-115.921 47.085-68.986 2.668-147.881-42.885-197.994-87.216"/><path fill="#01050a" d="M1413.24 1745.5c77-3.59 142.91 42.83 201.39 86.65l-164.88.13c-66.38-.56-133.11.71-199.49-.28 44.51-41.3 101.6-79.81 162.98-86.5"/><path fill="#01050a" d="M613.67 1746.45c1.624-.14 3.251-.25 4.88-.32 67.996-3.41 130.121 42.82 178.185 86.05l-180.235.18-183.044.22c51.521-41.19 112.523-80.93 180.214-86.13"/><path fill="#01050a" d="M1254.68 216.367c37.06-.781 74.53.308 111.6.028 82.27-.622 165.38.841 247.56-.192-16.08 14.14-30.34 24.645-48.11 36.603-43.23 27.634-97.64 53.661-150.2 49.727-48.53-3.632-97.21-33.475-134.5-63.275-7.15-5.709-20.6-16.193-26.35-22.891"/><path fill="#01050a" d="M1718.46 1089.86c23.42 1.75 11.15 24.75 4.14 36.34 4.97 8.51 17.18 21.45 25.33 27.94 14.19 11.29 39.3 12.08 54.7 2.24 3.71-2.38 13.83-7.77 12.77-12.65-3.37-1.13-7.22-.27-10.86.18-9.99-4.66-18.1-9.58-19.28-21.89a21.37 21.37 0 0 1 5.34-16.28c6.68-7.43 13.75-8.11 22.8-8.68 19.57 14.75 30.18 16.11 52.14 4.78.85 7.82 1.16 14.02.1 21.79-7.71 59.94-56.43 102.13-117.26 82.41a85.3 85.3 0 0 1-49.78-42.78c-13.5-27.13-9.74-59.14 19.86-73.4"/><path fill="#01050a" d="M1769.97 836.452c6.62-.247 13.16-.511 19.75.256 50.56 5.89 83.06 62.694 77.14 110.204-28.82-20.721-40.8 1.79-61.75.195-25.58-1.948-30.18-47.49 13.15-40.459-4.11-5.315-8.18-9.986-13.78-13.745-19.96-12.624-47.26-12.82-63.66 6.774-6.15 7.353-13.3 12.06-18.34 17.977-.92 5.524 16.43 23.763 9.53 33.048-4.68 6.289-16.77 4.699-22.54.136-26.41-20.859-21.76-55.986-2.42-79.576 16.84-20.514 36.58-31.838 62.92-34.81"/><path fill="#01050a" d="M323.695 1090.07c17.922-1.22 28.502 16.83 32.518 32.13 4.132 15.75-.784 33.56-9.046 47.25a84.15 84.15 0 0 1-52.321 38.33c-59.248 14.3-97.315-22.94-110.651-77.98-1.907-11.91-1.657-18.09-1.016-30.21 42.165 27.72 48.731-16.38 71.214 3.17a22.39 22.39 0 0 1 7.619 16.1c.667 20.95-17.305 22.46-32.947 22.47 31.849 32.92 65.951 29.84 94.824-13.57 5.954-8.95-22.534-20.68-.194-37.69"/><path fill="#01050a" d="M264.223 836.365c12.85-.558 22.16-.308 35.24 4.029 35.106 11.642 68.913 51.395 57.277 90.056-2.772 9.212-14.363 21.722-22.989 25.916-5.815 2.827-15.941-.347-16.752-7.603-2.538-11.657 3.656-20.196 9.444-29.407-4.451-6.309-20.052-21.684-26.689-26.586-12.7-9.378-23.65-10.811-38.634-8.567-7.017 2.192-26.649 10.956-28.111 18.429 5.152 3.769 6.677-2.072 17.617 3.139a20.93 20.93 0 0 1 11.147 13.05c2.536 8.673.148 14.001-3.928 21.489-32.254 19.943-32.614-18.469-75.374 4.022-.421-32.641 11.153-66.701 35.821-89.061 13.612-12.339 28.249-16.241 45.931-18.906"/><path fill="#01050a" d="M910.266 1691.25c17.467-1.36 34.843 2.46 44.836 18.87 3.597 5.9 2.779 15.1-4.57 17.89-9.784 3.7-19.635-1.4-28.555-5.24-18.455 15.65-40.135 32.3-35.907 59.67 2.472 16.01 11.036 24.33 23.211 33.39-.366-8.67-.879-13.47 4.437-20.75a21.78 21.78 0 0 1 15.135-8.92 20.59 20.59 0 0 1 16.15 5.04c7.132 6.39 7.396 12.57 7.636 21.13-3.34 4.82-6.509 8.54-10.036 13.83-3.652 9.6-4.468 19.11-.034 28.82 1.293 2.83 3.392 5.39 3.916 8.32-12.769 6.76-55.916-8.79-68.743-16.63-53.27-32.54-51.373-105.05-2.779-140.89 12.242-9.03 20.662-11.34 35.303-14.53"/><path fill="#01050a" d="M927.662 185.339c5.613-1.161 17.368-.431 23.076-.015-23.877 28.737.68 43.911-1.553 60.226a21.78 21.78 0 0 1-8.658 14.406c-13.079 9.515-25.517 1.668-33.533-9.649-.028-4.276.607-12.31-1.889-15.037-4.201.539-7.046 5.85-9.426 8.997-23.078 30.522 2.051 65.935 29.399 83.016 13.115-8.453 32.544-17.166 32.003 7.325-9.938 24.165-38.368 26.168-60.168 18.908-51.795-17.25-76.035-86.687-41.897-130.753 17.886-23.088 44.441-33.41 72.646-37.424"/><path fill="#01050a" d="M1103.04 184.386c25.19-.171 53.01 6.971 74.03 21.033a79.35 79.35 0 0 1 33.34 50.516 87.47 87.47 0 0 1-14.21 66.083c-21.27 30.488-60.87 47.087-93.94 23.562-5.69-6.735-12.88-19.809-.56-25.9 8.03-3.974 20.25 2.982 28.03 6.615 14-12.449 31.71-26.108 35.33-45.191 2.41-12.721-.35-25.279-7.96-35.705-2.82-3.86-8.33-11.096-12.92-11.926-1.28 2.754-.69 3.687-.48 6.769.87 12.533-8.58 23.382-21.11 23.656a22.62 22.62 0 0 1-16.24-6.52c-6.38-6.347-6.14-13.112-6.31-21.397 15.08-22.508 11.72-26.571 3.45-50.263z"/><path fill="#01050a" d="M1126.38 1692.31c20.95-5.64 47.99 10.4 61.29 25.85a92.42 92.42 0 0 1 22.03 67.66 79.46 79.46 0 0 1-28.54 54c-22.36 18.43-54.53 27.03-83.43 24.1 5.31-7.59 7.88-11.4 10.34-20.67.46-15.94-2.04-19.21-9.38-33.28 1.21-7.79 2.2-13.62 8.5-18.95 15-12.68 38.44-.78 35.33 19.18-.33 2.15-.66 2.72.39 4.66l2.05.53c11.43-2.93 20.48-26.32 20.28-37.25-.45-24.78-20.53-41.14-36.6-57.08-7.52 4.6-19.93 12.14-28.81 6.85-7.89-4.69-5.83-15.54-.85-21.73 7.18-8.92 16.39-12.3 27.4-13.87"/><path fill="#01050a" d="m1817.86 231.9.96 1.508c-11.87 19.605-18.83 34.627-28.49 55.366-15.97 9.403-36.64 26.17-51.05 37.969-.26 11.878.42 26.301.69 38.346-7.24 1.678-9.91 1.754-17.38 2.068-6.52 7.369-16.6 16.619-23.8 23.689l-45.47 44.69c-5.96-5.008-11.5-11.194-16.87-16.892-4.51-5.579-14.35-15.683-19.45-21.165 14.47-15.149 51.35-51.623 66.21-63.8l2.17-21.66c12.28-.035 24.56-.21 36.83-.528 12.52-12.984 32.13-30.497 38.93-46.575 22.54-10.963 36.27-18.797 56.72-33.016"/><path fill="#01050a" d="M1653.04 1613.42c2.41.93 61.78 60.15 67.81 66.48 6.52.54 12.02 1.33 18.49 2.32-.02 14.14.03 28.28.15 42.41 14.72 9.44 35.37 26.94 50.04 34.45 8.95 21.11 15.21 34.71 27.93 54.39-7.62-5.35-15.99-10.38-23.93-15.32-3.92-3.64-27.01-14.68-32.68-17.43-5.55-10.91-31.58-36.81-40.94-46.84l-33.17.04c-1.31-6.08-2.41-11.59-4.31-17.53-19.36-17.44-48.16-45.76-66.05-64.8 11.67-12.79 24.6-25.6 36.66-38.17"/><path fill="#01050a" d="M229.841 231.733c2.917.883 27.634 16.465 31.828 18.967a354 354 0 0 0 25.609 13.699c5.143 13.183 29.416 36.509 39.949 47.801l38.131.183.888 19.902c20.631 19.315 46.5 43.097 65.388 63.501a522 522 0 0 0-17.693 18.853l-18.264 20.009c-4.657-3.475-13.252-12.463-17.7-16.73-16.872-16.185-32.749-33.443-48.789-50.456a1424 1424 0 0 1-18.362-3.108l-.03-41.553c-16.851-12.866-32.035-24.799-50.951-34.682-7.789-20.711-18.576-37.579-30.004-56.386"/><path fill="#01050a" d="M396.096 1613.55c5.067 1.77 31.982 31.99 36.035 37.94-21.631 20.85-43.116 43.39-64.741 64.64l-1.882 18.94c-13.441.04-26.882 0-40.322-.13-9.184 11.07-33.247 37.08-38.579 48.28a245 245 0 0 0-32.998 17.92c-8.976 4.78-16.81 9.85-25.362 15.29 13.202-19 21.293-32.86 30.096-54.57 21.606-13.56 33.207-22.87 52.066-39.58.484-27.11-10.162-40.01 20.213-42.76 22.798-20.54 43.421-45.04 65.474-65.97"/><path fill="#01050a" d="M1078.19 1680.13c8-.06 42.44-.78 48.35 2.82-2.96 2.6-6.74 2.19-10.13 3.79-21.7 10.23-28.91 15.33-28.93 39.72 4.72 4.83 5.76 5.8 11.45 9.63 4.75.18 10.22 0 15.04-.03 3.25-2.34 8.47-5.08 12.08-7.11 8.44 9.16 17.16 16.87 24.22 27.27 6.61 9.74 10.96 37.62-1.16 44.52-5.55-23.54-37.46-32.75-50.75-10.82-3.21 5.3-4.68 11.1-8.24 15.92l-1.97.01c-25.47-14.8-35.51-61.14-33.76-88.76 7.06-7.65 17.02-17.17 21.63-26.5.39-.79 1.7-8.51 2.17-10.46"/><path fill="#01050a" d="m1089.63 243.974 1.77.286c1.39 1.399 1.31.927 1.76 2.485 2.96 10.254 7.01 14.716 14.82 21.034 13.35 3.193 15.25 2.763 28.28-.701 6.39-5.336 11.12-15.187 14.79-16.078l1.45 1.243c14.26 36.264-2.62 43.627-25.84 65.362-13.48-6.955-15.11-7.613-29.81-4.704-10.39 9.034-9.19 11.948-8.92 25.274 1.33 2.427 3.2 5.344 4.67 7.763 7.03 6.101 13.01 12.78 22.36 15.674 4.59 1.418 10.84 1.971 14.96 3.779-10.35 6.278-37.38 4.668-50.09 4.529l.05-1.043c.67-16.205-12.35-23.329-24.02-36.143-.42-28.349 4.86-74.737 33.77-88.76"/><path fill="#01050a" d="M1768.7 892.365c7.73-.317 20.33.548 26.83 4.918.37 6-10.66 10.467-16.7 21.257l-.65 1.198c-1.19 24.313 10.41 28.828 31.09 35.452l.38 1.868c-1.17 3.398-5.96 9.296-8.58 11.537-24.15 20.655-53.63 23.766-82.91 23.594-3.83-3.984-9.45-8.641-13.89-11.996-9.47-8.776-18.2-7.572-23.38-12.209-2.52-10.105.6-43.928 1.69-55.202 1.23 7.813 2.3 13.818 5.32 21.59 8.24 21.215 40.2 41.605 52.73 12.078 4.12-9.728-11.19-17.775-6.11-25.446 7.75-11.692 19.22-23.753 32.84-28.211z"/><path fill="#01050a" d="M1719.19 1052.19c3.21-.06 6.43-.07 9.64-.04 22.29.26 57.26 10.37 73.67 26.59 2.84 2.8 6.04 6.69 5.92 10.82-16 5.78-26.72 8.19-30.8 27.78-3.79 18.19 13.44 22.08 20.08 32.01-.78 1.68-1.84 2.34-3.96 2.84-16.91 4.02-25.25 3.81-40.36-4.62-6.19-5.92-17.16-17.18-21.52-23.94 9.06-13.7 8.86-21.76 3.11-36.33-2.2-1.23-4.66-2.61-7.01-3.5a22.4 22.4 0 0 0-17.87.69c-15.01 7.1-22.35 25.74-27.38 40.17-1.99-18.89-2.51-29.49-2.64-48.3 19.63-.45 20.96-11.96 37.72-23.24z"/><path fill="#01050a" d="M313.109 1052.45c5.899 0 12.193.27 18.125.41 7.267 7.87 21.184 21 31.641 23.46l3.42.8c2.436.56 1.33-.06 2.965 2.26 1.096 8.1-.447 39.11-3.637 46.14-8.258-7.06 1.365-34.56-39.586-43.62-10.032 4.13-10.487 4.75-16.79 13.82-2.037 15.07 1.335 12.99 5.835 26.82.906 2.79-2.148 5.75-4.085 8.17-11.891 11.92-20.875 26.69-40.596 23.46-5.482-.89-16.688-.72-20.17-4.9 1.86-5.32 18.811-11.89 19.776-27.56 1.694-27.51-18.172-25.11-25.463-33.58-2.244-11.78 35.21-28.88 44.98-31.62 7.019-1.97 15.917-1.85 23.585-4.06"/><path fill="#01050a" d="M268.78 891.374c16.692-6.975 39.185 20.441 49.523 30.215-8.904 10.909-8.582 14.466-8.983 28.205 1.826 3.229 3.684 6.275 5.62 9.439l.772.416c26.372 13.962 39.718-10.714 49.984-30.457l1.264-.364c1.82 6.618 3.804 37.634-.433 42.385-4.954.782-8.547 2.372-12.02 6.144-4.199 3.55-15.438 13.709-19.616 14.711-23.057 5.527-83.041-9.627-92.657-33.159.51-5.081 11.785-7.541 16.548-9.983 13.306-6.82 17.548-25.788 8.41-37.822-8.416-11.082-23.205-16.604 1.588-19.73"/><path fill="#01050a" d="M942.704 1680.41c6.193-.69 22.124-.09 29.04.05l.419 12.98c7.05 7.57 14.053 15.18 21.007 22.84 2.729 24.48-3.798 73-28.208 87.63-.762.82-3.748.7-4.236-.29-7.896-16.1-22.141-34.59-42.389-21.69-7.945 5.53-11.279 9.84-16.007 18.3-18.216-31.4-2.24-50.04 22.868-69.23 13.147 3.87 12.116 5.8 26.906 5.12 32.836-20.29-1.383-47.01-26.219-53.31z"/><path fill="#01050a" d="m959.49 315.523-1.132-.672c-20.17-11.695-23.669 6.663-35.094-.108-19.524-11.57-33.422-36.393-25.678-58.572l1.523-1.26c7.926 1.524 11.117 17.179 31.272 15.758 25.398-1.79 21.6-22.684 28.31-28.055 27.246 5.721 38.413 67.968 37.095 90.725-2.698 2.597-13.526 12.741-14.729 15.234-10.577 21.915-20.083 21.007-45.176 17.201-3.171.408-3.089.582-6.101-.294 1.473-2.136 5.536-2.791 8.195-3.337 13.7-4.115 24.335-17.146 28.408-30.524-1.961-7.138-2.544-9.846-6.893-16.096"/></svg>