<svg xmlns="http://www.w3.org/2000/svg" width="2048" height="2048" viewBox="0 0 2048 2048"><path fill="#22252b" d="M0 0h2048v2048H0z"/><path fill="#22252b" d="M851.563 165.902c56.56-8.731 132.812 12.254 186.157 29.306 30.65-9.723 57.65-17.876 89.55-23.271 189.53-32.053 424.31 77.191 484.61 268.22a468 468 0 0 1 10.5 40.017c8.63 5.778 52.27 34.48 55.77 39.957 10.4 6.471 34.09 27.666 43.41 36.35 69.64 64.911 124.51 151.637 145.63 245.193 21.85 96.709 8.18 173.701-32.97 261.686 30.41 96.33 26.26 201.1-1.62 297.54-38.4 132.82-124.87 228-257.47 269.55q-8.58 2.67-17.22 5.16c-71.86 113.77-167.63 204.84-302.09 235.58-75.93 17.36-166.12 9.96-237.87-21.05-119.616 42.89-248.612 39.78-363.579-14.66-97.335-46.09-181.876-120.22-216.599-224.28-.462-1.39-.294-.64-.494-1.82-4.864-10.67-10.128-31.45-13.378-43.12-178.052-105.6-309.409-324.33-226.628-530.59 6.186-15.41 13.146-29.65 20.836-44.348a483.4 483.4 0 0 1-21.399-105.877c-16.128-181.404 69.009-401.191 255.243-461.306 12.836-4.144 29.166-9.33 42.412-10.493 64.02-109.486 166.025-201.545 289.729-236.024 20.561-5.73 45.962-11.158 67.47-11.72"/><path fill="#a55f2a" d="M494.364 413.646c64.02-109.486 166.025-201.545 289.729-236.024 20.561-5.73 45.962-11.158 67.47-11.72l1.641.234c22.943 3.108 47.879-1.771 71.393 4.158 9.919 2.502 16.389.076 27.804 4.57l.637 1.602-.708.611-3.157-1.914c-2.543 3.643-.065 5.362-3.319 8.76-3.261.358-6.953-2.382-10.036-4.152-1.197 1.724-.544.971-1.939 2.282-3.666-.503-16.565-3.048-18.498-3.1-18.481-.493-42.44-1.757-60.709-.253l-.451 1.917c-118.202 10.877-218.46 75.068-293.591 164.922-21.688 25.938-39.161 52.221-56.83 80.896-25.686 5.812-50.689 12.022-74.778 22.858-179.698 80.83-247.694 318.405-207.071 497.689a536 536 0 0 0 12.776 46.412 354 354 0 0 0-35.15 268.616c32.44 122.25 130.861 230.83 237.784 294.92 4.194 16.57 8.502 30.17 13.69 46.41 2.842 5.99 6.305 16.26 8.907 22.78a288 288 0 0 0 15.069 31.55c40.932 74.48 108.232 125.49 183.284 162.6 86.605 42.81 190.418 53.81 284.855 35.7 25.556-4.9 50.34-12.39 74.974-20.81 90.67 31.52 155.5 41.26 249.78 16.96 119.65-30.83 218.72-126.47 280.34-230.39a492 492 0 0 0 16.88-4.38 352.9 352.9 0 0 0 214.92-169.97c50.75-90.93 68.03-204.93 55.54-307.99-2.99-24.65-10.89-54.97-17.67-78.77 28.38-56.85 43.77-109.691 43.87-174.152.15-103.219-50.63-213.047-120.38-288.114a643 643 0 0 0-46.59-45.016c-6.36-5.581-18.62-15.024-23.97-20.424l-1.02-1.05c-1.28-2.232-2.02-3.681-3.1-6.019l4.05-2.719c.36-2.587.18-2.555 1.68-4.633 3.78 2.26 1.9 1.991 5.68 1.638 10.4 6.471 34.09 27.666 43.41 36.35 69.64 64.911 124.51 151.637 145.63 245.193 21.85 96.709 8.18 173.701-32.97 261.686 30.41 96.33 26.26 201.1-1.62 297.54-38.4 132.82-124.87 228-257.47 269.55q-8.58 2.67-17.22 5.16c-71.86 113.77-167.63 204.84-302.09 235.58-75.93 17.36-166.12 9.96-237.87-21.05-119.616 42.89-248.612 39.78-363.579-14.66-97.335-46.09-181.876-120.22-216.599-224.28-.462-1.39-.294-.64-.494-1.82-4.864-10.67-10.128-31.45-13.378-43.12-178.052-105.6-309.409-324.33-226.628-530.59 6.186-15.41 13.146-29.65 20.836-44.348a483.4 483.4 0 0 1-21.399-105.877c-16.128-181.404 69.009-401.191 255.243-461.306 12.836-4.144 29.166-9.33 42.412-10.493"/><path fill="#d48642" d="M851.563 165.902c56.56-8.731 132.812 12.254 186.157 29.306 30.65-9.723 57.65-17.876 89.55-23.271 189.53-32.053 424.31 77.191 484.61 268.22a468 468 0 0 1 10.5 40.017c8.63 5.778 52.27 34.48 55.77 39.957-3.78.353-1.9.622-5.68-1.638-1.5 2.078-1.32 2.046-1.68 4.633l-4.05 2.719c1.08 2.338 1.82 3.787 3.1 6.019-21.91-14.995-37.97-27.891-61.28-42.172a334.3 334.3 0 0 0-13.64-51.5c-45.7-129.672-164.92-210.923-294.04-243.654-92.78-23.522-174.52-14.259-263.7 17.25-53.942-22.794-124.48-34.231-182.959-31.171l.451-1.917c18.269-1.504 42.228-.24 60.709.253 1.933.052 14.832 2.597 18.498 3.1 1.395-1.311.742-.558 1.939-2.282 3.083 1.77 6.775 4.51 10.036 4.152 3.254-3.398.776-5.117 3.319-8.76l3.157 1.914.708-.611-.637-1.602c-11.415-4.494-17.885-2.068-27.804-4.57-23.514-5.929-48.45-1.05-71.393-4.158z"/><defs><linearGradient id="a" x1="851.901" x2="1036.983" y1="1212.993" y2="1788.086" gradientUnits="userSpaceOnUse"><stop offset="0" stop-color="#707888"/><stop offset="1" stop-color="#878e9d"/></linearGradient></defs><path fill="url(#a)" d="M1290.5 1068.7c2.75 2.94 9.35 24.23 11.32 29.66 22.74 62.44 40.63 132.05 45.47 198.59 9.48 130.46-44.81 256.93-128.88 354.52-46.5 53.99-80.1 78.5-141.59 112.73-65.62 36.52-114.343 57-190.159 62.44-122.715 8.81-223.344-29.6-315.624-108.29-46.395-42.46-67.071-79.35-87.53-137.16 117.234 66.98 213.722 102.72 349.45 74.54 195.343-40.55 298.883-210.34 369.213-382.57 10.22-25.03 15.72-49.03 24.54-72.71 15.64-42.06 39.22-94.29 63.79-131.75"/><path fill="#dddfe2" d="M527.701 1641.05a390.2 390.2 0 0 0 290.296 86.12c54.005-5.83 106.134-23.78 153.644-49.77 132.199-72.31 209.619-222.19 254.869-359.99q10.56-32.58 20.16-65.46c2.4-8.28 19.24-73.95 21.67-77.08 2.92 9.74 3.99 20.49 5.85 30.53 6.6 35.4 17.72 69.62 23.27 105.21 13.13 84.11-13.93 168.36-53.75 241.7-36.97 68.1-95.77 139.77-160.98 182.97a392.5 392.5 0 0 1-105.92 49.11c-111.504 33.4-234.028 17.44-336.064-37.56-35.224-18.99-68.987-45.22-94.57-76.08-7.978-9.62-13.471-18.53-20.627-28.25z"/><path fill="#dddfe2" d="M525.549 1642.5c-.757-1.01-4.328-5.49-3.926-6.66 1.184-.09 5.343 4.48 6.078 5.21z"/><path fill="#dddfe2" d="M782.585 457.573c69.043-105.545 159.371-168.09 275.945-213.954 181.37-71.363 429.18 14.895 498.92 205.217 2.44 5.545 3.72 9.507 5.58 15.251-133.04-67.832-245.16-112.081-393.76-63.825-82.07 26.649-141.06 77.877-195.331 143.682-12.402 15.039-21.271 29.158-32.48 43.582a987.5 987.5 0 0 0-88.872 172.93c-23.473 59.908-39.74 122.424-69.797 179.905-6.885 13.168-16.962 27.189-25.448 39.528a756 756 0 0 1-36.398-113.849c-20.439-84.243-28.803-158.776-8.165-243.747 3.772-15.534 6.568-28.575 12.026-43.922 8.192-29.43 36.006-91.404 54.588-115.649 1.109-1.94 1.916-3.282 3.192-5.149"/><path fill="#98a0ad" d="M929.226 507.699c9.037-14.649 27.583-37.819 38.763-51.047 69.721-82.491 166.681-133.559 275.141-141.18a384 384 0 0 1 275.67 92.382c3.52 3.687 37.32 41.178 37.91 41.384l.74-.402c2.44 5.545 3.72 9.507 5.58 15.251-133.04-67.832-245.16-112.081-393.76-63.825-82.07 26.649-141.06 77.877-195.331 143.682-12.402 15.039-21.271 29.158-32.48 43.582-.76-1.207-.408-3.293-1.491-4.841-.484-.951-2.188-3.823-2.169-4.797.086-4.306.63-13.127 6.07-13.694.082-.008.567-8.117 2.494-10.836 3.329-.634 2.43-.153 5.232-1.726.602-2.949.624-4.187 2.391-6.667 1.872-.356 2.831-.604 4.656-1.161 2.777-3.926 1.048-5.685 1.63-10.323 1.087-8.658 2.964-2.2 7.528-6.18l.239-4.784c3.738-4.095 3.614.368 8.035-3.446.123-2.854-.077-3.504 1.161-6.093 3.289-1.338 4.207-1.511 6.889-3.962 2.28-5.021.878-7.874-.828-12.996l-1.476-.471c-3.216 2.661-3.747 9.732-5.954 14.168-1.439 2.893-6.962.574-7.514 2.545-1.49 5.322.674 4.42-3.45 8.504l-2.856-1.417c-2.686-5.028-2.223-10.624-2.056-16.128-4.06.133-3.863.762-6.877-.909-.798-2.622-1.023-4.219-2.878-6.247-3.217-.602-5.339-1.262-8.429-2.197-1.862 1.698-1.256.701-1.957 2.901l2.904-.24c2.066 2.593 1.067 3.22.669 7.788 5.249.181 7.153-.912 9.281 3.828l-1.149 1.861c-15.069 4.559-3.522 9.355-9.453 16.59l-1.708-.685-1.147-5.779c-3.774-1.555-6.609-2.128-8.705-5.484-.602-2.752.368-3.941 1.6-6.575l.502-1.051z"/><defs><linearGradient id="b" x1="863.098" x2="835.605" y1="968.848" y2="499.169" gradientUnits="userSpaceOnUse"><stop offset="0" stop-color="#6b7484"/><stop offset="1" stop-color="#a2a9b6"/></linearGradient></defs><path fill="url(#b)" d="m929.226 507.699 3.417-.677-.502 1.051c-1.232 2.634-2.202 3.823-1.6 6.575 2.096 3.356 4.931 3.929 8.705 5.484l1.147 5.779 1.708.685c5.931-7.235-5.616-12.031 9.453-16.59l1.149-1.861c-2.128-4.74-4.032-3.647-9.281-3.828.398-4.568 1.397-5.195-.669-7.788l-2.904.24c.701-2.2.095-1.203 1.957-2.901 3.09.935 5.212 1.595 8.429 2.197 1.855 2.028 2.08 3.625 2.878 6.247 3.014 1.671 2.817 1.042 6.877.909-.167 5.504-.63 11.1 2.056 16.128l2.856 1.417c4.124-4.084 1.96-3.182 3.45-8.504.552-1.971 6.075.348 7.514-2.545 2.207-4.436 2.738-11.507 5.954-14.168l1.476.471c1.706 5.122 3.108 7.975.828 12.996-2.682 2.451-3.6 2.624-6.889 3.962-1.238 2.589-1.038 3.239-1.161 6.093-4.421 3.814-4.297-.649-8.035 3.446l-.239 4.784c-4.564 3.98-6.441-2.478-7.528 6.18-.582 4.638 1.147 6.397-1.63 10.323-1.825.557-2.784.805-4.656 1.161-1.767 2.48-1.789 3.718-2.391 6.667-2.802 1.573-1.903 1.092-5.232 1.726-1.927 2.719-2.412 10.828-2.494 10.836-5.44.567-5.984 9.388-6.07 13.694-.019.974 1.685 3.846 2.169 4.797 1.083 1.548.731 3.634 1.491 4.841a987.5 987.5 0 0 0-88.872 172.93c-23.473 59.908-39.74 122.424-69.797 179.905-6.885 13.168-16.962 27.189-25.448 39.528a756 756 0 0 1-36.398-113.849c-20.439-84.243-28.803-158.776-8.165-243.747 3.772-15.534 6.568-28.575 12.026-43.922 1.856-1.845 1.967-2.265 3.484-4.469.758 3.649 2.822 6.424 4.857 9.486l1.405-.145 1.598-3.093c2.486-1.281 7.246-.568 10.521-.448 2.86-2.44 4.51-4.987 6.752-7.988l1.501.178c.923 3.218 1.001 4.498 3.334 6.933 9.253 2.449 4.805-5.298 11.247-6.923l2.727 2.457c-2.902 5.679-9.493 29.783-11.483 36.57-19.834 67.615-10.478 129.425 5.541 196.389 4.888 20.434 9.648 44.204 15.569 64.588 3.983-17.445 11.368-41.427 16.462-58.806 25.756-87.877 56.237-178.492 101.773-258.277 8.847-15.501 18.46-32.823 29.133-47.124"/><path fill="#98a0ad" d="m950.186 541.326 1.091-.007-.982.692-1.465-.253z"/><path fill="#fefefe" d="M782.585 457.573c69.043-105.545 159.371-168.09 275.945-213.954 181.37-71.363 429.18 14.895 498.92 205.217l-.74.402c-.59-.206-34.39-37.697-37.91-41.384-3.17-6.948-9.98-15.262-14.65-21.512-22.64-30.213-52.25-56.485-84.22-76.463-79.36-49.588-175.99-76.501-269.76-66.966-57.02 5.797-113.39 24.882-163.965 51.814-3.327 1.772-14.696 6.798-16.387 9.454-59.004 28.691-141.878 97.466-181.701 149.78-.55.426-.464.405-.784 1.094l-3.383 3.903z"/><path fill="#98a0ad" d="M788.117 453.961c39.823-52.314 122.697-121.089 181.701-149.78-5.922 6.636-15.801 12.695-22.768 18.56-11.593 9.759-23.241 19.56-34.046 30.206a608.7 608.7 0 0 0-127.868 188.44c-3.623 8.522-10.611 24.396-12.905 32.972l-2.727-2.457c-6.442 1.625-1.994 9.372-11.247 6.923-2.333-2.435-2.411-3.715-3.334-6.933l-1.501-.178c-2.242 3.001-3.892 5.548-6.752 7.988-3.275-.12-8.035-.833-10.521.448l-1.598 3.093-1.405.145c-2.035-3.062-4.099-5.837-4.857-9.486-1.517 2.204-1.628 2.624-3.484 4.469 8.192-29.43 36.006-91.404 54.588-115.649 1.109-1.94 1.916-3.282 3.192-5.149l1.365 1.385 3.383-3.903c.32-.689.234-.668.784-1.094"/><path fill="#dddfe2" d="M779.393 462.722c1.109-1.94 1.916-3.282 3.192-5.149l1.365 1.385c-1.925 2.772-1.653 3.057-4.557 3.764"/><defs><linearGradient id="c" x1="1248.437" x2="1643.284" y1="1270.737" y2="834.453" gradientUnits="userSpaceOnUse"><stop offset="0" stop-color="#646d7d"/><stop offset="1" stop-color="#8d95a5"/></linearGradient></defs><path fill="url(#c)" d="M1291.94 689.413c76.72-4.556 157.93 10.765 224.95 48.259 127.26 71.207 223.55 183.244 262.2 324.988 6.77 24.85 18.97 66.91 21.56 92.46 8.69 85.83-8.39 196.77-51.08 272.03-37.62 66.31-102.44 125.36-176.03 146.16 10.08-17.17 18.56-34.05 27.47-51.8 50.45-102.03 68.23-201.83 38.47-313.58-53.56-201.15-242.95-320.751-424.54-394.461-11.17-4.534-27.94-9.49-39.92-13.159-43.27-13.254-74.18-21.794-113.87-44.591 35.32-18.137 49.29-22.024 85.62-34.525 55.08-18.952 86.86-27.209 145.17-31.781"/><path fill="#dddfe2" d="M1177.71 769.793c48.07-6.303 99.28-20.038 147.33-24.564 95.63-9.006 191.24 39.672 264.91 96.212 107.95 82.858 171.7 187.039 188.75 322.539 13.23 105.18.41 205.71-66.48 291.87-17.86 23-57.94 64.97-82.96 79.07l-2.94-1.07c60.1-69.1 97.44-154.03 90.2-246.9-10.7-137.28-85.43-264.29-189.1-352.527-81.04-68.972-167.62-106.961-268.09-139.375-23.55-7.6-58.18-19.996-81.62-25.255"/><path fill="#dddfe2" d="m1626.32 1533.85 2.94 1.07c-4.13 3.25-6.41 4.61-10.76 7.38 2.08-2.35 5.51-6.46 7.82-8.45"/><defs><linearGradient id="d" x1="1041.69" x2="230.79" y1="1180.62" y2="756.117" gradientUnits="userSpaceOnUse"><stop offset="0" stop-color="#747d8c"/><stop offset="1" stop-color="#959cab"/></linearGradient></defs><path fill="url(#d)" d="M302.606 618.678a838 838 0 0 1 5.166-9.383 286.72 286.72 0 0 1 174.889-137.451l-8.928 14.745c-13.809 24.232-26.445 46.431-38.108 72.329-41.758 92.724-50.724 184.089-23.475 283.237 53.857 195.975 235.072 313.495 414.02 384.285 14.207 5.62 30.867 7.8 45.255 13.4 41.284 12.94 80.498 27.95 119.373 46.93-31.203 19.53-63.15 28.86-97.884 40.32-86.831 28.63-161.097 36.91-250.463 17-130.407-29.05-244.374-121.62-315.426-233.12-67.461-105.87-97.908-246.607-69.379-370.016 5.763-25.302 30.116-104.889 44.96-122.276"/><path fill="#dddfe2" d="M385.021 535.343c3.074-3.45 36.641-24.224 42.042-26.896a329.74 329.74 0 0 0-94.789 231.046c-.326 81.769 32.81 169.182 75.106 238.112C507.986 1141.57 691.7 1233.22 875.297 1272.02c-22.561 7.08-49.748 9.95-72.918 15.19-91.088 20.6-175.265 16.84-258.663-29.2-116.429-64.28-219.216-166.24-257.242-296.896-30.296-104.096-28.059-231.703 21.976-329.737 19.107-36.403 38.697-58.102 67.063-86.476l-.548-3.018c3.878-2.892 5.747-4.223 10.056-6.54"/><path fill="#98a0ad" d="M385.021 535.343c-2.948 5.91-3.829 4.969-9.508 9.558l-.548-3.018c3.878-2.892 5.747-4.223 10.056-6.54"/><path fill="#fefefe" d="M302.606 618.678a838 838 0 0 1 5.166-9.383 286.72 286.72 0 0 1 174.889-137.451l-8.928 14.745c-13.244 4.308-23.12 8.135-35.433 14.969-3.788 2.102-8.001 5.185-11.237 6.889-5.401 2.672-38.968 23.446-42.042 26.896-4.309 2.317-6.178 3.648-10.056 6.54-20.304 16.023-37.097 31.859-53.458 52.099-3.351 4.146-15.895 23.379-18.901 24.696"/><defs><linearGradient id="e" x1="709.567" x2="641.336" y1="1116.408" y2="1594.77" gradientUnits="userSpaceOnUse"><stop offset="0" stop-color="#697282"/><stop offset="1" stop-color="#818998"/></linearGradient></defs><path fill="url(#e)" d="M251.32 1047.91c40.083 105.68 81.767 186.22 172.962 255.67a489 489 0 0 0 95.731 57.2c105.203 47.31 202.096 51.11 313.823 25.58 68.05-15.54 113.851-34.39 177.054-62.64l23.63-13.58c41.92-25.36 72.54-45.27 119.13-61.53 4.79-1.13 16.13-5.76 20.26-4.49l.08 2.24-.92 1.67c-4.31 7.87-12.78 29.58-16.66 38.7a607 607 0 0 1-25.44 53.27c-141.766 268.7-391.067 334.38-656.884 193.91-105.578-55.79-199.382-153.06-234.236-269.08a312.8 312.8 0 0 1-3.577-173.25c3.679-14.31 8.609-30.52 15.047-43.67"/><path fill="#d48642" d="M1153.65 1248.61c4.79-1.13 16.13-5.76 20.26-4.49l.08 2.24c-5.47 2.75-12.1 6.28-17.64 8.51-18.65 9.1-36.09 17.17-54.58 26.88-13.98 7.33-47.65 26.62-60.98 31.21-5.93 2.97-23.84 11.38-29.9 10.76l23.63-13.58c41.92-25.36 72.54-45.27 119.13-61.53"/><path fill="#dddfe2" d="M238.084 1128.94c1.159-.7 1.223-.69 2.547-1.07 9.416 86.05 78.368 177.55 144.54 229.9 101.224 80.09 223.946 121.35 353.139 105.94 97.056-11.58 184.093-48.07 265.77-100.72 21.8-14.05 45.97-29.78 65.81-46.27l-42.24 70.09c-10.77 17.9-20.58 35.01-33.002 51.92-45.586 62.63-110.036 100.98-184.542 119.16-125.415 30.62-247.573 4.85-356.906-61.76-130.42-79.45-222.892-209.69-215.116-367.19"/><path fill="#98a0ad" d="M238.084 1128.94c-.224-6.35 1.098-8.86 1.434-13.59q.186 3.84.634 7.65c.234 2.06.363 2.81.479 4.87-1.324.38-1.388.37-2.547 1.07"/><defs><linearGradient id="f" x1="1308.427" x2="1513.522" y1="975.117" y2="504.558" gradientUnits="userSpaceOnUse"><stop offset="0" stop-color="#697283"/><stop offset="1" stop-color="#a5abb8"/></linearGradient></defs><path fill="url(#f)" d="M1273.84 441.215c147.43-9.627 292.41 47.982 402.37 144.567 80.24 70.469 140.06 171.395 146.99 279.381l.32 5.136c1.5 16.492-.41 34.109-1.86 50.463-2.33 24.119-11.8 62.176-21.02 84.658-16.19-42.856-28.38-75.806-51.01-116.915a478.28 478.28 0 0 0-289.05-230.155c-31.51-9.112-81-20.585-113.83-20.136-107.78 1.472-227.19 40.492-320.68 91.977-39.808 23.984-82.22 50.959-126.811 63.95-6.195 1.805-9.656 3.55-16.29 4.633l-1.523-.874-.086-.471c38.132-85.179 71.673-158.419 135.46-229.416 61.02-67.921 154.97-122.263 247.91-126.105 3.74-.519 5.36-.922 9.11-.693"/><path fill="#dddfe2" d="M1273.84 441.215c147.43-9.627 292.41 47.982 402.37 144.567 80.24 70.469 140.06 171.395 146.99 279.381l.32 5.136c-2.8 3.006-2.87 2.805-4.75 6.391-5.47-34.946-8.83-49.996-21.08-83.562l-1.18 2.193c11.49 37.75 17.31 69.918 17.42 109.802.03 12.328-2.13 26.124-2.05 37.167-.44.448-.9.914-1.33 1.346-.79-1.732-.84-2.461-1.55-4.442.07-6.998-1.76-18.454-3.15-25.439-34.96-175.11-209.84-306.136-378.17-335.913-165.45-29.268-316.5 58.946-445.235 150.446 26.425-44.862 51.505-88.553 82.495-130.171 70.93-95.277 186.34-131.756 301.11-127.936 27.72.923 53.9 2.162 81.3 8.598l3.91-2.435c-41.43-15.828-113.09-30.945-157.08-32.482-7.29-1.79-13.6-.402-20.34-2.647"/><path fill="#fefefe" d="M1273.84 441.215c147.43-9.627 292.41 47.982 402.37 144.567 80.24 70.469 140.06 171.395 146.99 279.381l.32 5.136c-2.8 3.006-2.87 2.805-4.75 6.391-5.47-34.946-8.83-49.996-21.08-83.562-.73-2.749-1.16-3.802-2.22-6.384-.17-1.408-4.36-11.069-5.16-12.97-13.3-31.355-27.15-57.017-45.77-85.669-54.41-83.714-138.14-147.409-229.12-186.882-9.9-4.294-37.19-16.839-47.07-19.006-5.57-2.297-11.27-4.313-17.09-5.873-41.43-15.828-113.09-30.945-157.08-32.482-7.29-1.79-13.6-.402-20.34-2.647"/><path fill="#98a0ad" d="M1451.26 476.344c5.82 1.56 11.52 3.576 17.09 5.873l-1.1.087c-5.69.501-13.46-2.746-19.9-3.525z"/><path fill="#98a0ad" d="M1796.51 795.321c-1.25-4.294-1.55-4.408-1.04-8.577 1.06 2.582 1.49 3.635 2.22 6.384z"/><path fill="#d48642" d="M881.36 797.429c10.312-5.451 27.544-9.073 39.377-14.432 23.508-10.646 44.708-23.674 67.385-35.67 6.598-3.49 31.498-17.066 37.948-17.136-39.808 23.984-82.22 50.959-126.811 63.95-6.195 1.805-9.656 3.55-16.29 4.633l-1.523-.874z"/><path fill="#dddfe2" d="M1823.52 870.299c1.5 16.492-.41 34.109-1.86 50.463-.94-1.801-2.43-37.925-2.89-44.072 1.88-3.586 1.95-3.385 4.75-6.391"/><path fill="#dddfe2" d="M1264.73 441.908c3.74-.519 5.36-.922 9.11-.693 6.74 2.245 13.05.857 20.34 2.647-10.21.299-19.49.048-29.45-1.954"/><path fill="#98a0ad" d="M1809 939.194c.71 1.981.76 2.71 1.55 4.442.43-.432.89-.898 1.33-1.346-.35 4.194-1.38 9.915-2.04 14.236-.43-5.981-.8-11.319-.84-17.332"/><path fill="#798191" d="M1233.74 862.458c15.56 6.258 35.76 19.626 51.28 27.838 32.71 17.316 66.39 34.482 97.29 54.974 85.98 57.03 157.83 142.34 190.52 240.96 40.66 126.65 22.5 268.08-38.5 385.44-45.39 87.34-110.92 165.46-198.25 213.59-24.1 13.27-46.06 21.46-71.91 29.89-67.96 18.24-120.94 18.51-187.91-4.32 27.38-13.58 51.19-24.29 77.75-40.25a477.74 477.74 0 0 0 184.14-199.67c42.75-87.6 66.96-195.74 56.06-293.11-4.44-39.69-12.97-73.65-24.39-111.95a847 847 0 0 0-48.99-127.37c-16.14-33.45-33.4-59.726-51.52-91.27-13.23-23.011-27.02-59.931-35.57-84.752"/><path fill="#dddfe2" d="M1319.99 981.747c15.67 7.215 41.1 26.053 56.34 35.763 28.25 18 60.67 40.75 84.3 64.53 43.78 44.05 71.8 105.65 87.83 165.02 32.81 121.64 11.32 249.46-52.71 357.38-54.34 91.6-145.19 171.1-250 198.16-37.1 8.9-62.93 10.94-100.95 9.55 44.58-9.5 86.69-28.17 123.67-54.81 97.28-68.68 162.28-193.15 181.71-308.64 21.54-127.98-11.21-252.98-70.65-366.23-18.65-35.54-36.16-67.7-59.54-100.723"/><path fill="#dddfe2" d="M475.761 589.626c1.218-6.963 4.077-14.625 6.105-21.484 61.799-208.948 267.055-412.564 501.309-335.326-4.686 2.822-10.243 7.623-15.236 10.969l-1.832-.644c-12.95 3.208-36.49 15.174-48.689 21.967-74.272 41.355-140.658 99.384-184.558 172.594-76.355 127.331-94.633 276.268-59.207 419.425a793.8 793.8 0 0 0 60.024 160.393c12.637 24.78 25.083 42.56 37.816 65.8a954 954 0 0 1 45.749 98.04c-138.798-58.58-269.49-146.36-328.208-290.872-31.92-78.557-38.331-166.504-24.986-249.814 2.556-15.951 5.034-35.525 11.367-50.329.104-.245.23-.479.346-.719"/><defs><linearGradient id="g" x1="1057.07" x2="539.203" y1="857.49" y2="461.898" gradientUnits="userSpaceOnUse"><stop offset="0" stop-color="#717a8a"/><stop offset="1" stop-color="#a4abb7"/></linearGradient></defs><path fill="url(#g)" d="M935.203 234.799c8.344 2.033 23.849 5.142 30.904 8.342-12.95 3.208-36.49 15.174-48.689 21.967-74.272 41.355-140.658 99.384-184.558 172.594-76.355 127.331-94.633 276.268-59.207 419.425a793.8 793.8 0 0 0 60.024 160.393c12.637 24.78 25.083 42.56 37.816 65.8a954 954 0 0 1 45.749 98.04c-138.798-58.58-269.49-146.36-328.208-290.872-31.92-78.557-38.331-166.504-24.986-249.814 2.556-15.951 5.034-35.525 11.367-50.329.104-.245.23-.479.346-.719l.373.228c.606-.609 16.355-38.012 18.411-42.405a824 824 0 0 1 53.195-96.017c1.385 2.883-7.651 17.237-9.524 21.004a506 506 0 0 0-18.636 43.418c-54.763 146.636-36.964 348.705 84.553 460.415 14.215 13.067 33.107 25.671 48.968 36.721a6628 6628 0 0 0 77.041 52.29c-65.588-99.236-111.371-193.171-127.015-312.297-18.396-140.074 14.667-274.114 102.032-386.079 61-78.176 130.542-120.058 230.044-132.105"/><path fill="#fefefe" d="M475.761 589.626c1.218-6.963 4.077-14.625 6.105-21.484 61.799-208.948 267.055-412.564 501.309-335.326-4.686 2.822-10.243 7.623-15.236 10.969l-1.832-.644c-7.055-3.2-22.56-6.309-30.904-8.342-10.006-3.063-25.705-4.332-36.22-4.747-57.141-2.254-115.957 14.662-166.292 41.27-65.758 34.761-123.491 91.808-166.212 152.189-2.812 3.974-17.379 24.442-18.739 27.921a824 824 0 0 0-53.195 96.017c-2.056 4.393-17.805 41.796-18.411 42.405z"/><path fill="#a55f2a" d="M1022.17 778.272c8.42 7.206 20.66 12.719 30.59 17.831 42.98 22.129 85.88 32.935 132.21 45.694 22.71 68.074 47.57 123.765 88.79 182.693-36.94 51.69-66.26 114.82-85.32 175.31-25.6 5.18-44.02 10.25-68.28 20.92a761 761 0 0 0-66.54 34.01c-4.7 2.73-19.07 11.97-23.03 11.9-10.52-7.51-22.9-12.9-34.419-18.68-43.019-21.6-84.352-34.97-130.97-46.66-12.769-37.49-30.22-75.86-47.581-111.47-11.802-24.2-27.778-48.04-42.428-70.7 45.325-54.63 64.861-110.389 89.571-176.293 56.563-5.986 108.784-37.147 157.407-64.555"/><path fill="#22252b" d="M1020.49 796.049c1.68.12 39.7 20.541 45.24 22.835 34.19 14.159 71.16 26.555 107.26 33.974 5.52 19.25 14.7 37.49 21.53 56.039 15.88 43.101 36.37 75.987 60.94 114.393-32.89 46.53-60.92 109.7-79.04 163.44-42.77 9.73-82.89 28.62-120.93 50.12-6.63 3.75-16.24 9.98-23.02 12.84-51.272-27.39-98.665-47.36-155.528-60.82-22.919-61.43-46.344-114.76-83.323-168.77 28.016-34.162 41.553-63.894 58.495-104.202 8.555-20.354 16.487-38.611 23.422-59.726 54.84-9.002 97.116-32.656 144.954-60.123"/></svg>