<svg xmlns="http://www.w3.org/2000/svg" width="2048" height="2048" viewBox="0 0 2048 2048"><path fill="#120116" d="M0 0h2048v2048H0z"/><path fill="#42f8e3" d="m1005.73 534.758 36.21.011.23 88.033c21.99 1.775 42.68 3.564 64.35 7.959a402.94 402.94 0 0 1 226.46 134.885c54.13 63.528 92.82 154.49 94.03 238.424 29.46.06 60.41-.39 89.74.23l-.03 37.73-89.77.19c-1.69 25.73-3.66 47.44-9.47 72.66-18.81 81.76-64.74 157.68-127.95 212.73-71.23 62.05-154.14 92.66-247.5 98.31l.1 89.47c-11.99.12-24.36.41-36.31.33l-.07-89.55c-22.234-2.51-38.573-3.23-61.159-7.78a398.4 398.4 0 0 1-234.002-141.19c-55.617-69.65-84.682-146.26-88.411-235.14l-87.031.06.161-37.76 86.772-.28c.63-19.039 2.324-31.388 4.965-49.907 1.021-6.318 2.496-12.987 3.785-19.289a403.25 403.25 0 0 1 182.342-253.279 397.17 397.17 0 0 1 192.668-58.683z"/><path fill="#120116" d="M1041.93 783.717c9.83 1.092 19.39 2.215 29.14 3.948 103.39 18.379 186.62 111.13 193.32 216.455-12.72-.05-25.45.03-38.18.24l-.18 37.69 39.06.05c-7.36 46.47-8.22 53.65-29.74 98.29-2.02 3.38-4.25 6.89-5.9 10.44-6.84 9.57-16.15 22.96-23.71 31.55a238.15 238.15 0 0 1-163.66 80.8l-.14-41.74c-11.79.42-24.13.35-35.98.44l-.09 41.29c-116.357-5.34-214.974-104.99-221.096-221.08l38.474-.06-.055-37.74c-12.341-.33-26.045-.03-38.491-.02a240.6 240.6 0 0 1 52.367-132.547c43.422-54.903 100.698-80.032 168.681-87.849l-.12 40.844q18.165.144 36.33-.307z"/><path fill="#42f8e3" d="M1016.44 889.613c73.56-4.341 136.79 51.576 141.49 125.107 4.7 73.54-50.92 137.04-124.43 142.09-74.012 5.09-138.047-50.99-142.774-125.02-4.727-74.043 51.655-137.806 125.714-142.177"/><path fill="#120116" d="M1020.07 916.587c58.9-2.426 108.59 43.396 110.94 102.293 2.34 58.9-43.55 108.53-102.45 110.8-58.789 2.26-108.302-43.52-110.643-102.31-2.342-58.787 43.374-108.362 102.153-110.783"/><path fill="#120116" d="m687.171 1042.11 74.878-.04c9.924 134.82 110.385 231.72 243.751 244.2.21 25.07-.1 50.51-.21 75.61-177.423-15.14-304.819-142.05-318.419-319.77"/><path fill="#120116" d="M1287.26 1042.25c24.76-.33 49.96-.15 74.76-.21-13.7 154.48-107.27 268.59-256.8 310.19-23.8 5.61-39.11 7.55-63.06 9.41-.36-24.91-.12-50.41-.14-75.36 59.59-4.74 111.6-25.32 156.7-65.07a259.27 259.27 0 0 0 88.54-178.96"/><path fill="#120116" d="M1042.05 688.015a330.06 330.06 0 0 1 207.45 85.309 333.3 333.3 0 0 1 111.94 230.766l-74.25.05c-1.13-48.752-26.39-106.399-56.66-144.473a262.24 262.24 0 0 0-144.39-91.986c-15.16-3.591-28.57-5.051-43.96-6.821z"/><path fill="#120116" d="M997.149 688.421c3.231-.302 5.601-1.009 8.191.685 1.07 6.177.62 19.684.62 26.63l-.06 45.283c-133.571 10.104-233.114 109.216-243.628 243.101l-66.522-.05c-3.517.11-3.901.25-7.434-.54-2.327-4.863 1.578-27.512 2.711-34.225a328.8 328.8 0 0 1 74.848-162.001 334.85 334.85 0 0 1 231.274-118.883"/><path fill="#42f8e3" d="m901.108 499.604 34.03-.046.038 66.073c-55.584 8.313-113.632 33.92-164.2 57.382-8.302 4.199-17.956 9.438-26.572 12.572 43.022-36.756 103.65-70.195 155.12-93.269a1148 1148 0 0 0 1.584-42.712"/><path fill="#42f8e3" d="m1296.01 1417.32 2.25 2.14c-3.1 1.51-12.43 8.49-15.64 10.76a645 645 0 0 1-29.42 20.01 802 802 0 0 1-103.83 56.49l-1.23 42.51-34.07.07.08-66.32c49.97-10.46 90.34-23.14 137.04-44.56 15.02-6.89 29.85-14.33 44.82-21.1"/><path fill="#42f8e3" d="M749.363 1416.04c13.209 4.49 38.456 18.59 52.957 24.97 45.442 19.99 84.315 32.67 132.781 42.57l.17 65.49-34.188.06c.087-13.45-.816-28.51-1.372-42.08a763.6 763.6 0 0 1-130.629-74.7c-5.132-3.68-16.698-11.52-19.719-16.31"/><path fill="#42f8e3" d="m1114.11 499.52 33.84.173c.01 13.917.94 29.073 1.13 43.326 56.71 24.957 97.54 49.086 146.89 85.778.09 1.157-.1 1.925-.27 3.087-67.32-32.99-108.05-51.036-181.66-66.395z"/><path fill="#42f8e3" d="M1483.91 1114.99c20.37-.46 42.68-.07 63.19-.08l-.02 34.11-40.63.13c-15.66 35.26-41.23 81.64-63.67 113.67-9.87 13.64-19.89 27.16-30.07 40.58 1.42-7.27 21.85-45.44 26.37-55.33 19.54-42.71 36.52-86.66 44.83-133.08"/><path fill="#42f8e3" d="M542.421 897.134c25.589-57 50.301-94.994 86.908-144.562l1.996 2.757c-28.623 53.082-55.626 117.342-66.846 176.613l-63.377-.004v-34.884c13.632-.173 27.655.035 41.319.08"/><path fill="#42f8e3" d="m501.056 1114.94 63.601-.07c13.353 66.15 31.128 105.03 60.189 164.99-2.093 2.37-2.166 2.19-3.016 4.99-30.189-37.15-59.727-92.52-79.659-135.79l-41.101.13z"/><path fill="#42f8e3" d="M1430.83 768.742c26.09 32.794 58.34 89.946 75.05 128.323l41.25.025-.04 34.778-63.07.153c-12-60.272-31.47-106.48-58.82-160.999 2.71-.87 3.05-.979 5.63-2.28"/><path fill="#36ede1" d="M1425.2 771.022c-4.04-8.299-10.33-18.441-12.71-26.465 5.87 7.358 13.39 16.216 18.34 24.185-2.58 1.301-2.92 1.41-5.63 2.28"/><path fill="#36ede1" d="M624.846 1279.86c4.017 6.54 9.425 17.18 12.741 24.06-7.273-6.83-9.939-11-15.757-19.07.85-2.8.923-2.62 3.016-4.99"/><path fill="#36ede1" d="M629.329 752.572c6.051-7.385 5.804-3.65 1.996 2.757z"/><path fill="#36ede1" d="M1295.97 628.797c5.76 3.759 4.05 6.435-.27 3.087.17-1.162.36-1.93.27-3.087"/><path fill="#36ede1" d="M1296.01 1417.32c3.05-2.84 5.48-1.56 2.25 2.14z"/></svg>