<svg xmlns="http://www.w3.org/2000/svg" width="2048" height="2048" viewBox="0 0 2048 2048"><path fill="#151314" d="M0 0h2048v2048H0z"/><path fill="#44eed4" d="M1021.62 475.42c.77-3.463.52-5.578 2.65-7.375 1.64 2.815 1.64 4.372 2.11 7.559 6.3 28.97 12.97 58.34 18.94 87.34 28.79 2.379 59.15 5.389 87.21 12.169 93.88 22.682 184.16 78.254 246.03 152.588 68.16 81.901 100.1 169.66 107.47 274.729 19.2 3.69 39.56 8.71 58.73 13.06 11.56 2.62 28.95 6.09 39.72 9.47-31.94 7.32-66.97 14.72-98.41 23.26-11.89 175.76-107.57 320.95-268.56 396.77-57.84 27.24-107.1 36.76-170.4 42.13-7.32 29.32-14.27 58.74-20.86 88.24-.31 1.22-.61 2.45-.89 3.68-2.02 9.19-3.66-4.25-3.96-6.1-6.75-25.36-13.05-60.02-18.37-86.05-107.212-7.53-194.849-39.34-277.799-109.35A459.66 459.66 0 0 1 575.9 1140.11c-7.921-31.89-11.246-59.96-13.969-92.43-32.414-6.53-65.236-16.42-97.997-22.56 31.241-8.04 66.902-15.42 98.729-22.79 2.828-101.31 44.16-201.738 110.033-278.342a461.1 461.1 0 0 1 259.182-152.565c23.202-4.647 46.059-6.742 69.602-8.535z"/><path fill="#3bd2be" d="M1021.4 1572.94c2.96.44 3.26-.01 4.85 2.42-.31 1.22-.61 2.45-.89 3.68-2.02 9.19-3.66-4.25-3.96-6.1"/><path fill="#151314" d="M998.054 608.961C1227.9 594.566 1425.84 769.32 1440.06 999.172c14.21 229.858-160.7 427.658-390.57 441.688-229.604 14.01-427.14-160.66-441.336-390.25-14.196-229.594 160.318-427.27 389.9-441.649"/><path fill="#44eed4" d="M690.022 1037.56a991 991 0 0 1 33.692 7.09c13.956 154.69 127.004 269.25 281.996 281.21 2.22 9.75 4.26 24.35 5.99 34.54-170.213-3.11-320.623-151.66-321.678-322.84"/><path fill="#44eed4" d="m1008.44 689.44 1.32.174c2.26 4.155-2.53 26.804-3.4 34.11a300.5 300.5 0 0 0-175.863 70.029A306.97 306.97 0 0 0 723.95 1004.37a1011 1011 0 0 1-30.712 7.38l-2.183.13c-2.726-5.6 1.536-31.569 2.625-38.761a329.53 329.53 0 0 1 78.009-168.598c62.26-71.829 142.499-108.497 236.751-115.081"/><path fill="#44eed4" d="M1038.01 689.137c169.91 1.62 317.75 154.617 321.04 323.563-10.75-3.2-22.86-5.75-33.87-8.3-1.31-61.659-32.58-131.699-73.28-177.681-54.85-61.983-126.72-96.741-208.49-102.846z"/><path fill="#44eed4" d="m1355.54 1038.19 2.64.01c.56 1.05 1.03 2.17.99 3.39-2.4 73.64-34.66 147.87-82.12 202.46a337.9 337.9 0 0 1-233.88 115.76c-1.18.05-2.08-.21-3.28-.42-1.7-4.2 3.53-27.72 4.65-33.96 82.52-4.93 163.04-47.22 214.58-111.66 39.67-49.61 61.01-105.32 66.65-168.49 9.88-2.52 19.81-4.89 29.77-7.09"/><path fill="#44eed4" d="M1014.02 969.618c30.57-5.48 59.77 14.906 65.16 45.482 5.39 30.58-15.08 59.73-45.68 65.03-30.47 5.28-59.464-15.09-64.833-45.54-5.368-30.46 14.916-59.515 45.353-64.972"/><path fill="#44eed4" d="M1019.75 1121.12c3.61-.04 6.81-.54 9.9 1.1 1.06 6.15.61 18.02.6 24.7l-.05 43.8.05 81.97c.02 34.25.79 52.79-3.76 86.96-.6.29-1.2.59-1.81.89-7.18-8.45-5.44-93.2-5.43-107.72-.06-43.9.1-87.8.5-131.7"/><path fill="#44eed4" d="M1125.35 1019.17c66.32 1.33 139.43-1.69 206.28.88 3.46.14 21.18 3.45 23.17 5.27l-3.02.89c-26.86 5.22-43.97 3.86-71.34 3.84l-74.6-.06-50.8.14c-8.5.03-20.8.49-28.88-.45-1.45-2.55-.89-7.3-.81-10.51"/><path fill="#44eed4" d="M1024.4 688.772c6.76 9.33 5.84 63.309 5.86 77.58l-.03 80.582-.04 50.132c0 8.088.1 16.598-.12 24.7-.08 2.534-.37 2.125-2.19 3.616-4.42-.419-5.4.328-7.88-2.037-1.74-22.962-.3-67.249-.29-91.546l.02-68.126c.01-26.331-1.19-48.78 4.67-74.901"/><path fill="#44eed4" d="M720.095 1019.33c6.732-.61 20.224-.13 27.661-.13l53.621.02 79.237.08c11.659.01 23.395.05 35.058-.19 3.324-.07 2.792.04 5.117 1.71.94 4.34.294 5.63-2.5 8.64-4.314 1.75-14.513.64-20.039.52l-104.291.1c-23.264.03-47.746.43-70.97-.4-6.68-.24-23.661-3.45-30.871-4.67 9.437-2.44 18.41-3.97 27.977-5.68"/></svg>