<svg xmlns="http://www.w3.org/2000/svg" width="2048" height="2048" viewBox="0 0 2048 2048"><path fill="#242529" d="M0 0h2048v2048H0z"/><path d="M1025.56 61.836c1.36 1.973 6.99 29.287 9.32 35.909 18.25 51.753 38.46 92.168 88.24 118.117l-.09 63.45c-.02 29.121-2.22 64.592 9.1 91.605 49.01 116.96 213.18 102.41 309.77 66.561-.77 55.525-.01 112.859 0 168.569l-.03 334.608v153.335c.03 39.72-2.05 85.02 5.56 123.45a256.7 256.7 0 0 0 63.54 123.49c36.56 39.41 84.91 64.08 138.98 66.15l.02 253.55c-45.13-7.35-81.13-13.72-127.63-13.75-181.68-.11-354.13 69.76-452.4 227.48a402 402 0 0 0-28.72 55.74c-2.08 4.99-14.51 43.17-15.58 44.22l-.75-1.66c-8.78-23.65-17.51-46.08-28.977-68.61a445 445 0 0 0-182.224-187.64c-101.71-56.81-225.918-78.34-341.184-66.24-20.801 2.19-51.453 5.55-71.591 11.25 1.318-83.43.357-170.67.08-254.34 51.697-2.17 95.832-24.23 132.484-60.24a245.48 245.48 0 0 0 69.314-125.45c7.329-35.24 5.295-78.59 5.235-115.23l-.08-134.677.228-534.54c95.95 44.311 266.877 55.003 311.331-64.343 10.245-27.505 8.675-54.301 8.712-83.035l.069-72.942a104.5 104.5 0 0 0 16.099-8.798c47.333-31.164 70.004-92.805 81.174-145.989"/><path fill="#efeff1" d="M1022.6 458.432c.98.542 31.84 38.324 36.74 43.035 71.6 68.829 159.1 85.482 254.38 85.68l.07 377.982-.06 127.621c-.03 57.2-3.13 110.25 13.42 165.27 31.86 105.88 97.53 170.69 191.08 222.74-.11 14.99.09 30.24.15 45.26-81.76-.17-154.57 6.6-233.44 29.93-83.75 24.78-161.27 65.74-220.85 130.78-13.44 14.67-26.78 31.56-36.3 49-3.79-5.95-8.42-12.16-12.82-17.72-99.138-125.22-263.038-182.73-418.284-191.09-21.268-1.14-42.654-1-63.95-.99q.366-25.44.135-50.88a380.9 380.9 0 0 0 96.489-70.18c51.799-52.02 89.078-124.08 95.156-197.86 2.413-29.28 1.515-60.31 1.522-89.79l.019-120.496-.031-417.183c119.82 9.847 224.983-14.712 296.574-121.109"/><path fill="#c76b28" d="M1026.5 192.628c6.49 10.735 12.51 21.392 20.77 30.891-.89 86.606-21.67 167.422 46.95 235.984 52.62 52.575 128.6 73.342 201.31 73.602 22.89.082 53.14-1.765 75.34-6.435l-2.96 428.194-1.15 134.836c-.17 46.35-1.62 90.68 8.8 136.23 23.69 103.44 102.82 192.95 202.43 229.95l.05 126.64c-95.02-9.28-179.21-4.95-271.45 21.91-21.69 6.31-49.84 15.42-70.39 24.81l-1.65-1.68c101.32-52.95 207.84-72.85 321.83-64.67.16-33.01.09-66.02-.23-99.03-17.25-8.06-31.63-14.75-48.05-24.41-63.41-37.29-116.74-94.97-142.35-164.65a326.5 326.5 0 0 1-18.42-79.87c-2.4-25.81-1.4-58.57-1.35-85.07l.29-134.83.36-422.157c-83.86 11.102-177.25-3.998-245.87-55.903-38.04-28.773-69.83-73.111-74.23-121.154-2.71-29.604-1.76-67.549-1.75-97.734 0-21.303-1.37-65.562 1.72-85.454"/><path fill="#c76b28" d="M647.156 1574.08c-12.437-6.86-1.827-4.53 3.622-5.4 26.766 1.91 56.188 8.56 82.532 14.3 130.085 28.33 253.506 113.65 295.4 245.97l-1.88 1.31c-4.79-13.37-17.86-34.76-25.87-47.11-78.929-121.68-215.869-180.96-353.804-209.07"/><path fill="#9b5a29" d="M647.156 1574.08c-21.579-2.82-42.806-6.46-64.617-7.85-4.068-.26-10.677-.99-14.572-.69-3.896.3-3.617-1.07-6.307-1.02 11.394-.46 82.548.7 89.118 4.16-5.449.87-16.059-1.46-3.622 5.4"/><path fill="#472813" d="M1028.71 1828.95c2.29 4.94 3.96 10.03 3.72 15.5-1.72-4.58-4.07-9.92-5.6-14.19z"/><path fill="#9b5a29" d="m1234.55 1627.56 1.65 1.68c-2.45 1.21-4.23 2.1-6.57 3.5l-.48-2.24c1.78-1.01 3.59-1.99 5.4-2.94"/><path fill="#472813" d="M1229.63 1632.74c-.92.32-3.36 1.68-4.34.93-.22-1.43 2.84-2.63 3.86-3.17z"/></svg>