<svg xmlns="http://www.w3.org/2000/svg" width="2048" height="2048" viewBox="0 0 2048 2048"><path fill="#282b35" d="M0 0h2048v2048H0z"/><path fill="#be7c3a" d="M581.598 881.718C491.03 767.63 441.057 630.946 453.843 484.644c15.137-173.195 82.032-260.696 210.832-369.284a827 827 0 0 0-24.719 70.317c-23.938 77.395-35.451 148.45-17.935 229.003 17.024 78.287 61.65 146.495 129.619 189.871a591.4 591.4 0 0 1 144.215-62.364 480.73 480.73 0 0 1 324.865 23.133c28.71 12.407 50.41 25.018 77.42 40.291 45.79-33.934 81.5-71.009 105.48-123.555 57.96-127.037 25.48-242.15-19.07-366.4 103.5 88.19 185.7 189.279 207.14 327.247 20.21 130.038-8.64 254.163-74.32 367.477-15.91 27.448-30.9 47.868-49.42 73.285 3.46 3.56 6.11 6.336 9.92 9.577 1.27 1.665 2.51 3.094 3.86 4.681 4.66 6.092 14.95 19.262 15.96 26.506 6.31 45.747-37.05 104.801-29.1 148.741 9.62 53.22 128.25 14.01 161.15 5.64l-221.02 294.08c-13.06-11.79-28.34-22.59-41.47-32.9-22.53-17.69-52.31-15.86-66.11 10.99-39.28 76.42-24.13 210.3-6.7 288.77-68.79 92.93-140.62 184.01-209.86 276.64-2.64 3.53-8.2 10.96-11.66 13.17-3.69.34-4.66.6-8.36-.24-.77-7.03-.47-19.87-.5-27.5l-.06-52.29-.11-168.15c-30.83-6.18-48.07-4.2-78.086-.06l.198 249.13-10.872.03c-18.846-27.04-43.548-56.81-63.631-83.71-51.445-68.91-105.541-137.37-156.466-206.59a515 515 0 0 0 7.596-40.74c9.548-65.46 22.904-197.08-17.73-252.45-6.727-9.16-16.783-17.3-28.471-18.61-24.604-2.77-57.296 28.79-76.062 44.39-23.258-27.18-53.513-70.24-75.47-99.51l-146.304-194.7c36.155 9.36 74.812 19.63 111.957 23.74 11.907 1.32 30.1-1.61 38.288-10.32 37.287-39.66-23.981-108.445-20.043-152.941 2.125-24.001 16.679-43.101 32.804-57.321"/><path fill="#040407" d="M631.475 162.819c.885 3.66-13.944 50.557-15.979 58.112a409 409 0 0 0-11.531 56.372c-6.796 50.178-5.596 98.721 6.285 148.136a312.04 312.04 0 0 0 141.715 195.57 549 549 0 0 1 183.961-74.387c125.664-25.745 255.064 5.838 361.234 75.895 46.64-30.559 83.84-69.168 110.63-118.313a327.5 327.5 0 0 0 32.74-89.939c20.34-94.488.89-162.786-25.7-252.893 10.44 9.451 23.07 22.861 32.87 33.149 72.87 76.43 120.63 163.526 133.08 269.239 18.44 156.627-35.66 299.123-131.28 421.082 11.44 11.033 28.08 25.472 33.87 40.687 11.45 30.095-38.3 104.951-28.42 149.461 2.91 13.09 10.97 25.01 22.52 31.96 29.77 17.94 85.91 2.36 118.01-5.63-41.52 56.79-85.88 114.19-128.35 170.45-11.73 15.5-23.35 31.07-34.86 46.72-7.72 10.53-17.36 24.69-26.03 33.94-16.63-13.14-41.95-35.95-62.76-37.96-56.65-5.45-71.75 65.17-77.03 105.29-1.1 4.98-2.38 25.37-2.6 30.87-2.43 59.12 2.73 128.22 15.85 185.88l-201.77 265.77-.34-231.57c-37.92-9.35-67.9-9.68-105.659-.21l.625 233.08a28195 28195 0 0 1-202.14-266.32c3.566-23.52 8.309-47.6 10.308-71.95 4.914-70.55 18.03-170.03-27.326-229.72-34.827-45.84-79.1-8.84-110.888 17.14-20.302-24.37-42.758-56.14-62.065-81.87a17223 17223 0 0 0-127.842-169.51c6.618 1.68 14.098 3.4 20.872 4.75 30.025 6.01 82.279 22.19 106.19-5.24 41.184-47.25-13.681-107.688-16.982-157.418-1.621-24.41 21.681-45.692 37.246-61.355C516.365 785 462.347 649.657 465.316 520.874c2.241-97.227 29.329-200.813 90.085-277.914 24.096-30.579 48.004-53.678 76.074-80.141"/><path fill="#d5d5d6" d="M551.408 336.675c3.627-9.55 11.797-22.619 18.04-30.746-22.797 70.02-5.162 156.93 27.62 221.384a355.43 355.43 0 0 0 209.297 180.303c8.353 2.706 16.799 4.905 25.184 7.516 22.424 4.273 51.631 10.926 74.359 10.999 4.529-.386 7.423.296 10.894-1.574-44.214-13.684-95.852-35.898-134.09-62.32 75.354-49.664 180.245-80.132 270.428-71.258.41.252.82.511 1.24.756 5.63 3.317 13.65 4.244 19.82 6.827 23.22 9.721 59.18 29.839 66.22 56.019 2.67 9.921 3.63 23.439-1.72 32.537-15.91 27.066-73.95 21.156-102.06 77.121-6.8 13.548-10.43 27.669-12.01 42.69-2.81 26.811-.02 54.873.09 81.838l.24 158.443c.07 8.83 1.25 42.52-1.5 48.06-8.85-4.76-8.8-15.05-9.34-24.06-.95-1.12-1.9-2.26-2.84-3.39-2.53 24.4-12.645 39.2-24.178 60.25l-28.807 52.67c-13.673 25.14-34.037 64.34-14.633 93.07 12.1 17.92 46.514 4.53 58.938-7.21 16.82-14.99 17.01-42.84 19.72-64.04 2.34 7.51 1.95 35.67 2.05 45.31.4 34.39.51 68.79.34 103.19-.03 89.16 1.02 179.3-.01 268.4-1.2 1.26-.94 1.28-2.4 2.02-20.61-1.23-34.272-11.18-47.263-26.24l2.531-126.37c.176-10.24 1.502-47.42.328-55.95a37.3 37.3 0 0 0-9.05-19.65c-32.613-36.34-97.024 12.19-51.582 55.33.921 52.96 1.033 105.93.336 158.89l.159 152.6a4453 4453 0 0 1-97.265-133.75c14.012-85.3 22.411-192.4 1.443-276.44-2.592-10.39-7.049-29.77-12.946-38.14l3.973-.46c36.633 35 33.294 64.27 42.918 107.98 4.122-40.99 5.609-96.38-19.808-130.59-17.872-24.06-43.065-32.33-71.496-36.64a163.2 163.2 0 0 1 49.992-10.17c5.382-.83 33.591.03 34.351-2.58-72.853-14.08-144.961-16.73-198.817 42.4-35.808-42.16-70.154-85.63-106.307-127.54 37.387 8.72 77.724 20.38 115.026 30.45l3.295-1.91c-20.314-9.23-39.044-19.1-59.002-28.93 13.179-12.47 21.548-22.3 28.809-39.03 27.284-62.86-1.324-109.22-23.399-166.515 15.64-13.846 23.979-23.842 42.343-36.435 51.309-35.187 99.824-45.739 160.673-35.091l3.898-2.286c-59.183-19.583-99.114-40.622-146.089-83.104-77.333-69.936-133.927-190.238-137.399-294.662-.154-.18-1.309-1.383-1.508-1.509-1.203 3.726-.22 31.913-.572 38.165-.05 21.116 3.542 48.859 7.021 69.732 18.072 108.406 62 178.358 127.859 262.435-58.738-36.184-107.193-122.638-127.198-187.121-27.826-89.694-35.543-186.455-10.053-277.561 6.307-22.541 12.982-43.239 23.907-64.113"/><path fill="#bdbdc3" d="M551.408 336.675c3.627-9.55 11.797-22.619 18.04-30.746-22.797 70.02-5.162 156.93 27.62 221.384a355.43 355.43 0 0 0 209.297 180.303c8.353 2.706 16.799 4.905 25.184 7.516-38.911-1.807-91.781-25.291-124.922-45.182-85.261-51.174-160.037-149.105-162.772-250.897-.417-15.525-.48-32.452 1.888-47.787 1.319-8.543 7.429-27.578 5.665-34.591"/><path fill="#66666b" d="M530.244 479.97c.501 3.818.859 6.772 1.607 10.563l.054 2.022c.045 1.493.084 2.581.047 4.092-.154-.18-1.309-1.383-1.508-1.509-1.203 3.726-.22 31.913-.572 38.165-2.182-15.469-.137-37.623.372-53.333"/><path fill="#77777c" d="m848.921 1239.3 3.088.48c1.18.14 2.531.16 3.463 1-.028.14-.056.28-.084.43-1.262.88-36.779.87-40.818.67 5.382-.83 33.591.03 34.351-2.58"/><path fill="#515156" d="M662.118 1182.7c-.528-.11 18.673 7.91 18.453 7.7-1.69.84-18.682-4.9-21.748-5.79z"/><path fill="#66666b" d="M815.44 874.413c-.605-.079 15.083 4.477 14.981 4.418.396 1.578-5.872-.084-5.906-.092-4.202-.964-8.795-1.155-12.973-2.04z"/><path fill="#282b35" d="M916.802 724.557c1.485.268 3.882.371 4.603 1.805-.73 1.437-13.516.057-15.497-.231 4.529-.386 7.423.296 10.894-1.574"/><path fill="#66666b" d="M1011.28 1067.82c-.14-2.13-.34-5.15.71-7.1l.28-.11c1.03.47 1.76 9.17 1.85 10.6-.95-1.12-1.9-2.26-2.84-3.39"/><path fill="#bdbdc3" d="M530.244 479.97c-.066-.938-.421-3.749.332-4.578 1.827.838 1.323 12.937 1.275 15.141-.748-3.791-1.106-6.745-1.607-10.563"/><path fill="#040407" d="M650.754 988.125c5.629-1.696 11.821-11.065 15.839-15.724 30.173-34.981 53.51-47.016 99.288-36.41 38.946 9.023 66.852 21.907 90.909 55.975 12.082 17.814 20.104 26.694 42.534 29.264 18.167 2.08 37.1 6.95 53.75 14.25 39.793-22.8 31.141-34.71 15.569-70.617-3.059-7.052-4.942-17.206-6.252-24.816q1.035-1.978 2.048-3.969c6.098 14.422 11.512 23.341 20.203 36.294 9.251 13.788 30.768 29.248 22.718 47.338-6.72 15.11-24.084 22.42-32.965 36.01-9.704 14.41 1.938 24.67-2.505 39.06-11.378 15.11-45.745 40.64-60.583 51.9l-1.337-1.63c5.144-4.94 11.858-10.84 16.46-16.15 25.07-28.89 53.312-34.89 21.813-72.62 5.452 21.29-.729 30.89-17.919 43.81-35.657 26.82-81.251 34.94-122.32 49.99-7.245 2.65-14.859 12.51-21.886 16.27-13.372 7.93-32.713 1-45.439-6.22-27.043-15.48-68.719-36.57-58.38-74.68 2.586-9.53 8.228-17.43 11.112-27.26-1.484-7.18-3.374-13.55-6.389-20.25-9.622-21.37-14.584-36.5-37.209-46.842z"/><path fill="#fcfcfd" d="M916.762 632.412c12.049-.932 57.983-.428 62.91 14.262l-.572 2.487c-14.197 8.914-38.177 14.547-52.681 21.367-13.347 6.277-19.389 9.139-29.119 16.077l-6.239 6.018c-9.429-2.952-54.342-18.902-52.806-29.295 3.312-22.412 61.672-30.18 78.507-30.916"/><path fill="#fcfcfd" d="M646.9 1005.39c20.046 10.34 25.716 82.04 22.465 103.08-1.979 12.81-7.53 32.44-11.023 45.57 8.156 7.69 16.613 13.53 25.168 21.91l-22.237-4.88c-14.273-4.14-27.33-6.63-40.597-13.69a172.2 172.2 0 0 0 22.696-37.92c10.197-23.43 11.512-52.72 12.029-78.17.251-12.36-4.078-24.51-8.501-35.9"/><path fill="#fcfcfd" d="M573.164 1167.76c6.379-.16 16.574 4.18 22.88 6.2 28.812 9.23 57.633 18.71 86.975 26.09 2.659.67 5.607 1.83 7.773 3.49l-.41 1.78c-3.292 2.08-7.083 2.05-11.026 2.46-18.233 2.86-24.701 5.36-41.891 11.47-15.453-12.7-48.992-42.12-64.301-51.49"/><path fill="#fcfcfd" d="M937.444 1016.38a113.8 113.8 0 0 1-30.574-5.18c-29.215-9.39-45.781-32.654-64.391-55.335-5.466-6.661-17.292-18.567-20.965-25.609 43.847 35.357 67.241 64.394 124.364 84.154 1.3.25 2.052.33 3.24.8l-.208-.03.815.95.247-.14c.173 2.6-10.983.67-12.528.39"/><path fill="#f2f3f7" d="M945.878 1014.41c1.3.25 2.052.33 3.24.8l-.208-.03.815.95.247-.14c.173 2.6-10.983.67-12.528.39.964-.15 1.93-.28 2.898-.41 3.075-.37 2.904-.11 5.536-1.56"/><path fill="#fcfcfd" d="M776.755 908.506c11.395.063 34.252 10.188 40.304 20.535 1.885 2.419-1.807 15.592-5.55 12.922-5.396-3.848-9.843-8.182-16.013-11.772-13.445-11.284-39.743-9.96-55.727-9.572 14.539-9.31 19.503-12.142 36.986-12.113"/><path fill="#fcfcfd" d="M997.784 1518.4c.537.53 1.845 1.62 1.819 2.16-.808 17.02-1.759 34.26 3.977 50.62 4.62 13.16 10.21 19.14 19.28 29.53-3.9-.92-7.8-1.76-11.66-2.86-7.54-2.5-14.677-4.51-22.277-7.33l-3.771-1.42c.803-5.91 1.47-11.19 2.6-17.11l.862-5c2.987-16.63 5.003-32.04 9.17-48.59"/><path fill="#fcfcfd" d="M981.912 1115.02c.124 1.24.229 2.18-.361 3.32-16.031 31.16-55.328 41.7-85.808 51.39-.767-2.77 7.883-6.78 10.535-8.38 23.077-13.99 46.931-25.74 69.01-41.47q3.369-2.355 6.624-4.86"/><path fill="#202126" d="M639.457 985.386c3.306.777 8.426 1.654 11.297 2.739l-.941 2.973a306 306 0 0 0-12.635-4.395z"/><path fill="#515156" d="m909.97 1145.05 1.337 1.63c-5.111 5.28-9.518 5.97-1.337-1.63"/><path fill="#202126" d="M962.391 940.047c-.144-1.193-.943-7.944.147-8.575 1.081.766 1.583 3.407 1.901 4.606a391 391 0 0 1-2.048 3.969"/><path fill="#66666b" d="M633.933 984.508q2.765.417 5.524.878l-2.279 1.317a129 129 0 0 1-4.593-.683z"/><path fill="#a0a0a5" d="M632.585 986.02c-.167-.096-2.179-.876-1.951-1.634.87-.487 2.48-.02 3.299.122z"/><path fill="#bdbdc3" d="M1484.21 310.851c61.27 107.918 65.92 223.977 33.95 342.57-18.75 69.528-66.48 174.694-130.85 211.88 89.6-109.273 135.12-207.533 133.83-351.342l-3.16-.14c-9.84 109.443-67.2 217.898-151.18 288.843-44.81 37.86-80.62 54.601-135.26 72.798l.81 2.18c53.15-12.24 109-2.526 154.9 26.944 20.77 13.084 36.67 27.239 53.66 44.624-23.15 55.742-51.26 107.582-24.52 165.562 7.98 17.29 13.09 25.54 26.96 38.93-14.24 8.04-28.57 15.93-42.98 23.67-7.99 4.28-20.71 10.6-27.93 15.39 41.16-12.13 84.36-23.52 124.82-37.3-33.03 41.15-66.12 84.19-98.77 125.86-50.89-56.11-120.7-56.54-190.51-43.11-3.68.76-7.48 1.45-11.1 2.42 4.15.2 8.96.57 13.06.51 26.6.22 48.06.87 73.42 10.98-29.02 4.38-53.19 12.41-71.41 37.05-24.23 32.75-24.54 86.71-20.4 126.12l2.73-.31c-1.43-35.2 16.84-85.75 45.64-107.73-7.94 17.48-12.63 35.36-17.05 53.95-20.73 87.07-13.25 177.37-.16 265.03-29.79 44.91-62.12 98.09-92.8 141.17 3.99-106.72 2.82-212.12 3.02-318.85 4.99-5.22 7.91-8.16 11.3-14.69 13.41-25.88-10.31-54.9-37.84-52.97a37.08 37.08 0 0 0-26.42 13.9c-3.49 4.4-7.8 13.01-7.86 18.66-.57 60 1.92 120.59 1.89 180.56-11.87 15.97-30.97 28.82-51.7 27.47 1.46-.74 1.2-.76 2.4-2.02 1.03-89.1-.02-179.24.01-268.4.17-34.4.06-68.8-.34-103.19-.1-9.64.29-37.8-2.05-45.31-2.71 21.2-2.9 49.05-19.72 64.04-12.424 11.74-46.838 25.13-58.938 7.21-19.404-28.73.96-67.93 14.633-93.07l28.807-52.67c11.533-21.05 21.648-35.85 24.178-60.25.94 1.13 1.89 2.27 2.84 3.39.54 9.01.49 19.3 9.34 24.06 2.75-5.54 1.57-39.23 1.5-48.06l-.24-158.443c-.11-26.965-2.9-55.027-.09-81.838 1.58-15.021 5.21-29.142 12.01-42.69 28.11-55.965 86.15-50.055 102.06-77.121 5.35-9.098 4.39-22.616 1.72-32.537-7.04-26.18-43-46.298-66.22-56.019-6.17-2.583-14.19-3.51-19.82-6.827-.42-.245-.83-.504-1.24-.756 68.36 2.148 155.9 31.978 211.89 71.46-33.24 25.513-91.96 50.135-131.98 62.05 3.68 2.202 6.52 1.329 11.48 1.64 23.31-.759 60.49-7.286 82.97-13.461a355.8 355.8 0 0 0 212.73-166.573 355.26 355.26 0 0 0 47.98-179.591c-.1-16.614-1.16-35.753-5.6-51.797z"/><path fill="#040407" d="m1038.11 1064.8.07 1.15c1.59 22.93 9.77 34.82 20.11 54.81 10.85 20.88 21.9 41.65 33.15 62.32 5.13 9.36 11.11 19.01 15.16 29.48 7.94 21.15 13.13 68.53-19.55 70.15-14.28.71-33.12-7.75-43.1-17.8-15.84-15.96-17.64-45.26-19.17-66.75l-2.14-.37-.32 4.77c-2.71 21.2-2.9 49.05-19.72 64.04-12.424 11.74-46.838 25.13-58.938 7.21-19.404-28.73.96-67.93 14.633-93.07l28.807-52.67c11.533-21.05 21.648-35.85 24.178-60.25.94 1.13 1.89 2.27 2.84 3.39.54 9.01.49 19.3 9.34 24.06 11.84-1.57 12.01-16.66 12.3-26.31z"/><path fill="#202126" d="M1023.1 1189.96c2.15-8.11 1.78 6.07 1.79 6.95-.75-2.52-1.23-4.38-1.79-6.95"/><path fill="#77777c" d="M1023.1 1189.96c.56 2.57 1.04 4.43 1.79 6.95l-.11 1.25-2.14-.37c.29-2.83.39-4.98.46-7.83"/><path fill="#202126" d="M1519.12 491.953c.63 3.207 1.04 5.028 2 8.146-.35 4.374.01 9.376.02 13.86l-3.16-.14c.27-7.679 1.14-13.683 1.14-21.866"/><path fill="#282b35" d="M1133.05 724.489c3.68 2.202 6.52 1.329 11.48 1.64-2.5.427-15.87 1.814-17.18.261.04-.131.08-.262.13-.393l.09.103c1.62-1.241 3.34-1.252 5.48-1.611"/><path fill="#a0a0a5" d="M1519.12 491.953c-.24-2.174-.27-1.97.06-3.91 1.93-.27 1.97 10.741 1.94 12.056-.96-3.118-1.37-4.939-2-8.146"/><path fill="#66666b" d="m1191.55 1415.29 2.73-.31-.17 2.01c-.5 7.45-2.15 2.88-2.56-1.7"/><path fill="#66666b" d="M1035.76 1068.96c.11-1.86.4-8.05 1.68-9.35l.13.02c.64 1.77.48 3.23.54 5.17z"/><path fill="#77777c" d="m1227.28 876.412.18 2.397c-5.61 1.101-6.07-1.118-.18-2.397"/><path fill="#282b35" d="m1231.54 875.46.81 2.18c-1.78.257-3.15.694-4.89 1.169l-.18-2.397z"/><path fill="#040407" d="M1084.14 932.6c.1-1.791-.02-1.566.7-3.097l.28.219-.02-.225.13-.044c1.72 1.46.5 9.224.15 11.275-1.29 6.74-3.25 17.713-5.84 23.857-15.58 37.045-22.69 48.135 16.67 70.775 11.99-5.33 18.17-7.62 31-10.36 13.78-2.94 29.93-2.84 42.07-9.69 8.26-4.66 18.19-16.857 23.32-24.527 22.53-33.627 53.9-47.803 92.78-55.164 15.17-2.87 35.34-5.971 50.54.208 25.02 10.173 43.37 31.518 59.68 51.835 2.8.527 5.39.766 8.19 1.174l-1.32.476c-24.21 8.918-29.65 26.988-39.92 47.558-12.12 24.26-4.27 28.09 4.61 49.36 7.41 17.76-7.61 40.55-22.25 50.29-18.42 13.25-53.3 39.46-78.07 30.79-10.43-3.65-22.44-16.23-33.98-19.78-40.14-12.85-83.43-22.62-116.86-49.87-11.99-9.77-19.47-17.24-17.59-33.91-.61-1-.97-1.42-1.75-2.47-5.59 6.99-10.3 14.36-9.57 23.73 1.25 16.07 37.9 44.95 50.15 57.46l-2.36 1.18c-16.46-12.24-44.31-31.99-57.06-47.68-4.96-6.11-.25-19.98 1.72-27.12-7-25.26-24.93-25.29-37.23-45.49-11.63-19.1 14.3-38.659 23.72-53.764 8.4-13.471 13.74-21.356 18.11-36.996"/><path fill="#515156" d="M1084.14 932.6c.1-1.791-.02-1.566.7-3.097l.28.219-.02-.225.13-.044c1.72 1.46.5 9.224.15 11.275-.37-2.821-.74-5.317-1.24-8.128"/><path fill="#a0a0a5" d="M1096.66 1061.28s3.18-4.92 3.37-1.97c.09 1.35-.96 3.26-1.62 4.44-.61-1-.97-1.42-1.75-2.47"/><path fill="#fcfcfd" d="M1105.19 1009.74c25.65-7.95 49.14-17.544 70.54-34.146 43.1-33.434 95.28-99.108 155.54-60.228.97.537 1.65.773 2.14 1.757-.34 1.063-8.46-.742-9.58-.973-49.06-2.012-85.98 19.529-122.08 51.538-21.09 18.709-36.88 43.122-66.71 43.382-8.94 1.57-23.03 1.04-32.16.56-2.64-.14 2.43-1.91 2.31-1.89"/><path fill="#d5d5d6" d="M1105.19 1009.74c4.69 2.54 22.25.87 29.85 1.33-8.94 1.57-23.03 1.04-32.16.56-2.64-.14 2.43-1.91 2.31-1.89"/><path fill="#f2f3f7" d="M1331.27 915.366c.97.537 1.65.773 2.14 1.757-.34 1.063-8.46-.742-9.58-.973z"/><path fill="#fcfcfd" d="M1500.42 369.139c7.61 21.181 26.02 86.002 24.93 106.154l-1.75.492c-5.01 1.452-8.32 2.429-10.69 7.188-7.47 15.042-12.55 33.222-17.33 49.335-2.19-2.956-1.93-2.976-2.12-6.588 5.3-49.635 11.79-102.531 5.12-152.278.6-1.439 1.22-2.873 1.84-4.303"/><path fill="#fcfcfd" d="M1149.44 1599.15c1.72-1.17 2.08-11.75 3.18-12.11.24.14 1.51 3.36 2.51 4.64.8 14.9 1.5 64.13 12.1 74.98 2.92 2.99 8.89 3.52 13.14 4.03-11.41 13.08-29.76 40.71-39.66 49.8 3.49-38.16 6.86-82.73 8.73-121.34"/><path fill="#fcfcfd" d="M1412.59 993.861c.17 3.686-5.26 14.909-6.42 19.659-5.34 21.73-9.59 44.15-11.43 66.46-.03.46.09 3.44-.66 3.61-.71-.32-.91-1.6-1.05-2.24l-.39-1.57c-2.19-15.66-6.19-31.45-6.27-47.31-.02-3.95 4.72-11.1 6.77-14.44 5.14-8.38 12.03-17.63 19.45-24.169"/><path fill="#fcfcfd" d="M1066.87 1116.11c27.02 18.07 58.33 30.54 86.99 46.66l-3.55 1.88c-41.15-13.59-55.26-11.04-83.44-48.54"/><path fill="#fcfcfd" d="M1469.19 1175.22c.77-.14 2.08-.6 2.61.26-.06 1.72-20.88 26.15-22.26 26.01-.41-.7-.37-4.03-2.21-7.35-7.23-8.39-6.95-7.58-15.71-14.15 15.72-1.86 21.73-1.56 37.57-4.77"/><path fill="#d5d5d6" d="M1149.44 1599.15c.15-3.61 2.73-40.67 3.35-41.23l.3.13c.13.28 2.05 30.72 2.04 33.63-1-1.28-2.27-4.5-2.51-4.64-1.1.36-1.46 10.94-3.18 12.11"/><path fill="#d5d5d6" d="M1490.89 550.567c.51-6.405 1.13-18.857 2.57-24.847.19 3.612-.07 3.632 2.12 6.588-.27 3.294-3.56 14.588-4.69 18.259"/><path fill="#d5d5d6" d="M1498.58 373.442c-.93-3.427-2.11-9.413-2.08-12.943l-.03-1.853c1 2.382 3.36 7.997 3.95 10.493-.62 1.43-1.24 2.864-1.84 4.303"/><path fill="#282b35" d="m1411.48 985.665.8 1.629-7.03 1.442-1.46.1c-2.8-.408-5.39-.647-8.19-1.174 5.62-.717 10.16-1.142 15.88-1.997"/><path fill="#f2f3f7" d="M1153.86 1162.77c1.28.57 4.27 2.12 5.12 3.08.06.17.11.33.17.49-.9.79-7.21-1.4-8.84-1.69z"/><path fill="#a0a0a5" d="M1214.8 878.646q1.2-.017 2.4-.076c3.21-.182 4.42.013 2.56 3.074-1.94.075-7.62 1.559-5.53-1.988z"/><path fill="#202126" d="M1137.24 1142.47c1.57 1.53 3.1 3.1 4.59 4.7l-3.05-.14c-1.28-1.15-2.58-2.28-3.9-3.38z"/><path fill="#77777c" d="M1141.83 1147.17c5.2 2.86 4.37 6.6-3.05-.14z"/><path fill="#77777c" d="M1411.48 985.665c1.21-.448 4.01-1.477 5.09-.3-.08.806-3.67 1.725-4.29 1.929z"/><path fill="#a0a0a5" d="M1482.61 314.707c-.23-.843-1.98-5.523-1-6.147.69.032 1.15.556 1.57 1.072l1.03 1.219z"/><path fill="#bdbdc3" d="m808.991 1311.76-.296-1.02c-.208-3.59 1.737-1.25 4.269.56z"/><path fill="#202126" d="M1477.87 893.242c4.04-1.852 7.39.6 3.86 4.681-1.35-1.587-2.59-3.016-3.86-4.681"/></svg>