<?xml version="1.0" encoding="utf-8" ?><svg xmlns="http://www.w3.org/2000/svg" xmlns:xlink="http://www.w3.org/1999/xlink" width="1024" height="1024" viewBox="0 0 1024 1024"><path fill="#242425" d="M0 0L1024 0L1024 1024L0 1024L0 0Z"/><path d="M509.417 155.203C537.047 152.454 558.456 180.313 549.994 206.503C546.971 215.856 541.395 221.931 534.415 228.63C534.639 238.699 536.216 253.719 537.014 263.965C539.061 287.65 540.975 311.347 542.754 335.053C543.957 349.676 545.619 366.13 546.108 380.742C568.517 379.944 593.935 380.498 616.531 380.489C623.513 386.113 623.945 394.053 624.012 402.44C612.986 418.35 584.687 424.916 566.507 425.563C566.21 473.922 566.199 522.284 566.475 570.644L566.329 609.626C566.276 632.888 566.987 657.776 577.275 679.402C578.86 682.735 581.293 686.049 583.198 689.29C582.77 698.206 579.07 712.556 577.148 721.47C565.785 774.168 543.748 821.297 513.364 865.731L512.629 866.893C509.531 866.008 501.463 851.722 499.486 848.501C470.334 800.995 451.74 747.478 442.012 692.755C441.25 688.466 449.137 678.065 451.063 672.331C455.082 660.222 457.546 647.652 458.395 634.921C459.231 624.024 458.985 612.403 458.983 601.418L458.814 551.108L459.032 425.717C441.83 424.723 384.592 413.778 405.3 381.905C406.737 379.693 430.346 380.501 434.207 380.51L478.953 380.496C479.689 374.632 479.985 366.465 480.455 360.354L483.771 319.644C486.234 291.046 489.969 258.303 491.079 229.829C482.069 221.483 474.938 213.376 473.241 200.661C471.871 189.739 474.887 178.719 481.629 170.017C488.706 160.885 498.158 156.589 509.417 155.203Z"/><path fill="#C0BFBF" d="M519.555 425.019L550.508 425.095L550.529 572.287L550.471 611.305C550.433 641.21 550.986 666.304 566.92 693.297C560.033 732.734 551.287 754.294 535.698 790.124C531.041 800.715 525.917 812.138 519.901 821.985L519.555 425.019Z"/><path fill="#FEFEFE" d="M474.15 424.976C483.59 424.784 494.536 424.946 503.957 425.202L504.036 625.21C504.184 690.361 504.907 756.555 504.229 821.628C502.269 818.637 500.307 814.94 498.532 811.774C479.671 778.07 463.098 731.052 457.251 693.154C473.636 668.044 474.169 640.796 474.147 612.149L474.101 572.605C474.038 523.897 473.457 473.565 474.15 424.976Z"/><path fill="#535455" d="M511.476 395.51L608.568 395.529C587.473 413.55 559.511 410.221 533.686 410.604C511.255 410.937 488.762 411.059 466.338 410.743C465.895 410.737 465.231 410.635 464.744 410.57C445.207 410.55 431.385 406.557 415.354 395.546C447.394 395.736 479.436 395.724 511.476 395.51Z"/><path fill="#C0BFBF" d="M415.354 395.546C447.394 395.736 479.436 395.724 511.476 395.51L511.518 410.427C498.292 410.416 477.369 409.738 464.744 410.57C445.207 410.55 431.385 406.557 415.354 395.546Z"/><path fill="#B99C66" d="M510.603 170.197C516.426 169.642 522.85 171.441 527.408 175.189C532.526 179.478 535.743 185.614 536.359 192.263C537.038 199.215 534.837 206.142 530.271 211.429C525.141 217.307 518.762 219.706 511.161 220.049L510.465 220.076C506.276 219.458 503.714 218.695 500.044 216.402C494.154 212.735 490.028 206.811 488.632 200.014C485.477 184.525 495.509 172.578 510.603 170.197Z"/><path fill="#F4E6B6" d="M510.465 220.076C506.276 219.458 503.714 218.695 500.044 216.402C494.154 212.735 490.028 206.811 488.632 200.014C485.477 184.525 495.509 172.578 510.603 170.197C511.799 172.242 511.127 183.726 511.066 186.883C506.784 187.31 503.445 190.784 503.19 195.08C502.935 199.376 505.838 203.221 510.04 204.152C510.218 209.459 510.36 214.767 510.465 220.076Z"/><path d="M511.066 186.883C514.512 186.54 517.837 188.259 519.549 191.269C521.261 194.279 521.039 198.016 518.982 200.802C516.926 203.588 513.421 204.901 510.04 204.152C505.838 203.221 502.935 199.376 503.19 195.08C503.445 190.784 506.784 187.31 511.066 186.883Z"/><path fill="#242425" d="M511.908 327.056C516.814 326.998 522.109 327.038 526.979 326.809C527.312 336.864 528.189 346.681 528.942 356.706L511.973 356.544L496.965 356.443C497.602 346.624 498.373 336.814 499.28 327.016L511.908 327.056Z"/><path fill="#535455" d="M499.28 327.016L511.908 327.056L511.973 356.544L496.965 356.443C497.602 346.624 498.373 336.814 499.28 327.016Z"/><path fill="#242425" d="M512.244 282.04L523.195 281.994C524.079 292.291 524.895 302.594 525.645 312.903L511.894 312.939L500.154 312.907C500.765 302.845 501.925 292.194 502.857 282.115L512.244 282.04Z"/><path fill="#535455" d="M502.857 282.115L512.244 282.04C512.156 289.846 512.603 305.981 511.894 312.939L500.154 312.907C500.765 302.845 501.925 292.194 502.857 282.115Z"/><path fill="#242425" d="M511.605 234.86C514.361 234.632 516.564 234.496 519.346 234.447C520 245.687 520.92 256.91 522.103 268.106L512.026 267.991L503.998 267.947C504.064 263.752 505.674 238.613 506.479 235.534C507.879 234.745 509.913 234.9 511.605 234.86Z"/><path fill="#535455" d="M503.998 267.947C504.064 263.752 505.674 238.613 506.479 235.534C507.879 234.745 509.913 234.9 511.605 234.86C512.016 245.899 512.156 256.946 512.026 267.991L503.998 267.947Z"/><path fill="#242425" d="M511.946 370.588C517.955 371.153 524.209 371.006 530.26 370.999L530.909 380.914L511.858 380.938C512.114 378.697 511.955 373.089 511.946 370.588Z"/><path fill="#535455" d="M495.082 370.516C500.703 370.488 506.325 370.512 511.946 370.588C511.955 373.089 512.114 378.697 511.858 380.938L494.686 380.931C494.595 377.832 494.919 373.698 495.082 370.516Z"/></svg>