<svg xmlns="http://www.w3.org/2000/svg" width="2048" height="2048" viewBox="0 0 2048 2048"><path fill="#292c34" d="M0 0h2048v2048H0z"/><path fill="#020302" d="M1093.56 294.451c1.04-.079 2.08-.141 3.13-.188 83.48-3.314 145.6 30.879 204.57 85.409a372.56 372.56 0 0 1 209.81 96.282c58.52 54.283 90.79 131.174 93.56 210.458 44.52 38.344 76.36 75.521 97.64 131.269 28.17 73.77 29.46 156.647 5.1 231.649-6.36 19.57-13.88 35.7-22.09 54.36 4.98 8.12 9.96 17.77 13.64 26.5 65.4 155.11-61.79 313.31-188.2 390.19-12.32 7.5-25.59 15.39-38.38 20.98-32.86 61.9-71.03 108.06-132.13 144.94-59.39 35.84-136 52.05-205 45.14-16.28-1.63-37.24-6.63-53.36-10.73-41.57 18.89-77.51 30.17-123.778 31.6-2.111.12-4.224.21-6.338.26-86.278 2.22-142.498-28.17-202.992-85.31-76.162-12.81-149.068-38.89-206.474-92.48a308.46 308.46 0 0 1-99.488-218.17c-50.974-40.62-85.65-87.05-105.606-149.73-26.063-81.87-13.264-192.34 26.836-268.525-38.927-59.668-35.663-145.246-10.183-209.313 38.159-95.944 132.095-182.005 225.114-223.469 6.085-11.244 10.648-21.047 17.405-32.191a321.4 321.4 0 0 1 104.698-106.379 339.1 339.1 0 0 1 224.465-47.81c17.131 2.217 31.388 5.825 48.14 9.665 32.401-20.556 81.921-31.836 119.911-34.407"/><path fill="#0cfbf7" d="M1091.65 334.414c7.53-1.079 23.54-.385 31.14.286a228.45 228.45 0 0 1 156.32 81.886c19.65 3.021 39.88 5.524 59.12 10.488 134.22 34.638 228.3 136.043 225.88 279.635 130.63 94.74 155.07 260.589 74.54 396.271 7.55 12.97 14.37 24.36 20.71 38.05 22.66 48.86 21.54 100.92 2.43 150.92-37.01 96.85-127.69 178.17-221.09 219.77-4 11.55-11.47 24.93-17.77 35.41a306.73 306.73 0 0 1-112.27 110.2c-47.69 26.64-115.79 40.65-169.91 34.52-24.11-2.73-40.22-7.14-63.05-13.67-44.19 21.32-64.85 29.19-115.351 34.76-7.977.1-16.179.24-24.141.03a217.46 217.46 0 0 1-140.015-54.6c-9.66-8.54-18.132-18.66-27.107-28.06-16.374-4.42-38.759-6.2-57.279-10.72-55.048-13.41-113.999-41.97-153.1-83.31-55.518-58.7-77.772-119.22-77.057-198.8-51.872-43.72-85.754-73.69-107.406-141.82-27.131-85.38-7.489-179.88 32.994-257.445a796 796 0 0 1-14.075-25.77c-24.868-48.221-25.813-100.545-9.236-152.021 27.725-86.093 99.888-154.669 175.435-200.776 17.642-10.767 32.357-16.482 50.241-25.548 22.132-60.224 73.444-114.793 130.201-144.183 75.622-39.159 156.069-43.9 236.842-17.767 37.874-22.031 68.984-33.739 113.004-37.736"/><path fill="#292c34" d="M980.158 379.102c43.372-27.69 94.632-43.155 146.292-37.889a222.43 222.43 0 0 1 149.61 81.496c19.58 2.5 37.95 5.076 57.18 9.625 63.01 14.902 127.79 50.928 168.35 102.185a258.18 258.18 0 0 1 55.28 139.654c.77 9.539 1.49 22.815.42 32.053.78 2.732.41 2.367 1.87 4.643 10.8 6.962 22.38 17.296 31.87 26.095 106.32 98.513 109.3 245.339 40.81 365.656 31.25 51.28 48.08 98.49 32.74 159.1-23.85 94.31-100.19 171.49-181.37 220.79-13.23 8.04-33.12 19.02-47.08 24.74-26.67 66.45-86.26 128.1-152.03 155.94-46.39 19.64-104.84 29.04-154.49 21.12-19.52-3.11-34.19-8.32-52.86-13.25-82.087 46.01-183.105 51.88-260.335-6.3-16.158-12.17-28.882-24.13-41.046-40.27-91.962-12.63-173.091-41.63-232.513-118.35-27.793-35.88-53.143-95.78-51.972-141.8-1.392-8.54-1.043-22.1-.516-30.82-.647-.14-1.521-.29-2.053-.68-46.613-33.66-86.342-78.18-104.282-133.73-20.11-62.28-16.919-133.4 3.768-195.19 8.012-23.928 17.716-43.78 28.849-66.183-13.06-20.016-27.675-49.547-32.099-72.706-27.703-145.025 112.887-275.472 231.438-325.538 62.585-148.82 213.2-208.39 364.169-160.391"/><path fill="#dddcdb" d="M1593.98 1156.58c14.34-14.96 21.89-27.22 32.35-44.6 11.37 17.38 17.37 29.99 25.13 49.24 6.14 21.17 10.87 41.13 9.51 63.33-4.63 75.36-52.86 144.59-107.21 194.13-63.3 57.7-151.52 107.62-239.52 103.62-40.2-1.83-86.34-16.53-117.38-42.43-10.81-9.02-18.56-17.54-27.95-27.84 14.38-14.51 24.17-27.27 36.81-43.35 60.42 77.55 142.07 75.47 224.37 34.39 99.66-49.75 222.74-163.99 163.89-286.49"/><path fill="#dddcdb" d="M683.108 1594.61c-16.021-7.44-31.04-13.12-47.058-21.35-159.164-81.77-188.933-303.61-35.166-408.87 14.579 14.44 24.979 21.7 39.866 34.35-23.569 14.57-48.652 31.07-61.897 56.37-71.307 136.21 3.198 268.48 148.92 300.86 6.155 1.35 12.35 2.51 18.575 3.48 5.067 25.83 7.877 32.55 21.711 55.38-31.619-4.08-55.05-10.31-84.951-20.22"/><path fill="#020302" d="M1559.16 710.869c10.8 6.962 22.38 17.296 31.87 26.095 106.32 98.513 109.3 245.339 40.81 365.656 31.25 51.28 48.08 98.49 32.74 159.1-23.85 94.31-100.19 171.49-181.37 220.79-13.23 8.04-33.12 19.02-47.08 24.74-26.67 66.45-86.26 128.1-152.03 155.94-46.39 19.64-104.84 29.04-154.49 21.12-19.52-3.11-34.19-8.32-52.86-13.25-82.087 46.01-183.105 51.88-260.335-6.3-16.158-12.17-28.882-24.13-41.046-40.27-91.962-12.63-173.091-41.63-232.513-118.35-27.793-35.88-53.143-95.78-51.972-141.8.513-8.88.115-18.18 1.094-26.73.676 79.16 23.884 143.32 81.605 199.08 43.043 41.57 108.497 69.57 167.091 79.54 8.404 1.43 21.949 4.42 30 4.77-.271-1.26-.203-2.74-1.51-3.09-27.956-7.45-59.706-9.49-86.442-21.96l.386-1.34c29.901 9.91 53.332 16.14 84.951 20.22 6.976 2.1 14.358 18.46 19.254 21.78 9.298 6.65 16.05 14.96 25.007 22.08 76.636 60.87 180.985 56.98 263.66 10.15 1.4-.79 36.32 9.41 41.35 10.47 51.97 10.94 105.3 3.06 155.01-14.09 56.81-20.91 107.72-65.61 139.5-116.51 14.77-23.43 15.05-44.17 42.55-53.32 9.45-3.14 25.15-13.83 34.05-19.26 102.34-62.43 216.59-194.89 166.69-322.68-2.74-7.02-18.79-43.33-23.99-45.77l-2.37 3.54c2.3 9.07 26.59 41.12 22.69 50-7.76-19.25-13.76-31.86-25.13-49.24.73-5.24 4.94-13.92 7.59-18.43 16.59-28.26 26.99-58.03 34.26-90a287.75 287.75 0 0 0-26.17-199.548c-6.99-13.083-19.33-29.054-28.89-40.511-15.65-18.767-34.63-34.216-53.36-49.706z"/><path fill="#020302" d="M980.158 379.102c43.372-27.69 94.632-43.155 146.292-37.889a222.43 222.43 0 0 1 149.61 81.496c19.58 2.5 37.95 5.076 57.18 9.625 63.01 14.902 127.79 50.928 168.35 102.185a258.18 258.18 0 0 1 55.28 139.654c.77 9.539 1.49 22.815.42 32.053a36 36 0 0 0-1.08 4.082c-1.25-3.182.43-7.798.13-11.782-.18-3.52-1.41-7.477-1.56-10.934-.49-11.527-1.12-23.064-2.97-34.355-18.52-112.847-107.15-189.418-214.5-217.391-7.75-2.02-15.83-1.834-23.35-5.34-5.49-2.375-31.06-2.392-36.7-4.882-5.52-2.435-15.5-16.54-20.97-21.474-7.71-6.96-15.25-12.95-23.6-19.113-66.82-49.104-155.79-55.778-229.19-17.191-21.431 11.359-14.015 17.103-40.217 8.977-128.234-39.773-278.068 20.307-336.07 143.278-2.273 4.819-5.621 18.366-11.071 21.557-15.635 9.158-36.512 17.241-52.595 26.504-114.532 70.124-231.864 212.045-155.5 350.285 2.258 4.088 12.35 17.662 9.825 22.415-72.359 136.228-62.754 298.178 72.46 390.258.391 1.83.49 1.03.036 2.4-.647-.14-1.521-.29-2.053-.68-46.613-33.66-86.342-78.18-104.282-133.73-20.11-62.28-16.919-133.4 3.768-195.19 8.012-23.928 17.716-43.78 28.849-66.183-13.06-20.016-27.675-49.547-32.099-72.706-27.703-145.025 112.887-275.472 231.438-325.538 62.585-148.82 213.2-208.39 364.169-160.391"/><path fill="#dddcdb" d="M1095.48 349.395c51.1-3.911 102.42 16.466 142.48 47.936 56.55 44.424 67.43 110.445 45.22 176.698-24.62 73.449-86.71 98.63-142.5 143.102-26.47 21.103-56.79 49.082-51.86 87.248 8.56 55.977 77.7 91.017 118.28 123.503 52.26 40.757 112.33 102.578 118.63 173.018 9.5 106.46-70.77 221.82-129.62 305.25-24.49 32.75-53.9 58-83.74 85.17-63.73 58.03-149.074 114.94-236.223 124.94-19.891-10.19-37.05-28.89-47.602-48.4l17.011.35c71.626.22 140.739-41.26 193.634-85.96 26.43-22.18 56.7-44.08 80.37-69.37 52.6-56.09 94.22-118.3 127.03-187.09 44.85-94.04 35.73-162.57-45.27-229.4-12.44-10.268-28.82-27.284-42.03-35.756-49.54-31.768-102.68-68.189-122.71-126.505-25.17-68.932 28.31-129.471 80.19-168.612 38.79-29.268 89.52-47.499 111.15-94.011a116.1 116.1 0 0 0 3.87-89.275c-12.41-32.945-38.94-56.654-70.69-70.416-40.54-17.577-71.42-15.972-111.62-.399-20.69-11.92-36.71-19.671-59.046-28.191a258.06 258.06 0 0 1 105.046-33.83"/><path fill="#dddcdb" d="M1168.97 430.308c14.02-2.47 43.49 34.033 50.55 46.091-33.44-1.929-60.82 2.012-92.51 14.47-37.01 14.549-67.71 36.728-99.74 59.34-47.759 33.717-90.821 69.438-128.859 113.996-17.58 20.594-37.008 52.812-51.836 75.71-15.874 24.513-34.079 55.474-45.451 82.234-8.699 20.466-22.787 59.744-25.311 81.115a139.4 139.4 0 0 0 7.876 64.789c25.821 68.787 95.779 102.427 149.224 144.067a346 346 0 0 1 44.187 41.65c13.35 15.13 24.7 31.03 31.97 49.76 25.67 66.07-13.438 133.83-67.107 171.41-47.946 31.98-96.141 42.25-121.187 100.01-38.52 88.83 32.541 171.21 122.757 174.31 23.225.8 37.416-3.98 58.897-12.83 22.28 15.48 36.98 23.02 63.43 30.97l-12.24 5.45c-19.12 9-39.26 15.64-59.981 19.78-94.891 19.24-211.403-23.33-235.322-128.04-18.062-79.07 25.64-160.08 92.855-199.63 34.602-20.36 71.366-34.38 94.045-70.05 12.355-14.72 21.469-52.89 11.263-70.45-58.377-100.43-205.428-132.38-228.931-256.263a245 245 0 0 1 1.261-94.149c11.651-55.869 53.088-130.222 83.906-177.218 56.522-86.131 130.766-155.907 217.774-210.577 48.07-30.198 82.77-45.384 138.48-55.945"/><path fill="#dddcdb" d="M919.567 654.669c5.777 5.419 24.514 164.153 29.287 184.794 4.206 18.188 8.277 39.849 15.862 60.776 24.581 67.818 56.204 78.463 104.024 122.751 26.25 24.31 61.72 83.62 73.13 117.85 9.78 29.36 16.57 83.26 20.43 115.23l9.55 76.92c-14.75 20.36-27.59 38.54-44.65 57.03l-3.61 2.54c-5.85-5.06-8.02-86.36-9.23-101.08a903 903 0 0 0-6.38-57.07c-10.61-72-37.14-143.63-96.69-189.39-5.18-3.98-10.77-9.96-15.942-13.55-76.606-53.119-100.794-147.485-109.66-235.163-2.842-27.85-8.339-56.963-7.371-85.4a447 447 0 0 1 41.25-56.238"/><path fill="#dddcdb" d="M706.4 526.422c7.757-.522 16.367-.55 24.108-.133 66.827 3.595 103.488 21.906 147.64 70.135-13.327 13.294-27.426 28.873-37.826 44.488-17.242-28.473-37.116-42.237-67.55-56.085-42.24-19.22-88.056-10.622-129.898 6.36-81.681 33.151-156.37 96.507-191.473 178.561-17.488 42.147-16.046 76.615 5.507 116.104-14.345 16.184-22.07 26.093-34.453 43.852-87.838-133.769 17.946-274.1 130.671-346.205 46.796-29.934 97.351-53.359 153.274-57.077"/><path fill="#dddcdb" d="M1557.02 719.658c7.75 4.892 16.64 13.511 23.68 19.612 120.98 104.901 111.98 291 9.68 404.99-40.33 44.93-77.2 67.49-135.6 78.84-5.33.9-11.09 1.63-16.47 2.39a347 347 0 0 0-24.26-50.39c4.76.03 9.53-.13 14.29-.48 53.69-3.9 91.53-26.72 126.1-67.31 82.18-96.48 93.36-247.568-8.46-334.918 5.38-20.004 8.11-32.205 11.04-52.734"/><path fill="#dddcdb" d="m608.229 821.38 1.107.103c2.468 1.986 22.085 43.269 25.201 49.443-133.086-6.477-208.989 133.974-205.113 252.844 2.018 61.9 27.231 110.76 73.614 151.25-5.625 18.41-8.379 30.78-11.795 49.62l-7.277-5.9a542 542 0 0 1-11.526-9.2c-51.982-43.19-84.943-98.8-91.584-167.24-11.034-113.73 38.602-235.455 139.086-295.18 27.986-16.634 56.32-23.109 88.287-25.74"/><path fill="#dddcdb" d="M1282.17 432.921c11.7 1.37 23.34 3.184 34.9 5.436 144.11 28.873 256.34 145.844 227.15 301.635-10.62 56.676-41.76 107.834-90.43 139.801l-6.54 3.894c-15.53-16.214-24.3-24.277-42.84-36.697 12.84-6.273 25.13-13.08 36.13-22.47 47.42-40.484 62.17-113.124 52.74-172.411-7-44.003-42.89-98.914-79.41-123.815-30.5-20.796-75.15-39.911-112.14-42.489-2.79-21.527-8.28-34.486-19.56-52.884"/><path fill="#dddcdb" d="M499.313 939.542c2.18 2.035 15.214 23.579 18.591 28.386a1194 1194 0 0 0 43.184 57.412c28.293 35.72 58.404 69.99 92.977 99.76 15.715 13.54 32.545 25.35 47.799 39.37a572 572 0 0 0 19.951 17.52c30.204 23.33 62.677 47.82 97.165 64.55-10.326 12.4-21.873 24.17-33.057 35.8-1.544.91-1.757 1.49-3.191.92-14.57-5.82-35.085-18.55-48.017-26.54-24.055-14.85-44.346-31.59-65.849-49.59-10.586-9.9-29.208-18.61-38.857-28.83-33.461-35.42-69.772-70.18-100.805-107.6-21.78-26.27-40.214-54.12-59.335-81.835 7.215-16.585 19.39-34.436 29.444-49.323"/><path fill="#dddcdb" d="m1422.21 1513 .81.24.31 1.25c-5.3 12.2-19.73 35.83-27.52 46.52-46.3 63.59-110.8 102.35-188.22 114.11-47.05 8.08-88.06.28-132.45-14.41-38.25-12.65-61.33-25.6-93.631-49.21l-13.7-10.73c19.776-9.41 32.431-16.21 50.871-27.83 2.12 1.62 4.26 3.22 6.41 4.79 49.8 36.37 119.34 59.06 180.98 47.96 47.4-8.53 89.09-25.75 123.23-61.27 9.23-9.61 18.76-23.84 26.68-34.74 24.45-2.2 43.64-8.13 66.23-16.68"/><path fill="#dddcdb" d="M1366.91 647.371c46.08-2.304 76.32 6.333 118.34 23.445 1.36 18.709-.83 37.801-3.27 56.323-40.31-23.072-80.13-34.781-126.5-25.448-70.86 14.263-113.57 55.668-151.98 113.175a348.5 348.5 0 0 0-33.62 71.265c-17.04-11.38-28.74-20.763-44.79-33.665 42.62-104.865 123.27-193.217 241.82-205.095"/><path fill="#dddcdb" d="M877.273 1154.39c9.992 6.53 31.432 29.51 42.261 39.24-26.107 55.9-45.279 91.62-91.555 135.08-68.174 64.01-147.679 82.15-238.224 55.38-10.013-3.63-16.898-6.51-26.621-11.02-.838-21.64.374-35.58 3.396-56.65 10.339 6.49 23.604 14.08 35.188 18.27 42.237 15.26 93.565 11.35 134.274-7.02 56.37-25.43 96.291-76.47 123.789-130.37 6.458-12.66 12.443-29.52 17.492-42.91"/><path fill="#dddcdb" d="M1265.18 760.648c12.63 5.341 39.88 25.156 51.89 33.591 32.31 22.701 65.33 47.246 96.47 71.506 15.99 12.461 31.09 32.407 44.95 47.312 41.89 45.02 85.65 91.143 119.38 142.783-4.44 7.73-25.77 43.3-31.81 46.4-11.37-14.29-21.82-33.33-34.38-49.2-17.83-22.22-36-44.15-54.52-65.796-27.72-32.492-52.89-59.827-86.65-86.207-14.52-11.345-28.05-26.204-42.84-37.749a1014 1014 0 0 0-98.41-67.933c12.11-13.313 22.6-22.594 35.92-34.707"/><path fill="#dddcdb" d="M859.004 372.399c75.308-7.32 164.526 24.164 220.086 74.989-16.1 7.821-32.75 18.293-48.22 27.608-10.18-10.217-20.59-19.275-33.846-25.866-37.648-18.72-86.132-32.116-128.085-30.515-17.798.679-45.112 7.723-62.184 12.988-46.433 15.554-87.069 42.502-112.454 85.069-26.471 1.711-42.46 8.453-66.762 18.236 4.856-10.668 9.5-21.334 15.443-31.455 46.391-79 126.928-122.079 216.022-131.054"/><path fill="#dddcdb" d="M1334.86 1094.44c4.61 2.36 27.85 29.53 32.79 35.36 56 66.1 92.06 152.29 90.08 239.69-.41 18.05-3.86 35.1-7.14 52.35-8.8 4.87-14.98 8.12-24.25 12.17-12.98 5.44-24.87 9.12-38.29 13 14-40.89 21.13-80.27 14.02-123.59-9.51-57.88-34.09-110.63-70.97-156.05 6.06-25.34 6.55-47.3 3.76-72.93"/><path fill="#dddcdb" d="m659.244 597.012 1.13.502c.048 3.453-6.156 22.817-7.505 28.414a265 265 0 0 0-6.103 37.295c-6.955 77.921 20.913 153.952 70.777 213.297-7.251 30.711-5.689 50.147-2.04 80.535a1310 1310 0 0 1-21.151-23.416 485 485 0 0 1-33.094-41.291c-22.089-30.909-34.886-61.898-48.097-96.944-21.158-56.125-21.613-116.118-11.834-174.624 21.447-9.854 35.655-15.747 57.917-23.768"/><path fill="#dddcdb" d="M1324.03 877.18c.55-.085 1.09-.245 1.65-.255 5.81-.099 43.47 36.533 50.33 42.732-29.35 6.338-58.28 15.525-87.93 20.576-14.04 2.391-28.35 5.687-42.56 6.492-.74-.476-1.48-.951-2.23-1.427-20.57-18.309-33.59-29.089-56.84-43.888 51.09-4.242 88.48-10.919 137.58-24.23"/><path fill="#dddcdb" d="m799.818 1098.24 2.151-.38c2.408.69 48.127 36.06 55.741 41.56-6.363 1.43-13.4 2.5-19.871 3.55-38.159 6.18-74.324 16.23-111.374 26.97-1.841.02-2.943-.41-4.486-1.67-17.633-14.36-33.634-29.74-52.959-41.97 23.436-5.81 44.812-8.82 68.248-13.39 20.219-3.94 42.346-9.73 62.55-14.67"/><path fill="#dddcdb" d="M894.665 1413.02c3.584 4.07 14.907 28.45 18.616 34.97 15.478 27.19 31.81 52.37 53.827 74.78a409 409 0 0 1-44.869 18.95c-2.598.65-1.951.53-4.584.62-18.456-10.44-55.408-78.96-66.539-99.17 16.354-13.11 25.658-19.2 43.549-30.15"/><path fill="#dddcdb" d="M1131.03 499.958c11.94 4.948 55.24 80.747 65.19 96.196-14.46 12.902-27.52 24.819-44.67 34.211-15.59-37.246-41.76-76.731-68.45-106.945 16.41-8.762 30.91-16.077 47.93-23.462"/><path fill="#dddcdb" d="M886.168 876.834c1.548.95 1.515.864 2.235 3.408 5.186 18.329 11.018 34.798 18.114 52.471-39.044 24.004-60.701 30.465-104.134 43.21-1.812.34-3.388 1.104-4.147.075-7.493-10.169-12.412-40.376-14.5-51.998 44.329-8.811 67.16-18.66 102.432-47.166"/><path fill="#dddcdb" d="m1250.07 1069.2 1.2.46c6.94 10.95 11.37 36.74 11.96 49.98-13.26 3-25.76 5.41-38.6 10.09-23.16 8.46-42.78 22.9-62.01 37.98l-1.92.06-.8-1.99c-4.83-18.58-11.22-34.03-18.56-51.63 36.49-25.89 65.71-33.99 108.73-44.95"/><path fill="#dddcdb" d="m1096.01 931.32 2.39-.015c16.9 12.41 41.79 28.429 58.35 39.934-31.49 6.581-61.04 11.564-91 23.773l-10.6 4.578c-14.93-15.437-28.25-26.721-45.48-39.49 23.46-11.64 60.35-24.375 86.34-28.78"/><path fill="#dddcdb" d="M992.518 1048.24c6.213-1.04 7.972.17 12.782 4.13 11.96 9.89 22.94 21.82 33.71 32.94-18.75 6.37-37.42 12.97-56.01 19.77-8.052 2.92-17.269 6.57-25.516 9.09-2.509.77-3.009-.2-5.038-1.53-17.552-14.63-33.293-25.02-52.515-37.13 37.21-11.7 51.737-19.38 92.587-27.27"/><path fill="#dddcdb" d="m1080.03 1166.74.91.34c4.02 4.77 14.07 51.42 15.8 59.33-17.1 10.06-47.5 33.05-64.24 45.13l-6.82 4.57c5.71-24.74 5.5-38.99-2.76-63.17 18.82-15.67 37.86-31.07 57.11-46.2"/><path fill="#dddcdb" d="M1024.81 764.95c1.89 1.86-1.24 8.63-1.96 11.989-4.68 22.036-3.95 35.383 2.51 56.344-7.88 6.278-51.184 44.421-55.847 45.271l-.981-1.805a465 465 0 0 1-11.958-57.684c21.836-16.384 46.006-36.89 68.236-54.115"/><path fill="#dddcdb" d="M886.514 1276.64c20.227 3.86 34.92 4.32 55.45 4.09a261.9 261.9 0 0 1-43.463 44.13c-3.782 2.69-6.887 4.95-10.815 7.49-12.494-3.82-26.034-7.38-38.815-10.15 16.512-15.27 25.789-26.32 37.643-45.56"/><path fill="#dddcdb" d="M1163.43 710.764c13.66 2.74 21.83 3.671 35.59 8.026-13.67 12.341-27.6 29.893-37.47 45.489-7.17-.93-8.58-1.223-15.8-1.555-11.52-1.01-23.92-.911-35.55-1.05 15.3-21.073 33.34-34.132 53.23-50.91"/></svg>