<svg xmlns="http://www.w3.org/2000/svg" width="2048" height="2048" viewBox="0 0 2048 2048"><path fill="#242529" d="M0 0h2048v2048H0z"/><path fill="#0693b3" d="M1778.4 135.752c.42 3.9-1.14 20.931-1.48 25.575q-1.86 25.3-3.48 50.615l-13.18 207.063-23.53 402.318-9.39 157.391c-1.93 33.576-3.6 79.466-7.47 112.126-17.08 17.33-35.42 34.52-52.91 51.55a3476 3476 0 0 1-75.67 72.55c-1.45 20.88-4.24 42.86-6.76 63.67-7.04 57.95-11.57 116.9-19.84 174.65l-305.55 334c-101.4 35.35-148.39 66.1-234.18 127.49-77.832-54.59-142.667-97.99-235.521-126.81a41861 41861 0 0 0-305.91-334.47l-19.725-178.71c-.07-10.49-4.937-46.69-6.087-59.28a16301 16301 0 0 1-130.156-125.06 25067 25067 0 0 1-14.324-254.161l-25.404-433.341-11.748-183.041c-1.889-26.741-3.251-58.498-6.441-84.72 14.018 18.935 25.809 37.469 40.717 56.554a842 842 0 0 0 167.033 160.89 1284.3 1284.3 0 0 0 313.644 168.477 1350 1350 0 0 0 154.885 44.623c18.83 4.376 69.957 17.494 87.227 14.305 23.22-4.287 53.6-10.888 77.01-16.4a1333 1333 0 0 0 143.31-41.425c151.07-54.147 306.71-145.898 421.55-259.06 44.49-43.838 67.86-77.89 103.38-127.369"/><path d="M304.447 222.989c118.161 143.975 302.377 253.975 475.536 319.667 37.798 14.34 89.497 28.379 128.897 38.226a1447 1447 0 0 0 70.05 16.167c8.673 1.828 30.26 7.19 38.64 7.187 26.93-.007 64.77-10.308 90.85-16.007a1237.76 1237.76 0 0 0 521.44-251.832 907 907 0 0 0 86.29-81.699c10.57-11.323 23.54-25.239 32.4-37.715l-38.41 651.755c-3.76 69.56-10.39 142.072-12.55 211.342-37.09 34.04-72.64 70.49-109.28 105.08-6.2 5.86-13.26 12.53-18.95 18.8-9.36 79.25-16.79 159.83-26.68 238.78-87.89 91.27-171.35 188.13-258.02 280.66-13.31 14.21-27.21 29.35-40.01 43.98-56.29 18.38-113.34 47.89-163.47 79.36-19.21 12.05-39.08 27.97-57.07 39.11-43.288-31.11-83.429-57.89-131.793-81.48a782 782 0 0 0-50.04-22.34c-10.101-4.19-32.567-11.66-39.898-16.68-3.606-2.47-20.422-21.55-24.378-25.9l-47.826-52.47-132.697-144.77c-29.466-32.32-60.896-67.61-91.175-99.03-11.715-78.87-15.37-160.2-26.583-238.81l-128.583-123.92c-6.828-91.279-11.214-187.991-16.057-279.577l-16.028-288.402a11906 11906 0 0 0-10.615-175.41c-1.685-25.988-5.724-69.575-5.497-94.801-.478-2.505-2.726-21.657-1.38-22.452 1.234.338 2.194 2.158 2.887 3.181"/><path fill="#242529" d="M302.94 242.26c-.478-2.505-2.726-21.657-1.38-22.452 1.234.338 2.194 2.158 2.887 3.181-3.056 5.376-.604 11.02-1.507 19.271"/><defs><linearGradient id="a" x1="1567.002" x2="1142.565" y1="1173.811" y2="987.926" gradientUnits="userSpaceOnUse"><stop offset="0" stop-color="#a8a8a8"/><stop offset="1" stop-color="#eff0f1"/></linearGradient></defs><path fill="url(#a)" d="M1069.83 668.65c38.67-9.044 76.86-18.544 115.4-28.112 175.67-43.612 336.49-133.067 480.24-241.796a29783 29783 0 0 1-22.98 411.7l-9.32 157.64c-1.33 22.517-2.35 60.448-5.14 81.868-38.96 40.14-87.48 85.54-128.22 124.63l-18.3 174.78c-2.13 20.86-5.31 43.11-6.99 63.73a5220 5220 0 0 1-76.14 83.36l-114.75 125.15-50.01 54.67c-5.64 6.2-26.71 30.63-31.73 32.85-43.47 19.28-90.84 37.78-131.97 62.03.03-28.28-.87-58.86-.24-86.77-1.7-27.57.62-64.59-.2-93.96 18.04-9.89 35.97-21.31 54.52-31.44a834 834 0 0 1 141.14-61.95c26.49-8.74 51.03-13.61 77.52-20.94-18.21-3.92-35.74-10.54-55.32-14.04-28.82-5.16-63.01-12.29-92.27-10.32-45.71 3.08-101.54 21.71-144.19 37.22 15.69-18.6 38.15-41.7 55.03-60.22l135.83-148.01c-5.92-8.68-10.13-15.19-15.42-24.38-31.13 23.23-66.49 43.77-98.21 66.55-12.09 8.68-26.7 18.93-39.25 26.45-6.49 4.91-12.33 8.98-19.1 13.52z"/><path fill="#dedfdf" d="M1367.34 586.627c6.72 1.297 34.31-15.812 40.27-16.535-.62 2.614-.58 3.024-1.86 5.334-1.8.539-4.71.955-5.32 2.228-3.79 7.974-3.34 13.858-2.83 21.942l-4-.289c-2.04 1.776-1.58.694-1.99 3.009 3.71 2.383 2.7.814 3.9 4.301-1.98 2.194-2.38 2.348-4.86 4.048-.23 6.292.62 14.756-3 18.569l-1.65.187-.82-.784c-5.77 6.678-9.76 24.467-10.38 33.458l-2.98 1.465c-1.51 4.857-1.5 10.473-3.84 13.074-2.51-.186-1.3-.246-3.64.13-1.77 3.263-.89 8.764-1.33 13.754-1.76-.757-1.18-.709-2.64-2.688-1.64 1.384-2.72 15.769-3.55 18.799-.06.207-4.34 2.816-4.88 3.141-1.11 5.616-2.5 13.863-4.13 19.13-2.23.033-2.16-.215-4.12.812-.18 9.972 3.17 12.556-5.62 21.366-5.13 5.13-.5 8.765-3.28 14.121l-2.46-1.031c.25-.586-10.6 34.788-10.47 31.76l-1.22.579-3.37-1.458-1.6.838c-1.34 5.844 2.62 4.96.66 9.294-3.26 1.355-3.89 1.506-7.17 2.274-2.05 2.3-1.58 1.009-1.67 3.919l3.53 2.235c.24 4.265.27 5.025-.38 9.199-1.79-.175-.91.016-2.65-1.945-3.21 12.569-2.52 24.851-12.48 34.637-.06 3.777-.67 13.557.61 16.484 3.25 1.231 2.22.207 4.14 2.511-12.23 5.252-32.95 11.711-44.24 17.695-12.46 6.602-80.09 25.596-85.47 31.364-2.46 15.294-2.7 30.094-4.7 44.933-3.64 27.092-6.43 53.433-9.26 80.593l-18.58 173.16c-.96 9.63-6.2 5.96-7.29 18.17l-2.2.11c-2.41 3.68-.39 7.49-.85 11.14-.02.1-6.95 6.01-7.61 7.55-4.2 9.8-5.17 23.52-12.75 31.15-1.53 1.53-6.64 7.52-6.46 9.41.3 3.13 1.48 6.34-1.25 8.62-4.71 3.41-2.79 9.59-3.74 13.9-.34 1.53-7.16 3.22-5.16 8.96 2.09 6.01-7.16 9.7-12.19 12.91-.13-13.79 2.38-68.89-.47-77.52 1.2-13.38.12-47.1.12-61.7-.19-49 .05-97.99.74-146.98.18-19.52-.96-48.74.75-67.524 1.06 10.474-.51 55.024.78 59.294 2.51-1.63 3.29-1.97 6.19-2.73 2.51-4.67-.41-11.86.91-15.48 2.01-5.49 2.02-2.67 1.69-9.55 2.27-2.78 1.14-1.94 5.78-2.42 2.62-3.7.86-7.68 1.69-11.15.58-2.41 6.49-12.794 8-14.212 6.51-6.118 3.88-17.93 7.76-25.365 8.76-4.863 7.52-4.907 6.97-14.455 1.69-2.778.5-1.64 4.3-2.81-1.05-6.534 7.74-18.933 11.82-24.103-.05-1.586-.26-6.946.46-8.1 8.78-14.072 13.54-30.462 21.15-44.982 3.62-6.914 3.26-8.694 4.31-16.592 2.46-2.694.9-1.793 5.23-2.037 2.65-2.762-1.1-6.369 1.43-11.518 6.1-1.945 15.23-32.157 20.84-38.171 3.99-4.278 4.45-14.248 5.9-20.164 1.8-7.361 3.64-5.785 8.74-11.012-1.57-8.035 9.37-25.543 14.88-31.072l.95-.931c-.76-7.518 5.28-17.918 10.57-22.959l1.14.301c.7 2.33 1.39 4.405 2.18 6.696l1.93.716c.6-9.322.26-9.114 6.66-15.048 3.99-3.701-2.16-17.174 2.43-25.044l1.8-.047c3.01 3.068 2.24 1.45 2.33 6.446l.05-.004-.01-24.246c4.58-4.936 3.61-3.042 5.47-8.748 2.08-6.387 6.73-23.286 13.38-25.499.22-4.04.8-2.394-1.03-5.32-5.98-2.086-12.58.713-18.02 3.347l-1.24-.51c11.56-4.637 21.28-7.238 32.55-11.554 29.14-11.159 59.09-22.407 87.72-34.776"/><defs><linearGradient id="b" x1="1585.871" x2="974.248" y1="1161.325" y2="946.642" gradientUnits="userSpaceOnUse"><stop offset="0" stop-color="#b9cad1"/><stop offset="1" stop-color="#eceae9"/></linearGradient></defs><path fill="url(#b)" d="M1069.83 668.65c38.67-9.044 76.86-18.544 115.4-28.112 175.67-43.612 336.49-133.067 480.24-241.796a29783 29783 0 0 1-22.98 411.7l-9.32 157.64c-1.33 22.517-2.35 60.448-5.14 81.868-38.96 40.14-87.48 85.54-128.22 124.63l-18.3 174.78c-2.13 20.86-5.31 43.11-6.99 63.73a5220 5220 0 0 1-76.14 83.36l-114.75 125.15-50.01 54.67c-5.64 6.2-26.71 30.63-31.73 32.85-43.47 19.28-90.84 37.78-131.97 62.03.03-28.28-.87-58.86-.24-86.77 2.17-7.19 2.48-72.29 1.61-81.9l-.17-1.73c1.06-2.26.34-1.22 2.93-2.67 6.03 7.74-.74 106.12 2.34 124.59 1.26 7.59-5.2 34.14 3.6 35.75 38.26-20.34 78.53-36.36 117.01-55.7 5.58-2.81 22.54-22.45 27.61-28.01l50.71-56.1 191.35-209.08c.14-9.03 2.07-22.97 3.09-32.29l6.33-57.77c5.4-49.29 9.8-99.26 16.07-148.38 23.91-24.81 48.11-47.39 73.02-71.15 18.59-17.75 36.4-36.2 55.24-53.76 1.99-38.7 4.2-77.387 6.65-116.06l20.52-347.245 6.07-104.794c.84-13.162 5.7-51.795 3.08-62.216l-1.67-.935c-6 2.035-13.65 8.482-18.72 12.565-82.05 66.126-174.59 113.689-269.01 159.132-28.63 12.369-58.58 23.617-87.72 34.776-11.27 4.316-20.99 6.917-32.55 11.554l1.24.51c5.44-2.634 12.04-5.433 18.02-3.347 1.83 2.926 1.25 1.28 1.03 5.32-6.65 2.213-11.3 19.112-13.38 25.499-1.86 5.706-.89 3.812-5.47 8.748l.01 24.246-.05.004c-.09-4.996.68-3.378-2.33-6.446l-1.8.047c-4.59 7.87 1.56 21.343-2.43 25.044-6.4 5.934-6.06 5.726-6.66 15.048l-1.93-.716c-.79-2.291-1.48-4.366-2.18-6.696l-1.14-.301c-5.29 5.041-11.33 15.441-10.57 22.959l-.95.931c-5.51 5.529-16.45 23.037-14.88 31.072-5.1 5.227-6.94 3.651-8.74 11.012-1.45 5.916-1.91 15.886-5.9 20.164-5.61 6.014-14.74 36.226-20.84 38.171-2.53 5.149 1.22 8.756-1.43 11.518-4.33.244-2.77-.657-5.23 2.037-1.05 7.898-.69 9.678-4.31 16.592-7.61 14.52-12.37 30.91-21.15 44.982-.72 1.154-.51 6.514-.46 8.1-4.08 5.17-12.87 17.569-11.82 24.103-3.8 1.17-2.61.032-4.3 2.81.55 9.548 1.79 9.592-6.97 14.455-3.88 7.435-1.25 19.247-7.76 25.365-1.51 1.418-7.42 11.802-8 14.212-.83 3.47.93 7.45-1.69 11.15-4.64.48-3.51-.36-5.78 2.42.33 6.88.32 4.06-1.69 9.55-1.32 3.62 1.6 10.81-.91 15.48-2.9.76-3.68 1.1-6.19 2.73-1.29-4.27.28-48.82-.78-59.294-1.71 18.784-.57 48.004-.75 67.524-.69 48.99-.93 97.98-.74 146.98 0 14.6 1.08 48.32-.12 61.7-.97 8.8-.69 22.37-.75 31.66-.07 16.01-.37 32.03-.88 48.04 2.5.01 1.6.15 3.92-.76l.63.96c-2.75 3.04-4.5 4.74-4.59 9.06l.86-.73c4.27-3.59 6.17-5.37 11.63-5.53-6.49 4.91-12.33 8.98-19.1 13.52z"/><path d="M1176.79 927.583c48.81-14.289 97.32-32.42 145.03-50.107 103.13-38.233 195.01-77.654 288.49-136.208a13247 13247 0 0 1-86.47 192.287c-32.78 9.084-67.71 17.105-100.86 25.113l-198.31 47.532c-15.88 40.39-30.65 82.97-45.54 123.8-9.91 27.16-21.44 57.45-30.08 84.78-.6 1.56-.57 2.1-.81 3.85l-1.91-2.13c.43-2.64.79-5.25 1.21-7.88 11.68-92.61 17.71-188.63 29.25-281.037"/><path fill="#242529" d="m1147.54 1208.62 1.51 6.16c-.6 1.56-.57 2.1-.81 3.85l-1.91-2.13c.43-2.64.79-5.25 1.21-7.88"/><path fill="#758285" d="M1148.24 1218.63c-.29.51-1.22 2.96-2.03 2.6-.78-1.4-.24-3.29.12-4.73z"/><path fill="#dedfdf" d="M1298.11 859.395c1.36.979 1.04 2.303 1.18 4.068-2.07-.722-1.27-1.94-1.18-4.068"/><path fill="#dedfdf" d="M419.991 1049.88c-3.016-30.49-4.229-67.447-5.86-98.495l-7.97-143.373-21.652-397.674c-.14-2.974-.594-7.107 1.005-9.46l2.458 1.364c28.529 21.411 55.881 41.885 85.782 61.474 126.515 82.881 265.077 149.716 413.08 183.468 29.939 6.827 61.129 16.083 91.102 21.394l-.93 694.902-98.956-67.06c-18.409-12.52-39.682-26.47-57.337-39.67l-12.134 28.47c19.822 23.28 50.079 53.17 71.922 76.49l112.253 121.91-3.317 1.31a7706 7706 0 0 0-106.169-65.3c-59.662 2.5-120.214 6.82-179.969 9.78 17.342 11.09 36.064 25.84 52.596 38.35l74.742 56.47c13.154 9.93 31.922 25.24 45.608 33 5.309 3.01 29.951 10.27 36.987 12.46l64.668 20.14c.434 60.28.324 120.57-.331 180.84-25.197-12.39-48.989-25.44-74.737-37.42-18.469-8.59-40.197-15.9-57.518-25.3-3.746-2.04-19.258-19.35-23.079-23.5l-49.641-54.63-199.136-216.4c-1.6-25.95-6.253-60.21-9.13-86.91l-15.711-152.59c-7.671-7.1-20.45-18.5-26.767-26.01-9.788-7.98-26.015-24.6-35.544-33.82z"/><defs><linearGradient id="c" x1="333.741" x2="476.771" y1="570.73" y2="628.476" gradientUnits="userSpaceOnUse"><stop offset="0" stop-color="#9d9d9d"/><stop offset="1" stop-color="#c3c3c3"/></linearGradient></defs><path fill="url(#c)" d="M410.691 774.405c2.262-13.216-1.531-64.506-2.117-78.852a12475 12475 0 0 0-10.645-198.548c-1.381-26.159-3.451-55.045-3.926-81.023 12.365 11.614 103.927 76.014 119.096 80.429 14.241 5 33.872 21.302 47.805 27.827 17.439 8.168 35.484 20.181 52.382 28.104l.014 1.039c-10.482 2.735-77.902-42.214-91.188-47.576-1.115-.45-3.662.007-4.825.194-2.341 3.38 1.943 6.226-2.148 10.424-5.352 5.492-7.962 8.293-11.555 14.995l-.515.998c-7.713-1.638-11.2 6.728-14.687 12.636-.469 11.618-4.185 11.28-9.328 21.6-1.122 2.252 2.257 5.098.716 9.631l-.916.75c-2.294 1.905-3.634 2.615-4.668 5.377 2.737 3.549 2.457 1.785 2.182 5.218-2.485.712-1.214.371-3.817 1.02-1.056 9.743 2.497 9.413-3.739 14.712-.79 5.285.664 9.592-.708 13.25l-3.026.337c-2.33 4.889-3.802 11.594-5.662 15.042-.688 1.276-10.413 11.909-10.93 14.21-.967 4.296-.271 17.218-2.01 20.642-.893-2.922-.62-6.173-.606-9.284l-.851-.392c-2.525 7.288-1.372 10.201-8.156 17.269-1.264 1.317.29 10.881-2.913 13.014-6.35 9.604-.717 14.622-13.547 18.019l-.379 1.552c1.711 2.59 2.401 3.573 4.478 6.016-.037 3.215-.526 8.446.809 11.11 12.953 10.083 92.479 50.767 94.961 57.194-10.822-.423-95.193-55.032-97.775-54.497 13.367 40.651 39.723 81.207 54.153 121.994 1.978 5.592 8.525 14.721 9.239 19.97l-1.081 1.923c-12.088-21.084-14.682-32.274-24.093-51.952l-24.438-52.095c-5.001-10.392-10.021-20.638-14.938-31.013-1.13 12.828-1.937 27.204-4.209 39.815-.337 1.869-.372 2.506-.417 4.396-1.114 1.165-1.752 1.911-3 2.934-.291 3.828-.239 7.456-1.879 10.895-.155-6.255-1.256-14.046-1.143-19.304"/><path fill="#b7c0c3" d="M419.991 1049.88c-3.016-30.49-4.229-67.447-5.86-98.495l-7.97-143.373-21.652-397.674c-.14-2.974-.594-7.107 1.005-9.46l2.458 1.364c-2.883 4.32-2.285 8.337-.401 13.084 2.876.682 3.532.14 6.38-.765 11.98 6.861 23.197 17.121 34.838 25.441 26.267 18.775 53.464 36.124 80.779 53.324 2.372 1.494 1.757.682 3.531 3.085-15.169-4.415-106.731-68.815-119.096-80.429.475 25.978 2.545 54.864 3.926 81.023a12475 12475 0 0 1 10.645 198.548c.586 14.346 4.379 65.636 2.117 78.852-1.771-5.841-.458-9.459-.74-13.678-1.125-16.845-5.638-155.234-9.411-159.074l-.718 3.44-1.937.953c-1.214 4.885 1.786 38.683 2.158 46.489 3.501 73.54 6.643 147.385 11.854 220.814.596 8.391 1.006 49.996 3.233 53.763.549.928.652.994 1.275 1.715-1.816 25.013 1.311 51.055 2.706 76.103.675 12.12.182 25.39 2.208 37.27.674 3.96 1.426 6.52 4.09 9.6 14.948 17.28 93.358 85.47 96.441 96.11-9.788-7.98-26.015-24.6-35.544-33.82z"/><path fill="#b7c0c3" d="m413.713 782.814 2.611.68c.095 3.643-1.852 18.457-.89 20.351 4.23 8.326.908 16.71 1.303 26.416 1.64 40.258 4.571 80.344 7.072 120.55a4357 4357 0 0 1 4.275 95.309l10.439 10.82-.018.9c-4.505-1.99-9.409-5.84-11.253-10.61-2.001-5.18-16.611-246.93-15.418-253.521 1.64-3.439 1.588-7.067 1.879-10.895"/><path d="M435.232 741.034a1636.3 1636.3 0 0 0 441.415 185.218c3.759 92.278 12.662 186.388 17.472 278.638.414 2.37 1.758 12.89.44 14.51-1.403-1.32-1.623-3.7-2.089-5.51-21.272-71.22-44.627-138.13-64.863-210.38-46.032 29.44-95.839 58.61-142.724 87.16-15.163-12.11-146.237-122.454-148.336-127.264-31.554-72.303-70.781-149.966-101.315-222.372"/><path fill="#242529" d="M894.119 1204.89c.414 2.37 1.758 12.89.44 14.51-1.403-1.32-1.623-3.7-2.089-5.51 1.832-3.38 1.165-3.64 1.539-7.83z"/><path fill="#b7c0c3" d="M931.137 1583.37c7.35 1.39 31.388 6.98 36.97 9.44 4.641 4.93 5.025 162.64 2.43 167.19l-2.39.3c-5.827-1.88-8.466-6.39-13.128-8.53-23.575-10.81-46.08-23.22-69.988-33.47-9.001-3.85-30.514-10.69-37.606-16.42-6.652-5.38-16.649-18.49-23.425-25.38-2.941-2.82-3.598-3.55-6.079-6.77 5.485 2.87 22.139 21.91 28.5 26.65 14.122 10.52 32.48 15.48 48.529 22.48 10.851 4.73 26.471 14.02 37.052 17.32.436-.37.872-.73 1.308-1.1 9.221-.44 10.105-30.84 9.9-30.75 12.658-6.08 8.318-19.03 13.183-31.9 3.027-2.08 5.779-3.38 7.225-6.63-1.875-2.26-1.963-2.2-4.161-4.12-.488-3.59-.778-1.94.878-5.15 1.635-.12 5.217-.21 5.5-1.48 3.211-16.86 2.466-38.34 1.302-55.57-.413-6.12-28.543-10.95-36-16.11"/><path fill="#b7c0c3" d="M418.145 776.61c1.751 4.828.859 12.363.317 17.473-3.791-7.931-.553-8.675-.317-17.473"/><path fill="#b7c0c3" d="M454 645.5c1.71 2.517.997 5.587 1 9-1.71-2.517-.997-5.587-1-9"/><path fill="#b7c0c3" d="M470.134 610.391c1.303.962.861 1.53.702 3.223-1.262-.972-.837-1.571-.702-3.223"/><path fill="#b7c0c3" d="M486.134 570.391c1.303.962.861 1.53.702 3.223-1.262-.972-.837-1.571-.702-3.223"/><path fill="#b7c0c3" d="M992.754 1483.62c6.314 6.73.371 3.58-3.317 1.31z"/></svg>