<svg xmlns="http://www.w3.org/2000/svg" width="2048" height="2048" viewBox="0 0 2048 2048"><path fill="#fff" d="M0 0h2048v2048H0z"/><path d="M1401.48 692.349c5 17.513 10.75 30.311 24.14 43.059 25.47 24.242 61.84 28.918 94.84 19.595 34.27-9.679 61.16-34.056 81.52-62.419q.345 36.095.24 72.189l63.06.044c.2-10.009.28-20.021.25-30.032l119.41-.037c72.12 41.782 112.49 101.331 133.61 180.986 19.6 73.895 17.23 144.306-1.25 218.036-21.03 83.88-53.88 134.05-131.05 176.04l-120.89-.23c-.07-7.51-.01-15.34-.23-22.82-20.99-.1-41.99-.07-62.98.08.18 22.68.13 45.37-.16 68.06-36.82-51.84-106.73-90.84-167.89-50.05-17.05 11.37-27.23 29.44-32.11 49.19-20.17-31.23-37.23-47.26-73.03-58.22 8.44-2.18 17.86-4.44 25.73-8.26-8.63-.96-31.03-.39-40.6-.39l-80.65.05H777.447l-52.354-.19c-8.29-.04-23.609-.56-31.334.69 7.15 2.53 14.352 4.91 21.603 7.12-32.796 9.83-51.202 25.63-67.576 56.09-.539 1-1.068 2-1.586 3.01-3.923-13.66-7.602-24.55-16.886-35.32-45.026-52.22-125.564-31.7-166.857 14.3-6.41 7.14-12.052 13.28-17.612 21.12l-.087-68.68-64.187-.77-.469 25.59-81.424.07c-5.408 0-34.668.57-37.417-.66-108.357-48.65-145.653-177.18-144.32-286.71 1.001-82.228 19.952-175.49 78.473-236.309 14.247-14.218 47.277-40.187 66.458-47.916 3.998-1.611 34.836-1.068 40.965-1.053l77.412.186-.066 27.251 64.945.02c-.056-22.878-.644-48.567.042-71.22 23.294 32.363 55.156 58.967 95.435 64.928 51.16 7.572 90.569-15.217 105.182-64.605 20.841 32.539 35.026 45.072 71.196 56.658-9.475 4.679-18.04 8.828-27.136 14.283l454.653.41 149.44-.225c21.05-.031 47.77.923 68.33.139-9.77-4.589-20.22-9.277-29.8-14.162 37.34-12.217 49.52-25.734 69.01-58.916"/><path fill="#b8b8b8" d="m693.759 1287.72-1.854-1.13c4.326-1.08 44.754-.51 52.332-.5l141.527.17 308.786-.09 109.79.07c15.2.04 35.01-.68 49.67-.07l.68 1.39c-8.63-.96-31.03-.39-40.6-.39l-80.65.05H777.447l-52.354-.19c-8.29-.04-23.609-.56-31.334.69"/><path fill="#323137" d="M1671.09 739.783c35.05-1.149 76.91-.003 112.46.092 30.99 19.529 59.35 41.154 80.97 71.245 54.53 75.905 72.73 185.004 57.1 276.04-9.98 58.1-28.42 124.63-70.35 167.88-13.95 14.39-24.79 22.74-40.79 34.14-8.07 5.62-17.11 10.59-25.66 15.52-37.99-.55-75.81.02-113.79-.4l-.22-18.64c14.69-12.59 27.9-24.48 40.23-39.81 59.25-73.67 66.86-189.98 58.08-280.685-8.36-86.324-29.76-141.21-97.94-196.812z"/><path d="M1843.46 986.588c20.84-1.509 39.05 13.932 40.97 34.742 1.91 20.8-13.17 39.31-33.93 41.63a38.35 38.35 0 0 1-35.44-15.77 38.35 38.35 0 0 1-3.56-38.62 38.36 38.36 0 0 1 31.96-21.982"/><path fill="#ec513a" d="M1842.24 991.924c18.1-2.228 34.59 10.616 36.87 28.716 2.27 18.09-10.53 34.62-28.62 36.94-18.16 2.33-34.75-10.53-37.04-28.69-2.28-18.17 10.62-34.73 28.79-36.966"/><path d="M1810.76 827.448c20.16-4.728 40.34 7.779 45.08 27.939 4.73 20.161-7.77 40.345-27.92 45.09-20.17 4.747-40.37-7.76-45.11-27.933-4.74-20.172 7.77-40.365 27.95-45.096"/><path fill="#ec513a" d="M1816.41 831.842c17.83-1.507 33.48 11.781 34.89 29.622s-11.96 33.422-29.81 34.732c-17.71 1.3-33.15-11.948-34.54-29.65-1.4-17.702 11.76-33.208 29.46-34.704"/><path d="M1811.63 1147.31c20.26-4.36 40.21 8.57 44.51 28.84 4.31 20.27-8.67 40.19-28.95 44.44-20.21 4.24-40.05-8.68-44.34-28.88s8.59-40.06 28.78-44.4"/><path fill="#ec513a" d="M1812.38 1152.5c17.35-3.93 34.6 6.97 38.5 24.32 3.91 17.36-7.01 34.59-24.37 38.47-17.33 3.88-34.52-7.01-38.42-24.34-3.9-17.32 6.97-34.53 24.29-38.45"/><path fill="#323137" d="m263.531 743.038 111.294.169-.126 24.727c-8.785 8.227-16.147 15.567-24.533 24.176-67.116 68.911-77.898 173.804-75.662 265.77 2.391 98.3 27.611 160.21 99.943 227.88l.076 19.27-40.773.14-71.332-.02c-40.298-23.02-70.42-46.52-93.947-87.55-49.306-85.99-57.328-208.15-32.717-303.085 21.888-84.43 52.28-126.949 127.777-171.477"/><path d="M190.892 986.348a39.205 39.205 0 0 1 45.498 50.912 39.2 39.2 0 0 1-29.855 25.91c-21.06 3.98-41.407-9.7-45.683-30.7s9.104-41.542 30.04-46.122"/><path fill="#ec513a" d="M194.449 991.509c18.116-2.746 35.083 9.551 38.112 27.621s-9.001 35.23-27.022 38.54a33.548 33.548 0 0 1-37.428-44.9 33.55 33.55 0 0 1 26.338-21.261"/><path d="M219.098 827.341c20.135-4.632 40.24 7.835 45.041 27.931s-7.497 40.305-27.551 45.275c-20.295 5.029-40.799-7.448-45.657-27.785-4.859-20.336 7.79-40.734 28.167-45.421"/><path fill="#ec513a" d="M220.003 832.474c17.416-4.086 34.838 6.755 38.866 24.185 4.027 17.429-6.872 34.815-24.314 38.784-17.361 3.952-34.648-6.885-38.656-24.233-4.009-17.348 6.77-34.67 24.104-38.736"/><path d="M228.39 1146.43c20.571.42 36.958 17.34 36.713 37.91-.244 20.58-17.029 37.11-37.604 37.04-20.821-.08-37.592-17.11-37.344-37.93s17.418-37.44 38.235-37.02"/><path fill="#ec513a" d="M220.497 1152.55c17.344-3.9 34.557 7.02 38.432 24.36 3.875 17.35-7.059 34.55-24.411 38.41-17.326 3.85-34.495-7.06-38.364-24.38-3.869-17.33 7.025-34.51 24.343-38.39"/><path fill="#323137" d="M646.921 707.43c2.58 2.196 9.738 10.861 12.326 13.681 14.689 16.004 24.043 23.306 44.143 30.364-15.156 8.652-30.195 12.284-43.426 23.58-23.607 20.153-22.83 55.17-24.762 84.224-11.62-17.921-29.256-34.907-50.555-39.709-18.585-3.873-41.217-2.083-57.342 8.967-39.624 27.153-31.627 53.128-10.362 86.973-28.546 9.861-43.588 15.946-65.646 36.79-6.037 6.328-9.78 11.275-14.766 18.388-8.103-9.01-17.231-21.237-25.669-31.034 31.203-31.933 40.57-43.431 39.586-89.583-.995-46.634 1.258-94.025-.396-140.827 21.673 24.692 37.533 37.818 69.034 49.548 47.091 17.536 110.661.098 127.835-51.362"/><path fill="#323137" d="M1399.47 705.516c2.36 2.121 4.62 8.302 6.21 11.443 18.4 36.497 59.79 52.583 99.2 46.87 36.51-5.294 69.91-27.036 91.92-56.8.71 38.222-.08 78.109-.08 116.392 0 57.395-7.47 79.569 42.9 115.475-9.95 10.628-19.47 20.639-28.69 31.912-4.05-6.329-6.84-10.391-11.47-16.29-12.82-18.843-46.53-33.463-68.37-38.84.86-1.238 1.71-2.488 2.53-3.75 9.61-14.589 18.81-30.817 14.23-48.859-8.63-33.963-50.45-53.239-83.02-45.784-23.19 5.308-41.21 23.309-53.26 42.711-.85-18.825-1.35-39.266-6.99-57.153-9.81-31.146-31.11-37.345-57.75-50.898 28.04-13.222 35.19-20.366 52.64-46.429"/><path fill="#323137" d="M1612.11 1068.75c7.36 11.04 16.76 24.45 22.91 35.85-2.83 2.33-5.55 4.8-8.15 7.39-35.43 35.23-30.13 59.81-30.06 105.31l.4 122.77c-52.43-65.85-155.59-86.78-197.65.58-6.01-8.76-11.64-15.08-19.16-22.47-12.87-11.49-18.09-15.29-34.15-21.78 56.53-16.47 61.37-49.77 65.72-101.69 19.01 22.64 33.92 37.63 64.62 41.36 18.35 2.23 39.42-2.16 53.93-14.09a61.32 61.32 0 0 0 22.17-41.1c2.34-24.15-11.53-40.11-25.64-57.42 43.38-2.2 65.41-16.59 85.06-54.71"/><path fill="#323137" d="M434.822 1069.8c5.029 5.17 9.356 19.27 20.664 30.13 19.68 18.9 38.885 23.74 65.499 24.33-15.27 15.63-28.838 35.09-25.661 58.14 6.932 50.29 62.511 70.54 104.468 46.63 14.796-8.43 24.539-18.19 34.688-31.72 1.231 19.25 3.939 42.51 11.989 59.93 10.841 23.45 29.296 29.65 51.512 37.66-15.294 7.64-20.722 11.03-32.692 22.97a148.6 148.6 0 0 0-17.494 22.94c-1.784-4.21-3.841-9.3-6.077-13.23-29.128-51.12-95.625-55.14-143.345-29.17-19.402 10.56-33.111 24.08-47.982 39.51.121-54.09.578-108.11-.176-162.2-.446-32.06-16.392-50.38-38.321-71.28a1898 1898 0 0 0 22.928-34.64"/></svg>