<svg xmlns="http://www.w3.org/2000/svg" width="2048" height="2048" viewBox="0 0 2048 2048"><path fill="#fff" d="M0 0h2048v2048H0z"/><path fill="#080202" d="M1523.53 442.448c7.06 2.338 14.09 4.733 21.11 7.185 99.77 35.1 186.03 104.398 232.25 200.619 26.2 5.005 45.41 9.622 70.55 20.015 57.49 23.766 114.74 79.206 137.92 137.67l1.09 2.143c28.86 64.86 20.74 131.949 21.64 201.4.33 26.02 1.08 69.37-.24 94.55.19 2.89.13 5.11.06 8.01.31 100.14-35.44 186.81-122.54 243.35-35.87 23.28-68.07 32.18-108.9 41.24-12.15 24.11-23.9 45.25-41.4 66.93-47.39 58.7-112.86 103.49-183.26 130.01-.18.04-.35.09-.52.14-8.31 3.51-18.39 6.76-27.01 9.77 1.71-3.04 3.38-6.1 5.02-9.18 29-54.68 48.42-123.38 29.84-184.27-2.42 7.14-4.09 12.9-5.99 20.21-34.38 8.56-81.79 20.68-115.08 31.35-11.27-26.54-22.9-52.92-34.88-79.14-60.75-.67-122.6-.08-183.43-.04l-574.914-.11c-10.654 21.06-24.581 56.7-33.869 79.26-24.595-8.39-52.911-13.31-77.933-20.99-11.303-3.48-25.7-7.14-37.2-9.46-1.274-5.42-5.081-15.45-7.045-21.08-20.964 61.85 5.866 139.36 37.009 193.8-6.748-2.48-18.706-6.12-24.542-9.26-1.038-.26-1.328-.31-2.753-.78a393.65 393.65 0 0 1-225.589-197.21c-61.661-13.57-102.163-28.18-150.51-73.41-46.414-43.42-79.768-117.76-80.526-181.9-2.532-15.83-1.405-60.56-.758-77.85-1.623-18.82.17-54.13-.09-74.606-1.038-81.627-4.804-153.182 44.304-224.731 47.415-69.084 106.231-101.098 186.913-116.504 45.738-101.056 148.294-176.842 253.478-206.673a339 339 0 0 0-8.802 15.672c-29.444 55.027-46.719 114.174-28.074 175.561 2.445-5.055 5.051-12.788 7.053-18.234 11.602-3.841 28.378-7.872 40.472-11.15l73.854-19.859c9.865 25.288 23.138 53.485 34.134 78.735l759.388.141c11.14-24.892 23.97-53.3 33.8-78.542 38.5 9.78 76.9 19.963 115.19 30.546 1.44 5.431 4.42 13.345 6.32 18.857 19.85-60.404-.28-140.809-35.54-192.185"/><path fill="#262120" d="M546.158 721.2c122.262-1.307 246.809-.016 369.236-.027l584.726.149c.2 32.255-5.17 53.727-19.54 82.358 73.56 9.422 109.36 75.1 136.87 136.606 7.66 17.11 17.1 40.377 19.79 59.125 1.11-1.529.87-6.527.95-8.906 1.2 9.575 2.48 42.435-.06 50.465.27 24.94-10.24 73.92-18.98 97.24l-4.71 12.02 8.85-8.36c11.82-10.6 21.92-23.94 31.35-36.68 5.26 2.31 1.76 3.37 2.67 8.43-8.11 48.41-40.49 104.98-80.65 133.93-22.71 16.37-39.02 18.38-65.9 18.6 12.08 83.17-13.85 130.72-66.3 191.11 34.08-8.99 70.69-19.88 104.5-28.06 12.94-38.9 21.94-69.69 25.11-110.8 33.2 43.36 43.22 80.72 35.29 135.25-7.08 48.74-25.74 95.54-59.11 132.45-1.81 2.01-7.26 6.54-7.2 8.75l.09.08 8.15.78c-8.31 3.51-18.39 6.76-27.01 9.77 1.71-3.04 3.38-6.1 5.02-9.18 29-54.68 48.42-123.38 29.84-184.27-2.42 7.14-4.09 12.9-5.99 20.21-34.38 8.56-81.79 20.68-115.08 31.35-11.27-26.54-22.9-52.92-34.88-79.14-60.75-.67-122.6-.08-183.43-.04l-574.914-.11c-10.654 21.06-24.581 56.7-33.869 79.26-24.595-8.39-52.911-13.31-77.933-20.99-11.303-3.48-25.7-7.14-37.2-9.46-1.274-5.42-5.081-15.45-7.045-21.08-20.964 61.85 5.866 139.36 37.009 193.8-6.748-2.48-18.706-6.12-24.542-9.26 3.673-1.74 2.294 1.28 7.767-.87l-1.281-1.08c-37.524-43.2-56.917-75.84-66.204-134.23-8.861-55.72-.647-95.45 32.53-140.85.651 32.89 14.291 78.56 25.178 109.58l105.104 29q-3.482-3.765-6.865-7.62c-55.978-63.49-66.817-99.02-61.311-184.01-21.099-.28-36.86-1.94-55.398-12.88-53.356-31.48-77.817-90.87-91.422-147.81l1.899-4.51c13.478 19.77 23.417 32.07 40.493 48.71-15.847-35.2-23.73-79.65-24.958-118.12-1.835-5.74.097-32.691 1.072-39.261l.505 7.751c.148-.09 5.084-21.182 5.958-23.669 26.045-74.102 67.566-160.505 153.016-173.247a166.6 166.6 0 0 1-21.191-82.254"/><path fill="#080202" d="m1635.8 1041 1.6-10.72c1.07 1.1.72 8.54.73 10.69.27 24.94-10.24 73.92-18.98 97.24l-4.71 12.02 8.85-8.36c11.82-10.6 21.92-23.94 31.35-36.68 5.26 2.31 1.76 3.37 2.67 8.43-8.11 48.41-40.49 104.98-80.65 133.93-22.71 16.37-39.02 18.38-65.9 18.6 12.08 83.17-13.85 130.72-66.3 191.11 34.08-8.99 70.69-19.88 104.5-28.06 12.94-38.9 21.94-69.69 25.11-110.8 33.2 43.36 43.22 80.72 35.29 135.25-7.08 48.74-25.74 95.54-59.11 132.45-1.81 2.01-7.26 6.54-7.2 8.75l.09.08 8.15.78c-8.31 3.51-18.39 6.76-27.01 9.77 1.71-3.04 3.38-6.1 5.02-9.18 29-54.68 48.42-123.38 29.84-184.27-2.42 7.14-4.09 12.9-5.99 20.21-34.38 8.56-81.79 20.68-115.08 31.35-11.27-26.54-22.9-52.92-34.88-79.14-60.75-.67-122.6-.08-183.43-.04l-574.914-.11c-10.654 21.06-24.581 56.7-33.869 79.26-24.595-8.39-52.911-13.31-77.933-20.99-11.303-3.48-25.7-7.14-37.2-9.46-1.274-5.42-5.081-15.45-7.045-21.08-20.964 61.85 5.866 139.36 37.009 193.8-6.748-2.48-18.706-6.12-24.542-9.26 3.673-1.74 2.294 1.28 7.767-.87l-1.281-1.08c-37.524-43.2-56.917-75.84-66.204-134.23-8.861-55.72-.647-95.45 32.53-140.85.651 32.89 14.291 78.56 25.178 109.58l105.104 29q-3.482-3.765-6.865-7.62c-55.978-63.49-66.817-99.02-61.311-184.01-21.099-.28-36.86-1.94-55.398-12.88-53.356-31.48-77.817-90.87-91.422-147.81l1.899-4.51c13.478 19.77 23.417 32.07 40.493 48.71-15.847-35.2-23.73-79.65-24.958-118.12l1.587-.1c2.958 10.86 2.746 19.89 6.911 32.99 19.179 60.36 47.14 130.36 104.688 163.07a137.5 137.5 0 0 0 48.188 16.7c-10.824 18.13-16 34.56-20.376 55.31 30.121.6 60.838.05 91.042.09l187.033.17 672.659-.02c-4.66-21.04-8.68-36.18-18.14-55.86 79.64-7.9 121.53-91.38 143.51-158.86 4.68-14.37 9.81-29.37 11.9-44.37"/><path fill="#f14d31" d="m546.083 1312.88 953.997.23.29 20.85-954.511.11c-.039-7.06.036-14.13.224-21.19"/><path fill="#f14d31" d="M513.042 450.602c-51.343 45.085-74.839 110.27-75.096 177.691-.149 39.238 14.185 68.413 35.867 100.077 1.764-39.598 12.59-72.515 25.383-109.358 30.424-10.07 73.472-20.39 105.151-28.635-56.08 64.618-79.519 105.581-67.669 193.715-28.097-.221-46.363 1.501-69.595 19.772-46.227 36.353-71.789 87.691-79.997 144.86 13.176-20.793 26.044-36.909 44.909-52.864-11.624 27.463-22.283 66.423-24.125 96.759-.975 6.57-2.907 33.521-1.072 39.261 1.228 38.47 9.111 82.92 24.958 118.12-17.076-16.64-27.015-28.94-40.493-48.71l-1.899 4.51c13.605 56.94 38.066 116.33 91.422 147.81 18.538 10.94 34.299 12.6 55.398 12.88-5.506 84.99 5.333 120.52 61.311 184.01q3.383 3.855 6.865 7.62l-105.104-29c-10.887-31.02-24.527-76.69-25.178-109.58-33.177 45.4-41.391 85.13-32.53 140.85 9.287 58.39 28.68 91.03 66.204 134.23-19.251-4.7-64.241-27.63-82.13-38.5-149.081-90.59-163.521-189.28-201.493-343.72 35.518-7.97 55.46-20.61 83.762-42.55-1.048-94.84.214-192.288.293-287.348-25.461-21.911-51.365-35.721-84.002-43.74 7.282-37.002 18.45-74.909 26.788-111.815 32.121-142.158 128.403-226.653 262.072-276.345"/><path fill="#370201" d="M389.364 1105.8c-.519-2.94-3.381-13.83 1.899-4.51z"/><path fill="#080202" d="M394.918 582.038c1.136 1.952-.765 9.437-1.269 11.955-13.787 68.894 11.687 112.245 60.225 158.19-37.431 27.28-59.882 49.33-82.676 90.308l-13.804-7.232c-23.766-12.67-45.988-21.559-70.911-31.388 11.463-80.649 46.314-167.029 108.435-221.833"/><path fill="#262120" d="M352.075 711.573c20.2-4.938 40.561 7.503 45.383 27.732 4.821 20.228-7.738 40.517-27.994 45.221-20.09 4.666-40.178-7.769-44.96-27.832s7.536-40.222 27.571-45.121"/><path fill="#080202" d="M355.238 721.464c14.766-3.252 29.355 6.143 32.505 20.931 3.149 14.788-6.347 29.312-21.157 32.358-14.665 3.016-29.015-6.367-32.133-21.01s6.164-29.058 20.785-32.279"/><path fill="#080202" d="M370.347 1208.01c3.219 1.19 9.916 14.88 12.513 18.85 18.335 28.02 42.259 49.95 68.894 69.73-51.246 52.85-74.993 91.1-54.356 165.82l-11.168-8.78c-58.591-51.47-85.165-132.26-98.851-206.94 31.586-11.94 53.448-22.27 82.968-38.68"/><path fill="#262120" d="M357.096 1264.45c20.785-2.36 39.538 12.6 41.853 33.39s-12.686 39.51-33.481 41.79c-20.733 2.26-39.386-12.69-41.694-33.42-2.309-20.72 12.599-39.41 33.322-41.76"/><path fill="#080202" d="M353.966 1275.29c14.604-3.98 29.671 4.61 33.687 19.2 4.015 14.6-4.536 29.69-19.118 33.74-14.637 4.07-29.796-4.52-33.826-19.17s4.599-29.78 19.257-33.77"/><path fill="#f14d31" d="M1545.42 453.941c20.07 8.408 39.39 16.514 58.63 26.681 73.5 38.837 140.96 102.443 172.57 180.491 22.3 55.036 31.57 119.395 47.38 177.007-32.82 8.974-58.82 20.957-83.98 44.522l-.01 286.168c26.3 23.75 49.43 34.94 83.26 43.8-15.66 63.9-28.11 131.82-55.17 192.28-12.46 27.83-35.7 58.38-56.38 80.49a404.2 404.2 0 0 1-86.14 69.41c-28.44 17.29-51.7 27.53-82.44 40.14l-.09-.08c-.06-2.21 5.39-6.74 7.2-8.75 33.37-36.91 52.03-83.71 59.11-132.45 7.93-54.53-2.09-91.89-35.29-135.25-3.17 41.11-12.17 71.9-25.11 110.8-33.81 8.18-70.42 19.07-104.5 28.06 52.45-60.39 78.38-107.94 66.3-191.11 26.88-.22 43.19-2.23 65.9-18.6 40.16-28.95 72.54-85.52 80.65-133.93-.91-5.06 2.59-6.12-2.67-8.43-9.43 12.74-19.53 26.08-31.35 36.68l-8.85 8.36 4.71-12.02c8.74-23.32 19.25-72.3 18.98-97.24 2.54-8.03 1.26-40.89.06-50.465-.75-27.456-12.24-72.999-22.91-97.919 21.41 21.314 29.39 30.93 47.17 55.451-14.29-51.57-25.59-91.022-65.99-130.162-28.11-27.228-45.65-34.16-84.01-33.936a388 388 0 0 0 2.52-22.555c6.25-76.263-24.7-117.033-70.55-170.878a7847 7847 0 0 1 104.83 28.42c13.32 40.67 21.97 65.009 24.47 108.859 22.35-33.097 37.54-58.698 37.09-100.005-.71-64.675-21.52-124.203-66.94-170.523z"/><path fill="#262120" d="M1654.64 1105.19c1.31-2.45 5.27-8.53 6.93-11.01l-2.8 14.32c-.12.53-.24 1.06-.35 1.59l-.39 1.95c-.16.75-.3.86-.72 1.58-.91-5.06 2.59-6.12-2.67-8.43"/><path fill="#080202" d="M1651.97 581.517c.33.199 2.44 1.308 2.9 1.703 63.86 54.848 91.35 140.698 106.54 220.436a1751 1751 0 0 0-67.76 31.012l-12.84 6.298c-22.22-38.692-49.2-65.019-86.01-89.493 55.39-52.699 74.36-93.793 57.17-169.956"/><path fill="#262120" d="M1680.08 710.671a37.57 37.57 0 0 1 34.98 14.384 37.57 37.57 0 0 1 4.74 37.526 37.58 37.58 0 0 1-30.31 22.631c-20.44 2.338-38.96-12.204-41.54-32.618s11.74-39.104 32.13-41.923"/><path fill="#080202" d="M1679.21 721.385c14.59-3.276 29.09 5.824 32.5 20.387 3.4 14.564-5.58 29.147-20.11 32.675-14.71 3.571-29.51-5.538-32.96-20.28-3.44-14.743 5.79-29.466 20.57-32.782"/><path fill="#080202" d="M1680.34 1207.14c4.92 2.37 9.91 5.14 14.69 7.83 21.53 12.11 43.41 21.65 66.21 31.1-15.34 76.44-37.24 147.8-95.07 203.67l-13.52 12.57c4.01-14.32 6.24-29.09 6.66-43.96 1.11-54.39-27.25-85.09-62.64-122 37-23.47 61.95-51.63 83.67-89.21"/><path fill="#262120" d="M1677.96 1264.32c20.71-1.9 39.06 13.26 41.13 33.95 2.06 20.69-12.94 39.17-33.61 41.41-20.92 2.27-39.67-12.95-41.76-33.89-2.09-20.93 13.29-39.56 34.24-41.47"/><path fill="#080202" d="M1678.59 1274.47c15.01-1.55 28.44 9.32 30.08 24.31 1.63 15-9.14 28.51-24.13 30.23-15.12 1.75-28.77-9.15-30.42-24.27-1.65-15.13 9.33-28.72 24.47-30.27"/><path fill="#262120" d="M1802.32 725.536c-7.29-22.974-13.61-48.27-23.19-70.22 2.13.22 4.26.511 6.37.872 80.67 13.329 146 61.763 185.35 131.205 3.12 5.52 5.05 10.41 8.8 15.634 3.1.92 2.92 2.115 4.39 4.972l1.32-.062 1.09 2.143c-.54 3.968 9.4 31.978 11.08 38.053 7.23 26.016 8.77 48.311 8.09 75.108-.15 6.146.63 14.265-.85 20.125l-1.08-.213c-2.08-7.242-2.21-13.739-4.21-20.75-6.17-21.646-14.29-43.116-25.28-62.721a281.42 281.42 0 0 0-171.88-134.146"/><path fill="#f14d31" d="M2002.4 1111.23c.56 1.01 1.14 2.02 1.73 3.02-.34 26.22-17.64 75.95-30.74 98.28-42.23 72.06-100.77 111.91-179.21 134.14l6.64-20.98c33.58-9.68 58.72-18.16 88.4-38.16 62.37-42.03 99.09-103.12 113.18-176.3"/><path fill="#f14d31" d="M46.16 1130.55c-1.4-9.05-3.435-18.01-1.54-27.13 3.867 21.9 6.876 35.25 13.746 56.61 35.226 88.37 97.771 141.71 189.295 165.95 2.073 6.74 4.122 13.72 6.316 20.4-72.358-18.95-137.659-62.29-175.959-127.56a248.8 248.8 0 0 1-23.876-54.92c-3.111-11.11-5.473-22.1-7.981-33.35"/><path fill="#262120" d="M41.13 1065.42c2.166 9.04.173 17.81 1.16 26.09.383 3.22 4.603 3.74 2.33 11.91-1.895 9.12.14 18.08 1.54 27.13-2.266-2.59-3.395-2.44-3.179-5.54.034-.5-.05-.93-.428-1.25.078-.22-.339 16.7-.665 19.51-2.532-15.83-1.405-60.56-.758-77.85"/><path fill="#370201" d="M2004.6 1098.61c-.23-.95-.76-2.33.36-2.94 1.89.16.64 6.58 2.89 10.36.19 2.89.13 5.11.06 8.01-1.1-.45-1.36-.58-2.52-.85l-1.26 1.06c-.59-1-1.17-2.01-1.73-3.02.22-5.44 1.26-7.46 2.2-12.62"/><path fill="#bb453c" d="M2004.6 1098.61c.52 5.12.41 9.5.79 14.58l-1.26 1.06c-.59-1-1.17-2.01-1.73-3.02.22-5.44 1.26-7.46 2.2-12.62"/><path fill="#bb453c" d="M1543.87 457.257c-.95-.85-4.31-3.377-4.29-4.598 1.15-1.104 4.61.776 5.84 1.282z"/><path fill="#262120" d="m264.711 655.318 3.786-.412 1.137.969c-10.063 25.22-15.361 42.308-22.561 68.467-31.592 11.387-52.435 17.887-81.845 37.17C98.903 804.997 61.951 861.72 45.244 938.026l-1.363.512c-2.13-7.613-.694-34.182.42-42.412l.227.641c1.989-12.275 3.736-24.98 6.244-37.133 22.241-107.739 106.694-185.643 213.939-204.316"/><path fill="#262120" d="M1866.65 1128.5a44.56 44.56 0 0 1 42.12 15.32 44.54 44.54 0 0 1 7.48 44.19 44.53 44.53 0 0 1-34.72 28.33c-24.12 3.82-46.82-12.48-50.9-36.56s11.99-46.95 36.02-51.28"/><path fill="#080202" d="M1867.17 1141.42c11.13-2.72 22.85.76 30.7 9.1a31.8 31.8 0 0 1 7.23 31.19 31.8 31.8 0 0 1-23.57 21.68c-17.02 3.74-33.88-6.92-37.81-23.89-3.93-16.98 6.52-33.96 23.45-38.08"/><path fill="#262120" d="M1870.22 829.648c24.39-2.498 46.2 15.219 48.76 39.605 2.55 24.386-15.12 46.238-39.5 48.85-24.46 2.62-46.4-15.117-48.96-39.584-2.56-24.466 15.23-46.365 39.7-48.871"/><path fill="#080202" d="M1870.97 842.403c17.38-2.156 33.2 10.22 35.29 27.604s-10.35 33.155-27.74 35.176c-17.3 2.01-32.96-10.344-35.04-27.633-2.08-17.288 10.21-33.002 27.49-35.147"/><path fill="#262120" d="M166.057 1128.49c24.153-3.81 46.854 12.59 50.814 36.72 3.959 24.13-12.31 46.93-36.416 51.04-24.311 4.13-47.346-12.3-51.339-36.64-3.992-24.33 12.582-47.27 36.941-51.12"/><path fill="#080202" d="M165.725 1141.41c16.994-4.06 34.066 6.41 38.145 23.4 4.078 16.99-6.379 34.08-23.365 38.17-17.009 4.1-34.119-6.37-38.204-23.39-4.084-17.01 6.407-34.11 23.424-38.18"/><path fill="#262120" d="M163.515 830.616c23.83-5.147 47.348 9.904 52.656 33.699 5.309 23.795-9.582 47.414-33.34 52.884-23.988 5.522-47.884-9.543-53.244-33.568s9.867-47.818 33.928-53.015"/><path fill="#080202" d="M165.213 843.294c16.837-4.384 34.054 5.649 38.54 22.459 4.487 16.809-5.441 34.087-22.223 38.676-16.927 4.629-34.388-5.404-38.913-22.359s5.614-34.354 22.596-38.776"/></svg>