<svg xmlns="http://www.w3.org/2000/svg" width="2048" height="2048" viewBox="0 0 2048 2048"><path fill="#27242e" d="M0 0h2048v2048H0z"/><path d="M1528.61 326.547a2029 2029 0 0 0 133.13 54.633 2121 2121 0 0 0 128.87-53.513c-5.21 69.172-3.75 136.841-3.75 206.139l-.22 303.191-71.78.013-.36 141.96c-.01 33.65-1.98 66.38 5.08 99.33 3.67 17.12 6.76 34.92 9.96 52.17l28.98 155.93c27.76 146.45 52.54 287.1 84.54 433-74.97 1.22-151.87-.1-226.99-.04l-498.24.22-911.817-.14c9.042-43.74 19.982-87.28 29.031-131.17a34476 34476 0 0 0 84.662-439.02l11.431-61.67c1.653-8.91 6.311-31.4 6.602-39.64.813-22.95.288-48.143.249-71.278l.043-139.616-74.705.027c1.226-72.565-.333-145.04-.012-217.573q.762-74.072.403-148.148c.005-34.868.874-70.105-2.014-104.863-1.069-12.869-1.912-25.809-2.784-38.695a1965 1965 0 0 0 129.446 53.517c41.033-14.468 92.704-36.918 132.615-54.183-6.354 70.216-4.741 133.111-4.745 203.297l67.647.195c.02-43.531.354-87.192-.295-130.707-.352-23.582-2.764-48.639-4.383-72.248 33.757 17.707 93.53 39.756 130.015 53.863 5.775-2.859 11.344-4.878 17.3-7.223 37.769-14.874 75.16-29.938 111.824-47.344-1.103 24.5-3.806 48.993-3.72 73.54.153 43.363.024 86.714-.161 130.076l66.47-.089c-.134-60.274 1.85-121.082-2.999-181.1-.603-7.468-1.163-14.928-1.847-22.389 36.834 17.784 90.315 39.748 129.654 53.998a2363 2363 0 0 0 127.4-53.316c-6.36 61.264-4.16 139.822-4.12 202.971 22.17-.297 44.33-.38 66.49-.247-.68-46.578.33-93.397-.31-139.907-.27-19.594-3.4-43.101-4.23-63.636 20.11 10.408 48.42 21.399 69.5 29.97 19.7 8.014 42.27 17.023 62.27 24.115 10.52-3.093 32.15-12.485 42.97-16.73 28.62-11.236 56.55-23.27 84.43-36.253-.79 18.329-2.84 38.987-3.02 57.084-.5 48.317-.27 96.943-.25 145.272l66.26-.225c-.3-46.611.44-93.584-.33-140.147-.33-20.155-3.48-42.561-4.19-63.401"/><path fill="#f3f2f3" d="M324.175 431.989c7.43 2.968 14.968 6.399 22.314 9.624a2555 2555 0 0 0 41.98 17.316 5236 5236 0 0 0 58.571-25.104l.024 164.977 203.987-.114.009-164.596a2617 2617 0 0 0 57.569 24.437c17.896-8.96 39.573-16.421 58.356-24.915l.171 165.063 125.293-.097c25.071-.062 52.253-.647 77.185.153l-.024-164.102a4892 4892 0 0 0 55.43 23.186c18.1-7.378 38.49-16.844 56.48-23.419.84 18.447.34 40.756.36 59.487l.09 104.705 202.09.012-.03-164.705c19.68 7.683 39.8 16.822 59.27 24.121l55.08-23.454-.04 164.078 204.69.233-.13-165.845c19.43 8.514 41.1 16.973 60.02 25.844 11.8-5.775 24.2-10.638 36.37-15.629 8.43-3.747 17.55-7.207 25.79-11.056l-.05 338.052-313.21-.054c-.01 14.343 1.74 73.779-.61 83.511l.02 177.372c-39.43.02-80.02-.41-119.36.09l-.1 394.12q-53.655.555-107.31.45c1.35 20.69.31 52.31.31 73.73l-.22 147.34-319.74.08.003-25.23.048-195.9-107.047-.16-.382-394.59-120.371.11.08-261.086-312.987.15z"/><path fill="#c47f39" d="M1699.29 443.245c8.43-3.747 17.55-7.207 25.79-11.056l-.05 338.052-313.21-.054c-.01 14.343 1.74 73.779-.61 83.511-.76-5.696-.33-25.506-.32-32.371l.33-74.768 289.14-.289c-.27-31.464 1.12-297.903-1.07-303.025"/><path fill="#c47f39" d="M324.175 431.989c7.43 2.968 14.968 6.399 22.314 9.624l-.014 304.743 290.475.092.191 23.576-312.987.15z"/><path fill="#c47f39" d="M1184.07 1621.58v-127.74c-.01-18.99-1.19-50.61.39-68.11 1.35 20.69.31 52.31.31 73.73l-.22 147.34-319.74.08.003-25.23z"/><defs><linearGradient id="a" x1="1704.277" x2="1232.916" y1="1232.588" y2="1260.378" gradientUnits="userSpaceOnUse"><stop offset="0" stop-color="#cfcece"/><stop offset="1" stop-color="#f4f4f4"/></linearGradient></defs><path fill="url(#a)" d="m1480.94 832.139 167.81.071.19 151.861c0 17.069.37 34.649-.12 51.679-.88 30.61 6.62 60.05 12.28 90.15l24.95 131.13 50.63 267.57c7.73 40.61 14.97 81.61 23.18 122.12l-507.85.15.04-25.31-.05-124.06 106.89.14.02-395.75 121.96.01.06-246.873z"/><path fill="#c47f39" d="m1480.94 832.139 167.81.071.19 151.861c0 17.069.37 34.649-.12 51.679-.88 30.61 6.62 60.05 12.28 90.15l24.95 131.13 50.63 267.57c7.73 40.61 14.97 81.61 23.18 122.12l-507.85.15.04-25.31 478.33.16c-8.97-42.9-16.84-88.83-24.88-132.09l-42.36-226.95-25.25-135.31c-3.14-16.79-11.12-52.8-12.31-68.73-1.33-17.6-.28-51.61-.25-70.295l-.26-133.452-144.14.134z"/><defs><linearGradient id="b" x1="326" x2="798.948" y1="1236.804" y2="1241.767" gradientUnits="userSpaceOnUse"><stop offset="0" stop-color="#cdcccc"/><stop offset="1" stop-color="#f7f7f7"/></linearGradient></defs><path fill="url(#b)" d="m402.657 832.127 165.423.177.007 22.542.054 247.174 121.667-.04.077 395.51 107.915.13.06 124.03.054 25.22-507.675.08c8.017-34.96 15.048-78.07 21.931-113.92l46.035-240.98 30.612-159.97c6.424-34.21 15.385-67.12 13.857-102.15-.649-14.88.087-31.749.107-46.805z"/><path fill="#c47f39" d="m402.657 832.127 165.423.177.007 22.542-144.349-.013-.315 138.421c-.029 20.706.705 46.386-.292 66.756-.546 11.14-6.426 39.35-8.624 51.25l-18.014 95.81-52.584 284.46c-7.968 42.84-17.048 87.57-24.135 130.39l325.5-.37c49.127-.01 104.23 1.41 152.586.1l.054 25.22-507.675.08c8.017-34.96 15.048-78.07 21.931-113.92l46.035-240.98 30.612-159.97c6.424-34.21 15.385-67.12 13.857-102.15-.649-14.88.087-31.749.107-46.805z"/></svg>