<svg xmlns="http://www.w3.org/2000/svg" width="2048" height="2048" viewBox="0 0 2048 2048"><path fill="#151825" d="M0 0h2048v2048H0z"/><path fill="#151825" d="M1561.61 556.262c38.31-1.836 78.23.607 116.69-.262 7.86-.177 16.86-.017 24.73.485 6.7 8.504 15.94 19.692 22.04 28.427l-.09 273.883c-5.22 5.586-10.38 11.222-15.88 16.536-10.27.192-20.54.276-30.82.253-.06 25.266.23 51.65-.4 76.82-4.69 5.268-9.63 11.061-14.64 15.947l-44.72-.071-.23 164.09c13.3-.01 29.98-.42 42.97.37 6.35 7.93 14.74 17.82 20.58 25.83l.06 111.36c12.88-.01 29.47-.45 42.02.32l20.58 25.02c.92 59.74 1.11 126.69.03 186.45-5.06 5.24-10.45 11.04-15.67 16.04l-1015.275.06-274.814-.08-77.442-.13c-8.228-.02-31.419-.57-38.531.51-5.325-5.12-11.654-12.15-16.873-17.61l.027-186.49 21.183-23.9 17.074.06 24.861.08-.123-73.48c-.016-10.92-.599-29.05.428-39.31 7.364-7.7 14.808-16.56 21.859-24.63l18.074-.01c7.719.02 16.767-.11 24.382.3 1.34-10.06.122-33.48.456-44.67 1.141-38.1-1.856-81.74.312-119.451-3.726-1.169-37.435-1.045-42.204-.308-7.935-1.233-13.786-9.49-19.957-15.915l-.216-79.053c-9.257.713-28.403-.447-35.785.94-7.414-1.633-13.352-10.623-18.79-16.944l.31-273.689 21.665-27.016 19.59-.104 72.492-.05c20.39-1.511 57.252-.869 78.761-.566l23.686 29.146c.077 34.838-1.104 79.26.149 113.457 15.188.191 30.402-.09 45.567.073 1.427-34.451.209-77.825.198-112.911l18.02-23.255c3.04-3.844 3.943-6.116 7.968-6.602 11.581-.388 24.197.416 36.065.473l84.703.181a400 400 0 0 1 21.567-.69 1600 1600 0 0 0 25.315 30.632q.363 55.757.09 111.515c3.845.007 13.981-.251 17.125.555q11.61-.055 23.22.162c1.088-35.384.175-75.897.187-111.67 6.922-10.036 15.38-20.285 22.697-30.725 11.791-1.108 33.422.155 45.989.068 31.257-.216 62.949.591 94.207.055 4.701.122 5.212-.395 8.86 3.549 7.786 8.417 14.843 17.705 22.103 26.607l.02 74.404c-.02 8.769-.65 29.537.15 37.572 11.56-.099 33.45-.474 44.33.416.99-9.571.47-29.615.46-39.721l.01-71.976a1294 1294 0 0 1 25.48-30.801l16.61-.002c38.24.192 83.62 1.275 121.7.155 3.71.021 5.59-.7 8.14 2.174 7.73 8.71 12.97 17.046 20.97 25.662l-.05 114.151 47.21.139.26-110.961 23.95-31.144 17.13-.02c39.67.075 80.15.572 119.75.056 3.22.068 4.75-.483 7.14 2.016 8.02 8.38 13.9 18.547 21.59 27.225l-.69 111.995c12.76-.008 27.25.336 39.86-.063.82-36.767.08-76.398.13-113.431 7.76-8.78 15.36-18.949 22.61-28.25 4.91-.71 11.71-.34 16.81-.258"/><path fill="#995229" d="M1561.61 556.262c38.31-1.836 78.23.607 116.69-.262 7.86-.177 16.86-.017 24.73.485 6.7 8.504 15.94 19.692 22.04 28.427l-.09 273.883c-5.22 5.586-10.38 11.222-15.88 16.536-10.27.192-20.54.276-30.82.253-.06 25.266.23 51.65-.4 76.82-4.69 5.268-9.63 11.061-14.64 15.947l-44.72-.071-.23 164.09c13.3-.01 29.98-.42 42.97.37 6.35 7.93 14.74 17.82 20.58 25.83l.06 111.36c12.88-.01 29.47-.45 42.02.32l20.58 25.02c.92 59.74 1.11 126.69.03 186.45-5.06 5.24-10.45 11.04-15.67 16.04l-1015.275.06-274.814-.08-77.442-.13c-8.228-.02-31.419-.57-38.531.51 4.449-2.88 4.494-6.01 5.682-11.38 6.961-1.03 30.413-.52 38.995-.51l76.746-.05 280.135.11 999.204.27c2.68-2.57 5.53-6.19 7.95-9.09 1.03-20.37.41-45.48.42-66.26l.15-112.21c-4.77-5.49-12.06-14.98-17.34-19.25l-.83.47c-4.23 1.6-37.54.76-44.85.67l-.27-119.12c-4.39-5.2-12.18-15.17-17.17-18.93-13.15.79-30.62.23-44.17.3l-1.6-1.14c-1.04-18.11-.2-44.44-.19-63.03l-.11-120.606 51.35.123c3.09-2.329 5.83-5.085 8.64-7.758 1-27.203.2-59.242.21-86.814l39.1-.009c2.86-2.677 4.63-5.049 7.08-8.11l.19-267.927c-5.3-7.063-11.73-14.462-17.42-21.297-4.51.615-7.62.424-12.1.311l-129.59-.136 9.36-9.778c-5.86.073-11.72-.077-17.57-.449 4.91-.71 11.71-.34 16.81-.258"/><path fill="#dc8e55" d="M1544.8 556.52c4.91-.71 11.71-.34 16.81-.258 12.95 1.269 37.13.64 51.01.601 27.86-.098 55.71-.037 83.57.183-1.1 3.459-1.49 6.518-4.28 8.548-3.67 1.155-5.4 1.068-9.31 1.289l-129.59-.136 9.36-9.778c-5.86.073-11.72-.077-17.57-.449"/><path fill="#dc8e55" d="m1618.37 1133.2 37.29.04c-1.54 3.2-2.92 6.23-4.04 9.6-13.15.79-30.62.23-44.17.3 4.34-3.56 7.02-5.93 10.92-9.94"/><path fill="#dc8e55" d="M1683.02 1270.73c11.89-.06 23.77-.06 35.66 0-1.88 3.52-2.73 5.22-3.94 9.02l-.83.47c-11.95-.7-29.58-.18-41.95-.2 4.44-3.58 6.8-5.17 11.06-9.29"/><path fill="#fdfdfd" d="m339.481 557.024 19.59-.104c-3.317 3.13-7.639 6.971-10.693 10.216-6.125 7.093-12.257 14.083-18.049 21.455l-.045 174.294c-.002 28.74-.96 64.969.327 93.059 2.227 2.31 5.296 5.706 7.604 7.759-.407 4.475-.815 6.553-1.919 10.97-7.414-1.633-13.352-10.623-18.79-16.944l.31-273.689z"/><path fill="#fdfdfd" d="m327.135 1270.12 17.074.06c-1.197 4.14-5.909 7.22-9.414 9.94-4.73 5.27-11.716 12.59-15.956 17.98l-.001 179.1c3.344 3.77 5.514 6.59 9.642 9.54-1.188 5.37-1.233 8.5-5.682 11.38-5.325-5.12-11.654-12.15-16.873-17.61l.027-186.49z"/><path fill="#995229" d="M431.563 556.87c20.39-1.511 57.252-.869 78.761-.566l23.686 29.146c.077 34.838-1.104 79.26.149 113.457 15.188.191 30.402-.09 45.567.073.823 4.558 2.309 5.704 4.214 9.983l8.961.504c-15.75 1.657-54.783.404-71.916.312.774-39.282-.056-81.246-.125-120.72-4.288-5.231-14.703-18.393-19.402-22.387.8-3.968 1.028-4.986 1.052-8.982-5.055-1.322-59.751-.16-70.947-.82"/><path fill="#dc8e55" d="M579.726 698.98c.823 4.558 2.309 5.704 4.214 9.983l-60.859-.051c3.796-3.276 7.267-6.883 11.078-10.005 15.188.191 30.402-.09 45.567.073"/><path fill="#995229" d="M726.68 556.866a400 400 0 0 1 21.567-.69 1600 1600 0 0 0 25.315 30.632q.363 55.757.09 111.515c3.845.007 13.981-.251 17.125.555q11.61-.055 23.22.162c2.005 3.741 4.121 6.388 6.503 9.841l6.909.616c-19.922.953-46.855.57-66.918.111-.645-39.407-.16-79.989-.088-119.458-5.265-6.677-14.496-18.925-20.889-23.635.554-3.01 2.223-6.389 3.461-9.312-5.78.108-10.542-.067-16.295-.337"/><path fill="#dc8e55" d="M790.777 698.878q11.61-.055 23.22.162c2.005 3.741 4.121 6.388 6.503 9.841l-57.079.008c3.391-3.147 6.603-6.435 9.88-9.701 4.385.019 13.452.383 17.476-.31"/><path fill="#995229" d="M977.077 556.768c4.701.122 5.212-.395 8.86 3.549 7.786 8.417 14.843 17.705 22.103 26.607l.02 74.404c-.02 8.769-.65 29.537.15 37.572 11.56-.099 33.45-.474 44.33.416 1.85 5.201 2.45 5.267 6.03 9.714l7.62.513c-5.89.834-19.68.547-26.04.538l-44.93-.116-.069-119.801c-5.317-6.884-14.097-18.269-20.767-23.618.267-1.998 2.061-7.611 2.693-9.778"/><path fill="#dc8e55" d="M1008.21 698.9c11.56-.099 33.45-.474 44.33.416 1.85 5.201 2.45 5.267 6.03 9.714l-61.399.062c4.119-3.435 7.549-6.044 11.039-10.192"/><path fill="#995229" d="M1454.16 557.028c3.22.068 4.75-.483 7.14 2.016 8.02 8.38 13.9 18.547 21.59 27.225l-.69 111.995c12.76-.008 27.25.336 39.86-.063l-.22.959c1.96 5.181 2.54 5.047 5.44 9.659l2.58.528c-16.12 1.39-43.17.609-60.01.629l-.09-120.301c-4.91-6.41-14.29-20.552-21.56-22.323l1.67-.478c2.4-2.276 3.26-6.502 4.29-9.846"/><path fill="#dc8e55" d="M1482.49 699.209c13.12.051 26.23.035 39.35-.049 1.96 5.181 2.54 5.047 5.44 9.659l-55.82.231c3.69-3.609 7.25-6.4 11.03-9.841"/><path fill="#995229" d="M1216.8 556.971c3.71.021 5.59-.7 8.14 2.174 7.73 8.71 12.97 17.046 20.97 25.662l-.05 114.151 47.21.139-.37.942.28 1.492c.44 2.912 2.5 5.235 4.08 7.617l-23.91.007c-10.45 1.141-29.04.642-39.92.643l-.23-120.416c-4.46-5.491-14.46-18.473-19.25-22.692.1-.558 2.61-8.115 3.05-9.719"/><path fill="#dc8e55" d="M1245.43 699.989c15.56-.035 31.75.361 47.27.05l.28 1.492c.44 2.912 2.5 5.235 4.08 7.617l-23.91.007c-10.39-.816-25.88-.34-36.64-.219 3.01-2.946 5.98-5.928 8.92-8.947"/><path fill="#fdfdfd" d="m391.234 1132.84 18.074-.01a210 210 0 0 1-10.698 10.07l-16.553 18.72c.001 32.14.009 64.29.149 96.43.02 4.72.908 19.88-1.743 22.63l-4.865.52c-6.431-1.13-32.806-1-40.803-1.08 3.505-2.72 8.217-5.8 9.414-9.94l24.861.08-.123-73.48c-.016-10.92-.599-29.05.428-39.31 7.364-7.7 14.808-16.56 21.859-24.63"/><path fill="#dc8e55" d="M369.375 1157.47c1.287 38.27-.442 77.84.501 116.13 1.631 2.57 3.357 5.9 5.722 7.6-6.431-1.13-32.806-1-40.803-1.08 3.505-2.72 8.217-5.8 9.414-9.94l24.861.08-.123-73.48c-.016-10.92-.599-29.05.428-39.31"/><path fill="#fdfdfd" d="M434.458 969.009c2.694-.879 9.896-6.949 12.615-9.086.062 21.985-.681 47.957.166 69.597-.172 23.78-.208 47.57-.11 71.36.035 11.1.681 30.36-.444 40.94-2.772 1.65-5.072 1.03-8.846 1.1-1.449-2.69-3.333-5.28-3.861-8.34l-.288-1.45c1.34-10.06.122-33.48.456-44.67 1.141-38.1-1.856-81.74.312-119.451"/><path fill="#fdfdfd" d="m1078.49 556.818 16.61-.002c-2.68 3.277-5.87 7.418-8.76 10.393-6.18 6.326-14.75 17.245-20.1 24.572l-.05 117.762-7.62-.513c-3.58-4.447-4.18-4.513-6.03-9.714.99-9.571.47-29.615.46-39.721l.01-71.976a1294 1294 0 0 1 25.48-30.801"/><path fill="#fdfdfd" d="m579.924 586.069 18.02-23.255c3.04-3.844 3.943-6.116 7.968-6.602 5.199.216 10.26.465 15.471.403-3.52 3.595-6.975 7.275-10.767 10.573a431 431 0 0 0-17.689 23.778l-.026 118.501-8.961-.504c-1.905-4.279-3.391-5.425-4.214-9.983 1.427-34.451.209-77.825.198-112.911"/><path fill="#fdfdfd" d="m1317.28 556.992 17.13-.02c-3.25 4.194-5.25 6.717-8.97 10.58-6.62 7.746-12.8 16.245-19.26 23.674.02 13.008 1.31 112.079-.75 117.303-3.93.72-4.34.699-8.37.619-1.58-2.382-3.64-4.705-4.08-7.617l-.28-1.492.37-.942.26-110.961z"/><path fill="#fdfdfd" d="M836.881 556.645c6.286.364 11.278.419 17.569.35l-9.089 10.066c-5.978 6.766-12.824 16.902-18.218 24.428l.266 118.008-6.909-.616c-2.382-3.453-4.498-6.1-6.503-9.841 1.088-35.384.175-75.897.187-111.67 6.922-10.036 15.38-20.285 22.697-30.725"/><path fill="#fdfdfd" d="M1544.8 556.52c5.85.372 11.71.522 17.57.449l-9.36 9.778-17.87 22.076.01 78.297c0 11.72.65 29.742-.33 40.739-2.24 2.001-1.05 1.141-4.96 1.488l-2.58-.528c-2.9-4.612-3.48-4.478-5.44-9.659l.22-.959c.82-36.767.08-76.398.13-113.431 7.76-8.78 15.36-18.949 22.61-28.25"/><path fill="#dc8e55" d="m359.071 556.92 72.492-.05c11.196.66 65.892-.502 70.947.82-.024 3.996-.252 5.014-1.052 8.982-10.367.998-39.126.336-50.558.351l-102.522.113c3.054-3.245 7.376-7.086 10.693-10.216"/><path fill="#dc8e55" d="M836.881 556.645c11.791-1.108 33.422.155 45.989.068 31.257-.216 62.949.591 94.207.055-.632 2.167-2.426 7.78-2.693 9.778-10.527 1.057-33.526.462-44.646.472l-84.377.043 9.089-10.066c-6.291.069-11.283.014-17.569-.35"/><path fill="#fdfdfd" d="M372.081 873.733c3.2-2.932 9.289-7.728 12.841-10.196q.555 42.762.25 85.527c3.152 4.431 4.711 6.217 9.309 9.236-.556 3.496-1.44 6.95-2.227 10.401-7.935-1.233-13.786-9.49-19.957-15.915z"/><path fill="#dc8e55" d="M605.912 556.212c11.581-.388 24.197.416 36.065.473l84.703.181c5.753.27 10.515.445 16.295.337-1.238 2.923-2.907 6.302-3.461 9.312-6.356 1.021-33.531.612-41.184.62l-87.714.053c3.792-3.298 7.247-6.978 10.767-10.573-5.211.062-10.272-.187-15.471-.403"/><path fill="#dc8e55" d="M1095.1 556.816c38.24.192 83.62 1.275 121.7.155-.44 1.604-2.95 9.161-3.05 9.719-11.9 1.056-32.35.457-44.63.455l-82.78.064c2.89-2.975 6.08-7.116 8.76-10.393"/><path fill="#dc8e55" d="M1334.41 556.972c39.67.075 80.15.572 119.75.056-1.03 3.344-1.89 7.57-4.29 9.846l-1.67.478q-61.38-.295-122.76.2c3.72-3.863 5.72-6.386 8.97-10.58"/><path fill="#995229" d="M394.481 958.3c10.764-1.182 41.022-.457 53.327-.421.018 15.212 1.077 58.611-.569 71.641-.847-21.64-.104-47.612-.166-69.597-2.719 2.137-9.921 8.207-12.615 9.086-3.726-1.169-37.435-1.045-42.204-.308.787-3.451 1.671-6.905 2.227-10.401"/><path fill="#995229" d="M338.215 863.703c12.118-.143 35.616.869 46.707-.166-3.552 2.468-9.641 7.264-12.841 10.196-9.257.713-28.403-.447-35.785.94 1.104-4.417 1.512-6.495 1.919-10.97"/><path fill="#dc8e55" d="M409.308 1132.83c7.719.02 16.767-.11 24.382.3l.288 1.45c.528 3.06 2.412 5.65 3.861 8.34-13.076-.11-26.153-.11-39.229-.02 3.682-3.23 7.251-6.59 10.698-10.07"/><path fill="#d8dbe1" d="M714.264 604.989c1.074 3.982.596 21.391.578 26.344l-.22 77.014c-.015 6.284-.344 32.1.604 36.766 15.185-.873 33.401-.58 48.751-.666l98.626.155.204-139.678 86.15.012.071 139.359 101.192-.091c10.95.001 41.52-.531 51.06.715-.27-46.594.75-93.259.36-140.054l85.45.15c-5.07 5.146-8.54 8.307-14.09 12.943l-51.98.157.05 139.989c-23.71 2.139-73.04.759-98.99.745l.01 226.976c0 36.135 1.21 79.805-.14 115.395l-175.905-.02h-19.297c-1.169-6.72-.615-39.08-.61-47.77l.072-105.463-123.128-.119c-11.324.007-48.496.836-58.144-.513l.091-110.947.005-15.246-258.235.004-18.983.018.211-216.186 107.156-.039c2.459 6.909.879 124.538.877 139.686 3.035.03 8.909-.095 11.666.332 14.241-.789 32.734-.341 47.336-.397l96.301.071q.625-69.83.456-139.663z"/><path fill="#fdfdfd" d="m1101.64 604.865 85.45.15c-5.07 5.146-8.54 8.307-14.09 12.943l-51.98.157.05 139.989c-12.33-1.059-35.53-.359-48.5-.342l-94.54.327c-6.96.02-37.867.69-42.729-1.182l-1.971.537c-1.691-2.647-.63-124.969-.429-139.507 5.685-4.275 10.62-8.41 16.056-13.001l.071 139.359 101.192-.091c10.95.001 41.52-.531 51.06.715-.27-46.594.75-93.259.36-140.054"/><path fill="#9ca5b3" d="m948.957 604.936.071 139.359 101.192-.091c10.95.001 41.52-.531 51.06.715-10.11 1.164-38.37.382-49.54.373l-101.727.026-14.712 11.589-1.971.537c-1.691-2.647-.63-124.969-.429-139.507 5.685-4.275 10.62-8.41 16.056-13.001"/><path fill="#fdfdfd" d="m631.819 604.968 82.445.021c-3.649 3.546-11.245 11.159-15.514 13.258q-23.686-.384-47.374-.177c-.224 46.115-1.006 94.317-.378 140.278-61.261-.022-128.05 1.416-188.745-.327 5.387-4.776 9.276-8.249 15.135-12.383 2.53-.041 8.328.195 10.338-.681 14.241-.789 32.734-.341 47.336-.397l96.301.071q.625-69.83.456-139.663"/><path fill="#fdfdfd" d="m862.807 604.924 86.15.012c-5.436 4.591-10.371 8.726-16.056 13.001-17.068-.319-33.944.166-50.915-.014l-.044 140.32-122.898.013c-10.317-.001-49.26.675-57.952-.593 4.637-3.791 10.356-8.052 14.134-12.55 15.185-.873 33.401-.58 48.751-.666l98.626.155z"/><path fill="#fdfdfd" d="m368.027 604.978 107.156-.039c-4.79 5.48-7.541 9.391-14.026 12.798l-74.152.253c.52 66.143 1.007 137.043-.206 203.156l-18.983.018z"/><path fill="#fdfdfd" d="M827.349 961.529c6.576-4.693 12.213-9.202 18.503-14.29l.299 103.461c.019 11.41.859 40-.106 50.5h-19.297c.851-6.78.574-13.62.623-20.44.286-39.72-.417-79.52-.022-119.231"/><path fill="#fdfdfd" d="M664.427 820.804q-.367 62.966.119 125.934c-5.55.019-14.47-.203-19.608.597l.091-110.947c4.111-4.874 13.937-11.689 19.398-15.584"/><path fill="#9ca5b3" d="M714.264 604.989c1.074 3.982.596 21.391.578 26.344l-.22 77.014c-.015 6.284-.344 32.1.604 36.766-3.778 4.498-9.497 8.759-14.134 12.55l-1.334.714c-2.465-4.095-1.732-127.775-1.008-140.13 4.269-2.099 11.865-9.712 15.514-13.258"/><path fill="#9ca5b3" d="M1338.97 605.033c26.87-.07 58.53-.921 85.01.164l.14 139.179 100.13-.215c7.17-.015 38.19-.505 44.16.51.79-45.888.19-93.647.26-139.684l99.29.061c1.24 5.111.66 54.125.63 63.197l-.17 152.94-258.89-.081-.2 126.774-179.99.039c.38 51.089.48 102.183.31 153.273l-207.7.03c1.35-35.59.14-79.26.14-115.395l-.01-226.976c25.95.014 75.28 1.394 98.99-.745l-.05-139.989 51.98-.157c5.55-4.636 9.02-7.797 14.09-12.943l-.12 139.337 102.56-.204c9.15-.006 41.67-.6 49.42.589z"/><path fill="#fdfdfd" d="m1568.67 604.987 99.29.061c-3.74 4.486-9.79 9.393-14.51 12.964l-65.15-.066-.15 140.624c-58.48.172-119.78.667-178.17-.349l14.9-12.874 97.64-.094c8.94.009 39.22.586 45.89-.582.79-45.888.19-93.647.26-139.684"/><path fill="#fdfdfd" d="M1338.97 605.033c26.87-.07 58.53-.921 85.01.164-4.06 4.857-9.49 8.787-14.48 12.794l-50.97-.073.16 140.308-185.78.423 15.27-13.37 105.98-.037c6.53.004 40.23.388 44.79-.505z"/><path fill="#9ca5b3" d="m1454.43 865.041 171.57.02c.75 16.443.17 35.386.15 52.109l-61.49-.051.01 109.231-152.81.11.04 47.81 152.12-.28-.09 63.95-167.79.1-.02 46.98 230.13.12-.07 81.86-115.86.04-.08 51.99c58.99.05 119.79.96 178.62.25l-.02 123.28-186.33.02-52.99.02c-6.36 0-21.2.37-26.48-.41l-.01-105.61v-14.55l-85.81.01c-14.35.02-33.85.61-47.89-.2l-12.27-.04-.08-111.59.07-15.96-341.712.6-103.226-.04c-13.388 0-41.893.87-54.223-.48 7.024-1.4 60.636-.53 71.346-.52l172.985-.12c-.12-5.98-.92-21.84.76-26.62-33.472 1.43-72.492.66-106.115.57l-153.648-.59c4.371-4.52 10.021-9.19 14.838-13.36l499.065-.19-.04-160.789c19.61-.763 42.82-.234 62.69-.245l114.74-.056c.53-41.943-.01-85.359-.08-127.369"/><path fill="#fdfdfd" d="m1454.43 865.041 171.57.02c-4.09 5.284-9.3 9.139-14.47 13.387l-137.55.057-.3 127.465-176.6.43-.18 160.74-273.92-.07c-33.472 1.43-72.492.66-106.115.57l-153.648-.59c4.371-4.52 10.021-9.19 14.838-13.36l499.065-.19-.04-160.789c19.61-.763 42.82-.234 62.69-.245l114.74-.056c.53-41.943-.01-85.359-.08-127.369"/><path fill="#fdfdfd" d="M1276.98 1210.21c2.18-4.18 15.27-12.68 19.75-15.79l.35 82.61c.01 11.63.58 32.02-.54 43.1-2.49 1.92-3.48 1.35-7.21 1.71l-12.27-.04z"/><path fill="#fdfdfd" d="M1423.03 1336.58c6.42-4.97 12.99-9.75 19.7-14.34l.04 119.4c-5.53.02-14.52-.19-19.73.55z"/><path fill="#fdfdfd" d="M1396.82 1186.11c22.18-1.08 54.16-.08 77.25-.07l152.13.08c-5.06 4.44-10.37 8.53-15.66 12.7-23.01 1.09-53.81.22-77.39.25l-151.49.17c5.59-4.45 9.9-8.27 15.16-13.13"/><path fill="#fdfdfd" d="m1509.83 1320.08 178.68.12-14.51 12.81c-16.67.93-40.92.33-58.14.36l-119.88-.17z"/><path fill="#fdfdfd" d="m1411.69 1075.17 152.85-.21-14.22 12.65c-50.39 1.05-102.74.46-153.19.16z"/><path fill="#d8dbe1" d="m421.157 865.045 114.97-.14c19.616-.015 45.04-.787 63.976.451l.263 126.992 126.072-.103c7.555-.001 46.331-.409 51.563.698l-.126 106.577c-.003 15.11-.821 40.39.18 54.17-4.817 4.17-10.467 8.84-14.838 13.36l153.648.59c33.623.09 72.643.86 106.115-.57-1.68 4.78-.88 20.64-.76 26.62l-172.985.12c-10.71-.01-64.322-.88-71.346.52l.071 127.55-151.762.16-.11 120.55-189.084.12-52.617.04c-7.319.01-22.983.42-29.353-.54l.081-122.79 180.542-.19c-1.195-6.25-.493-43.34-.422-52.07l-76.852.01c-10.017.01-29.712.65-38.743-.52l.111-81.26c77.816-1.07 156.03 1.11 233.989-.07-1.265-6.88-.626-39.33-.562-47.32l-150.445.02-19.667.01-.002-63.3q78.178-.435 156.355-.09l.15-34.32-.011-13.59-105.301.05c-9.871.02-41.854.7-49.734-.48-1.16-8.62-.623-28.01-.618-37.584l.062-71.565c-18.617.043-38.612.444-57.118-.203-4.294.125-2.818.911-5.477-1.069-1.205-12.323-.315-37.55-.215-50.834"/><path fill="#fdfdfd" d="M536.297 1280.31c6.75-3.98 12.138-8.19 18.4-12.91l.207 65.59q-89.966.54-179.933.09l.057 108.57c-5.544.02-14.805-.21-19.994.56l.081-122.79 180.542-.19c1.191-7.66.661-30 .64-38.92"/><path fill="#fdfdfd" d="M654.299 1151.88c6.225-4.66 11.447-8.2 17.992-12.43 1.337 16.99.718 41.87.759 59.49l-233.954.51.13 66.6c-5.38 0-14.6-.26-19.586.6l.111-81.26c77.816-1.07 156.03 1.11 233.989-.07 1.081-7.27.561-25.31.559-33.44"/><path fill="#fdfdfd" d="M639.569 1040.32c7.113-5.19 12.779-9.29 19.34-15.11-.064 20.57.071 41.59-.223 62.12-51.061.31-105.1-.35-155.809.71-.037 12.82.817 38.41-.144 49.98l-19.667.01-.002-63.3q78.178-.435 156.355-.09z"/><path fill="#fdfdfd" d="m421.157 865.045 114.97-.14c19.616-.015 45.04-.787 63.976.451-3.051 4.827-9.696 9.462-14.321 13.128-47.23-1.525-97.733.225-145.406-.186l-.001 38.059c-3.865.074-9.889-.001-13.526.591-4.294.125-2.818.911-5.477-1.069-1.205-12.323-.315-37.55-.215-50.834"/><path fill="#fdfdfd" d="M778.001 992.943c-4.314 5.459-8.391 8.787-13.832 12.977-57.717.08-119.511 1.3-176.892-.02 3.691-4.98 8.487-8.629 13.247-12.543l113.813.073c19.12.017 45.01.743 63.664-.487"/><path fill="#fdfdfd" d="M484.76 930.116c4.193-3.214 13.69-11.01 18.541-12.125 1.517 32.886.39 74.231.442 107.709-5.408 0-14.162-.26-19.22.6 1.229-10.97.716-33.739.629-45.822-.108-14.915.547-35.853-.392-50.362"/><path fill="#d8dbe1" d="M826.273 1243.34c11.624-1.12 34.011-.52 46.422-.52l84.972.05 271.763.09.19 87.08c0 6.21-.42 34.8.58 39.98 13.13-.19 140.35-1.07 145.05.75l-.03 71.78-533.256.42-122.618.1c-6.945.01-45.364.41-49.42-.5l.001-72.61 156.424-.17z"/><path fill="#9ca5b3" d="M826.273 1243.34c11.624-1.12 34.011-.52 46.422-.52l84.972.05 271.763.09.19 87.08c0 6.21-.42 34.8.58 39.98 13.13-.19 140.35-1.07 145.05.75l-.03 71.78-533.256.42-122.618.1c-6.945.01-45.364.41-49.42-.5 6.757-.66 12.326-.57 19.103-.54l333.011-.13.03-184.73 102.56-.05c24.55.03 52.12.67 76.47-.23l13.29-.03c5.32-4.61 10.46-8.58 16.04-12.89l-283.827-.42-77.424.21c-12.847.03-30.389.52-42.906-.42"/><path fill="#fdfdfd" d="M1230.2 1370.02c13.13-.19 140.35-1.07 145.05.75-5.84 5.24-9.43 8.02-15.84 12.59-46.18 1.53-97.97.37-144.62.26 5.13-4.7 10.35-8.55 15.41-13.6"/><path fill="#fdfdfd" d="M826.273 1243.34c12.517.94 30.059.45 42.906.42l77.424-.21 283.827.42c-5.58 4.31-10.72 8.28-16.04 12.89l-13.29.03c-33.33-2.52-86.28-.82-120.47-.74l-234.486.79-.06 126.58c-51.431-.23-105.657-.96-156.982.08l-.073 58.43c-6.777-.03-12.346-.12-19.103.54l.001-72.61 156.424-.17z"/></svg>