<svg xmlns="http://www.w3.org/2000/svg" width="2048" height="2048" viewBox="0 0 2048 2048"><path fill="#090708" d="M0 0h2048v2048H0z"/><path fill="#8591a4" d="M897.069 306.214c35.9-.569 72.647.576 108.551 1.225 14.09.255 47.84 38.078 56.43 48.63-6.98-20.429-14.01-24.2-12.68-47.286 32.17-1.062 79.26 1.97 112.24 2.981 57.87 1.921 115.79 2.01 173.67.267-2.8 6.583-5.36 14.214-7.8 21.024l3.34 1.918c7.09-7.2 15.99-15.786 22.45-23.335 56.74-1.098 114.35-4.784 170.88-4.84 2.18 4.052 4.14 7.752 6.14 11.912-2.51 16.161-4.5 32.783-7.84 48.717 17.62-17.587 44.33-30.792 65.29-44.632 3.01 4.614 6.04 9.326 9.11 13.895-7.47 5.659-7.65 10.307-10.47 19.52 24.38-10.323 30.16-19.58 32.72-45.703 37.61 9.405 112.2 30.164 123.25 73.036-1.85 6.054-4.06 10.389-6.82 16.033-32.07 65.685-45.93 144.671-56.74 216.468-2.75 18.471-5.09 37-7.01 55.574-3.35 29.625-2.12 45.045-22.73 69.029l-2.34-.97c1.68-2.146 3.37-5.062 3.93-7.76.67-3.07-.01-6.28-1.86-8.818-10.67-14.814-68.04-14.258-89.62-17.293 3.1-13.205 6.12-20.026 13.58-31.092-16.9 6.554-28.04 15.738-42.36 26.641-24.96-4.079-58.51-5.802-84.24-7.402 3.5-20.184 10.38-23.559 16.27-40.064 4.56-12.77 8.71-37.836 11.59-52.213-16.68 30.592-36.01 44.303-61.14 66.329-8.72 7.65-13.47 16.649-24.43 25.568a2733 2733 0 0 0-104.43-2.809l-8.09-13.369c4.04-3.737 7.24-7.497 10.85-11.607-10.87-16.533-12.19-26.299-18.48-44.052-3.68 10.807-8.81 25.144-17.16 33.328-7.11 6.964-29.52 19.589-38.32 9.569-7.05-8.03 3.21-16.892 10.36-20.301l-.84-1.691c-3.33 1.368-6.6 2.878-9.8 4.524-18.69 9.58-37.33 22.987-44.01 43.674-23.95.418-47.97 1.006-71.91.956-29.03-.061-59.18-2.192-88.09-1.803-53.732.722-109.592 2.442-163.045 7.828.088-.353.185-.705.264-1.06.129-.58.23-1.165.36-1.745.482-2.162-.749-44.453-1.22-48.915-2.202 4.55-5.359 13.839-8.522 17.758-3.881 4.81-18.977 13.358-25.434 14.102-1.572.182-1.53-.446-2.856-1.865 1.127-2.106 8.877-7.835 11.644-10.584l.735-.741a165 165 0 0 0-6.955 2.625c-16.009 6.558-20.332 18.997-26.488 33.617-17.843 1.923-45.263-1.694-49.697 23.487-1.242 7.051 2.854 10.297 7.106 15.402l-.825 1.055c-5.491.12-10.535-1.096-14.495-5.132-17.049-17.376-8.046-52.201-7.861-74.809.696-85.165-9.276-170.187-26.603-253.486-2.692-12.943-8.775-25.858-8.649-39.432.689-18.477 29.048-35.423 44.867-40.12 41.625-12.359 94.086-19.573 137.208-20.156 18.111 23.119 29.379 34.203 51.439 52.929-4.946-19.097-10.254-38.646-22.414-54.536"/><path fill="#1e1e25" d="m1327.48 333.055 3.34 1.918c-2.56 3.129-4.87 6.249-7.38 9.39 1.4-3.779 2.67-7.524 4.04-11.308"/><path fill="#646772" d="M1222.32 642.641c.99-.451 3.94-2.334 5.02-1.087-.17 1.424-3.18 2.389-4.18 2.778z"/><path fill="#8591a4" d="M468.382 722.946c26.971-18.441 45.598-35.745 60.52-64.638 9.936 58.891 22.659 117.757 31.312 177.042 6.137 42.041 28.54 65.163 73.127 56.482-1.753 6.505-3.888 13.186-5.859 19.652 18.186-4.223 41.326-5.47 61.227-9.907-1.592 6.631-2.882 14.691-4.141 21.502 22.455 3.317 38.201 2.157 57.945-9.496l.801 1.669c-32.537 27.619-79.465 40.823-120.368 50.671l15.141-25.997c-15.518 7.521-27.367 15.287-38.126 28.873l-19.113 3.845c3.208-10.281 3.981-15.064 5.848-25.563l-3.861-.304c-14.06 13.956-28.622 31.533-42.41 44.084-5.764 5.247-27.61 12.489-37.018 20.479-28.382-3.41-45.589-13.412-70.639-25.772 7.829 14.602 10.972 17.922 26.54 25.162l-1.532 13.52c-33.036 9.86-22.007 17.28-60.808 14.44a952 952 0 0 1-7.3 30.8c-48.719 16.97-102.86 95.33-125.193 141.12-14.449 29.62-23.611 60.96-32.894 92.22-2.029-3.55-1.155-8.75-1.663-13.29-.351-6.36 1.482-21.21 2.295-28.13 2.465-21.12 5.486-42.17 9.057-63.14l-12.05-2.13c4.986-11.05 8.953-25.71 13.483-37.19 12.681-32.13 26.001-76.14 41.559-106.28a3859 3859 0 0 1-41.137 33.32 3346 3346 0 0 0-9.652-41.18l15.286 4.75c3.531-17.58 16.139-36.64 25.467-52.127-17.178 2.887-34.271 5.267-51.571 8.277 3.029 2.31 6.588 4.72 9.726 6.96-55.194 20.86-73.674 33.02-121.843 66.01 32.666-44.72 70.568-89.964 104.123-134.993l28.694-9.85a2431 2431 0 0 1 9.466-27.886c40.21-13.802 76.944-26.416 118.206-36.773-15.843-8.448-34.015-18.536-50.245-25.703 42.469-27.627 86.335-59.439 127.122-89.436 5.201 6.219 8.283 9.976 12.631 16.739 12.391-19.037 20.405-25.945 7.847-47.832"/><path fill="#1e1e25" d="M582.835 946.777c3.02-4.726 4.157-7.328 3.861.304z"/><path fill="#8591a4" d="m365.774 1139.95 3.617-1.76c8.618 59.23 41.19 106.85 70.849 156.76 51.81 87.2 92.258 173.03 86.424 276.35a643 643 0 0 0-30.543-71.04c-2.136 7.88-16.61 64.99-20.628 67.76-2.082-.3-2.877-.8-4.807-.1.63 2.74 4.306 18.58 4.11 20.09-2.307 17.79-9.898 64.58-15.673 79.69-3.119-13.38-6.909-26.5-10.612-39.73-4.885 8.71-19 40.38-23.622 44.11l-1.974.08c-2.186.1-5.297.24-6.527 1.95-2.336 3.23-7.691 12.64-8.13 16.17l5.922 1.1c1.793 7.77-54.798 75.77-64.287 85.38l-2.15-1.82c25.228-50.99 30.841-108.52 31.227-164.57-7.329 7.75-12.489 12.9-20.448 20.08 9.215-17.39 13.158-33.86 18.64-52.44.179-.61 7.444-10.31 8.567-12.13-.063-6.77-5.282-6.5-5.125-14.56.637-32.67-.7-65.47-3.041-98.05-.44-6.12-.863-11.82-2.147-17.85-9.674 45.9-17.655 65.16-35.006 108.57-5.45-23.37-11.648-45.66-19.048-68.56-4.191-12.97-13.952-31.28-16.431-43.58-1.019-5.06.381-28.04.678-34.71-5.516 6.02-11.111 12.67-16.503 18.86-12.93-24.67-14.698-43.18-18.622-70.04 6.338 2.29 12.29 5.47 18.322 8.49-4.116-22.39-1.061-34.68 1.976-56.95l6.093-47.36c16.812 9.92 34.712 21.99 51.033 32.87-9.215-24.41-5.094-40.56-1.906-65.97 9.347 3.63 19.041 8.12 28.517 11.93-4.77-33.3-6.863-55.69-8.745-89.02"/><path fill="#8591a4" d="M1795.88 659.535c27.88 40.598 40.81 53.327 78.82 83.578-7.32 17.13-8.97 22.594-7.32 41.47 8.47-15.176 17.94-16.432 34.18-21.624 17.17 17.216 38.2 40.297 52.16 60.255-10.46-.158-21.17-.197-31.6-.484 9.08 18.761 15.86 33.48 22.18 53.383 6.3-5.395 14.42-12.781 20.87-17.681 1.01 11.156 1.8 19.973 1.83 31.222a2530 2530 0 0 0-16.54 22.236l18.08.136c4.98 23.933 7.95 46.4 2.74 70.588a154.4 154.4 0 0 1-8.88 27.996c-12.94 30.57-31.11 56.88-42.03 88.85-10.8 31.66-13.05 63.82-25.23 94.73-7.91 18.97-20.05 39.42-32.01 56.32 7.86-22.98 23.33-72.16 24.11-96.24-4.24-2.67-4.69 1.15-7.85-2.37.84-23.07 4.89-66.67 7.57-90.23a1247 1247 0 0 0-34.33 16.64c-4.3-30.04-6.93-48.7-6.49-78.968-.11-1.597-.2-3.196-.25-4.796-.11-3.593-.07-4.112-.66-7.598l-18.39 52.012c-19.43-29.57-45.51-57.338-59.18-90.551 5.1-4.344 6.39-5.652 10.63-10.834.53-5.133.81-10.93 1.17-16.131-10.94 3.77-24.05 9.937-32.89 17.442-9.3.06-17.83-.243-27.09-.621a762 762 0 0 0-13.45-17.47c5.51-2.364 11.18-5.071 16.64-7.586-12.6.087-25.53-.168-38.16-.276-3.67-3.855-8.55-10.132-12.08-14.423 7.2-2.556 14.33-5.263 21.41-8.119-1.57-1.272-1.75-1.445-3.4-2.492l-26.57-.27-3.55-8.881c-28.99-1.984-46.12-3.214-75.55 1.64 50.84-48.888 169.23 8.931 181.65-45.798 11.67-51.398 16.35-121.304 29.46-175.055"/><path fill="#424350" d="M1845.23 986.948c.21-1.142.11-1.42.89-2.125.31-.048.16-.072.45.081 1 1.829-.04 11.955-.43 14.438-.11-1.597-.2-3.196-.25-4.796-.11-3.593-.07-4.112-.66-7.598"/><path fill="#1e1e25" d="M1690.44 887.899c1.65.037 11.04.299 3.4 2.492-1.57-1.272-1.75-1.445-3.4-2.492"/><path fill="#8591a4" d="M628.802 486.585c-12.049-39.797 25.65-44.825 54.054-49.807 7.697 56.253 14.729 128.639 16.008 185.174.37 21.078.419 42.161.148 63.241-.624 34.319-7.921 67.957 32.87 81.642 18.87 6.36 39.702 11.918 59.707 13.761 23.173 2.135 47.354 8.491 39.77-23.879-4.784-8.767-5.298-10.276-12.04-18.153 13.224 7.524 45.383 36.865 45.607 52.285-5.947 5.031-11.003 5.379-18.591 5.32-56.115-.432-241.527-50.371-262.887 25.452 8.197 27.138 34.506 35.109 60.679 33.043 17.632-1.392 26.311-14.818 36.327-27.98 14.181-18.636 35.313-12.224 50.752 1.123 17.907 17.025 23.588 47.514 23.968 71.375-20.067-27.001-47.814-58.488-85.076-46.657-18.901 6.826-34.082 12.097-54.424 7.19-21.282-4.65-37.877-20.601-41.107-42.602-12.631-86.045-24.137-174.587-52.471-257.109-4.822-14.045-18.259-31.254-14.881-45.788 3.341-14.375 21.507-23.411 33.225-30.152 5.093 7.648 7.273 9.7 13.983 15.5l3.863-27.934c16.106-7.41 34.264-14.219 50.857-20.8.015 18.341 6.313 24.783 19.659 35.755"/><path fill="#8a8fa0" d="M819.319 738.564c13.224 7.524 45.383 36.865 45.607 52.285-.694-.275-4.838-1.46-4.687-2.543 1.037-.496 2.007-.004 2.473-1.195.151.737-10.088-14.609-10.259-14.722-4.089-2.71-16.062-23.31-21.094-15.672-4.784-8.767-5.298-10.276-12.04-18.153"/><path fill="#8591a4" d="M1530.9 1263.69c38.67-36.08 75.57-58.46 124.5-78.4 54.29-22.11 135.39-42.69 158.55-102.5 6.95 22.1 15.47 54 17.4 76.75-14.99 13.04-11.64 15.28-8.94 34.18 1.49 10.4-3.57 19-9.94 26.84 15.96-7.77 28.26-17.96 41.9-28.99-4.93 49.89-18.27 81.34-48.41 121.09-1.52-8.26-2.9-12.9-6.09-20.51-1.93 4.19-9.6 21.94-11.77 24.43-28.39 32.6-78.19 61.92-115.48 81.18 20.46-25.09 21.54-34.3 26.08-65.68.9-6.24 6.68-23.92 8.78-30.42l-1.72-3.39c-15.69 27.39-37.26 36.22-59.59 55.39-4.11 3.53-15.61 22.59-19.48 28.14a512 512 0 0 1-29.81 38.12c-1.72-7.06-3.26-13.81-5.54-20.72-32.17 34.13-77.87 71.07-121.43 89.59l.77-4.81c22.73-22.81 34.17-38.84 44.3-69.33l15.51.31c-.48-2.74-1.8-9.93-1.46-12.38 1.7-12.36 12.98-27.42 19.82-37.98-18.54 1.76-28.56 3.86-46.36 8.24 18.01-26.48 33.28-59.66 61.08-75.38 5.46-25.57 9.36-31.55 24.42-52.58-24.81 5.14-34.41 8.7-57.09 18.81"/><path fill="#1e1e25" d="M1705.76 1298.27c.83-1.87 1.71-3.37 2.56-5.22l.95.3-.03-1.36-.29.05c.15-.11.3-.21.45-.32 1.04.52-1.65 8.85-1.92 9.94z"/><path fill="#8a8fa0" d="M1730.6 449.742c29.52 4.672 85.67 22.668 91.25 59.635 2.52 16.658-8.74 35.979-14.58 51.061-3.21 8.296-6.16 16.55-8.89 25.237a923.7 923.7 0 0 0-34.57 158.963 611 611 0 0 0-3.58 39.861c-1.76 29.876.27 48.886-34.03 58.833-31.72 9.195-63.09.297-95.18 3.364-21.65 2.07-34.8 14.726-47.52 30.793 2.61-28.157 16.77-57.194 48.39-57.178 27.82.014 55.98 12.218 83.86 14.421 40.31 2.325 53.53-37.476 10.25-50.678-43.98-13.418-84.46-7.531-127.82 5.533-10.71 3.229-46.59 13.385-53.58-2.084-2.77-8.751 26.33-43.212 32.41-50.755-4.16 9.783-17.38 33.88-10.51 42.602 11.57 3.078 27.26-7.347 39.4-11.46 19.59-7.128 45.96 3.407 64.14-6.247 16.09-8.546 15.4-39.427 16.92-55.143 1.97-19.522 4.28-39.011 6.91-58.457a2280 2280 0 0 1 36.73-198.301"/><path fill="#646772" d="M365.774 1139.95c-1.368-10.56-.875-22.75-.186-33.39l.227-.14c.136.07.272.13.408.2-.32-.75 2.767 28.75 3.168 31.57z"/><path fill="#8a8fa0" d="M228.619 1303.6c.48-5.25.401-8.74 1.299-14.06.508 4.54-.366 9.74 1.663 13.29-.488 2.25-.942 4.43-1.478 6.67-.11 1.61-.15 2.16-1.023 3.64l-.335-.02-.077.16c-1.254-1.21-.338-8.04-.049-9.68"/><path fill="#424350" d="M228.619 1303.6c.447 2.17.889 3.78 1.484 5.9-.11 1.61-.15 2.16-1.023 3.64l-.335-.02-.077.16c-1.254-1.21-.338-8.04-.049-9.68"/><path fill="#8a8fa0" d="M1469.91 1488.79c-1.05.33-5.26 2.6-6 1.5.39-1.25 5.55-5.23 6.77-6.31z"/><path fill="#1e1e25" d="M745.931 910.464c.047-.055 6.068-7.916 5.779-4.091-.114 1.514-4.421 5.459-5.699 6.801z"/><path fill="#8a8fa0" d="m347.743 1774.94 2.15 1.82c-.52.62-4.405 5.65-5.385 5.45-.591-.94 2.744-6.35 3.235-7.27"/><path fill="#646772" d="m1646.71 739.677 2.34.97-1.11.624c-.48.276-3.72 2.482-4.16 1.289.46-1.145 2.05-2.151 2.93-2.883"/><path fill="#646772" d="M742.513 913.583c1.235-1.368 2.012-1.957 3.418-3.119l.08 2.71q-1.359 1.025-2.697 2.078z"/></svg>