<svg xmlns="http://www.w3.org/2000/svg" width="2048" height="2048" viewBox="0 0 2048 2048"><path fill="#120e16" d="M0 0h2048v2048H0z"/><path fill="#3ee8d3" d="M1002.96 442.314c321.56-11.625 591.62 239.708 603.09 561.276 11.48 321.56-239.98 591.5-561.55 602.82-321.358 11.32-591.079-239.94-602.544-561.29s239.663-591.189 561.004-602.806"/><path fill="#120e16" d="M992.603 504.916c6.749-1.049 11.977-1.066 18.477-1.741l.06 297.404-12.634 1.189a222.3 222.3 0 0 0-115.37 50.563c-50.542 42.822-74.812 96.415-80.254 161.519l-297.906.17c5.717-134.35 52.317-254.05 147.215-350.914a524.74 524.74 0 0 1 272.372-149.163c19.497-3.952 48.062-8.81 68.04-9.027"/><path fill="#0a1117" d="M992.603 504.916c6.749-1.049 11.977-1.066 18.477-1.741l.06 297.404-12.634 1.189c2.904-2.559 6.434-2.839 10.184-3.847.89-4.145.61-21.279.61-26.665l-.17-60.89-.12-137.846c0-21.359.83-46.643.08-67.678-6.68.445-9.788.511-16.487.074"/><path fill="#120e16" d="M1039.37 503.69a526.3 526.3 0 0 1 217.04 56.448c124.23 62.867 218.35 172.579 261.58 304.93 13.66 41.527 21.31 83.443 24.72 126.952.39 4.931 1.85 18.43.03 22.03l-297.76-.11c-.38-43.218-19.57-92.852-46.33-126.34-43.34-54.23-92.18-77.924-159.05-86.691-.81-27.184.04-59.188-.05-86.806z"/><path fill="#120e16" d="m504.875 1042.96 233.916-.04c8.853 0 60.2-1.27 64.177.08l.846 2.05c3.969 104.75 103.459 198.55 207.456 202.05l-.21 296.93c-31.533-1.79-60.784-4.49-91.856-10.86a524.22 524.22 0 0 1-285.595-167.07 511.6 511.6 0 0 1-120.03-245.71c-2.449-13.27-6.688-40.14-6.614-53.32-1.073-4.81-1.705-18.57-2.09-24.11"/><path fill="#0a1117" d="m504.875 1042.96 233.916-.04c8.853 0 60.2-1.27 64.177.08l.846 2.05c-11.429-1.03-28.135-.54-40.177-.53l-69.065.08c-61.531.07-126.124-.89-187.311.63-.07 4.19.168 18.72-.296 21.84-1.073-4.81-1.705-18.57-2.09-24.11"/><path fill="#120e16" d="m1245.07 1042.61 298.15.25c-1.3 40.77-7.59 81.23-18.73 120.47-38.49 138.67-128.15 246.72-252.6 317.17-78.06 41.38-144.64 58.49-232.29 63.16-1.19-97.95-.05-198.29-.2-296.47a221.8 221.8 0 0 0 124.13-49.54c49.25-40.15 74.99-92.58 81.54-155.04"/><path fill="#120e16" d="M1009.93 831.484c106.58-7.841 199.29 72.329 206.9 178.926 7.62 106.6-72.74 199.14-179.36 206.54-106.298 7.37-198.505-72.7-206.101-178.99-7.596-106.285 72.287-198.659 178.561-206.476"/><path fill="#3ee8d3" d="M1013.95 932.003c52.23-5.597 99.12 32.178 104.77 84.407 5.65 52.22-32.08 99.15-84.3 104.85-52.291 5.72-99.304-32.08-104.963-84.38s32.183-99.273 84.493-104.877"/><path fill="#120e16" d="M1021.14 960.692c36.17-1.641 66.91 26.146 68.92 62.288 2.01 36.15-25.46 67.17-61.59 69.55a66.03 66.03 0 0 1-59.47-29.55 66.04 66.04 0 0 1-3.688-66.317 66.03 66.03 0 0 1 55.828-35.971"/></svg>