<svg xmlns="http://www.w3.org/2000/svg" width="2048" height="2048" viewBox="0 0 2048 2048"><path fill="#24252b" d="M0 0h2048v2048H0z"/><path fill="#080406" d="M696.782 950.847c9.713-22.591 21.576-46.75 31.979-69.248l64.599-140.008 140.275-306.878c6.333-13.53 18.223-30.516 33.084-33.958 27.35-6.333 57.311-8.937 85.041-13.253l258.49-39.053c12.25-1.884 88.4-14.954 93.66-12.471.32 5.682-10.1 19.187-13.79 24.651 5.44-1.026 11.16-2.193 16.6-3.082-79.52 117.653-162.06 234.15-241.09 352.161 53.4-11.212 107.81-28.185 161.32-40.25 26.13-5.894 53.35-12.614 79.23-19.432-8.27 11.086-17.26 21.316-25.27 32.672 7.89-2.133 15.16-4.024 23.13-5.787l-146.02 169.395c-38.71 45.065-79.76 93.954-120.06 137.474 9.63-1.607 19.49-4.25 29-6.53 81.58-19.574 163.12-41.545 245.12-59.164-8.34 9.56-16.97 18.773-25.37 28.46l11.24-3.461c4.94-1.61 9.76-3.215 14.77-4.608l-7.7 7.859-532.452 550.314-129.319 133.95c-21.06 22.12-49.197 53.79-70.664 74.1 7.288-11.95 24.483-37.9 30.03-48.93-5.153 3.94-18.067 17.32-23.24 22.31-17.801 17.15-35.266 36.37-53.471 52.97l215.463-390.89c4.318-7.7 9.665-15.14 13.836-22.83 23.043-42.49 47.946-83.94 72.082-125.81 4.893-8.49 10.379-17.51 14.501-26.33-37.288 11.07-75.257 23.38-112.428 35.05-31.825 10-65.042 19.89-96.606 30.39 2.541-5.07 5.144-10.48 7.796-15.46-12.422 3.69-24.283 7.78-36.537 11.97 15.16-26.62 35.776-56.1 52.149-82.69 50.876-82.61 107.881-164.047 158.278-246.734-61.209 17.943-129.909 37.436-190.003 57.45 2.884-5.678 5.467-10.694 7.905-16.59-10.74 3.162-25.431 7.983-35.558 12.271"/><path fill="#eb995c" d="M1397.95 943.085c4.94-1.61 9.76-3.215 14.77-4.608l-7.7 7.859-532.452 550.314-129.319 133.95c-21.06 22.12-49.197 53.79-70.664 74.1 7.288-11.95 24.483-37.9 30.03-48.93 6.937-8.52 21.331-22.7 29.535-31.08a4513 4513 0 0 0 48.106-49.52 13168 13168 0 0 1 172.492-179.95l266.242-276.3 109.97-113.35c19-19.487 38.37-40.119 57.75-59.024z"/><path fill="#eb995c" d="M1380.91 682.698c7.89-2.133 15.16-4.024 23.13-5.787l-146.02 169.395c-38.71 45.065-79.76 93.954-120.06 137.474l-19.61 5.304 191.74-223.67c21.08-24.293 49.32-60.659 70.82-82.716"/><path fill="#eb995c" d="M1390.12 360.629c5.44-1.026 11.16-2.193 16.6-3.082-79.52 117.653-162.06 234.15-241.09 352.161-5.78.61-11.82 2.518-17.48 4.054 51.42-78.922 110.03-160.736 163.65-238.582l54.91-80.293c5.14-7.541 18.31-28.33 23.41-34.258"/><path fill="#eb995c" d="M740.548 1215.17c3.162-.58 18.474-5.99 22.328-7.23l50.138-15.97c45.634-14.6 94.506-28.83 139.431-44.07-2.71 5.4-7.018 12.51-10.659 17.29-37.288 11.07-75.257 23.38-112.428 35.05-31.825 10-65.042 19.89-96.606 30.39 2.541-5.07 5.144-10.48 7.796-15.46"/><path fill="#eb995c" d="M732.34 938.576a6027 6027 0 0 1 191.759-56.727 994 994 0 0 1-9.661 15.867c-61.209 17.943-129.909 37.436-190.003 57.45 2.884-5.678 5.467-10.694 7.905-16.59"/><path fill="#f8f9f8" d="M1337.01 376.316c2.03-.534 1.01-.581 3.05.233-1.81 5.025-14.6 22.15-18.71 28.085l-43.05 62.247-121.13 175.894c-28.6 41.281-60.93 86.177-87.69 128.16 84.28-25.688 173.31-44.065 256.82-71.238-99.69 115.587-199.76 233.877-300.91 348.063 66.02-17.53 132.15-34.64 198.39-51.313 28.12-7.111 68.81-15.548 95.31-24.545-17.13 20.057-45.35 47.288-64.23 66.548L1150 1146.81a38223 38223 0 0 0-379.97 398.98c-9.697 10.93-22.331 25.35-32.753 35.02l279.463-486.53c-31.571 9.66-63.634 20.64-95.169 30.73a11970 11970 0 0 0-149.257 47.68c23.388-32.11 51.13-78.03 73.129-112.33a24568 24568 0 0 1 149.781-232.753c-34.755 11.37-73.599 22.062-108.722 32.352a6486 6486 0 0 1-133.032 38.673l214.371-466.174c122.409-18.931 247.239-35.724 369.169-56.142"/><path fill="#cacac9" d="m1211.71 401.28 117.7-18.115a6707 6707 0 0 1-59.08 85.198c-7.18 10.261-16.71 25.395-23.99 34.851-18.89 29.374-189.94 273.749-190.25 276.21 2.05 1.32 3.34 1.02 5.84.226 22-7.011 44.26-13.028 66.51-19.18 6.18-1.708 17.12-5.541 23.19-6.067 50.48-14.428 107.07-30.423 157.95-43.191-85.32 96.906-168.75 198.074-254.77 294.058-9.37 11.84-19.75 23.05-29.65 34.42-3.14 3.61-14.84 14.79-16.38 17.9l1.08.66-1.26 1.62c5.85-.26 5.85-2.88 12.6-1.72l.48.96-1.07 1.03c-3.28 3.19-4.12 2.72-4.77 7.51-1.35 10.13-5.22 9.57-5.54 21.25l-4.55 1.35.38 1.07c-23.605 10.86-59.043 18.06-84.249 27.08-8.471 3.03-43.842 15.48-50.686 16.08-7.729 3.05-20.911 6.83-29.138 9.46l-55.387 17.84c9.177-15.2 20.33-30.93 29.969-46.12l82.717-128.897c5.372-9.961 18.113-28.647 24.672-38.955l61.937-95.47c7.41-11.346 17.035-24.249 23.435-35.649-18.735 5.226-38.488 12.939-57.423 18.224-7.259 2.026-17.406 5.828-24.68 6.651-52.469 17.016-110.759 33.235-163.988 48.625 42.091-88.505 82.813-180.06 124.317-269.253.959-5.324 11.792-26.878 14.804-33.119 23.848-49.407 45.041-100.952 69.684-149.9 22.583-2.283 60.706-11.76 80.746-12.638 14.34-2.472 28.91-3.898 43.12-6.637 19.26-3.593 43.47-5.85 63.38-9.126 11.2-1.843 42.53-7.888 52.35-8.236"/><path fill="#a2a2a2" d="M887.626 620.936c2.097 7.401-6.474 10.582.455 17.826.091 3.649.105 21.169.712 23.362 2.404 8.679 3.466 9.558 4.307 19.327l1.43-1.172 2.085 1.757c.434 8.415 2.724 17.013 3.606 25.239.915 8.527-1.527 6.592 3.64 14.272.005 6.755-.446 14.295.87 20.9.985 4.943 4.104 10.164 4.686 15.361 1.876 16.765 5.661 33.07 7.034 49.966.557 6.855 6.741 17.734 7.331 25.066.271 1.455-1.958 6.842-2.92 8.429l1.393.783c2.209-.75 2.758-1.025 5.042-.488-52.469 17.016-110.759 33.235-163.988 48.625 42.091-88.505 82.813-180.06 124.317-269.253"/><path fill="#a2a2a2" d="M1151.63 754.403c50.48-14.428 107.07-30.423 157.95-43.191-85.32 96.906-168.75 198.074-254.77 294.058-3.2-4.23.9.23 1.36-5.531l-2.49-2.362.15-1.755c4.41-3.835 12.12-13.064 13.18-18.696 2.14-11.448 6.91-22.04 10.66-33.228 1.91-1.25 3.06-2.019 4.83-3.452.51-12.615 10.92-22.25 16.36-34.895 5.5-12.785 3.33-13 5.96-23.311l3.26-2.979c5.94-5.441 4.75-11.907 8.58-18.906 9.75-17.788 17.68-36.074 25.64-54.673 3.26-7.594 3.74-15.067 5.94-22.544 2.63-1.454 3.44-1.825 5.82-3.745-1.43-10.404 7.65-12.025 8.18-25.642l-.99-.561c-3.45 1.983-5.89 1.965-9.62 1.413"/><defs><linearGradient id="a" x1="1332.177" x2="1241.971" y1="425.61" y2="441.955" gradientUnits="userSpaceOnUse"><stop offset="0" stop-color="#7d7d7d"/><stop offset="1" stop-color="#adadad"/></linearGradient></defs><path fill="url(#a)" d="m1211.71 401.28 117.7-18.115a6707 6707 0 0 1-59.08 85.198c-7.18 10.261-16.71 25.395-23.99 34.851l-1.31-.273c3.37-6.339 7.06-11.703 11.49-17.37 1.85-2.368-7.17-6.534-5.32-11.345.28-.723-.75-6.741-1.03-8.143l-1.62 1.596-1.46-1.443c-2.44-6.696-1.65-15.525-1.29-22.657l-1.8-.746-.31-1.221 1.91-.648.33-.974-3.61-4.109c.2-13.476-12.72-27.542-2.16-35.324l.02-1.171c-8.7-1.525-18.82 4.152-28.47 1.894"/><path fill="#a2a2a2" d="M1052.86 425.279c14.34-2.472 28.91-3.898 43.12-6.637l4.86.854c-5.62 1.65-12.44 1.859-18.43 2.716 2.91 8.668 5.11 14.02 10.24 22.094 2.84 4.463 1.44 29.776 3.07 32.969 7.99 15.68 9.13 25.559 8.62 43.422-.08 2.812 1.53 4.715 3.06 7.027l2.16 3.304c-.22.399-2.08 3.829-2.08 3.829 7.12 24.449 5.88 49.74 10.21 74.639.22 1.269 1.03 2.696 1.6 3.855 3.61 5.924.48 29.272 3.34 32.824l-.94 1.004-1.75-.313c-3.25-17.532-9.01-34.831-13.57-52.024l-11.73-42.598c-3.62-12.942-5.31-22.83-11.96-34.972-.72-1.31-1.33-12.528-1.63-15.032a239 239 0 0 0-4.06-23.02c-6.2-27.186-8.85-23.91-10.64-53.629-4.25-1.518-7.13 1.425-13.49-.312"/><defs><linearGradient id="b" x1="799.156" x2="857.775" y1="1098.239" y2="1107.373" gradientUnits="userSpaceOnUse"><stop offset="0" stop-color="#90908f"/><stop offset="1" stop-color="#b0b0b0"/></linearGradient></defs><path fill="url(#b)" d="m899.356 986.763.78 1.569c-6.921 11.668-28.753 43.728-36.142 57.958-.514.99 3.698 9.38 1.739 16.08-2.426 8.29-12.038 38.25-12.667 44.56l-3.477 3c-.432 8.1.655 16.79-1.309 24.09-.54 2.01-.319 2.83-.066 4.89l1.052.8c6.319-1.25 17.537-6.31 21.929-5.23-7.729 3.05-20.911 6.83-29.138 9.46l-55.387 17.84c9.177-15.2 20.33-30.93 29.969-46.12z"/><path fill="#a2a2a2" d="M1009.86 1058.25c17.12-4.12 36-10.31 54.02-14.78.47 1.54.77 2.94 1.06 4.52.31 1.66.61 2.17 1.38 3.55 7.1 12.9 2.8 118.42 3.13 140.67.13 8.72 2.62 16.79 2.11 25.53l1.77-1.03 1.04.54-124.932 130.47c-18.818 19.65-39.447 40.41-57.596 60.48-8.934 11.82-34.619 36.36-46.186 48.51-7.367 7.74-36.969 40.71-42.33 44.87-.161-.56-.321-1.12-.482-1.69-1.211.23-.477 1.11-1.711.55-1.176-2.11-.57-12.43-1.425-16.57 2.096-6.11 92.29-161.73 95.994-166.01 42.66-77.92 89.333-154.8 132.278-232.79-6.88 2.36-14.77 4.33-21.85 6.25l-.38-1.07 4.55-1.35c.32-11.68 4.19-11.12 5.54-21.25.65-4.79 1.49-4.32 4.77-7.51l1.07-1.03-.48-.96c-6.75-1.16-6.75 1.46-12.6 1.72z"/><defs><linearGradient id="c" x1="805.148" x2="875.388" y1="1419.674" y2="1425.21" gradientUnits="userSpaceOnUse"><stop offset="0" stop-color="#bcbdbb"/><stop offset="1" stop-color="#e2e2e2"/></linearGradient></defs><path fill="url(#c)" d="M799.708 1483.87c2.096-6.11 92.29-161.73 95.994-166.01-.986 8.48-11.865 20.2-12.685 26.31-1.936 14.45-5.641 28.73-7.9 42.86-2.507 15.67-.827 28.67-7.484 44.21 7.152-6.82 16.558-19.15 24.209-23.04-8.934 11.82-34.619 36.36-46.186 48.51-7.367 7.74-36.969 40.71-42.33 44.87-.161-.56-.321-1.12-.482-1.69-1.211.23-.477 1.11-1.711.55-1.176-2.11-.57-12.43-1.425-16.57"/><path fill="#cacac9" d="M1195.63 1009.77c14.03-2.91 29.85-7.53 43.88-11.192l59.85-15.242c-14.3 16.422-31.82 33.904-47.11 49.754a4075 4075 0 0 1-67.84 69.42c-8.42 10.76-37.95 39.29-49.16 51.1l-42.51 45.03c-4.01 4.18-14.78 15.91-18.37 18.61l-1.04-.54-1.77 1.03c.51-8.74-1.98-16.81-2.11-25.53-.33-22.25 3.97-127.77-3.13-140.67-.77-1.38-1.07-1.89-1.38-3.55-.29-1.58-.59-2.98-1.06-4.52 6.08-2.43 40.66-10.56 48.23-12.32 28.42-6.62 55.36-13.98 83.52-21.38"/><defs><linearGradient id="d" x1="1277.2" x2="1194.432" y1="1051.652" y2="1027.951" gradientUnits="userSpaceOnUse"><stop offset="0" stop-color="#858585"/><stop offset="1" stop-color="#a8a8a8"/></linearGradient></defs><path fill="url(#d)" d="M1195.63 1009.77c14.03-2.91 29.85-7.53 43.88-11.192l59.85-15.242c-14.3 16.422-31.82 33.904-47.11 49.754a4075 4075 0 0 1-67.84 69.42c-1.08-1.77 2.21-8.49 2.56-11.73 2.83-26.11 6.15-53.57 12.31-79.21z"/><path fill="#a2a2a2" d="M799.708 1483.87c.855 4.14.249 14.46 1.425 16.57 1.234.56.5-.32 1.711-.55.161.57.321 1.13.482 1.69-3.019 4.33-31.004 34.05-36.421 39.85 7.397-15.79 23.549-42.29 32.803-57.56"/></svg>