<svg xmlns="http://www.w3.org/2000/svg" width="2048" height="2048" viewBox="0 0 2048 2048"><path fill="#252531" d="M0 0h2048v2048H0z"/><path fill="#010104" d="M1695.77 299.919c2.37 2.961 9.73 31.778 11.54 37.86 21.25 71.418 41.5 148.83 49.03 222.962 5.9 58.156-1.93 138.825-40.66 184.589 12.12 33.87 25.43 80.019 31.35 114.943a335.67 335.67 0 0 1-29.27 206.697c-3.87 7.68-8.23 16.48-12.55 23.86-4.08 6.96-15.68 17.58-17.77 25.05-2.97 10.58-5.7 22.03-8.41 32.72a906 906 0 0 1-15.07 53.15 1035.5 1035.5 0 0 1-141.35 289.13c-62.74 88.14-151.3 195.27-271.47 173.71-48.1-8.63-103.56-31.02-143.47-59.66-83.17 80.42-230.173 192.32-352.95 145.45-126.089-48.13-239.388-203.54-297.287-320.13-34.498-73.48-52.327-125.07-73.021-203.19-100.664-105.17-89.288-245.725-38.674-371.364a192 192 0 0 1-31.576-44.348c-59.15-114.563 2.456-322.789 39.666-437.617 107.335 67.666 244.541 125.212 369.219 148.208 5.748-24.391 11.665-50.978 18.353-75.013 13.306-47.823 30.363-94.339 48.144-140.632 19.595 8.223 45.483 21.865 66.226 31.285 120.235 54.604 227.9 98.789 361.73 106.165 46.04 2.509 92.2.304 137.79-6.579 105.04-15.427 260.57-65.587 340.48-137.246"/><defs><linearGradient id="a" x1="1630.903" x2="747.094" y1="1072.297" y2="739.031" gradientUnits="userSpaceOnUse"><stop offset="0" stop-color="#a4a4aa"/><stop offset="1" stop-color="#d9d6d9"/></linearGradient></defs><path fill="url(#a)" d="M823.065 393.68c29.034 14.385 60.6 26.261 90.704 38.247 90.661 36.097 186.551 67.649 284.571 74.457 128.21 8.904 261.33-17.406 379.77-66.119 25.29-10.399 60.94-25.938 83.81-40.747 18.76 44.888 21.43 91.467 11.51 138.712.67 18.264-12.91 40.759-24.94 53.745-14.68 15.835-40.53 30.601-62.61 31.698-113.42 5.637-203.86 93.899-229.66 201.543-1.71 7.128-2.98 14.387-4.69 21.508-.66 5.315-1.44 11.75-2.18 16.981-3.11 33.358-3.37 57.814 1.34 91.201 5.79 40.927 19.73 88.964 23.92 129.424 31.85 1.47 64.86 14.76 76.53 46.8-28.79-12.62-49.82-23.92-77.74-.91-11.3 10.72-16.5 19.79-34.41 19.61-4.61-.05-8.02-1.57-11.85-1.85-1.04-.72-2.07-1.37-3.14-2.06-10.98-6.21-19.72-15.13-29.75-22.47-20.89-15.28-45.51-17.45-69.98-10.61-25.86 7.25-53.99 20.33-78.43 31.49 13.73-68.04 22.45-86.53 67.44-140.6-95.13 50.44-125.27 100.05-157.97 201.64-10.92 33.92-13.15 57.57-13.92 92.86 29.69-47.37 102.68-101.06 156.61-113.45 3.14-.69 6.3-1.3 9.47-1.82 34.64-3.21 58.01 4.32 87.35 23.44 13.5 8.8 20.38 14.88 36.68 18.14l.86-.17c29.78-5.86 39.36-39.15 81.61-46.51 53.07-1.47 80.61 28.26 104.99 72.07 7.12-70.28-2.94-124.03-43.42-182.7-9.44-13.69-20.9-27.68-31.02-41.03-36.61-48.249-49.63-87.287-41.73-147.57 10.25-78.26 63.51-150.583 143.85-164.623 51.05-8.924 63.19 8.824 110.7-26.215 7.03-7.266 13.58-12.485 18.97-21.54 3.3-5.534 5.98-11.189 9.84-16.248-1.97 11.15-3.81 22.301-9.6 32.229-5.72 14.969-22.52 30.868-37.21 36.636-36.76 14.424-75.35 4.866-113.61 19.171-46.92 17.545-77.95 55.524-95.66 100.985a233 233 0 0 0-3.32 9.294c36.78 10.152 75.64 19.675 109.83 37.291 12.09 6.231 28.75 18.27 40.01 26.421 28.75-40.659 61.14-79.241 89.64-119.474 13.61 53.629 22.58 105.194 18.83 160.721-4.12 60.992-31.09 130.822-96.53 147.282-13.23 3.4-27.03 4.09-40.54 2.02 25.14 21.02 37.16 25.04 68.76 34.62-34.76 139.36-100.54 276.88-197.22 384.04-50.6 56.08-100.77 98.52-181.62 75.7-126.65-35.76-222.07-143.6-286.946-253.3-34.082-58.34-60.865-126.84-79.897-191.15a1062 1062 0 0 1 65.509-24.88c4.968-1.71 20.476-7.07 25.357-7.99l.947-2.88c-15.258.78-32.876-1.77-47.727-5.18a164.3 164.3 0 0 1-102.249-72.85c-46.66-75.886-30.953-153.293-11.538-234.1 9.084 4.097 21.344 10.898 30.51 15.664a961 961 0 0 1 135.662 85.229c23.64 17.621 45.592 35.921 68.822 53.521q.99-1.221 2.01-2.406c52.25-60.649 131.41-108.563 212.17-114.571-19.97-24.378-35.6-43.731-60.6-63.81a229.3 229.3 0 0 0-69.15-38.786c-12.59-4.279-33.16-9.813-46.72-10.486-41.51-2.059-85.273 9.255-125.581 17.955-19.962 3.93-40.875 10.684-61.086 12.713-28.649 2.876-58.972-4.849-79.385-26.1-20.519-21.362-28.509-53.383-31.166-82.224-2.915-14.989-3.026-57.872.09-72.696-.216-7.971 3.34-27.725 4.572-35.957 8.039-53.742 22.599-98.522 41.551-148.976"/><defs><linearGradient id="b" x1="1665.1" x2="721.362" y1="1137.219" y2="565.393" gradientUnits="userSpaceOnUse"><stop offset="0" stop-color="#0d7281"/><stop offset="1" stop-color="#04a4af"/></linearGradient></defs><path fill="url(#b)" d="M823.065 393.68c29.034 14.385 60.6 26.261 90.704 38.247 90.661 36.097 186.551 67.649 284.571 74.457 128.21 8.904 261.33-17.406 379.77-66.119 25.29-10.399 60.94-25.938 83.81-40.747 18.76 44.888 21.43 91.467 11.51 138.712-1.21-4.231-.29-9.267-.88-12.621-2.09-11.863-6.49-62.926-14.08-69.224l-7.77-33.576c-23.52 10.591-44.4 22.202-69.35 32.742a897 897 0 0 1-199.75 57.102c-204.01 33.56-333.28-11.362-518.291-86.415-.647 5.302-2.048 26.301-6.033 28.328-2.843 4.501-3.663 6.765-5.661 11.613 1.89 3.435 1.436 4.485.753 8.734-3.959 43.673-.67 88.765 27.951 123.485 41.903 50.834 101.339 38.078 157.691 34.286 76.6-5.154 149.89 24.868 198.04 84.766 7.36 8.818 13.33 17.684 20.28 26.521 3.81 6.939 12.66 24.1 16.96 29.984 20.41 47.436 24.49 74.187 24.37 125.606-4.41-11.038-16.4-40.861-23.57-48.933l-7.62 6.161c-5.16.562-12.62-.572-18.95.175-83.53 9.856-156.72 61.306-210.21 122.866-9-6.715-17.8-13.793-26.56-20.819-62.79-50.372-128.491-97.971-201.187-133.42-1.659 8.943-4.113 19.248-5.128 28.148 2.064 8.428-2.567 100.378-5.436 106.301 13.92 70.48 51.828 120.65 123.269 139.23 22.142 5.76 40.921 5.85 63.362 6.94 10.141 3.02 18.78-.56 26.8 2.12 1.52.5.37.47 2.96.85.75.11 1.49.24 2.23.37-41.647 14.34-91.745 31.04-132.016 49.17 17.638 45.85 30.647 85.36 52.843 130.66 43.116 88.05 102.913 170.18 181.813 229.41 29.11 21.85 54.04 32.22 85.28 47.47 79.3 38.71 130.22 23.43 190.7-38.84 68.08-70.08 117.48-153.53 155.87-243.24 23.2-53.49 31.79-80.49 43.75-136.2-27.63-10.31-61.65-36.99-77.78-60.98 18 5.15 45.18 6 63.18 1.1 100.91-27.5 96.43-172.505 70.25-250.91-12.05 14.393-24.97 32.658-36.29 47.959-11.42 15.452-25.17 32.515-35.87 48.156-12.7-8.967-30.17-21.58-43.8-28.872-34.69-18.564-78.34-32.411-116.25-43.53-11.05 47.056-5.55 91.89 20.17 133.281 16.37 26.346 37.31 49.826 54.98 76.116 51.64 76.81 45.37 151.83 32.17 238.62-14.25-44.59-35.58-88.04-78.93-110.58-10.35-5.38-24.14-9.41-35.26-4.17.21-5.48 1.11-10.81 1.54-16.31 53.07-1.47 80.61 28.26 104.99 72.07 7.12-70.28-2.94-124.03-43.42-182.7-9.44-13.69-20.9-27.68-31.02-41.03-36.61-48.249-49.63-87.287-41.73-147.57 10.25-78.26 63.51-150.583 143.85-164.623 51.05-8.924 63.19 8.824 110.7-26.215 7.03-7.266 13.58-12.485 18.97-21.54 3.3-5.534 5.98-11.189 9.84-16.248-1.97 11.15-3.81 22.301-9.6 32.229-5.72 14.969-22.52 30.868-37.21 36.636-36.76 14.424-75.35 4.866-113.61 19.171-46.92 17.545-77.95 55.524-95.66 100.985a233 233 0 0 0-3.32 9.294c36.78 10.152 75.64 19.675 109.83 37.291 12.09 6.231 28.75 18.27 40.01 26.421 28.75-40.659 61.14-79.241 89.64-119.474 13.61 53.629 22.58 105.194 18.83 160.721-4.12 60.992-31.09 130.822-96.53 147.282-13.23 3.4-27.03 4.09-40.54 2.02 25.14 21.02 37.16 25.04 68.76 34.62-34.76 139.36-100.54 276.88-197.22 384.04-50.6 56.08-100.77 98.52-181.62 75.7-126.65-35.76-222.07-143.6-286.946-253.3-34.082-58.34-60.865-126.84-79.897-191.15a1062 1062 0 0 1 65.509-24.88c4.968-1.71 20.476-7.07 25.357-7.99l.947-2.88c-15.258.78-32.876-1.77-47.727-5.18a164.3 164.3 0 0 1-102.249-72.85c-46.66-75.886-30.953-153.293-11.538-234.1 9.084 4.097 21.344 10.898 30.51 15.664a961 961 0 0 1 135.662 85.229c23.64 17.621 45.592 35.921 68.822 53.521q.99-1.221 2.01-2.406c52.25-60.649 131.41-108.563 212.17-114.571-19.97-24.378-35.6-43.731-60.6-63.81a229.3 229.3 0 0 0-69.15-38.786c-12.59-4.279-33.16-9.813-46.72-10.486-41.51-2.059-85.273 9.255-125.581 17.955-19.962 3.93-40.875 10.684-61.086 12.713-28.649 2.876-58.972-4.849-79.385-26.1-20.519-21.362-28.509-53.383-31.166-82.224-2.915-14.989-3.026-57.872.09-72.696-.216-7.971 3.34-27.725 4.572-35.957 8.039-53.742 22.599-98.522 41.551-148.976"/><path fill="#010104" d="M848.187 476.422q2.096-.741 4.181-1.509c-3.959 43.673-.67 88.765 27.951 123.485 41.903 50.834 101.339 38.078 157.691 34.286 76.6-5.154 149.89 24.868 198.04 84.766 7.36 8.818 13.33 17.684 20.28 26.521 3.81 6.939 12.66 24.1 16.96 29.984 20.41 47.436 24.49 74.187 24.37 125.606-4.41-11.038-16.4-40.861-23.57-48.933-23.01-35.377-38.27-55.662-71.13-83.235-39.7-35.569-93.79-60.555-148.24-58.132-84.097 3.741-144.061 25.615-205.394-49.085l-1.292.186c-10.303-7.76-20.592-42.203-24.348-54.558-.735-2.417.372-8.411-.154-12.217l-1.38.626c.203 2.563.503 10.028.074 12.528-1.782 10.388 17.147 50.27 16.59 55.45-9.243-15.274-12.634-23.286-16.525-40.685l-.278-1.303c-8.894-42.844 2.45-109.747 25.942-145.662z"/><path fill="#069ea9" d="m822.291 621.506-.278-1.303c-8.894-42.844 2.45-109.747 25.942-145.662l.232 1.881c-18.677 42.921-32.84 110.778-14.299 154.581 4.293 10.143 9.96 19.64 15.438 29.173l-1.292.186c-10.303-7.76-20.592-42.203-24.348-54.558-.735-2.417.372-8.411-.154-12.217l-1.38.626c.203 2.563.503 10.028.074 12.528-1.782 10.388 17.147 50.27 16.59 55.45-9.243-15.274-12.634-23.286-16.525-40.685"/><path fill="#fefefd" d="M830.355 411.366c8.181 4.502 23.966 10.942 32.954 14.872-.647 5.302-2.048 26.301-6.033 28.328-2.843 4.501-3.663 6.765-5.661 11.613 1.89 3.435 1.436 4.485.753 8.734q-2.085.768-4.181 1.509l-.232-1.881c-23.492 35.915-34.836 102.818-25.942 145.662l.278 1.303c-1.882 10.448-11.388 90.037-13.466 94.249-32.605-48.594-18.581-155.693-6.504-210.647a711 711 0 0 1 28.034-93.742"/><path fill="#031016" d="M851.615 466.179c1.89 3.435 1.436 4.485.753 8.734q-2.085.768-4.181 1.509l-.232-1.881c1.222-3.029 2.276-5.404 3.66-8.362"/><path fill="#e9e8e8" d="M822.291 621.506c3.891 17.399 7.282 25.411 16.525 40.685 19.372 29.077 48.639 52.792 83.518 59.565a136 136 0 0 0 18.092 2.383c12.123 3.026 31.898-.393 45.111 1.582-9.637 3.276-31.301 6.909-42.837 9.828-15.286 3.868-35.593 10.683-50.295 12.855a89 89 0 0 1-25.61.138c-23.983-3.23-43.255-13.454-57.97-32.787 2.078-4.212 11.584-83.801 13.466-94.249"/><path fill="#fefefd" d="M804.435 853.739c2.064 8.428-2.567 100.378-5.436 106.301-5.969-38.7-2.731-68.261 5.436-106.301"/><path fill="#069ea9" d="M776.852 651.309c-2.915-14.989-3.026-57.872.09-72.696 2.05 17.885.214 37.622 1.078 55.511.348 7.204-.241 10.13-1.168 17.185"/><path fill="#146573" d="M1657.34 687.792c7.03-7.266 13.58-12.485 18.97-21.54 3.3-5.534 5.98-11.189 9.84-16.248-1.97 11.15-3.81 22.301-9.6 32.229 0-2.816-1.27-4.79 1.02-5.944.89-.448 3.75-8.724 3.72-9.761-2.76-4.267-13.22 17.924-23.95 21.264"/><path fill="#95bfc2" d="M940.426 724.139c5.137-.112 47.703-.288 48.694.4-.337 1.367-2.543 1.196-3.583 1.182-13.213-1.975-32.988 1.444-45.111-1.582"/><path fill="#031016" d="M962.88 1116.74c1.199-.16 4.24-.95 5.01.33-.116.88-5.123 2.26-5.957 2.55z"/><path fill="#252531" d="M1031.33 1340.75c-1.59-57.18 5.92-126.65 26.13-180.52a313.3 313.3 0 0 1 136.46-160.944c18.2-10.642 35.49-17.901 54.6-26.612-4.26 7.937-7.92 15.044-13.22 22.368-5.21 7.208-15.77 17.308-20.2 24.218-20.65 32.22-45.51 73.61-58.52 109.56 42.17-26.55 111.79-58.3 152.57-9.56 5.77 6.89 8.7 9.67 16.57 13.75l1.25.64c-1.23 4.58-1.41 7.33-2.97 12.27-10.98-6.21-19.72-15.13-29.75-22.47-20.89-15.28-45.51-17.45-69.98-10.61-25.86 7.25-53.99 20.33-78.43 31.49 13.73-68.04 22.45-86.53 67.44-140.6-95.13 50.44-125.27 100.05-157.97 201.64-10.92 33.92-13.15 57.57-13.92 92.86 29.69-47.37 102.68-101.06 156.61-113.45 3.14-.69 6.3-1.3 9.47-1.82-.31 3.61-.83 8.12-.97 11.66-76.79 19.87-132.88 82.83-175.17 146.13"/><path fill="#252531" d="M1658.47 456.385c7.59 6.298 11.99 57.361 14.08 69.224.59 3.354-.33 8.39.88 12.621.67 18.264-12.91 40.759-24.94 53.745-14.68 15.835-40.53 30.601-62.61 31.698-113.42 5.637-203.86 93.899-229.66 201.543-1.71 7.128-2.98 14.387-4.69 21.508-.66 5.315-1.44 11.75-2.18 16.981-8.01-4.166-5.41-2.895-9.35-10.939.59-7.034 3.23-19.183 4.76-26.283l1-4.502c.74-3.301 1.32-5.101 2.44-8.293.44-4.88 3.38-13.245 4.92-18.078 27.25-85.426 92.72-156.187 181.31-178.173 14.73-3.657 28.41-5.387 43.32-7.935 83.83-14.332 92.49-83.356 80.72-153.117"/><path fill="#345" d="M1348.2 813.688c.16 5.332-1.56 9.96.29 14.441.75 1.825.31 9.176-2.08 8.375-.83-.28.11-4.209-.82-5.342-.36 1.505-1.02 6.389-.5 7.924.75 2.223-.27 2.495-1.13 4.327-2.63 5.6 3.46 27.64 5.01 8.58.04-.535 1.53-7.646 1.62-7.752.28-.088.24-.056.57.079.5.862.36 1.269.37 2.404-.66 5.315-1.44 11.75-2.18 16.981-8.01-4.166-5.41-2.895-9.35-10.939.59-7.034 3.23-19.183 4.76-26.283l1-4.502c.74-3.301 1.32-5.101 2.44-8.293"/><path fill="#252531" d="M857.276 454.566c1.894 12.891.827 29.33 1.813 42.708 3.091 41.922 13 85.291 47.837 112.358a96.9 96.9 0 0 0 46.003 19.361c13.924 1.849 54.071-.887 68.591-2.641 68.6-8.283 131.06 2.376 187.36 44.891 26.08 19.692 53.75 51.037 69.07 80.467-13.53 2.674-13.87-10.408-21.62-7.739-6.95-8.837-12.92-17.703-20.28-26.521-48.15-59.898-121.44-89.92-198.04-84.766-56.352 3.792-115.788 16.548-157.691-34.286-28.621-34.72-31.91-79.812-27.951-123.485.683-4.249 1.137-5.299-.753-8.734 1.998-4.848 2.818-7.112 5.661-11.613"/><path fill="#0b7a88" d="M1340 852.766c3.94 8.044 1.34 6.773 9.35 10.939-3.11 33.358-3.37 57.814 1.34 91.201 5.79 40.927 19.73 88.964 23.92 129.424 31.85 1.47 64.86 14.76 76.53 46.8-28.79-12.62-49.82-23.92-77.74-.91-7.03-6.87-4.09-7.86-11.38-4.92l-1.53.6c7.93-18.78-1.24-53.05-5.18-73.09-13.01-66.048-26.44-132.621-15.31-200.044"/><defs><linearGradient id="c" x1="1269.064" x2="1304.786" y1="861.388" y2="860.71" gradientUnits="userSpaceOnUse"><stop offset="0" stop-color="#2f4f62"/><stop offset="1" stop-color="#086f7f"/></linearGradient></defs><path fill="url(#c)" d="M1273.29 773.955c3.54-1.333 15.23 8.194 19.22 10.936 16.34 48.688 20.45 113.289 9.05 163.514-10.26-29.896-21.68-63.082-35.09-91.616l7.62-6.161c7.17 8.072 19.16 37.895 23.57 48.933.12-51.419-3.96-78.17-24.37-125.606"/><path fill="#0b7a88" d="M1207.47 1182.96c34.64-3.21 58.01 4.32 87.35 23.44 13.5 8.8 20.38 14.88 36.68 18.14-.08 6.62 1.24 5.62 3.93 12.06-26.03-1.37-38.87-20.23-61.88-30.1-25.54-10.96-39.93-15.78-67.05-11.88.14-3.54.66-8.05.97-11.66"/><path fill="#252531" d="m1331.5 1224.54.86-.17c29.78-5.86 39.36-39.15 81.61-46.51-.43 5.5-1.33 10.83-1.54 16.31-40.89 11.08-41.15 39.22-77 42.43-2.69-6.44-4.01-5.44-3.93-12.06"/><path fill="#245364" d="m1360.49 1125.9 1.53-.6c7.29-2.94 4.35-1.95 11.38 4.92-11.3 10.72-16.5 19.79-34.41 19.61-4.61-.05-8.02-1.57-11.85-1.85-1.04-.72-2.07-1.37-3.14-2.06 1.56-4.94 1.74-7.69 2.97-12.27l1.65.49c3.16 1 5.76 1.33 9.06 1.65 6.65-1.09 13.6-2.36 19.13-7 1.9-1.6 1.39-1.92 3.68-2.89"/><path fill="#146573" d="m1326.97 1133.65 1.65.49c3.16 1 5.76 1.33 9.06 1.65 2.22.26 4.44.42 6.67.64-.74 1.92-14.05-1.39-16.63 2.33-.07 1.08.19 2.06 1.37 2.3 1.54-.88 1.7-4.75 4.57-2.48.47.37 1.92 1.41 1.61 2.06-5.58 2.72-4.07 2.98-8.13 7.34-1.04-.72-2.07-1.37-3.14-2.06 1.56-4.94 1.74-7.69 2.97-12.27"/><path fill="#345" d="M1256.33 743.971c7.75-2.669 8.09 10.413 21.62 7.739 4.18 5.062 11.7 26.172 14.56 33.181-3.99-2.742-15.68-12.269-19.22-10.936-4.3-5.884-13.15-23.045-16.96-29.984"/><path fill="#0b7a88" d="M985.63 1106.21c16.75-.28 27.66-.08 44.54-1.38-4.82 1.89-7.64 3.03-12.55 4.72-.74-.13-1.48-.26-2.23-.37-2.59-.38-1.44-.35-2.96-.85-8.02-2.68-16.659.9-26.8-2.12"/><path fill="#0b7a88" d="M1395.94 1249.35c48.67-6.42 102.24 70.93 108.64 113.72a275.1 275.1 0 0 0-82.91 43.19c-27.58 20.65-55.48 46.79-91.81 47.77-26.87.72-48.11-10.68-72.47-19.99-18.1-6.92-36.31-13.47-54.08-21.2-40.1-17.87-86.54-27.52-130.14-31.64 4.27-6.37 25.4-26.13 32.18-32.42 40.84-37.89 106.82-96.21 166.23-92.95 24.11 1.33 50.81 22.5 76.63 18.32 20.63-3.34 26.01-18.21 47.73-24.8"/><path fill="#010104" d="M1398.98 1267.32c38.22-2.15 74.17 50.12 87.52 80.9-34.81 12.23-58.96 29.35-87.95 51.29-12.12 9.18-27.71 21.52-41.4 27.38-37.15 15.89-57.99 3.78-91.39-9.2-17.91-7-35.85-13.9-53.84-20.72-43.02-16.55-62.92-21.99-109.01-27.97 35.35-32.34 122.28-104.3 173.72-95.59 19.84 3.36 45.26 19.96 68.31 17.68 24.31-2.4 29.22-20.02 54.04-23.77"/><defs><linearGradient id="d" x1="1025.863" x2="396.635" y1="1272.895" y2="1308.76" gradientUnits="userSpaceOnUse"><stop offset="0" stop-color="#cac7cb"/><stop offset="1" stop-color="#f8f6f6"/></linearGradient></defs><path fill="url(#d)" d="M395.876 881.506c12.013 10.579 31.208 31.273 42.065 43.512 30.274 34.131 62.652 71.959 88.501 109.412 9.543-4.43 21.507-11.92 30.351-17.61 45.412-29.235 92.724-54.375 146.775-62.751 6.914-1.071 13.198-4.68 20.329-2.285 2.436 3.248 1.657 2.776 2.095 7.55 8.998 64.476 31.175 136.586 80.235 182.056 4.638 17.12 9.71 34.12 15.211 50.99 2.839 8.62 9.019 24.96 11.012 32.88a680 680 0 0 1 7.489 20.1c-29.205 17.76-37.428 8.89-64.531-8.16-35.928-22.61-74.771-8.05-110.85 6 5.363-52.5 14.496-73.24 35.237-121.57-26.866 16.95-46.351 38-65.8 62.84-46.506 59.4-53.197 138.19-45.771 211.64 19.875-40.24 65.287-84.94 107.983-100.64 21.891-8.05 46.314-3.85 66.295 6.91 16.269 8.77 40.787 22.3 55.096 33.38 12.385-13.45 28.676-26.55 42.722-38.46l5.435 11.28a1109 1109 0 0 0 42.176 79.05c1.57 2.4 2.261 3.56 3.501 6.11 6.383 9.47 12.226 19.44 18.497 29.02-1.328 2.4-1.264 2.33-3.316 4.21-16.313-17.08-39.16-36.98-63.365-40.9-11.965 3.81-22.683 9.44-35.096 10.75-20.462 2.17-40.992-5.04-60.704-9.69-40.434-9.54-75.044 20.59-101.051 47.53-10.279 10.64-20.464 21.35-29.875 32.94a530 530 0 0 1 74.035 32.02c32.428 16.82 82.83 55.13 119.318 46.31 47.655-11.52 100.247-42.73 146.122-62.18l8.991 10.13c20.972 23.92 38.272 41.95 61.932 63.32l10.34 9.83c-75.673 69.85-207.414 173.9-312.937 111.21-102.166-60.71-183.866-175.04-235.754-280.19-23.227-47.07-41.026-100.35-55.477-150.35 22.978-8.49 51.058-15.9 75.504-24.66-.276-1.34-.52-2.41-.878-3.72-10.555-.56-22.432-3.31-32.459-6.02-89.508-24.16-135.835-108.73-130.962-197.81 2.739-50.072 13.762-87.748 31.579-133.984"/><path fill="#069ea9" d="M395.876 881.506c12.013 10.579 31.208 31.273 42.065 43.512 30.274 34.131 62.652 71.959 88.501 109.412 9.543-4.43 21.507-11.92 30.351-17.61 45.412-29.235 92.724-54.375 146.775-62.751 6.914-1.071 13.198-4.68 20.329-2.285 2.436 3.248 1.657 2.776 2.095 7.55-31.576 9.021-61.787 17.334-91.404 31.784-37.472 18.282-72.802 42.332-110.062 60.842-37.422-44.89-81.949-104.597-122.919-145.777-22.854 66.564-36.353 138.017-4.625 205.127 19.444 41.13 53.434 72.66 96.651 87.12 34.911 11.67 59.843 11.82 95.588 11.72-34.155 10.78-66.583 25.54-100.226 37.74-6.462 2.35-12.956 4.75-19.339 7.3 13.821 42.45 28.337 84.75 47.326 125.23 47.443 101.12 140.531 233.65 242.362 285.72 37.975 19.42 72.756 23.39 113.447 10.05 59.846-19.61 131.179-73.47 174.129-118.99l10.34 9.83c-75.673 69.85-207.414 173.9-312.937 111.21-102.166-60.71-183.866-175.04-235.754-280.19-23.227-47.07-41.026-100.35-55.477-150.35 22.978-8.49 51.058-15.9 75.504-24.66-.276-1.34-.52-2.41-.878-3.72-10.555-.56-22.432-3.31-32.459-6.02-89.508-24.16-135.835-108.73-130.962-197.81 2.739-50.072 13.762-87.748 31.579-133.984"/><path fill="#031016" d="M527.718 1219.32c2.362.37 8.635 1.06 2.471 3.17l-1.135.39-.458.16c-.276-1.34-.52-2.41-.878-3.72"/><path fill="#069ea9" d="M583 1436.96c-1.016-4.42-2.4-8.92-3.516-13.36-15.18-60.31-9.438-124.77 13.025-182.66a265.33 265.33 0 0 1 142.027-148.75c-30.965 45.56-45.401 78.45-52.838 133.19 25.315-7.66 53.934-15.78 79.479-5.73 26.177 10.3 49.47 43.28 71.273 5.61a680 680 0 0 1 7.489 20.1c-29.205 17.76-37.428 8.89-64.531-8.16-35.928-22.61-74.771-8.05-110.85 6 5.363-52.5 14.496-73.24 35.237-121.57-26.866 16.95-46.351 38-65.8 62.84-46.506 59.4-53.197 138.19-45.771 211.64 19.875-40.24 65.287-84.94 107.983-100.64 21.891-8.05 46.314-3.85 66.295 6.91 16.269 8.77 40.787 22.3 55.096 33.38 12.385-13.45 28.676-26.55 42.722-38.46l5.435 11.28c-16.868 12.98-30.753 24.14-46.037 39.12-17.439-13.8-40.126-27.68-59.891-37.66-78.292-39.53-149.326 66.31-176.827 126.92"/><path fill="#069ea9" d="M612.226 1480.68c36.453-40.39 86.027-117.54 150.883-109.2 17.477 2.16 54.972 17.27 72.362 9.78 34.488-14.86 34.229-13.54 67.749 7.77l4.711-1.4c1.57 2.4 2.261 3.56 3.501 6.11 6.383 9.47 12.226 19.44 18.497 29.02-1.328 2.4-1.264 2.33-3.316 4.21-16.313-17.08-39.16-36.98-63.365-40.9-11.965 3.81-22.683 9.44-35.096 10.75-20.462 2.17-40.992-5.04-60.704-9.69-40.434-9.54-75.044 20.59-101.051 47.53-10.279 10.64-20.464 21.35-29.875 32.94a530 530 0 0 1 74.035 32.02c32.428 16.82 82.83 55.13 119.318 46.31 47.655-11.52 100.247-42.73 146.122-62.18l8.991 10.13c-5.707 2.63-11.636 5.04-17.372 7.63-38.508 17.4-75.367 40.56-114.649 56.12-29.662 11.74-65.926 6.23-93.138-9.19-17.251-9.78-33.803-22.22-51.628-31.16-30.393-15.19-62.79-29.11-95.975-36.6"/><path fill="#e9e8e8" d="M907.931 1387.63c1.57 2.4 2.261 3.56 3.501 6.11-3.229-.87-5.424-2.94-8.212-4.71z"/><path fill="#e9e8e8" d="M390.197 467.599a1463.4 1463.4 0 0 0 324.635 118.032l-.829 12.12c-.485 58.732 5.11 111.86 36.724 163.454-1.706 6.776-3.754 14.226-5.234 20.988-1.598 4.571-3.252 12.497-4.432 17.498-39.846-34.354-82.556-56.506-133.534-69.439-25.753-6.533-37.745-9.496-64.518-7.48-32.805 2.471-68.245-7.501-92.557-30.452-28.954-27.334-39.149-65.485-38.561-104.467.105-9.612 3.092-20.732 2.515-29.866-17.411 51.034-39.254 110.03-14.306 162.25 14.135 29.585 44.192 49.55 74.328 59.723 25.731 8.686 52.835 8.161 79.6 8.63 52.689 2.006 105.637 18.354 148.931 48.672 9.54 6.682 18.163 13.625 27.079 21.161-1.447 6.695-2.018 16.562-2.631 23.638a246.87 246.87 0 0 0-175.426-72.735c-18.6-.08-34.559 4.239-52.764 7.195-41.247 6.697-83.713 10.352-115.948-21.695-29.615-29.441-33.814-77.569-33.298-117.33.96-74.043 18.735-139.848 40.226-209.897"/><path fill="#069ea9" d="M390.197 467.599a1463.4 1463.4 0 0 0 324.635 118.032l-.829 12.12c-108.337-23.14-216.196-62.031-317.21-107.217-23.089 62.395-49.889 206.434-21.46 270.9 9.322 21.139 24.414 34.371 45.997 42.265 38.178 13.964 62.847.721 100.657-4.221l-1.282-3.738c-101.879-2.091-157.984-53.942-135.938-159.801 4.966-23.842 16.609-63.674 30.695-82.978l-1.056 5.026c-17.411 51.034-39.254 110.03-14.306 162.25 14.135 29.585 44.192 49.55 74.328 59.723 25.731 8.686 52.835 8.161 79.6 8.63 52.689 2.006 105.637 18.354 148.931 48.672 9.54 6.682 18.163 13.625 27.079 21.161-1.447 6.695-2.018 16.562-2.631 23.638a246.87 246.87 0 0 0-175.426-72.735c-18.6-.08-34.559 4.239-52.764 7.195-41.247 6.697-83.713 10.352-115.948-21.695-29.615-29.441-33.814-77.569-33.298-117.33.96-74.043 18.735-139.848 40.226-209.897"/><path fill="#fefefd" d="M520.705 795.74c1.726-.059 10.811-.717 11.586.798-.381 1.095-9.05 2.651-10.304 2.94z"/><path fill="#252531" d="m415.462 552.961 1.328.432c2.973.88 1.894 8.509 2.317 11.893-.074 41.893-.964 80.219 30.726 112.919 38.266 39.483 75.608 26.781 122.809 29.776 53.63 3.403 117.848 28.851 158.475 63.598 3.153 2.696 11.138 9.64 14.376 10.614-1.598 4.571-3.252 12.497-4.432 17.498-39.846-34.354-82.556-56.506-133.534-69.439-25.753-6.533-37.745-9.496-64.518-7.48-32.805 2.471-68.245-7.501-92.557-30.452-28.954-27.334-39.149-65.485-38.561-104.467.105-9.612 3.092-20.732 2.515-29.866z"/><path fill="#345" d="M420.228 541.382c-.117 7.389-.086 16.684-1.121 23.904-.423-3.384.656-11.013-2.317-11.893l-1.328-.432.544-1.248c1.463-3.256 2.791-6.976 4.222-10.331"/><path fill="#0b7a88" d="M929.929 1422.76c2.637 2.31 12.491 19.09 14.796 23.01-3.601-3.64-15.215-15.17-18.112-18.8 2.052-1.88 1.988-1.81 3.316-4.21"/></svg>