<svg xmlns="http://www.w3.org/2000/svg" width="2048" height="2048" viewBox="0 0 2048 2048"><path fill="#242426" d="M0 0h2048v2048H0z"/><path fill="#242426" d="m1023.22 319.415 2.62.17c1.65 35.222 15.65 99.558 23.28 134.795l43.47 192.024c71.39 12.939 126.4 38.319 180.09 87.982 34.75-19.975 70.98-40.411 104.9-61.733-6.9 11.674-15.48 23.713-22.94 35.278l-42.61 66.3c32.01 28.847 65.72 92.581 76.68 133.908 4.27 16.1 6.12 29.51 9.66 45.244 21.87 5.812 52.22 11.04 74.95 15.602a8238 8238 0 0 0 167.81 31.565c34.69 6.24 68.79 13.87 103.93 17.9 7.94.91 25.38 3.84 32.78 3.83l.28 1.92c-8-.79-23.24 1.83-31.64 2.75-30.41 3.35-59.31 8.66-89.36 14.36l-151.23 29.14c-32.69 6.46-74.88 15.51-107.46 20.19-11.76 75.29-36.36 124.07-85.62 181.17 12.05 19.08 25.63 39.67 37.12 58.9-2.12 2.31-2.3 2.03-5.32 2.77 3.69 6.82 8.67 12.96 11.85 19.99.35.63.67 1.09.76 1.75-1.35 1.39-1.11-.96-3.52 3.32a3994 3994 0 0 1-81.3-46.78c-50.02 46.68-111.08 79.26-179.57 87.63-11.78 47.38-22.21 98.72-32.81 146.72-12.81 58.03-30.21 130.6-35.46 189.88l-.61.11c-.88-5.55-1.3-11.79-1.93-17.46-7.55-67.71-23.451-134.36-39.013-200.62-9.136-38.9-17.316-79.51-27.502-118.07-72.742-12.33-125.807-37.64-180.461-87.82-27.525 15.22-55.964 32.13-83.079 48.2.028-2.87-.228-5.66.408-8.39 2.582-4.32 5.49-8.56 7.909-12.94-2.464-.1-2.831-1.59-5.143-3.25 4.73-7.71 19.04-30.51 24.289-36.87.358-1.14.339-1.11 1.091-2.03 4.278-7.28 10.933-16.84 15.667-24.14-43.186-42.01-78.871-120.44-86.662-179.94-32.381-5.02-71.547-13.5-104.052-19.85l-151.584-28.97c-37.434-7.19-83.076-17.95-120.815-20.07l1.776-1.77c9.827.48 47.544-5.49 58.125-7.21 67.485-10.98 135.119-24.597 202.254-37.655l67.702-12.952c14.676-2.769 32.96-5.767 46.999-9.955 15.116-78.678 33.015-118.568 85.461-181.219l-37.476-58.522a166 166 0 0 1-3.874-6.268l-9.332-14.513c-4.524-7.528-9.876-14.743-15.044-21.854l26.243 15.56c26.045 13.677 55.04 31.162 80.679 45.887 10.394-8.758 19.793-17.26 30.797-25.343 42.452-31.189 95.351-54.747 147.88-60.586 22.294-107.715 54.867-219.19 67.957-328.065"/><path fill="#e78242" d="m1023.22 319.415 2.62.17c1.65 35.222 15.65 99.558 23.28 134.795l43.47 192.024c71.39 12.939 126.4 38.319 180.09 87.982 34.75-19.975 70.98-40.411 104.9-61.733-6.9 11.674-15.48 23.713-22.94 35.278l-42.61 66.3c32.01 28.847 65.72 92.581 76.68 133.908 4.27 16.1 6.12 29.51 9.66 45.244 21.87 5.812 52.22 11.04 74.95 15.602a8238 8238 0 0 0 167.81 31.565c34.69 6.24 68.79 13.87 103.93 17.9 7.94.91 25.38 3.84 32.78 3.83l.28 1.92c-8-.79-23.24 1.83-31.64 2.75-30.41 3.35-59.31 8.66-89.36 14.36l-151.23 29.14c-32.69 6.46-74.88 15.51-107.46 20.19-11.76 75.29-36.36 124.07-85.62 181.17 12.05 19.08 25.63 39.67 37.12 58.9-2.12 2.31-2.3 2.03-5.32 2.77-13.26-21.6-26.88-42.98-40.85-64.14a327.6 327.6 0 0 0 77.62-134.57c4.8-16.99 7.03-30.62 10.24-47.85 10.49-3.15 29.09-6.27 40.33-8.46l68.24-13.43 214.51-42.53c-94.34-19.39-189.53-35.676-283.72-56.075-13.27-2.873-26.9-4.814-39.8-9.166-11.92-73.93-37.48-125.661-87.02-181.175 18.3-26.691 36.4-57.16 53.95-84.822-28.72 16.812-58.77 33.433-86.94 50.819-12.2-8.247-26.42-21.794-39.71-31-43.53-30.161-91.41-48.837-143.42-57.696-5.45-21.237-9.65-41.79-14.56-63.013l-28.52-124.033c-4.95-22.41-11.63-61.05-17.99-81.567-3.22-.541-.43-3.744-2.78-4.934l-.71.325-.01-.041c-1.61 1.773.24 2.473-2.62 4.776-5.88 20.97-11.05 50.193-16.09 72.155l-44.626 197.091c-66.576 8.95-131.754 41.615-180.611 87.491-29.485-16.744-59.988-33.509-89.101-50.716l7.735 12.954c-2.588 1.935-2.414 1.74-4.117 4.456l-9.332-14.513c-4.524-7.528-9.876-14.743-15.044-21.854l26.243 15.56c26.045 13.677 55.04 31.162 80.679 45.887 10.394-8.758 19.793-17.26 30.797-25.343 42.452-31.189 95.351-54.747 147.88-60.586 22.294-107.715 54.867-219.19 67.957-328.065"/><path fill="#cc6d3f" d="m669.664 671.962 26.243 15.56c-.12.759-.231 3.261-.701 3.21-4.708-.512-6.659 1.999-10.498 3.084-4.524-7.528-9.876-14.743-15.044-21.854"/><path fill="#292023" d="M1024.14 369.942c1.02 4.276 3.27 10.557 2.83 14.83-3.22-.541-.43-3.744-2.78-4.934l-.71.325-.01-.041c-1.61 1.773.24 2.473-2.62 4.776.18-4.909 2.02-10.166 3.29-14.956"/><path fill="#e78242" d="M694.04 708.329c1.703-2.716 1.529-2.521 4.117-4.456l4.04 6.385c13.538 21.346 27.802 43.254 40.888 64.8-35.4 44.372-57.746 77.561-74.507 133.071-4.226 13.995-8.55 40.229-12.318 50.873-14.104 4.175-31.093 7.067-45.752 9.988l-77.128 15.182c-63.092 12.697-140.645 30.228-203.357 38.808 82.01 19.06 167.008 32.44 249.451 50.79 24.689 5.49 52.596 9.83 76.785 16.06 13.471 73.88 39.157 124.12 87.834 180.61a718 718 0 0 1-17.256 27.49c-3.97-1.78-3.293.06-6.318-1.08 4.278-7.28 10.933-16.84 15.667-24.14-43.186-42.01-78.871-120.44-86.662-179.94-32.381-5.02-71.547-13.5-104.052-19.85l-151.584-28.97c-37.434-7.19-83.076-17.95-120.815-20.07l1.776-1.77c9.827.48 47.544-5.49 58.125-7.21 67.485-10.98 135.119-24.597 202.254-37.655l67.702-12.952c14.676-2.769 32.96-5.767 46.999-9.955 15.116-78.678 33.015-118.568 85.461-181.219l-37.476-58.522a166 166 0 0 1-3.874-6.268"/><path fill="#cc6d3f" d="M694.04 708.329c1.703-2.716 1.529-2.521 4.117-4.456l4.04 6.385c-1.525 2.771-1.602 2.626-4.283 4.339a166 166 0 0 1-3.874-6.268"/><path fill="#e78242" d="M1269.04 1304.08c19.37 11.2 38.84 22.22 58.41 33.07 8.48 4.74 20.69 12.19 29.01 16.32.35.63.67 1.09.76 1.75-1.35 1.39-1.11-.96-3.52 3.32a3994 3994 0 0 1-81.3-46.78c-50.02 46.68-111.08 79.26-179.57 87.63-11.78 47.38-22.21 98.72-32.81 146.72-12.81 58.03-30.21 130.6-35.46 189.88l-.61.11c-.88-5.55-1.3-11.79-1.93-17.46-7.55-67.71-23.451-134.36-39.013-200.62-9.136-38.9-17.316-79.51-27.502-118.07-72.742-12.33-125.807-37.64-180.461-87.82-27.525 15.22-55.964 32.13-83.079 48.2.028-2.87-.228-5.66.408-8.39 27.609-13.19 58.044-33.03 86.183-47.3 64.049 53.85 99.589 72.46 181.675 88.46l45.649 195.67 13 58.4c1.82 8.48 3.77 20.84 6.01 28.8l38.83-174.13c6.72-30.29 16.29-80.34 25.16-109.17 74.59-13.47 123.62-37.18 180.16-88.59"/><path fill="#cc6d3f" d="M720.519 1296.85c3.025 1.14 2.348-.7 6.318 1.08-1.266 1.9-2.723 4.72-4.122 6.13-5.351 10.19-15.94 24.77-22.433 34.94-2.464-.1-2.831-1.59-5.143-3.25 4.73-7.71 19.04-30.51 24.289-36.87.358-1.14.339-1.11 1.091-2.03"/><path fill="#d9d8d9" d="M1020.35 511.7c.58 5.926.59 9.112.49 15.002 6.99 120.504-1.74 241.287-5.67 361.853-.26 7.892-2.11 64.45-4.56 68.491-5.4 2.644-10.649 2.58-16.459 3.706-4.817.934-12.762 6.528-17.046 9.439l-2.381-1.189c-.059.004-.12.031-.175.012-7.304-2.532-169.039-162.822-183.409-178.739-6.811-6.527-9.397-10.204-14.907-17.932-3.137-2.118-5.735-4.266-8.696-6.567l7.379-.502c9.652 6.307 29.466 21.574 36.956 25.768 1.141-.56 1.465-.773 2.617-1.118l2.651-2.346c1.672-1.489 3.426-2.881 5.156-4.306a82.7 82.7 0 0 1 10.484-8.166c1.269-1.698 10.345-8.409 12.434-9.833 34.196-23.303 71.881-39.613 112.157-48.45 1.849-.933 3.953-1.315 5.926-1.924.109.002 3.438-.067 3.376.426-.762 6.085-2.597 12.961-3.832 19.159l-1.034 4.999c-1.355 6.828-2.893 13.65-4.228 20.498l-.639 1.926c-37.651 12.594-85.388 36.915-114.258 64.306 24.099 11.762 47.623 25.37 71.326 37.952 3.081 1.635 8.099 4.08 10.745 5.98l14.12 7.72c2.041-4.206 3.732-14.944 5.161-20.189 6.594-35.143 15.47-71.179 23.022-106.27A17642 17642 0 0 1 1020.35 511.7"/><defs><linearGradient id="a" x1="816.526" x2="959.2" y1="770.052" y2="772.557" gradientUnits="userSpaceOnUse"><stop offset="0" stop-color="#b2b2b4"/><stop offset="1" stop-color="#e6e6e6"/></linearGradient></defs><path fill="url(#a)" d="M963.297 714.899c.109.002 3.438-.067 3.376.426-.762 6.085-2.597 12.961-3.832 19.159l-1.034 4.999c-1.355 6.828-2.893 13.65-4.228 20.498l-.639 1.926c-37.651 12.594-85.388 36.915-114.258 64.306 24.099 11.762 47.623 25.37 71.326 37.952 3.081 1.635 8.099 4.08 10.745 5.98-.434 2.829.17 2.642-.827 5.658-3.656-1.349-12.717-7.509-15.77-8.481-9.167-2.916-61.953-36.102-66.886-33.759 3.061 2.95 3.497 2.368 4.099 5.715-15.993-8.775-37.074-39.005-54.229-49.003-6.811-6.527-9.397-10.204-14.907-17.932-3.137-2.118-5.735-4.266-8.696-6.567l7.379-.502c9.652 6.307 29.466 21.574 36.956 25.768 1.141-.56 1.465-.773 2.617-1.118l2.651-2.346c1.672-1.489 3.426-2.881 5.156-4.306a82.7 82.7 0 0 1 10.484-8.166c1.269-1.698 10.345-8.409 12.434-9.833 34.196-23.303 71.881-39.613 112.157-48.45 1.849-.933 3.953-1.315 5.926-1.924"/><path fill="#afafb0" d="M953.592 760.087c1.833.472 2.431 1.064 3.987-.106l-.639 1.926c-37.651 12.594-85.388 36.915-114.258 64.306 24.099 11.762 47.623 25.37 71.326 37.952 3.081 1.635 8.099 4.08 10.745 5.98-.434 2.829.17 2.642-.827 5.658-3.656-1.349-12.717-7.509-15.77-8.481-9.167-2.916-61.953-36.102-66.886-33.759 3.061 2.95 3.497 2.368 4.099 5.715-15.993-8.775-37.074-39.005-54.229-49.003-6.811-6.527-9.397-10.204-14.907-17.932-3.137-2.118-5.735-4.266-8.696-6.567l7.379-.502c9.652 6.307 29.466 21.574 36.956 25.768 1.141-.56 1.465-.773 2.617-1.118l2.651-2.346c-.901 3.774-1.183 3.961-.509 7.7l-.809.518c-.686 2.882-.516 2.832-.608 5.829 2.48 5.805 19.944 16.78 25.983 21.182 19.372-20.565 49.398-35.572 74.301-48.662 7.143-3.754 30.561-14.623 38.094-14.058"/><path fill="#777779" d="M774.916 765.274c9.652 6.307 29.466 21.574 36.956 25.768 1.644 3.816 2.209 6.775-3.378 7.934-10.805-9.361-20.939-17.827-32.261-26.633-3.137-2.118-5.735-4.266-8.696-6.567z"/><defs><linearGradient id="b" x1="840.591" x2="939.078" y1="786.827" y2="710.745" gradientUnits="userSpaceOnUse"><stop offset="0" stop-color="#b0b0af"/><stop offset="1" stop-color="#d2d3d3"/></linearGradient></defs><path fill="url(#b)" d="M832.78 775.106c1.269-1.698 10.345-8.409 12.434-9.833 34.196-23.303 71.881-39.613 112.157-48.45-4.618 4.259-7.586 2.747-12.708 7.512-38.702 13.708-73.77 26.645-106.028 52.291-3.29 2.616-8.311 6.727-11.7 9.035 1.064-4.638 3.351-5.713 5.845-10.555"/><path fill="#d9d8d9" d="M963.297 714.899c.109.002 3.438-.067 3.376.426-.762 6.085-2.597 12.961-3.832 19.159l-1.034 4.999c-1.355 6.828-2.893 13.65-4.228 20.498-1.556 1.17-2.154.578-3.987.106a112 112 0 0 1 1.797-9.362c1.693-7.376 5.202-22.213 6.181-28.744.544-2.653.968-4.497 1.727-7.082"/><path fill="#afafb0" d="M822.296 783.272a82.7 82.7 0 0 1 10.484-8.166c-2.494 4.842-4.781 5.917-5.845 10.555-2.016 2.03-3.629 3.639-5.857 5.42-2.167 1.685-2.568 2.198-4.447 4.197-.674-3.739-.392-3.926.509-7.7 1.672-1.489 3.426-2.881 5.156-4.306"/><path fill="#969598" d="M817.14 787.578c1.672-1.489 3.426-2.881 5.156-4.306-.34 3.065-.579 4.796-1.218 7.809-2.167 1.685-2.568 2.198-4.447 4.197-.674-3.739-.392-3.926.509-7.7"/><path fill="#d9d8d9" d="M957.371 716.823c1.849-.933 3.953-1.315 5.926-1.924-.759 2.585-1.183 4.429-1.727 7.082-8.664.027-8.624.056-16.907 2.354 5.122-4.765 8.09-3.253 12.708-7.512"/><path fill="#969598" d="M1020.35 511.7c.58 5.926.59 9.112.49 15.002-2.43 3.916-10.37 45.278-12.01 52.673l-38.883 177.834c-7.059 33.166-15.375 77.617-23.887 110.101-.781-5.216-.164-4.858-2.026-9.634 6.594-35.143 15.47-71.179 23.022-106.27A17642 17642 0 0 1 1020.35 511.7"/><path fill="#8f8f90" d="M791.14 790.275c17.155 9.998 38.236 40.228 54.229 49.003 31.404 31.839 65.064 62.597 96.018 95.08 5.341 5.604 30.95 29.777 33.337 34.644-.059.004-.12.031-.175.012-7.304-2.532-169.039-162.822-183.409-178.739"/><path fill="#777779" d="M944.034 857.676c1.862 4.776 1.245 4.418 2.026 9.634-.603 6.917-.356 15.017-7.187 10.555 2.041-4.206 3.732-14.944 5.161-20.189"/><path fill="#d9d8d9" d="M1072.59 979.91c12.19-11.127 24.03-24.262 35.66-36.166l53.33-54.362c25.91-26.676 52.54-52.101 78.2-79.188l1.33-.214.99-1.809-.62 1.452-.16-.782c.11 2.182-12.12 17.264-14.63 20.358-12.51 16.765-24.53 39.529-34.74 58.179-8.57 15.637-19.21 33.314-27.21 48.979 15.48 3.651 31.05 6.678 46.59 10.049 113.57 24.634 227.65 46.293 341 71.924 3.26.55 4.12.26 6.65 2.03-4.55 1.22-21.74 2.2-27.29 2.57-36.94 2.46-79.85 4.91-116.7 2.36-29.51-.7-61.73-2.94-91.37-4.38-19.1.32-44.39-1.93-64.19-2.35-11.2-.23-41.33-.99-51.47-2.54-38.23-.18-85.86-3.74-125.05-5.18-3.33-10.32-6.87-20.649-10.32-30.93"/><defs><linearGradient id="c" x1="1287.224" x2="1357.735" y1="991.906" y2="994.294" gradientUnits="userSpaceOnUse"><stop offset="0" stop-color="#828183"/><stop offset="1" stop-color="#b8b7ba"/></linearGradient></defs><path fill="url(#c)" d="m1275.37 964.398 11.32 2.484c25.1 5.079 49.76 9.753 74.61 15.949 10.96 2.734 19.11 2.298 31.74 6.355-2.88 1.485-32.52-6.458-35.49-5.205-1.49 8.624-2.01 24.669 1.27 32.289 4.51 1.88 27.6 1.47 35.57 2.71l.39 1.69c10.58.51 21.83 1.25 32.36 1.43l-.38 2.24c-4.35 1.56-7.37.67-11.77.95-29.51-.7-61.73-2.94-91.37-4.38-19.1.32-44.39-1.93-64.19-2.35-11.2-.23-41.33-.99-51.47-2.54 13.97-1.86 35.6-.07 49.54-.86 5.64-.06 10.1-.07 15.77-.37.55-11.45-1.92-42.968 2.1-50.392"/><path fill="#777779" d="m1275.37 964.398 11.32 2.484c6.89 11.403-.72 34.778 2.42 47.848.28 1.17 7.06 1.57 8.2 1.63 3.74 2.57 16.91 1.17 26.31 4.55-19.1.32-44.39-1.93-64.19-2.35-11.2-.23-41.33-.99-51.47-2.54 13.97-1.86 35.6-.07 49.54-.86 5.64-.06 10.1-.07 15.77-.37.55-11.45-1.92-42.968 2.1-50.392"/><path fill="#969598" d="M1297.31 1016.36c5.53-.87 27.17.8 33.87 1.18 21.19 1.18 42.39 2.23 63.6 3.13 10.58.51 21.83 1.25 32.36 1.43l-.38 2.24c-4.35 1.56-7.37.67-11.77.95-29.51-.7-61.73-2.94-91.37-4.38-9.4-3.38-22.57-1.98-26.31-4.55"/><defs><linearGradient id="d" x1="1272.622" x2="1227.6" y1="985.57" y2="984.549" gradientUnits="userSpaceOnUse"><stop offset="0" stop-color="#838386"/><stop offset="1" stop-color="#b7b7b8"/></linearGradient></defs><path fill="url(#d)" d="M1228.46 1011.71c.14-11.3-.58-21.834 1.02-33.223-.87-6.415 2.46-15.441.61-21.405-.56-1.793-17.84-3.325-17.91-5.144.6-.471 56.91 11.418 63.19 12.46-4.02 7.424-1.55 38.942-2.1 50.392-5.67.3-10.13.31-15.77.37-2.88-1.69-50.52-2.91-58.03-3.59 12.58-1.79 17.28.34 28.99.14"/><path fill="#969598" d="M1072.59 979.91c12.19-11.127 24.03-24.262 35.66-36.166l53.33-54.362c25.91-26.676 52.54-52.101 78.2-79.188l1.33-.214.99-1.809-.62 1.452-.16-.782c.11 2.182-12.12 17.264-14.63 20.358l-2.9.52c-10.67 11.717-21.34 23.429-32.31 34.868q-56.715 58.782-114.27 116.74c2.73 8.5 5.9 17.675 8.39 26.183 26.07.01 52.75 2.35 78.83 3.22 8.27.28 27.73 1.78 35.04.84 7.51.68 55.15 1.9 58.03 3.59-13.94.79-35.57-1-49.54.86-38.23-.18-85.86-3.74-125.05-5.18-3.33-10.32-6.87-20.649-10.32-30.93"/><path fill="#8f8f90" d="M1552.33 1018.33c3.26.55 4.12.26 6.65 2.03-4.55 1.22-21.74 2.2-27.29 2.57-36.94 2.46-79.85 4.91-116.7 2.36 4.4-.28 7.42.61 11.77-.95l.38-2.24 43.32-.11c7.18.14 14.37.01 21.54-.39 16.34-.83 32.8-2.34 49.14-1.69 4.9.78 6.95 1.58 11.19-1.58"/><path fill="#afafb0" d="M1470.46 1021.99c6.28-1.87 6.17-2.71 12.04-2.06 2.07.23 20.75-.04 21.04-.45-1.31-4.91-3.95-.53-4.44-6.69-.09-1.17-8.43-1.89-9.71-2.5-.83-.19-1.66-.38-2.49-.56-.33-.16-.41-.27-.5-.57.68-.46 4.12.17 4.98.35l4.04.87c.87.19 1.73.37 2.59.56l4.51.86c12.71 2.45 25.98 5.24 38.62 8.11-16.34-.65-32.8.86-49.14 1.69-7.17.4-14.36.53-21.54.39"/><path fill="#d9d8d9" d="M523.28 1024.14a5570 5570 0 0 1 440.468 13.3c3.557 10.64 7.109 20.03 11.173 30.46a3585 3585 0 0 1-78.637 81.8c-9.756 9.89-28.341 29.78-38.06 38.08-3.201 4.57-21.961 21.77-26.991 26.47-2.659 3.48-18.144 17.32-21.949 20.18 20.653-27.44 33.959-49.93 50.38-79.82 8.746-15.92 19.351-31.93 27.859-48.1-44.227-6.39-98.529-19.12-143.088-28.15a21364 21364 0 0 1-252.993-52.32c4.891-1.32 9.023-1.63 14.166-1.11 5.939-.21 11.827-.03 17.672-.79"/><defs><linearGradient id="e" x1="873.656" x2="970.523" y1="1090.457" y2="1076.81" gradientUnits="userSpaceOnUse"><stop offset="0" stop-color="#78787b"/><stop offset="1" stop-color="#c7c7c8"/></linearGradient></defs><path fill="url(#e)" d="M875.167 1099.84c1.459-1.47 2.204-55.59 1.619-60.29l-2.625 1.16c-1.208-1.67-.668-1.33-2.847-1.84l-.981-.22c9.719-1.29 40.089.79 51.218 1.5 13.126.62 25.526 1.14 38.603 2.57 2.545 6.81 9.395 18.82 9.226 24.77l-1.297 1.04c-10.331 8.4-40.946 46.16-49.153 50.66-2.929 4.08-17.303 19.85-21.477 21.18-.327-6.64 3.26-15.84.163-20.69-1.674-2.63-1.307-2.06-2.183-5.41l-.228-.9c-.071 3.05.275 7.15-1.082 9.49l-1.052-1.47c-.607-2.75-.771-4.39-2.285-6.76l-.988-1.59-1.637 1.12c1.648-3.78 3.461-5.37 3.066-9.07-2.828-2.58-10.88-2.94-16.06-5.25"/><path fill="#969598" d="M491.442 1026.04c4.891-1.32 9.023-1.63 14.166-1.11l1.154 2.13c7.314 1.63 14.776 1.93 22.225 3.39 20.488 3.99 40.97 8.18 61.449 12.24 11.124 2.2 23.226 3.25 34.13 5.64l164.659 35.22c7.59 1.54 87.096 17.01 85.942 16.29 5.18 2.31 13.232 2.67 16.06 5.25.395 3.7-1.418 5.29-3.066 9.07l1.637-1.12.988 1.59c1.514 2.37 1.678 4.01 2.285 6.76-.166 4.86-1.488 19.55 1.369 23.24.343.44-2.984 3.22-4.118 4.24-1.529 2.02-1.379 2.28-3.73 3-2.342-4.07.164-9.98-1.72-15.85l-1.886-.68.043 1.07c.169 3.51 1.433 4.49.384 7.84-1.118 3.57-1.327 8.98-1.86 12.4-1.152 7.39-16.698 12.17-14.787 19.8.364 1.46-7.947 4.5-8.542 11.33-3.201 4.57-21.961 21.77-26.991 26.47-2.659 3.48-18.144 17.32-21.949 20.18 20.653-27.44 33.959-49.93 50.38-79.82 8.746-15.92 19.351-31.93 27.859-48.1-44.227-6.39-98.529-19.12-143.088-28.15a21364 21364 0 0 1-252.993-52.32"/><defs><linearGradient id="f" x1="878.977" x2="839.872" y1="1131.989" y2="1216.124" gradientUnits="userSpaceOnUse"><stop offset="0" stop-color="#aeaeaf"/><stop offset="1" stop-color="#dbdbdb"/></linearGradient></defs><path fill="url(#f)" d="M831.233 1214.25c-1.985-5.25 1.802-5.71 4.92-10.91 4.26-7.09 8.472-13.85 12.439-21.15l.86-1.56c4.774-8.76 10.637-18.97 16.209-27.27.117-.17 5.39-6.05 5.82-4.8.489 1.42-.42 3.32.274 3.89.248-.05.497-.1.745-.14 2.343-1.57 3.897-9.94 1.024-11.99-.76-.55 5.837-11.01 6.949-11.91l.185.03-.174-.04c-1.947-2.93 3.258 9.78 2.502 6.94l.043 1.07c.169 3.51 1.433 4.49.384 7.84-1.118 3.57-1.327 8.98-1.86 12.4-1.152 7.39-16.698 12.17-14.787 19.8.364 1.46-7.947 4.5-8.542 11.33-3.201 4.57-21.961 21.77-26.991 26.47"/><path fill="#8f8f90" d="m889.798 1113.04.988 1.59c1.514 2.37 1.678 4.01 2.285 6.76-.166 4.86-1.488 19.55 1.369 23.24.343.44-2.984 3.22-4.118 4.24-1.727-5.16-.938-29.29-.524-35.83"/><defs><linearGradient id="g" x1="969.393" x2="1210.783" y1="1310.839" y2="1225.534" gradientUnits="userSpaceOnUse"><stop offset="0" stop-color="#969698"/><stop offset="1" stop-color="#d3d3d3"/></linearGradient></defs><path fill="url(#g)" d="M1071.04 1075.56c-.36.05 2.21-.49 2.57-.13 19.81 19.79 40.05 39.19 59.92 58.93 3.55 3.53 7.48 7.37 10.8 11.08-1.71 2.22 2.15 2.29 2.35 7.38 14.3 18.09 47.7 43.77 61.42 60.93-4.16-.4-15.97-9.33-17.46-8.08.01.9 2.61 3.4 3.21 4.11-11.68-7.04-29.63-15.75-41.95-22.77-10.7-6.1-34.19-19.31-44.93-23.38-4.71 32.38-14.78 72.25-21.46 104.83-17.46 84.06-35.4 168.02-53.82 251.87-.85 4.97-2.18 10.51-3.26 15.49-1.25-16.89-1.25-33.86-1.6-50.78-1.01-49.8-.29-99.63 2.17-149.38-.13-17.48 7.69-239.74 10.22-245.15 7.22-1.32 25.98-10.43 31.82-14.95"/><path fill="#d9d8d9" d="M1081.58 1267.23c5.48-32.87 15.41-66.41 19.49-99.76.6-4.85 1.71-9.59 7.02-9.34-1.24 2.04-1.06 3.15-1.12 5.5-4.71 32.38-14.78 72.25-21.46 104.83-17.46 84.06-35.4 168.02-53.82 251.87-3.07-4.33-.81-32.44-.62-40.75 1.4 3.18 1.32 5.55 1.59 9 2.82-4.22 25.89-111.68 27.68-124.22 1.66-4.12 5.15-21.88 6.4-27.3 5.35-23.05 9.41-46.81 14.84-69.83"/><path fill="#777779" d="M1029 1335.66c-.13-17.48 7.69-239.74 10.22-245.15 2.49 2.89 3.02 2.48 2.94 6.18-.18 9.37-.73 18.99-1.16 28.34l-2.45 55.01c-.4 9.78-.32 46.69-2.01 53.35-1.84 8.05-.67 22.37 1.3 30.43l2.61.31c-1.24 3.03-3.79 1.12-4.19 3.72-2.66 16.89-2.75 41.23-3.06 58.06-1.27 3.09-3.18 6.87-4.2 9.75"/><path fill="#d9d8d9" d="M1071.04 1075.56c-.36.05 2.21-.49 2.57-.13 19.81 19.79 40.05 39.19 59.92 58.93 3.55 3.53 7.48 7.37 10.8 11.08-1.71 2.22 2.15 2.29 2.35 7.38-5.09-3.58-30.6-30.62-32.27-30.54-1.91 1.7-1.14 7.49 3.47 7.48 2.33-.01 5.8 9.06 5.62 11.51-.79 10.58-1.97 4.81-7.3 8.73-.22.16-1.31 3.4-3.71 2.6-4.09 1.19-3.96-13.49-4.91-16.11-.89-2.43-.55-10.42-.02-12.76.04-.2 5.54.81 5.08-2.1-3.16-7.34-15.06-16.26-20.72-22.39-.41-.27-.82-.54-1.23-.8-5.89-6.46-15.51-13.17-19.51-20.6.05.11-.27-4.02-.14-2.28"/><path fill="#969598" d="m1033.2 1325.91.13 7.04q-2.13 43.92-2.61 87.9c-.36 20.86-1.3 37.82.35 58.73-.19 8.31-2.45 36.42.62 40.75-.85 4.97-2.18 10.51-3.26 15.49-1.25-16.89-1.25-33.86-1.6-50.78-1.01-49.8-.29-99.63 2.17-149.38 1.02-2.88 2.93-6.66 4.2-9.75"/><path fill="#d9d8d9" d="M1071.89 871.602c-10.29-79.707-21.09-159.991-28.78-239.97-1.49-15.478-6.41-62.449-5.49-76.05 1.07 6.738 2.57 13.67 3.93 20.38a21723 21723 0 0 0 63.25 294.313 2012 2012 0 0 1 99.56-41.344c-2.83-2.835-2.96-2.051-3.5-5.261 2.05-.599 1.44-.414 3.81.2l.91.246c13.79-9.301 46-35.047 57.77-46.317 4.19-3.151 8.92-7.367 13.32-10.771-9.54 12.247-27.35 28.342-39.15 38.926-11.63 10.424-26.66 25.519-38.54 34.881-15.64 12.313-39.62 24.463-57.44 33.679a1559 1559 0 0 1-64.59 32.236 540 540 0 0 1-5.06-35.148"/><path fill="#8f8f90" d="M1071.89 871.602c-10.29-79.707-21.09-159.991-28.78-239.97-1.49-15.478-6.41-62.449-5.49-76.05 1.07 6.738 2.57 13.67 3.93 20.38-1.02 1.609-1.35 2.338-1.1 4.326 9.32 74.404 16.5 149.051 26.73 223.347 3.09 22.424 6.04 44.89 8.83 67.327z"/><path fill="#777779" d="M1263.35 777.799c4.19-3.151 8.92-7.367 13.32-10.771-9.54 12.247-27.35 28.342-39.15 38.926-11.63 10.424-26.66 25.519-38.54 34.881-15.64 12.313-39.62 24.463-57.44 33.679a1559 1559 0 0 1-64.59 32.236 540 540 0 0 1-5.06-35.148l4.12-.64a795 795 0 0 1 3.51 29.999c34.72-15.434 107.66-51.584 134.65-76.315-3.52 1.353-6.39 2.684-9.81 4.285-2.83-2.835-2.96-2.051-3.5-5.261 2.05-.599 1.44-.414 3.81.2l.91.246c13.79-9.301 46-35.047 57.77-46.317"/><defs><linearGradient id="h" x1="822.969" x2="719.589" y1="878.488" y2="886.676" gradientUnits="userSpaceOnUse"><stop offset="0" stop-color="#a7a7a8"/><stop offset="1" stop-color="#dededd"/></linearGradient></defs><path fill="url(#h)" d="M753.714 768.676c3.084-3.537 3.146-3.814 7.863-5.257-2.918-3.284-10.343-8.456-8.254-11.99 7.979 6.052 13.856 8.613 21.593 13.845l-7.379.502-3.289-2.413-.712.777c2.981 4.877 33.036 40.283 38.51 46.248l.417.974c26.721 30.008 46.558 59.022 66.954 93.555 7.08 11.987 16.921 24.733 23.258 36.79l-1.532-.19c-2.543-3.68-2.746-3.003-5.693-5.567-8.618-7.497-17.409-30.677-26.214-36.463l-.819.483 1.061 6.03.411.959c3.147 7.215 21.926 40.65 20.983 44.615l-2.796.396c-17.92-33.487-36.721-72.034-53.441-106.149-30.772 36.28-48.428 64.747-62.266 110.697l-44.841 6.877c1.826-10.467 3.337-18.735 6.363-29.059 11.401-45.885 38.328-89.861 70.497-124.318-8.221-8.559-29.801-38.487-35.566-41.958-1.841.299-3.257.433-5.108.616"/><path fill="#8f8f90" d="M753.714 768.676c3.084-3.537 3.146-3.814 7.863-5.257-2.918-3.284-10.343-8.456-8.254-11.99 7.979 6.052 13.856 8.613 21.593 13.845l-7.379.502-3.289-2.413-.712.777c2.981 4.877 33.036 40.283 38.51 46.248-17.078 9.147-49.389 63.21-58.646 81.696-6.625 13.229-14.839 39.319-17.909 54.561-.001-3.314.319-7.487.426-10.928l-2.026-1.381c11.401-45.885 38.328-89.861 70.497-124.318-8.221-8.559-29.801-38.487-35.566-41.958-1.841.299-3.257.433-5.108.616"/><path fill="#777779" d="M723.052 958.363c12.468-1.682 24.581-2.891 37.049-4.315.01-2.195-.119-3.205.528-5.272 10.099-32.301 27.302-64.942 48.963-90.983 3.114-3.743 9.01-11.904 12.865-14.341l1.584.486.594 1.883c-30.772 36.28-48.428 64.747-62.266 110.697l-44.841 6.877c1.826-10.467 3.337-18.735 6.363-29.059l2.026 1.381c-.107 3.441-.427 7.614-.426 10.928z"/><path fill="#d9d8d9" d="M802.463 811.362c26.721 30.008 46.558 59.022 66.954 93.555 7.08 11.987 16.921 24.733 23.258 36.79l-1.532-.19c-2.543-3.68-2.746-3.003-5.693-5.567-8.618-7.497-17.409-30.677-26.214-36.463l-.819.483 1.061 6.03c-9.465-16.407-17.932-36.913-27.595-53.464-5.152-8.823-28.502-32.554-29.42-41.174"/><defs><linearGradient id="i" x1="849.845" x2="1053.506" y1="1204.466" y2="1315.684" gradientUnits="userSpaceOnUse"><stop offset="0" stop-color="#b9b9ba"/><stop offset="1" stop-color="#f0f0f1"/></linearGradient></defs><path fill="url(#i)" d="M815.058 1237.01c15.13-12.77 29.526-25.85 46.92-35.56 11.29-6.3 22.483-12.75 33.816-19.01a7474 7474 0 0 1 73.001-39.81c9.054 48.22 15.683 102.53 22.546 151.15 4.63 32.82 11.279 74.22 13.829 106.74 2.37 13.46 3.75 32.83 5.35 46.76 1.27 11.12 3.83 33.25 3.33 43.56l-1.11-.02c-.86-3.33-1.35-9.79-2.37-14.22l-12.084-52.05c-11.025-48.56-22.351-96.53-31.357-145.57-2.198-11.96-4.913-24.95-8.065-36.7-1.377-5.66-2.391-11.57-3.633-17.3l-.964-4.49c-.683-3.24-1.946-8.3-2.181-11.36a1084 1084 0 0 1-6.634-30.31c-26.186 12.67-70.367 34.18-97.12 43.1l-1.358-.77c-5.958-1.86-3.012-4.57-5.7-2.57-4.168 3.1-8.899 6.9-13.009 10.03-4.018 2.53-8.674 6.78-12.381 9.92z"/><path fill="#d9d8d9" d="M958.864 1242.28c.262-1.98 1.653-8.82 1.208-10.77-.622-2.73-.866-3.98-.529-7.06l.108-.04c-1.293-.34 13.146 7.12 13.729 7.39-.35.64-1.015 1.03-1.264 1.75.585 2.98 3.82-1.56 3.074 2.68 3.084 3.04 1.696-.48 2.903-4.46 1.917 8.12 3.145 19.35 3.992 27.73 1.784 17.64 5.858 36.3 7.207 53.83 3.552 12.23 10.082 94.11 13.598 96.27 2.62-4.13 2.16-3.34 2.27-8.22l.01-.86c2.37 13.46 3.75 32.83 5.35 46.76 1.27 11.12 3.83 33.25 3.33 43.56l-1.11-.02c-.86-3.33-1.35-9.79-2.37-14.22l-12.084-52.05c-11.025-48.56-22.351-96.53-31.357-145.57-2.198-11.96-4.913-24.95-8.065-36.7"/><defs><linearGradient id="j" x1="980.661" x2="964.8" y1="1236.263" y2="1310.986" gradientUnits="userSpaceOnUse"><stop offset="0" stop-color="#858587"/><stop offset="1" stop-color="#c6c5c7"/></linearGradient></defs><path fill="url(#j)" d="M989.292 1313.33c-.214.46-.388.99-.797 1.24-.865-.72-.374-9.27-1.973-9.03-.451 2.14-.164 3.95-1.042 6.67-1.231 1.41-5.774-.69-6.644 6.28l.044-.11-.287.06c-.01-.03-.02-.06-.031-.1-.224-1.1-.448-2.21-.673-3.31-.925-1.61-.726-3.75-1.198-5.41-.904-3.18-1.28-6.81-2-10-.424-1.88-.648-3.19-1.001-5-.334-1.72-.86-3.16-1-5-.77-2.17-.654-4.51-1.486-6.66l-.514-2.34c-1.058-2.54-.355-5.11-1.486-7.66-.172-.78-.343-1.56-.515-2.35-.828-3.23-1.371-6.72-2-10-.197-1.03-.722-3.12-1-4-.582-1.83-.671-3.13-1-5l-.484-1.65c-1.045-2.61-.967-5.84-1.519-8.35-.384-1.75-.682-3.57-1.023-5.04-.575-2.48-.776-1.81.654-4.35.846-.22 11.718 3.53 12.873 4.01 3.084 3.04 1.696-.48 2.903-4.46 1.917 8.12 3.145 19.35 3.992 27.73 1.784 17.64 5.858 36.3 7.207 53.83"/><defs><linearGradient id="k" x1="949.293" x2="985.772" y1="1212.964" y2="1174.608" gradientUnits="userSpaceOnUse"><stop offset="0" stop-color="#6b6b6d"/><stop offset="1" stop-color="#a5a5a8"/></linearGradient></defs><path fill="url(#k)" d="M965.335 1148.68c3.542 26.12 10.994 57.45 12.758 83.09-1.207 3.98.181 7.5-2.903 4.46.746-4.24-2.489.3-3.074-2.68.249-.72.914-1.11 1.264-1.75-.583-.27-15.022-7.73-13.729-7.39l-.108.04c-.337 3.08-.093 4.33.529 7.06.445 1.95-.946 8.79-1.208 10.77-1.377-5.66-2.391-11.57-3.633-17.3l-.964-4.49c-.683-3.24-1.946-8.3-2.181-11.36 1.348-3.61.751-3.17 1.477-5.98l.23.16c.344 1.08-.192 2.91.793 3.51 2.551-.38-3.614-16.71-3.532-19.83.169-6.42-4.993-15.65-.839-21.82 1.888-2.8 1.472-3.31.776-6.68 2.642-1.68 3.36-1.11 4.499-3.77 2.38-2.51 6.631-4.34 9.845-6.04"/><path fill="#777779" d="M955.49 1154.72c-1.139 2.66-1.857 2.09-4.499 3.77.696 3.37 1.112 3.88-.776 6.68-4.154 6.17 1.008 15.4.839 21.82-.082 3.12 6.083 19.45 3.532 19.83-.985-.6-.449-2.43-.793-3.51l-.23-.16c-.726 2.81-.129 2.37-1.477 5.98a1084 1084 0 0 1-6.634-30.31c-26.186 12.67-70.367 34.18-97.12 43.1l-1.358-.77c2.733-2.81 51.109-24.08 57.603-26.76 6.935-2.14 14.733-6.95 21.682-9.88 2.57-5.77-2.948-4.11-3.092-10.57l-.079-1.7c2.306-1.37 3.977-2.36 6.402-3.56a304 304 0 0 1 26-13.96"/><path fill="#969598" d="M923.088 1172.24c2.306-1.37 3.977-2.36 6.402-3.56-.041 7.54 2.523 12.03-3.231 15.83 2.57-5.77-2.948-4.11-3.092-10.57z"/><path fill="#8f8f90" d="M904.577 1194.39c4.903-6.77 14.528-7.37 15.112-10.21a3.97 3.97 0 0 0-.697-3.14c-.893-1.23-1.149-2-1.718-3.49l-.13-.01c-.864.44-1.361 2.48-2.066 1.99-2.121-1.47-6.939 4.23-8.565 3.03.446-1.59 14.435-9.13 16.575-10.32l.079 1.7c.144 6.46 5.662 4.8 3.092 10.57-6.949 2.93-14.747 7.74-21.682 9.88"/><path fill="#d9d8d9" d="M1461.18 1037.54c5.42-.73 21.02-1.47 26.7-1.22-7.3 2.74-28.48 6.8-37.63 8.9-21.46 5.02-42.99 9.7-64.59 14.06-7.35 1.46-19.92 4.27-26.98 4.97a446 446 0 0 1-33.07 5.63l-28.15 5.01c-13.74 3.7-37.97 5.78-52.96 8.53-14.65 2.31-40.07 7.31-53.74 8.42l-1.4.32c-3.87.86-9.93 1.45-14.01 1.96.94 4.02 12.73 27.99 15.77 34.15 11.16 22.63 21.2 49.05 32.49 71.16l7.13-8.12c2.8 4.91-4.85 6.72-.07 8.58-1.03 2.89-1.38 3.23-1.2 6.33 7.81 14.41 12.31 11.92 14.67 28.77-6.4-8.38-18.79-22.9-24.02-30.89-21.06-32.17-40.67-66.08-60.64-98.95-3.11-5.13-18.96-30.72-20-33.81 71.43-9.74 144.19-15.55 215.82-24.04 35.07-4.16 70.63-7.96 105.88-9.76"/><defs><linearGradient id="l" x1="1337.389" x2="1357.94" y1="1092.933" y2="1026.018" gradientUnits="userSpaceOnUse"><stop offset="0" stop-color="#747476"/><stop offset="1" stop-color="#f2f2f2"/></linearGradient></defs><path fill="url(#l)" d="M1461.18 1037.54c5.42-.73 21.02-1.47 26.7-1.22-7.3 2.74-28.48 6.8-37.63 8.9-21.46 5.02-42.99 9.7-64.59 14.06-7.35 1.46-19.92 4.27-26.98 4.97a446 446 0 0 1-33.07 5.63l-28.15 5.01c-4.86-.79-12.09.37-17.82.34-3.3-4.92 2.35-8.6-3.27-14.93 14.99-1.59 31.03-3.57 45.99-4.56.06-.02.11-.05.17-.07 30.46-3.31 61.08-6.65 91.57-9.69 3.72-.37 8.09-.14 10.74 1.38 4.06-.31 37.44-6.37 38.42-7.77z"/><path fill="#afafb0" d="M1461.18 1037.54c5.42-.73 21.02-1.47 26.7-1.22-7.3 2.74-28.48 6.8-37.63 8.9-21.46 5.02-42.99 9.7-64.59 14.06-7.35 1.46-19.92 4.27-26.98 4.97.66-.87 1.31-1.75 1.96-2.63 17.17-4.5 48.71-9.84 64.2-14.26 4.06-.31 37.44-6.37 38.42-7.77z"/><defs><linearGradient id="m" x1="1268.162" x2="1209.516" y1="1105.036" y2="1052.635" gradientUnits="userSpaceOnUse"><stop offset="0" stop-color="#545456"/><stop offset="1" stop-color="#e5e5e5"/></linearGradient></defs><path fill="url(#m)" d="M1276.37 1060.3c5.62 6.33-.03 10.01 3.27 14.93 5.73.03 12.96-1.13 17.82-.34-13.74 3.7-37.97 5.78-52.96 8.53-14.65 2.31-40.07 7.31-53.74 8.42 2.02-3.3 7.6-5.39 11.2-7.08.69-4.41.47-9.27.45-13.78-2.08-.58-4.83-.19-7.13-.08l-.9-.92c8.48-2.02 42.43-5.27 52.19-6.29 9.94-1 19.88-2.13 29.8-3.39"/><path fill="#afafb0" d="M1139.48 1071.34c2.38 1.13 4.77 2.26 6.47 4.34 12.19 14.96 73.75 126.96 77.81 127.35-.02-1.2.02-2.44-.15-3.6l7.13-8.12c2.8 4.91-4.85 6.72-.07 8.58-1.03 2.89-1.38 3.23-1.2 6.33 7.81 14.41 12.31 11.92 14.67 28.77-6.4-8.38-18.79-22.9-24.02-30.89-21.06-32.17-40.67-66.08-60.64-98.95-3.11-5.13-18.96-30.72-20-33.81"/><defs><linearGradient id="n" x1="957.716" x2="765.681" y1="1274.599" y2="1267.791" gradientUnits="userSpaceOnUse"><stop offset="0" stop-color="#9f9fa1"/><stop offset="1" stop-color="#d2d2d2"/></linearGradient></defs><path fill="url(#n)" d="M828.265 1228.61c4.11-3.13 8.841-6.93 13.009-10.03 2.688-2-.258.71 5.7 2.57l1.358.77c28.79 28.83 67.392 47.39 105.736 59.9a1118 1118 0 0 1 9.283 46.02c.446 1.42.43.65-.27 2.3-53.15-7.12-105.572-38.75-147.235-70.55-10.51 6.74-36.952 27.57-47.122 29.52-2.6-.72-2.542-.59-5.296-.23-1.075-1.8-.742-1.74.14-3.66 17.479-11.94 35.499-33.2 52.316-46.69 3.707-3.14 8.363-7.39 12.381-9.92"/><path fill="#d9d8d9" d="M828.265 1228.61c4.11-3.13 8.841-6.93 13.009-10.03 2.688-2-.258.71 5.7 2.57l1.358.77c28.79 28.83 67.392 47.39 105.736 59.9a1118 1118 0 0 1 9.283 46.02c-.615.11-1.23.22-1.845.32-5.322-3.7-9.758-34.68-11.271-42.65-29.159-9.43-55.051-21.45-80.196-39.15-9.355-6.58-18.01-16.56-28.116-20.98l.52-2.97c-4.324-.03-7.54 5.54-14.178 6.2"/><path fill="#d9d8d9" d="M821.363 1238.98c3.722 2.53-5.481 7.36-7.671 9.21-4.171 3.51-11.816 9.64-16.072 12.58-.434.35-.533.55-.98.59l-.254-.3c.092-.82 22.093-19.58 24.977-22.08"/><path fill="#d9d8d9" d="M828.414 1235.35c.294 0 .588-.01.883-.01l-.245.69c-.371.08-.742.15-1.113.23l-.035-.06c.119-.37.004-.11.51-.85"/><path fill="#d9d8d9" d="M1090.87 758.961c-.6-8.956-3.39-17.127-4.57-25.497-.53-3.756-5.89-19.703-5.88-20.135 5.82-.467 15.18 2.374 20.98 3.925 38.46 10.302 72.61 27.358 105.12 50.243 6.04 4.25 22.96 20.447 27.52 21.668l4.85-2.905c1.96-3.344 34.02-26.063 38.9-29.407 2.19-6.84-1.87-.465-1.08-6.948 8.65-6.028 29.89-16.28 40.57-22.118q-7.62 13.442-14.76 27.149l-3.88 3.229-1.49-.56c-.8-5.763 4.19-14.254 6.96-19.373-7.01 3.533-17.16 8.812-22.93 13.917-.22 4.07 1.99 3.663 2.7 8.823-2.8 2.168-4.65 3.626-7.21 6.056-4.4 3.404-9.13 7.62-13.32 10.771-11.77 11.27-43.98 37.016-57.77 46.317l-.91-.246c-2.37-.614-1.76-.799-3.81-.2-11.6-18.519-33.05-25.263-49.24-36.156-21.12-14.214-38.3-17.379-59.48-27.911z"/><path fill="#969598" d="m1204.97 1218.41.49 1.04-1.8 2.25.57 1.33c4.4 1.83 27.23 18.58 31.75 22.32 5.54 5.26 8.23 6.32 13.89 11.19 10.11 7.85 25.8 19.17 35 27.07-1.88 4-2.77 5.35-6.72 7.49-1.08-4.38-40.44-29.74-47.27-34.39a289.7 289.7 0 0 1-148.35 74.94c3.46-15.73 5.33-32.76 9.25-48.57 32.51-7.31 64.69-26.56 90.96-46.66 6.52-4.99 14.27-12.47 20.56-16.86z"/><path fill="#777779" d="M1235.98 1245.35c5.54 5.26 8.23 6.32 13.89 11.19 10.11 7.85 25.8 19.17 35 27.07-1.88 4-2.77 5.35-6.72 7.49-1.08-4.38-40.44-29.74-47.27-34.39a289.7 289.7 0 0 1-148.35 74.94c3.46-15.73 5.33-32.76 9.25-48.57l3.57 3.46c-3.14 12.43-5.91 28.5-8.47 41.32 55.6-12.82 104.5-38.09 145.05-78.61 1.85-1.67 2.51-1.94 4.05-3.9"/><path fill="#969598" d="M1235.98 1245.35c5.54 5.26 8.23 6.32 13.89 11.19-10.7-1.08-8.61-2.08-17.94-7.29 1.85-1.67 2.51-1.94 4.05-3.9"/><path fill="#d9d8d9" d="m1204.97 1218.41.49 1.04-1.8 2.25.57 1.33c-13.23 23.04-83.4 60.27-108.88 63.51l-3.57-3.46c32.51-7.31 64.69-26.56 90.96-46.66 6.52-4.99 14.27-12.47 20.56-16.86z"/><defs><linearGradient id="o" x1="1310.875" x2="1224.009" y1="886.91" y2="879.863" gradientUnits="userSpaceOnUse"><stop offset="0" stop-color="#959498"/><stop offset="1" stop-color="#ededec"/></linearGradient></defs><path fill="url(#o)" d="M1283.88 760.972c-.71-5.16-2.92-4.753-2.7-8.823 5.77-5.105 15.92-10.384 22.93-13.917-2.77 5.119-7.76 13.61-6.96 19.373l1.49.56 3.88-3.229c-2.7 5.779-5.94 12.318-8.28 18.174l-6.92-4.943c-8.87 12.734-22.75 33.847-32.5 45.037 41.82 40.543 64.77 93.437 76.51 149.619l.08.673c-.81 1.698-24.03-3.825-26.81-4.595-4.12-.263-13.29-1.936-18.3-2.502-10.86-41.638-35.11-80.511-63.92-112.03 20.45-28.123 42.81-54.416 62.67-81.816z"/><path fill="#969598" d="M1283.88 760.972c-.71-5.16-2.92-4.753-2.7-8.823 5.77-5.105 15.92-10.384 22.93-13.917-2.77 5.119-7.76 13.61-6.96 19.373l1.49.56 3.88-3.229c-2.7 5.779-5.94 12.318-8.28 18.174l-6.92-4.943c-8.87 12.734-22.75 33.847-32.5 45.037l-2.56.931-1.03 1.376-.51-.802c-9.61 9.54-15.83 18.471-23.63 29.55 19.2 19.236 30.41 36.37 43.2 60.423 8.41 14.923 12.42 30.449 18.96 46.053 1.9 4.635 12.7 5.901 14.84 1.752 6.45-12.53 2.44-37.318 3.69-51.683 2.86 5.741 3.78 7.766 5.77 13.922a228 228 0 0 1 9.27 30.793l.42 1.961 1.94 8.515c1.18 5.296 1.21 4.609 6.15 6.828l.08.673c-.81 1.698-24.03-3.825-26.81-4.595-4.12-.263-13.29-1.936-18.3-2.502-10.86-41.638-35.11-80.511-63.92-112.03 20.45-28.123 42.81-54.416 62.67-81.816z"/><path fill="#777779" d="M1304.6 958.901c6.13-2.067 5.25-.685 11.29-1.448l-.08-.188c-2.04-.805-8.8.553-9.5-.882.03-.52-.05-.283.25-.711.52-.174 2.05-.152 2.11-.271 2.3-4.696-.13-13.02 1.24-18.885.91-5.606 1.18-14.307.04-19.763-.08-.409-2.98-4.873.49-5.914 1.49 1.613-.31 3.424 3.11 3.887a228 228 0 0 1 9.27 30.793l.42 1.961 1.94 8.515c1.18 5.296 1.21 4.609 6.15 6.828l.08.673c-.81 1.698-24.03-3.825-26.81-4.595"/><path fill="#d9d8d9" d="m1252.26 814.135 2.56-.931c41.82 40.543 64.77 93.437 76.51 149.619-4.94-2.219-4.97-1.532-6.15-6.828l-1.94-8.515-.42-1.961a228 228 0 0 0-9.27-30.793c-1.99-6.156-2.91-8.181-5.77-13.922-3.41-12.791-22.16-42.111-30.37-53.652-5.28-10.94-20.75-23.419-25.15-33.017"/><defs><linearGradient id="p" x1="734.136" x2="817.97" y1="1162.61" y2="1156.969" gradientUnits="userSpaceOnUse"><stop offset="0" stop-color="#939295"/><stop offset="1" stop-color="#c6c6c6"/></linearGradient></defs><path fill="url(#p)" d="M757.589 1190.13c-14.677-22.36-40.736-82.88-40.147-109.48l1.431-.93 2.836.68c3.962.89 7.724 1.57 11.645 2.41 9.535 1.83 19.604 3.61 29.069 5.59 9.294 29.64 20.202 56.38 38.882 81.67 3.301 4.47 24.878 29.55 25.335 31.77-2.417 3.63-21.289 28.84-23.629 31.48-1.03.63-4.218 2.82-4.977 3.11.426.08-10.01-13.27-11.19-14.56l-2.212 4.3c-8.477-8.6-20.685-25.81-27.043-36.04"/><path fill="#d9d8d9" d="M733.354 1082.81c9.535 1.83 19.604 3.61 29.069 5.59 9.294 29.64 20.202 56.38 38.882 81.67 3.301 4.47 24.878 29.55 25.335 31.77l-3.082.02c-28.021-19.56-55.833-76.86-64.555-109.6-9.547-2.4-21.25-4.5-31.334-6.88-.378-.53-.592-.91-1.077-1.32 1.523-1.17 4.682-1.01 6.762-1.25"/><path fill="#777779" d="M757.589 1190.13c-14.677-22.36-40.736-82.88-40.147-109.48l1.431-.93 2.836.68c3.962.89 7.724 1.57 11.645 2.41-2.08.24-5.239.08-6.762 1.25.485.41.699.79 1.077 1.32 8.403 9.11 4.56 8.04 5.75 20.84.099 1.07-3.55 6.76-4.462 7.82 5.028 22.58 19.429 52.45 31.589 72.03z"/><path fill="#8f8f90" d="M721.222 1083.23c2.252.77 2.92.65 5.37.83.485.41.699.79 1.077 1.32 8.403 9.11 4.56 8.04 5.75 20.84.099 1.07-3.55 6.76-4.462 7.82-2.515-7.69-6.309-22.83-7.735-30.81"/><path fill="#d9d8d9" d="M721.709 1080.4c3.962.89 7.724 1.57 11.645 2.41-2.08.24-5.239.08-6.762 1.25-2.45-.18-3.118-.06-5.37-.83-2.541-2.5-2.308-1.94.487-2.83"/><path fill="#777779" d="M760.546 1186.07c7.62 13.26 16.962 23.91 26.298 35.8l-2.212 4.3c-8.477-8.6-20.685-25.81-27.043-36.04z"/><defs><linearGradient id="q" x1="1311.384" x2="1235.289" y1="1163.7" y2="1153.028" gradientUnits="userSpaceOnUse"><stop offset="0" stop-color="#828184"/><stop offset="1" stop-color="#bcbcbd"/></linearGradient></defs><path fill="url(#q)" d="M1322.57 1081.92c4.09-.73 4.61-1.61 7.51-.1.35 3.76-2.14 14.76-3.06 18.83-9.94 43.75-39.65 104.47-72.33 136.33l-2.89-.33-1.39 1.27c6.57 7.51 11.7 13.84 17.79 21.72l-2.51 1.34c-5.5-5.01-15.77-19.17-21.55-25.99-2.36-16.85-6.86-14.36-14.67-28.77-.18-3.1.17-3.44 1.2-6.33-4.78-1.86 2.87-3.67.07-8.58.68-1.13 12.06-16.03 12.6-16.47 3.8-6.81 9.35-13.79 13.1-20.65 1.72-3.09 5.08-9.42 6.98-11.87 2.86-6.46 6.49-13.39 9.65-19.78 3.69-10.22 9.17-21.32 11.78-32.12 2.76-.98 4.79-1.55 7.66-2.21l4.5-1.01 13.51-2.91z"/><defs><linearGradient id="r" x1="1297.591" x2="1282.514" y1="1229.363" y2="1087.626" gradientUnits="userSpaceOnUse"><stop offset="0" stop-color="#bab8b9"/><stop offset="1" stop-color="#e3e6e8"/></linearGradient></defs><path fill="url(#r)" d="M1322.57 1081.92c4.09-.73 4.61-1.61 7.51-.1.35 3.76-2.14 14.76-3.06 18.83-9.94 43.75-39.65 104.47-72.33 136.33l-2.89-.33-1.39 1.27-.65-.32c-.42-3.21 3.32-5.53 5.6-8.23 36.13-42.71 57.79-87.87 69.4-142.44-.14-3.21.29-3.28-2.19-5.01"/><path fill="#969598" d="M1243.34 1174.84c4.87-3.32 8.12-11.14 11.96-9.75-2.39 5.03-5.63 9.34-8.83 13.86l-2.05 2.92c-4.23 5.98-10.39 11.97-13.75 18.02-4.78-1.86 2.87-3.67.07-8.58.68-1.13 12.06-16.03 12.6-16.47"/><path fill="#d9d8d9" d="M1284.85 1090.42c2.76-.98 4.79-1.55 7.66-2.21l4.5-1.01 13.51-2.91 12.05-2.37c2.48 1.73 2.05 1.8 2.19 5.01-3.21-.91-7.33.55-10.74 1.2l-10.51 2.07-4.49.98c-3.6.77-6.96 1.54-10.54 2.41-1.24-1.06-2.42-2.06-3.63-3.17"/><path fill="#777779" d="M1273.07 1122.54c3.69-10.22 9.17-21.32 11.78-32.12 1.21 1.11 2.39 2.11 3.63 3.17-1.01 6.58-5.75 18.27-8.43 24.56-3.9 2.07-3.53 1.55-6.98 4.39"/><path fill="#777779" d="M1273.07 1122.54c3.45-2.84 3.08-2.32 6.98-4.39-2.18 6.18-6.79 13.13-8.52 18.62-4.49-.45-4.48 2.31-8.11 5.55 2.86-6.46 6.49-13.39 9.65-19.78"/><path fill="#8f8f90" d="M1264.73 1149.02c-2.58 5.3-6.28 11.01-9.43 16.07-3.84-1.39-7.09 6.43-11.96 9.75 3.8-6.81 9.35-13.79 13.1-20.65 1.67-.98 5.71-3.12 6.91-4.1z"/><path fill="#8f8f90" d="M1263.42 1142.32c3.63-3.24 3.62-6 8.11-5.55-2.07 3.98-4.39 8.47-6.8 12.25l-1.38 1.07c-1.2.98-5.24 3.12-6.91 4.1 1.72-3.09 5.08-9.42 6.98-11.87"/><path fill="#d9d8d9" d="m859.478 906-1.061-6.03.819-.483c8.805 5.786 17.596 28.966 26.214 36.463 2.947 2.564 3.15 1.887 5.693 5.567l1.532.19c5.554 7.109 13.519 20.15 18.816 28.064l-.495 1.034-85.991 11.424c-13.11 1.708-29.484 4.269-42.344 5.258-3.638.433-8.976 1.247-12.486 1.436-3.332.876-3.565 1.084-6.889.922a3987 3987 0 0 1-144.318 17.335c-12.905 1.33-53.847 5.89-65.406 5.19 5.348-2.26 63.185-15.093 70.538-15.879a4097 4097 0 0 1 170.315-31.624c22.733-3.797 61.303-11.13 83.661-12.897l2.796-.396c.943-3.965-17.836-37.4-20.983-44.615z"/><path fill="#afafb0" d="M624.1 996.491c1.436.918 4.095 2.614 5.673 2.65 16.289.366 52.156-11.224 66.476-10.484l-.944 1.042c-15.876.433-39.379 7.433-56.934 9.332l-1.003.101.265.908c30.058-.529 63.831-7.959 94.158-10.097 15.171-1.07 30.917-4.555 46.398-5.64l4.472 3.184c-3.638.433-8.976 1.247-12.486 1.436-3.332.876-3.565 1.084-6.889.922a3987 3987 0 0 1-144.318 17.335c-12.905 1.33-53.847 5.89-65.406 5.19 5.348-2.26 63.185-15.093 70.538-15.879"/><path fill="#969598" d="M763.286 989.845c-1.661-.372-8.147-.46-6.402-2.23l.24.603c2.077-1.998 9.96-.511 13.051.705-3.332.876-3.565 1.084-6.889.922"/><path fill="#969598" d="M778.189 984.303c35.431-6.813 75.891-8.216 111.794-14.544 7.385-1.302 14.16-1.808 21.508.012l-.495 1.034-85.991 11.424c-13.11 1.708-29.484 4.269-42.344 5.258z"/><path fill="#d9d8d9" d="M1016.03 990.662a28.74 28.74 0 0 1 28.93 11.918c6.45 9.34 6.8 21.59.9 31.28-6.87 11.27-20.53 16.42-33.13 12.47-12.59-3.94-20.882-15.95-20.101-29.12.78-13.17 10.431-24.123 23.401-26.548"/><path fill="#969598" d="M1045.86 1033.86c-6.87 11.27-20.53 16.42-33.13 12.47-12.59-3.94-20.882-15.95-20.101-29.12.78-13.17 10.431-24.123 23.401-26.548-1.95 3.592-1.39 4.1-5.04 5.812-15.308 7.186-19.403 25.426-8.83 38.486 7.61 9.4 22.35 11.24 32.17 4.8 5.91-3.87 4.65-4.07 11.53-5.9"/><path fill="#d9d8d9" d="M1144.33 1145.44c40.7 38.37 79.8 79.93 120.68 118.4l.91-1.82-.23-1.04 2.51-1.34c-6.09-7.88-11.22-14.21-17.79-21.72l1.39-1.27 2.89.33c11.03 14.05 21.71 28.37 32.06 42.93 2.64-2.03 4.53-4.33 7.19-4.42 2.12 3.49 21.81 39.17 21.89 40.29-1.89-.53-1.27-.05-2.13-.95-5.08-2.44-11.51-5.23-16-8.38-3.14.07-18.64-8.55-21.9-11.44l.99-2.82 1.36-1.09c3.95-2.14 4.84-3.49 6.72-7.49-9.2-7.9-24.89-19.22-35-27.07-5.66-4.87-8.35-5.93-13.89-11.19-4.52-3.74-27.35-20.49-31.75-22.32l-.57-1.33 1.8-2.25-.49-1.04c-1.34-1.8-8.95-7.24-11.12-8.63-.6-.71-3.2-3.21-3.21-4.11 1.49-1.25 13.3 7.68 17.46 8.08-13.72-17.16-47.12-42.84-61.42-60.93-.2-5.09-4.06-5.16-2.35-7.38"/><path fill="#363537" d="M1193.85 1209.78c-.6-.71-3.2-3.21-3.21-4.11 1.49-1.25 13.3 7.68 17.46 8.08.69 1.21 3.18 3.32 3.19 4.34l-.15.07-.1.15c1.17 3.7 39.16 29.79 41.22 35.85l-.05.19c-.62.19-42.47-32.01-46.75-34.9l-.49-1.04c-1.34-1.8-8.95-7.24-11.12-8.63"/><path fill="#afafb0" d="M1297.7 1306.45c-.44-3.36-6.84-2.62-7.32-6.07.43-.69.78-1.36 1.14-2.08l-.09.02c.06-1.18 2.14-4.94 3.21-5.37 4.51 1.41 15.73 17.25 19.06 21.88-5.08-2.44-11.51-5.23-16-8.38"/><path fill="#8f8f90" d="M1284.87 1283.61c2.87 2.06 8.67 8.65 1.63 12.2-1.48.74-5.62-3.19-9.71-3.62l1.36-1.09c3.95-2.14 4.84-3.49 6.72-7.49"/><path fill="#777779" d="m1265.69 1260.98 2.51-1.34c4.25 6.58 8.94 13.39 13.39 19.84-2.78-2.39-8.01-6.45-9.95-9.18-2.65-2.37-4.22-3.87-6.63-6.46l.91-1.82z"/><path fill="#363537" d="M1265.92 1262.02c1.08 1.3 6.13 6.59 6.18 7.59-.16.23-.31.46-.46.69-2.65-2.37-4.22-3.87-6.63-6.46z"/><path fill="#8f8f90" d="M786.844 1221.87c1.18 1.29 11.616 14.64 11.19 14.56.759-.29 3.947-2.48 4.977-3.11-9.119 13.8-22.203 27.04-31.143 40.78-.506.78 2.135.31 1.983-.22 13.628-11.29 27.34-26.26 41.207-36.87l.826 1.52c-16.817 13.49-34.837 34.75-52.316 46.69-.882 1.92-1.215 1.86-.14 3.66 2.754-.36 2.696-.49 5.296.23 1.113 2.82 2.334 4.9 3.424 7.75.595 1.07-.691 1.29-1.572 1.68-13.963 6.22-27.954 13.14-41.404 20.42 8.303-13.46 16.608-27.11 24.094-41.03.096.33.873-3.15 1.692-2.97 5.35 1.19 2.921 5.54 8.157-.92 6.203-7.65 12.954-17.72 19.315-25.63 3.536-4.39 6.763-8.74 9.932-13.78-2.778-2.88-5.068-5.55-7.73-8.46z"/><path fill="#afafb0" d="M737.2 1311.37c6.11-9.13 16.569-20.94 26.368-26.15-.882 1.92-1.215 1.86-.14 3.66 2.754-.36 2.696-.49 5.296.23 1.113 2.82 2.334 4.9 3.424 7.75-2.048-.25-1.944-.26-3.864-1.21-.663.44-1.32.88-1.97 1.34-7.247 5.16-20.755 11.02-29.114 14.38"/><path fill="#d9d8d9" d="M763.428 1288.88c2.754-.36 2.696-.49 5.296.23 1.113 2.82 2.334 4.9 3.424 7.75-2.048-.25-1.944-.26-3.864-1.21-1.471-2.57-3.093-4.36-4.856-6.77"/><path fill="#d9d8d9" d="M730.403 730.922c-.831-.67-1.774-1.304-1.314-2.427 1.586-.576 40.589 18.857 44.557 21.652.581 1.77-1.284 3.069-2.321 4.18-.355.4-1.292 1.501-1.009 2.115 1.177 2.559 4.32 4.026 6.68 5.528 13.214 8.41 25.53 17.854 37.493 27.954-1.152.345-1.476.558-2.617 1.118-7.49-4.194-27.304-19.461-36.956-25.768-7.737-5.232-13.614-7.793-21.593-13.845-2.089 3.534 5.336 8.706 8.254 11.99-4.717 1.443-4.779 1.72-7.863 5.257-3.784-3.423-19.699-31.355-23.311-37.754"/><path fill="#afafb0" d="M730.403 730.922c11.011 5.87 14.354 12.382 22.92 20.507-2.089 3.534 5.336 8.706 8.254 11.99-4.717 1.443-4.779 1.72-7.863 5.257-3.784-3.423-19.699-31.355-23.311-37.754"/><path fill="#363537" d="M491.442 1026.04c-1.497.15-7.05.17-7.569-1.57l.195-.24c1.979-.56 35.63-.41 39.212-.09-5.845.76-11.733.58-17.672.79-5.143-.52-9.275-.21-14.166 1.11"/><path fill="#292023" d="M1697.3 1021.62c1.72-.35 4.98-1.61 4.47 1.1-.66.06-1.32.13-1.98.23-.65.1-1.23.3-1.9.2-.26-.03-.6-.11-.72-.38-.16-.32.09-.95.13-1.15"/><path fill="#cc6d3f" d="M1349.93 1330.71c3.4 2.99 15.87 26.56 20.72 31.64.51.53 7.26 10.1 8.24 11.48-6.71-3.99-19.21-11.18-25.19-15.29 2.41-4.28 2.17-1.93 3.52-3.32-.09-.66-.41-1.12-.76-1.75-3.18-7.03-8.16-13.17-11.85-19.99 3.02-.74 3.2-.46 5.32-2.77"/><path fill="#cc6d3f" d="M695.139 1335.75c2.312 1.66 2.679 3.15 5.143 3.25-2.419 4.38-5.327 8.62-7.909 12.94-.636 2.73-.38 5.52-.408 8.39-3.994 2.19-7.767 4.36-11.704 6.62-2.022-1.66-1.861-1.61-2.972-4.04 6.137-8.84 11.837-18.44 17.85-27.16"/><path fill="#e78242" d="M677.289 1362.91c1.111 2.43.95 2.38 2.972 4.04-1.243 1.53-8.707 5.64-10.9 6.92 1.674-2.42 6.106-9.13 7.928-10.96"/><path fill="#744a38" d="M1023.22 319.415c-.14-2.037-.27-8.385 1.15-9.768 1.15.438 1.48 8.508 1.47 9.938z"/><path fill="#744a38" d="M273.073 1023.88c-1.158.05-5.365.31-5.944-.18-2.683-2.29 7.337-1.61 7.72-1.59z"/><path fill="#744a38" d="m1777.84 1022.28 1.57-.03c.74-.03 2.87-.03 2.89 1.08-.94 1.06-2.99.78-4.18.87z"/></svg>