<svg xmlns="http://www.w3.org/2000/svg" width="2048" height="2048" viewBox="0 0 2048 2048"><path fill="#202227" d="M0 0h2048v2048H0z"/><path d="M1012.69 228.397c21.83-4.087 73.64 8.016 92.92 19.31 20.47 11.986 28.74 25.702 34.93 47.508 14.08 3.363 35.02 12.458 48.34 18.536a453.75 453.75 0 0 1 197.63 178.247c33.89 55.621 54.97 115.655 61.04 180.706 1.87 20.049 1.38 41.665 1.41 61.932l-.08 93.361c.03 11.746.6 23.902.18 35.607-1.46 41.009 10.39 75.046-30.97 100.136-26.52 71.21-21.1 141.37 30.26 201.18 17.84 20.78 24.21 32.25 23.74 59.92 40.84 17.35 81.5 35.12 121.96 53.33 13.49 6.07 38.97 16.27 50.61 22.72 4.8 2.67 9.25 5.92 13.25 9.67 10.86 10.26 18.05 27.62 18.1 42.51.07 23.72-17.24 50.52-28.9 70.43a976 976 0 0 1-84.37 123.98 896 896 0 0 1-51.96 59.03c-121.06 126.06-294.2 205.09-469.53 208.46a670.7 670.7 0 0 1-241.787-41.52c-163.747-60.31-307.363-191.23-391.597-342.85-18.784-33.81-55.647-81.7-22.17-117.52 15.11-16.17 45.695-26.8 66.435-36.05l122.01-53.98c-1.431-33 10.347-43.6 28.64-69.12a233 233 0 0 0 19.52-33.03c26.211-53.13 25.31-102.2 6.626-157.294-13.105-8.266-23.939-19.536-28.584-34.643-5.18-16.846-2.458-70.655-2.429-92.048l.004-98.384c-.022-19.188-.874-41.213.813-60.101 15.002-168.055 144.41-335.748 307.721-383.335 10.037-50.411 62.234-61.856 106.238-66.698"/><path fill="#c8c9ca" d="M1415.82 1312.8c33.97 14.38 67.34 32.53 101.01 47.77 22.02 9.96 43.56 21.63 66.07 30.48-29.79 47.74-50.31 76.93-86.03 120.55a844 844 0 0 0-22.42 26.82c5.02 3.07 10.76 7.17 15.71 10.54-13.89 16.37-33 34.92-48.83 49.26-121.96 111.99-283.86 170.17-449.206 161.45-172.034-8.89-330.713-99.51-445.15-225.54-44.274-48.76-78.608-104.27-109.896-161.99-2.353-4.35-10.653-19.51-10.437-23.64l2.451-1.93c4.044 2.27 7.467 4.22 11.705 6.16 3.991 1.73 10.638 4.32 13.931 6.77-1.795 3.51 10.639 24.99 13.095 29.46 17.807-7.11 41.368-19.18 59.036-27.63l100.681-48.01c76.393 100.91 165.855 176.09 263.816 254.81 40.294 32.38 64.534 84.93 122.414 92.66 1.03.14 2.06.27 3.1.38l2.08.04c69.39 1.03 91.02-50.56 135.43-89.08 47.79-41.45 97.99-79.5 143.67-123.82 18.55 11.17 40.92 27.43 58.85 39.83l88.93 60.74c11.9-12.56 30.32-35.91 41.92-49.79-47.39-33.07-96.78-64.61-144.46-97.59 26.69-27.24 50.02-58.03 72.53-88.7"/><path fill="#989da4" d="M1415.82 1312.8c33.97 14.38 67.34 32.53 101.01 47.77 22.02 9.96 43.56 21.63 66.07 30.48-29.79 47.74-50.31 76.93-86.03 120.55a844 844 0 0 0-22.42 26.82c-28.24 29.67-48.11 49.33-81.03 75.01a609.05 609.05 0 0 1-356.03 128.45c-7.15.18-24.18.36-30.47-.78 3.9-.17 8.62-.04 12.6-.05l.02-8.96c.02-16.41.3-51.18-.85-69.09-.61-.61-1.21-1.22-1.82-1.83l2.08.04c69.39 1.03 91.02-50.56 135.43-89.08 47.79-41.45 97.99-79.5 143.67-123.82 18.55 11.17 40.92 27.43 58.85 39.83l88.93 60.74c11.9-12.56 30.32-35.91 41.92-49.79-47.39-33.07-96.78-64.61-144.46-97.59 26.69-27.24 50.02-58.03 72.53-88.7"/><path fill="#b57a48" d="M1490.16 1548.96c-13.89 16.37-33 34.92-48.83 49.26-121.96 111.99-283.86 170.17-449.206 161.45-172.034-8.89-330.713-99.51-445.15-225.54-44.274-48.76-78.608-104.27-109.896-161.99-2.353-4.35-10.653-19.51-10.437-23.64l2.451-1.93c4.044 2.27 7.467 4.22 11.705 6.16 3.991 1.73 10.638 4.32 13.931 6.77-1.795 3.51 10.639 24.99 13.095 29.46 106.321 193.62 314.061 344.19 539.097 352.14 6.29 1.14 23.32.96 30.47.78a609.05 609.05 0 0 0 356.03-128.45c32.92-25.68 52.79-45.34 81.03-75.01 5.02 3.07 10.76 7.17 15.71 10.54"/><path fill="#c8c9ca" d="m650.643 816.43 27.235 4.556c-.062 4.474-.311 10.12-.181 14.487 21.741 29.951 132.857 59.407 171.119 72.509 31.178 10.675 69.84 6.744 94.959 34.2a65.84 65.84 0 0 1 16.806 36.079c1.626 12.292.758 40.009.691 53.949l-.154 97.23c.13 128.65-2.154 260.33-.206 388.61l-9.11-4.92a1127.2 1127.2 0 0 1-242.769-185.72c-25.77-25.81-55.945-58.81-74.736-89.99-2.193-4.06-3.61-8.16-5.263-12.46-.539-2.25-1.844-9.87-.946-11.85 5.249-10.74 13.918-20.89 20.906-30.69 43.739-61.39 58.328-137 39.702-210.247-6.364-25.024-14.625-46.221-37.898-60.473 1.046-29.586.053-65.337-.155-95.27"/><path d="M668.282 837.343c16.49 24.181 50.515 35.951 77.254 46.058.24 22.718 1.138 45.424 2.693 68.089 31.752 17.93 87.967 42.705 123.331 52.95l-.876 2.09a1209 1209 0 0 1-61.132-17.515c-10.873-3.421-24.016-8.277-34.587-11.099 14.225 38.014 23.154 94.414 20.099 134.754-9.298 122.75 15.727 220.79 115.168 302.66l-2.582.84c-91.16-53.92-182.273-121.13-248.895-204.4-7.323 8.82-16.336 17.47-24.458 25.65-2.193-4.06-3.61-8.16-5.263-12.46-.539-2.25-1.844-9.87-.946-11.85 5.249-10.74 13.918-20.89 20.906-30.69 43.739-61.39 58.328-137 39.702-210.247-6.364-25.024-14.625-46.221-37.898-60.473 4.966-.799 11.074.155 16.633-.019l1.492-1.633c-1.986-6.265-.74-62.817-.641-72.705"/><path fill="#fcfbfb" d="M668.923 910.048c3.712 1.07 30.337 19.027 34.038 22.259 3.414 4.367 4.721 3.041 1.601 7.359-.074 1.781-.058 1.519.716 3.289 26.865 106.035 19.81 178.815-46.523 268.815-7.323 8.82-16.336 17.47-24.458 25.65-2.193-4.06-3.61-8.16-5.263-12.46-.539-2.25-1.844-9.87-.946-11.85 5.249-10.74 13.918-20.89 20.906-30.69 43.739-61.39 58.328-137 39.702-210.247-6.364-25.024-14.625-46.221-37.898-60.473 4.966-.799 11.074.155 16.633-.019z"/><path fill="#eddaca" d="M668.923 910.048c3.712 1.07 30.337 19.027 34.038 22.259 3.414 4.367 4.721 3.041 1.601 7.359-5.251-7.767-11.943-10.437-20.164-14.947 41.288 102.931 30.64 189.121-36.477 276.761-5.082 6.64-15.064 17.45-18.887 23.48-.539-2.25-1.844-9.87-.946-11.85 5.249-10.74 13.918-20.89 20.906-30.69 43.739-61.39 58.328-137 39.702-210.247-6.364-25.024-14.625-46.221-37.898-60.473 4.966-.799 11.074.155 16.633-.019z"/><path fill="#d8c1a6" d="M702.961 932.307c10.945 5.229 28.085 15.732 39.695 22.012 14.147 7.654 32.147 15.563 45.215 23.167-26.988-9.292-53.906-23.657-80.225-35.063-.414-.18-1.659.313-2.368.532-.774-1.77-.79-1.508-.716-3.289 3.12-4.318 1.813-2.992-1.601-7.359"/><path fill="#fcfbfb" d="m650.643 816.43 27.235 4.556c-.062 4.474-.311 10.12-.181 14.487 21.741 29.951 132.857 59.407 171.119 72.509 31.178 10.675 69.84 6.744 94.959 34.2a65.84 65.84 0 0 1 16.806 36.079c1.626 12.292.758 40.009.691 53.949l-.154 97.23c.13 128.65-2.154 260.33-.206 388.61l-9.11-4.92.228-346.94-.514-114.38c-.065-20.4 2.351-56.18-3.438-75.177-4.026-13.209-23.15-30.598-34.882-36.805-8.443-4.468-24.073-8.252-34.132-11.154a3259 3259 0 0 1-38.196-11.566 1497 1497 0 0 1-95.332-33.707c-26.739-10.107-60.764-21.877-77.254-46.058-.099 9.888-1.345 66.44.641 72.705l-1.492 1.633c-5.559.174-11.667-.78-16.633.019 1.046-29.586.053-65.337-.155-95.27"/><path fill="#646365" d="M871.56 1004.44c1.743.3 16.114 4.6 17.017 5.49l.036.35c-1.139.48-15.928-3.3-17.929-3.75z"/><path fill="#202227" d="M910.232 1415.33c3.538 2.57 6.287 5.03 9.538 7.9a356 356 0 0 1-12.12-7.06z"/><path fill="#989da4" d="M1375.05 820.747c6.5-1.306 14.42-2.685 20.75-4.269q-.33 48.662.15 97.324c-22.85 13.313-29.65 29.973-36.26 54.877-19.72 74.331-9.07 153.581 37.08 216.351 7.8 10.62 22.67 22.6 22.83 35.92-5.43 18.43-16.87 32.49-29.07 47-81.67 97.12-183.35 184.06-294.79 244.86l-7.64 4.2c-1.55-89.25.49-180.4-.4-269.98-.55-56.72-.79-113.45-.7-170.18-.05-31.42-.15-63.3.35-94.729.11-7.04 2.09-14.574 4.96-21.025a70.27 70.27 0 0 1 30.94-33.123c12.53-6.784 53.19-13.901 70.46-18.713 36.9-9.991 73.24-21.952 108.87-35.831 19.43-7.366 39.38-14.987 57.77-24.684 12.97-6.844 14.56-14.54 14.7-27.998"/><path d="M1375.05 820.747c6.5-1.306 14.42-2.685 20.75-4.269q-.33 48.662.15 97.324c-22.85 13.313-29.65 29.973-36.26 54.877-19.72 74.331-9.07 153.581 37.08 216.351 7.8 10.62 22.67 22.6 22.83 35.92-15.55-9.96-25.97-21.15-37.93-34.95-1.99-1.11-3.74-2.12-5.69-3.32 1.52 3.3 2.92 5.79 3.53 9.37.99 3.56 10.53 16.36 13.31 20.21-56.49 75.43-180.29 164.07-262.7 208.98 17.32-16.7 32.89-29.93 47.81-47.53 67.23-79.28 82.21-174.76 73.31-275.43-2.59-29.33 10.82-90.29 21.97-119.444-34.96 11.534-61.4 16.967-95.28 26.524l-.5-1.93c36.53-9.452 88.54-32.881 121.86-49.488.17-22.364.42-48.124 1.79-70.264l.92-.677.58-9.572c19.43-7.366 39.38-14.987 57.77-24.684 12.97-6.844 14.56-14.54 14.7-27.998"/><path fill="#b57a48" d="M1375.05 820.747c6.5-1.306 14.42-2.685 20.75-4.269q-.33 48.662.15 97.324c-22.85 13.313-29.65 29.973-36.26 54.877-19.72 74.331-9.07 153.581 37.08 216.351 7.8 10.62 22.67 22.6 22.83 35.92-15.55-9.96-25.97-21.15-37.93-34.95-21.46-31.54-31.76-58.07-40.01-95.49-1.9-8.62-3.22-26-5.88-32.72-4.5-23.74 5.73-88.433 9.85-114.218-24.2 10.901-44.57 18.848-68.67 28.945l.76-2.569c39.36-18.376 68.94-34.794 104.04-60.498.09-22.186.02-44.372-.23-66.557-17.57 15.65-56.64 32.272-79.53 40.108l.58-9.572c19.43-7.366 39.38-14.987 57.77-24.684 12.97-6.844 14.56-14.54 14.7-27.998"/><path fill="#c8c9ca" d="M1335.78 1057.79c2.66 6.72 3.98 24.1 5.88 32.72 8.25 37.42 18.55 63.95 40.01 95.49-1.99-1.11-3.74-2.12-5.69-3.32 1.52 3.3 2.92 5.79 3.53 9.37-3.03-3.49-7.86-12.06-10.32-16.46-19.79-35.33-32.35-77.35-33.41-117.8"/><path fill="#62472a" d="m1277.72 969.948-.76 2.569-1.77.43c-1.12.284-3.16 1.014-4.27.564l-.02-.101c1.63-1.47 4.79-2.67 6.82-3.462"/><path fill="#fcfbfb" d="M1088.1 1517.01c-1.55-89.25.49-180.4-.4-269.98-.55-56.72-.79-113.45-.7-170.18-.05-31.42-.15-63.3.35-94.729.11-7.04 2.09-14.574 4.96-21.025a70.27 70.27 0 0 1 30.94-33.123c12.53-6.784 53.19-13.901 70.46-18.713 36.9-9.991 73.24-21.952 108.87-35.831l-.58 9.572-.92.677a2281 2281 0 0 1-89.58 31.915c-27.8 9.052-63.91 15.749-87.91 31.005-34.51 21.94-27.69 68.312-27.77 103.172l-.17 101.59c-.07 119.48 1.61 242.13.09 361.45z"/><path fill="#646365" d="M1177.93 1005.36c-1.86.6-12.32 3.29-13.16 2.03.71-1.46 10.85-3.63 12.66-3.96z"/><path fill="#c8c9ca" d="M1020.37 282.562c12.14-1.381 50.53 4.531 60.6 14.039 1.21 1.136.81 22.962.65 27.217l.57 236.533-.21 64.814c-.07 11.867-.97 25.649.38 37.279 2.8 24.027 19.03 34.059 41.64 33.523 57.58-1.364 114.15-6.273 171.23-13.455l-.1 9.603c.63 33.791 2.94 63.596 2.93 98.648a7339 7339 0 0 1-132.18 11.05c-20.12 1.425-43.38 1.314-62.97 4.746-6.75 1.181-15.89 8.693-20.37 14.002a57.06 57.06 0 0 0-11.93 24.033c-2.93 12.902-1.57 71.428-1.65 88.795-8.19 7.141-14.8 14.798-15.04 26.16-.41 19.608.57 39.728.35 59.361-.59 53.38.74 107.36-.45 160.68-11.73-4.47-15.86-5.32-28.4-6.2-11.05-.55-19.98 1.57-30.518 4.38l-.768-199.377c-.145-22.465-1.17-27.744-17.429-43.793-.814-28.739 2.036-59.405-1.306-87.905-1.479-12.618-11.256-24.288-21.4-31.487-15.016-10.656-33.205-8.739-50.65-10.365-12.678-1.065-25.742-1.745-38.571-2.705a3314 3314 0 0 1-120.407-11.492c.429-31.869.861-67.362 4.579-98.896-26.986-2.724-53.153-5.259-80.006-9.274l.119 95.558 7.865 4.485 4.004 2.165-.319.833c-5.465.006-7.528-.419-12.948-1.455-3.577-.081-12.775-1.478-16.727-1.982-.079-37.453-.468-79.535 2.464-116.601 85.965 19.79 181.535 24.984 269.663 30.31 17.751 1.072 37.519-12.794 39.457-30.909 1.374-12.844.501-28.669.433-41.952l-.058-71.591-.07-249.175c.039-.389.231-4.023.711-4.267 17.235-8.782 37.662-13.479 56.832-15.333"/><path fill="#989da4" d="M1020.37 282.562c12.14-1.381 50.53 4.531 60.6 14.039 1.21 1.136.81 22.962.65 27.217l.57 236.533-.21 64.814c-.07 11.867-.97 25.649.38 37.279 2.8 24.027 19.03 34.059 41.64 33.523 57.58-1.364 114.15-6.273 171.23-13.455l-.1 9.603c.63 33.791 2.94 63.596 2.93 98.648a7339 7339 0 0 1-132.18 11.05c-20.12 1.425-43.38 1.314-62.97 4.746-6.75 1.181-15.89 8.693-20.37 14.002a57.06 57.06 0 0 0-11.93 24.033c-2.93 12.902-1.57 71.428-1.65 88.795-8.19 7.141-14.8 14.798-15.04 26.16-.41 19.608.57 39.728.35 59.361-.59 53.38.74 107.36-.45 160.68-11.73-4.47-15.86-5.32-28.4-6.2 2.9-.33 3.18-.17 5.76-1.4 1.39-7.56.52-60.62.5-70.62l-.17-166.151-.05-400.564c-.03-78.896-.95-160.054.15-238.778 6.24-.856 14.84-.675 21.61-1.148-2.24-1.009-4.86-2.261-7.18-2.997-5.97-2.557-10.81-3.561-16.42-5.677-2.73-1.116-4.61-2.608-7.45-3.124z"/><path fill="#b57a48" d="M1020.37 282.562c12.14-1.381 50.53 4.531 60.6 14.039 1.21 1.136.81 22.962.65 27.217-.66-2.328-.42-13.673-.44-16.574-8.13-3.442-20.19-8.561-27.96-12.515-2.24-1.009-4.86-2.261-7.18-2.997-5.97-2.557-10.81-3.561-16.42-5.677-2.73-1.116-4.61-2.608-7.45-3.124z"/><path fill="#fcfbfb" d="M962.827 302.162c.039-.389.231-4.023.711-4.267 17.235-8.782 37.662-13.479 56.832-15.333l1.8.369c2.84.516 4.72 2.008 7.45 3.124 5.61 2.116 10.45 3.12 16.42 5.677 2.32.736 4.94 1.988 7.18 2.997-6.77.473-15.37.292-21.61 1.148l-1.71-.64c-11.99 4.158-37.482 11.346-49.667 14.435l-.211 242.491.183 73.769c.028 12.938.694 26.842-.591 39.849-4.761 46.072-54.291 37.615-87.231 38.202-4.365.077-9.864-.294-14.196-.671-42.842-3.728-86.603-6.243-129.237-11.562-26.986-2.724-53.153-5.259-80.006-9.274l.119 95.558 7.865 4.485 4.004 2.165-.319.833c-5.465.006-7.528-.419-12.948-1.455-3.577-.081-12.775-1.478-16.727-1.982-.079-37.453-.468-79.535 2.464-116.601 85.965 19.79 181.535 24.984 269.663 30.31 17.751 1.072 37.519-12.794 39.457-30.909 1.374-12.844.501-28.669.433-41.952l-.058-71.591z"/><path fill="#eddaca" d="M962.827 302.162c.039-.389.231-4.023.711-4.267 17.235-8.782 37.662-13.479 56.832-15.333l1.8.369c2.84.516 4.72 2.008 7.45 3.124-3.72.25-7.42.594-11.12 1.034-4.26.518-9.9 1.716-14.01 2.739l-1.93.468a227 227 0 0 0-23.572 7.513c-4.07 1.571-11.854 3.644-16.161 4.353"/><path fill="#fcfbfb" d="M1010.94 1106.56c.59-33.75 5.28-362.091 9.08-369.649 1.32 10.117 1.13 26.495 1.2 36.967l-.1 63.408a5363 5363 0 0 1-4.17 205.684c-1.02 28.19-3.6 57.85-4.22 85.58-.83-.04-.57.03-.92-.13-.61-.83-.55-18.34-.87-21.86"/><path fill="#eddaca" d="M1012.73 1128.55c.32 8.64-1.92 33.24-2.48 43.11-.02.23-.26.53-.52.64-.32-.07-.17.01-.42-.33l.48-.56-.68-1.14.01-1.17c-.01-10.53.65-53.9 1.82-62.54.32 3.52.26 21.03.87 21.86.35.16.09.09.92.13"/><path fill="#989da4" d="M1114.94 352.726c11.31 6.469 24.05 10.761 36.07 17.48-.7 1.404-1.07 2.325-1.68 3.817l1.99 1.709-2.09 1.143c17.55 11.05 28.48 18.653 44.5 32.476 60.84 52.495 94.52 158.705 98.42 238.142-62.24 5.842-113.47 12.119-177.2 13.537z"/><path fill="#202227" d="M1149.23 376.875c-1.31-.626-6.28-2.94-6.38-4.423l.16-.158c1.29-.311 4.93 1.279 6.32 1.729l1.99 1.709z"/><path fill="#c8c9ca" d="M907.53 372.522c4.904-5.034 14.394-10.129 22.454-18.624l-.14 205.783-.027 64.294c-.01 10.859.404 26.695-.608 37.193-54.372-1.336-122.085-7.256-175.496-14.16 9.547-92.616 36.55-183.682 111.888-244.78a320 320 0 0 1 31.822-22.673c3.609-1.926 7.206-4.141 10.107-7.033"/><path fill="#fcfbfb" d="M657.524 646.235c4.248-17.173 8.495-32.772 14.292-49.597 37.983-110.251 125.29-201.652 233.765-244.37 5.987-2.357 17.243-7.213 23.506-6.619l1.437 1.843-.54 6.406c-8.06 8.495-17.55 13.59-22.454 18.624-2.901 2.892-6.498 5.107-10.107 7.033l-1.487-1.821c-90.237 47.099-169.694 123.641-200.707 222.628a315 315 0 0 0-10.138 42.421c-8.526 1.402-17.76 2.736-26.138 4.615z"/><path fill="#eddaca" d="M657.524 646.235c4.248-17.173 8.495-32.772 14.292-49.597 37.983-110.251 125.29-201.652 233.765-244.37 5.987-2.357 17.243-7.213 23.506-6.619l1.437 1.843c-38.469 16.407-74.942 34.992-108.74 59.787-18.826 13.811-30.439 26.435-46.273 42.551-51.838 52.762-87.13 120.561-108.277 191.012.09-.303-8.915 4.76-9.71 5.393"/><path fill="#202227" d="M895.936 377.734c3.819-1.772 7.707-3.618 11.594-5.212-2.901 2.892-6.498 5.107-10.107 7.033z"/><path fill="#b57a48" d="M1437.94 1269.09c44.7 20.04 89.75 39.01 134.24 59.34 13.2 6.03 39.89 17.24 51.69 24.07-31.67 64.4-65.75 113.76-110.16 170.3-4.85-3.24-12.02-8.36-16.84-11.2 35.72-43.62 56.24-72.81 86.03-120.55 3.46-6.27 15.03-26.27 15.17-31.81-12.5-3.36-39.43-16.7-52.02-22.59l-78.13-36.41c-10.98-4.8-22.6-10.02-33.73-14.39 1.29-5.53 2.71-11.2 3.75-16.76"/><path fill="#989da4" d="M1467.92 1300.24c21.76-1.15 88.68 38.61 111.75 46.99 4.56 1.65 17.13 7.27 18.4 12.01-12.5-3.36-39.43-16.7-52.02-22.59z"/><path fill="#b57a48" d="M1114.94 352.726c.12-4.381-.67-4.893 1.5-7.48 4.78-.046 19.93 5.833 25.14 7.768a368.76 368.76 0 0 1 134.99 85.802A395.86 395.86 0 0 1 1390 647.119c-5.31-1.069-11.47-2.174-16.68-3.45-23.03-105.392-75.3-170.781-159.28-234.031-19.36-12.255-40.17-24.112-61.16-33.091l-1.56-.815-1.99-1.709c.61-1.492.98-2.413 1.68-3.817-12.02-6.719-24.76-11.011-36.07-17.48"/><path fill="#c8c9ca" d="M1151.01 370.206c3 1.137 5.99 2.706 8.88 4.14l4.47 2.263 3.55 1.73c9.02 4.447 41.45 23.693 46.13 31.299-19.36-12.255-40.17-24.112-61.16-33.091l-1.56-.815-1.99-1.709c.61-1.492.98-2.413 1.68-3.817"/><path fill="#fcfbfb" d="M429.092 1346.57c40.225-16.85 81.182-37.07 121.559-53.95 8.526-3.57 50.632-23.8 57.21-24.37 2.741 1.8 2.221 2.53 3.645 6.37.917 4.42 1.694 8.16 2.921 12.54-51.862 25.1-107.258 47.89-159.699 72.34-3.293-2.45-9.94-5.04-13.931-6.77-4.238-1.94-7.661-3.89-11.705-6.16"/><path fill="#eddaca" d="M429.092 1346.57c40.225-16.85 81.182-37.07 121.559-53.95 8.526-3.57 50.632-23.8 57.21-24.37 2.741 1.8 2.221 2.53 3.645 6.37-15.964 6.6-48.425 23.1-63.166 25.16-3.237 8.24-91.315 42.03-107.543 52.95-4.238-1.94-7.661-3.89-11.705-6.16"/><path fill="#b57a48" d="M1295.23 682.512c30.71-3.581 68.06-10.919 98.35-17.03 2.03 12.71 1.74 30.377 1.91 43.679.29 24.261.44 48.523.43 72.785-6.36.951-12.76 1.996-19.15 2.633-1.3.478-7.01 1.69-7.89.817.11-1.359 3.45-2.422 4.38-2.808l7.98-4.418c.48-32.927.59-65.857.34-98.786-23.4 6.151-62.5 10.498-86.45 12.731z"/><path fill="#9d6b4a" d="M1373.26 782.588c1.72 1.205 1.69 1.249 3.51 1.991-1.3.478-7.01 1.69-7.89.817.11-1.359 3.45-2.422 4.38-2.808"/></svg>