<svg xmlns="http://www.w3.org/2000/svg" width="2048" height="2048" viewBox="0 0 2048 2048"><path fill="#1e2025" d="M0 0h2048v2048H0z"/><path fill="#c46f30" d="M1004.85 514.559c55.16-2.771 116.35 6.556 169.25 21.328 160.97 44.697 297.06 147.899 421.94 254.923 105.71 90.604 209.38 191.643 347.01 230.33 2.19.61 3.01 1.23 3.69 3.15-1.09 1.02-58.57 21.72-68.12 26.03-37.13 16.74-71.84 38.64-105.03 62.12-65.32 46.21-124.66 100.92-185.21 153.09-129.3 111.4-273.2 219.67-443.67 255.25-33.22 6.93-66.85 10.04-100.66 12.18-220.88 5.5-392.064-106.39-555.309-242.99-99.071-82.9-209.848-194.12-329.484-243.92a570 570 0 0 0-32.7-12.38c-7.061-2.37-17.712-5.08-23.884-8.42l-.473-1.64c2.159-2.05 52.85-18.99 62.264-23.13A618.3 618.3 0 0 0 272.2 938.883c63.025-44.145 119.947-96.693 178.268-146.638 162.001-138.734 333.578-265.777 554.382-277.686"/><path fill="#1e2025" d="M1009.41 534.455c3.52-.587 19.77-.484 24.1-.401 43.77.904 87.25 7.332 129.41 19.131 170.8 48.67 297.77 147.27 430.47 261.321 95.19 81.811 179.97 162.421 298.76 209.364-24.32 10.5-47.7 21.26-70.7 34.52-82.15 47.38-152.64 111.83-224.11 173.27-164.78 141.67-329.96 273.57-556.57 281.5-33.22 2.02-75.436-2.02-108.161-7.35-190.14-30.97-345.611-156.65-487.002-279.17-86.795-75.21-179.832-159.97-288.638-201.75 120.222-51.663 192.711-119.072 290.539-203.865 161.39-139.885 339.271-277.995 561.902-286.57"/><path fill="#1e2025" d="M949.383 602.478c35.141-5.066 109.497-8.42 143.997-.426 33.81 1.477 83.4 16.899 114.69 29 122.53 47.389 228.87 128.911 328.41 212.956 46.03 38.865 93.37 82.525 140.7 119.246 16 12.477 32.68 24.07 49.95 34.726 9.83 5.95 23.17 12.6 32.18 18.58 1.83.73 3.34 1.6 5.08 2.5 5.68 2.78 12.09 3.89 5.03 8.03-1.76.93-3.36 1.89-5.13 2.78-50.18 25.04-104.23 70.66-147.32 106.86-59.54 50.02-116.76 103.34-179.6 149.51-16.71 12.28-43.9 33.59-61.09 43.64-45.77 32.4-148.29 87.45-203.63 99.44-43.35 16.55-116.72 22.23-162.79 21.66-27.96-.65-94.702-8.06-120.956-17.57-2.631-.59-4.536-1.01-7.093-1.94-32.942-7.7-80.433-29.16-110.704-43.63a927 927 0 0 1-73.605-41.62c-7.122-4.44-19.246-11.66-25.535-16.78-10.77-4.51-90.193-64.63-100.134-74.77-8.438-6.02-16.187-12.86-24.209-19.4-52.232-42.61-101.616-88.47-153.984-130.91-37.811-30.65-75.31-59.83-120.032-79.78 73.944-34.415 148.668-104.493 210.677-156.661 17.054-14.348 34.109-31.048 51.938-44.301 10.265-10.085 36.892-30.939 49.097-40.4 85.301-66.123 177.456-126.858 280.65-160.892 21.608-7.126 51.723-16.011 74.262-18.35 3.895-1.051 4.228-.978 8.32-1.173z"/><defs><linearGradient id="a" x1="1261.503" x2="1321.249" y1="1140.861" y2="1395.114" gradientUnits="userSpaceOnUse"><stop offset="0" stop-color="#7a7c81"/><stop offset="1" stop-color="#cbcbcd"/></linearGradient></defs><path fill="url(#a)" d="m1690.24 1024.78 1.3-1.26 57.85 1.49c-.38 1.08-.76 2.17-1.12 3.25 3.73-.91 5.03-1.22 8.98-1.15 3.26 1.83 3.36 1.82 7.04 2.76-50.18 25.04-104.23 70.66-147.32 106.86-59.54 50.02-116.76 103.34-179.6 149.51-16.71 12.28-43.9 33.59-61.09 43.64-45.77 32.4-148.29 87.45-203.63 99.44-43.35 16.55-116.72 22.23-162.79 21.66-27.96-.65-94.702-8.06-120.956-17.57-2.631-.59-4.536-1.01-7.093-1.94-32.942-7.7-80.433-29.16-110.704-43.63a927 927 0 0 1-73.605-41.62c-7.122-4.44-19.246-11.66-25.535-16.78l6.441 1.76 1.02-.6c-.198-26.62.549-55.32.936-81.76.127-8.64-1.719-28.95.043-33.47l3.519-1.42.961-2.27c26.972 17.01 50.524 30.98 78.843 45.79 29.484 14.02 58.944 26.81 90.102 36.7 4.287 1.36 9.242 2.76 13.4 4.31 60.067 15.74 106.031 25.17 169.168 22.87 11.05-.47 23.92-2.16 35.23-3.03l7.95 1.43c2.44.44 20.1-.91 22.94-1.3-1.47-.24-5.57-.68-6.83-1.25-.79-1.85 9.2-1.71 13.21-4.39 1.68-.62 15.59-3.42 18.56-4.09 14.22-3.15 28.34-6.71 42.35-10.67 50.44-14.64 102.22-37.51 148.1-62.76a902 902 0 0 0 95.78-61.4c17.17-12.79 33.38-26.96 50.8-39.42 73.77-52.76 139.28-84.71 225.75-109.69"/><defs><linearGradient id="b" x1="678.91" x2="773.103" y1="1298.862" y2="1300.086" gradientUnits="userSpaceOnUse"><stop offset="0" stop-color="#bfbec1"/><stop offset="1" stop-color="#f6f6f5"/></linearGradient></defs><path fill="url(#b)" d="M684.887 1211.68c26.972 17.01 50.524 30.98 78.843 45.79 2.339 19.31 5.022 31.6 9.96 50.52-6.594 9.44-2.079 39.1-2.06 50.97.011 6.99-.322 20.89.417 27.28l-.94 1.6a927 927 0 0 1-73.605-41.62c-7.122-4.44-19.246-11.66-25.535-16.78l6.441 1.76 1.02-.6c-.198-26.62.549-55.32.936-81.76.127-8.64-1.719-28.95.043-33.47l3.519-1.42z"/><path fill="#edebeb" d="m1690.24 1024.78 1.3-1.26 57.85 1.49c-.38 1.08-.76 2.17-1.12 3.25-12.27 1.36-30.56 5.87-42.67 8.85a693.8 693.8 0 0 0-219.31 98.76c-37.72 25.46-71.09 53.21-109.27 79.35-59.17 37.45-125.78 72.47-194.22 89.21l-1.01.19c-13.39 2.63-27.17 7.48-40.51 9.98-11.52 2.15-27.43 1.95-38.76 3.85-1.47-.24-5.57-.68-6.83-1.25-.79-1.85 9.2-1.71 13.21-4.39 1.68-.62 15.59-3.42 18.56-4.09 14.22-3.15 28.34-6.71 42.35-10.67 50.44-14.64 102.22-37.51 148.1-62.76a902 902 0 0 0 95.78-61.4c17.17-12.79 33.38-26.96 50.8-39.42 73.77-52.76 139.28-84.71 225.75-109.69"/><path fill="#edebeb" d="M773.69 1307.99c14.072 42.24 44.305 90.44 86.125 109.7 4.421 3.82 15.833 9.25 21.451 11.03l.545 2.75c-32.942-7.7-80.433-29.16-110.704-43.63l.94-1.6c-.739-6.39-.406-20.29-.417-27.28-.019-11.87-4.534-41.53 2.06-50.97"/><path fill="#edebeb" d="M881.266 1428.72c2.292.83 8.942 2.14 7.638 4.69-2.631-.59-4.536-1.01-7.093-1.94z"/><defs><linearGradient id="c" x1="1176.669" x2="1457.668" y1="982.58" y2="708.317" gradientUnits="userSpaceOnUse"><stop offset="0" stop-color="#a3a3a6"/><stop offset="1" stop-color="#fff"/></linearGradient></defs><path fill="url(#c)" d="M949.383 602.478c35.141-5.066 109.497-8.42 143.997-.426 33.81 1.477 83.4 16.899 114.69 29 122.53 47.389 228.87 128.911 328.41 212.956 46.03 38.865 93.37 82.525 140.7 119.246 16 12.477 32.68 24.07 49.95 34.726 9.83 5.95 23.17 12.6 32.18 18.58 1.83.73 3.34 1.6 5.08 2.5 5.68 2.78 12.09 3.89 5.03 8.03-1.76.93-3.36 1.89-5.13 2.78-3.68-.94-3.78-.93-7.04-2.76-3.95-.07-5.25.24-8.98 1.15.36-1.08.74-2.17 1.12-3.25l-57.85-1.49-1.3 1.26c-2.99-2.5-36.87-8.17-44.71-10.92-24.8-8.69-48.56-17.898-72.25-29.285a633.6 633.6 0 0 1-108.3-65.877c-13.91-10.528-26.75-22.3-40.74-32.865-16.79-12.671-35.46-23.854-52.21-36.313-2.01-.713-22.05-13.197-25.7-15.415a831 831 0 0 0-43.97-25.121 790 790 0 0 0-67.29-31.846c-11.85-4.973-24.64-9.354-36.12-14.415-4.43-.544-34.26-10.508-42.05-12.604-26.8-7.215-49.81-10.99-77.16-15.466-16.46-1.372-33.12-3.227-49.61-3.759-31.521-1.018-61.22 2.783-92.367 6.567l-1.005-.451-.223-.748c6.732-1.435 14.385-1.427 20.069-2.803 1.207-4.971 3.294-7.403 4.426-12.946 1.563-7.65 3.643-15.258 5.203-22.948l-3.278-3.054c-.371-1.536-.86-3.782-.715-5.189.445-4.31-1.378-13.857 2.532-16.497 1.464-.988 1.946-2.212 2.591-3.889-.897-7.47-2.532.017-3.929-8.854-2.939-18.681 7.095-37.045 2.458-54.819-.91-3.49-11.158-1.19-16.509-2.785"/><defs><linearGradient id="d" x1="1771.945" x2="1192.816" y1="849.227" y2="819.415" gradientUnits="userSpaceOnUse"><stop offset="0" stop-color="#6a6c72"/><stop offset="1" stop-color="#cfcecf"/></linearGradient></defs><path fill="url(#d)" d="M1198.95 762.723c10.77-1.796 48.19 20.142 59.29 21.362-4.23-5.088-2.9-19.411-2.64-26.217-.24 3.448.31 4.589-1.41 6.865-4.01-8.019 6.53-29.301-.92-32.879-2.11 6.072 1.58 17.791-2.91 20.591-2.67-4.936.45-27.092.41-34.186-.03-5.492-2.27-27.388-.48-30.721 2.42-.033 2.41.109 4.6-.824 2.82-7.03-1.82-9.819-.86-13.975q2.685-.94 5.31-2.003l.36-2.023c-10.13-6.872-44.32-21.514-56.12-26.564l.42-.156c13.72 3.678 25.83 10.657 38.65 16.709 48.77 23.01 93.03 50.574 137.71 80.653a1591 1591 0 0 1 102.65 77.328 6293 6293 0 0 1 74.02 62.221c31.39 26.986 158.3 142.916 197.02 139.416 2.37-.64 3.08-.81 5.26-1.76 1.83.73 3.34 1.6 5.08 2.5 5.68 2.78 12.09 3.89 5.03 8.03-1.76.93-3.36 1.89-5.13 2.78-3.68-.94-3.78-.93-7.04-2.76-3.95-.07-5.25.24-8.98 1.15.36-1.08.74-2.17 1.12-3.25l-57.85-1.49-1.3 1.26c-2.99-2.5-36.87-8.17-44.71-10.92-24.8-8.69-48.56-17.898-72.25-29.285a633.6 633.6 0 0 1-108.3-65.877c-13.91-10.528-26.75-22.3-40.74-32.865-16.79-12.671-35.46-23.854-52.21-36.313-2.01-.713-22.05-13.197-25.7-15.415a831 831 0 0 0-43.97-25.121 790 790 0 0 0-67.29-31.846c-11.85-4.973-24.64-9.354-36.12-14.415"/><path fill="#909195" d="M1764.39 1019.06c5.68 2.78 12.09 3.89 5.03 8.03-1.76.93-3.36 1.89-5.13 2.78-3.68-.94-3.78-.93-7.04-2.76-3.95-.07-5.25.24-8.98 1.15.36-1.08.74-2.17 1.12-3.25 6.48-.79 14.68 2.32 14.22-4.78z"/><path fill="#6d6f71" d="M1757.25 1027.11c3.39-1.27 10.44-4.85 12.17-.02-1.76.93-3.36 1.89-5.13 2.78-3.68-.94-3.78-.93-7.04-2.76"/><path fill="#edebeb" d="M1759.31 1016.56c1.83.73 3.34 1.6 5.08 2.5l-.78 1.17c-3.06-.62-6.59-1.15-9.56-1.91 2.37-.64 3.08-.81 5.26-1.76"/><path fill="#edebeb" d="M1250.51 678.644c3.36.581 2.38 2.155-.01 3.355-.08-1.251-.32-2.12.01-3.355"/><defs><linearGradient id="e" x1="278.666" x2="570.086" y1="1010.154" y2="1024.178" gradientUnits="userSpaceOnUse"><stop offset="0" stop-color="#919296"/><stop offset="1" stop-color="#d1d1d2"/></linearGradient></defs><path fill="url(#e)" d="M560.2 808.117c3.241 26.288.802 56.935 2.26 83.726.454 8.337-1.455 28.716.307 35.963 3.412-3.01 4.706-3.431 9.161-4.24-47.375 35.136-102.458 67.407-158.354 86.604a325 325 0 0 1-29.531 8.35c-5.315 1.24-23.093 4.35-26.282 6.16l1.07.36c10.093 3.34 22.004 5.77 32.434 8.63a425 425 0 0 1 44.827 15.51 648.5 648.5 0 0 1 139.821 80.73c17.928 13.38 34.066 27.18 51.524 40.76a909 909 0 0 0 57.45 41.01l-.961 2.27-3.519 1.42c-1.762 4.52.084 24.83-.043 33.47-.387 26.44-1.134 55.14-.936 81.76l-1.02.6-6.441-1.76c-10.77-4.51-90.193-64.63-100.134-74.77-8.438-6.02-16.187-12.86-24.209-19.4-52.232-42.61-101.616-88.47-153.984-130.91-37.811-30.65-75.31-59.83-120.032-79.78 73.944-34.415 148.668-104.493 210.677-156.661 17.054-14.348 34.109-31.048 51.938-44.301 4.363-.339 18.57-12.065 23.977-15.501"/><path fill="#edebeb" d="M322.188 1026.22c5.46-.24 31.089-2.29 35.573-1.54l1.07.36c10.093 3.34 22.004 5.77 32.434 8.63a425 425 0 0 1 44.827 15.51 648.5 648.5 0 0 1 139.821 80.73c17.928 13.38 34.066 27.18 51.524 40.76a909 909 0 0 0 57.45 41.01l-.961 2.27-3.519 1.42c-1.762 4.52.084 24.83-.043 33.47-.387 26.44-1.134 55.14-.936 81.76l-1.02.6-6.441-1.76c-10.77-4.51-90.193-64.63-100.134-74.77-1.839-6.86-10.542-8.84-15.759-15.42-.041-3.63 2.059-4.45 4.027-7.6 3.128-5-.571-10.56-2.089-15.75l2.565.34 1.228-1.24c.213-3.75.348-3.65-.993-7.39-2.131-1.22-2.24-1.11-3.731-3-.324-5.42-1.029-74.97-.647-76.23l1.929.47.533-.51c-58.52-40.94-122.027-72.68-190.891-92.53-14.195-4.09-30.643-5.35-44.739-9.28z"/><path fill="#edebeb" d="m948.552 602.803.831-.325c5.351 1.595 15.599-.705 16.509 2.785 4.637 17.774-5.397 36.138-2.458 54.819 1.397 8.871 3.032 1.384 3.929 8.854-.645 1.677-1.127 2.901-2.591 3.889-3.91 2.64-2.087 12.187-2.532 16.497-.145 1.407.344 3.653.715 5.189l3.278 3.054c-1.56 7.69-3.64 15.298-5.203 22.948-1.132 5.543-3.219 7.975-4.426 12.946-5.684 1.376-13.337 1.368-20.069 2.803l.223.748 1.005.451c-19.481 4.294-37.29 6.68-57.242 12.119-39.654 10.808-75.059 24.805-112.61 40.988-45.805 22.735-81.938 44.076-122.557 75.63-24.321 18.893-48.494 39.844-73.426 57.368-4.455.809-5.749 1.23-9.161 4.24-1.762-7.247.147-27.626-.307-35.963-1.458-26.791.981-57.438-2.26-83.726-5.407 3.436-19.614 15.162-23.977 15.501 10.265-10.085 36.892-30.939 49.097-40.4 85.301-66.123 177.456-126.858 280.65-160.892 21.608-7.126 51.723-16.011 74.262-18.35 3.895-1.051 4.228-.978 8.32-1.173"/><path fill="#909195" d="m948.552 602.803.831-.325c5.351 1.595 15.599-.705 16.509 2.785 4.637 17.774-5.397 36.138-2.458 54.819 1.397 8.871 3.032 1.384 3.929 8.854-.645 1.677-1.127 2.901-2.591 3.889-3.91 2.64-2.087 12.187-2.532 16.497-.145 1.407.344 3.653.715 5.189l3.278 3.054c-1.56 7.69-3.64 15.298-5.203 22.948-1.132 5.543-3.219 7.975-4.426 12.946-5.684 1.376-13.337 1.368-20.069 2.803l.223.748 1.005.451c-19.481 4.294-37.29 6.68-57.242 12.119-39.654 10.808-75.059 24.805-112.61 40.988 15.955-107.495 72.698-156.357 172.896-184.97l-.575-1.622c3.895-1.051 4.228-.978 8.32-1.173"/><path fill="#edebeb" d="M940.232 603.976c3.895-1.051 4.228-.978 8.32-1.173.383.594.316.391.365.683-.571.672-6.903 1.867-8.11 2.112z"/><path fill="#edebeb" d="M1071.63 1318.32c9.15-1.17 18.28-2.54 27.38-4.11 3.53-.6 6.3-1.1 9.89-1.4-4.01 2.68-14 2.54-13.21 4.39 1.26.57 5.36 1.01 6.83 1.25-2.84.39-20.5 1.74-22.94 1.3z"/><defs><linearGradient id="f" x1="636.586" x2="891.078" y1="1145.693" y2="1034.977" gradientUnits="userSpaceOnUse"><stop offset="0" stop-color="#cdcdce"/><stop offset="1" stop-color="#f4f4f5"/></linearGradient></defs><path fill="url(#f)" d="M822.336 864.091c-4.199 6.508-8.798 12.729-12.952 19.266a266.66 266.66 0 0 0-33.87 198.663c14.51 63.27 52.746 122.94 108.216 157.6l-4.948 1.77c-106.625-34.47-205.523-105.37-284.036-184.38 11.054-12.83 20.942-25.81 32.43-38.45 57.26-62.962 118.616-116.797 195.16-154.469"/><defs><linearGradient id="g" x1="1448.854" x2="1193.026" y1="1044.284" y2="1047.224" gradientUnits="userSpaceOnUse"><stop offset="0" stop-color="#8e9195"/><stop offset="1" stop-color="#c9c7c9"/></linearGradient></defs><path fill="url(#g)" d="M1222.65 862.931c85.09 41.372 169.32 123.605 230.14 194.719-65.77 58.93-131.63 113.12-211.03 153.4-9.13 4.63-33.52 16.36-42.68 19.35-1.26-3.65-3.49-11.6-5.31-14.29 52.17-49.37 82.6-111.33 84.41-183.98a259.1 259.1 0 0 0-55.53-169.199"/><path fill="#edebeb" d="M1193.77 1216.11c1.82 2.69 4.05 10.64 5.31 14.29-13.51 5.79-29 10.01-43.16 14.01 13.23-9.7 25.04-17.74 37.85-28.3"/><path fill="#909195" d="M883.73 1239.62c2.938 1.27 5.22 2.94 7.978 4.53l-12.926-2.76z"/></svg>