<svg xmlns="http://www.w3.org/2000/svg" width="2048" height="2048" viewBox="0 0 2048 2048"><path fill="#27242a" d="M0 0h2048v2048H0z"/><path fill="#07090e" d="M1009.1 278.57c79.76-6.409 150 36.689 205.23 90.122 62.48-12.978 126.11-17.109 185.11 13.69 54.16 28.275 92.5 80.685 115.51 136.24 6.77 16.326 12.06 36 17.24 53.177 43.86 15.467 101.54 51.106 131.87 86.081a211.8 211.8 0 0 1 52.09 135.449c.4 17.714-1.25 31.103-2.52 48.505 23.32 25.446 37.47 53.741 42.1 87.917 9.54 70.279-25.36 129.819-66.27 183.479 5.08 8.65 9.66 17.58 13.72 26.75 23.13 52.81 26.81 110.12 4.7 163.47-31.21 75.29-86.14 113.93-157.55 144.45-22.86 87.95-55.94 164.48-146.28 202.31-46.5 19.47-119.72 25.32-166.81 5.96-54.41 60.53-118.89 104.9-202 112.52-7.74.42-15.5.51-23.25.27-69.486-2.19-120.868-41.26-166.577-89.46a311 311 0 0 1-38.554 8.32c-31.274 4.53-63.827 2.69-94.891-2.87-93.301-16.7-147.882-92.16-160.627-182.82-52.996-17.02-120.956-55.59-158.51-97.26-42.868-47.58-53.828-113.79-49.996-175.88-21.806-29.67-34.344-47.6-44.228-84.05-20.374-75.13 19.748-134.87 60.827-193.629-5.069-10.548-10.09-20.82-14.365-31.833-21.339-54.971-26.167-122.5-2.722-177.447 25.542-59.866 94.988-112.352 155.099-135.798 1.371-11.621 8.23-37.086 11.948-48.061 21.407-63.183 61.581-129.982 124.114-159.049 64.188-29.836 117.126-30.434 182.824-8.089C872.631 331.787 923.126 286.79 1009.1 278.57"/><path fill="#cecece" d="M740.781 1477.54c1.408 2.31 1.514 2.16 1.687 4.81-2.908 3.05-21.974 3.41-27.205 3.54-98.573 2.59-200.058-27.92-274.931-93.25-36.597-31.94-53.725-78.87-56.326-125.51-5.703-102.23 81.299-219.63 146.671-292.516a973 973 0 0 1 93.624-90.256c97.062-83.32 178.084-122.05 304.644-140.988 24.112-3.608 56.472-9.931 81.565-12.69 2.1-.23 4.18 3.036 5.78 4.874l2.78 2.839c8.45 8.516 67.06 68.876 69.57 75.061l-5.96 1.717 7.31-.1 1.14 1.579c2.6 1.543 3.63 1.727 4.89 4.411-2.79 3.467-11.39 3.486-15.91 4.105-76.52 10.492-160.858 16.899-233.558 45.103C750.083 907.695 659.3 984.14 593.303 1063.89c-39.788 49.64-103.104 141.04-96.686 206.77 6.451 66.07 116.034 104.81 172.461 109.94 6.947.63 46.854 3.2 49.456 5.82-2.775 4.8-5.829 3.65-11.202 3.7 4.966 3.33 3.244-1.28 5.964 1.87 4.334.99 3.939.16 6.258 2.87 4.491 22.74 9.065 44.51 15.958 66.67.864 2.78 4.005 10.92 2.693 13.11 1.483 1.35 2.169 1.47 2.576 2.9"/><path fill="#0afef2" d="M740.781 1477.54c1.408 2.31 1.514 2.16 1.687 4.81-2.908 3.05-21.974 3.41-27.205 3.54-98.573 2.59-200.058-27.92-274.931-93.25-36.597-31.94-53.725-78.87-56.326-125.51-5.703-102.23 81.299-219.63 146.671-292.516a973 973 0 0 1 93.624-90.256c97.062-83.32 178.084-122.05 304.644-140.988 24.112-3.608 56.472-9.931 81.565-12.69 2.1-.23 4.18 3.036 5.78 4.874l2.78 2.839c-65.221 12.139-128.454 17.551-192.325 37.964-148.89 47.587-275.832 175.614-363.887 299.363-76.315 107.25-113.538 251.01 16.102 334.35 80.144 51.52 164.529 71.76 259.245 64.57 1.483 1.35 2.169 1.47 2.576 2.9"/><path fill="#000c0b" d="m1016.29 735.554 2.78 2.839c-65.221 12.139-128.454 17.551-192.325 37.964-148.89 47.587-275.832 175.614-363.887 299.363-76.315 107.25-113.538 251.01 16.102 334.35 80.144 51.52 164.529 71.76 259.245 64.57 1.483 1.35 2.169 1.47 2.576 2.9-90.663 9.79-193.566-15.17-268.413-67.87-48.342-34.04-68.619-61.94-79.79-121.3-14.676-77.98 30.691-160.72 73.98-223.23 65.365-94.395 176.378-203.514 278.446-258.29a438.4 438.4 0 0 1 79.357-33.071c64.696-20.324 125.615-26.791 191.929-38.225"/><path fill="#0afef2" d="M1091.13 816.65c2.6 1.543 3.63 1.727 4.89 4.411-2.79 3.467-11.39 3.486-15.91 4.105-76.52 10.492-160.858 16.899-233.558 45.103C750.083 907.695 659.3 984.14 593.303 1063.89c-39.788 49.64-103.104 141.04-96.686 206.77 6.451 66.07 116.034 104.81 172.461 109.94 6.947.63 46.854 3.2 49.456 5.82-2.775 4.8-5.829 3.65-11.202 3.7-68.64-.86-198.948-33.12-215.669-113.36-10.061-48.28 32.136-125.99 59.966-166.92 65.481-96.29 167.345-190.885 274.933-238.075a475.3 475.3 0 0 1 85.961-27.499c53.979-12.194 109.147-17.892 163.907-25.349 4.61-.628 9.22-1.18 13.79-2.082z"/><path fill="#000c0b" d="M713.296 1391.99c-2.999 1.59-10.445 1.53-13.952 1.29-64.535-4.37-141.424-22.28-186.754-71.1-16.132-17.37-27.348-39.17-25.6-62.48 7.591-101.21 100.407-212.38 170.645-277.499a656.4 656.4 0 0 1 105.809-80.623c82.195-49.921 142.158-63.066 237.656-76.061l52.43-7.143c7.46-1.016 22.11-3.469 29.15-3.203l7.31-.1 1.14 1.579-.91.185c-4.57.902-9.18 1.454-13.79 2.082-54.76 7.457-109.928 13.155-163.907 25.349a475.3 475.3 0 0 0-85.961 27.499c-107.588 47.19-209.452 141.785-274.933 238.075-27.83 40.93-70.027 118.64-59.966 166.92 16.721 80.24 147.029 112.5 215.669 113.36 4.966 3.33 3.244-1.28 5.964 1.87"/><path fill="#cecece" d="M1525.04 622.363c-3.03-1.804-1.92-.52-3.02-4.32l.82-2.379c7.92-1.449 43.81 18.908 53.42 24.565 49.19 28.945 85.25 69.311 95.68 126.679a162.7 162.7 0 0 1 1.26 53.691c-8.71 61.001-55.81 142.39-91.65 193.421-75.4 105.16-184.04 197.2-303.61 247.92-49.55 21.02-107.82 31.99-160.16 43.12-9.69 2.06-74.8 16-79.05 14.9l-5.12-4.49.02-2.54c-8.69-1.71-63.124-61.57-70.943-71.48l.313-2.44.06-1.75-3.883-.6c-2.969-2.65-2.53-1.21-2.865-4.13 4.832-3.94 35.29-7.4 44.258-8.89 25.84-4.34 51.63-9.03 77.34-14.06 50.73-10.12 120.1-27.74 166.78-50.15 110.93-53.77 214.02-137.74 277.39-244.393 29.98-50.468 68.24-120.603 19.14-170.591-6.32-6.439-11.85-11.917-19.07-17.365-4.5-3.4-20.95-11.625-22.65-15.357l1.92-4.081 2.56-2.389-.66-1.668c7.77-18.897 15.47-34.152 17.19-54.639.36-4.315 1.41-21.813 3.28-24.051z"/><path fill="#0afef2" d="M1525.04 622.363c-3.03-1.804-1.92-.52-3.02-4.32l.82-2.379c7.92-1.449 43.81 18.908 53.42 24.565 49.19 28.945 85.25 69.311 95.68 126.679a162.7 162.7 0 0 1 1.26 53.691c-8.71 61.001-55.81 142.39-91.65 193.421-75.4 105.16-184.04 197.2-303.61 247.92-49.55 21.02-107.82 31.99-160.16 43.12-9.69 2.06-74.8 16-79.05 14.9l-5.12-4.49.02-2.54c8.61-4.4 88.72-18.82 103.2-21.62 92.39-17.94 162.97-41.84 241.1-94.68 116.96-78.29 208.6-181.62 265.59-310.772 55.53-125.853.08-210.616-119.73-260.962z"/><path fill="#000c0b" d="M1525.04 622.363c50.49 17.915 104.33 55.645 127.93 105.166 37.43 78.535.26 154.478-39.18 224.251-70.95 125.53-185.53 230.67-314.85 294.12-56.18 27.22-131.71 42.94-192.64 55.05-21.83 4.33-51.17 11.29-72.69 14.52l.02-2.54c8.61-4.4 88.72-18.82 103.2-21.62 92.39-17.94 162.97-41.84 241.1-94.68 116.96-78.29 208.6-181.62 265.59-310.772 55.53-125.853.08-210.616-119.73-260.962z"/><path fill="#0afef2" d="M1501.42 707.643c29.69 15.117 54.66 35.265 65.63 68.026 12.88 38.505-7.54 84.25-25.85 118.642-71.46 134.239-215.41 249.589-359.84 296.019-41.17 13.24-82.44 21.18-124.01 29.67-11.37 2.32-90.473 15.36-94.29 17.26l-3.883-.6c-2.969-2.65-2.53-1.21-2.865-4.13 4.832-3.94 35.29-7.4 44.258-8.89 25.84-4.34 51.63-9.03 77.34-14.06 50.73-10.12 120.1-27.74 166.78-50.15 110.93-53.77 214.02-137.74 277.39-244.393 29.98-50.468 68.24-120.603 19.14-170.591-6.32-6.439-11.85-11.917-19.07-17.365-4.5-3.4-20.95-11.625-22.65-15.357z"/><path fill="#000c0b" d="M1503.98 705.254c87.39 44.361 82.55 111.702 40.81 188.896-75.14 138.95-210.75 247.31-359.52 298.46-55.47 18.43-122.59 29.72-180.21 40.14-6.642 1.2-36.33 6.43-42.06 6.26l.06-1.75c3.817-1.9 82.92-14.94 94.29-17.26 41.57-8.49 82.84-16.43 124.01-29.67 144.43-46.43 288.38-161.78 359.84-296.019 18.31-34.392 38.73-80.137 25.85-118.642-10.97-32.761-35.94-52.909-65.63-68.026z"/><path fill="#cecece" d="m652.202 1027.09 3.825-2.01c2.967 1.2 26.356 29.72 31.33 34.93a989 989 0 0 0 57.891 56.76c32.326 28.94 64.94 51.92 77.654 96.84 11.635 41.12 5.347 82.64 13.997 124.33 15.668 86.33 50.655 173.29 111.42 237.88 59.821 62.84 101.401 55.37 159.751 1.11 2.8-2.6 5.67-1.78 8.29 1l2.03 1.52c8.05 3.78 21.65 12.53 30.21 17.32 16.43 9.05 33.07 17.71 49.91 25.98 1.52.28 3.96.44 4.89 1.27l3.44 2.46.13 1.81c-63.57 71.44-158.18 130.77-253.886 84.21-29.506-14.44-53.409-36.35-76.131-59.24-88.832-89.48-130.236-210.21-147.924-332.64-3.285-22.74-8.262-66.95-18.062-86.14-10.542-20.65-44.063-50-61.2-67.28a1090 1090 0 0 1-43.966-47.44c-3.053-3.46-11.989-12.84-13.117-16.18l2.852-4.75 2.219-2.72c4.35-4.58 10.959-14.48 15.258-19.9 11.563-14.6 24.402-32.45 37.265-45.79z"/><path fill="#0afef2" d="M597.755 1096.11a1912 1912 0 0 0 54.631 60.4c17.682 18.39 57.537 53.32 67.666 74.3 9.191 19.03 15.022 70.19 18.876 93.33 4.265 26.04 9.38 51.93 15.338 77.63a582.7 582.7 0 0 0 66.021 163.2c29.424 49.72 79.419 105 129.621 134.54 67.672 39.81 151.012 13.37 206.972-36.03a520 520 0 0 0 41.63-40.73c1.52.28 3.96.44 4.89 1.27l3.44 2.46.13 1.81c-63.57 71.44-158.18 130.77-253.886 84.21-29.506-14.44-53.409-36.35-76.131-59.24-88.832-89.48-130.236-210.21-147.924-332.64-3.285-22.74-8.262-66.95-18.062-86.14-10.542-20.65-44.063-50-61.2-67.28a1090 1090 0 0 1-43.966-47.44c-3.053-3.46-11.989-12.84-13.117-16.18l2.852-4.75z"/><path fill="#000c0b" d="M597.755 1096.11a1912 1912 0 0 0 54.631 60.4c17.682 18.39 57.537 53.32 67.666 74.3 9.191 19.03 15.022 70.19 18.876 93.33 4.265 26.04 9.38 51.93 15.338 77.63a582.7 582.7 0 0 0 66.021 163.2c29.424 49.72 79.419 105 129.621 134.54 67.672 39.81 151.012 13.37 206.972-36.03a520 520 0 0 0 41.63-40.73c1.52.28 3.96.44 4.89 1.27-2.56.49-16.52 15.5-19.66 18.84-40.93 43.57-104.44 82.67-166.47 79.66a159.8 159.8 0 0 1-66.859-18.94c-47.234-25.09-101.978-86.17-129.735-131.47a587.9 587.9 0 0 1-67.803-162.08 1085 1085 0 0 1-16.079-79.67c-3.941-23.84-10.626-79.76-19.913-98.65-10.02-20.37-53.983-59.19-71.366-77.9-16.33-17.58-33.791-37.18-49.979-54.98z"/><path fill="#0afef2" d="m652.202 1027.09 3.825-2.01c2.967 1.2 26.356 29.72 31.33 34.93a989 989 0 0 0 57.891 56.76c32.326 28.94 64.94 51.92 77.654 96.84 11.635 41.12 5.347 82.64 13.997 124.33 15.668 86.33 50.655 173.29 111.42 237.88 59.821 62.84 101.401 55.37 159.751 1.11 2.8-2.6 5.67-1.78 8.29 1-63.42 58.72-108.59 70.45-172.298 2.62-61.23-65.19-97.719-152.33-112.726-239.78a420 420 0 0 1-5.378-46.24c-2.168-37.44.106-67.99-18.738-103.06-17.745-33.04-46.09-51.78-73.311-76.8a867 867 0 0 1-57.908-58.24c-6.657-7.44-19.05-20.97-23.799-29.34"/><path fill="#000c0b" d="m650.278 1030.42 1.924-3.33c4.749 8.37 17.142 21.9 23.799 29.34a867 867 0 0 0 57.908 58.24c27.221 25.02 55.566 43.76 73.311 76.8 18.844 35.07 16.57 65.62 18.738 103.06a420 420 0 0 0 5.378 46.24c15.007 87.45 51.496 174.59 112.726 239.78 63.708 67.83 108.878 56.1 172.298-2.62l2.03 1.52c-8.72 9.95-18.89 17.05-28.91 25.22-49.96 41.34-98.893 28.54-142.133-15.78-74.261-76.13-115.374-184.6-124.588-289.53-3.349-38.15 1.161-69.31-18.014-105.17-18.71-35-49.144-54.23-77.195-80.69-25.564-24.43-56.693-54.24-77.272-83.08"/><path fill="#cecece" d="M546.237 604.212c-1.216 3.792-1.6 5.005-5.967 6.14-1.57-2.321-.84-6.401-.13-9.179 14.687-57.474 41.402-119.947 92.25-153.824a175.82 175.82 0 0 1 133.094-27.102c69.253 14.115 174.744 78.569 228.025 124.693 97.521 84.419 197.571 176.681 273.091 281.682 3.19 4.434 4.04 5.065 1.26 9.797-2.31-.263-2.04-.288-3.57-2.422-30.91-43.071-65.56-87.161-103.24-124.65l-3.46 1.079c40.26 42.048 75.88 84.004 108.33 132.448a765 765 0 0 0-27.49 61.222c-3 7.526-8.59 24.605-11.71 30.9.35 3.724.8 5.181-.54 8.703l-1.71 1.535c-6.46-4.942-24.46-30.439-30.73-38.685-111.4-146.489-240.652-283.518-406.242-368.691-39.524-20.33-83.389-24.569-117.806 9.212-13.825 13.57-18.778 26.108-27.233 43.118-2.829 1.796-1.921 1.234-6.042.883l-.68.755-2.252-.644c-3.57 1.781-30.593 4.49-37.018 5.77-15.519 3.092-32.046 5.582-47.497 9.283l-1.695.168z"/><path fill="#0afef2" d="M546.237 604.212c-1.216 3.792-1.6 5.005-5.967 6.14-1.57-2.321-.84-6.401-.13-9.179 14.687-57.474 41.402-119.947 92.25-153.824a175.82 175.82 0 0 1 133.094-27.102c69.253 14.115 174.744 78.569 228.025 124.693 97.521 84.419 197.571 176.681 273.091 281.682 3.19 4.434 4.04 5.065 1.26 9.797-2.31-.263-2.04-.288-3.57-2.422-30.91-43.071-65.56-87.161-103.24-124.65l-3.46 1.079c-20.51-21.433-46.44-45.8-68.45-66.338-31.32-29.234-67.58-64.487-101.136-91.179-60.158-47.845-135.006-97.65-209.419-119.444-46.21-13.534-89.847-7.296-131.697 16.101-57.106 31.927-81.77 96.559-97.918 156.669l-1.695.168z"/><path fill="#000c0b" d="M546.237 604.212c12.143-55.284 42.408-122.239 91.943-152.994 40.052-25.052 84.773-34.743 131.06-23.581 61.826 14.909 115.5 48.294 167.563 83.35 57.632 38.808 107.247 85.989 157.487 133.637 22.48 21.321 45.35 42.229 66.76 64.723l-3.46 1.079c-20.51-21.433-46.44-45.8-68.45-66.338-31.32-29.234-67.58-64.487-101.136-91.179-60.158-47.845-135.006-97.65-209.419-119.444-46.21-13.534-89.847-7.296-131.697 16.101-57.106 31.927-81.77 96.559-97.918 156.669l-1.695.168z"/><path fill="#0afef2" d="M633.485 591.182c18.117-60.175 71.821-92.615 132.345-73.007 24.315 7.878 46.824 21.87 69.062 34.35 97.336 58.788 189.418 139.122 264.828 223.769 24.28 27.253 50.9 61.476 73.5 89.996 12.56 15.849 45.14 54.363 53.5 68.706.35 3.724.8 5.181-.54 8.703l-1.71 1.535c-6.46-4.942-24.46-30.439-30.73-38.685-111.4-146.489-240.652-283.518-406.242-368.691-39.524-20.33-83.389-24.569-117.806 9.212-13.825 13.57-18.778 26.108-27.233 43.118-2.829 1.796-1.921 1.234-6.042.883l-.68.755z"/><path fill="#000c0b" d="M633.485 591.182c18.117-60.175 71.821-92.615 132.345-73.007 24.315 7.878 46.824 21.87 69.062 34.35 97.336 58.788 189.418 139.122 264.828 223.769 24.28 27.253 50.9 61.476 73.5 89.996 12.56 15.849 45.14 54.363 53.5 68.706.35 3.724.8 5.181-.54 8.703l-1.71 1.535c.32-2.202 1.23-5.322.3-6.864-12.67-20.82-33.55-44.335-48.84-63.233-26.44-32.667-53.47-69.096-81.49-99.971-78.68-86.135-168.961-165.742-269.976-224.813-38.051-22.252-85.434-47.468-130.016-27.342-30.618 13.822-46.363 37.507-58.031 68.06l-.68.755z"/><path fill="#27242a" d="m1101.3 864.416 3.61-.067c10.78 6.317 83.75 102.822 93.34 116.987-12.57 47.324-28.3 112.014-33.52 160.634-44.76 17.37-86.66 25.49-133.75 34.11-25.43 4.65-51.151 10.06-76.748 13.58l-3.094.11c-3.47-2.41-26.037-31.24-30.122-36.28l-64.263-78.81c14.753-52.88 27.345-123.434 32.928-177.837 69.062-15.968 141.189-25.203 211.619-32.427"/><path fill="#cecece" d="m1248.1 410.632-8.43 2.103c-3.05.781-3.22.91-6.11-.162-2.47-2.529-2.3-1.334-2.3-3.732 7.4-4.098 15.01-4.496 23.08-5.969 88.69-16.184 165.18 22.847 207.85 101.943 29.36 53.955 43.89 123.437 23.57 183.035-13.7 40.166-38.55 81.298-58.37 119.518-34.52 66.591-63.66 129.601-88.23 200.592a618 618 0 0 0-13.32 43.82c-3.7 13.49-6.82 27.11-10.38 40.64-.13.51-6.24 4.18-7.02 4.63l-2.77 1.84c-14.33 9.28-78.6 47.74-92.77 49.81-.57-.06-.12.04-1.8-.71l-.6-4.88c-.33 3.42-.24 3.64-1.47 7-2.75 1.93-1.26 1.41-4.63 1.57-1.11-1.93-1.6-2.43-1.17-4.94 14.85-85.85 33.39-172.006 68.1-252.331 19.15-44.302 43.19-87.416 65.2-130.373 13.65-26.627 30.73-51.406 41.63-79.496a186.7 186.7 0 0 0 11.71-51.551c3.84-49.457-17.24-97.225-63.32-120.26-10.95-5.471-23.13-5.076-29.2-12.159-1.91-.503-1.02-.008-2.53-1.698 1.68-2.128 3.55-2.209 6.57-3.341-1.13-.115-6.62-.604-7.13-1.321-18.65-26.347-36.87-53.008-57.99-77.566l14.03-3.197z"/><path fill="#0afef2" d="m1248.1 410.632-8.43 2.103c-3.05.781-3.22.91-6.11-.162-2.47-2.529-2.3-1.334-2.3-3.732 7.4-4.098 15.01-4.496 23.08-5.969 88.69-16.184 165.18 22.847 207.85 101.943 29.36 53.955 43.89 123.437 23.57 183.035-13.7 40.166-38.55 81.298-58.37 119.518-34.52 66.591-63.66 129.601-88.23 200.592a618 618 0 0 0-13.32 43.82c-3.7 13.49-6.82 27.11-10.38 40.64-.13.51-6.24 4.18-7.02 4.63l-2.77 1.84c1.4-16.94 8.16-39.41 12.8-55.85 29.78-105.431 80.75-202.893 131.58-299.363 9.96-18.919 20.27-37.781 26.59-58.296a197.8 197.8 0 0 0 6.42-91.721c-12.45-76.486-62.63-157.55-141.63-178.408-31.26-8.255-59.63-6.876-91.13-1.805z"/><path fill="#000c0b" d="M1248.1 410.632c52.69-9.262 101.31-5.864 146.43 25.92 49.51 34.867 81.45 95.618 91.46 154.457a199.8 199.8 0 0 1-5.13 91.784c-10.12 35.091-35.35 74.769-52.02 108.103-20.7 41.392-42.51 82.857-60.81 125.359a1081 1081 0 0 0-47.26 130.955c-4.79 16.83-7.92 33.37-12.33 49.84l-2.77 1.84c1.4-16.94 8.16-39.41 12.8-55.85 29.78-105.431 80.75-202.893 131.58-299.363 9.96-18.919 20.27-37.781 26.59-58.296a197.8 197.8 0 0 0 6.42-91.721c-12.45-76.486-62.63-157.55-141.63-178.408-31.26-8.255-59.63-6.876-91.13-1.805z"/><path fill="#0afef2" d="m1297.35 500.57.67-1.43c10.6-2.155 34.83 8.745 43.72 14.903 54.68 37.906 66.24 103.865 44.93 164.219-11.23 31.803-28.57 57.613-43.89 87.354-28.3 54.388-57.69 107.31-79.22 164.858-26.09 69.716-40.85 139.496-53.06 212.636-.33 3.42-.24 3.64-1.47 7-2.75 1.93-1.26 1.41-4.63 1.57-1.11-1.93-1.6-2.43-1.17-4.94 14.85-85.85 33.39-172.006 68.1-252.331 19.15-44.302 43.19-87.416 65.2-130.373 13.65-26.627 30.73-51.406 41.63-79.496a186.7 186.7 0 0 0 11.71-51.551c3.84-49.457-17.24-97.225-63.32-120.26-10.95-5.471-23.13-5.076-29.2-12.159"/><path fill="#000c0b" d="M1301.39 495.531c71.2 10.877 109.49 86.959 96.02 152.974-5.87 28.774-13.96 52.082-29.16 77.42-28.76 54.213-64.04 115.384-88 171.486a882 882 0 0 0-40.15 118.059c-7.49 29.22-13.9 58.7-19.19 88.4-1.44 7.89-6.24 39.19-8.01 44.83-.57-.06-.12.04-1.8-.71l-.6-4.88c12.21-73.14 26.97-142.92 53.06-212.636 21.53-57.548 50.92-110.47 79.22-164.858 15.32-29.741 32.66-55.551 43.89-87.354 21.31-60.354 9.75-126.313-44.93-164.219-8.89-6.158-33.12-17.058-43.72-14.903l-.67 1.43c-1.91-.503-1.02-.008-2.53-1.698 1.68-2.128 3.55-2.209 6.57-3.341"/><path fill="#cecece" d="M829.525 1125.68c33.019 38.45 63.313 78.3 95.81 116.57 71.025 83.65 149.715 165.34 241.725 225.9 10.33 6.8 48.59 30.69 59.03 34.31l3.49-2.11c6.7 3.36 13.49 6.53 20.36 9.51 59.67 25.36 128.53 27.62 157.08-41.84l.81 5.25c1.35-2.31 2.75-6.27 3.78-8.9 23.53-1.14 47.15-4.33 69.75-11.14 5.13-1.54 10.32-2.9 15.54-4.11l1 .88-.52 3.83 2.74.88c1.05-4.94.91-7.4 6.18-8.99l1.09.97c.89 6.92-3.92 20.62-6.06 27.69-12.5 41.26-37.85 87.81-71.97 114.87-35.77 27.94-89.32 45.06-135.08 37.73-137.5-22.01-250.41-127.23-345.46-221.71-32.326-32.14-67.284-66.37-94.82-101.45-.473-3.56-.315-5.08-.133-8.59l.567-3.68c-2.735-3.55-2.684-34.04-3.212-41.22-2.107-28.68-8.228-50.12-23.598-74.93-.376-16.83.85-32.94 1.901-49.72"/><path fill="#0afef2" d="M854.434 1291.55c17.896 18.99 34.864 38.78 52.687 57.64a2178 2178 0 0 0 69.92 70.24c101.449 98.6 309.609 285.23 457.609 152.27 22.94-20.61 41.98-58.06 52.97-86.43 3.74-10.07 6.45-22.57 9.76-31.44l2.74.88c1.05-4.94.91-7.4 6.18-8.99l1.09.97c.89 6.92-3.92 20.62-6.06 27.69-12.5 41.26-37.85 87.81-71.97 114.87-35.77 27.94-89.32 45.06-135.08 37.73-137.5-22.01-250.41-127.23-345.46-221.71-32.326-32.14-67.284-66.37-94.82-101.45-.473-3.56-.315-5.08-.133-8.59z"/><path fill="#000c0b" d="M854.434 1291.55c17.896 18.99 34.864 38.78 52.687 57.64a2178 2178 0 0 0 69.92 70.24c101.449 98.6 309.609 285.23 457.609 152.27 22.94-20.61 41.98-58.06 52.97-86.43 3.74-10.07 6.45-22.57 9.76-31.44l2.74.88c-9.03 39.21-34.56 94.38-65.01 121.21-148.35 130.73-355.45-52.46-457.556-151.37a2407 2407 0 0 1-66.562-66.59c-19.343-20.44-37.941-42.05-57.125-62.73z"/><path fill="#000c0b" d="m1407.02 1468.02.81 5.25c-7.42 19.76-27.03 39.03-46.04 47.69-33.11 15.08-68.81 9.48-101.68-3.13-10.07-3.87-24.55-10.14-34.02-15.37l3.49-2.11c6.7 3.36 13.49 6.53 20.36 9.51 59.67 25.36 128.53 27.62 157.08-41.84"/><path fill="#cecece" d="m464.453 1018.28-2.823 2.25-2.393-.56c-16.99-14.69-48.468-60.066-59.075-79.427-30.543-55.744-48.432-137.904-12.04-195.327 58.063-91.618 177.13-129.639 281.002-130.472 7.27-.054 23.426-.494 29.565 3.103l-1.254.12.25 3.173c-.583.313-4.486 1.207-5.391 1.431l.485 2.615.86 1.529c-10.145 17.85-36.087 65.708-36.765 84.542l-1.072 2.397c-.82 2.447-1.212 5.631-3.384 6.063-10.561 2.143-21.063 2.367-31.673 4.363-47.277 8.892-99.357 23.866-127.167 66.363-29.155 44.55-2.017 91.617 23.265 130.439 4.409 6.77 10.06 12.927 13.939 20.01.606 1.103-2.768 4.437-3.367 5.053-.599 2.034-.086 1.082-2.197 2.529-12.974 12.786-24.312 26.093-36.125 39.843-4.901 5.704-17.668 21.913-22.85 26.053-.434.9-1.537 3.05-1.79 3.91"/><path fill="#0afef2" d="m464.453 1018.28-2.823 2.25-2.393-.56c-16.99-14.69-48.468-60.066-59.075-79.427-30.543-55.744-48.432-137.904-12.04-195.327 58.063-91.618 177.13-129.639 281.002-130.472 7.27-.054 23.426-.494 29.565 3.103l-1.254.12.25 3.173c-.583.313-4.486 1.207-5.391 1.431l.485 2.615c-89.643-5.43-188.559 18.783-257.186 78.538-31.812 27.699-57.175 66.019-58.363 108.955-1.952 70.53 31.731 136.515 77.58 188.171 3.676 4.14 8.129 9.19 11.433 13.52-.434.9-1.537 3.05-1.79 3.91"/><path fill="#000c0b" d="M464.453 1018.28c-5.805-8.93-16.024-19.481-22.978-28.014-6.766-8.304-12.553-16.503-18.705-25.265-32.457-46.23-56.895-115.485-46.612-172.033 8.532-46.919 46.466-86.886 84.63-112.731 53.09-35.953 120.822-54.892 184.467-58.364 14.651-.799 32.701-2.015 47.039.698l.485 2.615c-89.643-5.43-188.559 18.783-257.186 78.538-31.812 27.699-57.175 66.019-58.363 108.955-1.952 70.53 31.731 136.515 77.58 188.171 3.676 4.14 8.129 9.19 11.433 13.52-.434.9-1.537 3.05-1.79 3.91"/><path fill="#0afef2" d="M527.415 945.945c-21.441-29.211-51.165-72.192-52.31-108.891-2.759-88.456 112.362-119.992 180.697-123.4-.82 2.447-1.212 5.631-3.384 6.063-10.561 2.143-21.063 2.367-31.673 4.363-47.277 8.892-99.357 23.866-127.167 66.363-29.155 44.55-2.017 91.617 23.265 130.439 4.409 6.77 10.06 12.927 13.939 20.01.606 1.103-2.768 4.437-3.367 5.053"/><path fill="#000c0b" d="M525.218 948.474a555 555 0 0 1-8.45-11.396c-22.765-31.474-51.675-78.35-43.85-118.707 13.828-71.317 95.218-96.2 157.813-105.844 7.35-1.132 18.955-2.54 26.143-1.27l-1.072 2.397c-68.335 3.408-183.456 34.944-180.697 123.4 1.145 36.699 30.869 79.68 52.31 108.891-.599 2.034-.086 1.082-2.197 2.529"/><path fill="#cecece" d="M1591.2 1036.85c8.47 2.92 47.69 70.83 53.5 81.14 27.96 49.69 50.08 104.26 29.39 161.11-43 118.15-190.68 161.22-304.83 164.18-7.65.19-15.14.94-22.75.36-.93-.71-1.43-.89-1.97-1.8.96-6.06.89-4.96 6.13-7.54-.94-2.8 4.45-12.28 5.97-15.68 10.97-24.6 18.27-48.59 25.15-74.53 4.95-.1 8.72-.46 13.59-.97-4.32-.28-6.39-.14-10.37-1.64-2.95-2.07-2.28-.75-3-3.57 3.87-5.34 23.85-4.68 31.28-5.42 9.84-1.03 19.63-2.54 29.33-4.52 31.51-6.48 64.11-17.78 89.67-37.7 67.33-52.49 29.27-115.05-12.71-167.62.14-3.01.76-2.55 3.68-5.4l-.03-.62 1.75-1.25c14.2-9.47 58.21-68.34 62.57-70.06-.84-4.98.48-5.47 3.65-8.47"/><path fill="#0afef2" d="M1591.2 1036.85c8.47 2.92 47.69 70.83 53.5 81.14 27.96 49.69 50.08 104.26 29.39 161.11-43 118.15-190.68 161.22-304.83 164.18-7.65.19-15.14.94-22.75.36-.93-.71-1.43-.89-1.97-1.8.96-6.06.89-4.96 6.13-7.54 18.7-1.29 37.02-1.31 55.82-3.1 105.72-10.07 243.77-61.96 264.85-179.64 11.52-64.3-47.37-155.63-83.79-206.24-.84-4.98.48-5.47 3.65-8.47"/><path fill="#000c0b" d="M1587.55 1045.32c-.84-4.98.48-5.47 3.65-8.47-1.01 2.78-2.43 4.33-.61 6.91 17.99 25.45 33.59 49.34 48.51 76.85 22.82 42.08 45.03 89.07 34.46 138.31-11.24 49.64-46.28 91.75-88.95 118.34-57.06 35.56-127.68 54.92-194.52 58.57-13.1.72-27.76 1.21-41.02 1.38-1.53.02-3.68 3.39-4.53 4.63.96-6.06.89-4.96 6.13-7.54 18.7-1.29 37.02-1.31 55.82-3.1 105.72-10.07 243.77-61.96 264.85-179.64 11.52-64.3-47.37-155.63-83.79-206.24"/><path fill="#0afef2" d="M1524.98 1115.38c22.46 18.47 50.99 72.84 53.33 102.38 6.55 82.79-115.4 127.72-182.93 125.36-4.32-.28-6.39-.14-10.37-1.64-2.95-2.07-2.28-.75-3-3.57 3.87-5.34 23.85-4.68 31.28-5.42 9.84-1.03 19.63-2.54 29.33-4.52 31.51-6.48 64.11-17.78 89.67-37.7 67.33-52.49 29.27-115.05-12.71-167.62.14-3.01.76-2.55 3.68-5.4l-.03-.62z"/><path fill="#000c0b" d="M1524.98 1115.38c22.46 18.47 50.99 72.84 53.33 102.38 6.55 82.79-115.4 127.72-182.93 125.36-4.32-.28-6.39-.14-10.37-1.64 10.02-2.08 29.06-2.52 40.83-4.21 39.63-5.96 81.31-18.89 112.95-44.38 66.68-53.71 28.77-122.85-15.53-175.64l-.03-.62z"/><path fill="#cecece" d="m849.577 425.151-4.123-2.422c-.365-7.088 14.615-17.715 19.778-23.296 107.037-115.705 217.968-99.526 325.838 3.754a576.3 576.3 0 0 1 112.54 149.82c2.45 4.636 10.93 19.492 11.23 23.234-2.73 1.76-1.21 1.107-5.62.403l-2.09-1.771-2.84.577c-16.5 2.849-63.62-9.338-84.14-4.187-4.32 1.083-16.3.522-19.83-2.903l-1.32 3.401c-1.59.092-6.59.326-7.25-.612-6.71-9.597-15.94-25.616-22.58-34.554-28.66-38.745-73.2-88.134-117.65-105.09-50.79-19.368-78.853 11.292-111.591 43.323-.711.695-3.831-1.382-4.919-1.959l-2.994-2.021c-13.657-10.732-38.58-23.574-54.066-31.999-8.214-4.468-17.422-8.175-25.48-13.2z"/><path fill="#0afef2" d="m849.577 425.151-4.123-2.422c-.365-7.088 14.615-17.715 19.778-23.296 107.037-115.705 217.968-99.526 325.838 3.754a576.3 576.3 0 0 1 112.54 149.82c2.45 4.636 10.93 19.492 11.23 23.234-2.73 1.76-1.21 1.107-5.62.403l-2.09-1.771-2.84.577c-58.59-126.082-225.6-321.882-377.591-216.042-29.776 20.734-48.917 41.037-74.229 66.241z"/><path fill="#000c0b" d="M849.577 425.151c7.592-9.214 16.701-17.887 25.089-26.434 37.247-37.945 81.088-67.765 135.434-73.093 54.17-5.312 111.68 26.235 152.3 60.246a557 557 0 0 1 129.15 157.908c2.62 4.7 14.58 26.471 15.58 31.095l-2.84.577c-58.59-126.082-225.6-321.882-377.591-216.042-29.776 20.734-48.917 41.037-74.229 66.241z"/><path fill="#0afef2" d="M935.01 472.869c50.665-63.992 102.1-71.239 166.06-18.694 40.92 33.612 71.44 71.944 97.93 117.586-1.59.092-6.59.326-7.25-.612-6.71-9.597-15.94-25.616-22.58-34.554-28.66-38.745-73.2-88.134-117.65-105.09-50.79-19.368-78.853 11.292-111.591 43.323-.711.695-3.831-1.382-4.919-1.959"/><path fill="#000c0b" d="M932.016 470.848c23.084-25.716 48.81-52.973 85.454-54.834 39.26-1.993 76.38 26.3 103.91 51.289 23.6 21.425 65.72 72.311 78.94 101.057l-1.32 3.401c-26.49-45.642-57.01-83.974-97.93-117.586-63.96-52.545-115.395-45.298-166.06 18.694z"/><path fill="#cecece" d="M1118.36 612.182c3.34-10.064 25.91-11.142 34.86-12.571a492.5 492.5 0 0 1 179.58 3.916c7.63 1.559 32.72 5.819 36.65 11.2-.05 1.988.33 2.667-.51 3.765-3.23.523-4.61.556-7.69 1.696l9.46 3.046c-5.73 38.547-9.13 46.641-28.68 81.73-4.17-1.465-8.8-3.222-12.99-4.469l-1.08 3.112c4.02 1.189 9.36 2.218 11.82 5.318-6.11 6.544-18.42-.986-26.4-2.904-40.19-9.664-81.96-13.707-122.97-6.973-2.87.471-5.6-3.808-7.29-5.737l-.94-.6-.15-2.034c-2.79.127-14.61-14.456-17.06-17.195a2380 2380 0 0 0-38.09-41.638c-2.49-2.66-13.42-12.885-13.91-15.201l2.88-1.208c.6-.936 1.78-2.337 2.51-3.253"/><path fill="#0afef2" d="M1118.36 612.182c3.34-10.064 25.91-11.142 34.86-12.571a492.5 492.5 0 0 1 179.58 3.916c7.63 1.559 32.72 5.819 36.65 11.2-.05 1.988.33 2.667-.51 3.765-3.23.523-4.61.556-7.69 1.696a465.9 465.9 0 0 0-181.97-14.155c-22.04 2.463-41.76 6.312-63.43 9.402.6-.936 1.78-2.337 2.51-3.253"/><path fill="#000c0b" d="M1118.36 612.182c77.87-14.529 151.79-19.409 229.09 1.086 6.4 1.697 15.07 4.249 21.49 5.224-3.23.523-4.61.556-7.69 1.696a465.9 465.9 0 0 0-181.97-14.155c-22.04 2.463-41.76 6.312-63.43 9.402.6-.936 1.78-2.337 2.51-3.253"/><path fill="#0afef2" d="M1183.12 693.311c58.46-6.762 88.02-4.919 144.84 10.296 4.02 1.189 9.36 2.218 11.82 5.318-6.11 6.544-18.42-.986-26.4-2.904-40.19-9.664-81.96-13.707-122.97-6.973-2.87.471-5.6-3.808-7.29-5.737"/><path fill="#000c0b" d="M1182.03 690.677c50.94-8.876 97.63-4.556 147.01 9.818l-1.08 3.112c-56.82-15.215-86.38-17.058-144.84-10.296l-.94-.6z"/><path fill="#cecece" d="m825.951 1637.56 2.942 3.16-.079 1.78c-3.356 2.36-17.659 4.45-22.319 5.19-93.693 15-180.428-22.09-206.375-118.72-1.94-7.22-7.941-24.81-4.256-31.67l1.859-.33c2.441 2.56 1.697 1.97 2.581 5.99l1.986-3.78c9.103.22 31.666 4.47 43.225 5.6 14.18 1.38 38.032 1.59 50.114 3.61 1.129.06 1.5-.07 2.642-.26.848-.08 5.809-.87 6.41.13 11.676 19.56 28.341 32.68 51.292 35.77 8.666 1.16 12.403-3.69 13.869 5.96.496.88.697 1.4 1.251 2.07l.982 1.55c16.554 26.36 30.419 56.57 52.063 81.09 1.771 1.68 1.321.66 1.813 2.86"/><path fill="#0afef2" d="m825.951 1637.56 2.942 3.16-.079 1.78c-3.356 2.36-17.659 4.45-22.319 5.19-93.693 15-180.428-22.09-206.375-118.72-1.94-7.22-7.941-24.81-4.256-31.67l1.859-.33c2.441 2.56 1.697 1.97 2.581 5.99l1.986-3.78.567 1.81c2.914 9.49 4.939 20.11 7.906 30.02 29.565 98.73 119.554 122.38 213.375 103.69 1.771 1.68 1.321.66 1.813 2.86"/><path fill="#000c0b" d="m600.304 1502.96 1.986-3.78.567 1.81c2.914 9.49 4.939 20.11 7.906 30.02 29.565 98.73 119.554 122.38 213.375 103.69 1.771 1.68 1.321.66 1.813 2.86-50.41 12.47-115.61 8.47-159.748-21.27-37.241-25.09-58.145-70.25-65.899-113.33"/><path fill="#0afef2" d="M698.271 1508.13c.848-.08 5.809-.87 6.41.13 11.676 19.56 28.341 32.68 51.292 35.77 8.666 1.16 12.403-3.69 13.869 5.96-34.524 1.03-54.762-11.82-71.571-41.86"/><path fill="#000c0b" d="M695.629 1508.39c1.129.06 1.5-.07 2.642-.26 16.809 30.04 37.047 42.89 71.571 41.86.496.88.697 1.4 1.251 2.07-27.144 8.4-65.155-16.18-74.763-41.89z"/><path fill="#cecece" d="m1360.22 1244.41 4.39-2.73 1.84.47c1.19 3.32.91 15.82.89 20.1-.3 59.67-21.96 123.21-47.08 176.92-5.11 10.92-24.85 50.16-31.32 56.63-2.76.21-2.67.07-5.36-.81l-2.98-.89c-14.86-3.91-65.7-29.13-78.35-38.17-.79-.43-1.58-.85-2.37-1.27-4.27-2.37-6.36-2.61-3.2-6.79 11.86-15.74 17.75-37.14 33.86-49 1.38-1.86 1.78-1.65 4.13-1.92 5.6-9.31 16.59-22.14 23.37-32.45 19.37-29.44 30.51-54.06 42.65-86.82 19.85-9.97 38.07-20.69 57.24-31.85.05 9.75-.09 19.49-.43 29.23l.61-.24c1.01-2.1 1.02-26.01 1.29-30.55z"/><path fill="#0afef2" d="m1360.22 1244.41 4.39-2.73 1.84.47c1.19 3.32.91 15.82.89 20.1-.3 59.67-21.96 123.21-47.08 176.92-5.11 10.92-24.85 50.16-31.32 56.63-2.76.21-2.67.07-5.36-.81l-2.98-.89c37.46-67.96 72.52-139.81 76.9-219.04l.61-.24c1.01-2.1 1.02-26.01 1.29-30.55z"/><path fill="#000c0b" d="m1357.5 1275.06.61-.24c1.01-2.1 1.02-26.01 1.29-30.55l.82.14c1.4 6.22 1.28 26.01.75 32.7-6.34 80.01-38.8 149.78-77.39 217.88l-2.98-.89c37.46-67.96 72.52-139.81 76.9-219.04"/><path fill="#0afef2" d="M1199.88 1454.66c-4.27-2.37-6.36-2.61-3.2-6.79 11.86-15.74 17.75-37.14 33.86-49-7.3 18.19-20.43 38.66-30.66 55.79"/><path fill="#000c0b" d="M1230.54 1398.87c1.38-1.86 1.78-1.65 4.13-1.92-5.06 13.1-23.59 48.16-32.42 58.98-.79-.43-1.58-.85-2.37-1.27 10.23-17.13 23.36-37.6 30.66-55.79"/><path fill="#cecece" d="m681.436 810.899.029.391c-1.587 2.732-.487 1.759-3.45 2.975l-1.853-1.175c-4.042-8.152-2.715-39.37-2.056-50.317 4.743-78.754 49.451-147.555 91.928-211.234.697-1.045 5.496.049 6.967.242l.539 3.536c3.329-1.268 4.434-.614 8.38 1.47 15.754 8.32 50.592 26.708 63.471 37.7l1.34.223c1.171.158 2.008.477 2.96 1.186.189.217 3.413 3.663 3.138 4.204-5.604 11.028-12.507 21.459-18.117 32.535-.666 1.317-7.578 6.019-9.107 6.977-1.498-1.49-1.258-2.7-1.54-4.857-7.302 16.581-17.76 22.03-30.128 35.647-26.265 28.916-55.082 74.522-64.524 112.291-6.72 3.976-41.812 25.941-45.117 27.143z"/><path fill="#0afef2" d="m681.436 810.899.029.391c-1.587 2.732-.487 1.759-3.45 2.975l-1.853-1.175c-4.042-8.152-2.715-39.37-2.056-50.317 4.743-78.754 49.451-147.555 91.928-211.234.697-1.045 5.496.049 6.967.242l.539 3.536c-8.705 15.406-21.01 33.025-30.385 48.524-41.321 68.316-66.443 123.318-58.859 205.995z"/><path fill="#000c0b" d="m773.001 551.781.539 3.536c-8.705 15.406-21.01 33.025-30.385 48.524-41.321 68.316-66.443 123.318-58.859 205.995l-2.86 1.063a126 126 0 0 1-.742-4.443c-3.841-25.926-.061-52.807 4.622-78.372 8.59-46.894 32.858-88.703 57.212-128.994 9.544-15.789 19.6-32.494 30.473-47.309"/><path fill="#0afef2" d="m845.391 594.487 1.34.223c1.171.158 2.008.477 2.96 1.186.189.217 3.413 3.663 3.138 4.204-5.604 11.028-12.507 21.459-18.117 32.535-.666 1.317-7.578 6.019-9.107 6.977-1.498-1.49-1.258-2.7-1.54-4.857 7.206-14.778 13.971-26.289 21.326-40.268"/><path fill="#000c0b" d="m845.391 594.487 1.34.223c1.171.158 2.008.477 2.96 1.186-4.485 3.213-22.155 37.277-24.086 43.716-1.498-1.49-1.258-2.7-1.54-4.857 7.206-14.778 13.971-26.289 21.326-40.268"/><path fill="#cecece" d="M837.566 902.131c1.967-1.299.377-10.112 10.191-8.849l-.416 1.542a1189.4 1189.4 0 0 1-40.743 209.576c-1.532 5.24-5.746 21.94-8.219 24.94l-1.846.08c-2.144-2.42-1.857-1.52-2.848-4.32l-2.971-1.41c-7.545-.96-64.521-54.55-69.637-62.91l-2.754-.94-3.931-4.37c-.296-1.33-.491-1.9-.024-3.75 7.948-31.57 13.531-64.9 23.341-95.835l3.797-2.408 1.406.503.102 3.325 2.356 1.598 1.901-9.31c11.231-7.418 79.873-51.929 89.897-50.93z"/><path fill="#0afef2" d="M837.566 902.131c1.967-1.299.377-10.112 10.191-8.849l-.416 1.542a1189.4 1189.4 0 0 1-40.743 209.576c-1.532 5.24-5.746 21.94-8.219 24.94l-1.846.08c-2.144-2.42-1.857-1.52-2.848-4.32l-2.971-1.41c16.454-44.61 28.097-107.3 37.122-154.579 3.859-20.216 5.119-47.57 9.73-66.98"/><path fill="#000c0b" d="M837.566 902.131c1.967-1.299.377-10.112 10.191-8.849l-.416 1.542c-3.712.013-2.052-.46-5.194 1.375-2.794 6.547-4.361 26.794-5.42 35.169a1334 1334 0 0 1-5.903 40.038c-7.19 43.354-22.168 112.414-37.139 153.694l-2.971-1.41c16.454-44.61 28.097-107.3 37.122-154.579 3.859-20.216 5.119-47.57 9.73-66.98"/><path fill="#0afef2" d="m718.323 1059.84-3.931-4.37c-.296-1.33-.491-1.9-.024-3.75 7.948-31.57 13.531-64.9 23.341-95.835l3.797-2.408 1.406.503.102 3.325 2.356 1.598a3690 3690 0 0 0-13.301 57.517c-2.872 12.9-6.757 32.28-10.992 44.36z"/><path fill="#000c0b" d="M718.323 1059.84c9.224-31.89 15.038-73.062 24.691-102.535l2.356 1.598a3690 3690 0 0 0-13.301 57.517c-2.872 12.9-6.757 32.28-10.992 44.36z"/><path fill="#cecece" d="m764.014 766.606-.847 1.555c-3.385 1.931-2.813 2.288-6.145 2.245-.051-5.96 6.158-16.991 8.965-22.609 21.143-42.316 54.545-76.968 90.63-106.927 7.861-6.527 15.19-13.513 23.636-19.325 3.28-.096 3.259.732 6.622 2.906-1.637 2.287-2.767 3.547-3.629 6.258 3.934-2.396 4.053-3.412 7.8-3.253 9.918 6.285 55.47 42.889 62.586 51.639l2.159 2.061c.574.389 5.479 3.586 3.709 4.83-17.794 12.512-34.203 27.044-51.07 40.773-1.711 1.393-10.051 2.757-12.573 3.397-1.023-.524-1.652-.849-2.616-1.484-4.278 3.597-26.631 6.925-33.322 8.357-17.598 3.769-34.772 8.377-51.975 13.759-7.924 2.378-35.217 14.349-40.649 14.996z"/><path fill="#0afef2" d="m764.014 766.606-.847 1.555c-3.385 1.931-2.813 2.288-6.145 2.245-.051-5.96 6.158-16.991 8.965-22.609 21.143-42.316 54.545-76.968 90.63-106.927 7.861-6.527 15.19-13.513 23.636-19.325 3.28-.096 3.259.732 6.622 2.906-1.637 2.287-2.767 3.547-3.629 6.258-50.714 40.836-87.654 74.243-115.951 135.075z"/><path fill="#000c0b" d="M886.875 624.451c-1.637 2.287-2.767 3.547-3.629 6.258-50.714 40.836-87.654 74.243-115.951 135.075l-3.281.822c19.237-50.636 77.57-112.163 122.861-142.155"/><path fill="#0afef2" d="M955.791 681.156c.574.389 5.479 3.586 3.709 4.83-17.794 12.512-34.203 27.044-51.07 40.773-1.711 1.393-10.051 2.757-12.573 3.397l18.608-16.186c13.432-11.586 27.363-21.979 41.326-32.814"/><path fill="#000c0b" d="M893.241 728.672c14.785-13.293 43.872-38.86 60.391-49.577l2.159 2.061c-13.963 10.835-27.894 21.228-41.326 32.814l-18.608 16.186c-1.023-.524-1.652-.849-2.616-1.484"/><path fill="#cecece" d="m1262.08 1299.39.57-1.54c1.59-4.21 1.91-6.09 5.37-8.93l2.38-.63c1.11 2.11 1.12 3.32.1 6.04-16.42 43.4-44.99 79.83-78.43 111.48-7.82 7.41-15.36 15.34-24.12 20.96-2.69.35-4.16-.85-6.61-2.17l-2.4-2.18c-6.54-3.53-62.6-45.64-67.58-50.96-3.08-.69-5.76.42-6.08-2.51l-.22-.92c-.21-.81-.53-1.8-.57-2.65 8.1-11.04 36.1-28.88 46.13-41.31 5.27-6.54 7.26-6.13 14.78-5.88.55.66.5.87 1.1.95 1.37-.53.81-2.02 2.59-1.07 3.62-2 40.34-8.34 47.47-9.89a855 855 0 0 0 37.35-9.27c7.05-1.91 21.3-8.18 26.55-7.57l.79 1.38-1.89 4.82z"/><path fill="#0afef2" d="m1262.08 1299.39.57-1.54c1.59-4.21 1.91-6.09 5.37-8.93l2.38-.63c1.11 2.11 1.12 3.32.1 6.04-16.42 43.4-44.99 79.83-78.43 111.48-7.82 7.41-15.36 15.34-24.12 20.96-2.69.35-4.16-.85-6.61-2.17l-2.4-2.18c41.63-33.83 79.27-75.06 100.42-124.88z"/><path fill="#000c0b" d="m1259.36 1297.54 2.72 1.85c-22.17 51.27-57.99 90.18-100.74 125.21l-2.4-2.18c41.63-33.83 79.27-75.06 100.42-124.88"/><path fill="#0afef2" d="M1145.4 1318.19c.55.66.5.87 1.1.95 1.37-.53.81-2.02 2.59-1.07-4.05 6.47-50.74 48.62-57.73 53.39-3.08-.69-5.76.42-6.08-2.51l-.22-.92c-.21-.81-.53-1.8-.57-2.65 8.1-11.04 36.1-28.88 46.13-41.31 5.27-6.54 7.26-6.13 14.78-5.88"/><path fill="#000c0b" d="M1145.4 1318.19c.55.66.5.87 1.1.95 1.37-.53.81-2.02 2.59-1.07-4.05 6.47-50.74 48.62-57.73 53.39-3.08-.69-5.76.42-6.08-2.51l.46.05c8.21 1.03 50.35-42.79 59.66-50.81"/><path fill="#cecece" d="m1489.33 1148.31 4.32-2.99 1.2.34c7.83 20.17 22.92 102.86 23.12 125.26-1.47 3-3.26 4.06-5.86 6.16l-2.96 2.04c-19.93 10.71-65.12 29.83-87.33 28.96-2.7 3.82-2.93 2.34-7.6 2.62-2.71-5.35-2.01-77.94-5.43-89.2-1.76-5.78-.45-7.05 4.85-9.4 1.07.23 2.03.47 3.11.58.38-4.7 7.28-8.59 11.24-11.52 20.49-15.1 38.41-33.35 58.01-49.43l1.55.24z"/><path fill="#0afef2" d="m1489.33 1148.31 4.32-2.99 1.2.34c7.83 20.17 22.92 102.86 23.12 125.26-1.47 3-3.26 4.06-5.86 6.16l-2.96 2.04c-3.92-49.71-9.85-77.67-21.6-127.15z"/><path fill="#000c0b" d="M1489.33 1148.31c11.18 30.32 20.49 96.09 22.78 128.77l-2.96 2.04c-3.92-49.71-9.85-77.67-21.6-127.15z"/><path fill="#0afef2" d="M1413.64 1212.1c1.07.23 2.03.47 3.11.58 3.42 18.28 6.96 76.69 5.07 95.4-2.7 3.82-2.93 2.34-7.6 2.62-2.71-5.35-2.01-77.94-5.43-89.2-1.76-5.78-.45-7.05 4.85-9.4"/><path fill="#000c0b" d="M1413.64 1212.1c1.07.23 2.03.47 3.11.58 3.42 18.28 6.96 76.69 5.07 95.4-2.7 3.82-2.93 2.34-7.6 2.62.01 0 1.85-.87 1.87-.87.24.03 2.55-1.11 2.59-1.51 1.73-17.72-2.26-82.63-5.04-96.22"/><path fill="#cecece" d="M626.244 746.421c6.461-.618 6.496-1.946 7.049 4.039 2.51 27.136 6.1 54.069 9.824 81.037 1.181 8.556 1.979 5.751-3.73 11.664.198 1.952-.964 1.564-2.876 2.098a1551 1551 0 0 0-54.015 45.501c-3.108 2.736-13.957 13.334-16.647 13.31l-.261-.2-2.169 3.06c-1.165 2.662-2.119 3.562-4.335 4.497-3.001-2.502-13.191-51.325-14.693-58.669-4.701-22.984-7.747-47.884-9.556-71.318-.198-2.558 1.517-4.131 3.077-5.718l1.956.033.784 2.271 1.865-3.913c16.305-7.638 62.955-25.683 80.107-26.345 2.008 2.13 1.656 3.861 2.29 7.352.357-3.144.168-5.789 1.33-8.699"/><path fill="#0afef2" d="M626.244 746.421c6.461-.618 6.496-1.946 7.049 4.039 2.51 27.136 6.1 54.069 9.824 81.037 1.181 8.556 1.979 5.751-3.73 11.664.198 1.952-.964 1.564-2.876 2.098-4.725-21.098-11.575-68.963-11.597-90.139.357-3.144.168-5.789 1.33-8.699"/><path fill="#000c0b" d="M624.914 755.12c.357-3.144.168-5.789 1.33-8.699 2.467 7.165 2.357 17.273 3.223 24.978 2.692 23.954 5.964 47.988 9.92 71.762.198 1.952-.964 1.564-2.876 2.098-4.725-21.098-11.575-68.963-11.597-90.139"/><path fill="#0afef2" d="M563.419 906.93c-1.165 2.662-2.119 3.562-4.335 4.497-3.001-2.502-13.191-51.325-14.693-58.669-4.701-22.984-7.747-47.884-9.556-71.318-.198-2.558 1.517-4.131 3.077-5.718l1.956.033.784 2.271c1.361 32.102 12.89 97.665 22.767 128.904"/><path fill="#000c0b" d="m540.652 778.026 1.865-3.913c2.564 8.925 6.313 48.671 8.231 61.636 3.611 24.406 10.682 45.538 14.84 68.121l-2.169 3.06c-9.877-31.239-21.406-96.802-22.767-128.904"/><path fill="#cecece" d="m1681.84 881.182 1.97-6.43c1.92-.023 2.02-.273 3.95 1.87 17.89 20.158 29.54 49.069 29.45 76.098-.13 39.243-18.77 76.72-40.48 108.39-5.36 7.82-15 23.31-22.83 28.16l-1.97-2.55c.87-6.24 7.76-11.66 10.85-17.34-1.92.86-3.35 1.52-5.34 2.19-1.46 1.04-6.33 7.04-7.81 8.77a395.6 395.6 0 0 0-42.35-64.78 568.2 568.2 0 0 0 61.24-101.173c2.38-5.155 10.79-28.346 13.83-29.954-.85-1.821-.59-1.071-.51-3.251"/><path fill="#0afef2" d="m1681.84 881.182 1.97-6.43c1.92-.023 2.02-.273 3.95 1.87 17.89 20.158 29.54 49.069 29.45 76.098-.13 39.243-18.77 76.72-40.48 108.39-5.36 7.82-15 23.31-22.83 28.16l-1.97-2.55c.87-6.24 7.76-11.66 10.85-17.34-1.92.86-3.35 1.52-5.34 2.19 43.67-60.48 74.11-119.476 24.91-187.137-.85-1.821-.59-1.071-.51-3.251"/><path fill="#000c0b" d="M1681.84 881.182c10.03 5.305 20.31 28.811 23.82 39.505 12.37 37.688 1.27 74.001-16.45 108.013-3.07 5.89-22 37.01-26.43 40.68-1.92.86-3.35 1.52-5.34 2.19 43.67-60.48 74.11-119.476 24.91-187.137-.85-1.821-.59-1.071-.51-3.251"/><path fill="#cecece" d="M605.124 1342.96c.491-20.99 31.678-128.9 43.341-144.45l4.347 2.16c.484 3.29-.315 2.22 1.562 4.08 3.682.28 25.773 21.34 28.44 24.25 9.788 10.68 25.654 70.44 21.631 82.94 1.401 1.85 1.376 1.81 2.254 4 4.342 8.78 1.003 21.58-1.817 30.54-3.356 10.65.626 14.73-9.16 15.31l-2.441-3.61-.947 2.1c-8.032 1.72-70.218-11.8-78.607-16.24-4.132 1.06-5.449 1.57-8.603-1.08"/><path fill="#0afef2" d="M605.124 1342.96c.491-20.99 31.678-128.9 43.341-144.45l4.347 2.16c.484 3.29-.315 2.22 1.562 4.08-4.463 15.33-13.041 34.19-18.377 50.74-9.803 30.41-15.812 57.38-22.27 88.55-4.132 1.06-5.449 1.57-8.603-1.08"/><path fill="#000c0b" d="M652.812 1200.67c.484 3.29-.315 2.22 1.562 4.08-4.463 15.33-13.041 34.19-18.377 50.74-9.803 30.41-15.812 57.38-22.27 88.55-4.132 1.06-5.449 1.57-8.603-1.08l4.392.04c2.572-2.62 10.825-44.59 12.67-51.67 8.076-30.98 19.371-60.73 30.626-90.66"/><path fill="#0afef2" d="M706.699 1315.94c4.342 8.78 1.003 21.58-1.817 30.54-3.356 10.65.626 14.73-9.16 15.31l.334-1.45c.456-1.93.867-3.86 1.241-5.81l1.988-8.99c1.687-7.54 3.613-14.63 5.51-22.06z"/><path fill="#000c0b" d="M704.445 1311.94c1.401 1.85 1.376 1.81 2.254 4l-1.904 7.54c-1.897 7.43-3.823 14.52-5.51 22.06l-1.988 8.99c-.374 1.95-.785 3.88-1.241 5.81l-.334 1.45-2.441-3.61c2.323-12.72 7.287-33.82 11.164-46.24"/><path fill="#cecece" d="M344.601 1128.86c5.228 19.03 12.098 34.22 22.63 50.87 1.77 2.8 1.101 3.98.196 6.82l-.68.25c-3.072-1.01-3.978-1.77-5.81-4.51-24.755-36.94-34.328-85.62-14.935-127.13 5.704-12.2 34.744-68.211 44.064-74.883l2.763.814c2.403 2.047 2.202 2.855 2.917 5.989 17.408 20.82 31.44 35.47 51.648 53.68-33.406 42.39-57.633 86.04-78.419 135.61-11.648-20.01-18.226-32.93-22.656-56.04-.968 3.01-2.125 5.46-1.718 8.53"/><path fill="#0afef2" d="M344.601 1128.86c5.228 19.03 12.098 34.22 22.63 50.87 1.77 2.8 1.101 3.98.196 6.82l-.68.25c-3.072-1.01-3.978-1.77-5.81-4.51-24.755-36.94-34.328-85.62-14.935-127.13 5.704-12.2 34.744-68.211 44.064-74.883l2.763.814c2.403 2.047 2.202 2.855 2.917 5.989-26.925 41.36-56.273 82.63-49.427 133.25-.968 3.01-2.125 5.46-1.718 8.53"/><path fill="#000c0b" d="M392.829 981.091c2.403 2.047 2.202 2.855 2.917 5.989-26.925 41.36-56.273 82.63-49.427 133.25-.968 3.01-2.125 5.46-1.718 8.53-16.121-75.25 49.425-128.12 48.228-147.769"/><path fill="#cecece" d="M1012.6 527.964c-.44-.602-4.65-5.223-3.59-5.985 24.02-17.21 50.02-32.502 76.98-44.696.85-.388 4.57 3.892 4.87 4.211.09 1.234.31 1.704.67 2.911 9.12 1.908 42.61 41.694 50.63 51.437 2.48 3.017 11.61 14.706 14.02 16.574 1.54.889 2.48.913 2.02 2.578l.75 1.795c.14.294.29.588.44.882.26.288 1 2.423.53 2.847-1.5 1.38-5.77 3.171-7.55 4.025-12.91 6.198-22.91 12.034-35.67 19.055-4.66 2.566-19.37 12.793-24.52 14.866-.48.197-3.7-3.415-3.79-4.096l-.33-1.079c-.63-.601-1.24-1.283-1.98-1.724l-1.29-.084c-5.25-4.653-68.29-62.273-68.62-63.029-2.33.121-2.36 1.118-3.57-.488"/><path fill="#0afef2" d="M1012.6 527.964c-.44-.602-4.65-5.223-3.59-5.985 24.02-17.21 50.02-32.502 76.98-44.696.85-.388 4.57 3.892 4.87 4.211.09 1.234.31 1.704.67 2.911-14.26 8.204-29.19 14.556-43.91 24.008-6.51 4.18-25.63 17.161-31.45 20.039-2.33.121-2.36 1.118-3.57-.488"/><path fill="#000c0b" d="M1090.86 481.494c.09 1.234.31 1.704.67 2.911-14.26 8.204-29.19 14.556-43.91 24.008-6.51 4.18-25.63 17.161-31.45 20.039-2.33.121-2.36 1.118-3.57-.488 12.23-12.04 60.16-37.44 76.44-45.549z"/><path fill="#0afef2" d="M1088.06 593.289c7.56-3.565 19.59-11.279 27.12-15.728a565 565 0 0 1 31.07-16.699c2.34-1.169 9.9-5.309 11.95-5.868l.75 1.795c.14.294.29.588.44.882.26.288 1 2.423.53 2.847-1.5 1.38-5.77 3.171-7.55 4.025-12.91 6.198-22.91 12.034-35.67 19.055-4.66 2.566-19.37 12.793-24.52 14.866-.48.197-3.7-3.415-3.79-4.096z"/><path fill="#000c0b" d="M1086.08 591.565c10.06-8.163 58.15-33.948 70.1-39.149 1.54.889 2.48.913 2.02 2.578-2.05.559-9.61 4.699-11.95 5.868a565 565 0 0 0-31.07 16.699c-7.53 4.449-19.56 12.163-27.12 15.728-.63-.601-1.24-1.283-1.98-1.724"/><path fill="#cecece" d="M1467.58 788.416c-1.42-.636-4.34-1.496-5.42-2.515-.84-.784 1.17-5.294 2.48-5.552 25.17 10.664 49.17 25.096 72.45 39.488 1.23.759 1.63 3.425 1.99 4.697-.63 3.305-.66 3.159-3.33 5.503-3.73 15.51-23.26 59.757-34.42 72.671-.74.855-1.38.317-2.72-.026q.51 1.907.99 3.821c-.18 1.593-1.5 4.055-2.94 4.943-.45.273-1.85-.558-2.26-.81-15.05-9.299-30.56-17.928-46.78-25.045-9.03-4.284-19.36-6.723-28.16-11.175-1.38-.697.97-4.438 2.55-5.407l1.1-2.738c.14-4.058 32.21-69.162 35.98-76.549 2.93-.444 5.13 1.032 8.38 2.25z"/><path fill="#0afef2" d="M1423.11 866.271c19.05 5.585 60.18 24.185 75.5 36.411q.51 1.907.99 3.821c-.18 1.593-1.5 4.055-2.94 4.943-.45.273-1.85-.558-2.26-.81-15.05-9.299-30.56-17.928-46.78-25.045-9.03-4.284-19.36-6.723-28.16-11.175-1.38-.697.97-4.438 2.55-5.407z"/><path fill="#000c0b" d="M1423.11 866.271c19.05 5.585 60.18 24.185 75.5 36.411q.51 1.907.99 3.821c-16.89-9.296-32.03-19.643-50.27-26.904-9.06-3.611-18.33-6.991-27.32-10.59z"/><path fill="#0afef2" d="M1467.58 788.416c-1.42-.636-4.34-1.496-5.42-2.515-.84-.784 1.17-5.294 2.48-5.552 25.17 10.664 49.17 25.096 72.45 39.488 1.23.759 1.63 3.425 1.99 4.697-.63 3.305-.66 3.159-3.33 5.503a645 645 0 0 0-66.54-37.187l-1.74-.878z"/><path fill="#000c0b" d="M1467.58 788.416c18.64 6.709 39.51 22.105 57.36 31.143 6.2 3.14 8.79 8.392 14.14 4.975-.63 3.305-.66 3.159-3.33 5.503a645 645 0 0 0-66.54-37.187l-1.74-.878z"/><path fill="#cecece" d="M910.784 1489.07c-.319-.65-2.898-5.28-2.421-5.58 11.22-6.99 23.085-14.16 34.039-21.64 5.62-3.83 14.015-10.26 19.471-12.95 1.452.21 2.593 1.39 3.705 2.25l1.417.9c-.265 1.46-.509 2.92-.73 4.39l2.791-1.21c5.157 3.6 66.564 63.77 66.764 64.36 1.95-.07 1.73-.1 3.74.42.37.57.73 1.14 1.11 1.71.28.42.62.79.93 1.19.41.52 1.09 1.37 1.07 2.1-.06 2.11-28.13 20.81-31.65 23.16-3.92 2.62-37.674 24.69-39.957 23.98-1.07-.33-1.92-1.44-2.697-2.18-.503-.48-1.047-.91-1.578-1.36-.273.91.062 1.07-.771 1.19-.783-.69-1.451-2.99-1.793-3.92-7.344-11-51.373-65.36-51.164-75.68-1.102-1-.901-.99-2.276-1.13"/><path fill="#0afef2" d="M1035.82 1519.59c1.95-.07 1.73-.1 3.74.42.37.57.73 1.14 1.11 1.71.28.42.62.79.93 1.19.41.52 1.09 1.37 1.07 2.1-.06 2.11-28.13 20.81-31.65 23.16-3.92 2.62-37.674 24.69-39.957 23.98-1.07-.33-1.92-1.44-2.697-2.18-.503-.48-1.047-.91-1.578-1.36-.273.91.062 1.07-.771 1.19-.783-.69-1.451-2.99-1.793-3.92 15.337-8.79 29.767-17.4 44.516-27.2 8.53-5.67 18.8-14.14 27.08-19.09"/><path fill="#000c0b" d="M1035.82 1519.59c1.95-.07 1.73-.1 3.74.42-19.9 19.03-50.426 33.19-72.772 48.6-.273.91.062 1.07-.771 1.19-.783-.69-1.451-2.99-1.793-3.92 15.337-8.79 29.767-17.4 44.516-27.2 8.53-5.67 18.8-14.14 27.08-19.09"/><path fill="#0afef2" d="M910.784 1489.07c-.319-.65-2.898-5.28-2.421-5.58 11.22-6.99 23.085-14.16 34.039-21.64 5.62-3.83 14.015-10.26 19.471-12.95 1.452.21 2.593 1.39 3.705 2.25l1.417.9c-.265 1.46-.509 2.92-.73 4.39-5.716 5.33-46.061 31.48-53.205 33.76-1.102-1-.901-.99-2.276-1.13"/><path fill="#000c0b" d="M966.995 1452.05c-.265 1.46-.509 2.92-.73 4.39-5.716 5.33-46.061 31.48-53.205 33.76-1.102-1-.901-.99-2.276-1.13 10.447-5.93 48.17-29.73 56.211-37.02"/><path fill="#cecece" d="M560.418 1152.51c.59-.47 4.175-4.03 4.653-3.74 4.661 2.8 9.22 7.35 13.808 10.8a360 360 0 0 0 31.48 21.18c6.504 3.81 17.798 6.86 18.496 13.56-.563 3.65-2.17 2.83-5.84 3.52l1.743 1.65c-.209 2.28-24.972 70.9-27.058 75.45.773 2.61.847 2.37.353 4.88-.22.22-3.085 3.34-3.64 3.08-26.393-12.39-51.949-28.73-76.073-45.23-.614-.41.747-5.52.873-6.54-.336-1.47-.047-1.74.744-2.97 2.57-4.18 9.103-18.86 11.737-24.18a383.6 383.6 0 0 1 27.778-47.8c-.089-1.73-.71-3.5.946-3.66"/><path fill="#0afef2" d="M519.957 1228.15c7.072 3.62 21.804 13.65 29.642 18.63 15.942 10.13 32.371 18.49 48.101 28.15.773 2.61.847 2.37.353 4.88-.22.22-3.085 3.34-3.64 3.08-26.393-12.39-51.949-28.73-76.073-45.23-.614-.41.747-5.52.873-6.54-.336-1.47-.047-1.74.744-2.97"/><path fill="#000c0b" d="M519.957 1228.15c7.072 3.62 21.804 13.65 29.642 18.63 15.942 10.13 32.371 18.49 48.101 28.15.773 2.61.847 2.37.353 4.88-6.554-8.08-54.395-29.27-64.569-39.3-1.149-1.14-11.566-7.67-13.486-8.89l-.785-.5c-.336-1.47-.047-1.74.744-2.97"/><path fill="#0afef2" d="M560.418 1152.51c.59-.47 4.175-4.03 4.653-3.74 4.661 2.8 9.22 7.35 13.808 10.8a360 360 0 0 0 31.48 21.18c6.504 3.81 17.798 6.86 18.496 13.56-.563 3.65-2.17 2.83-5.84 3.52-24.975-10.68-42.723-25.4-63.543-41.66-.089-1.73-.71-3.5.946-3.66"/><path fill="#000c0b" d="M559.472 1156.17c-.089-1.73-.71-3.5.946-3.66 10.865 8.21 56.701 45.24 68.437 41.8-.563 3.65-2.17 2.83-5.84 3.52-24.975-10.68-42.723-25.4-63.543-41.66"/><path fill="#cecece" d="M1410.44 893.912c6.46 2.343 21.15 6.463 23.86 11.789 1.36-2.402 1.5-2.709 3.4-.377 1.04.094 6.29 1.197 7.05 2.871 7.43 16.325 15.98 35.62 21.18 52.72.31 1.029-3.71 4.532-4.6 5.262-.64.264-1.44 1.054-1.9 1.439-3.92 9.309-38.17 41.704-47.41 50.574-4.27 4.09-13.06 11.18-16.91 15.73-.83.29-1.67.58-2.51.88-3.62 4.49-4.26 5.59-6.94.49-4.66-9.05-9.57-17.98-14.73-26.76-4.39-7.42-3.4-5.78-1.31-13.792 1.37-.64 1.71-.804 3.12-1.248l-.72-2.439c8.6-27.133 27.98-73.289 38.42-97.139"/><path fill="#0afef2" d="M1437.7 905.324c1.04.094 6.29 1.197 7.05 2.871 7.43 16.325 15.98 35.62 21.18 52.72.31 1.029-3.71 4.532-4.6 5.262-3.9-15.066-17.15-44.974-23.63-60.853"/><path fill="#0afef2" d="M1369.62 994.738c3.79 4.853 19.93 33.892 22.98 40.062-3.62 4.49-4.26 5.59-6.94.49-4.66-9.05-9.57-17.98-14.73-26.76-4.39-7.42-3.4-5.78-1.31-13.792"/><path fill="#000c0b" d="M1434.3 905.701c1.36-2.402 1.5-2.709 3.4-.377 6.48 15.879 19.73 45.787 23.63 60.853-.64.264-1.44 1.054-1.9 1.439-8.43-18.567-16.71-42.446-25.13-61.915"/><path fill="#000c0b" d="M1369.62 994.738c1.37-.64 1.71-.804 3.12-1.248 4.08 6.435 20.45 34.43 22.37 40.43-.83.29-1.67.58-2.51.88-3.05-6.17-19.19-35.209-22.98-40.062"/><path fill="#cecece" d="M1230.04 723.003c-.34-.952-2.88-5.508-.63-5.478 30.19.395 65.88 4.551 94.92 13.451q1.035.318 2.07.608c-3.7 7.044-40.77 74.867-41.72 75.514-6.55-1.34-8.65-7.134-11.84-12.114l-.01 1.932c.23 1.999 1 3.259-.43 4.364-4.33-2.482-7.76-4.909-10.64-9.134-15.92-23.393-28.06-49.209-44.26-72.512-1.16-1.666 4.28-5.202 8.72 1.466 1.32.804 2.4 1.253 3.82 1.903"/><path fill="#0afef2" d="M1272.4 801.28c-4.33-2.482-7.76-4.909-10.64-9.134-15.92-23.393-28.06-49.209-44.26-72.512-1.16-1.666 4.28-5.202 8.72 1.466 1.32.804 2.4 1.253 3.82 1.903 3.56 2.218 39.25 64.402 42.8 71.981l-.01 1.932c.23 1.999 1 3.259-.43 4.364"/><path fill="#000c0b" d="M1226.22 721.1c1.32.804 2.4 1.253 3.82 1.903 3.56 2.218 39.25 64.402 42.8 71.981l-.01 1.932c.23 1.999 1 3.259-.43 4.364-10.08-19.417-20.16-36.921-31.41-55.771-4.37-7.324-11.06-17.313-14.77-24.409"/><path fill="#0afef2" d="M1229.58 1500.35c-136.98-67.71-256.544-202.17-350.521-320.27a1246 1246 0 0 0-30.392-37.06c-5.775-6.72-12.167-14.05-17.875-20.87-1.48-1.77-.628-4.97-.177-7.28l1.094-.43c5.731 4.26 10.273 11.31 15.018 16.68 28.71 32.53 54.692 67.54 82.44 100.91 44.032 52.94 91.773 104.6 143.153 150.47 56.43 50.39 173.89 142.42 252.41 137.52 23.89-1.5 50.53-12.31 64.45-32.64 4.86-7.09 8.22-16.24 13.84-22.62 2.97-.35 1.61-.62 4.23.86l-.23 2.4c-28.55 69.46-97.41 67.2-157.08 41.84a405 405 0 0 1-20.36-9.51"/><path fill="#cecece" d="M894.055 1445.63c-.99-1.25-1.412-1.71-2.019-3.12-3.061-7.11-25.369-69.21-23.656-72.03.302-.5 1.091-.74 1.622-.85.502-.11 1.012-.17 1.511-.29.663-.16 1.323-.48 2.015-.52 2.183-.13 6.05 5.9 7.37 7.51 17.255 21 36.68 40.37 56.508 58.94l-7.79 2.15c-1.108.33-2.209.67-3.312 1.01.665 1.08 1.343 2.14 2.036 3.2.509-.07.722-.19 1.107-.02-2.021 5.54-18.298 11.07-23.922 11.6-10.055.95-7.141 4.32-10.994-4.74-.13-1.27-.183-1.59-.476-2.84"/><path fill="#0afef2" d="M894.055 1445.63c1.752-.49 3.685-1.06 5.457-1.45l13.501-2.93c4.375-.93 8.94-2.02 13.291-2.82.665 1.08 1.343 2.14 2.036 3.2.509-.07.722-.19 1.107-.02-2.021 5.54-18.298 11.07-23.922 11.6-10.055.95-7.141 4.32-10.994-4.74-.13-1.27-.183-1.59-.476-2.84"/><path fill="#000c0b" d="M894.055 1445.63c1.752-.49 3.685-1.06 5.457-1.45l13.501-2.93c4.375-.93 8.94-2.02 13.291-2.82.665 1.08 1.343 2.14 2.036 3.2-4.64.56-9.254 1.64-13.824 2.63l-4.002.86c-5.201 1.27-10.705 2.44-15.983 3.35-.13-1.27-.183-1.59-.476-2.84"/><path fill="#0afef2" d="M866.147 1358.61c3.316 2.34 7.244 4.94 3.891 8.43-4.542-.92-5.437-4.33-3.891-8.43"/></svg>