<svg xmlns="http://www.w3.org/2000/svg" width="2048" height="2048" viewBox="0 0 2048 2048"><path fill="#171416" d="M0 0h2048v2048H0z"/><path fill="#ee8d5b" d="M1024.93 74.124c9.15 60.636 39.93 111.343 92.04 144.716a2103 2103 0 0 0-35.71 39.871c38.22 56.49 110.43 86.735 172.72 107.732l14 3.543c-4.67 2.165-9.5 4.32-14.08 6.654-3.03 2.766-13.87 8.786-20.18 14.662-18.34 17.057-26.57 31.518-28.18 56.488 40.93-4.952 75.14-6.955 113.58 12.499 34.28 17.353 65.89 51.017 78.33 87.712 2.97.765 5.91 1.66 8.81 2.68 31.31 11.048 60.6 38.977 74.94 68.767 14.63 30.366 11.03 61.539-.11 92.538-8.53-18.29-20.46-31.727-42.5-30.473-52.13 2.965-76.57 62.935-110.39 94.795-18.82 17.725-35.05 31.354-59.7 40.296-27.12 10.578-56.16 12.775-84.47 18.788-22.93 4.869-49.77 10.855-67.3 27.676-9 8.639-10.58 23.776-.32 32.183 19.84 16.261 46.95 14.45 70.86 12.615-21.3 26.626-49.93 45.594-81.87 57.244l-1.57 456.72c24.13.38 48.26.47 72.39.26l-.03 40c7.34 6.83 16.48 14.35 24.17 21.12 6.51-8.25 15.35-17.48 22.53-25.37l.05-35.67c43.31-.12 86.62.02 129.93.39l-.03 179.38-52.77.03c-7.15-8.4-24.34-24.36-32.88-32.94-3.23 3.22-5.86 6.05-8.88 9.47l-.15 46.57-48.68-.01c-7.59 0-25.09-2.17-29.73 4.21l1.46 1.54c9.37 3.2 63.46 2.04 77.29 2.15-.16 18.4-.16 36.8-.01 55.21l9.7 9.28c9.24-11.12 18.89-21.71 28.56-32.45l56.17-.03-.3 166.98-126.64.09-.19-30.67c-8.05-8.9-18.66-18.59-27.49-27.02-7.63 6.06-15.24 12.77-22.67 19.12-.06 12.86-.06 25.71.01 38.57l-70.22-.12-.18 66.58c-32.79 18.33-56.41 38.15-75.25 71.06-15.76-31.42-41.233-60.79-71.718-78.68l.78-639.63-40.158.07.023-97.96 38.132.11.014-37.21c-12.022.42-25.945.04-38.122-.03l.056-99.94 39.5-.17q.075-27.038-.182-54.08c-40.725-2.149-69.397-26.961-97.977-54.444 16.452 2.164 33.488 2.422 49.75-1.256 11.282-2.552 22.252-7.178 28.429-17.563 2.582-4.343 3.585-9.239 2.174-14.157-11.122-38.768-127.911-44.274-164.148-59.193-74.22-30.556-86.069-99.575-138.605-126.245-13.329-6.767-29.248-8.79-43.508-3.739-14.065 4.981-20.784 14.361-26.89 27.222-8.555-33.554-14.911-63.661 1.845-95.921 16.785-32.316 46.972-57.056 81.32-68.279 24.1-56.855 71.233-97.806 133.872-103.493 20.458-1.858 37.997.367 58.295 2.389-3.212-36.962-26.658-66.832-63.046-76.178 11.418-3.926 23.607-6.817 35.077-11.014 56.821-20.788 119.47-49.145 152.721-101.911-7.117-9.601-26.061-29.369-35.063-39.319 47.877-30.922 86.099-87.692 92.369-144.815"/><path fill="#171416" d="M1025.02 102.386c14 46.398 43.31 90.481 84.28 117.103-10.87 12.387-22.71 26.411-34.14 38.068 24.54 44.766 86.46 78.32 132.74 97.692 13.16 5.509 32.28 9.492 43.99 15.737-30.16 21.877-51.72 41.109-50.79 81.303 55.89-5.502 95.52-7.62 143.06 30.472 20.56 16.467 42.07 43.156 48.81 69.099 12.12 3.199 21.2 6.591 32.04 13.132 37.52 22.643 73.82 75.025 57.59 120.971-.35 5.822-1.61 13.393-5.14 4.096-4.72-10.742-7.98-15.157-15.96-23.472a616 616 0 0 0 4.78 10.131c-2.28 1.782-2.6 2.701-5.26 3.982-66.91-21.338-100.41 57.556-140.89 96.867a158.3 158.3 0 0 1-53.99 34.642c-47.65 18.063-116.53 12.931-153.75 48.494-5.22 5.391-8.95 13.915-8.3 21.367 1.39 15.919 17.95 24.753 32.04 28.798 13.16 3.776 26.35 3.419 40.26 2.46-21.77 21.922-46.62 38.953-76.41 48.091l-.66 465.271c23.75.69 48.48.39 72.3.42.07 11.85-.07 23.7-.43 35.54 6.43 7.66 21.24 20.58 29.22 28.35a445 445 0 0 1 27.52-31.34l-.03-32.5h120.11l-.09 169.85-45.41-.02c-11.9-11.91-24.08-22.94-35.76-35.27l-13.03 14.73-.14 44.06c-15.78-.15-32.01-.11-47.74-.39-19.38-.35-24.86 1.13-42.15 9.64 3.5 1.47 13.79 6.15 16.77 6.52 21.66 2.65 50.54.99 72.72 1.02.4 17.75.36 35.94.53 53.72l15 14.1c8.67-11.35 20.97-24.7 30.69-35.24l48.48.13.11 156.94c-38.87.45-78.35.11-117.27.12-.01-10.17-.08-19-.75-29.2-10.9-10.4-20.67-19.85-32.33-29.34-8.77 7.17-18.27 16.25-26.74 23.99l-.16 34.48-70.53-.05q.12 34.14-.21 68.28c-31.59 19.1-47.73 33.46-69.63 62.8-17.73-28.61-37.969-52.55-66.936-70.08-.744-63.61.404-129.06.422-192.85l.172-448.51-40.468-.15-.073-88.35 38.441-.01-.13-46.4-38.141.16.187-90.74 39.651-.2-.224-64.14c-36.173-.652-63.862-18.197-89.236-43.438 24.136 2.664 88.104-3.599 67.963-47.735-2.398-5.255-13.702-13.373-19.241-16.426-40.89-22.538-89.743-20.413-133.192-34.414a149.3 149.3 0 0 1-50.904-27.906c-18.163-15.028-35.586-37.127-49.552-56.514-25.534-35.444-66.714-72.451-111.609-41.514 2.381-5.629 6.292-12.735 9.167-18.31-11.192 8.144-12.07 12.315-17.945 25.052-8.52-36.062-6.379-64.648 16.76-94.678 19.737-25.616 39.929-38.31 69.847-48.572 25.239-64.171 82.128-105.574 151.745-103.28 13.491.444 27.447 2.421 40.935 3.677.117-40.831-19.44-59.535-50.46-81.908a615 615 0 0 0 44.03-15.3c44.266-17.38 112.372-54.435 131.738-98.739-10.947-12.254-22.385-24.474-33.513-36.596 38.842-27.654 72.616-71.459 85.216-117.773"/><path fill="#1d161a" d="M1477.46 690.059c4.74 1.069 2.07-2.893 5.14-4.096-.35 5.822-1.61 13.393-5.14 4.096"/><path fill="#acaeb2" d="M1166.13 569.284c.2-19.978 1.39-37.296 11.36-55.154 35.36-63.352 119.83-52.824 163.2-4.139 18.2 20.436 28.86 37.057 35.28 64.174 47.35 5.599 78.94 28.584 91.42 75.798-15.86-16.719-33.12-30.723-57.45-31.753a55.33 55.33 0 0 0-40.75 15.689c-12.71 12.313-18.1 27.092-22.98 43.64 18.7-14.73 38.01-22.641 62.07-20.629 6.14.236 1.98 2.072-.9 3.488-50.47 21.666-67.96 79.727-113.92 113.626a142.9 142.9 0 0 1-43.62 21.551c-48.93 14.086-191.57 13.86-167.06 100.076 4.6 16.186 27.94 23.953 42.36 28.395-37.03 12.952-61.98 19.835-101.37 10.724-.07 328.7 2.05 657.4 6.35 986.07-15.07-15.49-28.76-30.39-49.457-38.04l1.136-538.8c.217-39.85-.185-80.25.391-120.07l-40.036-.01-.066-44.18 40.584-.06.396-91.7-40.978-.05.044-47.87 39.449-.08-.085-82.922c8.663-4.931 20.992-11.706 28.962-17.409-5.47-.615-14.668.876-17.187-1.268-25.275-1.058-38.201-4.248-61.733-11.289l1.878-1.374c16.822 1.778 33.456-7.442 42.012-21.751 7.589-12.693 7.472-20.796 4.104-34.332l-1.954 1.383c6.442 33.292-21.402 46.965-49.011 51.446 22.798-10.643 50.509-25.725 39.556-55.929-21.575-59.501-111.905-55.393-162.95-68.534-44.256-11.394-74.236-47.275-101.516-81.395-23.494-30.932-35.134-40.188-69.155-59.626 33.189-.893 41.228 1.738 68.545 20.892-2.364-10.557-5.673-20.747-10.394-30.463-15.045-30.963-49.812-36.237-78.422-21.846-13.724 6.903-21.467 15.104-31.977 26.142 11.405-40.286 45.778-78.134 90.607-74.044 1.016-31.085 28.958-67.689 53.113-85.396 23.957-17.561 55.012-24.368 84.189-19.895 49.896 8.298 76.031 47.378 74.914 96.166-12.205-23.747-25.569-39.993-51.863-48.924-48.879-16.601-100.188 27.326-113.901 72.034-9.02 29.406-.369 60.051 14.114 86.41a177.06 177.06 0 0 0 107.159 84.971c54.858 15.668 131.628 9.423 163.522 67.028 9.29 16.781 16.96 42.548 21.46 61.323 11.25-57.831 30.94-98.441 92.84-110.783 68.23-13.602 124.77-13.488 174.39-70.461 37.26-42.78 58.32-98.506 23.68-149.882-39.11-59.355-120.89-58.667-150.35 9.032"/><path fill="#ceced0" d="M672.863 577.661c1.016-31.085 28.958-67.689 53.113-85.396 23.957-17.561 55.012-24.368 84.189-19.895-.683.625-1.891 1.837-2.85 1.916-27.767 2.28-55.409 6.399-77.963 24.249-20.173 15.966-32.675 38.39-43.396 61.437-2.104 4.392-7.538 19.846-9.831 21.747l-1.48-.318z"/><path fill="#1d161a" d="M993.273 938.381c1.985-.059 19.957-.891 20.057-.835l.09.155c-.23.693-.75 1.002-1.41 1.301-.51.226-1.03.442-1.55.647-5.47-.615-14.668.876-17.187-1.268"/><path fill="#47484c" d="M977.58 871.018c-.386-.987-1.685-4.219-1.064-5.207 1.149-.133 2.532 2.976 3.018 3.824z"/><path fill="#b8b7b9" d="M1408.28 656.91c6.14.236 1.98 2.072-.9 3.488z"/><path fill="#acaeb2" d="m1026.17 132.022 2.3 1.131c-.19 1.65-.34 3.24-.5 4.893 9.18 31.712 9.39 44.735 35.56 68.704 6.69 3.676 14.58 8.281 21.37 11.497-13.29 17.848-16.95 20.397-38.67 25.864 30.74 48.874 71.48 86.135 122.34 113.229 14.48 7.711 31.9 15.936 47.94 19.616 1.13.26 2.27.505 3.41.735-32.56 20.154-45.51 47.132-40.8 85.486-26.07 22.473-47.14 40.786-49.66 77.415-1.91 27.909 9.92 45.421 29.4 63.691-66.07-6.181-109.61 36.627-133.58 94.283-8.97-18.287-17.01-31.014-30.502-46.877-4.178-4.912-10.239-9.525-13.941-13.878-27.062-22.053-54.736-40.084-91.497-34.594 16.59-15.275 30.235-30.472 31.024-53.336 1.241-35.981-21.835-60.973-46.556-83.443-3.06-2.782-2.105-5.826-1.708-9.61.784-37.272-10.567-56.188-37.906-80.273a259 259 0 0 0 14.971-4.455c62.838-20.915 123.404-68.257 153.265-128.173-20.729-4.528-25.915-9.762-40.774-24.134 5.743-3.413 11.515-6.934 17.381-10.12a181 181 0 0 1 7.034-5.078c24.339-23.316 30.769-36.079 39.589-69.661.19-1.37.23-1.629.51-2.912"/><path fill="#ceced0" d="M872.1 456.828c12.063.425 22.608 7.547 30.502 16.297 19.204 21.286 31.638 51.37 30.666 80.226-.572 16.957-7.669 29.231-18.14 41.724 21.46 3.35 59.183 18.54 66.324 40.717l-.615 2.019c-27.062-22.053-54.736-40.084-91.497-34.594 16.59-15.275 30.235-30.472 31.024-53.336 1.241-35.981-21.835-60.973-46.556-83.443-3.06-2.782-2.105-5.826-1.708-9.61"/><path fill="#ceced0" d="m1026.17 132.022 2.3 1.131c-.19 1.65-.34 3.24-.5 4.893 9.18 31.712 9.39 44.735 35.56 68.704-3.4 1.292-5.08-.768-8.35-2.184-18.19-7.881-21.13-17.09-29.5-32.743l-1.83 3.193c-10.93 19.026-16.96 24.119-36.323 33.96-.861-2.034-.975-2.222-1.456-4.381 24.339-23.316 30.769-36.079 39.589-69.661.19-1.37.23-1.629.51-2.912"/><path fill="#acaeb2" d="m1026.17 132.022 2.3 1.131c-.19 1.65-.34 3.24-.5 4.893a99 99 0 0 1-2.31-3.112c.19-1.37.23-1.629.51-2.912"/><path fill="#b8b7b9" d="M986.071 204.595c.481 2.159.595 2.347 1.456 4.381-4.055.937-4.315 1.086-8.49.697a181 181 0 0 1 7.034-5.078"/><path fill="#171416" d="M1024.31 249.701c2.28 8.928 3.72 17.425 6.39 26.479 15.57 52.637 62.02 85.924 107.81 110.974-14.69 68.524-29.82 113.963-69.23 172.11-14.06 20.753-30.2 43.769-43.24 64.936-19.42-33.749-36.169-53.08-57.275-84.242a343.55 343.55 0 0 1-56.784-154.326c35.942-19.024 68.658-42.512 92.049-76.63 12.7-18.51 16.69-37.552 20.28-59.301"/><path fill="#ee8d5b" d="M1025.42 310.838c15.31 19.787 23.15 31.894 42.42 49.969 10.31 9.668 37.95 27.801 43.99 35.96.12 3.673.03 7.318-.37 10.957-6.28 56.014-29.41 104.441-62.15 149.515-5.57 7.657-16.38 23.566-23.3 29.322-6.49-6.231-16.69-19.337-22.32-26.87-37.382-50.046-62.272-100.824-65.486-163.922 8.432-7.239 22.206-15.938 31.764-23.779 24.165-19.824 37.782-36.526 55.452-61.152"/><path fill="#171416" d="M1025.26 319.889c3.8 4.022 8.44 10.583 12.03 15.081 15.96 20.107 35.72 39.224 57.48 53.034 18.63 11.819 11.12 25.97 7.34 44.523-11.43 56.267-41.12 102.887-75.92 147.49-15.59-20.612-30.816-37.741-43.698-60.646-21.36-37.98-38.606-78.1-38.809-122.351 38.12-24.844 54.228-42.192 81.577-77.131"/><path fill="#ee8d5b" d="M802.575 538.186c33.802-2.532 60.763 10.351 59.949 49.522-.368 17.679-7.453 28.458-20.125 40.128 37.966-7.604 66.578-9.418 101.892 9.021 39.571 20.662 68.039 65.494 80.729 107.465 15.85-50.779 49.48-99.953 102.04-116.834 27.65-8.879 52.45-4.175 80.31.243-42-37.656-14.28-99.356 46.08-88.576a77.77 77.77 0 0 1 49.69 32.233c13.68 20.017 14.75 40.342 10.43 63.372a155.2 155.2 0 0 1-14.99 40.238c-25.51 46.812-74.02 66.671-124.13 75.097-60.05 10.097-117.35 10.671-149.81 70.298-45.367-85.865-156.557-49.839-230.766-98.856-69.835-46.128-92.498-163.526 8.701-183.351"/><path fill="#171416" d="M811.357 542.369c31.175-.746 50.845 21.15 45.581 52.069-3.612 21.219-15.311 28.217-31.397 39.289 45.754-1.905 76.038-18.197 122.471 11.162 41.611 26.31 66.068 73.276 76.958 120.095 18.78-73.141 66.23-146.88 152.95-136.676 15.04 1.769 31.09 4.462 46.13 5.339-24.35-14.707-39.88-36.936-27.24-67.069 11.13-26.534 51.93-28.515 74.54-16.265 19.11 10.348 29.04 21.042 36.08 42.048 8.09 28.09-.48 56.876-14.04 81.716-23.58 43.159-72.06 63.216-118.27 70.709-42.99 6.968-85.58 9.36-122.51 35.037-13.19 9.172-19.57 16.096-27.4 29.941-52.527-81.245-163.307-42.671-235.573-97.312-64.645-48.878-77.109-159.237 21.72-170.083"/><path fill="#acaeb2" d="M1086.06 1447.44c14.47-1.43 48.46-.33 64.98-.29-3.98 9.77-7.25 18.76-10.75 28.67 19.67 16.9 40.83 39.03 59.41 54.21 7.58-8.77 46.94-49.77 49.32-55.79l-.79-1.34-.27-3.6c1.1-5.41.64-16.15.58-22.14 19.29.18 65.75-1.63 82.53.65-.08 40.02-1.69 89.79-.27 128.79l-23.43.57c-11.48-11.12-28.55-26.65-39.1-38.1-4.57 1.71-33.55 26.05-38.35 30.38-.11 8.12-.31 16.36-.33 24.47-25.14 4.66-37.64 4.78-60.3-8.9a1481 1481 0 0 1-43.65 44.95c15.5 16.62 26.82 28.49 43.66 43.6 29.74-16.16 25.78-15.93 61.81-7.81-.11 7.58-.13 15.32-.35 22.88 12.07 11.42 25.94 24.48 36.98 36.9l41.2-36.78 23.98.12.36 118.15c-28.04-.2-56.08-.15-84.12.16.1-5.53 1.39-16.72-1.79-20.06l.91-1.21 1.14-1.85c-1.84-5.67-44.28-47.34-51.41-54.34-17.75 16.92-41.51 37.12-58.05 54.23l10.97 23.51c-13.99-.17-27.98-.25-41.97-.23l-23.18-.07z"/><path fill="#ceced0" d="m1085.78 1807.17.28-359.73c7.6.67 13.93.71 21.58.75l1.32 359.05z"/><path fill="#ceced0" d="M1331.07 1447.81c-.08 40.02-1.69 89.79-.27 128.79l-23.43.57c-11.48-11.12-28.55-26.65-39.1-38.1.78-1.75.24-.82 1.8-2.68 9.08-1.08 39.08 19.11 49.08 24.92-.99-9.97-.4-27.65-.31-37.99.13-22.09.39-44.18.76-66.26-8.49-1.59-15.53-3.22-23.91-5.35 4.55-.56 19.59 1.9 23.78 4.84.11.08 1.67 1.57 1.66 2.07-.05 16.2.09 32.43-.33 48.62-.45 17.19-1.91 34.79.23 51.89.49 3.93 4.83 5.91 7.97 7.96v-118.07c-7.08-.03-44.22 1.05-48.24-.12 15.26-1.86 33.42.14 49.11-1z"/><path fill="#acaeb2" d="M1066.28 964.642c8.54 6.329 12.6 30.229 13.07 40.398 3.54 76.62.38 153.38 1.1 230.03l1.55 651.99-9.39 6.05-9.36 7.05c1.54-32.66.19-78.37.11-111.86l-.39-206.94c-.39-205.58.71-411.16 3.31-616.718"/><path fill="#ceced0" d="M1197.39 1511.86c11.5-12.29 35.37-36.43 50.57-42.56l.27 3.6c-2.78 2.04-10.46 10.72-13.68 13.87-12.06 11.78-23.91 24.94-35.94 36.68-3.18-3.48-22.42-25.46-22.42-28.06.84-1.05 2.56 1.05 3.01 1.49.76.42 1.48.65 1.93 1.34 5.6 4.18 10.94 9.04 16.26 13.64"/><path fill="#ceced0" d="M1198.47 1736.35c16.1 15.04 33.62 33.23 49.23 49l.58.57-.91 1.21c-17.39-6.77-37.91-31.14-52.66-42.85-.89-.71-3.15 1.58-4.3 1.43l-.11-.24c.33-1.36 6.8-7.75 8.17-9.12"/><path fill="#6e6a6a" d="m1026.17 132.022.13-1.363c.06-.775.13-1.759.75-2.31 1.16-.083 1.3 4.002 1.42 4.804z"/><path fill="#47484c" d="M931.54 927.092c-.799-.4-2.527-.947-2.979-1.742.734-1.131 3.876.041 4.857.368z"/><path fill="#1d161a" d="M1461.02 680.7c2.66-1.281 2.98-2.2 5.26-3.982 1.84 3.83 3.66 7.279 5.42 11.193-4.83-3.608-5.47-4.255-10.68-7.211"/></svg>