<svg xmlns="http://www.w3.org/2000/svg" width="2048" height="2048" viewBox="0 0 2048 2048"><path fill="#201e27" d="M0 0h2048v2048H0z"/><path fill="#d77a37" d="M973.765 220.433c14.507-.79 29.835-.18 44.755-.518 35.15-.797 68.41-.228 103.67 3.784 84.21 9.582 193.17 35.112 250 102.943 14.84 17.713 23.5 41.435 20.26 64.367-4.31 30.492-22.96 47.596-45.79 65.25a590 590 0 0 1 8.13 19.824c27.62 71.729 19.85 133.824-3.09 204.789-36.26 112.219-108.85 208.241-208.77 271.395-15.25 9.641-32.1 16.952-46.22 28.226-20.78 16.376-26.73 47.367-9.19 68.327 11.61 13.66 29.52 21.51 44.96 30.49a696 696 0 0 1 30.38 19.05c20.81 13.96 38.62 30.1 56.53 47.28 54.35 52.13 95.14 116.31 122.27 186.52 23.36 60.47 39.46 131.64 26.16 196.32-4.68 22.77-12.03 41.02-21.23 61.97 24.69 17.85 44.86 40.76 46.67 72.44 1.27 22.24-10.63 47.19-25.83 62.79-70.74 72.61-195.4 97.8-292.18 102.95-14.84 1.2-33.7.68-49.14.66-33.752-.04-69.027-.89-102.894-4.83-83.726-9.75-188.784-36.49-245.625-103.56-14.301-16.87-24.87-43.12-21.508-65.13 4.641-30.37 23.637-48.06 46.361-65.56-16.363-35.57-28.017-77.99-26.092-116.6 8.157-163.62 112.244-323.27 255.287-401.85 6.439-4.69 16.469-9.42 21.818-15.24 57.403-62.507-32.766-91.279-63.424-113.051-79.623-56.542-140.674-130.767-178.064-219.85-40.161-95.688-49.141-170.248-9.209-267.672-23.028-14.81-43.943-41.573-45.238-69.79-2.317-50.524 43.674-87.017 83.344-109.236 54.483-30.515 116.486-45.506 178.118-52.521 18.341-2.095 36.343-3.031 54.781-3.967"/><path fill="#201e27" d="M715.426 453.73c-73.007-46.763-53.195-111.932 10.633-155.654 59.449-40.722 129.407-58.948 200.441-65.6 31.062-2.909 62.45-2.393 93.59-2.534 98.49-2.339 200.04 7.291 286.87 57.598 72.09 41.77 107.34 111.134 26.73 166.628 25.62 53.497 33.94 108.398 22.8 167.063-13.17 69.353-42.44 139.481-82.99 197.322a499 499 0 0 1-83.84 92.107c-15.15 12.945-29.95 23.071-45.97 34.509-18.26 14.258-56.1 26.83-64.92 50.084-20.3 53.497 19.46 70.787 54.08 91.667 8.61 5.28 17.05 10.86 25.28 16.72 82.98 58.07 147.55 149.44 178.81 245.14 28.38 86.9 37.74 160.78-4.37 245.79 3.08 1.95 6.09 4.02 9.03 6.19 69.51 51.88 33.11 116.76-28.24 154.34-57.58 35.26-118.15 51.07-184.49 59.78-35.95 5.4-81.38 4.6-117.63 4.11-12.962-.17-54.547.13-66.351-1.92-16.957.23-51.868-5.16-69.421-8.48-68.9-13.76-151.225-42.41-193.37-101.66-30.786-43.29-7.249-88.06 33.124-113.9a399 399 0 0 1-11.723-27.24c-52.956-140.14 39.403-332.45 144.996-426.71 15.179-13.55 26.042-22.45 42.104-34.95 22.921-19.14 69.39-33.94 80.763-62.84 23.216-58.999-42.556-78.225-76.751-102.452-74.966-53.113-135.51-127.7-170.756-212.3-27.519-66.051-46.633-141.839-29.168-212.77 5.966-24.204 11.435-37.37 20.739-60.038"/><path fill="#201e27" d="M734.965 610.9c5.894 1.699 11.062 2.65 15.603 6.594 1.39.333 19.474 8.515 22.583 9.837 16.737 7.118 32.36 13.158 50.087 17.803 112.792 29.552 242.222 31.768 356.542 10.45 23.55-4.392 48.21-11.308 71.09-19.043 15.41-5.208 32.22-14.577 47.39-20.212l1.39-.134c-23.64 114.787-70.54 217.787-165.19 291.734-45.68 35.695-127.8 79.343-81.48 155.631 19.65 32.37 68.18 51.59 94.84 77.91 79.14 69.24 128.59 175.12 145.59 277.67 5.77 34.78 5.65 67.23 4.81 101.85-5.55 10.74-89.44 34.91-104.11 38.44a742.9 742.9 0 0 1-346.104-1.16 472 472 0 0 1-54.2-16.58c-13.814-5.23-26.976-11.35-40.922-16.41-.968-9.12-.971-20.77-1.676-30.37-2.041 9.9-.699 21.65-.727 32.31-6.314-26.68-9.921-47.76-12.223-75.31-.256-7.18 2.994-11.33.197-17.88-1.922-8.47 6.121-41.34 8.709-51.23a497.34 497.34 0 0 1 141.019-238.77c12.045-11.33 25.801-22.84 39.388-32.91 29.635-21.98 85.559-55.27 78.139-99.16-6.941-41.076-52.122-65.064-83.088-86.315-23.822-16.348-49.254-42.038-68.667-63.603-10.993-12.702-22.061-23.03-32.001-37.037-46.057-64.894-74.072-135.815-86.989-214.105"/><path fill="#dadada" d="M734.965 610.9c5.894 1.699 11.062 2.65 15.603 6.594 22.408 116.464 67.778 218.707 165.133 291.852 25.342 19.04 64.517 43.122 80.848 69.056 49.551 78.688-45.82 121.968-91.396 161.578-100.774 87.56-154.959 223.1-153.945 354.93-2.041 9.9-.699 21.65-.727 32.31-6.314-26.68-9.921-47.76-12.223-75.31-.256-7.18 2.994-11.33.197-17.88-1.922-8.47 6.121-41.34 8.709-51.23a497.34 497.34 0 0 1 141.019-238.77c12.045-11.33 25.801-22.84 39.388-32.91 29.635-21.98 85.559-55.27 78.139-99.16-6.941-41.076-52.122-65.064-83.088-86.315-23.822-16.348-49.254-42.038-68.667-63.603-10.993-12.702-22.061-23.03-32.001-37.037-46.057-64.894-74.072-135.815-86.989-214.105"/><path fill="#cacaca" d="M728.543 421.246c-4.034-36.443 3.421-63.717 27.382-92.317 76.87-91.75 207.534-100.325 318.345-94.766 67.18 3.37 136.56 22.023 190.09 63.973 29.19 22.932 55.37 56.969 59.42 95.136a89.4 89.4 0 0 1-2.15 30.871c-35.52-48.337-85.59-65.992-142.24-78.426-27.14-5.956-54.32-8.014-81.94-10.202l-3.51 3.58c147.74 18.419 257.24 128.793 234.75 284.482-17.29 119.757-85.5 231.872-181.22 305.373a359 359 0 0 1-25.2 17.956c-35.19 22.466-98.95 54.894-55.31 103.724 22.87 25.59 41.8 32.8 68.07 50.89 112.99 77.82 204.09 240.4 194.88 376.63a240.67 240.67 0 0 1-81.99 165.2c-39.84 34.51-96.55 59.62-149.24 66.25-12.72 2.08-25.52 3.6-38.36 4.59-3.44-.27-5.68.37-9.01.32-3.11-1.85-2.55-.78-4-3.34 2.36-1.1 33.01-5.12 39.53-6.46a325.5 325.5 0 0 0 60.98-19.46c54.46-23.26 99.87-60.08 131.43-110.94 6.92-11.14 12.97-26.38 17.9-38.68 1.75-5.18 3.42-10.38 5.02-15.61l-3.95.97c.84-34.62.96-67.07-4.81-101.85-17-102.55-66.45-208.43-145.59-277.67-26.66-26.32-75.19-45.54-94.84-77.91-46.32-76.288 35.8-119.936 81.48-155.631 94.65-73.947 141.55-176.947 165.19-291.734l-1.39.134c-15.17 5.635-31.98 15.004-47.39 20.212-22.88 7.735-47.54 14.651-71.09 19.043-114.32 21.318-243.75 19.102-356.542-10.45-17.727-4.645-33.35-10.685-50.087-17.803-3.109-1.322-21.193-9.504-22.583-9.837-4.541-3.944-9.709-4.895-15.603-6.594 12.917 78.29 40.932 149.211 86.989 214.105 9.94 14.007 21.008 24.335 32.001 37.037 19.413 21.565 44.845 47.255 68.667 63.603 30.966 21.251 76.147 45.239 83.088 86.315 7.42 43.89-48.504 77.18-78.139 99.16-13.587 10.07-27.343 21.58-39.388 32.91a497.34 497.34 0 0 0-141.019 238.77c-2.588 9.89-10.631 42.76-8.709 51.23 2.797 6.55-.453 10.7-.197 17.88-1.379 65.2 21.994 121.38 67.017 168.59a277.9 277.9 0 0 0 89.717 62.17c15.338 6.71 28.8 10.88 44.75 15.35 9.805 2.8 19.71 5.24 29.696 7.3 11.272 2.34 17.704 1.31 25.81 9.66-2.625-.26-5.86-1.06-7.945-.95-12.753-.52-29.754-3.49-42.338-5.97-35.252-3.49-91.901-27.5-120.687-46.79a237.24 237.24 0 0 1-101.796-152.16c-19.553-99.18 28.047-224.58 86.568-303.95 23.328-31.65 46.917-55.88 76.856-81.26a437 437 0 0 1 33.162-25.46c23.263-15.87 51.151-30.67 67.184-54.43 32.578-48.28-37.314-82.2-69.055-103.192-97.275-64.335-165.113-170.669-191.557-283.399-15.681-68.119-11.565-140.466 27.491-200.362 43.041-66.006 102.216-97.288 176.764-113.614 8.452-1.609 34.561-4.515 40.552-7.944l-17.114.077c-74.657 3.637-165.28 19.855-217.688 77.454a182 182 0 0 0-7.102 8.216"/><path fill="#dadada" d="M1299.65 616.195c3.37-2.616 5.07-4.485 9.1-5.358 1.4 3.715.29 2.095 3.98 4.616-1.45 17.689-8.1 42.322-13.11 59.405a482.64 482.64 0 0 1-158.48 238.949c-36.51 29.893-92.45 48.897-97.26 101.243-5.1 55.33 56.25 75.75 90.6 105.04 86.92 67.49 147.6 166.71 170.41 274.2 1.43 6.74 8.92 36.53 5.95 41.6-.41.71-.82 1.41-1.23 2.12.8 20.67.47 41.3-2.94 61.77-1.01 6.09-2.38 14.43-4.5 20.24l-3.95.97c.84-34.62.96-67.07-4.81-101.85-17-102.55-66.45-208.43-145.59-277.67-26.66-26.32-75.19-45.54-94.84-77.91-46.32-76.288 35.8-119.936 81.48-155.631 94.65-73.947 141.55-176.947 165.19-291.734"/><path fill="#f5d0a5" d="M953.333 335.576c17.913-.535 35.402-1.901 53.467-.784-5.04 1.638-12.279-1.055-14.004 2.428-1.195 2.413-.93 2.439-3.191 4.264-13.8-.496-24.858 3.013-38.114 5.283-52.723 9.031-107.229 34.737-145.414 72.556a230.99 230.99 0 0 0-69.081 162.09c-.032 8.37 3.499 23.43.524 29.581l-1.851.519c-2.933-2.38-2.897-5.228-3.342-9.319-6.123-56.235 13.551-121.107 49.783-164.687A267.34 267.34 0 0 1 905.298 355.4c5.899-1.893 34.567-8.573 37.159-10.277-3.724-1.513-8.526-1.696-12.562-1.68 8.452-1.609 34.561-4.515 40.552-7.944z"/><path fill="#f5d0a5" d="M1310.84 1435.89c7.22 3.65 5.37 18.9 5.53 26.31.61 28.92-6.42 54.77-15.7 81.85-30.76 71.01-83.66 117.89-155.15 146.13a364 364 0 0 1-32 10.89c-3.93 1.11-15.74 3.03-17.67 5.4 1.16 2.29.6 1.61 2.83 3.13-12.72 2.08-25.52 3.6-38.36 4.59-3.44-.27-5.68.37-9.01.32-3.11-1.85-2.55-.78-4-3.34 2.36-1.1 33.01-5.12 39.53-6.46a325.5 325.5 0 0 0 60.98-19.46c54.46-23.26 99.87-60.08 131.43-110.94 6.92-11.14 12.97-26.38 17.9-38.68 1.75-5.18 3.42-10.38 5.02-15.61 2.12-5.81 3.49-14.15 4.5-20.24 3.41-20.47 3.74-41.1 2.94-61.77.41-.71.82-1.41 1.23-2.12"/><path fill="#f5d0a5" d="M738.455 1434.03c2.797 6.55-.453 10.7-.197 17.88-1.379 65.2 21.994 121.38 67.017 168.59a277.9 277.9 0 0 0 89.717 62.17c15.338 6.71 28.8 10.88 44.75 15.35 9.805 2.8 19.71 5.24 29.696 7.3 11.272 2.34 17.704 1.31 25.81 9.66-2.625-.26-5.86-1.06-7.945-.95-12.753-.52-29.754-3.49-42.338-5.97 8.539-.45 14.435 2.37 21.719 1.61l-.306-1.08-2.466.18-.329-.69.733-1.47c-2.652-1.43-6.799-1.83-9.943-2.43-73.656-14.06-140.609-53.18-182.618-116.1-23.502-35.2-37.336-73.13-39.277-115.76-.487-10.7-.631-21.82 1.504-32.42.88-4.37.977-3.54 4.473-5.87"/><path fill="#f5d0a5" d="m1308.75 610.837.17-.862c6.28-31.914.53-70.236-9.75-100.556-33.38-98.403-131.06-156.159-230.33-167.421-6.45-.731-10.77-.966-17.19-2.557l-.33-.646c9.73-.95 23.34 1.8 33.26 3.284 51.55 7.707 100 25.455 141.07 58.041 52.4 41.573 84.24 95.198 91.09 162.242 1.47 14.402 3.06 39.906-4.01 53.091-3.69-2.521-2.58-.901-3.98-4.616"/><path fill="#6f6e71" d="M1093.94 339.095c-1.29.01-52.48-5.155-50.27-3.958-.01-.122-.02-.243-.02-.364l1.07-.168c7.73-1.286 44.45.011 52.73.91z"/><path fill="#201e27" d="M996.179 508.419c11.981-1.056 35.951-.86 48.121-.322 90.88 4.01 192.58 25.832 266.04 81.858-71.17 45.428-172.77 59.386-255.29 63.48-12 .796-29.19.617-41.54.477-89.163-1.008-198.08-15.352-274.987-63.234 62.749-54.333 177.247-77.268 257.656-82.259"/><path fill="#f5d0a5" d="M990.287 236.521c2.927 1.772 57.123.475 66.243 1.195 85.95 6.789 177.67 33.43 231.23 105.966 7.75 10.505 19.98 36.439 17.71 50.649l-1.49 1.049c-4.94-2.661-5.18-12.081-7.49-18.086-34.73-90.268-143.29-124.096-232.4-134.381-7.02-2.237-33.51-1.586-42.5-1.529-93.735.588-206.97 30.513-260.089 114.285-4.549 7.174-9.213 33.181-16.173 36.594l-1.453-1.399c-4.253-20.161 21.79-56.283 35.388-69.921 43.437-43.562 101.422-65.478 160.809-76.876 11.471-2.201 41.947-3.627 50.215-7.546"/><path fill="#cacaca" d="M738.258 1451.91c2.302 27.55 5.909 48.63 12.223 75.31.028-10.66-1.314-22.41.727-32.31.705 9.6.708 21.25 1.676 30.37 13.946 5.06 27.108 11.18 40.922 16.41a472 472 0 0 0 54.2 16.58 742.9 742.9 0 0 0 346.104 1.16c14.67-3.53 98.56-27.7 104.11-38.44l3.95-.97c-1.6 5.23-3.27 10.43-5.02 15.61-4.93 12.3-10.98 27.54-17.9 38.68-31.56 50.86-76.97 87.68-131.43 110.94a325.5 325.5 0 0 1-60.98 19.46c-6.52 1.34-37.17 5.36-39.53 6.46 1.45 2.56.89 1.49 4 3.34 3.33.05 5.57-.59 9.01-.32.4 3.16 19.93 1.67 24.08 1.92 80.06-3.96 189.32-20.24 236.43-93.15 7.28 28.36 2.44 54.11-12.79 79.04-40.03 65.55-109.31 90.51-179.76 106.38-8.9 1.41-44.15 7.15-51.67 6.34-14.77 2.21-32.07 1.65-47.11 2.23-9.49.37-19.17-1.37-28.93-.77-6.664-.24-13.266.01-19.783-1.07-12.27.4-41.276-3.35-53.847-5.61-67.706-12.17-139.034-40.86-179.514-99.27-18.998-27.41-25.29-54.28-19.259-86.87 48.979 71.57 156.217 89.42 237.3 92.8 2.78-.17 22.379-.07 22.901-.6-.021-.43-.829-1.25-1.065-1.53 2.085-.11 5.32.69 7.945.95-8.106-8.35-14.538-7.32-25.81-9.66a409 409 0 0 1-29.696-7.3c-15.95-4.47-29.412-8.64-44.75-15.35a277.9 277.9 0 0 1-89.717-62.17c-45.023-47.21-68.396-103.39-67.017-168.59"/><path fill="#f5d0a5" d="M980.383 1811.01c-1.963-.72-31.836-4.18-37.938-5.41-67.902-13.6-137.896-41.03-180.32-98.58-8.19-11.11-22.823-39.18-20.557-52.2l1.691-.58c5.672 2.64 12.324 32.26 18.484 41 6.229 8.84 11.632 16.52 19.108 24.65 54.626 59.34 159.381 86.33 238.149 88.15 80.3 1.86 200.43-31.64 252.9-94.2 8.03-9.53 14.75-20.09 20.01-31.39 4.24-8.96 6.55-24.01 12.14-29.25l1.32.12c.25.61.75 1.67.71 2.3-2.83 42.94-39.32 78.65-74.08 101.43-45.32 29.71-100.25 46.23-154.37 52.96-2.74.98-4.45 1.75-7.27 2.51l-.17.89-1.03-.28.24-.23c-.43.48-.24.35-.56.49l-.02.09c.3.36 6.67.95 7.79 1.24-14.77 2.21-32.07 1.65-47.11 2.23-9.49.37-19.17-1.37-28.93-.77-6.664-.24-13.266.01-19.783-1.07-.279.03 16.254-.3 11.336-1.73-2.852-.83-7.656-.99-11.74-2.37"/><path fill="#dadada" d="M980.383 1811.01c11.741.51 29.017 1.98 41.257.39.73-.26 1.47-.52 2.2-.79 11.51 4.56 43.76-.25 53.79-.6-2.74.98-4.45 1.75-7.27 2.51l-.17.89-1.03-.28.24-.23c-.43.48-.24.35-.56.49l-.02.09c.3.36 6.67.95 7.79 1.24-14.77 2.21-32.07 1.65-47.11 2.23-9.49.37-19.17-1.37-28.93-.77-6.664-.24-13.266.01-19.783-1.07-.279.03 16.254-.3 11.336-1.73-2.852-.83-7.656-.99-11.74-2.37"/><path fill="#6f6e71" d="M1051.31 1714.51c3.33.05 5.57-.59 9.01-.32.4 3.16 19.93 1.67 24.08 1.92-4.51.69-39.77 1.83-41.26.15.42-1.51 7.02-1.64 8.17-1.75"/><path fill="#6f6e71" d="M987.303 1714.03c2.085-.11 5.32.69 7.945.95 2.533-.06 10.752-.01 12.962 1.06l.14.27c-1.92 1.45-38.002.66-42.883-.15 2.78-.17 22.379-.07 22.901-.6-.021-.43-.829-1.25-1.065-1.53"/><path fill="#2f2225" d="M1076.61 1814.72c7.52.81 42.77-4.93 51.67-6.34l1.88 1.06-2.74 1.24c1.77 1.87 3.29 1.89 5.87 1.73-1.52.79-3.04 1.48-4.42 2.47-35.95 5.4-81.38 4.6-117.63 4.11-12.962-.17-54.547.13-66.351-1.92 13.495-2.07 40.034 2.56 55.681-.89 9.76-.6 19.44 1.14 28.93.77 15.04-.58 32.34-.02 47.11-2.23"/></svg>