<svg xmlns="http://www.w3.org/2000/svg" width="2048" height="2048" viewBox="0 0 2048 2048"><path fill="#292434" d="M0 0h2048v2048H0z"/><path fill="#040113" d="M1289.99 318.495c6.17-.088 12.35-.108 18.52-.061 101.55 1.244 186.05 34.782 257.17 108.055 95.2 98.079 155.67 183.174 153.22 326.255-3.92 229.351-174.08 482.406-334.63 637.186-139.06 134.07-327.94 256.38-521.472 287.71-37.26 6.03-74.337 7.93-112.029 7.21-111.633-5.47-206.947-40.34-287.773-118.81-24.251-23.54-53.89-54.34-74.553-80.67-42.65-54.35-65.004-130.8-66.127-199.68-3.686-226.05 130.422-450.608 281.693-609.709a1250.9 1250.9 0 0 1 427.751-298.894c85.66-35.204 165.6-56.217 258.23-58.592"/><path fill="#eaeaea" d="M1268.49 340.408c234.58-11.347 382.52 140.767 348.46 376.675-27.35 189.374-137.69 369.627-264.95 509.337-160.45 176.14-410.905 346.95-656.25 357.87-186.022 9.9-340.027-86.98-351.122-284.84-11.816-210.7 111.231-423.548 245.358-577.017 160.957-184.167 428.584-365.666 678.504-382.025"/><path fill="#040113" d="M1252.93 394.455c165.75-4.842 303.94 99.019 306.72 272.711 3.18 198.809-117.74 399.874-249.03 541.044-150.14 161.45-372.982 308.87-599.336 316.64-80.311.8-160.467-15.02-222.454-70.6-56.988-51.09-82.73-127.49-85.756-202.75-7.865-195.6 111.844-391.818 239.206-531.537 138.931-152.411 335.451-283.922 541.15-319.141 22.75-3.894 46.53-5.361 69.5-6.367"/><path fill="#eaeaea" d="m1281.69 417.448 1.24-.075c67.23-3.538 145.54 15.648 195.46 61.966 76.97 70.235 82.51 188.259 61.72 284.246-74.96 346.105-474.71 736.135-835.178 755.435-154.547 3.74-267.721-68.34-272.596-233.09-11.993-405.321 457.887-849.408 849.354-868.482"/><path fill="#040113" d="M837.174 700.619c33.157-26.977 66.386-46.577 103.303-67.972 97.353-56.419 222.053-93.211 329.323-39.859-88.13 26.703-127.02 76.623-169.84 152.817a2844 2844 0 0 0-34.42 62.239c-10.44 19.513-21.4 39.517-31.53 59.143 8.44 8.488 20.13 19.261 27.81 27.683a2432 2432 0 0 0 106.83-64.178c81.06-50.743 134.34-87.962 165.96-185.544 40.57 50.08 50.97 110.428 44.92 173.668-7.66 80.004-47.24 153.167-91.1 218.954-9.46 14.18-27.39 39.2-39.41 50.88 26.58-46.51 49.77-95.381 57.38-148.948 5.47-38.54 9.75-100.984-39.11-111.351-30.77 28.232-66.49 49.891-102.23 71.17-55.2 32.857-108.92 67.654-162.93 102.389-3.758 8.35-10.781 19.56-15.559 27.75a4317 4317 0 0 0-25.12 43.6l-43.054 76.13c-15.376 27.49-34.881 66.81-57.329 88.1 6.977 15.03 16.87 27.81 33.769 33.05 54.082 16.77 129.493-14.42 178.993-36.91 16.04-7.29 31.75-17.08 46.89-24.37-63.3 56.44-159.142 115.12-242.657 133.57a332 332 0 0 1-92.143 7.02c-40.487-2.35-84.122-12.29-119.39-32.91 103.828-34.29 138.389-87.15 188.559-177.14a6727 6727 0 0 1 51.578-92.95c-9.061-9.41-18.66-19.13-27.374-28.79-97.202 57.69-237.497 119.11-268.141 238.65q-.386 1.485-.725 3c-64.628-95.28-35.371-213.73 18.632-306.108 20.006-34.221 42.771-69.44 69.585-98.785l1.757 1.769c-31.642 44.436-65.206 141.514-41.692 194.324 5.683 12.76 17.582 18.81 30.156 23.05 28.566-27.35 67.348-48.46 101.153-69.32a3268 3268 0 0 0 103.326-66.081c9.961-6.62 37.17-22.934 44.108-30.342 5.61-5.99 21.419-33.171 26.29-41.224a2568 2568 0 0 0 33.834-57.241c16.054-28.408 59.764-108.504 81.214-128.328-9.72-41.105-39.92-42.657-75.54-37.388-56.771 8.396-112.499 31.932-162.736 58.297z"/><path fill="#292434" d="m837.174 700.619 3.34 1.514a514 514 0 0 1-14.665 8.346c3.369-3.06 7.767-7.136 11.325-9.86"/><path fill="#292434" d="M698.644 854.617c5.055-5.395 5.083-3.662 1.757 1.769z"/><path fill="#0cbabc" d="M1661.91 559.377c90.9 168.943 26.47 367.084-60.92 522.993-114.4 204.06-286.04 376.86-491.07 490.11-145.525 79.89-318.945 127.23-481.688 77.02-43.917-13.55-91.422-37.91-127.046-67.33l2.945-1.41c130.865 76.8 312.696 72.16 452.017 21.12 278.612-102.06 515.662-333.57 645.752-597.67 66.24-134.481 107.05-292.693 56.32-437.995 2.13-3.143 2.32-3.388 3.69-6.838"/><path fill="#0cbabc" d="M1658.22 566.215c-6.39-17.086-13.6-30.327-19.82-45.951 6.85 10.348 18.23 28.096 23.51 39.113-1.37 3.45-1.56 3.695-3.69 6.838"/><path fill="#0c8687" d="M488.606 1571.62c4.41 2.54 11.541 6.47 15.525 9.14l-2.945 1.41c-3.566-1.97-9.572-7.72-12.58-10.55"/><path fill="#eaeaea" d="m1507.39 1363.08 1.11 2.28c-113.79 162.88-315.18 315.1-513.431 350.34a485.7 485.7 0 0 1-115.925 6.12c1.761-1.59 1.741-1.66 3.656-2.8 10.542.09 24.345-.95 34.954-2.04 238.116-24.41 440.946-175.91 589.636-353.9"/><path fill="#eaeaea" d="M678.853 536.373c2.176-2.588 5.096-5.835 7.443-8.335C798.381 408.706 962.847 303.76 1129.7 295.973l1.5.663c2.64 1.362 3.64 1.365 6.64 1.479 1.14.054 2.29.122 3.43.204-38.88 4.998-72.6 10.669-110.36 22.202-127.864 39.057-255.125 123.398-349.532 217.045z"/><path fill="#cfcdcf" d="M1129.7 295.973c9.74-.533 21.41-.396 30.24-1.005l-.04 2.2c-6.44-.483-12 .673-18.63 1.151-1.14-.082-2.29-.15-3.43-.204-3-.114-4-.117-6.64-1.479z"/><path fill="#cfcdcf" d="M662.048 557.37c3.737-5.293 12.244-16.301 16.805-20.997l2.525 1.193c-6.57 6.682-12.589 13.166-19.33 19.804"/><path fill="#cfcdcf" d="M858.694 1719.32c8.435-.34 15.697-.25 24.106-.3-1.915 1.14-1.895 1.21-3.656 2.8-7.549-.19-13.196-1.15-20.45-2.5"/><path fill="#cfcdcf" d="M1507.39 1363.08c.93-1.31 8.08-10.73 8.92-11.08.95.9-6.67 11.88-7.81 13.36z"/><path fill="#5c5a63" d="m1159.94 294.968 1.96-.097c1.12-.071 3.74-.585 4.44.632-.59 1.427-5.18 1.534-6.44 1.665z"/></svg>