<svg xmlns="http://www.w3.org/2000/svg" width="2048" height="2048" viewBox="0 0 2048 2048"><path fill="#161a22" d="M0 0h2048v2048H0z"/><path fill="#a25f32" d="m756.449 136.415.222-.027a508 508 0 0 1 209.773 33.011c17.633 6.698 44.046 18.598 58.246 30.817 28.26-23.806 79.84-39.466 115.58-48.974 96.88-25.772 196.05-15.812 292.4 7.074 47.3 11.237 94.27 23.365 139.83 40.881 31.88 12.268 84.86 38.114 98.89 70.909 4.73 11.045 6.14 29.768 3.14 41.412-4.38 16.99-11.5 35.318-17.5 52.055-11.4 31.844-22.64 63.492-32.9 95.728-7.33 23.01-9.2 46.538-16.52 69.218-15.22 47.135-34.41 92.99-48.4 140.59-7.53 25.596-13.51 51.61-20.81 77.178-4.26 14.945-10.93 32.228-16.25 47.158-5.21 14.603-10.83 31.549-16.75 45.6 12.41 28.797 27.35 68.36 37.73 97.873-13.13 14.761-30.23 30.7-44.78 44.122 12.4 32.24 28.08 64.3 39.76 97.37-2.26 12.42-14.57 40.31-20.11 52.63 22.32 21.82 44.48 43.82 66.47 65.98 13.67 13.68 32.53 30.86 43.09 46.68 6.26 9.37 8.23 24.3 9.7 35.14 98.23 52.21 169.16 156.45 171.62 268.86 14.7 9.18 24.9 18.85 35.05 33.1a139.15 139.15 0 0 1 23.8 59.31c1.93 12.48 2.41 31.94-.04 44.38-4.62 27.65-3.4 56.78-3.09 85.32.51 47.17-6.93 78.79-60.04 87.72-87.37 14.68-174.96 32.85-264.32 31.24-61.93-1.11-126.33 1.56-188.46-.82-30.11-1.2-64.1-7.22-93.56-13.04-25.9-5.24-51.5-11.9-76.67-19.95-37.97-12.46-131.07-51.47-157.27-81.23-22.43 23.46-55.319 36.97-84.035 51.18-78.633 38.92-165.672 58.69-253.05 63.24-40.841 2.12-83.283-.35-124.245.6-39.488-.32-79.665 1.7-118.886-2.41-8.126-.85-16.297-1.84-24.405-2.75a1858 1858 0 0 1-106.131-14.44c-27.559-4.38-56.036-9.09-83.459-14.36-15.127-2.9-26.902-12.35-34.855-25.54a71.8 71.8 0 0 1-9.603-27.29c-1.461-10.1-.342-20.61-.756-30.65-1.159-28.1 2.496-56.82-3.033-84.49-1.657-8.29-2.119-18.72-2.044-27.24a138.7 138.7 0 0 1 4.208-33.93c8.498-33.84 25.847-60.49 55.963-78.34.92-22.7 4.257-45.24 9.955-67.23 16.565-63.79 55.976-123.14 107.029-164.69 18.219-14.84 34.682-24.9 54.775-36.71.688-37.43 22.134-50.99 46.271-75.29l71.587-71.92c-6.358-16.69-13.984-35.45-19.186-52.35 8.594-27.06 27.974-70.81 39.453-97.729-13.879-14.537-30.692-29.593-45.228-44.337 9.971-30.86 27.23-66.789 38.511-98.281-9.289-30.52-22.481-59.802-31.534-90.431-10.869-36.772-17.838-74.737-29.74-111.214-11.853-36.329-26.6-71.663-38.082-108.126-7.678-24.381-11.532-49.671-19.261-73.958-10.489-32.959-22.676-65.467-33.756-98.245-5.924-17.527-14.381-37.199-15.79-55.666-1.393-18.261 3.259-34.883 15.339-48.832 48.888-56.452 216.698-94.966 289.043-107.008a687 687 0 0 1 77.114-8.878"/><path fill="#161a22" d="M1024.37 226.091c9.18-17.983 22.61-25.817 40.47-33.952 59.79-27.238 124.69-40.2 190.23-41.927 55.46-1.461 110.87 7.966 164.88 19.661 45.4 9.523 90.11 22.07 133.84 37.558 38.85 13.968 123.27 47.594 106.73 101.627-14.94 48.798-34.64 97.599-49.93 146.514-6.61 21.146-8.85 42.831-14.86 64.079-12.68 41.333-30.02 81.297-42.97 122.588-11.89 32.013-17.02 67.797-27.59 99.904-10.55 32.082-22.55 65.833-34.1 97.562a7560 7560 0 0 1 36.45 94.328c-15.09 14.41-29.7 29.428-45.14 43.437 12.03 33.66 29.17 68.7 41.35 102.9-7.12 18.22-14.45 36.35-21.96 54.41 7 6.2 13.91 12.96 20.48 19.86 30.01 31.51 64.16 60.78 91.82 94.21 6.82 8.25 9.09 28.46 10.06 38.78 30.39 17.42 53.38 31.25 79 56.3a298.65 298.65 0 0 1 91.83 211.92c32.47 15.61 51.7 48.76 58.62 83.17 4.9 24.37-1.98 43.35-2.87 66.88-1.9 31.74 2.5 67.28-1.68 98.62-3.93 29.39-31.45 36.78-54.88 40.6-80.83 13.17-160.9 30.14-243.15 29.38-60.92-.57-121.79.24-182.7-.26-40.2-.26-81.8-7.63-120.98-16.05-73.21-17.57-144.56-43.65-206.33-87.73-5.01-3.58-13.17-17.06-16.72-22.7-10.52 19.39-16.53 24.94-35.557 36.18a646.2 646.2 0 0 1-197.148 76.68 707.6 707.6 0 0 1-99.71 13.11c-39.962 2.05-94.409.6-135.186.56l-57.667.05c-11.647.07-26.668.84-38.118-.28-76.814-7.46-153.157-19.14-228.937-33.62-18.765-3.58-32.363-25.09-33.258-43.21-1.484-30.02.135-60.72-.426-90.83-.491-17.19-4.929-31.35-4.469-49.44.209-10.84 1.851-21.6 4.884-32.02 9.414-31.86 25.743-53.46 54.656-69.36-.205-23.18 5.766-58.03 12.43-79.67 26.945-87.49 80.101-144.75 158.553-187.87 1.379-21.75 3.888-35.12 19.887-51.24 10.591-10.67 21.291-21.56 31.95-32.2a7732 7732 0 0 0 69.634-69.84c-6.029-15.67-16.474-40.33-20.85-55.62 2.523-8.88 10.424-26.69 14.205-35.84l27.122-65.51a2986 2986 0 0 1-45.451-44.308c9.907-28.497 26.022-65.367 37.522-93.804-10.178-31.322-23.53-61.695-32.976-93.212-11.972-39.945-19.887-80.979-32.719-120.719-10.847-33.597-25.062-66.073-35.511-99.807-6.828-22.042-9.97-45.048-16.928-66.947-12.176-38.323-26.274-76.041-38.776-114.275-4.594-14.047-11.682-30.26-12.932-44.881-1.256-14.693 2.994-28.079 12.751-39.094 48.546-54.81 227.045-93.803 298.989-104.515 21.753-3.238 43.734-4.448 65.664-5.811 46.284-3.431 115.093 5.796 159.481 19.738 25.201 7.914 65.811 21.498 86.421 38.491 5.82 4.795 9.1 10.94 12.57 17.445"/><defs><linearGradient id="a" x1="1039.508" x2="1555.937" y1="720.404" y2="641.579" gradientUnits="userSpaceOnUse"><stop offset="0" stop-color="#b8b9b9"/><stop offset="1" stop-color="#eaeaea"/></linearGradient></defs><path fill="url(#a)" d="M1083.94 298.498c79.44 36.338 227.75 73.46 315.44 78.795a526.7 526.7 0 0 0 106.05-4.604c33.42-5.57 57.25-12.589 88.48-26.395-10.88 30.875-23.85 66.811-32.3 98.145-7.92 29.379-7.44 53.727-22.14 83.568-1.34 4.97-8.98 22.273-11.32 27.961a503 503 0 0 0-15.64 43.292c-10.4 33.087-20.12 66.564-28.58 100.196-12.21 48.57-31.67 95.525-48.25 142.875 9.49 25.896 20.21 52.083 29.93 78.133-5.09 4.266-8.07 6.94-12.7 11.717a56.1 56.1 0 0 0-24.45-9.561c-14.29-1.915-55.44-.602-72.31-.622l-157.33-.001c-.13 19.568-.1 39.137.08 58.705.21 41.278-1.11 37.878-18.37 75.288l-29.69 64.7c-18.86-19.27-57.01-58.91-63.96-84.5-3.53-13-2.24-50.903-2.19-65.601l.04-91.06z"/><path fill="#dedede" d="M1505.43 372.689c33.42-5.57 57.25-12.589 88.48-26.395-10.88 30.875-23.85 66.811-32.3 98.145-7.92 29.379-7.44 53.727-22.14 83.568-1.06-.281-.38-.184-2.06.098l-2.86 7.195-1.3.362c-2.12-5.801-.48-12.97-1.7-18.526-4.65-21.258-2.71-41.886-3.53-63.338-.06-1.508-1.92-2.078-3.26-2.942-1.46-4.932.29-9.779-.67-16.251-6.24-6.881-2.98-11.559-4.91-21.159-1.53-7.646-2.25-18.721-5.09-26.074-.41-1.044-6.06-4.52-7.53-5.663-2-3.365-1.43-5.087-1.13-9.02"/><defs><linearGradient id="b" x1="397.173" x2="1057.799" y1="521.908" y2="754.31" gradientUnits="userSpaceOnUse"><stop offset="0" stop-color="#cacaca"/><stop offset="1" stop-color="#eeeeed"/></linearGradient></defs><path fill="url(#b)" d="M962.882 299.171c1.296 2.28.346 42.426.302 49.132l-.081 86.793.549 286.183-.14 224.846c-.54 109.035 8.573 91.425-66.387 174.525-13.708-33.27-33.421-70.47-45.388-104.76-1.633-4.67-.873-27.67-.869-34.055l.024-59.787-157.904-.067c-17.486-.025-35.364.047-52.836-.188-19.958-.268-27.492.226-45.032 9.774-4.341-4.367-8.492-8.173-13.04-12.307 10.983-25.636 20.43-51.804 31.749-77.458-13.343-36.968-28.276-75.398-40.522-112.634-6.091-22.734-11.721-45.707-17.543-68.509-14.334-56.15-34.473-109.171-55.023-163.108-6.241-16.38-7.588-37.842-12.623-55.041-9.517-32.505-21.365-64.802-32.29-96.813a288 288 0 0 0 22.678 9.895c61.162 23.951 146.797 26.767 211.79 18.786 33.699-4.139 81.425-16.325 115.286-24.463 50.596-12.159 109.62-29.844 157.3-50.744"/><path fill="#dedede" d="M534.376 1310c76.531-14.7 151.509-10.61 224.014 18.97 10.556 4.3 36.13 14.98 44.247 21.48 52.342 26.64 82.964 72.54 102.032 126.61 8.344 23.66 5.121 90.76 4.686 118.3-13.8 11.67-27.683 19.26-44.579 25.86a3513 3513 0 0 1-47.876 23.04c-4.975 2.35-22.245 10.8-26.572 11.7-14.717 3.07-38.959 1.93-54.399 1.92l-82.339-.18c-46.479 1.24-98.353-.12-145.498-.13l-61.765-.02c-10.161-.01-26.568.45-36.093-.59-11.653-1.28-27.73-4.8-39.728-7.04-20.551-3.65-41.06-7.54-61.524-11.66.075-31.14-.15-60.93-1.512-92.23-1.882-43.22 23.14-98.45 46.745-133.91 39.389-59.15 112.147-89.39 180.161-102.12"/><path fill="#c1c1c1" d="M308.982 1638.26c.075-31.14-.15-60.93-1.512-92.23-1.882-43.22 23.14-98.45 46.745-133.91 39.389-59.15 112.147-89.39 180.161-102.12-9.12 7.17-36.775 6.5-45.048 14.19-.237 4.29-.327 21.97-1.931 24.18l-2.083.66c-1.812 3.95-.871 19.47-.607 24.58 1.408 1.7 1.311 1.58 3.301 2.55 1.335 8.58 2.037 27.92 5.071 34.64 4.486 1.93 5.605 1.47 7.718 4.8-1.248 2.66-.623 1.67-3.193 3.6-1.715 5.99 6.092 12.87 5.914 16.55-.32 6.59-7.254 20.07-2.444 26.62.715-3.59.244-4.87 2.414-6.7 5.804 3.81-.92 12.9 1.27 17.05 4.79 9.06 12.845 13.92 14.101 24.93l-.651.39-1.704-1.87-1.636.04c-2.408 4.45-3.445 25.57-1.118 29.9 2.442 1.22 2.866 1.32 5.52 2.06 1.544 4.02.495 23.25 2.476 30.48 5.413 1.08 6.778.07 10.354 2.86 1.136 9.33-13.039 15.47 1.546 32.15 9.313 10.65-2.372 31.73 10.018 44.38 1.13 3.81 1.107 3.6.565 7.54l-1.674 2.19c-1.789-2.2-1.571-3.77-2.111-6.89-1.062 4.07.111 9.77.165 14.63 22.279-.02 45.023-.22 67.271.94 8.911.46 39.283-.76 45.71 1.25-46.479 1.24-98.353-.12-145.498-.13l-61.765-.02c-10.161-.01-26.568.45-36.093-.59-11.653-1.28-27.73-4.8-39.728-7.04-20.551-3.65-41.06-7.54-61.524-11.66"/><path fill="#c1c1c1" d="M802.637 1350.45c52.342 26.64 82.964 72.54 102.032 126.61 8.344 23.66 5.121 90.76 4.686 118.3-13.8 11.67-27.683 19.26-44.579 25.86 4.783-7.66 30.569-13.99 38.836-23.82.918-4.94-12.643-51.74-15.892-58.75.522-3.57 1.275-5.58-.452-8.67-13.277-8.4-12.518-12.51-8.156-24.93 1.049-2.98-5.093-14.57-5.724-19.43l-.225-1.49-.148-1.09c-.369 3.48-.096 6.19-1.896 8.72-7.228-8.76 1.901-10.66.293-18.12-1.807-1.43-3.232-1.8-5.406-2.52-1.945-3.49-1.484-1.67-1.435-5.67 2.105-2.5 2.313-2.4 3.23-5.45-1.348-6.19-.361-1.9-3.621-4.06-.531-.35-3.131-10.41-3.471-11.74-2.428-9.55-3.617-19.49-6.681-28.86-2.84-8.68-6.334-17.13-9.912-25.51-.488-1.15-1.423-9.2-1.458-9.24-12.287-10.72-26.943-18.86-39.277-28.88z"/><path fill="#c1c1c1" d="M491.226 1366.8c4.202 1.52 5.627 1.67 5.167 6.5l-.138 1.34-.175 1.99c-6.346-.8-4.495-3.51-4.854-9.83"/><path fill="#c1c1c1" d="M526 1540.59c1.699 4.16.996 10 1 14.82-1.699-4.16-.996-10-1-14.82"/><path fill="#c1c1c1" d="M514.135 1477.42c.29.05 1.043.09 1.29.4.113.14.138.23.099.4-.106.47-.965.88-1.229 1.06-.352-.04-1.948-.03-2.326-.6a.35.35 0 0 1-.014-.36c.318-.61 1.798-.8 2.18-.9"/><path fill="#c1c1c1" d="M498.238 1404.56c.29-.1 1.09-.52 1.551-.43-.012.45-.618 1.1-.781 1.33-.234.33-.469.65-.703.97l-.071-.94z"/><defs><linearGradient id="c" x1="1132.654" x2="1722.526" y1="1550.75" y2="1441.95" gradientUnits="userSpaceOnUse"><stop offset="0" stop-color="#b7b7b7"/><stop offset="1" stop-color="#eeeeed"/></linearGradient></defs><path fill="url(#c)" d="M1436.25 1301.5c84.27.71 169.64 20.98 232.2 81.88 36.46 35.49 67.22 98.23 71.86 149.38 1.24 13.67-.25 30.61-.64 44.66-.47 20.69-.66 41.39-.56 62.08-31.5 4.49-70.12 14.83-101.5 17.6-19.74 1.75-55.81.64-76.54.53l-116.57-.04c-60.31-1.11-124.68 1.24-184.45-.76-5.68-.19-112.12-53.95-120.84-58.87l1.17-56.91c1.04-43.27 2.37-65.33 23.24-105.48 48.94-94.13 172.47-132.38 272.63-134.07"/><defs><linearGradient id="d" x1="1069.255" x2="1551.324" y1="1193.971" y2="1206.324" gradientUnits="userSpaceOnUse"><stop offset="0" stop-color="#b9b9b9"/><stop offset="1" stop-color="#dfdfdf"/></linearGradient></defs><path fill="url(#d)" d="M1253.07 977.896c55.48-1.244 114.23.092 169.98-.068a2643 2643 0 0 1 42.5 100.802c-7.26 20.82-18.68 47.21-27.29 67.63 8.2 8.96 19.78 19.76 28.72 28.62l55.68 55.24c6.84 6.79 26.27 25.29 31.39 32.05-121.38-29.59-235.55-14.58-343.65 47.76-53.78 32.31-71.63 60.64-98.85 114.16-15.22-23.91-32.59-55.97-47.3-80.99.55-26.22 2.63-54.11 2.56-80.16-.14-47.91 7.46-87.04 23.1-132.43 24.89 26.7 52.67 57.74 76.95 85.06 19.27-44.85 42.83-90.49 62.6-135.3 5.92-13.43 20.19-40.21 22.99-52.88 1.41-6.36.65-41.467.62-49.494"/><defs><linearGradient id="e" x1="499.015" x2="962.934" y1="1263.402" y2="1156.373" gradientUnits="userSpaceOnUse"><stop offset="0" stop-color="#bbb"/><stop offset="1" stop-color="#ededed"/></linearGradient></defs><path fill="url(#e)" d="m625.797 977.716 169.546-.083c.153 7.824-.208 46.357 1.432 51.177 5.578 16.41 18.678 42.62 26.435 59.42l58.36 127.25c24.329-27.79 52.397-53.16 76.008-81.77 2.177 5.69 3.922 11.58 5.589 17.45 5.891 20.73 11.349 42.43 14.348 63.79 2.158 15.38 5.411 118.49 2.105 128.95-3.089 9.78-9.758 19.51-14.751 28.5l-27.123 48.71c-4.909-8.26-11.712-22.92-16.661-32.2-36.306-60.5-77.464-81.75-138.862-108.37-94.238-40.86-189.823-42.1-288.396-17.39a4634 4634 0 0 1 77.267-78.54c9.096-9.1 31.16-29.94 38.589-39.22-9.15-22.22-19.032-44.75-27.341-67.23 14.126-33.6 29.493-66.82 43.455-100.444"/><defs><linearGradient id="f" x1="1087.074" x2="1772.596" y1="1777.219" y2="1622.98" gradientUnits="userSpaceOnUse"><stop offset="0" stop-color="#b8b9b8"/><stop offset="1" stop-color="#e9e9e9"/></linearGradient></defs><path fill="url(#f)" d="M1076.13 1607.45c10.15 9.38 37.66 39.93 47.48 45.07 38.55 20.17 78.21 40.23 117.56 58.8 2.56 1.21 31.05.86 35.98.87l72.35-.02 302.86-.35c21.26-6.02 43.66-9.55 65.41-13.54 20.38-3.74 36.24-4.95 55.44-13.58 20.5-17.36 14.18-35.34 17.1-58.76 8.18 12.55 15.18 30.87 10.75 45.16-9.57 30.87-3.12 63.87-5.09 95.8-.34 5.69.57 17.34-.84 22.41-34.44 7.45-69.09 13.88-103.92 19.27-9.99 1.57-31.23 5.36-40.51 5.67-13.16 7.29-134.52 5.65-158 5.61l-96.25-.07c-18.97 0-42.17 1.02-60.71-.9-91.84-9.49-183.78-35.75-259.65-89.85-.49-40.02.02-81.48.04-121.59"/><path fill="#c1c1c1" d="M1773.21 1684.7c20.5-17.36 14.18-35.34 17.1-58.76 8.18 12.55 15.18 30.87 10.75 45.16-9.57 30.87-3.12 63.87-5.09 95.8-.34 5.69.57 17.34-.84 22.41-2.14-10.17 1.3-25.74-.37-34.09-4.97-24.89-8.14-43.1-7.28-68.87-7.9-3.3-6.17-3.52-14.27-1.65"/><defs><linearGradient id="g" x1="560.404" x2="659.558" y1="1533.93" y2="1848.107" gradientUnits="userSpaceOnUse"><stop offset="0" stop-color="#ababab"/><stop offset="1" stop-color="#e2e2e2"/></linearGradient></defs><path fill="url(#g)" d="M971.003 1606.89c1.802 1.89 1.831 112.47 1.924 124.21q-11.375 6.84-22.836 13.53c-99.161 57.3-204.545 79.56-317.567 75.1-9.587-.37-20.002-.04-29.645-.05l-91.465.01c-18.14.01-38.339.44-56.286-.53-43.422-2.34-87.035-9.1-129.922-16.26-22.833-3.82-50.338-7.46-72.351-13.34.305-18.52.116-37.51.139-56.06.044-8.83-.112-17.82.051-26.66.604-32.78-15.595-50.33 5.777-81.45 1.851 26.94-5.684 58.03 29.24 65.24 21.473 4.43 43.086 8.32 64.63 12.46 13.225 2.54 26.277 6.9 39.632 8.69 22.255.41 46.242.19 68.617.21h141.661l137.342-.1c10.751-.01 64.124 1.08 69.412-1.63 39.944-20.45 81.379-38.7 120.936-59.67 5.352-2.84 35.35-37.34 40.711-43.7"/><defs><linearGradient id="h" x1="1087.822" x2="1597.12" y1="269.764" y2="255.209" gradientUnits="userSpaceOnUse"><stop offset="0" stop-color="#c5c6c5"/><stop offset="1" stop-color="#fcfcfc"/></linearGradient></defs><path fill="url(#h)" d="M1240.46 201.603c95.35-6.12 282.41 34.738 363.34 85.59-43.99 28.16-108.78 36.238-160.05 37.172-111-1.49-260.14-35.589-360.66-83.38 40.98-24.233 110.48-35.692 157.37-39.382"/><path fill="#dedede" d="M766.476 201.445c62.339-2.521 143.331 9.075 198.545 39.736-13.669 7.814-44.992 19.73-59.954 24.75-79.258 26.592-178.334 54.071-261.317 58.138-70.877 2.495-133.482-1.954-196.923-37.7 72.507-43.137 235.725-81.574 319.649-84.924"/></svg>