<svg xmlns="http://www.w3.org/2000/svg" width="2048" height="2048" viewBox="0 0 2048 2048"><path fill="#262931" d="M0 0h2048v2048H0z"/><path fill="#060809" d="M994.555 157.746c1.036 5.947-53.171 176.12-59.978 198.644 82.323-7.595 133.523-5.752 215.023 7.42-15.51-36.28-29.72-77.573-44.73-114.938a6597 6597 0 0 1 109.43 121.473c35.15 11.501 100.97 32.269 130.82 50.899a15735 15735 0 0 1 166.73-58.599c23.32-8.154 48.07-17.928 71.45-25.17-10.25 12.292-33.42 34.894-45.65 47.596-29.18 30.286-58.69 61.734-88.27 91.448 7.5 16.641 14.61 33.454 21.33 50.426 4.64 3.036 17.86 15.034 22.49 19.323 54.35 50.41 93.92 108.617 132.32 171.15 16.71-32.724 42.59-67.26 61.88-99.166-12.54 44.454-23.91 89.323-36.58 133.484 11.34 25.342 24.43 58.747 37.05 82.529 34.4 23.426 73.41 55.561 107.63 81.036l59.36 43.924c11.83 8.686 26.72 18.927 37.55 28.354-20.1-4.544-41.48-10.876-61.62-16.019a12537 12537 0 0 1-137.15-35.203c8.65 74.703 6.74 125.813-5.54 199.333 35.98-11.28 71.34-23.37 107.66-34.6a5245 5245 0 0 1-56.58 44.27c-8.27 6.3-52.44 38.86-54.73 44-20.35 45.53-36.39 106.33-57.68 151.14 12.63 23.97 25.27 53.47 37.07 78.23 23.79 50 48.14 99.72 73.06 149.17-13.43-11.03-28.17-24.8-41.54-36.42a5813 5813 0 0 0-74.18-63.48c-12.64-10.79-30.07-26.46-43.06-36.18-16.82 14.14-36.7 26.48-53.69 40.64-3.32 2.77-10.1 7.14-12.65 9.87-54.64 58.73-116.18 100.39-186.28 138.56 33.5 19.65 67.36 38.29 100.58 58.42-28.43-4.91-57.33-12.72-85.72-18.24-12.68-2.47-27.33-5.78-39.55-9.73l-79.86 27.76c-27.23 30.41-56.4 68.23-82.22 100.52-27.94 34.95-58.92 72.92-85.1 108.87-.78 1.07-.21.41-2.02 1.65-.26-3.43 1.13-6.51 2.21-9.99l60.41-191.06c-59.51 11.33-156.622 2.45-216.209-6.76 14.154 37.27 30.08 76.21 43.678 113.17-14.503-17.26-30.655-32.8-45.493-49.68-20.556-23.37-42.613-46.29-62.434-70.24-44.734-14.2-88.409-29.5-130.011-51.43-30.969 10.02-65.199 23.32-96.142 34.55l-143.601 51.2c44.655-47.5 89.598-94.74 134.828-141.7-5.142-12.62-13.404-34.01-19.45-45.43-8.447-10.56-22.549-21.9-32.284-30.97-51.322-47.83-87.607-104.52-124.519-163.53-5.456 9.97-53.229 85.69-60.379 92.92 12.326-42.49 23.114-85.73 35.61-128.06-11.924-26.64-23.866-56.26-36.613-82.24-46.618-33.65-93.684-69.43-140.061-103.73l-40.295-29.72c-6.578-4.8-18.986-13.27-24.125-18.45 64.195 17.68 133.013 33.96 197.784 50.21-1.8-14.62-5.298-40.11-5.336-54.28-.112-41.54 2.087-103.193 11.297-143.703-36.829 11.291-72.358 23.734-109.491 34.637 24.935-20.279 51.551-39.865 76.753-59.818 10.468-8.288 35.959-26.466 43.937-35.725 8.148-45.885 30.993-100.71 48.125-144.808-20.746-48.874-45.816-98.501-68.984-146.364-13.106-27.077-26.335-55.585-40.022-82.171 47.347 43.311 106.812 94.826 157.137 135.14 20.986-16.295 46.903-32.731 66.793-49.153 14.366-11.86 30.578-30.488 46.372-44.004 45.829-39.222 89.044-65.041 142.061-92.868-31.979-20.179-69.879-40.642-103.076-60.47 23.143 5.103 46.301 10.732 69.412 16.082 18.44 4.269 39.493 7.836 57.522 12.765 18.046-5.505 64.1-19.841 79.883-27.188 14.321-19.118 34.839-42.774 50.283-62.172z"/><path fill="#262931" d="M1031.24 460.604c21.1-1.283 55.94-4.338 70.63 13.117 2.93 65.702-36.06 135.305-64.62 193.175l117.31-109.184c11.03-10.451 51.46-50.327 60.77-56.049a575.5 575.5 0 0 1 191.96 121.984c-28.8 49.304-74.38 78.204-122.22 105.653l115.73-10.612c21.93-1.97 43.93-4.295 65.94-5.149 17.73-.687 27.34 19.541 35.67 32.249 29.12 44.467 43.25 95.405 56.75 146.26-35.38 23.334-75.89 24.143-116.68 24.892 7.41 3.282 14.88 6.806 22.04 10.593 36.92 19.536 75.83 36.177 112.57 55.92 6.34 26.077 8.03 109.657-5 128.057-32.24 45.52-169.65-46.33-196.44-63.16l110.79 133.55c13.83 17.01 30.92 36.76 43.64 54.15-29.11 71.3-54.5 120.13-109.29 174.52-54.46-36.95-73.04-66.75-100.21-123.61.04 44 3.11 88.46 3.28 132.37.07 19.18 6.02 54.43-6.81 68.18-37.32 39.99-112.17 66.31-165.02 74.39-21.23-41.43-31.96-65.11-37.46-112.27-5.81 14.16-11.65 31.79-16.88 46.39l-30.24 84.16c-13.73 4.32-32.37 6.13-46.7 7-16.31 1.77-49.025 1.95-64.358-5.29-2.546-1.17-8.892-5.53-9.055-8.61-3.581-67.63 36.73-142 66.263-198.28-5.66 4.89-10.96 10.34-16.539 15.33-55.911 50.03-109.175 103.76-165.168 153.58-24.203-10.71-47.506-23.69-70.871-36.1-43.872-23.32-86.817-52.76-120.522-89.7 35.76-47.04 68.849-71.77 119.794-99.36-16.885.1-36.181 2.58-53.256 4.01l-82.136 6.17c-15.114 1.06-42.542 3.59-56.54.85-37.483-37.85-66.001-125.47-77.573-176.01 34.335-21.96 71.021-25.14 110.377-26.05-41.084-22.99-90.299-43.15-130.739-66.32-5.502-26.98-8.146-107.869 5.519-128.545 29.791-45.075 170.802 48.235 196.395 63.913-11.751-16.299-30.17-36.247-43.413-52.454-35.758-43.761-77.028-89.275-110.967-134.28 26.742-63.826 57.734-126.779 108.346-175.805 9.101 7.456 19.437 14.042 28.862 22.175 37.992 32.786 51.523 58.892 71.487 102.706-1.589-40.544-1.689-81.469-2.278-122.096-.284-19.645-1.998-41.358-.66-60.811.584-8.485 5.121-15.925 10.597-22.219 4.778-5.492 12.827-11.672 18.981-15.379 27.807-16.75 112.553-52.817 141.05-54.205 21.712 37.423 35.572 70.137 39.472 113.935 13.118-41.903 31.362-90.027 46.339-131.716 18.473-2.798 32.553-4.157 51.083-6.015"/><path fill="#cecfd5" d="M477.408 1166.07c1.274-3.54 2.53-6.27 3.822-10.09.735 3.17 1.34 5.82 1.96 9.01l.914 4.5.944 4.5.635 2.58q5.424 21.705 11.633 43.2c.168.54.337 1.09.506 1.64l.534 1.5c11.327 32.07 20.235 52.69 38.609 81.87 28.306 44.94 35.164 38.27 83.974 36.13 5.759-.92 12.214-1.4 18.073-1.65 25.251-1.08 50.732-4.37 75.924-5.43-27.271 20.84-44.464 31.82-67.095 59-3.588 4.67-6.934 9.49-10.489 14.07-1.045 3.31-7.617 14.74-9.944 17.72 3.445 8.96 6.446 18.21 9.95 27.3 10.974 21.11 20.706 44.43 32.442 66.98 5.939 10.21 37.896 66.49 37.875 73.1 3.692 6.11 6.74 10.92 10.863 16.73-12.131-31.3-26.525-64.02-39.22-95.49-8.217-10.76-17.506-38.8-24.735-51.91-3.842-6.97-7.594-19.14-11.685-27.49a826 826 0 0 1 24.584 24.37c6.709 6.31 13.855 11.29 20.695 17.28 4.605 2.95 10.549 8.01 15.223 11.45 10.779 7.94 22.316 12.73 33.57 19.28 2.897.55 15.252 6.49 20.286 8.04 2.801.53 14.871 24.66 16.569 28.58 1.762 3.84 4.841 9.16 6.892 13.08 5.084 7.06 9.992 17.38 14.434 25.09a577 577 0 0 1 15.651 29.23c1.773 2.66 3.604 6.7 5.338 9.7 8.134 14.06 15.137 26.42 20.954 41.64-15.198-3.77-29.784-9.39-43.343-12.86-31.98-12.35-56.812-18.87-89.829-33.83-16.239 5.5-35.298 11.75-51.684 16.36-4.442 2.33-39.503 13.06-46.373 15.27l-53.263 16.87c-7.295 2.37-25.014 10.06-31.708 9.62l-.554-1.29c1.865-3.79 21.477-24.43 25.256-28.27 24.327-24.68 46.941-51.25 70.907-76.15l-1.005-1.99c-9.881-19.66-19.721-41.72-27.448-62.24-7.603-16.66-13.256-33.81-19.362-51-.452-1.28-9.506-11.42-10.836-13.04l-12.622-15.25c-.57-.68-1.14-1.37-1.709-2.05-6.915-8.25-52.704-64.19-57.176-66.58 19.834 34.43 41.907 67.39 63.894 100.48 5.491 8.26 8.542 13.97 12.134 23.16l2.155 5.84c2.707 5.15 8.034 19.57 10.467 25.61-45.31-37.67-87.204-90.67-119.679-139.41-10.201-15.31-21.091-30.71-29.821-46.89 1.606-2.03 5.027-7.82 5.965-10.14 1.294-2 2.392-3.96 3.867-5.81 1.502-3.09 5.757-21.4 7.018-25.81 10.894-38.05 23.302-75.59 34.631-113.51z"/><path fill="#7a4c2e" d="M431.46 1313.8c20.949 40.22 54.011 83.9 83.516 118.09 14.177 16.44 31.051 32.77 44.918 49.02l2.479-2.12 2.155 5.84c2.707 5.15 8.034 19.57 10.467 25.61-45.31-37.67-87.204-90.67-119.679-139.41-10.201-15.31-21.091-30.71-29.821-46.89 1.606-2.03 5.027-7.82 5.965-10.14"/><path fill="#b1b1b7" d="m562.373 1478.79 2.155 5.84c-2.736-1-2.702-1.39-4.634-3.72z"/><path fill="#382c29" d="M616.503 1567.3c2.669 2.04 2.582 2.36 3.823 5.59-26.347 28.57-53.465 59.01-80.197 86.91 23.186-7 46.31-14.21 69.369-21.62 4.987-1.58 28.478-9.33 32.935-9.99 7.728.85 47.932-11.64 57.476-14.94-6.407 3.27-36.714 14.4-42.346 14.3-4.906 4.26-3.075-1.81-5.325 3.7-4.442 2.33-39.503 13.06-46.373 15.27l-53.263 16.87c-7.295 2.37-25.014 10.06-31.708 9.62l-.554-1.29c1.865-3.79 21.477-24.43 25.256-28.27 24.327-24.68 46.941-51.25 70.907-76.15"/><path fill="#593b2a" d="M620.939 1340.91c5.759-.92 12.214-1.4 18.073-1.65 25.251-1.08 50.732-4.37 75.924-5.43-27.271 20.84-44.464 31.82-67.095 59 .027-3.42.106-1.05-1.18-3.62.622-3.04 2.85-2.4 2.911-7.14 3.183-6.77 23.166-24.29 29.274-29.8l4.56-3.71 7.485-6.31c-22.193 1.18-44.233 2.98-66.49 3.95-3.32-.39-6.088-1.62-9.802-1.63-7.779-.03-29.052 3.68-35.953-.14.577-.2 38.744-1.65 44.106-2.03l.458-1.07 2.084.36z"/><path fill="#f1f1f1" d="M660.203 1463.19c-.507-1.06-2.5-4.36-1.472-5.59 1.119-.18 8.41 7.01 9.782 8.23-1.001-3.67-1.631-3.8-1.031-7.62 6.709 6.31 13.855 11.29 20.695 17.28 4.605 2.95 10.549 8.01 15.223 11.45 10.779 7.94 22.316 12.73 33.57 19.28 2.897.55 15.252 6.49 20.286 8.04.148 2.26.417 4.38.845 6.6l-3.023-.11c-1.358-.79-1.332-.83-2.843-1.23-3.03 1.67-3.405 1.81-6.753.24-10.754-5.03-21.757-9.79-31.797-16.29-4.045-2.6-8.045-5.26-11.999-7.99l-3.004-2.03-5.998-4c-11.568-7.84-21.229-18.47-31.592-25.65z"/><path fill="#7a4c2e" d="M667.482 1458.21c6.709 6.31 13.855 11.29 20.695 17.28 4.605 2.95 10.549 8.01 15.223 11.45 10.779 7.94 22.316 12.73 33.57 19.28-2.195 4.03-2.911-.13-1.971 5.16-14.977-6.97-36.554-21.04-49.81-31.45-3.991-3.13-13.175-10.57-16.676-14.1-1.001-3.67-1.631-3.8-1.031-7.62"/><path fill="#593b2a" d="M736.97 1506.22c2.897.55 15.252 6.49 20.286 8.04.148 2.26.417 4.38.845 6.6l-3.023-.11c-1.358-.79-1.332-.83-2.843-1.23-5.723-2.43-11.797-5.16-17.236-8.14-.94-5.29-.224-1.13 1.971-5.16"/><path fill="#7a4c2e" d="m492.899 1222.35 4.923-.94.534 1.5c11.327 32.07 20.235 52.69 38.609 81.87 28.306 44.94 35.164 38.27 83.974 36.13l4.355.78-2.084-.36-.458 1.07c-5.362.38-43.529 1.83-44.106 2.03 6.901 3.82 28.174.11 35.953.14 3.714.01 6.482 1.24 9.802 1.63-20.876 2.92-38.328 4.22-58.241-2.63-5.119-3.37-8.497-5.89-13.294-9.69-2.559-3-4.831-5.97-7.327-8.92l-.844-1.05c-1.071-1.69-2.051-3.24-3.212-4.89-2.168-3.84-2.903-4.76-5.836-8.07-4.11-6.5-9.927-15.64-14.241-21.87l-.716-1.25a402 402 0 0 1-24.895-56.6z"/><path fill="#7a4c2e" d="M642.433 1628.19c20.056-7.25 41.656-12.43 61.309-19.45 8.653 3.26 17.131 6.83 25.677 10.37 23.674 9.78 48.367 18.03 72.746 25.88-4.669 4.25-.453 3.12-8.414 3.73-31.98-12.35-56.812-18.87-89.829-33.83-16.239 5.5-35.298 11.75-51.684 16.36 2.25-5.51.419.56 5.325-3.7 5.632.1 35.939-11.03 42.346-14.3-9.544 3.3-49.748 15.79-57.476 14.94"/><path fill="#f1f1f1" d="M619.465 1427.81a136 136 0 0 1 12.564-28.16c5.211-8.77 36.764-50.62 46.817-47.38-6.108 5.51-26.091 23.03-29.274 29.8-.061 4.74-2.289 4.1-2.911 7.14 1.286 2.57 1.207.2 1.18 3.62-3.588 4.67-6.934 9.49-10.489 14.07-1.045 3.31-7.617 14.74-9.944 17.72 3.445 8.96 6.446 18.21 9.95 27.3-1.489.64-.792.34-1.508.08l.012-.03c-1.22 0-1.286 2.06-1.66 3.23l9.272 21.62-1.128-.18c-5.115-3.41-19.434-40.49-22.881-48.83"/><path fill="#593b2a" d="M623.214 1426.09c3.425-11.15 9.836-23.61 16.82-32.93-.894 7.42-.524 6.38-2.682 13.74-1.045 3.31-7.617 14.74-9.944 17.72-1.697.53-2.579.81-4.194 1.47"/><path fill="#312723" d="M627.408 1424.62c3.445 8.96 6.446 18.21 9.95 27.3-1.489.64-.792.34-1.508.08l.012-.03c-1.22 0-1.286 2.06-1.66 3.23-2.174-5.76-11.93-25.06-10.988-29.11 1.615-.66 2.497-.94 4.194-1.47"/><path fill="#7a4c2e" d="M640.034 1393.16c2.961-4.11 5.787-7.69 9.538-11.09-.061 4.74-2.289 4.1-2.911 7.14 1.286 2.57 1.207.2 1.18 3.62-3.588 4.67-6.934 9.49-10.489 14.07 2.158-7.36 1.788-6.32 2.682-13.74"/><path fill="#f1f1f1" d="M477.408 1166.07c1.274-3.54 2.53-6.27 3.822-10.09.735 3.17 1.34 5.82 1.96 9.01l.914 4.5.944 4.5.635 2.58q5.424 21.705 11.633 43.2c.168.54.337 1.09.506 1.64l-4.923.94 2.896 8.88a402 402 0 0 0 24.895 56.6l-2.282-.54c-16.647-19.31-38.607-92.65-41.432-118.62z"/><path fill="#7a4c2e" d="M477.408 1166.07c1.274-3.54 2.53-6.27 3.822-10.09.735 3.17 1.34 5.82 1.96 9.01l.914 4.5.944 4.5.635 2.58q5.424 21.705 11.633 43.2c.168.54.337 1.09.506 1.64l-4.923.94c-2.894-8.62-12.987-52.58-15.491-56.28"/><path fill="#382c29" d="M637.358 1451.92c10.974 21.11 20.706 44.43 32.442 66.98 5.939 10.21 37.896 66.49 37.875 73.1-10.521-14.67-31.656-53.3-40.584-69.82-8.067-14.36-15.896-30.63-23.617-45.36l-9.272-21.62c.374-1.17.44-3.23 1.66-3.23l-.012.03c.716.26.019.56 1.508-.08"/><path fill="#7a4c2e" d="M543.521 1421.73a66 66 0 0 1 4.921-2.47c3.301 3.96 24.028 26.85 24.685 28.75 5.818 16.75 13.52 36.31 19.719 52.98-2.293 1.49-2.063 1.35-4.796 2.08-7.603-16.66-13.256-33.81-19.362-51-.452-1.28-9.506-11.42-10.836-13.04l-12.622-15.25c-.57-.68-1.14-1.37-1.709-2.05"/><path fill="#593b2a" d="M478.423 1340.65c19.698 20.03 52.429 56.44 70.019 78.61a66 66 0 0 0-4.921 2.47c-6.915-8.25-52.704-64.19-57.176-66.58-2.872-3.14-6.289-10.67-7.922-14.5"/><path fill="#7a4c2e" d="M588.05 1503.07c2.733-.73 2.503-.59 4.796-2.08 9.784 22.19 19.378 44.27 30.066 66.06 1.48 3.01-.352 3.58-2.586 5.84-1.241-3.23-1.154-3.55-3.823-5.59l-1.005-1.99c-9.881-19.66-19.721-41.72-27.448-62.24"/><path fill="#593b2a" d="m805.107 1609.25 5.695.99c1.773 2.66 3.604 6.7 5.338 9.7 8.134 14.06 15.137 26.42 20.954 41.64-15.198-3.77-29.784-9.39-43.343-12.86 7.961-.61 3.745.52 8.414-3.73 9.964 3.76 18.689 5.85 28.391 9.3-1.61-2.99-9.18-17.21-10.96-19.19-1.815-3.85-3.069-5.96-5.394-9.54-.309-.74-.16-.49-.427-.84-2.815-5.56-5.583-10.07-8.668-15.47"/><path fill="#593b2a" d="M642.898 1433.84a826 826 0 0 1 24.584 24.37c-.6 3.82.03 3.95 1.031 7.62-1.372-1.22-8.663-8.41-9.782-8.23-1.028 1.23.965 4.53 1.472 5.59 5.215 15.16 14.871 35.99 19.115 50.05-8.217-10.76-17.506-38.8-24.735-51.91-3.842-6.97-7.594-19.14-11.685-27.49"/><path fill="#f1f1f1" d="M624.401 1346.2c22.257-.97 44.297-2.77 66.49-3.95l-7.485 6.31c-1.35-1.39-2.304-2.23-4.405-2.39-17.992-1.38-104.782 12.61-112.841-2.6 19.913 6.85 37.365 5.55 58.241 2.63"/><path fill="#262931" d="M780.717 1555.92c5.084 7.06 9.992 17.38 14.434 25.09a577 577 0 0 1 15.651 29.23l-5.695-.99c-2.176-4.22-4.611-8.18-6.918-12.29-2.404-5.61-18.182-33.8-21.848-40.22 2.335.08 2.186.16 4.376-.82"/><path fill="#382c29" d="M757.256 1514.26c2.801.53 14.871 24.66 16.569 28.58a71 71 0 0 1-3.559 2.32l-1.044-.74c-3.395-7.36-8.757-15.99-11.121-23.56a52 52 0 0 1-.845-6.6"/><path fill="#f1f1f1" d="m755.078 1520.75 3.023.11c2.364 7.57 7.726 16.2 11.121 23.56-.112.4-.408 1.7-.713 2.14l-.225-.03c-1.218-1.09-13.357-25.07-13.206-25.78"/><path fill="#f1f1f1" d="M798.189 1596.96c2.307 4.11 4.742 8.07 6.918 12.29 3.085 5.4 5.853 9.91 8.668 15.47-4.904-2.6-9.331-12.1-11.893-17.26-2.553-5.13-4.552-3.89-3.693-10.5"/><path fill="#382c29" d="M773.825 1542.84c1.762 3.84 4.841 9.16 6.892 13.08-2.19.98-2.041.9-4.376.82-1.777-2.99-4.782-8.43-6.075-11.58 1.31-.81 2.298-1.44 3.559-2.32"/><path fill="#f1f1f1" d="M535.647 1310.95c-6.011-.64-2.323-1.2-4.389-3.77-2.808-3.49-12.529-13.6-9.852-18.1 4.314 6.23 10.131 15.37 14.241 21.87"/><path fill="#f1f1f1" d="M552.866 1333.88c-5.424-.41-7.244-3.67-7.327-8.92 2.496 2.95 4.768 5.92 7.327 8.92"/><path fill="#f1f1f1" d="M819.596 1635.1c-3.14-1.75-7.321-5.75-5.394-9.54 2.325 3.58 3.579 5.69 5.394 9.54"/><path fill="#f1f1f1" d="M544.695 1323.91c-3.85-.39-5.147-.94-3.212-4.89 1.161 1.65 2.141 3.2 3.212 4.89"/><defs><linearGradient id="a" x1="1672.54" x2="1211.238" y1="716.2" y2="408.642" gradientUnits="userSpaceOnUse"><stop offset="0" stop-color="#a4a5ae"/><stop offset="1" stop-color="#d6d7dd"/></linearGradient></defs><path fill="url(#a)" d="M1393.25 415.634c5.6-2.664 18.15-6.092 24.51-8.028q22.035-6.623 43.95-13.573c11.02-3.501 22.08-7.025 33.09-10.548 9.14-2.927 21.62-8.195 30.68-9.96 1.51.958.83.323 1.44 2.733-4.67 5.971-10 11.738-15.21 17.263-26.36 27.927-52.2 56.713-78.94 84.261a624 624 0 0 1 9.85 23.041c14.74 26.339 26.29 66.031 37.78 94.134 4.89 2.868 48.6 56.763 55.95 65.197 3.82 4.847 18.64 23.837 23.37 25.517-17.79-37.177-60.29-84.593-74.15-121.334a901 901 0 0 1-8.23-19.32l2.97-3.839c44.84 42.156 80.55 84.914 114.27 136.488 7.93 12.139 21.84 31.545 28.27 44.361-3.2 3.244-3.62 4.334-5.93 8.392-1.08 1.698-3.87 5.71-4.31 7.365-12.28 45.89-26.6 90.474-38.63 135.582l-1.35 4.737c-1.59 2.668-3.04 5.388-4.5 8.128-1.61-8.013-3.27-16-4.85-24.023-5.78-29.476-18.63-57.093-30.27-84.397-3.9-8.857-8.29-15.692-12.69-23.892-2.75-3.018-7.35-10.71-9.71-14.301-15.37-23.405-23.93-36.506-53.63-36.494-5.12 1.551-33.83 2.377-41.42 2.899a3186 3186 0 0 0-84.35 7.403c24.41-17.235 53.08-39.845 71-63.904 5.94-7.977 11.65-20.655 17.84-29.368l.51-.692c-.62-2.84-1.05-4.099-2.04-6.803-4.08-5.721-19.89-46.035-25.33-56.274-8.43-15.885-17.3-33.847-26.15-49.963-6.36-11.571-23.71-39.549-25.59-50.484-.69-1.858-4.64-8.319-5.86-10.4l-1.92 1.725c11.29 26.336 21.37 53.344 32.83 79.543 3.94 5.293 7.02 14.545 9.91 20.812 9.66 21.011 19.76 42.228 28.47 63.621-8.68-9.466-16.33-16.83-25.74-25.534.77-1.645 1.58-3.27 2.44-4.872l-1.01-1c-1.92-1.882-1.96-1.726-3.35-3.838l-.92.067c-1.42 2.304-1.39 2.163-3.52 3.758-4.91-3.819-10.6-8.102-15.27-12.153a146 146 0 0 1-8.36-6.342c-1.48-.778-13.09-8.082-13.75-8.735-5.23-5.132-45.58-22.539-47.15-25.569-10.52-15.8-20.91-37.884-30.42-55.047-4.9-9.51-12.93-22.442-18.58-32.122l-21.91-37.474c-.25-.423-10.86-21.853-2.62-16.864 12.01 2.896 23.75 6.852 35.42 10.892 31.63 10.951 64.63 20.794 95.43 33.892 13.5-4.338 34.41-11.618 47.68-14.664"/><path fill="#f1f1f1" d="M1341.45 455.938c7.23 9.082 15.32 27.651 20.93 34.377 12.03 5.603 56.78 108.81 66.49 127.451-18.63 37.715-30.75 57.109-65.55 83.114 20.9-2.057 42.37-3.967 62.86-5.316 22.36-1.471 50.91-6.434 68.54 11.116 40.96 40.77 67.12 112.229 79.26 166.686l-1.35 4.737c-1.59 2.668-3.04 5.388-4.5 8.128-1.61-8.013-3.27-16-4.85-24.023-5.78-29.476-18.63-57.093-30.27-84.397-3.9-8.857-8.29-15.692-12.69-23.892-2.75-3.018-7.35-10.71-9.71-14.301-15.37-23.405-23.93-36.506-53.63-36.494-5.12 1.551-33.83 2.377-41.42 2.899a3186 3186 0 0 0-84.35 7.403c24.41-17.235 53.08-39.845 71-63.904 5.94-7.977 11.65-20.655 17.84-29.368l.51-.692c-.62-2.84-1.05-4.099-2.04-6.803-4.08-5.721-19.89-46.035-25.33-56.274-8.43-15.885-17.3-33.847-26.15-49.963-6.36-11.571-23.71-39.549-25.59-50.484"/><path fill="#593b2a" d="M1425.63 617.38c-10.59 34.822-44.23 64.663-70.95 87.15 29.03-2.46 59.2-5.365 88.26-6.819l1.96.311c5.56.751 5.2 2.273 11.04 1.867 5.45-.379 11.4-1.705 16.46.581 1.73.781 8.88 2.092 9.23 4.084-.76.69-5.21-1.184-6.62-1.568-3.07-.838-5.74-.87-8.7-1.71-.5-.156-9.89 1.081-9.56.862-.16.399-.02.422.23.986-5.12 1.551-33.83 2.377-41.42 2.899a3186 3186 0 0 0-84.35 7.403c24.41-17.235 53.08-39.845 71-63.904 5.94-7.977 11.65-20.655 17.84-29.368l.51-.692z"/><path fill="#382c29" d="M1341.45 455.938c7.23 9.082 15.32 27.651 20.93 34.377 17.7 31.891 45.63 82.893 58.33 116.527-1.81 2.676-2.05 2.655-2.19 5.817-4.08-5.721-19.89-46.035-25.33-56.274-8.43-15.885-17.3-33.847-26.15-49.963-6.36-11.571-23.71-39.549-25.59-50.484"/><path fill="#7a4c2e" d="M1442.94 697.711c18.99-2.197 32.73-2.038 48.77 10.612 10.96 8.639 25.23 29.897 32.09 42.415-1.78 2.551-1.88.673-3.48 3.181-2.75-3.018-7.35-10.71-9.71-14.301-15.37-23.405-23.93-36.506-53.63-36.494-.25-.564-.39-.587-.23-.986-.33.219 9.06-1.018 9.56-.862 2.96.84 5.63.872 8.7 1.71 1.41.384 5.86 2.258 6.62 1.568-.35-1.992-7.5-3.303-9.23-4.084-5.06-2.286-11.01-.96-16.46-.581-5.84.406-5.48-1.116-11.04-1.867z"/><path fill="#7a4c2e" d="m1533.01 777.811 5.18-.626c7.77 17.869 26.99 61.986 28.72 80.471-2.53 1.89-2.38 1.676-3.63 4.552-5.78-29.476-18.63-57.093-30.27-84.397"/><path fill="#7a4c2e" d="M1523.8 750.738c3.06 3.16 12.19 21.79 14.39 26.447l-5.18.626c-3.9-8.857-8.29-15.692-12.69-23.892 1.6-2.508 1.7-.63 3.48-3.181"/><path fill="#7a4c2e" d="M1566.91 857.656c1.78 5.753 3.35 15.704 5.72 20.447-1.59 2.668-3.04 5.388-4.5 8.128-1.61-8.013-3.27-16-4.85-24.023 1.25-2.876 1.1-2.662 3.63-4.552"/><path fill="#312723" d="M1420.71 606.842c1.75 3.57 3.09 7.114 4.92 10.538l-5.07 2.082c-.62-2.84-1.05-4.099-2.04-6.803.14-3.162.38-3.141 2.19-5.817"/><path fill="#382c29" d="M1393.25 415.634c5.6-2.664 18.15-6.092 24.51-8.028q22.035-6.623 43.95-13.573c11.02-3.501 22.08-7.025 33.09-10.548 9.14-2.927 21.62-8.195 30.68-9.96 1.51.958.83.323 1.44 2.733-4.67 5.971-10 11.738-15.21 17.263-26.36 27.927-52.2 56.713-78.94 84.261a624 624 0 0 1 9.85 23.041c14.74 26.339 26.29 66.031 37.78 94.134-2.59 1.337-2.43-.965-3.71-3.42l-.19-.004-.09.159.11.01.19.682-.46.689c.09 2.007-.01 2.59-.48 4.617l-.12.532c-7.23-20.151-13.85-39.076-22.14-58.897-7.37-17.609-15.78-34.546-23.15-51.999-1.92-3.504-3.8-7.033-5.63-10.586a5173 5173 0 0 0 83.04-90.029l-73.31 22.875c-10.01 3.104-28.42 9.237-37.98 11.136-6.3-2.09-11.01 3.103-19.7 2.391.66-1.11 14.54-5.499 17.05-6.39z"/><path fill="#593b2a" d="M1430.36 487.326c5.83 2.808 34.12 68.751 35.21 77.389l1.22.588c1.58-5.352-21.62-53.063-24.95-63.468l.78-1.012c14.74 26.339 26.29 66.031 37.78 94.134-2.59 1.337-2.43-.965-3.71-3.42l-.19-.004-.09.159.11.01.19.682-.46.689c.09 2.007-.01 2.59-.48 4.617l-.12.532c-7.23-20.151-13.85-39.076-22.14-58.897-7.37-17.609-15.78-34.546-23.15-51.999"/><path fill="#7a4c2e" d="M1480.31 541.178c44.84 42.156 80.55 84.914 114.27 136.488 7.93 12.139 21.84 31.545 28.27 44.361-3.2 3.244-3.62 4.334-5.93 8.392-25-50.532-74.16-106.75-112.48-148.107-3.25-3.506-15.14-16.369-18.87-17.975a901 901 0 0 1-8.23-19.32z"/><path fill="#f1f1f1" d="M1257.83 471.974c-4.9-9.51-12.93-22.442-18.58-32.122l-21.91-37.474c-.25-.423-10.86-21.853-2.62-16.864-2.25 1.581 1.04 4.626 2.74 6.552 1.16 2.24 1.5 3.039 3.06 5.002l2.43.942c18.28 29.783 35.57 61.397 53.47 91.342 7.37 12.326 9.28 19.502 17.2 30.162.62.809 1.23 1.618 1.84 2.428 22.55 7.134 40.2 19.662 59.77 32.561 3.9 2.571 22.7 17.71 21.99 21.492l-.92.067c-1.42 2.304-1.39 2.163-3.52 3.758-4.91-3.819-10.6-8.102-15.27-12.153a146 146 0 0 1-8.36-6.342c-1.48-.778-13.09-8.082-13.75-8.735-5.23-5.132-45.58-22.539-47.15-25.569-10.52-15.8-20.91-37.884-30.42-55.047"/><path fill="#7a4c2e" d="M1285.39 512.992c2.12 3.149 3.34 5.616 5.26 8.758 23.67 11.398 42.62 21.037 64.03 36.946-3.52 1.464-3.46-.517-5.53 2.629-1.48-.778-13.09-8.082-13.75-8.735-5.23-5.132-45.58-22.539-47.15-25.569-.96-4.555-2.13-9.458-2.86-14.029"/><path fill="#382c29" d="M1257.83 471.974c-4.9-9.51-12.93-22.442-18.58-32.122l-21.91-37.474c-.25-.423-10.86-21.853-2.62-16.864-2.25 1.581 1.04 4.626 2.74 6.552 1.16 2.24 1.5 3.039 3.06 5.002 4.19 9.207 14.82 26.453 20.17 35.547 7.27 12.364 14.8 26.572 22.18 38.546-2.24.239-2.88.286-5.04.813"/><path fill="#262931" d="M1257.83 471.974c2.16-.527 2.8-.574 5.04-.813 4.65 7.706 20.28 34.637 22.52 41.831.73 4.571 1.9 9.474 2.86 14.029-10.52-15.8-20.91-37.884-30.42-55.047"/><path fill="#7a4c2e" d="M1363.84 565.529c3.58 2.638 9.44 7.287 12.46 10.533-1.42 2.304-1.39 2.163-3.52 3.758-4.91-3.819-10.6-8.102-15.27-12.153 3.61-.369 3.58.211 6.33-2.138"/><path fill="#7a4c2e" d="M1354.68 558.696c2.89 1.747 6.63 4.631 9.16 6.833-2.75 2.349-2.72 1.769-6.33 2.138a146 146 0 0 1-8.36-6.342c2.07-3.146 2.01-1.165 5.53-2.629"/><path fill="#593b2a" d="M1217.46 392.066c-1.7-1.926-4.99-4.971-2.74-6.552 12.01 2.896 23.75 6.852 35.42 10.892 31.63 10.951 64.63 20.794 95.43 33.892 13.5-4.338 34.41-11.618 47.68-14.664l.58 1.089c-2.51.891-16.39 5.28-17.05 6.39 8.69.712 13.4-4.481 19.7-2.391-11.03 4.595-39.34 12.281-51.58 15.968-23.36-10.693-54.46-20.504-78.87-28.904-13.07-4.499-35.72-12.621-48.57-15.72"/><path fill="#7a4c2e" d="m1475.65 598.222.12-.532c.47-2.027.57-2.61.48-4.617l.46-.689-.19-.682-.11-.01.09-.159.19.004c1.28 2.455 1.12 4.757 3.71 3.42 4.89 2.868 48.6 56.763 55.95 65.197l-1.45-.286c-1.59-.443-2.48-.593-4.06-.001a51 51 0 0 1-1.58.549c-16.64-20.506-36.28-41.564-53.61-62.194"/><path fill="#593b2a" d="M1366.5 526.806c3.94 5.293 7.02 14.545 9.91 20.812 9.66 21.011 19.76 42.228 28.47 63.621-8.68-9.466-16.33-16.83-25.74-25.534.77-1.645 1.58-3.27 2.44-4.872 2.88 1.968 8.37 7.552 11.31 10.227-4.44-9.283-24.13-55.477-26.39-64.254"/><path fill="#593b2a" d="M1529.26 660.416a51 51 0 0 0 1.58-.549c1.58-.592 2.47-.442 4.06.001l1.45.286c3.82 4.847 18.64 23.837 23.37 25.517 1.58 1.146 9.09 15 10.66 17.81-13.82-13.013-28.38-28.818-41.12-43.065"/><path fill="#262931" d="M1333.67 447.263c-1.38-3.141-2.96-9.908.99-3.22l.93 1.495z"/><defs><linearGradient id="b" x1="396.549" x2="804.578" y1="493.251" y2="635.077" gradientUnits="userSpaceOnUse"><stop offset="0" stop-color="#676a72"/><stop offset="1" stop-color="#8d8e97"/></linearGradient></defs><path fill="url(#b)" d="M543.543 562.063c39.603-46.708 129.423-105.894 183.818-133.034 5.068 2.041 9.612 4.216 14.529 6.552l3.833-.94 3.519-.894c38.913 10.04 83.579 20.94 121.448 33.982l1.781.448a209 209 0 0 1 13.293 3.546c-8.353 2.83-17.029 5.588-25.529 7.966a740 740 0 0 0-84.106 33.415c-8.873 4.21-22.882 13.438-30.114 16.481-9.392 7.513-13.214 8.267-22.148 17.715-4.069 7.138-4.614 9.672-7.628 16.436-3.542 12.228-2.868 13.925-4.44 25.611l1.537 74.148c.418 15.037 1.433 32.046 1.235 46.916-17.393-25.677-29.608-44.364-54.579-63.98-11.096-8.717-26.034-18.158-36.053-26.402-30.989 15.788-73.316 30.813-107.046 46.293-2.891 1.604-5.832 3.124-8.849 4.477l-.243.111c-4.983 2.751-46.554 21.794-48.261 20.248-1.481.766-2.113 2.756-2.39 4.262l6.575-2.047c10.137-6.514 47.582-19.855 59.897-24.015 27.888-9.42 58.721-21.528 86.898-29.218-5.069 4.999-10.612 10.014-15.842 14.888-3.015-1.393-6.07-.866-9.134.37-1.136 2.959-2.524 3.938-4.086 6.592 3.445 8.019-1.6 4.507-.636 9.12-1.307 2.306-2.968 4.91-4.601 6.972-9.209 11.635-16.573 25.504-25.193 37.367-5.648 8.481-10.374 17.847-15.747 26.43-1.896 4.335-3.952 8.806-5.768 13.155l-2.891 2.071-1.489 1.057c-4.365 3.04-18.159 11.388-22.977 13.738-3.781 2.415-24.499 16.409-27.19 17.668-6.078 6.611-80.716 49.794-92.254 55.977 9.616-38.931 34.048-100.538 48.084-139.388a3627 3627 0 0 0-48.618-108.69c-7.655-16.509-15.294-33.02-23.147-49.432-1.603-3.351-3.298-7.014-.419-9.77 14.409 10.847 28.062 23.265 41.904 34.941a5025 5025 0 0 0 66.896 55.705c13.37-11.541 28.849-20.353 42.374-31.142 23.392-18.66 52.509-22.827 79.095-34.915 8.548-3.887 33.494-9.582 38.704-14.591 18.652-17.932 36.885-41.978 56.832-58.791l.804-.666.624-3.513a1585 1585 0 0 0-54.038 37.281c-6.795 4.87-19.562 14.866-26.269 18.636-5.79 3.254-21.395 6.781-28.395 9.359-10.951 3.948-22.397 7.465-33.6 11.494"/><path fill="#85868e" d="M463.725 693.373c10.137-6.514 47.582-19.855 59.897-24.015 27.888-9.42 58.721-21.528 86.898-29.218-5.069 4.999-10.612 10.014-15.842 14.888-3.015-1.393-6.07-.866-9.134.37-1.136 2.959-2.524 3.938-4.086 6.592 3.445 8.019-1.6 4.507-.636 9.12-1.307 2.306-2.968 4.91-4.601 6.972-9.209 11.635-16.573 25.504-25.193 37.367-5.648 8.481-10.374 17.847-15.747 26.43-1.896 4.335-3.952 8.806-5.768 13.155l-2.891 2.071-1.489 1.057c-4.365 3.04-18.159 11.388-22.977 13.738-.064-.646.064-.819-.3-1.121-1.318-.216-1.968 1.231-3.17 1.208-1.41-2.51 3.875-.975 3.392-5.361-10.066 5.102-32.858 21.068-43.041 27.929-21.965 11.99-43.082 27.067-64.69 39.127-1.297-1.029-.99-.394-1.195-1.748 10.477-29.009 19.485-60.203 30.38-89.279 2.93-7.819 8.934-27.504 12.451-33.62 3.474-4.605 2.16-5.561 1.215-11.04-.003-.001 4.826 2.455 4.468 2.487 4.02-.355 12.006-3.275 15.484-5.062z"/><path fill="#f1f1f1" d="M585.544 655.398c-1.136 2.959-2.524 3.938-4.086 6.592 3.445 8.019-1.6 4.507-.636 9.12-1.307 2.306-2.968 4.91-4.601 6.972-9.209 11.635-16.573 25.504-25.193 37.367-5.648 8.481-10.374 17.847-15.747 26.43-1.896 4.335-3.952 8.806-5.768 13.155l-2.891 2.071-1.489 1.057c-4.365 3.04-18.159 11.388-22.977 13.738-.064-.646.064-.819-.3-1.121-1.318-.216-1.968 1.231-3.17 1.208-1.41-2.51 3.875-.975 3.392-5.361-10.066 5.102-32.858 21.068-43.041 27.929-21.965 11.99-43.082 27.067-64.69 39.127-1.297-1.029-.99-.394-1.195-1.748 15.297-7.072 124.16-76.665 132.345-86.551 8.14-9.832 11.827-23.975 18.207-35.077 10.854-18.889 24.009-36.018 37.348-53.182z"/><path fill="#593b2a" d="M549.009 707.759c9.581-14.072 20.94-33.213 32.449-45.769 3.445 8.019-1.6 4.507-.636 9.12-1.307 2.306-2.968 4.91-4.601 6.972-9.209 11.635-16.573 25.504-25.193 37.367-.565-3.128-1.606-4.328-2.019-7.69"/><path fill="#262931" d="M531.202 743.266q2.045-.676 4.079-1.387c-1.896 4.335-3.952 8.806-5.768 13.155l-2.891 2.071-1.489 1.057c-4.365 3.04-18.159 11.388-22.977 13.738-.064-.646.064-.819-.3-1.121-1.318-.216-1.968 1.231-3.17 1.208-1.41-2.51 3.875-.975 3.392-5.361 9.302-7.478 24.575-13.414 29.124-23.36"/><path fill="#7a4c2e" d="M531.202 743.266c3.745-9.895 12.338-26.409 17.807-35.507.413 3.362 1.454 4.562 2.019 7.69-5.648 8.481-10.374 17.847-15.747 26.43q-2.034.71-4.079 1.387"/><path fill="#382c29" d="M463.725 693.373c10.137-6.514 47.582-19.855 59.897-24.015 27.888-9.42 58.721-21.528 86.898-29.218-5.069 4.999-10.612 10.014-15.842 14.888-3.015-1.393-6.07-.866-9.134.37l-4.492 1.726c-33.665 10.714-67.681 20.547-101.229 31.7-4.99 1.659-10.989 3.46-16.098 4.549"/><path fill="#382c29" d="M700.114 475.499c-1.625 2.641-6.896 9.78-9.305 11.772a3859 3859 0 0 1-57.964 67.035c-2.107.786-6.367 2.24-8.137 3.236-13.18 3.852-28.908 9.7-41.856 14.525-17.578 6.55-37.66 13.228-54.799 20.48-3.004 1.361-16.066 11.827-19.851 14.679a2900 2900 0 0 1-40.011 29.495 3441 3441 0 0 1-98.927-81.981 5441 5441 0 0 1 39.415 86.626c2.471 5.46 13.852 31.906 15.92 34.984 5.682 3.25 6.567 18.832 13.991 20.679l-1.392.966c.945 5.479 2.259 6.435-1.215 11.04-3.517 6.116-9.521 25.801-12.451 33.62-10.895 29.076-19.903 60.27-30.38 89.279.205 1.354-.102.719 1.195 1.748 21.608-12.06 42.725-27.137 64.69-39.127 10.183-6.861 32.975-22.827 43.041-27.929.483 4.386-4.802 2.851-3.392 5.361 1.202.023 1.852-1.424 3.17-1.208.364.302.236.475.3 1.121-3.781 2.415-24.499 16.409-27.19 17.668-6.078 6.611-80.716 49.794-92.254 55.977 9.616-38.931 34.048-100.538 48.084-139.388a3627 3627 0 0 0-48.618-108.69c-7.655-16.509-15.294-33.02-23.147-49.432-1.603-3.351-3.298-7.014-.419-9.77 14.409 10.847 28.062 23.265 41.904 34.941a5025 5025 0 0 0 66.896 55.705c13.37-11.541 28.849-20.353 42.374-31.142 23.392-18.66 52.509-22.827 79.095-34.915 8.548-3.887 33.494-9.582 38.704-14.591 18.652-17.932 36.885-41.978 56.832-58.791l.804-.666.624-3.513c4.545-3.632 9.391-6.621 14.269-9.794"/><path fill="#b1b1b7" d="M424.599 676.35c5.682 3.25 6.567 18.832 13.991 20.679l-1.392.966c.945 5.479 2.259 6.435-1.215 11.04 1.409-8.438-7.754-23.762-11.384-32.685"/><path fill="#f1f1f1" d="M872.471 468.177a209 209 0 0 1 13.293 3.546c-8.353 2.83-17.029 5.588-25.529 7.966a740 740 0 0 0-84.106 33.415c-8.873 4.21-22.882 13.438-30.114 16.481-9.392 7.513-13.214 8.267-22.148 17.715-4.069 7.138-4.614 9.672-7.628 16.436-3.542 12.228-2.868 13.925-4.44 25.611l1.537 74.148c.418 15.037 1.433 32.046 1.235 46.916-17.393-25.677-29.608-44.364-54.579-63.98-11.096-8.717-26.034-18.158-36.053-26.402-30.989 15.788-73.316 30.813-107.046 46.293 1.802-2.445 4.13-3.538 4.818-6.001l.513-1.673c23.63-11.744 49.573-22.279 73.818-32.684 5.496-2.359 23.651-10.321 28.693-11.148 3.805 2.366 8.687 5.611 12.625 7.487 18.191 3.594 55.703 41.358 67.784 56.526-.55-32.35-6.979-113.914 11.629-135.969 21.685-25.702 121.409-69.095 153.917-75.131z"/><path fill="#262931" d="M707.818 654.477c.884-8.717-.262-58.419 1.864-61.966 1.005 1.118-.292 6.737.563 8l.134-.041c-.286.531.59-8.509 1.42-11.123l1.537 74.148c.418 15.037 1.433 32.046 1.235 46.916-17.393-25.677-29.608-44.364-54.579-63.98-11.096-8.717-26.034-18.158-36.053-26.402-30.989 15.788-73.316 30.813-107.046 46.293 1.802-2.445 4.13-3.538 4.818-6.001l.513-1.673c23.63-11.744 49.573-22.279 73.818-32.684 5.496-2.359 23.651-10.321 28.693-11.148 3.805 2.366 8.687 5.611 12.625 7.487 30.938 20.076 50.408 35.809 70.791 67.303-.144-8.587-.946-27.343-.333-35.129"/><path fill="#7a4c2e" d="M860.204 474.144c5.766 1.651 1.975 2.109.031 5.545a740 740 0 0 0-84.106 33.415c-8.873 4.21-22.882 13.438-30.114 16.481-3.454-1.077-3.486-.982-7.337-1.396a642 642 0 0 1 121.526-54.045"/><path fill="#7a4c2e" d="M709.329 569.179c2.678-2.255 3.972-3.55 6.91-5.443-3.542 12.228-2.868 13.925-4.44 25.611-.83 2.614-1.706 11.654-1.42 11.123l-.134.041c-.855-1.263.442-6.882-.563-8-2.126 3.547-.98 53.249-1.864 61.966-1.563-16.021-1.672-71.047 1.511-85.298"/><path fill="#7a4c2e" d="M738.678 528.189c3.851.414 3.883.319 7.337 1.396-9.392 7.513-13.214 8.267-22.148 17.715-3.651.221-3.796.378-7.352 1.402 7.202-10.858 10.951-13.854 22.163-20.513"/><path fill="#7a4c2e" d="M872.471 468.177a209 209 0 0 1 13.293 3.546c-8.353 2.83-17.029 5.588-25.529 7.966 1.944-3.436 5.735-3.894-.031-5.545 2.614-.835 10.052-2.774 11.532-4.961z"/><path fill="#593b2a" d="M716.515 548.702c3.556-1.024 3.701-1.181 7.352-1.402-4.069 7.138-4.614 9.672-7.628 16.436-2.938 1.893-4.232 3.188-6.91 5.443 1.793-9.147 3.686-12.284 7.186-20.477"/><path fill="#7a4c2e" d="M543.543 562.063c39.603-46.708 129.423-105.894 183.818-133.034 5.068 2.041 9.612 4.216 14.529 6.552-45.391 13.813-127.612 79.678-164.187 113.269l-.56 1.719c-10.951 3.948-22.397 7.465-33.6 11.494"/><path fill="#cecfd5" d="M446.704 691.67c15.363-5.917 36.508-17.222 51.985-24.593a1514 1514 0 0 1 93.55-41.494c5.52-2.213 28.217-12.595 32.496-10.767-5.042.827-23.197 8.789-28.693 11.148-24.245 10.405-50.188 20.94-73.818 32.684l-.513 1.673c-.688 2.463-3.016 3.556-4.818 6.001-2.891 1.604-5.832 3.124-8.849 4.477l-.243.111c-4.983 2.751-46.554 21.794-48.261 20.248-1.481.766-2.113 2.756-2.39 4.262-3.478 1.787-11.464 4.707-15.484 5.062.358-.032-4.471-2.488-4.468-2.487l1.392-.966c1.86-.508 2.06-.569 3.857-1.416l1.863-1.089c1.067-1.824.84-1.764 2.394-2.854"/><path fill="#262931" d="M499.615 669.353c3.238 1.595 4.556 1.233 8.186 1.557-4.983 2.751-46.554 21.794-48.261 20.248-1.481.766-2.113 2.756-2.39 4.262-3.478 1.787-11.464 4.707-15.484 5.062.358-.032-4.471-2.488-4.468-2.487l1.392-.966c1.86-.508 2.06-.569 3.857-1.416l1.863-1.089c19.305-7.911 36.576-15.926 55.305-25.171"/><path fill="#382c29" d="m522.224 658.648-.513 1.673c-.688 2.463-3.016 3.556-4.818 6.001-2.891 1.604-5.832 3.124-8.849 4.477l-.243.111c-3.63-.324-4.948.038-8.186-1.557 6.129-3.105 16.314-8.027 22.609-10.705"/><path fill="#b1b1b7" d="M624.708 557.542c-1.681 3.028-33.115 13.888-38.703 15.492-15.124 4.342-43.248 18.699-57.952 19.513 17.139-7.252 37.221-13.93 54.799-20.48 12.948-4.825 28.676-10.673 41.856-14.525"/><path fill="#85868e" d="M442.447 695.613c.277-2.814 1.094-3.965 4.257-3.943-1.554 1.09-1.327 1.03-2.394 2.854z"/><defs><linearGradient id="c" x1="1639.814" x2="1258.349" y1="1566.505" y2="1406.507" gradientUnits="userSpaceOnUse"><stop offset="0" stop-color="#696b73"/><stop offset="1" stop-color="#93959d"/></linearGradient></defs><path fill="url(#c)" d="M1572.07 1258.45c14.4-10.53 34.73-22.35 50.03-32.13 12.02-7.68 31.89-20.84 44.3-27.09-6.94 25.15-19.65 57.15-28.88 81.56-6.6 17.45-13.93 41.18-20.96 57.57 9.21 14.04 27.58 61.48 34.33 77.15 5.85 13.58 39.91 84.82 37.99 92.03-2.03.12-98.01-83.28-107.23-91.15-17.08 13.85-41.12 31.12-59.8 43.2-6.31 4.08-28.47 10.8-37.1 13.9-21.77 7.98-43.59 15.82-65.46 23.53-16.69 19.38-33.53 37.47-51.88 55.36-3.91 3.81-7.61 5.81-11.1 9.02l2.16 2.01c22.19-16.01 48.13-30.77 69.57-47.74 17.65-13.96 24.99-16.12 46.14-22.26 10.24-3.82 18.6-6.56 29-9.73-42.77 45.72-99.8 86.86-153.58 118.33-5.52 3.23-24.78 15.3-29.85 16.8-2.44-2.22-6.85-4.43-9.9-5.63l-.09-1.12-1.95-.86c-4.87 1.35-5.75 1.92-10.56 1.13-10.87-2.13-23.54-6.13-34.47-8.83-28.04-6.93-55.54-15.52-83.3-23.27l-4.7-1.6c-4.02-.67-8.29-2.11-12.17-3.36l.05-1.36c22.45-3.87 61.73-19.15 83.22-27.84 7.5-4.18 17.06-8.16 24.83-12.44 3.99-2.21 11.6-6.59 15.52-8.33 22.74-13.34 41.97-24.09 48.73-51.7.85-10.45.24-22.56.11-33.16-.33-28.68-1.74-57.38-2.09-86.07-.07-5.93-.37-11.81.35-17.71 1.72.48 2.69 1.39 3.59 3.02 21.96 39.72 50.15 63 89.81 85.7 44.09-18.12 87.99-38.89 131.64-58 5.83-2.56 11.19-5.87 17.63-8.67l.74.63c-2.03 1.67-16.91 8.48-23.55 12.93l.18.39c8.14-3.69 39.95-20.43 45.55-20.06 3.28-1.36 6.63-3.01 9.86-4.51-.92-.3-1.84-.6-2.75-.91-30.96 7.74-77.44 22.45-106.96 31.5-4.43 4.93-23.03 10.98-30.11 13.31-.46-2.13-.5-2.61-.7-4.83-1.54.35-3.07.73-4.6 1.13-1.07-4.75-1.33-1.99-3.69-5.61 4.83-6.11 9.78-12.49 14.76-18.46 1.31-2.43 6.96-10.3 8.66-12.31 1.48-3.01 5.74-8.7 7.86-11.7.59-1.89 1.23-2.58 2.19-4.26 6.61-11.56 13-25.02 18-37.35 2.62-1.8 11.71-6.98 11.55-10.77l-.62-.43c-.28.02-.56.04-.84.05l-.04-.08 1.02-.08-.9.06.29-.5c.33-.06.16.01.46-.32 5.58-2.51 6.76-2.87 10.3-7.35l.64-.03c.75 1.69.92 2.31 1.98 3.75 11.57-6.61 22.32-15.68 33.84-22.6 1.34-1.15 1.29-1.11 2.95-1.85"/><path fill="#85868e" d="M1582.9 1257.36c3.41-1.58 15.63-9.9 19.48-12.28 17.05-10.54 34.18-22.57 51.38-32.71l1.27.55-.7 3.11c-3.58 9.99-18.44 54.74-22.07 61.36-3.97 3.97-21.22 53.77-22.94 62.64-.14.71 1.28 5.2 1.69 6.44-1.68 1.55-.85 1.16-2.23 1.62-.92-.3-1.84-.6-2.75-.91-30.96 7.74-77.44 22.45-106.96 31.5-4.43 4.93-23.03 10.98-30.11 13.31-.46-2.13-.5-2.61-.7-4.83-1.54.35-3.07.73-4.6 1.13-1.07-4.75-1.33-1.99-3.69-5.61 4.83-6.11 9.78-12.49 14.76-18.46 1.31-2.43 6.96-10.3 8.66-12.31 1.48-3.01 5.74-8.7 7.86-11.7.59-1.89 1.23-2.58 2.19-4.26 6.61-11.56 13-25.02 18-37.35 2.62-1.8 11.71-6.98 11.55-10.77l-.62-.43c-.28.02-.56.04-.84.05l-.04-.08 1.02-.08-.9.06.29-.5c.33-.06.16.01.46-.32 5.58-2.51 6.76-2.87 10.3-7.35l.64-.03c.75 1.69.92 2.31 1.98 3.75 11.57-6.61 22.32-15.68 33.84-22.6 1.34-1.15 1.29-1.11 2.95-1.85 5 .12 6.43-.97 10.83-1.09"/><path fill="#f1f1f1" d="M1582.9 1257.36c3.41-1.58 15.63-9.9 19.48-12.28 17.05-10.54 34.18-22.57 51.38-32.71l1.27.55-.7 3.11c-6.93.97-121.66 77.59-135.58 87.61-12.01 25.78-23.64 49.27-41.89 71.29-2.11 2.55-7.53 9.35-8.6 12.23-1.54.35-3.07.73-4.6 1.13-1.07-4.75-1.33-1.99-3.69-5.61 4.83-6.11 9.78-12.49 14.76-18.46 1.31-2.43 6.96-10.3 8.66-12.31 1.48-3.01 5.74-8.7 7.86-11.7.59-1.89 1.23-2.58 2.19-4.26 6.61-11.56 13-25.02 18-37.35 2.62-1.8 11.71-6.98 11.55-10.77l-.62-.43c-.28.02-.56.04-.84.05l-.04-.08 1.02-.08-.9.06.29-.5c.33-.06.16.01.46-.32 5.58-2.51 6.76-2.87 10.3-7.35l.64-.03c.75 1.69.92 2.31 1.98 3.75 11.57-6.61 22.32-15.68 33.84-22.6 1.34-1.15 1.29-1.11 2.95-1.85 5 .12 6.43-.97 10.83-1.09"/><path fill="#312723" d="m1532.66 1279.18.64-.03c.75 1.69.92 2.31 1.98 3.75-1.99 1.54-4.13 2.82-6.08 4.4-.87.51-2.85 1.34-3.34 2.33.08 1.26 4.05 2.04 4.79 2.24-5.1 3.13-10.15 6.32-15.15 9.59-7.36 17.78-12.44 27.19-21.65 43.91-.86-2.96-.75-2.77-2.6-5.16.59-1.89 1.23-2.58 2.19-4.26 6.61-11.56 13-25.02 18-37.35 2.62-1.8 11.71-6.98 11.55-10.77l-.62-.43c-.28.02-.56.04-.84.05l-.04-.08 1.02-.08-.9.06.29-.5c.33-.06.16.01.46-.32 5.58-2.51 6.76-2.87 10.3-7.35"/><path fill="#382c29" d="M1572.07 1258.45c5 .12 6.43-.97 10.83-1.09-3.42 2.58-6.27 4.3-9.75 6.68-9.22 5.75-24.66 16.92-33.07 21.51l-1.98-.03c-4.77-.3-4.56.58-8.9 1.78 1.95-1.58 4.09-2.86 6.08-4.4 11.57-6.61 22.32-15.68 33.84-22.6 1.34-1.15 1.29-1.11 2.95-1.85"/><path fill="#7a4c2e" d="M1474.73 1364.22c-.43 6.01-2.11 3.1-.09 9.03-2.79 5.09-8.02 9.35-10.98 15.04-1.07-4.75-1.33-1.99-3.69-5.61 4.83-6.11 9.78-12.49 14.76-18.46"/><path fill="#593b2a" d="M1491.25 1340.21c1.85 2.39 1.74 2.2 2.6 5.16-3.53 6.26-6.92 11.18-11 17.03-2.29-4.85-1.14-4.59.28-9.53l.26-.96c1.48-3.01 5.74-8.7 7.86-11.7"/><path fill="#593b2a" d="M1474.73 1364.22c1.31-2.43 6.96-10.3 8.66-12.31l-.26.96c-1.42 4.94-2.57 4.68-.28 9.53-2.89 3.82-5.09 7.13-8.21 10.85-2.02-5.93-.34-3.02.09-9.03"/><path fill="#382c29" d="M1529.2 1287.3c4.34-1.2 4.13-2.08 8.9-1.78l1.98.03c-3.18 2.27-6.16 4.21-9.43 6.32-.74-.2-4.71-.98-4.79-2.24.49-.99 2.47-1.82 3.34-2.33"/><path fill="#382c29" d="M1468.26 1387.16c10.14-2.53 20.84-6.44 30.81-8.48-4.43 4.93-23.03 10.98-30.11 13.31-.46-2.13-.5-2.61-.7-4.83"/><path fill="#262931" d="M1572.07 1258.45c14.4-10.53 34.73-22.35 50.03-32.13 12.02-7.68 31.89-20.84 44.3-27.09-6.94 25.15-19.65 57.15-28.88 81.56-6.6 17.45-13.93 41.18-20.96 57.57 9.21 14.04 27.58 61.48 34.33 77.15 5.85 13.58 39.91 84.82 37.99 92.03-2.03.12-98.01-83.28-107.23-91.15-17.08 13.85-41.12 31.12-59.8 43.2-6.31 4.08-28.47 10.8-37.1 13.9-21.77 7.98-43.59 15.82-65.46 23.53-16.69 19.38-33.53 37.47-51.88 55.36-3.91 3.81-7.61 5.81-11.1 9.02l-1.45-.54c12.86-15.22 51.32-64.96 66.45-71.46 30.7-9.95 61.18-20.54 91.43-31.77 3.08-1.14 3.64-1.39 6.46-2.86 1.28-.24 57.06-42.03 62.47-46.27 12.7 9.02 28.32 23.1 40.27 33.52 18.91 16.4 37.65 32.99 56.21 49.78-8.23-21.06-20.23-44.53-29.08-65.87-3.39-8.19-15.7-37.07-19.51-43.38-6.45-14.48-12.19-29.24-18.97-43.58 7.43-19.37 14.73-41.85 21.67-61.58 3.63-6.62 18.49-51.37 22.07-61.36l.7-3.11-1.27-.55c-17.2 10.14-34.33 22.17-51.38 32.71-3.85 2.38-16.07 10.7-19.48 12.28-4.4.12-5.83 1.21-10.83 1.09"/><path fill="#7a4c2e" d="M1474.18 1493.41c10.24-3.82 18.6-6.56 29-9.73-42.77 45.72-99.8 86.86-153.58 118.33-5.52 3.23-24.78 15.3-29.85 16.8-2.44-2.22-6.85-4.43-9.9-5.63l-.09-1.12c41.07-14.74 132.09-87.58 164.42-118.65"/><path fill="#262931" d="M1334.96 1473.6c.85-10.45.24-22.56.11-33.16-.33-28.68-1.74-57.38-2.09-86.07-.07-5.93-.37-11.81.35-17.71 1.72.48 2.69 1.39 3.59 3.02 21.96 39.72 50.15 63 89.81 85.7 44.09-18.12 87.99-38.89 131.64-58 5.83-2.56 11.19-5.87 17.63-8.67l.74.63c-2.03 1.67-16.91 8.48-23.55 12.93l.18.39c8.14-3.69 39.95-20.43 45.55-20.06-13.24 9.46-161.62 77.07-173.61 78.6-5.92-3.79-9.83-5.99-16.1-9.18-31.37-21.08-49.24-32.96-70.55-66.58 1.26 36.57 1.66 73.16 1.18 109.74-2.95 5.07-2.3.92-4.88 8.42"/><path fill="#f1f1f1" d="M1338.66 1355.44c21.31 33.62 39.18 45.5 70.55 66.58-5.87.49-31.6-18.76-36.97-23.49-10.14-8.93-22.02-21.62-30.24-32.37.39 19.72.64 39.44.74 59.16.18 28.36 4.15 62.96-18.47 83.88-26.66 24.65-74.24 45.05-108.38 58.21-12.21 4.71-25.02 8.29-36.41 12.82l-4.7-1.6c-4.02-.67-8.29-2.11-12.17-3.36l.05-1.36c22.45-3.87 61.73-19.15 83.22-27.84 7.5-4.18 17.06-8.16 24.83-12.44 3.99-2.21 11.6-6.59 15.52-8.33 22.74-13.34 41.97-24.09 48.73-51.7 2.58-7.5 1.93-3.35 4.88-8.42.48-36.58.08-73.17-1.18-109.74"/><path fill="#7a4c2e" d="M1334.96 1473.6c2.58-7.5 1.93-3.35 4.88-8.42-2.75 34.23-21.22 48.75-49.83 63.72-12.06 7.46-28.68 15.84-41.59 21.65-.4-2.88-.12-2.89-2.54-4.48 7.5-4.18 17.06-8.16 24.83-12.44 3.99-2.21 11.6-6.59 15.52-8.33 22.74-13.34 41.97-24.09 48.73-51.7"/><path fill="#7a4c2e" d="M1162.66 1573.91c22.45-3.87 61.73-19.15 83.22-27.84 2.42 1.59 2.14 1.6 2.54 4.48l-1.37.55c-14.72 6.16-26.67 11.52-42.06 16.79-7.35 2.51-24.51 7.82-30.21 10.74-4.02-.67-8.29-2.11-12.17-3.36z"/><path fill="#cecfd5" d="M1608.78 1348.09c1.38-.46.55-.07 2.23-1.62-.41-1.24-1.83-5.73-1.69-6.44 1.72-8.87 18.97-58.67 22.94-62.64-6.94 19.73-14.24 42.21-21.67 61.58 6.78 14.34 12.52 29.1 18.97 43.58-8.46-5.01-11.97-31.51-18.08-32.86-11.06 4.76-21.37 10.48-32.13 15.85-45.57 22.74-91.99 43.26-139.12 62.54-4.19 1.71-9.22 4.21-13.8 4.26l-1.12-1.14c11.99-1.53 160.37-69.14 173.61-78.6 3.28-1.36 6.63-3.01 9.86-4.51"/><path fill="#b1b1b7" d="M1421.31 1489.4c2.02-2.94 5.71-3.44 9.12-4.61 26.56-9.13 52.82-19.03 79.34-28.25 3.48-1.21 5.89-1.49 9.43-1.77-2.82 1.47-3.38 1.72-6.46 2.86a2302 2302 0 0 1-91.43 31.77"/><path fill="#312723" d="m1354.86 1560.86 1.45.54 2.16 2.01c-3.95 3.22-7.99 5.49-12.28 8.25 2.86-3.66 5.78-7.18 8.67-10.8"/><defs><linearGradient id="d" x1="1675.091" x2="1487.739" y1="1121.11" y2="1061.651" gradientUnits="userSpaceOnUse"><stop offset="0" stop-color="#81828b"/><stop offset="1" stop-color="#a0a1aa"/></linearGradient></defs><path fill="url(#d)" d="M1590.54 1000.43c18-14.911 35.45-36.025 53.49-51.2 8.82-7.418 17.27-21.13 27.45-19.595l4.03 1.742 12.09 3.208a639.4 639.4 0 0 1-5.64 204.175l-9.86 3.04c-3.22.97-14.51 4.04-16.72 5.88-12.72 10.63-22.62 25.18-34.1 36.96-28.58 29.31-55.74 65.03-85.98 92.35l-2 2.16-.64.03c-3.54 4.48-4.72 4.84-10.3 7.35 7.55-16.6 13.11-35.96 20.27-51.48 1.25-.88 2.18-1.92 3.16-3.09l1.19-1.35c-2.6-2.89-4.89-5.79-7.49-8.62l-2.07-2.97c-4.63 2.33-3.05.41-8.12-1.9-1.68-1.14-23.99-29.18-26.79-32.62-8.2-10.61-16.71-20.72-24.93-31.15l2.21-4.88c-1.42-1.84-2.83-3.7-4.22-5.56l-3.21 3.67c-2.55-3.16-5.6-7.04-8.31-9.95-4.91-5.87-9.69-12.45-14.66-18.15-6.16-6.86-12.14-14.22-16.69-22.26 40.39 20.82 69.84 36.48 116.62 41.05 5.57-1.26 9.65-1.96 15.05-4.14 20.73-11.26 22.91-23.18 27.03-44.25-.27-6.98 2.06-22.42 2.32-30.38.44-13.59.81-26.92-.14-40.49-1.08-5.54-2.11-11.97-3.04-17.58"/><path fill="#f1f1f1" d="M1590.54 1000.43c2.44.06 4 .21 6.41.5 4.07 3.51 4.87 15.04 5.05 20.5 4.07 119.93-19.69 148.92-138.08 101.83 27.77 37.19 59.58 72.55 87.79 109-2.92 10.42-5.38 18.13-9.37 28.32-1.89 4.82-5.53 12.06-7.04 16.41l-2 2.16-.64.03c-3.54 4.48-4.72 4.84-10.3 7.35 7.55-16.6 13.11-35.96 20.27-51.48 1.25-.88 2.18-1.92 3.16-3.09l1.19-1.35c-2.6-2.89-4.89-5.79-7.49-8.62l-2.07-2.97c-4.63 2.33-3.05.41-8.12-1.9-1.68-1.14-23.99-29.18-26.79-32.62-8.2-10.61-16.71-20.72-24.93-31.15l2.21-4.88c-1.42-1.84-2.83-3.7-4.22-5.56l-3.21 3.67c-2.55-3.16-5.6-7.04-8.31-9.95-4.91-5.87-9.69-12.45-14.66-18.15-6.16-6.86-12.14-14.22-16.69-22.26 40.39 20.82 69.84 36.48 116.62 41.05 5.57-1.26 9.65-1.96 15.05-4.14 20.73-11.26 22.91-23.18 27.03-44.25-.27-6.98 2.06-22.42 2.32-30.38.44-13.59.81-26.92-.14-40.49-1.08-5.54-2.11-11.97-3.04-17.58"/><defs><linearGradient id="e" x1="1483.176" x2="1493.851" y1="1132.975" y2="1112.677" gradientUnits="userSpaceOnUse"><stop offset="0" stop-color="#272326"/><stop offset="1" stop-color="#5e3d28"/></linearGradient></defs><path fill="url(#e)" d="M1432.7 1096.22c40.39 20.82 69.84 36.48 116.62 41.05 4.91 3-11.12 2.32-14.8 3.72-22-.46-59.72-16.71-80.15-25.51-2.79-.03-2.96.91-4.98 3-6.16-6.86-12.14-14.22-16.69-22.26"/><path fill="#7a4c2e" d="m1593.58 1018.01.7 1.51c1.68 3.68.6 2.61 4.73 3.79.53 16.69 1.56 42.95-1.91 59.3-4.21 3.02-3.17 5.75-5.7 6.27-.27-6.98 2.06-22.42 2.32-30.38.44-13.59.81-26.92-.14-40.49"/><path fill="#7a4c2e" d="M1591.4 1088.88c2.53-.52 1.49-3.25 5.7-6.27-.32 5.99-1.1 11.95-2.33 17.82-3.24 16.07-11.86 29.29-26.67 36.97-1.59-2.38-1.58-2.37-3.73-4.27 20.73-11.26 22.91-23.18 27.03-44.25"/><path fill="#7a4c2e" d="M1546.98 1230.61c4.09 4.9-14.94 42.32-14.32 48.57-3.54 4.48-4.72 4.84-10.3 7.35 7.55-16.6 13.11-35.96 20.27-51.48 1.25-.88 2.18-1.92 3.16-3.09z"/><path fill="#7a4c2e" d="M1502.5 1176.31c10.46 12.74 23.77 31.35 34.92 42.71-4.63 2.33-3.05.41-8.12-1.9-1.68-1.14-23.99-29.18-26.79-32.62z"/><path fill="#7a4c2e" d="M1479.79 1148.47c4.91 5.14 18.23 21.84 22.71 27.84l.01 8.19c-8.2-10.61-16.71-20.72-24.93-31.15z"/><path fill="#7a4c2e" d="M1449.39 1118.48c2.02-2.09 2.19-3.03 4.98-3 .87 3.03 9.41 12.82 11.94 16.42 3.27 3.57 6.17 7.74 9.26 11.01l-3.21 3.67c-2.55-3.16-5.6-7.04-8.31-9.95-4.91-5.87-9.69-12.45-14.66-18.15"/><path fill="#593b2a" d="M1549.32 1137.27c5.57-1.26 9.65-1.96 15.05-4.14 2.15 1.9 2.14 1.89 3.73 4.27-11.12 5.83-21.29 6.19-33.58 3.59 3.68-1.4 19.71-.72 14.8-3.72"/><path fill="#7a4c2e" d="M1590.54 1000.43c2.44.06 4 .21 6.41.5-.54 2.4 1.82 17.96 2.06 22.38-4.13-1.18-3.05-.11-4.73-3.79l-.7-1.51c-1.08-5.54-2.11-11.97-3.04-17.58"/><path fill="#7a4c2e" d="m1675.51 931.377 12.09 3.208a639.4 639.4 0 0 1-5.64 204.175l-9.86 3.04c14.51-78.39 13.47-132.33 3.41-210.423"/><path fill="#262931" d="M1590.54 1000.43c18-14.911 35.45-36.025 53.49-51.2 8.82-7.418 17.27-21.13 27.45-19.595-24.97 24.049-49.7 46.768-74.53 71.295-2.41-.29-3.97-.44-6.41-.5"/><defs><linearGradient id="f" x1="947.823" x2="1224.468" y1="363.813" y2="542.75" gradientUnits="userSpaceOnUse"><stop offset="0" stop-color="#92939c"/><stop offset="1" stop-color="#c8c9d1"/></linearGradient></defs><path fill="url(#f)" d="M932.699 362.431c73.241-11.413 147.371-6.284 219.741 8.054l4.66 13.467c.88 2.805 2.29 7.469 4.16 9.704 11.9 14.22 26.56 27.365 39.22 40.755 22.19 23.464 44.23 45.703 67.31 68.283 2.01 2.205 4.2 4.445 5.95 6.818 1.25.988 5.33 7.921 6.44 9.677-19.85-8.481-38.57-18.407-58.18-27.333-2.13-.968-4.66-.647-6.9-.524-10.42 4.424-11.71 4.823-20.44 13.387-4.12 4.253-8.69 8.886-13.48 12.278-1.71 2.795-23.42 22.749-26.83 25.561-3.03 4.938-72.03 69.326-77.86 72.932 3.15-13.667 13.86-35.851 18.88-50.173 8.67-24.757 12.86-45.178 16.81-70.845-.54-10.369 1.9-14.223-1.34-24.515l-.56-.649c-18.58-21.326-24.77-18.534-51.41-20.669-17.77-1.424-41.65 4.413-57.62 2.743-2.34-3.298-13.131-13.721-16.403-16.626-19.506-16.837-39.006-36.696-56.86-55.241-.869-.903-.353-2.675.014-3.659l.563-1.603c1.892-4.521 2.788-7.107 4.135-11.822"/><path fill="#f1f1f1" d="M1001.94 444.366c19.47-4.986 79.59-7.975 96.92 3.538 9.1 6.045 18.87 15.039 20.5 26.06 5.02 33.776-7.99 77.412-19.54 108.047a2151 2151 0 0 1 63.97-61.02c11.47-10.684 22.77-21.949 35.44-31.153 24.26-17.623 45.9 5.799 68.56 12.856 2.01 2.205 4.2 4.445 5.95 6.818 1.25.988 5.33 7.921 6.44 9.677-19.85-8.481-38.57-18.407-58.18-27.333-2.13-.968-4.66-.647-6.9-.524-10.42 4.424-11.71 4.823-20.44 13.387-4.12 4.253-8.69 8.886-13.48 12.278-1.71 2.795-23.42 22.749-26.83 25.561-3.03 4.938-72.03 69.326-77.86 72.932 3.15-13.667 13.86-35.851 18.88-50.173 8.67-24.757 12.86-45.178 16.81-70.845-.54-10.369 1.9-14.223-1.34-24.515l-.56-.649c-18.58-21.326-24.77-18.534-51.41-20.669-17.77-1.424-41.65 4.413-57.62 2.743a70 70 0 0 1 1.92-4.85z"/><path fill="#382c29" d="M1112.18 494.472c.65 1.961.97 3.856 1.47 5.848.48-.279.76-.476 1.32-.445 1.18 1.628-3.52 7.478-1.5 11.619.25.504.54 7.966.56 9.023-2.23 22.798-13.27 50.707-21.65 71.823 16.17-12.264 37.27-37.604 50.94-47.554 4.41-1.425 8.44-3.562 11.35-7.235 1.73-2.174 3.62-2.665 4.94-4.759.02-.585 2.35-3.834 3.28-3.355 3.76 1.936-5.93 7.408-6.69 8.754-1.3 2.307-3.4 1.608-1.85 4.367-3.03 4.938-72.03 69.326-77.86 72.932 3.15-13.667 13.86-35.851 18.88-50.173 8.67-24.757 12.86-45.178 16.81-70.845"/><path fill="#7a4c2e" d="M1003.17 446.532c27.42-3.389 77.57-10.147 99.99 8.087a40.8 40.8 0 0 1 13.84 20.88c-3.75-2.122-3.59-2.054-6.16-5.542l-.56-.649c-18.58-21.326-24.77-18.534-51.41-20.669-17.77-1.424-41.65 4.413-57.62 2.743a70 70 0 0 1 1.92-4.85"/><path fill="#7a4c2e" d="M1209.49 487.914c2.58-.593 9.21-2.04 12.03-1.638 11.12 1.582 44.47 22.93 52.22 23.236 1.25.988 5.33 7.921 6.44 9.677-19.85-8.481-38.57-18.407-58.18-27.333-2.13-.968-4.66-.647-6.9-.524-1.59-.626-3.03-1.144-4.32-2.3z"/><path fill="#593b2a" d="M1169.23 520.678c7.71.127 6.57-2.334 11.95-3.681-1.71 2.795-23.42 22.749-26.83 25.561-1.55-2.759.55-2.06 1.85-4.367.76-1.346 10.45-6.818 6.69-8.754-.93-.479-3.26 2.77-3.28 3.355-1.32 2.094-3.21 2.585-4.94 4.759-2.91 3.673-6.94 5.81-11.35 7.235 5.26-5.496 19.86-19.117 25.91-24.108"/><path fill="#593b2a" d="M1110.84 469.957c2.57 3.488 2.41 3.42 6.16 5.542 1.95 9.927-.69 34.985-2.97 45.018-.02-1.057-.31-8.519-.56-9.023-2.02-4.141 2.68-9.991 1.5-11.619-.56-.031-.84.166-1.32.445-.5-1.992-.82-3.887-1.47-5.848-.54-10.369 1.9-14.223-1.34-24.515"/><path fill="#593b2a" d="M1189.92 501.745c1.74 1.977 2.19 1.997 4.74 2.974-4.12 4.253-8.69 8.886-13.48 12.278-5.38 1.347-4.24 3.808-11.95 3.681 4.54-4.599 15.94-15.103 20.69-18.933"/><path fill="#593b2a" d="M1189.92 501.745c5.26-5.043 12.67-11.515 19.57-13.831l1.29 1.118c1.29 1.156 2.73 1.674 4.32 2.3-10.42 4.424-11.71 4.823-20.44 13.387-2.55-.977-3-.997-4.74-2.974"/><path fill="#7a4c2e" d="M932.699 362.431c73.241-11.413 147.371-6.284 219.741 8.054l4.66 13.467c-12.99-3.212-30.79-5.16-44.19-6.959-62.06-8.331-117.944-5.192-179.687 1.518-1.553-1.379-3.116-2.852-4.659-4.258 1.892-4.521 2.788-7.107 4.135-11.822"/><path fill="#262931" d="M928.564 374.253c1.543 1.406 3.106 2.879 4.659 4.258 15.807 15.802 35.534 33.178 50.106 48.479l.508 1.687c.644 2.047.878 3.947 1.01 6.079-19.506-16.837-39.006-36.696-56.86-55.241-.869-.903-.353-2.675.014-3.659z"/><path fill="#312723" d="M983.329 426.99c2.466 2.285 16.645 16.272 18.611 17.376l1.23 2.166a70 70 0 0 0-1.92 4.85c-2.34-3.298-13.131-13.721-16.403-16.626-.132-2.132-.366-4.032-1.01-6.079z"/><defs><linearGradient id="g" x1="378.767" x2="517.355" y1="907.352" y2="999.34" gradientUnits="userSpaceOnUse"><stop offset="0" stop-color="#84868e"/><stop offset="1" stop-color="#9fa0a8"/></linearGradient></defs><path fill="url(#g)" d="M523.77 761.572c-3.389 7.723-19.595 45.684-18.432 51.771 6.009 4.874 12.601 14.114 17.392 20.306l.923 1.211c12.017 14.089 24.001 29.855 35.633 44.407a132 132 0 0 0 4.314 5.087l6.216 7.141c1.982 1.901 3.584 4.016 5.327 6.144 4.095 3.917 7.124 8.705 10.792 12.943 1.405 1.711 2.589 3.478 4.14 5.072 2.622 2.938 4.617 5.645 7.475 8.579 6.263 6.282 13.003 14.685 17.615 22.253-8.013-3.194-15.338-6.942-23.197-10.41a403 403 0 0 0-60.949-21.275c-3.116-.815-8.325-2.1-11.033-3.593l-.918-.168c-17.984-3.448-28.57-6.263-44.347 5.396-7.303 5.397-7.328 7.747-11.975 14.352-10.134 22.364-9.874 73.252-8.584 98.362 1.053 6.39.508 7.72 2.639 13.93-3.542 5.82-7.689 8.96-12.582 13.51-21.361 19.87-41.559 41.81-64.167 60.05-.214.18-3.646-1.19-3.865-1.27l-2.757-.88c-4.927-2.29-7.681-2.51-12.974-3.47-1.34-14.05-3.525-26.2-4.427-40.86-3.434-55.8 1.594-106.465 9.882-161.367l11.438-3.831 17.091-5.519c27.749-29.999 54.371-62.524 82.466-92.389 10.775-11.453 22.495-25.851 33.771-36.467l2.897-2.337c1.465-2.037 7.725-5.234 10.196-6.678"/><path fill="#f1f1f1" d="M523.77 761.572c-3.389 7.723-19.595 45.684-18.432 51.771 6.009 4.874 12.601 14.114 17.392 20.306l.923 1.211c12.017 14.089 24.001 29.855 35.633 44.407a132 132 0 0 0 4.314 5.087l6.216 7.141c1.982 1.901 3.584 4.016 5.327 6.144 4.095 3.917 7.124 8.705 10.792 12.943 1.405 1.711 2.589 3.478 4.14 5.072 2.622 2.938 4.617 5.645 7.475 8.579 6.263 6.282 13.003 14.685 17.615 22.253-8.013-3.194-15.338-6.942-23.197-10.41a403 403 0 0 0-60.949-21.275c-3.116-.815-8.325-2.1-11.033-3.593l-.918-.168c-17.984-3.448-28.57-6.263-44.347 5.396-7.303 5.397-7.328 7.747-11.975 14.352-10.134 22.364-9.874 73.252-8.584 98.362 1.053 6.39.508 7.72 2.639 13.93-1.901.06-3.399.09-5.298.33l-3.033 2.28c-6.466-27.6-4.109-80.44 2.936-107.324 11.413-43.554 49.055-41.825 84.05-33.364 8.717 2.108 34.384 12.212 40.414 8.99.135-4.135-73.906-92.133-80.759-99.914 4.97-17.551 7.972-26.895 15.566-43.491l2.897-2.337c1.465-2.037 7.725-5.234 10.196-6.678"/><path fill="#382c29" d="M519.986 911.208c-1.473-4.941-6.437-1.781-7.744-3.847l.182.297-.08-.083.712-.67c3.254-.61 10.121.734 15.325.138 19.263 2.269 46.314 14.562 64.457 21.829.32.703.335 1.295 1.128 1.416.561-.232 3.146-5.188 3.584-6.055 6.263 6.282 13.003 14.685 17.615 22.253-8.013-3.194-15.338-6.942-23.197-10.41a403 403 0 0 0-60.949-21.275c-3.116-.815-8.325-2.1-11.033-3.593"/><path fill="#7a4c2e" d="M448.991 1027.61c-2.506-29.301-1.907-77.997 11.998-103.796.405 3.102 1.457 4.244 1.757 6.974-10.134 22.364-9.874 73.252-8.584 98.362-2.105-7.78-2.015-4.93-5.171-1.54"/><path fill="#593b2a" d="M460.989 923.814c16.33-24.389 41.331-23.972 67.392-16.771-5.204.596-12.071-.748-15.325-.138l-.712.67.08.083-.182-.297c1.307 2.066 6.271-1.094 7.744 3.847l-.918-.168c-17.984-3.448-28.57-6.263-44.347 5.396-7.303 5.397-7.328 7.747-11.975 14.352-.3-2.73-1.352-3.872-1.757-6.974"/><path fill="#7a4c2e" d="M523.77 761.572c-3.389 7.723-19.595 45.684-18.432 51.771.282 4.037 2.653 4.56 3 6.714l-.07.09c-.705-.294-5.324-3.92-8.037-5.134-5.251-4.252 13.132-39.215 13.343-46.763 1.465-2.037 7.725-5.234 10.196-6.678"/><path fill="#7a4c2e" d="M523.653 834.86c12.017 14.089 24.001 29.855 35.633 44.407l-4.735 2.077c-10.792-13.242-22.355-27.09-32.744-40.57.971-2.574 1.209-3.22 1.846-5.914"/><path fill="#7a4c2e" d="M505.338 813.343c6.009 4.874 12.601 14.114 17.392 20.306l.923 1.211c-.637 2.694-.875 3.34-1.846 5.914-6.605-8.182-15.662-18.077-21.576-25.761 2.713 1.214 7.332 4.84 8.037 5.134l.07-.09c-.347-2.154-2.718-2.677-3-6.714"/><path fill="#593b2a" d="M575.143 897.639c4.095 3.917 7.124 8.705 10.792 12.943.572 4.167.733 4-.469 8.056l-12.77-15.483c1.098-1.936 1.768-3.404 2.447-5.516"/><path fill="#382c29" d="M585.935 910.582c1.405 1.711 2.589 3.478 4.14 5.072 2.622 2.938 4.617 5.645 7.475 8.579-.438.867-3.023 5.823-3.584 6.055-.793-.121-.808-.713-1.128-1.416a95 95 0 0 0-2.705-4.543 197 197 0 0 1-4.667-5.691c1.202-4.056 1.041-3.889.469-8.056"/><path fill="#312723" d="M585.935 910.582c1.405 1.711 2.589 3.478 4.14 5.072.662 4.343.598 4.322.058 8.675a197 197 0 0 1-4.667-5.691c1.202-4.056 1.041-3.889.469-8.056"/><path fill="#7a4c2e" d="M448.991 1027.61c3.156-3.39 3.066-6.24 5.171 1.54 1.053 6.39.508 7.72 2.639 13.93-1.901.06-3.399.09-5.298.33-1.301-5.87-1.897-9.73-2.512-15.8"/><path fill="#593b2a" d="M569.816 891.495c1.982 1.901 3.584 4.016 5.327 6.144-.679 2.112-1.349 3.58-2.447 5.516-2.094-2.409-3.968-4.844-6.098-7.28 1.4-1.752 1.98-2.527 3.218-4.38"/><path fill="#593b2a" d="m563.6 884.354 6.216 7.141c-1.238 1.853-1.818 2.628-3.218 4.38l-5.865-7.06a316 316 0 0 0 2.867-4.461"/><path fill="#7a4c2e" d="M559.286 879.267a132 132 0 0 0 4.314 5.087 316 316 0 0 1-2.867 4.461c-2.028-2.515-4.13-4.967-6.182-7.471z"/><path fill="#7a4c2e" d="m365.911 908.793 11.438-3.831c-14.329 82.014-13.423 127.178-3.919 209.528-4.927-2.29-7.681-2.51-12.974-3.47-1.34-14.05-3.525-26.2-4.427-40.86-3.434-55.8 1.594-106.465 9.882-161.367"/><path fill="#262931" d="M451.503 1043.41c1.899-.24 3.397-.27 5.298-.33-3.542 5.82-7.689 8.96-12.582 13.51-21.361 19.87-41.559 41.81-64.167 60.05-.214.18-3.646-1.19-3.865-1.27a3681 3681 0 0 0 54.065-51.89c4.262-4.17 15.217-13.86 18.218-17.79z"/><defs><linearGradient id="h" x1="1126.969" x2="800.016" y1="1618.626" y2="1536.09" gradientUnits="userSpaceOnUse"><stop offset="0" stop-color="#8f9099"/><stop offset="1" stop-color="#c0c1c9"/></linearGradient></defs><path fill="url(#h)" d="M885.71 1510.65c8.894-9.76 28.661-27.29 38.809-36.77 10.914-10.19 36.024-34.31 47.444-41.7-10.576 29.88-26.623 57.93-31.192 90.11-.289 2.04-2.748 15.06-3.436 16.46-1.574 14-6.029 31.82 3.39 43.47 5.522 6.83 10.215 11.07 18.89 13.41l1.589.44c33.952 2.34 44.626 5.53 80.676-1.09 10.39 6.32 13.6 14.91 22.02 22.02 16.56 14.01 29.04 27.94 43.49 43.87l11.38 10.94.24.2c.55 2.58-2.31 8.6-3.46 11.68-68.77 10.49-151.633 4.04-219.946-7.35l-4.163-10.96c-6.612-18.68-17.873-27.07-31.015-41.17a4070 4070 0 0 0-49.291-52.47c-8.999-9.26-21.112-20.15-29.201-29.56-2.582-1.81-5.229-5.24-7.365-7.75-2.267-2.95-2.717-4.02-4.365-7.5a318 318 0 0 0 15.523 7.5c14.263 6.53 27.754 14.72 42.357 20.52 8.563-2.39 11.362-2.96 18.458-8.12 2.245-2.01 4.531-4.25 6.715-6.34 10.048-8.9 22.48-21.71 32.453-29.84"/><path fill="#f1f1f1" d="M885.71 1510.65c8.894-9.76 28.661-27.29 38.809-36.77 10.914-10.19 36.024-34.31 47.444-41.7-10.576 29.88-26.623 57.93-31.192 90.11-.289 2.04-2.748 15.06-3.436 16.46-1.574 14-6.029 31.82 3.39 43.47 5.522 6.83 10.215 11.07 18.89 13.41l1.589.44c33.952 2.34 44.626 5.53 80.676-1.09 10.39 6.32 13.6 14.91 22.02 22.02 16.56 14.01 29.04 27.94 43.49 43.87-5.28-3.94-16.41-15.15-21.54-20.04a2551 2551 0 0 1-40.66-39.24c-.37.25-.75.5-1.12.75-33.23 8.02-115.738 15.18-116.992-35.15-.915-36.73 10.945-71.34 20.445-101.14-17.992 17.13-90.733 87.5-107.935 94.17-18.995 7.37-40.846-10.2-57.654-18.04-2.582-1.81-5.229-5.24-7.365-7.75-2.267-2.95-2.717-4.02-4.365-7.5a318 318 0 0 0 15.523 7.5c14.263 6.53 27.754 14.72 42.357 20.52 8.563-2.39 11.362-2.96 18.458-8.12 2.245-2.01 4.531-4.25 6.715-6.34 10.048-8.9 22.48-21.71 32.453-29.84"/><path fill="#382c29" d="M885.71 1510.65c8.894-9.76 28.661-27.29 38.809-36.77 10.914-10.19 36.024-34.31 47.444-41.7-10.576 29.88-26.623 57.93-31.192 90.11-.289 2.04-2.748 15.06-3.436 16.46-.388-1.07-.287-1.59-1.081-2.26-.81.75.577 3.03-.802 4.47-3.581 3.77.211 12.62-2.716 17.57-.028-.03.743-21.38.314-24.69.25-20.63 14.682-59.74 22.33-79.48-8.906 9.17-21.56 20.05-31.267 28.94-10.329 9.47-23.24 22.1-33.956 30.62-.816 1.56-27.03 25.37-29.09 26.47-3.606-1.34-3.928-.83-7.81.1 10.048-8.9 22.48-21.71 32.453-29.84"/><path fill="#593b2a" d="M885.71 1510.65c1.909 3.76-20.187 19.92-21.436 22.77l.019.08.025-.1.731.21c5.046-2.85 10.669-9.96 15.254-12.88 5.034-3.2 4.803-7.84 9.854-6.81-.816 1.56-27.03 25.37-29.09 26.47-3.606-1.34-3.928-.83-7.81.1 10.048-8.9 22.48-21.71 32.453-29.84"/><path fill="#7a4c2e" d="M1041.88 1594.98c10.39 6.32 13.6 14.91 22.02 22.02 16.56 14.01 29.04 27.94 43.49 43.87-5.28-3.94-16.41-15.15-21.54-20.04a2551 2551 0 0 1-40.66-39.24c-4.26-1.29-19.11 1.62-24.88 2.1-17.86 1.49-49.821 2.14-66.586-4.34 3.708-.85 8.812.63 7.48-3.28 33.952 2.34 44.626 5.53 80.676-1.09"/><path fill="#7a4c2e" d="M774.569 1534.43c-2.267-2.95-2.717-4.02-4.365-7.5a318 318 0 0 0 15.523 7.5c14.263 6.53 27.754 14.72 42.357 20.52 8.563-2.39 11.362-2.96 18.458-8.12l4.083 3.47c-9.652 7.52-13.921 8.14-25.633 9.35-3.716-1.99-49.749-25.07-50.423-25.22"/><path fill="#7a4c2e" d="M933.05 1533.84c.429 3.31-.342 24.66-.314 24.69 2.927-4.95-.865-13.8 2.716-17.57 1.379-1.44-.008-3.72.802-4.47.794.67.693 1.19 1.081 2.26-1.574 14-6.029 31.82 3.39 43.47 5.522 6.83 10.215 11.07 18.89 13.41l1.589.44c1.332 3.91-3.772 2.43-7.48 3.28-13.281-6.57-24.567-18.74-23.802-33.85.51-10.08.533-21.91 3.128-31.66"/><path fill="#7a4c2e" d="M853.257 1540.49c3.882-.93 4.204-1.44 7.81-.1a119 119 0 0 1-10.442 9.91l-4.083-3.47c2.245-2.01 4.531-4.25 6.715-6.34"/><path fill="#7a4c2e" d="M891.441 1665.38c64.141 14.79 133.689 17.58 198.849 10.23 6.34-.71 24.02-1.51 28.48-3.8l.24.2c.55 2.58-2.31 8.6-3.46 11.68-68.77 10.49-151.633 4.04-219.946-7.35z"/><path fill="#262931" d="M452.812 1061.85a1420 1420 0 0 0 109.152 56.56c-34.744 5.77-45.638 8.51-76.441 25.64-12.165 23.27-40.199 70.17-57.118 89.8.57 11.64 3.744 51.45 5.616 61.53.707 3.74.852 8.7 1.306 12.61-1.475 1.85-2.573 3.81-3.867 5.81-.938 2.32-4.359 8.11-5.965 10.14-4.702-1.04-6.141 4.65-9.021 9.08a487 487 0 0 1-7.832 11.66l-2.443 3.48-2.283 3.24-8.109 11.5c-1.237 1.73-5.306 8.63-6.51 8.65-3.581.07 1.084-9.84 1.253-10.22.848-5.13 4.594-17.55 6.071-22.91 4.887-17.09 9.543-34.25 13.967-51.46-13.303-13.84-30.145-68.82-42.423-83.8-4.113-5.01-35.86-28.88-42.833-34.17l-75.404-57.21c-5.452-4.09-24.999-17.35-26.367-22.83l.759-1.09c13.883-1.04 138.471 35.92 161.467 41.97 20.559-22.52 45.557-44.84 67.025-67.98"/><path fill="#b1b1b7" d="M423.284 1266.68c.211-1.14.737-2.12 1.222-3.17 3.14 9.25 2.261 25.33 4.961 35.91.953-2.25 1.262-5.79 1.525-8.25l.373.2-.134-.34.04-.06c1.164 1.73 1.31 2.53 2.75 4.41.707 3.74.852 8.7 1.306 12.61-1.475 1.85-2.573 3.81-3.867 5.81-.938 2.32-4.359 8.11-5.965 10.14-4.702-1.04-6.141 4.65-9.021 9.08a487 487 0 0 1-7.832 11.66l-2.443 3.48-2.283 3.24-8.109 11.5c-1.237 1.73-5.306 8.63-6.51 8.65-3.581.07 1.084-9.84 1.253-10.22 3.56-5.6 4.7-14.02 6.082-16.13.679.33-1.583 12.34 2.021 3.33 1.163-3.99 2.462-7.67 3.83-11.59l1.42-5.43c4.707-17.8 10.594-35.17 15.331-52.95 1.204-4.52 2.169-7.64 4.05-11.88"/><defs><linearGradient id="i" x1="417.714" x2="406.846" y1="1333.912" y2="1327.265" gradientUnits="userSpaceOnUse"><stop offset="0" stop-color="#13100f"/><stop offset="1" stop-color="#453b39"/></linearGradient></defs><path fill="url(#i)" d="M429.467 1299.42c.953-2.25 1.262-5.79 1.525-8.25l.373.2-.134-.34.04-.06c1.164 1.73 1.31 2.53 2.75 4.41.707 3.74.852 8.7 1.306 12.61-1.475 1.85-2.573 3.81-3.867 5.81-.938 2.32-4.359 8.11-5.965 10.14-4.702-1.04-6.141 4.65-9.021 9.08a487 487 0 0 1-7.832 11.66l-2.443 3.48-2.283 3.24-8.109 11.5c-1.237 1.73-5.306 8.63-6.51 8.65-3.581.07 1.084-9.84 1.253-10.22 3.56-5.6 4.7-14.02 6.082-16.13.679.33-1.583 12.34 2.021 3.33 6.733-6.9 23.647-39.09 30.814-49.11"/><path fill="#f1f1f1" d="M423.284 1266.68c.211-1.14.737-2.12 1.222-3.17 3.14 9.25 2.261 25.33 4.961 35.91-7.167 10.02-24.081 42.21-30.814 49.11 1.163-3.99 2.462-7.67 3.83-11.59 9.795-11.4 14.499-23.64 22.427-35.47l.963-1.5c-.503-11.49-2.219-21.89-2.589-33.29"/><defs><linearGradient id="j" x1="285.302" x2="474.087" y1="1069.965" y2="1195.549" gradientUnits="userSpaceOnUse"><stop offset="0" stop-color="#8e9098"/><stop offset="1" stop-color="#adaeb7"/></linearGradient></defs><path fill="url(#j)" d="m452.895 1072.43 2.048-1.12c5.784 1.77 23.835 11.66 29.96 14.94 18.054 9.66 37.245 19.12 54.887 29.35a236 236 0 0 0-58.371 23.44c-9.562 19.46-26.253 43.66-38.886 61.84-17.473 25.14-22.643 35.03-31.966 64.77-.465 2.2-1.793 6.43-2.445 8.74-10.533-24.87-23.448-50.8-32.904-75.62-38.584-28.67-87.787-65.31-124.051-95.32l-2.826-2.36c5.07-1.78 118.648 31.18 129.756 37.42 1.27.39 5.043 1.64 5.694 1.11 12.515-10.28 61.7-57.93 69.104-67.19"/><path fill="#f1f1f1" d="m452.895 1072.43 2.048-1.12c5.784 1.77 23.835 11.66 29.96 14.94 18.054 9.66 37.245 19.12 54.887 29.35a236 236 0 0 0-58.371 23.44c-9.562 19.46-26.253 43.66-38.886 61.84-17.473 25.14-22.643 35.03-31.966 64.77l-.626-1c.249-28.38 52.87-96.48 69.513-127.93a192 192 0 0 1 52.526-22.25c-13.621-7.21-72.242-35.71-79.085-42.04"/><path fill="#f1f1f1" d="m251.167 1103.45-2.826-2.36c5.07-1.78 118.648 31.18 129.756 37.42-5.921 1.47-32.454-9.18-40.467-11.25-28.911-7.44-57.753-15.63-86.463-23.81"/><path fill="#262931" d="m1622.85 722.027 2.32.045c10.42-12.043 25.75-42.326 37-51.682-7.86 27.706-16.05 60.364-24.55 86.971 13.59 18.271 21.43 41.323 30.43 62.185 2.64 6.12 4.96 12.658 8.35 18.401 6.79 11.514 90.39 72.651 108.03 86.394 4.7 3.662 38.22 27.328 38.97 29.908.16.561.02 1.168.03 1.752-4.74 2.642-11.67.64-16.78-.82-18.86-5.389-38.02-10.103-56.88-15.43l-87.31-24.739c-19.56 20.07-47.6 49.726-68.23 67.668-8.74-5.817-19.68-10.927-29.11-15.925-27.15-14.383-55.46-26.684-83.02-40.273 24.7-1.231 58.8-9.965 79.62-23.571 20.41-36.04 37.57-61.161 60.04-95.072-1.76-15.215-5.63-58.236-9.15-70.055.44-1.655 3.23-5.667 4.31-7.365 2.31-4.058 2.73-5.148 5.93-8.392"/><defs><linearGradient id="k" x1="1784.977" x2="1548.91" y1="942.088" y2="848.229" gradientUnits="userSpaceOnUse"><stop offset="0" stop-color="#8c8e96"/><stop offset="1" stop-color="#a8a9b2"/></linearGradient></defs><path fill="url(#k)" d="M1566.07 907.81c14.69-29.963 39.12-58.927 56.47-87.493 6.43-10.591 13.7-32.45 17.18-44.882l.98-.168 2.53 4.371c9.15 20.404 19.58 46.294 30.21 65.706 2.17 3.964 25.56 21.323 30.99 25.515l63.88 49.253c8.2 6.359 21.27 15.759 28.81 22.302l2.87 2.447c-6.74 2.258-122.7-34.07-137.45-40.162-17.47 19.28-49.54 51.187-68.85 68.699-3.65.342-78.93-38.198-87.9-42.886 22.58-4.399 40.44-10.624 60.28-22.702"/><path fill="#f1f1f1" d="M1566.07 907.81c14.69-29.963 39.12-58.927 56.47-87.493 6.43-10.591 13.7-32.45 17.18-44.882l.98-.168 2.53 4.371c-3.11 1.185-3.19.344-4.73 3.463-3.39 6.875-3.74 17.749-6.8 24.268-13.92 29.686-36.92 55.851-53.32 84.484-3.64 6.354-7.65 11.788-10.95 18.099-18.78 11.293-31.26 16.071-52.61 21.801 10.27 5.149 75.96 36.797 78.87 41.645-3.65.342-78.93-38.198-87.9-42.886 22.58-4.399 40.44-10.624 60.28-22.702"/><path fill="#f1f1f1" d="M1662.54 904.699c7.73-1.296 33.86 10.236 43.33 12.504 30.23 7.232 61.2 17.96 91.25 25.211l2.87 2.447c-6.74 2.258-122.7-34.07-137.45-40.162"/><path fill="#85868e" d="M1619.96 742.379c7.3-12.963 22.09-36.915 30.36-48.675-5.53 18.206-10.61 38.915-16.76 56.6-.57 6.422-5.56 20.774-7.36 27.864-.42.811-.58 1.565-1.61 1.513-.78-.892-4.09-33.236-4.63-37.302"/><path fill="#f1f1f1" d="M1619.96 742.379c7.3-12.963 22.09-36.915 30.36-48.675-5.53 18.206-10.61 38.915-16.76 56.6-.57-6.488 8.25-32.934 10.21-42.769-4.42 6.788-16.54 25.328-19.26 32.242-1.69 4.302 1.68 31.726 1.69 38.391-.42.811-.58 1.565-1.61 1.513-.78-.892-4.09-33.236-4.63-37.302"/><path fill="#262931" d="M837.705 374.346c6.771-9.943 21.867-27.433 29.826-37.286l54.131-67.002c13.416-16.33 28.342-37.985 42.511-52.639-.919 20.353-43.846 141.219-52.972 164.63 10.407 9.411 61.814 54.678 67.538 63.978 1.065 5.025-4.439 15.424-6.808 20.631-14.096 30.984-23.043 60.822-32.286 93.344-7.416-23.298-22.797-68.152-41.674-83.994-6.089-5.11-33.564-18.381-42.846-23.024-17.21-8.606-33.173-19.088-49.861-27.957-17.306 3.943-42.641 4.968-56.022 8.72l-3.519.894c-1.712-2.047-8.351-4.699-11.173-6.249-21.147-11.615-41.405-24.721-61.824-37.584 19.898-1.785 79.724 20.44 86.341 18.218.561-1.205 2.85-6.237 3.865-6.635 24.706-9.673 50.113-18.16 74.773-28.045"/><defs><linearGradient id="l" x1="819.642" x2="994.863" y1="327.096" y2="424.252" gradientUnits="userSpaceOnUse"><stop offset="0" stop-color="#81838b"/><stop offset="1" stop-color="#999ba3"/></linearGradient></defs><path fill="url(#l)" d="m946.496 250 2.128-2.997.747 1.04c-1.181 6.51-9.422 29.717-12.034 37.007-10.43 29.115-19.673 63.79-32.825 91.244-.965 2.667-1.325 3.723-2.663 6.288 20.59 19.144 49.74 47.347 70.779 64.397.631 4.171-9.792 26.324-11.959 31.532a709 709 0 0 0-21.726 57.918c-6.783-18.549-15.855-41.909-28.54-57.494-7.863-9.66-28.069-17.407-39.552-24.064-14.715-8.53-36.773-19.312-50.277-29.582l-1.557-1.206c-2.49-.768-14.328-6.703-17.525-8.157a241 241 0 0 0-29.532-11.368c24.874-8.246 46.45-16.512 70.957-25.874 4.23-5.793 9.549-12.246 14.166-17.799 30.162-36.281 58.7-75.144 89.413-110.885"/><path fill="#f1f1f1" d="M819.017 424.083c6.199 1.117 16.482 8.27 22.312 11.567 55.425 31.337 75.717 28.036 97.555 92.737 4.348-13.127 26.966-76.227 33.744-81.408.631 4.171-9.792 26.324-11.959 31.532a709 709 0 0 0-21.726 57.918c-6.783-18.549-15.855-41.909-28.54-57.494-7.863-9.66-28.069-17.407-39.552-24.064-14.715-8.53-36.773-19.312-50.277-29.582z"/><path fill="#f1f1f1" d="m946.496 250 2.128-2.997.747 1.04c-1.181 6.51-9.422 29.717-12.034 37.007-10.43 29.115-19.673 63.79-32.825 91.244-.733-5.379 36.678-112.509 41.984-126.294"/><path fill="#85868e" d="m694.022 400.084 8.968 2.036c5.866 1.369 10.653 2.487 16.448 4.274 3.125.372 3.967.733 7.046 1.555l1.885.514a239 239 0 0 0 8.244 2.056l4.442 1.029c14.302 3.41 29.162 6.004 43.135 9.312.184.434.804 1.25.467 1.71-5.68 2.105-34.37 4.05-42.686 5.242-14.974-9.754-32.24-19.028-47.949-27.728"/><path fill="#f1f1f1" d="m694.022 400.084 8.968 2.036c5.866 1.369 10.653 2.487 16.448 4.274-2.044 1.772-4.206-.843-5.944.282a.94.94 0 0 0-.421.754c-.026 1.126 24.537 14.218 27.866 16.344l.68.428c18.33-2.962 24.567-3.021 42.571-3.342.184.434.804 1.25.467 1.71-5.68 2.105-34.37 4.05-42.686 5.242-14.974-9.754-32.24-19.028-47.949-27.728"/><path fill="#262931" d="M1108.96 1488.06c3.72 8.55 7.42 20.92 11.19 30.38 7.5 18.29 16.66 35.85 27.36 52.46 4.35 1.46 5.53 1.84 9.47 4.05l5.65 3.7c22.41 11.53 44.87 22.87 66.76 35.37 4.91 2.8 9.77 5.69 14.91 8.07 9.08-1.88 47.8-7.7 52.95-9.76 4.81.79 5.69.22 10.56-1.13l1.95.86.09 1.12c3.05 1.2 7.46 3.41 9.9 5.63l-.79 2.31c9.37 5.29 30.18 16.62 38.18 23.18 19.03 9.64 19.51 13.24-2.17 7.84l-7.99-1.98c-3.42-.86-6.84-1.72-10.21-2.75-14.94-3.14-28.73-6.45-43.87-9.19-24.21 14.36-62.7 19.77-84.54 35.46-15.47 11.1-113.9 148.29-122.38 152l-1.39-.94c-2.7-10.63 45.25-141.14 52.64-160.48-7.01-4.78-21.19-18.18-27.92-24.51-13.19-12.39-29.45-26.49-41.41-39.87 16.1-35.83 29.46-74.29 41.06-111.82"/><path fill="#85868e" d="M1273.59 1628.11c9.52-6.88 11.9-3.48 23.94-5.92 7.16-1.45 14.61 3.44 20.69 7.25 3.5 2.19 23.2 9.59 13.68 11.42-.71.15-1.42.3-2.13.46-1.85-1.11-8.46-2.45-10.79-2.97l-4.51-.99-16.45-3.48c-8.34-1.88-16.12-3.5-24.43-5.77"/><path fill="#382c29" d="M1329.77 1641.32c4.3.19 17.61 3.66 19.05 3.23l.01-.02c-.83-.82-1.6-1.54-2.46-2.34 4.9-.15 5.03 1.19 9.44 1.89l1.33.22c19.03 9.64 19.51 13.24-2.17 7.84l-7.99-1.98c-3.42-.86-6.84-1.72-10.21-2.75-3.69-3.12-3.72-1.93-7-6.09"/><path fill="#cecfd5" d="M1261.19 1625.13c5.25-.89 10.51-1.65 15.8-2.29 9.16-1.1 18.29-2.41 27.39-3.92 9.42 5.29 33.3 19.62 41.99 23.27.86.8 1.63 1.52 2.46 2.34l-.01.02c-1.44.43-14.75-3.04-19.05-3.23.71-.16 1.42-.31 2.13-.46 9.52-1.83-10.18-9.23-13.68-11.42-6.08-3.81-13.53-8.7-20.69-7.25-12.04 2.44-14.42-.96-23.94 5.92-4.04-1.12-8.27-1.91-12.4-2.98"/><path fill="#060809" d="M1309.85 1613.18c3.05 1.2 7.46 3.41 9.9 5.63l-.79 2.31c-1.96-1.29-3.02-2-5.28-2.7l-.03.03c-2.88-1.83-4.37-2.31-3.8-5.27"/><path fill="#85868e" d="M1109.05 1510.37c7.48 18.61 19.24 46.88 32.62 61.53 6.98 7.64 32.34 19.18 43.46 25.12a663 663 0 0 1 35.56 20.28l1.7.85c5.83 2.97 11.77 7.02 17.93 10.22 11.44 5.94 21.5 8.9 33.69 12.62-20.31 7.4-49.13 17.06-68.6 26.34-3.39 1.61-21.93 25.33-26.11 30.54l-51.83 64.98c-7.47 9.36-18.13 23.65-25.89 32.22l-2.48 3.27-.85-.14c1.45-7.58 13.52-41.85 16.56-50.04 9.32-25.11 18.92-57.11 29.81-81.27l.17-1.8c-3.28-5.16-19.19-19.33-24.4-24.17l-44.36-40.91c-.19-.82-.39-1.64-.59-2.46 4.77-12.68 10.41-25.05 15.38-37.64 6.52-16.35 12.6-32.87 18.23-49.54"/><path fill="#f1f1f1" d="M1109.05 1510.37c7.48 18.61 19.24 46.88 32.62 61.53 6.98 7.64 32.34 19.18 43.46 25.12a663 663 0 0 1 35.56 20.28c-7.1-.56-36.62-18.2-44.73-22.16-7.98-3.9-25.9-13.03-32.41-18.15-15.69-12.35-27.45-40.54-34.57-58.82-3.38 10.64-27.33 76.84-32.95 81.84-.19-.82-.39-1.64-.59-2.46 4.77-12.68 10.41-25.05 15.38-37.64 6.52-16.35 12.6-32.87 18.23-49.54"/><path fill="#f1f1f1" d="M1144.62 1666.89c-.42 9.54-10.42 34.59-13.78 44.68-9.16 27.57-20.54 55.87-29.26 83.5l-2.48 3.27-.85-.14c1.45-7.58 13.52-41.85 16.56-50.04 9.32-25.11 18.92-57.11 29.81-81.27"/><path fill="#b1b1b7" d="m1127.93 291.629 45.46 54.265c7.39 8.796 20.63 22.529 25.53 31.823 10.52 19.951 25.32 42.948 29.23 65.171-16.67-14.027-33.28-29.402-49.85-43.815-4.21-3.312-7.26-5.204-11.65-8.014-6.14-13.198-14.12-31.955-18.36-45.817-6.45-13.225-14.85-38.717-20.36-53.613"/><path fill="#382c29" d="m1127.93 291.629 45.46 54.265c7.39 8.796 20.63 22.529 25.53 31.823 10.52 19.951 25.32 42.948 29.23 65.171-16.67-14.027-33.28-29.402-49.85-43.815.76-1.765 1.17-1.668 2.98-2.492l1.18-.69c8.79 6.749 16.27 13.121 24.79 19.936l4.35-1.799c-4.08-8.883-17.75-35.921-23.35-42.235-14.71-16.609-29.76-32.922-43.62-50.402 1.28 3.157 2.78 7.436 4.09 10.346l-.09 2.042c-.19 3.884-.18 7.577-.34 11.463-6.45-13.225-14.85-38.717-20.36-53.613"/><path fill="#cecfd5" d="m1207.25 415.827 4.35-1.799c1.76 3.161 3.19 6.113 4.78 9.357-2.99-2.49-6.26-5.024-9.13-7.558"/><path fill="#312723" d="M1148.72 331.737c1 2.158 1.71 3.851 2.61 6.039l20.01 49.486c3.83 2.878 7.39 5.624 11.12 8.629l-1.18.69c-1.81.824-2.22.727-2.98 2.492-4.21-3.312-7.26-5.204-11.65-8.014-6.14-13.198-14.12-31.955-18.36-45.817.16-3.886.15-7.579.34-11.463z"/><path fill="#262931" d="M819.3 1602.1c21.004 17.01 38.084 34.89 61.581 52.38a3616 3616 0 0 1 38.103 98.74c-9.292-8.42-24.233-28.06-32.246-38.41-5.567-5.42-35.602-43.52-38.291-49.48l-.773-1.62c-9.001-16.61-23.207-44.49-28.374-61.61"/><path fill="#b1b1b7" d="M844.246 1632.17c2.079 1.62 12.141 9.9 13.202 11.36 1.18 3.7 12.842 11.78 16.417 14.17 3.108 9.18 20.09 50.1 19.83 56.04-4.185-4.47-7.542-8.59-11.468-13.14.929 10.55 2.06 5.51 4.511 14.21-5.567-5.42-35.602-43.52-38.291-49.48l-.773-1.62c5.839 3.86 6.682 11.65 11.947 10.16-8.667-13.43-13.483-23.9-20.112-38.42 2.076-2.13 1.872-1.94 4.737-3.28"/><path fill="#312723" d="M847.674 1663.71c5.839 3.86 6.682 11.65 11.947 10.16 3.189 2.26 19.012 22.21 22.606 26.73.929 10.55 2.06 5.51 4.511 14.21-5.567-5.42-35.602-43.52-38.291-49.48z"/><path fill="#f1f1f1" d="M857.448 1643.53c6.367 4.58 12.264 9.47 18.705 14 8.204 22.29 17.359 43.82 25.76 65.94-2.299-2.71-6.191-7.05-8.218-9.73.26-5.94-16.722-46.86-19.83-56.04-3.575-2.39-15.237-10.47-16.417-14.17"/><path fill="#cecfd5" d="M831.644 1620.38c4.813 4.93 7.042 7.37 12.602 11.79-2.865 1.34-2.661 1.15-4.737 3.28z"/><path fill="#382c29" d="M443.949 820.395c.191.278.489 1.829.582 2.232-1.605 2.994-15.376 20.654-18.172 23.815-6.772 7.655-29.728 43.984-36.919 46.865-27.039 10.833-60.685 24.514-89.012 30.194l-.706-1.204c1.357-1.519 16.377-11.934 18.687-13.525 23.303-16.055 103.491-80.625 125.54-88.377"/><path fill="#85868e" d="M421.236 840.477a434 434 0 0 1-7.394 11.841c-2.965 4.836-5.604 8.833-9.264 13.179a129 129 0 0 1-2.045 2.949c-3.05 5.723-7.494 10.4-10.654 15.748-5.531 7.799-53.385 21.467-65.287 25.693 5.347-4.293 26.736-20.592 32.117-23.576.558-1.087.485-.998 1.597-1.474 2.712-2.243 4.445-3.428 7.378-5.43 1.405-1.403 1.778-1.739 3.522-2.653a383 383 0 0 1 11.513-8.345c1.833-1.805 5.975-4.848 8.253-5.903 10.223-7.232 19.857-14.876 30.264-22.029"/><path fill="#b1b1b7" d="M337.896 903.555c19.11-5.926 35.51-11.849 53.983-19.361-5.531 7.799-53.385 21.467-65.287 25.693 5.347-4.293 26.736-20.592 32.117-23.576-1.278 1.875-1.611 2.528-3.404 3.934a753 753 0 0 1-17.409 13.31"/><path fill="#cecfd5" d="M421.236 840.477a434 434 0 0 1-7.394 11.841c-.18-1.181-.161-2.352-.365-3.517l-.864.551.21-.161c-5.548 3.726-15.375 12.631-21.851 13.315 10.223-7.232 19.857-14.876 30.264-22.029"/><path fill="#b1b1b7" d="M382.719 868.409c-1.164 3.967-7.41 8.069-11.513 8.345a383 383 0 0 1 11.513-8.345"/><path fill="#b1b1b7" d="M367.684 879.407c-.971 3.77-3.705 5.053-7.378 5.43 2.712-2.243 4.445-3.428 7.378-5.43"/><path fill="#b1b1b7" d="M402.533 868.446c-1.719-1.57.18-4.417 2.045-2.949a129 129 0 0 1-2.045 2.949"/><path fill="#262931" d="M1655.58 1154.17c19.22-6.58 38.41-13.26 57.56-20.05 10.35-3.62 25.39-9.25 35.83-11.79-17.91 14.72-39.35 29.5-58 43.72-11.72 8.94-35.9 28.82-47.96 35.33-4.14 3.84-10.02 7.63-14.58 10.93 1.57-4.36 1.44-4.31 1.77-9.1-1.56-2.56 1.59-5.31 3.52-6.99l-.12-1.61c1.73-1.92 2.71-3.09 4.08-5.36-.96-2.46-1.24-3.24-1.94-5.82 2.3-3.9 5.15-7.45 8.02-10.94 3.84-6.17 7.78-12.28 11.82-18.32"/><path fill="#85868e" d="m1696.65 1145.41 1.56.08c4.21.31 8.67-3.82 10.29.09-2.87 2.48-8.32 7.31-11.56 8.93-2.88 2.22-5.23 4.07-8.29 6.08-2.6 2.5-14.76 11.97-17.89 13.73-3.24 2.58-6.13 4.74-9.45 7.23-2.44 2.6-7.63 6.14-10.77 8.02-1.44 1.1-2.73 2-4.21 3.03-2.16 1.98-3.89 3.1-6.39 4.64-3.52.16-3.9 1.43-6.22-1.02l-.12-1.61c1.73-1.92 2.71-3.09 4.08-5.36-.96-2.46-1.24-3.24-1.94-5.82 2.3-3.9 5.15-7.45 8.02-10.94.69 1.23.56 1.48.93 2.7.45-.15 3.1-1.73 4.08-2.16 2.64-2.89 5.62-7.95 8.59-11.5 1.47-1.67 2.07-2.5 4.19-3.33 4.33-1.71 8.7-3.31 13.11-4.81 2.75-1.81 18.5-7.38 21.99-7.98"/><path fill="#382c29" d="M1643.76 1172.49c.69 1.23.56 1.48.93 2.7.45-.15 3.1-1.73 4.08-2.16-3.23 5.16-7.4 11.43-11.09 16.22-.96-2.46-1.24-3.24-1.94-5.82 2.3-3.9 5.15-7.45 8.02-10.94"/><path fill="#b1b1b7" d="M1674.66 1153.39c-1.46 3.16-13.92 8.1-17.3 8.14 1.47-1.67 2.07-2.5 4.19-3.33 4.33-1.71 8.7-3.31 13.11-4.81"/><path fill="#cecfd5" d="M1688.65 1160.59c-2.02-2.45 5.9-5.81 8.29-6.08-2.88 2.22-5.23 4.07-8.29 6.08"/><path fill="#cecfd5" d="M1661.31 1181.55c.75-3.63 5.85-6.96 9.45-7.23-3.24 2.58-6.13 4.74-9.45 7.23"/><path fill="#cecfd5" d="M1646.33 1192.6c.55-1.89 1.94-4.96 4.21-3.03-1.44 1.1-2.73 2-4.21 3.03"/><path fill="#312723" d="M1631.3 1203.19c3.22-.32 6.65-.46 9.78-1.32l1.93-.49c-4.14 3.84-10.02 7.63-14.58 10.93 1.57-4.36 1.44-4.31 1.77-9.1z"/><path fill="#cecfd5" d="M1718.48 1138.09c-3.27 2.54-6.88 5-9.98 7.49-1.62-3.91-6.08.22-10.29-.09l-1.56-.08c7.65-3.07 13.93-4.98 21.83-7.32"/><path fill="#b1b1b7" d="M1633.72 1196.22c2.32 2.45 2.7 1.18 6.22 1.02-3.01 1.8-5.89 3.78-8.64 5.95l-1.1.02c-1.56-2.56 1.59-5.31 3.52-6.99"/><path fill="#262931" d="M1635.74 1183.43c.7 2.58.98 3.36 1.94 5.82-1.37 2.27-2.35 3.44-4.08 5.36l.12 1.61c-1.93 1.68-5.08 4.43-3.52 6.99-.33 4.79-.2 4.74-1.77 9.1-.47.34-.93.68-1.4 1.02a253 253 0 0 1-24.17 14.58c-1.63.86-3.26 1.71-4.91 2.55 8.04-13.49 26.64-34.1 37.35-46.62z"/><path fill="#312723" d="M1635.74 1183.43c.7 2.58.98 3.36 1.94 5.82-1.37 2.27-2.35 3.44-4.08 5.36-.16-4.99.98-5.97 1.7-10.77z"/><path fill="#382c29" d="M1451.98 1391.57c2.34-2.88 5.29-6.38 7.99-8.89 2.36 3.62 2.62.86 3.69 5.61 1.53-.4 3.06-.78 4.6-1.13.2 2.22.24 2.7.7 4.83-9.56 2.79-19.72 7.49-29.24 10.81 2.45-2.31 9.86-9.41 12.26-11.23"/><path fill="#593b2a" d="M1451.98 1391.57c2.34-2.88 5.29-6.38 7.99-8.89 2.36 3.62 2.62.86 3.69 5.61-3.08 1.36-8.28 2.4-11.68 3.28"/><path fill="#7a4c2e" d="M1529.3 1217.12c5.07 2.31 3.49 4.23 8.12 1.9l2.07 2.97c2.6 2.83 4.89 5.73 7.49 8.62l-1.19 1.35c-.98 1.17-1.91 2.21-3.16 3.09-.73-1.55-1.54-2.8-2.58-4.17l-1.13-1.54c-3.75-4.41-6.33-7.38-9.62-12.22"/><path fill="#7a4c2e" d="M585.544 655.398c3.064-1.236 6.119-1.763 9.134-.37-2.266 2.576-12.203 15.136-13.856 16.082-.964-4.613 4.081-1.101.636-9.12 1.562-2.654 2.95-3.633 4.086-6.592"/><path fill="#7a4c2e" d="m1376.3 576.062.92-.067c1.39 2.112 1.43 1.956 3.35 3.838l1.01 1a99 99 0 0 0-2.44 4.872c-2.13-2.302-4.85-4.094-6.36-5.885 2.13-1.595 2.1-1.454 3.52-3.758"/><path fill="#593b2a" d="m1472.36 1146.58 3.21-3.67c1.39 1.86 2.8 3.72 4.22 5.56l-2.21 4.88c-1.85-2.24-3.45-4.49-5.22-6.77"/><path fill="#7a4c2e" d="M1473.08 534.992c2.42 2.079 4.82 4.076 7.23 6.186l-2.97 3.839z"/></svg>