<svg xmlns="http://www.w3.org/2000/svg" width="2048" height="2048" viewBox="0 0 2048 2048"><path fill="#24232a" d="M0 0h2048v2048H0z"/><path fill="#020202" d="M1023.36 97.72c2.22 4.874 7.72 33.56 10.37 42.306a305 305 0 0 0 73.33 123.451c36.22 36.479 83.93 63.653 136.47 63.601 36.41.26 71.35-14.334 96.76-40.412 29.54-30.036 38.93-61.074 38.72-102.227 38.98 56.043 76.37 113.469 115.3 169.571 9.31 13.406 18.77 26.718 27.57 40.459-21.29 7.336-43.7 21.833-60.03 36.96-18.45 17.089-38.18 48.463-37.89 74.278.19 16.539 2.19 40.401 3.22 57.726l7.16 117.101 17.52 300.603c1.65 25.383 3.15 53.103 4 78.483 1.01 30.08-1.94 53.53 4.52 84.12a166.2 166.2 0 0 0 44.75 82.07 176.14 176.14 0 0 0 124.55 52.24c-21.43 61.72-58.96 143.21-94.53 197.25a551.8 551.8 0 0 1-196.63 178.14c-22.26 12.01-46.27 22.73-69.49 32.8-126.7 54.94-213.53 125.3-245.29 265.72-4.57-16.97-7.74-31.78-13.43-48.51-44.943-132.01-154.82-182.27-272.447-234.83-170.323-76.11-259.278-219.07-320.667-390.4a190.5 190.5 0 0 0 68.528-14.07 173.17 173.17 0 0 0 92.632-93.57 164.2 164.2 0 0 0 10.916-45.07c3.057-31.63 1.506-71.91 3.177-105.71l14.085-238.048 12.073-187.309c1.789-27.595 4.146-56.342 5.252-83.75 1.469-36.379-27.126-73.476-55.355-93.287-14.316-10.047-27.482-15.914-43.345-22.408 8.116-14.308 29.909-44.075 39.762-58.732 34.141-50.785 70.211-100.938 103.17-152.555-.296 29.465 3.461 53.101 19.476 78.589a136.8 136.8 0 0 0 85.762 61.316c45.252 9.985 89.671-2.937 127.587-27.779 54.915-35.98 94.326-95.738 112.944-158.118 3.97-13.316 6.52-26.496 9.5-39.998"/><path fill="#e9e9ea" d="M1024.26 244.295c40.34 64.124 99.33 121.294 175.34 137.879 80.72 17.61 144.9-10.87 194.65-74.198 13.12 23.246 31.64 50.64 46.38 73.469-11.69 8.256-20.78 16.832-31.44 26.299-5.23 5.082-10.44 10.19-15.62 15.326-35.56 34.717-61.71 57.104-111.58 68.515l-.07 446.611c18.13 6.997 55.47 21.784 71.38 32.301 5.56 3.731 11.12 7.216 16.09 11.694 12.77 10.268 19.4 19.289 28.55 32.729-.24 67.48-5.54 131.32 24.84 193.53a221.7 221.7 0 0 0 128.15 112.07c-23.74 52.74-45.67 102.28-81.3 148.35-48.35 62.51-105.11 102.36-174.11 139.6-33.27 17.96-63.69 29.67-97.02 45.6-63.31 30.26-139.65 89.28-173.98 152.15-10.72-19.28-27.789-37.94-42.654-53.85-58.201-63.07-132.253-100.55-209.83-134.54-134.471-58.92-224.407-160.81-275.474-297.65 33.281-10.71 63.04-29.84 87.507-54.67 72.34-73.4 65.011-155.71 64.789-248.33 8.537-14.5 15.61-23.54 27.994-34.935 4.93-4.309 10.598-7.963 16.115-11.445 18.736-12.645 50.565-24.02 72.441-32.356l-.198-447.434c-9.199-1.911-22.008-4.385-30.479-7.847-31.763-12.981-57.84-37.808-81.848-61.347a408 408 0 0 1-14.173-13.703l-33.154-28.24c16.212-23.517 31.599-48.21 47.442-72.096 72.891 99.325 193.108 100.627 288.254 30.181 34.835-25.791 59.868-57.43 83.008-93.663"/><path fill="#e9e9ea" d="M676.852 982.245c4.93-4.309 10.598-7.963 16.115-11.445-12.817 98.39 11.901 181.96-43.984 272.44a256.1 256.1 0 0 1-63.942 70.91c-11.947 9.18-25.643 17.7-38.764 25.14 51.641 125.3 150.89 206.14 272.136 258.23 71.93 30.9 156.526 81.63 205.787 143.76 64.97-79.96 142.02-115.98 233.6-158.43 108.87-50.47 194.51-132.88 243.44-243.37-65.44-36.2-109.69-84.01-131.16-157.48-16.4-56.11-8.33-108.04-11.3-165.16-.74-14.28-1.97-32.739-5.48-46.343 5.56 3.731 11.12 7.216 16.09 11.694 12.77 10.268 19.4 19.289 28.55 32.729-.24 67.48-5.54 131.32 24.84 193.53a221.7 221.7 0 0 0 128.15 112.07c-23.74 52.74-45.67 102.28-81.3 148.35-48.35 62.51-105.11 102.36-174.11 139.6-33.27 17.96-63.69 29.67-97.02 45.6-63.31 30.26-139.65 89.28-173.98 152.15-10.72-19.28-27.789-37.94-42.654-53.85-58.201-63.07-132.253-100.55-209.83-134.54-134.471-58.92-224.407-160.81-275.474-297.65 33.281-10.71 63.04-29.84 87.507-54.67 72.34-73.4 65.011-155.71 64.789-248.33 8.537-14.5 15.61-23.54 27.994-34.935"/><path fill="#ca8534" d="M676.852 982.245c4.93-4.309 10.598-7.963 16.115-11.445-12.817 98.39 11.901 181.96-43.984 272.44a256.1 256.1 0 0 1-63.942 70.91c-11.947 9.18-25.643 17.7-38.764 25.14 51.641 125.3 150.89 206.14 272.136 258.23 71.93 30.9 156.526 81.63 205.787 143.76 64.97-79.96 142.02-115.98 233.6-158.43 108.87-50.47 194.51-132.88 243.44-243.37-65.44-36.2-109.69-84.01-131.16-157.48-16.4-56.11-8.33-108.04-11.3-165.16-.74-14.28-1.97-32.739-5.48-46.343 5.56 3.731 11.12 7.216 16.09 11.694 1.41 12.068 3.22 24.379 3.67 36.479 2.14 56.69-5.44 112.32 12.99 167.38 22.92 68.46 70.05 115.96 133.71 148.12-66.24 153.09-169.72 226.88-317.36 290.96-71.76 31.14-130.21 78.11-178.02 140.15-8.79-11.58-18.01-23.88-28.105-34.32-47.545-49.19-108.144-84.51-169.418-113.75-26.714-12.75-53.574-24.16-79.498-38.31-103.36-56.44-174.815-137.32-219.92-245.38 22.314-10.08 51.541-31.04 68.999-47.65 49.627-47.21 74.691-110.71 77.247-178.41.385-25.02.467-50.27.135-75.3-.228-17.19 2.632-33.233 3.032-49.915"/><path fill="#e9e9ea" d="M1024.26 244.295c40.34 64.124 99.33 121.294 175.34 137.879 80.72 17.61 144.9-10.87 194.65-74.198 13.12 23.246 31.64 50.64 46.38 73.469-11.69 8.256-20.78 16.832-31.44 26.299-5.23 5.082-10.44 10.19-15.62 15.326 1.06-14.037 2.57-28.52 3.84-42.58l-7.34-11.208a192 192 0 0 1-13.2 12.232c-41.41 35.159-99.24 49.617-152.53 44.161-83.98-8.599-147.93-51.237-200.55-113.865a469 469 0 0 1-18.8 21.238c-65.841 69.656-167.363 111.495-262.483 84.816-32.594-9.142-60.166-24.369-84.572-47.738l-7.97 10.395c1.105 12.034 3.049 29.54 2.918 41.295a408 408 0 0 1-14.173-13.703l-33.154-28.24c16.212-23.517 31.599-48.21 47.442-72.096 72.891 99.325 193.108 100.627 288.254 30.181 34.835-25.791 59.868-57.43 83.008-93.663"/><path fill="#ca8534" d="M655.98 346.004c104.729 121.483 289.751 59.835 367.88-59.463 68.83 104.094 216.62 168.537 330.84 94.157 14.58-9.491 26.1-21.673 37.72-34.5 5.49 8.859 14.03 23.468 19.96 31.44-.76 5.182-4.53 26.614-3.19 30.106-5.23 5.082-10.44 10.19-15.62 15.326 1.06-14.037 2.57-28.52 3.84-42.58l-7.34-11.208a192 192 0 0 1-13.2 12.232c-41.41 35.159-99.24 49.617-152.53 44.161-83.98-8.599-147.93-51.237-200.55-113.865a469 469 0 0 1-18.8 21.238c-65.841 69.656-167.363 111.495-262.483 84.816-32.594-9.142-60.166-24.369-84.572-47.738l-7.97 10.395c1.105 12.034 3.049 29.54 2.918 41.295a408 408 0 0 1-14.173-13.703c-.904-11.206-1.731-18.941-3.582-30.096 7.39-10.863 14.083-20.756 20.852-32.013"/><path fill="#020202" d="M1023.83 909.05c-.7-7.314-1.65-72.681-.25-77.738l.64-.197-.04-.125c1.12.796.81 2.625.69 3.719 26.1 99.486 132.91 147.262 225.08 167.511-8.99 99.33 6.15 217.15 71.82 296.48 20.07 24.25 46.55 44.5 69.08 66.42-33.57 39.22-53.95 58.84-96.9 88.79-76.53 53.37-165.59 81.35-232.46 148.13-14.12 14.11-25.97 29.42-37.59 45.52z"/><path fill="#a5a4a8" d="M1023.83 909.05c-.7-7.314-1.65-72.681-.25-77.738l.64-.197-.04-.125c1.12.796.81 2.625.69 3.719-2.15 11.172-.24 59.633-1.04 74.341"/><path fill="#020202" d="M1081.9 452.364c37.74 25.005 63.76 35.982 108.28 42.931l-.17 420.219c-3.19-2.322-11.21-9.83-14.77-12.896a420 420 0 0 0-26.56-21.033c-21.67-15.802-44.24-27.829-66.72-42.234z"/><path fill="#020202" d="m964.164 453 .422.427c1.799 5.4.722 71.917.761 82.298l.163 303.46c-36.235 20.415-77.128 44.71-105.883 74.779-.449.584-.052.172-1.76 1.383-1.141-3.181-.466-64.693-.49-72.744l-.268-346.822c40.147-5.226 74.029-20.047 107.055-42.781"/></svg>