<svg xmlns="http://www.w3.org/2000/svg" width="2048" height="2048" viewBox="0 0 2048 2048"><path fill="#212128" d="M0 0h2048v2048H0z"/><path fill="#1dc6bf" d="M294.61 284.223c16.485-.901 38.206-.279 55.291-.287l106.092.005 322.534-.038 975.173.134c-40.5 27.59-85.59 53.733-126.92 79.813-72.89 45.998-130.69 72.763-151.02 164.6-12.77 57.747-21.05 118.64-38.99 174.831-26.21 82.068-71.97 159.483-145.48 207.317-51.93 34.484-125.1 48.489-146.16 114.122 21.35 58.26 103.09 80.47 152.84 114.52 98.9 65.94 139.23 179.29 161.72 290.73 12.97 64.29 16.69 145.24 71.1 190.37 20.82 17.27 43.32 30.76 66.19 45.36 34 21.61 68.15 43 102.44 64.15 17.04 10.62 36.63 22.24 53.07 33.45-1.87 1.41-5.06.95-7.98 1.06l-1449.668.03a5789 5789 0 0 1 88.787-56.55c43.891-26.87 119.887-69.29 152.191-106.6 42.526-52.47 44.096-131.45 58.403-194.34 24.89-109.41 70.05-215.19 170.257-275.31 40.61-24.36 93.968-40.89 124.255-78.56 6.609-8.22 11.464-21.14 14.848-31.14-18.519-59.971-94.438-78.674-144.901-111.427-103.959-65.2-145.764-185.604-169.055-299.995-9.981-49.019-16.787-117.412-48.662-158.224-29.642-37.952-88.329-69.193-130.279-95.314a7553 7553 0 0 1-116.076-72.707"/><path fill="#212128" d="m374.27 306.546 1298.68.344-95.9 60.058c-75.22 47.501-112.78 86.581-128.47 175.617-22.87 129.784-51.37 273.05-171.87 348.933-61.05 38.445-131.95 51.572-155.92 132.142 13.68 47.83 51.05 72.31 92.15 95.47 20.11 11.34 40.05 19.64 59.9 31.74 123.8 75.44 154.04 221.55 176.39 353.65 9.11 53.9 31.01 109.37 77.17 142.46 46.89 33.26 98.29 62.46 146.48 94.28l-750.027.51-215.427.05-61.872-.01c-7.073-.02-25.674-.5-31.972.21-23.225-.88-50.5-.25-74.003-.26l-132.887-.29-31.932-.15c49.325-32.43 103.775-61.48 150.517-97.1 73.718-56.2 74.277-153.06 92.7-235.21 21.864-97.26 63.618-196.95 150.945-252.89 39.924-25.8 85.617-40.55 122.079-71.62 19.375-16.52 28.003-36 36.282-59.65-7.535-39.122-29.193-60.402-61.888-82.258-32.552-21.76-67.729-34.034-101.078-56.625-99.491-67.396-133.17-184.805-154.98-296.469-11.854-60.689-18.671-122.32-65.144-169.338-12.245-12.389-32.318-27.509-47.268-37.201-40.308-26.131-81.905-50.766-122.655-76.393"/><path fill="#eae9e9" d="M1106.66 376.95c58.11-1.307 117.91-.72 176.05-.772 59.03-.052 118.78-.642 177.76-.019-21.23 18.915-32.43 33.642-47.13 57.797-34.05 55.942-37.52 109.792-49.74 172.21-15.14 74.064-39.82 151.505-95.76 205.324-20.34 19.029-48.28 34.389-73.61 45.748-68.25 30.608-136.77 86.566-143.58 166.092-4.34 50.74 48.71 104.98 86.75 132.78 6.62 4.84 20.23 11.66 25.34 16.25 15.91 7.17 71.77 35.09 83.22 44.22 8.25 4.29 18.93 14.31 25.5 21.01 64.15 65.4 86.08 158.95 100.65 246.38 11.88 71.23 25.76 135.84 81.87 187.19-113.56.98-227.61-1.3-340.76.16l-155.695.68-50.033.26c-6.36.03-21.543.39-27.237-.29-31.081 1.5-70.047.46-101.993.56l-188.744.18c74.789-66.24 79.683-154.75 98.09-244.79 10.814-52.9 30.2-108.13 60.11-153.43a213.5 213.5 0 0 1 53.946-56.12c50.086-35.16 114.218-49.72 156.652-102.02 21.274-25.66 36.88-52.61 36.818-85.99-.156-82.619-69.057-134.93-135.755-170.359-21.63-11.489-44.432-20.155-64.557-37.531l-.886-.778c-62.298-43.542-95.737-153.93-109.807-224.577-11.148-55.977-14.724-107.455-42.754-159.224-15.951-29.458-25.669-38.054-48.765-61.029l354.534.092 95.376-.104c19.05-.14 45.58-1 64.14.1"/><defs><linearGradient id="a" x1="1479.61" x2="1120.456" y1="1602.423" y2="1434.778" gradientUnits="userSpaceOnUse"><stop offset="0" stop-color="#aaa7aa"/><stop offset="1" stop-color="#d2d0d0"/></linearGradient></defs><path fill="url(#a)" d="M1245.96 1216.58c8.25 4.29 18.93 14.31 25.5 21.01 64.15 65.4 86.08 158.95 100.65 246.38 11.88 71.23 25.76 135.84 81.87 187.19-113.56.98-227.61-1.3-340.76.16l-155.695.68-50.033.26c-6.36.03-21.543.39-27.237-.29 4.226-2.24 14.75-.43 19.162-1.11 17.875-2.77 124.003.69 132.013-5.43l-3.82-1.41c-.41-3.5 2.56-14.02 4.31-16.96l2.41.69 1.45-.9-.07-1.08-3.76-.66c-1.84-3.32-1.42-1.55-.97-5.59 8.02-1.56 10.33-6.67 11.73-14.2l-2.32-.18-1.01-1.31c-.05-5-.34-13.96 2.07-18.11 3.34 4.65 2.25 3.53 7.02 5.96l-.31 2.46.93-1.05c.24-7.18 3.29-8.62 2.51-15.1 1.26-2.8 1.07-2.68 3.63-4.35l2.22 1.51 1.92-.91c-4.26-7.62 2.08-8.45 3.54-12.35-1.71-1.4-2.23-1.94-3.72-3.59.34-2.63-.24-1.55 1.64-3.28 11.91 1.03 6.16-13.87 11.7-23.5h2.8c5.83-4.25-1.38-12.16 3.28-18.9l2.36.83c.88-3.08 2.04-8.62 3.99-10.83 3.47-.04 5.14.25 8.25-1.35 2.06-2.43 2.24-6.84 2.08-9.93-.38-7.44 8.6-1.37 9.87-6.26 1.68-6.47-2.03-16.22 2.45-21.24.89 1.76 1.13 2.19 2.3 3.78 4.58-.05 5.17.12 9.34-1.44 1.71-4.38-1.01-7.72.52-14.22 1.96-.68 11.36-4.45 11.26-5.79-.48-6.06 3.66-39.91 5.74-42.69l5.69-.01 1.26-1.31c-1.5-1.07-2.98-2.16-4.44-3.28-.73-2.98-.92-1.61.58-4.26 4.79-1.49 9.61-2.88 14.45-4.18a87 87 0 0 1-3.69-3.27c-.67-4.53-1.44-6.61.05-10.74 1.32 1.37.59.71 2.23 1.96 3-1.51 3.2-1.42 5.54-3.99-.74-2.32-.95-3.26-1.39-5.66 1.18-2.79 4.22-5.31 7.31-4.85 1.63 4.85-.68 8.64 1.14 11.41l1.3-.11c3.88-11.55-6.95-10.89 7.9-20.12 2.43-5.53-3.03-12.24 1.51-16.78l3.33.18.79-.81c.07-2.62.05-3.18-.47-5.67l-.43-1.98c2.65-5.37 14.54-4.25 16.2-10.98a45 45 0 0 0-4.28-2.84c.33-3.03 5.25-7.75 7.55-10.35l-.6-.85c-2.9-.07-5.16.21-7.64-1.18.06-5.06 10.41-18.24 12.55-23.15 2.16-4.99 2.31-14.27 4.43-19.78.97-2.52 3.59-2.56 7.27-4.27 2.48-5.39-3.01-14.32 5.92-16.12 8.77-1.76 9.42-8.23 14.43-14.89l.69-.91c-.6-2.94-1.08-2.48-3.91-4.96-.97-2.83 4.3-4.09 6.92-9.7l-.68-1.28-2.59-.22-.26-1.49c1.89-3.02 2.76-4.16 5.01-6.94 2.05-.86 1.1-.33 2.85-1.58z"/><defs><linearGradient id="b" x1="574.12" x2="852.335" y1="420.172" y2="568.024" gradientUnits="userSpaceOnUse"><stop offset="0" stop-color="#aba8ac"/><stop offset="1" stop-color="#d2cfd0"/></linearGradient></defs><path fill="url(#b)" d="m592.61 376.862 354.534.092 95.376-.104c19.05-.14 45.58-1 64.14.1l-1.65 1.177c-37.24 1.1-76.47-.456-113.898.269-12.459.242-38.29-1.536-48.597-.133l-.474.568c4.587.179 3.525-.555 6.404 1.85 2.162 7.797-9.224 14.464-11.888 21.877-1.546 4.301-2.014 14.831-5.136 18.087-2.933.024-4.593-.59-6.109.912 1.807 1.723 1.767 1.65 3.783 3.064.071 2.691.315 1.324-2.012 4.029-6.212-.824-3.76-4.34-9.308-4.41l-.778 1.272c3.058 3.7 3.131 2.574 3.119 6.309-1.87 3.365-1.72 3.217-4.906 5.366l-1.985-.871c-.839 15.947-9.816 11.005-12.57 20.331l-1.841.637-1.039-.599-.613 6.151c-1.566 1.079-1.527.974-3.282 1.741-3.195 5.484.527 6.123-1.886 11.954l-3.129.698c-2.487 4.195-5.135 9.198-8.35 12.747.288 2.426.828 4.343.233 6.552l-3.251.355c-3.551 4.712 1.621 8.109-.936 13.243-4.947.136-5.954-1.128-9.977 1.397-4.919 3.086-.546 23.262-4.082 25.35l-.78-3.283c-3.154 3.017-2.244 3.06-5.862 3.805l-1.819-.727c-3.998 4.243-4.449 16.432-5.515 22.175-.771 4.156-8.556-.869-8.397 3.893.204 6.147 3.327 6.033-1.482 11.94-2.743.031-1.401.16-4.309-2.06l1.167.664-1.926-.466c-2.013 5.429-2.925 10.207-8.164 12.775-.401 4.309-.422 4.239 2.977 7.408.032 2.947.589 1.828-1.005 3.735-3.648.046-4.522-.598-7.008 1.096-.386 5.938 1.213 9.538-.703 13.701l-4.178 1.527.604 1.534-.41 1.756c-6.241 2.291-2.419-2.891-6.505.847l.073.885c.204 2.678.419 3.426-.41 6.031-2.038.822-1.919.809-4.111.894-1.5 3.37-1.261 1.66-.735 5.317l3.173 4.164c-1.766 6.835-12.59 11.609-14.447 16.88-1.44 4.085 2.768 16.911-1.242 20.993l-3.069 1.208.027 1.488a92 92 0 0 1-.084 5.019c-3.368 2.096-9.704-1.939-10.053 7.325-.872 23.199-5.757 13.61-13.406 21.317-.888 3.035-.697 3.622-.639 6.741-1.71 2.682-5.538 4.194-8.075 6.091l-.169 5.392c-3.772 4.182-8.976 9.442-12.789 13.354-2.8.195-3.463.182-5.868 1.624l1.634.894c.083 2.336.43 1.286-1.102 3.131l-1.148.385c2.897 11.501 25.811 40.671 34.111 50.096 4.957 5.63 21.643 20.575 23.078 25.27-62.298-43.542-95.737-153.93-109.807-224.577-11.148-55.977-14.724-107.455-42.754-159.224-15.951-29.458-25.669-38.054-48.765-61.029"/><path fill="#d2d1d1" d="M1162.74 1172.36c15.91 7.17 71.77 35.09 83.22 44.22l-2.67 1.94c-1.49-1.21-.61-.51-2.27-.59-2.79-.13-2.42-3.4-3.11-4.21-1.42.16-.49 2.67-3.53-.25.24 5.3-4.07 2.66-2.61.1.62-1.07.93-1.44.84-2.61-2.81-3.98-33.74-17.06-38.92-20.53-8.44-5.64-26.38-9.86-30.95-18.07"/><path fill="#d2d1d1" d="M871.65 511.362c2.857 4.784 5.552 3.379 4.092 8.316-6.32-.286-4.29-.089-4.092-8.316"/><path fill="#d2d1d1" d="M1015.26 1658.51c1.99 3.9 1.49 4.01-2.21 6.04l-1.46 1c-1.63-5.38-1.8-5.45 3.67-7.04"/><path fill="#d2d1d1" d="M1164.88 1365.25c.96-.45 2.1-.2 2.77.61.68.81.73 1.98.13 2.84-.57.8-1.57 1.17-2.52.91a2.328 2.328 0 0 1-.38-4.36"/><path fill="#d2d1d1" d="M956.971 379.924c.563-.391 1.133-1.007 1.819-1.141.149.368-.064.71-.281 1.421-.289.424-.651 1.211-1.171 1.441-.357-.411-.309-1.232-.367-1.721"/><path fill="#d2d1d1" d="M1128.58 1454.54c.43-.24 1.11-.8 1.67-.74-.07.31-.14.63-.2.95l-.35.94c-.39.29-.8.78-1.29.77-.06-.71.04-1.15.17-1.92"/><path fill="#d2d1d1" d="m1070.35 1541.75 1.32-.33c.04.49-.36 1.06-.56 1.49-.7.32-.44.26-.84.3-.13-.61-.06-.69.08-1.46"/><path fill="#d2d1d1" d="m918.544 437.602 1.309-.176c.139.435.001 1.01-.036 1.418-.791.09-.496.098-.952.038-.367-.36-.263-.611-.321-1.28"/><path fill="#d2d1d1" d="M849.058 566.881c1.007-.343.7-.357 1.518.387-1.212.22-.853.494-1.518-.387"/><path fill="#d2d1d1" d="M1169.66 1360.38c.63-.13.42-.13.73-.07.26.24.11.05.4.76-.82.01-.57.07-.92-.08-.17-.22-.09-.05-.21-.61"/><path fill="#d2d1d1" d="M835.885 578.96c.533.087.224.009.906.305-.414-.085-.596-.059-.906-.305"/><path fill="#d2d1d1" d="M843.885 574.96c.533.087.224.009.906.305-.414-.085-.596-.059-.906-.305"/><path fill="#d2d1d1" d="M854.885 560.96c.533.087.224.009.906.305-.414-.085-.596-.059-.906-.305"/><path fill="#d2d1d1" d="M843.885 568.96c.533.087.224.009.906.305-.414-.085-.596-.059-.906-.305"/><path fill="#d2d1d1" d="M826.134 600.391c1.303.962.861 1.53.702 3.223-1.262-.972-.837-1.571-.702-3.223"/></svg>