<svg xmlns="http://www.w3.org/2000/svg" width="2048" height="2048" viewBox="0 0 2048 2048"><path fill="#252833" d="M0 0h2048v2048H0z"/><path fill="#020010" d="M996.804 345.253c374.836-15.218 691.006 276.385 706.086 651.228 15.09 374.839-276.63 690.909-651.48 705.859-374.657 14.94-690.525-276.6-705.601-651.25-15.076-374.655 276.347-690.627 650.995-705.837"/><path fill="#bec1cd" d="M957.139 380.478c32.31-2.49 89.131-5.562 121.251-.547 15.51.513 29.6 2.875 44.86 5.254 9.66-.185 43.57 7.658 53.73 10.048a652.3 652.3 0 0 1 296.47 161.576A646.7 646.7 0 0 1 1668 928.948c-9.97-.287-62.15 5.707-68.24.219-3.47-10.674-7.12-29.88-9.24-41.269-21.4-81.626-49.65-148.092-101.06-216.284-96.43-127.936-240.15-211.85-398.97-232.952.02 4.524-.2 23.545.7 27.411 2.84 12.212 7.68 27.101 11.43 39.366l27.09 85.624c14.96 4.108 31.99 10.02 46.54 15.332 7.69 1.095 27.98 10.478 35.45 13.896a444.9 444.9 0 0 1 171.52 138.814c32.28 43.051 67.11 111.088 77.2 164.208 9.74 2.434 49.19 14.423 57.8 18.03 15.59 3.579 51.74 15.395 67.85 20.982 22.31-1.13 50.88-.367 73.65-.474l12.12.017c5.6 37.162 3.56 89.622-.11 126.752-13.67.34-26.14 1.17-40 1.14-11.96-.02-35.96-.79-46.3.99-11.55 1.99-33.21 9.36-45.25 13.08l-80.42 24.82c-31.48 121.02-100.06 213.38-208.45 276.84a418.2 418.2 0 0 1-119.82 47.42l-24.73 80.59c-2.84 9.31-9.51 29.62-11.16 38.58-1.5 8.16-.45 31.18-.26 40.41.5 19.12.69 38.25.6 57.37-37.03 3.14-66.57 5-103.979 3.07a643.5 643.5 0 0 1-381.453-153.74 646.9 646.9 0 0 1-110.572-120.67c-4.57-6.46-14.669-20.71-17.69-27.47-49.901-80.36-81.975-160.46-94.562-255.03q31.237-.195 62.473-.03c39.798 255.54 245.688 444.63 498.325 482.87l8.544.89c.355-7.86-.349-17.22.708-24.67-10.437-34.18-26.12-81.07-34.068-114.84-1.393-2.81-2.46-7.09-3.39-10.21-52.425-14.95-98.38-32.81-143.922-63.55-86.861-58.62-161.627-159.32-182.387-262.72-8.47.6-108.632-34.55-125.505-36.84-20.589-2.79-43.417-1.32-64.343-2.5-6.046-.34-15.197.05-20.881-1.29l-1.44-2.41c.415-4.43.099-9.83-.322-14.33-3.396-36.2-2.635-69.95 2.031-106.136 28.892.578 61.195-.917 90.701-1.048 9.262-1.636 45.286-13.272 55.718-16.573 15.591-4.933 49.015-13.582 62.885-19.304 11.559-43.405 21.461-72.629 43.529-112.522a444.16 444.16 0 0 1 225.394-199.426c20.148-8.095 36.54-12.842 57.527-18.852 9.665-28.909 17.913-59.573 27.953-88.491 1.819-5.238 7.418-24.987 9.902-28.691 1.299-9.585.584-30 .403-40.339a2238 2238 0 0 1-.38-54.53"/><path fill="#020010" d="M827.101 1305.26c-.867-1.62-14.264-11.5-16.895-13.51-12.186-9.32-22.869-19.19-33.723-30.04a329.7 329.7 0 0 1-57.619-79.18c-42.046-80.14-53.036-173.49-25.605-260.198a356.96 356.96 0 0 1 175.847-207.575 342 342 0 0 1 256.424-23.026c10.01 2.951 19.81 6.094 29.48 10.015 9.45 3.831 19.36 9.664 29.02 12.573l1.77 1.003c15.56 8.641 29.47 17.457 43.84 28.058 7.71 5.686 15.41 13.17 22.87 18.477 16.53 17.301 27.41 25.474 43.74 45.532a343.44 343.44 0 0 1 75.97 220.331c-.39 18.15-2.49 34.15-4.86 52.13l2.44 3.75c-5.28 21.19-7.31 36.24-14.65 57.9a333.84 333.84 0 0 1-146.48 179.66c-25.58 15.34-76.01 36.97-105.73 41.15l-3.93-1.67a256 256 0 0 1-3.78.84c-97.8 20.95-185.796-2.68-268.129-56.22"/><path fill="#fafafc" d="m1367.36 1079.85 2.44 3.75c-5.28 21.19-7.31 36.24-14.65 57.9a333.84 333.84 0 0 1-146.48 179.66c-25.58 15.34-76.01 36.97-105.73 41.15l-3.93-1.67c36.93-5.14 93.54-32.92 124.27-54.31 79-55 126.77-132.61 144.08-226.48"/><defs><linearGradient id="a" x1="1258.995" x2="793.126" y1="1173.455" y2="873.486" gradientUnits="userSpaceOnUse"><stop offset="0" stop-color="#a1a5b2"/><stop offset="1" stop-color="#c5c8d3"/></linearGradient></defs><path fill="url(#a)" d="M986.353 738.877c54.807-7.65 106.417 1.448 156.767 23.627 4.62.349 15.14 6.038 19.42 8.431a287.9 287.9 0 0 1 80.9 66.02c48.32 56.578 73.32 130.951 67.88 205.445-.24 3.29-.52 7.64-1.28 10.8-.45 13.47-3.44 29.36-7.95 46.64-9.81 37.61-31.07 79.37-57.43 108.83-.26.15-.52.31-.78.46-20.22 27.66-77.57 68.62-110.91 78.48-19.22 9.1-52.29 16.16-73.58 18.66a282.2 282.2 0 0 1-152.274-23.45c-7.915-3.62-21.008-9.7-27.594-14.88-30.082-17.46-52.608-37.43-75.009-63.53-33.203-35.11-61.698-104.35-64.837-152.62-2.019-5.08-1.955-29.36-1.863-34.84a284.15 284.15 0 0 1 56.901-166.434 289.79 289.79 0 0 1 191.639-111.639"/><path fill="#fafafc" d="M739.676 1051.79c-2.019-5.08-1.955-29.36-1.863-34.84a284.15 284.15 0 0 1 56.901-166.434 289.79 289.79 0 0 1 191.639-111.639c-2.989 4.447-5.902 5.401-11.087 6.904l-.305.771 16.023-1.767 1.754 1.819c-9.987 1.352-33.178 5.822-42.853 9.915-65.945 20.074-127.486 68.206-162.662 127.49-25.869 42.202-36.192 79.365-41.424 128.081.099 1.54-.741 19.07-.967 19.87l-.27.2c-.753-.3-1.301-1.15-1.986-1.81.133 4.3-1.86 16.86-2.9 21.44"/><path fill="#8d919f" d="M739.676 1051.79c-2.019-5.08-1.955-29.36-1.863-34.84a284.15 284.15 0 0 1 56.901-166.434 289.79 289.79 0 0 1 191.639-111.639c-2.989 4.447-5.902 5.401-11.087 6.904l-.305.771c-78.811 14.822-139.748 51.233-185.529 118.229-21.427 31.356-47.436 95.906-45.582 133.674.679 6.045-.503 9.345 1.949 13.635.099 1.54-.741 19.07-.967 19.87l-.27.2c-.753-.3-1.301-1.15-1.986-1.81.133 4.3-1.86 16.86-2.9 21.44"/><path fill="#fafafc" d="M742.576 1030.35c.022-8.64-.352-23.79 1.274-31.895.679 6.045-.503 9.345 1.949 13.635.099 1.54-.741 19.07-.967 19.87l-.27.2c-.753-.3-1.301-1.15-1.986-1.81"/><path fill="#8d919f" d="M787.223 884.009c35.176-59.284 96.717-107.416 162.662-127.49 1.271 7.351-23.523 22.908-29.177 27.297-1.084.841.176 4.218-3.405 6.265-4.991-.347-3.776-.939-7.812.948-3.818 5.99-4.794 7.856-10.077 12.677-4.145.637-5.416.945-7.697 5.023-3.796 6.942-15 5.506-16.924 13.956-.66 2.896-2.618 4.467-4.951 5.778-16.299 9.193-29.309 20.391-42.184 33.925-2.036 2.141-14.044 6.756-14.395 7.384-6.849 12.23-10.008 11.947-23.279 17.182-1.893-1.094-1.778-.987-2.761-2.945"/><path fill="#a15119" d="M1143.12 762.504c4.62.349 15.14 6.038 19.42 8.431a287.9 287.9 0 0 1 80.9 66.02c48.32 56.578 73.32 130.951 67.88 205.445-.24 3.29-.52 7.64-1.28 10.8-.12-5.03.33-6.5-2.49-10.29l.04.7c-2.09-2.54-1.59-6.42-1.67-10 .04-54.976-7.94-106.845-37.52-154.573-7.1-17.923-39.07-55.551-54.02-67.922-10.61-12.292-37.29-29.683-51.64-37.737-5.04-2.825-16.13-8.125-19.62-10.874"/><path fill="#a15119" d="M1283.12 1132.61c13.13-21.9 19.79-72.68 22.8-99 .08 3.58-.42 7.46 1.67 10l-.04-.7c2.82 3.79 2.37 5.26 2.49 10.29-.45 13.47-3.44 29.36-7.95 46.64-9.81 37.61-31.07 79.37-57.43 108.83-.26.15-.52.31-.78.46l-5.1 1.87c-.01-2.44.39-3.7.85-6.09.62-1.42 12.93-16.84 15.09-19.98a277.3 277.3 0 0 0 28.4-52.32"/><path fill="#a15119" d="M879.522 1267.94c8.981 3.39 26.879 13.72 34.408 15.45 66.612 27.03 144.13 25.73 211.21.83 4.4.76 4.17.74 7.83 3.39-19.22 9.1-52.29 16.16-73.58 18.66a282.2 282.2 0 0 1-152.274-23.45c-7.915-3.62-21.008-9.7-27.594-14.88"/><path fill="#a15119" d="M1131.52 1281.27c42.95-14.55 77.74-43.87 108.11-76.36-.46 2.39-.86 3.65-.85 6.09l5.1-1.87c-20.22 27.66-77.57 68.62-110.91 78.48-3.66-2.65-3.43-2.63-7.83-3.39 1.92-.6 4.5-2.02 6.38-2.95"/><path fill="#fafafc" d="M1131.52 1281.27c1.43-1.66 41.67-22.71 48.98-27.59 32.94-21.98 56.77-46.79 79.05-79.6 9.13-13.43 14.74-28.58 22.53-39.99l1.04-1.48a277.3 277.3 0 0 1-28.4 52.32c-2.16 3.14-14.47 18.56-15.09 19.98-30.37 32.49-65.16 61.81-108.11 76.36"/><path fill="#bec1cd" d="M990.984 744.785c3.607-1.003 28.816-2.199 30.656-.93-.13.637 0 .463-.25.676-3.94.112-2.39-1.454-8.85.073-4.25 1.004-15.199 1.636-19.802 2z"/><path fill="#020010" d="M878.235 1138.22c-1.829-3.21-9.147-12.27-12.091-16.93-10.294-16.3-19.162-34.75-24.001-53.42a187.28 187.28 0 0 1 20.229-142.769c17.437-29.25 42.942-52.069 71.937-69.527 7.557-4.422 16.345-6.717 24.204-10.161 60.297-26.422 119.177-11.314 172.597 21.023l8.08 5.933c2.08 1.748 10.05 8.746 12.1 9.927 18.25 18.952 31.69 34.506 43.06 58.895 3.92 8.402 6.78 17.537 10.17 24.955 1.32 5.979 4.28 23.361 6.23 28.159 3.14 2.4 3.84 19.495 2.41 20.425-.43-.09-.13.01-1.02-.47l-.03 14.23c.39-2.01 1.04-7.16 1.82-8.65 5.28 37.03-15.22 87.8-37.4 117.56a174.46 174.46 0 0 1-82.97 61.29c-9.06 3.26-18.8 7.08-28.55 6.72-23.2 4.41-30.37 5.3-54.51 4.53-10.11-2.13-17.684-2.37-28.933-5.41-45.032-12.17-73.151-32.24-103.332-66.31"/><path fill="#fafafc" d="M1212.11 1028.49c.39-2.01 1.04-7.16 1.82-8.65 5.28 37.03-15.22 87.8-37.4 117.56a174.46 174.46 0 0 1-82.97 61.29c-9.06 3.26-18.8 7.08-28.55 6.72a191.8 191.8 0 0 0 80.05-40.5c41.64-35.85 63.12-82 67.05-136.42"/><path fill="#cdd0dc" d="M1210.75 994.305c3.14 2.4 3.84 19.495 2.41 20.425-.43-.09-.13.01-1.02-.47-.27-7.1-1.04-13.1-1.39-19.955"/><path fill="#cdd0dc" d="M986.446 895.203c30.944-9.923 68.144-5.885 96.634 9.26 5.51 2.932 16.03 9.335 20.11 13.844 11.67 9.571 23.88 22.879 30.58 36.526 10.39 10.243 18.52 48.477 18.61 64.277a129.52 129.52 0 0 1-37.14 90.5c-24.12 24.31-58 38.54-92.29 39-13.05.17-53.96-7.32-62.185-16.86-12.895-6.34-30.722-20.96-38.538-33.29-1.823-1.4-4.951-6.07-6.347-8.11-16.606-24.27-24.65-62.56-18.887-91.453 4.05-46.97 44.265-91.654 89.453-103.694"/><path fill="#fafafc" d="M1103.19 918.307c11.67 9.571 23.88 22.879 30.58 36.526-2.05.392-.93.314-3.39.072-1.64-3.168-2.62-6.121-5.58-7.819-7.81.382-39.9 36.61-47.46 44.935l3.63-1.221c-3.43 10.07-20.98 14.6-25.72 23.57-1.03 1.95-5.46 9.62-6.88 10.68-7.31 5.45-42.42 43.13-46.72 45.62l-1.29-.83c-2.334-11.03 43.34-50.86 52.01-59.54 17.52-17.524 31.06-41.559 52.18-54.694 7.59-4.725 5.35-1.591 7.48-10.493 3.98-2.336 2.04-3.906 7.26-6.023-1.55-6.157-13.03-12.971-17.58-19.35z"/><path fill="#fafafc" d="M986.446 895.203c10.581.673 23.224-1.672 34.514-1.609l.35.593 1.78-.09c-1.96-.263-25.487 5.689-30.069 7.187-35.844 11.715-68.15 35.994-83.84 71.048-1.374 3.07-12.061 34.348-11.285 33.878-.791-3.44-.772-3.93-.903-7.313 4.05-46.97 44.265-91.654 89.453-103.694"/><path fill="#fafafc" d="M922.227 1098.46c2.021.28 3.459.74 4.78 2.74 4.193 6.36 11.134 12.46 17.047 17.18 2.932 2.33 3.807 3.95 6.427 2.12 4.189-1.54-.768 6.88 8.441 7.72-.369-.04 7.198 1.07 1.843 3.53-12.895-6.34-30.722-20.96-38.538-33.29"/><path fill="#fafafc" d="M992.31 1079.14c.493 1.84-.294 3.24-1.961 3.3-3.984.16-.488 3.42-3.194 5.13-3.848 2.17-6.936 7.28-10.5 9.64-3.692 2.44-4.498 5.9-7.49 8.36-3.609 2.96-3.377 3.96-7.641 5.88-4.05-8.7 11.081-15.17 15.989-21.22 4.335-5.34 2.366-5.67 7.768-6.77 1.639-1.59-1.165-3.4 5.14-4.09z"/><path fill="#fafafc" d="M959.183 1113.88c.67.04.497.05.923.44-.317-.05-.633-.09-.95-.13z"/><path fill="#fafafc" d="M1139.19 872.369c1.1-3.313 2.68-5.91 5.69-7.848 2.64-2.284 5.31-3.753 7.94-6.237 1.8-3.505 4.06-.303 4.79-3.311 1.77-7.276 11.22-6.563 15.91-10.462 4.63-3.853 5.57-11.773 12.48-9.511-1.54 7.595-19.12 23.492-23.95 31.056-1.34 2.108-8.43 11.108-10.36 13.366-.02 1.153 1.36 1.579 1.94 2.519-.47.206-2.02.319-2.34.355-2.05-1.181-10.02-8.179-12.1-9.927"/><path fill="#fafafc" d="M1186 835c-.57-4.039-1.43-5.618 2.55-7.146.51 4.172 1.16 5.066-2.55 7.146"/><path fill="#fafafc" d="M1191.94 826.681c2.32-.428 2.71-.032 1.17 1.835l-1.5.232c-.27-.543.2-1.595.33-2.067"/><defs><linearGradient id="b" x1="1507.186" x2="463.209" y1="1416.507" y2="948.303" gradientUnits="userSpaceOnUse"><stop offset="0" stop-color="#767b8b"/><stop offset="1" stop-color="#e9ebf6"/></linearGradient></defs><path fill="url(#b)" d="M1485.11 936.715c-9.82-4.084-12.99-3.893-23.13-9.3l-.37-.946c16.25 1.999 40.99 14.017 56.61 14.874 15.59 3.579 51.74 15.395 67.85 20.982 22.31-1.13 50.88-.367 73.65-.474l12.12.017c5.6 37.162 3.56 89.622-.11 126.752-13.67.34-26.14 1.17-40 1.14-11.96-.02-35.96-.79-46.3.99-11.55 1.99-33.21 9.36-45.25 13.08l-80.42 24.82c-31.48 121.02-100.06 213.38-208.45 276.84a418.2 418.2 0 0 1-119.82 47.42l-24.73 80.59c-2.84 9.31-9.51 29.62-11.16 38.58-1.5 8.16-.45 31.18-.26 40.41.5 19.12.69 38.25.6 57.37-37.03 3.14-66.57 5-103.979 3.07a643.5 643.5 0 0 1-381.453-153.74 646.9 646.9 0 0 1-110.572-120.67c-4.57-6.46-14.669-20.71-17.69-27.47-49.901-80.36-81.975-160.46-94.562-255.03q31.237-.195 62.473-.03c39.798 255.54 245.688 444.63 498.325 482.87l8.544.89c.355-7.86-.349-17.22.708-24.67 2.485 7.58-2.935 20.45 2.392 26.1l1.895-.15 1.184-1.96c.523-27.63.527-23.82-7.131-49.38 3.28.78 5.112 15.01 8.517 16.02 6.746.85 13.605-16.15 16.3-20.83 5.452-10.02 10.929-5.15 11.453-17.95.08-1.95 13.276-19.32 14.746-22.2 9.65-19.53 25.28-35.85 36.26-54.43 5.44-9.22 11.37-12.58 12.1-22.49 2.53-1.82 5.04-3.68 7.51-5.58.86-2.45 4.18-12.73 5.33-14.46 3.68-5.49 11.28-12.19 15.22-18.01.09-2.08.16-3.82.21-5.21 3.87-5.6 7.73-13.31 11.65-18.93.42-.61 6.35-2.84 7.57-3.31 29.72-4.18 80.15-25.81 105.73-41.15a333.84 333.84 0 0 0 146.48-179.66c7.34-21.66 9.37-36.71 14.65-57.9l2.16-14.81c8.97-5.97 14.11-9.2 22.01-16.69 6.59-6.23 4.64-11.49 8.61-15.27l2.86 3.82.33-.13c.87-.94 1.82-2.04 2.01-3.32 1.1-7.28 7.48-10.27 13.67-15.48 1.32-6.86 1.57-7.01 8.15-10.15 8.05-3.84 8.03-10.04 13.3-15.599 13.31-14.029 23.49-31.472 38.37-43.658 9.52-7.798 2.98-5.436 7.22-13.153l-3.75-1.19z"/><path fill="#a15119" d="m1659.72 961.851 12.12.017c5.6 37.162 3.56 89.622-.11 126.752-13.67.34-26.14 1.17-40 1.14-11.96-.02-35.96-.79-46.3.99-11.55 1.99-33.21 9.36-45.25 13.08l-80.42 24.82c-31.48 121.02-100.06 213.38-208.45 276.84a418.2 418.2 0 0 1-119.82 47.42l-24.73 80.59c-2.84 9.31-9.51 29.62-11.16 38.58-1.5 8.16-.45 31.18-.26 40.41.5 19.12.69 38.25.6 57.37-37.03 3.14-66.57 5-103.979 3.07a643.5 643.5 0 0 1-381.453-153.74 646.9 646.9 0 0 1-110.572-120.67c-4.57-6.46-14.669-20.71-17.69-27.47 8.476 10.21 17.24 23.39 25.534 34.23a669 669 0 0 0 40.655 47.73c97.444 104.76 221.122 169.19 360.486 197.36 58.618 13.04 116.999 9.15 176.089 7.52l3.02-63.9c.39-8.59.34-27.52 2.32-35.3 9.92-38.91 24.36-79.4 34.6-118.06 39.8-9.52 83.66-28.29 118.77-49.3 101.82-59.63 175-158.11 202.71-272.79 9.61-2.1 24.02-6.9 33.67-9.85l56.21-17.19c30.24-9.22 37.72-10.43 69.83-11.21 18.05-.34 36.09-.82 54.14-1.45 3.94-35.02 2.57-81.792-.56-116.989"/><path fill="#fafafc" d="M1485.11 936.715c-9.82-4.084-12.99-3.893-23.13-9.3l-.37-.946c16.25 1.999 40.99 14.017 56.61 14.874 15.59 3.579 51.74 15.395 67.85 20.982 4.17 1.806 40.11 3.885 46.95 4.37l.1.706 2.53-.247.02-.064c-8.29 1.068-41.96 1.696-49.19-.054-33.37-8.078-68.25-21.452-101.37-30.321"/><defs><linearGradient id="c" x1="730.544" x2="765.361" y1="713.338" y2="749.908" gradientUnits="userSpaceOnUse"><stop offset="0" stop-color="#7e8391"/><stop offset="1" stop-color="#9b9fac"/></linearGradient></defs><path fill="url(#c)" d="m957.116 475.347 2.371-2.557c3.532-25.199 2.289-51.197 4.689-76.696 1.003 26.968 1.608 60.824.318 87.888-.308 6.463-11.175 40.592-14.055 49.512-7.206 22.321-13.956 48.886-21.719 70.777-12.308 3.335-23.198 6.321-35.269 10.417l1.897.92c-4.972 2.613-10.26 4.228-15.522 6.063-2.803.978-4.556 10.279-6.577 13.599l-4.061 1.253c-.158.318-.306.64-.473.953-9.973 18.657-38.933 30.352-44.525 50.322-1.83 1.332-6.275 3.153-5.485 1.99-2.115 3.112-2.573 5.746-5.864 8.008l-1.591-1.052c-5.418 10.482-21.402 24.706-29.339 34.345-4.31 1.336-4.048.449-5.674 3.333.061 3.278.654 2.018-.946 4.248-5.41 1.09-3.645.094-5.931 3.96-3.219 5.446-7.854 13.727-14.321 15.404-4.152 1.285-7.207 3.37-8.325 7.002-3.012 9.791-17.649 17.174-25.237 23.676-1.055.904-.494 6.325-4.401 8.075-3.622 1.623-13.619 8.594-16.507 11.256l-.102 3.566c-3.613 3.124-11.361 5.32-16.127 8.069-6.969 4.018-37.774 32.074-43.015 30.617-.677 3.894.007 3.769-2.255 6.033-8.267-1.562-3.198 1.618-7.924-.607-7.756 9.257-25.418 72.192-27.81 80.421-.389 1.337-85.499 26.648-93.435 28.537-1.021.243-2.32-.031-3.418-.223l-1.834.309c-8.058 1.438-10.425 4.226-19.648 4.557-31.699 1.136-65.148.312-96.689 1.806-1.562-2.452-1.215-2.611-1.034-5.626 5.556-4.302 75.145.028 86.93-6.296 9.262-1.636 45.286-13.272 55.718-16.573 15.591-4.933 49.015-13.582 62.885-19.304 11.559-43.405 21.461-72.629 43.529-112.522a444.16 444.16 0 0 1 225.394-199.426c20.148-8.095 36.54-12.842 57.527-18.852 9.665-28.909 17.913-59.573 27.953-88.491 1.819-5.238 7.418-24.987 9.902-28.691"/><path fill="#fafafc" d="m957.116 475.347 2.371-2.557c3.532-25.199 2.289-51.197 4.689-76.696 1.003 26.968 1.608 60.824.318 87.888-.308 6.463-11.175 40.592-14.055 49.512-7.206 22.321-13.956 48.886-21.719 70.777-12.308 3.335-23.198 6.321-35.269 10.417-152.692 56.005-251.792 162.242-291.156 320.781-30.325 8.979-66.004 18.996-95.812 28.987l-1.834.309c-8.058 1.438-10.425 4.226-19.648 4.557-31.699 1.136-65.148.312-96.689 1.806-1.562-2.452-1.215-2.611-1.034-5.626 5.556-4.302 75.145.028 86.93-6.296 9.262-1.636 45.286-13.272 55.718-16.573 15.591-4.933 49.015-13.582 62.885-19.304 11.559-43.405 21.461-72.629 43.529-112.522a444.16 444.16 0 0 1 225.394-199.426c20.148-8.095 36.54-12.842 57.527-18.852 9.665-28.909 17.913-59.573 27.953-88.491 1.819-5.238 7.418-24.987 9.902-28.691"/><path fill="#a15119" d="M1123.25 385.185c9.66-.185 43.57 7.658 53.73 10.048a652.3 652.3 0 0 1 296.47 161.576A646.7 646.7 0 0 1 1668 928.948c-9.97-.287-62.15 5.707-68.24.219-3.47-10.674-7.12-29.88-9.24-41.269l2.81-.079c-1.06-6.192-5.62-19.195-4.81-23.896 2.89 5.455 2.33 11.495 4.53 18.435l2.36.623c1.23 2.104 1.42 2.467 3.01 4.285.62-1.358 5.91-11.437 6.46-12.01l4.09.043c6.21-3.844 14.86-13.603 19.41-19.504l2.89-.073c.95-2.437.5-1.517 2.7-3.414l1.21.736-.34-.45 1.46 2.014c-1.87-15.966-18.91-49.973-17.66-62.656-4.34-14.713-18.34-44.332-25.16-58.264-73.43-149.993-204.77-259.791-360.24-318.165a731 731 0 0 0-75.11-22.924c-8.63-2.082-27.9-4.337-34.88-7.414"/><path fill="#8d919f" d="M1618.64 791.952c16.43 35.31 28.95 97.743 35.46 135.914q-26.49.708-52.98.869l-1.36.432c-3.47-10.674-7.12-29.88-9.24-41.269l2.81-.079c-1.06-6.192-5.62-19.195-4.81-23.896 2.89 5.455 2.33 11.495 4.53 18.435l2.36.623c1.23 2.104 1.42 2.467 3.01 4.285.62-1.358 5.91-11.437 6.46-12.01l4.09.043c6.21-3.844 14.86-13.603 19.41-19.504l2.89-.073c.95-2.437.5-1.517 2.7-3.414l1.21.736-.34-.45 1.46 2.014c-1.87-15.966-18.91-49.973-17.66-62.656"/><path fill="#fafafc" d="m1590.52 887.898 2.81-.079c.54 3.222 1.31 6.363 2.01 9.551l.94 4.085 1.49 6.561c.98 4.434 4.22 16.966 3.35 20.719l-1.36.432c-3.47-10.674-7.12-29.88-9.24-41.269"/><path fill="#a15119" d="M827.101 1305.26c-4.784-1.25-21.641-14.74-26.388-18.6-40.475-32.94-71.838-72.58-94.196-119.82a343.74 343.74 0 0 1-13.505-260.119 358.4 358.4 0 0 1 184.257-200.886 342.1 342.1 0 0 1 231.181-21.724c22.27 5.876 31.75 10.645 52.52 18.269 5.84 2.652 18.53 8.329 23.06 11.939-9.66-2.909-19.57-8.742-29.02-12.573-9.67-3.921-19.47-7.064-29.48-10.015a342 342 0 0 0-256.424 23.026 356.96 356.96 0 0 0-175.847 207.575c-27.431 86.708-16.441 180.058 25.605 260.198a329.7 329.7 0 0 0 57.619 79.18c10.854 10.85 21.537 20.72 33.723 30.04 2.631 2.01 16.028 11.89 16.895 13.51"/><path fill="#a15119" d="M1176.25 606.395c7.69 1.095 27.98 10.478 35.45 13.896a444.9 444.9 0 0 1 171.52 138.814c32.28 43.051 67.11 111.088 77.2 164.208-3.51-.707-8.65-2.29-12.24-3.27a461.33 461.33 0 0 0-106.51-200.49c-6.64-7.194-19.6-21.336-27.13-26.768-11.39-11.092-60.67-49.486-74.58-54.276-10.59-8.764-35.07-18.752-48.25-24.755-4.13-1.882-12.46-4.995-15.46-7.359"/><path fill="#a9adbb" d="M957.139 380.478c32.31-2.49 89.131-5.562 121.251-.547-18.12 1.902-101.16-3.389-111.255 2.747-3.304 14.962.255 34.322-.143 49.781-.317 12.318 1.646 28.717.441 40.947-3.013 30.59-17.087 63.547-25.254 93.326-2.297 8.374-8.556 31.832-11.735 37.945-4.438 1.849-30.497 10.27-35.096 10.931l-1.897-.92c12.071-4.096 22.961-7.082 35.269-10.417 7.763-21.891 14.513-48.456 21.719-70.777 2.88-8.92 13.747-43.049 14.055-49.512 1.29-27.064.685-60.92-.318-87.888-2.4 25.499-1.157 51.497-4.689 76.696l-2.371 2.557c1.299-9.585.584-30 .403-40.339a2238 2238 0 0 1-.38-54.53"/><path fill="#a15119" d="M381.798 1080.72c6.562-1.55 69.192-2.34 78.538-1.43 15.559 5.46 129.915 38.64 133.465 44.11.072.11.111.24.166.36-8.47.6-108.632-34.55-125.505-36.84-20.589-2.79-43.417-1.32-64.343-2.5-6.046-.34-15.197.05-20.881-1.29z"/><path fill="#cdd0dc" d="M383.507 960.254c28.892.578 61.195-.917 90.701-1.048-11.785 6.324-81.374 1.994-86.93 6.296-.181 3.015-.528 3.174 1.034 5.626.988 12.73-3.089 27.642-2.7 40.912l-1.053 1.09c-1.413-1.13-1.68-1.77-3.424-2.1-.316 11.42-1.472 58.32 4.379 66.25 13 1.92 70.134-1.7 74.822 2.01-9.346-.91-71.976-.12-78.538 1.43.415-4.43.099-9.83-.322-14.33-3.396-36.2-2.635-69.95 2.031-106.136"/><path fill="#fafafc" d="M923.666 1460.24c6.582 5.8 25.433 76.77 32.408 89.45 7.658 25.56 7.654 21.75 7.131 49.38l-1.184 1.96-1.895.15c-5.327-5.65.093-18.52-2.392-26.1-10.437-34.18-26.12-81.07-34.068-114.84"/><path fill="#fafafc" d="M1160.97 702.38c.56-.424 1.58-1.405 2.43-1.497 5.39 3.322 10.71 5.231 16.46 7.944 5.61 2.645 11.07 6.367 16.6 9.476 8.18 4.606 19.28 12.76 26.53 17.418 1.1.702 13-6.914 15.31-6.597 2.6-1.407 8.06-4.748 3.06 1.479-1.47.781-1.65 5.552-1.9 5.966-3.47 5.81-7.27 4.434-.94 11.147 3.99 4.231 12.84 8.888 13.99 14.141-7.46-5.307-15.16-12.791-22.87-18.477-14.37-10.601-28.28-19.417-43.84-28.058l-1.77-1.003c-4.53-3.61-17.22-9.287-23.06-11.939"/><path fill="#fafafc" d="M1239.96 638.509c13.91 4.79 63.19 43.184 74.58 54.276-5.22 1.896-16.41-13.119-20.97-15.509-.68 2.129-2.48 3.881-3.17.643.26-.637.66-.895 1.22-1.276-1.77-3.913-46.09-32.82-52.85-36.767.36-.657.52-.697 1.19-1.367"/><path fill="#fafafc" d="M1287.89 677.684c.54.114.39.026.58.194.05.34.06.096-.23.859-.62-.406-.47-.23-.63-.515.09-.179.18-.359.28-.538"/><defs><linearGradient id="d" x1="1481.215" x2="1335.298" y1="1463.425" y2="1342.604" gradientUnits="userSpaceOnUse"><stop offset="0" stop-color="#535868"/><stop offset="1" stop-color="#9095a5"/></linearGradient></defs><path fill="url(#d)" d="m1655.32 1116.93 12.32.08c-33.56 221.09-168.12 401.3-371.38 495.43-60.21 27.88-110.18 42.04-175.27 53.68l-.17-11.79c-.25-.96-.5-1.85-.61-2.84-.53-5.01-.8-52.54.45-53.82.96-.97 2.9-.7 4.04-.68a601.45 601.45 0 0 0 227.8-94.28c130.98-89.16 220.37-227.48 247.85-383.52 2.34-2.14 48.26-2.23 54.97-2.26"/><path fill="#a15119" d="m1655.32 1116.93 12.32.08c-33.56 221.09-168.12 401.3-371.38 495.43-60.21 27.88-110.18 42.04-175.27 53.68l-.17-11.79 1.27-1.33c97.06-14.39 198.01-60.08 276.92-117.31 138.61-100.53 227.61-248.86 256.15-416.76z"/><path fill="#fafafc" d="M1600.35 1119.19c1.26.37 2.51.72 3.77 1.06l.08.68a566.7 566.7 0 0 1-225.28 369.53c-77.55 56.37-150.3 87.88-244.33 106.85-1.22-.08-1.38.07-2.58.42l-.83.32-6.48-1.06a601.45 601.45 0 0 0 227.8-94.28c130.98-89.16 220.37-227.48 247.85-383.52"/><path fill="#bec1cd" d="M1120.82 1654.33c-.25-.96-.5-1.85-.61-2.84-.53-5.01-.8-52.54.45-53.82.96-.97 2.9-.7 4.04-.68l6.48 1.06c-1.7 1.57-8.63.37-8.72 1.72-1.06 17.32-.48 35.75-.37 53.23z"/><path fill="#cdd0dc" d="M1600.35 1119.19c2.34-2.14 48.26-2.23 54.97-2.26l-.16 2c-14.34.28-28.7.62-43.04 1.19-2.68.3-5.22.47-7.92.81l-.08-.68c-1.26-.34-2.51-.69-3.77-1.06"/><defs><linearGradient id="e" x1="578.135" x2="701.234" y1="583.19" y2="692.347" gradientUnits="userSpaceOnUse"><stop offset="0" stop-color="#6f7484"/><stop offset="1" stop-color="#b1b5c2"/></linearGradient></defs><path fill="url(#e)" d="M868.392 396.051c2.209-.629 4.392-1.144 6.62-1.699l3.999-.971a264 264 0 0 1 6.975-1.523c14.68-3.128 28.781-5.519 43.533-8.122.113 8.559 1.506 55.827-.034 61.633.032-.023-10.482 1.242-11.513 1.955-.144.1-2.661.422-2.478.384-4.063.83-8.138 1.566-12.147 2.648l-2.321.397-1.916.481c-1.898.737-5.247.988-7.093 1.473-5.249 1.381-10.272 2.577-15.484 4.111-3.733 1.099-7.747 1.987-11.496 3.123-7.059 2.139-14.127 3.959-21.069 6.493l-2.988 1.045c-.703.145-1.3.433-1.954.736-25.343 9.717-50.226 19.466-74.08 31.641-160.772 82.062-277.878 234.652-312.142 412.267-.544 2.819-2.321 12.638-5.607 13.359-13.145 2.342-36.127 3.075-48.967 3.109l-10.935.252a634 634 0 0 1 46.229-165.025c69.744-161.971 198.04-279.281 360.776-343.983 14.956-7.745 57.35-19.939 74.092-23.784"/><path fill="#fafafc" d="M854.642 405.365c8.571-2.11 17.111-4.764 25.777-6.541l18.089-3.656c4.009-.81 3.807-.835 7.746-.433-90.404 22.94-169.509 57.179-246.059 111.324-5.207 3.683-29.872 21.295-33.204 25.289-4.575 3.144-12.905 9.803-16.544 14.08l-.793.591c-6.756 4.862-17.635 15.246-23.894 21.206a646.5 646.5 0 0 0-99.266 122.773c-2.239 3.588-11.837 19.046-12.88 22.022-6.459 9.667-13.71 24.942-18.77 35.53a644.8 644.8 0 0 0-50.349 144.425c-1.043 4.935-5.046 27.447-7.419 33.531l-2.239.912 3.393 2.173-10.935.252a634 634 0 0 1 46.229-165.025c69.744-161.971 198.04-279.281 360.776-343.983 14.956-7.745 57.35-19.939 74.092-23.784-6.37 5.722-7.816 3.275-13.75 9.314"/><path fill="#8d919f" d="M794.3 419.835c-4.977 4.803-6.7 3.086-10.572 9.625-18.293 7.931-36.785 15.978-54.437 25.238A633.4 633.4 0 0 0 429.006 787.19a661.4 661.4 0 0 0-31.743 110.027c-1.384 6.932-4.215 20.509-4.092 27.173l1.666 2.028 3.393 2.173-10.935.252a634 634 0 0 1 46.229-165.025c69.744-161.971 198.04-279.281 360.776-343.983"/><path fill="#8d919f" d="M794.3 419.835c14.956-7.745 57.35-19.939 74.092-23.784-6.37 5.722-7.816 3.275-13.75 9.314-24.974 7.491-46.536 15.567-70.914 24.095 3.872-6.539 5.595-4.822 10.572-9.625"/><path fill="#6e7383" d="M473.614 712.02c1.043-2.976 10.641-18.434 12.88-22.022a646.5 646.5 0 0 1 99.266-122.773c6.259-5.96 17.138-16.344 23.894-21.206l5.359 1.25.911 1.738c-4.804 10.077-22.341 26.088-24.276 36.588l-.193 1.145c-2.354 1.888-11.196 8.182-12.261 9.336-11.392 12.349-23.344 37.616-37.127 45.739-2.366 1.395-2.293 1.497-3.874 3.875-.266 1.472-1.036 4.745-1.05 6.107-.057 5.714-8.677 6.067-11.124 8.872-12.061 13.823-22.497 29.517-34.404 43.535-4.919 5.788-13.448 11.198-19.27 15.535.253-3.253.567-4.622 1.269-7.719"/><path fill="#a9adbb" d="M868.392 396.051c2.209-.629 4.392-1.144 6.62-1.699l3.999-.971a264 264 0 0 1 6.975-1.523c14.68-3.128 28.781-5.519 43.533-8.122.113 8.559 1.506 55.827-.034 61.633.032-.023-10.482 1.242-11.513 1.955-.144.1-2.661.422-2.478.384-4.063.83-8.138 1.566-12.147 2.648l-2.321.397-1.916.481c-1.898.737-5.247.988-7.093 1.473-5.249 1.381-10.272 2.577-15.484 4.111-3.733 1.099-7.747 1.987-11.496 3.123-7.059 2.139-14.127 3.959-21.069 6.493l-2.988 1.045c-.703.145-1.3.433-1.954.736.416-1.076.864-1.666 2.035-2.045 1.988-.644 6.098-2.757 8.003-2.99 3.474-.424 5.669-2.382 8.995-2.99 2.784-.509 4.342-1.213 6.998-1.997 1.529-.452 2.951-.401 4.421-1.332.422-.267 2.35-1.104 3.069-1.191 2.218-.267 4.507-1.419 6.539-1.9 1.517-.36 2.885-.474 4.264-1.329.826-.513 2.122-1.229 3.145-.971 3.809.962 4.293-1.911 7.495-1.929 1.142-.006 2.359.013 3.48-.266l2.036-.693.842-.26c1.181-.42 2.38-.835 3.653-.806 1.145.027 2.335.052 3.465-.242l1.575-.535 1.299-.414c1.128-.404 2.458-.856 3.674-.803 1.085.048 2.968.104 4.005-.445 1.269-.671 2.161-.501 3.475-.817.928-.223 1.877-.72 3.008-.704s2.552.159 3.52-.595c.58-.451.61-1.681.539-2.368-.892-8.592 1.08-28.626-.277-36.09-1.072-5.899-.222-17.652-.53-18.244-.824-.533-2.617-.401-2.794.694-.498 3.087-3.601 1.505-4.608 2.245l.044.124c1.982 1.202 5.266-1.4 7.044-.004.243 3.534-18.869 6.211-21.186 5.417-3.939-.402-3.737-.377-7.746.433l-18.089 3.656c-8.666 1.777-17.206 4.431-25.777 6.541 5.934-6.039 7.38-3.592 13.75-9.314"/><path fill="#6e7383" d="M626.991 531.348c.045-.157-.794 2.761-.795 2.944-.018 2.504-6.329 4.004-5.833 5.693 1.032.947 2.892.145 4.052 1.234.637 2.914-2.631 2.223-3.89 2.208-3.505-.042-6.392 1.471-10.078 2.001 3.639-4.277 11.969-10.936 16.544-14.08"/></svg>