<svg xmlns="http://www.w3.org/2000/svg" width="2048" height="2048" viewBox="0 0 2048 2048"><path fill="#13181f" d="M0 0h2048v2048H0z"/><path fill="#c6c6c6" d="M735.727 871.638c34.085-21.322 27.876-20.01 68.019-20.125l54.403-.121 75.049-.064c7.044.006 49.025-2.801 49.278 6.369 1.151 41.784.647 83.987.686 125.851l87.828.145.37-89.36c.04-12.018-.28-24.325.66-36.281 1.07-4.782 5.5-6.201 9.85-6.329 23.14-.681 46.55-.341 69.7-.298l129.5.315a2938 2938 0 0 0 34.2 20.227l.09 111.668 88.4-.183.02-86.301c-.01-9.377-.66-32.23.75-40.249 1.56-2.211 3.57-4.858 7.02-4.894 61.92-.633 126.05-1.522 187.78.514 4.94.163 31.18 17.608 35.49 20.567l-.24 110.42 72.69.095-.13-84.56c-.02-6.963-1.38-40.489 1.86-44.906 1.77-1.35 3.08-2.188 5.41-2.246 37.34-.894 74.77-.332 112.13-.445 7.88-.023 19.23-.319 26.84.729 14.13 1.944 28.56 12.526 35.95 24.182 1.66 48.194.04 102.044.54 150.662.25 24.76 1.49 96.79-3.36 115.9a87.2 87.2 0 0 1-24.84 42.54 94.8 94.8 0 0 1-54.31 25.12c-14.29 1.47-43.83.65-59.11.64l-110.3.02-382.08-.03-653.139.05-230.742-.03c-40.329-.02-80.713.1-121.047-.14-25.141-.15-51.237-10.95-68.533-29.48a89.35 89.35 0 0 1-22.363-43.69c-2.36-12.37-1.832-31.14-1.838-44.07l.016-59.55c.036-50.105-1.573-108.481.365-157.669 10.712-15.866 25.923-25.11 45.334-25.138 44.947-.064 89.971-.369 134.895.133 1.363.015 4.719 3.276 5.77 4.271l-3.414 1.893c.036 13.009.769 127.846-2.063 131.596l2.885.934c22.449-1.353 53.959-.465 77.046-.369l2.06-1.334c-.561-33.682.286-67.823-.197-101.67-6.419 9.796 3.528 70.033-4.757 73.332-.02-4.222.447-10.588-1.256-14.15-1.391-16.793-.279-55.052-.231-73.5l34.939-21.053 123.22-.198c12.918.001 68.33-1.72 77.706 2.869 3.609 11.333 1.459 111.012 1.4 129.627l83.741-.071z"/><path fill="#050f18" d="M158.589 876.631c10.712-15.866 25.923-25.11 45.334-25.138 44.947-.064 89.971-.369 134.895.133 1.363.015 4.719 3.276 5.77 4.271l-3.414 1.893-1.193.071c-2.688.257-5.285.45-7.951.885l-9.821 2.204c-11.656 2.809-23.456 5.821-35.227 8.032-2.6.796-4.32.985-6.03 3.054q1.012 46.977 1.107 93.963c.076 16.364-.372 41.641 1.271 57.511 9.362 1.18 21.156.68 30.724.7l64.888.07c8.68.03 25.413-.33 33.242.45-7.519.27-76.865-.1-78.442.58 5.187 2.28 7.529 1.41 13.185.63l1.313.83-.044 1.85c-2.519-.02-3.597-.68-6.335-.41 1.851 6.46 5.767 8.56 6.695 17.83l1.713 2.15c1.779.18 3.56.33 5.344.44.801 6.64-4.151 7.25-3.074 17.71 2.009 1.37 1.231 1.03 3.548 1.52.539 2.99.853 1.68-.195 4.14l-3.426 1.47c1.895 3.58 7.001 5.1 8.076 6.31 2.979 3.38.386 12.57 5.702 15.94l1.373-.1c3.308-.22 5.094-.74 7.888.86 2.99 6.64-11.239 14.01 8.985 35.48.022 4.63-.876 8.46 1.42 11.48 4.494.99 4.321.17 6.746 2.94l.673 4.11c-2.434 1.66-4.012 1.01-7.613 1.05l.348.84c38.254 1.43 76.806-2.02 114.948 1.41 8.733.79 26.447-.62 33.972 1.16l145.647.46c11.456.06 57.105 1.23 66.397-.02 17.388-.76 34.662.27 51.452-.31 19.74 2.22 62.517.86 83.998.79l157.722-.03c6.1.76 21.97.32 28.72.27l53.06-.24 189.41-.15 271.65-.33 84.61-.04c15.14.02 34.93.63 49.77-.3l65.35.29c14.83.04 41.43 2.14 53.48-6.01l-.54-.84c24.43-25.63 22.81-31.14 22.25-66.16-.24-14.95-.08-31.87-.1-46.99l-.05-121.027c-.01-7.178-.71-35.43 1.22-40.259-8.49-3.124-82.65 1.486-90.54-1.779-1.21-1.638-1.68-1.838-3.25-3.193-9.92-1.624-27.39-5.747-37.24-8.377-2.93-.403-5.44-1.148-8.27-1.95l-2.73-.798c-5.41-6.794-.98 1.624-8-3.819 1.77-1.35 3.08-2.188 5.41-2.246 37.34-.894 74.77-.332 112.13-.445 7.88-.023 19.23-.319 26.84.729 14.13 1.944 28.56 12.526 35.95 24.182 1.66 48.194.04 102.044.54 150.662.25 24.76 1.49 96.79-3.36 115.9a87.2 87.2 0 0 1-24.84 42.54 94.8 94.8 0 0 1-54.31 25.12c-14.29 1.47-43.83.65-59.11.64l-110.3.02-382.08-.03-653.139.05-230.742-.03c-40.329-.02-80.713.1-121.047-.14-25.141-.15-51.237-10.95-68.533-29.48a89.35 89.35 0 0 1-22.363-43.69c-2.36-12.37-1.832-31.14-1.838-44.07l.016-59.55c.036-50.105-1.573-108.481.365-157.669"/><path fill="#9c9c9c" d="M280.952 872.036q1.012 46.977 1.107 93.963c.076 16.364-.372 41.641 1.271 57.511 9.362 1.18 21.156.68 30.724.7l64.888.07c8.68.03 25.413-.33 33.242.45-7.519.27-76.865-.1-78.442.58 5.187 2.28 7.529 1.41 13.185.63l1.313.83-.044 1.85c-2.519-.02-3.597-.68-6.335-.41 1.851 6.46 5.767 8.56 6.695 17.83l1.713 2.15c1.779.18 3.56.33 5.344.44.801 6.64-4.151 7.25-3.074 17.71 2.009 1.37 1.231 1.03 3.548 1.52.539 2.99.853 1.68-.195 4.14l-3.426 1.47c1.895 3.58 7.001 5.1 8.076 6.31 2.979 3.38.386 12.57 5.702 15.94l1.373-.1c3.308-.22 5.094-.74 7.888.86 2.99 6.64-11.239 14.01 8.985 35.48.022 4.63-.876 8.46 1.42 11.48 4.494.99 4.321.17 6.746 2.94l.673 4.11c-2.434 1.66-4.012 1.01-7.613 1.05l.348.84c38.254 1.43 76.806-2.02 114.948 1.41 8.733.79 26.447-.62 33.972 1.16-7.601.96-27.951.47-36.277.46l-70.354-.09-118.5-.03c-23.287.05-46.655.17-69.938-.06-11.969-.11-31.882-3.86-40.229-12.82-.321-3.77-12.352-16.65-12.476-25.4-.299-21.04-.104-42.56-.055-63.56l-.077-120.479c.005-12.718 1.101-47.953-.581-58.881 14.211-3.103 85.658 1.505 94.455-2.054"/><path fill="#ae724c" d="M1765.24 869.082c10.32-4.305 71.44.223 86.28-.857 25.55-1.858 19.7 25.981 19.71 42.386l.06 73.084v89.895c-.02 20.89 3.65 44.72-9.48 61.8-24.47 31.84-64.23 25.81-99.32 25.75l-104.82-.08-374.57.08-702.016-.03-226.433-.02c-38.982.02-78.403.26-117.364-.16-14.981-.2-27.584-5.73-39.423-14.19-25.518-18.24-20.794-43.44-20.76-71.9l.126-65.2-.111-79.434c-.033-11.232-1.764-51.313 3.642-58.193 5.934-3.185 13.332-4.28 20.05-4.209 28.095.297 56.506-.843 84.508.718l1.663.46c-2.6.796-4.32.985-6.03 3.054-8.797 3.559-80.244-1.049-94.455 2.054 1.682 10.928.586 46.163.581 58.881l.077 120.479c-.049 21-.244 42.52.055 63.56.124 8.75 12.155 21.63 12.476 25.4 8.347 8.96 28.26 12.71 40.229 12.82 23.283.23 46.651.11 69.938.06l118.5.03 70.354.09c8.326.01 28.676.5 36.277-.46l145.647.46c11.456.06 57.105 1.23 66.397-.02 17.388-.76 34.662.27 51.452-.31 19.74 2.22 62.517.86 83.998.79l157.722-.03c6.1.76 21.97.32 28.72.27l53.06-.24 189.41-.15 271.65-.33 84.61-.04c15.14.02 34.93.63 49.77-.3l65.35.29c14.83.04 41.43 2.14 53.48-6.01l-.54-.84c24.43-25.63 22.81-31.14 22.25-66.16-.24-14.95-.08-31.87-.1-46.99l-.05-121.027c-.01-7.178-.71-35.43 1.22-40.259-8.49-3.124-82.65 1.486-90.54-1.779-1.21-1.638-1.68-1.838-3.25-3.193"/><path fill="#fafafa" d="M1859.03 874.054c3.83 2.529 4.76 2.821 7.23 6.515 1.2 6.546.83 24.822.86 32.3l.08 66.159-.05 88.912c-.02 16.43.47 33.9-.82 50.19-.96 12.21-19.59 26.25-30.08 31.2l-.54-.84c24.43-25.63 22.81-31.14 22.25-66.16-.24-14.95-.08-31.87-.1-46.99l-.05-121.027c-.01-7.178-.71-35.43 1.22-40.259"/><path fill="#fafafa" d="M186.497 874.09c1.682 10.928.586 46.163.581 58.881l.077 120.479c-.049 21-.244 42.52.055 63.56.124 8.75 12.155 21.63 12.476 25.4-9.623-7.84-18.054-18.24-18.29-31.12-.275-14.94-.154-29.82-.174-44.76l-.108-87.14.02-64.783c.014-10.485-.159-21.493.362-31.951.161-3.243 2.883-6.162 5.001-8.566"/><path fill="#a96d48" d="M158.589 876.631c10.712-15.866 25.923-25.11 45.334-25.138 44.947-.064 89.971-.369 134.895.133 1.363.015 4.719 3.276 5.77 4.271l-3.414 1.893-1.193.071c-2.688.257-5.285.45-7.951.885l-9.821 2.204c-6.983-4.232-109.91-.313-128.556-2.132-12.639 3.811-20.646 8.538-28.224 19.925-1.041 54.253.077 108.721-.419 162.997-.163 17.86.232 36.15-.028 53.93-.453 31.04-.567 57.29 22.499 80.98 17.381 17.85 38.246 27.6 63.389 27.36 37.073.05 74.148 0 111.197-.01l223.724-.02h686.719l370.36-.01 106.81.1c19.11.04 39.71.66 58.65-.62 17.38-1.18 36.32-11.13 48.77-22.89 9.33-9.08 15.84-19.65 20.62-31.8 1.1-2.77 3.11-10.1 4.06-12l1.68-.67c.77-3.25 1.21-6.74 3.16-9.33.13 1.42-1.09 12.15-1.5 13.61l1.39 2.55a87.2 87.2 0 0 1-24.84 42.54 94.8 94.8 0 0 1-54.31 25.12c-14.29 1.47-43.83.65-59.11.64l-110.3.02-382.08-.03-653.139.05-230.742-.03c-40.329-.02-80.713.1-121.047-.14-25.141-.15-51.237-10.95-68.533-29.48a89.35 89.35 0 0 1-22.363-43.69c-2.36-12.37-1.832-31.14-1.838-44.07l.016-59.55c.036-50.105-1.573-108.481.365-157.669"/><path fill="#13181f" d="M193.653 858.818c7.688-1.396 57.005-1.157 67.622-.928 13.843.297 58.947-1.005 70.755.856l-9.821 2.204c-6.983-4.232-109.91-.313-128.556-2.132"/><path fill="#ae724c" d="M1709 854.138c1.77-1.35 3.08-2.188 5.41-2.246 37.34-.894 74.77-.332 112.13-.445 7.88-.023 19.23-.319 26.84.729 14.13 1.944 28.56 12.526 35.95 24.182 1.66 48.194.04 102.044.54 150.662.25 24.76 1.49 96.79-3.36 115.9l-1.39-2.55c.41-1.46 1.63-12.19 1.5-13.61-1.95 2.59-2.39 6.08-3.16 9.33l-1.68.67c2.51-23.01 1.22-66.18 1.24-90.68l-.17-167.014c-2.04-3.006-4.84-6.593-7.51-9.024a46.5 46.5 0 0 0-19.74-10.559c-10.33-2.535-79.02-1.791-93.08-1.413-8.36 1.202-29.37-.686-34.52 2.635-2.93-.403-5.44-1.148-8.27-1.95l-2.73-.798c-5.41-6.794-.98 1.624-8-3.819"/><path fill="#13181f" d="M1719.73 858.755c7.86-1.294 34.39-1.045 42.79-.685-8.36 1.202-29.37-.686-34.52 2.635-2.93-.403-5.44-1.148-8.27-1.95"/><path fill="#9c9c9c" d="m1411.13 859.32-.55-.812c2.26-1.32 2.84-.559 6.21.002 2.54.585 7.8 1.96 10.16 2.217l7.04 1.8c9.15 2.206 18.65 4.676 27.88 6.32 3.81 2.065 2.53.637 4.49 3.913 6.55 2.16 116.7.302 131.8.309l-.26.59c-3.45 6.411.1 32.979-1.66 41.916-.94-8.453 1.37-35.442-1.32-39.874-5.07 1.42-17.47-.504-23.47.11-16.05 1.64-33.94-2.082-49.15 3.788l-1.28.509c-1.17-2.303-1.24-2.34-2.94-4.298l-1.68.608c-.53 12.667-7.49 13.912-9.79 26.024 4.06.151 3.29-.464 6.21 1.465.5 1.854-.83 24.352-1.63 25.858l-2-1.012-.95.641c.01 3 .01 2.326.73 5.313l2.58.634c.97 3.282.41 15.382.33 19.541-2.65 3.347-2.51 3.277-6.07 5.569-1.61-1.218-3.09-2.519-4.56-3.909-3.58 5.361 2.47 9.243 1.39 14.521-.54 2.636-1.18 5.082.14 7.465l4.52-.326 1.09 1.352c-.37 2.814-.84 4.237.2 6.879 2.29-.959 1.17-.981 3.39-.451l.32 1.533-1.85 2.057c6.36 6.884 9.77 11.238 10.07 20.768l1.05.63c.55-1.92.15-1.03 1.16-2.67 2.48 11.43 3.06 5.99 9.09 10.74.21.16 1.37 9.9 9.54 13.55 9.78 4.37 9.06 11.65 15.83 18.72 2.59.93 2.79.95 5.07 2.44 3.42 9.37 14.67 12.65 19.64 20.07 1.32 1.96-1.75 9.6 9.72 8.29 3.61-.41 4.92-.42 4.95 3.81.04 6.41 6.92 8.23 11.64 11.56 1.8 11.81 10.36 6.29 11.46 9.64 3.91 11.82 15.43 16.84 23.2 26.13 4.05 4.84 12.17 8.4 12.17 14.55l-1.53 1c-7.53-.26-11.54-2.46-18.72-4.21-4.4-1.08-2.57-4-4.72-8.05l-5.15.43c-4.62-3.48 1.41-1.26-1.42-3.44-2.39-1.85-6-3.4-7.86-6.03.23-11.56-2.73-5.89-8.26-6.87-.22-.04-7.49-11.77-9.29-12.01-3.17-.43-7.87 1.38-10.39-.53-.1-2.87.15-5.13-1.24-7.59l-6.85.44c-.51-1.8-.82-2.76-1.44-4.49-3.59 2.8-4.27 4.74-8.57 5.36-3.98-2.12-3.42-4.5-6.98-9.29-3.46.77-3.07-.47-6.15.13 2.46 4.2 4.49 5.95 4.51 10.23-2.82 2.24-1.23 1.54-5.05 1.87-3.97-2.04-5.52-6.38-8.14-9.99-2.89-4-6.85-1.52-11.29-.12-6.89 2.18-11.79 2.9-19.05 2.32l-1.32-.11c-3.27 1.4-4.78 5.54-7.51 8.51l-2.35.08c-5.18-3.71-.47-8.39-4.17-13.18-3.02 1.94-5.26 7.8-7.35 11.53-3.1 1.42-6.01 3.46-8.42.35.04-2.87.41-5.16-.9-7.63-3.33-.2-1.86-.62-4.58 1.23-.98 2.8-1.34 4.85-3.53 6.8-7.39-1.43-3.52-11.31-10.61-15.96-4.36 3.71 1.27 13.59-6.74 16.53-9.55-2.66-1.26-10-5.37-16.51-4.86 2.82-1.65 3.4-7.14 4.95-7.3-3.61-7.5-12.83-8.4-19.69-6.32-1.69-9.48 4.62-15.37.63l.06-1.99c2.22-1.69 3.19-1.01 6.75-1 .12-3.13.37-3.18-.89-5.97-2.17.35-2.78.39-4.98.41-2.87-3.04-1.91-3.44-2.33-8.88l-1.65-.67c-5.65.98-6.82 1.29-12.43.44l-.82-1.88 2.42-1.69-.56-.63-1.49-.47-1.29-7.59-10 .31c-.76-1.57-1.01-2.01-1.96-3.62l-1.75.51c-.14 2.63.03 4.48-1.25 6.77l-1.09-.16c-1.84-2.53-.49-7.88 0-11.39-4.42-.41-9.45-11.49-12.17-11.49-30.53-.06-61.81-1.49-92.26-1.5V875.47c-13.19.877-26.51.521-39.73.81-9.64.769-21.43-1.704-30.77-.977-19.67 1.531-37.95-.252-57.49-.814a4327 4327 0 0 0-51.47-.66l-1.38-5.612c-6.63-2.08-14.64-5.947-21.15-8.863 1.43-.727 2.63-1.138 4.25-1.214 19.21-.905 183.87-1.716 192.35 1.238 9.67 3.37 19.64 11.11 28.33 16.589.02 37.758-.37 76.242.1 113.937 29.26-.008 72.67-1.393 100.83.352-.28-23.227-.86-52.827.25-75.685-.08-8.801-1.05-50.162 1.01-55.251"/><path fill="#050f18" d="M1084.01 859.354c1.43-.727 2.63-1.138 4.25-1.214 19.21-.905 183.87-1.716 192.35 1.238 9.67 3.37 19.64 11.11 28.33 16.589.02 37.758-.37 76.242.1 113.937 29.26-.008 72.67-1.393 100.83.352 12 6.458 38.83 20.434 51.02 25.814-6.02 1.73-41.2.99-49.73 1.07-38.61.32-77.8-.76-116.4.03.58-3.28.87-27.307.51-31.19-1.65-17.63 3.53-106.025-1.98-114.224-11.62-5.552-57.86-3.656-74.17-3.654l-113.96.115c-6.63-2.08-14.64-5.947-21.15-8.863"/><path fill="#050f18" d="M1411.13 859.32c5.35 1.823 11.33 4.049 16.77 5.382a791 791 0 0 0 32.29 11.162c1.21 7.368 1.12 49 .82 58.645-.78 25.333 1.14 56.905-.12 81.561-12.19-5.38-39.02-19.356-51.02-25.814-.28-23.227-.86-52.827.25-75.685-.08-8.801-1.05-50.162 1.01-55.251"/><path fill="#4d3731" d="M1460.19 875.864c1.21 7.368 1.12 49 .82 58.645-.78 25.333 1.14 56.905-.12 81.561-12.19-5.38-39.02-19.356-51.02-25.814-.28-23.227-.86-52.827.25-75.685 1.5 14.128.49 57.096.47 73.405 15.57 7.814 33.88 16.304 48.49 25.274 1.65-4.98.92-26.191.91-33.078l-.07-65.419c-.04-11.503-.58-26.733.19-37.757z"/><path fill="#fafafa" d="m1411.13 859.32-.55-.812c2.26-1.32 2.84-.559 6.21.002 2.54.585 7.8 1.96 10.16 2.217l7.04 1.8c9.15 2.206 18.65 4.676 27.88 6.32 3.81 2.065 2.53.637 4.49 3.913-1.31 10.357-.74 39.31-.78 50.779l-.2 99.331-177.61.01c-.05-16.11-1.53-140.774.63-146.582 5.3 2.84 3.7 29.585 3.7 36.274l.07 65.196c.01 10.219-.46 28.962.77 38.492l1.82.91c38.6-.79 77.79.29 116.4-.03 8.53-.08 43.71.66 49.73-1.07 1.26-24.656-.66-56.228.12-81.561.3-9.645.39-51.277-.82-58.645a791 791 0 0 1-32.29-11.162c-5.44-1.333-11.42-3.559-16.77-5.382"/><path fill="#a96d48" d="M735.727 871.638c34.085-21.322 27.876-20.01 68.019-20.125l54.403-.121 75.049-.064c7.044.006 49.025-2.801 49.278 6.369 1.151 41.784.647 83.987.686 125.851l87.828.145.37-89.36c.04-12.018-.28-24.325.66-36.281 1.07-4.782 5.5-6.201 9.85-6.329 23.14-.681 46.55-.341 69.7-.298l129.5.315a2938 2938 0 0 0 34.2 20.227l.09 111.668 88.4-.183.02-86.301c-.01-9.377-.66-32.23.75-40.249 1.56-2.211 3.57-4.858 7.02-4.894 61.92-.633 126.05-1.522 187.78.514 4.94.163 31.18 17.608 35.49 20.567l-.24 110.42 72.69.095-.13-84.56c-.02-6.963-1.38-40.489 1.86-44.906 7.02 5.443 2.59-2.975 8 3.819l-3.3.421c-1.44 2.239-.98 4.282-.87 7.035.01 11.724-.94 120.488 1 122.865l.98-.341 1.48.765-2.57 1.549c-10.12-.779-26.2-.42-36.7-.457-15.43-.055-33.06-.474-48.35.283-2.34 7.102-11.51 21.363-16.91 26.773l-.25 1.19-4.51-.39c-.47-.38-1.04-.65-1.39-1.14-2.86-3.97 7.81-132.135 2.34-139.144-2.27-2.899-6.38-3.848-9.79-4.297-15.1-.007-125.25 1.851-131.8-.309-1.96-3.276-.68-1.848-4.49-3.913-9.23-1.644-18.73-4.114-27.88-6.32l-7.04-1.8c-2.36-.257-7.62-1.632-10.16-2.217-3.37-.561-3.95-1.322-6.21-.002l.55.812c-2.06 5.089-1.09 46.45-1.01 55.251-1.11 22.858-.53 52.458-.25 75.685-28.16-1.745-71.57-.36-100.83-.352-.47-37.695-.08-76.179-.1-113.937-8.69-5.479-18.66-13.219-28.33-16.589-8.48-2.954-173.14-2.143-192.35-1.238-1.62.076-2.82.487-4.25 1.214-3.2-.893-2.99-1.37-5.83-.679l-.65 1.225 1.31 2.534c-1.66 3.927-1.23 115.586-.89 127.539l-64.93-.11c-11.3-1.212-25.459.165-37.163-.84 1.227-41.108.288-87.052.429-128.473.96-1.288.545-.447.714-2.722-2.84-.956-3.709-.222-6.625.792-13.223-1.744-50.363-.584-65.963-.572l-133.549.017c-9.023 5.501-20.032 11.837-28.703 17.584l-.094 73.26c-.009 11.273-.495 28.926.303 39.82l-2.664 1.285c-30.953-.541-62.909-.062-93.936.041.067-14.442 1.411-125.294-.898-130.705.475-.591.334-.349.511-.747-.027-.29.03-.122-.263-.506-1.988-.838-4.971.276-7.025.534-3.404.779-6.817 1.658-10.273 2.117-3.383 1.056-6.834 1.778-10.302 2.488l-4.5.956c-4.465.919-16.91 4.672-20.695 4.092l-.079.624c-1.242 2.527-.976 3.409-2.917 3.707-8.844 1.357-21.788.825-30.765.759l-76.275-.382c-7.349-.019-38.818-1.844-42.526 3.056-7.472 15.932 1.306 138.272-4.55 142.112l-2.774-4.49 1.361-2.66c-3.938-5.51-9.847-16.152-12.697-22.393-.561-33.682.286-67.823-.197-101.67-6.419 9.796 3.528 70.033-4.757 73.332-.02-4.222.447-10.588-1.256-14.15-1.391-16.793-.279-55.052-.231-73.5l34.939-21.053 123.22-.198c12.918.001 68.33-1.72 77.706 2.869 3.609 11.333 1.459 111.012 1.4 129.627l83.741-.071z"/><path fill="#050f18" d="M1577.57 858.158c2.09-.065 15.83-.527 17.65-.074 9.02 2.258 22.45 11.344 30.34 16.793 2.66 1.834 2.13 3.085 2.29 5.747 1.08 25.268-.19 51.727.16 77.077.09 6.592-.53 26.929.66 32.376-2.34 7.102-11.51 21.363-16.91 26.773l-.25 1.19-4.51-.39c-.47-.38-1.04-.65-1.39-1.14-2.86-3.97 7.81-132.135 2.34-139.144-2.27-2.899-6.38-3.848-9.79-4.297-15.1-.007-125.25 1.851-131.8-.309-1.96-3.276-.68-1.848-4.49-3.913-9.23-1.644-18.73-4.114-27.88-6.32l-7.04-1.8c6.68-5.235 129.39 1.996 150.62-2.569"/><path fill="#a96d48" d="M1461.87 868.847c10.24-2.9 118.72-.068 137.07-.628 2.87-.087 5.77 1.339 8.28 2.709 1.59.882 3.15 1.801 4.7 2.758l-.06 139.514-.1 3.65-.25 1.19-4.51-.39c-.47-.38-1.04-.65-1.39-1.14-2.86-3.97 7.81-132.135 2.34-139.144-2.27-2.899-6.38-3.848-9.79-4.297-15.1-.007-125.25 1.851-131.8-.309-1.96-3.276-.68-1.848-4.49-3.913"/><path fill="#4d3731" d="m1627.21 988.934.1-68.071c.03-12.7-.36-27.862.54-40.239 1.08 25.268-.19 51.727.16 77.077.09 6.592-.53 26.929.66 32.376-2.34 7.102-11.51 21.363-16.91 26.773l.1-3.65c5.78-7.17 10.8-16.215 15.35-24.266"/><path fill="#050f18" d="M421.134 876.675c9.637-6.094 19.827-12.116 29.597-18.055 23.693 2.684 168.777-2.381 177.09 2.128-3.383 1.056-6.834 1.778-10.302 2.488l-4.5.956c-4.465.919-16.91 4.672-20.695 4.092l-.079.624c-1.242 2.527-.976 3.409-2.917 3.707-8.844 1.357-21.788.825-30.765.759l-76.275-.382c-7.349-.019-38.818-1.844-42.526 3.056-7.472 15.932 1.306 138.272-4.55 142.112l-2.774-4.49 1.361-2.66c-3.938-5.51-9.847-16.152-12.697-22.393-.561-33.682.286-67.823-.197-101.67z"/><path fill="#ae724c" d="M433.799 1011.01c2.514-43.067-1.264-89.388.265-132.746.166-4.688 6.217-9.599 10.592-9.919 16.927-1.239 34.061-.281 51.041-.532 32.147.365 64.532-.451 96.627.471l-.079.624c-1.242 2.527-.976 3.409-2.917 3.707-8.844 1.357-21.788.825-30.765.759l-76.275-.382c-7.349-.019-38.818-1.844-42.526 3.056-7.472 15.932 1.306 138.272-4.55 142.112l-2.774-4.49z"/><path fill="#13181f" d="M450.731 858.62c6.678-1.133 20.126-.695 27.473-.691l48.348-.005 71.23.025c11.999.012 29.024-.518 40.312.682-3.404.779-6.817 1.658-10.273 2.117-8.313-4.509-153.397.556-177.09-2.128"/><path fill="#13181f" d="M1416.79 858.51c12.04-1.406 41.8-.604 55.8-.59 34.82.035 70.22-.236 104.98.238-21.23 4.565-143.94-2.666-150.62 2.569-2.36-.257-7.62-1.632-10.16-2.217"/><path fill="#ae724c" d="M1311.41 878.735c2.64 4.129 2.55 16.238 2.11 20.92-1.22 12.759 2.69 47.868-.59 58.928l-.43 1.555q-.15-.01-.3-.02c-.25-.014-1.32.06-1.58-.302-1.94-2.654.72-72.129.79-81.081"/><path fill="#050f18" d="M638.094 858.631c2.054-.258 5.037-1.372 7.025-.534.293.384.236.216.263.506-.177.398-.036.156-.511.747 2.309 5.411.965 116.263.898 130.705 31.027-.103 62.983-.582 93.936-.041l2.664-1.285c-.798-10.894-.312-28.547-.303-39.82l.094-73.26c8.671-5.747 19.68-12.083 28.703-17.584l133.549-.017c15.6-.012 52.74-1.172 65.963.572-6.008 2.741-18.933 9.196-24.705 9.436-14.772.616-30.883.339-45.71.312l-91.164-.184c-12.617-.016-26.583-1.218-39.056.424-3.406.449-11.606 2.182-13.073 5.81-1.385 3.424-1.14 131.762.236 141.702-10.702.25-21.99.13-32.74.19-13.401-.66-31.831-.03-45.506.01l-82.346.15c-.339-18.616 1.196-43.393-.242-61.423-2.727-15.229-.141-36.376-2.408-51.891-1.043-7.134 1.681-29.523-1.416-34.248l.079-.624c3.785.58 16.23-3.173 20.695-4.092l4.5-.956c3.468-.71 6.919-1.432 10.302-2.488 3.456-.459 6.869-1.338 10.273-2.117"/><path fill="#fafafa" d="M638.094 858.631c2.054-.258 5.037-1.372 7.025-.534.293.384.236.216.263.506-.177.398-.036.156-.511.747-8.304 3.723-38.308 12.179-48.041 14.796-.16 25.528.237 55.82-.761 80.901-2.727-15.229-.141-36.376-2.408-51.891-1.043-7.134 1.681-29.523-1.416-34.248l.079-.624c3.785.58 16.23-3.173 20.695-4.092l4.5-.956c3.468-.71 6.919-1.432 10.302-2.488 3.456-.459 6.869-1.338 10.273-2.117"/><path fill="#4d3731" d="M644.871 859.35c2.309 5.411.965 116.263.898 130.705-5.173 4.603-36.68 19.555-44.818 21.515l.175-.73a1970 1970 0 0 0 43.672-22.659z"/><path fill="#4d3731" d="M742.369 988.729c2.781 7.286.986 8.447-2.664 1.285z"/><path fill="#050f18" d="M332.03 858.746c2.666-.435 5.263-.628 7.951-.885l1.193-.071c.036 13.009.769 127.846-2.063 131.596l2.885.934c22.449-1.353 53.959-.465 77.046-.369l2.06-1.334c2.85 6.241 8.759 16.883 12.697 22.393l-1.361 2.66 2.774 4.49c5.856-3.84-2.922-126.18 4.55-142.112 2.796 4.242 1.712 46.146 1.717 53.978q.333 46.615.006 93.234l-105.112-.1c-11.215-.02-42.996-.85-53.043.35-1.643-15.87-1.195-41.147-1.271-57.511a4809 4809 0 0 0-1.107-93.963c1.71-2.069 3.43-2.258 6.03-3.054 11.771-2.211 23.571-5.223 35.227-8.032z"/><path fill="#fafafa" d="M332.03 858.746c2.666-.435 5.263-.628 7.951-.885l1.193-.071c.036 13.009.769 127.846-2.063 131.596l-.951-.4-.08-85.524c-.011-10.739-.681-33.928.605-43.298-13.975 5.109-38.471 13.12-53.019 16.87l-.461 141.026 150.007.1c5.856-3.84-2.922-126.18 4.55-142.112 2.796 4.242 1.712 46.146 1.717 53.978q.333 46.615.006 93.234l-105.112-.1c-11.215-.02-42.996-.85-53.043.35-1.643-15.87-1.195-41.147-1.271-57.511a4809 4809 0 0 0-1.107-93.963c1.71-2.069 3.43-2.258 6.03-3.054 11.771-2.211 23.571-5.223 35.227-8.032z"/><path fill="#b9957d" d="m339.981 857.861 1.193-.071c.036 13.009.769 127.846-2.063 131.596l-.951-.4-.08-85.524c-.011-10.739-.681-33.928.605-43.298 2.426 9.9.73 66.935.797 80.393.571-26.985-.681-55.989.499-82.696"/><path fill="#4d3731" d="m338.16 988.986.951.4 2.885.934c-2.732 1.816-8.058 3.719-11.339 5.275l-1.638.759c-9.485 4.476-19.588 8.276-29.039 12.896-.994.48-7.112 3.34-7.795 1.96.741-2.09 40.535-18.731 45.975-22.224"/><path fill="#4d3731" d="M421.102 988.617c2.85 6.241 8.759 16.883 12.697 22.393l-1.361 2.66c-3.519-3.9-10.227-18.223-13.396-23.719z"/><path fill="#050f18" d="m1078.84 862.434-1.31-2.534.65-1.225c2.84-.691 2.63-.214 5.83.679 6.51 2.916 14.52 6.783 21.15 8.863l1.38 5.612c-1.25 11.163-.52 39.464-.48 51.74l.14 98.311-114.996-.07c-7.001-.01-44.314.65-48.112-2.15 2.014-2.24 1.471-1.66 4.029-3.39-1.287-1.92-.998-24.554-.26-26.923.703 3.866.357 18.473.365 23.143 7.313-6.61 21.006-20.791 28.631-25.467 11.704 1.005 25.863-.372 37.163.84l64.93.11c-.34-11.953-.77-123.612.89-127.539"/><path fill="#fafafa" d="m1078.84 862.434-1.31-2.534.65-1.225c2.84-.691 2.63-.214 5.83.679 6.51 2.916 14.52 6.783 21.15 8.863l1.38 5.612c-1.25 11.163-.52 39.464-.48 51.74l.14 98.311-114.996-.07c-7.001-.01-44.314.65-48.112-2.15 2.014-2.24 1.471-1.66 4.029-3.39 16.843-.68 37.61-.1 54.889-.09l99.56-.04-.37-144.287c-7.3-3.481-15.11-7.696-22.36-11.419"/><path fill="#4d3731" d="M947.226 1014.49c7.313-6.61 21.006-20.791 28.631-25.467 11.704 1.005 25.863-.372 37.163.84-10.23.831-25.546.303-36.283.307-9.827 9.461-19.889 18.65-29.616 28.1-1.287-1.92-.998-24.554-.26-26.923.703 3.866.357 18.473.365 23.143"/><path fill="#050f18" d="M1714.75 861.83c4.36-1 40.47 11.669 47.22 13.562.1 24.399 1.23 56.865.18 80.59 1.95 18.848.09 42.181.06 61.108 0 1-5.05.78-5.4.79-.07-.28-1.03-4.17-1.21-4.31-7.17-5.86-34.87-20.345-41.88-23.319l2.57-1.549-1.48-.765-.98.341c-1.94-2.377-.99-111.141-1-122.865z"/><path fill="#c6c6c6" d="m1712.83 865.413 1.92-3.583c1.16 35.509-.3 71.581.24 107.14.09 6.136.14 12.857-.18 18.967l-.98.341c-1.94-2.377-.99-111.141-1-122.865"/><path fill="#4d3731" d="M1762.15 955.982c1.95 18.848.09 42.181.06 61.108 0 1-5.05.78-5.4.79-.07-.28-1.03-4.17-1.21-4.31-7.17-5.86-34.87-20.345-41.88-23.319l2.57-1.549c13.33 4.824 30.56 17.068 45.38 23.178.83-16.724-1.12-39.921.48-55.898"/><path fill="#050f18" d="M976.286 860.55c-.141 41.421.798 87.365-.429 128.473-7.625 4.676-21.318 18.857-28.631 25.467-.008-4.67.338-19.277-.365-23.143l.234-115.591a1109 1109 0 0 0 29.191-15.206"/><path fill="#050f18" d="M1628.67 990.077c15.29-.757 32.92-.338 48.35-.283 10.5.037 26.58-.322 36.7.457 7.01 2.974 34.71 17.459 41.88 23.319.18.14 1.14 4.03 1.21 4.31-47.69.81-97.44.13-145.3.16l.25-1.19c5.4-5.41 14.57-19.671 16.91-26.773"/><path fill="#fafafa" d="M1712.83 865.413c-.11-2.753-.57-4.796.87-7.035l3.3-.421 2.73.798c2.83.802 5.34 1.547 8.27 1.95 9.85 2.63 27.32 6.753 37.24 8.377 1.57 1.355 2.04 1.555 3.25 3.193-1.34 10.596-1.04 45.949-.96 59.052.2 29.406-1.45 63.051-.22 91.943l-167.46-.39-1.95-149.221.26-.59c3.41.449 7.52 1.398 9.79 4.297 5.47 7.009-5.2 135.174-2.34 139.144.35.49.92.76 1.39 1.14l4.51.39c47.86-.03 97.61.65 145.3-.16.35-.01 5.4.21 5.4-.79.03-18.927 1.89-42.26-.06-61.108 1.05-23.725-.08-56.191-.18-80.59-6.75-1.893-42.86-14.562-47.22-13.562z"/><path fill="#9c9c9c" d="M970.375 858.62c2.916-1.014 3.785-1.748 6.625-.792-.169 2.275.246 1.434-.714 2.722a1109 1109 0 0 1-29.191 15.206l-.234 115.591c-.738 2.369-1.027 25.003.26 26.923-2.558 1.73-2.015 1.15-4.029 3.39l-1.186-.66a5732 5732 0 0 1-1.396-147.536l-117.584-.093c-13.85-.015-47.156-.845-58.734.532-4.055 3.402-5.69 4.413-5.843 9.892-.332 11.869-.074 24.019-.07 35.908q-.04 33.63-.629 67.257c-.087 4.688-.054 25.65-.747 29.16-1.376-9.94-1.621-138.278-.236-141.702 1.467-3.628 9.667-5.361 13.073-5.81 12.473-1.642 26.439-.44 39.056-.424l91.164.184c14.827.027 30.938.304 45.71-.312 5.772-.24 18.697-6.695 24.705-9.436"/><path fill="#fafafa" d="m747.028 1155.39-3.639-1.97c18.319-1.48 37.51-.36 55.933-.61 6.356-.08 17.589.67 23.393-.17-4.154-3.55-4.111-5.72-4.723-11.12-1.321-11.68-12.464-22.31-17.214-32.49-5.109-10.94-4.842-24.4-15.476-31.4-.173-.11-1.488-1.51-1.59-1.61.183-3.23-.508-2 1.511-4.06l3.913-.99c.503-1.06.824-1.79 1.637-2.66 1.181 6.41 2.69 7.36 8.819 11.75 1.679 5.37 1.998 7.99 5.567 12.45 6.365 7.96 13.143 16.31 18.858 24.74.953 1.41.524 6.44.412 8.33 6.216 9.09 15.742 7.39 19.598 24.93 5.443 6.19 24.139 2.49 32.782 2.68 24.425.54 48.832.17 73.253-.32 3.95-.1 11.212.01 14.987.72-15.225 1.7-34.931 1.15-50.563 1.18l-77.477.03c-9.046-.01-30.229-.64-38.529.28-16.79.58-34.064-.45-51.452.31"/><path fill="#9c9c9c" d="M1040.2 1155.84c5.87-1.6 45.49-.67 53.76-.71l171.87-.49 199.03-1.58c10.82-.07 18.54-2.64 28.83-3.43 1.29-.1 1.86 1.66 2.83 3.23 37.03-1.35 78.97-.24 116.43-.37l57.81.01c17.12.04 29.72-1.11 46.66 2.55-14.84.93-34.63.32-49.77.3l-84.61.04-271.65.33-189.41.15-53.06.24c-6.75.05-22.62.49-28.72-.27"/><path fill="#fafafa" d="M764.192 873.903c2.826.151 28.595.803 28.953 1.11-8.256.172-25.936-1.259-30.681 3.557-1.935 4.269-.102 56.246-.929 66.607q-.607-13.375-.886-26.761c-.014 11.432.038 22.94-.345 34.367-.182 5.415-1.27 11.006-1.453 16.567-.876 1.802 3.176 7.65 3.176 7.661-.234 6.459-.36 14.019-1.261 20.39-.885 6.249.845 19.549-.739 24.829-6.641 2.06-31.706 1.03-39.517 1.3-40.921 1.44-82.683-1.35-123.464-.93l-1.751-.98c-.183-3.54-.83-2.4.792-4.38 16.071-.91 120.623 2.05 128.076-.93 10.75-.06 22.038.06 32.74-.19.693-3.51.66-24.472.747-29.16q.588-33.626.629-67.257c-.004-11.889-.262-24.039.07-35.908.153-5.479 1.788-6.49 5.843-9.892"/><path fill="#9c9c9c" d="M1525.95 1116.41c7.37-1.34 24.91-1.26 33.06-.48.5.11 1.29 1.21 1.2 1.67-.75 3.8-4.31 1.38-5.42 1.44l-1.66.1c-2.94 1.88-4.16-1-7.64.82-.55-.3-2.08-1.01-2.57-.36-1.74.26-1.36-1.7-3.42.59-2.39-1.91-.62-1.57-3.01-.23-.56-.3-2.09-1.01-2.57-.36-1.71.25-1.33-1.66-3.41.52-1.59-1.2-3.1-2.35-4.56-3.71"/><path fill="#9c9c9c" d="M1470.99 1111.51c10.89.02 9.23-1.38 9.72 9.14-9.45-.41-8.59.94-9.58-8.01z"/><path fill="#9c9c9c" d="M1600 1128c9.92-1.44 8.98-.32 8.16 9.56-7.93-4.17-9.68 1.02-8.16-9.56"/><path fill="#9c9c9c" d="M593.437 951.645c2.13 5.991.393 52.215.336 61.255l-.444.07-.128-.09c-.264-2.05-.079-16.876-.039-19.814.188-13.753.004-27.704.275-41.421"/><path fill="#9c9c9c" d="M1573.94 1112.37c7.23-1.23 14.73-2.33 8.79 7.63-5.54-1.26-1.51-4.76-4.27-4.66-2 .07-.8 1.79-4.52-2.97"/><path fill="#9c9c9c" d="M1598.11 1121.45c4.01.03 2.42 2.85 1.89 6.55-3.29-1.92-2.99-2.74-1.89-6.55"/><path fill="#fafafa" d="M773.998 1047.55a2.58 2.58 0 0 1 .013 5.15 2.6 2.6 0 0 1-2.353-1.24 2.58 2.58 0 0 1 2.34-3.91"/><path fill="#9c9c9c" d="M1502.49 962.781c2.66.552 6.46.331 3.65 3.15-2.44 5.456-3-.31-3.65-3.15"/><path fill="#9c9c9c" d="M1621.96 1142.47c2.25 1.67 4.04 2.73.85 3.55l-1.29-.01c-.73.37-1.44.91-1.97.52-.08-1.29 1.67-3.11 2.41-4.06"/><path fill="#9c9c9c" d="M358.082 1061.4c1.517 1.05.941 2.31.801 4.21-1.46-1.06-.913-2.36-.801-4.21"/><path fill="#9c9c9c" d="M1462.13 1114.39c1.31.96.86 1.53.71 3.22-1.27-.97-.84-1.57-.71-3.22"/><path fill="#ae724c" d="m341.174 857.79 3.414-1.893c3.523 11.799 1.025 109.691.854 127.761l69.003-.023c.037-9.867-.413-28.291.447-37.506 1.703 3.562 1.236 9.928 1.256 14.15 8.285-3.299-1.662-63.536 4.757-73.332.483 33.847-.364 67.988.197 101.67l-2.06 1.334c-23.087-.096-54.597-.984-77.046.369l-2.885-.934c2.832-3.75 2.099-118.587 2.063-131.596"/></svg>