<svg xmlns="http://www.w3.org/2000/svg" width="2048" height="2048" viewBox="0 0 2048 2048"><path fill="#252338" d="M0 0h2048v2048H0z"/><path fill="#0ff6f1" d="M1015.05 121.508c4.4-.09 8.66.088 12.05 3.118 11.87 10.607 23.22 21.924 34.61 33.053l67.86 66.589 219.26 215.103c12.2 12.076 28.03 26.084 12.34 43.424-12.05 13.31-25.28 25.946-38 38.64l-72.95 72.911-246.09 246.409c9.04 10.304 17.28 21.1 25.71 31.904a34418 34418 0 0 1 261.18-264.153c1.85 6.101 4.23 12.747 6.26 18.845a296 296 0 0 1 3.4-6.27c8.67-15.351 18.04-30.708 27.05-45.897 8.81-13.494 17.85-35.328 30.19-45.427 16.31-13.35 41.88-47.726 60.86-53.145 5.01 1.337 10 2.283 13.76 5.811 16.16 15.143 32.28 31.579 47.96 47.198l92.16 91.712 94.98 94.361c16.17 16.022 32.55 32.225 48.48 48.466 19.41 19.799-13.97 44.35-27.5 57.415l-38.48 37.564c-9.87 9.616-27.83 33.109-41.86 34.026-13.39.876-25.39-14.34-34.39-23.082-12.66-12.279-25.03-25.388-38.19-37.446l.26 350.043c-10.52 12.67-30.98 33.06-42.89 44.66l42.9 55.52-.17 175.19c-35.57 33.53-69.84 69.28-105.64 102.58-6.87 6.39-18.39 9.51-26.06 2.61-10.62-9.55-20.88-20.2-31.08-30.36l-55.81-55.03c-71.66-70.54-142.32-142.24-216.89-209.68 2.78-13.69 5.46-27.41 8.04-41.14-9.77 2.46-19.53 4.98-29.27 7.56-11.68-10.92-23.43-22.56-34.96-33.7l-.04 454.4c21.64-20.33 43.15-40.78 64.56-61.35 28.65-27.77 57.46-55.38 86.41-82.83 11.76-11.3 23.23-22.83 35.07-34.1 9.94-9.45 21.61-10.53 32.16-.92 11.48 10.47 22.21 22.03 33.39 32.95l42.09 41.31c7.65 7.55 15.34 14.93 22.38 22.8 9.37 10.47 4.38 20.58-4.26 29.24-22.82 22.88-46.36 45.55-69.42 68.14l-130.73 128.64-89.94 88.28c-14.58 14.33-29.06 29.23-44.14 43-12.59 11.49-23.137 9.99-34.755-1.28-33.867-32.84-66.791-66.61-100.256-99.86-8.53-8.47-18.292-17.63-25.502-27.15l.097-465.51c-8.287-2.12-19.37-3.7-27.979-5.17a750 750 0 0 1 12.984 61.8c-15.32 17.42-38.065 39.28-54.769 56.24l-100.45 101.73-84.928 86.13c-14.991 15.24-29.815 30.27-45.096 45.35-10.406 10.27-25.808 5.68-26.77-8.25-.972-14.08-.333-30-.318-44.35l.048-85.26.02-277.71c11.584-14.63 33.141-34.97 46.892-48.65-15.013-16.66-31.509-32.43-46.849-49.03l-.072-554.749.053-184.094c.004-29.007-.304-57.92-.101-87.016-.574-11.644 12.524-20.72 22.201-12.646 12.28 10.245 23.786 22.661 35.25 33.959l63.617 62.539L861.04 631.721l-.043-403.204c11.314-11.079 23.799-23.289 35.536-33.772-23.589-24.441-48.951-47.903-72.608-72.617q95.561-1.12 191.125-.62"/><path fill="#020115" d="M1298.53 631.639c15.73-28.811 36.09-63.307 53.93-91.22 7.61-11.904 28.03-26.631 37.63-38.243 7.54-7.597 25.96-29.047 37.7-19.272 12.84 10.686 25.47 23.957 37.38 35.802l80.83 80.682 117.05 116.252c15.96 15.955 32.2 31.516 47.89 47.799 10.11 9.483 10.36 20.331.77 30.777-13.56 14.626-28.43 28.131-42.59 42.224-16.1 16.032-32.36 31.962-48.46 47.976-17.92 17.825-38.63-10.715-50.56-22.607a4109 4109 0 0 0-37.16-36.236l.04 356.077c-13.17 14.87-29.99 31.99-44.15 46.15 13.71 16.69 31.52 38.38 44.19 55.74l-.09 172.94c-22.17 21.91-44.47 43.7-66.88 65.36-12.06 11.86-23.92 24.19-36.57 35.39-2.85 2.52-9.11 6.49-13.16 6.59-3.59.09-8.04-1.04-10.77-3.53-10.99-10.01-21.51-20.6-32.09-31.04l-58.8-58.08c-69.1-68.27-139.31-139.36-211.19-204.38 3.2-14.77 6.3-29.55 9.3-44.35a802 802 0 0 1-32.81 8.53c-13.18-12.07-25.59-24.86-38.7-37.02l-.04 468.41 134.38-128.61c12.17-11.53 24.25-23.16 36.23-34.88 8.05-7.83 15.72-15.4 24.18-22.63 7.16-6.12 18.5-3.42 24.69 2.55 31.26 30.14 61.84 61.24 92.95 91.59 9.1 8.87 12.1 17.32 2.51 27.27-16.43 17.11-34.06 33.73-51.22 50.42l-90.63 88.95-118.21 116.43c-24.23 24.01-48.43 48.08-73 71.74-3.69 3.56-12.8 10.25-18.04 9.75-12.578-1.19-25.154-16.84-34.072-25.66l-41.602-41.47-39.987-40c-6.264-6.27-16.158-15.52-21.651-22.05a93 93 0 0 1-3.403-4.36l-.182-467.41-27.84-5.58c-.458-12.81-2.185-33.2-1.902-44.87l-1.134-1.56c1.799-1.89 2.452-3 3.694-5.3-8.486-6.24-9.028-14.21-13.656-24.74-7.416 2.75-19.124 11.08-24.51 9.65l-1.437-2.93c-2.611-10.27-8.074-18.62-10.698-30.51a9841 9841 0 0 1 80.539-88.81c16.594-18.17 33.513-37.28 50.864-54.54.07-29.8-.11-59.59-.541-89.381 5.656-9.877 11.415-20.835 16.75-30.912-2.48-7.314-25.861-60.064-30.347-67.912 5.171-3.812 11.974-10.39 16.901-14.895 3.328 3.692 6.801 7.047 10.334 10.536 13.07-6.221 26.246-11.225 39.192-17.725 4.242 11.687 18.411 32.579 25.388 44.687l-.236 62.761c69.906-74.264 144.876-146.033 215.656-219.614 18.02-18.74 37.71-36.852 55.09-56.055l12.39-12.047c12.39 22.157 27.03 47.1 40.82 68.361-6.8 12.766-20.21 39.426-27.77 50.063-1.89.488-.84.487-3.11-.487-4.58 4.001-8.41 8.192-12.58 12.601 1.77 2.405 1.55 2.395 4.31 3.422 2.19-2.159 6.68-6.971 9.15-8.207 2.05 2.093 1.43 1.335 2.81 3.956 4.66-3.871 28.25-51.161 33.61-60.575-13.94-24.89-29.51-49.008-42.72-74.133l22.63-22.795c-2.51-11.007-5.76-23.77-7.28-34.81"/><defs><linearGradient id="a" x1="1322.051" x2="787.784" y1="1302.392" y2="1251.07" gradientUnits="userSpaceOnUse"><stop offset="0" stop-color="#acacac"/><stop offset="1" stop-color="#ececec"/></linearGradient></defs><path fill="url(#a)" d="m1266.27 706.29 12.39-12.047c12.39 22.157 27.03 47.1 40.82 68.361-6.8 12.766-20.21 39.426-27.77 50.063-1.89.488-.84.487-3.11-.487-4.58 4.001-8.41 8.192-12.58 12.601 1.77 2.405 1.55 2.395 4.31 3.422-68.38 71.026-141.64 139.814-209.41 210.887 24.34 16.04 48.6 32.21 72.77 48.51-12.23 19.75-23.54 38.12-35.21 58.28l11.29 7.27c-5.5 13.12-10.96 28.87-16.53 41.21-34.87-29.72-69.39-61.54-104.296-91.63l-.069 654.49a3103 3103 0 0 0 107.865-100.01l139.71-133.23c17.79 14.98 44.49 43.54 62.06 60.9-10.36 9.17-26.23 25.9-36.58 36.09l-82.95 82.3-110.32 109.39c-24.99 24.64-50.08 48.55-74.55 73.86-31.477-33.96-66.065-66.39-98.145-99.9l-.151-515.99c-2.722-2.67-.136-21.98-1.351-26.68-.097-.38-3.677-1.83-4.018-2-16.83 18.44-33.975 36.42-50.621 55.03-4.815-4.03-11.144-9.04-15.403-13.44l-1.134-1.56c1.799-1.89 2.452-3 3.694-5.3-8.486-6.24-9.028-14.21-13.656-24.74-7.416 2.75-19.124 11.08-24.51 9.65l-1.437-2.93c-2.611-10.27-8.074-18.62-10.698-30.51a9841 9841 0 0 1 80.539-88.81c16.594-18.17 33.513-37.28 50.864-54.54.07-29.8-.11-59.59-.541-89.381 5.656-9.877 11.415-20.835 16.75-30.912-2.48-7.314-25.861-60.064-30.347-67.912 5.171-3.812 11.974-10.39 16.901-14.895 3.328 3.692 6.801 7.047 10.334 10.536 13.07-6.221 26.246-11.225 39.192-17.725 4.242 11.687 18.411 32.579 25.388 44.687l-.236 62.761c69.906-74.264 144.876-146.033 215.656-219.614 18.02-18.74 37.71-36.852 55.09-56.055"/><path fill="#0ff6f1" d="M1276.02 824.781c1.77 2.405 1.55 2.395 4.31 3.422-68.38 71.026-141.64 139.814-209.41 210.887 24.34 16.04 48.6 32.21 72.77 48.51-12.23 19.75-23.54 38.12-35.21 58.28l11.29 7.27c-5.5 13.12-10.96 28.87-16.53 41.21-34.87-29.72-69.39-61.54-104.296-91.63l-.069 654.49a3103 3103 0 0 0 107.865-100.01l139.71-133.23c17.79 14.98 44.49 43.54 62.06 60.9-10.36 9.17-26.23 25.9-36.58 36.09l-82.95 82.3-110.32 109.39c-24.99 24.64-50.08 48.55-74.55 73.86-31.477-33.96-66.065-66.39-98.145-99.9l-.151-515.99c-2.722-2.67-.136-21.98-1.351-26.68-.097-.38-3.677-1.83-4.018-2-16.83 18.44-33.975 36.42-50.621 55.03-4.815-4.03-11.144-9.04-15.403-13.44l-1.134-1.56c1.799-1.89 2.452-3 3.694-5.3 3.968 3.78 8.347 7.79 12.112 11.73 17.342-20.11 45.597-50.51 64.98-69.43l-.029 367.69c-.02 65.16-.794 131.6.041 196.61a3619 3619 0 0 0 56.873 57.71c10.095 10.12 24.272 23.66 33.162 34.35 62.3-59.93 123.96-120.53 184.98-181.77l71.2-70.39c12.43-12.28 27.71-26.48 39.27-39.14-16.82-16.27-37.03-34.98-52.61-52.14a8462 8462 0 0 0-95.45 91.15c-9.14 8.74-31.67 31.9-40.14 38.26-25.94 27.09-55.88 52.25-83.21 77.99-11.2 10.55-23.45 21.71-35.295 31.46-.523-62.52.384-126.64.529-189.32l-.568-493.47c18.924 15.1 38.254 32.51 56.584 48.52 16.71 14.59 36.24 30.99 51.46 46.77 3.23-8.83 8.35-20.89 12.34-29.25-5.63-2.57-7.23-3.87-12.02-7.48 11.3-19.26 22.95-38.31 34.96-57.14-24.65-15.72-49.45-33.21-73.86-49.54 8.72-10.9 22.63-24.2 32.78-34.24a6383 6383 0 0 0 49.56-49.179l84.53-85.24c15.31-15.386 30.95-31.779 46.86-46.41"/><path fill="#040b17" d="M900.445 1241.95c1.886-2.27 3.792-4.53 5.716-6.77-.018 10.19.304 25.62-.347 35.45-2.722-2.67-.136-21.98-1.351-26.68-.097-.38-3.677-1.83-4.018-2"/><path fill="#0ff6f1" d="M1424.23 535.526c3.06 2.105 13.34 12.83 16.61 16.124a3363 3363 0 0 0 37.57 37.69l190.96 189.422c-20.1 20.583-41.76 40.255-60.13 62.255-24.03-25.084-49.42-49.22-73.69-74.134-14.08-14.465-28.66-28.964-43.29-42.85 1.05 86.103-.71 172.311.33 258.217l-.25 178.82c-5.25 5.55-10.6 11.01-16.04 16.38-25.05-19.07-50.34-40.77-74.52-60.99.45-33.9-.11-69.32-.12-103.37l-.16-249.468c-8.94 2.796-18.79 5.387-27.86 7.967a276 276 0 0 1 19.4-28.604c-13.12-21.619-28.03-43.343-41.54-65.241 7.36-16.084 12.55-16.884 27.93-26.34.82-8.281 4.51-22.884 6.48-31.446 3.82-17.092 7.9-34.128 12.22-51.101 7.82.181 16.07.717 23.92 1.098.1-12.586.95-21.927 2.18-34.429"/><path fill="#e7e7e6" d="M1428.35 549.478c8.85 3.416 204.61 203.063 232.43 227.971-17.62 17.592-35.92 34.885-52.77 53.161-7.58-9.675-35.85-36.681-45.98-46.691-24.52-24.224-49.85-51.276-74.45-75.131l-.06 249.462-.12 200.38-9.85 10.64c-24.33-19.48-44.69-36.49-68.01-56.97-1-83.38-.39-167.828-.44-251.263l-.33-68.683c0-9.109.82-27.236-.4-35.103-2.74-.899-12.68 2.159-18.42 2.396l-.99-.944c3.11-5.341 7.46-11.505 10.96-16.717-8.92-15.84-32.07-52.274-41.92-66.596 8.58-9.45 16.85-14.164 27.45-21.07 1.67-21.343 13.74-55.312 17.17-78.295l24.39.325c1.02-9.703 1.17-17.169 1.34-26.872"/><path fill="#0ff6f1" d="M1359.45 813.654c1.25 5.688 1.02 23.113 1.08 29.732l.2 58.804-.47 235.92a2630 2630 0 0 1 33.71 47.7c-11.24 7.09-22.58 14.67-33.73 21.96.11 21.21.08 42.41-.08 63.61-35.69-35.77-74.92-72.42-109.26-108.9-8.49 1.21-16.73 2.81-25.14 4.39l-46.89 9.28c-2.66-11.47-5.88-21.71-9.33-32.95q17.145-33.39 33.75-67.05a4316 4316 0 0 1-68.93-38.06c18.16-17.17 37.01-36.77 54.73-54.554l73.97-73.923c9.96-10.043 41.38-43.878 50.89-50.593l16.35 11.145c8.48-15.585 20.38-42.655 29.15-56.511"/><path fill="#252338" d="M1352.76 832.766c1.44-2.922 2.44-5.318 4.02-8.321l.6-1.166c-.06 5.614-.03 11.319-.26 16.915.66 5.696.29 23.992.29 30.612l-.19 66.845.06 201.539a837 837 0 0 1 32.5 46.17 398 398 0 0 0-32.57 21.14l.03 57.82c-11.23-12.47-24.66-24.6-36.63-36.51-22.8-22.9-45.81-45.59-69.02-68.07-6.25.21-19.77 3.07-26.26 4.32l-44.34 8.58c-2.58-9.49-4.97-18.97-8.46-28.16 8.89-20.1 24.6-49.05 34.79-69.72-22.27-11.57-45.86-24.87-67.63-37.33 20.91-19.16 46.17-46.379 66.72-67.091 34.99-35.272 72.89-71.841 106.84-107.886 6.09 3.872 12.32 8.402 18.27 12.571z"/><path fill="#020115" d="M1352.76 832.766c1.44-2.922 2.44-5.318 4.02-8.321l.6-1.166c-.06 5.614-.03 11.319-.26 16.915-.64.136-.92.339-1.4.135-1.57-3.364 1.75-2.93-2.96-7.563"/><path fill="#0ff6f1" d="M1233.41 1211.42c1.26-.2 7.87-.37 9.47-.44 52.8 50.64 105.41 105.49 158.11 156.92l.21-136.4c9.34-5.87 20.27-11.96 29.88-17.59 19.46 31.21 38.91 54.76 61.69 83.74-.08 37.6.32 101.26-.34 141.28-.46.57-.92 1.14-1.38 1.72-7.09 8.28-19.63 19.2-27.9 27.07l-48.39 46.45c-21.22-23.18-48.52-48.08-71.01-70.82-64.6-65.3-132.51-128.81-196.78-194.35 3.4-9.51 9.29-22.33 13.32-31.79z"/><path fill="#e7e7e6" d="M1165 1222.79c25.42-1.22 50.42-4.45 75.94-5.35 39.07 35.62 76.17 77.32 114.9 113.84 16.48 15.55 36.17 34.63 51.11 51.46l1.77.77c1.8-2.45 1.29-4.63 1.33-8.22l8.83 4.5c4.97 9.36 19.99 22.4 26.08 32.91 4.39 7.58 26.45 26.03 29.21 33.68-2.4 2.97-2.93 2.49-4.08 6.33-3.29 5.18-46.34 43.61-53.72 50.85-28.23-29.48-60.42-59.75-89.78-88.65a23756 23756 0 0 0-171.65-168.79c3.41-6.27 8.34-16.52 10.06-23.33"/><defs><linearGradient id="b" x1="1488.946" x2="1405.713" y1="1304.557" y2="1368.072" gradientUnits="userSpaceOnUse"><stop offset="0" stop-color="#a6a6a6"/><stop offset="1" stop-color="#d7d7d6"/></linearGradient></defs><path fill="url(#b)" d="m1408.1 1234.76 22.22-12.57c8.53 19.01 42.59 59.54 57.2 77.93l.16 136.54c-5.77 5.68-11.09 11.19-17.59 16.05 1.15-3.84 1.68-3.36 4.08-6.33-2.76-7.65-24.82-26.1-29.21-33.68-6.09-10.51-21.11-23.55-26.08-32.91l-8.83-4.5c-.04 3.59.47 5.77-1.33 8.22l-1.77-.77c1.99-5.04 1.1-134.29 1.15-147.98"/><path fill="#020115" d="m830.565 124.942 192.805-.191c68.49 64.888 136.7 134.065 204.47 200.12l82.65 81.148c15.88 15.51 32.18 30.884 47.44 46.987 9.27 9.782 8.52 20.135-.53 29.406-22.52 23.083-45.54 45.644-68.31 68.471l-140.22 140.48-95.66 95.761c-14.42 14.511-40.46 42.181-55.493 54.688 2.167-14.099 4.133-23.109 7.183-37.023-2.19-5.572-6.445-10.138-10.247-14.898-.804 2.312-1.394 3.722-1.871 6.144 2.589 3.713 3.8 3.96 3.584 7.435-5.793 2.279-51.838 14.312-55.767 13.812-2.89-2.406-3.392-3.513-5.396-6.603l-.947 2.901-1.57.471-4.194-2.426c2.587 4.357 6.08 8.965 9.058 13.13 14.851-2.416 43.498-10.185 59.496-13.937-.025 9.653-1.604 20.146-.472 29.493 11.476 6.416 24.736 25.742 32.946 36.973l174.09-176.577 48.5-48.736c12.53-12.445 26.18-25.338 37.84-38.479 5.07 16.039 8.4 33.269 11.96 49.764a3441 3441 0 0 0-40.6 39.818c2.35 1.772 2.36 2.023 4.96 3.216-17.38 19.203-37.07 37.315-55.09 56.055-70.78 73.581-145.75 145.35-215.656 219.614l.236-62.761c-6.977-12.108-21.146-33-25.388-44.687-12.946 6.5-26.122 11.504-39.192 17.725-3.533-3.489-7.006-6.844-10.334-10.536-4.927 4.505-11.73 11.083-16.901 14.895 4.486 7.848 27.867 60.598 30.347 67.912-5.335 10.077-11.094 21.035-16.75 30.912.431 29.791.611 59.581.541 89.381-17.351 17.26-34.27 36.37-50.864 54.54a9841 9841 0 0 0-80.539 88.81c2.624 11.89 8.087 20.24 10.698 30.51.024 6.41-.926 6.56 3.769 10.81 2.464-1.79 14.971-8.29 18.329-10.12 2.839 7.11 7.068 16.14 8.682 23.32 3.347 14.88.192 36.69 3.005 51.31 3.842 19.98 8.826 38.35 11.833 58.77-55.964 58.06-113.98 115.56-170.683 173.06l-65.663 66.45c-14.572 14.88-28.895 29.74-43.911 44.42-6.024 5.89-13.079 12.96-22.22 5.27-1.964-1.66-3.169-4.81-3.248-7.43-.432-14.39-.252-28.86-.247-43.28l.054-85.18.03-277.64c8.162-11.32 37.106-39.22 48.019-50.17-14.105-16.25-32.943-33.42-48.029-50.03l-.049-524.97.002-202.171c.001-31.947-.228-63.909-.127-95.852.011-3.405.521-7.766 3.081-10.333 7.626-7.647 12.992-2.597 19.491 3.129 23.744 22.71 47.043 45.899 70.449 68.932l146.209 144.874c26.61 26.55 60.504 61.867 87.978 86.823l-.093-408.328c6.88-8.206 28.122-27.38 36.863-35.635-21.491-22.704-47.776-47.227-70.337-69.747"/><defs><linearGradient id="c" x1="1145.238" x2="806.412" y1="291.45" y2="703.025" gradientUnits="userSpaceOnUse"><stop offset="0" stop-color="#ababab"/><stop offset="1" stop-color="#ddd"/></linearGradient></defs><path fill="url(#c)" d="m938.512 172.117 67.448.404c14.3 15.121 32.62 31.685 47.69 46.645l121.22 120.023 79.59 78.332c14.1 13.87 36.21 36.497 51.14 48.676-27.25 28.724-56.82 56.902-84.78 85.147L985.803 787.282l6.979 8.753c2.589 3.713 3.8 3.96 3.584 7.435-5.793 2.279-51.838 14.312-55.767 13.812-2.89-2.406-3.392-3.513-5.396-6.603-8.739-13.786-22.402-36.532-31.849-49.095l10.699-11.034-.11-308.227c-.176-63.251-.921-128.927.024-192.115 20.223 15.399 38.516 28.755 59.3 43.459 6.871 15.63 21.105 38.449 29.733 55.758-3.708-1.956-7.269-4.195-10.856-6.369-1.387 111.014-.268 224.345-.233 335.474L1132.7 538.01c21.22-21.595 47.92-47.405 67.48-69.713-10.25-11.14-24.88-24.527-36.03-35.46l-62.34-61.779c-10.37-10.29-28.37-27.274-37.04-38.294-5.79-7.347-17.7-31.875-22.3-40.94 4.01-3.44 6.95-6.76 10.53-10.613a2464 2464 0 0 0-48.92-57.517c-9.825-11.317-23.515-27.741-34.263-37.628-4.069 7.91-8.111 16.883-11.969 24.979a736 736 0 0 1-19.336-38.928"/><path fill="#0ff6f1" d="M578.055 417.528c30.325 31.75 62.536 62.969 93.84 93.82l113.88 112.545c22.465 22.144 46.65 45.006 68.336 67.629a872 872 0 0 1-19.134 34.715c5.588 3.888 13.497 8.344 19.484 11.934a5468 5468 0 0 1-41.778 48.46c-46.825-46.404-95.71-92.976-143.228-138.877 1.621 150.286.246 302.354.164 452.716 12.734 3.17 26.26 5.43 39.244 8.5l-3.82 2.49c-4.464-.92-9.925-2.39-14.117-.82-2.169 1.98-3.591 2.67-5.624 4.94l-4.101-1.05-3.282 2.48-1.714.04c-5.895 3.73-55.556 58.57-62.587 66.77-11.466-12.09-23.982-23.99-35.743-35.98z"/><path fill="#040b17" d="M681.201 1114.53c2.57-2.98 5.949-3.2 9.725-3.89-2.169 1.98-3.591 2.67-5.624 4.94z"/><defs><linearGradient id="d" x1="524.668" x2="821.962" y1="788.607" y2="841.461" gradientUnits="userSpaceOnUse"><stop offset="0" stop-color="#a9a9a9"/><stop offset="1" stop-color="#d4d4d4"/></linearGradient></defs><path fill="url(#d)" d="M585.499 434.187c6.34 3.675 50.827 50.228 58.924 58.209l203.081 200.133c-5.813 10.653-14.175 24.619-18.822 35.375 5.733 3.316 11.292 6.958 16.872 10.529-8.289 11.43-23.64 27.742-33.411 39.118-16.239-18.251-44.091-43.9-62.306-61.359l-86.139-83.436c-1.476 69.11-.086 143.922-.153 213.503l-.202 151.145c-.134 16.296-2.357 95.386 1.061 107.116 2.99 2.16 7.523 1.87 11.399 2.09-10.858 9.95-19.763 20.59-29.818 31.2-10.959 11.55-22.074 22.92-33.026 34.51l-27.081-27.37.1-476.791.163-146.993c.018-28.163.566-59.033-.642-86.979"/><path fill="#252338" d="m713.333 749.791 59.792 58.719c9.189 9.116 25.057 24.253 32.839 33.796 20.984-3.923 41.151-10.143 61.831-14.608l9.288 20.163a1422 1422 0 0 1-40.218 29.658c10.19 28.17 23.577 55.986 33.378 84.252-3.006 5.894-5.434 9.769-6.37 16.318l-.271 1.775c-1.107 7.627-.636 24.116-.593 32.736l.073 51.6c-13.542 17.47-34.595 40.13-49.493 56.73l-89.161 99.48c4.828.88 7.771 1.45 12.443 2.89a810 810 0 0 1-23.834 30.24l-.022-64.21c-6.719-5.91-12.627-10.92-19.825-16.28 10.81-11.79 28.655-32.27 40.11-42.06-10.106-3.41-40.031-11.89-47.998-15.41 2.033-2.27 3.455-2.96 5.624-4.94 4.192-1.57 9.653-.1 14.117.82 2.886.49 5.692 1.59 7.75.55 1.187-9.23.603-31.56.646-42q.36-39.33.23-78.658z"/><path fill="#0ff6f1" d="m928.697 166.083 79.793.105c8.37 9.231 21.67 21.341 30.92 30.578l81.83 80.655L1313.77 467.4c-10.76 11.818-24.55 24.915-36.08 36.489a5814 5814 0 0 1-65.57 65.553l-141.54 141.932-48.51 48.775c-4.73 4.75-26.512 25.339-27.417 29.742-.804 2.312-1.394 3.722-1.871 6.144l-6.979-8.753 235.017-235.938c27.96-28.245 57.53-56.423 84.78-85.147-14.93-12.179-37.04-34.806-51.14-48.676l-79.59-78.332-121.22-120.023c-15.07-14.96-33.39-31.524-47.69-46.645l-67.448-.404a736 736 0 0 0 19.336 38.928c3.858-8.096 7.9-17.069 11.969-24.979 10.748 9.887 24.438 26.311 34.263 37.628a2464 2464 0 0 1 48.92 57.517c-3.58 3.853-6.52 7.173-10.53 10.613 4.6 9.065 16.51 33.593 22.3 40.94 8.67 11.02 26.67 28.004 37.04 38.294l62.34 61.779c11.15 10.933 25.78 24.32 36.03 35.46-19.56 22.308-46.26 48.118-67.48 69.713L991.911 678.53c-.035-111.129-1.154-224.46.233-335.474 3.587 2.174 7.148 4.413 10.856 6.369-8.628-17.309-22.862-40.128-29.733-55.758-20.784-14.704-39.077-28.06-59.3-43.459-.945 63.188-.2 128.864-.024 192.115l.11 308.227-10.699 11.034c9.447 12.563 23.11 35.309 31.849 49.095l-.947 2.901-1.57.471-4.194-2.426a4973 4973 0 0 0-34.521-50.77q6.061-6.182 12.059-12.425l-.73-498.948 8.047-7.141c17.874 14.988 46.501 31.912 62.566 46.303 8.232 7.374 35.107 62.179 41.037 74.312a732 732 0 0 1-19.069-9.927q.815 155.446-.303 310.89a15221 15221 0 0 0 126.942-126.92c17.05-17.198 52.27-50.99 66.2-68.435-29.72-31.463-62.67-61.643-93.05-92.555-9.61-9.784-31.57-29.644-38.79-39.635-6.11-8.452-19.04-34.293-24.27-44.479l8.81-9.798c-22.23-26.999-49.16-58.601-72.53-84.804-4.028 10.333-7.881 21.946-11.595 32.499-9.33-21.301-21.264-42.142-30.598-63.709"/><path fill="#0ff6f1" d="M1261.31 703.074c2.35 1.772 2.36 2.023 4.96 3.216-17.38 19.203-37.07 37.315-55.09 56.055-70.78 73.581-145.75 145.35-215.656 219.614l.236-62.761c-6.977-12.108-21.146-33-25.388-44.687-12.946 6.5-26.122 11.504-39.192 17.725-3.533-3.489-7.006-6.844-10.334-10.536-4.927 4.505-11.73 11.083-16.901 14.895 4.486 7.848 27.867 60.598 30.347 67.912-5.335 10.077-11.094 21.035-16.75 30.912.431 29.791.611 59.581.541 89.381-17.351 17.26-34.27 36.37-50.864 54.54a9841 9841 0 0 0-80.539 88.81c2.624 11.89 8.087 20.24 10.698 30.51.024 6.41-.926 6.56 3.769 10.81-2.385.89-2.395 1.19-4.782.57-5.839-6.39-12.142-26.62-15.323-35.49-.785-5.42-1.366-6.16.841-10.38 43.383-46.5 85.424-95 129.115-141.59l-.17-87.9c5.683-9.02 11.243-20.366 16.239-29.943a5467 5467 0 0 1-31.428-69.791c7.106-5.205 19.654-14.414 25.039-20.96 3.554 3.882 7.115 8.01 10.61 11.966 11.604-6.34 27.968-12.592 40.336-17.565 9.685 14.976 20.025 33.302 29.316 48.813l.08 49.714c9.3-8.235 22.59-23.084 31.82-32.605l56.88-58.05z"/><path fill="#0ff6f1" d="M710.46 742.919a4735 4735 0 0 1 54.504 53.339c14.122 13.873 29.441 28.199 42.979 42.538 16.719-2.841 44.734-10.047 61.525-14.874l11.093 24.69-40.336 30.474c9.796 23.834 22.999 59.861 33.476 82.235-10.075 19.717-7.716 29.142-7.614 50.439l.291 53.99c-44.125 49.66-92.723 102.03-135.481 152.13 14.007 2.02 37.284 5.86 50.986 6.29-2.207 4.22-1.626 4.96-.841 10.38l-1.828-3.65c-5.421-3.6-29.808-6.84-37.574-8.38-10.878 12.28-22.252 27.81-31.802 41.15.347-24.22.193-48.86.255-73.12-5.879-5.5-14.888-12.22-21.376-17.36 11.482-11.15 27.919-29.37 38.075-41.34a3617 3617 0 0 0-48.873-14.84l3.282-2.48 4.101 1.05c7.967 3.52 37.892 12 47.998 15.41-11.455 9.79-29.3 30.27-40.11 42.06 7.198 5.36 13.106 10.37 19.825 16.28l.022 64.21a810 810 0 0 0 23.834-30.24c-4.672-1.44-7.615-2.01-12.443-2.89l89.161-99.48c14.898-16.6 35.951-39.26 49.493-56.73l-.073-51.6c-.043-8.62-.514-25.109.593-32.736l.271-1.775c.936-6.549 3.364-10.424 6.37-16.318-9.801-28.266-23.188-56.082-33.378-84.252a1422 1422 0 0 0 40.218-29.658l-9.288-20.163c-20.68 4.465-40.847 10.685-61.831 14.608-7.782-9.543-23.65-24.68-32.839-33.796l-59.792-58.719.336 241.561q.13 39.327-.23 78.658c-.043 10.44.541 32.77-.646 42-2.058 1.04-4.864-.06-7.75-.55l3.82-2.49c2.296-3.58 1.554-20.41 1.565-25.75l.105-66.29.021-183.394c-.024-29.656.508-61.106-.094-90.617"/><path fill="#0ff6f1" d="m668.027 1212.96.79.6c1.047 3.27.514 37.41.5 42.65l-.274 105.59c21-21.27 46.578-43.29 68.742-64.11a1955 1955 0 0 0 41.149 28.32c-3.418 14.55-5.997 29.31-9.539 44.06 8.914 2.34 17.739 5.12 26.555 7.82-12.162 14.28-32.543 33.22-46.605 47.25l-71.656 72.42-58.404 58.76c-12.275 12.55-28.704 30.22-41.449 41.67-.986-32.18.032-69.81.036-102.47l-.02-209.86c20.145-17.33 41.36-42.35 61.844-59.74 3.023-2.57 23.575-10.85 28.331-12.96"/><defs><linearGradient id="e" x1="778.384" x2="583.163" y1="1395.641" y2="1401.135" gradientUnits="userSpaceOnUse"><stop offset="0" stop-color="#ababab"/><stop offset="1" stop-color="#d4d4d3"/></linearGradient></defs><path fill="url(#e)" d="m660.875 1222.83 1.289.33c1.374 2.61.554 138.75.967 153.22 22.972-23.34 50.87-48.06 75.13-70.67 11.092 7.55 23.507 15.62 33.823 23.96-3.291 9.81-7.291 32.72-9.3 43.34 5.983 2.74 15.659 5.89 22.083 8.2-32.636 31.09-65.55 65.21-97.367 97.48l-101.627 101.97-.041-292.83c7.576-7.93 16.454-16.32 24.389-24.15 11.224-11.07 22.441-24.14 35.1-33.24 2.924-2.11 11.702-5.83 15.554-7.61"/><path fill="#0ff6f1" d="M1041.58 378.661c30.37 27.45 60.67 61.959 91.11 90.504-14.14 12.467-33.47 33.575-47.02 47.503-14.81 15.196-29.62 29.751-44.37 45.185l-.17-112.191c.01-22.811-.52-48.433.45-71.001"/><path fill="#252338" d="M1044.18 386.495c4 2.392 20.74 19.44 25.12 23.804a7411 7411 0 0 1 58.66 59.22c-13.36 12.738-27.68 27.948-40.77 41.216-13.78 14.589-28.91 29.407-43.07 43.734z"/></svg>