<svg xmlns="http://www.w3.org/2000/svg" width="2048" height="2048" viewBox="0 0 2048 2048"><path fill="#21252e" d="M0 0h2048v2048H0z"/><path fill="#020011" d="M1029.68 91.502c69.6-.159 124.23 43.259 141.5 110.291 20.22 5.93 40.85 16.44 57.97 28.629a204.79 204.79 0 0 1 82.44 131.232c93.08 36.579 165.64 128.891 167.59 230.555 24.54 12.503 60.14 35.854 84.85 50.873l140.74 84.491c-7.94 23.061-15.39 48.42-22.93 71.805l-63.89 201.392-168.38 528.01c-18.62 12.37-34 22.45-53.48 33.25 3.28 11.99 5.14 20.8 4.3 33.17 12.87 10.43 25.47 20.61 39.13 30.01-24.91 5.94-64.37 16.92-85.41 32.15l61.87 45.74c14.3 10.6 28.95 20.68 41.89 32.97 52.17 49.53 49.04 124.61-1.18 174.71a155.4 155.4 0 0 1-73.66 40.54c-24.41 5.87-41.93 4.88-66.53 4.97-18.45.17-36.89.24-55.33.2l-153.05-.35c1.91-7.73 4.08-16.48 4.48-24.4 1.66-32.19-17.5-64.23-45.4-79.81-13.43-7.49-25.38-9.88-40.4-10.81-6.66.6-13.57 1.39-20.06 3.07a93.2 93.2 0 0 0-57.782 43.56c-12.975 22.27-13.683 44.14-7.232 68.48l-153.865.26c-31.417.19-81.65 1.85-111.227-2.66a152.1 152.1 0 0 1-100.642-60.22c-18.728-25.83-27.922-58.59-22.432-90.21 8.936-51.48 46.154-76.26 83.767-106.6 15.464-12.48 33.32-27.99 49.137-39.15-25.211-17.1-50.159-25.3-79.064-32.54 70.503-46.24 59.309-62.67-7.814-95.61-15.437-51.08-32.715-102.57-48.773-153.51L421.22 968.778l-49.78-155.093c-8.816-27.493-19.906-59.43-27.41-86.896 74.455-47.259 151.092-93.467 226.059-140.281 11.745-106.86 74.315-186.276 173.294-225.874 8.558-77.132 74.263-134.12 143.48-159.239 20.717-69.16 70.272-107.706 142.817-109.893"/><path fill="#babcc0" d="m654.776 601.561.111-2.231 3.142 3.188 2.946-.033c8.928-1.258 45.7-.548 57.076-.554l120.525-.054 421.024.22 95.71-.039c8.5-.004 43.2-1.763 48.16 3.089l235.37 146.132c-13.73 41.025-26.65 84.047-39.87 125.43l-132.82 418.001-39.31 123.75c-3.66 11.48-11.68 41.52-16.09 49.71-15.86 29.48-45.53 49.25-76.17 59.86 14.59 27.45 19.63 47.38 19.46 78.22-10.12 4.33-21.88 10.5-32.04 15.32l-63.75 29.88c34.95 25.29 66.03 50.31 99.27 77.77 20.17 16.55 41.25 32.61 60.61 50.04 50.82 45.74.67 108.63-52.3 119.16-29.27 5.82-57.39 3.62-86.98 3.59l-114.21-.03c-.73-5.07-2.06-10.58-3.56-15.48-32.22-105.21-177.154-130.86-248.854-50.37-16.212 18.2-28.674 41.71-31.562 65.99-56.864-.91-112.418.22-171.67-.08-61.01-.31-132.96-51.09-88.443-116.83 11.052-16.32 37.472-36.49 53.019-50.59 31.061-28.15 63.703-55.1 94.851-83.48-10.857-5.38-23.137-12.71-34.042-18.5-14.917-7.92-30.871-16.06-45.324-24.6 12.602-8.45 15.742-17.05 15.301-32.21-.407-14.01.417-27.55 2.046-41.43-18.807-16.87-37.154-30.98-60.725-40.62-23.396-62.18-44.866-136.17-65.584-200.27L463.232 929.992c-19.019-59.362-37.123-120.305-57.279-179.107 42.713-28.933 94.686-59.198 138.944-87.317l63.056-40.149c10.864-6.916 22.006-14.247 33.229-20.566 3.221-1.813 9.621-1.327 13.594-1.292"/><path fill="#020011" d="M405.953 750.885c42.713-28.933 94.686-59.198 138.944-87.317l63.056-40.149c10.864-6.916 22.006-14.247 33.229-20.566 3.221-1.813 9.621-1.327 13.594-1.292-27.991 18.688-58.102 36.876-86.614 55.015a13632 13632 0 0 1-145.063 91.883c33.5 102.682 65.55 207.878 97.672 311.151l57.509 182.58 44.264 141.21c19.615 62.81 23.09 106.15 86.721 138.21a281 281 0 0 0 22.743 10.06c-17.762 29.41-2.623 57.28-21.495 79.46 26.184 12.55 52.154 25.72 76.911 40.95a5187 5187 0 0 0-100.016 87.03c-18.197 16.04-40.066 33.28-55.277 51.79-11.562 14.07-10.289 41.41-3.391 57.23l1.464-6.95c-4.818-14.56-3.574-40.18 7.742-51.78 14.21-14.57 31.538-28.78 46.899-42.33a7041 7041 0 0 1 104.888-92.09c97.766-1.42 200.959 1.77 299.157 2.87l72.26 1.19c11.49.15 26.16.76 37.46.14 12.28-1.74 32.02.22 45.58-.73-2.63-1.33-35.17-.74-40.91-.59l.21-.44c5.73-4.1 17.95-1.7 25.92-2.74-3.83-.99-19.47-.52-24.11-.54-25.76-.06-51.29 1.32-77.09.25-9.04-.37-25.4.65-33.53-1.44 23.47-5.3 48.35-7.65 72.13-13.32 19.21-4.58 34.77-8.68 53.24-15.26 64.67-23.03 76.78-65.45 6.6-93.46l-1.03-2.79c59.41-10.5 110.69-37.48 141.09-91.57 13.46-23.95 18.49-46.01 26.94-71.83 10.16-31.06 19.48-62.48 29.67-93.51l115.23-358.77c16.93-52.863 34.61-112.667 52.99-164.627-34.45-1.25-72.38-.573-107.04-.667l-173.26-.473-542.902.256-154.828-.165c-45.248.088-91.562.649-136.684-.573a19376 19376 0 0 0 197.706-131.117q41.93-.156 83.859.178c25.405-.18 52.947.367 78.09-.459 2.993.291 5.588.55 8.563 1.041-3.632.63-8.396 1.609-11.987 1.818-42.65 7.431-129.123 21.961-155.141 60.047-35.14 51.438 103.346 59.226 129.443 62.177 35.956 3.658 75.602 2.392 110.629 2.265l110.862-.206 325.82-.827c45.66-.164 93.11-1.321 138.53-.939-16.82-16.666-37.96-28.478-58-40.614-64.23-38.914-134-65.61-208.77-74.716-13.11-1.597-34.3-5.188-47.31-4.802l-2.48-2.192c79.92-8.194 154.86-2.07 232.58-5.844l-5.75-6.854 235.37 146.132c-13.73 41.025-26.65 84.047-39.87 125.43l-132.82 418.001-39.31 123.75c-3.66 11.48-11.68 41.52-16.09 49.71-15.86 29.48-45.53 49.25-76.17 59.86 14.59 27.45 19.63 47.38 19.46 78.22-10.12 4.33-21.88 10.5-32.04 15.32l-63.75 29.88c34.95 25.29 66.03 50.31 99.27 77.77 20.17 16.55 41.25 32.61 60.61 50.04 50.82 45.74.67 108.63-52.3 119.16-29.27 5.82-57.39 3.62-86.98 3.59l-114.21-.03c-.73-5.07-2.06-10.58-3.56-15.48-32.22-105.21-177.154-130.86-248.854-50.37-16.212 18.2-28.674 41.71-31.562 65.99-56.864-.91-112.418.22-171.67-.08-61.01-.31-132.96-51.09-88.443-116.83 11.052-16.32 37.472-36.49 53.019-50.59 31.061-28.15 63.703-55.1 94.851-83.48-10.857-5.38-23.137-12.71-34.042-18.5-14.917-7.92-30.871-16.06-45.324-24.6 12.602-8.45 15.742-17.05 15.301-32.21-.407-14.01.417-27.55 2.046-41.43-18.807-16.87-37.154-30.98-60.725-40.62-23.396-62.18-44.866-136.17-65.584-200.27L463.232 929.992c-19.019-59.362-37.123-120.305-57.279-179.107"/><path fill="#babcc0" d="M789.733 1654.98c97.766-1.42 200.959 1.77 299.157 2.87l72.26 1.19c11.49.15 26.16.76 37.46.14 17.3 1.41 42.84.83 60.84 1.03l15.35 12.81c-30.42.13-70.77-.8-100.76.94-3.31.58-8.17-.29-9.01 2.73 64.01 11.48 125.19 43.42 164 96.85 30.34 41.76 13.86 83.46-32.15 101.97-24.6 9.9-36.15 8.54-62.24 8.48-18.69-.14-37.38-.15-56.07-.04-12.68-53.7-49.95-87.67-101.19-105.53-50.93-13.59-92.061-11.45-139.832 14.64-19.703 10.76-50.482 40.12-57.133 61.74-.281 5.96-2.102 9.83-1.464 14.67l-3.211 18.49-112.447-.21c-21.287-.02-42.606.06-63.898.04-29.609-.03-56.514-12.64-70.655-39.66l1.464-6.95c-4.818-14.56-3.574-40.18 7.742-51.78 14.21-14.57 31.538-28.78 46.899-42.33a7041 7041 0 0 1 104.888-92.09"/><path fill="#020011" d="m804.359 1665.71 116.554 1.41c10.253 1.51 20.082-.17 29.619 1.86-59.409 12.76-98.279 20.14-146.529 60.8-65.524 55.23-53.983 109.21 21.316 143.91 18.725 8.63 26.244 10.42 47.064 10.15 1.963-11.15 2.978-18.97 8.032-29.04-.281 5.96-2.102 9.83-1.464 14.67l-3.211 18.49-112.447-.21c-21.287-.02-42.606.06-63.898.04-29.609-.03-56.514-12.64-70.655-39.66l1.464-6.95a68 68 0 0 0 12.626 20.07c15.725 17.12 36.154 21.59 58.393 22.7-15.338-7.06-28.843-14.03-40.185-26.91-14.198-16.13-21.832-42.27-4.735-59.36 18.207-18.2 38.007-36.75 57.675-53.48 30.152-25.64 59.604-53.71 90.381-78.49"/><path fill="#817e7f" d="M920.913 1667.12c3.555-.31 33.457-.44 35.317.23 1.091 1.79-4.937 1.72-5.698 1.63-9.537-2.03-19.366-.35-29.619-1.86"/><path fill="#59585f" d="M1150.29 1674.9c9.28-.97 14.28-1.74 23.75-.94-3.31.58-8.17-.29-9.01 2.73-4.75-.44-9.99-1.18-14.74-1.79"/><path fill="#d1763b" d="M405.953 750.885c42.713-28.933 94.686-59.198 138.944-87.317l63.056-40.149c10.864-6.916 22.006-14.247 33.229-20.566 3.221-1.813 9.621-1.327 13.594-1.292-27.991 18.688-58.102 36.876-86.614 55.015a13632 13632 0 0 1-145.063 91.883c33.5 102.682 65.55 207.878 97.672 311.151l57.509 182.58 44.264 141.21c19.615 62.81 23.09 106.15 86.721 138.21a281 281 0 0 0 22.743 10.06c-17.762 29.41-2.623 57.28-21.495 79.46 26.184 12.55 52.154 25.72 76.911 40.95a5187 5187 0 0 0-100.016 87.03c-18.197 16.04-40.066 33.28-55.277 51.79-11.562 14.07-10.289 41.41-3.391 57.23 14.141 27.02 41.046 39.63 70.655 39.66 21.292.02 42.611-.06 63.898-.04l112.447.21 3.211-18.49c-.638-4.84 1.183-8.71 1.464-14.67 6.651-21.62 37.43-50.98 57.133-61.74 47.771-26.09 88.902-28.23 139.832-14.64l.51 4.2c47.49 17.2 88.49 53.38 96.88 105.16l116.27-.03c21.03.11 40.59-.27 64.03-.06 43.26.39 103.88-47.38 70.88-92.62-12.46-17.09-53.05-46.75-72.51-62.53l-93.61-77.09c-7.9.24-15.81.37-23.72.4 12.68-6.26 26.52-11.9 39.47-17.9l74.4-34.9c-.18-30.8-5.78-50.99-19.15-78.32 26.24-10.53 61.26-29.95 74.2-56.74 8.73-18.08 15.2-45.36 21.5-65.29l46.04-145.02 85.33-268.66c24.61-77.77 49.2-157.99 75.11-235.216-20.12-14.193-44.78-28.269-65.79-41.602-52.56-33.346-106.82-64.79-158-100.201l-5.75-6.854 235.37 146.132c-13.73 41.025-26.65 84.047-39.87 125.43l-132.82 418.001-39.31 123.75c-3.66 11.48-11.68 41.52-16.09 49.71-15.86 29.48-45.53 49.25-76.17 59.86 14.59 27.45 19.63 47.38 19.46 78.22-10.12 4.33-21.88 10.5-32.04 15.32l-63.75 29.88c34.95 25.29 66.03 50.31 99.27 77.77 20.17 16.55 41.25 32.61 60.61 50.04 50.82 45.74.67 108.63-52.3 119.16-29.27 5.82-57.39 3.62-86.98 3.59l-114.21-.03c-.73-5.07-2.06-10.58-3.56-15.48-32.22-105.21-177.154-130.86-248.854-50.37-16.212 18.2-28.674 41.71-31.562 65.99-56.864-.91-112.418.22-171.67-.08-61.01-.31-132.96-51.09-88.443-116.83 11.052-16.32 37.472-36.49 53.019-50.59 31.061-28.15 63.703-55.1 94.851-83.48-10.857-5.38-23.137-12.71-34.042-18.5-14.917-7.92-30.871-16.06-45.324-24.6 12.602-8.45 15.742-17.05 15.301-32.21-.407-14.01.417-27.55 2.046-41.43-18.807-16.87-37.154-30.98-60.725-40.62-23.396-62.18-44.866-136.17-65.584-200.27L463.232 929.992c-19.019-59.362-37.123-120.305-57.279-179.107"/><path fill="#21252e" d="M880.415 1854.8c6.651-21.62 37.43-50.98 57.133-61.74 47.771-26.09 88.902-28.23 139.832-14.64l.51 4.2c-32.89-9.7-62.89-11.73-96.451-3.09-45.435 11.7-88.163 43.85-102.488 89.94-.638-4.84 1.183-8.71 1.464-14.67"/><path fill="#21252e" d="m654.776 601.561.111-2.231 3.142 3.188 2.946-.033c-19.791 13.404-42.153 26.68-62.552 39.779L428.04 750.367l158.908 506.063 43.598 139.23c6.531 20.76 13.332 45.49 21.599 65.29 13.986 33.48 53.12 58.18 86.541 67.83-21.342 31.96-5.429 55.94-21.775 80.92 17.34 8.26 60.259 29.72 75.163 40.68 47.068 1.55 96.693.69 144.193 1.39 35.665.49 71.333.73 107.003.71 15.78.08 36.12 1.04 51.41.47 8.13 2.09 24.49 1.07 33.53 1.44 25.8 1.07 51.33-.31 77.09-.25 4.64.02 20.28-.45 24.11.54-7.97 1.04-20.19-1.36-25.92 2.74l-.21.44c5.74-.15 38.28-.74 40.91.59-13.56.95-33.3-1.01-45.58.73-11.3.62-25.97.01-37.46-.14l-72.26-1.19c-98.198-1.1-201.391-4.29-299.157-2.87a7041 7041 0 0 0-104.888 92.09c-15.361 13.55-32.689 27.76-46.899 42.33-11.316 11.6-12.56 37.22-7.742 51.78l-1.464 6.95c-6.898-15.82-8.171-43.16 3.391-57.23 15.211-18.51 37.08-35.75 55.277-51.79a5187 5187 0 0 1 100.016-87.03c-24.757-15.23-50.727-28.4-76.911-40.95 18.872-22.18 3.733-50.05 21.495-79.46a281 281 0 0 1-22.743-10.06c-63.631-32.06-67.106-75.4-86.721-138.21l-44.264-141.21-57.509-182.58c-32.122-103.273-64.172-208.469-97.672-311.151a13632 13632 0 0 0 145.063-91.883c28.512-18.139 58.623-36.327 86.614-55.015"/><path fill="#817e7f" d="M836.481 614.793c2.744-.378 14.624-1.57 16.56-.25-2.061 1.914-5.503 1.463-7.997 1.291-2.975-.491-5.57-.75-8.563-1.041"/><path fill="#817e7f" d="M1179.12 620.037c-1.52.011-11.84.261-12.11-1.303l.18-.253c.45.337.17.18.88.38l.91-.847c.84-.002 1.67-.016 2.51-.042 1.86-.075 3.28-.131 5.15-.127z"/><path fill="#817e7f" d="M1222.92 1530.12c-1.33-.04-5.8-.04-6.93-.69 1.7-1.48 5.05-1.3 7.11-1.35z"/><path fill="#21252e" d="m1223.1 1528.08 2.52.04 1.03 2.79-3.73-.79z"/><path fill="#d1763b" d="m501.721 756.386 688.919-.124 230.81.006q73.71-.364 147.42.374c-12.15 43.566-30.51 95.106-44.68 138.961l-84.54 261.457-56.03 172.89c-7.18 22.09-18.37 60.94-26.85 81.67-7.95 18.25-15.18 32.06-28.72 46.83-60.52 66-145.43 58.58-226.15 58.28l-149.663-.07-52.587-.04c-7.459.03-22.899-.25-28.734.72-11.429 1.92-43.016 6.57-46.236 19.85-8.365 34.51 49.712 65.34 73.635 73.71 40.104 14.03 75.429 20.41 116.935 25.36 7.36.87 24.05 2.96 30.98 2.64 2.62-.04 21.65 1.19 22.41 1.97l-.18.63-.24.04.22-.03c-6.44.61-67.36.66-70.085-.47-18.38-.08-196.08-2.24-203.752-5.58-.483-.21-.955-.44-1.435-.66-19.626-8.88-38.424-21.4-57.155-32.1 11.548-33.4 2.727-48.26 36.054-71.45a183 183 0 0 1-36.792-15.01c-67.119-35.86-74.82-81.73-95.515-147.74l-41.522-133.13-149.275-479.06c16.656-.552 35.91-.002 52.758.076"/><path fill="#020011" d="M448.963 756.31c16.656-.552 35.91-.002 52.758.076-2.855 1.672-3.059 1.191-6.689 1.227l-.474 1.206.758 1.066c2.095 11.045 7.754 27.192 11.311 38.21a4800 4800 0 0 1 16.968 53.465l66.807 210.9 78.929 248.69 20.269 63.79c5.118 16.32 9.623 32.96 16.784 48.47 22.65 49.06 73.556 76.96 125.116 85.58 30.596 5.11 62.982 4.09 94.006 4.09l103.644-.03h103.8c30.93-.01 60.87 1.56 91.4-4.5 61.23-12.15 101.49-40.22 127.83-96.54l4.59-.39c-7.95 18.25-15.18 32.06-28.72 46.83-60.52 66-145.43 58.58-226.15 58.28l-149.663-.07-52.587-.04c-7.459.03-22.899-.25-28.734.72-11.429 1.92-43.016 6.57-46.236 19.85-8.365 34.51 49.712 65.34 73.635 73.71 40.104 14.03 75.429 20.41 116.935 25.36 7.36.87 24.05 2.96 30.98 2.64 2.62-.04 21.65 1.19 22.41 1.97l-.18.63-.24.04.22-.03c-6.44.61-67.36.66-70.085-.47-18.38-.08-196.08-2.24-203.752-5.58-.483-.21-.955-.44-1.435-.66-19.626-8.88-38.424-21.4-57.155-32.1 11.548-33.4 2.727-48.26 36.054-71.45a183 183 0 0 1-36.792-15.01c-67.119-35.86-74.82-81.73-95.515-147.74l-41.522-133.13z"/><path fill="#817e7f" d="M1046.23 1638.9c2.62-.04 21.65 1.19 22.41 1.97l-.18.63-.24.04.22-.03c-6.44.61-67.36.66-70.085-.47 7.975-1.38 48.835 1.16 51.855-.61-1.33-.5-2.66-1-3.98-1.53"/><path fill="#21252e" d="m501.721 756.386 688.919-.124 230.81.006q73.71-.364 147.42.374c-12.15 43.566-30.51 95.106-44.68 138.961l-84.54 261.457-56.03 172.89c-7.18 22.09-18.37 60.94-26.85 81.67l-4.59.39c11.15-29.78 21.67-65.13 31.45-95.71l41.89-129.04 138.25-427.09-739.337.258-209.358.018c-39.282-.036-80.605.417-119.759-.561l-.758-1.066.474-1.206c3.63-.036 3.834.445 6.689-1.227"/><path fill="#020011" d="M550.429 764.504c107.878-1.255 218.487.228 326.648.321q334.909 1.554 669.813-.527c-7.78 20.39-15.48 46.308-22.39 67.418l-43.08 132.73-125.34 386.744c-6.4 20.34-14.6 49.1-23.82 67.68-17.16 33.46-51.44 57.24-86.47 68.52-39.5 12.71-80.5 10.54-121.31 10.56l-110.1-.01-93.805.02c-51.986-.01-94.885 1.89-142.893-22.58-58.859-30-67.232-73.35-85.688-130.43l-39.623-122.87-147.476-457.388z"/><path fill="#f5e9e2" d="m997.561 923.658 1.076.493c51.093 39.579 99.713 114.329 114.693 174.769 16.17 65.18 14.31 129.84-17.19 184.3a104.9 104.9 0 0 0 36.14-20.91c20.31-18.21 28.37-39.27 29.97-65.91 29.61 57.51 35.14 132.16 2.78 189.76a187.36 187.36 0 0 1-115.04 89.26c36.18-32.25 42.95-75.58 14.77-117.32-10.71-15.87-19.36-21.73-27.83-39.95-11.56-29.51-4.47-54.44 10.6-80.94-10.16 4.77-18.44 11.18-27.48 17.7-69.577 50.23-88.98 159.62-20.813 220.92-4.608-1.08-9.377-2.23-13.906-3.58a173.34 173.34 0 0 1-104.537-84.84c-36.478-69.29-13.298-138.55 31.173-197.54 11.624-15.85 25.411-29.79 38.169-44.69 55.434-64.78 91.404-139.53 47.425-221.522"/><path fill="#babcc0" d="M864.736 359.263c30.859-.911 64.425-.426 95.477-.677 81.617-.713 163.227-.87 244.847-.47-5.19 3.456-10.73 2.618-13.75 4.562-2.38.123-4.93-.298-6.9 1.049-25.09 2.032-41.02 3.435-66.89 2.406-2.38.344-10.66.652-11.62 1.542.02.33.39.776.59 1.04 86.12 11.803 152.43 39.904 208.41 110.804 43.34 54.887 36.29 93.836-34.53 113.872.33 2.825 16.72 1.838 20.77 2.408l62.22.527c4.44.023 25.02-.178 28.3.483 2.21.152 5.71.121 7.82.578l.1.153-.06.135-.29-.043c-2.1 1.017-43.89.651-48.66.324-21.35.897-48.66.131-70.56.11l-133.97-.134-59.25-.079c-6.27.001-26.12.435-30.72-.675-5.02-1.375-33.11-.247-39.79-.049-3.47.276-4.8.433-8.27.174-22.165 1.243-46.384.741-68.706.648l-94.789-.124-90.58.19c-13.006.029-34.643.71-47.162-.183-20.684.607-44.567.04-65.491.03 1.382-23.979 5.34-39.083 13.174-61.203-1.893 1.637-3.58 3.258-5.674 4.603-6.527 11.551-11.2 44.817-11.632 58.387-5.047 3.488-10.221 6.677-15.412 9.944-1.362-23.829 5.452-54.346 14.145-76.402 23.667-60.045 78.499-107.825 136.913-133.035 7.625-5.411 32.795-13.598 42.189-16.391a384 384 0 0 1 21.99-5.791c2.754-.703 10.388-3.249 12.675-1.73 8.882 2.183 14.15-4.452 22.515-2.684 3.232-.557 10.175-2.592 13.634-3.486l-.855-3.079-8.907-.554c-8.398-.588-16.79-1.816-25.14-2.924-1.49-7.152 9.2-.378 13.839-4.256"/><path fill="#020011" d="M663.532 592.774c6.501-124.956 164.19-210.319 275.703-224.258 26.612-3.326 52.983-2.163 79.705-1.458 3.78.669 7.3.984 11.05 1.769-69.989 9.884-132.307 20.249-190.095 65.76-154.167 121.416 67.06 151.351 153.506 158.936 3.891.451 8.559.277 12.139.854 3.27.528 5.07 1.856 9.11 2.485l1.63.267c-3.47.276-4.8.433-8.27.174-22.165 1.243-46.384.741-68.706.648l-94.789-.124-90.58.19c-13.006.029-34.643.71-47.162-.183 29.096-2.898 77.864-.514 109.237-1.311-1.684-.372-3.006-.832-4.65-1.347a12306 12306 0 0 0-147.828-2.402"/><path fill="#817e7f" d="M993.401 593.523c3.891.451 8.559.277 12.139.854 3.27.528 5.07 1.856 9.11 2.485l1.63.267c-3.47.276-4.8.433-8.27.174-22.165 1.243-46.384.741-68.706.648l-94.789-.124-90.58.19c-13.006.029-34.643.71-47.162-.183 29.096-2.898 77.864-.514 109.237-1.311-1.684-.372-3.006-.832-4.65-1.347 20.588-.359 42.05.569 62.745.736q52.315.2 104.629-.142c4.178-.484 7.603-1.384 11.329-1.856z"/><path fill="#21252e" d="M993.401 593.523c3.891.451 8.559.277 12.139.854 3.27.528 5.07 1.856 9.11 2.485l1.63.267c-3.47.276-4.8.433-8.27.174-4.32-.308-11.012-1.782-14.492-1.466-5.386.49-9.287.102-14.784-.067 4.178-.484 7.603-1.384 11.329-1.856z"/><path fill="#d1763b" d="M772.796 400.158c2.848 1.353 3.242 1.302 3.186 4.629-48.48 27.206-87.174 58.058-114.692 108.26-3.389 6.182-10.497 21.471-12.508 28.217-6.527 11.551-11.2 44.817-11.632 58.387-5.047 3.488-10.221 6.677-15.412 9.944-1.362-23.829 5.452-54.346 14.145-76.402 23.667-60.045 78.499-107.825 136.913-133.035"/><path fill="#21252e" d="M849.65 376.246c8.882 2.183 14.15-4.452 22.515-2.684-15.873 4.838-32.801 9.244-48.285 14.838-64.572 23.331-125.614 64.789-158.827 126.479a375 375 0 0 0-10.597 21.782c-1.893 1.637-3.58 3.258-5.674 4.603 2.011-6.746 9.119-22.035 12.508-28.217 27.518-50.202 66.212-81.054 114.692-108.26.056-3.327-.338-3.276-3.186-4.629 7.625-5.411 32.795-13.598 42.189-16.391a384 384 0 0 1 21.99-5.791c2.754-.703 10.388-3.249 12.675-1.73"/><path fill="#bb6939" d="M772.796 400.158c7.625-5.411 32.795-13.598 42.189-16.391a384 384 0 0 1 21.99-5.791c2.754-.703 10.388-3.249 12.675-1.73-4.976 6.121-2.612.32-7.603 1.67-23.572 6.378-44.071 17.317-66.065 26.871.056-3.327-.338-3.276-3.186-4.629"/><path fill="#817e7f" d="M1280.37 593.391c.33 2.825 16.72 1.838 20.77 2.408l62.22.527c4.44.023 25.02-.178 28.3.483 2.21.152 5.71.121 7.82.578l.1.153-.06.135-.29-.043c-2.1 1.017-43.89.651-48.66.324-21.35.897-48.66.131-70.56.11l-133.97-.134-59.25-.079c-6.27.001-26.12.435-30.72-.675 5.55-1.013 39.24-.368 46.75-.349l109.46.185c14.26.016 45.08.816 58.16-.823 2.29-1.59 2.06-1.292 4.82-1.874 1.7-.322 3.4-.631 5.11-.926"/><path fill="#59585f" d="M1391.66 596.809c2.21.152 5.71.121 7.82.578l.1.153-.06.135-.29-.043c-2.1 1.017-43.89.651-48.66.324 8.73-2.147 30.67-.244 41.09-1.147"/><path fill="#59585f" d="M1280.37 593.391c.33 2.825 16.72 1.838 20.77 2.408-3.17.118-25.31 1.302-25.88-1.482 1.7-.322 3.4-.631 5.11-.926"/><path fill="#817e7f" d="M1106.49 368.715c-2.81-.307-5.58-.604-8.41-.67-.63-.613-.95-1.074-1.84-.601l-.03-.134c1.48-2.255 18.34-1.37 21.31-1.177-2.38.344-10.66.652-11.62 1.542.02.33.39.776.59 1.04"/><path fill="#9d9da1" d="M1018.94 367.058c2.69-.23 16.19-.79 17.52 1.452l-.03.076-.17-.012c-1.69 1.028-4.43.439-6.27.253-3.75-.785-7.27-1.1-11.05-1.769"/><path fill="#21252e" d="M884.944 366.997c1.001-.005 6.576-.437 7.29.629-.564 1.218-5.132 2.057-6.435 2.45z"/><path fill="#babcc0" d="M1030.34 240.322c10.76-2.038 45.57 10.379 56.25 14.901 45.17 19.121 78.26 41.913 97.69 87.697-40.15-.691-81.76-.098-122.03.001-24.97.225-131.855-9.804-150.588-22.18-3.232-2.135-5.888-5.206-6.553-9.122-.883-5.21 1.887-10.311 4.922-14.325 25.258-33.411 80.76-50.871 120.309-56.972"/><path fill="#21252e" d="M1008.67 147.78c52.95-10.685 96.51 14.487 108.56 68.389.82 3.68.87 5.769-1.73 8.742l-1.91-.076c-4.97-14.276-8.93-31.091-16.78-43.771-3.53.229-2.57.076-6.19-1.604-20.54-13.002-37.97-22.721-63.43-16.896a79.26 79.26 0 0 0-48.926 34.823c-3.752 6.041-7.854 14.996-9.314 21.913 24.389-1.222 43.44-1.672 67.88-.528 12.99.608 32.65 2.594 44.96 2.552 7.98-.592 19.19 2.651 27.85 3.299-1.95 3.594-9.25 1.833-12.28 2.616l1.55.32c5.49 1.106 10.71.553 15.35 3.094l.56 1.61c-4.67 1.984-16.5.216-22.29.705-38.96 3.289-78.62 1.175-117.329 4.605-6.73.596-19.472 12.264-24.268 17.218-52.346 10.159-95.711 40.188-110.283 93.321l304.29 1.854c12.76.066 91.98-1.078 98.07.896.02-2.772.19-5.355.35-8.115 2.03 4.689 4.31 9.611 5.92 14.433-5.75.094-17.21-.009-22.44.693-5.18-.622-16.45.012-21.78.243-81.62-.4-163.23-.243-244.847.47-31.052.251-64.618-.234-95.477.677-4.639 3.878-15.329-2.896-13.839 4.256 8.35 1.108 16.742 2.336 25.14 2.924l-.372 2.266c-2.115.875-1.444.788-3.655.997-12.22 3.577-32.453-.34-45.179-2.084-8.947-.79-21.401-2.774-30.534-3.971 16.779-66.995 62.663-102.181 127.593-118.176 3.371-15.237 11.392-14.803 25.123-17.458-2.48-1.529-3.491-1.511-6.356-2.267-6.719-.065-8.895 1.991-7.345-6.723 6.419-36.098 37.473-61.2 71.468-70.547z"/><path fill="#babcc0" d="M941.506 250.168c6.687-30.415 47.825-24.599 71.574-25.214 27.95-.723 56.37.784 84.28 2.285l1.55.32c5.49 1.106 10.71.553 15.35 3.094l.56 1.61c-4.67 1.984-16.5.216-22.29.705-38.96 3.289-78.62 1.175-117.329 4.605-6.73.596-19.472 12.264-24.268 17.218-52.346 10.159-95.711 40.188-110.283 93.321l304.29 1.854c12.76.066 91.98-1.078 98.07.896l-1.53 2.017c-12.57 1.592-37.04 1.061-50.43 1.091l-89.59.065c-94.55-.201-189.097.532-283.631 2.201 22.064-61.308 60.523-93.147 123.677-106.068"/><path fill="#d1763b" d="m949.013 228.017 1.242.84c-7.645 8.593-7.202 4.922-12.458 17.946-44.853 8.735-76.266 27.939-103.407 65.986-8.611 12.07-17.937 32.284-21.369 46.775 2.8.686 17.033 4.35 18.971 4.459-2.741 1.478-2.831 1.53-5.161 3.599-8.947-.79-21.401-2.774-30.534-3.971 16.779-66.995 62.663-102.181 127.593-118.176 3.371-15.237 11.392-14.803 25.123-17.458"/><path fill="#babcc0" d="M952.169 223.973c12.989-41.836 51.871-78.239 98.811-71.023 15.06 2.316 31.17 13.94 39.64 26.51-20.54-13.002-37.97-22.721-63.43-16.896a79.26 79.26 0 0 0-48.926 34.823c-3.752 6.041-7.854 14.996-9.314 21.913l-1.742 2.635c-3.791.125-11.021 1.437-15.039 2.038"/><path fill="#d1763b" d="M942.657 225.75c-6.719-.065-8.895 1.991-7.345-6.723 6.419-36.098 37.473-61.2 71.468-70.547l1.89-.7 1.22 1.166c1.37 1.252 1.84 2.159 2.46 3.866-27.568 7.52-58.586 40.895-63.363 68.76-.515 3.005-1.16 2.935-4.14 3.628q-1.098.265-2.19.55"/><path fill="#bb6939" d="M1008.67 147.78c52.95-10.685 96.51 14.487 108.56 68.389.82 3.68.87 5.769-1.73 8.742l-1.91-.076c-4.97-14.276-8.93-31.091-16.78-43.771-20.85-31.074-49.24-39.498-84.46-28.252-.62-1.707-1.09-2.614-2.46-3.866z"/><path fill="#9d9da1" d="M968.95 219.3c24.389-1.222 43.44-1.672 67.88-.528 12.99.608 32.65 2.594 44.96 2.552l-.87 1.198c-22.18-1.603-46.46-1.345-68.81-1.189-14.128.099-31.008-.225-44.902.602z"/><path fill="#bb6939" d="m831.992 364.023 1.118.253c13.768 3.228 24.867 4.388 38.9 5.43-12.22 3.577-32.453-.34-45.179-2.084 2.33-2.069 2.42-2.121 5.161-3.599"/><path fill="#9d9da1" d="M830.876 359.613c8.017-.341 26.119-.867 33.86-.35-4.639 3.878-15.329-2.896-13.839 4.256-7.118-1.117-12.991-2.329-20.021-3.906"/><path fill="#d1763b" d="M1181.24 374.032c7.02-.434 14.08.796 20.97 2.427 89.98 21.283 187.55 78.93 216.17 171.872 5.69 18.463 8.48 40.562 2.72 59.111-.38 1.208-1.77.853-2.67.929l-6.03-3.671 1.81-.676-1.97.238c2.59-.88 5.36-2.657 5.54-5.655 6.25-103.027-91.46-175.52-178.7-207.106-19.93-7.217-38.31-11.559-57.84-17.469"/><path fill="#d1763b" d="M1117.8 227.805c3.67 2.003 6.53 3.51 9.79 6.087 4 3.152 5.6 12.888 9.42 14.119 60.76 19.586 98.86 50.889 120.1 114.897-3.82.018-10.49.262-14.07-.046-11.87.953-60.43 7.72-67 6.482 3.06-2.315 5.32-3.245 8.37-5.617 1.97-1.347 4.52-.926 6.9-1.049 3.02-1.944 8.56-1.106 13.75-4.562 5.33-.231 16.6-.865 21.78-.243 5.23-.702 16.69-.599 22.44-.693-1.61-4.822-3.89-9.744-5.92-14.433-22.57-48.663-61.91-79.414-113.59-93.392-3.87-9.151-5.75-13.565-11.97-21.55"/><path fill="#bb6939" d="M1184.41 363.727c1.97-1.347 4.52-.926 6.9-1.049-1.95.91-4.48 2.85-6.29 2.624l-.48.249c.42.557 3.86.312 4.92.635l.15.267c-1.79 2.428-10.89 2.684-13.57 2.891 3.06-2.315 5.32-3.245 8.37-5.617"/></svg>