<svg xmlns="http://www.w3.org/2000/svg" width="2048" height="2048" viewBox="0 0 2048 2048"><path fill="#26212e" d="M0 0h2048v2048H0z"/><path fill="#010000" d="M746.616 274.021c62.029-19.077 142.797-38.896 206.456-46.206a801.8 801.8 0 0 1 462.508 88.651 785.4 785.4 0 0 1 332.2 336.887 805 805 0 0 1 52 131.718c53.33 173.99 37.09 369.709-48.34 531.039-79.94 150.95-218.48 276.19-383.35 326.22a499 499 0 0 1-43.08 10.92c7.53 65.13-48.92 122.41-112.46 126.3-23.73 1.45-51.57 7.69-72.55 18.18-30.99 15.49-61.36 25.52-95.44 31.61-15.04 2.69-31.26 3.18-46.49 4.9-181.044 19.45-373.206-57.25-512.782-169.63-89.466-72.04-166.517-167.98-217.254-271.78-21.519-44.02-35.689-85.64-50.93-131.92-53.921-191.93-33.682-397.113 56.696-574.803 97.818-190.793 267.454-345.854 472.816-412.086"/><path fill="#0ef5e8" d="M217.104 1260.91c-53.921-191.93-33.682-397.113 56.696-574.803 97.818-190.793 267.454-345.854 472.816-412.086l-1.335 2.56c1.802 1.347 2.556.806 5.401.795-1.696 2.218-21.107 9.721-25.092 11.365a806 806 0 0 0-45.158 20.24c-6.284 3.112-22.92 12.178-28.368 14.042C457.109 429.195 313.241 609.54 253.046 823.215c-58.205 202.445-33.604 419.715 68.39 604.015 103.834 185.59 276.294 323.08 480.36 382.94-2.107 2.84-1.314 1.24-1.753 5.28a780.4 780.4 0 0 1-191.106-73.94c-188.802-103.15-328.376-277.68-387.497-484.54-2.233 1.68-2.565 1.83-4.336 3.94"/><path fill="#031110" d="M217.104 1260.91c-53.921-191.93-33.682-397.113 56.696-574.803 97.818-190.793 267.454-345.854 472.816-412.086l-1.335 2.56c1.802 1.347 2.556.806 5.401.795-1.696 2.218-21.107 9.721-25.092 11.365a806 806 0 0 0-45.158 20.24c-6.284 3.112-22.92 12.178-28.368 14.042-2.127-1.286-2.963-2.137-5.398-2.184-26.912 11.311-71.986 39.636-96.146 56.254a826.9 826.9 0 0 0-301.292 376.843c-17.305 42.398-29.694 86.844-39.253 131.508-27.726 129.536-22.558 244.236 11.465 371.526-2.233 1.68-2.565 1.83-4.336 3.94"/><path fill="#15cabf" d="M801.796 1810.17c35.917 9.69 89.274 21.19 126.499 21.14 3.838-.7 5.2-.16 8.986.85 4.344.42 11.877.33 16.485.39l-3.85.19 1.504-.27a562.4 562.4 0 0 1-151.377-17.02c.439-4.04-.354-2.44 1.753-5.28"/><path fill="#095a53" d="M928.295 1831.31c3.838-.7 5.2-.16 8.986.85-3.081.21-6.675 1.32-8.986-.85"/><path fill="#26212e" d="M1011.52 444.593a618.2 618.2 0 0 1 213.97 29.102c157.96 51.26 289.02 163.29 364.23 311.349 72.05 140.094 84.41 303.366 34.25 452.716-45.03 136.05-153.23 276.64-282.62 341.5-6.79-43.98-40.36-70.4-84.01-75.18-12.16-1.34-25.27 1.13-37.77-.19-19.13-2.02-35.56-6.52-53.5-12.89-69.32-29.52-116.1-21.18-184.636 6.9-21.602 8.85-36.454 18.52-60.923 19.69-92.553 4.43-198.275-53.32-265.605-111.62-105.424-91.06-159.757-210.76-169.36-348.86C465.639 770.811 678.647 497.892 961.6 449.125c15.681-2.702 33.924-3.413 49.92-4.532"/><path fill="#e4e4e4" d="M1287.89 1663.56c-2.62 21.6-9.86 36.72-27.23 50.61-22.11 17.68-40.44 16.54-66.13 19.05-11.74 1.23-23.4 3.14-34.91 5.74-23.09 5.44-42.23 15.41-64.05 24.01-87.32 34.45-174.526 24.57-262.746 1.06a755.14 755.14 0 0 1-400.713-264.4c-121.829-154.05-177.037-350.4-153.342-545.365 24.736-203.833 129.665-389.41 291.576-515.683C731.41 312.511 936.15 255.975 1139.09 281.531c196.42 25.853 374.54 128.676 495.15 285.85 114.29 148.408 165.15 336.045 141.43 521.859-21.14 166.39-107.44 317.59-239.94 420.43a658.5 658.5 0 0 1-113.46 70.68l-1.99-1.78c138.71-82.73 242.03-229.29 281.3-385.31 40.49-163.84 14.16-337.058-73.18-481.474-90.82-152.266-238.88-261.784-411.06-304.061-162.12-41.697-334.206-16.409-477.48 70.165-144.891 88.566-248.995 230.714-289.705 395.577-36.251 147.583-19.39 311.923 61.048 442.513 70.162 113.9 190.882 210.32 321.889 242.97 42.851 10.69 101.804 14.72 142.886-1.99 35.542-14.46 60.952-28.64 100.942-32.95 39.63-5.06 72.91 16.56 110.59 23.98 24.97 4.92 49.69-2.53 73.52 3.74 35.29 9.28 36.28 34.16 31.26 63.65-4.94-7.57-10.02-17.08-19.61-19.14-17.78-2.2-43.26 11.42-57.39 21.3-15.82 11.07-45.16 40.01-49.12 59.48-5.16 25.38 34.35 22.6 49.45 23.1 34.29 1.11 53.12-8.79 72.27-36.56"/><path fill="#010000" d="M1093.9 1574.42c29.96-2.87 56.32 12.22 83.78 19.63l1.87.49c-17.62 23.27-51.44 45.02-80.3 50.6-7.81 1.51-17.66 1.02-25.58.74-33.5-4.32-58.05-14.59-86.977-30.95 44.447-13.4 58.837-36.8 107.207-40.51"/><path fill="#0ef5e8" d="M1095.54 436.825c29.01.289 68.53 6.208 96.77 12.29a604 604 0 0 1 309.2 170.877c113.54 114.498 176.69 269.577 175.43 430.818a604.53 604.53 0 0 1-121.47 352.16c-18 23.92-35.65 43.33-56.41 64.68l-3.88-3.27a614.57 614.57 0 0 0 160.65-351.39c15.55-155.74-30.25-311.411-127.66-433.923-118.32-146.718-261.52-218.54-447.33-238.278l1.75-2.036c3.51-1.636 8.91-1.637 12.95-1.928"/><path fill="#15cabf" d="M971.957 442.255c3.104.211 25.749-3.629 31.193-3.997 25.36-1.712 67.71-5.126 92.39-1.433-4.04.291-9.44.292-12.95 1.928l-1.75 2.036c-28.21-.299-79.85-2.982-107.469 2.339z"/><path fill="#0ef5e8" d="m1495.18 1464.38 3.88 3.27c-10.46 10.97-22.98 21.66-34.36 31.74-5.7 5.04-14.84 11.67-19.74 16.79l-1.59-1.66c10.02-6.63 42.99-40.69 51.81-50.14"/><path fill="#095a53" d="M1444.96 1516.18c-2.69 2.45-6.33 4.98-9.28 7.33-3.5 2.81-8.15 6.49-12.21 8.23-.14.06-.18-.05-.23-.13.1-.88 18.2-15.58 20.13-17.09z"/><path fill="#a2a4a6" d="m1420.28 1578.57 1.99 1.78c-4.82 2.82-9.58 4.44-14.04 6.96l-.64-1.63c4.6-2.27 8.27-4.71 12.69-7.11"/><path fill="#26212e" d="m1407.59 1585.68.64 1.63c-10.93 6.36-12.57 2.95-.64-1.63"/><path fill="#095a53" d="M973.371 443.128c-.498.166-6.078 1.864-5.974.304 1.04-1.008 3.204-1.065 4.56-1.177z"/></svg>