<svg xmlns="http://www.w3.org/2000/svg" width="2048" height="2048" viewBox="0 0 2048 2048"><path fill="#24252d" d="M0 0h2048v2048H0z"/><path fill="#02000e" d="M1389.18 86.188c9.41-.581 17.42.715 25.46 5.74 22.13 13.837 35.54 78.59 40.92 104.452 10.12 48.656 6.9 106.227-3.77 154.423a340.87 340.87 0 0 1-154.44 216.595c-21.66 13.336-43.8 22.191-65.91 34.134-61.69 33.321-115.54 76.145-152.82 136.394-45.44 73.433-63.06 163.749-67.72 248.911-13.818 252.353 86.66 527.103 233.96 729.813 33.88 46.85 70.45 91.7 109.54 134.3 10.61 11.46 21.56 22.37 32.28 33.72 12.09 12.81 28.83 23.04 33.37 40.48 4.83 18.55-8.06 36.18-26.19 39.78-15.73 3.11-36.09-9.3-50.67-14.49-72.04-30.06-140.01-69.47-204.63-112.98-50.28-34.89-91.58-66.56-136.83-108.22a1318.95 1318.95 0 0 1-388.335-692.39c-39.117-185.15-33.98-404.806 22.792-585.297 15.944-50.69 37.144-103.762 66.209-148.91 26.817-41.655 65.191-70.714 116.907-58.022 16.616 4.077 37.804 16.595 53.737 24.207a509 509 0 0 0 71.411 27.924c125.899 37.463 291.399-27.079 369.729-128.558 9.49-12.283 18.88-23.948 27.97-36.543 14.58-20.213 20.29-39.86 47.03-45.464"/><path fill="#c9cbd1" d="M1382.05 170.04c-.02 101.113-31.83 208.172-104.23 281.659-84.81 86.097-187.34 85.451-286.086 134.677-91.567 56.022-129.343 131.714-139.124 236.316l2.23-.973c38.279-153.253 146.97-229.572 300.09-240.985-5.28 3.116-10.72 6.608-15.94 9.859-102.08 67.452-153.797 172.912-177.213 290.112-52.334 261.925 51.503 590.875 195.873 808.755 16.15 24.39 33.2 48.17 51.12 71.29 8.55 10.96 20.23 24.07 28.07 34.73 13.86 15.11 27.24 31.29 41.32 46.09l-3.27 1.86c-8.65-4.79-39.15-29.22-48.7-36.66a1466.4 1466.4 0 0 1-280.976-290.45c-108.425-149.39-198.085-357.03-227.965-539.578a1083.5 1083.5 0 0 1-.995-341.843c11.883-74.131 41.732-212.274 106.075-261.164 37.456-28.46 92.873-17.134 135.813-10.084 24.071 4.8 58.108 6.004 82.468 4.929a441.9 441.9 0 0 0 256.89-97.341c20.83-17.003 36.26-32.982 54.31-52.742 11.68-16.964 20.22-30.468 30.24-48.457"/><path fill="#a7aab3" d="M854.84 821.719c38.279-153.253 146.97-229.572 300.09-240.985-5.28 3.116-10.72 6.608-15.94 9.859-8.26-1.92-25.93 10.13-33.2 14.632-90.01 55.756-144.065 156.171-167.358 256.984-43.484 188.191 4.316 393.831 70.218 571.421 9.85 26.54 20.72 52.55 31.76 78.61 5.56 13.14 10.81 28.03 18.2 40.21.15.26.36.48.54.72l-1.78 2.17c-4.56-9.66-15.77-27.41-21.48-37.21-11.48-19.94-22.7-40.02-33.67-60.24-32.684-59.93-70.303-142.1-92.474-206.58a1199.2 1199.2 0 0 1-61.333-267.125c-3.979-36.869-6.508-73.462-3.433-110.491.596-7.175 4.428-37.597 6.83-42.512.152-3.225-.046-5.429.8-8.49z"/><path fill="#4d4f62" d="m852.61 822.692 2.23-.973c-1.078 4.654-1.021 5.074-3.03 9.463.152-3.225-.046-5.429.8-8.49"/><path fill="#a7aab3" d="M1274.89 1843.43c-8.65-4.79-39.15-29.22-48.7-36.66a1466.4 1466.4 0 0 1-280.976-290.45c-108.425-149.39-198.085-357.03-227.965-539.578a1083.5 1083.5 0 0 1-.995-341.843c11.883-74.131 41.732-212.274 106.075-261.164 37.456-28.46 92.873-17.134 135.813-10.084-7.314.335-27.068 7.485-35.261 9.921-33.626 9.996-61.266 12.707-85.727 40.558-19.736 22.471-36.45 54.396-48.084 82.172-47.362 113.076-68.101 244.677-61.751 366.795a988.3 988.3 0 0 0 27.383 192.313c37.614 154.4 118.522 311.78 211.61 439.92 34.138 47 70.188 90.07 108.118 133.9 33.26 38.45 67.69 75.88 103.24 112.23 15.55 15.91 31.04 32.02 47.36 47.13 3.43 3.18 6.95 7.38 11.81 6.89 13.86 15.11 27.24 31.29 41.32 46.09z"/><path fill="#a7aab3" d="M1382.05 170.04c-.02 101.113-31.83 208.172-104.23 281.659-84.81 86.097-187.34 85.451-286.086 134.677 18.176-24.386 75.876-48.946 105.316-60.702 105.64-42.173 177.71-123.138 222.95-225.918 5.15-11.695 33.48-75.265 31.81-81.259 11.68-16.964 20.22-30.468 30.24-48.457"/><path fill="#a7aab3" d="M1059.15 1553.17c5.29 7.24 6.98 15.93-1.78 2.17z"/><path fill="#b97143" d="M1214.76 1821.05c-47.55-32.92-90.73-64.76-134.54-103.04a1294.5 1294.5 0 0 1-333.226-461.93 1173.6 1173.6 0 0 1-84.873-646.193 987.7 987.7 0 0 1 56.46-212.071c10.09-25.19 47.451-104.08 83.946-92.976 19.374 5.895 53.488 22.955 73.329 31.768-19.352-4.685-34.595-8.479-54.663-5.353-22.038 3.432-40.515 22.347-52.224 40.424C690.903 492.21 670.44 697.64 676.16 835.743a1149 1149 0 0 0 19.038 160.416c48.393 259.361 166.811 484.181 350.052 673.711 50.41 52.14 110.51 107.78 170.32 148.79z"/><path fill="#b97143" d="M1402.82 235.834c.15-.754.77-4.885 1.57-5.472.95.024 1.63 4.506 1.78 5.163.55 90.161-21.55 170.655-86.86 236.957a285.5 285.5 0 0 1-96.91 64.325c-9.93 4.012-26.65 8.954-34.86 12.593l-1.8-1.739c33.02-9.016 85.01-46.617 109.79-70.377 61.89-59.329 105.84-155.504 107.29-241.45"/><path fill="#4e2e26" d="M1215.57 1818.66c6.25 3.82 13.36 9.56 19.52 13.84l1.56 1.09c7.7 5.37 25.47 16.02 30.88 21.85-3.12.18-48.66-30.94-52.77-34.39z"/><path fill="#7d4f3b" d="M1402.82 235.834c-.02-2.948-.4-36.138.01-37.06 1.79 12.524 3.26 24.011 3.34 36.751-.15-.657-.83-5.139-1.78-5.163-.8.587-1.42 4.718-1.57 5.472"/><path fill="#a7aab3" d="M1278.16 1841.57c4.11 4.28 8.08 8.62 12.23 12.91-5.63-3.77-10.16-6.81-15.5-11.05z"/><path fill="#4e2e26" d="M1187.54 549.4c-3.95 1.148-10.09 3.569-14.03 3.896l-.07-.702c1.08-1.302 10.37-4.339 12.3-4.933z"/></svg>