<svg xmlns="http://www.w3.org/2000/svg" width="2048" height="2048" viewBox="0 0 2048 2048"><path fill="#20272b" d="M0 0h2048v2048H0z"/><path fill="#010101" d="M1835.85 326.406c1.37-.15 2.73-.28 4.1-.388 3.67-.253 5.27-.446 7.68 1.623-1.8 4.131-11.41 7.434-15.59 9.857a1155 1155 0 0 0-44.11 26.712c-30.76 19.668-70.4 48.785-99.18 72.919-78.55 65.866-171.67 153.703-211.88 250.004-7.34 17.589-10.54 41.433-12.37 60.104-58.98 9.899-109.46 43.847-149.74 86.85-61.82 66.006-114.66 147.719-112.08 241.353-93.03 12.28-170.19 63.79-200.96 154.82-5.014 14.83-4.6 28.94-8.673 43.58-.671 2.41-23.892 3.11-27.226 3.9-28.84 2.6-60.27 21.14-83.837 37.78-18.584 13.13-40.867 38.38-57.451 55.75a2708 2708 0 0 1-62.741 63.26c-134.82 130-284 223.81-470.866 254.31-3.814.74-11.127 3.13-13.542-.42 2.97-4.74 21.863-12.29 27.974-15.38a653 653 0 0 0 40.717-22.95c55.195-33.7 110.212-78.68 158.069-122.29a1160.3 1160.3 0 0 0 159.507-178.47c39.083-54.92 59.308-97.81 62.535-166.98 53.149-6.49 106.788-32.92 145.072-70.33a243.02 243.02 0 0 0 73.754-171.661c84.248-8.582 134.308-64.949 186.248-125.151 37.14-43.046 65.69-92.943 69.9-150.798 45.9-1.79 85.79-19.72 123.46-45.194 28.14-19.02 50.9-43.143 75.48-66.293a1546 1546 0 0 1 68.43-60.795c100.53-82.857 234.69-157.298 367.32-165.722"/><path fill="#c2c1c2" d="M1238.47 701.907c100.09-11.5 182.73-114.317 255.07-174.81 49.81-41.661 109.11-87.682 167.83-115.518-82.49 59.979-184.85 153.844-229.84 247.376-6.55 13.623-10.29 29.595-13.22 44.374-12.06 3.328-33.58 16.349-44.85 23.035a488.56 488.56 0 0 0-176.85 178.021c-21.61 38.142-36.74 82.191-39.44 126.115-78.34 22-142.12 62.9-183.692 135.56-10.848 18.96-20.964 43.25-25.377 64.7-74.387 4.77-135.991 80.63-184.344 130.05-67.562 69.06-135.901 139-218.262 190.63-14.322 8.94-30.219 20.65-45.246 27.92 14.462-11.68 28.268-22.67 42.438-34.76 78.749-69.2 165.919-163.47 208.168-261.27 9.48-21.94 9.359-42.42 15.854-62.56l.64-1.92c11.409 1.41 48.221-15.32 59.812-21.34 82.789-43 147.109-128.6 158.339-221.862 103.06-19.437 234.7-171.449 252.97-273.741"/><path fill="#e4e0de" d="M767.349 1218.85c2.303 1.63 3.236 1.46 3.425 4.56 3.308 54.35-30.854 109.91-62.289 151.84a769 769 0 0 1-41.492 51.58c-33.028 37.52-71.498 72.28-105.097 109.61-5.582 6.2-11.208 11.74-19.209 8.16 78.749-69.2 165.919-163.47 208.168-261.27 9.48-21.94 9.359-42.42 15.854-62.56z"/><path fill="#c1752f" d="M1600.51 474.236c-.52 2.441-.61 2.603-1.54 4.879-9.23 8.047-18.46 18.451-26.79 27.524-56.29 61.349-120.64 132.82-129.55 219.022-118.84 26.845-235.31 169.818-259.54 287.169-2.65 12.83-2.77 25.99-5.06 38.36.09 1.72.13 1.57-.73 3.09-69.72 13.68-128.37 46.3-169.53 105.95-18.464 26.76-33.472 60.91-35.98 93.59-88.715 5.81-134.994 68.53-193.023 126.04-58.706 58.17-119.937 113.24-189.41 158.46l-2.05-1.68c60.326-43.54 109.834-92.99 162.358-144.92 53.623-53.02 128.293-151.71 208.68-149.81 4.147-32.88 20.675-65.1 39.342-92.09 38.333-55.43 103.773-97.37 170.123-109.33-.5-35.77 13.45-82.178 29.68-114.213 38.93-76.828 106.88-147.414 181.51-190.342 16.9-9.721 32.33-18.815 50.9-25.128 2.3-77.041 114.9-187.676 170.61-236.571"/><path fill="#c1752f" d="M1177.3 1054.28c-1.53-.2-5.21-.41-6.4-.78.81-.32 2.08-.32 2.64-1.02.07-1.42 1.9-7.37 2.71-8.4 1.46-1.86.23-6.29 1.23-6.73l.18.09c.27.84.06 11.01.37 13.75.09 1.72.13 1.57-.73 3.09"/><path fill="#623d1f" d="M1600.51 474.236c1.64-2.235 24.95-23.289 29.06-27.712.41.096.43.02.72.473.95 1.43-.95 2.663-1.8 3.503-3.74 3.734-7.39 7.577-11.36 11.072-3.68 3.248-6.76 7.15-10.7 10.121-1.92 1.452-3.38 3.417-5.01 5.161-.67.812-1.65 1.582-2.45 2.261.93-2.276 1.02-2.438 1.54-4.879"/><path fill="#623d1f" d="M564.564 1551.47c7.522-4.01 15.402-10.87 22.743-14.83l2.05 1.68c-5.804 3.99-18.089 10.35-22.718 14.25z"/><path fill="#27170c" d="M566.639 1552.57c-2.482 1.86-16.221 10.29-18.875 9.9-.315-1.57 14.651-9.86 16.8-11z"/><path fill="#010101" d="M1605.66 194.481c4.28.038 12.2-1.036 14.02 3.215-3.41 4.605-24.56 11.93-31.27 14.876-35.78 15.696-68.57 33.298-102.31 52.707A1153 1153 0 0 0 1333.69 370.1c-74.78 59.621-166 144.595-203.48 235.441-8.75 21.196-13.04 44.06-15.61 66.729-12.26 1.486-22.54 2.421-34.71 5.414-41.05 10.093-81.22 38.766-111.891 67.822-50.874 48.195-100.523 112.437-118.498 181.209-5.401 20.667-7.184 41.713-7.773 62.927-6.44 1.852-19.659 3.274-27.103 4.501-16.406 2.706-39.019 7.427-54.006 13.997-34.968 15.32-77.701 44.46-107.666 68.08-169.843 133.87-348.2 357.01-433.786 555-1.403 4.07-2.067 7.15-5.07 10.2l-1.463-.44c-2.119-6.98-.199-19.03.635-26.27 21.287-184.85 105.279-354.94 211.204-505.55 22.36-31.79 48.501-63.58 65.054-98.9 14.385-30.696 23.926-70.609 24.335-104.513 80.345-13.315 147.159-69.885 201.422-127.43 51.298-54.4 89.018-112.462 96.973-188.569 43.565-5.708 89.181-21.347 127.543-43.065 34.031-19.266 62.36-48.343 90.5-75.063a1480 1480 0 0 1 78.07-70.382c135.13-111.375 320.47-200.633 497.29-206.757"/><defs><linearGradient id="a" x1="1096.835" x2="572.839" y1="926.237" y2="731.642" gradientUnits="userSpaceOnUse"><stop offset="0" stop-color="#aba9ac"/><stop offset="1" stop-color="#cccdcc"/></linearGradient></defs><path fill="url(#a)" d="M851.823 625.27c55.919-10.978 115.896-42.84 159.387-79.003 24.72-20.562 48.4-44.165 72.1-66.078a1384 1384 0 0 1 86.49-73.481 991.8 991.8 0 0 1 229.19-130.3l.69 2.772-13.64 7.405c-6.06 5.161-31.17 20.002-40.55 26.443a3502 3502 0 0 0-42.34 29.581c-4.77 3.408-17.27 12.982-21.28 15.183-24.23 20.861-46.53 37.951-70.28 60.341-51.79 48.812-128.18 134.613-141.34 206.533-87.145 20.513-187.967 126.121-233.386 200.305-23.143 37.8-40.078 77.036-40.978 122.195-51.115 7.152-85.864 28.923-127.898 57.304-105.819 71.43-193.753 165.79-271.138 266.59-15.24 19.85-28.958 41.56-43.541 60.84-3.583 5.88-21.907 33.51-25.843 38.07-1.751 4.57-23.814 38.81-27.93 45.31 6.618-18.19 16.146-37.42 24.58-54.94 42.142-87.57 96.123-171.7 153.434-249.99 41.242-56.34 67.898-100.78 78.261-170.793 31.657-7.426 65.373-26.851 92.13-45.29 82.96-57.167 184.863-167.714 203.882-268.997"/><path fill="#e4e0de" d="M851.823 625.27c55.919-10.978 115.896-42.84 159.387-79.003 24.72-20.562 48.4-44.165 72.1-66.078a1384 1384 0 0 1 86.49-73.481 991.8 991.8 0 0 1 229.19-130.3l.69 2.772-13.64 7.405c-6.06 5.161-31.17 20.002-40.55 26.443a3502 3502 0 0 0-42.34 29.581c-4.77 3.408-17.27 12.982-21.28 15.183l-.48-1.449c6.18-5.178 35.47-24.587 37.96-27.725-10.96 2.252-111.34 71.552-124.83 81.44-6.45 4.725-29.27 24.205-36.69 26.632-9.45 4.855-36.69 30.195-46.36 37.846-25.86 20.457-50.18 45.541-75.09 66.984-45.948 39.553-115.018 80.201-175.054 91.813-3.026 12.634-6.938 28.433-12.111 40.363-43.022 99.222-130.299 186.584-221.15 243.236-17.404 10.852-41.222 22.858-59.723 29.738-.109 28.256-17.504 78.31-30.874 102.91-16.017 29.47-38.795 61.07-58.82 88.26a5523 5523 0 0 0-55.615 76.78c-19.509 27.62-38.134 57.15-55.699 86.02-5.739 9.44-12.445 18.53-18.179 28.07l4.154 3.19c-3.583 5.88-21.907 33.51-25.843 38.07-1.751 4.57-23.814 38.81-27.93 45.31 6.618-18.19 16.146-37.42 24.58-54.94 42.142-87.57 96.123-171.7 153.434-249.99 41.242-56.34 67.898-100.78 78.261-170.793 31.657-7.426 65.373-26.851 92.13-45.29 82.96-57.167 184.863-167.714 203.882-268.997"/><path fill="#c2c1c2" d="M1157.83 436.69c.53-.61 1.32-1.552 1.9-2.016 59.6-47.777 124.62-88.971 190.12-128.126 5.86-3.503 31.47-20.089 36.19-19.963-6.06 5.161-31.17 20.002-40.55 26.443a3502 3502 0 0 0-42.34 29.581c-4.77 3.408-17.27 12.982-21.28 15.183l-.48-1.449c6.18-5.178 35.47-24.587 37.96-27.725-10.96 2.252-111.34 71.552-124.83 81.44-6.45 4.725-29.27 24.205-36.69 26.632"/><path fill="#c2c1c2" d="M327.466 1369.97c.23-6.62 11.19-21.73 14.505-28.37 1.714-3.43 5.189-9.37 7.184-12.89l4.154 3.19c-3.583 5.88-21.907 33.51-25.843 38.07"/><path fill="#c1752f" d="M1257.59 391.818c3.77-.595 3.97-1.341 6.52.157l.81 1.4c-71.63 63.21-162.33 158.074-172 257.311-70.81 5.079-138.958 68.695-184.031 120.095-49.306 56.228-87.307 122.927-90.313 199.483-54.161 8.058-81.715 18.711-127.776 49.026-87.402 57.52-163.722 128.58-233.56 206.22-5.533 6.14-11.156 12.81-16.884 18.67l.274-1.72-1.046-1.62.416-.43.639.75-.212-1.16c-3.348 1.61-1.735 1.54-4.951.72 7.674-10.17 15.879-19.65 24.066-29.31 67.333-79.45 142.725-152.5 231.071-208.35 40.067-25.326 68.174-41.685 116.31-45.154-.271-53.751 19.271-97.811 49.531-142.378 46.081-67.867 115.468-138.663 191.576-172.182 9.45-4.159 22.17-6.878 32.18-8.92 12.35-87.784 113.24-187.162 177.38-242.608"/><path fill="#9b612e" d="M435.476 1240.72c3.216.82 1.603.89 4.951-.72l.212 1.16-.639-.75-.416.43 1.046 1.62-.274 1.72c-19.841 25.25-42.359 48.84-61.293 75.03-6.273 8.67-13.647 18.67-20.478 26.83 3.563-6.78 11.98-18.56 16.718-25.51a1179 1179 0 0 1 60.173-79.81"/><path fill="#9b612e" d="M1257.59 391.818c32.52-27.49 67.62-51.656 102.38-76.07-3.56 1.898 1.2-.904-1.97 2.331-5.72 5.819-15 10.948-21.35 16.011a1795 1795 0 0 0-44.66 36.44c-7.04 5.954-20.28 17.991-27.07 22.845l-.81-1.4c-2.55-1.498-2.75-.752-6.52-.157"/><path fill="#c2c1c2" d="M1398.99 276.408c5.44-2.432 10.29-4.583 15.86-6.802-5.61 3.775-9.24 6.154-15.17 9.574z"/><path fill="#010101" d="m1831.55 508.424 1.96 1.285c2.84 6.25-4 34.523-5.75 42.517a558.5 558.5 0 0 1-55.06 146.942c-27.55 50.643-60.7 96.455-91.87 144.685-20.8 32.185-44.65 72.312-46.06 111.319-45.23 18.596-79.09 40.869-109.26 80.548-29.82 39.23-29.25 70.56-22.74 116.65-40.26 11.08-86.68 39.02-114.65 69.93-39.31 43.45-48.31 93.07-46.1 149.21-52.92 8.29-96.69 18.26-136.74 57.79-37.02 36.55-54.05 79.7-54.35 131.04-27.49 3.27-43.58 3.8-69.12 16.79-25.13 12.77-43.55 30.75-64.84 48.88a1354 1354 0 0 1-47.074 38.33c-126.986 98.72-272.752 181.64-436.725 190.51-3.215.05-4.838.39-6.893-2.08 2.201-4.54 15.309-7.47 20.059-9.74 18.18-8.71 36.534-17.33 54.279-26.9 8.671-4.68 17.484-11.2 25.935-16.44a1305 1305 0 0 0 178.013-135.51A1483 1483 0 0 0 923.994 1544c46.922-53.52 75.58-97.44 79.736-171.49 106.56-15.35 181.78-102.56 185.32-209.57 49-7.32 92.72-25.53 128.42-60.46 47.77-46.73 72.79-106.612 73.64-173.33 98.13-17.135 176.8-97.333 244.59-165.352 49.86-50.031 100.69-110.255 141.53-167.798a834 834 0 0 0 35.79-54.943c6.38-10.807 12.06-21.953 18.53-32.633"/><path fill="#c2c1c2" d="m1668.04 781.25 2.23 1.144c-7.54 9.68-13.98 19.191-20.96 29.236-1.76 2.538-6.85 10.474-8.64 12.288-21.45 32.131-38.35 59.465-53.41 94.804-8.35 3.568-15.23 7.549-22.93 12.405-60.53 38.185-121.33 105.623-111.62 182.763-60.15 26.62-120.93 76.97-144.89 139.51a221.5 221.5 0 0 0-13.89 76.2c-41.2 2.24-78.94 24.48-110.3 50.13-41.02 33.55-74.84 83.96-80.33 137.76-64.33 12.86-116.143 67.55-163.762 109.87a911 911 0 0 1-59.301 48.17c-6.98 5.25-30.882 23.48-38.201 27.09-4.82 5.74-59.564 38.55-67.917 42.07-4.416 3.19-12.801 7-17.961 9.53l-1.632-1.84c28.616-18.83 65.268-48.67 91.101-71.55 63.323-56.07 132.564-119.62 171.763-195.45a285.6 285.6 0 0 0 19.97-50.75c2.07-7.48 2.96-16.04 5.53-23.54.71-2.08 4.23-2.32 6.65-2.93 20.61-4.61 60.47-27.63 77.26-39.98a255.8 255.8 0 0 0 102.52-169.75c37.87-4.61 70.17-25.36 99.73-47.73 54.42-47.12 94.67-112.6 103.04-184.827.19-.62.39-1.239.58-1.859 35.82-2.023 108.44-56.721 137.07-81.263 35.39-33.557 66.96-63.024 98.3-101.501"/><path fill="#e4e0de" d="M754.526 1752.38c28.616-18.83 65.268-48.67 91.101-71.55 63.323-56.07 132.564-119.62 171.763-195.45a285.6 285.6 0 0 0 19.97-50.75c2.07-7.48 2.96-16.04 5.53-23.54.71-2.08 4.23-2.32 6.65-2.93 3.86 93.4-118.395 205.26-183.445 261.35-5.206 4.49-30.749 25.85-32.532 28.81-9.571 5.65-29.211 22.23-38.556 29.82l-3.553 2.85c-4.928 3.93-13.617 9.29-17.335 13.7-4.416 3.19-12.801 7-17.961 9.53z"/><path fill="#e4e0de" d="M1432.67 964.014c4.38 6.839.41 27.793-1.62 36.056-13.71 55.9-44.4 112.23-89.82 148.6-1.08.86-4.44 2.89-5.8 2.56l2.32-2.87-.71-.83c-3.03.71-2.85.87-5.22 3l-2.77.17c54.42-47.12 94.67-112.6 103.04-184.827.19-.62.39-1.239.58-1.859"/><path fill="#e4e0de" d="m1668.04 781.25 2.23 1.144c-7.54 9.68-13.98 19.191-20.96 29.236-1.76 2.538-6.85 10.474-8.64 12.288-6.2 3.641-15.16 14.607-21.21 19.987-12.12 10.785-23.85 23.172-37.07 32.802-5.77 4.199-6.64 8.637-12.65 6.044 35.39-33.557 66.96-63.024 98.3-101.501"/><path fill="#b6b2b2" d="M833.563 1698.32c-1.383 5.41-32.693 26.02-34.134 29.34l.041.1c9.96-4.64 20.827-12.9 30.257-18.88 4.57-2.89 7.351-6.54 12.309-6.26-4.82 5.74-59.564 38.55-67.917 42.07 3.718-4.41 12.407-9.77 17.335-13.7l3.553-2.85c9.345-7.59 28.985-24.17 38.556-29.82"/><defs><linearGradient id="b" x1="1242.841" x2="1349.774" y1="1217.748" y2="1303.775" gradientUnits="userSpaceOnUse"><stop offset="0" stop-color="#a3632e"/><stop offset="1" stop-color="#d17d2f"/></linearGradient></defs><path fill="url(#b)" d="m1697.84 763.079 2.69 1.491c-26.1 37.339-86.35 129.401-88.94 172.239-52.25 22.327-105.07 65.491-126.29 119.361-10.04 25.46-11.27 50.43-7.15 77.27-46.61 15.05-90.74 46.76-120.86 85.23-28.84 36.85-38.48 85.97-39.27 131.7-43.65 7.65-76.95 17.87-112.53 45.47-49.57 38.46-70.37 81.43-78.64 142.05-71.73 10.93-95.05 41.24-148.755 84.65-40.987 33.12-89.595 69.11-135.042 95.47l-.415-2.4a1030 1030 0 0 0 91.308-68.48c53.027-44.56 109.404-109.57 179.924-120 1.86-82.6 93.89-175.94 175.39-186.26 4.73-.6 10.12-.66 14.92-.73-.94-74.26 28.71-132.43 87.92-176.81 22.69-17 44.76-31.74 71.67-41.57-3.01-27-1.42-45.24 8.34-70.84 19.3-50.65 74.79-101.71 123.97-123.636 20.58-55.405 68.1-115.607 101.76-164.205"/><path fill="#623d1f" d="M1697.84 763.079c9.31-13.29 19.12-26.007 27.72-39.775.62-.991 1.47-3.032 2.71-2.631.64 1.935-25.07 40.406-27.74 43.897z"/><path fill="#27170c" d="m825.518 1726.72 1.516 1.47c-3.143 1.61-17.472 11.65-19.563 10.74-.058-1.5 16.298-11.57 18.047-12.21"/><path fill="#848281" d="M1668.04 781.25c1.76-1.95 14.54-17.33 15.33-17.423.55 1.422-11.71 16.999-13.1 18.567z"/><path fill="#623d1f" d="M825.518 1726.72c5.179-3.05 11.927-7.69 17.12-11.11l.415 2.4c-5.061 3.8-11.544 6.4-16.019 10.18z"/><path fill="#c2c1c2" d="m754.526 1752.38 1.632 1.84c-1.913 1.09-3.9 2.02-5.837 3.07l-.795-1.97c2.026-1.07 3.097-1.72 5-2.94"/><path fill="#848281" d="M750.321 1757.29c-.719.38-5.966 3.52-6.647 2.26.282-1.04 5.062-3.73 5.852-4.23z"/></svg>