<svg xmlns="http://www.w3.org/2000/svg" width="2048" height="2048" viewBox="0 0 2048 2048"><path fill="#24252d" d="M0 0h2048v2048H0z"/><path fill="#01000b" d="M187.606 211.734c5.758 1.973 35.399 19.485 41.807 23.122l94.238 53.245 75.351 41.934c11.305 6.267 28.352 15.147 38.488 22.424 3.864 2.774 17.807 17.185 21.986 21.376l39.45 39.535 121.867 120.98 402.637 401.536c7.93-7.573 15.62-16.195 23.53-23.983a12582 12582 0 0 0 114.58-113.788l279.66-277.876 119.25-118.95c14.05-13.762 29.26-30.13 43.86-42.832 3.7-3.213 22.84-13.711 28.1-16.696l56.28-31.515 174.4-98.239c-8.02 15.976-22.06 38.412-31.27 54.208l-63.5 109.586-40.02 71.454c-3.44 6.172-17.45 32.043-20.86 35.854-17.68 19.76-39.42 40.426-58.33 59.211L1537.2 654.117l-399.42 397.143c26.87 26.1 53.53 52.4 79.98 78.92 17.27 17.23 35.38 35.96 53.3 52.31 8.71-7.92 17.62-18.03 25.77-26.66 13.97-14.64 27.78-29.43 41.44-44.36l-3.26 144.29 47.52 47.12c41.56-37.67 83.13-81.37 124.59-120.37 28.72 28.68 57.59 57.23 86.59 85.62l-89.4 87.52c-12.68 12.3-25.27 25.38-38.37 37.14 50.81 48.2 100.17 101.63 151.13 150.08 18.84 17.9 36.85 37.64 56.29 54.91 8.09-7.85 16.14-15.9 24.69-23.24 35.19 33.41 70.71 69.38 105.62 103.49-45.9 46.82-94.66 93.27-141.21 139.97-30.64-28.19-70.17-67.7-99.14-97.96 7.75-7.4 16.47-15.72 24.79-22.31-32.69-31.55-66.51-66.21-98.45-98.52-37.71-37.75-76.78-78.65-115.04-115.14-45.21 44.5-92.82 87.66-137.17 133.06-28.47-28.56-58.59-57.34-87.63-85.42 13.96-12.12 30.09-28.63 43.55-41.7l82.69-80.82c-20.32-19.62-40.06-39.63-60.5-59.25-31.27 4.79-63.06 7.51-94.37 12.11-13.17 1.94-26.3 3.9-39.54 5.38l65.44-72.96c-39.7-38.39-85.45-83.95-124.01-123.82a15495 15495 0 0 0-122.591 124.67l64.196 72.31c-33.961-3.72-68.013-9.78-102.084-13.27-10.089-1.03-21.836-2.51-31.746-4.56a2317 2317 0 0 0-59.959 59.72c38.414 39.06 84.835 84.77 125.066 121.95a3787 3787 0 0 0-86.992 85.22c-12.086-10.37-26.938-26.41-38.816-37.75-32.613-31.13-64.161-64.81-96.931-95.61-19.504 19.78-41.807 40.37-61.87 60.04l-155.424 151.1c5.013 4.09 24.574 22.37 28.014 26.6-12.07 10.82-24.786 24.7-36.773 36.05a3299 3299 0 0 0-62.261 60.56c-46.993-45.35-93.887-92.87-140.57-138.83 5.436-4.91 11.108-10.61 16.264-15.86 29.326-29.84 61.375-58.24 90.009-88.68l22.051 21.83c24.656-22.8 49.687-48.19 73.719-71.74l133.896-131.2a9978 9978 0 0 1-125.467-124.83c29.272-27.17 58.189-58.91 87.558-86.66l79.509 78.84c8.909 8.86 33.839 34.71 42.754 41.16a2770 2770 0 0 1 44.607-45.5l-1.652-144.43a4848 4848 0 0 1 67.79 70.63c31.715-29.25 60.588-63.33 91.461-93.59 13.139-12.88 26.771-26.69 38.97-40.38a12575 12575 0 0 0-134.823-134.935l-264.09-263.94-114.38-114.366c-15.024-15.181-32.27-31.184-46.328-46.982-2.666-2.996-15-25.692-17.71-30.496l-36.226-64.091c-34.22-60.289-71.303-121.606-104.645-181.896"/><path fill="#c9c9ce" d="m1744.75 319.934.72.78c-1.49 4.882-84.44 126.036-91.19 138.555-2.64 4.884-19.79 15.053-25.09 20.17-16.72 16.172-33.47 32.685-50.06 49.014l-212.14 210.393-358.82 357.644a12651 12651 0 0 1-167.455 166.59 3156 3156 0 0 0 37.275 60.02c-24.225-4.97-61.105-9.21-86.488-12.96a7913 7913 0 0 1-65.85 65.13l-8.687-7.93-37.301-34.77c20.5-20.13 41.034-41.3 61.276-61.76.082-25.36.999-51.17 1.214-76.69l45.439 25.24c79.502-81.48 163.934-162.28 245.317-242.065l294.55-292.311 204.51-203.33 59.69-59.272c9.23-9.166 23.47-24.044 33.27-31.945 8.32-6.708 26.64-16.041 36.49-21.908 27.17-16.185 56.98-31.329 83.33-48.595"/><path fill="#c9c9ce" d="M303.349 319.829c6.203 2.575 38.658 22.375 46.364 26.787l47.058 26.784c6.221 3.516 25.02 13.652 29.123 17.481 17.823 16.627 35.696 35.519 53.063 52.745l120.52 119.75c134.707 134.301 269.889 271.525 406.083 404.058L980.942 992.5a1114 1114 0 0 1-24.931 24.68c-9.177-11.16-37.472-37.926-49.249-49.722l-99.628-99.895-317.075-317.017c-23.417-23.419-46.965-47.053-70.461-70.406-5.181-5.15-20.154-13.883-23.684-18.778-12.27-16.449-22.199-34.7-33.41-51.926-10.769-16.546-21.499-33.158-32.232-49.726-8.74-13.493-18.187-26.441-26.923-39.881"/><path fill="#c9c9ce" d="M1106.71 1069.68c5.08 4.12 14.54 14 19.39 18.85l36.01 35.82c32.1 31.57 65.65 62.84 97.27 94.71l44.39-24.89c.47 25.33 1.08 50.66 1.84 75.99l61.35 61.74c-14.66 14.24-30.34 28.5-45.32 42.49l-10.66-10.24c-18.29-17.83-36.56-36.43-54.68-54.49-27.27 4.45-56.06 7.62-82.94 12.8 9.72-17.35 20.96-37.06 31.55-53.82l-148.43-149.62c16.88-15.9 33.71-32.98 50.23-49.34"/><path fill="#c9c9ce" d="M614.051 1412.64c5.956 3.07 33.798 31.58 40.297 38.09-29.268 31.16-68.428 67.56-99.499 97.74l-143.681 140.88c8.02 6.82 16.062 14.16 23.948 21.18a4408 4408 0 0 1-51.696 49.25l-19.092-18.76-64.431-62.9a2388 2388 0 0 0 52.58-50.79c7.157 6.22 14.318 13.31 21.201 19.89 28.674-29.34 61.189-59.95 90.746-88.72z"/><path fill="#c9c9ce" d="M1432.18 1412.6c5.64 2.11 217.14 212.38 240.11 234.88 6.99-6.46 14.1-13.53 20.99-20.17 17.45 16.02 36.74 35.29 53.54 52.07-20.18 19.3-40.24 38.74-60.17 58.29a972 972 0 0 1-23.54 22.77 3703 3703 0 0 1-51.57-49.46c7.86-7.28 15.6-14.69 23.23-22.22-58.01-59.17-119.05-116.8-177.32-175.82-20.89-21.15-42.66-41.67-63.18-63.21 11.26-11.96 25.95-25.5 37.91-37.13"/><path fill="#c9c9ce" d="M541.655 1231.88c9.156 7.89 23.775 23.09 32.957 32.04l69.627 68.25 201.393 196.86c-11.309 11.91-24.11 24.2-35.812 35.86-6.445-2.87-84.712-82.1-94.208-91.52l-209.206-207.56c11.26-11.37 23.633-22.83 35.249-33.93"/><path fill="#c9c9ce" d="M1507 1234.6c4.57 2.12 28.76 25.9 34.01 30.95-15.16 16.63-36.12 36.12-52.47 52.42l-117.2 116.15-81.8 80.97c-13.27 13.28-38.1 39.48-51.64 50.18-12.3-11.97-24.47-24.07-36.52-36.28z"/><path fill="#d89358" d="m1764.08 326.075 1.38 2.437a10064 10064 0 0 1-69.59 109.058c-6.53 9.998-15.2 28.237-23.58 35.694-12.41 11.037-25.29 20.025-37.26 31.934-43.99 43.735-87.65 87.782-131.44 131.711l-453 454.711-124.652 125.01-41.417 41.14c-5.534 5.54-16.238 15.66-20.701 21.54l-8.133-11.01c36.215-35.75 72.189-71.75 107.919-107.99l167.974-168.107 304.08-303.767c67.69-67.85 136.88-134.924 203.51-203.741 6.23-7.249 23.5-14.169 28.58-21.489 32.04-46.169 60.52-93.574 96.33-137.131"/><path fill="#d89358" d="M286.66 326.861c28.217 31.807 50.919 65.712 73.332 101.682 7.637 12.256 15.049 25.517 24.325 36.56 7.997 8.488 18.291 15.722 26.605 24.122a13773 13773 0 0 0 109.626 110.203l298.071 299.413 89.261 90.119c6.883 6.975 33.353 32.97 37.514 39.36-1.844 3.43-2.751 4.09-5.451 6.77-46.451-45.625-92.126-93-138.255-139.126l-45.961-45.792c-2.204-2.226-14.485-14.473-15.875-16.474a126.5 126.5 0 0 1-13.026-13.521c-6.013-3.432-52.661-52.074-62.092-61.436L424.641 518.787c-16.357-16.351-35.924-32.439-51.324-48.584-2.097-2.199-20.25-32.424-23.798-38.01a10996 10996 0 0 1-64.892-103.707z"/><path fill="#ca8b5c" d="M726.826 820.177c2.567.733 16.172 4.173 15.087 8.705-1.271.349-2.224-.935-3.403-1.573-.382 1.38.239 2.811.669 4.129q.358 1.124.673 2.26a126.5 126.5 0 0 1-13.026-13.521"/><path fill="#d89358" d="m1041.7 1137.65 6.28-6.45 139.1 140.15-4.57 6.99-2.01-.36a7745 7745 0 0 1-82.22-82.92c-18.79-19.03-38.27-37.98-56.58-57.41"/><path fill="#d89358" d="M799.509 1321.32c4.618 1 9.3 1.66 13.91 2.7l1.89.42c-24.116 23.64-48.197 48.44-72.631 71.63-4.06 3.84-8.965-2.28-13.024-5.31z"/><path fill="#d89358" d="M1249.86 1322.11c3.64 2.97 7.27 7.19 10.67 10.5 19.8 19.32 38.32 39.92 58.54 58.83-2.2 2.32-4.79 4.65-7.12 6.91-5.15-2.19-62.39-60.92-69.96-68.8z"/><path fill="#9f6d41" d="M1764.08 326.075c2.4-3.22 5-5.784 7.75-8.684-1.89 3.45-4.14 8.009-6.37 11.121z"/><path fill="#ca8b5c" d="M284.627 328.486c-.63-1.063-3.559-5.147-3.087-6.528l.153-.06c1.473.375 3.985 3.789 4.967 4.963z"/><path fill="#24252d" d="m1180.5 1277.98 2.01.36c-3.53 6.51-6.08 8.59-2.01-.36"/></svg>