<svg xmlns="http://www.w3.org/2000/svg" width="2048" height="2048" viewBox="0 0 2048 2048"><path fill="#272a32" d="M0 0h2048v2048H0z"/><path fill="#0d1016" d="M847.27 126.52c2.962-.224 4.916-.542 7.867.019l2.133.088c-2.991 5.975-34.982 22.012-42.682 26.835a607 607 0 0 0-27.659 18.698c-27.523 19.883-45.887 38.272-70.107 61.471-79.358 76.009-138.117 189.038-103.111 300.249 10.082 32.028 37.698 76.504 63.758 98.698 74.237-53.217 145.256-93.582 234.764-115.015 37.328-8.938 58.785-13.649 97.297-13.795 7.7-2.589 27.52-.787 36.34-.34 62.13 3.142 136.96 16.562 194.38 41.215a729.7 729.7 0 0 1 152.3 85.456c25.76-22.981 39.72-39.804 56.17-70.203 25-46.211 25.88-113.161 8.58-162.675-27.56-78.843-93.82-166.376-160.15-216.87-26.23-19.972-64.23-39.275-93.31-54.103 17.17 3.075 36.01 6.23 52.82 10.343 5.76-1.136 9.62-.419 15.31 1.473 37.67 8.072 74.61 14.548 110.18 31.334 21.9 7.808 48.46 22.285 68.45 34.031 77.09 45.296 146.17 113.738 184.76 195.088 43.57 91.843 49.54 190.041 14.3 285.758-23.47 63.725-52.06 111.687-102.38 157.955 31.26 91.696 16.5 193.59-25.59 279.31-3.34 6.74-6.9 13.37-10.67 19.87q18.36 26.985 37.29 53.58c7.1 10.1 16.3 24.02 23.85 33.45-51.2 55.14-106.13 114.26-158.68 168.25l-8.39-6.04c-7.66 7.33-12.57 14.06-19.48 21.5-3.59-1.06-21.34-5.86-23.76-6.91l.22 207.98c-22.27 24.13-46.19 47.79-69.06 71.54l-223.6 230.52-6.75-6.21c-8.12 6.26-17.3 14.26-25.41 20.83-2.18-22.19-.87-43.66-2.04-65.91-.11-16.56.08-34.82-.63-51.42-.1-2.18-.33-1.7-2.31-3.16-3.42.1-10.3-.25-12.75 1.49l-.38.94c-.71 8.59-.35 22.32-.36 31.25l.21 58.13c.05 9.13.43 19.74-.21 28.78-.12 1.6-.6 1.36-2.33 2.37-9.27-2.36-271.73-279.2-305.399-310.29l-1.032-218.93c-11.669 2.49-25.131 6.41-36.766 9.61-21.541-21.38-49.499-52.92-70.717-76.19-31.083-34.08-67.181-70.98-97.217-105.41 3.438-4.91 6.908-10.38 9.996-15.55 14.72-24.65 30.423-49.02 44.778-73.86-6.364-10.79-15.08-29.93-19.875-41.64-34.289-83.7-43.659-173.73-8.458-258.834-68.591-57.853-120.334-159.919-130.284-248.283-10.441-92.721 18.485-192.472 75.392-266.485 31.832-41.4 56.214-63.586 96.253-94.472 86.793-66.951 166.683-91.002 274.149-105.516"/><path fill="#d69057" d="M1379.35 174.367c-1.67-2.78-4.78-4.379-7.58-6.246 4.12 1.014 5.2 1.259 9.45 1.281l.93-.004c21.9 7.808 48.46 22.285 68.45 34.031 77.09 45.296 146.17 113.738 184.76 195.088 43.57 91.843 49.54 190.041 14.3 285.758-23.47 63.725-52.06 111.687-102.38 157.955 31.26 91.696 16.5 193.59-25.59 279.31-3.34 6.74-6.9 13.37-10.67 19.87q18.36 26.985 37.29 53.58c7.1 10.1 16.3 24.02 23.85 33.45-51.2 55.14-106.13 114.26-158.68 168.25l-8.39-6.04c16.89-15.89 38.22-39.98 54.36-57.2l98.02-104.73c-3.84-4.9-7.73-10.22-11.22-15.38-16.32-24.16-35.04-47.71-50.3-72.5.85-1.48 1.68-2.97 2.49-4.46 35.84-66.1 56.14-150.004 49.04-225.462-2.37-25.13-8.19-47.01-15.32-71.009 102.19-85.341 149.77-254.275 111.31-380.788-36.21-119.118-121.49-211.282-231.21-268.562-10.89-5.688-22.29-10.355-32.91-16.192"/><path fill="#d69057" d="m855.137 126.539 2.133.088c-2.991 5.975-34.982 22.012-42.682 26.835a607 607 0 0 0-27.659 18.698c-27.523 19.883-45.887 38.272-70.107 61.471-79.358 76.009-138.117 189.038-103.111 300.249 10.082 32.028 37.698 76.504 63.758 98.698-2.386 2.011-3.889 3.838-6.889 4.111-7.593-4.213-10.92-8.018-16.812-14.009-67.38-68.523-81.934-161.066-48.018-249.933 23.195-60.777 62.583-108.427 109.822-152.441 15.516-14.457 30.668-28.696 47.787-41.302a470 470 0 0 1 85.633-49.781z"/><path fill="#d69057" d="M1347.22 1400.56c4.17 1.65 10.23 3.32 14.63 4.68l.22 207.98c-22.27 24.13-46.19 47.79-69.06 71.54l-223.6 230.52-6.75-6.21c33.29-32.5 69.09-71.14 101.78-104.96l182.8-190.11c-.77-24.77-.31-51.67-.32-76.65z"/><path fill="#d69057" d="M1240.25 544.643a729.7 729.7 0 0 1 152.3 85.456c-2.06 1.341-4.97 3.781-7 5.383a806 806 0 0 0-146.53-84.518z"/><path fill="#c48555" d="M1009.53 503.768c7.7-2.589 27.52-.787 36.34-.34 62.13 3.142 136.96 16.562 194.38 41.215l-1.23 6.321c-63.61-25.586-123.35-41.792-192.32-46.078-11.89-.739-25.47-1.897-37.17-1.118"/><path fill="#c48555" d="M1271.97 138.064c37.67 8.072 74.61 14.548 110.18 31.334l-.93.004c-4.25-.022-5.33-.267-9.45-1.281 2.8 1.867 5.91 3.466 7.58 6.246-5.06-1.841-10.55-4.181-15.54-6.261-29.88-12.455-60.31-20.747-91.7-28.417z"/><path fill="#53433d" d="M1256.66 136.591c5.76-1.136 9.62-.419 15.31 1.473l.14 1.625c-5.12-.606-10.4-1.96-15.45-3.098"/><path fill="#8e969c" d="M1006.97 540.89c11.71-1.55 30.97-.639 43.05-.076 73.66 3.429 149.04 28.292 213.69 63.408 22.93 11.599 69.93 40.957 89.75 57.284-38.54 24.886-73.2 40.134-117.75 52.043-12.46 3.068-21.96 4.521-34.51 6.125-2.1 22.258-5.81 53.367-9.75 75.274 69.82 28.155 81.41 53.789 126.92 109.029 5.41 6.577 24.19 29.407 30.38 34.242 7.77-4.987 39.74-16.146 50.3-20.701a501 501 0 0 0 100.21-56.605c12.82 60.632 18.02 113.406-2.66 174.227-.58 2.13-1.11 3.87-1.83 5.96a482 482 0 0 1-20.71 51.53c-10.84-29.4-28.02-60.79-45.2-87.01 1.07-7.871 7.32-71.127 5.74-74.172-16.07 31.525-32.41 64.372-49.59 95.272 39.02 66.21 78.37 132.2 118.07 198-42.08 46.72-85.78 92.55-127.71 139.24l-108.45-25.73c-35.43 45.36-73.27 92.09-107.58 138.05-.04 26.17-.38 53.13.09 79.23-6.97 1.17-49.59.3-59.17.31l-.86-64.82-50.03.05c-.76 19.64-.21 44.39-.17 64.4-5.61 1.01-44.84.1-53.503.1l.165-64.66c-12.401-.05-40.369.82-51.092-.48-.038 21.01-.503 43.89-.05 64.77l-22.425.08-32.425-.08-.205-80.55c-11.21-16.16-25.145-33.69-37.085-49.58l-64.954-86.3c-10.693 3.42-24.996 6.65-36.227 9.56l-68.024 17.6c-15.539-15.49-33.986-36.8-48.986-53.23l-80.003-87.17c11.457-21.6 28.632-48.88 41.355-70.46l73.353-125.6c-15.287-32.105-34.873-70.355-51.532-101.822 3.384 25.441 5.171 51.086 8.538 76.492-19.013 31.32-30.598 56.1-44.368 89.58-19.221-48.56-35.875-107.98-30.431-160.431 2.398-23.113 7.909-45.232 13.24-67.793 29.883 20.376 65.046 37.767 98.111 52.337 13.517 5.957 27.894 10.619 41.085 16.447 1.449.63 8.09 3.93 9.33 2.222 40.972-56.421 83.548-112.569 149.78-140.458-2.158-21.751-2.595-53.83-2.664-75.779-50.038-3.206-115.699-30.46-156.851-57.702 86.678-67.871 191.953-118.21 303.638-121.653"/><path fill="#d7dadd" d="M703.332 662.543c86.678-67.871 191.953-118.21 303.638-121.653 4.01.134 8.03.233 12.04.299-.04 62.691.53 125.381 1.7 188.061l2.39 287.28 1.03 90.77c.04 5.96.87 35.75-.83 39.84-30.212 72.65-68.12 145.21-98.35 217.68l11.869 11.06 39.946 44.04a2730 2730 0 0 0 42.105-23.54c.12-6.38-.13-13.27 1.35-19.39 3.42 5.39.53 41.29 2.86 52.17 2.96 3.36.03 24.31 1.46 30.51 1.95 1.98 23.1 28.79 24.83 31.38-.76 19.64-.21 44.39-.17 64.4-5.61 1.01-44.84.1-53.503.1l.165-64.66c-12.401-.05-40.369.82-51.092-.48-.038 21.01-.503 43.89-.05 64.77l-22.425.08-32.425-.08-.205-80.55c-11.21-16.16-25.145-33.69-37.085-49.58l-64.954-86.3c-10.693 3.42-24.996 6.65-36.227 9.56l-68.024 17.6c-15.539-15.49-33.986-36.8-48.986-53.23l-80.003-87.17c11.457-21.6 28.632-48.88 41.355-70.46l73.353-125.6c-15.287-32.105-34.873-70.355-51.532-101.822 3.384 25.441 5.171 51.086 8.538 76.492-19.013 31.32-30.598 56.1-44.368 89.58-19.221-48.56-35.875-107.98-30.431-160.431 2.398-23.113 7.909-45.232 13.24-67.793 29.883 20.376 65.046 37.767 98.111 52.337 13.517 5.957 27.894 10.619 41.085 16.447 1.449.63 8.09 3.93 9.33 2.222 40.972-56.421 83.548-112.569 149.78-140.458-2.158-21.751-2.595-53.83-2.664-75.779-50.038-3.206-115.699-30.46-156.851-57.702"/><path fill="#8e969c" d="M564.541 865.476c29.883 20.376 65.046 37.767 98.111 52.337 13.517 5.957 27.894 10.619 41.085 16.447-1.203 1.336-1.422.952-1.219 2.338 5.571 37.985 37.262 77.752 57.224 109.112l193.292 84.31c4.708-6.28 13.429-18.66 18.35-24.06l-1.144 20.91c-9.863 12.86-20.189 25.16-30.187 37.85-55.399-24.05-110.654-50.76-165.955-75.26-22.523-9.98-47.655-22.68-70.186-31.85a8262 8262 0 0 1-40.047 87.73c-2.326 4.98-12.613 27.59-15.549 31.21-5.326-23.04 1.824-31.56 9.694-52l-.55-.53c-13.304 24.25-29.131 52.96-43.633 76.41 34.152 36.72 70.821 75.71 103.914 113.3 26.364-5.82 66.03-17.6 90.695-21.47 33.657 61.22 69.185 108.73 113.379 162.28.153 33.31-.105 67.48.48 100.72l-32.425-.08-.205-80.55c-11.21-16.16-25.145-33.69-37.085-49.58l-64.954-86.3c-10.693 3.42-24.996 6.65-36.227 9.56l-68.024 17.6c-15.539-15.49-33.986-36.8-48.986-53.23l-80.003-87.17c11.457-21.6 28.632-48.88 41.355-70.46l73.353-125.6c-15.287-32.105-34.873-70.355-51.532-101.822 3.384 25.441 5.171 51.086 8.538 76.492-19.013 31.32-30.598 56.1-44.368 89.58-19.221-48.56-35.875-107.98-30.431-160.431 2.398-23.113 7.909-45.232 13.24-67.793"/><path fill="#a4a9b1" d="M657.46 1124.02c.329-.94.884-3.37 2.385-2.82 1.09 1.28-1.062 2.65-1.835 3.35z"/><path fill="#0d1016" d="M976.241 1004.86c3.76 14.88 6.742 36.42 9.458 51.96l15.701 86.54c-23.892 37.33-56.465 85.39-78.101 123.29-8.376-1.44-46.474-.23-56.865-.4-46.358-.77-93.766 1.02-140.068-.05-4.281-5.38-14.579-15.5-19.612-20.79l-40.441-42.36c-5.846-6.1-13.968-14.06-18.844-20.99-.884-1.26.278-3.54.847-5.51 2.936-3.62 13.223-26.23 15.549-31.21a8262 8262 0 0 0 40.047-87.73c22.531 9.17 47.663 21.87 70.186 31.85 55.301 24.5 110.556 51.21 165.955 75.26 9.998-12.69 20.324-24.99 30.187-37.85l1.144-20.91c2.647-32.98 1.999-67.97 4.857-101.1"/><path fill="#8e969c" d="m1023.23 1460.72 1.31-1.05c1.95 1.98 23.1 28.79 24.83 31.38-.76 19.64-.21 44.39-.17 64.4-5.61 1.01-44.84.1-53.503.1l.165-64.66c-12.401-.05-40.369.82-51.092-.48 7.024-1.2 40.989-.57 50.191-.52 8.299-10.47 15.729-20.21 24.759-30.12z"/><path fill="#d7dadd" d="m1023.23 1460.72 1.31-1.05c1.95 1.98 23.1 28.79 24.83 31.38-.76 19.64-.21 44.39-.17 64.4-6.94-.97-18.47-.61-25.76-.59.58-31.58-.1-62.63-.21-94.14"/><path fill="#8e969c" d="M726.366 1266.2c46.302 1.07 93.71-.72 140.068.05 10.391.17 48.489-1.04 56.865.4-6.109 1.06-36 .6-43.776.6l-100.907-.22c-17.411 0-27.219 3.84-39.755 16.36-2.713-5.18-8.741-12.26-12.495-17.19"/><path fill="#a4a9b1" d="M1023.08 1429.16c2.96 3.36.03 24.31 1.46 30.51l-1.31 1.05-3.51-.95c-.01.01 2.35-2.37 2.32-2.3 2.26-5.16 1.01-23.11 1.04-28.31"/><path fill="#d7dadd" d="M1348.75 938.219c7.77-4.987 39.74-16.146 50.3-20.701a501 501 0 0 0 100.21-56.605c12.82 60.632 18.02 113.406-2.66 174.227-.58 2.13-1.11 3.87-1.83 5.96a482 482 0 0 1-20.71 51.53c-10.84-29.4-28.02-60.79-45.2-87.01 1.07-7.871 7.32-71.127 5.74-74.172-16.07 31.525-32.41 64.372-49.59 95.272 39.02 66.21 78.37 132.2 118.07 198-42.08 46.72-85.78 92.55-127.71 139.24l-108.45-25.73c-35.43 45.36-73.27 92.09-107.58 138.05-.04 26.17-.38 53.13.09 79.23-5.4-.74-21.2-.44-27.37-.48.48-33.67.71-67.35.69-101.03 36.1-51.1 78.87-105.25 113.16-156.53 27.77 7.05 59.53 13.74 87.75 19.24 12.48-11.8 27.33-28.46 39.48-41.13l72.43-75.2c-22.43-42.12-49.8-97.6-73.58-137.67-4.44-1.35-20.35-6.78-23.79-5.46l-234.33 106.49c-1.36-3.52-1.95-7.99-2.02-11.74-.16-8.82 3.51-18.39 10.4-24.07 10.38-8.58 27.28-12.34 39.59-17.76 28.84-12.68 128.35-57.35 147.4-78.28 16.06-17.64 40.52-69.489 39.51-93.671"/><path fill="#8e969c" d="M1434.6 931.448c1.53-3.032 1.39-2.88 3.9-5.163 3.36 15.948 3.61 31.275 12.57 45.566 15.41 7.096 34.4 22.392 40.35 38.689 1.61 4.41 2.35 10.43 3.01 15.16.97 4.46-.05 5.34 2.17 9.44-.58 2.13-1.11 3.87-1.83 5.96a482 482 0 0 1-20.71 51.53c-10.84-29.4-28.02-60.79-45.2-87.01 1.07-7.871 7.32-71.127 5.74-74.172"/><path fill="#c8cbd2" d="M1494.43 1025.7c.97 4.46-.05 5.34 2.17 9.44-.58 2.13-1.11 3.87-1.83 5.96-.85-5.89-.73-9.34-.34-15.4"/><path fill="#0d1016" d="M1073.42 1014.68c1.89 2.53 1.97 2.42 2.82 5.39.6 35.3 1.44 70.59 2.53 105.87 4.93 6.04 29.85 37.4 34.51 38.11l.59-.31 234.33-106.49c1.65 1.46 51.61 112.45 57.71 125.16-25.72 26.8-55.62 59.67-81.88 85.16-47.37-.66-94.75-.9-142.13-.71-8.88-.01-48.26-1.09-54.76-.17-26.14-40.18-52.05-80.5-77.74-120.98-1.37-3.47 21.34-115.94 24.02-131.03"/><path fill="#0d1016" d="M936.819 1375.88c29.629-42.67 59.478-91.03 87.781-134.68.05 23.16-3 49.93-2.43 71.34-.55 12.86-3.28 54.37-1.95 64.45-1.48 6.12-1.23 13.01-1.35 19.39-13.97 7.97-28 15.82-42.105 23.54z"/><path fill="#d7dadd" d="M1263.71 604.222c22.93 11.599 69.93 40.957 89.75 57.284-38.54 24.886-73.2 40.134-117.75 52.043-1.64-4.564 9.53-19.447 12.51-24.835 16.41-29.621 17.42-52.092 15.49-84.492"/><path fill="#d7dadd" d="M1108.14 1289.23c-18.4-41.12-40.91-81.19-59.47-122.17-1.17-2.58.14-18.01.73-21.35 25.69 40.48 51.6 80.8 77.74 120.98l6.33.77c-8.38 7.74-14.63 11.14-25.33 21.77"/><path fill="#c8cbd2" d="M1022.17 1312.54c3.03 9.96 1.02 100.84.91 116.62-2.33-10.88.56-46.78-2.86-52.17-1.33-10.08 1.4-51.59 1.95-64.45"/><path fill="#272a32" d="M1075.13 1000.92c.71 7.05 1.08 11.96 1.11 19.15-.85-2.97-.93-2.86-2.82-5.39.42-4.47 1.14-9.28 1.71-13.76"/><path fill="#0d1016" d="M1027.19 1242.73c7.49 6.05 76.22 118.08 85.08 132.07-6.87 7.74-14.31 17.42-20.86 25.6-5.73 6.84-10.67 13.31-16.02 20.41-14.43-8.23-28.53-16.77-43.12-24.8-.54-50.27-4.22-102.46-5.08-153.28"/><path fill="#8e969c" d="M1398.4 221.2c20.32 10.53 37.64 23.827 55.9 36.651 147.16 103.292 212.18 288.619 125.91 454.017-34.68 66.478-85.61 114.826-152.62 149.845-19.62 10.413-40.86 21.745-62.25 28.445-2.21.691-4.43 1.358-6.65 2.003l-11.72-13.893c-7.32-7.928-16.02-18.902-23.11-27.317-28.15-33.394-50.83-57.614-88.62-80.702l-.54-16.211c60.13-12.403 137.5-51.897 182.63-93.346 54.29-49.855 83.89-107.241 87.11-181.274 4.52-104.069-45.82-182.775-112.16-256.405 2.92-.751 2.89-.546 5.41.999z"/><path fill="#d7dadd" d="M1398.4 221.2c20.32 10.53 37.64 23.827 55.9 36.651 147.16 103.292 212.18 288.619 125.91 454.017-34.68 66.478-85.61 114.826-152.62 149.845-19.62 10.413-40.86 21.745-62.25 28.445-2.21.691-4.43 1.358-6.65 2.003l-11.72-13.893c3.52-2.621 9.58-5.815 13.61-7.927 37.42-19.66 68.88-45.362 97.11-77.113a366.37 366.37 0 0 0 91.43-265.745c-5.77-97.937-47.04-191.046-111.41-264.902-11.72-13.45-26.69-26.731-40.02-38.569z"/><path fill="#d7dadd" d="M675.387 212.724c-7.802 8.014-15.617 16.998-23.597 24.657a334 334 0 0 1-11.435 12.983c-43.661 51.7-73.305 100.736-85.097 168.654-30.866 177.776 109.171 297.215 267.221 335.493l.509 13.363c-18.303 12.336-31.767 21.432-48.123 36.546-23.547 21.758-41.669 47.723-63.017 70.9-5.064 5.717-9.741 10.548-15.13 15.972-23.957-8.112-43.72-18.341-65.933-29.73-69.075-35.416-114.21-77.99-151.393-146.132a331.18 331.18 0 0 1-28.353-252.723c35.466-118.838 118.485-193.141 224.348-249.983"/><path fill="#8e969c" d="M675.387 212.724c-7.802 8.014-15.617 16.998-23.597 24.657a334 334 0 0 1-11.435 12.983l-2.048-1.997c-13.364 14.047-26.56 28.291-38.561 43.537-59.758 75.911-99.254 171.927-96.638 269.53a348.25 348.25 0 0 0 108.685 243.405c20.123 18.917 75.049 60.728 100.055 70.481-5.064 5.717-9.741 10.548-15.13 15.972-23.957-8.112-43.72-18.341-65.933-29.73-69.075-35.416-114.21-77.99-151.393-146.132a331.18 331.18 0 0 1-28.353-252.723c35.466-118.838 118.485-193.141 224.348-249.983"/><path fill="#c8cbd2" d="M638.307 248.367c3.125-3.288 9.433-10.794 13.483-10.986a334 334 0 0 1-11.435 12.983z"/><path fill="#8e969c" d="m1271.27 1436.59 34.33-29.18c-.33 65.71-.13 131.41.61 197.12-26.8 27.3-53.42 54.78-79.86 82.43L1105.2 1811.8c-4.66 7.02-28.04 29.2-35.25 36.62l.21-123.46c-10.12 15.08-20.03 30.5-29.97 45.72-8.17.05-18.75.4-26.71-.31 3.07-.26 5.3-.21 8.12-1.46 1.06-8.86.57-29.62.58-39.37-.95-19.75.87-41.11-.19-60.48-5.11-3.59-21.77-17.34-25.87-18.92-1.013-18.14-.292-44.61-.285-63.45 9.325-.03 18.645 0 27.965.07h25.39c.06 13.11.11 26.49-.03 39.58 1.06 4.54.62 21.23.33 26.54l51.78.27-.63-66.4 31.37.08 27.17-.04c1.53 11.71.5 52.5.48 66.15l24.47-.01c16.33-15.06 39.25-40.71 54.86-57.34l.01-130.39z"/><path fill="#d7dadd" d="m1271.27 1436.59 34.33-29.18c-.33 65.71-.13 131.41.61 197.12-26.8 27.3-53.42 54.78-79.86 82.43L1105.2 1811.8c-1.42-2.37-2.71-29.97-3.29-35.24 13.43-16.22 38.26-40.02 53.58-56.11 38.06-39.97 77.6-79.07 115.52-119.23z"/><path fill="#d7dadd" d="M995.835 1586.69c9.325-.03 18.645 0 27.965.07h25.39c.06 13.11.11 26.49-.03 39.58-.79 4.27-.29 17.48-.2 22.43-8.21 6.81-17.16 14.9-25.43 22-1.33 13.61.67 49.53-1.35 58.77-.95-19.75.87-41.11-.19-60.48-5.11-3.59-21.77-17.34-25.87-18.92-1.013-18.14-.292-44.61-.285-63.45"/><path fill="#8e969c" d="M995.835 1586.69c9.325-.03 18.645 0 27.965.07l-.03 3.69c-2.86 14.88.23 57.16-1.02 74.06-.19 2.6.04 1.92-.76 4.55-5.11-3.59-21.77-17.34-25.87-18.92-1.013-18.14-.292-44.61-.285-63.45"/><path fill="#a4a9b1" d="M1021.99 1669.06c.8-2.63.57-1.95.76-4.55 1.25-16.9-1.84-59.18 1.02-74.06.93 21.15.29 58.52-.24 80.32-1.33 13.61.67 49.53-1.35 58.77-.95-19.75.87-41.11-.19-60.48"/><path fill="#d7dadd" d="m1132.01 1586.83 27.17-.04c-1.39 14.75-.41 50.7-.4 66.87-8.94 6.52-17.99 12.51-26.79 19.26z"/><path fill="#d7dadd" d="m750.477 1400.39 64.411 67.26.088 128.47 51.696 55.67c5.431-.89 17.005-.52 22.968-.5.783-20.5.222-43.92.216-64.61 9.391-.05 47.983-.92 54.666.09.118 22.04.423 44.43.282 66.44 7.253.02 47.425.95 50.828-1.42l.488-1.65c4.1 1.58 20.76 15.33 25.87 18.92 1.06 19.37-.76 40.73.19 60.48-.01 9.75.48 30.51-.58 39.37-2.82 1.25-5.05 1.2-8.12 1.46-10.01-14.41-20.495-29.14-30.172-43.73l.496 123.36c-11.141-10.92-25.879-25.99-36.281-37.85-23.899-26.27-53.831-55.65-78.929-81.74L750.89 1605.98l-.205-175.09a985 985 0 0 0-.208-30.5"/><path fill="#8e969c" d="M750.685 1430.89a1873 1873 0 0 1 32.529 38.29c-.193 41.49-.162 82.99.094 124.48a7809 7809 0 0 0 117.017 123.11c15.27 16.02 32.949 33.32 47.546 49.51l-.348 45.87c-23.899-26.27-53.831-55.65-78.929-81.74L750.89 1605.98z"/><path fill="#8e969c" d="M889.856 1586.68c9.391-.05 47.983-.92 54.666.09-7.022.82-15.055.49-22.188.45l-.01 86.06c-9.932-6.72-20.514-14.73-30.613-21.75-6.975.04-18.18 1.98-25.039.26 5.431-.89 17.005-.52 22.968-.5.783-20.5.222-43.92.216-64.61"/><path fill="#c8cbd2" d="M1382.23 212.201c5.09 2.825 11.47 5.847 16.17 8.999l-.71 2.812c-2.52-1.545-2.49-1.75-5.41-.999-2.08-2.806-7.3-7.833-10.05-10.812"/><path fill="#d69057" d="M1032.27 1809.41c1.98 1.46 2.21.98 2.31 3.16.71 16.6.52 34.86.63 51.42l-.08 1.18c-.96 15.18-.77 46.3-.09 61.71l-.71-.15c-3.95-13.35.82-30.86-2.43-44.29-.59 15.52-.21 32.14-.12 47.76l-11.79-10.75a5736 5736 0 0 1-.08-68.16c.01-11.43.41-28.45-.77-39.45l.38-.94c2.45-1.74 9.33-1.39 12.75-1.49"/><path fill="#222c3a" d="M1032.27 1809.41c1.98 1.46 2.21.98 2.31 3.16.71 16.6.52 34.86.63 51.42l-.08 1.18c-.96 15.18-.77 46.3-.09 61.71l-.71-.15c-3.95-13.35.82-30.86-2.43-44.29-.68-7.67-.67-66.04.37-73.03"/></svg>