<svg xmlns="http://www.w3.org/2000/svg" width="2048" height="2048" viewBox="0 0 2048 2048"><path fill="#131b26" d="M0 0h2048v2048H0z"/><path fill="#d6dae2" d="m1356.79 1345.09.74.79c-.37 5.14-9.25 29.56-11.5 35.97-23.88 68.35-66.04 130.97-118.07 180.97-117.7 113.13-288.746 178.55-451.303 141.23-85.782-19.7-143.145-54.24-204.452-116.43-21.027-22.09-32.648-42.67-48.271-68.59 27.671 14.66 49.158 27.31 78.721 39.37 111.456 45.48 246.459 58.05 362.053 21.32A461.9 461.9 0 0 0 1081.01 1523c60.88-40.61 108.86-102.63 176.67-135.53 32.5-15.77 65.79-28.53 99.11-42.38"/><path fill="#d6dae2" d="M1420.71 812.313c16.43 9.884 35.8 26.284 50.85 38.391 233.78 188.066 274.01 618.446-17.99 775.286-34.8 18.16-51.29 22.82-88.06 33.52 104.66-101.35 174.75-236.47 176.49-385 .6-51.33-12.37-105.31-29.18-153.38-11.11-31.75-26.68-60.83-42.77-90.2-42.03-80.297-56.57-128.125-49.34-218.617"/><path fill="#d6dae2" d="M464.101 537.644c54.444-71.498 135.656-132.657 224.252-152.605C580.335 486.967 507.538 617.35 502.292 768.104c-2.757 79.204 26.516 160.258 65.347 228.07 47.149 82.336 68.859 137.206 63.871 233.686-117.362-73.21-201.07-189.81-232.917-324.418-27.245-116.011-15.772-233.665 44.489-337.436-.604-3.556.848-3.942-.122-6.431-.665-1.705-1.058-1.179-1.157-3.118l-.107-1.578a352 352 0 0 1 14.382-21.21c5.214 2.886 2.027 1.679 8.023 1.975"/><path fill="#0f1626" d="M456.078 535.669c5.214 2.886 2.027 1.679 8.023 1.975-8.072 11.055-13.4 18.878-21.019 30.362-.604-3.556.848-3.942-.122-6.431-.665-1.705-1.058-1.179-1.157-3.118l-.107-1.578a352 352 0 0 1 14.382-21.21"/><path fill="#d6dae2" d="M1157.39 334.406c8.05-.978 18.98-.817 27.18-.87 141.03-.905 286.55 71.783 354.16 199.185-52.95-34.739-114.36-59.614-175.44-74.479-139.79-34.019-260.84-18.071-383.734 54.751-15.158 9.966-37.631 24.673-51.478 36.188-23.926 19.898-45.981 42.085-70.813 61.386-49.129 38.186-109.147 62.685-167.502 83.211 16.332-61.073 54.096-128.286 95.755-175.413 98.726-111.684 224.742-172.719 371.872-183.959"/><path fill="#d6dae2" d="M1476.82 1099.79c4.56 4.88 15.1 36.89 17.9 44.79 26.58 74.93 29.54 142.84 12.43 220.27-30.86 137.81-114.51 258.03-232.99 334.88a395.05 395.05 0 0 1-296.545 53.11c-22.849-4.78-33.857-8.47-54.756-18.71a734 734 0 0 0 48.497-7.5c186.694-37.23 339.674-170.61 401.974-350.49 13.52-39.78 20.21-77.49 30.5-117.72 14.7-57.54 39.83-109.61 72.99-158.63"/><path fill="#d6dae2" d="M969.161 284.426c49.469-2.413 114.329 6.498 159.149 28.101-33.92 3.101-87.42 15.734-119.85 27.123-154.373 54.208-285.17 173.541-337.18 330.672-9.765 29.5-14.126 57.359-21.256 86.946-10.191 42.288-20.891 75.465-40.096 114.248-12.281 25.204-26.592 51.426-40.029 76.078-136.131-245.532 67.673-577.554 316.754-649.806 27.647-8.019 53.952-11.401 82.508-13.362"/><defs><linearGradient id="a" x1="1765.251" x2="969.67" y1="767.542" y2="480.055" gradientUnits="userSpaceOnUse"><stop offset="0" stop-color="#bfc5cf"/><stop offset="1" stop-color="#f0f2f6"/></linearGradient></defs><path fill="url(#a)" d="M1211.28 465.43a433.4 433.4 0 0 1 67.22 2.185c134.66 14.687 283.45 83.697 369.21 190.741 54.14 67.582 84.59 152.035 74.96 239.116-33.74-63.101-71.35-114.214-125.51-162.119-13.5-12.997-34.23-28.395-49.3-39.509-87.2-64.32-192.99-103.398-301.66-105.894-46.16-1.06-93.29 7.17-139.48 9.484-61.29 3.07-116.378-7.922-175.597-20.904 85.127-71.335 168.477-106.583 280.157-113.1"/><path fill="#d6dae2" d="M339.13 1170.82c3.539 4.11 16.166 25.07 20.608 31.43a662 662 0 0 0 51.03 63.09c115.267 124.33 280.253 205.82 452.446 188.76 22.242-2.2 44.325-7.25 66.589-9.12 61.057-5.15 121.637 6.47 178.367 28.84-18.93 15.71-34.8 26.4-55.59 39.26-209.083 129.34-510.011 54.9-653.845-139.54-34.687-46.89-58.001-108.8-60.555-167.01-.462-10.52-.775-25.39.95-35.71"/><path fill="#d6dae2" d="M363.581 744.702c1.236 7.488-1.678 35.748-1.569 45.979a577.4 577.4 0 0 0 15.579 124.823c34.966 141.326 116.883 251.966 238.211 330.846 23.655 15.38 49.613 29.39 72.96 44.53 52.744 34.18 106.678 88.08 137.911 142.93-18.426.28-40.636-.8-58.911-3.42-219.014-21.02-441.786-226.38-468.894-447.128-9.68-78.825 14.63-176.464 64.713-238.56"/><path fill="#d6dae2" d="M1226.89 613.144c15.36-.606 31.18.895 46.48 2.462a517.4 517.4 0 0 1 188.65 55.611 548.28 548.28 0 0 1 272.37 322.673 364.64 364.64 0 0 1-26.68 284.11c-8.12 13.64-17.2 29.22-27.11 41.56 3.39-31.32 4.21-62.87 2.45-94.34-10.1-158.58-88.4-317.753-219.14-411.002-21.15-15.08-45.96-33.409-68.56-45.254-53.02-27.785-99.83-64.488-135.41-113.026-10.05-13.71-24.37-28.29-33.05-42.794"/><path fill="#f4a059" d="M320.322 1153.74c5.022 5.25 6.357 59.18 9.097 72.46 6.285 30.48 12.583 58.43 25.007 87.27a401.3 401.3 0 0 0 82.479 121.42c7.306 7.26 35.064 31.21 38.3 35.36l-1.782-.17A338.4 338.4 0 0 1 363.11 1359.2c-36.376-58.69-58.764-137.09-42.788-205.46"/><path fill="#f4a059" d="M493.75 1508.68c10.168 9.15 17.323 17.83 25.475 28.75 49.742 66.68 111.313 122.8 188.636 156.1-2.551 2.43-4.143 2.53-7.532 3.45-92.081-35.18-165.566-97.78-206.579-188.3"/><defs><linearGradient id="b" x1="278.546" x2="337.35" y1="864.378" y2="893.563" gradientUnits="userSpaceOnUse"><stop offset="0" stop-color="#f39d50"/><stop offset="1" stop-color="#f9b284"/></linearGradient></defs><path fill="url(#b)" d="M331.103 759.913c1.667 2.508 2.201 2.961 4.64 4.681-37.676 73.61-55.657 147.536-44.339 230.494-8.513-1.473-8.211.384-14.508-4.222-10.877-79.913 12.277-162.941 54.207-230.953"/><path fill="#f4a059" d="M507.892 466.849c2.348 13.254-15.285 13.623-15.304 23.107-10.57 11.931-27.874 32.241-36.51 45.713a352 352 0 0 0-14.382 21.21c-14.654 21.835-31.654 54.194-41.236 78.682-11.008 28.131-11.014 38.564-27.742 64.737 19.915-97.747 59.315-167.196 135.174-233.449"/><path fill="#f4a059" d="M1395.57 801.848c1.46 2.571 2.95 5.081 4.25 7.741 5.31 10.16 3.55 27.964 4.95 39.651 3.84 32.259 7.81 62.596 17.51 93.701 1.39 6.063 4.12 14.137 6.33 19.942-5.23-.543-9.71-1.003-14.94-1.822-2.65-8.382-5.83-14.385-8.09-23.809-10.92-31.785-11.8-78.809-10.26-111.885.46-9.014.53-14.484.25-23.519"/><path fill="#f6ba8e" d="M1405.58 937.252c-.43-.211 1.95 1.09 1.7.844 1.97 1.949 6.51 17.061 6.84 19.107l.14.122.15-.016c.64-1.461-.66-3.449.72-5.12 1.18-1.435 3.91-1.263 4.7-2.14-.22-.98-.51-1.782 0-2.705l.12-.066.23.159c.75-1.483 1.37-2.999 2.1-4.496 1.39 6.063 4.12 14.137 6.33 19.942-5.23-.543-9.71-1.003-14.94-1.822-2.65-8.382-5.83-14.385-8.09-23.809"/><path fill="#eb934f" d="M1395.57 801.848c1.46 2.571 2.95 5.081 4.25 7.741-3.39 7.826.45 11.366-4.5 15.778.46-9.014.53-14.484.25-23.519"/><path fill="#f4a059" d="M1376.75 1284.69c13.45-56.82 45.66-144.9 83.61-190.4-5.61 23.76-15.33 33.97-25.57 55.03-16.86 34.7-30.21 71.75-42.64 108.24-4.13 12.19-6.77 22.47-12.14 34.28-.77-2.84-1.98-4.27-3.26-7.15"/><path fill="#f4a059" d="M276.896 990.866c6.297 4.606 5.995 2.749 14.508 4.222 2.916 21.782 7.35 43.982 13.812 65.002 6.962 22.64 15.768 43.92 20.288 67.33-2.678-3.12-8.17-12.76-10.235-16.51-19.524-35.44-32.364-79.98-38.373-120.044"/><path fill="#f4a059" d="M1413.67 961.061c5.23.819 9.71 1.279 14.94 1.822 2.35 5.888 4.52 12.36 7.02 18.078.29.957.57 1.917.85 2.879 2.57 4.058 5.17 12.48 7.61 17.15 12.38 23.68 18.63 38.53 25.34 64.32-17.81-27.56-35.47-54.89-47.98-85.512-.1-.247-.21-.494-.31-.742a185 185 0 0 1-5.46-13.206c-.74-1.568-1.29-3.209-2.01-4.789"/><path fill="#eb934f" d="M1413.67 961.061c5.23.819 9.71 1.279 14.94 1.822 2.35 5.888 4.52 12.36 7.02 18.078-9.92-4.474-14.05-15.964-19.95-15.111-.74-1.568-1.29-3.209-2.01-4.789"/><path fill="#eb934f" d="M1085.65 1773.86c-7.39-.72-30.11 1-40.91.99-36.37 0-126.567-14.46-155.013-34.57 16.583 3.12 37.156 10.53 53.777 14.88 35.025 9.18 110.686 21.85 145.956 16.7-1.39.47-2.52 1.24-3.81 2"/><path fill="#f4a059" d="M1275.9 707.433c4.11.954 8.45.667 12.21 2.381 2.29 1.043 8.19 2.681 10.5 2.671 3.31 2.221 8.1 6.926 11.1 9.811 13.17 12.692 28.99 22.035 43.1 33.397-2.81 3.221-2.23 1.517-6.69 1.831-23.39-13.413-51.07-30.868-70.22-50.091"/><path fill="#f4a059" d="M1206.57 618.287c19.12 13.676 40.53 39.187 56.08 57.564-2.46 1.111-9.99 1.872-14.51 3.367-16.61-20.317-28.01-38.662-41.57-60.931"/><path fill="#f6ba8e" d="M1262.65 675.851c6.07 6.674 14.65 15.261 20.2 22.031.57.518 1.13 1.037 1.7 1.555 1.23.915 2.21 1.725 3.39 2.703 3.53 3.971 7.11 6.331 10.67 10.345-2.31.01-8.21-1.628-10.5-2.671-3.76-1.714-8.1-1.427-12.21-2.381-2.22-1.746-3.22-3.006-5.12-5.12-2.19-1.436-4.01-3.515-5.87-5.395-1.72-1.736-3.4-3.515-5.03-5.334-3.4-2.813-8.73-8.887-11.74-12.366 4.52-1.495 12.05-2.256 14.51-3.367"/><path fill="#eb934f" d="M1262.65 675.851c6.07 6.674 14.65 15.261 20.2 22.031-6.3-1.658-7.98-4.953-12.8-5.623l-1.04-.138c-3.03-.423-6.08-.342-9.13-.537-3.4-2.813-8.73-8.887-11.74-12.366 4.52-1.495 12.05-2.256 14.51-3.367"/><path fill="#eb934f" d="M707.861 1693.53c33.391 12.07 85.233 28.29 120.208 29.39-32.151 3.33-96.8-13.93-127.74-25.94 3.389-.92 4.981-1.02 7.532-3.45"/><path fill="#cf7d42" d="M507.892 466.849c28.316-23.838 56.407-40.411 88.669-58.057 9.405-5.144 21.847-8.406 29.625-14.574l.554.584c-2.76 3.357-20.252 11.521-24.989 13.877-42.46 21.118-75.396 48.659-109.163 81.277.019-9.484 17.652-9.853 15.304-23.107"/><path fill="#eb934f" d="M355.388 727.999c-7.94 13.965-12.422 22.756-19.645 36.595-2.439-1.72-2.973-2.173-4.64-4.681l.493-.714c2.441-3.593 4.434-6.915 7.052-10.518a222 222 0 0 1 16.74-20.682"/><path fill="#eb934f" d="M1352.81 755.693c2.1 1.132 2.83 1.671 4.81 3.047l26.34 18.119c-11.62-4.995-27.11-12.62-37.84-19.335 4.46-.314 3.88 1.39 6.69-1.831"/><path fill="#eb934f" d="M1376.75 1284.69c1.28 2.88 2.49 4.31 3.26 7.15-2.41 3.71-4.75 7.81-7.07 11.62 1.23-6.26 2.65-12.49 3.81-18.77"/><path fill="#503028" d="M1089.46 1771.86c2.91-.86 3.42-.98 6.63-1.08l.89.92.54-.36c-1.51 2.26-9.41 2.46-11.87 2.52 1.29-.76 2.42-1.53 3.81-2"/></svg>