<svg xmlns="http://www.w3.org/2000/svg" width="2048" height="2048" viewBox="0 0 2048 2048"><path fill="#24252a" d="M0 0h2048v2048H0z"/><path fill="#010201" d="M604.634 448.643c8.094-44.875 11.064-93.359 16.435-138.76 2.482-20.983 3.104-44.18 7.945-64.695.821-3.481 7.088-12.241 9.295-14.379 15.539-15.059 95.457-102.563 106.933-108.742a39.4 39.4 0 0 1 20.526-4.754c12.84.505 31.756 7.49 44.627 10.816 17.537 4.664 35.314 8.799 52.643 14.206 12.808 3.997 22.218 10.585 28.328 22.687 8.78-2.487 15.523 13.771 17.43 19.998l19.49 62.964c.335 1.102.746 2.138 1.151 3.214 19.252-18.155 44.585-41.701 66.189-56.749 18.444-12.85 66.754 13.213 86.624 19.728 18.44 6.045 39.76 13.061 49.07 31.072 4.62.726 8.03 3.224 10.84 6.956 7.85 10.435 21.21 72.748 25.89 90.215 14.64-14.495 37.76-45.234 59.24-42.672 32.51 3.879 68.54 17.988 99.47 29.225 6.35 2.306 15.77 13.494 17.73 20.137 2.58-.5 3.94.2 6.07 1.749 12.1 8.807 24.29 84.236 29.91 103.123 13.51-15.494 24.55-32.003 46.72-32.587 3.03-.08 10.43.093 13.81 1.48 25.61 10.488 55.43 22.306 79 36.44 2.04 1.226 7.24 9.055 8.44 10.892 5.64 2.23 13.61 7.464 15.21 14.02 8.58 35.007 16.72 80.451 22.29 115.332 1.82 11.423-23.67 54.336-30.93 66.31 5.97 58.375 14.14 120.529 21.33 178.908a4319 4319 0 0 0 5.44 43.906c.85 6.244 5.21 33.288 4.19 37.406-5.27 21.264-32.96 58.303-44.51 75.851l-70.15 107.05-73.28 112.37c-12.3 18.82-28.22 44.59-41.27 62.11l21.66 385.28 5.29 92.81c.83 14.51 2.28 29.96 1.94 44.39-.36 15.38-13.1 27.81-26.25 33.91-18.03 8.37-36.3 15.96-54.58 23.65l-85.58 36.13-90.36 38.21c-19.26 8.2-38.54 16.6-58.05 24.15-10.15 3.93-20.85 5.32-31.31 1.75-2.91-1.31-3.94-1.82-6.42-3.72-6.98-.48-39.927-15.59-48.212-19.15l-112.754-48.51-97.352-41.59c-20.077-8.43-40.208-16.73-60.113-25.57-12.42-5.51-22.163-21.58-21.057-35.12 1.84-22.53 4.533-45.14 6.787-67.67l13.215-138.23 19.254-208.07c2.973-32.58 5.171-70.21 9.404-102.05-17.606-19.49-40.511-48.41-57.647-69.02L558.67 1078.11l-69.419-82.631c-14.061-16.614-29.34-33.486-42.021-51.172-3.413-4.76-7.08-18.666-6.268-24.28 2.754-19.049 5.976-38.173 9.018-57.218l19.528-124.059 21.079-138.272c3.624-24.725 5.91-50.503 11.159-74.866 1.289-5.98 2.604-12.61 6.52-17.456 13.784-17.058 74.538-45.562 96.368-59.513"/><path fill="#d17d3b" d="M1528.44 470.207c5.64 2.23 13.61 7.464 15.21 14.02 8.58 35.007 16.72 80.451 22.29 115.332 1.82 11.423-23.67 54.336-30.93 66.31 5.97 58.375 14.14 120.529 21.33 178.908a4319 4319 0 0 0 5.44 43.906c.85 6.244 5.21 33.288 4.19 37.406-5.27 21.264-32.96 58.303-44.51 75.851l-70.15 107.05-73.28 112.37c-12.3 18.82-28.22 44.59-41.27 62.11l21.66 385.28 5.29 92.81c.83 14.51 2.28 29.96 1.94 44.39-.36 15.38-13.1 27.81-26.25 33.91-18.03 8.37-36.3 15.96-54.58 23.65l-85.58 36.13-90.36 38.21c-19.26 8.2-38.54 16.6-58.05 24.15-10.15 3.93-20.85 5.32-31.31 1.75l.46-2.94c19.4-.81 44.4-13.62 62.67-21.36l81.1-34.32 106.2-44.88c20.36-8.59 40.7-17.15 61-25.95 11.93-5.17 24.59-16.4 24.89-30.37.37-17.86-1.29-36.66-2.29-54.56l-5.84-104.91-21.1-363.29c20.21-28.29 42.76-64.79 61.89-94.26l91.15-139.41 49.56-75.556c6.84-10.502 19.95-29.655 24.72-40.245l.8-1.802c3.13-6.914-1.2-27.133-2.31-35.393a4138 4138 0 0 1-6.18-49.624l-21.43-180.415c7.42-13.05 24.24-41.276 29.04-55.136 6.06-17.502-10.8-69.41-12.6-89.715-1.23-13.818-7.73-38.094-12.81-49.407"/><path fill="#d17d3b" d="M1344.49 349.11c2.58-.5 3.94.2 6.07 1.749 12.1 8.807 24.29 84.236 29.91 103.123l-7.64 9.299c-6.96-23.178-11.76-47.756-17.2-71.326-3.41-14.754-5.89-28.561-11.14-42.845"/><path fill="#d17d3b" d="M1131.32 245.249c4.62.726 8.03 3.224 10.84 6.956 7.85 10.435 21.21 72.748 25.89 90.215-2.25 2.861-5.16 5.977-7.61 8.73-6.32-21.099-11.14-42.655-16.66-63.97-3.69-14.265-6.57-28.373-12.46-41.931"/><path fill="#d17d3b" d="M891.366 165.022c8.78-2.487 15.523 13.771 17.43 19.998l19.49 62.964c.335 1.102.746 2.138 1.151 3.214-2.589 2.61-5.143 4.961-7.866 7.437l-21.115-67c-2.719-8.499-5.4-18.606-9.09-26.613"/><path fill="#b77651" d="M1013.1 1960.03c2.29.25 4.59.51 6.88.78l-.46 2.94c-2.91-1.31-3.94-1.82-6.42-3.72"/><path fill="#d0d0d3" d="M683.968 892.54c28.785-27.134 60.009-54.863 89.502-81.307 27.852 14.525 65.86 36.46 92.814 52.733 10.997 39.853 23.149 85.412 35.383 124.688a11616 11616 0 0 1 98.473 71.426c19.26 14.04 44.65 33.2 64.48 45.53-4.56 24.08-8.82 48.22-12.77 72.41-1.46 8.48-5.39 34.32-8.15 40.55-6.25 14.07-16.51 32.53-23.94 46.5l-182.891.25c-14.776-.81-34.419-.31-49.566-.38L505.421 926.502c46.228-1.987 106.963-7.322 153.672-11.836 7.47-6.765 17.134-16.287 24.875-22.126"/><path fill="#9fa0a7" d="M683.968 892.54c28.785-27.134 60.009-54.863 89.502-81.307 27.852 14.525 65.86 36.46 92.814 52.733 10.997 39.853 23.149 85.412 35.383 124.688a11616 11616 0 0 1 98.473 71.426c19.26 14.04 44.65 33.2 64.48 45.53-4.56 24.08-8.82 48.22-12.77 72.41-1.46 8.48-5.39 34.32-8.15 40.55-6.25 14.07-16.51 32.53-23.94 46.5l-182.891.25c24.856-25.74 47.305-58.67 71.321-85.58 11.204-12.55 23.226-27.12 33.68-40.33-28.544-39.96-57.462-83.29-85.316-123.96a13380 13380 0 0 1-107.325-158.423c-20.527 10.25-46.709 27.057-65.261 35.513"/><path fill="#d0d0d3" d="M768.342 1355.11c44.9 16.92 89.913 33.52 135.038 49.83 13.157 5.12 26.294 9.89 39.46 14.9-8.661 144.94-11.763 292.26-19.874 437.33-11.989-4.97-24.008-10.12-36.221-14.48l-159.458-64.85c11.988-140.19 30.352-282.44 41.055-422.73"/><path fill="#9fa0a7" d="M903.38 1404.94c13.157 5.12 26.294 9.89 39.46 14.9-8.661 144.94-11.763 292.26-19.874 437.33-11.989-4.97-24.008-10.12-36.221-14.48 4.475-91.09 7.655-183.9 10.678-275.14a7982 7982 0 0 1 5.957-162.61"/><path fill="#9fa0a7" d="M1371.22 930.961a6219 6219 0 0 1 107.05-185.003c3.36 16.308 5.91 34.242 8.16 50.781 5.02 36.953 12.13 74.413 16.24 111.427l-156.36 239.084-49.28 75.1c-6.5 9.82-19.98 28.72-25.31 38.37l-77.63 1.37-59.36 1c-9.08-12.79-19.72-30.58-28.37-44.1 2.41-33.63 5.01-72.6 5.9-106.18 34.87-28.2 70-58.67 105.44-85.87 19.45-14.13 39.04-28.08 58.75-41.843 14.98-10.515 28.67-20.963 45.16-29.066 16.61-8.169 32.9-17.034 49.61-25.07"/><path fill="#d0d0d3" d="M1217.7 1026.94c2.4 6.93 1.11 69.11 1.07 79.41l-.08 116.38c-6.89 11.1-17.35 29.24-24.6 39.36l-59.36 1c-9.08-12.79-19.72-30.58-28.37-44.1 2.41-33.63 5.01-72.6 5.9-106.18 34.87-28.2 70-58.67 105.44-85.87"/><path fill="#d0d0d3" d="M1137.77 439.702c34.33.765 69.23 3.604 103.89 4.459l7.54 8.937c14.98 17.475 43.09 54.827 57.47 68.993l-141.58 321.265c-21.47-5.192-46.29-11.451-67.89-15.644-9.54-2.049-19.06-4.149-28.57-6.302-10.19-18.995-22-38.925-32.77-57.71 15.62-47.32 29.99-96.675 45.08-144.32a9819 9819 0 0 0 56.83-179.678"/><path fill="#9fa0a7" d="M1249.2 453.098c14.98 17.475 43.09 54.827 57.47 68.993l-141.58 321.265c-21.47-5.192-46.29-11.451-67.89-15.644 3.8-4.296 23.59-51.624 26.81-59.15a5042 5042 0 0 0 125.19-315.464"/><path fill="#d0d0d3" d="M643.218 494.281c21.036 5.408 46.836 13.817 68.087 20.13l140.698 41.997 98.294 29.197c14.016 4.159 37.812 10.414 50.823 15.447 3.63.947 7.64 1.51 10.2 4.054-1.72 6.79-66.987 96.879-77.279 111.677a7321 7321 0 0 0-114.503 13.351c-18.154 2.252-42.454 4.698-60.179 7.808-25.298-27.952-49.699-58.971-74.687-86.198-24.499-45.936-46.908-96.342-70.677-143.019z"/><path fill="#9fa0a7" d="M1001.12 601.052c3.63.947 7.64 1.51 10.2 4.054-1.72 6.79-66.987 96.879-77.279 111.677a7321 7321 0 0 0-114.503 13.351c-18.154 2.252-42.454 4.698-60.179 7.808-25.298-27.952-49.699-58.971-74.687-86.198q45.768 1.4 91.498 3.704c16.093.864 41.624 3.086 56.844 2.261 14.547-.789 40.253-6.185 55.389-8.968l86.282-15.785a471 471 0 0 0 26.435-31.904"/><path fill="#d0d0d3" d="M552.92 541.558a2052 2052 0 0 0 50.493-27.649c9.067 16.343 18.64 37.179 26.88 54.201l40.811 83.358c14.961 27.395 32.261 61.725 48.125 87.899-19.723-7.993-40.933-17.048-60.84-24.198 14.66 22.091 19.973 25.695 40.595 42.426a1137 1137 0 0 1 38.201 31.77c-37.317 25.796-95.505 56.128-138.396 70.307l1.316 1.625q-1.57 1.044-3.128 2.11c-.929 11.544-5.81 33.926-8.196 45.753-27.43 3.43-65.834 7.877-93.129 9.488z"/><path fill="#9fa0a7" d="M671.104 651.468c14.961 27.395 32.261 61.725 48.125 87.899-19.723-7.993-40.933-17.048-60.84-24.198 14.66 22.091 19.973 25.695 40.595 42.426a1137 1137 0 0 1 38.201 31.77c-37.317 25.796-95.505 56.128-138.396 70.307l-.817-.228c1.593-5.132 3.049-16.187 4.18-21.991 4.079-20.921 7.345-46.108 12.419-66.334 1.343-5.354 14.87-32.352 18.017-38.917z"/><path fill="#504d53" d="m597.972 859.444.817.228 1.316 1.625q-1.57 1.044-3.128 2.11c-.377-.18-3.447-1.311-3.444-2.035.569-.881 3.342-1.55 4.439-1.928"/><path fill="#d0d0d3" d="m1347.86 545.239 89.59 13.163 44.45 76.069-94.52 164.067c-17.41 30.282-36 64.105-54.14 93.712-16.81-2.169-33.44-3.55-50.14-5.578a386 386 0 0 0-33.32-4.006c-7.57-16.132-14.73-34.174-21.65-50.713 12.18-26.812 24.58-59.219 36.03-86.882a16417 16417 0 0 1 83.7-199.832"/><path fill="#9fa0a7" d="m1437.45 558.402 44.45 76.069-94.52 164.067c-17.41 30.282-36 64.105-54.14 93.712-16.81-2.169-33.44-3.55-50.14-5.578 4.16-1.224 4.75-3.592 6.57-7.47 31.11-66.452 61.85-133.071 92.96-199.521l33.26-71.634c6.5-13.984 17.22-35.661 21.56-49.645"/><path fill="#9fa0a7" d="M1213.06 1396.16c19.92-9.74 43.53-20.82 62.78-31.45 10.99 138.18 15.24 280.3 24.89 419a5316 5316 0 0 1-89 38.77l-35.15 15.33c.86-62.41.24-125.8.19-188.28l.04-235.47z"/><path fill="#d0d0d3" d="m1176.81 1414.06 36.25-17.9-1.33 426.32-35.15 15.33c.86-62.41.24-125.8.19-188.28z"/><path fill="#d0d0d3" d="M1212.3 1320.25c13.69-8.01 44.53-21.91 59.53-29.01 1.21 21.43 3.03 42.82 3.95 64.32-20.75 9.48-41.65 20.45-62.36 30.48-14.04 7.62-31.05 15.34-45.64 22.61l-.02 292.6c.16 46.62.06 93.23-.29 139.85-17.67 9.65-59.73 26.92-79.39 35.04-.65-66.15.94-137.47 1.48-203.99l2.14-294.4c40.19-18.17 80.63-38.52 120.6-57.5"/><path fill="#9fa0a7" d="M1212.3 1320.25c13.69-8.01 44.53-21.91 59.53-29.01 1.21 21.43 3.03 42.82 3.95 64.32-20.75 9.48-41.65 20.45-62.36 30.48-.08-9.23 1.18-61.7-1.12-65.79"/><path fill="#9fa0a7" d="M898.019 1332.34c42.617 15.44 89.707 33.57 132.601 47.42l-11.72 516.54c-26.954-10.96-61.107-23.78-86.95-35.88 8.644-134.35 10.734-270.26 18.004-404.78.756-13.99 1.355-28.3 1.744-42.29-15.67-5.75-35.331-12.34-50.429-18.68.073-.06.164-.09.22-.17 2.546-3.31-3.064-53.32-3.47-62.16"/><path fill="#d0d0d3" d="M684.137 262.094c29.724-.532 65.069-5.777 96.509-6.652l10.914 7.822c27.741 18.755 57.136 41.161 84.988 58.904-18.422 56.929-39.315 116.407-58.97 173.06-14.489-4.986-54.179-19.627-67.364-22.52l-90.586-31.307a2280 2280 0 0 1 13.886-125.226c2.269-15.865 5.013-39.598 10.623-54.081"/><path fill="#9fa0a7" d="M791.56 263.264c27.741 18.755 57.136 41.161 84.988 58.904-18.422 56.929-39.315 116.407-58.97 173.06-14.489-4.986-54.179-19.627-67.364-22.52 2.075-2.547 7.812-39.979 8.891-45.862a3167 3167 0 0 1 18.008-91.69c4.762-22.576 11.035-49.307 14.447-71.892"/><path fill="#d0d0d3" d="m914.343 335.207 104.817.526 8.57 8.002c24.32 20.787 49.38 43.229 73.99 63.33-19.56 51.158-45.14 107.661-66.6 158.872-24.68-8.044-49.974-16-74.493-24.371l-80.047-25.575c9.531-57.98 21.391-123.592 33.763-180.784"/><path fill="#9fa0a7" d="M1027.73 343.735c24.32 20.787 49.38 43.229 73.99 63.33-19.56 51.158-45.14 107.661-66.6 158.872-24.68-8.044-49.974-16-74.493-24.371 5.797-13.276 12.015-32.935 16.811-47.14q15-44.086 29.392-88.373c6.1-18.941 13.57-44.477 20.9-62.318"/><path fill="#d0d0d3" d="M914.855 825.315c20.053 5.466 43.822 10.264 63.922 14.77 27.473 6.157 34.773 9.785 57.363 27.234 6.4 4.943 28.97 10.493 37.9 12.988l74.43 22.302c18.44 5.519 37.34 9.719 53.85 19.733 9.85 5.977 20.31 11.402 30.05 17.526l-84.25 65.422c-14.2 10.95-33.51 24.78-46.47 36.02-2.92-1.77-23-13.89-24.85-15.53-37.57-22.06-76.827-48.975-114.276-69.812l-31.413-85.59c-5.239-14.473-10.463-31.185-16.256-45.063"/><path fill="#9fa0a7" d="m1074.04 880.307 74.43 22.302c18.44 5.519 37.34 9.719 53.85 19.733 9.85 5.977 20.31 11.402 30.05 17.526l-84.25 65.422c-14.2 10.95-33.51 24.78-46.47 36.02-2.92-1.77-23-13.89-24.85-15.53 2.05-4.55-10.55-91.797-11.46-104.269-1.92-26.481-2.14-16.307 8.7-41.204"/><path fill="#d0d0d3" d="M773.745 1289.38c14.313 3.43 34.48 11.24 48.649 16.28l75.625 26.68c.406 8.84 6.016 58.85 3.47 62.16-.056.08-.147.11-.22.17a12998 12998 0 0 0-132.581-48.7c.976-17.83 3.407-38.59 5.057-56.59"/><path fill="#d0d0d3" d="M1017.84 244.269c16.67 5.994 36.24 11.724 53.3 17.165-13.25 22.641-27.61 51.384-41.96 72.303l-7.57-6.339a6659 6659 0 0 0-105.101-.084c28.85-26.124 70.295-57.948 101.331-83.045"/><path fill="#d0d0d3" d="M1231.73 352.924c15.59 5.266 32.92 10.012 48.82 14.678.54 6.437-23.53 65.072-27.58 76.276l-7.42-7.928c-32.5-.023-70.92-2.899-104.17-4.067 28.74-26.182 60.77-53.755 90.35-78.959"/><path fill="#d0d0d3" d="M771.588 167.726c19.283 4.751 37.774 10.948 56.963 15.65-1.396 5.744-35.66 65.482-38.853 68.588-1.527-1.074-5.287-3.752-6.858-3.729-29.396.438-68.749 4.677-97.382 6.83 7.744-9.126 21.907-22.802 30.708-31.668z"/><path fill="#9fa0a7" d="M1071.14 261.434c4.85 1.536 9.77 3.153 14.62 4.617 9.2 34.402 19.28 78.709 29.61 111.779-3.1 7.347-5.88 13.776-9.41 20.914l-76.78-65.007c14.35-20.919 28.71-49.662 41.96-72.303"/><path fill="#9fa0a7" d="M828.551 183.376c4.995 1.334 8.69 2.265 13.536 4.226a4692 4692 0 0 1 41.76 115.675l-4.118 11.169-90.031-62.482c3.193-3.106 37.457-62.844 38.853-68.588"/><path fill="#9fa0a7" d="M1280.55 367.602c5.58 1.598 11.47 3.177 16.99 4.873 11.29 39.181 20.07 79.465 31.13 118.193-3.6 7.192-6.61 13.161-10.76 20.024-20.94-21.263-44.96-44.924-64.94-66.814 4.05-11.204 28.12-69.839 27.58-76.276"/><path fill="#9fa0a7" d="M1468.03 490.06q9.495 4.59 18.9 9.368a9145 9145 0 0 1 17.67 94.339 346 346 0 0 0-15.54 31.221c-5.42-8.163-46.52-73.671-48.1-74.653 8.6-15.215 19.55-43.359 27.07-60.275"/><path fill="#d0d0d3" d="M1352.98 537.604c27.85-20.302 55.45-42.525 82.92-63.553l32.13 16.009c-7.52 16.916-18.47 45.06-27.07 60.275-25.22-2.486-62.83-8.542-87.98-12.731"/><path fill="#9fa0a7" d="M600.105 861.297c31.339-5.623 73.84-16.373 102.975-29.443l-38.085 47.88c-5.816 7.332-13.547 17.815-19.474 24.458-18.948 1.009-37.858 3.072-56.74 4.968 2.386-11.827 7.267-34.209 8.196-45.753q1.557-1.066 3.128-2.11"/><path fill="#9fa0a7" d="M954.288 761.402c6.732-8.411 14.116-15.813 21.313-23.801 11.174-12.402 22.414-25.739 34.459-37.253-11.733 24.016-22.108 49.274-33.774 72.955-14.075.055-34.712.828-48.512-.41-6.1.607-19.381.226-25.954.195 4.399-1.621 6.34-2.581 11.275-2.857 2.435-.69 3.454-.878 5.893-1.387z"/><path fill="#868795" d="M901.82 773.088c4.399-1.621 6.34-2.581 11.275-2.857 6.132 4.031 10.17.576 14.679 2.662-6.1.607-19.381.226-25.954.195"/></svg>