<svg xmlns="http://www.w3.org/2000/svg" width="2048" height="2048" viewBox="0 0 2048 2048"><path fill="#282b32" d="M0 0h2048v2048H0z"/><path fill="#08020d" d="M911.055 456.394c22.974 1.235 50.442.739 73.651.743l108.854-.036c35.97-.147 76.41-1.641 111.6 4.948 100.94 18.901 196.31 81.42 255.18 164.722 61.95 87.63 86.95 196.114 69.58 302.017 8.28 4.741 16.4 9.751 24.34 15.023 83.43 56.084 145.82 139.959 164.39 239.559 16.44 88.21-3.83 180.88-53.8 254.94a363 363 0 0 1-229.11 152.79c-77.73 15.07-170.23 2.81-239.97-34.82-32.19-17.37-63.01-39.97-93.45-60.5-25.72-17.9-53.56-35.51-78.55-54.12-15.8 13.23-44.8 32.82-62.523 45.78-34.678 24.36-67.62 52.46-105.794 71.34-175 86.52-391.103 14.11-478.079-160.63a340.47 340.47 0 0 1-18.097-264.12c24.072-71.45 72.553-133.49 132.292-178.852 13.565-10.299 27.677-20.467 42.955-28.064-1.381-13.564-3.455-25.535-4.2-39.494a415.57 415.57 0 0 1 105.007-299.629 398.8 398.8 0 0 1 275.724-131.597"/><path fill="#e1e1e2" d="M789.512 1189.83a516.8 516.8 0 0 1-89.208-59.86 345.94 345.94 0 0 1-124.788-235.292 364.87 364.87 0 0 1 83.104-265.262c59.252-70.343 143.869-117.448 236.447-127.29 14.671-1.56 39.509-.658 54.778-.582l83.405.109c95.62-.016 165.35-8.558 253.72 34.977a352.3 352.3 0 0 1 75.86 49.583 360.7 360.7 0 0 1 127.46 247.094 356.75 356.75 0 0 1-87.11 260.813c-51.75 60.41-132.23 109.83-212.45 116.09-32.57-24.13-67.14-46.23-99.98-70.05-10.11-7.33-15.77-27.06-17.18-39.07-3.14-26.89 6.13-50.27 22.72-71.13 13.19 5.79 33.33 8.75 47.66 8.7 100.14-.35 170.69-86.179 170.02-182.7a185.77 185.77 0 0 0-56.79-133.073c-30.08-29.414-75.66-53.612-117.85-57.22-25.8-.333-53.12-1.532-78.85-.528-52.92 2.65-112.618-6.156-164.136 6.497-137.636 33.802-204.531 205.626-96.851 310.001l7.725 7.388c-19.305 69.415-23.473 140.735-.057 209.955-5.6-2.88-12.253-6.09-17.649-9.15"/><path fill="#ccc7cb" d="m799.493 981.637 7.725 7.388c-19.305 69.415-23.473 140.735-.057 209.955-5.6-2.88-12.253-6.09-17.649-9.15-1.831-21.35-4.839-42.59-5.878-64-2.381-49.06 5.043-96.55 15.859-144.193"/><path fill="#e1e1e2" d="M1525.69 976.597c55.33 31.463 111.28 99.103 135.29 157.793a283.24 283.24 0 0 1-1.51 220.66 275 275 0 0 1-147.94 146.08c-76.59 30.74-165.77 24.3-240.75-8.06a324 324 0 0 1-41.44-21.81c-13.94-8.72-24.39-18.35-37.54-27.53a7174 7174 0 0 0-90.69-61.92l-97.87-67.01c-24.888-17.09-50.871-33.61-72.703-54.4-30.512-29.06-54.654-62.94-70.527-101.94-27.966-68.7-26.464-138.22 3.517-205.959 30.407-68.704 86.022-126.703 157.083-153.626 61.75-23.391 128.77-26.311 190.13 1.006 12.98 5.775 40.26 20.116 51.59 30.315.47 1.26.95 2.519 1.42 3.779 9.63 26.324 5.17 62.387-6.8 87.187-4.17 8.647-14.69 27.328-21.71 33.22-2.32.251-1.49.402-3.61-.551-39.17-19.57-80.02-23.54-122.09-10.403-69.57 21.721-109.38 101.592-85.74 170.822a125.7 125.7 0 0 0 31.8 50.4c12.78 12.4 35.93 27.27 51.2 37.76l73.77 51.05 76.91 53.72c17.71 12.33 35.18 25.27 54.44 35.11 68.5 34.98 157.09 8.67 191.08-62.2a134.02 134.02 0 0 0 4.82-103.32c-10.4-29.28-27.68-49.24-50.59-69.52l-5.56-3.77c22.45-32.09 42.85-63.88 56.58-100.82 3.58-9.64 6.81-19.421 10.82-28.883 2.7-.503 3.48.873 6.62 2.82"/><path fill="#ccc7cb" d="M1451.67 1103.48c22.45-32.09 42.85-63.88 56.58-100.82 3.58-9.64 6.81-19.421 10.82-28.883 2.7-.503 3.48.873 6.62 2.82l-.4.876c-6.5 14.383-11.49 31.087-18.1 45.817-14.51 32.37-30.13 55.5-49.96 83.96z"/><path fill="#ccc7cb" d="M1263.75 833.975c9.63 26.324 5.17 62.387-6.8 87.187-4.17 8.647-14.69 27.328-21.71 33.22-2.32.251-1.49.402-3.61-.551 17.31-28.058 30.17-57.569 32.42-90.845.67-9.953-.83-19.5-.3-29.011"/><path fill="#e1e1e2" d="M542.92 972.217c.488-.381 1.325-1.241 2.094-1.077 1.095.232 17.459 41.9 19.558 47.22 13.109 25.66 31.034 60.13 49.402 82.74-4.02 3.1-9.589 7.16-13.274 10.41-24.675 22.32-41.927 50.13-47.753 83.19a136.28 136.28 0 0 0 22.777 102.75c36.997 52.15 110.929 74 169.256 46.91 18.626-8.65 31.246-17.96 47.789-29.73l44.761-31.98c26.367 36.76 66.8 73.18 104.595 98.09-23.695 17.17-50.282 35.94-73.303 53.62-17.118 14.67-31.988 29.23-51.956 40.47-137.968 77.64-313.77 52.73-398.138-89.66a277.64 277.64 0 0 1-29.932-210.74c21.667-83.11 80.101-158.99 154.124-202.213"/><path fill="#ccc7cb" d="M542.92 972.217c.488-.381 1.325-1.241 2.094-1.077 1.095.232 17.459 41.9 19.558 47.22 13.109 25.66 31.034 60.13 49.402 82.74-4.02 3.1-9.589 7.16-13.274 10.41-5.151-9.79-12.276-19.74-17.798-29.96-12.299-22.76-25.525-53.63-31.502-78.78-2.369-6.949-5.779-25.785-8.48-30.553"/><path fill="#c1bdc1" d="M542.92 972.217c.488-.381 1.325-1.241 2.094-1.077 1.095.232 17.459 41.9 19.558 47.22-4.353-3.34-10.925-17.77-11.041-22.13-2.105 1.599 1.803 5.92-2.131 6.54-2.369-6.949-5.779-25.785-8.48-30.553"/><path fill="#282b32" d="M1385.43 1171.74c2.78.63 9.8 4.38 12.5 5.95 20.76 11.92 36.42 29.16 42.5 52.68 9.79 37.81-14.26 75.84-52.26 84.23-25.07 5.53-46.33-1.68-67.39-14.75-25.36-17.03-51.16-35.42-76.35-52.88 59.61-17.2 92.74-36.76 141-75.23"/><path fill="#282b32" d="M679.974 1171.76c3.193.08 18.183 12.62 21.944 15.5 34.7 26.56 68.615 44.98 108.062 63.23-21.308 15.01-49.512 37.56-70.772 50.43-22.188 12.75-49.483 18.58-74.004 9.2a70.46 70.46 0 0 1-38.62-36.63 69.27 69.27 0 0 1-.636-53.71c10.448-26.25 29.805-37.42 54.026-48.02"/><path fill="#cd7832" d="M802.357 929.154c-19.06-24.04-26.618-52.151-24.607-82.663a151.48 151.48 0 0 1 52.848-104.905 179.55 179.55 0 0 1 73.708-38.194c24.015-5.83 43.16-4.523 67.625-4.722l64.259-.4c67.44-.317 132.68-8.189 186.56 41.082 4.72 4.315 8.3 7.931 12.46 12.795-32.54-17.359-67.38-31.776-104.71-31.009-7.15.147-14.36.087-21.51.117l-71.22.142q-36.421.086-72.848-.204c-19.533-.134-42.017-1.844-60.689 3.677-44.155 13.054-82.639 44.321-100.516 87.279-15.737 37.816-13.005 74.338 2.188 111.558-1.33 2.378-1.936 3.284-3.548 5.447"/><path fill="#cd7832" d="M1390.65 1551.22c-3.1 1.13-18.72.79-22.3.64-38.43-1.59-75.71-8.35-112.02-21.12-10.65-3.75-24.92-9.54-34.75-14.92-30.69-16.8-59.05-36.84-87.95-56.47l-91.86-62.3-65.781-44.98c-52.745-36.1-91.441-66.18-120.255-126.36 2.295 3.04 4.636 6.05 7.02 9.02a403.8 403.8 0 0 0 61.023 60.12c18.061 14.38 41.815 29.4 61.411 42.66 34.882 23.33 69.642 46.86 104.262 70.59 27.31 18.5 54.52 37.14 81.63 55.93 30.12 20.93 45.39 34.68 79.76 49.97a375.5 375.5 0 0 0 104.43 28.69c11.91 1.52 22.99 1.97 34.76 3.26 11.35-.83 24.67.8 37.35-.36 1.58.47 3.06.96 4.63 1.47-13.82 2.12-27.32 4.25-41.36 4.16"/><path fill="#c07036" d="M1390.03 1545.95c11.35-.83 24.67.8 37.35-.36 1.58.47 3.06.96 4.63 1.47-13.82 2.12-27.32 4.25-41.36 4.16 5.9-2.69 12.33-2.01 18.95-2.34-4.52-1.03-17.73-1.73-19.57-2.93"/><path fill="#e1e1e2" d="M830.787 826.369c20.938-29.78 45.54-51.416 82.175-57.439 26.964-4.434 51.202-.625 78.04-.861-70.306 35.558-106.248 65.403-148.361 134.016-6.54 10.661-16.307-32.669-16.789-36.582-1.728-14.028-.068-26.023 4.935-39.134"/><path fill="#ccc7cb" d="M830.787 826.369c1.55 16.146-2.591 31.525 2.349 48.116 2.984 10.02 4.576 18.131 9.505 27.6-6.54 10.661-16.307-32.669-16.789-36.582-1.728-14.028-.068-26.023 4.935-39.134"/><path fill="#cd7832" d="M968.201 1397.86c6.538 3.73 12.033 6.8 18.176 11.12q-46.033 33-91.582 66.66c-14.403 10.63-38.827 30.11-53.092 37.96-49.996 27.52-122.862 38.87-179.746 33.35 2.937-4.66 2.004-4.62 8.037-4.24 7.11.44 11.504.34 18.299-2.39 52.229-3.35 103.647-16.46 148.102-44.92 17.177-11 36.92-26.92 53.38-39.45a4182 4182 0 0 1 78.426-58.09"/><path fill="#cd7832" d="M1143.61 967.324c22.63-4.01 41.25 2.674 60.58 13.213-6.31 4.505-12.38 8.035-19.05 11.997-24.81-8.776-35.17-10.118-60.91-6.606-21.82 4.271-33.05 9.997-51.75 20.902q1.095-1.575 2.25-3.09c16.8-22.233 41.91-32.625 68.88-36.416"/><path fill="#cd7832" d="M630.397 1122.63c2.839 1.68 11.537 10.99 14.383 13.91-30.327 23.47-46.4 44.6-54.287 82.76-.619 4.28-1.565 8.73-2.384 12.99-11.714-45.2 8.985-80.89 42.288-109.66"/><path fill="#cd7832" d="M1434.71 1124.68c18.29 17.11 30.12 29.64 40.1 53.42 6.06 14.44 10.57 43.18 4.38 57.37l-.85-.33-.49-4.38c-.25-2.11-.55-4.23-.87-6.33-5.39-34.37-27.55-65.45-55.34-85.62 5.08-4.98 8.44-8.7 13.07-14.13"/><path fill="#c07036" d="M622.676 1539.71a566 566 0 0 0 65.617.61c-6.795 2.73-11.189 2.83-18.299 2.39-6.033-.38-5.1-.42-8.037 4.24-13.91-.37-28.029-4.39-41.61-5.76z"/><path fill="#c07036" d="M805.905 923.707c2.427 4.071 6.596 13.121 8.688 17.608-4.183-3.877-8.718-7.727-12.236-12.161 1.612-2.163 2.218-3.069 3.548-5.447"/><path fill="#41261e" d="M1427.38 1545.59c2.03-.35 7.18-1.23 8.94.14.01.17.01.35.02.52-1.81 1.12-2.14.88-4.33.81-1.57-.51-3.05-1-4.63-1.47"/><path fill="#41261e" d="M620.347 1541.19c-7.914-.06-4.051-3.24 2.329-1.48z"/></svg>