<svg xmlns="http://www.w3.org/2000/svg" width="2048" height="2048" viewBox="0 0 2048 2048"><path fill="#26252c" d="M0 0h2048v2048H0z"/><path fill="#000100" d="M1023.88 156.485c2.96 4.474 18.83 64.36 21.59 73.731a1493 1493 0 0 0 19.52 60.944 1605 1605 0 0 0 59.52 150.936c30.08 66.636 69.25 137.256 105.72 200.784 43.95 76.557 94.11 152.456 127.21 234.631a859 859 0 0 1 54.49 216.129c13.54 111.15-2.76 228.24-73.13 318.9-58.57 75.46-149.24 130.74-244.64 142.36-21.57 60.83-37.48 136.99-48.64 200.58-8.2 46.06-15.22 92.32-21.06 138.73l-.74-.18c-1.7-5.21-4.67-33.15-5.58-40.23-2.92-22.09-6.21-44.13-9.88-66.1-13.529-81.66-29.553-154.02-55.798-232.41-117.741-20.34-217.679-82.11-274.455-190.01-83.036-157.8-38.813-370.42 29.863-525.688 28.76-65.022 71.172-126.073 106.15-187.641 30.997-54.559 62.686-109.148 90.247-165.222a1575 1575 0 0 0 91.263-225.868 1639 1639 0 0 0 18.91-67.42c3.07-11.942 5.82-25.391 9.44-36.956"/><path fill="#000100" d="M998.729 402.853c4.591-16.774 8.161-43.797 32.511-38.109 17.27 4.033 19.41 33.179 24.15 47.982 5.33 1.534 25.42 10.767 30.96 13.629 9.24 18.84 17.29 40.997 26.7 60.497 23.84 49.42 49.53 105.19 77.52 152.133 6.7 10.229 15.31 26.563 21.53 37.544l40.19 71.084a2164 2164 0 0 1 45.17 82.675c3.16 6.11 13.23 25.154 15.05 30.631a792.2 792.2 0 0 1 64.04 251.221c21.75 207.06-97.66 382.83-311.05 405.78-75.913 8.16-154.78-4.73-222.337-41.29-38.867-21.94-69.235-46.63-97.309-81.45a234 234 0 0 1-12.949-16.47c-50.826-70.45-66.86-158.99-61.881-244.25.478-8.18.575-16.55 1.892-24.64.203-15.27 4.755-44.85 7.351-60.23 13.038-77.265 34.123-145.989 68.752-216.014 17.79-36.073 39.816-73.26 60.022-108.123a6441 6441 0 0 0 68.374-120.697 2008 2008 0 0 0 91.176-190.742 1041 1041 0 0 0 30.138-11.161"/><path fill="#9fa2ab" d="M1376.55 1112.14c21.75 207.06-97.66 382.83-311.05 405.78-75.913 8.16-154.78-4.73-222.337-41.29 4.015-14.38 13.743-18.22 26.178-24.22 54.609 27.74 109.336 42.82 171.309 39.3a327.3 327.3 0 0 0 226.63-109.69c69.19-78.24 77.92-159.21 71.55-257.21 12.77-11.4 25.1-6.42 36.56-9.58z"/><path fill="#e9e9e9" d="M749.019 833.576c7.878-1.961 40.105-8.896 46.68-6.677-45.045 93.798-80.527 207.641-85.746 312.181l-1.02 1.3-1.334-.36c-10.465-22.24-17.102-14.73-32.967-21.93-2.51-3.02-1.607-3.19-1.716-8.27.203-15.27 4.755-44.85 7.351-60.23 13.038-77.265 34.123-145.989 68.752-216.014"/><path fill="#e9e9e9" d="M1283.29 879.061c17.63 6.381 22.37-4.394 29.22-18.142a792.2 792.2 0 0 1 64.04 251.221l-1.16 3.09c-11.46 3.16-23.79-1.82-36.56 9.58-8.63-90.78-26.28-164.173-62.06-248.802 3.27 1.886 2.91 2.239 6.52 3.053"/><path fill="#9fa2ab" d="M1146.82 624.542c14.3 3.163 36.28 13.084 43.75 14.443 6.7 10.229 15.31 26.563 21.53 37.544l40.19 71.084a2164 2164 0 0 1 45.17 82.675c3.16 6.11 13.23 25.154 15.05 30.631-6.85 13.748-11.59 24.523-29.22 18.142-3.61-.814-3.25-1.167-6.52-3.053-.52-1.23-1.01-2.468-1.49-3.714-19.84-48.573-46.96-96.818-72.17-142.723a7197 7197 0 0 1-56.29-105.029"/><path fill="#cccdce" d="M1275.28 872.294c5.67 3.154 3.45 2.026 8.01 6.767-3.61-.814-3.25-1.167-6.52-3.053-.52-1.23-1.01-2.468-1.49-3.714"/><path fill="#9fa2ab" d="M672.916 1109.82c.109 5.08-.794 5.25 1.716 8.27 15.865 7.2 22.502-.31 32.967 21.93l1.334.36 1.02-1.3c-5.906 70.33.205 134.13 38.44 196.01-2.176 5.05-2.549 51.41-2.539 60.09a234 234 0 0 1-12.949-16.47c-50.826-70.45-66.86-158.99-61.881-244.25.478-8.18.575-16.55 1.892-24.64"/><path fill="#9fa2ab" d="M877.415 604.756c9.864 5.308 19.469 9.214 29.759 13.579-25.602 51.406-54.241 100.824-81.477 151.169a2988 2988 0 0 0-21.03 40.425c-1.573 3.045-7.271 14.62-8.968 16.97-6.575-2.219-38.802 4.716-46.68 6.677 17.79-36.073 39.816-73.26 60.022-108.123a6441 6441 0 0 0 68.374-120.697"/><path fill="#e9e9e9" d="M1055.39 412.726c5.33 1.534 25.42 10.767 30.96 13.629 9.24 18.84 17.29 40.997 26.7 60.497 23.84 49.42 49.53 105.19 77.52 152.133-7.47-1.359-29.45-11.28-43.75-14.443-33.47-62.18-71.02-146.095-91.43-211.816"/><path fill="#e9e9e9" d="M968.591 414.014a1041 1041 0 0 0 30.138-11.161c-21.094 68.9-50.313 134.937-83.093 199.087-2.762 5.404-5.508 11.111-8.462 16.395-10.29-4.365-19.895-8.271-29.759-13.579a2008 2008 0 0 0 91.176-190.742"/><path fill="#e9e9e9" d="M748.393 1335.09c31.372 49.45 68.611 89.4 120.948 117.32-12.435 6-22.163 9.84-26.178 24.22-38.867-21.94-69.235-46.63-97.309-81.45-.01-8.68.363-55.04 2.539-60.09"/><path fill="#000100" d="M1005.52 399.719c3.56-9.508 4.17-24.449 14.57-28.453 21.51-8.289 23.6 24.308 27.36 35.513 16.67 62.313 59.95 154.795 90.32 212.932 34.86 69.494 74.71 136.654 109.72 206.073 6.35 12.599 12.39 25.234 17.88 38.24a817.9 817.9 0 0 1 63.53 223.656c2.21 16.46 5.14 42.71 5.15 59.23 4.31 61.1-2.69 115.48-30.75 170.94-49.86 98.53-150.87 160.32-260.18 167.68-56.526 3.81-111.041-9.02-162.09-33.73-56.285-26.29-104.01-78.05-134.259-131.6-29.482-55.31-36.006-106.29-32.162-167.9 7.472-89.92 23.623-173.827 57.787-257.772 9.753-23.963 19.999-48.767 32.305-71.532 34.409-67.77 72.646-134.052 107.846-201.938 34.822-66.462 72.888-149.237 92.973-221.339"/><path fill="#94582e" d="M1334.05 1146.91c4.31 61.1-2.69 115.48-30.75 170.94-49.86 98.53-150.87 160.32-260.18 167.68-56.526 3.81-111.041-9.02-162.09-33.73q-1.088-7.995-2.276-15.99c44.876 23.46 88.281 36.4 139.266 37.24a305.1 305.1 0 0 0 220.53-87.92c64.57-63.08 83.77-136.93 84.54-223.82 2.74-2.12 1.79-1.5 3.19-4.38 2.62-3.31 5.22-6.65 7.77-10.02"/><path fill="#cf8347" d="m804.701 822.996 14.182.003a791.4 791.4 0 0 0-85.477 263.571c-3.446 23.52-7.152 53.83-7.671 77.67-1.154 1.72-1.029 4.78-1.234 7.16-2.89-2.74-9.011-14.91-9.892-19.1 7.472-89.92 23.623-173.827 57.787-257.772 9.753-23.963 19.999-48.767 32.305-71.532"/><path fill="#cf8347" d="M1248.4 856.259c6.81 2.41 10.53 4.39 16.97 7.765a817.9 817.9 0 0 1 63.53 223.656c2.21 16.46 5.14 42.71 5.15 59.23-2.55 3.37-5.15 6.71-7.77 10.02-1.4 2.88-.45 2.26-3.19 4.38l-.07-1.64c-5.01-114.7-29.02-199.092-74.62-303.411"/><path fill="#c17940" d="M1323.02 1159.67c.54-1.21 1-3.23 1.71-3.86.62.27 1.01.66 1.55 1.12-1.4 2.88-.45 2.26-3.19 4.38z"/><path fill="#94582e" d="M1122.11 616.543c4.88.995 10.84 2.374 15.66 3.168 34.86 69.494 74.71 136.654 109.72 206.073 6.35 12.599 12.39 25.234 17.88 38.24-6.44-3.375-10.16-5.355-16.97-7.765-38.05-79.711-86.28-159.875-126.29-239.716"/><path fill="#cf8347" d="M1005.52 399.719c3.51.444 9.14.516 12.13 2.015a1290 1290 0 0 1-57.703 150.967c-11.383 25.109-24.955 50.399-35.844 74.658l-11.556-6.301c34.822-66.462 72.888-149.237 92.973-221.339"/><path fill="#94582e" d="M804.701 822.996c34.409-67.77 72.646-134.052 107.846-201.938l11.556 6.301a6383 6383 0 0 1-69.411 128.409c-11.676 21.332-25.887 45.452-35.809 67.231z"/><path fill="#cf8347" d="M1033.41 401.907c4.19.855 10 3.234 14.04 4.872 16.67 62.313 59.95 154.795 90.32 212.932-4.82-.794-10.78-2.173-15.66-3.168-6.5-10.757-18.32-36.546-23.99-48.636a1167 1167 0 0 1-64.71-166"/><path fill="#cf8347" d="M746.771 1320.2c-.169-8.85.415-14.95 1.917-23.59 30.747 60.32 68.685 106.92 130.066 139.2q1.188 7.995 2.276 15.99c-56.285-26.29-104.01-78.05-134.259-131.6"/><path fill="#94582e" d="M714.609 1152.3c.881 4.19 7.002 16.36 9.892 19.1.205-2.38.08-5.44 1.234-7.16-.684 50.97 3.728 84.89 22.953 132.37-1.502 8.64-2.086 14.74-1.917 23.59-29.482-55.31-36.006-106.29-32.162-167.9"/><path fill="#94582e" d="M1005.52 399.719c3.56-9.508 4.17-24.449 14.57-28.453 21.51-8.289 23.6 24.308 27.36 35.513-4.04-1.638-9.85-4.017-14.04-4.872-2.69-8.309-4.87-16.213-7.88-24.556-3.15 8.281-5.69 15.771-7.88 24.383-2.99-1.499-8.62-1.571-12.13-2.015"/><path fill="#e72824" d="m1023.56 497.316 1.95 1.086c2.65 5.576 6.66 21.859 9.42 29.501a633 633 0 0 0 30.94 73.246c14.03 27.771 31.35 56.759 46.63 84.64 77.17 140.885 163.11 298.104 176.95 460.821 5.41 63.66-24.21 155.06-66.47 202.49-52.47 58.89-119.77 82.04-196.55 86.83-31.351-.16-65.073-7.02-94.939-16.95-64.017-21.29-110.813-61.86-141.088-122.19-20.939-41.72-30.215-86.66-31.644-133.21-.475-15.5 3.368-45.24 5.963-60.88 20.03-120.71 72.585-233.358 129.502-340.603 32.365-60.985 69.467-118.2 98.341-181.132 13.675-29.8 20.785-52.763 30.995-83.649"/><path fill="#e72824" d="m1068.95 1558.47.49.33c1.35 3.7-9.57 39.22-11.17 46.33-11.91 53.01-27.31 115.65-33.15 169.41-2.66-8.89-5.38-30.86-7.08-41.3-1.81-14.54-5.83-33.47-8.7-48.17a1442 1442 0 0 0-30.294-126.75c26.944 3.73 62.884 2.77 89.904.15"/><path fill="#cccdce" d="M1024.8 246.956a1768 1768 0 0 0 61.55 179.399c-5.54-2.862-25.63-12.095-30.96-13.629-4.74-14.803-6.88-43.949-24.15-47.982-24.35-5.688-27.92 21.335-32.511 38.109a1041 1041 0 0 1-30.138 11.161 1157 1157 0 0 0 40.559-112.449c5.72-18.469 10.2-36.494 15.65-54.609"/></svg>