<?xml version="1.0" encoding="utf-8" ?><svg xmlns="http://www.w3.org/2000/svg" xmlns:xlink="http://www.w3.org/1999/xlink" width="1024" height="1024" viewBox="0 0 1024 1024"><path fill="#242425" d="M0 0L1024 0L1024 1024L0 1024L0 0Z"/><path d="M506.331 235.945C658.836 232.653 785.083 353.718 788.182 506.228C791.281 658.738 670.056 784.831 517.542 787.737C365.302 790.637 239.483 669.676 236.39 517.44C233.297 365.203 354.098 239.231 506.331 235.945Z"/><path fill="#C0BFBF" d="M498.484 250.858C642.744 243.248 765.837 354.07 773.364 498.334C780.89 642.599 669.996 765.628 525.727 773.07C381.578 780.506 258.672 669.723 251.152 525.578C243.632 381.432 354.343 258.462 498.484 250.858Z"/><path d="M499.689 296.919C618.385 290.189 720.037 381.011 726.664 499.713C733.291 618.414 642.38 719.987 523.673 726.51C405.112 733.025 303.692 642.251 297.073 523.696C290.455 405.141 381.14 303.642 499.689 296.919Z"/><path fill="#666565" d="M459.582 317.014C459.903 317.074 460.159 317.32 460.439 317.489C460.944 323.218 460.566 335.688 460.568 341.83L460.59 390.394L460.64 459.637C460.662 470.055 461.027 480.95 460.864 491.254C460.768 497.371 457.274 503.736 457.244 511.558C457.208 521.079 460.739 525.297 460.751 534.315L460.688 642.53C460.832 663.762 460.859 684.994 460.769 706.226C442.637 701.688 424.382 692.985 408.231 683.606C397.552 677.394 390.718 671.866 381.116 664.177C380.721 651.883 380.991 638.29 380.962 625.842L380.939 542.284L380.829 432.884C380.614 408.559 380.604 384.233 380.799 359.908C402.842 339.515 431.258 325.998 459.582 317.014Z"/><path fill="#666565" d="M564.081 316.971C589.841 324.849 621.759 340.206 641.619 358.625C642.08 369.968 641.732 383.89 641.736 395.348L641.721 463.941L641.563 662.646C633.904 670.311 624.233 676.841 615.223 682.839C597.502 693.716 584.261 699.589 564.496 705.433L564.343 532.747C564.394 526.024 567.57 518.061 567.501 510.779C567.424 502.666 564.186 497.462 564.113 489.434L564.081 316.971Z"/><path fill="#666565" d="M475.332 550.831C499.076 570.678 525.573 569.674 549.369 550.674C549.864 567.721 549.55 586.631 549.551 603.765L549.504 700.125L549.471 709.796C518.611 715.289 505.914 715.127 475.357 709.897L475.332 550.831Z"/><path fill="#666565" d="M501.265 310.705C515.51 309.274 535.364 311.581 549.409 313.767C548.357 366.173 549.166 420.351 549.149 472.849C538.813 465.143 536.018 463.332 523.701 459.959C521.505 459.485 519.289 459.109 517.059 458.834C501.11 456.874 487.56 463.161 475.361 472.741L475.359 313.687C483.948 312.323 492.591 311.328 501.265 310.705Z"/><path fill="#666565" d="M656.216 372.25C679.227 395.416 699.378 432.774 706.638 464.558C718.582 517.444 709.211 572.906 680.555 618.932C674.852 628.227 663.81 641.9 656.492 649.924L656.216 372.25Z"/><path fill="#666565" d="M366.131 374.376C367.11 377.143 366.5 435.979 366.5 443.045L366.849 650.116C357.595 640.774 349.933 630.015 342.702 619.083C337.988 612.154 333.373 603.678 329.908 596.086C295.89 521.563 310.312 433.859 366.131 374.376Z"/><path fill="#C0BFBF" d="M509.156 472.919C530.457 471.284 549.08 487.157 550.84 508.448C552.599 529.738 536.835 548.454 515.555 550.338C494.099 552.238 475.194 536.315 473.419 514.847C471.645 493.379 487.679 474.568 509.156 472.919Z"/><path d="M509.387 735.954C514.042 735.048 518.823 736.736 521.877 740.364C524.932 743.993 525.779 748.992 524.091 753.424C522.404 757.857 518.446 761.026 513.752 761.705C506.734 762.719 500.189 757.95 499.004 750.959C497.819 743.969 502.427 737.309 509.387 735.954Z"/><path d="M746.593 499.895C750.946 498.906 755.495 500.336 758.498 503.638C761.502 506.94 762.497 511.603 761.103 515.843C759.708 520.083 756.14 523.245 751.762 524.12C745.116 525.447 738.638 521.186 737.223 514.558C735.809 507.93 739.984 501.396 746.593 499.895Z"/><path d="M270.706 500.379C277.246 498.648 283.943 502.582 285.616 509.137C287.289 515.691 283.298 522.353 276.728 523.969C270.24 525.565 263.677 521.633 262.025 515.159C260.372 508.684 264.247 502.088 270.706 500.379Z"/><path d="M679.641 670.122C683.121 669.406 686.74 670.259 689.534 672.453C692.329 674.647 694.015 677.96 694.145 681.51C694.357 687.299 690.43 692.423 684.786 693.722C680.548 694.698 676.113 693.32 673.174 690.115C670.235 686.91 669.245 682.373 670.584 678.235C671.922 674.097 675.382 670.999 679.641 670.122Z"/><path d="M509.605 263.052C515.146 262.705 521.281 264.742 523.643 270.184C524.732 272.709 524.767 275.564 523.741 278.115C521.921 282.749 518.537 284.601 514.318 286.392C500.222 287.802 491.979 270.634 509.605 263.052Z"/><path d="M340.676 330.684C347.134 329.359 353.454 333.483 354.843 339.927C356.231 346.372 352.17 352.732 345.739 354.183C339.219 355.655 332.75 351.525 331.342 344.99C329.934 338.455 334.128 332.028 340.676 330.684Z"/><path d="M339.85 669.423C346.247 668.352 352.32 672.613 353.49 678.994C354.659 685.374 350.493 691.512 344.132 692.781C339.928 693.619 335.599 692.127 332.805 688.876C330.01 685.626 329.184 681.122 330.644 677.091C332.104 673.061 335.622 670.13 339.85 669.423Z"/><path d="M679.236 330.089C685.577 328.651 691.894 332.587 693.397 338.913C694.9 345.239 691.028 351.595 684.718 353.162C680.578 354.19 676.205 352.916 673.266 349.825C670.327 346.734 669.274 342.303 670.509 338.22C671.744 334.137 675.077 331.033 679.236 330.089Z"/></svg>