<?xml version="1.0" encoding="utf-8" ?><svg xmlns="http://www.w3.org/2000/svg" xmlns:xlink="http://www.w3.org/1999/xlink" width="1024" height="1024" viewBox="0 0 1024 1024"><path fill="#242425" d="M0 0L1024 0L1024 1024L0 1024L0 0Z"/><path d="M329.567 252.199C336.924 251.536 346.232 252.004 353.79 252.019L396.027 252.07L526.963 251.983L641.073 252.027L677.689 252.026C684.636 252.03 691.767 251.84 698.673 252.301C709.626 253.033 715.27 260.381 715.316 270.911C715.367 282.216 715.301 293.418 715.301 304.67L715.399 370.612L715.569 587.239L715.629 702.096L715.637 737.793C715.63 747.861 717.411 758.76 709.741 766.45C704.547 771.656 700.304 772.44 693.375 772.618C669.311 773.303 642.645 772.806 618.461 772.832L463.957 772.641L368.5 772.327C354.676 772.223 340.778 772.512 326.974 771.964C318.762 771.638 309.754 763.256 309.149 754.975C308.613 747.622 308.831 739.976 308.85 732.587L308.866 692.864L308.779 561.591L308.979 369.805L308.888 308.635C308.861 297.006 308.883 285.369 308.947 273.743C309.02 260.302 315.976 253.411 329.567 252.199Z"/><path fill="#C0BFBF" d="M470.34 308.619C518.649 308.037 568.177 308.685 616.632 308.577C621.345 331.862 636.443 347.359 660.477 349.803L659.975 459.104C653.797 459.053 632.351 458.16 628.239 460.85C615.835 469.694 606.379 483.037 595.071 493.252C586.828 500.697 583.046 514.499 589.373 524.27C595.367 533.528 607.852 542.596 614.57 551.433C627.788 568.822 640.953 565.016 660.394 564.985C659.6 577.097 659.992 592.639 659.985 604.995L659.964 674.252C656.269 675.028 653.969 675.613 650.374 676.753C632.442 683.322 621.153 698.157 617.194 716.513C568.308 716.079 519.419 716.051 470.532 716.427C465.791 692.098 449.757 677.526 425.438 673.59L425.295 349.423C449.637 346.576 464.952 332.294 470.34 308.619Z"/><path fill="#C0BFBF" d="M386.537 270.074L697.376 270.451C696.898 291.355 697.441 312.02 697.483 332.905C697.587 374.98 697.451 417.056 697.075 459.129C690.857 459.282 684.637 459.314 678.418 459.225C678.487 419.441 679.241 377.509 678.453 337.956C677.177 335.868 675.901 333.948 673.545 332.992C667.215 330.423 660.636 332.983 652.024 328.79C628.598 317.386 637.847 296.159 630.448 290.573C629.099 289.555 627.244 289.65 625.616 289.603C613.713 289.262 601.733 289.567 589.822 289.591L525.473 289.61L484.007 289.49C476.31 289.467 465.743 289.133 458.39 289.866C454.054 292.23 452.403 306.9 450.029 312.062C445.122 322.728 435.94 330.608 423.961 331.656C419.859 332.014 415.235 331.595 411.369 333.158C409.152 334.053 408.202 335.494 407.372 337.646C406.027 341.136 406.791 384.986 406.773 393.23L406.882 627.758C406.837 636.788 405.729 684.383 407.459 687.331C410.811 693.039 421.317 691.026 426.968 692.422C437.062 694.915 444.784 701.933 450.099 710.616C451.295 713.174 452.211 715.112 452.951 717.869C454.411 723.313 453.564 729.971 458.034 733.861C464.236 735.954 494.842 735.094 503.713 735.101L570.262 735.246L608.101 735.329C614.579 735.334 621.696 735.505 628.144 734.986C630.83 734.769 632.864 732.076 634.402 730.103C635.063 725.154 634.864 722.045 636.381 716.885C639.871 704.78 650.243 694.913 662.756 692.775C668.62 691.773 677.73 693.055 678.124 684.816C678.757 671.582 678.481 658.212 678.478 644.947L678.443 564.463L697.368 564.486L697.445 754.433L386.546 754.125L386.537 270.074Z"/><path d="M412.63 289.558C417.5 289.178 421.819 290.56 423.752 295.492C424.718 298.006 424.64 300.801 423.535 303.256C422.001 306.731 419.733 308.183 416.378 309.512C402.417 309.27 400.191 295.878 412.63 289.558Z"/><path d="M669.731 289.685C675.091 288.53 680.373 291.939 681.528 297.3C682.683 302.66 679.273 307.942 673.913 309.097C668.552 310.252 663.27 306.842 662.116 301.482C660.961 296.121 664.37 290.839 669.731 289.685Z"/><path d="M410.375 714.868C413.625 713.706 417.25 714.413 419.825 716.71C422.4 719.008 423.514 722.53 422.728 725.891C421.943 729.251 419.383 731.914 416.056 732.832C411.168 734.181 406.089 731.421 404.56 726.587C403.032 721.752 405.6 716.575 410.375 714.868Z"/><path d="M668.38 715.855C671.378 714.798 674.713 715.455 677.086 717.569C679.46 719.683 680.496 722.92 679.792 726.02C679.088 729.12 676.755 731.591 673.701 732.473C669.164 733.782 664.408 731.245 662.968 726.748C661.529 722.251 663.926 717.424 668.38 715.855Z"/><path fill="#EDCF98" d="M636.029 478.011C642.368 477.619 651.294 477.874 657.754 477.886L697.508 477.973C697.471 500.276 697.762 523.581 697.215 545.796C687.416 545.91 677.325 545.803 667.507 545.804C657.108 545.895 646.709 545.858 636.311 545.693C631.274 541.345 605.453 517.484 605.637 511.991C605.686 510.523 606.911 508.805 607.755 507.686C610.855 503.582 614.991 499.934 618.526 496.185C624.225 490.138 629.775 483.469 636.029 478.011Z"/><path d="M658.14 488.382C671.613 488.261 682.683 498.988 682.984 512.459C683.286 525.929 672.707 537.142 659.242 537.623C650.37 537.94 642.014 533.458 637.37 525.892C632.727 518.326 632.515 508.846 636.815 501.08C641.116 493.313 649.263 488.462 658.14 488.382Z"/><path fill="#242425" d="M327.039 270.086C339.911 269.829 354.919 270.346 367.962 270.433C367.98 298.071 368.356 326.578 367.913 354.144L327.061 354.398C326.591 327.253 326.933 297.356 327.039 270.086Z"/><path fill="#242425" d="M327.022 373.028L367.957 373.009L367.851 455.944L326.98 456.005L327.022 373.028Z"/><path fill="#242425" d="M327.237 670.027L367.804 670.031C367.329 697.419 367.576 726.45 367.829 753.786L327.215 753.831C326.828 743.238 327.202 731.211 327.266 720.442L327.237 670.027Z"/><path fill="#242425" d="M327.278 570.014L367.883 570.039L367.494 650.912L327.291 650.975L327.278 570.014Z"/><path fill="#242425" d="M327.037 474.335C340.484 474.185 354.438 474.444 367.939 474.469C367.338 499.524 367.602 526.249 367.851 551.371C365.33 552.174 332.243 551.75 327.031 551.821L327.037 474.335Z"/></svg>