<svg xmlns="http://www.w3.org/2000/svg" width="2048" height="2048" viewBox="0 0 2048 2048"><path fill="#fff" d="M0 0h2048v2048H0z"/><path fill="#010102" d="M201.83 184.256c19.223-.655 41.47-.155 60.996-.145l117.774.162c78.014.097 156.002-.136 234.049-.251 28.955-.042 28.04 9.224 27.737 36.164a673 673 0 0 1-.953 28.742q46.944.264 93.887-.04c29.697-24.593 30.585-23.699 60.943.201l145.337.021 10.023-18.191c47.806.617 96.757.091 144.637.066 3.18 4.34 8.16 13.208 11.1 18.123l146.48.033c32.51-23.9 27.18-29.022 60.85-.362l90.4.161c-1.54-9.961-.93-21.571-1.33-31.685-.36-9.377-.55-22.928 6.77-29.786 2.58-2.42 14.97-3.244 18.87-3.369 32.84-.034 65.67.058 98.5.096l194.1-.038 87.31-.13c11.58-.016 24.49-.403 36.02.502 4.21.331 9.07 4.951 11.22 8.397 2.85 4.582 2.33 9.515 2.54 14.726.04 33.71-.12 67.46-.14 101.17l-.01 207.32c-.01 32.917.14 65.837.18 98.752.01 15.472 1.9 20.696-12.4 28.959-16.14.24-31.08.623-47.16-1.251-.19 30.848-.21 61.697-.07 92.545 21.17 21.826 19.22 29.967-.04 51.869l-.13 152.765c6.62 4.23 13.37 8.313 19.39 13.345l-.04 146.633c-5.83 3.93-13.1 8.14-19.18 11.87l-.01 150.17c20.45 21 19.92 28.54 1.16 49.94-.78 30.49-.33 62.61-.36 93.23 17.32-.35 45.53-5.8 56.99 8.14 1 5.76 1.58 11.59 1.72 17.44.79 34.5.01 71.57-.02 106.37l.06 194.58c.01 33.52.03 67.05.01 100.57-.02 15.11 1.71 19.32-12.41 27.49-8.54 1-33.53.37-43.41.38h-89.11l-281.04-.11c-6.3-.06-20.05-.18-24.03-4.86-8.62-10.17-4.61-44.68-3.96-58.36-29.27.51-59.62.02-89.05.14-30.92 26.98-33.38 25.69-63.75-.45-43.84 1.88-100.06.48-144.5.01-4.11 5.74-8.76 13.82-12.54 19.96l-143.619-.04c-3.693-6.07-7.433-13.16-10.929-19.43l-143.212.14c-30.897 24.71-33.597 27.29-63.147.06-30.78.04-61.561-.07-92.34-.34l.789 49.91c-4.335 8.71-8.25 13.12-18.563 13.25-24.866.31-49.755.14-74.627.13l-149.383-.07H270.635c-21.532-.01-43.563.25-65.095-.39-4.63-.13-8.318-1.93-11.773-5.02-6.552-5.87-5.355-14.39-5.386-22.81l-.109-271.96.015-86.71c-.078-70.11-11.478-69.64 59.292-68.19l-.516-94.51c-18.783-19.03-16.321-29.34.972-48.32l.006-149.89c-6.241-4.17-12.527-8.28-18.857-12.31l-.144-147.055c5.786-4.334 12.74-8.285 18.996-12.037.396-50.373.533-105.186-.502-155.354-17.641-20.17-18.256-28.646-.065-48.754a5258 5258 0 0 1-.284-93.986c-16.468 2.338-45.962 5.9-57.128-7.922-4.178-15.867-1.813-84.802-1.814-104.512l.049-179.91.008-96.292c-.021-13.295-.16-26.68-.075-39.971.098-15.328-1.317-22.36 13.605-29.721"/><path fill="#fff" d="M1024.38 467.69c3.6 1.363 9.33 7.603 12.39 10.575l255.45-.012c37.48-.006 75.01-.059 112.48.182 6.99.045 5.63-4.113 9.06-4.376 13.67-1.049 28.77-.652 42.57-.641 2.03 1.583 3.88 3.238 5.82 4.928 24.48-.157 48.95-.149 73.42.022l.04 25.585c2.31 2.542 5.16 5.033 7.71 7.379l29.68.169-.1 76.777 6.01 5.887.09 42.604c-6.75 4.254-6.13 5.17-6.13 13.045-.03 38.706.2 77.412.2 116.119l-.09 245.417c3.78 4.61 6.92 7.49 11.21 11.54-3.46 3.82-7.7 7.91-11.37 11.62l.15 264.03-.14 72c-.02 11.1-.21 23.27.35 34.4.13 2.51 3.5 4.45 5.67 6.02.15 14.8.24 29.6.24 44.41l-5.98 5.73c-.13 24.35-.13 48.69.01 73.04l-29.76.06-7.69 7.07c-.59 8.06-.21 20.48-.21 28.86-22.44-.23-46.47-.94-68.92-.11-5.86.22-7.22 1.69-10.73 6.01-10.61-.1-34.12 1.1-43.27-.74-1.46-1.85-3.7-5.33-6.32-5.36-10.47-.12-20.95-.03-31.42-.02l-73.47-.01-263.6.04c-3.89 2.77-7.43 6.11-11 9.29-1.16.88-1.15.69-2.6 1.16-4.31-2.4-8.48-7.12-12.07-10.7l-259.787.13c-36.052.01-72.16.07-108.209-.14-4.295-.03-5.077 1.25-8.029 4.32l-1.119 1.18c-8.622 1.37-30.731.76-40.758.75l-5.699-6.14c-24.988.37-50.591.12-75.628.16l.06-27.68-7.856-8.04-30.152-.11.172-73.23c-1.284-1.52-3.351-3.45-4.809-4.91-.224-12.37-.917-33.68.196-45.35 3.826-3.32 5.054-4.5 4.871-9.87-.373-10.94-.279-21.82-.276-32.75l.01-82.43.06-250.25c-2.97-3.52-7.277-7.96-10.472-11.44 3.822-4.11 6.831-7.43 10.375-11.82l-.004-249.487.04-82.926c.013-11.394.129-22.866.321-34.269.094-5.617-3.851-5.632-4.254-10.588-1.109-13.652-.626-28.287-.498-42.039l4.519-4.609-.134-76.861 30.051.211 7.526-7.578c.282-8.143.055-17.426.048-25.66l51.605.225c14.822.061 15.707 2.418 27.97-3.396 5.025-2.382 35.637-1.272 43.133-.762 8.903 6.357 22.716 3.922 33.937 3.889l66.148.02 276.962.118c3.38-2.695 8.63-7.66 12-10.668"/><path fill="#091733" d="M1419.91 188.099c25.05-.686 53.69.348 79.14.46l158.89.06 124.83-.351c19.38-.011 38.79-.157 58.16.159 5.8.095 12.5 5.989 12.7 11.972.47 13.881.3 27.845.3 41.743l.03 85.262.09 302.555c-3.68 5.448-4.53 7.669-10.8 9.065-126.19 1.508-124.64-62.131-125-167.852-.04-14.199.16-29.151.24-43.414.18-33.363.09-66.728-.29-100.09l-118.33-.148c-41.52.049-79.77 1.502-121.06-5.505-68.6-11.643-69.08-67.612-69.48-124.021 3.6-5.965 4.26-6.909 10.58-9.895"/><path fill="#010102" d="M1775.2 214.189c26.81-2.844 50.9 16.438 53.99 43.213 3.1 26.776-15.96 51.046-42.7 54.394-27.11 3.392-51.77-15.974-54.91-43.108s16.46-51.617 43.62-54.499"/><path fill="#091733" d="M1780.03 219.359c23.94-.225 43.58 18.903 43.98 42.839.41 23.937-18.57 43.718-42.5 44.302-24.19.59-44.23-18.637-44.64-42.828s18.97-44.086 43.16-44.313"/><path fill="#010102" d="M1788.93 551.173a26.54 26.54 0 0 1 33.63 31.98 26.53 26.53 0 0 1-19.02 19.047c-13.95 3.621-28.23-4.539-32.2-18.389-3.96-13.85 3.84-28.334 17.59-32.638"/><path fill="#091733" d="M1790.23 556.572c10.99-3.669 22.87 2.255 26.55 13.238 3.69 10.983-2.22 22.875-13.2 26.574-11 3.706-22.92-2.216-26.61-13.221s2.25-22.916 13.26-26.591"/><path fill="#010102" d="M1479.69 230.112a26.5 26.5 0 0 1 24.1 11.451 26.49 26.49 0 0 1 1.93 26.614 26.5 26.5 0 0 1-22.19 14.81c-14.5.885-27.01-10.058-28.06-24.542s9.75-27.117 24.22-28.333"/><path fill="#091733" d="M1475.44 236.691c10.97-3.58 22.78 2.392 26.4 13.357s-2.31 22.794-13.26 26.456c-11.01 3.681-22.91-2.286-26.55-13.308s2.37-22.906 13.41-26.505"/><path fill="#091733" d="M207.043 188.29c17.699-.347 36.871.226 54.736.198q82.86-.344 165.721.182c19.77-.003 193.146-2.333 202.664 1.219 3.078 1.149 5.273 5.438 6.14 8.436 1.958 6.774 1.227 14.517.984 21.5-.839 24.072-3.514 49.57-16.224 70.68-7.031 11.677-21.241 22.063-33.935 26.75-37.096 13.697-87.803 10.351-127.277 10.431l-87.74.079c-8.029.013-36.5-.475-42.307.913-1.53 2.791-1.043 8.144-1.035 11.572l.176 120.157c.115 44.368 3.407 102.563-17.943 141.823-12.928 23.772-62.41 37.892-87.572 36.922-11.38-.439-21.783 2.994-29.066-7.791-1.069-19.411-.38-45.091-.374-64.996l.04-117.333-.059-156.397c-.01-28.436-.127-56.884.174-85.316.128-12.072.324-16.055 12.897-19.029"/><path fill="#010102" d="M260.113 214.169c26.832-3.156 51.195 15.902 54.591 42.705s-15.442 51.336-42.213 54.972c-27.113 3.683-52.028-15.449-55.467-42.593s15.914-51.887 43.089-55.084"/><path fill="#091733" d="M256.043 220.506c23.564-5.47 47.083 9.263 52.441 32.852s-9.487 47.038-33.101 52.284c-23.456 5.211-46.712-9.514-52.035-32.944s9.291-46.757 32.695-52.192"/><path fill="#010102" d="M561.939 230.306a26.544 26.544 0 1 1 9.148 52.288c-14.309 2.253-27.782-7.379-30.278-21.647s6.907-27.903 21.13-30.641"/><path fill="#091733" d="M559.208 236.739c10.841-4.263 23.084 1.089 27.317 11.943s-1.154 23.081-12.019 27.284c-10.823 4.185-22.991-1.176-27.207-11.986s1.11-22.994 11.909-27.241"/><path fill="#010102" d="M242.097 551.254c13.925-4.163 28.596 3.705 32.833 17.607 4.237 13.903-3.552 28.616-17.432 32.927-13.984 4.344-28.834-3.517-33.103-17.525s3.672-28.815 17.702-33.009"/><path fill="#091733" d="M244.072 556.446c11.051-3.01 22.466 3.441 25.589 14.461 3.124 11.02-3.209 22.5-14.196 25.737a20.892 20.892 0 1 1-11.393-40.198"/><path fill="#091733" d="M1814.89 1409.39c14.74-.53 30.08-5.09 39.02 8.58l.03 281.02.07 89.9c.01 14.69 1.63 50.02-2.8 62.49-6.78 5.26-47.05 3.64-57.7 3.64l-78.01.14h-266.25c-10.14.16-28.77 2.27-36.91-4.43-5.23-4.3-3.29-14.63-3.09-20.82.19-26.27 5.45-66.54 25.8-85.7 31.58-29.7 111.53-24.26 152.26-24.24l130.92-.09c1.67-46.57-.56-94.75-.03-141.49.44-38.73-1.08-67.55 7.97-106.3 10.48-44.87 46.63-58.91 88.72-62.7"/><path fill="#010102" d="M1769.77 1736.3c26.66-5.85 53 11.08 58.76 37.76 5.75 26.69-11.28 52.97-37.98 58.63-26.58 5.62-52.69-11.3-58.42-37.85-5.72-26.55 11.11-52.72 37.64-58.54"/><path fill="#091733" d="M1771.94 1741.48c23.61-4.61 46.52 10.67 51.33 34.25 4.81 23.57-10.28 46.61-33.81 51.62-23.82 5.07-47.2-10.25-52.06-34.1-4.87-23.86 10.64-47.11 34.54-51.77"/><path fill="#010102" d="M1789.08 1446.46c9.13-2.94 19.14-.73 26.18 5.78a26.57 26.57 0 0 1 7.81 25.65 26.57 26.57 0 0 1-18.51 19.39c-13.94 4-28.52-3.92-32.74-17.8-4.23-13.87 3.46-28.57 17.26-33.02"/><path fill="#091733" d="M1791.8 1451.5c11.21-3.07 22.77 3.59 25.73 14.82 2.97 11.23-3.79 22.73-15.05 25.6-11.12 2.82-22.43-3.83-25.36-14.92s3.62-22.47 14.68-25.5"/><path fill="#010102" d="M1475.82 1766.19c14.2-3.63 28.65 4.99 32.18 19.22 3.54 14.23-5.19 28.61-19.44 32.05-14.11 3.4-28.32-5.22-31.82-19.31s5.02-28.36 19.08-31.96"/><path fill="#091733" d="M1477.86 1771.34c11.14-2.51 22.21 4.41 24.86 15.5 2.64 11.1-4.12 22.27-15.19 25.06-7.28 1.84-15-.39-20.18-5.83a20.83 20.83 0 0 1-4.87-20.43 20.82 20.82 0 0 1 15.38-14.3"/><path fill="#091733" d="M204.36 1409.37c32.479.36 57.064.32 86.408 17.44 23.592 13.77 30.128 34.45 34.305 60.37 5.28 32.76 3.834 67.39 3.816 100.64l.044 132.11h124.836c42.969.01 83.152-2.09 125.461 7.32 48.69 10.83 58.273 57.05 58.218 100.29-.016 12.23 3.451 21.33-9.279 27.47l-226.717.23c-65.863-.03-133.506.52-199.324-.5-2.775-2.18-5.513-4.74-8.153-7.11l.057-281.68.035-100.36c.003-13.47-.087-26.9-.294-40.37-.13-8.49 2.826-13.02 10.587-15.85"/><path fill="#010102" d="M256.423 1736.16c26.482-5.25 52.255 11.8 57.776 38.23s-11.269 52.37-37.639 58.16a49.238 49.238 0 1 1-20.137-96.39"/><path fill="#091733" d="M256.902 1741.49c23.826-5.13 47.26 10.16 52.157 34.04 4.897 23.87-10.623 47.16-34.545 51.82-23.595 4.6-46.494-10.66-51.324-34.21s10.21-46.6 33.712-51.65"/><path fill="#010102" d="M557.938 1766.39a26.58 26.58 0 0 1 26.247 6.14 26.58 26.58 0 0 1 7.398 25.92 26.6 26.6 0 0 1-19.056 19.06c-13.971 3.63-28.284-4.56-32.245-18.44-3.962-13.88 3.875-28.38 17.656-32.68"/><path fill="#091733" d="M560.699 1771.44c7.348-1.9 15.148.31 20.406 5.78a21.012 21.012 0 0 1-10.575 35.06 21.01 21.01 0 0 1-20.918-7.31 21.01 21.01 0 0 1-3.596-19.79 21 21 0 0 1 14.683-13.74"/><path fill="#010102" d="M243.393 1446.25c14.121-3.95 28.766 4.32 32.68 18.45s-4.389 28.75-18.53 32.63c-14.091 3.87-28.652-4.4-32.553-18.48s4.332-28.66 18.403-32.6"/><path fill="#091733" d="M247.788 1451.15c11.331-1.5 21.746 6.43 23.328 17.75 1.581 11.32-6.263 21.79-17.57 23.46-11.432 1.69-22.05-6.26-23.649-17.7-1.599-11.45 6.433-22 17.891-23.51"/><path fill="#d76f46" d="M1715.57 563.239c.54 3.905 1.39 9.566 1.48 13.473 6.44 18.651 12.95 36.932 30.94 47.969l.12 88.313c-7.84-8.632-24.93-26.338-30.95-34.86l.08 7.113c6.34 6.376 12.3 13.084 18.11 19.941 16.1 18.993 33.13 37.169 49.39 56.014l-44.53 49.34c-6.54 7.341-16.75 18.276-22.05 25.794l.11 3.523c1.33-.256 26.14-27.125 29.23-30.301.4 43.174-.46 86.944.28 129.932-11.6-.013-21.11.851-32.13.999l-2.19 12.457 1.01-.895c.45-1.493 3.33-8.839 4.81-8.996 23.57-2.493 48.66-1.036 72.54-1.104l19.95 13.394-.48 141.755c-6.77 4.21-13.83 8.45-20.39 12.94-13.09-.04-62.05-.95-73.08.9 6.13 2.53 21.93 1.68 29.42 1.6l-.27 125.9c-9.32-10.19-19.29-20.58-28.35-30.91-.23 1.87-.42 2.86-.4 4.74 20.67 23.48 44.96 53.06 66.35 75.03-19.48 22.15-39.91 43.38-58.21 66.54-2.55 3.23-5.05 6.49-7.97 9.4l-.18 4.51.59.23 29.41-32.94c.32 29.27.42 58.55.29 87.83-16.82 11.89-27.07 28.75-30.57 49.07-.19 1.1-.37 2.2-.53 3.3l-2.63 11.78c-1.22-10.16-.53-41.75-.56-53.15l-.24-107.64.14-4.3c-2.09 2.08-3.47 3.29-5.73 5.14-1.97-5.07 4.34-2.27 3.62-9.78-.76-8.04 1.46-28.36.04-35.19l-.42-.22c-6.34 5.19-11.91 11.39-17.54 15.88.5-1.16 3.41-5.63 3.09-6.15-.39-.2-.49-.13-1.05-.14l.11-1.56-.04-11.92c.16-31.67 1.38-79.6-.75-110.39l-.09-4.12c-2.66-1.38-2.63-3.93-3.49-6.81.9-.31 1.81-.62 2.71-.92-26.86-32.75-52.45-67.84-79.2-100.81-8.26-10.19-17.6-21.72-25.03-32.48 8.86-9.11 25.67-32.274 34.25-43.126a6197 6197 0 0 0 63.24-79.829l-1.17-3.524c2.84-5.421 9.74-10.754 12.9-16.278.46-.807 3.17-5.759 3.55-5.869 3.13-.912 2.39-7.59 4.22-7.747l.84.815.78.917c-.34-3.342-.61-3.564.08-6.787.72-5.202-.64-13.617 4.97-14.429.06-41.051-1.01-83.327-.14-124.261.21-17.359-1.14-152.933 1.71-159.103"/><path fill="#091733" d="m1713.46 952.946 1.01-.895c.45-1.493 3.33-8.839 4.81-8.996 23.57-2.493 48.66-1.036 72.54-1.104l19.95 13.394-.48 141.755c-6.77 4.21-13.83 8.45-20.39 12.94-13.09-.04-62.05-.95-73.08.9-.13-4.88-2.05-17.18-5.58-20.71-11.07-30.64-25.57-39.57-43.99-65.88 22.72-30.909 35.68-33.438 45.21-71.404"/><defs><linearGradient id="a" x1="1592.999" x2="1711.408" y1="1022.179" y2="1022.503" gradientUnits="userSpaceOnUse"><stop offset="0" stop-color="#000f31"/><stop offset="1" stop-color="#232439"/></linearGradient></defs><path fill="url(#a)" d="m1714.35 865.801-.39 1.172c.01 34.716 2.87 71.296-9.45 103.876-7.92 18.316-28.56 34.891-39.23 51.871-.9 1.44-.51 2.79-.06 4.25 5.46 5.86 14.53 18.17 20.05 25.01 6.08 7.19 13.37 15.5 17.55 23.82 14.43 28.7 10.97 71.23 10.93 103.6.12 2.11.12 3.98.12 6.09-.86-4.65-14.45-19.23-18.52-22.01-2.66-1.38-2.63-3.93-3.49-6.81.9-.31 1.81-.62 2.71-.92-26.86-32.75-52.45-67.84-79.2-100.81-8.26-10.19-17.6-21.72-25.03-32.48 8.86-9.11 25.67-32.274 34.25-43.126a6197 6197 0 0 0 63.24-79.829l-1.17-3.524c2.84-5.421 9.74-10.754 12.9-16.278.46-.807 3.17-5.759 3.55-5.869 3.13-.912 2.39-7.59 4.22-7.747l.84.815.78.917c3.38-.407 2.44-.907 5.4-2.018"/><path fill="#091733" d="M1677.96 981.371c-.09-2.76-.09 20.219.87 16.399-.17.088-1.19.337-1.29.355l.01.119.03-.057c5.61 3.963.04 2.343-2.52 7.873a19.9 19.9 0 0 1-4.57 6.19c-2 1.81-12.9 12.87-5.27 14.72 5.46 5.86 14.53 18.17 20.05 25.01l-3.43.51c-3.65-1.93-4.57-1.07-4.58 2.99l-.05 8.93c-11.59-13.15-23.73-27.4-34.62-41.14 6.58-7.35 12.94-14.87 19.09-22.57a354 354 0 0 1 16.28-19.329"/><path fill="#010102" d="M1637.26 1023.57c12.36-15.59 37.99-44.498 47.36-59.054-1.28 6.919-5.22 24.827-1.17 30.238 8.12-5.444 13.2-17.394 21.06-23.905-7.92 18.316-28.56 34.891-39.23 51.871-.9 1.44-.51 2.79-.06 4.25-7.63-1.85 3.27-12.91 5.27-14.72a19.9 19.9 0 0 0 4.57-6.19c2.56-5.53 8.13-3.91 2.52-7.873l-.03.057-.01-.119c.1-.018 1.12-.267 1.29-.355-.96 3.82-.96-19.159-.87-16.399a354 354 0 0 0-16.28 19.329c-6.15 7.7-12.51 15.22-19.09 22.57 10.89 13.74 23.03 27.99 34.62 41.14l.05-8.93c.01-4.06.93-4.92 4.58-2.99-.81 7.32.08 17.81.63 25.14-13.07-14.02-32.35-38.72-45.21-54.06"/><path fill="#080b14" d="m1714.35 865.801-.39 1.172c-7.78 8.639-18.09 25.577-26.13 32.532l-1.17-3.524c2.84-5.421 9.74-10.754 12.9-16.278.46-.807 3.17-5.759 3.55-5.869 3.13-.912 2.39-7.59 4.22-7.747l.84.815.78.917c3.38-.407 2.44-.907 5.4-2.018"/><path fill="#080b14" d="M1694.57 1155.75c5.98 5.33 13.01 17.15 19.18 23.65.12 2.11.12 3.98.12 6.09-.86-4.65-14.45-19.23-18.52-22.01-2.66-1.38-2.63-3.93-3.49-6.81.9-.31 1.81-.62 2.71-.92"/><path fill="#010102" d="M1708.74 923.065c-2.34 8.051-74.14 87.225-86.08 101.035 6.32 6.16 83.95 96.92 84.79 99.95l-1.22.19c-31.63-30.32-59.84-70.03-89.17-100.71 23.43-24.248 45.25-52.173 68.75-76.518 6.19-6.411 16.29-18.924 22.93-23.947"/><defs><linearGradient id="b" x1="1780.979" x2="1718.714" y1="758.863" y2="760.024" gradientUnits="userSpaceOnUse"><stop offset="0" stop-color="#001031"/><stop offset="1" stop-color="#252537"/></linearGradient></defs><path fill="url(#b)" d="M1717.24 685.247c6.34 6.376 12.3 13.084 18.11 19.941 16.1 18.993 33.13 37.169 49.39 56.014l-44.53 49.34c-6.54 7.341-16.75 18.276-22.05 25.794.37-5.92 1.1-14.867-.86-20.341l-.03-1.18-.36-4.134c1.57-29.527.08-71.865.21-102.814.26-7.095.08-15.424.12-22.62"/><defs><linearGradient id="c" x1="1755.984" x2="1719.089" y1="761.763" y2="760.981" gradientUnits="userSpaceOnUse"><stop offset="0" stop-color="#001031"/><stop offset="1" stop-color="#302b3b"/></linearGradient></defs><path fill="url(#c)" d="m1717.12 707.867.69.187q.12 1.788.3 4.405c11.81 15.671 29.09 33.589 41.23 48.606-11.77 14.253-29.79 37.088-42.43 49.616 1.57-29.527.08-71.865.21-102.814"/><path fill="#010102" d="M1717.81 708.054c16.71 17.173 32.44 33.67 47.63 52.286-6.93 11.198-37.21 44.886-47.53 54.346l-.64.129-.36-4.134c12.64-12.528 30.66-35.363 42.43-49.616-12.14-15.017-29.42-32.935-41.23-48.606q-.18-2.617-.3-4.405"/><defs><linearGradient id="d" x1="1780" x2="1719.989" y1="1286.991" y2="1287" gradientUnits="userSpaceOnUse"><stop offset="0" stop-color="#001032"/><stop offset="1" stop-color="#262536"/></linearGradient></defs><path fill="url(#d)" d="M1718.22 1212.27c20.67 23.48 44.96 53.06 66.35 75.03-19.48 22.15-39.91 43.38-58.21 66.54-2.55 3.23-5.05 6.49-7.97 9.4.17-6.63.7-14.6-1.04-20.86l-.22-4.76c-.15-35.1-.1-70.19.16-105.28l1.05-.22c.24-6.92.09-12.93-.12-19.85"/><defs><linearGradient id="e" x1="1756.021" x2="1719.383" y1="1287.484" y2="1288.009" gradientUnits="userSpaceOnUse"><stop offset="0" stop-color="#001234"/><stop offset="1" stop-color="#302b3b"/></linearGradient></defs><path fill="url(#e)" d="m1717.29 1232.34 1.05-.22-.21 1v4.84c9.05 14.04 30.37 36.97 41.1 48.83-11.06 15.86-29.05 34.49-41.63 51.11l-.47-.28c-.15-35.1-.1-70.19.16-105.28"/><path fill="#010102" d="M1718.13 1233.12c12.52 15.12 33.8 38.68 47.64 53.47-3.07 4.22-44.05 53.07-47.29 54.52l-.88-3.21c12.58-16.62 30.57-35.25 41.63-51.11-10.73-11.86-32.05-34.79-41.1-48.83z"/><defs><linearGradient id="f" x1="1745.235" x2="1718.239" y1="875.553" y2="875.448" gradientUnits="userSpaceOnUse"><stop offset="0" stop-color="#0a1733"/><stop offset="1" stop-color="#392e3b"/></linearGradient></defs><path fill="url(#f)" d="m1718.16 836.336.11 3.523c1.33-.256 26.14-27.125 29.23-30.301.4 43.174-.46 86.944.28 129.932-11.6-.013-21.11.851-32.13.999 2.19-15.3 1.53-33.439 1.51-49.155-.15-25.113-.1-50.227.14-75.339 1.96 5.474 1.23 14.421.86 20.341"/><defs><linearGradient id="g" x1="1745.816" x2="1719.188" y1="1173.525" y2="1173.154" gradientUnits="userSpaceOnUse"><stop offset="0" stop-color="#061633"/><stop offset="1" stop-color="#342c3b"/></linearGradient></defs><path fill="url(#g)" d="M1712.24 1090.23c3.53 3.53 5.45 15.83 5.58 20.71 6.13 2.53 21.93 1.68 29.42 1.6l-.27 125.9c-9.32-10.19-19.29-20.58-28.35-30.91-.23 1.87-.42 2.86-.4 4.74.21 6.92.36 12.93.12 19.85l-1.05.22-.16-76.45c-.01-12.87.21-26.65-.28-39.45-.26-6.84-3.73-17.65-4.48-24.8z"/><defs><linearGradient id="h" x1="1748.22" x2="1717.579" y1="1397.019" y2="1394.059" gradientUnits="userSpaceOnUse"><stop offset="0" stop-color="#031433"/><stop offset="1" stop-color="#2a2739"/></linearGradient></defs><path fill="url(#h)" d="m1718.39 1363.24-.18 4.51.59.23 29.41-32.94c.32 29.27.42 58.55.29 87.83-16.82 11.89-27.07 28.75-30.57 49.07-.19 1.1-.37 2.2-.53 3.3-.67-12.99-.2-30.49-.22-43.74l.17-89.12c1.74 6.26 1.21 14.23 1.04 20.86"/><defs><linearGradient id="i" x1="1745.867" x2="1718.951" y1="648.526" y2="649.517" gradientUnits="userSpaceOnUse"><stop offset="0" stop-color="#051735"/><stop offset="1" stop-color="#292638"/></linearGradient></defs><path fill="url(#i)" d="M1717.05 576.712c6.44 18.651 12.95 36.932 30.94 47.969l.12 88.313c-7.84-8.632-24.93-26.338-30.95-34.86z"/><path fill="#222230" d="M1695.35 1163.48c4.07 2.78 17.66 17.36 18.52 22.01.04 19.88.31 40.38.07 60.21l-.4 2.84c-.2 1.35-.5 1.72-1.13 2.83-1.18 2.11.43 10.91-.92 12.35l-.08.01c-.6-.48-.24-1.1-1.33-2.18v-.01c-.3.96-.08 13.05-.08 14.95l.08-.09c-.07.02-12.61 12.33-13.85 13.51l-.04-11.92c.16-31.67 1.38-79.6-.75-110.39z"/><path fill="#080b14" d="M1713.94 1245.7c-.06 17.7-1.34 60.29.17 76.23-2.09 2.08-3.47 3.29-5.73 5.14-1.97-5.07 4.34-2.27 3.62-9.78-.76-8.04 1.46-28.36.04-35.19l-.42-.22c-6.34 5.19-11.91 11.39-17.54 15.88.5-1.16 3.41-5.63 3.09-6.15-.39-.2-.49-.13-1.05-.14l.11-1.56c1.24-1.18 13.78-13.49 13.85-13.51l-.08.09c0-1.9-.22-13.99.08-14.95v.01c1.09 1.08.73 1.7 1.33 2.18l.08-.01c1.35-1.44-.26-10.24.92-12.35.63-1.11.93-1.48 1.13-2.83z"/><path fill="#222230" d="M1709.03 861.032c.72-5.202-.64-13.617 4.97-14.429.12 6.475-.13 12.748.35 19.198-2.96 1.111-2.02 1.611-5.4 2.018-.34-3.342-.61-3.564.08-6.787"/><path fill="#d76f46" d="M333.106 554.477c1.791 10.404.97 29.939 1.091 41.082.291 26.809-.643 54.196-.025 80.988a2077 2077 0 0 0-.17 47.429l.019 1.44.394 3.656-.345 81.757c1.59 2.171 1.506 1.968 2.21 4.721 1.125.446 3.905-.773 3.616.05-.398 1.128 2.19 21.428-3.204 16.84-.124-1.74 2.366-2.397-.106-4.025.03-.001-1.477 4.39-2.418 5.766l-.269 33.554c4.305 5.024 10.164 11.634 13.862 17.061 4.824 4.414 27.359 34.533 32.777 41.488 25.264 32.427 52.071 64.686 77.004 97.286l-87.772 112.31c-6.858 8.84-23.629 33.69-30.435 39.19 5.226-1.38 6.11-4.53 11.112-9.24-1.257 7.6-7.833 9.13-8.664 15.3-1.955 14.53-.108 29.72-.278 44.36.273 16.01-.66 34.3.383 50.01 2.347 2.48 6.038 5.71 6.875 8.8.863 1.34.972 1.71 1.567 3.2-.865 1.45-.894 1.3-1.119 2.87l4.59 5.43c-9.987-1.15-7.296-9.61-16.377-11.78l-.845-2.84c-.354 15.76-1.451 25.25 1.53 41.2 2.412 2.44 4.364 3.4 4.44 6.61-2.515-2.06-6.79-5.06-8.439-7.73l.001 4.06-.057 108.99c.019 9.18.709 46.69-.842 54.21-.854-4.25-1.519-9.03-2.22-13.35-2.562-22.17-14.054-38.69-31.115-52.1.154-29.39.136-58.79-.056-88.18 10.643 11.22 20.804 22.82 31.296 34.09l-.288-4.16c-3.768-2.61-26.474-32.08-30.869-37.33a1918 1918 0 0 0-35.336-40.37c20.206-22.9 44.21-52.03 64.862-73.21l1.192.72.39-6.7c-9.417 9.38-20.165 21.48-29.41 31.3.559-41.93.186-84.73.118-126.72 7.464.13 24.75 1.25 30.497-1.82 1.291-8.27 2.476-13.49 4.621-21.61-4.316 7.45-4.86 11.35-7.891 19.63-6.706 2.53-59.963 1.54-72.32 1.62-4.784-4.02-14.012-9.64-19.562-13.24q-.56-70.71-.123-141.421c5.172-4.337 13.681-9.849 19.432-13.818 11.208.036 73.659-1.23 77.066.947l-.375-3.309-31.147.001-.192-129.187c8.73 9.53 18.412 21.208 27.591 29.973l.249-4.05c-.131-4.67-.95-16.342 1.108-19.787l.001-2.209.238-1.428c-1.92-6.822-34.963-42.668-42.492-51.624 13.553-15.696 27.332-30.804 40.677-46.745.326-2.194.494-3.126 1.52-5.089l-.154-11.609c-1.8-2.173-.785-11.275-.895-14.453-9.722 9.442-19.309 21.551-29.115 30.453q-.085-44.852.404-89.7c19.374-15.194 24.093-28.966 30.101-52.357-.056-3.187 1.592-13.625 2.091-17.201"/><path fill="#091733" d="M256.43 941.851c11.208.036 73.659-1.23 77.066.947 8.515 45.314 18.683 45.226 46.721 82.492-18.45 24.26-32.514 35.29-43.323 63.79-4.316 7.45-4.86 11.35-7.891 19.63-6.706 2.53-59.963 1.54-72.32 1.62-4.784-4.02-14.012-9.64-19.562-13.24q-.56-70.71-.123-141.421c5.172-4.337 13.681-9.849 19.432-13.818"/><defs><linearGradient id="j" x1="455.857" x2="327.991" y1="1018.513" y2="1023.768" gradientUnits="userSpaceOnUse"><stop offset="0" stop-color="#001032"/><stop offset="1" stop-color="#242538"/></linearGradient></defs><path fill="url(#j)" d="M333.899 867.735c4.305 5.024 10.164 11.634 13.862 17.061 4.824 4.414 27.359 34.533 32.777 41.488 25.264 32.427 52.071 64.686 77.004 97.286l-87.772 112.31c-6.858 8.84-23.629 33.69-30.435 39.19-1.111.35-2.15 1.87-3.182 2.97l-.883-.25-1.007-8.32c-1.934-26.61-.804-69.82 11.749-93.33 4.947-9.27 11.697-17.26 18.365-25.4 6.955-8.79 13.591-15.88 19.832-25.36-6.102-8.79-13.36-16.99-19.35-25.624-5.861-6.518-13.892-15.202-17.837-22.863-15.863-30.804-13.195-75.201-13.123-109.158"/><path fill="#010102" d="M425.536 1023.59c-9.062-10.28-86.229-97.493-86.944-101.874l1.854-.429c6.261 8.98 21.497 23.298 29.217 32.376 19.554 22.998 42.125 46.517 61.075 69.837-9.306 10.48-85.406 100.04-90.668 101.86l-.337-1.41c9.651-12.37 20.108-23.68 28.718-34.85.003-8.86.572-29.51-.288-37.61l-3.786-.75c6.955-8.79 13.591-15.88 19.832-25.36-6.102-8.79-13.36-16.99-19.35-25.624 2.561-3.477.91-9.152 2.641-14.219 1.466-4.274 1.023-8.745.99-13.351 13.116 15.889 30.866 35.734 42.689 51.884-11.252 13.57-22.604 27.19-33.398 41.13-3.819 4.93-9.949 12.19-5.864 18.6 3.211-1.13 47.357-53.09 53.619-60.21"/><path fill="#091733" d="M364.859 999.756c2.561-3.477.91-9.152 2.641-14.219 1.326 3.849 3.13 6.054 1.36 10.476-.928 2.176 1.663 3.685 2.893 2.339.952-1.041.28-8.489.294-9.88.057-5.736 4.623 1.291 5.508 2.346 9.392 11.192 19.053 21.972 28.861 32.782-3.38 3.9-6.677 7.88-9.887 11.92-7.824 9.76-16.608 19.81-24.99 29.08.42-5.34 4.12-16.43-3.376-13.11l-3.786-.75c6.955-8.79 13.591-15.88 19.832-25.36-6.102-8.79-13.36-16.99-19.35-25.624"/><path fill="#091733" d="M264.624 1287.12c20.206-22.9 44.21-52.03 64.862-73.21l1.192.72.018 16.01.271 8.34c-.563 31.53-.608 66.98-.001 98.53l-.011 4.57-.126 22.74c-3.768-2.61-26.474-32.08-30.869-37.33a1918 1918 0 0 0-35.336-40.37"/><defs><linearGradient id="k" x1="291.111" x2="329.036" y1="1284.735" y2="1286.6" gradientUnits="userSpaceOnUse"><stop offset="0" stop-color="#001235"/><stop offset="1" stop-color="#352c3a"/></linearGradient></defs><path fill="url(#k)" d="M288.832 1287.04c14.505-15.27 27.229-32.88 42.135-48.06-.563 31.53-.608 66.98-.001 98.53-5.272-10.16-31.607-36.79-40.101-47.96z"/><path fill="#010102" d="M282.372 1287.03c8.546-11.21 47.992-48.7 48.324-56.39l.271 8.34c-14.906 15.18-27.63 32.79-42.135 48.06l2.033 2.51c8.494 11.17 34.829 37.8 40.101 47.96l-.011 4.57c-14.939-18.78-33.713-35.27-48.583-55.05"/><defs><linearGradient id="l" x1="302.717" x2="328.688" y1="876.078" y2="875.931" gradientUnits="userSpaceOnUse"><stop offset="0" stop-color="#051533"/><stop offset="1" stop-color="#322a39"/></linearGradient></defs><path fill="url(#l)" d="M301.782 810.303c8.73 9.53 18.412 21.208 27.591 29.973l.249-4.05c-.131-4.67-.95-16.342 1.108-19.787.124 34.08-2.374 92.019 2.391 123.05l-31.147.001z"/><defs><linearGradient id="m" x1="301.7" x2="327.76" y1="1173.689" y2="1174.276" gradientUnits="userSpaceOnUse"><stop offset="0" stop-color="#061634"/><stop offset="1" stop-color="#2f2938"/></linearGradient></defs><path fill="url(#m)" d="M301.776 1112.51c7.464.13 24.75 1.25 30.497-1.82-2.871 21.95-1.401 72.89-1.205 97.24-9.417 9.38-20.165 21.48-29.41 31.3.559-41.93.186-84.73.118-126.72"/><defs><linearGradient id="n" x1="302.13" x2="328.208" y1="648.033" y2="649.018" gradientUnits="userSpaceOnUse"><stop offset="0" stop-color="#061635"/><stop offset="1" stop-color="#292636"/></linearGradient></defs><path fill="url(#n)" d="M300.914 624.035c19.374-15.194 24.093-28.966 30.101-52.357.069 41.078.839 85.22-.495 126.057-1.8-2.173-.785-11.275-.895-14.453-9.722 9.442-19.309 21.551-29.115 30.453q-.085-44.852.404-89.7"/><defs><linearGradient id="o" x1="300.977" x2="328.105" y1="1397.055" y2="1395.942" gradientUnits="userSpaceOnUse"><stop offset="0" stop-color="#051634"/><stop offset="1" stop-color="#2a2637"/></linearGradient></defs><path fill="url(#o)" d="M299.821 1334.89c10.643 11.22 20.804 22.82 31.296 34.09l-.125 106.19c-2.562-22.17-14.054-38.69-31.115-52.1.154-29.39.136-58.79-.056-88.18"/><defs><linearGradient id="p" x1="291.977" x2="328.662" y1="761.422" y2="759.933" gradientUnits="userSpaceOnUse"><stop offset="0" stop-color="#013"/><stop offset="1" stop-color="#2f2938"/></linearGradient></defs><path fill="url(#p)" d="M288.477 761.178c13.553-15.696 27.332-30.804 40.677-46.745.326-2.194.494-3.126 1.52-5.089.805 34.045-1.007 69.858.295 103.458-1.92-6.822-34.963-42.668-42.492-51.624"/><path fill="#222230" d="M339.335 1175.07c5.226-1.38 6.11-4.53 11.112-9.24-1.257 7.6-7.833 9.13-8.664 15.3-1.955 14.53-.108 29.72-.278 44.36.273 16.01-.66 34.3.383 50.01 2.347 2.48 6.038 5.71 6.875 8.8.863 1.34.972 1.71 1.567 3.2-.865 1.45-.894 1.3-1.119 2.87l4.59 5.43c-9.987-1.15-7.296-9.61-16.377-11.78l-.845-2.84c-.354 15.76-1.451 25.25 1.53 41.2 2.412 2.44 4.364 3.4 4.44 6.61-2.515-2.06-6.79-5.06-8.439-7.73 1.523-48.22-.569-102.66.153-151.79l1.007 8.32.883.25c1.032-1.1 2.071-2.62 3.182-2.97"/><path fill="#080b14" d="M338.845 1277.13c2.586 1.82 7.502 6.17 9.918 7.17.863 1.34.972 1.71 1.567 3.2-.865 1.45-.894 1.3-1.119 2.87-2.822-1.74-4.364-4.4-6.185-7.07z"/><path fill="#222230" d="M334.07 810.829c1.59 2.171 1.506 1.968 2.21 4.721 1.125.446 3.905-.773 3.616.05-.398 1.128 2.19 21.428-3.204 16.84-.124-1.74 2.366-2.397-.106-4.025.03-.001-1.477 4.39-2.418 5.766-.332-7.78-.364-15.57-.098-23.352"/><path fill="#d76f46" d="M955.557 237.425c12.391.78 31.849.125 44.663.102 30.86-.221 61.73-.146 92.59.226l14.72 23.498c-.42 10.571-1.01 60.088 1.86 67.445q.75-18.302.66-36.619c41.94.997 85.01.471 127.06.649-8.17 7.024-35.16 28.81-40.34 34.631 2.29.039 3.05.129 5.31-.157 4.79-4.495 10.55-8.995 15.79-13.003 22.22-16.986 43.06-35.041 64.16-53.387a2806 2806 0 0 0 49.93 42.581c7.65 6.284 24.54 19.172 30.87 25.415l5.12.136c-13.36-11.552-26.78-24.801-40.92-35.469l91.26-.461c14.13 22.394 28.01 29.873 53.29 35.612l8.52 1.903c-12.18 1.333-27.78.973-40.36 1.085-22.09.23-44.19.323-66.28.28-2.74-.031-5.47-.042-8.21-.031l-48.33-.143-2.62.62-125.39-.212c-22.13-.003-54.09-1.079-74.68 2.22l-7.69 1.335 1.13 3.161c-.5 6.144-.5 13.01-.54 19.209l-1.39 1.36c-7.4 7.425-9.22 4.494-19.28 6.096-3.6.574-1.99-1.906-3.7-3.212-7.3-2.378-20.45 3.448-26.73-1.841l-6.99 4.712c2.66.36 2.75 1.525 4.44 1.467 6.36-.22 12.75-.131 19.13-.123-15.1 12.24-33.23 26.77-47.34 40.029-14.87-12.297-29.611-26.356-44.995-37.816l-4.812-4.002q7.157.046 14.311.249c-8.179-5.422-15.536-4.587-25.108-2.312-12.949 3.078-12.029 3.311-22.873-6.013-.311-6.9-.287-13.296-.284-20.192-19.423-6.183-106.376-4.12-132.423-4.356l-18.736.068c-18.719.134-37.467.322-56.178-.196l-50.888-.287q-3.232.106-6.466.108c-26.652.156-53.411-.522-80.073-.484-8.043.011-17.422.242-25.289-1.016l7.087-1.633c23.501-5.295 37.395-17.056 50.314-36.546 31.047.549 63.145.22 94.341.497-8.113 7.171-33.335 27.4-38.702 34.693l3.41.617c24.805-21.781 54.873-46.519 80.647-67.533 12.086 9.55 23.843 19.554 35.975 29.052 11.345 8.882 24.983 17.828 35.406 27.707 4.562 4.239 9.192 7.021 13.963 11.746l6.869.006c-7.319-4.078-34.955-28.839-44.225-36.044l122.972-.029c-.078 10.756-1.022 30.079 1.692 39.821l5.583 1.633-.51-.758c-6.92-10.547-4.324-23.811-4.132-36.151q.124-19.239.042-38.479c4.334-5.742 9.55-15.06 13.369-21.464"/><path fill="#091733" d="M955.557 237.425c12.391.78 31.849.125 44.663.102 30.86-.221 61.73-.146 92.59.226l14.72 23.498c-.42 10.571-1.01 60.088 1.86 67.445l-.19 1.689c-4.39.858-5.43.726-8.62 3.843-26.23 8.198-56.82 27.758-77.02 46.387-20.45-18.918-50.466-37.459-76.772-46.338l-.51-.758c-6.92-10.547-4.324-23.811-4.132-36.151q.124-19.239.042-38.479c4.334-5.742 9.55-15.06 13.369-21.464"/><defs><linearGradient id="q" x1="769.352" x2="763.622" y1="263.114" y2="330.887" gradientUnits="userSpaceOnUse"><stop offset="0" stop-color="#001333"/><stop offset="1" stop-color="#212336"/></linearGradient></defs><path fill="url(#q)" d="M768.553 260.385c12.086 9.55 23.843 19.554 35.975 29.052 11.345 8.882 24.983 17.828 35.406 27.707l-1.962.454c-6.662 1.487-11.442 1.482-16.628 5.796 1.32 1.264 4.298 3.492 4.903 5.117-.196.535-.457.54-1.08.967l-2.995-.402-18.318-.039-5.206.198c-25.466-.867-58.365-.716-83.769-.248l-8.158-.384c-3.078-2.188-14.557-.936-18.815-.685 24.805-21.781 54.873-46.519 80.647-67.533"/><defs><linearGradient id="r" x1="770.177" x2="767.874" y1="288.068" y2="327.669" gradientUnits="userSpaceOnUse"><stop offset="0" stop-color="#000e2e"/><stop offset="1" stop-color="#332d3b"/></linearGradient></defs><path fill="url(#r)" d="M768.642 285.249a3136 3136 0 0 0 53.53 43.827l-18.318-.039-5.206.198c-25.466-.867-58.365-.716-83.769-.248l.009-.693c14.84-9.723 39.079-31.165 53.754-43.045"/><path fill="#222230" d="M798.648 329.235c-.477-.295-13.842-8.253-5.693-6.928 2.044.332 8.85 5.285 10.899 6.73z"/><path fill="#010102" d="M768.332 279.327c11.04 8.572 20.568 16.049 31.168 25.197 6.235 5.381 15.673 14.225 21.844 18.87 1.32 1.264 4.298 3.492 4.903 5.117-.196.535-.457.54-1.08.967l-2.995-.402a3136 3136 0 0 1-53.53-43.827c-14.675 11.88-38.914 33.322-53.754 43.045l-2.196-.838c4.822-7.22 46.143-40.336 55.64-48.129"/><defs><linearGradient id="s" x1="1283.406" x2="1280.885" y1="264.056" y2="327.917" gradientUnits="userSpaceOnUse"><stop offset="0" stop-color="#001131"/><stop offset="1" stop-color="#262639"/></linearGradient></defs><path fill="url(#s)" d="M1202.08 327.2c4.79-4.495 10.55-8.995 15.79-13.003 22.22-16.986 43.06-35.041 64.16-53.387a2806 2806 0 0 0 49.93 42.581c7.65 6.284 24.54 19.172 30.87 25.415-8.84-.041-17.87.144-26.73.231-13.13-.737-31 .023-44.49-.011-20.66-.05-42.22-.379-62.81.085l-3.86-.359-16.32-.083c-2.51-.773-3.98-.99-6.54-1.469"/><defs><linearGradient id="t" x1="1279.474" x2="1280.534" y1="288.042" y2="326.234" gradientUnits="userSpaceOnUse"><stop offset="0" stop-color="#000d2e"/><stop offset="1" stop-color="#2f2b3b"/></linearGradient></defs><path fill="url(#t)" d="M1228.8 329.111c16.12-14.366 36.19-28.706 53.15-43.294 15.04 13.232 33.17 28.802 49.11 41.314 1.09.862 4 .919 5.38.98l-.34.926c-13.13-.737-31 .023-44.49-.011-20.66-.05-42.22-.379-62.81.085"/><path fill="#010102" d="M1282.17 279.723c7.76 6.332 51 42.291 54.27 48.388-1.38-.061-4.29-.118-5.38-.98-15.94-12.512-34.07-28.082-49.11-41.314-16.96 14.588-37.03 28.928-53.15 43.294l-3.86-.359c9.63-10.411 45.77-40.258 57.23-49.029"/><defs><linearGradient id="u" x1="1171.4" x2="1171.591" y1="293.666" y2="327.665" gradientUnits="userSpaceOnUse"><stop offset="0" stop-color="#001433"/><stop offset="1" stop-color="#2e2939"/></linearGradient></defs><path fill="url(#u)" d="M1110.05 292.077c41.94.997 85.01.471 127.06.649-8.17 7.024-35.16 28.81-40.34 34.631 2.29.039 3.05.129 5.31-.157 2.56.479 4.03.696 6.54 1.469-34.45.313-75.53-2.796-108.04 5.559 3.19-3.117 4.23-2.985 8.62-3.843l.19-1.689q.75-18.302.66-36.619"/><defs><linearGradient id="v" x1="879.264" x2="878.77" y1="293.534" y2="327.161" gradientUnits="userSpaceOnUse"><stop offset="0" stop-color="#001433"/><stop offset="1" stop-color="#2f2b3a"/></linearGradient></defs><path fill="url(#v)" d="m816.541 292.852 122.972-.029c-.078 10.756-1.022 30.079 1.692 39.821-19.847-4.864-58.699-3.627-80.439-3.748-7.319-4.078-34.955-28.839-44.225-36.044"/><defs><linearGradient id="w" x1="655.074" x2="655.901" y1="293.358" y2="325.669" gradientUnits="userSpaceOnUse"><stop offset="0" stop-color="#011534"/><stop offset="1" stop-color="#282738"/></linearGradient></defs><path fill="url(#w)" d="M628.857 292.111c31.047.549 63.145.22 94.341.497-8.113 7.171-33.335 27.4-38.702 34.693l3.41.617c4.258-.251 15.737-1.503 18.815.685-42.633.507-85.453-.433-128.178.054 23.501-5.295 37.395-17.056 50.314-36.546"/><defs><linearGradient id="x" x1="1392.536" x2="1392.466" y1="294.946" y2="325.057" gradientUnits="userSpaceOnUse"><stop offset="0" stop-color="#011331"/><stop offset="1" stop-color="#2b2837"/></linearGradient></defs><path fill="url(#x)" d="m1327.03 293.473 91.26-.461c14.13 22.394 28.01 29.873 53.29 35.612-31.75-.656-71.86-.388-103.63.318-13.36-11.552-26.78-24.801-40.92-35.469"/><path fill="#091733" d="M994.186 362.289c10.634 7.078 20.134 14.945 29.964 23.019 8.83-9.206 14.21-12.822 24.89-20.142 2.66.36 2.75 1.525 4.44 1.467 6.36-.22 12.75-.131 19.13-.123-15.1 12.24-33.23 26.77-47.34 40.029-14.87-12.297-29.611-26.356-44.995-37.816l-4.812-4.002q7.157.046 14.311.249c2.304-1.054 2.23-1.093 4.412-2.681"/><defs><linearGradient id="y" x1="1087.954" x2="1081.854" y1="365.092" y2="345.278" gradientUnits="userSpaceOnUse"><stop offset="0" stop-color="#071834"/><stop offset="1" stop-color="#2d2939"/></linearGradient></defs><path fill="url(#y)" d="M1056.03 360.454c14.75-12.115 32.67-19.114 50.51-24.773l1.13 3.161c-.5 6.144-.5 13.01-.54 19.209l-1.39 1.36c-7.4 7.425-9.22 4.494-19.28 6.096-3.6.574-1.99-1.906-3.7-3.212-7.3-2.378-20.45 3.448-26.73-1.841"/><defs><linearGradient id="z" x1="959.08" x2="965.036" y1="363.754" y2="346.499" gradientUnits="userSpaceOnUse"><stop offset="0" stop-color="#0c1932"/><stop offset="1" stop-color="#2e2938"/></linearGradient></defs><path fill="url(#z)" d="M941.509 336.453c15.235 3.11 40.51 15.911 52.677 25.836-2.182 1.588-2.108 1.627-4.412 2.681-8.179-5.422-15.536-4.587-25.108-2.312-12.949 3.078-12.029 3.311-22.873-6.013-.311-6.9-.287-13.296-.284-20.192"/><path fill="#222230" d="M839.934 317.144c4.562 4.239 9.192 7.021 13.963 11.746-5.611.008-24.289 1.191-28.73.588.623-.427.884-.432 1.08-.967-.605-1.625-3.583-3.853-4.903-5.117 5.186-4.314 9.966-4.309 16.628-5.796z"/><path fill="#d76f46" d="M1025.4 1642.25c16.52 14.09 33.6 28.15 50.49 41.8-4.42.15-15.25-.85-17.88 2.02 2.6 2.55 7.55 1.63 9.48 1.92 1.68.26 19.04 1.22 19.11-.36.2-4.44-1.41-4.72 11.69-4.05 3.25 2.29 6.47 4.64 9.66 7.02.29 8.24.51 15.4.56 23.66 29.83 4.15 46.61 3.24 76.76 3.31 2.98-2.64 8.96-.01 10.81-1.21-.06-.26-4.08-4.94-4.63-5.72.19-.59.57-2.74 1.16-2.92 1.76-.53 5.67-.46 7.3.14 1.33.9 5.7.95 7.06.26 3.66-1.86 2.17 2.19 4.36.89 1.2 2.61 1.14 2.59 3.53 4.16l3.04 1.97c.99.63 1.81 1.43 2.69 2.2 16.98-.74 34.88-.39 51.96-.39 14.41-.01 32.23-.74 46.53.26 34.23.5 68.47.7 102.71.61 8 .01 41.22-.5 47.76.93l-10.71 2.32c-18.51 8.1-26.52 12.02-38.54 28.42-29.04-.16-58.56.5-87.76.48 8.74-8.67 21.73-19.49 31.29-28.33l-4.4-.13c-4.87 5.41-24.42 19.58-31.06 25.28-15.38 13.17-31.38 26.38-47.03 39.25-8.78-5.94-26.46-21.38-35.12-28.72l-43.32-36.2-3.53.69c8.6 9.53 22.03 19.32 31.5 28.31l-87.02-.35c-5.2-.02-30.84.16-34.07-.58 1.12-5.19.19-25.26.02-31.56l-1.6-.77c-.39 11.61-1.7 37.09-.4 48.35l-.1 20.48c-5.62 7.32-9.94 15.58-15.66 23.28-45.61-.22-91.21-.11-136.814.33-4.14-7.87-8.5-15.62-13.075-23.24q-.05-34.575-.725-69.15l-1.065.25-.356 32.33H818.228c9.711-7.06 22.346-18.68 31.356-27.08l.033-.85-1.64.1-3.075-.32c-4.436.2-17.563.46-21.806-.27-1.197-.02-3.781-.08-4.727.53-16.525 10.63-36.385 28.51-50.838 41.24-14.782-12.42-33.487-30.77-48.941-41.4 2.83.04 5.031.84 7.136-1.02-10.636-.25-23.71.48-34.801.61l-5.746-.22a3266 3266 0 0 1 31.985 28.68l-90.494.01c-12.119-16.34-20.373-21.66-39.12-28.54-2.668-.35-7.119-1.44-9.9-2.02 5.989-1.58 32.844-1.08 40.614-1.08l76.762-.08c12.986-.03 30.043.44 42.484-.48 5.576-.9 35.923-.47 42.819-.47l89.126.72c27.51.03 44.929.85 72.231-3.95.099-7.7.748-14.68.964-22.28 3.056-2.58 8.167-5.33 10.356-7.63l1.332.77c2.809 1.65 4.063.24 6.368 2.39 7.254 3.33 27.224 1.7 34.45-1.34-3.542-2.53-15.698-.72-21.285-.44 16.324-14.46 34.419-27.29 50.589-41.98z"/><path fill="#091733" d="M941.426 1716.91c33.978-8.62 55.412-25.09 82.084-47.67 21.52 17.33 56.79 45.19 84.69 47.62-.39 11.61-1.7 37.09-.4 48.35l-.1 20.48c-5.62 7.32-9.94 15.58-15.66 23.28-45.61-.22-91.21-.11-136.814.33-4.14-7.87-8.5-15.62-13.075-23.24q-.05-34.575-.725-69.15"/><defs><linearGradient id="A" x1="1284.742" x2="1279.502" y1="1781.781" y2="1716.28" gradientUnits="userSpaceOnUse"><stop offset="0" stop-color="#001235"/><stop offset="1" stop-color="#2a2737"/></linearGradient></defs><path fill="url(#A)" d="m1226.62 1720.36 5.05.01c41.9.63 84.56-.22 126.66.12l-.21.84 1.31.18c-4.87 5.41-24.42 19.58-31.06 25.28-15.38 13.17-31.38 26.38-47.03 39.25-8.78-5.94-26.46-21.38-35.12-28.72l-43.32-36.2c7.25.47 16.8 1.12 23.72-.76"/><defs><linearGradient id="B" x1="1280.303" x2="1281.566" y1="1759.01" y2="1721.547" gradientUnits="userSpaceOnUse"><stop offset="0" stop-color="#001234"/><stop offset="1" stop-color="#302b3a"/></linearGradient></defs><path fill="url(#B)" d="M1231.67 1720.37c41.9.63 84.56-.22 126.66.12l-.21.84c-6.74.12-15.41.54-21.93-.26-1.1-.01-4.03-.06-4.85.47-15.68 10.15-36.03 28.96-49.97 41.12-13.14-9.41-36.41-30.52-49.63-41.74z"/><path fill="#010102" d="M1231.74 1720.92c13.22 11.22 36.49 32.33 49.63 41.74 13.94-12.16 34.29-30.97 49.97-41.12.82-.53 3.75-.48 4.85-.47-4.93 3.53-15.63 13.76-20.8 18.42-11.14 9.99-22.39 19.87-33.74 29.62-14.95-11.77-40.15-33.94-53.91-47.41z"/><defs><linearGradient id="C" x1="1168.928" x2="1169.067" y1="1747.721" y2="1720.289" gradientUnits="userSpaceOnUse"><stop offset="0" stop-color="#061734"/><stop offset="1" stop-color="#322b37"/></linearGradient></defs><path fill="url(#C)" d="M1109.8 1717.63c27.7 5.43 85.69 2.27 116.82 2.73-6.92 1.88-16.47 1.23-23.72.76l-3.53.69c8.6 9.53 22.03 19.32 31.5 28.31l-87.02-.35c-5.2-.02-30.84.16-34.07-.58 1.12-5.19.19-25.26.02-31.56"/><defs><linearGradient id="D" x1="881.164" x2="880.254" y1="1748.88" y2="1721.843" gradientUnits="userSpaceOnUse"><stop offset="0" stop-color="#051836"/><stop offset="1" stop-color="#2f2a3a"/></linearGradient></defs><path fill="url(#D)" d="M844.669 1720.41c29.502.31 67.644 2.33 95.692-3.25l-.356 32.33H818.228c9.711-7.06 22.346-18.68 31.356-27.08l.033-.85-1.64.1-3.075-.32z"/><defs><linearGradient id="E" x1="656.963" x2="657.034" y1="1747.089" y2="1723.917" gradientUnits="userSpaceOnUse"><stop offset="0" stop-color="#071835"/><stop offset="1" stop-color="#2e2938"/></linearGradient></defs><path fill="url(#E)" d="m587.55 1720.96 97.629-.15a3266 3266 0 0 1 31.985 28.68l-90.494.01c-12.119-16.34-20.373-21.66-39.12-28.54"/><defs><linearGradient id="F" x1="1391.863" x2="1392.134" y1="1747.577" y2="1722.674" gradientUnits="userSpaceOnUse"><stop offset="0" stop-color="#071735"/><stop offset="1" stop-color="#2d2a38"/></linearGradient></defs><path fill="url(#F)" d="M1358.33 1720.49c33.37.55 67.07.3 100.51.58-18.51 8.1-26.52 12.02-38.54 28.42-29.04-.16-58.56.5-87.76.48 8.74-8.67 21.73-19.49 31.29-28.33l-4.4-.13-1.31-.18z"/><defs><linearGradient id="G" x1="768.081" x2="767.999" y1="1758.998" y2="1721.931" gradientUnits="userSpaceOnUse"><stop offset="0" stop-color="#001132"/><stop offset="1" stop-color="#2d2b3a"/></linearGradient></defs><path fill="url(#G)" d="M725.726 1720.42c39.647-.33 79.296-.33 118.943-.01l.233.93c-4.436.2-17.563.46-21.806-.27-1.197-.02-3.781-.08-4.727.53-16.525 10.63-36.385 28.51-50.838 41.24-14.782-12.42-33.487-30.77-48.941-41.4 2.83.04 5.031.84 7.136-1.02"/><path fill="#091733" d="M1025.4 1642.25c16.52 14.09 33.6 28.15 50.49 41.8-4.42.15-15.25-.85-17.88 2.02-3.17-3.32-6.62-3.28-11.19-3.56-4.12-1.93-19.05-14.32-22.94-17.58-8.62 6.25-19.15 15.41-27.757 20.92l-.967-.34c-3.542-2.53-15.698-.72-21.285-.44 16.324-14.46 34.419-27.29 50.589-41.98z"/><defs><linearGradient id="H" x1="1088.974" x2="1082.276" y1="1682.427" y2="1703.318" gradientUnits="userSpaceOnUse"><stop offset="0" stop-color="#051632"/><stop offset="1" stop-color="#2f2a38"/></linearGradient></defs><path fill="url(#H)" d="M1046.82 1682.51c4.57.28 8.02.24 11.19 3.56 2.6 2.55 7.55 1.63 9.48 1.92 1.68.26 19.04 1.22 19.11-.36.2-4.44-1.41-4.72 11.69-4.05 3.25 2.29 6.47 4.64 9.66 7.02.29 8.24.51 15.4.56 23.66-2.34-.76-4.71-1.31-7.07-1.96-6.96-1.8-13.75-4.21-20.29-7.2l-.91-.43c-10.2-4.76-25.03-14.54-33.42-22.16"/><defs><linearGradient id="I" x1="959.264" x2="965.586" y1="1684.433" y2="1702.626" gradientUnits="userSpaceOnUse"><stop offset="0" stop-color="#0a1934"/><stop offset="1" stop-color="#2e2937"/></linearGradient></defs><path fill="url(#I)" d="m953.006 1683.69 1.332.77c2.809 1.65 4.063.24 6.368 2.39 7.254 3.33 27.224 1.7 34.45-1.34l.967.34c-17.768 15.47-32.07 21.85-54.437 27.75.099-7.7.748-14.68.964-22.28 3.056-2.58 8.167-5.33 10.356-7.63"/><path fill="#222230" d="M1191.45 1710.64c.19-.59.57-2.74 1.16-2.92 1.76-.53 5.67-.46 7.3.14 1.33.9 5.7.95 7.06.26 3.66-1.86 2.17 2.19 4.36.89 1.2 2.61 1.14 2.59 3.53 4.16l3.04 1.97c.99.63 1.81 1.43 2.69 2.2-5.62.43-29.94.52-35.32.23 2.98-2.64 8.96-.01 10.81-1.21-.06-.26-4.08-4.94-4.63-5.72"/><path fill="#091733" d="M1610.62 669.782c15.46 15.744 89.85 88.236 96.87 102.628 2.62 5.384 1.95 12.917 1.9 18.771-.21 23.252-.72 46.606-.36 69.851-.69 3.223-.42 3.445-.08 6.787l-.78-.917-.84-.815c-1.83.157-1.09 6.835-4.22 7.747-.38.11-3.09 5.062-3.55 5.869-3.16 5.524-10.06 10.857-12.9 16.278-7.3 6.85-21.47 26.627-28.69 35.159-23.87 28.215-46.38 60.03-69.89 88.09l-8.73-9.02c12.81-13.858 26.66-32.204 38.73-47.175a4192 4192 0 0 0 60.21-75.541c3.27-3.62 4.48-4.907 4.51-10.042l-1.1-.83-2.51 1.679c-1.98 3.751-4.52 6.514-7.2 9.799l-.09-75.015c0-13.958.51-31.841-.81-45.448-6.47-8.754-5.69-9.364-5.75-20.483 4.15 5.002 9.49 10.466 14 15.292l5.01 5.418c6.05 5.85 7.3 7.321 14.73 11.418-4.97-7.83-27.43-33.77-35.98-40.426-.69-.535-1.53.142-2.47.563-.91 7.138-.11 19.46.14 27.047l6.2 5.802.52 99.722c-8.64 9.025-17.7 19.125-26.44 27.831l.49-98.824c.21-26.917.99-60.819-.25-87.397-8.03-8.751-12.08-13.288-19.15-23.009l-.31 259.694c-3.58 4.231-7.33 8.845-10.98 12.961l.14-184.32c-.04-35.747.49-73.56-.37-109.144"/><path fill="#091733" d="M1665.34 747.154c4.15 5.002 9.49 10.466 14 15.292l-.6 79.391c-.06 7.344-1.05 31.527.45 36.464-1.98 3.751-4.52 6.514-7.2 9.799l-.09-75.015c0-13.958.51-31.841-.81-45.448-6.47-8.754-5.69-9.364-5.75-20.483"/><path fill="#080b14" d="m1679.34 762.446 5.01 5.418c-2.04 2.999-.72 23.184-.65 28.047q.51 37.696.39 75.394c-.01 4.225.19 21.779-.99 24.849l-.48-1.183.78 1.219c-.89-2.985-.55-4.343-.15-7.329l-1.09-1.854c-1.4.099-2.64.031-3.87.487 3.27-3.62 4.48-4.907 4.51-10.042l-1.1-.83-2.51 1.679c-1.5-4.937-.51-29.12-.45-36.464z"/><path fill="#091733" d="M436.919 671.594c-.37 95.435-1.561 195.858.154 291.101l-10.03-11.826q.71-80.71.226-161.421c-.099-32.034-.631-67.222.653-99.083-7.138 8.38-13.125 15.213-20.838 23.155l.01 186.367c-7.581-8.229-19.051-19.895-25.927-28.221l-.12-99.032 6.961-5.954c-.02-9.581.145-19.77-.095-29.295-9.101 7.975-28.568 29.228-34.678 39.284 10.553-5.878 19.869-17.07 28.72-25.548.609 9.586 1.129 8.902-5.08 16.313-1.3 9.437-.832 32.167-.844 42.267q-.132 37.768.332 75.532c-2.793-3.195-3.907-5.209-7.76-6.429l-1.24.596c.944 9.027 19.55 27.487 25.485 35.519 24.017 32.5 52.757 63.137 76.2 95.921-2.348 2.58-6.273 7.42-9.129 8.9-27.779-37.466-57.655-72.898-86.524-109.628-7.392-11.281-28.416-29.573-32.217-42.407-3.094-10.449.249-43.194-.277-55.466-.139-3.25 2.169-13.346 2.673-17.148l-2.695-.814c-2.643-4.151-1.501-16.391-1.362-21.728 4.032-4.182 8.949-7.709 12.972-12.48 2.938-3.485 3.289-5.038 6.419-8.471l.648-.701c24.945-25.466 53.03-53.571 77.363-79.303"/><path fill="#091733" d="m460.232 1026.69 7.982 8.41c-14.299 20.19-32.602 40.81-46.926 60.72-8.7 12.09-56.664 65.86-55.751 74.41l1.085 1.41c5.228-2.88 5.086-7.77 8.949-8.53l.413 2.86c1.098 9.07.627 23.9.61 33.56l-.148 55.83c-.021 6.09-.277 14.34-.134 20.18.157 6.38 9.219 12.29 6.99 20.53l-.994 1.1c-3.282-1.77-5.168-4.5-7.645-7.32-4.185-4.1-10.139-10.26-14.523-13.83l-2.308.39-.465 1.5c5.835 8.77 22.86 24.9 31.072 33.05l-.387-28.5-6.824-6.12-.065-101.6c8.777-9.39 17.468-18.57 25.821-28.34l.24 189.6c6.809 7 12.754 13.32 20.313 19.58.893-21.08-.405-49.26-.204-71.08.578-62.85-.822-126.36.345-189.18 3.288-3.76 6.155-7.67 9.168-11.64l.063 291.66c-28.521-25.55-59.065-59.98-86.579-87.84-.595-1.49-.704-1.86-1.567-3.2-.837-3.09-4.528-6.32-6.875-8.8-1.043-15.71-.11-34-.383-50.01.17-14.64-1.677-29.83.278-44.36.831-6.17 7.407-7.7 8.664-15.3 6.603-9.64 20.882-25.16 28.827-35.82 25.605-34.35 55.694-69.13 80.958-103.32"/><path fill="#080b14" d="M375.984 1165.97c1.098 9.07.627 23.9.61 33.56l-.148 55.83c-.021 6.09-.277 14.34-.134 20.18.157 6.38 9.219 12.29 6.99 20.53l-.994 1.1c-3.282-1.77-5.168-4.5-7.645-7.32 2.132-4.11.293-109.89 1.321-123.88"/><path fill="#091733" d="m335.306 1539.66 103.907-.19c13.517-.03 56.154-1.66 66.369 3 4.364 5.48 1.129 149.45 2.103 167.56.266 4.93-6.572 3.9-10.616 4.19l-2.865-.03c-9.254-.26-18.511-.41-27.77-.47l-.272-131.6c-43.623-.25-87.248-.14-130.87.31-1.121-4.43-.608-36.92.014-42.77"/><path fill="#091733" d="m335.306 1539.66 103.907-.19c13.517-.03 56.154-1.66 66.369 3 4.364 5.48 1.129 149.45 2.103 167.56.266 4.93-6.572 3.9-10.616 4.19-1.341-52.59.305-110.67.186-163.8-43.947-.72-88.252.73-132.22.46-9.182-.05-18.638.49-27.761-.44-1.656-2.69-1.615-7.31-1.968-10.78"/><path fill="#080b14" d="M335.292 1582.43c-1.121-4.43-.608-36.92.014-42.77.353 3.47.312 8.09 1.968 10.78 9.123.93 18.579.39 27.761.44 43.968.27 88.273-1.18 132.22-.46.119 53.13-1.527 111.21-.186 163.8l-2.865-.03c1.475-52.1-.931-107.66.298-160.72-50.632 1.47-107.102-.07-158.544.36.025 8.21.445 20.81-.666 28.6"/><path fill="#091733" d="M466.197 333.394c6.952-.996 24.692-1.618 31.28.509 3.185.005 7.203-.414 9.749 1.141 1.463 10.357.547 47.877.555 60.128q.167 32.855-.136 65.709c-.062 12.125.02 24.308-.501 36.409-.2 4.655-3.069 8.154-7.881 8.301-54.469 1.666-109.552-.563-163.993.711-1.253-4.511-.772-36.671.031-42.2l130.804.33z"/><path fill="#091733" d="M497.477 333.903c3.185.005 7.203-.414 9.749 1.141 1.463 10.357.547 47.877.555 60.128q.167 32.855-.136 65.709c-.062 12.125.02 24.308-.501 36.409-.2 4.655-3.069 8.154-7.881 8.301-54.469 1.666-109.552-.563-163.993.711.806-4.25-.099-5.357 1.713-9.926 5.167-1.03 39.859-.463 47.387-.448l113.132.096z"/><path fill="#080b14" d="M466.197 333.394c6.952-.996 24.692-1.618 31.28.509l.025 162.121-113.132-.096c-7.528-.015-42.22-.582-47.387.448-1.812 4.569-.907 5.676-1.713 9.926-1.253-4.511-.772-36.671.031-42.2 1.116 7.34.673 20.943.649 28.8l158.219-.127.094-158.868c-8.715.065-19.585.46-28.066-.513"/><path fill="#091733" d="m297.197 625.967.836.73c.952 5.314.277 24.03.233 30.901l-.059 58.282c-12.531 15.515-27.822 29.282-40.305 45.931 14.344 15.097 27.711 30.679 41.588 46.178v131.427l-44.008-.031.059-15.626-.597-130.139c3.059 3.179 7.457 9.012 12.107 8.185-1.895-9.559-24.753-27.805-27.513-38.71-3.404-13.444 28.26-32.95 27.011-42.043l-1.569-.823c-4.006 1.562-6.957 5.088-10.138 8.181l.126-86.075c18.026-4.082 26.567-6.828 42.229-16.368"/><path fill="#091733" d="M258.864 1111.61c9.817 1.48 29.581.93 40.404.9l-.187 128.95c-13.64 14.52-27.215 30.19-40.502 45.11 5.466 8.96 31.172 36.48 39.425 45.68.795 28.59-.502 60.33-.514 89.39-4.984-3.13-9.755-5.16-15.083-7.62-10.293-4.47-16.244-5.76-27.263-7.76-.632-28.73-.074-58.14-.501-87.04 2.576 2.41 7.851 7.97 10.8 8.84l1.661-1.42c.879-7.18-20.886-22.03-25.765-34.11-7.821-19.37 31.176-38.41 26.03-48l-2.215-.04c-3.676 2.99-6.202 5.68-9.49 9.05-.553-45.69.078-92.02.291-137.72.013-2.78.988-2.85 2.909-4.21"/><path fill="#091733" d="M1751.51 627.515c13.79 6.953 25.61 11.689 40.75 14.534 0 28.607.19 57.214.56 85.819-3.11-3.255-6.24-7.958-11-6.945 2.42 10.312 24.64 25.927 27.38 38.954 2.73 12.955-29.97 34.922-28.49 42.566l2.28.963c3.06-1.177 7.03-5.95 9.5-8.538q-.42 66.69-.09 133.382l.12 11.147-42.31.093c.46-44.309.39-88.623-.21-132.931 11.97-13.028 30-32.039 40.53-45.792-8.59-11.438-28.93-32.683-39.34-44.38-.28-29.624-.18-59.25.32-88.872"/><path fill="#091733" d="M1750.09 1112.65c13.78-.22 28.21.09 42.04.2-.11 46.7-.66 94.8.35 141.38-4.18-5.32-5.04-6.65-11.02-9.46l-.72.8c2.62 11.14 21.97 24.21 26.72 35.59 7.96 19.05-20.24 28.66-26.26 45.01l.88 1.27c3.83-.39 9.01-5.15 11.97-7.65-.37 28.58-.45 57.17-.24 85.75-15.66 2.17-29.58 7.75-42.81 16.22.65-28.96.27-60.69-.01-89.72 11.33-13.59 30.35-31.95 39.64-44.67-13.03-15.27-27.33-30.92-40.69-46.02z"/><path fill="#091733" d="M670.595 1607.65c32.89.86 71.098-.3 104.536-.41l192.987.08c-4.165 3.76-9.808 8.07-14.269 11.66-11.784.21-23.892.19-35.687.03-75.155-1-150.686.91-225.803-.38 8 6.72 15.265 12.46 23.414 19.52 60.358-1.59 128.018-.17 189.022-.16-9.002 7.52-18.1 14.93-27.291 22.22-44.548.48-90.742.02-135.369-.14 9.938 8.37 18.601 16.23 28.115 25.09 3.182 2.17 4.583 3.21 7.451 5.77l2.052.34 2.213-2.67c18.995-3.73 17.665 3.86 28.307 4.47 16.242.94 66.585 2.44 79.838-1.86l-1.623 2.97c1.925.83.97.58 2.841.83-2.902 2.56-3.726 3.37-7.028 5.28l-.967-3.23c-2.333 3.2-8.141 7.29-11.488 9.66-10.674 7.57-24.502 9.06-37.189 6.92l-.039-.53 9.314-1.54-.441-.34c-3.73.12-6.544-.01-9.981-1.69-5.842-2.86-8.513 4.6-14.335 4.7-3.238.05-6.492.04-9.732.02-6.56-.05-18.039 1.11-23.766-1.05-11.605-4.39-100.191-90.46-115.082-105.56"/><path fill="#080b14" d="M770.25 1685.16c3.182 2.17 4.583 3.21 7.451 5.77l2.052.34 2.213-2.67c18.995-3.73 17.665 3.86 28.307 4.47 16.242.94 66.585 2.44 79.838-1.86l-1.623 2.97c1.925.83.97.58 2.841.83-2.902 2.56-3.726 3.37-7.028 5.28l-.967-3.23c-30.095-1.52-70.355.3-101.969 0-3.201-3.77-7.636-8.23-11.115-11.9"/><path fill="#091733" d="m627.962 1751.88 92.217-.32c12.052 12.2 32.725 28.59 46.329 39.94 16.708-11.86 33.723-26.65 49.525-39.9 38.466 1.44 84.818.07 124.024.19l-.221 35.16c-.309 1.03-.033.3-1.352 1.91-8.92 1.17-51.7.44-63.742.46l-47.192.02c-5.144.04-13.975 1.87-17.908-.85-1.624-3.12-.803-2.48-3.28-4.52-10.719 2.45-24.16 20.38-35.463 25.48-18.147 8.19-25.856-18.43-41.538-24.56-9.312 7.04-15.233 4.57-26.655 4.6q-30.444.09-60.889-.27c-3.94-15.96-6.513-22.62-13.855-37.34"/><path fill="#091733" d="m1110.35 1751.84 122.95.06c12.35 10.39 35.27 31.36 48.2 39.71 12.81-8.59 36.31-29.33 48.82-39.89 29.18.49 59.46.13 88.73.17-4.02 7.58-9.04 19.11-11.05 27.38l-2.7 10.24-59.19.16c-3.96.02-19.74.54-22.67-.06-.66-3.4-.01-2.54-1.88-5.01-7.21 1.2-18.81 17.02-27.24 22.91-19.96 13.96-34.61-20.64-51.4-24.11l-1.13 1.04 1.34 4.41c-2.73 1.34-119.61.99-132.68.91.26-12.33-.03-25.52-.1-37.92"/><defs><linearGradient id="J" x1="371.899" x2="319.456" y1="608.702" y2="617.415" gradientUnits="userSpaceOnUse"><stop offset="0" stop-color="#001334"/><stop offset="1" stop-color="#2e2937"/></linearGradient></defs><path fill="url(#J)" d="m358.411 510.198 3.351.906c2.98-.298 5.418-1.008 7.812.499 1.289 9.634.36 43.211.32 54.41l.18 105.914c12.996-15.861 28.182-29.695 41.403-44.858.02-28.512.39-58.009-.229-86.438-10.606 14.63-26.689 27.847-36.573 42.007l-.04-14.484c8.281-9.741 17.626-18.512 25.018-28.604q.301-14.477.208-28.957l25.136-.002.2 119.586c-16.234 15.931-47.93 45.778-62.039 62.474l-4.034 4.281c-6.385 5.083-18.196 19.949-25.122 27.044q-.186-23.716.17-47.429c-.618-26.792.316-54.179.025-80.988-.121-11.143.7-30.678-1.091-41.082-.088-.901.142-4.126.194-5.22 2.003-15.155 2.585-23.883 2.603-38.991z"/><path fill="#091733" d="m399.861 510.593 25.136-.002.2 119.586c-16.234 15.931-47.93 45.778-62.039 62.474-3.311-5.276-.116-161.98-1.396-181.547 2.98-.298 5.418-1.008 7.812.499 1.289 9.634.36 43.211.32 54.41l.18 105.914c12.996-15.861 28.182-29.695 41.403-44.858.02-28.512.39-58.009-.229-86.438-10.606 14.63-26.689 27.847-36.573 42.007l-.04-14.484c8.281-9.741 17.626-18.512 25.018-28.604q.301-14.477.208-28.957"/><path fill="#080b14" d="m358.411 510.198 3.351.906c1.28 19.567-1.915 176.271 1.396 181.547l-4.034 4.281c-1.058-9.985-.418-43.721-.487-55.02z"/><path fill="#462e32" d="m333.3 549.257 1.386.756c1.507 11.875 1.81 116.674-.514 126.534-.618-26.792.316-54.179.025-80.988-.121-11.143.7-30.678-1.091-41.082-.088-.901.142-4.126.194-5.22"/><path fill="#091733" d="M1171.96 354.389c-4.38.043-4.05.719-7.24-1.173 1.56-4.442 16.45-15.467 20.97-17.563l-2.73-.778c3.66-2.269 26.3-1.395 31.03-.074l.17 1.035c-7.75 3.244-23.25-1.546-25.66 1.234 5.29 2.853 17.93.208 24.58 1.223 9.06 1.383 32.16-8.177 48.04-4.182 12.88 3.241 101.9 91.875 118.27 107.831l-199.13-.13c-31.96.029-69.32-.849-100.85.201 3.97-3.015 9.58-7.529 13.59-10.123l265.73.003a470 470 0 0 0-23.03-21.275c-11.89 2.079-53.63 1.039-68.44.966l-123.37-.412c8.7-7.975 19.21-16.652 29.13-23.053 43.78-.836 89.67-.357 133.55-.126-11.23-9.17-25.59-22.046-36.31-32.123-1.47 1.795-1.62 1.765-2.36 3.893-3.97.818-5.24.148-9.19-1.217-.96-2.732-1.85-2.809.96-4.006-16.67-1.528-72.18-2.058-87.71-.151"/><path fill="#080b14" d="M1259.67 354.54c2.75.004 8.82-.897 10.59 1.33-1.47 1.795-1.62 1.765-2.36 3.893-3.97.818-5.24.148-9.19-1.217-.96-2.732-1.85-2.809.96-4.006"/><defs><linearGradient id="K" x1="369.013" x2="322.667" y1="1435.309" y2="1429.071" gradientUnits="userSpaceOnUse"><stop offset="0" stop-color="#001231"/><stop offset="1" stop-color="#2d2a3b"/></linearGradient></defs><path fill="url(#K)" d="M334.11 1321.26c1.649 2.67 5.924 5.67 8.439 7.73 3.423 5.4 8.826 8.54 11.804 13.08l-1.273 3.33c2.279 2.24 5.031 4.8 7.034 7.2l2.278 1.94c21.115 22.42 41.142 41.73 62.826 63.21-.327 39.08-.347 78.16-.061 117.23l-25.021.1-.055-28.06-25.068-26.69-.11-14.13c12.077 13.67 24.951 26.77 36.867 40.28-.059-28.57-.401-57.64-.1-86.17-6.241-6.52-34.433-37.58-39.463-41.32-3.802 3.05-2.409 35.08-2.423 41.37l.035 79.68c.026 7.87.626 27.03-.401 33.59-3.091 2.02-3.603 1.35-7.932 1.6h-2.697c-7.148-.34-15.523-.22-22.77-.3.213-10.81-.032-19.4-1.161-30.19-.399-3.8-1.698-13.07-1.646-16.22 1.551-7.52.861-45.03.842-54.21l.057-108.99z"/><path fill="#091733" d="m361.486 1535.23.38-117.88c.048-18.78-.726-44.6.526-62.81 21.115 22.42 41.142 41.73 62.826 63.21-.327 39.08-.347 78.16-.061 117.23l-25.021.1-.055-28.06-25.068-26.69-.11-14.13c12.077 13.67 24.951 26.77 36.867 40.28-.059-28.57-.401-57.64-.1-86.17-6.241-6.52-34.433-37.58-39.463-41.32-3.802 3.05-2.409 35.08-2.423 41.37l.035 79.68c.026 7.87.626 27.03-.401 33.59-3.091 2.02-3.603 1.35-7.932 1.6"/><path fill="#080b14" d="m360.114 1352.6 2.278 1.94c-1.252 18.21-.478 44.03-.526 62.81l-.38 117.88h-2.697c-.239-44.13-.168-88.26.211-132.38.066-8.56-.268-43.5 1.114-50.25"/><path fill="#080b14" d="M334.11 1321.26c1.649 2.67 5.924 5.67 8.439 7.73 3.423 5.4 8.826 8.54 11.804 13.08l-1.273 3.33c-6.31-5.57-11.161-13.21-17.603-18.84l-1.366-1.24z"/><path fill="#091733" d="M1480.1 330.527c17.43 1.933 38.39 4.12 55.96 3.1.09 5.027.63 12.845-.6 17.44 1.02 2.335 3.8 12.371-.13 12.335-17.21-.159-57.73 3.502-72.9-.191l-97.09.167c12.9 10.062 40.94 37.421 53.01 50.021 29.86-.401 59.73-.501 89.59-.301-14.4-14.984-33.04-28.757-47.9-44.848l13.68.16c10.79 9.818 23.72 21.804 33.44 32.588l28.87-.104.08 24.918c-39.43.594-79.99.103-119.51.096a3881 3881 0 0 0-74.38-70.539c-1.3-.696-2.84-2.362-3.99-3.442-6.04-5.411-12.32-12.026-18.09-17.858-.55-.849-2.2-1.697-3.22-2.351l48.33.143c2.74-.011 5.47 0 8.21.031 22.09.043 44.19-.05 66.28-.28 12.58-.112 28.18.248 40.36-1.085"/><defs><linearGradient id="L" x1="1432.005" x2="1426.67" y1="361.239" y2="320.541" gradientUnits="userSpaceOnUse"><stop offset="0" stop-color="#04162f"/><stop offset="1" stop-color="#2d293b"/></linearGradient></defs><path fill="url(#L)" d="M1480.1 330.527c17.43 1.933 38.39 4.12 55.96 3.1.09 5.027.63 12.845-.6 17.44-17.27-1.088-42.26-.27-59.97-.213l-137.26 1.073c-6.04-5.411-12.32-12.026-18.09-17.858-.55-.849-2.2-1.697-3.22-2.351l48.33.143c2.74-.011 5.47 0 8.21.031 22.09.043 44.19-.05 66.28-.28 12.58-.112 28.18.248 40.36-1.085"/><path fill="#080b14" d="M1365.25 331.861c2.74-.011 5.47 0 8.21.031 3.25 3.033 4.91 3.62 4.59 7.988l-1.36.522c-2.97-.741-9.13-6.465-11.44-8.541"/><path fill="#080b14" d="m1338.23 351.927 137.26-1.073c17.71-.057 42.7-.875 59.97.213 1.02 2.335 3.8 12.371-.13 12.335-17.21-.159-57.73 3.502-72.9-.191 10.67-.814 69.37 1.667 72.95-1.95.27-3.104.43-3.492-.11-6.644l-.99-.418c-62.56-.327-125.42-.453-188.06-.08-1.89.011-2.67.503-4 1.25-1.3-.696-2.84-2.362-3.99-3.442"/><path fill="#091733" d="M512.362 334.076c19.576.126 39.733-.608 59.094-3.786 7.867 1.258 17.246 1.027 25.289 1.016 26.662-.038 53.421.64 80.073.484q3.234-.002 6.466-.108l50.888.287c-2.993 2.761-15.822 13.389-17.491 15.74-1.377 1.309-3.418 3.048-4.436 4.536-1.885 2.046-1.734 1.982-4.207 3.219a2528 2528 0 0 0-75.209 70.099c-39.244.804-80.959.239-120.315.142l-.098-24.866 29.246-.209c7.917-8.935 25.282-23.884 34.769-32.426l14.44-.044c-12.927 12.125-38.629 37.157-53.373 44.592 30.283.896 62.86.29 93.247.108 14.341-10.971 37.702-35.709 53.836-49.595-50.371-.139-100.745-.393-151.114-.119-4.44.024-18.047.885-20.633-1.64-.49-3.853-.368-3.886.233-7.542l.158-2.451c-1.498-5.022-.939-11.998-.863-17.437"/><defs><linearGradient id="M" x1="615.426" x2="623.607" y1="365.098" y2="316.571" gradientUnits="userSpaceOnUse"><stop offset="0" stop-color="#03152f"/><stop offset="1" stop-color="#2f293b"/></linearGradient></defs><path fill="url(#M)" d="M512.362 334.076c19.576.126 39.733-.608 59.094-3.786 7.867 1.258 17.246 1.027 25.289 1.016 26.662-.038 53.421.64 80.073.484q3.234-.002 6.466-.108l50.888.287c-2.993 2.761-15.822 13.389-17.491 15.74-1.377 1.309-3.418 3.048-4.436 4.536-1.885 2.046-1.734 1.982-4.207 3.219-5.297-2.483-176.473-1.387-194.971-1.5l.158-2.451c-1.498-5.022-.939-11.998-.863-17.437"/><path fill="#080b14" d="M513.225 351.513c10.659-1.469 55.701-.478 68.733-.463 34.016-.197 68.033.063 102.042.78 8.848.207 19.639-.099 28.245.415-1.885 2.046-1.734 1.982-4.207 3.219-5.297-2.483-176.473-1.387-194.971-1.5z"/><path fill="#080b14" d="M676.818 331.79q3.234-.002 6.466-.108c-2.38 2.276-4.774 4.645-7.275 6.769-.692.588-2.708.803-2.771-.343-.107-1.959 2.438-4.619 3.58-6.318"/><path fill="#091733" d="M1681.81 533.772c-1.62-3.922-.99-17.935-.39-22.651 2.45-2.048 1.07-1.673 4.04-1.692 2.11 1.851 2.23 2.857 3.09 5.424l1.03-.789.97-2.516c4.44-1.575 15.33-.913 20.68-.841-.08 18.446.61 34.184 4.34 52.532-2.85 6.17-1.5 141.744-1.71 159.103-3.48-2.54-20.07-21.037-24.03-25.351-1.45-1.648-2.61-2.627-4.21-4.09l-60.83-61.424c.35-40.183.41-80.368.2-120.552l25.07-.014-.07 29.623c8.87 9.423 17.59 18.996 26.14 28.716l.01 13.668c-12.63-13.983-26.7-28.4-39.75-42.09l.07 86.012c12.3 14.234 30.74 30.657 44.47 45.701z"/><path fill="#091733" d="M1681.81 533.772c-1.62-3.922-.99-17.935-.39-22.651 2.45-2.048 1.07-1.673 4.04-1.692 2.11 1.851 2.23 2.857 3.09 5.424l1.03-.789c1.58 10.862.56 48.167.48 61.244-.29 40.56-.37 81.122-.23 121.683-1.45-1.648-2.61-2.627-4.21-4.09l-60.83-61.424c.35-40.183.41-80.368.2-120.552l25.07-.014-.07 29.623c8.87 9.423 17.59 18.996 26.14 28.716l.01 13.668c-12.63-13.983-26.7-28.4-39.75-42.09l.07 86.012c12.3 14.234 30.74 30.657 44.47 45.701z"/><path fill="#080b14" d="M1681.81 533.772c-1.62-3.922-.99-17.935-.39-22.651 2.45-2.048 1.07-1.673 4.04-1.692 2.11 1.851 2.23 2.857 3.09 5.424l1.03-.789c1.58 10.862.56 48.167.48 61.244-.29 40.56-.37 81.122-.23 121.683-1.45-1.648-2.61-2.627-4.21-4.09 1.4-2.893 1.64-29.789 1.32-33.122-2-20.694 3.61-138.812-1.91-148.959l-1.58-.16c-2.51 3.874-1.2 15.951-1.57 22.029z"/><path fill="#091733" d="M1282.33 234.825c20.15 3.1 29.77 27.511 39.81 28.341l1.18-1.537-.78-3.817.9-1.318c25.23-1.106 56.29-.275 81.95-.251a107.7 107.7 0 0 0 11.44 34.137q-46.335-.41-92.67-.193c-14.83-11.035-27.6-23.913-42.08-35.137-6.68 5.071-13.67 11.232-20.12 16.704-5.34 4.838-16.61 14.15-22.37 18.194-42.78.502-86.46-.046-129.35.111.03-11.096-.03-22.192-.2-33.287 15.07.012 126.97-1.802 132.13.393.7 1.95.65 2.896.56 4.96l1.25 1.104c10.17-2.866 26.64-22.516 38.35-28.404"/><path fill="#091733" d="M891.329 1695.01a4712 4712 0 0 0 79.696-62.29c16.606-13.14 37.805-29.19 53.225-43.27 28.93 23.6 58.05 46.95 87.37 70.07 20.35 15.78 45.49 32.63 63.34 51.28 1.77 1.85 2.88 3.04 4.87 4.69-18.44-.08-36.86-.37-55.29-.8-4.31-.1-10.56-.85-13.08-4.81 1.86-2.2.67-1.32 4.44-1.7-2.83-.23-3.28-.16-6.13.15-.81-5.01.26-14.52.67-19.95-25.92-22.3-60.97-47.5-85.06-70.11-23.87 22.2-59.506 49.3-85.377 71.43.168 5.08.845 15.34-.113 19.89-8.989 7.74-55.64 5.41-68.622 5.27l-.486-.64c7.919-6.56 8.302-5.97 13.519-13.93 3.302-1.91 4.126-2.72 7.028-5.28"/><path fill="#091733" d="m512.297 1624.71 122.741-.08c25.266 22.02 55.001 52.13 80.203 75.79 5.057 4.64 11.935 11.78 17.279 16.18 1.972.28 3.635.51 4.99.7-12.441.92-29.498.45-42.484.48l-76.762.08c-7.77 0-34.625-.5-40.614 1.08-2.851.21-18.491-3.11-22.832-3.59-14.31-1.58-27.64-1.57-41.988-1.68-5.971-26.05 5.778-18.93 21.206-21.24-4.94.03-17.696.57-21.594-1.69l.94-1.24c13.089-1.42 42.886-.68 57.122-.73 38.161-.01 76.321-.32 114.477-.9-13.417-14.69-38.069-36.59-53.354-51.66-10.215-.05-83.582-.71-87.378.72l-.604 1.51c3.304 4.77 13.102 13.31 17.91 17.88 9.582 9.04 18.995 18.25 28.235 27.64l-14.174.05c-10.271-9.61-24.344-22.35-33.195-32.97l-30.15.11z"/><defs><linearGradient id="N" x1="616.966" x2="620.723" y1="1686.546" y2="1724.281" gradientUnits="userSpaceOnUse"><stop offset="0" stop-color="#001131"/><stop offset="1" stop-color="#2d2a3b"/></linearGradient></defs><path fill="url(#N)" d="M512.83 1713.67c.84-5.47.403-11.16 2.302-15.84 17.172-2.29 41.704.24 59.922-.78 42.361-2.38 85.194-1.58 127.606-1.41 2.019.01 9.068 3.83 12.581 4.78 5.057 4.64 11.935 11.78 17.279 16.18 1.972.28 3.635.51 4.99.7-12.441.92-29.498.45-42.484.48l-76.762.08c-7.77 0-34.625-.5-40.614 1.08-2.851.21-18.491-3.11-22.832-3.59-14.31-1.58-27.64-1.57-41.988-1.68"/><path fill="#080b14" d="M675.222 1707.56c5.419 1.85 6.788 5.27 10.753 9.49l-.568-.01c-6.045-.07-11.107-2.68-10.185-9.48"/><path fill="#091733" d="M1080.63 1607.5c99.11-.56 198.23-.54 297.35.05l-76.21 72c-9.57 9.18-18.9 18.93-28.51 27.94-7.35 6.89-32.71-.54-39.56 4.22 4.61.07 3.62.09 7.56-.52 5.3-.8 16.94.45 22.61.84l.39 1.4c-4.44 1.29-12.77.27-17.74.77-6.39.65-13.34 2.29-19.05-1.13-7.52-4.51-7.41-5.41-16.14-4.06-2.19 1.3-.7-2.75-4.36-.89-1.36.69-5.73.64-7.06-.26-1.63-.6-5.54-.67-7.3-.14-.59.18-.97 2.33-1.16 2.92-8.37 1.31-6.77 2.46-12.52-4.11 2 2.29-3.49-2.44-3.1-2.06l.16-1.15c7.77-4.52 43.47.12 54.64-2.52l-.17-.77c-4.09.4-6.92.96-10.93.18l-.14-1.17c3.87-.96 25.38-.62 31.04-.61l-2.22-.46c7.11-2.26 12.57 2.67 21.08-2.29.79-1.03 1.44-1.89 2.2-2.96 10.38-10.74 23.6-22.25 34.85-32.31-30.56-.8-61.32-.08-91.87-.29-11.84-.08-29.9.76-41.24-.04-9.75-6.75-18.99-14.6-28.18-22.11l123.1.04c17.93 0 47.93-.88 64.98.37 6.57-5.41 17.07-13.55 22.95-19.28l-261.43-.09c-4.51-3.64-9.77-7.7-14.02-11.51"/><path fill="#091733" d="M763.224 236.112c15.2-.182 29.472 24.422 44.376 27.457l1.387-1.058c-.26-2.24-.37-3.497-.398-5.747 3.426-1.263 116.995-.054 130.531-.041l.08 33.646-125.874-.29c-8.006-5.628-15.753-12.138-23.372-18.32-6.945-5.815-14.249-11.594-21.3-17.315-9.405 6.424-33.558 27.721-42.803 35.734l-95.93-.3c6.053-12.676 8.577-19.851 10.973-33.533 12.582-.019 80.458-1.797 85.131.961.249 2.203.407 3.544.884 5.702 4.794.118 28.006-22.479 36.315-26.896"/><path fill="#091733" d="M1025.01 458.222c-13.17-9.316-41.259-32.848-54.78-43.724-29.802-23.972-69.327-51.386-94.496-79.064l.161-1.115 9.571-.546c10.475-.65 43.768.593 52.174 4.633 3.686 7.169 2.897 12.446 2.629 20.519 21.962 20.9 60.581 51.564 84.981 71.132 24.59-20.792 62.89-49.108 84.44-69.884-.26-3.851-.7-19.494-2.02-21.331l-1.13-3.161 7.69-1.335c9.08.672 3.48 1.918 9.64.743 12.98-2.473 39.17-.83 52.15-1.055l.62.884c-12.31 16.438-46.88 40.098-63.56 53.653-28.68 23.307-59.67 46.046-88.07 69.651"/><defs><linearGradient id="O" x1="1675.952" x2="1726.462" y1="1436.803" y2="1428.819" gradientUnits="userSpaceOnUse"><stop offset="0" stop-color="#001436"/><stop offset="1" stop-color="#302a37"/></linearGradient></defs><path fill="url(#O)" d="M1689.27 1353.23c6.01-7.73 17.84-20.05 24.7-27l.24 107.64c.03 11.4-.66 42.99.56 53.15-.04 14.23-4.06 28.45-3.46 47.76-6.55.03-15.81.32-22.09-.31l-4.31.47-1.75-.39c-3-4.1-1.29-141.11-1.17-160.01a2642 2642 0 0 1-45.05 46.01c-.84 28.15-.48 57.9-.54 86.18 12.48-13.73 27.26-28.09 40.39-41.35-.21 4.65-.04 9.47.03 14.14-8.65 8.65-19.24 18.66-26.81 28.07l-.01 27.23-24-.01-.06-118.98c20.29-19.44 40.18-39.3 59.65-59.57.28-.35 3.13-2.59 3.68-3.03"/><path fill="#091733" d="M1685.59 1356.26c3.23 7.2-.22 83.88.4 99.8.32 8.04.63 72.19-1.08 78.88l-1.75-.39c-3-4.1-1.29-141.11-1.17-160.01a2642 2642 0 0 1-45.05 46.01c-.84 28.15-.48 57.9-.54 86.18 12.48-13.73 27.26-28.09 40.39-41.35-.21 4.65-.04 9.47.03 14.14-8.65 8.65-19.24 18.66-26.81 28.07l-.01 27.23-24-.01-.06-118.98c20.29-19.44 40.18-39.3 59.65-59.57"/><path fill="#080b14" d="M1685.59 1356.26c.28-.35 3.13-2.59 3.68-3.03.89 12.28.27 24.42.19 36.72-.3 48.06-1.17 96.48-.24 144.52l-4.31.47c1.71-6.69 1.4-70.84 1.08-78.88-.62-15.92 2.83-92.6-.4-99.8"/><path fill="#091733" d="m1414.7 1624.84 121.23-.25v26.52c-9.7.01-19.62-.07-29.3.04a2844 2844 0 0 0-34.01 32.8l-13.96-.05c9.97-9.14 41.11-38.29 48.51-47.76l-87.99.36c-19.25 16.47-37.11 36.45-56.65 51.65 19.78.21 169.44-.84 173.38 1.84-.87 2.28-.46 1.52-2.01 3.39 2.31 3.08 1.95 1.5 2.38 4.81-.16 5.14-.29 10.29-.39 15.44-13.7-.01-23.88-.04-37.54 1.12-7.42.62-23.34 3.81-28.8 4-6.54-1.43-39.76-.92-47.76-.93-34.24.09-68.48-.11-102.71-.61 5.36-5.43 18.43-19.02 24.09-22.18 1.99-1.86 1.74-2.2 2.61-3.11 12.4-12.98 27.29-26.82 40.3-39.08 10.12-9.53 19.16-19.24 28.62-28"/><defs><linearGradient id="P" x1="1433.189" x2="1427.576" y1="1683.211" y2="1727.014" gradientUnits="userSpaceOnUse"><stop offset="0" stop-color="#00102f"/><stop offset="1" stop-color="#312c3c"/></linearGradient></defs><path fill="url(#P)" d="M1343.17 1695.03c18.13.67 37.1.11 55.32.14 22.54.21 45.07.29 67.6.24 12.83-.14 62.18-2.7 70.19 2.78-.16 5.14-.29 10.29-.39 15.44-13.7-.01-23.88-.04-37.54 1.12-7.42.62-23.34 3.81-28.8 4-6.54-1.43-39.76-.92-47.76-.93-34.24.09-68.48-.11-102.71-.61 5.36-5.43 18.43-19.02 24.09-22.18"/><path fill="#080b14" d="M1373.78 1707.74c6.9 3.01-1.92 8.01-5.53 10.73-1.29-.68-2.41-1.27-3.67-2.01 1.59-1.91 6.92-6.4 9.2-8.72"/><path fill="#091733" d="M466.025 1046.92c1.91 2.03 1.131 74.03 1.136 81.79l.119 167.07c-.069 36.15-.759 73.99.159 110-4.362-3.88-8.935-8.41-13.182-12.48-4.745-4.51-8.663-8.65-13.123-13.45.981-39.61.384-82.17.436-121.91l-.059-180.36c5.995-9.21 17.266-22.43 24.514-30.66"/><path fill="#091733" d="M466.502 642.635c1.625 4.866.508 67.146.519 78.485l.174 279.25a772 772 0 0 0-12.903-15.905c-3.62-4.742-8.708-10.436-12.64-15.09-.976-30.586.031-67.539.016-98.714l-.171-203.712c7.403-7.709 16.845-17.796 25.005-24.314"/><path fill="#091733" d="M1581.11 1046.44c4.69 2.81 21.51 25.48 25.8 31.06-.44 100.87-1.52 203.58-.44 304.3-3.98 3.79-7.91 7.64-11.77 11.55a345 345 0 0 1-13.11 12.53z"/><path fill="#091733" d="m1554.39 333.798 27.84-.053c.45 42.803-1.12 87.912.33 130.312 42.38-.649 86.51-.066 129.03-.073.15 9.764.15 19.529-.01 29.292-51.21-.814-105.52-.006-156.92.218-.68-53.148.04-106.484-.27-159.696"/><path fill="#091733" d="M1581.21 642.474c4.48 1.606 20.76 18.831 25.46 23.341-1.08 35.805-.23 75.738-.21 111.752l.32 191.747c-4.58 5.151-8.7 10.293-13.02 15.656l-12.81 15.59c1.03-14.895.73-34.203.77-49.365l.06-78.603q.375-115.061-.57-230.118"/><path fill="#091733" d="M640.785 1578.29c11.878-.88 30.447-.36 42.891-.35l77.753.11 242.631-.2c-5.322 4.7-11.256 9.46-16.755 14.02l-13.204 10.52-308.754.11c-5.946-5.32-20.991-18.4-24.562-24.21"/><path fill="#091733" d="M1554.05 1553.02c52.88.18 104.4 1.25 157.62.56l-.12 28.42c-14.16-.09-125.87-1.11-129.35 1.3l-.02 130.65-27.84-.05c-.1-53.36.36-107.6-.29-160.88"/><path fill="#091733" d="m1045.35 1578.13 363.46-.38c-4.57 5.06-10 9.84-15.05 14.48-3.87 3.66-7.5 7.08-11.57 10.54-102.16-.63-204.32-.63-306.48-.01-9.42-6.72-21.74-16.9-30.36-24.63"/><path fill="#091733" d="M365.565 333.496c23.052-.543 46.702.853 69.697-.259l-.184 42.325c-15.059 13.309-28.893 26.58-43.578 39.862-6.811 6.156-13.647 12.896-20.841 18.561-11.523-.346-23.177-.098-34.71-.071l-.033-100.291q14.825.09 29.649-.127"/><path fill="#091733" d="M667.023 446.112c36.331.697 75.103-.032 111.708-.086l197.074.02c7.819 6.51 22.231 19.088 30.165 24.139l-29.187.186-336.259.094a496 496 0 0 1 26.499-24.353"/><path fill="#091733" d="m336.015 1613.12 33.356-.02 6.999 6.25c18.939 16.66 39.809 34.89 57.78 52.48.091 14.07.061 28.14-.09 42.22-32.413-.07-65.755.27-98.044-.15-.03-30.58-1.303-70.88-.001-100.78"/><path fill="#091733" d="m1074.58 446.235 309-.019c7.32 6.517 18.92 16.773 24.83 24.404-8.89-.322-18.93-.114-27.91-.13l-335.72-.2c9.41-8.051 20.05-16.332 29.8-24.055"/><path fill="#091733" d="M1611.17 1083.21c3.52 4.01 7.43 9.22 10.8 13.5l-.48 258.29c7.4-6.33 13.42-12.78 20.02-19.93-.41-62.66-.36-125.33.17-188 5.34 7.03 18.51 20.53 25.03 27.55-.1 15.15 2.62 98.24-2.32 104.83-2.43 3.24-4.39 6.12-4.61 10.27-.22 4.04-.3 15.64 2.26 18.41 5.27-1.74 23.39-22.88 28.8-28.41l5.35-1.73.04 11.92-.11 1.56c-28.4 27.81-56.7 57.9-85.1 86.24z"/><path fill="#091733" d="m670.28 442.048 65.822-60.682c8.703-8.095 23.211-22.887 31.683-29.636 3.553 2.911 7.753-.113 14.114 2.522-12.107 11.212-24.854 23.472-37.922 33.377 40.36 1.939 91.006-.088 132.628.323 10.026 7.394 19.471 15.669 28.973 23.739-61.303-1.699-129.437 2.479-189.919-.877-6.997 6.871-15.566 14.005-23.032 20.508 8.155.84 22.275.355 30.831.275q25.11-.292 50.222-.305l184.28.511 13.358 10.034z"/><path fill="#091733" d="M1614.35 333.683c32.1-.109 65.38.478 97.35-.105-.01 33.201.25 67.163-.14 100.292-10.81-.127-22.11.199-32.87-.161-21.22-19.12-43.13-38.475-63.8-58.154a2088 2088 0 0 0-.54-41.872"/><path fill="#091733" d="M1678.43 1613.21c11.22.06 22.09.31 33.39.25-.31 33.51-.34 67.02-.1 100.53l-59.47-.13c-12.43.06-24.85.01-37.28-.12l.11-41.66c17.3-15.45 33.58-31.72 50.75-47.26l3.5-3.18c3.04-2.73 6.05-5.65 9.1-8.43"/><path fill="#091733" d="M734.172 331.969c18.711.518 37.459.33 56.178.196-7.612 3.351-7.104 6.062-13.513 9.99-5.268 2.941-7.798 7.424-13.725 9.626-1.016 1.805-28.31 25.731-32.19 29.268a8355 8355 0 0 0-92.856 85.887c-13.752-.074-27.908.254-41.692.414 27.383-28.786 58.221-56.948 87.219-84.148 11.661-10.938 23.509-22.522 35.327-33.168.755-2.257-.09-2.076-2.239-2.325 1.669-2.351 14.498-12.979 17.491-15.74"/><path fill="#080b14" d="M734.172 331.969c18.711.518 37.459.33 56.178.196-7.612 3.351-7.104 6.062-13.513 9.99-5.268 2.941-7.798 7.424-13.725 9.626.54-1.528 3.57-7.174 5.005-7.05l.01.166.113.068c1.44-.778 11.044-9.029 13.937-11.089-5.898.134-11.28.172-17.178-.211-.578-.038-2.781.33-3.497.24-.884-.111-4.877.099-5.502-.059-3.063-.774-8.933.491-11.511.052-7.429-1.266-6.8 1.601-12.275 5.387-.157.108-2.143.971-2.439 1.459-.021.036-1.547 1.396-1.591 1.431-2.958 2.288-5.404 5.268-8.411 7.47l-.853.389c.755-2.257-.09-2.076-2.239-2.325 1.669-2.351 14.498-12.979 17.491-15.74"/><path fill="#091733" d="M1410.06 1582.07c8.79 1.78 31.11 1.09 40.88 1.05-34.62 37.61-74.54 71.8-110.52 108.15-4.87 4.91-19.99 22.83-24.88 24.57l-2.58-1.84c-13.79-.25-28.46 1.41-40.5 1.04l-.6-1.29c9.94-6.35 7.06-8.52 14.13-14.99 41.85-38.3 83.21-77.31 124.07-116.69"/><path fill="#091733" d="M1036.56 1577.49c10.84 10.24 26.52 21.89 38.49 31.71q28.32 23.325 57.12 46.05c10.63 8.54 32.63 27.44 44.13 32.55-5.4-8.48-13.55-15-21.06-21.75 38.89-3.35 98.26-1.59 138.36-1.22-6.78 6.55-14.09 13.91-21.09 20.11-3.06 4.33-4.46 3.48-1.02 7.78-.76 1.07-1.41 1.93-2.2 2.96-8.51 4.96-13.97.03-21.08 2.29-5.58.25-16.31-1.3-24.04-.95-18.93.86-38.07 1.01-57.01.98-4.3-2.97-6.1-4.1-9.65-7.86-5.73-5.71-29.96-23.67-37.77-29.75a3130 3130 0 0 1-60.7-48.24c-10.74-8.62-22.16-16.94-32.48-25.96z"/><path fill="#080b14" d="M1157.51 1690.14c7.5.09 11.37-.67 18.09-1.14 1.93-.13 13.76 5.35 17.86 5.32 19.04-.13 38.05-.88 57.1-.5 8.12.32 12.39-2.28 18.73 1.86-8.51 4.96-13.97.03-21.08 2.29-5.58.25-16.31-1.3-24.04-.95-18.93.86-38.07 1.01-57.01.98-4.3-2.97-6.1-4.1-9.65-7.86"/><path fill="#080b14" d="M1250.56 1693.82c11.04-3.68 11.51-2.62 21.95-8.88-3.06 4.33-4.46 3.48-1.02 7.78-.76 1.07-1.41 1.93-2.2 2.96-6.34-4.14-10.61-1.54-18.73-1.86"/><path fill="#091733" d="m1314.3 332.338 2.62-.62c1.02.654 2.67 1.502 3.22 2.351-.19 3.454 1.24 5.484 3.58 7.881 15.79 16.131 32.54 31.607 48.92 47.124a5222 5222 0 0 1 79.67 77.2q-20.97.087-41.94-.328a5601 5601 0 0 0-83.63-79.701c-7.87-7.242-52.76-46.194-54.64-51.846 6.76-2.806 32.33-.502 42.2-2.061"/><path fill="#091733" d="M334.021 725.416c5.535-3.14 19.423-18.403 24.935-23.912L408.48 652c17.909-17.987 37.013-35.678 54.642-53.682a3300 3300 0 0 0-.02 40.901c-35.779 37.003-71.716 72.617-106.777 110.49-6.897 7.06-14.561 14.999-21.815 21.591q.079-21.114-.095-42.228z"/><path fill="#091733" d="m600.312 1582.46 37.475-.16a4686 4686 0 0 0 105.38 98.79c8.765 7.98 24.601 24.18 32.527 30.67l1.122.9-.921 1.34c-8.135-.15-36.877 1.5-42.258 1.11-.704-.06-22.235-23.56-24.331-25.6-12.731-12.34-105.839-98.02-108.994-107.05"/><path fill="#091733" d="M338.109 1322.38c-2.981-15.95-1.884-25.44-1.53-41.2l.845 2.84c9.081 2.17 6.39 10.63 16.377 11.78 3.252 3.23 6.995 6.78 10.022 10.18 31.603 35.47 65.802 68.25 99.225 101.98.02 13.09-.254 27.66.22 40.63-36.588-31.3-73.671-72.99-108.915-106.52-2.978-4.54-8.381-7.68-11.804-13.08-.076-3.21-2.028-4.17-4.44-6.61"/><path fill="#091733" d="M1694.08 1297.76c5.63-4.49 11.2-10.69 17.54-15.88l.42.22c1.42 6.83-.8 27.15-.04 35.19.72 7.51-5.59 4.71-3.62 9.78-2.25 3.4-22.71 24.34-26.97 28.52-30.03 29.47-63.43 65.57-95.17 92.38l-.08-41c37.01-35.36 73-71.78 107.92-109.21"/><defs><linearGradient id="Q" x1="1166.459" x2="1121.276" y1="434.428" y2="382.266" gradientUnits="userSpaceOnUse"><stop offset="0" stop-color="#141521"/><stop offset="1" stop-color="#071837"/></linearGradient></defs><path fill="url(#Q)" d="M1171.96 354.389c15.53-1.907 71.04-1.377 87.71.151-2.81 1.197-1.92 1.274-.96 4.006 3.95 1.365 5.22 2.035 9.19 1.217 8.31 6.158 17.49 16.044 27.08 23.503-28.02.274-56.05.313-84.07.117-16.95-.091-37.79.999-53.93-2.411 5.09-4.358 12.05-9.266 15.8-14.088l-.22-1.781-2.61-1.779c-7.39 7.813-36.42 29.503-46.3 37.296-28.89 22.79-58.65 47.797-88.14 69.489l-8.21-8.208c43.37-36.338 89.74-70.076 133.55-106.35l10.17-.107z"/><path fill="#091733" d="M1258.71 358.546c3.95 1.365 5.22 2.035 9.19 1.217 8.31 6.158 17.49 16.044 27.08 23.503-28.02.274-56.05.313-84.07.117-16.95-.091-37.79.999-53.93-2.411 5.09-4.358 12.05-9.266 15.8-14.088l-.22-1.781-2.61-1.779.31-1.064c5.46-2.579 32.73 1.867 41.67 1.036 18.44-1.712 28.07-5.293 46.78-4.75"/><path fill="#091733" d="M1586.26 600.571c9.11 5.12 61.57 59.961 72.77 70.926 8.9 8.718 32.08 31.692 40.55 40.84l-.6 7.124 1.34-.376c.84-1.817.22-1.245 1.55-2.005 3.57 3.776 6.74 7.409 10.13 11.328.33 9.837-1.02 21.142-1 31.842l-.06 3.431-1.07.752c-22.61-20.397-37.41-36.924-58.38-58.56a5772 5772 0 0 0-65.34-66.423c-.07-12.96-.03-25.92.11-38.879"/><path fill="#091733" d="M894.164 1665.63c-5.503 4.85-15.046 12.12-16.246 19.17l.531-2.01 2.356 1.06c10.197-6.63 29.548-23.4 40.046-31.75a8142 8142 0 0 0 92.419-74.5l9.08 8.07c-25.324 22.03-54.193 44.08-80.554 65.13-16.047 12.8-35.268 28.51-51.685 40.41-13.253 4.3-63.596 2.8-79.838 1.86-10.642-.61-9.312-8.2-28.307-4.47-9.198-6.42-18.382-15.7-26.338-23.65 47.54-.25 91.217-.19 138.536.68"/><path fill="#091733" d="M783.837 359.749c.211-1.033.247-2.235.828-3.147 10.326-.511 34.865-.418 45.77.317 14.955 1.539 30.917.008 46.035.652 3.475.149-.799 3.919 7.337 1.556l1.356-.287c2.878-.22 6.763-.78 9.3.813 9.978 6.269 18.27 15.445 27.72 22.333 34.519 25.16 66.83 54.213 100.797 79.89-3.15 2.686-6.55 5.736-9.88 8.141-6.37-4.122-14.034-10.416-19.812-15.5-34.641-30.481-72.345-57.133-107.468-87.015-1.356-1.154-5.715-2.08-7.558-1.985l-.746 1.442c2.651 4.675 10.602 10.692 15.024 14.484-20.657 2.298-40.45 1.81-61.192 1.852l-73.605.013c5.004-5.339 19.986-19.924 26.094-23.559"/><path fill="#091733" d="M783.837 359.749c.211-1.033.247-2.235.828-3.147 10.326-.511 34.865-.418 45.77.317 14.955 1.539 30.917.008 46.035.652 3.475.149-.799 3.919 7.337 1.556l1.356-.287-.521.971c-1.761 3.426-31.986 1.835-37.142 1.715a1058 1058 0 0 0-35 .096c-4.714.069-5.168-1.314-9.988-.279-4.143.89-14.67.326-18.675-1.594"/><path fill="#091733" d="M1588.09 1026.29c6.53 7.6 13.11 17.27 19.69 25.21 27.82 33.6 55.03 72.95 84.08 105.17.86 2.88.83 5.43 3.49 6.81l.09 4.12c2.13 30.79.91 78.72.75 110.39l-5.35 1.73c.52-.68 1.18-2.01 1.62-2.81l-.78-1.22-2.44.02c-4.72 5.3-9.8 10.04-14.92 14.96-.69 1.06-6.51 7.22-7.3 7.55-2.12-.25-2.49-11.4.79-13.42 4.9-3.02 3.34-8.72 4.11-13.78-.21-36.79-.13-73.58.24-110.36 3.46 4.12 5.7 7.72 10.77 9.32l-.93-.5 1.28-1.56c-4.77-10.42-24.93-33.36-32.35-42.99-22.66-29.39-48.96-59.27-70.59-89.26 2.41-3.33 5.07-6.28 7.75-9.38"/><path fill="#080b14" d="M1689.24 1275.71c.76-1.24.23-.61 2.08-1.74 5.76-3.52-.17-45.49 2.47-55.83l.53-.04c-.22 7.42-.94 30.07.37 36.61 1.2-27.93-1.39-59.83.75-87.11 2.13 30.79.91 78.72.75 110.39l-5.35 1.73c.52-.68 1.18-2.01 1.62-2.81l-.78-1.22z"/><path fill="#080b14" d="M1671.92 1271.02c2.23 9.88-1.46 15.85 2.4 19.65-.69 1.06-6.51 7.22-7.3 7.55-2.12-.25-2.49-11.4.79-13.42 4.9-3.02 3.34-8.72 4.11-13.78"/><path fill="#091733" d="M336.097 1586.37c13.055.61 30.094.08 43.449.04 8.201 5.92 16.562 14.71 24.219 21.57 19.386 17.34 38.402 37.41 58.004 54.29l-.113 51.26c-4.279.77-16.811.48-21.816.48l-.115-43.9c-20.826-18.64-47.964-45.46-68.48-62.02l-35.428.21q-.102-10.965.28-21.93"/><path fill="#091733" d="M1668.22 1586.33c14.32-.28 29.28.02 43.65.1v21.61l-35.32-.05c-22.33 20.78-45.36 41.22-66.96 62.73l.06 19.03-.14 24.06c-7.31.01-14.63.07-21.94.19-.14-16.97-.12-33.94.04-50.92 5.6-6.98 24.76-24.96 31.85-31.45 15.59-14.28 32.77-31.95 48.76-45.3"/><path fill="#091733" d="m1587.43 333.731 21.83-.082-.14 43.136c18.42 17.791 48.78 45.539 68.14 62.109 11.52.025 23.04-.044 34.57-.209v21.223c-14.66.024-29.31-.044-43.97-.204-8.14-6.006-23.45-20.901-31.04-27.974l-49.08-45.352c-.38-17.286-.22-35.3-.31-52.647"/><path fill="#091733" d="m440.602 333.549 20.521-.087.054 52.234c-26.782 25.313-54.107 49.292-80.693 74.232l-25.734.04-18.867.007-.072-20.821 37.655-.085c18.294-19.044 46.527-43.101 66.758-61.9.417-14.319.298-29.25.378-43.62"/><path fill="#091733" d="m1553.96 1539.5 157.58-.13-.13 11.72c-52.92-.51-106.79-.1-159.76.11l-.15 11.55-.18 117.71c-.03 9.44 3.95 28.8-4.09 33.43-4.39.03-2.66.71-5.88-1.1-1.3-7.25-.72-18.37-.72-26.06l.02-44.24.06-62.37c0-8.14-1.47-33.7 2.86-38.97 3.24-1.94 6.54-1.57 10.39-1.65"/><path fill="#091733" d="M1540.72 333.858c3.46-.075 7.82-.641 10.58 1.123 1.34 10.511.7 39.01.7 50.525-.29 36.826-.36 73.653-.18 110.479l103.84.004c13.17-.044 43.04-.93 55.09.336 1.61 2.511 1.07 6.707 1.02 9.921-24.29.091-157.31 2.248-169.18-2.51-2.88-5.705-1.84-151.831-1.87-169.878"/><path fill="#091733" d="M553.36 1640.43c20.59-1.19 54.54.1 76.288.14 8.601 8.31 37.934 35.25 43.864 42.91-18.994 1.36-55.473.24-75.905.2-7.201-6.61-41.328-37.05-44.247-43.25"/><path fill="#091733" d="m1421.28 1640.34 75.59-.06c-9.77 9.63-36.05 37.33-45.97 43.62l-76.09-.03c13.89-13.64 31.78-30.94 46.47-43.53"/><path fill="#091733" d="M422.122 1102.93c1.999 2.09 1.135 18.71 1.112 22.99l-.065 46.65c.039 57.06-.278 115.33.487 172.28-3.746-4.25-8.162-8.28-12.274-12.22l.001-46.88c.209-50.43-.763-101.6.02-151.87-10.183 11.99-20.213 22.53-31.081 33.93l.605-14.88c10.371-14.13 29.441-36.74 41.195-50"/><path fill="#091733" d="m897.715 384.657.905-.524c4.736 1.986 47.225 37.008 54.714 42.895q-110.292.852-220.584.077a2046 2046 0 0 1-27.477-.272l13.071-10.876c65.921-.203 134.749-1.086 200.359.058-9.352-9.58-23.141-18.861-33.752-29.228 5.363-.467 7.557-.474 12.764-2.13"/><path fill="#091733" d="M422.656 704.881c1.467 2.885.494 220.911.373 241.258-9.138-12.529-21.692-27.328-31.569-39.643l-10.614-12.479c.473-4.42.505-9.582.646-14.082 9.319 8.549 21.637 23.335 29.83 33.257l-.196-196.726z"/><path fill="#091733" d="M1152.31 383.759c3.68 1.8 7.45 2.651 11.4 3.757-10.14 7.974-24.11 19.939-33.59 28.452 8.76-.233 17.71-.188 26.49-.137 58.74.34 117.62-.693 176.34.078 5.09 3.966 9.03 6.976 13.66 11.482l-22.01.287-226.12-.134c14.42-13.347 37.99-31.79 53.83-43.785"/><path fill="#091733" d="M1626.08 705.429c2.57 1.659 8.67 8.714 11.06 11.322l-.05 194.883c10.32-10.335 20.04-21.236 30.66-31.778l.02 14.569-8.5 10.518-33.09 40.584z"/><path fill="#091733" d="M1380.03 368.428c23.41-.43 48.18-.018 71.7-.003 5.39 4.155 41.8 36.657 43.89 40.454l-75.2.241c-6.67-6.657-37.85-35.069-40.39-40.692"/><path fill="#091733" d="M1626.18 1102.82c4.45 3.3 36.43 43.69 41.43 49.96-.46 4.22-.15 9.73-.04 14.09-10.8-9.62-21.5-22.4-30.43-33.76-1.72 45.47-.23 101.23-.23 147.39l.18 51.57-11.23 11.07c-.78-79.93.72-160.32.32-240.32"/><path fill="#091733" d="m599.44 368.227 72.793-.088c-8.135 6.738-39.547 39.75-45.481 40.314-22.858.852-49.831.195-72.894.009 9.85-9.591 34.606-32.4 45.582-40.235"/><path fill="#091733" d="M707.301 1623.36c22.864-1.54 61.078-.29 84.946-.27 52.24-.13 104.48.03 156.719.47-10.018 9.2-28.727 23.67-39.592 32.3-11.636 10.17-10.01 6.65-24.941 5.52 8.174-7.36 23.445-18.35 29.853-25.41l-.343-1.45c-1.872-.89-181.998-1.6-195.553-.72-4.792-3.94-6.9-5.65-11.089-10.44"/><path fill="#091733" d="m1178.18 1623.46 164.72.24c-4.17 3.87-7.37 6.57-11.77 10.09l-122.17-.56c-22.47.93-55.61 1-78.08 0l33.78 27.22-1.29.21-1.9.35c-5.17.92-5.57 1.27-10.21 4.09a2333 2333 0 0 1-50.38-41.12c25.56-.45 51.66-.31 77.3-.52"/><path fill="#091733" d="M1675.57 1388.74c2.5 3.04 1.33 61.73 1.3 69.73-11.46 11.53-23.91 23.64-34.63 35.74-2.27-2.35-1.01-63.5-.95-71.83 10.97-11.37 22.89-22.61 34.28-33.64"/><path fill="#091733" d="M1640.93 553.767c6.75 5.262 29.83 30.17 35 36.848l-.01 67.952c-5.88-3.508-28.7-27.218-34.97-33.6z"/><path fill="#091733" d="m405.461 554.673 1.344 1.792c.439 14.584.208 56.325.186 69.111-10.188 10.095-20.53 21.32-30.459 31.763l-1.346-1.444c-.604-13.638-.259-56.548-.231-67.712z"/><path fill="#091733" d="M375.178 1390.42c7.989 4.14 23.239 24 31.878 31.18-.001 22.05.927 50.2-.157 71.71-7.62-5.34-24.344-26.03-31.754-33.72z"/><defs><linearGradient id="R" x1="268" x2="327.064" y1="762.057" y2="761.998" gradientUnits="userSpaceOnUse"><stop offset="0" stop-color="#001031"/><stop offset="1" stop-color="#242538"/></linearGradient></defs><path fill="url(#R)" d="M264.478 761.445c17.746-21.29 39.135-45.093 57.817-66.234 2.986-.576 1.507-.748 4.482 1.123.07.269.913 3.633.782 3.407.41.708.691 10.26.687 10.265-13.753 17.447-31.793 32.595-45.098 50.695l-.515.781c6.931 7.638 43.481 51.978 48.098 52.748l-.001 2.209c-2.058 3.445-1.239 15.117-1.108 19.787-2.418-4.003-5.579-7.468-8.639-10.984-18.647-21.426-38.134-42.131-56.505-63.797"/><path fill="#222230" d="m790.35 332.165 18.736-.068.652.654c4.266 5.682 14.525 5.392 21.371 5.215 3.943-.101 17.302-.369 21.146-.861 20.929-2.681 19.12.712 34.261 13.699.62.531 1.312 1.577 1.824 2.307l-.843 1.114c-27.291.842-55.049-.104-82.384.262-6.934.093-16.473.408-23.214-.235-6.361-2.635-10.561.389-14.114-2.522 2.651-3.154 6.143-6.566 9.052-9.575 6.409-3.928 5.901-6.639 13.513-9.99"/><path fill="#091733" d="M1461.68 1577.46c7.75.41 15.46.35 23.22.36-9.23 10.31-27.11 23.95-38.54 32 19.65.81 41.36-.44 61.18.06 7.85.21 19.95-.67 27.31.76 1.13 2.85 1.74 7.18-.1 9.76l-4.5.37c-36.93.21-73.87.16-110.8-.15 14.49-13.25 29.12-31.22 42.23-43.16"/><path fill="#091733" d="M566.163 1578.21c5.968-.65 15.924-.39 22.239-.4 6.846 8.53 32.817 33.13 42.2 42.48q-42.674.525-85.352.27c-7.177-.1-27.311 1.39-32.306-1.21-.649-3.26-.287-4.26-.036-7.61l1.344-1.29c21.23-1.07 68.532-.2 87.322-.7-10.799-10.22-25.546-21.29-35.411-31.54"/><path fill="#091733" d="M512.345 429.695q58.499.2 116.995-.242l-38.767 38.232c-2.766 3.887-20.691 2.713-26.166 2.734 13.977-10.592 22.734-20.189 38.646-29.756-22.508-1.903-67.017-.673-90.589-.696z"/><path fill="#091733" d="M954.509 365.51h13.707c16.537 10.961 41.044 32.992 56.754 46.39 10.82-8.904 21.26-18.218 32.02-27.116 9.71-8.032 24.27-25.008 37.71-17.824-.25 2.928-.5 2.22-3.39 4.856-21.73 17.618-44.28 34.732-66.21 52.429a3321 3321 0 0 1-45.539-36.966c-6.74-5.553-19.757-15.749-25.052-21.769"/><path fill="#091733" d="M512.32 1577.75c13.834.18 31.2-.57 44.567.3 5.528 4.79 27.912 23.38 30.491 27.54-24.9.46-50.204.09-75.16.33z"/><path fill="#091733" d="M1620.55 1421.84c2.15 2.6 1.82 101.81.22 112.42-.17 1.14-1.79 1.22-2.48 1.45-9.32-2.66-6.18-13.89-6.14-21.77l.01-38.14c.1-9.38 0-18.76-.31-28.13-10.63 11.33-19.74 20.84-30.89 31.7.25-7.03.23-13.85.22-20.88 13.23-12.09 26.36-24.31 39.37-36.65"/><path fill="#091733" d="M1581.15 510.974c8.64-.153 17.31-.049 25.95-.099-.01 15.696.13 31.443.09 47.125-.02 8.688.6 21.202-.1 29.435a455 455 0 0 1-14.15-14.346c-3.82-3.991-7.9-7.738-11.64-11.806.35-16.657-.43-33.736-.15-50.309"/><path fill="#091733" d="M953.006 1683.69c22.511-19.54 50.484-39.75 71.794-59.8 23.63 19.61 48.65 38.88 71.94 58.6h-15.57c-12.12-9.2-45.34-36.21-55.68-46.12-18.01 13.6-35.256 30.97-53.847 44.33-5.007 3.59-8.128 4.2-10.937 6.15-2.305-2.15-3.559-.74-6.368-2.39z"/><path fill="#091733" d="M1421.04 430.061c35.68-.087 71.55.22 107.24-.141 3.68-.037 5.58.201 7.78 2.543.39 4.33.77 2.355-1.02 6.177-5.94 3.297-49.03 1.281-58.79 1.287l-28.62.117c9.27 9.339 24.26 21.591 34.55 30.482l-19.95-.176c-10.8-11.97-29.12-28.293-41.19-40.289"/><path fill="#091733" d="m441.876 510.788 25.263.012.051 50.396c-4.226 4.752-8.289 9.076-12.854 13.516-4.468 4.488-8.538 8.989-12.813 13.645.95-24.966.352-52.421.353-77.569"/><path fill="#091733" d="M1462.2 444.307c21.4-1.116 51.74-.26 73.79-.263-.07 8.733.11 18.069-.15 26.71-15.13-.331-30.28.012-45.46-.219-4.8-4.298-26.99-22.485-28.18-26.228"/><path fill="#091733" d="M1606.23 1461.78c.14.07 1.03.38 1.03.55.61 11.9.4 64.94.58 72.49l-23.84.03c-.24-.05-1.51-.28-1.54-.5-1.32-9.73-.85-40.02-.85-48.35 4.81-4.68 9.57-9.4 14.3-14.16 3.39-3.43 6.94-6.66 10.32-10.06"/><path fill="#091733" d="M1493.61 1578c12.28-.79 29.58-.18 42.34-.22q-.15 13.65-.06 27.3l-29.39.12c-14.96.18-29.38.07-44.38.65 4.94-4.53 9.96-8.94 15.09-13.25 5.81-4.85 10.65-9.77 16.4-14.6"/><path fill="#091733" d="M1611.94 510.901c3.2-.076 5.27-.433 8.18.876 2.19 5.856.75 102.61.61 115.185-10.63-9.868-21.24-20.229-31.79-30.248-2.35-1.833-5.69-5.16-7.98-7.291l-.13-20.947c9.82 10.984 22.81 22.126 31.25 33.874z"/><path fill="#091733" d="M441.877 1462.33c5.385 3.61 19.58 18.77 25.158 24.08.007 14.86.746 34.02.02 48.44-8.679.17-17.151.05-25.816.02.777-23.43.202-48.66.638-72.54"/><path fill="#091733" d="M517.608 444.47c20.686 1.157 48.415-.435 69.962-.404-6.314 6.167-12.072 10.509-18.755 16.137-3.582 2.366-8.931 7.268-12.541 10.19l-43.722.454c-.036-8.175-.205-17.181.099-25.344.032-.873 4.566-1.005 4.957-1.033"/><path fill="#091733" d="M429.008 1423.24c4.27 2.08 34.384 31.36 38.553 36.24-.231 6.33-.221 13.02-.316 19.38-11.18-10.29-21.176-20.28-30.505-32.35.028 9.54.107 19.08.237 28.61.108 12.98.262 26 .257 38.98-.001 5.29.917 18.81-3.392 21.69-2.806-.87-5.254-3.65-5.224-6.56.103-10.03.234-20.12.256-30.14z"/><path fill="#091733" d="M429.015 510.809c3.108-.054 4.745-.354 7.594.925.954 9.124.488 23.616.473 33.087l-.124 56.318c9.314-10.695 20.772-22.163 30.669-32.367.16 6.828 1.64 17.491-2.413 22.421-12.138 10.679-24.418 23.224-35.813 34.686z"/><path fill="#091733" d="M1508.1 1655.77c8.69-.3 18.97-.06 27.8-.04l-.01 28.11-27.14.06-29.61.17c9.04-8.81 19.88-20.19 28.96-28.3"/><path fill="#091733" d="M512.491 1655.78c8.883.06 17.859 0 26.715.14q.915.735 1.839 1.47c3.97 3.12 24.982 23.11 26.641 26.5l-55.204.08c-.075-9.37.166-18.82.009-28.19"/><path fill="#091733" d="M513.056 368.378a2532 2532 0 0 1 55.464-.134c-4.453 4.441-10.817 10.764-15.56 14.911-4.444 4.489-9.032 8.54-13.594 12.883l-26.656.05c.073-7.468-.472-20.872.346-27.71"/><path fill="#091733" d="m1489.1 368.352.72.038c12.51.756 33.18.39 46.06.411.02 4.38.49 21.999-.47 26.796-.13.683-2.35.625-3.16.625l-22.47-.188c-4.12-3.726-7.74-7.29-11.74-11.094a445 445 0 0 1-11.82-11.509c-.72-.72-3.62-2.921-3.08-4.111 1.35-.963 4.36-.854 5.96-.968"/><path fill="#091733" d="M387.189 1586.23c5.608.05 10.612.16 16.288.11 19.901 16.89 37.922 37.5 58.428 53.48q-.271 7.815-.344 15.63c-6.078-3.43-69.443-62.59-74.372-69.22"/><path fill="#091733" d="M1587.76 392.682c5.81 4.265 10.96 10.022 16.34 14.753 18.74 16.502 37.06 33.474 55.46 50.331 1.13 1.034-1.62 1.603-1.81 1.661-4.93.162-9.82.054-14.75.054-9.23-8.504-18.25-17.143-27.45-25.66l-28.07-25.724c-.04-5.14.05-10.28.28-15.415"/><path fill="#091733" d="M460.715 391.82c.779 4.003.438 11.391.456 15.752-18.005 17.838-38.339 34.455-56.688 52.333l-16.056.009-.137-.973c12.671-13.308 62.589-57.119 72.425-67.121"/><path fill="#091733" d="M1644.56 1586.16c5.8-.19 11.72-.15 17.54-.2-21.08 20.91-43.73 40.63-65.01 61.54l-9.7 9.15c-.06-5.56-.09-11.12-.09-16.69 20.02-16.64 38.18-36.21 57.26-53.8"/><path fill="#091733" d="M748.352 1752.41c2.131 1.19 16.128 13.44 18.46 15.62 2.158-1.45 4.264-2.92 6.339-4.5l14.498-11.02c24.301-.04 16.245 3.35.23 16.32l-19.125 15.19c-.597.45-1.194.89-1.791 1.33-12.559-9.87-25.564-21.1-37.38-31.84 5.002-1.89 13.49-1.38 18.769-1.1"/><path fill="#091733" d="M1675.59 1487.79c2.56 2.36 1.48 40.57 1.57 47.06l-20.92.13c-2.48-2.2-1.38-22.22-1.44-26.63 6.58-7.43 13.45-13.9 20.79-20.56"/><path fill="#091733" d="m1655.02 510.872 20.99-.013c.07 15.761.5 34.887-.13 50.346-6.81-6.886-13.94-14.68-20.77-21.728-.17-8.895-.39-19.723-.09-28.605"/><path fill="#091733" d="m375.049 510.836 20.854-.004q-.126 13.534-.085 27.07a107 107 0 0 1-9.76 10.749 212 212 0 0 1-3.102 3.327c-2.746 2.826-5.301 5.707-8.056 8.566-.145-16.388.139-33.24.149-49.708"/><path fill="#091733" d="M375.083 1488.43c5.07 2.88 15.884 15.98 20.424 20.83.101 8.46-.057 16.96.094 25.41-6.205.53-14.2.29-20.66.4.293-15.57.003-31.06.142-46.64"/><defs><linearGradient id="S" x1="721.129" x2="719.073" y1="1752.668" y2="1722.318" gradientUnits="userSpaceOnUse"><stop offset="0" stop-color="#031931"/><stop offset="1" stop-color="#322a3e"/></linearGradient></defs><path fill="url(#S)" d="M690.925 1721.03c11.091-.13 24.165-.86 34.801-.61-2.105 1.86-4.306 1.06-7.136 1.02-.704-.02-1.915-.21-2.572.27-.001.64 1.302 1.9 1.681 2.29a94 94 0 0 0 9.025 8.3c6.186 4.89 16.027 14.53 21.628 20.11-5.279-.28-13.767-.79-18.769 1.1-5.202-2.58-30.798-25.98-37.185-31.25z"/><path fill="#091733" d="M421.572 1586.49c2.679-.07 5.626-.11 8.293.02 10.17 10.62 21.102 20.35 31.249 30.83.009 4.7 2.768 18.79-3.779 12.75l-17.346-16.1c-8.932-8.42-18.6-18.06-27.695-26.5-.083-.08-.021-.16.012-.27 1.092-.98 7.464-.68 9.266-.73"/><path fill="#091733" d="M460.732 414.74c.703 4.209.476 11.56.459 15.999-9.685 8.931-21.646 19.953-30.768 29.234q-8.99.182-17.981-.064c-.367-2.711 26.868-25.804 30.508-28.968a384 384 0 0 0 17.782-16.201"/><path fill="#091733" d="M1587.54 415.253c4.82 2.935 47.27 42.175 46.84 44.464l-16.21.07c-9.85-7.88-21.51-19.106-30.53-27.968-.15-5.521-.18-11.044-.1-16.566"/><path fill="#091733" d="m1620.31 1586.13 17 .06c-9.4 9.75-28.27 29.44-39.01 37.63-3.47 3.47-7.04 6.42-10.68 9.72l.29-16.07c10.8-10.58 21.72-20.48 32.4-31.34"/><path fill="#091733" d="m844.902 1721.34 3.075.32c-13.221 7.08-25.612 20.61-38.992 27.75-.408.21-13.198.08-15.162.08 8.291-9.27 19.489-21.07 29.273-28.42 4.243.73 17.37.47 21.806.27"/><path fill="#091733" d="M1604.55 1586.47c1.64 0 5.75-.52 7.02.89-.05.29-17.99 18.05-19.87 19.88-6.69 8.65-3.76-17.23-3.72-20.42z"/><path fill="#091733" d="M438.33 1586.48c7.48-.12 15.167-.01 22.717-.06-.098 7.1-.008 14.12-.065 21.23-3.275.34-21.943-17.71-22.652-21.17"/><path fill="#091733" d="M459.152 438.563c3.33 1.002 1.871 16.902 1.952 20.957l-21.157.27c-.042-.006-1.175-.044-1.475-.292-.164-.136-.211-.316-.213-.539-.008-.759 18.7-18.164 20.893-20.396"/><path fill="#091733" d="M1587.94 439.496c2.76 1.745 19.79 17.443 21.98 20.218-6.78.203-15.21.019-22.07-.086q-.135-10.067.09-20.132"/></svg>