<svg xmlns="http://www.w3.org/2000/svg" height="1024" preserveAspectRatio="none" style="display: block;" version="1.1" viewBox="0 0 2048 2048" width="1024">
<path d="M 0 0 L 2048 0 L 2048 2048 L 0 2048 L 0 0 z" fill="rgb(36,36,37)" transform="translate(0,0)"></path>
<path d="M 1100.84 620.352 C 1133.3 612.239 1158.94 595.478 1181.42 570.781 C 1205.12 545.038 1222.22 513.936 1231.27 480.139 C 1243.22 434.665 1236.68 392.731 1241.7 347.082 C 1242.18 342.681 1252.28 337.018 1255.91 338.258 C 1282.56 347.37 1327.03 389.256 1344.58 408.463 C 1429.77 501.659 1474.01 623.647 1464.8 749.716 C 1457.7 863.094 1410.52 976.888 1325.17 1053.74 C 1313.13 1064.59 1271.11 1101.37 1253.47 1102.06 C 1248.89 1102.24 1244.63 1096.35 1242.11 1092.75 C 1239.32 1002.93 1255.73 920.055 1189.54 846.16 C 1157.6 810.491 1120.77 794.811 1074.24 792.074 C 1074.8 803.242 1074.71 814.732 1074.77 825.936 C 1097.46 839.573 1106.77 858.662 1102.29 885.437 C 1099.44 902.476 1087.93 911.538 1074.18 920.394 C 1073.54 942.538 1074.03 966.692 1073.92 989.015 C 1073.54 1037.43 1073.52 1085.84 1073.86 1134.25 L 1073.36 1499.87 C 1082.42 1504.63 1090.93 1510.19 1095.97 1519.33 C 1113.91 1551.84 1102.15 1579.86 1073.4 1597.85 C 1072.27 1623.22 1079.67 1656.94 1060.01 1676 C 1040.21 1695.19 1009.29 1697.17 989.822 1676.98 C 969.437 1655.83 974.908 1623.62 975.524 1597.03 C 965.136 1592.46 956.816 1586.01 950.664 1576.3 C 942.789 1563.69 940.457 1548.4 944.215 1534.02 C 948.994 1515.91 960.167 1507.77 975.055 1498.77 L 974.962 920.442 C 949.904 907.95 938.482 887.736 945.619 859.153 C 949.625 843.108 960.587 833.864 974.15 825.726 L 974.363 794.406 C 932.195 795.693 898.687 807.944 868.124 838.118 C 796.112 909.214 807.639 1003.06 807.179 1094.14 C 793.897 1110.84 780.678 1099.79 766.878 1089.78 C 700.355 1041.53 650.854 975.849 619.16 901.617 C 571.529 787.954 570.601 660.1 616.577 545.758 C 643.242 479.146 685.583 419.949 740.007 373.192 C 753.66 361.24 774.359 344.835 790.559 337.937 C 811.335 338.988 809.405 358.048 808.902 373.582 C 806.956 433.69 810.13 490.032 842.956 543.369 C 866.511 581.671 904.175 609.181 947.827 619.969 C 939.92 590.114 943.104 565.452 974.049 550.329 C 977.453 524.731 981.05 511.794 996.343 490.864 C 1016.4 463.412 1030 458.925 1051.09 488.362 C 1066.93 510.464 1070.68 524.1 1074.16 550.324 C 1103.06 565.923 1111.05 589.658 1100.84 620.352 z" fill="rgb(0,0,0)" transform="translate(0,0)"></path>
<path d="M 785.338 493.768 C 787.641 498.637 792.026 513.315 794.775 520.168 C 805.23 546.577 820.555 570.786 839.953 591.535 C 867.598 621.146 904.443 645.227 944.924 651.767 C 954.539 653.32 964.42 653.522 974.149 653.867 L 974.363 762.05 C 899.027 763.049 850.259 798.406 811.582 860.488 C 793.15 893.203 788.366 908.542 781.57 944.679 C 770.557 929.46 758.971 913.71 749.695 897.358 C 685.225 783.708 690.017 634.046 761.512 524.673 C 768.386 514.159 776.218 502.291 785.338 493.768 z" fill="rgb(149,148,148)" transform="translate(0,0)"></path>
<path d="M 1261.12 492.335 C 1269.48 499.894 1277.27 511.63 1283.88 520.931 C 1315.65 565.598 1334 621.657 1339.65 676.33 C 1347.81 755.475 1333.86 839.484 1291.86 908.021 C 1284.68 919.725 1276.55 929.675 1267.98 940.271 C 1260.09 903.959 1255.17 890.359 1237.18 858.429 C 1227.56 842.681 1216.14 828.102 1203.16 814.981 C 1169.34 780.248 1122.88 760.707 1074.39 760.82 L 1073.99 654.863 C 1100.84 652.714 1122 649.679 1146.52 637.205 C 1185.06 617.594 1220.1 582.671 1240.23 544.451 C 1248.85 528.103 1255.26 509.741 1261.12 492.335 z" fill="rgb(149,148,148)" transform="translate(0,0)"></path>
<path d="M 1272.06 384.458 C 1280.43 389.267 1305.65 412.879 1312.88 420.381 C 1393.13 503.732 1436.19 608.464 1434.05 724.522 C 1432.16 827.395 1403.08 915.616 1337.82 995.915 C 1326.95 1009.28 1314.58 1021.18 1302.37 1033.13 C 1292.35 1042.18 1283.22 1049.06 1272.02 1056.59 C 1272.42 1033.87 1274.28 1004.98 1271.2 983.17 C 1271.92 982.528 1272.62 981.878 1273.32 981.22 C 1338.77 919.24 1371.84 822.593 1373.96 733.794 C 1376.57 624.512 1344.4 531.011 1268.7 451.094 C 1274.68 429.054 1272.85 407.011 1272.06 384.458 z" fill="rgb(192,191,191)" transform="translate(0,0)"></path>
<path d="M 775.728 384.818 C 776.196 385.274 776.919 386.263 776.938 386.894 C 777.582 408.688 775.364 430.221 779.043 451.853 C 769.554 460.039 758.451 474.804 750.721 484.946 C 704.943 544.554 677.78 616.348 672.636 691.329 C 667.068 768.78 684.099 845.576 721.867 913.859 C 735.685 938.84 758.481 966.346 777.008 987.781 C 772.519 1010 773.904 1035.82 775.088 1058.35 L 747.743 1033.79 C 719.648 1009.7 693.985 973.921 674.734 942.42 C 622.261 856.557 605.074 751.5 619.743 652.538 C 634.824 550.803 692.755 446.621 775.728 384.818 z" fill="rgb(192,191,191)" transform="translate(0,0)"></path>
<path d="M 1005.93 925.101 L 1041.35 924.904 L 1041.86 1496.83 C 1029.93 1496.95 1018 1496.89 1006.07 1496.64 L 1005.93 925.101 z" fill="rgb(149,148,148)" transform="translate(0,0)"></path>
<path d="M 1007.08 651.301 C 1018.33 651.072 1029.96 651.162 1041.24 651.109 C 1041.24 705.529 1042.87 768.829 1040.86 822.288 L 1006.31 822.319 L 1007.08 651.301 z" fill="rgb(253,213,109)" transform="translate(0,0)"></path>
<path d="M 996.41 577.467 C 1010.83 577.375 1025.35 577.148 1039.77 577.095 C 1058.26 577.026 1068.72 578.8 1075.47 597.09 C 1071.89 610.647 1068.51 618.512 1053.76 619.593 C 1036.24 619.074 994.593 622.997 982.806 615.196 C 968.041 605.424 971.944 580.175 996.41 577.467 z" fill="rgb(36,36,37)" transform="translate(0,0)"></path>
<path d="M 1002.74 853.477 C 1021.42 853.892 1070.77 845.383 1071.95 871.165 C 1072.25 877.251 1070.02 883.189 1065.78 887.571 C 1060.32 893.213 1055.58 893.194 1048.25 893.151 C 1033.81 892.83 987.183 896.225 981.186 888.006 C 964.372 864.959 981.324 853.659 1002.74 853.477 z" fill="rgb(36,36,37)" transform="translate(0,0)"></path>
<path d="M 1036.93 1529.49 C 1044.37 1529.21 1058.36 1527.94 1064.58 1530.49 C 1068.81 1534.57 1069.71 1539.81 1070.05 1545.53 C 1070.45 1552.07 1069.93 1560.94 1065.13 1565.98 C 1059.64 1571.76 1024.19 1568.06 1014.5 1568.06 C 1009.07 1568.14 985.963 1569.27 982.876 1565.77 C 976.537 1558.57 976.69 1538.92 983.47 1531.34 C 990.124 1528.39 1027.31 1529.57 1036.93 1529.49 z" fill="rgb(36,36,37)" transform="translate(0,0)"></path>
<path d="M 1006.78 1600.46 L 1040.87 1600.02 C 1041.02 1613.74 1041.22 1627.49 1041.38 1641.2 C 1041.47 1648.75 1041.01 1650.96 1035.93 1655.98 C 1013.66 1668.83 1003.17 1648.32 1005.42 1628.67 C 1006.26 1621.39 1004.51 1606.88 1006.78 1600.46 z" fill="rgb(149,148,148)" transform="translate(0,0)"></path>
<path d="M 1024.76 508.659 C 1033.53 515.285 1039.24 532.991 1041.18 543.553 L 1025.52 543.774 L 1008.48 544.015 C 1010.01 528.443 1014.07 520.03 1024.76 508.659 z" fill="rgb(192,191,191)" transform="translate(0,0)"></path>
<metadata><recraft-signature>{"signed_by": "recraft", "signature_b64": "/RjO2TizZVlK7g2QFbeQA1zbkARuHpa68yOtCNixnXNyuzVibLgkGq7+lZkPCD79ho1Kc1urv6Y9Tewq1Um9AA==", "signing_algo": "Ed25519", "generation_timestamp": 1782066088, "identifier": "8cbf3cc3-6248-4d0a-9bdb-4949d65186d2"}</recraft-signature></metadata></svg>