<?xml version="1.0" encoding="utf-8" ?><svg xmlns="http://www.w3.org/2000/svg" xmlns:xlink="http://www.w3.org/1999/xlink" width="1024" height="1024" viewBox="0 0 1024 1024"><path fill="#252525" d="M0 0L1024 0L1024 1024L0 1024L0 0Z"/><path d="M509.886 137.568C518.976 137.184 519.429 142.864 522.793 150.15L532.285 170.693C540.411 187.748 548.421 204.857 556.313 222.022C560.493 231.037 564.752 240.023 568.65 249.163C569.649 251.506 569.556 255.432 567.271 256.945C561.355 260.861 538.824 256.817 534.22 259.551C535.907 261.541 544.611 263.115 547.638 263.929C620.803 284.282 687.602 322.879 741.776 376.101C772.966 406.465 801.312 442.664 826.462 478.128C828.481 480.461 833.149 488.601 835.529 490.035C847.428 497.206 857.578 506.255 852.425 522.493C850.352 529.108 845.653 534.582 839.428 537.634C831.071 541.715 824.132 540.358 815.917 537.553C807.634 544.371 798.484 551.056 790.016 557.903C752.02 589.022 713.788 619.853 675.325 650.393L618.169 696.391C603.435 708.358 585.538 723.279 570.391 734.523C576.169 740.715 591.537 752.577 593.825 760.108C595.353 765.139 594.855 846.483 594.24 856.403C594.136 858.082 594.012 859.728 593.122 861.199C592.049 862.971 590.624 864.25 588.553 864.692C586.99 865.026 585.562 864.883 584.127 864.165C579.736 861.964 575.695 857.917 571.985 854.732L549.127 834.737C544.995 831.122 540.131 826.445 535.596 823.49C535.294 837.835 529.939 847.562 514.936 850.027C495.731 850.382 489.837 839.109 489.445 821.957C480.257 829.941 471.136 838.002 462.084 846.139C455.895 851.727 449.741 857.586 443.157 862.707C437.596 867.033 435.328 866.185 430.697 861.455C429.215 854.198 429.9 838.024 430.011 827.61C430.199 810.066 429.142 776.724 430.924 759.762C431.24 756.744 451.609 737.713 455.284 734.171C446.75 726.77 436.349 718.991 427.389 711.995L394.784 686.182L306.688 616.487L242.798 565.82C232.512 557.627 218.029 545.369 207.625 538.218C195.594 541.286 183.402 539.351 176.259 528.078C172.5 522.142 171.278 514.946 172.866 508.102C175.752 495.809 182.082 495.12 190.51 488.509C191.617 487.64 196.444 480.286 197.466 478.81C201.919 472.354 206.405 465.921 210.924 459.511C273.288 371.396 350.364 305.871 453.017 270.929C459.006 268.89 487.44 261.892 490.231 260.115L490.18 259.48C483.245 255.573 451.167 264.699 455.518 249.26C456.926 244.263 462.199 233.94 464.654 228.717L485.987 183.847C492.727 169.619 499.448 155.363 505.98 141.037C506.671 139.522 508.481 138.371 509.886 137.568Z"/><path fill="#252525" d="M487.805 342.582C488.402 342.505 489.122 342.559 489.743 342.572C490.71 344.412 490.105 382.12 490.068 387.928L489.992 451.788L489.973 696.685C485.163 703.086 470.831 717.288 464.768 723.734C452.807 715.024 438.706 703.133 426.733 693.756L328.758 616.116C327.971 615.267 321.046 609.992 319.742 608.98C313.356 604.053 307.004 599.082 300.686 594.068C273.891 572.797 244.578 550.622 218.499 528.701C220.785 525.337 222.777 520.676 224.838 517.668C234.233 503.96 246.402 490.505 257.677 478.396C319.17 411.242 399.294 363.955 487.805 342.582Z"/><path fill="#252525" d="M534.135 342.262L534.637 342.349C548.409 344.829 570.029 351.852 583.226 356.595C673.009 389.503 750.654 448.952 805.844 527.042L696.52 615.368L606.767 687.596C591.982 699.501 575.485 712.072 561.247 724.509L534.41 697.62C533.665 688.991 534.125 671.672 534.117 662.371L534.125 592.302L534.135 342.262Z"/><path fill="#D1D0D0" d="M512.117 162.31C513.191 163.579 520.125 178.655 521.536 181.625C531.472 202.347 541.234 223.152 550.822 244.038C543.14 244.183 530.199 242.953 523.055 245.13C520.209 245.997 520.622 251.664 520.612 254.708L521.022 726.647C521.046 739.166 522.235 826.115 520.212 831.428C519.207 834.066 516.112 835.36 513.711 836.333C506.773 836.106 503.615 833.282 503.581 826.298L503.502 432.541L503.53 312.126L503.552 272.85C503.555 270.183 504.019 246.585 502.5 245.801C496.831 242.876 480.325 244.106 473.658 244.171C486.624 217.313 499.444 189.363 512.117 162.31Z"/><path fill="#D1D0D0" d="M488.767 311.081C489.684 311.149 489.274 311.107 490.189 311.714C491.149 315.305 490.814 324.027 490.757 328.186C385.576 353.798 307.632 400.609 235.915 482.227L220.416 500.024C219.067 501.558 212.551 508.614 212.171 509.736C208.827 519.605 206.298 531.804 191.571 524.278C186.358 520.497 183.205 515.384 187.11 509.303C189.8 505.114 194.221 503.832 197.807 500.688C201.362 497.571 204.136 493.716 207.134 490.083C269.972 412.487 351.07 352.017 447.209 322.635C461.121 318.384 474.389 314.206 488.767 311.081Z"/><path fill="#D1D0D0" d="M533.953 311.209C545.048 312.957 565.128 319.014 575.929 322.379C650.929 345.741 717.958 389.205 774.044 443.853C786.086 455.71 797.538 468.151 808.361 481.13C812.342 485.865 818.913 495.215 822.846 499.109C829.413 505.61 848.672 507.432 836.533 523.094C835.858 523.622 835.17 524.133 834.469 524.626C825.749 530.638 820.251 524.009 815.448 517.174C808.715 507.593 801.716 498.407 794.177 489.446C783.869 477.2 772.971 465.464 761.521 454.279C711.385 404.186 650.683 365.937 583.857 342.331C567.528 336.474 550.816 331.747 533.839 328.184L533.953 311.209Z"/><path fill="#D1D0D0" d="M534.713 766.779C536.734 767.731 574.681 807.995 579.756 813.251C579.974 823.133 579.944 833.217 580.015 843.115C578.291 841.852 576.45 840.089 574.804 838.686C561.469 827.317 548.697 814.833 534.546 804.495L534.713 766.779Z"/><path fill="#D1D0D0" d="M488.929 766.526C489.55 768.968 489.492 799.684 489.537 804.418C479.742 810.191 454.211 833.878 445.361 842.117L445.055 841.856C444.118 840.036 444.656 817.184 444.694 813.408C448.713 808.5 456.325 801.09 460.892 796.332C470.321 786.476 479.667 776.54 488.929 766.526Z"/><path fill="#D1D0D0" d="M535.013 718.827C540.379 723.813 545.985 729.952 551.169 735.285L579.923 764.764C580.021 774.716 580.056 784.668 580.028 794.621C575.442 790.19 569.388 783.168 564.976 778.34C555.206 767.505 545.237 756.851 535.075 746.383C534.986 737.198 534.965 728.012 535.013 718.827Z"/><path fill="#D1D0D0" d="M488.498 719.457C489.517 721.095 488.996 743.133 488.972 746.673C474.21 762.011 459.884 777.789 445.141 793.089C443.95 791.323 444.538 769.08 444.561 765.363C453.84 754.796 464.626 744.962 474.124 734.534C478.751 729.454 483.621 724.273 488.498 719.457Z"/><path fill="#D1D0D0" d="M488.571 275.609L489.893 275.596C491.091 277.586 490.556 295.189 490.526 298.873C473.143 302.719 455.996 307.565 439.17 313.385L437.983 313.274C437.246 310.31 444.979 291.685 446.446 287.873C461.187 282.721 473.446 279.042 488.571 275.609Z"/><path fill="#D1D0D0" d="M534.347 275.243C550.234 278.734 562.866 283.023 578.194 288.242C580.466 295.703 583.973 306.135 585.531 313.539C569.544 308.268 550.821 302.385 534.301 299.235C534.243 291.238 534.258 283.24 534.347 275.243Z"/><path fill="#D1D0D0" d="M591.385 293.237C605.405 298.354 620.753 305.83 633.722 313.258C635.364 320.119 636.968 326.99 638.536 333.868C635.042 332.935 626.556 329.082 622.975 327.56C614.992 324.123 606.942 320.846 598.829 317.73L591.385 293.237Z"/><path fill="#D1D0D0" d="M430.427 293.971L431.153 294.126C431.785 296.219 424.468 315.436 423.233 318.516C410.671 323.44 398.21 328.616 385.855 334.038L385.346 333.814C384.983 330.737 390.134 316.444 391.422 313.028C403.905 305.252 417.009 299.853 430.427 293.971Z"/><path fill="#D1D0D0" d="M337.72 346.424C339.025 348.245 338.29 356.747 338.176 359.606C316.457 372.8 295.664 387.46 275.94 403.483L275.654 402.832C278.861 398.574 285.431 391.875 289.248 388.019C304.208 372.816 320.422 358.902 337.72 346.424Z"/><path fill="#D1D0D0" d="M686.047 346.2C699.225 352.706 732.51 386.999 743.659 398.691C739.747 397.468 714.559 378.316 709.605 374.813C702.833 370.012 695.886 365.462 688.78 361.171C687.639 356.49 686.852 351.004 686.047 346.2Z"/><path fill="#D1D0D0" d="M646.661 320.35C651.949 322.634 669.718 334.493 673.753 338.437C674.82 343.365 675.373 348.59 675.696 353.616C667.327 348.667 659.102 344.339 650.76 339.53L646.661 320.35Z"/><path fill="#D1D0D0" d="M375.362 321.424C375.988 323.863 372.675 336.54 371.862 340.264C366.607 343.614 356.628 348.493 350.748 351.664C350.23 348.923 350.491 340.854 350.527 337.72C358.651 332.056 366.933 326.622 375.362 321.424Z"/></svg>