<?xml version="1.0" encoding="utf-8" ?><svg xmlns="http://www.w3.org/2000/svg" xmlns:xlink="http://www.w3.org/1999/xlink" width="1024" height="1024" viewBox="0 0 1024 1024"><path fill="#242425" d="M0 0L1024 0L1024 1024L0 1024L0 0Z"/><path d="M511.396 193.594C515.235 193.731 517.2 194.596 520.016 197.297C526.428 203.446 533.955 210.554 539.443 217.458C539.748 225.648 539.513 235.317 539.527 243.623C544.935 243.644 550.406 243.336 555.803 243.039C565.292 242.518 566.294 246.078 566.405 254.305C658.215 275.069 726.03 317.087 794.507 380.975C803.201 389.086 811.623 397.877 819.977 406.351C823.543 409.968 826.945 414.39 830.503 417.906C836.145 423.482 845.041 424.657 850.769 430.503C854.552 434.364 856.414 439.431 856.389 444.787C856.404 450.089 854.221 455.161 850.361 458.795C838.477 469.953 824.905 463.213 816.611 452.858C813.9 449.475 809.193 445.447 806.047 442.052C781.41 450.933 755.63 459.304 730.767 467.655L603.594 510.57C585.325 516.74 567.188 522.5 548.958 528.865L549.013 816.221C549.001 818.709 549.285 825.235 547.589 826.767C542.28 831.563 521.869 829.841 514.156 829.75C502.792 829.597 490.725 830.249 479.447 829.412C477.321 827.811 476.932 827.338 475.241 825.259C475.063 815.717 475.4 805.284 475.386 795.612L474.931 746.407C474.37 674.076 474.429 601.741 475.106 529.411C462.281 525.634 446.993 519.667 433.739 515.306C398.439 503.956 363.252 492.258 328.183 480.213L262.591 458.191C247.073 453.093 231.333 448.358 216.073 442.585C204.949 451.996 194.706 470.443 177.262 461.385C172.723 459.024 169.39 454.859 168.08 449.914C166.786 445.087 167.555 437.797 170.364 433.756C176.474 424.965 188.917 423.507 196.452 414.983C201.147 409.673 206.013 404.167 210.821 399.145C224.043 385.576 237.755 372.493 251.93 359.923C309.423 309.672 382.315 270.829 456.989 254.162C456.956 253.198 456.933 252.235 456.92 251.27C456.781 238.907 476.091 243.49 485.594 243.522C485.533 238.441 484.804 219.992 486.648 216.91C489.412 212.289 506.421 195.509 511.396 193.594Z"/><path fill="#242425" d="M566.38 296.229C652.634 319.835 719.78 362.338 785.069 421.825C788.65 425.087 792.664 428.311 796.397 431.438C786.029 434.451 774.274 438.767 763.923 442.34C748.99 447.546 733.987 452.549 718.918 457.349C711.827 460.411 696.806 464.895 689.037 467.422L641.46 483.312L580.48 504.069C571.442 507.191 557.772 512.532 549.018 514.975L548.759 388.103C548.749 361.054 549.127 333.053 548.472 306.09C558.497 306.385 566.278 308.697 566.38 296.229Z"/><path fill="#242425" d="M455.529 296.563C457.863 296.907 455.962 301.176 458.798 303.497C462.92 306.871 469.821 306.035 474.892 305.876L475.028 515.487C445.279 504.716 415.345 494.463 385.24 484.734C358.999 475.986 330.769 466.14 304.434 458.044C279.299 450.092 252.078 440.323 227.049 431.704C236.463 422.26 251.057 410.729 261.573 402.107C305.779 365.861 356.396 333.082 409.671 311.973C423.838 306.359 440.868 301.051 455.529 296.563Z"/><path fill="#787878" d="M488.66 306.075C494.324 306.074 500.236 305.941 505.86 306.452C506.342 323.888 505.734 343.827 505.674 361.51L505.18 484.616L505.56 816.287L488.439 816.367L488.551 464.38C488.958 411.612 488.994 358.843 488.66 306.075Z"/><path fill="#787878" d="M519.155 306.162C524.437 306.265 529.934 306.167 535.233 306.148L535.112 816.575L518.912 816.468L519.155 306.162Z"/><path fill="#DEDEDD" d="M455.97 267.575C456.299 267.621 456.57 267.859 456.859 268.021C457.311 271.084 457.069 279.222 457.053 282.676C364.359 308.22 304.15 348.205 231.441 409.521C218.693 420.076 206.662 431.468 195.427 443.622C191.469 447.937 189.814 451.795 183.762 449.563C176.585 442.973 184.775 438.696 190.108 435.66C196.477 432.008 201.925 428.047 206.875 422.633C255.794 369.128 312.79 323.311 379.404 293.797C404.325 282.755 429.862 274.967 455.97 267.575Z"/><path fill="#DEDEDD" d="M566.314 267.315C576.274 270.613 588.385 273.274 598.92 276.629C620.835 283.799 642.209 292.528 662.877 302.751C708.55 325.033 751.179 357.726 787.715 392.914C794.406 399.312 800.945 405.868 807.325 412.577C814.276 419.953 820.463 427.614 829.072 433.166C835.029 437.008 846.649 440.12 841.371 448.999C832.716 454.959 830.397 445.927 825.113 440.747C759.824 376.731 685.866 319.635 597.684 291.524C587.366 288.235 576.899 285.065 566.374 282.716L566.314 267.315Z"/><path fill="#DEDEDD" d="M470.277 257.015L522.632 257.157C532.79 257.097 542.948 257.106 553.106 257.183C553.014 268.619 552.439 281.329 552.523 292.489C545.364 292.425 535.437 292.653 528.515 292.227C510.13 291.646 488.989 292.151 470.48 292.434L470.277 257.015Z"/><path fill="#C0BFBF" d="M522.632 257.157C532.79 257.097 542.948 257.106 553.106 257.183C553.014 268.619 552.439 281.329 552.523 292.489C545.364 292.425 535.437 292.653 528.515 292.227L528.446 257.697C526.709 257.712 523.991 258.001 522.632 257.157Z"/><path fill="#787878" d="M512.472 209.828C513.952 210.409 522.603 220.065 525.795 222.611C525.7 229.694 525.651 236.778 525.649 243.863L513.742 243.852L499.485 243.911L499.516 223.19C502.628 219.178 508.751 213.366 512.472 209.828Z"/></svg>