<?xml version="1.0" encoding="utf-8" ?><svg xmlns="http://www.w3.org/2000/svg" xmlns:xlink="http://www.w3.org/1999/xlink" width="1024" height="1024" viewBox="0 0 1024 1024"><path fill="#242425" d="M0 0L1024 0L1024 1024L0 1024L0 0Z"/><path d="M277.495 162.731C279.16 164.039 284.948 175.95 286.333 178.596C303.453 211.28 321.525 243.193 341.658 274.124C355.345 294.778 369.937 314.818 385.393 334.184C408.596 362.695 433.912 388.777 462.423 412.1C474.668 422.274 488.411 430.575 501.075 440.113C553.242 479.402 597.083 527.863 631.942 583.012C641.121 597.535 649.977 613.319 659.588 627.407C661.059 626.007 662.589 624.67 664.172 623.399C675.049 614.644 684.34 615.44 692.697 627.213C698.324 635.139 708.634 643.96 707.601 654.405C706.646 664.06 695.787 669.681 688.611 675.329C702.418 690.694 714.669 707.217 727.78 723.161C733.042 729.56 738.145 736.124 743.168 742.712C757.001 728.977 763.15 735.215 771.184 749.779C773.582 754.125 776.736 760.195 776.093 765.255C774.379 778.744 763.151 796.76 753.07 805.382C750.776 807.464 748.307 809.344 745.69 811.004C731.159 820.367 715.875 824.678 698.849 821.007C694.378 817.253 684.002 804.022 681.524 798.826C683.953 792.836 685.89 792.406 690.548 787.92C676.769 771.997 664.604 754.599 651.486 738.08C646.087 731.281 641.146 723.659 635.49 717.02C629.575 722.119 618.239 733.252 610.778 732.895C603.428 732.754 597.126 726.932 592.329 721.87C585.763 714.94 576.836 706.97 579.432 696.375C580.828 690.676 584.275 687.853 588.278 683.988C555.432 650.903 517.365 626.495 474.835 607.437C467.663 604.191 460.389 601.173 453.025 598.389C432.957 590.966 432.628 590.937 415.486 577.402C384.096 552.617 357.05 523.169 334.818 489.987C278.038 405.236 259.086 300.591 272.069 200.285C273.659 188.036 274.96 174.706 277.495 162.731Z"/><path fill="#C0BFBF" d="M321.123 277.332C322.727 278.592 333.88 296.664 336.071 299.923C340.783 306.948 345.641 313.873 350.64 320.696C379.93 360.844 413.587 397.967 452.712 428.809C467.566 440.518 484.022 450.252 498.672 462.238C510.97 472.3 522.965 482.744 534.385 493.79C578.626 535.623 614.698 586.525 644.061 639.749L638.926 643.982C636.731 645.914 634.266 647.895 632.006 649.783C624.403 643.314 616.105 634.653 607.862 627.52C583.614 606.141 556.911 587.717 528.317 572.635C515.804 565.839 502.971 559.649 489.863 554.085C476.012 548.069 465.13 545.887 452.936 536.513C372.453 474.646 331.934 376.553 321.123 277.332Z"/><path fill="#C0BFBF" d="M288.623 223.879C290.039 225.59 308.599 259.404 308.588 259.299C317.323 341.712 333.198 413.79 385.323 483.11C400.908 504.065 419.034 523.005 439.285 539.496C443.37 542.852 450.693 548.858 455.045 551.545C458.648 553.77 468.489 557.261 472.822 559.051C482.937 563.234 492.957 567.644 502.874 572.279C544.812 591.981 589.813 622.839 622.011 656.501L613.784 663.887C610.382 666.776 606.918 669.448 603.4 672.189C591.826 659.461 582.809 652.547 569.592 642.082C541.162 619.572 514.223 604.407 481.548 589.401C474.931 586.36 468.198 583.58 461.365 581.064C456.069 579.096 445.925 575.942 441.592 572.892C362.383 517.118 310.1 429.57 293.623 334.522C287.195 297.442 286.187 261.531 288.623 223.879Z"/><defs><linearGradient id="gradient_0" gradientUnits="userSpaceOnUse" x1="602.48114" y1="704.71466" x2="651.95355" y2="671.67053"><stop offset="0" stop-color="#BF923C"/><stop offset="1" stop-color="#E9C65D"/></linearGradient></defs><path fill="url(#gradient_0)" d="M598.55 701.103C613.518 688.408 629.749 676.415 645.057 663.927C649.582 665.198 651.985 674.275 654.381 678.417C642.256 688.083 622.059 705.253 609.73 713.055C605.952 709.267 602.19 705.052 598.55 701.103Z"/><defs><linearGradient id="gradient_1" gradientUnits="userSpaceOnUse" x1="678.37915" y1="739.43005" x2="702.05927" y2="722.91547"><stop offset="0" stop-color="#402A24"/><stop offset="1" stop-color="#555656"/></linearGradient></defs><path fill="url(#gradient_1)" d="M692.061 711.785C694.478 712.091 707.044 728.519 709.479 731.535C703.22 736.531 694.106 745.646 687.932 751.364C685.758 750.049 673.095 733.194 670.616 729.972C675.833 724.838 685.675 717.654 692.061 711.785Z"/><path fill="#F6E9C2" d="M655.449 655.7L676.49 638.552C680.166 642.778 683.717 647.111 687.138 651.545C681.917 656.175 676.302 660.628 670.9 665.062C669.411 666.284 664.718 670.287 663.303 671.161C660.305 673.78 657.531 675.973 654.381 678.417C651.985 674.275 649.582 665.198 645.057 663.927C648.451 661.098 651.916 658.355 655.449 655.7Z"/><path fill="#DFBC64" d="M655.449 655.7C654.965 657.943 653.706 658.413 651.603 659.878C654.005 663.011 657.576 672.032 659.352 673.19C660.757 671.992 661.364 671.261 663.303 671.161C660.305 673.78 657.531 675.973 654.381 678.417C651.985 674.275 649.582 665.198 645.057 663.927C648.451 661.098 651.916 658.355 655.449 655.7Z"/><defs><linearGradient id="gradient_2" gradientUnits="userSpaceOnUse" x1="656.25708" y1="712.32593" x2="683.35944" y2="698.37152"><stop offset="0" stop-color="#442A1E"/><stop offset="1" stop-color="#5D5C5D"/></linearGradient></defs><path fill="url(#gradient_2)" d="M674.536 687.489C677.894 690.794 685.647 701.284 688.669 705.218C680.892 711.138 673.661 717.216 666.189 723.516C663.493 720.918 654.879 709.658 651.882 706.026C657.229 700.946 668.498 691.826 674.536 687.489Z"/><defs><linearGradient id="gradient_3" gradientUnits="userSpaceOnUse" x1="696.84143" y1="762.91541" x2="719.86646" y2="746.58252"><stop offset="0" stop-color="#3A2A27"/><stop offset="1" stop-color="#605E5C"/></linearGradient></defs><path fill="url(#gradient_3)" d="M712.918 737.819C715.337 738.306 724.116 750.953 726.092 753.619C718.881 759.094 711.485 766.388 703.809 772.293L703.405 772.272C701.744 770.98 692.77 758.76 690.975 756.381C699.097 750.566 705.512 744.425 712.918 737.819Z"/><path fill="#DFBC64" d="M731.667 775.563L734.028 773.669C735.845 775.339 745.153 784.618 746.176 784.89L742.881 788.308C741.186 789.768 739.313 791.465 737.594 792.853C734.128 795.286 732.201 796.536 728.375 798.419C722.095 801.521 716.494 802.321 709.652 803.038C707.726 801.24 706.98 800.137 705.455 798.054C709.887 794.221 714.63 790.37 719.14 786.597L727.99 778.749L731.667 775.563Z"/><path fill="#C1870A" d="M705.455 798.054C709.887 794.221 714.63 790.37 719.14 786.597C720.241 789.929 726.181 797.166 728.375 798.419C722.095 801.521 716.494 802.321 709.652 803.038C707.726 801.24 706.98 800.137 705.455 798.054Z"/><path fill="#E1C677" d="M731.667 775.563L734.028 773.669C735.845 775.339 745.153 784.618 746.176 784.89L742.881 788.308C741.186 789.768 739.313 791.465 737.594 792.853C734.92 790.221 730.127 782.21 727.99 778.749L731.667 775.563Z"/><path fill="#DFBC64" d="M731.667 775.563L734.028 773.669C735.845 775.339 745.153 784.618 746.176 784.89L742.881 788.308C740.283 786.083 734.716 778.768 731.667 775.563Z"/><defs><linearGradient id="gradient_4" gradientUnits="userSpaceOnUse" x1="739.5658" y1="779.53156" x2="755.11176" y2="762.36523"><stop offset="0" stop-color="#F1DC9D"/><stop offset="1" stop-color="#FFFFEA"/></linearGradient></defs><path fill="url(#gradient_4)" d="M734.028 773.669C740.197 768.539 747.221 762.996 753.189 757.761C755.27 769.295 754.448 775.894 746.176 784.89C745.153 784.618 735.845 775.339 734.028 773.669Z"/></svg>