<?xml version="1.0" encoding="utf-8" ?><svg xmlns="http://www.w3.org/2000/svg" xmlns:xlink="http://www.w3.org/1999/xlink" width="1024" height="1024" viewBox="0 0 1024 1024"><path fill="#242425" d="M0 0L1024 0L1024 1024L0 1024L0 0Z"/><path d="M592.469 166.073C604.173 164.578 607.451 175.905 612.346 184.747C619.619 197.619 626.376 210.776 632.6 224.186C640.573 228.412 660.996 236.181 670.199 240.203C676.934 238.308 686.319 234.171 692.833 231.416C700.715 228.054 708.669 224.863 716.689 221.847C721.933 219.839 729.795 215.783 735.17 217.294C738.414 218.197 741.135 220.411 742.679 223.403C746.313 230.609 739.068 245.315 736.55 252.74C732.026 266.082 726.698 279.23 722.526 292.726C727.288 304.027 731.209 316.629 736.046 327.654C753.537 334.428 771.234 344.682 788.082 352.831C797.052 357.169 798.785 368.336 790.801 373.677C774.331 384.693 754.018 391.619 737.247 402.115L736.55 402.556C735.313 404.699 734.398 406.74 733.448 409.013C729.527 418.39 725.512 427.519 720.908 436.592C728.365 451.752 734.054 468.693 740.873 484.215C742.579 488.978 747.006 497.539 745.195 502.662C739.859 517.76 724.026 509.175 715.218 505.737C706.035 502.127 696.877 498.455 687.744 494.721C682.085 492.416 675.82 489.526 669.982 487.86C656.243 493.852 651.725 497.804 635.706 503.002C634.835 505.001 632.703 509.565 631.554 511.238C623.962 522.293 609.396 557.744 599.269 563.96C596.813 564.072 594.196 563.961 591.726 563.911C584.119 559.634 579.14 546.022 574.701 538.299C568.344 527.24 562.225 515.812 556.241 504.544C550.601 502.758 544.791 500.721 539.165 498.832C527.646 515.378 514.835 531.64 502.509 547.619L464.362 597.521L346.63 753.752C344.174 756.243 331.019 775.194 328.967 778.864C331.483 782.059 332.77 784.615 333.524 788.707C334.671 794.904 333.31 801.303 329.743 806.499C324.415 814.228 318.429 815.79 309.985 817.2C301.268 833.806 296.123 848.498 275.664 853.141C265.393 855.548 254.586 853.737 245.661 848.113C236.976 842.583 230.878 833.794 228.741 823.722C223.568 800.283 238.696 792.142 249.696 774.938C247.055 769.974 247.5 764.007 249.172 758.79C251.233 752.154 255.963 746.676 262.227 743.669C269.564 740.217 276.276 740.736 283.627 743.35L369.515 629.261C391.013 601.091 412.354 572.802 433.538 544.395C441.895 533.226 450.433 522.334 458.624 511.023C451.267 508.907 444.689 505.181 446.872 496.29C448.672 488.957 451.56 481.968 454.182 474.885C458.877 462.037 463.739 449.251 468.767 436.53C463.34 424.931 460.845 416.158 456.944 404.078C438.159 395.818 418.553 383.127 399.931 374.068C393.429 370.905 390.434 361.531 397.125 357.002C403.364 352.779 410.95 349.314 417.779 345.793L456.13 325.985C461.116 312.79 463.252 304.706 469.357 290.827C464.694 277.661 444.359 234.103 448.58 222.473C449.552 219.796 451.556 217.8 454.149 216.664C457.414 215.232 461.099 215.304 464.518 216.101C470.162 217.416 476.061 220.445 481.381 222.73C490.358 226.637 499.365 230.476 508.401 234.247C512.489 235.986 517.081 238.221 521.183 239.698L521.666 239.868C527.545 237.278 550.287 227.053 556.002 226.335C560.949 214.871 579.474 178.485 586.719 169.993C588.405 168.017 590.108 167.096 592.469 166.073Z"/><path fill="#C0BFBF" d="M563.731 240.053C574.33 239.559 586.599 239.917 597.373 239.872C604.577 240.354 619.389 238.967 625.83 240.807C631.04 242.295 661.404 252.916 663.218 255.456C676.409 273.923 689.891 287.479 708.523 300.056C709.532 302.615 720.122 332.837 720.175 334.925C720.606 351.861 720.842 378.398 720.725 395.716C720.706 398.635 710.015 423.887 707.747 427.293C705.591 430.532 690.886 442.784 686.466 446.856C678.648 454.06 673.069 463.289 667.45 469.401C661.475 475.899 634.151 487.006 625.222 488.9C616.628 490.15 606.943 489.888 598.248 489.98C590.505 490.061 582.35 490.168 574.652 489.809C558.279 489.046 542.476 482.399 528.572 474.066C522.816 470.617 519.747 464.052 515.672 458.949C510.102 451.686 504.281 445.156 496.812 439.777C493.112 436.643 485.265 432.594 483.125 428.315C465.876 393.829 465.972 350.081 477.214 313.708C477.952 311.322 480.805 302.751 482.241 301.181C486.52 296.499 493.557 293.193 498.455 289.041C510.233 279.233 518.114 268.169 526.36 255.614L563.731 240.053Z"/><path d="M592.594 275.264C598.843 274.255 605.151 276.686 609.107 281.628C613.063 286.569 614.054 293.257 611.701 299.133C609.348 305.01 604.015 309.165 597.742 310.011C588.217 311.296 579.428 304.686 578.02 295.178C576.611 285.671 583.106 276.797 592.594 275.264Z"/><path fill="#D27B0E" d="M594.519 287.268C597.339 286.794 600.008 288.698 600.478 291.518C600.948 294.338 599.04 297.005 596.219 297.47C593.404 297.935 590.744 296.032 590.275 293.218C589.807 290.403 591.706 287.741 594.519 287.268Z"/><path d="M590.905 423.878C600.154 421.407 609.651 426.919 612.092 436.176C614.533 445.433 608.989 454.912 599.724 457.323C590.502 459.723 581.077 454.21 578.647 444.996C576.217 435.782 581.698 426.338 590.905 423.878Z"/><path fill="#D27B0E" d="M594.018 435.64C595.726 435.076 597.605 435.489 598.919 436.718C600.232 437.947 600.769 439.795 600.32 441.536C599.87 443.278 598.506 444.635 596.762 445.074C594.196 445.722 591.579 444.222 590.84 441.681C590.101 439.14 591.506 436.47 594.018 435.64Z"/><path d="M516.396 350.646C525.455 348.354 534.654 353.857 536.918 362.924C539.182 371.991 533.651 381.172 524.577 383.409C515.543 385.636 506.409 380.133 504.155 371.106C501.9 362.078 507.375 352.928 516.396 350.646Z"/><path fill="#D27B0E" d="M518.676 363.124C520.948 361.996 523.706 362.857 524.932 365.079C526.158 367.3 525.416 370.093 523.25 371.413C521.763 372.32 519.898 372.337 518.394 371.459C516.891 370.581 515.99 368.948 516.049 367.207C516.107 365.467 517.117 363.899 518.676 363.124Z"/><path d="M665.502 350.682C671.304 349.109 677.504 350.781 681.73 355.057C685.955 359.334 687.552 365.554 685.909 371.337C684.266 377.12 679.638 381.572 673.795 382.989C664.928 385.139 655.979 379.764 653.71 370.926C651.441 362.089 656.695 353.068 665.502 350.682Z"/><path fill="#D27B0E" d="M668.121 362.481C676.006 362.546 675.975 366.366 671.749 371.752C666.295 373.442 663.078 367.003 668.121 362.481Z"/><path d="M594.497 350.933C600.247 350.384 605.849 352.965 609.167 357.692C612.486 362.419 613.01 368.564 610.541 373.786C608.071 379.007 602.987 382.499 597.228 382.932C588.447 383.592 580.772 377.058 580.024 368.284C579.275 359.51 585.731 351.77 594.497 350.933Z"/><path fill="#D27B0E" d="M594.947 363.24C596.373 362.779 597.936 363.129 599.029 364.153C600.123 365.178 600.573 366.716 600.205 368.168C599.838 369.621 598.71 370.759 597.261 371.14C595.104 371.707 592.889 370.454 592.262 368.315C591.635 366.175 592.826 363.926 594.947 363.24Z"/><path fill="#9E9C9A" d="M517.637 488.399C518.966 488.361 523.346 490.502 524.809 491.156C518.973 500.952 502.634 520.341 495.259 529.999L439.201 604.329C418.587 631.34 398.113 658.458 377.78 685.682C357.587 713.039 336.779 742.001 315.849 768.676C313.573 766.776 311.32 765.099 308.95 763.323C304.607 760.03 300.164 756.871 295.627 753.849L444.139 556.833C455.458 542.097 471.258 518.422 483.377 504.539C486.033 501.497 510.942 491.852 517.637 488.399Z"/><path fill="#9E9C9A" d="M262.396 784.907C272.145 790.101 288.557 803.193 297.396 810.253C288.463 822.14 289.125 829.898 276.358 837.116C274.235 838.026 272.102 838.705 269.798 838.997C263.435 839.816 257.017 837.971 252.061 833.898C247.2 829.878 244.137 824.09 243.546 817.81C242.477 805.27 254.365 794.558 262.396 784.907Z"/><path fill="#C0BFBF" d="M464.438 233.125C467.201 233.68 474.278 236.997 477.152 238.202C488.244 242.853 499.129 248.563 510.167 253.214C505.808 258.774 502.005 263.648 497.057 268.698C492.366 273.29 487.56 277.764 482.644 282.115C478.764 272.401 475.022 262.633 471.416 252.814C469.065 246.541 466.187 239.51 464.438 233.125Z"/><path fill="#C0BFBF" d="M481.305 446.786C489.208 451.864 502.664 467.521 509.308 475.148C501.001 478.33 493.054 481.754 484.877 485.234C477.992 488.167 470.838 491.543 463.992 494.641C469.245 477.462 475.999 463.104 481.305 446.786Z"/><path fill="#C0BFBF" d="M708.235 446.921C709.224 447.823 725.809 489.14 727.73 493.917C721.761 491.406 715.777 488.927 709.779 486.483C700.963 483.181 690.721 479.604 682.328 475.475C689.898 465.329 698.702 455.247 708.235 446.921Z"/><path fill="#C0BFBF" d="M724.698 235.96L725.127 236.018C725.098 235.952 710.553 277.865 709.061 281.748C704.238 277.567 700.262 274.021 695.736 269.536C691.114 265.004 685.727 258.696 681.55 253.711C695.509 247.652 710.546 241.762 724.698 235.96Z"/><path fill="#C0BFBF" d="M736.111 345.092C746.342 348.985 764.8 359.232 776.171 364.683L761.75 371.481C752.863 375.763 744.17 380.437 735.697 385.49C735.102 371.471 735.615 359.12 736.111 345.092Z"/><path fill="#C0BFBF" d="M454.395 344.443L454.957 344.504C455.601 345.386 455.544 345.005 455.425 346.07C453.936 359.386 454.446 372.095 455.101 385.47C446.524 381.475 438.635 377.215 430.27 372.797C425.551 370.213 420.959 367.68 416.14 365.28C428.221 358.149 441.932 350.977 454.395 344.443Z"/><path fill="#C0BFBF" d="M594.716 186.017C598.391 189.511 612.917 218.716 615.088 224.089C608.996 224.083 602.677 224.283 596.569 224.403L574.528 224.625C580.087 212.59 588.464 197.93 594.716 186.017Z"/><path fill="#C0BFBF" d="M585.744 505.267C595.79 504.914 606.268 505.142 616.32 505.319C611.844 514.647 603.895 528.07 598.728 537.358L595.162 544.005C590.025 532.652 580.711 515.856 574.602 505.346L585.744 505.267Z"/><path fill="#E9A518" d="M270.206 757.38C280.141 759.507 301.743 779.968 311.675 785.316C319.506 789.533 321.318 796.632 312.595 801.519C307.722 798.301 300.152 792.345 295.224 788.79C286.147 782.243 270.756 772.656 263.204 764.874C265.527 760.654 265.94 759.911 270.206 757.38Z"/></svg>