<?xml version="1.0" encoding="utf-8" ?><svg xmlns="http://www.w3.org/2000/svg" xmlns:xlink="http://www.w3.org/1999/xlink" width="1024" height="1024" viewBox="0 0 1024 1024"><path fill="#242425" d="M0 0L1024 0L1024 1024L0 1024L0 0Z"/><path d="M510.439 95.979C517.847 95.8548 517.969 99.4519 518.886 106C519.924 113.419 521.334 119.885 523.488 127.028L557.994 238.417L569.2 274.947C572.387 285.146 579.682 304.86 578.578 314.737C576.004 337.772 551.923 363.38 534.749 377.779C542.491 388.256 544.226 398.624 533.998 408.271C533.828 418.938 534.216 430.323 534.282 441.062L534.444 508.148L534.408 768.323C534.552 804.037 534.475 839.751 534.177 875.464L534.018 903.959C533.901 926.683 536.355 925.741 513.375 925.342C507.979 925.283 495.971 927.021 491.859 923.136C490.838 922.171 490.588 915.894 490.579 914.204C490.463 893.409 490.526 872.604 490.54 851.805L490.568 740.159L490.468 408.495C490.137 408.22 489.808 407.941 489.483 407.658C479.41 398.86 480.447 387.511 489.023 378.202C475.728 364.722 461.185 351.365 451.763 335.048C441.171 316.706 445.511 303.219 452.057 284.989C455.262 276.062 458.218 264.815 461.177 255.491L491.483 157.749C495.722 144.154 499.401 130.4 503.219 116.687C505.223 109.491 503.209 99.6566 510.439 95.979Z"/><path fill="#70613C" d="M512.019 409.31C514.914 409.331 518.735 409.25 521.55 409.43L521.676 912.982L512.627 912.997L504.054 912.939L503.629 457.376C502.978 442.976 503.584 423.965 503.608 409.26L512.019 409.31Z"/><path fill="#AE9E72" d="M503.608 409.26L512.019 409.31C512.06 413.62 512.289 419.411 512.061 423.606C511.703 436.402 512.279 450.23 512.368 463.077L512.699 548.287L512.627 912.997L504.054 912.939L503.629 457.376C502.978 442.976 503.584 423.965 503.608 409.26Z"/><path fill="#93835E" d="M503.608 409.26L512.019 409.31C512.06 413.62 512.289 419.411 512.061 423.606L511.727 423.189C509.305 420.107 508.118 415.948 505.35 415.493C502.281 418.159 505.721 453.837 503.629 457.376C502.978 442.976 503.584 423.965 503.608 409.26Z"/><path fill="#C0BFBF" d="M510.624 140.443C513.55 145.26 513.836 175.811 513.304 182.167C512.404 183.163 511.895 182.901 510.178 183.169C507.243 184.536 505.861 185.512 505.477 188.854C504.745 195.216 504.963 201.641 505.002 208.036L505.35 240.284L505.162 334.134L505.118 357.238C505.131 361.133 505.386 368.448 504.773 371.831C504.039 372.289 503.617 372.601 502.519 372.106C499.27 370.641 495.305 366.355 492.859 363.899C481.527 352.526 469.135 339.692 462.008 325.192C459.776 320.651 457.668 314.214 458.648 309.327C460.336 300.914 463.577 291.714 466.181 283.465L484.466 226.563C491.115 205.622 496.989 184.953 503.434 163.988C505.859 156.099 507.833 148.195 510.624 140.443Z"/><defs><linearGradient id="gradient_0" gradientUnits="userSpaceOnUse" x1="552.08746" y1="250.54364" x2="497.13528" y2="262.13879"><stop offset="0" stop-color="#7B7B7C"/><stop offset="1" stop-color="#ADACAC"/></linearGradient></defs><path fill="url(#gradient_0)" d="M510.624 140.443L511.206 137.835L511.744 137.595C512.88 139.67 517.857 154.965 518.954 158.141C526.939 181.275 533.269 205.103 540.512 228.436C545.897 245.248 551.195 262.089 556.405 278.956C558.085 284.27 565.716 306.848 565.549 310.885C564.734 330.618 535.43 363.785 519.185 373.26C518.281 336.593 519.322 299.642 518.926 262.949C518.889 259.551 518.81 255.666 519.028 252.3C518.657 247.554 518.853 239.445 518.929 234.586C518.117 225.949 520.395 190.156 516.12 185.168C514.606 183.4 512.312 183.351 510.178 183.169C511.895 182.901 512.404 183.163 513.304 182.167C513.836 175.811 513.55 145.26 510.624 140.443Z"/><path fill="#C0BFBF" d="M518.929 234.586L518.981 233.98C519.281 230.158 518.891 214.621 519.436 212.776C520.497 223.601 520.155 245.187 519.968 256.401L519.619 256.778L519.952 256.605L519.733 257.469C519.445 255.754 519.21 254.03 519.028 252.3C518.657 247.554 518.853 239.445 518.929 234.586Z"/><path fill="#C0BFBF" d="M499.668 385.669C508.011 385.954 516.36 386.02 524.707 385.869C527.277 389.009 529.483 394.041 525.046 396.598C517.778 396.7 503.396 396.789 496.555 396.092C496.33 390.996 495.936 389.268 499.668 385.669Z"/></svg>