<?xml version="1.0" encoding="utf-8" ?><svg xmlns="http://www.w3.org/2000/svg" xmlns:xlink="http://www.w3.org/1999/xlink" width="1024" height="1024" viewBox="0 0 1024 1024"><path fill="#242425" d="M0 0L1024 0L1024 1024L0 1024L0 0Z"/><path d="M510.941 168.66C514.247 168.55 517.427 168.768 520.484 170.142C533.571 176.026 560.972 219.896 566.264 234.43C568.956 241.822 570.322 249.396 569.678 257.268C567.663 281.884 544.971 315.65 534.135 338.728C543.825 343.373 547.973 352.92 543.476 362.938C541.791 366.692 539.889 368.604 537.192 371.665C546.537 381.919 547.006 394.81 534.171 402.17L534.535 831.41C548.447 839.515 548.321 856.724 534.015 864.358C533.606 885.318 540.151 909.358 513.978 915.732C513.602 915.763 513.225 915.794 512.849 915.825C506.734 916.037 500.798 913.737 496.423 909.459C488.286 901.462 489.355 892.023 489.405 881.649L489.515 864.488C474.982 856.751 474.593 838.268 489.521 831.569L489.807 403.025C476.06 395.405 477.228 382.681 486.078 371.491C477.371 359.897 475.085 345.884 490.125 338.603C478.023 317.822 460.54 286.629 455.635 263.495C449.594 235.001 474.336 202.999 491.187 182.04C496.456 175.486 502.259 170.058 510.941 168.66Z"/><path fill="#C0BFBF" d="M503.55 404.674L521.042 404.703C521.655 421.032 521.104 441.429 521.081 458.064L521.085 554.484L521.083 831.605L503.525 831.649L503.55 404.674Z"/><path fill="#E2E2E1" d="M469.214 260.693C474.371 262.909 498.936 281.971 504.493 286.394C504.639 301.745 505.316 320.889 504.487 336.032L504.346 336.04C502.922 335.087 497.57 324.072 496.469 321.89C486.151 301.44 475.107 282.98 469.214 260.693Z"/><path fill="#E2E2E1" d="M554.571 260.498L555.033 261.441C552.677 276.718 528.984 318.641 520.576 334.943C519.558 333.445 519.915 291.679 519.91 286.244C532.012 276.785 541.898 269.13 554.571 260.498Z"/><path fill="#E2E2E1" d="M511.694 235.361C514.437 236.05 534.176 252.898 536.976 255.673C528.906 261.31 520.065 268.203 512.041 274.136C508.445 273.015 492.982 258.952 487.008 255.596C492.589 250.286 505.513 240.33 511.694 235.361Z"/><path fill="#E2E2E1" d="M504.259 187.885C505.065 190.993 504.962 218.629 504.666 222.879C498.925 228.651 477.043 244.833 469.734 250.085L469.062 249.255C469.65 232.762 492.98 199.959 504.259 187.885Z"/><path fill="#E2E2E1" d="M520.024 188.406C522.667 190.723 527.538 196.924 529.628 199.841C540.302 214.743 553.526 232.685 555.803 251.183C552.689 249.336 545.306 243.421 542.251 241.019L520.017 223.376C519.948 211.719 519.95 200.063 520.024 188.406Z"/><path fill="#7C7C7B" d="M502.82 865.162L521.007 865.038C520.901 871.821 521.162 878.627 521.069 885.405C520.996 890.747 521.763 895.412 517.79 899.477C498.389 913.347 502.635 874.291 502.82 865.162Z"/><path fill="#FBEF89" d="M495.589 350.683C505.207 350.224 518.885 350.516 528.667 350.667C528.822 354.776 528.804 358.49 527.921 362.509C522.119 362.427 500.938 362.981 496.761 361.747C494.757 359.083 495.459 354.109 495.589 350.683Z"/><path fill="#FBEF89" d="M497.204 378.722C507.375 378.697 517.546 378.753 527.716 378.89C527.895 381.298 528.675 389.066 526.994 390.542C516.625 390.621 506.255 390.622 495.886 390.544C495.864 387.786 495.145 380.186 497.204 378.722Z"/><path fill="#E2E2E1" d="M493.044 845.086C498.82 844.978 527.565 843.89 530.505 846.494C530.883 848.528 530.567 848.31 529.769 850.587C527.046 850.921 494.951 851.014 493.69 850.25C492.684 848.571 492.986 847.098 493.044 845.086Z"/><path d="M385.641 209.568C392.312 208.554 402.455 212.516 409.177 213.141C416.519 213.823 433.504 218.963 421.876 228.208C416.984 229.21 368.892 224.496 385.641 209.568Z"/><path d="M510.085 107.493C510.659 107.467 511.233 107.46 511.808 107.472C520.291 107.739 519.549 117.439 519.334 123.788C519.06 131.869 521.048 144.948 514.675 150.572C513.49 150.795 512.11 151.074 510.91 150.939C509.296 150.756 507.887 149.516 506.984 148.234C504.662 144.935 504.794 117.087 505.643 112.103C506.04 109.775 508.284 108.662 510.085 107.493Z"/><path d="M566.142 121.507C568.736 121.623 572.435 122.722 573.099 125.366C574.349 130.342 568.616 139.058 566.491 143.512C563.503 149.775 560.807 155.007 557.629 161.046C557.263 161.742 555.3 162.554 554.576 162.859C537.248 162.106 555.15 139.429 557.541 131.461C558.832 127.156 561.772 123.091 566.142 121.507Z"/><path d="M414.772 261.577C421.956 260.685 425.787 265.172 423.104 270.445C420.12 276.309 397.07 279.27 390.804 280.916C389.196 281.135 387.323 281.421 385.767 280.828C383.88 280.108 382.124 277.973 381.414 276.129C380.843 274.647 380.957 273.318 381.678 271.894C384.437 266.447 408.216 263.113 414.772 261.577Z"/><path d="M456.08 121.99C464.705 121.051 466.93 132.394 470.604 138.807C473.622 144.076 477.079 151.696 478.131 157.562C478.513 159.688 475.136 162.152 473.657 163.273C472.77 163.228 471.868 163.185 470.992 163.034C469.102 162.708 467.67 161.766 466.573 160.205C463.829 156.297 450.827 129.839 451.845 126.275C452.446 124.173 454.384 123.121 456.08 121.99Z"/><path d="M602.915 261.481C604.122 261.429 605.332 261.472 606.532 261.61C612.535 262.308 657.09 268.539 638.63 280.707C633.243 281.777 622.532 277.859 616.851 277.21C609.455 276.365 591.789 271.208 602.915 261.481Z"/><path d="M412.484 156.917C418.732 156.893 437.88 174.578 442.558 180.214C445.8 184.118 443.577 188.231 439.481 190.536C438.494 190.59 437.406 190.673 436.431 190.503C433.709 190.029 411.031 169.569 409.238 166.482C408.317 164.894 407.839 162.803 408.439 161.021C409.124 158.981 410.732 157.967 412.484 156.917Z"/><path d="M588.434 302.543C589.092 302.564 589.746 302.591 590.401 302.673C593.803 303.101 616.606 319.61 618.95 322.901C620.036 324.426 620.834 326.528 620.354 328.4C619.712 330.907 617.834 331.973 615.693 333.054C614.918 333.085 612.53 333.179 611.907 332.798C603.728 327.572 595.237 321.702 587.617 315.645C582.252 311.379 581.97 305.701 588.434 302.543Z"/><path d="M637.387 209.663C646.174 212.011 643.586 221.303 634.828 223.312C625.146 225.532 615.402 229.094 605.328 229.633C604.637 229.333 603.946 229.033 603.279 228.683C601.526 227.765 600.701 226.302 600.247 224.407C599.933 223.094 600.093 222.02 600.842 220.893C604.358 215.601 630.449 210.826 637.387 209.663Z"/><path d="M608.21 156.929C624.752 158.132 609.105 173.345 603.421 177.186C597.87 180.938 594.094 185.83 587.541 188.767C582.6 188.915 579.265 185.235 580.962 181.493C584.102 174.569 602.022 160.616 608.21 156.929Z"/><path d="M433.681 301.991C456.503 305.028 417.937 329.613 413.324 332.603C407.995 332.953 404.293 328.736 406.228 324.771C409.594 317.874 427.192 305.593 433.681 301.991Z"/></svg>