<?xml version="1.0" encoding="utf-8" ?><svg xmlns="http://www.w3.org/2000/svg" xmlns:xlink="http://www.w3.org/1999/xlink" width="1024" height="1024" viewBox="0 0 1024 1024"><path fill="#252526" d="M0 0L1024 0L1024 1024L0 1024L0 0Z"/><path d="M509.916 146.059C511.371 145.992 515.563 146.072 516.421 147.243C530.588 166.57 543.792 187.802 557.207 207.811C558.86 210.277 561.031 214.923 561.144 217.017C561.9 230.939 561.54 245.692 561.547 259.637L561.561 341.819L561.544 609.053C570.386 608.909 582.517 609.822 591.056 608.197C602.342 606.049 612.412 597.392 623.468 606.313C624.705 608.764 625.595 611.353 625.539 614.241C624.845 624.688 626.672 638.001 625.207 648.105C622.702 665.376 596.731 652.244 588.496 651.626C574.328 650.562 559.513 651.072 545.643 651.158C545.507 659.892 545.552 668.627 545.778 677.359C549.315 681.864 549.363 683.373 545.973 687.936C545.896 691.657 545.226 703.127 546.62 706.309C548.82 711.331 550.278 710.807 545.551 715.783L545.597 732.673C551.82 738.613 546.757 739.834 545.799 745.004C545.105 748.752 545.716 756.364 545.862 760.447C548.848 764.778 549.103 766.638 546.002 770.843C545.728 776.357 545.718 782.126 545.627 787.664C549.516 792.223 549.272 794.001 545.847 798.724C545.72 802.123 545.817 805.382 545.892 808.78C553.643 811.908 559.238 819.816 560.393 828.078C561.841 838.436 556.966 849.676 550.694 857.696C541.187 869.851 530.414 876.065 515.121 877.939C510.579 878.208 506.659 878.093 501.898 877.365C479.737 873.974 461.409 848.2 464.29 826.34C465.238 819.141 472.476 813.012 478.703 809.245C478.432 803.63 478.524 797.179 478.488 791.487C474.526 787.23 475.505 785.299 478.518 780.882C478.549 776.71 479.02 767.578 478.248 764.055C477.133 758.965 472.893 760.836 478.622 753.014C478.588 748.33 478.906 739.897 478.254 735.672C475.304 731.64 475.269 731.302 477.271 726.847C479.357 722.206 478.543 713.01 478.487 707.854C472.995 701.248 477.703 701.712 478.298 696.605C478.765 692.602 478.797 683.617 477.995 679.912C476.992 675.277 473.343 676.221 478.348 670.142C478.442 663.916 478.327 657.455 478.296 651.21C464.651 650.811 447.825 650.668 434.074 651.74C427.89 652.222 419.218 657.791 411.887 657.025C408.039 656.624 405.228 656.957 402.241 653.884C399.689 651.602 398.121 645.697 398.479 642.579C399.472 633.947 396.083 611.665 402.65 605.932C411.265 598.411 429.137 608.74 438.656 609.273C446.725 609.725 454.834 609.537 462.577 609.57C463.013 577.507 462.594 544.797 462.633 512.708L462.851 317.615L462.582 251.222C462.562 244.282 462.336 224.391 463.318 219.319C465.68 207.128 502.73 150.807 509.916 146.059Z"/><path fill="#C0BFBF" d="M495.476 274.527C502.185 272.997 522.771 256.614 530.141 255.903L529.974 609.408L495.346 609.223L495.476 274.527Z"/><path fill="#252526" d="M411.329 615.139C418.628 616.502 426.008 620.619 434.293 621.288C443.706 622.049 452.528 621.965 461.955 621.948L512.684 621.456L560.859 621.555C584.554 621.649 590.034 622.418 612.788 615C613.018 623.896 613.116 636.166 612.654 644.901C608.872 645.277 594.171 639.037 586.522 639.07C576.451 639.113 565.295 639.049 555.171 639.053L495.942 639L457.988 638.94C450.749 638.931 441.343 638.672 434.343 639.439C427.659 640.172 417.823 643.512 410.996 645.537C410.92 636.348 410.57 624.147 411.329 615.139Z"/><path fill="#252526" d="M482.424 821.093C500.831 820.032 521.312 821.258 539.88 821.203C544.907 821.188 548.402 825.535 548.227 830.518C547.83 841.848 541.359 850.575 533.543 858.188C533.089 858.533 532.631 858.871 532.168 859.204C524.434 864.814 514.769 867.077 505.348 865.485C489.816 862.889 475.096 845.109 476.717 828.61C477.055 825.17 479.585 822.847 482.424 821.093Z"/><path fill="#B3B2B1" d="M495.408 225.391C500.372 217.146 507.05 208.008 512.391 199.439C517.683 205.663 525.358 218.012 530.045 225.077C530.316 234.889 530.118 246.001 530.141 255.903C522.771 256.614 502.185 272.997 495.476 274.527L495.408 225.391Z"/><path fill="#C58553" d="M541.181 383.138C542.159 384.229 541.732 401.736 541.67 404.456C544.414 401.964 546.442 400.229 550.052 398.95L550.016 457.496L550.03 511.9C547.064 513.557 544.511 516.312 541.366 518.368C540.992 473.292 540.93 428.215 541.181 383.138Z"/><path fill="#F4A969" d="M541.67 404.456C544.414 401.964 546.442 400.229 550.052 398.95L550.016 457.496C548.817 458.021 543.024 462.462 541.602 463.503C541.526 443.821 541.548 424.138 541.67 404.456Z"/><path fill="#252526" d="M490.915 751.55C493.549 752.53 500.584 755.842 503.183 757.201C512.496 762.071 525.547 766.448 534.297 771.412C534.065 777.889 533.982 784.371 534.048 790.853C532.252 790.925 495.594 773.74 491.006 771.707C490.824 764.666 490.805 758.601 490.915 751.55Z"/><path fill="#252526" d="M491.005 690.718L491.694 691.041L520.476 704.474C525.019 706.557 529.351 708.508 533.987 710.357L534.036 730.343C520.822 726.167 504.505 716.653 491.143 711.531C490.82 704.897 490.994 697.435 491.005 690.718Z"/><path fill="#252526" d="M491.016 721.237C505.246 728.525 520.274 733.792 534.031 740.675C534.268 747.331 534.241 753.994 533.949 760.648C520.458 754.484 504.475 747.124 491.006 741.537L491.016 721.237Z"/><path fill="#252526" d="M491.064 661.62C494.865 662.85 500.202 665.737 504.046 667.235C513.785 671.031 524.222 676.854 533.888 680.37C533.659 687.171 533.874 693.87 533.638 700.669C533.181 700.656 494.735 682.24 491.008 680.307C490.957 674.078 490.976 667.848 491.064 661.62Z"/><path fill="#905F3A" d="M541.366 518.368C544.511 516.312 547.064 513.557 550.03 511.9L550.014 609.125L541.47 609.065L541.366 518.368Z"/><path fill="#D7925A" d="M531.756 207.135C534.484 205.64 536.953 203.369 539.727 202.519C541.788 205.447 548.206 214.304 549.595 216.786C550.305 221.048 550.031 234.167 550.036 239.25L550.076 283.678C546.636 285.422 544.502 286.817 541.332 288.925L541.111 244.909C541.093 239.951 540.755 227.92 541.359 223.773C540.355 218.229 535.219 212.279 531.756 207.135Z"/><path fill="#F4A969" d="M531.756 207.135C534.484 205.64 536.953 203.369 539.727 202.519C541.788 205.447 548.206 214.304 549.595 216.786C549.32 219.825 549.414 222.385 549.424 225.419C546.181 228.545 545.111 229.42 541.677 232.269C541.601 230.09 541.84 225.463 541.359 223.773C540.355 218.229 535.219 212.279 531.756 207.135Z"/><path fill="#252526" d="M490.942 781.674C505.094 788.096 520.119 794.675 534.02 801.483C534.067 804.041 534.103 806.333 534.002 808.896C530.549 808.868 514.68 809.379 512.918 808.717C509.664 807.492 493.816 799.644 490.565 797.714C490.595 792.013 490.611 787.356 490.942 781.674Z"/><path fill="#252526" d="M520.799 651.244C525.207 651.238 529.562 651.174 533.98 651.263L533.988 670.952C527.936 667.867 521.478 665.194 515.378 662.288C508.58 659.233 497.736 654.019 490.951 651.629C500.348 651.172 511.188 651.379 520.799 651.244Z"/><path fill="#F4A969" d="M541.332 288.925C544.502 286.817 546.636 285.422 550.076 283.678L550.055 329.585C546.861 331.549 544.802 333.401 541.333 335.405C541.463 319.939 541.13 304.387 541.332 288.925Z"/><path fill="#D7925A" d="M541.256 359.146C544.531 356.831 546.508 355.368 550.042 353.309L550.052 398.95C546.442 400.229 544.414 401.964 541.67 404.456C541.732 401.736 542.159 384.229 541.181 383.138C541.086 376.863 540.842 365.137 541.256 359.146Z"/><path fill="#D7925A" d="M519.482 173.272C524.874 180.354 534.994 194.949 539.727 202.519C536.953 203.369 534.484 205.64 531.756 207.135C527.244 200.329 522.264 193.511 517.991 186.618C518.286 182.149 518.783 177.696 519.482 173.272Z"/><path fill="#C58553" d="M541.333 335.405C544.802 333.401 546.861 331.549 550.055 329.585L550.042 353.309C546.508 355.368 544.531 356.831 541.256 359.146C541.143 351.232 541.169 343.318 541.333 335.405Z"/></svg>