<?xml version="1.0" encoding="utf-8" ?><svg xmlns="http://www.w3.org/2000/svg" xmlns:xlink="http://www.w3.org/1999/xlink" width="1024" height="1024" viewBox="0 0 1024 1024"><path fill="#242425" d="M0 0L1024 0L1024 1024L0 1024L0 0Z"/><path d="M510.48 142.986C517.598 143.577 521.61 156.299 524.561 162.236C529.398 171.965 533.401 182.239 538.537 191.851C562.349 194.411 591.086 206.672 610.448 220.313C651.733 249.397 675.51 290.086 684.763 338.965C695.818 344.578 706.954 350.032 718.166 355.324C745.969 368.742 746.174 369.274 717.893 382.739C707.586 387.602 697.33 392.572 687.126 397.648C684.721 404.498 683.546 413.451 681.524 420.621C665.427 477.676 622.468 522.722 567.369 543.765C558.244 547.25 549.132 549.47 539.62 551.895C540.174 641.06 540.129 730.228 539.484 819.392C559.399 843.148 546.032 875.826 515.537 879.833C514.312 879.92 513.085 879.98 511.857 880.012C487.098 880.558 468.316 854.263 477.537 831.079C480.141 824.532 484.548 821.734 484.66 813.594C485.002 752.136 484.855 690.677 484.221 629.222C483.999 603.232 484.374 577.173 484.022 551.235C458.462 546.439 434.242 536.168 413.028 521.126C380.868 498.252 355.896 464.647 344.977 426.558C342.275 417.136 340.349 407.462 338.722 397.802C326.985 392.07 315.326 386.178 303.75 380.127C299.11 377.702 286.533 372.554 286.073 367.352C286.611 365.642 287.503 364.391 289.085 363.488C305.088 354.351 323.16 347.897 339.247 338.975C341.363 332.008 342.081 323.653 344.19 316.371C363.012 251.377 419.356 201.323 486.286 191.951C493.694 176.718 499.51 160.497 507.471 145.568C507.985 144.605 509.556 143.566 510.48 142.986Z"/><path fill="#C0BFBF" d="M512.66 266.841C513.907 268.871 517.24 279.161 518.156 281.819C524.795 301.072 529.82 322.084 536.633 341.156C563.525 350.355 590.051 358.233 616.731 367.266C608.361 369.492 599.135 372.795 590.796 375.47C575.831 380.211 560.911 385.089 546.037 390.106C549.026 398.545 556.153 409.734 560.777 417.599C568.931 431.468 577.661 445.121 584.591 459.67C579.84 456.011 574.173 452.579 569.101 449.252C550.602 437.114 532.704 423.84 514.221 411.718C512.642 410.929 511.625 411.438 510.223 412.396C504.969 415.986 499.797 419.682 494.504 423.221L459.508 446.146C454.121 449.68 445.391 455.778 439.835 458.452C445.06 449.131 449.75 439.568 454.836 430.171C462.008 416.922 470.096 403.343 476.713 389.852C452.983 381.611 432.56 374.552 408.83 365.508C426.845 358.919 448.209 354.703 466.582 348.613C473.502 346.319 481.185 344.623 487.67 341.278C488.714 337.943 489.913 334.46 491.079 331.165C498.609 309.871 505.151 288.12 512.66 266.841Z"/><path d="M511.497 346.634C523.036 345.696 533.141 354.308 534.043 365.849C534.945 377.39 526.301 387.469 514.758 388.335C503.265 389.198 493.24 380.6 492.341 369.109C491.443 357.619 500.01 347.568 511.497 346.634Z"/><path fill="#F0CD2C" d="M510.062 356.568C512.911 356.447 515.316 356.125 517.983 357.569C523.402 360.504 525.802 367.786 522.78 373.255C521.023 376.435 519.334 376.998 515.931 378.029C513.721 378.573 511.445 378.546 509.29 377.778C506.514 376.76 504.304 374.606 503.215 371.856C501.934 368.777 501.99 365.303 503.369 362.266C504.9 358.915 506.831 357.834 510.062 356.568Z"/><path fill="#242425" d="M512.532 426.818C514.932 427.717 524.218 435.279 526.768 437.27L526.636 645.328C526.646 675.471 527.947 712.341 526.436 742.3C521.049 745.305 517.53 747.624 512.571 751.147C508.849 749.679 503.553 745.046 497.611 742.73C496.773 715.142 497.413 684.576 497.249 656.593L496.953 437.126C502.095 433.614 507.289 430.177 512.532 426.818Z"/><path fill="#888787" d="M383.786 371.162C389.69 372.551 398.195 375.878 404.17 377.995L434.893 388.803C442.636 391.598 451.028 394.919 458.874 397.15C450.904 410.143 443.335 423.377 436.177 436.834C432.077 444.273 427.886 451.661 423.605 458.996C419.291 455.534 414.293 449.216 411.165 444.683C395.18 421.515 387.952 398.528 383.786 371.162Z"/><path fill="#888787" d="M602.693 282.39C609.332 286.252 618.054 301.737 621.665 308.437C630.392 324.628 635.52 343.075 639.141 361.038C626.546 356.762 613.732 352.674 601.076 348.542C586.156 343.555 567.732 336.981 552.816 333.105C555.515 330.173 558.501 327.22 561.326 324.398C575.162 310.577 588.282 295.608 602.693 282.39Z"/><path fill="#888787" d="M638.178 374.059C639.793 373.947 639.193 373.67 640.212 374.471C635.73 405.047 622.223 436.547 600.893 459.086C596.401 452.02 592.011 444.889 587.725 437.696C580.019 423.954 571.618 411.405 563.676 397.967C576.021 394.204 588.312 389.453 600.733 385.976C613.21 382.483 625.723 377.286 638.178 374.059Z"/><path fill="#888787" d="M421.839 281.297C421.979 281.388 422.119 281.479 422.259 281.57C437.195 298.064 453.324 313.458 468.57 329.683C469.703 330.889 470.443 331.811 470.749 333.275C467.942 335.311 429.63 345.579 423.413 347.349C411.868 350.806 395.706 356.631 384.675 359.211C389.505 330.266 402.384 303.266 421.839 281.297Z"/><path fill="#888787" d="M478.985 244.515C484.384 244.024 499.4 247.409 505 248.569C502.917 255.626 499.601 263.983 497.172 271.222C491.245 288.497 485.523 305.842 480.008 323.253C476.333 319.739 472.376 315.412 468.82 311.703C455.841 298.478 444.12 285.447 430.617 272.55C446.033 259.28 460.15 251.575 478.985 244.515Z"/><path fill="#888787" d="M541.358 244.165C544.923 243.462 549.086 245.581 552.38 246.939C567.57 253.202 581.895 261.112 593.73 272.679C582.459 283.867 570.016 295.797 559.261 307.336C554.549 312.158 549.983 317.587 545.295 322.567C542.107 314.404 539.09 304.23 536.305 295.7C531.297 279.841 525.865 264.119 520.016 248.55C527.117 246.918 534.164 245.325 541.358 244.165Z"/><path fill="#888787" d="M424.559 479.327C426.012 479.397 437.863 488.687 440.285 490.255C453.869 499.07 468.739 505.724 484.364 509.977C484.355 519.343 484.4 528.709 484.499 538.074C478.952 536.848 474.496 535.686 469.039 534.112C441.186 525.223 426.459 516.665 404.587 497.468C409.395 492.675 419.347 483.197 424.559 479.327Z"/><path fill="#888787" d="M670.985 404.901C671.615 404.992 671.268 404.871 671.931 405.468C666.364 437.429 649.059 464.886 628.539 489.25C625.401 486.16 622.193 482.689 619.128 479.492L609.52 469.614C629.101 448.425 637.047 434.033 645.846 406.728C657.999 409.722 660.218 411.373 670.985 404.901Z"/><path fill="#888787" d="M353.653 405.7C364.256 409.273 368.166 410.36 379.075 408.795C387.669 432.826 397.63 451.048 415.212 469.644L406.198 478.428C402.572 481.843 399.288 484.661 395.492 487.847C374.486 465.431 358.398 436.247 353.653 405.7Z"/><path fill="#888787" d="M599.766 479.869C602.588 480.644 615.207 494.929 618.139 498.123C601.006 513.768 577.233 526.441 555.468 534.061C550.004 535.756 545.539 536.944 539.993 538.282C539.635 529.253 539.927 519.568 540.047 510.483C564.435 503.817 579.709 494.273 599.766 479.869Z"/><path fill="#888787" d="M659.222 340.466C660.496 340.748 667.448 344.809 669.256 345.73C684.896 353.7 700.811 361.007 716.451 368.988C707.275 373.845 696.54 378.76 687.127 383.318C677.209 388.131 668.008 392.534 658.382 397.908C655.414 396.772 651.855 395.673 648.8 394.65C654.827 369.627 655.159 369.97 649.134 344.551C652.441 343.152 655.883 341.812 659.222 340.466Z"/><path fill="#888787" d="M511.776 167.761C513.807 169.291 538.737 224.803 541.101 230.91C530.437 231.603 522.277 233.852 512.115 236.643C510.253 236.295 504.695 234.505 502.234 233.89C495.256 232.148 490.041 231.376 482.992 230.615C491.671 209.78 502.223 188.32 511.776 167.761Z"/><path fill="#888787" d="M369.291 341.658C370.855 341.45 374.148 341.499 375.855 341.473C368.066 369.539 369.821 368.798 375.363 397.069C360.28 396.505 348.657 388.683 335.159 381.77C327.427 377.94 315.531 372.494 308.4 368.232C317.257 364.278 326.053 360.189 334.786 355.966C345.198 350.877 358.076 343.256 369.291 341.658Z"/><path fill="#888787" d="M394.385 253.851C400.85 259.848 406.427 266.312 412.921 272.168C395.112 291.706 388.387 305.082 378.966 329.604C375.874 329.409 373.114 329.341 370.017 329.303C363.709 329.616 359.464 330.946 353.437 332.667C359.4 302.306 374.415 276.958 394.385 253.851Z"/><path fill="#888787" d="M630.464 255.408C633.974 258.043 637.901 263.825 640.596 267.49C654.751 286.747 664.932 308.832 670.594 332.103C669.868 331.664 669.136 331.236 668.397 330.819C662.616 327.576 660.292 328.19 654.378 329.832C651.55 330.779 648.59 331.917 645.773 332.945C636.694 305.93 630.709 294.488 612.666 272.129C617.522 266.978 625.062 260.008 630.464 255.408Z"/><path fill="#888787" d="M511.223 820.066C524.332 819.623 535.313 829.902 535.735 843.012C536.157 856.122 525.86 867.086 512.75 867.487C499.669 867.887 488.735 857.619 488.314 844.539C487.893 831.459 498.144 820.508 511.223 820.066Z"/><path fill="#888787" d="M477.714 206.579C478.97 206.413 478.438 206.238 479.401 206.863C476.963 214.813 468.645 226.701 467.709 235.363C450.074 241.439 435.596 250.871 421.604 262.984L414.081 255.403L403.963 245.1C420.445 226.978 453.902 212.123 477.714 206.579Z"/><path fill="#888787" d="M544.158 206.275C548.086 206.536 555.191 208.76 558.991 210.005C580.478 217.047 604.606 229.83 620.827 245.511L612.344 253.881C609.13 257.121 606.649 259.411 603.175 262.373C584.962 249.125 579.698 243.897 557.622 235.285C553.551 225.367 548.675 215.988 544.158 206.275Z"/><path fill="#888787" d="M483.547 446.015C484.465 447.068 484.379 491.119 484.476 496.855C472.017 492.62 465.609 490.535 454.02 484.078C449.173 481.297 444.189 477.817 439.512 474.694C454.198 464.526 468.716 455.761 483.547 446.015Z"/><path fill="#888787" d="M539.902 445.318C553.627 455.613 569.818 465.057 583.881 475.281C579.226 478.276 575.047 480.954 570.203 483.664C561.536 487.809 548.824 494.086 539.614 496.003C539.267 479.259 540.077 462.229 539.902 445.318Z"/><path fill="#242425" d="M497.476 756.009C504.578 760.176 504.753 761.658 512.945 764.752C517.177 762.441 521.955 759.17 526.5 756.621C526.549 759.52 527.025 772.836 526.496 774.877C521.773 777.437 516.987 780.918 512.528 783.989C507.433 781.301 502.526 778.272 497.839 774.922C497.461 768.714 497.521 762.244 497.476 756.009Z"/><path fill="#242425" d="M497.55 788.276C504.387 792.496 504.46 793.978 512.607 796.843C517.198 795.245 522.461 791.686 526.685 789.056C526.877 794.875 526.704 801.055 526.639 806.902C526.664 808.627 526.748 809.08 526.236 810.774C515.011 806.257 509.191 806.755 498.063 810.827C497.956 803.315 497.64 795.82 497.55 788.276Z"/></svg>