<svg xmlns="http://www.w3.org/2000/svg" width="2048" height="2048" viewBox="0 0 2048 2048"><path fill="#fff" d="M0 0h2048v2048H0z"/><path fill="#f74735" d="M260.384 748.757c-6.641-19.125-14.525-39.483-21.955-58.379-15.378-39.113-27.937-72.635-11.556-114.424 16.698-42.595 55.577-59.414 99.508-55.843 29.442 2.393 52.324 14.894 78.937 26.403a3820 3820 0 0 0 62.794 26.267c13.796-3.681 27.512-6.6 41.15-10.255 6.794-1.738 8.162-1.983 13.268-6.678 11.302-.626 21.338-1.216 32.607-3.037a994 994 0 0 0-1.846 27.547c-1.999 3.122-8.524 12.752-9.176 15.856 11.714 3.573 23.465 7.055 35.036 11.064 13.958-3.408 28.162-7.759 42.06-10.927 14.866-7.508 27.11-6.74 43.546-6.907l-10.841 37.982c27.258 4.549 74.982 13.245 101.466 14.917 4.99.158 10.087.27 14.774 2.317 171.896 19.034 335.124 22.281 507.174-.116 3.09-.732 8.09-1.089 11.37-1.429l6.54-.606c28.51-2.713 72.61-10.237 100.99-15.045-.18-3.547-8.68-30.819-10.24-39.017 17.7 1.85 27.84-.454 43.8 7.765q19.89 5.15 39.6 10.972a3801 3801 0 0 1 37.7-10.882c-12.51-18.942-10.94-21.163-12.18-43.465 11.3 1.218 21.22 2.161 32.59 2.782 4.55 3.576 5.85 4.567 11.31 6.637a800 800 0 0 1 17.7 4.648l10.1 2.685c2.29.584 4.53 1.206 6.84 1.782l1.55.373 1.51.397c1.62.415 3.5.466 5.17.58 19.06-8.277 39.02-15.64 58.26-23.86 34.58-14.781 58.24-28.935 96.59-29.208 72.95-.52 108.45 64.839 89.62 130.573-3.11 10.878-7.53 21.666-11.6 32.437l-17.39 46.215c-2.33 6.232-6.45 16.384-8.07 22.369 5.97 13.484 13.6 28.946 18.66 42.539 7.71 9.392 7.05 24.437 8.83 37.141-12.21-.094-28.24.276-40-1.21-4.33 11.555-12.17 34.406-17.22 44.916l13.34 39.358c5.86 10.985 6.59 23.391 8.44 35.852-5.55.09-37.22-.326-39.75.984a742 742 0 0 0-2.68 45.437c.08 4.596.15 8.756 0 13.366 15.22 7.68 16.57 15.96 2.86 27.32-3.55 2.94-2.53 2.17-2.94 6.61.78 17.79 1.91 35.86 2.58 53.58 13.28-.03 26.55.09 39.82.35-.98 7.47-2.22 27.87-6.51 32.8l-2.65 8.19c-3.81 11.85-9.89 25.11-12.56 37.39 4.76 11.42 14.14 32.89 17.32 44.1 8.84-4.94 28.69-2.95 40.13-3.66-1.06 8.27-1.92 28.8-7.06 33.99-4.69 14.04-13.54 35.13-19.78 48.78 6.91 18.97 14.04 37.87 21.37 56.69 16.67 43.01 30.69 78.06 9.09 123.93a85 85 0 0 1-48.99 44.71c-65.16 23.11-128.2-29.2-189.14-47.43-14.82 5.21-33.65 9.8-49 13.5-8.2 4.9-27.18 4.93-38.45 6.73.76-8.73 1.52-17.13 2.56-25.79 1.1-9.17 7.04-12.78 7.91-18.75-12.28-3.37-24.9-7.24-37.17-10.84-8.87 2.76-20.18 6.2-29.06 8.57-2.55.69-5.08 1.44-7.6 2.25-2.17.35-3.37.42-5.04 1.69-7.15 5.43-29.71 5.32-40.36 6.06 2.33-11.56 8.78-29.57 10.16-40.29-30.48-5.8-70.98-11.29-102.02-14.42-3.7-.43-7.41-.9-11.11-1.39-40.92-3.78-80.48-7.71-121.64-10.02a2325 2325 0 0 0-391.308 10.16c-3.016.38-9.299 1.36-12.069 1.37-36.181 3.95-69.046 10.23-103.981 14.72 2.474 12.37 7.61 26.98 10.482 39.92-12.539-.99-31.91-.4-41.392-6.69-13.716-3.97-27.409-8.07-41.11-12.1l-37.252 11.02c-.238 2.9 3.176 7.48 5.083 10.22 4.835 6.97 4.665 24.14 5.524 33.61-11.16-1.55-28.768-1.45-37.573-5.71l-6.567-3.15-15.773-4.49c-6.85-1.93-18.457-5.94-25.213-6.77-21.161 7.2-52.794 21.1-73.643 30.37-40.628 18.07-74.738 32.49-119.79 16.76-21.39-7.47-39.104-25.94-48.035-46.51-19.63-45.2-5.841-78.48 9.89-120.77l22.174-59.18c-2.474-9.2-13.117-32.04-17.445-41.01-7.89-15.58-7.642-22.8-9.871-39.85 7.038-.31 14.421.47 21.342.27 4.645-.13 16.423 1.54 19.66-.19 5.65-13.79 10.999-28.48 16.316-42.45-1.78-9.37-10.207-30.72-13.676-40.83-5.778-11.35-6.149-22.6-8.56-35.4l40.216-.33c1.439-19.33 3.072-39.98 3.379-59.25-15.248-8.17-16.72-19.83-.028-27.75a572 572 0 0 0-2.512-51.158c-.306-3.847-.303-4.916-1.417-8.544-3.822-.986-33.671-.643-39.43-.659.955-6.585 3.472-28.48 6.452-33.065 4.376-14.425 11.223-28.99 15.752-43.614-6.315-14.521-11.759-30.07-17.223-44.987-10.169 3.141-28.819 2.565-40.407 2.831 1.411-10.119 2.45-28.038 7.843-35.951 5.479-14.846 12.425-32.185 19.116-46.366"/><path fill="#04031d" d="M1277.33 644.544c1.63.089.66-.059 2.84.744-12.41 21.467-2.12 19.007 11.55 30.074 20.27 16.414 40.49 38.636 59.72 56.662 5.68 5.325 4.62 9.938 11.53 15.097-21.5 2.187-44.37 6.152-66.05 8.892a2292 2292 0 0 1-117.48 11.634 2106 2106 0 0 1-193.916 6.158c-101.338-2.281-194.894-13.013-295.104-25.853l-.849-1.167c2.352-11.577 51.951-54.321 62.695-65.667 5.878-5.32 13.046-9.474 18.868-14.811 9.151-8.39 3.905-13.537-.978-21.647 171.896 19.034 335.124 22.281 507.174-.116"/><path fill="#04031d" d="M687.339 1302.9A2192.8 2192.8 0 0 1 1171 1282.67c41.14 2.94 82.22 6.79 123.19 11.53 22.41 2.56 47.14 6.13 69.29 8.15-3.1 3.18-4.91 5.66-7.68 8.84-17.35 19.96-37.61 38.43-56.72 56.81-9.28 8.93-39.26 17.59-16.01 36.3-40.92-3.78-80.48-7.71-121.64-10.02a2325 2325 0 0 0-391.308 10.16c6.771-6.59 9.448-14.99 1.567-22.46-5.013-4.75-12.79-6.31-17.523-11.54-16.738-16.3-33.83-32.3-50.596-48.57-6.405-6.22-10.605-13.38-16.231-18.97"/><path fill="#04031d" d="M271.262 1269.27c9.939 7.12 23.546 14.39 32.401 21.1 5.388.29 13.965 1.01 19.094.83l12.893.94c17.949 18.51 36.559 25.65 55.668 39.84 8.723 6.48 35.898 46.08 42.312 56.83 4.686-.05 18.487-.78 21.823.99 11.226 46.44 6.287 41.54 40.316 76.82-7.116 4.53-18.069 6.49-25.488 9.77-21.161 7.2-52.794 21.1-73.643 30.37-40.628 18.07-74.738 32.49-119.79 16.76-21.39-7.47-39.104-25.94-48.035-46.51-19.63-45.2-5.841-78.48 9.89-120.77l22.174-59.18c3.066-8.63 6.183-19.73 10.385-27.79"/><path fill="#fff" d="M335.147 1365.61a38.12 38.12 0 0 1 36.788 10.87 38.13 38.13 0 0 1 8.726 37.35 38.15 38.15 0 0 1-28.164 26.05c-20.409 4.55-40.674-8.19-45.431-28.55s7.769-40.76 28.081-45.72"/><path fill="#04031d" d="M1778.66 1268.9c3.63 6.27 8.51 22.63 11.26 30.18 6.91 18.97 14.04 37.87 21.37 56.69 16.67 43.01 30.69 78.06 9.09 123.93a85 85 0 0 1-48.99 44.71c-65.16 23.11-128.2-29.2-189.14-47.43-10.57-4.65-19.61-7.2-28.87-11.05 35.46-37.07 29.37-23.66 41.49-73.96l.45-.77c2.7-1.97 17.11-2.3 21.47-2.58 10.26-14.36 29.37-45.65 41.11-56.07 9.18-8.16 38.62-21.21 48.4-31.55 8.44-8.93 8.14-8.94 19.02-9.84 26.23-.01 31.05-8.09 53.34-22.26"/><path fill="#fff" d="M1697.21 1365.48c20.5-4.79 40.98 7.96 45.75 28.45s-7.98 40.97-28.48 45.73c-20.48 4.75-40.93-7.99-45.7-28.47-4.76-20.47 7.96-40.93 28.43-45.71"/><path fill="#04031d" d="M1581.68 572.721c19.06-8.277 39.02-15.64 58.26-23.86 34.58-14.781 58.24-28.935 96.59-29.208 72.95-.52 108.45 64.839 89.62 130.573-3.11 10.878-7.53 21.666-11.6 32.437l-17.39 46.215c-2.33 6.232-6.45 16.384-8.07 22.369-2.18 7.273-6.58 21.732-10.36 27.493-8.59-6.782-23.5-14.933-33.3-21.458l-27.7-.73c-4.42-.599-5.67-1.738-9.04-5.213-11.85-12.208-35.87-22.623-48.76-32.945-14.21-11.378-32.36-41.184-43.15-56.928-7-.682-17.27.942-22.15-2.599-7.49-44.016-12.35-45.745-40.2-75.659 4.95-2.961 16.31-7.416 22.09-9.041z"/><path fill="#fff" d="M1697.03 609.49c20.47-4.94 41.05 7.679 45.94 28.157 4.88 20.479-7.8 41.029-28.29 45.855-20.41 4.806-40.86-7.81-45.72-28.207-4.87-20.397 7.69-40.884 28.07-45.805"/><path fill="#04031d" d="M260.384 748.757c-6.641-19.125-14.525-39.483-21.955-58.379-15.378-39.113-27.937-72.635-11.556-114.424 16.698-42.595 55.577-59.414 99.508-55.843 29.442 2.393 52.324 14.894 78.937 26.403a3820 3820 0 0 0 62.794 26.267c8.29 2.663 20.49 6.577 28.039 10.695-28.956 31.434-32.919 30.024-40.716 76.485-3.768 1.713-16.906 1.228-22.137 1.294-8.934 12.5-30.611 45.944-39.918 54.839-8.727 8.34-43.685 25.016-52.784 35.911-1.995 2.389-3.587 3.863-6.325 4.504-10.523.496-19.651.529-30.137.439-9.828 6.586-23.935 15.248-32.984 21.99-2.47-5.677-4.752-13.053-6.749-19.053l-2.029-5.985c-.859-2.491-.846-2.673-1.988-5.143"/><path fill="#fff" d="M335.603 609.471a38.009 38.009 0 0 1 44.661 48.953 38.01 38.01 0 0 1-28.801 25.378c-20.35 3.975-40.132-9.093-44.458-29.372-4.327-20.278 8.397-40.282 28.598-44.959"/><path fill="#04031d" d="M1648.78 914.154c24.49 9.56 50.56 23.327 74.84 33.834 4.85 2.097 13.54.152 17.77 2.839a742 742 0 0 0-2.68 45.437c.08 4.596.15 8.756 0 13.366 15.22 7.68 16.57 15.96 2.86 27.32-3.55 2.94-2.53 2.17-2.94 6.61-.06-.44-.73-4.92-.9-4.96-19.74-4.93-98.58 4.83-110.83-6.11-.65-1.66-.85-1.84-1.84-3.53l-.08-.44c-.81-4.25-.93-4.55.02-8.76.62-1.42 1.26-2.84 1.9-4.25-1.25-2.28-1.15-2.21-1.59-4.76 7.97-23.71 17.25-70.934 23.47-96.596"/><path fill="#f74735" d="M1738.71 996.264c.08 4.596.15 8.756 0 13.366 15.22 7.68 16.57 15.96 2.86 27.32-3.55 2.94-2.53 2.17-2.94 6.61-.06-.44-.73-4.92-.9-4.96-19.74-4.93-98.58 4.83-110.83-6.11-.65-1.66-.85-1.84-1.84-3.53l-.08-.44c-.81-4.25-.93-4.55.02-8.76.62-1.42 1.26-2.84 1.9-4.25 1.98-1.6 4.73-3.87 7.24-4.14 12.78-1.39 27.43-.7 40.39-.63l63.7-.11c.01-4.79.16-9.58.48-14.366"/><path fill="#04031d" d="M312.21 1010.27c33.654.53 69.926-.61 103.088.47 4.971 2.58 5.871 3.06 9.649 7.32 1.092 5.03 1.297 5.07.443 10.2l-.996 1.55c-.759 1.13-1.33 2.05-1.642 3.37 1.929.43 1.584 1.02 2.132 2.82-8.151 24.61-18.436 71.13-23.486 97.09-24.499-12.31-51.125-23.11-76.086-34.68-3.35-1.55-12.268.3-16.453-1.14 1.439-19.33 3.072-39.98 3.379-59.25-15.248-8.17-16.72-19.83-.028-27.75"/><path fill="#f74735" d="M312.21 1010.27c33.654.53 69.926-.61 103.088.47 4.971 2.58 5.871 3.06 9.649 7.32 1.092 5.03 1.297 5.07.443 10.2l-.996 1.55c-.759 1.13-1.33 2.05-1.642 3.37-9.179 6.94-27.038 4.78-38.489 4.73q-25.84-.06-51.677-.45c-4.146-.06-17.445-.6-20.348.56-15.248-8.17-16.72-19.83-.028-27.75"/><path fill="#04031d" d="M653.916 627.426c27.258 4.549 74.982 13.245 101.466 14.917l.741 1.007c-7.83 4.928-9.102 12.202-14.939 18.753-8.119 9.113-54.705 55.381-62.709 58.153-3.132 1.085-6.215 2.49-8.306 5.16a14.26 14.26 0 0 0-2.866 11.455c.306 1.76.89 4.338 1.249 6.154-4.371 2.408-61.133-9.885-68.641-11.504 17.109-24.017 36.231-41.118 43.009-69.847 1.938-8.217 7.474-27.066 10.996-34.248"/><path fill="#04031d" d="M1396.23 627.464c5.78 10.969 11 41.603 15.29 50.478 6.97 14.391 27.71 38.705 38.26 53.638-18.29 4.948-48.89 9.509-68.61 12.943 8.71-24.318-5.28-19.285-17.61-30.64-18.65-17.17-36.75-35.546-55.61-52.568-5.27-4.88-5.77-13.026-11.86-15.686l-.85-3.12c28.51-2.713 72.61-10.237 100.99-15.045"/><path fill="#04031d" d="M600.058 1316.8c19.525-3.63 49.25-8.96 68.694-11.17l.702.97c-2.836 7.15-4.177 13.86 2.201 20.07 2.975 2.89 9.311 3.56 12.903 6.86 19.529 17.9 39.051 36.15 57.632 55.03 6.866 6.98 6.738 11.74 15.863 17.25-36.181 3.95-69.046 10.23-103.981 14.72-5.781-10.72-10.145-37.47-15.013-47.87-7.684-16.42-27.593-40.21-39.001-55.86"/><path fill="#04031d" d="M1294.18 1405.69c2.85-5.46-1.22 1.67 2.33-2.59 20.71-24.87 45.24-47.87 69.63-69.25 6.7-5.87 15.92-6.25 18-16.63.69-3.45-2.87-9.45-1.41-11.13 10.32.03 55.78 8.9 67.25 11.22-10.59 12.99-20.04 26.91-30.48 39.84-14.58 18.07-13.44 43.69-23.3 62.96-30.48-5.8-70.98-11.29-102.02-14.42"/><path fill="#04031d" d="m1624.26 1034.23 2.64-1.74c12.25 10.94 91.09 1.18 110.83 6.11.17.04.84 4.52.9 4.96.78 17.79 1.91 35.86 2.58 53.58-4.92 1.28-12.52-.25-16.19 1.06-10.38 3.71-21.51 9.36-31.59 14.09a2421 2421 0 0 1-45.01 20.36c-8.67-31.75-15.57-65.97-24.16-98.42"/><path fill="#04031d" d="M309.698 959.112c-.11-3.117-.773-6.754.87-9.077 7.843-1.549 10.313.514 17.298-2.678 23.967-10.953 49.021-22.803 73.4-32.659 5.886 27.908 13.102 62.001 20.849 89.272-1.08 7.96 1.097 7.26-6.817 6.77-33.162-1.08-69.434.06-103.088-.47a572 572 0 0 0-2.512-51.158"/><path fill="#04031d" d="M1747.84 1145.23c.53-.89 24.63-16.31 26.68-14.94l-2.65 8.19c-3.81 11.85-9.89 25.11-12.56 37.39 4.76 11.42 14.14 32.89 17.32 44.1-11.73 5.92-64.76 24.06-77.47 27.56-11.72-10.99-23.88-23.52-35.35-34.91-.04-5.35-.31-10.34-.61-15.66v-5.5c3.84-6.84 48.01-21.69 57.83-28.22 8.35-5.55 18.38-12.42 26.81-18.01"/><path fill="#d42d25" d="M1747.84 1145.23c.53-.89 24.63-16.31 26.68-14.94l-2.65 8.19c-3.81 11.85-9.89 25.11-12.56 37.39-1.27-5.3-7.86-28.34-11.47-30.64"/><path fill="#04031d" d="m290.879 1173.83 6.591-18.94c1.139-3.38 1.74-7.78 4.644-9.7 23.631 16.89 58.576 34.9 86.28 44.19l-1.816 17.89c-.162 1.76-.55 4.86-1.657 6.15-9.809 11.42-22.356 22.02-32.801 32.78-9.32-2.72-71.65-23.16-77.39-27.24l-.167-2.68c5.65-13.79 10.999-28.48 16.316-42.45"/><path fill="#04031d" d="m1662.43 840.73.79-4.063c5.15-6.391 30.55-31.148 36.82-35.29 9.82 4.093 74.7 26.065 76.54 28.34-4.33 11.555-12.17 34.406-17.22 44.916l-1.54 5.853c-1.1 4.223-6.68 18.878-8.91 22.128-22.72-18.453-59.62-32.703-87.19-45.763.2-5.375.43-10.749.71-16.121"/><path fill="#04031d" d="M351.125 801.318c10.797 11.979 23.538 22.51 34.225 34.498.944 1.06 1.135 3.538 1.198 5.009l.613 16.771c-30.174 13.602-59.443 24.36-85.801 44.586-3.093-4.678-8.14-22.331-10.305-28.952-6.315-14.521-11.759-30.07-17.223-44.987 8.463-5.639 63.416-22.238 77.293-26.925"/><path fill="#04031d" d="M1507.09 596.302c13.28 21.577 31.61 49.057 43.52 70.523-1.78 3.979-37.28 39.424-40.97 41.203-7.32-7.466-18.85-22.849-25.34-31.242a2547 2547 0 0 0-29.4-36.978c-1.25-7.133-2.56-19.51-3.14-26.744 5.93-2.158 11.7-3.791 17.63-5.88a3801 3801 0 0 1 37.7-10.882"/><path fill="#04031d" d="m541.408 1340.44 32.671 41.88c4.075 5.13 19.26 23.5 21.74 28.31a597 597 0 0 1 2.829 25.28c-4.813 1.91-12.735 3.54-16.596 5.75l-37.252 11.02c-4.599-2.35-38.397-60.91-44.276-70.91-.351-3.65 35.778-36.98 40.884-41.33"/><path fill="#04031d" d="M1508.58 1341.35c4.38 1.5 35.04 33.02 40.55 38.42.94.92.87 2.14.5 3.39-6.32 8.75-39.13 67.86-44.36 69.51-12.28-3.37-24.9-7.24-37.17-10.84-5.34-1.56-10.17-3.13-15.61-4.66l-.85-.24c.88-9.29 2.39-18.93 3.66-28.23 17.7-22.59 35.75-44.62 53.28-67.35"/><path fill="#04031d" d="M544.115 596.214c11.714 3.573 23.465 7.055 35.036 11.064 6.269 1.873 13.248 4.023 19.468 6.042-1.151 9.236-2.976 18.878-4.827 27.995-8.445 11.907-19.154 24.579-28.257 36.188-7.89 10.063-17.073 22.474-25.57 31.589-6.531-8.98-38.983-36.116-39.306-42.232 12.37-19.353 29.608-55.073 43.456-70.646"/><path fill="#d42d25" d="M579.151 607.278c13.958-3.408 28.162-7.759 42.06-10.927 3.872 3.081-1.88 7.653-4.118 11.191-7.367 11.647-14.784 22.968-23.301 33.773 1.851-9.117 3.676-18.759 4.827-27.995-6.22-2.019-13.199-4.169-19.468-6.042"/><path fill="#d42d25" d="M1778.66 1268.9c1.97-1.69 27.31-17.59 29.3-18.1l1.74-.5c-4.69 14.04-13.54 35.13-19.78 48.78-2.75-7.55-7.63-23.91-11.26-30.18"/><path fill="#d42d25" d="M260.384 748.757c1.142 2.47 1.129 2.652 1.988 5.143l2.029 5.985c1.997 6 4.279 13.376 6.749 19.053-7.498 2.837-24.776 18.377-29.882 16.185 5.479-14.846 12.425-32.185 19.116-46.366"/><path fill="#d42d25" d="M1431.44 1452.65c-1.12-.11-2.86-.05-3.82-.62-.13-.23-.27-.45-.4-.67 8.52-13.92 18.45-29.52 28.08-42.66-1.27 9.3-2.78 18.94-3.66 28.23l.85.24c5.44 1.53 10.27 3.1 15.61 4.66-8.87 2.76-20.18 6.2-29.06 8.57-2.55.69-5.08 1.44-7.6 2.25"/><path fill="#d42d25" d="M1429.79 596.212q19.89 5.15 39.6 10.972c-5.93 2.089-11.7 3.722-17.63 5.88.58 7.234 1.89 19.611 3.14 26.744-8.54-11.674-15.15-24.801-23.94-36.338-2.71-3.549-5.75-6.094-1.17-7.258"/><path fill="#d42d25" d="M595.819 1410.63c7.253 8.5 13.157 20.77 20.147 29.85 3.026 3.93 6.717 8.38 7.196 13.28-13.716-3.97-27.409-8.07-41.11-12.1 3.861-2.21 11.783-3.84 16.596-5.75a597 597 0 0 0-2.829-25.28"/><path fill="#d42d25" d="M1533.25 1490.48c-2.03-3.21 17.49-20.35 20.13-24.55 9.26 3.85 18.3 6.4 28.87 11.05-14.82 5.21-33.65 9.8-49 13.5"/><path fill="#d42d25" d="M243.432 1256.05c.229-1.32.254-2.31 1.003-3.37.564-.2 9.131 5.28 9.882 5.97 3.486 3.22 14.55 7.78 16.945 10.62-4.202 8.06-7.319 19.16-10.385 27.79-2.474-9.2-13.117-32.04-17.445-41.01"/><path fill="#d42d25" d="M1789.09 751.247c5.97 13.484 13.6 28.946 18.66 42.539-3.75 1.816-9.2-2.716-12.34-5.186-3.71-2.932-14.61-7.855-16.68-9.86 3.78-5.761 8.18-20.22 10.36-27.493"/><path fill="#d42d25" d="M291.055 873.23c2.165 6.621 7.212 24.274 10.305 28.952-.714.705-3.467 2.056-4.763 3.029a175 175 0 0 1-9.959 6.956c-4.612 3.017-6.658 7.504-11.335 4.677 4.376-14.425 11.223-28.99 15.752-43.614"/><path fill="#d42d25" d="M277.203 1133c1.901-7.37 12.912 7.31 18.262 8.07-.856-.12 6.583 3.99 6.649 4.12-2.904 1.92-3.505 6.32-4.644 9.7l-6.591 18.94c-1.78-9.37-10.207-30.72-13.676-40.83"/><path fill="#d42d25" d="M468.112 572.781c13.796-3.681 27.512-6.6 41.15-10.255.958.189 3.925.621 4.778 1.185-.21.89-16.137 18.155-17.889 19.765-7.549-4.118-19.749-8.032-28.039-10.695"/><path fill="#d42d25" d="m1759.36 874.633 13.34 39.358c-.27 1.099-.28 2.522-1.4 3.106-3.76-.532-16.39-11.965-22.39-14.483 2.23-3.25 7.81-17.905 8.91-22.128z"/><path fill="#d42d25" d="M1538.81 562.256a800 800 0 0 1 17.7 4.648l10.1 2.685c2.29.584 4.53 1.206 6.84 1.782l1.55.373 1.51.397c1.62.415 3.5.466 5.17.58l-5.16 1.446c-5.78 1.625-17.14 6.08-22.09 9.041-1.7-1.304-18.37-18.691-18.54-19.548.64-.969 1.8-1.076 2.92-1.404"/><path fill="#d42d25" d="M495.769 1466.62c2.189 2.09 17.216 18.1 17.838 19.69-.248.73-2.003 1.19-2.34 1.34l-15.773-4.49c-6.85-1.93-18.457-5.94-25.213-6.77 7.419-3.28 18.372-5.24 25.488-9.77"/><path fill="#0d0015" d="M422.115 1003.97c1.262 4.67 2.417 8.92 4.259 13.4l-1.427.69c-3.778-4.26-4.678-4.74-9.649-7.32 7.914.49 5.737 1.19 6.817-6.77"/><path fill="#871317" d="m1623.35 1017.28 1.65 2.48c-.95 4.21-.83 4.51-.02 8.76l.08.44-1.83 1.07c-1.7-4.49-1.26-8.03.12-12.75"/><path fill="#d42d25" d="M426.374 1017.37c2.189 4.9 2.314 6.86 1.03 11.98l-2.014-1.09c.854-5.13.649-5.17-.443-10.2z"/><path fill="#560e15" d="m425.39 1028.26 2.014 1.09c-1.037 2.13-1.81 4.38-2.52 6.65-.548-1.8-.203-2.39-2.132-2.82.312-1.32.883-2.24 1.642-3.37z"/><path fill="#560e15" d="M1625.31 1010.75c.44 2.55.34 2.48 1.59 4.76-.64 1.41-1.28 2.83-1.9 4.25l-1.65-2.48c.67-2.19 1.24-4.35 1.96-6.53"/><path fill="#560e15" d="m1623.23 1030.03 1.83-1.07c.99 1.69 1.19 1.87 1.84 3.53l-2.64 1.74a89 89 0 0 1-1.03-4.2"/><path fill="#560e15" d="m1288.7 643.115 6.54-.606.85 3.12c-3.35-.846-4.22-1.158-7.39-2.514"/><path fill="#04031d" d="M1484.02 798.254c29.44 25.49 56.64 56.378 86.28 81.99 2.69 2.321 5.38 1.121 8.39 2.887-11.3 40.229-19.61 99.415-30.84 140.349-.03.09 28.48 134.09 31.09 142.37-3.82 3.18-7.26 1.62-9.23 3.48-28.33 26.83-55.89 54.64-84.62 81.03-.9 0-1.81-.01-2.71-.02-19.11-2.17-48.19-9.41-68.49-12.95-51.13-9.08-102.5-16.74-154.06-22.98a2151.5 2151.5 0 0 0-687.947 35.48c-1.974.48-4.18 1.12-6.175.36-6.391-2.41-14.38-11.97-19.34-16.73-9.602-9.21-63.764-65.06-70.376-65.61-2.634-.21-1.325.07-3.821-.53-.443-.11-.882-.23-1.323-.35 7.536-43.3 22.974-99.06 30.957-142.49.928-5.06-10.304-48.583-12.402-57.838a6263 6263 0 0 1-18.092-84.073c2.265-1.335 5.602-.436 8.21-2.571 10.516-8.612 20.204-18.283 30.03-27.681l56.116-53.37c46.236 8.86 94.354 18.786 140.838 25.772a2031.5 2031.5 0 0 0 653.645-3.201c29.53-4.806 59-9.981 88.4-15.521 8.19-1.588 28.08-5.145 35.47-7.803"/><path fill="#04031d" d="M1584.11 1202.21c7.2-.24 15.7.14 23 .3 22.32 19.65 46.36 44.83 68.67 65.58l.16 15.16c-24.63 21.23-50.44 51.4-74.26 70.83l-24.11.46c-23.01-21.25-44.59-43.98-67.52-65.51l.12-16.76c24.9-23.09 48.97-47.22 73.94-70.06"/><path fill="#04031d" d="m1577.7 695.925 23.81.016c11.43 12.225 27.56 26.552 39.72 38.575 8.34 8.247 25.07 24.935 33.67 31.641l.35 14.401c-21.34 22.319-46.08 45.581-68.42 66.989-7.03.436-15.64.178-22.81.141-3.46-2.566-6.56-5.477-9.72-8.398-21.64-20.012-42.24-41.136-64.04-60.968l-.27-17.036c22.41-21.086 44.91-45.069 67.71-65.361"/><path fill="#04031d" d="m444.082 1201.73 21.58.21c12.079 11.9 25.318 23.88 37.62 35.74 11.096 10.7 24.479 24.24 35.995 34.12l-.091 17.12c-5.825 6.63-16.598 16.37-23.287 22.84q-21.9 21.09-43.569 42.42l-23.817-.09c-24.564-22.48-47.976-47.84-72.786-69.96l-.202-16.79c20.085-18.4 48.405-49.74 68.557-65.61"/><path fill="#04031d" d="M449.02 696.239c8.298-.328 15.558-.139 23.876.104 22.578 20.769 44.376 43.53 67.133 64.542-.158 5.48-.575 11.392-.867 16.903-16.595 17.097-34.526 33.366-51.41 50.216-6.885 6.871-14.205 13.874-21.624 20.131q-11.19-.144-22.383-.09c-20.589-20-46.859-46.722-68.08-65.204l.247-16.991c22.712-19.428 51.329-48.306 73.108-69.611"/><path fill="#d42d25" d="M336.779 758.517c.762 4.181 2.145 25.681-.858 28.171-1.518-1.517-3.1-2.901-4.744-4.282a93.4 93.4 0 0 0-11.1-8.704l-2.656-1.746c7.912-4.775 12.084-8.004 19.358-13.439"/><path fill="#d42d25" d="M329.262 1266.92c2.023-1.33 4.709-3.7 6.524-4.7.726.38.742 2.63.401 3.21-1.751 2.98 1.719 22.86-2.129 22.46-.885-.09-5.296-2.84-7.161-3.75-.251-.15-.502-.31-.754-.46l-10.285-5.92c5.127-3.9 8.589-6.59 13.404-10.84"/><path fill="#d42d25" d="M1714.36 787.954c-.64-3.97.16-23.928 1.76-27.06 6.45 5.477 9.6 7.174 16.5 11.244-6.13 5.386-12.23 10.247-18.26 15.816"/><path fill="#d42d25" d="M1714.21 1263.13c5.34 4.6 10.29 8.52 15.97 12.69-4.75 4.21-9.41 8.35-13.97 12.76-3.11-2.27-2.57-21.61-2-25.45"/></svg>