<svg xmlns="http://www.w3.org/2000/svg" width="2048" height="2048" viewBox="0 0 2048 2048"><path fill="#000415" d="M0 0h2048v2048H0z"/><path fill="#12f4f0" d="M547.277 926.528c5.722-21.207 10.882-41.804 18.411-62.477 40.554-111.354 115.556-202.563 218.601-261.697a476.8 476.8 0 0 1 362.691-47.178c126.73 33.829 234.51 117.236 299.06 231.424 22.27 39.179 44.12 93.131 53.73 137.326a3924 3924 0 0 1-97.91 98.014c32.01 32.17 65.67 63.59 97.44 95.86-34.7 139.13-109.73 246.46-233.85 319.87-106.18 62.8-240.35 81.1-359.474 51.25a492.29 492.29 0 0 1-299.217-222.45c-28.406-47.44-42.473-85.82-56.37-138.41-2.553-8.11-3.278-7.57 2.257-13.19 29.641-30.59 62.478-64.06 93.418-93.05l-64.711-62.699c-10.594-10.265-23.091-23.005-34.076-32.593"/><path fill="#000415" d="M1011.73 621.436c64.22-3.757 143.76 16.69 199.77 47.382 101.49 55.61 167.89 139.781 201.31 249.375-34.22 34.27-68.85 70.27-103.97 103.527q51.855 50.52 102.9 101.85c-13.23 56.46-52.4 122.68-91.71 164.95-76.13 81.84-170.91 125.95-281.79 131.56a394.8 394.8 0 0 1-204.496-47.88c-98.956-53.27-166.107-140.13-198.195-247.15l63.063-63.44c12.892-12.89 27.884-27.09 39.944-40.53-13.063-11.67-26.886-25.928-39.448-38.377l-63.975-63.326c7.459-22.957 14.486-43.235 24.802-65.125 65.946-139.93 198.516-225.43 351.795-232.816"/><path fill="#12f4f0" d="M1005.41 780.438c132.37-10.699 248.35 87.897 259.11 220.252 10.76 132.36-87.79 248.39-220.14 259.21-132.437 10.82-248.557-87.8-259.321-220.24-10.763-132.44 87.908-248.517 220.351-259.222"/><path fill="#000415" d="M1010.95 803.064c119.98-7.585 223.39 83.53 230.96 203.506 7.58 119.98-83.55 223.38-203.52 230.94-119.966 7.57-223.352-83.54-230.927-203.5-7.576-119.968 83.528-223.361 203.487-230.946"/><path fill="#12f4f0" d="M1019.28 945.641c42.45-2.237 78.75 30.207 81.28 72.649 2.52 42.43-29.67 78.95-72.09 81.77-42.829 2.84-79.78-29.74-82.33-72.58-2.551-42.851 30.275-79.58 73.14-81.839"/></svg>