<svg xmlns="http://www.w3.org/2000/svg" width="2048" height="2048" viewBox="0 0 2048 2048"><path fill="#030101" d="M0 0h2048v2048H0z"/><path fill="#e5d7cb" d="m665.789 477.925 88.286.058.465 646.317-.138 209.83c.074 26.08-1.336 68.98.446 93.69l-26.999 26.98c-17.305-20.4-36.81-40.82-55.101-60.53l-.081 45.64c10.321 11.27 20.707 23.48 30.809 35.02a2709 2709 0 0 0-30.586 32.81l-.051 105.66c16.74-18.86 37.246-38.53 54.856-57.38q.247-30.585-.185-61.17c-7.231-1.6-12.875-2.51-20.23-3.53l39.705-40c-18.409 38.98-12.861 55.92-12.68 97.85l47.313-48.63.183-64.17-18.418-4.8a1860 1860 0 0 0 42.117-42.07c-2.677 5.86-14.798 27.45-15.574 31.56-3.486 18.48-1.738 52.08-1.709 72.15 14.228-13.87 32.694-33.13 45.792-47.91l-.044-58.6c-8.736-2.27-13.674-3.16-22.599-4.21a3152 3152 0 0 1 42.331-42.65l3.457-3.66 1.245-.03c-.374 3.25-.526 3.14-2.1 6.07-3.137 6.79-11.773 25.09-12.895 31.47-3.11 17.71-1.75 45.02-1.67 63.71l48.197-49.87-.104-61.6c-6.858-1.93-13.722-3.2-20.702-4.61 14.573-15 29.296-29.85 44.166-44.56-4.495 9.89-16.014 30.65-16.603 40.29-1.215 19.89-.435 43.72-.49 63.89 13.855-15.46 31.29-32.92 45.834-47.78.149-22.35.084-44.69-.194-67.03-6.155-1.86-10.209-2.64-16.499-3.83 11.822-13.52 28.683-30.3 41.459-43.25-4.646 8.67-16.667 30.9-17.232 39.53-1.368 20.86-.563 45.89-.56 67.02 16.391-16.56 32.9-34.35 49.008-51.3l.145-68.85c-5.721-1.2-11.404-2.06-17.171-3 13.607-15.94 30.742-33.74 45.162-49.2 16.09 16.38 31.04 32.86 46.86 49.34l-19.92 3.31c-.11 22.81-.09 45.63.06 68.45 16.2 16.76 33.21 33.91 48.9 51.05-.17-20.37 1.94-51.77-2.03-70.7-1.44-6.89-13.72-31.57-17.25-38.87 11.53 10 34.15 34.61 44.77 46.36l-19.27 4.97.1 65.01c15.65 15.38 30.43 31.63 46.32 47.13-.05-19.71.88-40.74-.01-60.33-.52-11.52-9.93-30.46-14.72-41.43 14.32 13.57 27.08 29.39 41.95 42.64-6.94 1.79-13.23 3.9-20.03 6.15l.03 61.73c15.3 16.55 32.59 33.78 48.36 50.04-.32-49.32 6.21-57.12-16.27-102.52 15.94 14.84 30.62 31.52 46.4 46.86-7.13 1.21-15.64 3.27-22.82 4.82-.16 19.54-.12 39.09.13 58.63 14.5 15.85 30.07 31.75 44.95 47.33.04-21.01.91-45.4-.45-66.16-.64-9.7-12.74-29.81-17.72-38.79 14.63 14.33 29.04 28.88 43.23 43.63l-18.93 8.2.01 60.14c16.22 16.54 32.34 33.17 48.38 49.89.23-41.42 4.22-59.68-10.39-98.48 13.92 12.69 27.63 26.13 41.5 39.02-9.32 2.13-15.05 4.24-24.02 7.63l-.11 59.26c17.97 18.47 35.83 37.04 53.59 55.71l-.24-104.82c-8.82-10.96-21.18-23.76-30.87-34.32 10.3-10.88 21.2-23.74 31.22-35.05l-.08-45.57c-18.68 19.66-36.75 41-55.57 60.99l-25.32-25.89c.75-44.58.07-91.07.08-135.84l-.35-302.961-.06-355.797c.36-52.013.27-104.028-.26-156.039l88.83.073.1 827.054-.01 229.3.04 62.59c0 5.58.39 23.87-.45 28.74l-2.21.49c-5.3-.77-38.9-38.08-44.78-44.29l-71.94-75.22c-79.65-82.79-161.53-167.17-239.93-251.05-23.47 26.17-51.524 53.93-76.09 79.77l-164.014 171.11-71.785 74.42c-6.931 7.24-41.463 45.32-46.71 44.91-2.772-5.48-1.321-110.59-1.304-124.81l-.061-229.62z"/><path fill="#1f1f1f" d="M1377.38 593.144c.88 3.695 1.26 59.086.17 64.934a7934 7934 0 0 0-61.74 66.939 2443 2443 0 0 0 62.14 63.032l-.07 29.415c-25.19-24.882-50.27-53.745-74.89-79.602l.08-32.451c23.31-25.915 48.7-55.436 72.67-80.314.25-.419.5-.837.74-1.255 1.27-9.398-.63-21.508.9-30.698"/><path fill="#372924" d="M1377.38 593.144c.88 3.695 1.26 59.086.17 64.934-1.13-8.388.78-27.912-1.81-32.981.25-.419.5-.837.74-1.255 1.27-9.398-.63-21.508.9-30.698"/><path fill="#1f1f1f" d="M672.488 625.577c4.972 2.439 67.258 71.384 75.323 80.03l.028 31.059a6958 6958 0 0 1-68.15 72.971l-7.316 7.556.252-29.415c18.648-20.391 41.749-43.035 61.291-63.131a5293 5293 0 0 0-61.596-66.726z"/><path fill="#1f1f1f" d="M672.875 840.641c2.983 2.444 16.146 19.084 19.653 23.097 18.311 20.955 36.58 45.782 55.459 65.849l-.015 20.581c-21.376 21.459-44.798 47.95-65.567 70.332l-9.963 10.78c.204-10.67.171-21.59.247-32.28a3426 3426 0 0 1 56.708-58.16c-13.855-20.014-40.71-48.136-56.753-68.938z"/><path fill="#1f1f1f" d="M1376.74 840.888c1.82 2.112 1.23 25.908 1.24 30.305-18.55 23.166-38.68 46.679-57.68 69.646a5313 5313 0 0 1 57.5 58.594l.01 32.017-8.47-8.99-66.4-72.012.1-21.001c24.78-28.885 49.16-59.272 73.7-88.559"/><path fill="#1f1f1f" d="M747.402 961.751c1.397 4.524.681 25.511.605 31.381l-40.33 44.928c13.22 13.1 27.702 29.52 40.497 43.39l-.065 37.78-15.841-17.62a3827 3827 0 0 0-56.709-61.42c22.109-25.62 48.676-53.277 71.843-78.439"/><path fill="#1f1f1f" d="M1302.78 961.705c6.83 6.113 19.5 20.983 26.34 28.526l45.26 49.119c-15.78 18.61-37.35 40.92-54.1 59.68-5.83 6.38-11.74 12.7-17.71 18.95l.16-36.69 39.36-43.2c-13.4-14.39-26.5-29.05-39.31-43.979q-.15-16.203 0-32.406"/><path fill="#1f1f1f" d="M746.722 746.814c2.047 2.101 1.212 22.243 1.193 26.492-14.619 15.134-35.726 41.73-49.587 58.415 15.128 19.2 33.76 39.838 49.54 58.826l.052 28.203-12.209-14.696c-21.013-25.095-44.03-51.25-64.319-76.669 24.793-26.766 51.004-53.592 75.33-80.571"/><path fill="#1f1f1f" d="M747.726 1291.76c.777 5.23.275 22.16.227 28.28-15.945 18.54-33.588 36.65-49.72 55.34a4100 4100 0 0 1 46.513 52.5l-15.709 15.88-5.98-6.48c-11.499-13.25-39.549-42.12-50.137-57.48-.135-.19-.041-5.66.017-5.73 20.044-24.43 54.782-59.79 74.789-82.31"/><path fill="#1f1f1f" d="M1376.69 1205.79c2.27 2.91 1.35 28.33 1.34 33.74a1785 1785 0 0 0-42.41 43.28c13.86 14.68 28.87 32.42 42.31 47.79l.02 31.9-13.8-14.9c-17.3-18.37-40.73-43.5-56.84-62.18 22.98-25.16 46.84-53.81 69.38-79.63"/><path fill="#1f1f1f" d="M747.636 1129.72c.976 5.7.56 27.15.552 33.88-12.235 12.5-24.995 26.88-37.165 39.78 11.926 13.76 24.741 27.68 36.925 41.29l.177 35.58c-4.436-5.43-9.679-11.02-14.411-16.27a1866 1866 0 0 0-53.295-59.17 5986 5986 0 0 1 67.217-75.09"/><path fill="#1f1f1f" d="M1302.98 1293.49c.31.25.62.51.93.76 24.59 26.12 48.76 52.81 73 79.29 1.03 1.12.37 7.22-.86 8.8-5.1 6.53-10.84 12.64-16.38 18.82l-33.45 37.25-4.51 5.21-15.98-15.54c15.46-16.81 31.51-35.67 46.89-52.87-16.05-16.49-34.01-37.31-49.7-54.6z"/><path fill="#1f1f1f" d="M1376.58 1048.92c1.97 2.83 1.18 26.75 1.15 31.82-13.38 14.54-28.8 29.97-42.6 44.17 13.23 15.02 28.92 31.2 42.69 45.98l-.03 32c-4.47-4.64-8.71-9.47-13-14.27a3226 3226 0 0 0-57.49-64c20.8-23.49 47.43-53.63 69.28-75.7"/><path fill="#1f1f1f" d="M1303 747.596c5.31 4.173 20.45 20.864 25.43 26.201a4358 4358 0 0 1 49.32 53.407c-16.81 23.043-44.54 54.465-63.43 77.238l-11.33 13.6.06-27.444c16.45-18.464 33.75-39.958 49.73-59.058-16.69-19.044-33.45-39.666-49.74-59.178z"/><path fill="#1f1f1f" d="M672.906 1208.66c3.165 2.37 19.95 21.28 23.525 25.32 15.153 17.1 30.869 33.93 45.916 51.08-11.335 14.96-41.478 45.83-55.11 60.66l-14.333 15.29.004-31q20.962-24.15 42.585-47.7l-42.744-42.51z"/><path fill="#1f1f1f" d="M1022.73 1163.58c2.24 1.5 9.14 7.72 11.08 9.73a46.26 46.26 0 0 1 11.85 20.94c2.76 10.81 1.56 59.47 1.51 73.46-6.35-6.24-13.23-13.8-19.45-20.3l-1.31-.91c-3.33.55-18.22 16.89-22.11 20.89.82-44.77-9.196-66.04 18.43-103.81"/><path fill="#1f1f1f" d="M672.907 1049.63c5.316 4.39 17.792 18.52 23.191 24.33l46.482 50.11c-17.991 20.41-37.603 41.18-55.948 61.56l-13.831 14.94.046-29.77a3150 3150 0 0 0 43.247-46.19 4983 4983 0 0 1-43.34-43.53z"/><path fill="#1f1f1f" d="M1303 1131.88c4.96 4.16 19.62 20.92 24.69 26.8 12.62 14.65 28.35 30.77 39.94 45.87-16.02 19.15-33.96 39.02-50.41 58.01-4.68 5.52-9.04 10.95-14.37 15.86l-.04-33.61c11.6-13.71 24.79-27.82 36.92-41.18a4638 4638 0 0 0-36.84-40z"/><path fill="#1f1f1f" d="M746.702 553.872c1.909 2.196.908 27.191.855 31.78l-33.573 37.378c11.149 11.601 22.936 25.64 33.809 37.832l.001 33.618-13.561-15.18-50.371-54.837c19.987-23.669 42.248-47.085 62.84-70.591"/><path fill="#1f1f1f" d="M1303.04 555.649c5.22 4.239 17.68 18.504 22.45 23.788a2094 2094 0 0 0 40.87 44.791c-15.75 15.697-33.44 36.104-48.66 52.877l-14.55 16.42-.1-33.86a4285 4285 0 0 0 32.43-36.775 4808 4808 0 0 1-32.45-36.25z"/><path fill="#1f1f1f" d="m712.575 484.95 35.413-.138-.147 56.304c-6.394 7.937-17.085 19.027-24.163 26.821l-48.018 53.007c-.819.89-.205.313-2.155 1.319-1.721-3.77-.93-23.159-.835-28.802 22.852-25.357 46.335-49.971 69.323-75.216-9.204-10.998-19.829-22.553-29.418-33.295"/><path fill="#1f1f1f" d="m1302.87 484.908 33.69-.051-28.92 33.313c20.94 24.158 47.58 51.331 69.74 74.974-1.53 9.19.37 21.3-.9 30.698l-48.3-53.084c-7.04-7.669-17.67-19.843-25.15-26.474z"/><path fill="#1f1f1f" d="m1344.73 484.964 30.72-.082c-9.15 10.541-19.91 22.218-29.33 32.667a889 889 0 0 1 31.71 35.055l-.04 33.583c-20.03-22.058-42.29-47.054-63.14-67.936 9.94-10.96 19.9-22.666 30.08-33.287"/><path fill="#1f1f1f" d="M1377.63 665.77c.86 9.061.3 24.293.23 33.801-5.82 7.128-15.89 17.091-22.57 24.041 8.09 7.993 15.07 15.676 22.68 24.09l.04 31.759-15.37-15.137-39.64-39.6a4799 4799 0 0 0 54.63-58.954"/><path fill="#1f1f1f" d="M672.278 666.541c6.989 4.231 46.586 49.639 54.334 58.072-12.059 12.63-25.258 25.465-37.629 37.887-5.297 5.482-11.083 11.029-16.524 16.414l.246-30.842c5.775-7.726 14.941-17.162 21.636-24.449-5.846-6.87-15.455-16.445-21.794-23.258z"/><path fill="#1f1f1f" d="m674.637 484.804 30.039.261c9.874 10.713 20.577 22.41 30.174 33.322-16.046 16.822-31.763 34.451-47.741 50.999a712 712 0 0 1-14.563 15.586l-.027-32.745a1963 1963 0 0 1 31.639-34.824z"/><path fill="#1f1f1f" d="M747.402 781.734c1.018 3.893.664 23.145.681 28.387l-.033 72.846c-6.69-8.835-13.363-15.896-20.048-24.326a1051 1051 0 0 1-22.535-27.053c11.303-13.937 30.136-36.987 41.935-49.854"/><path fill="#1f1f1f" d="M1303.1 781.653c7.88 6.303 34.95 40.697 42.36 50.179-7.46 8.587-14.39 17.235-21.66 25.712a515 515 0 0 1-20.79 24.204c-.21-31.969-.72-68.402.09-100.095"/><path fill="#1f1f1f" d="M1376.6 883.79c2.2 2.878 1.22 30.747 1.19 36.289-8.04 8.38-15.98 16.854-23.81 25.421q11.79 12.509 23.85 24.756l.07 20.736-11.27-11.651c-12.45-12.78-25.32-25.488-37.91-38.147a3299 3299 0 0 1 47.88-57.404"/><path fill="#1f1f1f" d="M747.049 1329.88c1.974 2.04 1.423 84.26 1.645 94.05a748 748 0 0 0-17.954-20.52l-25.373-28.18a3370 3370 0 0 0 41.682-45.35"/><path fill="#1f1f1f" d="M672.642 884.387c7.621 5.577 40.299 46.984 48.772 56.992-12.252 11.613-24.829 24.806-36.753 36.89l-12.111 12.64.222-20.157a715 715 0 0 1 24.297-25.031c-7.976-8.333-16.493-16.735-24.618-24.974z"/><path fill="#1f1f1f" d="M1302.92 1328.82c3.34 3 11.46 12.53 14.73 16.13 9.13 10.11 18.39 20.11 27.77 30l-21.97 24.55c-6.88 7.88-13.97 15.17-20.66 23.31.24-28.83-1.26-66.33.13-93.99"/><path fill="#1f1f1f" d="M672.718 1090.29c4.683 2.81 30.542 28.88 36.016 34.54-5.649 6.41-11.512 12.42-17.465 18.53l-18.556 19.38c.128-23.96-.439-48.64.005-72.45"/><path fill="#1f1f1f" d="M1377.42 1247.76c2.17 8.63.59 61.71.58 74.06-5.78-6.16-11.04-12.05-16.72-18.21a489 489 0 0 0-18.83-20.36c11.4-11.63 23.3-24.22 34.97-35.49"/><path fill="#1f1f1f" d="M1376.56 1089.87c2.32 2.49 1.35 64.31 1.32 73.56-4.83-5.6-9.48-10.46-14.49-15.86l-1.18-1.29c-6.59-7.06-13.24-14.06-19.96-21 11.93-11.78 22.7-23.56 34.31-35.41"/><path fill="#1f1f1f" d="M672.825 1248.36c3.934 2.53 29.821 28.93 35.141 34.1-6.732 7.2-12.802 14.13-19.275 21.52-5.407 5.77-10.493 11.97-16.144 17.92z"/><path fill="#1f1f1f" d="M747.606 1001.76c.705 4.12.383 19.62.384 24.42l.036 46.5a301 301 0 0 1-15.359-16.27 696 696 0 0 0-17.939-18.27c10.533-11.91 22.004-24.82 32.878-36.38"/><path fill="#1f1f1f" d="M1302.79 1002.63c7.68 7.56 24.81 27.24 32.44 35.91-5.41 5.27-10.95 10.55-15.98 16.18-5.44 6.12-10.9 12.3-16.53 18.23 0-22.95-.45-47.45.07-70.32"/><path fill="#1f1f1f" d="M1302.95 1171.82c4.85 4.35 23.83 25.64 29.75 31.94-2.98 3.15-6.08 6.3-8.96 9.54a364 364 0 0 1-7.08 7.65c-4.63 4.82-9.35 10.16-14.01 15.1.06-20.09-.56-44.57.3-64.23"/><path fill="#1f1f1f" d="M747.704 1171.73c1.071 4.53.412 55.73.417 64.35q-7.129-8.13-14.424-16.11c-5.292-5.87-9.756-10.73-15.277-16.43 10.315-10.74 19.321-20.99 29.284-31.81"/><path fill="#1f1f1f" d="M746.631 594.805c2.117 2.132 1.229 51.453 1.237 57.887-4.312-4.614-7.981-9.084-12.157-13.772-4.756-5.223-9.72-10.567-14.3-15.903 7.357-8.878 17.308-19.729 25.22-28.212"/><path fill="#1f1f1f" d="M1303.15 595.454c3.47 2.258 21.77 22.978 25.58 27.192l-13.76 15.684c-4.03 4.485-7.85 8.691-11.84 13.248z"/><path fill="#1f1f1f" d="M1376.79 491.734c.6 1.937.74 2.61.76 4.743l.27 47.943c-4.03-4.483-7.8-8.809-11.92-13.226-4.4-4.659-8.61-9.351-13.08-14.04 7.54-8.193 16.11-17.879 23.97-25.42"/><path fill="#1f1f1f" d="M672.477 491.373c5.667 4.778 19.484 20.177 24.433 26.158a1586 1586 0 0 0-13.98 14.784c-3.895 4.292-6.773 7.337-10.566 11.866.068-17.346-.331-35.627.113-52.808"/><path fill="#1f1f1f" d="M1376.68 1448.8c2.2 2.21 1.26 44.25 1.27 51.09-3.43-3.75-7-7.51-10.48-11.22l-13.21-14.96c7.3-8.46 14.77-16.76 22.42-24.91"/><path fill="#1f1f1f" d="M672.681 1448.46c3.311 2.75 20.199 22.03 23.762 26.42a485 485 0 0 1-12.745 13.23c-3.783 3.87-7.269 7.64-10.981 11.54.074-17.02-.221-34.22-.036-51.19"/><path fill="#1f1f1f" d="M672.708 929.422c4.099 3.024 13.098 12.535 16.961 16.488l-8.639 8.68-8.383 8.269a2094 2094 0 0 1 .061-33.437"/><path fill="#1f1f1f" d="M1377.6 928.802c.61 8.958.14 24.128.17 33.59l-6.95-6.644-9.89-10.219a1574 1574 0 0 1 16.67-16.727"/><path fill="#1f1f1f" d="M1376.91 708.929c1.85 1.957 1.04 26.098 1.06 30.521a491 491 0 0 0-7.51-7.77l-7.65-7.834c4.66-5.008 9.53-9.781 14.1-14.917"/><path fill="#1f1f1f" d="M672.518 709.358c4.193 3.404 10.714 10.531 14.741 14.684a364 364 0 0 1-5.93 6.242l-8.777 9.035q.103-14.98-.034-29.961"/><path fill="#e5d7cb" d="M1458.75 215.67c1.73-5.192 3.9-10.815 5.78-16 4.01 4.623 7.95 9.312 11.8 14.065 12.05.456 27.46 2.852 39.14 6.519 13.58 4.262 25.43 10.366 39.85 9.848 26.37-.946 47.25-13.451 68.69-26.813 1.34.656 2.04 1.169 3.29 2.011-19.88 22.496-40.83 51.44-40.33 83.645.2 12.924 5.43 26.603 3.1 40.098-1.15 8.913-1.82 9.056 6.28 11.535l.57 1.422c-2.32 4.489-10.28 9.286-11.03 11.399-10.88 30.793-32.95 53.992-64.41 64.703-32.33 11.011-65.98 1.141-96.37-12.801-.71 23.059-3.39 45.439 13.69 63.877 14.73 15.909 33.73 20.268 53.96 24.063-5.64 14.167-5.84 22.155-1.83 37.051-25.82-3.42-42.14-9.816-63.96-24.669.12 31.897.4 61.626 4.61 93.402 4.91 37.012 17.16 58.6 53.37 71.544-67.99 32.526-62.18 108.715-48.26 171.813 9.04 40.979 22.32 70.628 46.52 104.856l-55.38.079c-2.3-5.391-11.22-25.508-11.68-29.659-1.97-18.118-.61-40.855-.53-59.468l-.15-108.077c.24-30.037 5.23-41.982-11.85-68.617l19.92-15.341c-1.65-2.981-8.1-14.197-8.16-16.525-1.12-46.208-2.29-101.426 8.02-146.178-8.79-8.193-25.6-25.679-26.69-38.157l1.79-1.325c2.34.397 4.08 1.045 5.17 3.397 14.7 31.771 44.04 48.326 78.84 56.829l1.73.418c-1.09-12.534-1.23-14.987 2.03-27.199-24.41-6.475-44.59-9.377-59.01-34.174a62.8 62.8 0 0 1-7.69-21.883c-1.6-10.491-.39-28.459-.09-39.902.31-14.984.47-29.971.46-44.957 13.12-7.815 24.31-17.254 36.99-25.784l-3.77-14.924c17.1 5.907 38.85 13.746 55.68 20.81-7.98 12.499-18.31 27.774-25.45 40.466 1.53-.043 2.24.034 3.82.156 3.03-.162 6.06-.407 9.07-.733 7.34-.836 14.69-3.157 21.38-6.247 22.8-10.522 35.6-33.805 32.43-58.717-5.18-40.649-48.67-67.361-87.68-61.589a79.29 79.29 0 0 0-52.6 32.139c-11.41 15.811-15.53 31.146-12.37 50.379-35.1-16.737-54.13-18.562-89.52-2.123 1.69-5.586 2.86-11.638 4.11-17.369-17.57 3.177-80.54 1.128-100.82.097-6.57-.334-15.17-4.323-21.07-7.577q-1.335 2.123-2.76 4.187c-10.04 14.64-24.13 25.209-40.6 12.751-1.35 5.416-1.66 9.492-2.22 14.986l-234.13.265c-1.184-5.316-2.045-9.203-2.693-14.679-17.188 16.317-38.273-2.294-47.466-17.985-22.836 15.393-51.065 10.112-77.304 10.936-10.01.314-20.999-.383-31.049-.992-1.217.009-1.712.008-2.852-.067 1.282-3.111 1.005-4.628 2.688-7.827l1.59-.088c4.365-1.722 12.297-2.109 17.635-4.365 26.479-11.187 21.348-41.041 32.268-62.214 7.229-14.014 16.879-19.832 30.789-24.308 7.596-.957 6.517-1.108 14.641-.856l1.504.227c2.56.342 2.313.589 2.912 2.942 12.319 1.45 21.512 12.035 21.22 24.436s-9.972 22.543-22.345 23.412c-12.374.868-23.377-7.822-25.398-20.06-.468-2.418-.229-6.257-.739-7.834-.426.155-2.13 4.21-2.326 4.71-6.901 17.538-1.603 35.88 8.707 50.817 3.195 4.625 8.055 8.612 11.977 12.873 7.77.796 11.849-5.272 18.006-10.169 9.602 13.465 25.604 30.961 43.797 22.955l.661-1.114 1.616-.147c2.187 3.223 3.275 8.938 4.299 12.9l228.792-.007c1.28-4.342 3.28-9.464 4.83-13.799 3.13 1.815 6.77 3.459 10.05 5.038 16.51-4.547 22.92-13.194 33.27-25.831 3.86 3.319 7.63 6.742 11.3 10.264 15.46-10.709 22.87-15.258 28.61-35.01 2.66-9.146 4.16-24.596-4-31.512l-1.39-1.254a24.1 24.1 0 0 0-19.15-20.213c1.13-1.481 1.39-1.524 2.85-2.735-.59-.185-1.17-.292-1.66-.622l-.02-.091c1.49-1.039 5.88-.077 7.62.349 24.17 7.835 37.39 25.28 41.79 49.661 5.63 31.204 17.03 35.419 45.53 41.789-3.46-8.055-7.99-16.226-12.1-24.018 23.86.853 47.72 1.853 71.56 3 13.02-31.726 41.21-51.342 72.28-63.435 7.99-3.108 17.48-6.251 26.02-7.079"/><path fill="#1f1f1f" d="M1461.95 219.696c1.38-4.551 2.57-9.472 3.77-14.099 2.19 4.19 5.66 9.306 8.26 13.386 45.5.382 88.14 24.021 104.93 67.7a97.2 97.2 0 0 1-2.69 74.98 94.79 94.79 0 0 1-52.95 49.539c-33.9 12.573-66.5 2.232-97.9-12.434-.17-12.495-.01-24.992.49-37.478a771 771 0 0 1 38.48-24.556l-4.43-13.815c14.04 5.256 28.35 10.284 42.46 15.364-4.84 7.281-22.72 33.442-25.15 41.063 2.58-.313 6.38.468 6.17-2.279 1.53-.043 2.24.034 3.82.156 2.6 1.534 2.51 1.303 5.71 1.635q1.785.198 3.57.46c57.12-5.697 78.71-63.513 42.84-105.591a88.16 88.16 0 0 0-59.14-30.103 84.92 84.92 0 0 0-62.71 21.266c-18.04 15.848-26.18 34.226-27.75 57.805-28.2-11.957-47.28-12.266-75.62-1.125.8-4.13 2.26-9.335 1.37-13.262-3.24-1.914-1.47-1.499-5.63-.686-5.25-2.207-9.82-14.057-12.5-19.688a5138 5138 0 0 0 67.77 3.217c12.75-40.046 58.96-62.382 96.83-71.455"/><path fill="#b6aca2" d="M1477.22 379.346c2.58-.313 6.38.468 6.17-2.279 1.53-.043 2.24.034 3.82.156 2.6 1.534 2.51 1.303 5.71 1.635q1.785.198 3.57.46c-6.12.67-13.17 1.052-19.27.028"/><path fill="#f25b2d" d="M853.093 218.396c12.319 1.45 21.512 12.035 21.22 24.436s-9.972 22.543-22.345 23.412c-12.374.868-23.377-7.822-25.398-20.06a24.036 24.036 0 0 1 26.523-27.788"/><path fill="#1f1f1f" d="M849.141 230.681c6.473-.701 12.288 3.978 12.99 10.45.703 6.472-3.974 12.289-10.446 12.993-6.475.704-12.295-3.975-12.997-10.45-.703-6.475 3.978-12.293 10.453-12.993"/><path fill="#1f1f1f" d="m848.677 215.227 1.504.227c2.56.342 2.313.589 2.912 2.942a24.037 24.037 0 0 0-26.523 27.788c-.468-2.418-.229-6.257-.739-7.834-.426.155-2.13 4.21-2.326 4.71-6.901 17.538-1.603 35.88 8.707 50.817 3.195 4.625 8.055 8.612 11.977 12.873l-1.333-.355c-27.051-6.973-41.544-36.121-30.995-61.921a47.4 47.4 0 0 1 25.646-25.64l-3.471-2.751c7.596-.957 6.517-1.108 14.641-.856"/><path fill="#d7ccba" d="M834.036 216.083c7.596-.957 6.517-1.108 14.641-.856-.283 2.009-8.045 2.466-11.17 3.607z"/><path fill="#1f1f1f" d="M1207.73 216.116c-.59-.185-1.17-.292-1.66-.622l-.02-.091c1.49-1.039 5.88-.077 7.62.349l-.54 1.952c41.46 20.152 37.26 75.602-6.61 89.363-2.74.858-3.41 1.305-5.71-.227 15.46-10.709 22.87-15.258 28.61-35.01 2.66-9.146 4.16-24.596-4-31.512l-1.39-1.254a24.1 24.1 0 0 0-19.15-20.213c1.13-1.481 1.39-1.524 2.85-2.735"/><path fill="#877d75" d="M1207.73 216.116c-.59-.185-1.17-.292-1.66-.622l-.02-.091c1.49-1.039 5.88-.077 7.62.349l-.54 1.952c-2.22-.563-3.3-.757-5.4-1.588"/><path fill="#b6aca2" d="M749.066 314.885c1.282-3.111 1.005-4.628 2.688-7.827l1.59-.088-1.583 4.006c-.748 1.929-.663 2.28.157 3.976-1.217.009-1.712.008-2.852-.067"/><path fill="#e5d7cb" d="M741.245 1598.73c20.624-18.85 36.739-42.25 60.12-59.59 17.446-12.94 32.822-21.69 51.35-32.45.972-.56 9.159-25.74 11.601-28.96 11.827-21.86 29.639-40.52 47.482-57.42a231 231 0 0 1 31.857-25.23c7.128-4.73 18.373-11.39 26.489-15.51-.05.03 2.901-7.98 3.147-8.85 5.192-18.16 11.206-25.62 25.413-37.74 7.046-6 19.736-13.18 29.656-11.25 20.38 3.95 38.8 23 47.23 41.36 1.35 2.93 2.61 14.58 4.17 15.57 8.91 5.73 18.43 9.99 27.65 16.36 19.58 13.53 33.87 26.74 49.86 43.98 12.5 13.48 22.48 28.17 31.48 44.12 2.48 4.4 7.65 22.88 9.97 24.61 9.43 7.03 24.61 12.62 34.82 19.89 26.65 18.99 49.93 43.28 71.47 67.77 2.16 2.45 3.52 5.88 2.42 9.15-4.85 14.44-9.84 29.21-14.74 43.65-.69 2.02-1.95 2.95-3.43 4l-1.91 3.83.49.83c14.78-10.61 31.48-25.65 51.17-22.19 8.78 1.54 28.46 25.33 35.62 32.63 25.37 25.83 48.85 53.07 72.19 80.64-3.95-9.83-19.57-47.29-4.32-55.58 4.46-2.42 18.83.62 24.83 1.55l.72.34c1.33 5.11.76 11.21 1.24 16.57 4.23 47.02 31.66 108.21 62.35 143.84l-2.21.97c-53.64-52.03-103.7-111.99-161.14-159.76-34.94-29.06-71.19-28.62-110.27-7.16 35.2-50.21 8.09-117.2-45.83-141.54-19.54-8.82-38.29-5.11-57.56 2.87 5.6-19.56 5.12-32.05-.26-51.73-12.41-45.41-63.2-100.66-114.4-77.3 7.14-23.98 11.96-69.88-3.37-91.37-7.27.76-15.87 1.64-23.19 1.32-11.92 26.66-11.83 63.28-1.89 90.56-16.789-7.42-30.865-9.35-48.045-2.11-48.874 20.61-83.363 78.77-68.782 130.64-21.246-8.24-38.292-12.12-59.742-1.86-53.161 25.43-76.907 89.55-43.431 139.59-40.198-22.37-75.244-19.46-111.797 8.92-26.322 20.43-48.324 44.24-71.401 68.16l-81.619 84.12-2.053-1.43c31.758-42.55 56.177-99.86 55.46-153.37l2.653-.25c5.358-.76 21.3-3.35 25.248-1.48 14.231 6.74-2.37 46.65-5.554 55.73 26.982-34.86 59.639-66.4 89.856-98.49 5.035-5.35 10.306-10.68 15.811-15.53 26.429-1.4 36.286 9.39 55.025 23.3l.549-1-2.288-5.52-1.687-.62c-5.953-10.36-15.372-39.64-18.478-51.58"/><path fill="#e5d7cb" d="m1036.6 1329.63-.37-2.56c5.37-.14 16.39 9.18 20.53 13.09 12.56 11.89 17.59 24.06 20.8 40.65 47.62 22.74 105.22 75.49 117.93 128.37 49.48 24.91 75.78 49.27 111.1 91.55-5.67 17.19-11.45 34.34-17.33 51.46l-1.91 3.83.49.83c14.78-10.61 31.48-25.65 51.17-22.19 8.78 1.54 28.46 25.33 35.62 32.63 25.37 25.83 48.85 53.07 72.19 80.64-3.95-9.83-19.57-47.29-4.32-55.58 4.46-2.42 18.83.62 24.83 1.55l.72.34c1.33 5.11.76 11.21 1.24 16.57 4.23 47.02 31.66 108.21 62.35 143.84l-2.21.97c-53.64-52.03-103.7-111.99-161.14-159.76-34.94-29.06-71.19-28.62-110.27-7.16 35.2-50.21 8.09-117.2-45.83-141.54-19.54-8.82-38.29-5.11-57.56 2.87 5.6-19.56 5.12-32.05-.26-51.73-12.41-45.41-63.2-100.66-114.4-77.3 7.14-23.98 11.96-69.88-3.37-91.37"/><path fill="#1f1f1f" d="M741.245 1598.73c20.624-18.85 36.739-42.25 60.12-59.59 17.446-12.94 32.822-21.69 51.35-32.45.972-.56 9.159-25.74 11.601-28.96 11.827-21.86 29.639-40.52 47.482-57.42a231 231 0 0 1 31.857-25.23c7.128-4.73 18.373-11.39 26.489-15.51-.05.03 2.901-7.98 3.147-8.85 5.192-18.16 11.206-25.62 25.413-37.74 7.046-6 19.736-13.18 29.656-11.25 20.38 3.95 38.8 23 47.23 41.36 1.35 2.93 2.61 14.58 4.17 15.57 8.91 5.73 18.43 9.99 27.65 16.36 19.58 13.53 33.87 26.74 49.86 43.98 12.5 13.48 22.48 28.17 31.48 44.12 2.48 4.4 7.65 22.88 9.97 24.61 9.43 7.03 24.61 12.62 34.82 19.89 26.65 18.99 49.93 43.28 71.47 67.77 2.16 2.45 3.52 5.88 2.42 9.15-4.85 14.44-9.84 29.21-14.74 43.65-.69 2.02-1.95 2.95-3.43 4 5.88-17.12 11.66-34.27 17.33-51.46-35.32-42.28-61.62-66.64-111.1-91.55-12.71-52.88-70.31-105.63-117.93-128.37-3.21-16.59-8.24-28.76-20.8-40.65-4.14-3.91-15.16-13.23-20.53-13.09l.37 2.56c-7.27.76-15.87 1.64-23.19 1.32l1.26-3.14-.76-1.29c-8.22 1.35-23.375 15.98-28.41 23.02-7.547 10.55-9.853 19.22-13.085 31.42-46.655 22.67-105.555 75.74-117.188 128.29-50.547 23.09-75.702 50.41-111.847 91.05 5.901 17.45 12.016 33.54 18.03 50.63l-1.687-.62c-5.953-10.36-15.372-39.64-18.478-51.58"/><path fill="#e5d7cb" d="m855.51 356.5 426.25.054c-19.27 32.515-18.89 60.132.33 92.685l-86.34.107-424.688-.009c20.595-34.969 19.797-57.674.052-92.709 27.968.265 56.394-.057 84.396-.128"/><path fill="#1f1f1f" d="m929.284 363.894 27.652-.095 67.704 69.436c22.85-22.689 45.21-46.356 67.99-69.286l28.73-.077c26.11 25.776 52 51.77 77.68 77.98-11.03-.455-22.91-.248-34-.256-14.97-14.563-31.8-32.999-46.67-48.306l-12.52-12.877c-20.42 19.787-40.91 41.205-60.91 61.551l-40.27-.105c-18.923-20.187-41.23-41.513-61.219-60.783-19.594 18.849-39.172 40.873-58.498 60.566l-33.052.186c19.608-21.935 55.709-57.084 77.383-77.934"/><path fill="#1f1f1f" d="m1129.78 363.819 32.55.031a3458 3458 0 0 1 42.52 40.69c10.55-12.687 25.03-28.832 36.33-40.549l28.36-.066c-4.99 7.616-8.29 10.632-14.68 17.289-17.7 17.849-34.97 36.963-53.48 53.904-6.98-8.255-18.71-19.295-26.5-26.948z"/><path fill="#1f1f1f" d="m783.339 363.65 26.064.093c12.059 12.453 24.962 27.575 36.507 40.589a4129 4129 0 0 0 42.954-40.423l31.695-.172-14.256 14.159-57.325 57.109c-19.088-17.972-43.106-42.198-61.139-61.623-1.001-1.079-3.793-7.966-4.5-9.732"/><path fill="#1f1f1f" d="M964.393 363.839c11.338-.338 24.038-.086 35.483-.112l25.274 25.818c8.41-8.637 16.91-17.183 25.51-25.634l33.77-.046-18.72 19.273-40.96 42.03c-18.97-19.904-40.487-42.488-60.357-61.329"/><path fill="#1f1f1f" d="M1105.88 388.781c3.75 3.195 11.25 11.711 15.15 15.752l36.01 37.353-38.72-.069c-2.22-2.268-21.56-23.287-22.23-23.633-1.12.176-3.22 2.09-4.16 2.767 6.37 7.284 12.19 13.928 18.93 20.946l-57.02.093c16.12-16.73 35.48-37.431 52.04-53.209"/><path fill="#1f1f1f" d="M943.071 389.556c3.887 1.508 46.228 46.343 52.102 52.435l-56.36.048c6.514-6.766 11.455-12.283 17.531-19.465-1.634-11.099-21.018 15.522-24.596 19.307a2695 2695 0 0 0-39.296-.029c16.916-16.82 33.879-35.105 50.619-52.296"/><path fill="#1f1f1f" d="M1262.9 383.918c.62.674 0 26.884.21 31.382-8.02 8.999-16.92 17.853-25.36 26.536l-29.35.081c.02.008-1.01-.555-.88-.7 9.68-11.002 47.86-48.707 55.38-57.299"/><path fill="#1f1f1f" d="M790.1 387.758c15.409 13.161 30.635 31.957 45.885 45.741 2.498 2.257 6.484 5.895 8.455 8.495q-15.97.132-31.942.001a1655 1655 0 0 0-22.858-23.567c1.085-11.758 2.022-18.344.46-30.67"/><path fill="#1f1f1f" d="m817.398 363.896 63.359-.185c-4.793 4.874-10.629 10.227-15.687 14.969a801 801 0 0 1-19.102 18.117c-9.421-11.5-18.979-21.734-28.57-32.901"/><path fill="#1f1f1f" d="M1170.46 364.02c20.16-.661 43.25-.104 63.67-.163-4.98 5.489-10.35 10.837-15.15 16.393-5.17 5.497-9.38 10.333-14.28 16.036-11.99-10.364-22.37-22.087-34.24-32.266"/><path fill="#1f1f1f" d="m1007.72 363.705 35.01.078c-3.11 3.243-6.38 6.393-9.56 9.575l-8.03 8.079c-6.26-6.635-10.6-11.501-17.42-17.732"/><path fill="#1f1f1f" d="M1263.63 423.854c1.77 1.951 4.81 14.464 5.92 17.999l-17.8-.023c-.97.011-3.98.392-4.75-.531.26-1.133 14.64-15.402 16.63-17.445"/><path fill="#1f1f1f" d="M788.302 426.418c2.263 1.546 14.183 13.564 14.574 14.915-.308.483-.949.39-1.742.567l-17.723-.062c2.186-5.906 3.129-9.572 4.891-15.42"/><path fill="#e5d7cb" d="M422.72 197.743c28.14 18.44 55.548 33.847 90.467 34.504 22.04-11.761 37.792-17.016 63.315-17.307l11.975-14.05c1.843 5.12 3.616 10.381 5.822 15.344 37.637 10.69 81.542 31.407 96.336 70.494 23.12-.969 48.374-2.541 71.326-2.867-3.303 7.803-6.979 15.512-10.207 23.197-1.683 3.199-1.406 4.716-2.688 7.827-4.273-.982-5.185-2.025-8.311-.519-1.13 2.972 1.3 11.421 1.926 15.228-36.903-14.243-57.312-9.762-92.537 3.754 15.298-65.297-74.211-102.842-122.716-64.455a64.3 64.3 0 0 0-24.337 44.034c-4.145 40.845 27.68 63.063 64.583 65.268-8.12-14.153-17.471-28.387-26.276-42.195 18.308-5.741 38.405-13.414 56.617-19.93-1.007 5.011-2.431 10.332-3.664 15.325 12.636 8.574 25.883 18.491 38.347 27.469q.516 21.357 1.427 42.699c1.161 24.958 4.929 45.503-11.136 66.855-15.605 20.741-34.46 28.097-58.977 31.785 2.904 10.783 3.225 14.37 2.18 25.482 29.412-4.221 54.651-17.605 74.729-40.34 4.502-5.098 8.341-15.745 13.431-21.264l1.617.14c5.72 11.509-20.028 35.27-28.417 41.863 8.863 35.708 7.524 105.384 7.654 143.862-3.161 5.193-6.298 10.893-9.342 16.199l19.762 15.12c-16.185 27.026-11.542 38.827-11.513 68.586l.216 112.487c.035 17.141.708 38.168-.676 55.029-.291 3.551-9.193 22.63-11.547 29.781q-27.744-.159-55.487.107c41.633-54.303 66.258-149.358 50.222-217.033-6.221-26.257-27.959-47.198-51.103-59.795 35.628-13.583 47.438-33.122 52.319-70.717 3.944-30.384 4.879-59.495 4.823-90.13-20.377 14.237-39.708 20.844-64.316 21.629 4.636-15.29 2.616-22.813-2.944-37.032 23.769.957 43.237-7.379 59.07-25.285 18.013-20.372 15.01-38.536 13.261-63.255-57.827 31.793-131.43 25.51-160.238-41.116-4.777-11.048-8.912-15.064-17.58-23.197l10.541-3.427c-.313-4.068-1.109-16.432-.211-19.818 13.58-51.227-4.315-79.722-39.765-118.709z"/><path fill="#1f1f1f" d="M587.582 207.757c1.916 2.31 2.892 9.705 3.557 13.075 33.646 10.075 86.522 32.324 94.368 71.284 21.895-.362 46.68-2.031 68.743-3.072-3.516 7.089-5.922 13.302-8.815 20.685l-11.077-3.741c.459 5.917 1.474 10.387 2.666 16.147-28.197-10.668-51.109-7.48-78.621 2.081-.075-4.818-.067-9.907-.932-14.592-12.311-66.668-112.472-84.577-149.035-28.284-10.096 15.1-13.978 34.346-10.078 52.136 4.031 18.387 15.707 29.39 30.919 38.627 16.274 7.858 28.51 8.372 46.15 8.037l-26.467-41.667a4440 4440 0 0 0 42.588-15.73l-3.206 13.11a3037 3037 0 0 0 38.647 27.359q.4 18.057.996 36.107c-67.77 37.867-154.785 20.519-161.409-70.178-2.027-27.761 10.706-54.786 29.466-74.858 21.989-23.528 52.033-33.787 84.163-34.417 2.301-3.978 4.966-8.158 7.377-12.109"/><path fill="#f25b2d" d="M1428.22 960.509q26.385.32 52.77.104l.78 3.644c-20.01 10.738-34.83 28.221-40.52 50.273-15.9 61.6 1.24 137.97 55.35 175.04-23.82 10.25-39.99 26.3-48.89 50.76-20.38 56.06-10.01 142.44 51.74 166.72 2.01.79 4.04 1.55 6.07 2.28l11.74 2.95c-4.03.74-8.53 1.68-12.56 2.12-54.74 12.34-67.04 60.17-56.13 110.07 11.43 52.35 40.96 76.45 90.08 92.59-35.68 9.44-58 24.24-67.57 62.81-1.08 4.34-1.5 10.38-3.03 14.37l-.72-.34c-2.61-2.45-6.15-3.81-9.43-5.35-14.21.87-33.9-26.19-26.03-42.49 10.99-22.75 38.48-28.52 61.67-30.52 2.75-.24 2.39.58 5.15-.91.51.37-12.41-4.5-13.35-4.81l-28.95-9.19c-6.06-1.98-45.27-49.44-45.38-54.25-.79-35.41-4.79-75.79 3.22-110.27 4.64-19.97 41.85-20.03 52.63-27.24-1.98-1.04-11.62-3.24-13.97-3.32-8.73-.27-23.46-10.87-29.95-16.89l-1.46-1.38c-3.78-3.67-11.18-17.3-11.21-22.28-.23-36.89-.68-73.74-.18-110.65.38-28.59 15.18-46 40.22-57.79 6.38-3.01 12.68-6.4 19.92-6.06l1.72-.78c-2.88-2.06-20.33-6.35-25.14-8.17-8.11-3.08-16.76-6.42-24.9-9.64-2.46-5.14-5.05-10.57-6.79-16-2.03-6.28-3.02-155.04-1.34-165.612 1.5-9.431 10.07-21.233 14.44-29.789"/><path fill="#372924" d="M1457.9 1688.55c-14.21.87-33.9-26.19-26.03-42.49 10.99-22.75 38.48-28.52 61.67-30.52 2.75-.24 2.39.58 5.15-.91.51.37-12.41-4.5-13.35-4.81l-28.95-9.19c-6.06-1.98-45.27-49.44-45.38-54.25-.79-35.41-4.79-75.79 3.22-110.27 4.64-19.97 41.85-20.03 52.63-27.24-1.98-1.04-11.62-3.24-13.97-3.32-8.73-.27-23.46-10.87-29.95-16.89l-1.46-1.38c-3.78-3.67-11.18-17.3-11.21-22.28-.23-36.89-.68-73.74-.18-110.65.38-28.59 15.18-46 40.22-57.79 6.38-3.01 12.68-6.4 19.92-6.06-22.24 10.33-44.75 18.3-54.06 43.38-4.67 12.56-4.4 110.33-2.78 126.79.58 5.83 2.1 12.52 4.73 17.76 6.78 13.5 23.76 21.07 37.56 25.1 7.94 2.32 16.62 4.23 24.88 4.81l-.36 2.67c-21.61 2.16-42.79 7.84-61.47 19.19-9.83 34.26-5.81 80.73-5.8 117.11 9.92 11.03 31.42 37.26 40.46 49.29 14.38 5.26 40.15 14.05 54.96 17.95-3.92 2.43-3.63 1.59-8.47 2.55-11.66 1.48-23.42 2.39-34.48 6.51-44.15 16.41-42.36 40.04-7.5 64.94"/><path fill="#4f0903" d="M1508.35 1614.55c3.36.53 4.94 1.43 8.13 2.5l-16.6.05c4.84-.96 4.55-.12 8.47-2.55"/><path fill="#8e200a" d="M1480.56 1408.34c1.29.21 6.33.65 7.07 1.24v.1l-.14-.02-.31.51.27-.23c-2.5 1.08-4.56 1.03-7.25 1.07z"/><path fill="#f25b2d" d="M559.68 960.735c18.294-.912 43.79-.062 62.641-.003 4.512 9.197 8.627 17.937 14.028 26.677-1.018 54.961 1.385 110.221-.742 165.101-.168 4.33-6.074 15.19-8.25 19.37l-2.392 1.14c-10.742 5.26-20.321 8.21-31.683 11.9-4.962 1.61-12.137 2.1-16.287 4.6l1.716 1.24c7.041-2.25 20.357 5.87 27.157 8.9 6.484 2.89 13.969 10.13 19.203 15.07 15.262 14.51 15.133 37.03 15.019 56.51-.092 15.64.264 31.47.05 47.09-.605 44.33 7.132 64.32-38.263 87.11l-1.717-.17c-3.621-.33-20.287 3.71-21.846 5.52 13.771 1.76 46.361 7.49 55.07 19.09 3.923 5.22 4.787 19.12 5.281 25.7 1.298 17.33.465 35.25.465 52.63 0 11.87 1.534 26.59-.907 38.17-1.182 5.6-36.371 49.31-42.015 52.99-7.428 4.83-44.143 15.59-52.972 14.73l-1.48.14c2.339 2.4 7.766 2.25 11.872 3.61 18.302 1.26 45.34 6.76 57.357 21.32 21.165 25.65-12.181 43.41-28.222 54.75l-2.653.25c-5.283-45.71-25.482-65.6-68.716-77.16 43.52-9.68 77.183-41.8 88.218-85.06 13.129-51.46 4.541-102.76-52.97-117.51-3.79-.43-5.334-.71-9.037-1.64l.466-1.04 6.942-2.24c66.913-20.2 77.527-114.51 56.585-170.48-9.263-24.76-26.103-39.76-49.997-49.4 22.461-14.97 33.63-27.81 45.917-52.19 18.025-35.76 24.057-87.08 11.236-125.32-9.23-27.523-24.162-39.2-49.074-51.395"/><path fill="#1f1f1f" d="M578.711 1190.76c7.041-2.25 20.357 5.87 27.157 8.9 6.484 2.89 13.969 10.13 19.203 15.07 15.262 14.51 15.133 37.03 15.019 56.51-.092 15.64.264 31.47.05 47.09-.605 44.33 7.132 64.32-38.263 87.11l-1.717-.17c-3.621-.33-20.287 3.71-21.846 5.52 13.771 1.76 46.361 7.49 55.07 19.09 3.923 5.22 4.787 19.12 5.281 25.7 1.298 17.33.465 35.25.465 52.63 0 11.87 1.534 26.59-.907 38.17-1.182 5.6-36.371 49.31-42.015 52.99-7.428 4.83-44.143 15.59-52.972 14.73 5.129-2.57 45.362-14.54 52.987-16.94 13.082-16.9 27.222-33.13 40.011-50.11.094-31.35 2.996-88.41-4.874-116.8-17.167-10.06-37.839-15.84-57.508-18.2l-2.039-3.43c27.711-4.18 65.037-16.02 64.966-49.58-.079-36.89.87-75.61-.349-112.38-1.059-31.92-31.745-46.04-57.719-55.9"/><path fill="#4f0903" d="M553.628 1617.85c-1.808-.02-17.543-.36-17.768-1.47 1.145-1.47 4.062-1.77 5.896-2.14 2.339 2.4 7.766 2.25 11.872 3.61"/><path fill="#4f0903" d="M567.041 1408.92c1.839-.05 2.938-.05 4.772-.3l2.039 3.43c-3.296-.24-6.525-.65-9.858-.9.764-.54 2.317-1.58 3.047-2.23"/><path fill="#8e200a" d="M563.994 1411.15c-.893-.3-1.787-.6-2.68-.91.933-.91 2.499-.98 3.721-1.1l2.006-.22c-.73.65-2.283 1.69-3.047 2.23"/><path fill="#f25b2d" d="m1257.16 1215.98-.7-109.98c-.48-20.77-.53-41.55-.16-62.32.16-18.21-3.43-28.85 13.03-41.45l2.45-.53c4.57 3.67.86 113.16 3.84 128.63.33 1.75-1.36 24.09-1.49 28.64-.51 18.9.35 38.22-.28 57.06.1 4.51-.53 13.93 1.72 16.74 4.46 2 8.4 4.27 13.1 2.6.26-4.87.93-22.7 3.03-25.78 1.97 19.58 1.57 21.85.44 41.73l.78.68c1.31 8.06-.57 169.11-1.86 171.53-8.4-1.83-68.64-68.03-78.91-78.98l-74.46-78.92c-11.19-12.05-42.43-42.07-49.33-53.9l-.26.05c7.95 3.43 15.24 14.11 23.17 17.32l.06 3.9c4.85-2.85 6.38.11 7.64-.61 4.39-2.52 8.15-7.67 13.67-8.12 4.19 2.39 4.76 3.02 9.4 3.49 11.97-8.67 8.5-.8 18.16-1.75 12.81-1.26 24.94-.69 37.69-1.6 3.68 3.8 3.65 4.29 8.64 4.31 5.65-5.49 5.84-5.17 13.61-3.59 8.64 1.75 7.79.47 14.91-1.5 1.26 1.6 1.67 2.99 2.31 4.9 6.41 1.42 11.93-1.44 17.17-.3l.92 2.84 1.32.46c-.42-4.53-1.31-11.4.39-15.55"/><defs><linearGradient id="a" x1="1195.669" x2="1188.794" y1="1243.084" y2="1380.641" gradientUnits="userSpaceOnUse"><stop offset="0" stop-color="#3e3028"/><stop offset="1" stop-color="#cb6e46"/></linearGradient></defs><path fill="url(#a)" d="M1131.87 1255.77c-1.52-2.18-2.48-3.65-3.85-5.98 2.69-4.26 3.51 1.36 9.06-5.48 4.88-2.31 13.6 1.13 18.45.85 14.06.14 31.63-2.22 45.46-.98 17.88 1.6 35.84 3.07 53.77 4.27 1.66-1.8 1.19-2.52 1.58-5.53l.6 1.46 2.15.75c1.35 40.86-.39 82.43-.01 123.36.07 7.14.05 14.68-.21 21.8l-80.65-85.06c-15.54-16.4-31.51-32.43-46.35-49.46"/><path fill="#372924" d="M1257.16 1215.98c1.53-18.33-.97-109.4 1.84-117.69 1.33 18.27.45 50.72.43 70.2-.02 21.95 1 55.38-.34 76.64l-2.15-.75-.6-1.46c-.39 3.01.08 3.73-1.58 5.53-17.93-1.2-35.89-2.67-53.77-4.27-13.83-1.24-31.4 1.12-45.46.98-4.85.28-13.57-3.16-18.45-.85-5.55 6.84-6.37 1.22-9.06 5.48 1.37 2.33 2.33 3.8 3.85 5.98 14.84 17.03 30.81 33.06 46.35 49.46l80.65 85.06c4.09 4.25 8.21 8.68 12.52 12.69l.92.53c9.96 1.44 14.44 1.07 17.74-8.7.64-11.11-.24-34.47.27-44.37.53-10.3-1.7-94.96 1.82-99.12l.78.68c1.31 8.06-.57 169.11-1.86 171.53-8.4-1.83-68.64-68.03-78.91-78.98l-74.46-78.92c-11.19-12.05-42.43-42.07-49.33-53.9l-.26.05c7.95 3.43 15.24 14.11 23.17 17.32l.06 3.9c4.85-2.85 6.38.11 7.64-.61 4.39-2.52 8.15-7.67 13.67-8.12 4.19 2.39 4.76 3.02 9.4 3.49 11.97-8.67 8.5-.8 18.16-1.75 12.81-1.26 24.94-.69 37.69-1.6 3.68 3.8 3.65 4.29 8.64 4.31 5.65-5.49 5.84-5.17 13.61-3.59 8.64 1.75 7.79.47 14.91-1.5 1.26 1.6 1.67 2.99 2.31 4.9 6.41 1.42 11.93-1.44 17.17-.3l.92 2.84 1.32.46c-.42-4.53-1.31-11.4.39-15.55"/><path fill="#bf6d4b" d="M1290.05 1394.81c.15 9.24.06 18.48.15 27.72-5.9-6.69-12.26-12.63-17.89-19.02 9.96 1.44 14.44 1.07 17.74-8.7"/><defs><linearGradient id="b" x1="1284.703" x2="1276.127" y1="1232.435" y2="1403.956" gradientUnits="userSpaceOnUse"><stop offset="0" stop-color="#322622"/><stop offset="1" stop-color="#be6e4b"/></linearGradient></defs><path fill="url(#b)" d="m1271.38 1206.35 1.02-4.09c1.36 3.03.93 9.81 1.45 13.77.1 4.51-.53 13.93 1.72 16.74 4.46 2 8.4 4.27 13.1 2.6.26-4.87.93-22.7 3.03-25.78 1.97 19.58 1.57 21.85.44 41.73-3.52 4.16-1.29 88.82-1.82 99.12-.51 9.9.37 33.26-.27 44.37-3.3 9.77-7.78 10.14-17.74 8.7l-.92-.53c1.76-12.06.53-55.4.42-68.94z"/><path fill="#1f1f1f" d="m1257.16 1215.98-.7-109.98c-.48-20.77-.53-41.55-.16-62.32.16-18.21-3.43-28.85 13.03-41.45l2.45-.53c4.57 3.67.86 113.16 3.84 128.63.33 1.75-1.36 24.09-1.49 28.64-.51 18.9.35 38.22-.28 57.06-.52-3.96-.09-10.74-1.45-13.77l-1.02 4.09.35-203.07-12.45 13.1c-.23 27.26.35 54.66-.28 81.91-2.81 8.29-.31 99.36-1.84 117.69"/><defs><linearGradient id="c" x1="859.72" x2="853.646" y1="1240.633" y2="1388.532" gradientUnits="userSpaceOnUse"><stop offset="0" stop-color="#413027"/><stop offset="1" stop-color="#c37049"/></linearGradient></defs><path fill="url(#c)" d="M776.003 1189c-.042-17.64-1.263-183.54 1.559-186.81 5.726-.21 14.094 9.55 14.152 14.52.209 17.83-.258 36.24-.278 54.04l.593 91.17c.012 8.73-.603 51.29.627 57.98 1.987.43 4.327-.47 8.191-.17 14.201 1.09 45.128-3.23 58.07 1.94 5.82-3.26 33.306.08 43.585-1.4l2.378 3.08c6.83.57 14.241-3.82 21.896-3.33 1.703 2.11 2.306 3.41 5.021 4.18 3.413-.34 4.981-1.93 7.795-3.94 6.785-.43 5.817 6.09 10.337 3.95 5.266-2.5 19.284-22.87 24.512-21.51-1.038 2.82-41.17 44.93-45.438 47.79-11.645 12.89-29.343 29.09-42.371 42.55a12399 12399 0 0 1-96.876 100.02c-2.674 2.59-6.303 6.33-9.05 8.64-3.356-3.92-2.077-35.33-2.071-42.35l.018-102.98c-1.688-4.83-1.114-53.91-2.65-67.37"/><path fill="#372924" d="M776.003 1189c-.042-17.64-1.263-183.54 1.559-186.81 5.726-.21 14.094 9.55 14.152 14.52.209 17.83-.258 36.24-.278 54.04l.593 91.17c.012 8.73-.603 51.29.627 57.98 1.987.43 4.327-.47 8.191-.17 14.201 1.09 45.128-3.23 58.07 1.94 5.82-3.26 33.306.08 43.585-1.4l2.378 3.08c6.83.57 14.241-3.82 21.896-3.33 1.703 2.11 2.306 3.41 5.021 4.18 3.413-.34 4.981-1.93 7.795-3.94 6.785-.43 5.817 6.09 10.337 3.95 5.266-2.5 19.284-22.87 24.512-21.51-1.038 2.82-41.17 44.93-45.438 47.79l-.43-2.39c-4.32-4.65-52.253-7.68-60.292-2.51l-2.327-3c-7.034-1.79-22.216-.46-30.195-.96-6.381-.4-12.888-2.93-18.326-1.75-5.83 1.26-14.231.97-20.386 1.03-2.154 1.75-2.554 2.2-5.005 3.42-1.694-4.49-1.302-10.51-2.679-15.72-1.022 45.52.299 91.42.021 136.98-.055 8.98-.117 18.52.372 27.47-2.674 2.59-6.303 6.33-9.05 8.64-3.356-3.92-2.077-35.33-2.071-42.35l.018-102.98c-1.688-4.83-1.114-53.91-2.65-67.37"/><path fill="#f25b2d" d="M779.021 1239.64c-.849-8.18-.174-30.13-.131-39.44l.154-77.79v-76.42c-.022-9.76-.691-31.03.296-40.07l1.224-.38 2.779 3.34c5.504 5.15 5.816 4.46 5.987 11.12.336 13.06-.247 26.08-.232 39.14.244 34.56.28 69.11.109 103.67-.033 21.32-.548 44.74.156 65.8-1.022 45.52.299 91.42.021 136.98-.055 8.98-.117 18.52.372 27.47-2.674 2.59-6.303 6.33-9.05 8.64-3.356-3.92-2.077-35.33-2.071-42.35l.018-102.98z"/><path fill="#e5d7cb" d="M707.514 341.594c32.437-1.289 59.801 23.914 61.178 56.348s-23.752 59.865-56.182 61.33c-32.555 1.47-60.114-23.776-61.497-56.335-1.382-32.558 23.939-60.049 56.501-61.343"/><path fill="#1f1f1f" d="M699.519 351.46c27.054-5.721 53.633 11.538 59.411 38.579 5.779 27.041-11.424 53.656-38.453 59.492-27.11 5.853-53.822-11.412-59.618-38.534-5.796-27.123 11.526-53.798 38.66-59.537"/><path fill="#e5d7cb" d="M1332.99 342.528c32.08-5.868 62.81 15.479 68.51 47.589s-15.8 62.729-47.94 68.26c-31.91 5.49-62.25-15.824-67.91-47.697-5.65-31.873 15.5-62.329 47.34-68.152"/><path fill="#1f1f1f" d="M1333.13 351.422c27.14-5.726 53.77 11.686 59.42 38.849 5.64 27.162-11.85 53.742-39.03 59.304-27.06 5.538-53.51-11.864-59.13-38.911-5.61-27.046 11.71-53.541 38.74-59.242"/><path fill="#f25b2d" d="M777.006 479.609c2.52 1.789 10.274 9.272 12.952 11.743l.299 445.466-6.616 7.045-6.112 6.091-.396-316.825c-.132-50.142-1.221-103.559-.127-153.52"/><path fill="#f25b2d" d="M1271.54 480.697c1.53 5.909.73 24.096.71 30.984l-.17 69.649-.05 289.755c-.01 9.451 1.19 72.503-.89 75.955-2.86-.172-2.79-1.098-5.5-3.712l-5.72-5.121-.08-445.57a400 400 0 0 1 11.7-11.94"/><defs><linearGradient id="d" x1="784.781" x2="753.903" y1="1239.359" y2="1384.425" gradientUnits="userSpaceOnUse"><stop offset="0" stop-color="#2c2622"/><stop offset="1" stop-color="#c06742"/></linearGradient></defs><path fill="url(#d)" d="M760.872 1387.5c-.01-34.12.305-68.66-.455-102.74-.51-22.89-4.72-77.33.091-97.98 1.059 4.18.478 15 .788 20.15.643 10.67 1.044 21.32 2.166 31.99l1.228.57q.982-1.02 1.99-2.01c5.082-4.91 2.673 1.76 8.55 1.83 2.663-7.11-.728-38.49.773-50.31 1.536 13.46.962 62.54 2.65 67.37l-.018 102.98c-.006 7.02-1.285 38.43 2.071 42.35l-.82.87c-3.885 4.73-14.278 14.82-18.977 19.62z"/><path fill="#bf6d4b" d="M760.872 1387.5c1.085-1.35.37-.56 1.011-1.45 1.178-1.31 1.626-.29 2.405.55 3.055 3.29 3.537-3.3 6.24-1.87.892.47.768 5.71 3.938 4.36l.967-.63-.118-.01.15.09c.355 4.65-.273 11.35 4.421 14.03-3.885 4.73-14.278 14.82-18.977 19.62z"/><path fill="#f25b2d" d="M1517.76 488.514c14.37-1.854 27.57 8.144 29.68 22.474s-7.66 27.707-21.95 30.067a26.55 26.55 0 0 1-25.05-9.596c-6-7.491-7.5-17.639-3.9-26.542a26.54 26.54 0 0 1 21.22-16.403"/><path fill="#1f1f1f" d="M1518.49 501.603c7.12-1.579 14.22 2.739 16.09 9.786s-2.16 14.315-9.12 16.473a13.6 13.6 0 0 1-13.53-3.266c-3.57-3.489-4.94-8.652-3.57-13.451a13.6 13.6 0 0 1 10.13-9.542"/><path fill="#f25b2d" d="M524.504 488.787c14.166-2.673 27.871 6.466 30.848 20.571s-5.864 28.004-19.902 31.284a26.505 26.505 0 1 1-10.946-51.855"/><path fill="#1f1f1f" d="M527.139 501.507c7.257-1.275 14.207 3.466 15.669 10.687s-3.097 14.291-10.278 15.939a13.585 13.585 0 0 1-15.883-17.678 13.59 13.59 0 0 1 10.492-8.948"/><path fill="#f25b2d" d="M1224.03 239.064a24.1 24.1 0 0 1-41.35 19.999 24.09 24.09 0 0 1-3.6-28.224 24.09 24.09 0 0 1 25.8-11.988 24.1 24.1 0 0 1 19.15 20.213"/><path fill="#1f1f1f" d="M1196.72 231.59c5.97-1.896 12.36 1.291 14.44 7.198s-.9 12.398-6.74 14.661a11.59 11.59 0 0 1-11.64-1.93 11.57 11.57 0 0 1-3.92-11.131 11.59 11.59 0 0 1 7.86-8.798"/><path fill="#d7ccba" d="M1624.01 203.289c3.93-3.588 12.12-8.688 16.74-11.759-4.04 4.259-9.17 9.789-13.45 13.77-1.25-.842-1.95-1.355-3.29-2.011"/><path fill="#877d75" d="M419.999 199.186c-.792-.792-6.958-6.158-5.311-6.95l.942.333-.225-.128c1.436.735 2.665 1.754 3.952 2.73l3.363 2.572-2.022 1.627z"/><path fill="#d7ccba" d="m419.357 195.171 3.363 2.572-2.022 1.627-.699-.184c-.236-1.37-.444-2.634-.642-4.015"/><path fill="#b6aca2" d="m524.65 1847.54 2.053 1.43c-3.716 3.9-6.441 6.4-10.474 9.93 2.7-3.67 5.654-7.81 8.421-11.36"/><path fill="#bf6d4b" d="M1480.99 960.613c6.84.161 7.4.695.78 3.644z"/><path fill="#b6aca2" d="M1531.64 1854.65c3.95 5.5 1.57 5.38-2.21.97z"/></svg>