<svg xmlns="http://www.w3.org/2000/svg" width="2048" height="2048" viewBox="0 0 2048 2048"><path d="M0 0h2048v2048H0z"/><path fill="#717276" d="M1347.99 249.318c1.62-1.374 1.8-1.821 3.88-2.059a183.99 183.99 0 0 1 118.52 78.068c22.87 34.263 31.23 72.641 26.59 113.374a2300 2300 0 0 1 59.41 34.603c-12.01.011-24.32-.205-36.18 1.515-23.7 3.436-46.17 13.403-63.47 30.024-21.58 20.724-24.65 54.088-1.96 75.211 9.68 9.167 19.02 13.177 31.09 18.094-95.69 27.976-130.3 108.791-113.45 202.569 4.34 30.127 17.9 71.445 29.84 99.26 8.61 18.058 15.31 29.831 27.16 46.36 22.43 29.437 45.24 50.473 78.96 66.213a180.76 180.76 0 0 0-72.3 58.72c-13.83 18.26-26.61 36.51-35.92 57.62-21.1 40.01-32.68 91.35-35.85 136.57-.6 83.49 40.75 150.68 122.46 175.35-17.64 5.99-32.72 15.6-41.36 32.75a55.52 55.52 0 0 0-3.01 42.62c7.09 20.56 24.43 33.6 43.43 42.49 25.44 11.91 44.64 11.78 71.81 11.46l-60.43 34.45c1.64 22.58 1.86 40.91-3.76 63.02-18.57 73.08-72.96 119.01-145.54 133.29-1.59-.3-2.48-.76-4.01-1.39 82.92-29.62 106.44-118.68 25.04-166.58-83.78-49.3-185.12-25.22-260.27 28.12-30.74 21.81-64.13 52.37-83.73 84.47-7.11-12.54-18.21-25.72-28.056-36.18-72.187-76.61-186.652-130.39-290.785-88.91-50.116 19.96-94.453 62.71-70.099 120.1 12.263 28.89 32.984 44.24 61.34 55.77l-1.222.96c-1.527 1.24-3.064 1.31-4.986 1.5-86.424-15.83-153.238-106.34-138.151-194.07-14.23-9.23-40.631-23.1-55.916-31.38-3.431-2.05-5.95-3.4-.228-3.28 22.255-.28 36.308-1.16 58.222-8.5 36.185-12.12 65.866-44.96 51.048-85.26-6.506-17.7-22.847-28.33-39.978-35.39 81.481-30.13 117.931-92.46 117.934-177.65-2.749-45.99-14.605-93.83-35.258-135.06-8.333-17.74-23.178-42.2-35.573-56.97-21.709-27.46-41.881-43.67-73.148-58.57 30.639-11.28 58.956-40.733 78.514-65.989 11.546-15.168 19.513-29.519 28.05-46.269 16.599-35.856 23.858-61.071 31.415-99.525 15.554-91.633-17.8-175.396-112.058-202.682 10.841-4.633 19.059-8.082 27.575-16.53 22.894-22.71 20.297-55.304-2.008-77.095-28.078-27.431-61.714-31.56-99.088-31.59 19.352-10.318 41.964-23.559 60.685-34.906-8.23-36.68 5.9-83.413 26.368-113.97a179.26 179.26 0 0 1 113.607-75.825c2.67.285 2.852.63 5.112 2.266-75.036 32.236-97.294 109.986-25.023 158.583 115.513 77.676 283.975-8.777 352.177-111.348 30.65 52.57 93.48 101.049 149.43 123.939 58.66 23.708 113.75 26.181 172.75 2.613 93.98-37.544 96.94-137.183.4-174.974"/><path fill="#777778" d="M497.065 1573.3c-3.431-2.05-5.95-3.4-.228-3.28z"/><path fill="#050d33" d="m628.415 584.221 790.725.063c-17.2 9.892-40.87 20.543-56.18 30.03l-3.66 2.091c-8.78 4.987-18.11 9.091-26.95 14.118-22.56 10.524-47.68 24.256-70.08 35.802 29.03 14.525 59.51 28.397 88.92 42.299a485 485 0 0 0-10.02 31.142l-1.61 6.08a1075.5 1075.5 0 0 0-19.22 466.364c7.23 40.13 16.7 76.7 27.59 115.78-20.05 7.32-40.02 14.88-59.88 22.68-11.39 4.51-25.66 10.79-36.8 14.71 21.6 9.31 44.06 20.92 65.46 31.06 36.28 16.92 72.32 34.33 108.11 52.24l-412-.46-246.263.04c-45.186.01-91.963.67-136.999-.04 21.019-11.63 51.759-25.57 70.924-37.53-.108-.72-1.263-4.94-1.048-5.07 2.515-1.53 6.796-4.51 9.182-5.93 14.3-8.51 28.66-17.2 43.385-24.89l4.005-2.12c5.005-2.7 9.215-4.83 14.475-6.99-16.72-7.04-36.973-15.83-52.546-25.27-4.233-2.56-.211-1.93-3.561-1.81-.802-1.4.853-4.28 2.397-5.31-3.973-2.08-14.625-5.99-19.245-7.83 19.149-47.83 29.81-105.19 36.831-156.02 20.819-150.75 10.307-315.73-36.332-461.092 30.217-14.059 62.349-29.042 91.895-44.234-13.084-6.979-31.055-15.609-44.532-21.729-2.149 1.252-2.622 1.846-2.749 4.04 4.587 6.064 19.208 9.983 24.36 14.979l-1.293.301c-12.437-4.089-45.807-22.658-58.767-28.843-9.852-4.702-35.762-17.952-43.352-23.235 2.605-.647 2.667 1.541 7.246 1.48l.744-4.672c-13.462-6.934-30.464-14.889-43.162-22.224"/><path fill="#ba9c80" d="M716.771 1333.3c5.496 2.62 37.863 15.78 43.246 17.35-2.351 1.31-3.295 1.75-5.94 2.34-1.186 7.25 26.448 6.8 13.709 16.11l-.819.5c-6.447 3.88-17.533 8.54-23.088 12.71.224 1 2.183 3.15 2.872 4.32-12.377 5.12-33.046 17.57-46.269 24.06-.108-.72-1.263-4.94-1.048-5.07 2.515-1.53 6.796-4.51 9.182-5.93 14.3-8.51 28.66-17.2 43.385-24.89l4.005-2.12c5.005-2.7 9.215-4.83 14.475-6.99-16.72-7.04-36.973-15.83-52.546-25.27-4.233-2.56-.211-1.93-3.561-1.81-.802-1.4.853-4.28 2.397-5.31"/><path fill="#ba9c80" d="M671.577 606.445c24.354 12.286 49.327 23.777 73.811 35.95-2.149 1.252-2.622 1.846-2.749 4.04 4.587 6.064 19.208 9.983 24.36 14.979l-1.293.301c-12.437-4.089-45.807-22.658-58.767-28.843-9.852-4.702-35.762-17.952-43.352-23.235 2.605-.647 2.667 1.541 7.246 1.48z"/><path fill="#717276" d="M760.017 1350.65a501 501 0 0 1 30.693 12.89 765 765 0 0 0-18.108 9.25c-5.969 3.43-19.659 11.22-25.851 13.84-.689-1.17-2.648-3.32-2.872-4.32 5.555-4.17 16.641-8.83 23.088-12.71l.819-.5c12.739-9.31-14.895-8.86-13.709-16.11 2.645-.59 3.589-1.03 5.94-2.34"/><path fill="#050d33" d="m631.507 1525.94 785.803-.02c3.19 9.16 6.98 18.79 14.06 25.65.67-.66 1.37-1.49 2.21-1.95 2.66.97 3.02 2.37 4.76 3.99 12.85 11.97 27.96 21.58 44.1 28.47 1.41.61 7.26 2.72 7.63 3.41-2.34 2.97-8.59-3.57-9.25.33-.14.77-2.35 2.97-3.24 3.45-6.62 5.3-17.58 17.48-22.71 24.38.4 4.53.65 7.24 1.56 11.67.06 2.06.2 3.55.42 5.58.38 16.59.14 27.81-7.71 42.98l-.99-.05c-8.39-19.39-32.74-46.24-51.02-56.57.14 3.11.34 4.2-.43 7.28-4.31.47-5.87-3.34-9.34-5.46-40.6-24.73-86.31-35.18-133.69-30.22-13.07 1.37-25.52 4.42-38.6 6.15l1.93-1.32c.82-.57.39-.42 1.76-.62 9.13-1.32 12.5-3.68 20.19-8.37 2.53.72 1.55.77 3.98.3l.33-1.4c-10.25-4.09-19.04 5.49-27.74.87-18.54 3.37-41.12 11.54-58.54 19.01-55.85 23.96-91.91 54.96-132.39 98.7-33.67-36.94-59.664-60.14-102.938-85.6-100.644-59.2-258.982-54.31-321.91 58.15-8.247-20.62-8.546-38.94-4.574-60.62-8.185-9.72-16.063-17.32-25.428-25.74 1.282-.5 2.553-1.02 3.812-1.57 29.711-12.89 46.418-31 57.955-60.86"/><path fill="#deaf80" d="m1215.52 1584.47 1.48-.16c8.76-1 18.8-3.12 27.54-4.79 5.55-1.06 10.53.1 16.11-.64 46.1-3.74 88.08 9.09 127.52 32.36 3.1 1.83 6.13 3.82 8.96 6.02.14 3.11.34 4.2-.43 7.28-4.31.47-5.87-3.34-9.34-5.46-40.6-24.73-86.31-35.18-133.69-30.22-13.07 1.37-25.52 4.42-38.6 6.15l1.93-1.32c.82-.57.39-.42 1.76-.62 9.13-1.32 12.5-3.68 20.19-8.37 2.53.72 1.55.77 3.98.3l.33-1.4c-10.25-4.09-19.04 5.49-27.74.87"/><path fill="#ba9c80" d="M1431.37 1551.57c.67-.66 1.37-1.49 2.21-1.95 2.66.97 3.02 2.37 4.76 3.99 12.85 11.97 27.96 21.58 44.1 28.47 1.41.61 7.26 2.72 7.63 3.41-2.34 2.97-8.59-3.57-9.25.33-.14.77-2.35 2.97-3.24 3.45-2.7-2.29-4.85-3.15-7.73-5.04-13.24-8.68-29.15-19.59-38.48-32.66"/><path fill="#050d33" d="M713.212 456.479c113.574 36.573 238.437-29.035 311.598-114.828a377.3 377.3 0 0 0 105.53 87.257c107.23 58.407 256.95 54.615 320.74-63.435l3.87 11.365c5.22 4.32 2.25 5.704 5.16 7.328 1.71-1.015-2.71-15.216-3.43-17.87 8.16 12.057 11.47 28.903 8.59 43.203-.42 2.094-3.41 13.562-5.74 13.605-.62-.411-1.23-.8-1.89-1.122-1.21.544.74 7.028.99 8.738 4.62 7.456 12.98 16.185 19.11 22.493-27.35 12.878-44.85 26.866-59.34 53.945-7.53.059-20.88-.197-27.88.838l-169.18.027c-12.59-1.336-44.34-.384-58.16-.413l-120.07-.074c-137.023.057-276.731 1.395-413.577.032-14.417-27.435-31.785-41.273-59.023-54.451 9.475-9.038 14.717-15.686 22.586-26.118l-.901-1.069c-12.435-14.456-11.715-42.648-1.443-59.119-.081.13 6.04-.88 6.414-.902 22.066 44.415 60.191 70.152 105.691 87.447z"/><path fill="#deaf80" d="m593.096 426.999-.901-1.069c-12.435-14.456-11.715-42.648-1.443-59.119-.081.13 6.04-.88 6.414-.902-6.78 13.749-6.771 39.8-3.814 54.607.43 2.151.342 4.373-.256 6.483"/><path fill="#ba9c80" d="M1456.68 366.296c8.16 12.057 11.47 28.903 8.59 43.203-.42 2.094-3.41 13.562-5.74 13.605-.62-.411-1.23-.8-1.89-1.122-1.21.544.74 7.028.99 8.738-7.85-10.555-2.84-8.704-2-22.08.67-10.701 1.78-21.334-1.68-31.802 5.22 4.32 2.25 5.704 5.16 7.328 1.71-1.015-2.71-15.216-3.43-17.87"/><path fill="#050d33" d="M695.013 789.084c-.025-1.589-.42-9.376.647-10.351 1.42.336 1.685 4.497 1.897 5.629l3.082 13.615 4.053 18.639 1.452-1.046c2.027-1.479 1.235-.855 3.068-2.467l-1.057-7.89.783-.418c11.06 27.249 24.378 133.794 22.15 164.069-.65-8.164-1.921-28.007-3.883-35.039l-.709 8.824c-1.334-2.351-3.288-6.059-4.817-8.102 1.898 21.873 3.112 43.8 3.641 65.753 2.368 6.42 1.278 53.61 3.219 64.82l.5-.34c.151-4.43.338-8.85.561-13.28 1.544 2.61.653 7.66.724 11.11.173 8.34 1.853 16.41 2.65 24.58.168 1.72-1.288 10.22-1.531 13.22-1.64-2.52.608-17.71-1.086-20.41-.662 35.2-3.968 71.9-12.618 106.03-1.228 4.84.363 8.75-2.213 13.7l-1.234.7c-.092-2.61-.126-5.23-.102-7.85-2.33 1.83.454 2.39-4.172 6.61-2.638 13.99-4.222 27.91-7.168 41.9l-2.83-.97c-.642-7.05-1.062-14.18-2.679-21.05-1.416-3.67-1.954-5.79-4.339-8.84l-1.381 1.27.446.8.836-1.85.012 2.56c-3.136-4.49-9.921-32.18-12.702-40.43-17.161-50.86-49.069-114.41-95.143-144.01l.439-.7 3.706 1.11c1.443-1.64.926-.95 2.142-2.74l.836-1.26c-8.442-5.22-15.865-8.41-25.036-12.04 17.008-9.37 31.119-17.725 45.424-31.364 49.236-46.941 80.41-124.859 82.432-192.492"/><path fill="#deaf80" d="M592.193 1024.98c52.903 29.98 81.552 95.44 97.359 150.77 3.709 12.99 5.748 29.83 7.789 43.32-1.416-3.67-1.954-5.79-4.339-8.84l-1.381 1.27.446.8.836-1.85.012 2.56c-3.136-4.49-9.921-32.18-12.702-40.43-17.161-50.86-49.069-114.41-95.143-144.01l.439-.7 3.706 1.11c1.443-1.64.926-.95 2.142-2.74z"/><path fill="#deaf80" d="M725.32 1000.3c2.368 6.42 1.278 53.61 3.219 64.82l.5-.34c.151-4.43.338-8.85.561-13.28 1.544 2.61.653 7.66.724 11.11.173 8.34 1.853 16.41 2.65 24.58.168 1.72-1.288 10.22-1.531 13.22-1.64-2.52.608-17.71-1.086-20.41-.662 35.2-3.968 71.9-12.618 106.03-1.228 4.84.363 8.75-2.213 13.7l-1.234.7c-.092-2.61-.126-5.23-.102-7.85-2.33 1.83.454 2.39-4.172 6.61 4.695-44.27 12.326-87.45 13.581-132.86.329-6.84.16-15.19 1.483-21.65.49-14.86.329-29.53.238-44.38"/><path fill="#717276" d="M723.599 1066.33c.329-6.84.16-15.19 1.483-21.65.365 4.24.237 10.69 2 14.84 1.185 2.8.177 12.11-3.483 6.81"/><path fill="#ba9c80" d="m704.692 816.616 1.452-1.046c2.027-1.479 1.235-.855 3.068-2.467l-1.057-7.89.783-.418c11.06 27.249 24.378 133.794 22.15 164.069-.65-8.164-1.921-28.007-3.883-35.039l-.709 8.824c-1.334-2.351-3.288-6.059-4.817-8.102-.454-15.397-4.578-45.515-7.439-60.937-.516-3.812-1.128-7.298-1.544-11.155-.835-9.518-5.495-36.809-8.004-45.839"/><path fill="#717276" d="M712.696 862.455c1.173-1.253 2.352-3.667 3.375-3.951 4.67 1.593-.311 12.425-1.831 15.106-.516-3.812-1.128-7.298-1.544-11.155"/><path fill="#333540" d="M695.013 789.084c-.025-1.589-.42-9.376.647-10.351 1.42.336 1.685 4.497 1.897 5.629-2.254.225-1.644 2.435-1.823 4.55z"/><path fill="#050d33" d="M1353.19 779.443c.18-1.521.2-3.225 1.24-4.439.93.514.5 17.4.44 19.263 3.13 52.802 14.69 102.22 42.53 147.938l4.99-.32c3.1 4.143 5.21 7.669 7.83-.676 13.4 18.953 28.39 40.888 49.16 52.469 1.08.602 2.29 1.971 3.13 2.829-.33.674-.67 1.218-.75 1.953 4.72 2.01 1.13 1.98-.39 3.95l-.82 1.06c7.28 4.18 14.87 7.83 22.68 10.91-43.27 19.59-73.22 57.04-95.75 97.76-3.07 5.55-12.07 23.08-13.31 29.25 1.38 2.07.83.99 1.67 3.22l1.45.82 1.74 3.21c-9.84 29.08-18.07 71.01-22.5 102.01-3.29-1.6-1.79-.49-4-4.23.63-3.11 1.31-5.84 1.89-9.02 1.02 2.75.75 3.44.85 6.44l.66.18c.64-3.21.92-4.33.95-7.7-1.22-1.43-1.71-2.71-2.54-3.7-1.17-.06-2.07.36-3.57.3l-1.06-.04-.6.23c-1.93-.44-1.91-.4-3.37.9-6.35-29.3-11.24-68.15-14.34-98.14-11.78-114.26-9.69-245.464 21.79-356.427"/><path fill="#777778" d="M1374.17 1141.39c1.38 2.07.83.99 1.67 3.22l1.45.82 1.74 3.21c-9.84 29.08-18.07 71.01-22.5 102.01-3.29-1.6-1.79-.49-4-4.23.63-3.11 1.31-5.84 1.89-9.02 1.02 2.75.75 3.44.85 6.44l.66.18c.64-3.21.92-4.33.95-7.7-1.22-1.43-1.71-2.71-2.54-3.7-1.17-.06-2.07.36-3.57.3l-1.06-.04c.83-11.73 3.56-23.44 6.08-34.9 1.03-4.68 2.17-9.34 3.42-13.96 1.83-6.85 4.74-17.97 7.44-24.26 2.38-6.21 4.62-12.39 7.52-18.37"/><path fill="#ba9c80" d="M1374.17 1141.39c1.38 2.07.83.99 1.67 3.22l1.45.82 1.74 3.21c-9.84 29.08-18.07 71.01-22.5 102.01-3.29-1.6-1.79-.49-4-4.23.63-3.11 1.31-5.84 1.89-9.02 1.02 2.75.75 3.44.85 6.44l.66.18c.64-3.21.92-4.33.95-7.7 3.52-17.83 4.49-34.36 9.2-52.78l1.04-4.02c2.1-8.04 6.33-13.28-.47-19.76 2.38-6.21 4.62-12.39 7.52-18.37"/><path fill="#deaf80" d="M1402.39 941.885c3.1 4.143 5.21 7.669 7.83-.676 13.4 18.953 28.39 40.888 49.16 52.469 1.08.602 2.29 1.971 3.13 2.829-.33.674-.67 1.218-.75 1.953 4.72 2.01 1.13 1.98-.39 3.95l-.82 1.06c-7.82-6.092-16.24-9.355-24.74-17.24-11.17-10.36-22.52-19.987-30.99-33.132l-1.05-1.543c-1.97-2.908-4.16-6.725-6.37-9.35z"/><path fill="#333540" d="M1353.19 779.443c.18-1.521.2-3.225 1.24-4.439.93.514.5 17.4.44 19.263-1.02-5.581-.67-9.255-1.68-14.824"/><path fill="#050d33" d="M652.692 617.833c7.844 2.558 33.316 16.451 42.423 20.861 14.405 6.975 32.269 14.752 46.29 21.961-3.924 1.942-7.725 4.048-11.687 5.96l-1.453.69-1.243.615c-9.788 4.982-22.235 10.971-32.252 15.5l-1.837.848c-7.478-18.341-18.059-38.439-30.122-54.172a254 254 0 0 0-10.119-12.263"/><path fill="#050d33" d="M1394.6 619.15c.64.015.9-.119 1.22.305-.09.611-.48 1.039-.91 1.492-18.09 19.085-27.16 39.498-38.17 62.626l-.4.805c-8.45-4.016-18.89-9.029-27.14-13.434-5.49-2.843-10.9-5.765-16.43-8.546 15.44-8.361 30.78-16.172 46.22-24.344 12.53-6.629 22.41-12.665 35.61-18.904"/><path fill="#ba9c80" d="m1221.34 508.023 169.18-.027c7.43.965 25.27-1.005 30.16 3.55-3.57 1.278-26.54 1.051-32.17 1.183a9562 9562 0 0 1-176.5 1.714c-99.35.635-202.96 4.019-302 2.041 10.711.334 27.065-1.081 38.323-1.352l81.657-1.21 287.94-2.371c-5.51-.908-26.84-.623-33.23-.62l-68.13.042-.01-.783c7.92-.027 15.84.009 23.75.107l.32-.904c-4.55-2.23-14.99 1.427-19.29-1.37"/><path fill="#050d33" d="M696.085 1346.39c16.354 5.92 31.392 12.45 47.482 18.84l-.644.32c-15.389 7.83-32.542 15.71-47.513 24.42a2179 2179 0 0 0-34.125 18.27c14.032-19.01 27.489-39.08 34.8-61.85"/><path fill="#050d33" d="M1351.25 1347.97c3.77.44 4.69 5.79 6.22 9.31a268 268 0 0 0 29.08 50.05c-.96-.5-1.93-1-2.9-1.48-7.64-3.85-15.93-8.61-23.53-12.75-16.76-9.78-35.5-19.01-51.65-28.87 14.54-5.33 28.37-10.36 42.78-16.26"/><path fill="#ba9c80" d="M867.51 1458.5c21.835-1.21 48.483-.68 70.686-.73l125.314.04 61.15.13c8.2.01 31.03-.21 38.5 1.25-53.63.81-107.27 1.13-160.91.94l-207.004.54-56.144-.09c-9.048-.01-24.117.39-32.603-.49 10.051-1.24 38.001-.56 49.428-.69z"/><path fill="#deaf80" d="M1394.05 927.436c-16.88-27.669-27.69-72.101-32.3-103.896-.51-3.544-2.18-14.268-1.16-16.979v.003c.67.374 3.21 17.716 3.93 20.904a393 393 0 0 0 33.8 93.413c-3.46 1.94-3.01 2.293-4.27 6.555"/><path fill="#deaf80" d="m920.484 398.338 1.096.65c-2.462 2.864-14.246 9.604-18.138 12.01-36.529 22.581-60.778 28.34-102.395 31.895l-.959-.201.009-.527c8.597-1.61 15.885-2.113 24.853-4.148 34.633-7.857 65.414-21.228 95.534-39.679"/><path fill="#ba9c80" d="m1362.96 614.314-.85 1.383c-2.18 3.654-6.55 5.37-5.57 6.599 1.5.593 2.62-1.242 3.89-.745l.06-.138c.15 1.527-16.3 10.946-18.21 11.955-7.1 3.747-58.61 35.645-62.68 35.759-1.98-1.943 13.6-10.046 15-10.76 13.77-7.029 30-19.141 43.85-25.102l.6-.869c-.53-.949-4.74-1.587-5.8-1.738l-.9-.135c8.84-5.027 18.17-9.131 26.95-14.118z"/><path fill="#deaf80" d="M1456.43 1625.32c3.57-4.92 4.56-4.03 4.03-8.71 1.66.07 2.66 4.64 3.11 6.02 7.33 22.66-.3 41.74-12.11 60.72 1.75-6.59 3.31-10.31 5.53-16.68 1.29-3.65 2.4-7.36 3.3-11.13 1.45-5.84 4.2-25.49 1.12-30.04-2.33-1.04-3.24 3.49-4.56 5.4-.22-2.03-.36-3.52-.42-5.58"/><path fill="#050d33" d="M649.472 1481.54a7.43 7.43 0 0 1 7.655.52 7.441 7.441 0 0 1-1.61 13.05c-3.69 1.41-7.837-.32-9.444-3.92a7.44 7.44 0 0 1 3.399-9.65"/><path fill="#deaf80" d="M588.637 1616.01c1.194.67.362 1.75.076 3.47-.632 4.15-1.022 8.33-1.169 12.53-.216 9.9.265 15.84 2.331 25.5 1.339 6.26 4.856 13.19 5.86 18.49l.346 1.93c-12.426-17.69-16.159-41.82-7.444-61.92"/><path fill="#050d33" d="M646.2 538.413a7.425 7.425 0 1 1 6.918 13.137 7.425 7.425 0 0 1-6.918-13.137"/><path fill="#050d33" d="M831.483 537.453a7.392 7.392 0 1 1 2.15 14.628 7.392 7.392 0 0 1-2.15-14.628"/><path fill="#050d33" d="M1220.88 1481.48a7.33 7.33 0 0 1 7.38.88 7.36 7.36 0 0 1 2.85 6.87 7.38 7.38 0 0 1-4.59 5.85c-3.74 1.47-7.97-.32-9.51-4.03a7.356 7.356 0 0 1 3.87-9.57"/><path fill="#050d33" d="M1397.13 538.541a7.353 7.353 0 0 1 10.02 2.892c1.95 3.575.63 8.061-2.96 9.995a7.348 7.348 0 0 1-7.06-12.887"/><path fill="#050d33" d="M733.61 538.457a7.34 7.34 0 0 1 9.846 3.278 7.344 7.344 0 1 1-9.846-3.278"/><path fill="#050d33" d="M1402.21 1495.03a7.353 7.353 0 0 1-9.43-3.32c-1.79-3.4-.65-7.6 2.61-9.64 3.25-2.04 7.53-1.22 9.81 1.88 1.32 1.8 1.75 4.1 1.17 6.26a7.4 7.4 0 0 1-4.16 4.82"/><path fill="#050d33" d="M829.149 1482.48a7.33 7.33 0 0 1 7.471.28 7.33 7.33 0 0 1 3.36 6.68 7.344 7.344 0 0 1-13.886 2.8 7.35 7.35 0 0 1 3.055-9.76"/><path fill="#050d33" d="M1120.37 1482.52a7.335 7.335 0 0 1 9.86 3.11c1.88 3.57.52 7.98-3.03 9.88-3.6 1.93-8.07.55-9.96-3.05-1.9-3.61-.5-8.07 3.13-9.94"/><path fill="#050d33" d="M926.013 538.599a7.333 7.333 0 0 1 11.001 6.676 7.335 7.335 0 1 1-11.001-6.676"/><path fill="#050d33" d="M1309.86 1481.47c3.6-1.75 7.93-.27 9.72 3.31s.36 7.94-3.21 9.76a7.31 7.31 0 0 1-7.34-.39 7.31 7.31 0 0 1-3.28-6.58 7.29 7.29 0 0 1 4.11-6.1"/><path fill="#050d33" d="M1026.49 537.513a7.31 7.31 0 0 1 7.56 6.79 7.305 7.305 0 1 1-13.82-2.766 7.32 7.32 0 0 1 6.26-4.024"/><path fill="#050d33" d="M1119.95 538.507a7.29 7.29 0 0 1 7.52.125 7.297 7.297 0 0 1-.9 12.864 7.306 7.306 0 0 1-9.47-3.36 7.297 7.297 0 0 1 2.85-9.629"/><path fill="#050d33" d="M926.419 1482.39a7.261 7.261 0 0 1 6.139 13.16 7.266 7.266 0 0 1-10.394-7.21 7.26 7.26 0 0 1 4.255-5.95"/><path fill="#fdbb78" d="M1394.05 927.436c1.26-4.262.81-4.615 4.27-6.555 3.87 6.697 8.13 13.694 11.9 20.328-2.62 8.345-4.73 4.819-7.83.676-2.79-4.819-5.69-9.553-8.34-14.449"/><path fill="#050d33" d="M1218.41 538.574a7.26 7.26 0 0 1 9.83 2.816c1.95 3.479.72 7.877-2.74 9.849a7.265 7.265 0 0 1-9.93-2.762c-1.96-3.516-.69-7.962 2.84-9.903"/><path fill="#050d33" d="M1023.1 1482.52a7.25 7.25 0 0 1 7.44.19 7.25 7.25 0 0 1 3.34 6.65c-.19 2.66-1.83 5-4.27 6.09-3.54 1.57-7.69.09-9.42-3.36a7.244 7.244 0 0 1 2.91-9.57"/><path fill="#050d33" d="M736.329 1481.5a7.23 7.23 0 0 1 8.912 4.85 7.25 7.25 0 0 1-4.703 9c-2.489.8-5.217.2-7.137-1.58a7.237 7.237 0 0 1 2.928-12.27"/><path fill="#050d33" d="M1309.35 538.541a7.234 7.234 0 0 1 9.7 2.792 7.24 7.24 0 0 1-2.54 9.769 7.23 7.23 0 0 1-7.34.086 7.25 7.25 0 0 1-3.64-6.377 7.24 7.24 0 0 1 3.82-6.27"/><path fill="#deaf80" d="M1331.42 1338.11c.5.06.72 0 1.03.26.38 1.4-2.9 2.78-3.93 3.18-18.23 7.12-37.84 16.68-56.23 23.02-.65-.35-1.3-.71-1.94-1.06.53-1.2 54.83-22.84 61.07-25.4"/><path fill="#deaf80" d="M1521.82 1583.19c.2.19.41.37.61.56-3.82 4.67-37.06 23.76-44.45 27.81l-5.9 3.21c-.16-.08-.32-.17-.48-.26l-.01-.11c2.44-2.41 1.01-1.36 4.27-3.57l1.58-1.08c15.17-9.94 27.38-17.7 43.54-26.12z"/><path fill="#deaf80" d="M1474.93 429.962c9.5 4.085 41.15 24.545 49.24 31.243-10.14-2.596-41.26-23.254-49.24-31.243"/><path fill="#deaf80" d="M524.725 1581.19c7.693 3.35 44.614 23.77 48.389 29.8-8.062-3.26-44-23.95-48.389-29.8"/><path fill="#ba9c80" d="M631.81 943.869c-.714 10.154-30.295 38.783-39.606 43.919-.735-1.759 6.069-7.264 7.375-8.204 13.391-9.648 21.613-23.804 32.231-35.715"/><path fill="#deaf80" d="M565.694 435.958c1.272.823 1.19 1.091-.106 2.083-11.237 8.599-23.815 15.086-36.075 21.973l-3.349 1.855c-.006-.007-.858-.388-.6-.66 4.514-4.765 36.397-23.09 39.25-24.735z"/><path fill="#0f1531" d="M1345.74 1234.01c1.46-1.3 1.44-1.34 3.37-.9 0 2.71.5 8.22-.93 9.8l.51.24-.2.21h-.02l-.6-.94.83.41-.96-.65c-.81-2.29-1.43-5.7-2-8.17"/><path fill="#0f1531" d="m700.02 1240.12 2.83.97c-.164.78-1.069 7.71-2.327 7.34-.839-.96-.519-7.12-.503-8.31"/><path fill="#777778" d="m1448.15 1673.83.99.05c1.7 2 2.6 2.93 1.24 5.43-.46.84-1.63 1.16-2.07.46-.8-1.29-.23-4.42-.16-5.94"/><path fill="#050d33" d="M68.548 886.851c1.64.622 3.125 1.096 4.742 1.697 16.693 8.125 54.424 3.594 66.356-11.729 18.09-23.234 29.874-46.501 59.32-60.856 20.179-11.141 52.703-12.982 72.978-.049 52.584 33.545 106.872 33.947 154.208-9.819 15.831-14.637 29.752-30.978 50.759-41.331 49.494-24.393 107.114-3.855 154.296 16.635 13.613 5.89 33.191 14.943 46.856 19.438-7.557 38.454-14.816 63.669-31.415 99.525-13.629-8.977-41.514-16.254-58.024-20.552-123.565-32.165-118.795 61.091-197.28 62.49-66.165 1.181-86.986-65.224-155.419-71.257-51.149-4.51-71.397 36.361-117.133 37.062-20.017.307-36.05-7.656-50.244-21.254"/><path fill="#050d33" d="M1372.42 800.717c57.8-22.735 129.45-65.22 192.48-38.772 24.45 10.256 39.83 28.474 58.77 45.525 32.8 29.541 77.85 42.829 119.73 25.314 36.52-15.267 55.34-37.87 99.92-19.572 25.59 10.504 51.71 38.806 63.58 63.733 23.13 15.258 44.78 21.113 71.32 9.85-13.63 13.392-27.87 21.344-47.3 21.217-47.5-.311-65.69-42.166-119.7-36.664-66.18 6.742-87.79 72.665-153.56 70.959-78.2-2.028-74.37-92.776-193.76-63.258-20.18 4.991-43.25 11.337-61.64 20.928-11.94-27.815-25.5-69.133-29.84-99.26"/><path fill="#050d33" d="M82.05 1229.12c22.751 6.34 53.686 6.43 68.058-13.31 24.052-33.04 40.577-58.85 82.964-70.31 63.174-17.25 99.3 46.88 160.025 48 44.787.82 67.856-23.47 97.508-52.21 33.03-32.02 80.563-35.55 122.915-23.16 7.928 2.32 28.117 10.12 35.285 10.03 20.653 41.23 32.509 89.07 35.258 135.06-53.878-25.91-106.95-46.67-164.423-17.58-36.178 18.32-60.849 49.87-105.344 47.79-72.65-3.39-92.618-83.22-167.502-83.31-50.278-.06-69.413 42.1-119.232 40.24-19.906-.58-31.989-7.18-45.511-21.24"/><path fill="#050d33" d="M1400.16 1128.89c9.83-1.2 27.41-8.04 37.35-10.89 37.72-10.83 76.67-9.28 108.69 15.29 12.73 8.44 22.13 20.46 33.64 30.16 24.77 20.64 53.26 33.85 85.93 29.24 30.47-4.29 52.21-21.11 77.38-35.94 50.61-29.81 103.75-8.29 136.79 36.13 5.45 7.32 10.14 15.16 15.68 22.38 14.43 17.17 44.22 22.62 64.77 14.74l1.17.42c-2 5.89-11.9 11.31-17.47 14.1-17.98 9.01-38.93 5.91-57.3-.1-16.25-5.32-26.87-14.36-41.23-22.64-27.22-15.7-59.88-14.71-87.85-1.46-22.54 10.69-37.42 27.11-55.87 43.05-29.33 25.33-62.95 37.83-100.94 24.9-23.35-7.96-35.98-20.07-56.59-32.4-57.76-34.55-105.61-26.26-163.46.88-5.4 2.53-11.56 5.56-16.54 8.71 3.17-45.22 14.75-96.56 35.85-136.57"/><path fill="#050d33" d="m73.426 1054.49 1.278.47c24.745 8.82 48.528 7.23 69.653-11.41 6.017-6.67 11.025-15.51 16.078-22.77 28.611-41.132 77.223-67.824 125.296-41.675 17.812 9.689 33.387 20.489 53.086 27.425 38.843 13.68 77.152 2.54 108.539-22.543 17.25-13.954 30.891-29.81 51.63-38.973 38.371-18.364 80.806-12.16 119.612 1.617-19.558 25.256-47.875 54.709-78.514 65.989 31.267 14.9 51.439 31.11 73.148 58.57-16.027-2.95-30.649-9.71-47.183-10.99-84.89-6.6-100.316 53.82-160.885 57.69-74.914 4.79-91.51-67.49-155.573-77.63-59.865-9.47-75.639 40.32-130.53 37.21-19.07-1.09-33.087-8.92-45.635-22.98"/><path fill="#050d33" d="M1429.42 946.337c29.93-13.05 79.25-18.063 109.58-4.955 28.14 12.162 39.35 24.431 61.99 42.866 32.9 27.372 78.78 37.692 118.19 18.732 38.01-18.27 67.66-47.065 112.15-28.448 38.7 16.195 49.58 39.458 72.93 70.068 13.6 17.84 46.61 18.46 68.36 9.64-12.28 13.63-25.13 22.69-44.04 23.8-54.84 3.21-71.45-49.37-133.72-37.27-61.52 11.96-74.2 79.66-148.43 77.1-61.7-2.14-81.16-66.04-164.07-57.45-15.74 1.63-31.05 6.76-46.28 10.85a180.76 180.76 0 0 1 72.3-58.72c-33.72-15.74-56.53-36.776-78.96-66.213"/><path fill="#5a5a5c" d="M697.34 1796.29c5.529 1.61 10.036 3.02 15.329 5.1-6.959-.58-14.712-1.15-21.537-2.64 1.922-.19 3.459-.26 4.986-1.5z"/><path fill="#5a5a5c" d="M693.144 248.239c3.346-.866 5.962-1.118 9.35-1.452l11.911-1.275c-4.563 1.544-11.508 3.891-16.149 4.993-2.26-1.636-2.442-1.981-5.112-2.266"/><path fill="#5a5a5c" d="M1335.55 245.478c5.42.445 10.96.813 16.32 1.781-2.08.238-2.26.685-3.88 2.059-2.8-.47-9.56-2.837-12.44-3.84"/><path fill="#333540" d="M1347.91 1800.89c-1.67.38-7.17 1.47-8.45.4l.07-.06.22-.01.42-1.01c1.64-.55 2.02-.69 3.73-.71 1.53.63 2.42 1.09 4.01 1.39"/></svg>