<svg xmlns="http://www.w3.org/2000/svg" width="2048" height="2048" viewBox="0 0 2048 2048"><path fill="#212328" d="M0 0h2048v2048H0z"/><path d="m1915.4 284.709 1.11 1.392c.69 7.246-.37 25.374-.68 33.61a1297 1297 0 0 1-8.92 109.283c-27.88 223.922-93.65 420.481-220.27 608.026a1113 1113 0 0 1-127.94 154.77c-160.29 161.14-366.68 261.72-594.664 271.21-138.406 5.77-262.009-5.52-399.875 21.59-187.365 36.85-323.638 121.12-430.758 279.68-.367-.37-.943-1.66-1.218-2.2.808-54.21 8.765-126.58 17.389-180.3 33.618-209.44 105.324-416.13 228.479-590.099C515.05 798.145 708.606 653.934 942.947 603.844a997 997 0 0 1 151.213-18.98c54.92-3.03 110.65-1.023 165.62-1.884 70.22-1.099 136.65-4.668 205.77-16.753 196.49-34.358 334.8-119.581 449.85-281.518"/><path fill="#e6e8ed" d="M805.242 1163.08c-65.569-102.43-51.757-236.557 33.31-323.47 85.066-86.914 218.868-103.604 322.678-40.25 91.81 56.028 139.88 162.611 121.1 268.51-18.78 105.9-100.56 189.46-206.04 210.51-105.47 21.05-213.061-24.72-271.048-115.3"/><path fill="#c8cbd2" d="M805.242 1163.08c-65.569-102.43-51.757-236.557 33.31-323.47 85.066-86.914 218.868-103.604 322.678-40.25-9.67 10.346-92.92 94.339-94.08 97.406-48.46-16.398-102.034-3.617-137.875 32.894s-47.628 90.31-30.335 138.46c-9.115 3.28-77.491 82.28-93.698 94.96"/><path d="M898.94 1068.12c-17.293-48.15-5.506-101.949 30.335-138.46s89.415-49.292 137.875-32.894c58.96 19.949 96.27 78.034 89.9 139.944-6.38 61.92-54.74 111.18-116.52 118.7-61.788 7.52-120.554-28.71-141.59-87.29"/><path fill="#c8cbd2" d="M1413.41 712.483c152.17-32.31 265.72-81.702 379.8-191.138-5.83 22.168-14.38 44.266-21.98 65.902-68.62 195.234-179.47 373.059-335.97 509.873-37.92 33.14-75.65 65.31-119.25 90.87a87 87 0 0 1-4.52 2.53c3.37-4.03 17.46-21.18 20.7-23.71 8.51-9.99 19.24-20.6 27.99-30.66 4.5-5.17 12.64-14.72 17.49-18.91 3.42-4.88 12.17-14.2 16.4-18.96l31.58-35.68a6796 6796 0 0 0 120.89-141.557 2347 2347 0 0 0 41.37-50.485c5.99-7.461 15.72-18.858 20.54-26.736-35.43 31.488-73.46 62.75-109.69 93.594a15256 15256 0 0 1-149.46 127.124c12.65-80.326-2.05-146.76-43.63-216.024-18.96-28.62-33.55-45.303-58.54-68.715-22.81-18.301-33.16-26.741-59.42-41.6 24.08-1.956 48.22-3.004 72.29-5.247 7.48-.697 15.23-1.619 22.7-2.089 6.54-1.475 38.6-4.105 47.28-5.179 27.94-3.549 55.76-7.952 83.43-13.203"/><path fill="#fdfdfd" d="M1696.12 612.961c-50.32 119.816-154.49 239.792-273.1 295.679 5.36-4.788 10.96-9.247 16.56-13.756 62.52-50.411 110.86-109.492 152.03-178.088-24.51 12.5-48.38 25.467-73.92 35.85-42.57 17.311-87.32 34.639-131.92 45.872l-.9-1.446.49-1.494c12.49-4.536 29.24-12.532 41.63-18.05a1349 1349 0 0 0 116.19-58.718c10.5-6.052 24.31-13.712 33.96-20.507 38.37-24.073 85.5-54.819 118.98-85.342"/><path fill="#8d929c" d="M1282.7 730.865c6.54-1.475 38.6-4.105 47.28-5.179 27.94-3.549 55.76-7.952 83.43-13.203-7.26 10.202-15.77 21.997-23.88 31.577l-52.24 65.784c-10.62 12.333-21.04 26.942-31.62 38.672-18.96-28.62-33.55-45.303-58.54-68.715-22.81-18.301-33.16-26.741-59.42-41.6 24.08-1.956 48.22-3.004 72.29-5.247 7.48-.697 15.23-1.619 22.7-2.089"/><path fill="#c8cbd2" d="M1187.71 738.201c24.08-1.956 48.22-3.004 72.29-5.247 7.48-.697 15.23-1.619 22.7-2.089 1.91.071 6.36-.171 7.92.48l.11.179c-3.05 5.733-37.37 41.881-43.6 48.277-22.81-18.301-33.16-26.741-59.42-41.6"/><path fill="#e6e8ed" d="M1389.53 744.06a1619 1619 0 0 0 124.45-27.479c18.21-4.957 46.22-14.839 63.16-18.278-9.65 6.795-23.46 14.455-33.96 20.507a1349 1349 0 0 1-116.19 58.718c-12.39 5.518-29.14 13.514-41.63 18.05l-.49 1.494.9 1.446c-6.32 2.434-43.88 12.683-48.48 11.326z"/><path fill="#e6e8ed" d="M1356.41 1143.51c14.78-7.77 33.28-18.62 47.21-27.9l3-2.01c1.96-1.29 3.45-2.55 5.28-3.88 3.25 1.96-5.24 5.77-6.13 6.74-5.6 5.92-12.91 8.28-19.45 13.36-1.26.98-9.17 5.78-11.07 6.81-13.54 7.33-21.59 11.59-31.84 23.56-3.38 3.95-6.31 5.37-11.22 6.62 8.51-9.99 19.24-20.6 27.99-30.66 4.5-5.17 12.64-14.72 17.49-18.91-.22 4.53-17.5 22.25-21.26 26.27"/><path fill="#8d929c" d="M341.827 1442.8c57.304-160.18 137.274-317.72 251.198-445.315a1087 1087 0 0 1 90.105-88.648c16.183-14.325 35.531-31.298 52.554-44.475-35.611 61.602-46.907 140.638-35.439 210.428 6.969 34.3 17.493 70.61 35.072 101.16 12.36 22.45 23.82 40.14 41.467 59.25 27.086 32.2 56.077 52.19 91.6 73.5-57.94 1.36-101.946 6.46-158.605 11.79-42.55 5.53-76.434 11.93-118.554 21.2a1042 1042 0 0 0-74.007 20.77c-60.645 19.39-122.389 44.69-175.391 80.34"/><path fill="#c8cbd2" d="M700.245 1074.79c6.969 34.3 17.493 70.61 35.072 101.16 12.36 22.45 23.82 40.14 41.467 59.25 27.086 32.2 56.077 52.19 91.6 73.5-57.94 1.36-101.946 6.46-158.605 11.79-42.55 5.53-76.434 11.93-118.554 21.2a1042 1042 0 0 0-74.007 20.77c-.139-.66-.278-1.32-.417-1.97a2300 2300 0 0 1 33.915-63.72c5.277-9.33 40.586-71.08 45.54-75.93 10.016-18.61 37.109-57.17 50.247-74.94 9.769-16.79 40.861-54.84 53.742-71.11"/><path fill="#8d929c" d="M735.317 1175.95c12.36 22.45 23.82 40.14 41.467 59.25 27.086 32.2 56.077 52.19 91.6 73.5-57.94 1.36-101.946 6.46-158.605 11.79-42.55 5.53-76.434 11.93-118.554 21.2 14.16-18.78 26.935-32.38 42.192-49.89l68.091-77.87c11.074-12.56 23.163-25.25 33.809-37.98"/><path fill="#c8cbd2" d="M776.784 1235.2c27.086 32.2 56.077 52.19 91.6 73.5-57.94 1.36-101.946 6.46-158.605 11.79l-2.23-1.49c19.766-24.72 47.929-62.22 69.235-83.8"/><path fill="#e6e8ed" d="M646.503 1145.9c2.341 3.96 4.844 14.21 6.09 19.13-12.68 13.96-26.604 27.19-39.477 41.06-3.749 4.05-12.01 14.46-16.86 14.75 10.016-18.61 37.109-57.17 50.247-74.94"/><path fill="#bb6628" d="m1848.83 466.506 1.73 2.336c-4.61 24.036-8.71 47.897-13.89 71.83-17.43 81.242-38 153.904-69.4 231.488-79.22 195.691-214.97 380.06-393.47 495.67a835.4 835.4 0 0 1-327.56 124.81c-82.886 12.7-158.272 10.64-240.841 11.29-124.979.99-253.64 15.12-371.528 58.22-34.773 12.72-103.204 43.08-132.752 65.96l-2.967-1.36c9.677-6.56 19.006-13.94 28.733-20.59 153.039-104.5 341.846-133.99 523.617-135.68 52.891-.49 102.517-1.47 155.338-7.45a839.6 839.6 0 0 0 320.15-102.48c233.21-131.83 395.2-376.606 477.53-626.827 10.6-32.214 19.53-64.214 28.58-96.862 3.86-21.277 11.87-48.125 16.73-70.355"/><path fill="#bb6628" d="m1742.62 520.243-.17 2.733c-25.62 18.988-51.39 37.082-79.76 51.969-128.55 67.441-280.73 93.512-424.55 100.288-89.85 4.233-166.84 2.728-256.701 18.399a815.5 815.5 0 0 0-329.619 139.37c-96.092 69.251-171.656 150.007-238.776 247.618a1344.5 1344.5 0 0 0-165.545 340.42c-4.434 13.48-17.764 52.34-19.83 64.17-.761.45-2.233 1.07-3.087 1.45-1.742-2.32-1.156-5.45-1.222-8.91 97.973-434.14 416.31-819.417 886.56-832.236 46.15-1.258 92.96-.402 138.82-1.847 166.33-5.243 352.6-28.742 493.88-123.424"/><path fill="#a25a2b" d="M223.36 1477.75c.066 3.46-.52 6.59 1.222 8.91.854-.38 2.326-1 3.087-1.45-3.849 13.51-25.975 102.24-28.292 105.57-.097-2.13 3.672-16.89 4.195-20.25 4.81-30.93 12.033-62.37 19.788-92.78"/><path fill="#522e19" d="M301.119 1528.11c-3.341 2.5-33.835 25.11-35.314 24.32.205-1.53 29.992-24.16 32.347-25.68z"/><path fill="#522e19" d="M1742.62 520.243c1.5-2.209 22.62-17.31 26.01-19.518-5.39 5.408-19.56 18.878-26.18 22.251z"/><path fill="#522e19" d="M1848.83 466.506c.49-2.343 1.86-12.13 3.31-13.647.3-.089.18-.106.39-.003.94 1.684-1.52 13.763-1.97 15.986z"/></svg>