<svg xmlns="http://www.w3.org/2000/svg" width="2048" height="2048" viewBox="0 0 2048 2048"><path fill="#272627" d="M0 0h2048v2048H0z"/><path d="m442.809 807.526 2.129-1.476c39.527-.708 79.376-.563 118.894-.356 1.925.01 3.609 2.757 2.128 1.296 3.223.961 3.373 1.199 6.671.74 2.642-2.929 9.98-2.125 14.157-2.084 36.095.351 72.376-.39 108.459.12-.038 18.654-1.269 60.137.341 76.935 2.471-23.246-1.366-50.324.933-73.804.067-.69 5.565-1.007 6.279-1.152l1.547-1.396c39.629-1.024 79.5-.56 119.161-.726.698-.003 1.822.556 2.105.68l.835 1.504c3.286.51 3.727.16 6.9-.689 3.616-2.424 109.141-1.472 121.969-1.367-.033 9.584-.549 26.66.518 35.676.48-9.956.242-20.446.11-30.419-.065-4.902 6.619-3.14 6.73-1.985 1.863 19.367-1.596 42.827.494 61.786 1.574-4.524.757-56.786.502-64.982 38.589-.11 77.479-.28 116.079-.131 3.8.014 4.34-.099 6.25 1.956 3 .539 3.55.597 6.59.187l1.38-1.812c27.81-1.594 88.38.511 119.11-.416l1.68 1.1.33.923c3.18.754 3.63.689 6.87-.008l1.1-1.524c10.15-.926 119.43-.942 121.63.368l.55 1.121c3.13.545 3.5.52 6.64-.045.49-1.065.79-.92 2.09-1.79 27.96-.945 56.76.439 84.82-.087 6.5-.122 31.6-.643 35.21 1.522 3.47.763 3.29.792 6.84.262 3.57-2.188 109.76-2.479 121.67-1.571 1.59 1.429 1.21.719 1.66 1.756.88.17 6.51.471 6.56.975 2.54 23.063-1.87 51.189.84 73.884 1.1-6.43 1.1-69.909-.23-76.824 38.63-.048 77.61-.187 116.26.029 3.86.021 4.86-.007 6.83 2.18 3.22.158 4.36-.423 6.2 1.241 1.17 13.426.46 37.726.44 51.877l-.11 95.697c-10.85.071-23.48.425-34.17.078.73 9.688.77 24.464.27 34.195.27 7.127 1.8 16.13-2.71 21.37l-3.89 1.26c-1.13 7.05-1.11 13.73-1.05 20.85.31 36.4-.27 72.9.19 109.3l41.45 38.66.03 53.16-1104.177-.02-245.371.1c-14.368.01-52.275.07-68.574-.02-.543-.44-1.086-.89-1.629-1.33l-.476-1.48-10.759-.12a3012 3012 0 0 1 .312-52.93 2004 2004 0 0 0 41.591-40.19c-.525-34.83.517-91.91-.306-129.11-.39-.49-.78-.99-1.171-1.49l-4.314-.35c-2.835-3.01-1.751-47.086-1.764-53.795l-34.457.054.023-149.298c15.26-.001 120.471-1.735 125.97 1.545 3.46.836 3.28.875 6.831.39"/><path fill="#bc8664" d="M1692.85 1141.31c0-42.72-.54-86.69.29-129.31 2.33-3.67 2.54.3 6.82-2.97 1.61-15.641-.62-37.184.67-54.07.59 11.072-.68 34.535 2.85 43.227l1.46.347c2-3.123 1.83-3.933 2.12-7.564.27 7.127 1.8 16.13-2.71 21.37l-3.89 1.26c-1.13 7.05-1.11 13.73-1.05 20.85.31 36.4-.27 72.9.19 109.3l41.45 38.66.03 53.16-1104.177-.02-245.371.1c-14.368.01-52.275.07-68.574-.02-.543-.44-1.086-.89-1.629-1.33l-.476-1.48c13.988-.84 36.033-.11 50.548-.12l99.219-.03 309.349-.1 954.181.09.04-53.05z"/><path fill="#c27443" d="M1734.43 807.882c3.22.158 4.36-.423 6.2 1.241 1.17 13.426.46 37.726.44 51.877l-.11 95.697c-10.85.071-23.48.425-34.17.078.73 9.688.77 24.464.27 34.195-.29 3.631-.12 4.441-2.12 7.564l-1.46-.347c-3.53-8.692-2.26-32.155-2.85-43.227l6.18-.226c6.78.582 20.06.173 27.33.179.59-48.872-.54-98.152.29-147.031"/><path fill="#c27443" d="M1215.09 807.634c3.18.754 3.63.689 6.87-.008 1.1 24.295-.08 50.04-.19 74.334 0 1.259-6.12 1.279-6.16.429-.9-23.929-1.4-50.641-.52-74.755"/><path fill="#c27443" d="M826.448 807.807c3.286.51 3.727.16 6.9-.689.204 24.631.42 50.135-.648 74.583-.034.775-6.215 1.082-6.213-.379.031-23.754-1.42-49.784-.039-73.515"/><path fill="#c27443" d="M1604.17 807.638c.88.17 6.51.471 6.56.975 2.54 23.063-1.87 51.189.84 73.884-.19.002-7 .492-7.02-.538-.58-24.29-1.09-49.942-.38-74.321"/><path fill="#c27443" d="M1345.24 807.591c3.13.545 3.5.52 6.64-.045.45 18.515.55 54.479-.33 74.083-.06 1.167-6.23 1.125-6.24.14-.14-24.176-1.21-49.974-.07-74.178"/><path fill="#c27443" d="M1086 807.652c3 .539 3.55.597 6.59.187 1.19 23.624.42 50.397-.3 73.92-.03 1.056-5.98.841-6 .016-.6-24.279-.93-49.681-.29-74.123"/><path fill="#c27443" d="M1474 807.191c3.47.763 3.29.792 6.84.262.39 6.176 1 72.274-.27 74.192-.34.527-.93.712-1.53.794-1.07.149-3.48.358-4.47-.513-1.3-1.134-.68-68.367-.57-74.735"/><path fill="#c27443" d="M435.978 807.136c3.46.836 3.28.875 6.831.39 1.672 22.93-.29 51.092-.503 74.142-.008.898-5.858.909-5.879-.034-.534-24.522-.814-49.839-.449-74.498"/><path fill="#c27443" d="M955.835 841.427c.48-9.956.242-20.446.11-30.419-.065-4.902 6.619-3.14 6.73-1.985 1.863 19.367-1.596 42.827.494 61.786-.064 3.335.27 7.376-.467 10.551-.335 1.308-6.081 1.004-6.151.408-1.372-11.815-.254-28.655-.716-40.341"/><path fill="#c27443" d="M565.96 806.99c3.223.961 3.373 1.199 6.671.74 1.426 23.46-.014 50.501-.329 73.947-.013.944-5.914.996-5.936.028a2287 2287 0 0 1-.406-74.715"/><path fill="#c27443" d="M695.588 882.701c2.471-23.246-1.366-50.324.933-73.804.067-.69 5.565-1.007 6.279-1.152.126 6.267.564 73.074-.387 73.846-1.129.916-3.29.782-4.6.887-.743.059-1.484.146-2.225.223"/><path fill="#5e5d66" d="m363.198 1011.36 1318.342-.06.02 134.98c13.47 12.88 27.1 25.58 40.89 38.12l-.05 35.94-36.9-.06-1364.379.1.031-35.28c13.977-12.83 28.151-27.13 41.779-40.44z"/><defs><linearGradient id="a" x1="1578.307" x2="973.799" y1="1387.605" y2="925.753" gradientUnits="userSpaceOnUse"><stop offset="0" stop-color="#9a9da9"/><stop offset="1" stop-color="#d2d4db"/></linearGradient></defs><path fill="url(#a)" d="m370.862 1017.9 233.167.07c42.726 0 87.748-.73 130.325.22 108.001-1.31 218.102-.08 326.276-.1l614.41-.04-.14 131.42 41.4 38.37.3 25.13-795.342-.17-226.986-.01c-39.46.03-84.509 1.03-123.657-.09-25.076 1.17-60.408.22-86.302.18l-155.524.02.034-25.51c13.998-12.49 28.11-26.66 42.02-39.61z"/><path fill="#dedfe4" d="m370.862 1017.9 233.167.07c42.726 0 87.748-.73 130.325.22 9.859 3.07 35.6 2.3 46.881 2.32l100.246-.33c7.777-.04 56.835-1.35 60.763 2.63-.124 8.24-6.384 8.11-10.23 13.87-1.581 2.37.557 5.41-2.664 8.86-3.515-4.29 2.431-2.15-2.738-5.76l-2.222.62c-1.055 2.2-3.372 8.42-4.519 9.51-4.68 4.44-14.226 4.69-19.027 9.64-3.317 3.43.769 5.01-3.234 8.14-4.088-.17-6.624-.99-9.673.82-.27 2.1-.566 4.21-.886 6.3-5.246 3.86-15.348 3.07-19.403 6.24l-.033 1.62 3.724 2.97c-2.253 4.31-10.354 11.88-15.122 13.54-1.491.52-6.761.18-8.594.07.054 3.74.593 7.79-1.218 10.88-2.417 1.19-2.527 1.1-5.225 1.57-5.942 7.64 5.814 15.34-8.264 15.93-7.419 6.2-.537 11.76-11.963 12.04-4.004 3.98-4.98 8.15-8.888 8.03-3.153-.1-5.192-.97-7.828.53-1.12 2.57-.869 3.42-.855 6.23l-3.714 2.48.089 2.02 3.608 2.52c-1.524 4.34-7.005 4.66-8.239 8.91-.409 1.4 3.011 11.27 3.089 11.19-3.668 3.67-7.781 9.65-11.577 12.97-4.572 4-3.626 11.14-8.924 12.91-16.832 5.63-39.154 2.94-56.876 3.15l-110.984.89c-7.844.02-34.253-.73-39.239 1.2-25.076 1.17-60.408.22-86.302.18l-155.524.02.034-25.51c13.998-12.49 28.11-26.66 42.02-39.61z"/><path fill="#dedfe4" d="M801.583 1199.25c1.401.1 3.695-.07 4.925.28 1.33.58 1.443 3.87 2.983 4.2 4.488.97 2.185 4.06 2.241 5.94.088 2.97 9.274.13 11.395 1.8-3.642.35-14.461.06-18.627.08-1.869-.02-23.538.08-23.979-.19-.228-.49-.072-1.34.077-1.86.507-1.76 3.24-1 3.533-3.09.013-.09.258-1.46.466-1.58 3.441-2.08 9.434-.01 13.433-1.02 1.152-.32 1.862-1.1 2.224-1.98.494-1.2.669-1.43 1.329-2.58"/><path fill="#dedfe4" d="M874.095 1093.4c1.477 1.1.92 2.31.781 4.2-1.428-1.1-.896-2.36-.781-4.2"/><path fill="#5e5d66" d="m1381.25 815.989 81.05.09.17 77.467c9.94-.233 20.69-.071 30.69-.087l-.07-77.478 99.72.152.04 77.616 30.26-.038c.14-25.903.14-51.807.01-77.711l99.22.225-.19 127.671-1401.237.031.085-127.839 103.259-.03.142 77.571 30.197-.022q.12-38.796-.152-77.591l99.675.07a6130 6130 0 0 0 .065 77.781l29.831.063.198-77.802 99.921.05-.11 77.265 30.194.033-.056-77.306 100.609-.064.041 77.334 30.109.2-.15-77.62 99.76.226.028 77.144 30.116.126-.19-77.551 99.495.427.24 77.11 30.12.117c.22-25.873.21-51.748-.02-77.62l99.1.088-.15 77.573 30.6-.015a5157 5157 0 0 0-.05-77.674l99.54.052.09 77.245 30.46.034-.26-77.307z"/><defs><linearGradient id="b" x1="1621.684" x2="421.316" y1="1145.75" y2="614.25" gradientUnits="userSpaceOnUse"><stop offset="0" stop-color="#8e929f"/><stop offset="1" stop-color="#f6f6fa"/></linearGradient></defs><path fill="url(#b)" d="m1370.11 824.005 85.33-.003-.04 76.387 44.11-.127.05-76.239 85.93.141-.02 76.372 44.4-.264-.33-76.213 86.48-.038.01 112.917-366.62.043-113.76-.061c-18.98-.008-40.29.517-59.02-.116-47.24 1.12-98.31.23-145.98.225l-272.164.036-180.788.05c-26.209.009-67.266 1.28-92.472-.256-51.713.613-104.497-.017-156.381.175l-.423-112.856 88.395.044.012 76.153 45.234.367-.05-76.577 84.516.206-.072 76.132 45.291-.129-.044-76.14 85.346.031-.016 76.513 45.156-.189-.04-76.413 85.244.11.199 76.422q22.275-.082 44.549.068l.156-76.749 85.163.147-.216 76.509 44.969-.023-.327-76.421 85.983-.034-.28 76.409c14.28.386 30.05-.005 44.44-.074l-.01-76.354 76.32-.077c4.09.057 5.02-.607 8.03 1.149.96 7.321.55 20.389.53 28.147l-.09 47.014c14.53-.03 29.79-.283 44.25.138l.11-76.478 85.54.008c.02 24.66.63 52.023-.06 76.459 14.61.059 29.23.044 43.85-.047z"/><path fill="#dedfe4" d="M485.226 936.859c6.305-1.994 87.711-.444 99.834-.521l402.005-.45c51.475-.04 102.965-1.155 154.425-1.033 3.49.009.28-3.32 4.56-6.54 4.61.107 2.88-.726 5.96 1.433l.37 3.894c3.29 2.768 19.15 1.99 24.51 1.998l-.26 1.164c-47.24 1.12-98.31.23-145.98.225l-272.164.036-180.788.05c-26.209.009-67.266 1.28-92.472-.256"/><path fill="#dedfe4" d="M1166.59 897.193c2.4 1.208 1.93 2.258 1.94 4.793.02 4.774-2.23 2.609-3.31 2.919l-1.36.401c-3.99-4.282-3.24-3.377 2.73-8.113"/><path fill="#dedfe4" d="M1156.47 907.59c2.68 1.279 4.37 1.509 3.27 4.749l-.43 1.367c-2.86-1.494-4.09-1.104-3.19-4.649z"/><path fill="#5e5d66" d="m904.941 954.502 783.739-.073.19 45.781-546.12.12-787.105.06.012-45.778z"/><defs><linearGradient id="c" x1="1679.928" x2="504.851" y1="993.507" y2="959.544" gradientUnits="userSpaceOnUse"><stop offset="0" stop-color="#9699a6"/><stop offset="1" stop-color="#e6e7ec"/></linearGradient></defs><path fill="url(#c)" d="m465.388 960.264 1217.502-.179-.05 33.851-858.351-.093-262.233.125c-41.1.015-91.084 1.489-131.256-.182-19.266 1.009-47.657.188-67.597.22l.169-33.805z"/><path fill="#dedfe4" d="m363.572 960.201 101.816.063c9.315 2.66 41.538.224 46.484 3.999-.684 4.27-1.441 5.066-3.666 8.927.575 5.238 3.666 4.003 4.083 9.923-1.017 3.055-.846 4.274-3.912 5.966-12.241 6.756-69.308.694-77.377 4.707-19.266 1.009-47.657.188-67.597.22z"/><path fill="#dedfe4" d="M529.605 968.27c5.643 4.944-4.055 6.573-7.575 6.52-3.744-3.274 4.021-2.723 6.657-5.558z"/><path fill="#dedfe4" d="M521.047 975.516c2.5 2.19 2.875 8.607 1.688 10.04l-.48-.455c-3.077-3.846-5.681-2.489-1.208-9.585"/><path fill="#dedfe4" d="M512.116 969.547c3.425-.152 6.318-1.698 6.905 2.037-2.361 1.474-4.948 3.028-6.397-.799z"/><path fill="#dedfe4" d="M519.596 964.308c3.519-.441 6.931-2.183 5.617 1.9-3.311.433-3.622.685-5.617-1.9"/><path fill="#dedfe4" d="M517.459 961.997c.536-.19 1.091-.484 1.413-.332.284.44.176.665.192 1.335-.511.129-.678.248-1.106.149-.352-.377-.301-.514-.499-1.152"/></svg>