<svg xmlns="http://www.w3.org/2000/svg" width="2048" height="2048" viewBox="0 0 2048 2048"><path fill="#222224" d="M0 0h2048v2048H0z"/><path fill="#9d5a31" d="M1005.75 573.439c9.64-1.158 34.95-.382 44.52.364 67.82 5.294 118.8 22.269 178.65 52.748 21.29-12.792 46.37-22.34 69.95-30.297a413.1 413.1 0 0 1 282.39 3.911c21.41 7.992 39.26 16.797 59.72 26.941a460.3 460.3 0 0 1 157.09-49.013c26.45-3.468 47.11-2.997 73.72-3.042 24.94-.14 49.87-.062 74.8.237 12.37.157 53.86-2.548 61.38 3.217.72 1.32 1.7 3.569 1.49 5.124-12.27 93.212-72.78 189.781-164.14 221.854-3.61 1.266-15.13 1.382-18.78 1.529 15.6 33.939 23.2 46.223 34.37 83.769 36.18 121.599 24.51 239.769-35.36 351.239 27.08.88 39.6 7.47 62.42 22.46a260.6 260.6 0 0 1 93.26 107.11c8.42 17.55 31.66 82.55 26.13 98.38-9.3 5.26-63.59 3.47-77 3.39-42.35-.23-84.99 1.61-127.11-2.62-56.04-5.62-102.71-24.78-152.7-48.76-131.45 70.83-277.94 70.05-409.27.12-64.87 35.25-124.15 49.03-197.03 53.67-85.415 1.28-146.005-14.11-222.27-53.06-26.601 13.11-48.096 23.62-76.428 32.33-120.429 37.03-228.06 23.87-338.637-33.32-55.915 32.13-127.11 49.91-191.733 51.74-55.877.3-111.775-.22-167.65.32-14.149.13-5.154-27.78-3.33-35.6a291.3 291.3 0 0 1 76.015-137.1c20.336-20.53 57.895-50.32 86.955-57.49 3.203-.79 13.649-.72 17.409-.72-77.187-142.74-75.277-291.522-1.494-434.801-24.457-2.027-31.961-4.922-53.49-17.79a255.96 255.96 0 0 1-91.75-94.433c-18.487-32.308-30.544-66.621-37.103-103.2-.887-4.95-1.086-8.567.235-13.44 6.854-7.416 83.832-3.326 98.264-4.115 98.819-5.404 169.66 7.796 257.774 51.486a453.6 453.6 0 0 1 60.811-26.527c85.756-30.319 181.837-35.69 269.151-8.609 32.723 10.149 54.563 20.746 84.829 35.246 63.608-33.002 121.953-48.974 193.942-53.248"/><path fill="#222224" d="M1228.57 632.323a438 438 0 0 1 81.23-33.973c118.46-36.403 222.55-22.169 330.9 35.205 75.37-38.945 149.35-56.01 234-53.457 7.31.22 15.02.005 22.36.01l107.32.151c-2.28 52.49-40.43 128.491-77.45 165.06-21.37 21.1-53.57 46.042-83.56 55.469-3.19 1.002-21.9 1.165-26.44 1.255 14.51 23.144 28.33 56.849 36.65 82.897 31.21 97.781 29.86 200.25-6.03 296.63-8.72 23.41-19.14 43.52-30.76 65.65 5.05.47 23.53.22 26.21 1.14 95.41 33.06 147.74 129.41 160.58 219.33-53.38 1.3-107.62.21-161.08.35-69.08.18-130.99-21.67-191.83-52.45-64.05 35.94-133.08 52.72-206.42 53.58-72.48.61-139.63-18.31-202.83-53.33-18.72 10.66-43.24 21.57-63.44 28.92a437.16 437.16 0 0 1-281.161 4.49c-29.5-9.77-47.565-19.71-74.927-32.49-26.182 12.91-48.914 23.64-76.808 32.62a420.4 420.4 0 0 1-263.287-.89c-28.214-9.54-48.649-19.37-74.903-32.83-55.216 32.32-122.443 48.84-186.032 52.2-20.392 1.07-47.103.32-67.978.32l-108.505-.01c9.927-89.93 75.55-185.79 162.741-219.32 2.391-.92 21.645-1.25 26.032-1.58-17.274-33.07-31.335-59.01-41.495-95.5-34.72-124.69-20.995-236.091 40.36-348.687-5.358-.54-21.677-.983-25.355-1.885-17.827-4.372-44.134-20.893-58.296-31.839-59.136-45.707-93.754-116.133-103.66-188.986 76.226 3.431 154.616-7.564 230.153 7.54 43.942 8.786 82.869 23.75 122.184 45.244 60.015-34.991 138.599-52.456 207.722-53.674 51.763-3.004 118.778 13.259 165.914 33.771 13.071 5.688 28.055 13.339 40.978 19.806 103.746-54.949 221.573-71.252 334.723-35.71 29.45 9.249 54.75 21.122 82.19 34.973"/><path fill="#dbdadb" d="M1003.36 612.389c69.72-4.089 138.63 13.356 200.66 44.525-45.55 29.15-86.35 75.576-119.57 117.51-52.3-16.128-129.518-9.776-177.418 16.267-130.303 70.846-168.207 236.779-104.787 363.979-4.987 6.94-10.319 13.93-15.43 20.8-31.033 38.26-58.314 57.44-104.357 72.9-38.76-60.35-54.563-114.24-59.688-185.21-8.179-113.277 19.299-224.27 95.645-310.373 80.776-91.098 163.853-131.398 284.945-140.398"/><path fill="#dbdadb" d="m1365.58 802.944 1.44-.222c4.43 2.24 14.93 24.058 17.8 29.506 48.73 92.529 54.37 234.822 23.23 333.202-30.33 95.77-113.1 187.09-203 231.92-69 34.41-149.74 46.57-226.594 37.04-27.085-3.36-54.308-11.39-80.21-19.96-18.351-6.57-31.349-12.47-48.904-20.84 47.871-34.02 80.897-70.55 114.67-118.17a259.87 259.87 0 0 0 180.848-18.59c126.96-62.86 165.57-238.15 104.94-359.486 31.99-49.74 60.65-73.459 115.78-94.4"/><path fill="#dbdadb" d="M951.967 802.05c3.524 2.078 13.622 21.671 16.17 26.591 60.583 117.018 64.753 277.669.493 393.899-37.388 67.63-108.9 137.97-177.426 173.17-67.697 34.78-152.607 48.68-227.999 38.21-27.772-3.68-53.556-11.26-79.925-19.82-17.505-6.66-31.752-13.21-48.48-21.51 48.661-33.97 81.619-69.12 115.224-117.55 61.268 14.44 126.943 11.62 183.391-18.61 122.394-65.54 166.351-239.47 100.605-359.38 32.788-54.243 60.236-73.858 117.947-95"/><path fill="#dbdadb" d="M1428.77 612.457c67.6-1.859 127.12 17.912 187.76 45.08-51.74 35.838-78.21 68.797-116.41 117.295-65.3-19.478-145.82-8.276-202.17 30.095-67.85 46.204-111.72 135.44-113.78 216.803-.92 35.96 14.5 100.74 34.81 129.98-7.44 10.24-14.04 18.77-22.03 28.63-27.3 31.53-58.64 55.25-99.25 66.78-41.8-63.3-56.75-119.88-61.57-194.9-10.28-159.626 72.11-311.742 210.95-391.014 52.02-29.702 121.47-46.3 181.69-48.749"/><path fill="#dbdadb" d="M579.822 613.598c72.584-5.643 142.921 11.701 207.74 43.911-49.255 31.986-83.519 72.039-119.463 117.324a248.02 248.02 0 0 0-183.26 19.888c-71.998 39.153-117.317 119.431-127.237 199.095-6.381 51.244 5.371 113.804 30.141 158.594-3.874 5.67-8.285 11.58-12.316 17.19-27.605 36.25-60.272 62.02-103.707 76.32-100.477-146.84-82.721-357.519 31.986-489.883 75.784-87.449 160.646-132.423 276.116-142.439"/><path fill="#dbdadb" d="M1776.36 804.037c3.29.494 13.76 21.891 15.96 25.967 169.24 314.296-116.08 697.676-468.56 586.396-19.69-6.35-36.88-14.31-55.22-23.65 48.17-33.98 80.27-69.03 113.65-117.24 58.88 10.43 116.42 10.95 171.64-16.43a244.3 244.3 0 0 0 121.92-141.51c24.05-71.4 20.35-152.795-13.4-220.491 27.07-46.082 64.2-75.132 114.01-93.042"/><path fill="#dbdadb" d="m536.8 803.074 2.282.496c4.541 5.516 13.448 22.085 16.942 28.833 30.883 59.637 43.665 125.283 43.858 192.017a464.3 464.3 0 0 1-9.157 91.89c-17.018 86.11-49.662 140.29-111.154 202.2-72.434 72.94-154.988 110.95-257.801 116.04-30.332 1.5-67.662.36-98.52.4l-38.281.02c16.225-55.07 49.702-104.9 97.402-137.64 26.774-18.38 25.237-12.8 54.14-16.28a229.3 229.3 0 0 0 85.501-27.99c68.246-38.44 114.026-111.47 123.703-188.67 6.867-54.78.099-118.247-27.297-166.554 31.861-48.691 63.323-75.276 118.382-94.762"/><path fill="#dbdadb" d="M1825.3 614.408c13.28-1.199 36.09-.594 49.86-.584l87.6.105-.31 1.11c-15.76 56.229-44.78 100.857-92.37 135.475-28.07 20.417-25.13 13.743-56.06 17.501a242.8 242.8 0 0 0-87.55 28.889c-74.43 42.289-123.55 130.714-127.48 215.286-2.17 46.55 8.1 100.93 31.42 141.57-15.3 21.24-29.71 37.96-49.87 55.03-22.9 19.1-41.68 26.91-68.71 37.07-36.77-54.16-55.93-117.03-60.92-181.93-8.84-114.96 17.79-216.017 93.7-304.308 74.46-86.599 165.79-136.507 280.69-145.214"/><path fill="#dbdadb" d="M85.71 614.003c32.075-1.047 65.136.482 97.278-.184 11.407-.236 24.321-.191 35.695.487a380.7 380.7 0 0 1 153.495 43.065 446 446 0 0 0-63.461 53.772c-20.288 21.069-34.709 39.088-52.19 62.337-16.539-4.122-31.184-5.482-47.956-7.349-2.184-.243-9.538-3.931-11.764-5.227-56.501-32.889-93.261-84.501-111.097-146.901"/><path fill="#dbdadb" d="M1790.68 1277.6c8.17.91 16.37 2.81 24.74 3.6 15.65 1.64 26.1-.48 40.1 8.02 53.79 32.64 90.76 85.41 107.32 145.37-35.42.84-75.14-.09-111.09.04-63.97.94-115.94-14.71-173.04-41.58 46.84-35.62 78.42-65.86 111.97-115.45"/><path fill="#9d5a31" d="M818.11 941.622c4.325 5.856 7.763 23.996 9.152 31.321 7.954 41.957 5.36 92.697-8.526 133.377-3.51-3.98-7.062-22.4-8.219-28.24-8.926-45.11-7.338-92.789 7.593-136.458"/><path fill="#222224" d="M817.062 966.146c.123-2.705.012-2.551 1.367-4.869 2.679 3.349 3.488 13.456 4.399 18.037 7.048 35.406 4.043 68.006-2.789 102.966-.299 2.12-.227 1.48-1.289 3.49l-1.321-1.44c-8.83-26.95-9.009-96.593-.367-118.184"/><path fill="#241f26" d="M817.062 966.146c2.422 1.374 2.375 1.131 1.305 3.739-1.184-1.192-1.054-2.101-1.305-3.739"/><path fill="#9d5a31" d="M1232.29 941.69c3.36 3.643 7.37 23.154 8.37 28.446 7.59 40.234 7.29 96.294-7.47 135.164-18.22-44.67-18.31-118.832-.9-163.61"/><path fill="#222224" d="M1232.26 960.692c2.28 2.346 3.45 11.056 4.13 14.827 6.67 37.211 4.97 74.131-3.12 110.941-12.66-29.2-9.98-94.837-1.01-125.768"/><path fill="#9d5a31" d="M1645.04 942.643c4.42 7.371 7.28 21.151 8.89 29.589a282.7 282.7 0 0 1-6.91 134.228c-1.14-1-1.51-1.07-1.98-2.55-15.01-47.03-17.48-116.292 0-161.267"/><path fill="#222224" d="M1645.1 961.624c2.14 3.34 3.8 12.893 4.49 17.026 5.63 33.71 5.82 74.28-2.78 107.68-2.2-2.67-3.8-13.01-4.48-16.78a271.5 271.5 0 0 1 2.77-107.926"/><path fill="#9d5a31" d="M402.122 942.7c2.12 3.741 3.898 9.254 4.971 13.562 10.234 41.084 10.37 86.238 2.789 127.878-1.104 6.06-3.383 16.65-6.106 21.48-18.671-46-17.383-116.227-1.654-162.92"/><path fill="#222224" d="m400.153 969.354 4.095-2.43c4.71 26.717 9.789 87.806.623 113.066.012 2.25.025 1.57-.658 3.79l-1.233-.8c-10.335-29.69-8.9-83.063-2.827-113.626"/><path fill="#241f26" d="M404.169 1073.31c.988.57.646 3.92.657 4.76l.045 1.92c-1.723-2.98-2.037-3.56-.702-6.68"/><path fill="#241f26" d="M400.153 969.354c.26-1.322.972-6.813 2.336-7.537 1.319.573 1.576 4.011 1.759 5.107z"/><path fill="#9d5a31" d="M1024.93 1175.53c2.38 3.41 9.7 22.84 12.16 28.46a357 357 0 0 0 22.89 43.69c-12.46.62-21.69 1.19-34.23 1.22-10.19.21-23.75-1.14-33.656-3.26 5.514-9.18 10.726-18.03 15.376-27.71 4.48-9.3 8.62-18.77 12.41-28.38 1.75-4.55 3.66-9.37 5.05-14.02"/><path fill="#222224" d="M1025.25 1190.69c1.99 3.11 6.7 15.3 8.85 19.78 5.31 11.03 11.07 21.67 16.46 32.57-8.24.08-16.48.11-24.73.09-8.81-.19-15.69-.74-24.42-1.39 6.16-11.96 13.64-25.71 18.61-38.09z"/><path fill="#9d5a31" d="M1015.1 801.474c11.03-.04 28.32.05 38.9 1.761l4.53.748a511 511 0 0 0-30.03 64.768c-1.16 2.825-1.81 4.827-3.16 7.683-6.65-22.795-21.37-53.819-33.312-74.288z"/><path fill="#222224" d="M1001.82 807.217c8.6-.325 36.42-.838 44.28.357l3.91.614c-3.87 7.937-7.7 15.75-11.51 23.728l-1.98 4.127a392 392 0 0 0-4.44 9.595c-1.73 5.075-4.21 10.385-6.28 15.359-8.3-19.524-15.65-34.961-23.98-53.78"/><path fill="#9d5a31" d="M1438.97 1175.48c2.66 2.33 10.41 23.01 12.52 28.02 6.86 16.3 14 28.44 22.52 43.54-11.42 1.42-20.26 1.31-31.68 1.33-11.13-.51-19.71-.72-30.81-2.67l-4.11-.76c11.8-19.56 24.33-47.68 31.56-69.46"/><path fill="#222224" d="M1439.31 1190.69c2.26 2.44 19.67 41.75 23.64 48.84l1.7 2.98c-7.92.32-15.06.32-22.97.32-8.75-.4-17.17-.73-25.88-1.72 3.32-6.24 6.61-12.28 9.65-18.67l2.05-4.31c1.36-2.88 2.82-5.88 4.14-8.76l1.79-3.97c2.17-4.85 3.42-7.8 5.19-12.82z"/><path fill="#9d5a31" d="M610.061 1175.57c2.244 2 8.216 19.41 10.09 23.89 7.099 16.95 15.394 32.28 24.693 48.1-9.215.73-20.466 1.87-29.593 1.24-13.232-.42-24.303-.82-37.404-2.8 13.859-27.47 21.467-39.83 32.214-70.43"/><path fill="#222224" d="M610.341 1191.56c2.787 2.48 4.76 9.81 6.593 13.92a346 346 0 0 0 19.198 37.44c-7.291.27-14.587.37-21.882.31-10.024-.15-17.709-.62-27.664-1.28 8.148-17.16 16.111-32.86 23.755-50.39"/><path fill="#9d5a31" d="M1421.74 801.454c17.87-.609 32.96.48 50.61 1.814a426 426 0 0 0-15.7 30.487 457 457 0 0 0-11.79 27.949c-1.76 4.133-3.1 8.458-5.06 12.504l-.65 1.394c-4.91-14.331-9.76-27.907-16.28-41.597-5.14-10.79-11.22-21.236-16.36-31.88 5.35-.145 9.9-.301 15.23-.671"/><path fill="#222224" d="M1415.23 806.899c18.82-.253 29.66-.076 48.33 1.153-6.06 11.449-12.17 23.759-17.19 35.702-2.32 5.565-4.86 11.41-6.89 17.071-2.83-8.018-5.47-14.91-8.98-22.677l-4.07-8.789a335 335 0 0 0-11.2-22.46"/><path fill="#9d5a31" d="M579.105 802.521a362.5 362.5 0 0 1 64.149 1.395c-8.117 12.726-17.523 33.192-23.085 47.29-2.589 7.306-6.131 16.936-9.175 23.913-8.204-19.909-14.994-39.978-25.252-59.004-1.803-3.342-6.254-10.26-6.637-13.594"/><path fill="#222224" d="M588.131 807.37c17.428-.82 29.184-.171 46.128.73l-.486 1.028c-2.623 5.682-5.52 11.337-8.289 16.972a302 302 0 0 0-7.58 16.334c-2.43 5.644-4.941 11.736-6.984 17.546-2.97-6.466-6.645-16.483-9.486-23.407-3.067-7.475-11.262-22.537-13.303-29.203"/></svg>