<svg xmlns="http://www.w3.org/2000/svg" width="2048" height="2048" viewBox="0 0 2048 2048"><path fill="#21222a" d="M0 0h2048v2048H0z"/><path d="m2008.21 37.107.74.996c-.44 3.837-5.47 14.188-7.32 18.349-20.03 45.101-44.25 89.372-74.87 128.163-30.5 38.638-65.6 72.727-98.9 108.797l-181.74 196.344c-24.42 26.057-48.3 53.235-72.49 79.531a29816 29816 0 0 0-203.8 221.808c-70.75 77.261-144.41 155.091-213.78 233.245l329.29 311.79c4.44-3.53 8.78-7.26 12.98-11.06 30.6-27.66 62.92-53.74 93.14-81.79l154.69-4.02c-6.49 7.34-13.59 14.37-20.43 21.4-59.02 60.59-120.45 119.13-179.44 179.7 23.92 27.28 51.17 54.95 76.03 81.68 41.6 45.19 83.55 90.06 125.85 134.59l82.07 85.45c14.67 15.07 30.6 32.13 46 46.23 9.35-9.08 19.72-21.16 29.21-30.92l72.21 77.34c-21.48 24.75-44.63 49.2-66.83 73.33-24.23 26.33-49.05 54.71-74.21 80.01-8.04-6.28-23.52-22.22-31.23-29.89-15.57-15.49-32.95-31.86-47.76-47.93 10.03-10.2 19.44-19.87 29.02-30.48-23.5-23.46-48.64-46.69-72.69-69.75-50.91-48.91-102.08-97.56-153.5-145.94l-78.54-74.7c-12.74-12.05-27.06-26.2-40.31-37.49-13.34 11.7-26.17 25.19-39.26 37.48a7383 7383 0 0 0-166.55 163.6l1.35-163.7c28.67-27.58 63.27-58.02 92.91-84.78-5.51-7.39-23.48-26.02-30.62-33.79l-64.4-70.23-214.46-235.52-186.41 204.92c-39.095 42.95-80.445 90.63-120.411 132.15a4581 4581 0 0 1 93.952 87.66q.853 81.96 3.355 163.89c-17.926-15.39-45.537-45.52-63.757-63.46a15398 15398 0 0 0-141.543-138.21c-9.633 7.44-22.847 20.24-32.056 28.83a5972 5972 0 0 0-48.628 45.78l-142.938 136.2c-15.887 14.6-32.937 31.99-48.561 47.18a9478 9478 0 0 1-73.235 70.09 4066 4066 0 0 0 29.613 30 3275 3275 0 0 0-78.949 78.52l-92.997-100.28c-16.037-17.38-33.615-35.8-48.552-53.9a7910 7910 0 0 0 72.305-76.53 895 895 0 0 0 30.409 30.7c14.559-16.33 34.002-35.18 49.546-51.19l88.262-91.6 109.21-114.34c28.263-30.01 57.086-61.64 85.751-91.01-17.852-14.59-40.205-38.5-57.358-55.14a7195 7195 0 0 1-143.698-144.49c41.18-.28 82.619 2.13 123.801 3.09 10.703.25 19.964-.03 30.641-.91 7.378 8.61 23.867 23.38 32.472 31.53l66.135 62.02c39.521-34 85.952-80.25 124.303-116.69l207.637-198.65-502.49-545.731a19521 19521 0 0 1-181.916-197.535c-15.122-16.676-30.608-33.038-46.033-49.437C105.201 171.82 67.032 108.474 37.985 36.361c60.183 24.653 121.963 54.175 172.77 95.418 39.261 31.87 76.85 67.97 113.961 102.408a14243 14243 0 0 1 187.925 175.586l510.949 482.114c23.03-19.923 47.96-44.521 70.29-65.647l127.21-120.644 403.45-379.869 108.05-100.862c42.13-39.48 88.83-83.164 135.82-116.203 42.16-29.648 92.15-52.395 139.8-71.555"/><path fill="#9c9fa9" d="M1956.85 77.241c3.06-1.901 1.93-2.004 4.61-1.85-2.63 5.133-42.77 44.849-49.25 51.413l-173.39 174.207L700.94 1345.77c-5.182.78-33.494-.25-40.272-.33l-80.497-.21c20.292-21.61 50.822-48.56 73.075-69.87l149.247-143.06a61511 61511 0 0 1 445.627-424.339l365.15-345.728c70.98-67.254 142.18-137.293 216.22-201.005 31.04-26.714 89.95-67.635 127.36-83.987"/><path fill="#ecdcd3" d="M1956.85 77.241c3.06-1.901 1.93-2.004 4.61-1.85-2.63 5.133-42.77 44.849-49.25 51.413l-173.39 174.207L700.94 1345.77c-4.231-.43-10.097-.42-14.475-.54l924.005-922.228 247.08-248.83 70.36-69.562c7.15-6.976 23.73-20.855 28.94-27.369"/><path fill="#9c9fa9" d="M1670.33 1258.94c.68.17 1.54.24 2.01.77-.29 1.51-26.97 27.32-30.11 30.39a12074 12074 0 0 0-215.37 210.45c-53.35 54.04-104.18 110.41-159.96 161.94-3.84 3.56-5.33 6.27-10.04 8.99l-2.32-.03c-1.51-2.53-.88-5.17-.67-8.25 1.01-23.17 1.74-46.34 2.19-69.52 33.05-30.42 69.26-62.62 100.93-94.17l.37-140.98c50.48-.03 109.41 1.39 159.39-1.3l-15.03-8.13c32.75-27.33 66.7-60.58 98.98-89.32 22.75-.09 46.99.03 69.63-.84"/><path fill="#ecdcd3" d="m1638.73 1288.35 3.5 1.75a12074 12074 0 0 0-215.37 210.45c-53.35 54.04-104.18 110.41-159.96 161.94-3.84 3.56-5.33 6.27-10.04 8.99l-2.32-.03c-1.51-2.53-.88-5.17-.67-8.25 8.18-9.31 21.11-21.29 30.14-30.34l73.88-73.23c92.08-92 185.71-182.44 280.84-271.28"/><path fill="#ecdcd3" d="M1670.33 1258.94c.68.17 1.54.24 2.01.77-.29 1.51-26.97 27.32-30.11 30.39l-3.5-1.75c9.42-8 23.11-23.07 31.6-29.41"/><path d="M1374.52 1378.03c34.11-.18 69.05-.48 103.1-.14a3035 3035 0 0 1-52.86 52.36c-16.74 16.77-34.51 33.2-50.9 50.29z"/><path fill="#9c9fa9" d="M392.088 1276.43c-2.393-2.25-17.186-15.33-16.84-16.81.36-.4.784-.46 1.333-.66 23.394.49 47.793 1.24 71.141.49 30.547 27.01 60.62 57.46 91.349 85.24l2.363 2.36c-.735 4.69-12.258 7.67-16.722 10.09 30.764 3.33 70.563.43 102.022 1.2 8.333.21 25.286-.51 32.78.52 10.309-.11 20.62-.14 30.93-.11-.289 47.3-.311 94.59-.066 141.88l16.67 15.97c6.958 6.89 14.012 13.1 20.758 19.71 17.43 16.62 43.439 42.38 61.522 57.35l2.146 45.81c.234 5.46.358 18.05 1.056 23.02.544 2.78.389 8.16.417 11.22-64.223-55.27-124.6-126.72-185.011-187.06-71.028-70.94-143.661-140.45-215.848-210.22"/><path fill="#bdc1c7" d="M392.088 1276.43c-2.393-2.25-17.186-15.33-16.84-16.81.36-.4.784-.46 1.333-.66 23.394.49 47.793 1.24 71.141.49 30.547 27.01 60.62 57.46 91.349 85.24-3.328 5.16-15.684 8.71-20.641 13.23-5.928 5.42-10.237 12.67-15.321 18.55l4.662 4.62c2.526 3.11 9.407 9.36 12.674 12.45 8.989 8.49 17.686 17.57 26.825 25.84l39.363 38.37c3.168 3.81 22.977 22.36 27.157 26.32 5.446 5.53 10.37 10.41 15.987 15.74l40.111 39.43c5.532 5.47 13.964 14.58 19.421 19.35q3.197-7.305 6.16-14.7c3.71-9.11 7.999-18.23 11.579-27.29 6.958 6.89 14.012 13.1 20.758 19.71 17.43 16.62 43.439 42.38 61.522 57.35l2.146 45.81c.234 5.46.358 18.05 1.056 23.02.544 2.78.389 8.16.417 11.22-64.223-55.27-124.6-126.72-185.011-187.06-71.028-70.94-143.661-140.45-215.848-210.22"/><path fill="#bdc1c7" d="M707.048 1516.6c6.958 6.89 14.012 13.1 20.758 19.71 17.43 16.62 43.439 42.38 61.522 57.35l2.146 45.81c.234 5.46.358 18.05 1.056 23.02-25.627-26.73-53.464-53.15-78.786-79.71-5.869-6.08-18.469-18.67-24.435-24.19q3.197-7.305 6.16-14.7c3.71-9.11 7.999-18.23 11.579-27.29"/><path fill="#9c9fa9" d="M707.048 1516.6c6.958 6.89 14.012 13.1 20.758 19.71-6.699 13.68-8.126 35.22-14.062 46.47-5.869-6.08-18.469-18.67-24.435-24.19q3.197-7.305 6.16-14.7c3.71-9.11 7.999-18.23 11.579-27.29"/><path fill="#ecdcd3" d="M395.184 1274.81c8.704 7.15 20.418 18.96 28.849 26.96a3108 3108 0 0 1 49.847 47.45c7.662 7.39 21.076 20.91 29.229 27.25l4.662 4.62c2.526 3.11 9.407 9.36 12.674 12.45 8.989 8.49 17.686 17.57 26.825 25.84l39.363 38.37c3.168 3.81 22.977 22.36 27.157 26.32 5.446 5.53 10.37 10.41 15.987 15.74l40.111 39.43c5.532 5.47 13.964 14.58 19.421 19.35 5.966 5.52 18.566 18.11 24.435 24.19 25.322 26.56 53.159 52.98 78.786 79.71.544 2.78.389 8.16.417 11.22-64.223-55.27-124.6-126.72-185.011-187.06-71.028-70.94-143.661-140.45-215.848-210.22z"/><path fill="#ecdcd3" d="M392.088 1276.43c-2.393-2.25-17.186-15.33-16.84-16.81.36-.4.784-.46 1.333-.66 1.574.76 3.977 2.23 5.557 2.55 2.844.57 5.844 7.1 7.355 7.58 2.39-1.88 1.82 2.75 5.691 5.72z"/><path fill="#bdc1c7" d="M659.514 1358.86c10.309-.11 20.62-.14 30.93-.11-.289 47.3-.311 94.59-.066 141.88l16.67 15.97c-3.58 9.06-7.869 18.18-11.579 27.29a507 507 0 0 1-6.16 14.7c-5.457-4.77-13.889-13.88-19.421-19.35l-40.111-39.43c-5.617-5.33-10.541-10.21-15.987-15.74 5.808-13.86 12.877-31.11 16.881-45.62 4.981 5.29 10.663 10.36 15.823 15.51l27.42 27.27c-.102-27.6-.868-72.68-1.345-101.7-.497-.53-.994-1.07-1.491-1.6-7.018-.97-19.27-.49-26.742-.42 4.633-12.04.315-17.62 15.178-18.65"/><path fill="#9c9fa9" d="M630.671 1438.45c4.981 5.29 10.663 10.36 15.823 15.51-4.987 12.43-11.053 35.04-16.717 45.85-5.617-5.33-10.541-10.21-15.987-15.74 5.808-13.86 12.877-31.11 16.881-45.62"/><path d="M569.017 1377.76c29.172-.11 74.76 2.09 102.061.17.497.53.994 1.07 1.491 1.6.477 29.02 1.243 74.1 1.345 101.7l-27.42-27.27c-5.16-5.15-10.842-10.22-15.823-15.51-11.073-10.74-21.349-20.55-32.308-31.56-8.319-9.04-20.386-20.26-29.346-29.13"/><path fill="#bdc1c7" d="M526.547 1358.95c12.106-.21 26.075.33 38.408.38l-.523 1.91-.329 1.26c-5.263 19.37-11.518 37.84-16.833 56.88-9.139-8.27-17.836-17.35-26.825-25.84-3.267-3.09-10.148-9.34-12.674-12.45 6.297-9.79 9.411-14.8 18.776-22.14"/><path fill="#bdc1c7" d="M598.363 1406.89c10.959 11.01 21.235 20.82 32.308 31.56-4.004 14.51-11.073 31.76-16.881 45.62-4.18-3.96-23.989-22.51-27.157-26.32 2.571-11.55 5.101-23.17 7.646-34.73l.959-4.01.956-4c.719-2.95 1.273-5.21 2.169-8.12"/><path fill="#bdc1c7" d="M1101.15 1104.12c-2.68-3.3-2.71-2.28-2.8-5.69 2.97-5.34 45.63-44.74 53.44-53.4 51.32 49.43 104.67 101.71 156.97 149.94 1.08 1.04 2.17 2.08 3.24 3.12l83.37 79.47c4.27 3.94 33.4 30.63 35.78 33.75 11.1 9.65 24.58 23.27 35.7 33.83-14.32-.15-28.63-.15-42.95.01-23.64.03-50.68.01-74.24.85l-1.63.5-1.21-.67c-6.44-4.77-21.31-20.32-27.64-26.64-15.75-15.75-31.6-31.41-47.54-46.96l-86.22-85.44c-23.27-22.69-54.77-52.22-76.66-75.81-2.32-2.07-5.32-5.31-7.61-6.86"/><path fill="#9c9fa9" d="M1395.37 1277.56c4.27 3.94 33.4 30.63 35.78 33.75 11.1 9.65 24.58 23.27 35.7 33.83-14.32-.15-28.63-.15-42.95.01-23.64.03-50.68.01-74.24.85l3.48-1.98c6.18.96 11.19.66 17.44.68 8.55-22.02 15.8-45.42 24.79-67.14"/><path fill="#bdc1c7" d="M1423.9 1345.15c.37-2.53 1.01-5.56 1.5-8.14l.88-4.47c1-4.89 1.77-19.15 4.87-21.23 11.1 9.65 24.58 23.27 35.7 33.83-14.32-.15-28.63-.15-42.95.01"/><path fill="#9c9fa9" d="M1308.76 1194.97c1.08 1.04 2.17 2.08 3.24 3.12-11 22.73-21.37 54.45-29.7 78.48-13.91-13.73-29.98-29.21-43.28-43.27 17.7-9.9 35.79-19.48 53.49-29.41 5.49-3.08 10.55-6.5 16.25-8.92"/><path fill="#ecdcd3" d="M1101.15 1104.12c-.29-1.94-.93-3.8-1.18-5.53l.22-.19c-.31-.02 16.7 9.6 8.57 12.58-2.32-2.07-5.32-5.31-7.61-6.86"/><path fill="#9c9fa9" d="M507.173 1463.92c7.878 6.22 46.027 38.48 51.547 40.97l2.845 3.13c-.842 4.73-60.506 62.14-67.802 69.32L294.94 1772.76l-46.307 45.67c-4.505 4.41-19.978 20.35-24.628 22.03-2.074-1.12-2.209-1.15-4.11-2.56-3.47-5.43-29.909-29.22-36.35-35.12a38412 38412 0 0 0 323.628-338.86"/><path fill="#ecdcd3" d="M219.895 1837.9c15.429-16.95 42.487-41.96 59.641-58.68l103.194-101.28 123.527-121.67c16.603-16.25 35.623-36.31 52.463-51.38l2.845 3.13c-.842 4.73-60.506 62.14-67.802 69.32L294.94 1772.76l-46.307 45.67c-4.505 4.41-19.978 20.35-24.628 22.03-2.074-1.12-2.209-1.15-4.11-2.56"/><path fill="#bdc1c7" d="M1539.06 1464.94c3.24 2.85 6.35 5.85 9.31 9 7.02 7.5 14.13 14.92 21.33 22.25 7.64 8 29.86 29.95 35.55 37.05 25.96 26.89 53.34 54.8 78.81 81.99.71.67 1.42 1.34 2.13 2.02l73.38 76.6c3.36 3.39 6.7 6.8 10.01 10.23 23.62 25.07 47.45 49.94 71.51 74.58 4.69 4.76 10.88 10.64 15.25 15.39 2.78 2.74 5.25 5.4 7.89 8.24-4.68 4.86-8.87 9.27-14.01 13.68-3.18 4.16-19.81 19.12-24.25 22.98l-1.54 1.41c-3.54-1.07-9.91-7.52-12.82-10.37-96.96-94.78-194.11-189.48-290.07-285.27-5.96-5.95-32.78-30.38-35.92-36.18l2.13-2.63c8.14-3.93 41.94-33.33 51.31-40.97"/><path fill="#9c9fa9" d="M1539.06 1464.94c3.24 2.85 6.35 5.85 9.31 9 7.02 7.5 14.13 14.92 21.33 22.25 7.64 8 29.86 29.95 35.55 37.05-2.41 4.29-2.77 8.33-4.63 12.56-6.71 15.31-10.56 38.07-18.42 52.37l-.36.67c-9.93-11.36-22.68-21.78-33.42-32.56-6.06-6.09-14.24-15.02-20.79-20.22-3.67-3.83-9.65-9.6-12.66-13.61-8.26-8.49-18.52-18.2-27.22-26.54 8.14-3.93 41.94-33.33 51.31-40.97"/><path fill="#9c9fa9" d="M1539.06 1464.94c3.24 2.85 6.35 5.85 9.31 9 7.02 7.5 14.13 14.92 21.33 22.25-12.15 15.03-32.06 34.45-42.07 49.87-3.67-3.83-9.65-9.6-12.66-13.61-8.26-8.49-18.52-18.2-27.22-26.54 8.14-3.93 41.94-33.33 51.31-40.97"/><path fill="#bdc1c7" d="M1548.37 1473.94c7.02 7.5 14.13 14.92 21.33 22.25-12.15 15.03-32.06 34.45-42.07 49.87-3.67-3.83-9.65-9.6-12.66-13.61 11.68-17.43 21.2-39.18 32.51-57.05z"/><path fill="#bdc1c7" d="m1581.84 1598.84.36-.67c7.86-14.3 11.71-37.06 18.42-52.37 1.86-4.23 2.22-8.27 4.63-12.56 25.96 26.89 53.34 54.8 78.81 81.99-10.58 12.93-22.07 27.8-32.15 41.19-1.59 2.13-3.23 4.22-4.91 6.29-3.03-2.39-7.43-7.14-10.26-10.03-17.91-18.32-36.79-35.76-54.9-53.84"/><path fill="#bdc1c7" d="M1684.06 1615.23c.71.67 1.42 1.34 2.13 2.02l73.38 76.6a465 465 0 0 0-16.18 17.92c-6.9 8.19-15.05 15.63-21.73 24.43-20.2-18.17-46.26-45.7-65.93-65.2-2.85-2.87-5.66-5.64-8.73-8.29 1.68-2.07 3.32-4.16 4.91-6.29 10.08-13.39 21.57-28.26 32.15-41.19"/><path fill="#9c9fa9" d="M1684.06 1615.23c.71.67 1.42 1.34 2.13 2.02-2.04 4.91-4.81 9.49-7.39 14.13-7.2 12.72-14.56 25.33-22.11 37.84-.32.6-.64 1.19-.96 1.78-2.85-2.87-5.66-5.64-8.73-8.29 1.68-2.07 3.32-4.16 4.91-6.29 10.08-13.39 21.57-28.26 32.15-41.19"/><path fill="#ecdcd3" d="M1487.75 1505.91c8.7 8.34 18.96 18.05 27.22 26.54 3.01 4.01 8.99 9.78 12.66 13.61 6.55 5.2 14.73 14.13 20.79 20.22 10.74 10.78 23.49 21.2 33.42 32.56 18.11 18.08 36.99 35.52 54.9 53.84 2.83 2.89 7.23 7.64 10.26 10.03 3.07 2.65 5.88 5.42 8.73 8.29 19.67 19.5 45.73 47.03 65.93 65.2 7.63 7.46 20.08 18.74 26.51 26.3 20.34 18.3 40.66 40.81 61.44 59.62 3.93 4.02 14.78 12.06 16.36 16.83l-1.54 1.41c-3.54-1.07-9.91-7.52-12.82-10.37-96.96-94.78-194.11-189.48-290.07-285.27-5.96-5.95-32.78-30.38-35.92-36.18z"/><path fill="#9c9fa9" d="M1759.57 1693.85c3.36 3.39 6.7 6.8 10.01 10.23-3.12 11.59-15.9 48.77-21.41 58.42-6.43-7.56-18.88-18.84-26.51-26.3 6.68-8.8 14.83-16.24 21.73-24.43 5.24-6.11 10.63-12.09 16.18-17.92"/><path fill="#9c9fa9" d="M1841.09 1778.66c4.69 4.76 10.88 10.64 15.25 15.39 2.78 2.74 5.25 5.4 7.89 8.24-4.68 4.86-8.87 9.27-14.01 13.68-3.18 4.16-19.81 19.12-24.25 22.98-1.58-4.77-12.43-12.81-16.36-16.83 3.55-4.01 6.81-8.27 9.76-12.75 6.93-10.5 15-20.33 21.72-30.71"/><path fill="#bdc1c7" d="M1856.34 1794.05c2.78 2.74 5.25 5.4 7.89 8.24-4.68 4.86-8.87 9.27-14.01 13.68-.11-4.65 4.17-17.9 6.12-21.92"/><path fill="#bdc1c7" d="m391.443 322.888 134.426 126.783c1.477 1.262 2.841 2.631 4.257 3.969l41.6 39.213c3.923 3.008 13.068 12.463 17.366 16.48 6.013 5.621 14.697 12.968 20.25 18.622 36.618 34.68 75.933 72.814 112.952 106.518 1.179.969 2.041 1.649 3.139 2.715l40.097 37.415c-10.768 12.837-24.523 33.855-35.42 44.799l-2.255-1.295-.937.826.9 4.386L535.534 528.86l-58.832-59.27c-11.585-11.598-26.345-25.653-36.989-37.689.899-.992.974-1.348 1.633-2.532-3.754-7.282-57.615-59.638-66.829-68.576 2.319-3.692 14.747-32.85 16.926-37.905"/><path fill="#9c9fa9" d="M571.726 492.853c3.923 3.008 13.068 12.463 17.366 16.48 6.013 5.621 14.697 12.968 20.25 18.622-7.068 10.654-11.552 22.199-17.432 33.466a323 323 0 0 0-5.945 11.94c-15.412-16.086-31.494-31.977-47.372-47.597 5.89-5.525 30.168-27.455 33.133-32.911"/><path fill="#9c9fa9" d="M722.294 634.473c1.179.969 2.041 1.649 3.139 2.715-9.694 15.6-20.528 30.552-30.632 45.901-3.786-3.422-7.482-7.239-11.181-10.809 12.565-10.543 27.377-25.813 38.674-37.807"/><path fill="#9c9fa9" d="M525.869 449.671c1.477 1.262 2.841 2.631 4.257 3.969-8.552 12.119-15.628 26.217-24.125 38.751-3.701-3.715-7.234-7.463-10.886-11.208 5.411-5.003 27.49-26.282 30.754-31.512"/><path fill="#bdc1c7" d="M765.53 674.603c6.852 6.156 14.061 13.101 20.851 19.481 44.757 42.951 91.55 87.341 137.174 129.395 1.464 1.307 2.819 2.582 4.251 3.925l63.98 60.347c1.474 1.172 4.262 3.778 5.484 5.216 4.61 4.246 8.97 8.641 13.61 12.842-6.67 6.293-14.701 14.151-21.694 20.02-2.021 2.698-27.064 25.924-30.167 28.236l-1.494.339c-6.887-3.191-94.818-94.728-108.264-108.403L727.818 723.319l-.9-4.386.937-.826 2.255 1.295c10.897-10.944 24.652-31.962 35.42-44.799"/><path fill="#bdc1c7" d="M923.555 823.479c1.464 1.307 2.819 2.582 4.251 3.925l63.98 60.347c1.474 1.172 4.262 3.778 5.484 5.216 4.61 4.246 8.97 8.641 13.61 12.842-6.67 6.293-14.701 14.151-21.694 20.02-2.021 2.698-27.064 25.924-30.167 28.236-.954-4.877-14.305-17.603-18.182-21.687-12.344-10.993-31.124-31.207-43.54-43.51-6.95-7.48-18.703-19.998-26.209-26.723 13.59-13.263 37.531-25.034 52.467-38.666"/><path fill="#9c9fa9" d="M991.786 887.751c1.474 1.172 4.262 3.778 5.484 5.216 4.61 4.246 8.97 8.641 13.61 12.842-6.67 6.293-14.701 14.151-21.694 20.02-2.021 2.698-27.064 25.924-30.167 28.236-.954-4.877-14.305-17.603-18.182-21.687 8.803-7.129 45.675-37.097 50.949-44.627"/><path fill="#bdc1c7" d="M997.27 892.967c4.61 4.246 8.97 8.641 13.61 12.842-6.67 6.293-14.701 14.151-21.694 20.02-.595-4.786 5.484-28.211 8.084-32.862"/><path fill="#9c9fa9" d="M923.555 823.479c1.464 1.307 2.819 2.582 4.251 3.925-5.883 10.838-11.261 22.611-17.009 33.614a202 202 0 0 0-5.451 11.216c-2.407 5.374-5.4 11.335-8.049 16.634-6.95-7.48-18.703-19.998-26.209-26.723 13.59-13.263 37.531-25.034 52.467-38.666"/><path fill="#9c9fa9" d="M765.53 674.603c6.852 6.156 14.061 13.101 20.851 19.481-3.789 7.465-7.469 16.899-10.732 24.734l-8.888 21.575c-1.344 3.316-3.424 7.548-5.031 10.769-10.226-10.523-21.819-21.129-31.62-31.76 10.897-10.944 24.652-31.962 35.42-44.799"/><path fill="#ecdcd3" d="m727.818 723.319-.9-4.386.937-.826 2.255 1.295c9.801 10.631 21.394 21.237 31.62 31.76 35.852 37.272 73.2 73.949 109.358 110.983 7.506 6.725 19.259 19.243 26.209 26.723 12.416 12.303 31.196 32.517 43.54 43.51 3.877 4.084 17.228 16.81 18.182 21.687l-1.494.339c-6.887-3.191-94.818-94.728-108.264-108.403z"/><path fill="#ecdcd3" d="M83.614 72.627c2.993 1.374 6.277 3.354 9.189 5.01 12.625 6.54 40.188 22.905 51.533 30.831 13.981 9.305 28.27 18.838 41.546 29.084 1.525 1.031 6.204 4.171 7.38 5.47 18.855 13.898 34.159 27.721 51.691 43.084 3.452 2.911 14.579 12.804 17.477 15.909 18.512 16.899 36.603 34.548 55.232 51.247l73.781 69.626c-2.179 5.055-14.607 34.213-16.926 37.905 9.214 8.938 63.075 61.294 66.829 68.576-.659 1.184-.734 1.54-1.633 2.532L230.139 220.862c-48.362-48.672-99.357-98.564-146.525-148.235"/><path fill="#9c9fa9" d="m317.662 253.262 73.781 69.626c-2.179 5.055-14.607 34.213-16.926 37.905-5.921-6.998-14.898-15.433-21.415-22.34-18.358-19.457-37.669-37.959-56.492-56.955 6.463-8.006 15.165-19.707 21.052-28.236"/><path fill="#bdc1c7" d="M244.953 186.106c3.452 2.911 14.579 12.804 17.477 15.909 18.512 16.899 36.603 34.548 55.232 51.247-5.887 8.529-14.589 20.23-21.052 28.236-1.7-1.614-6.635-6.273-7.94-7.93-9.03-11.46-30.838-29.229-38.877-39.619a431 431 0 0 0-18.414-18.361c4.371-9.415 9.036-20.905 13.574-29.482"/><path fill="#9c9fa9" d="M244.953 186.106c3.452 2.911 14.579 12.804 17.477 15.909-3.211 8.175-7.575 25.438-12.637 31.934a431 431 0 0 0-18.414-18.361c4.371-9.415 9.036-20.905 13.574-29.482"/><path fill="#bdc1c7" d="M185.882 137.552c1.525 1.031 6.204 4.171 7.38 5.47 18.855 13.898 34.159 27.721 51.691 43.084-4.538 8.577-9.203 20.067-13.574 29.482-1.227-1.174-2.415-2.301-3.499-3.611-13.352-16.128-31.576-30.197-45.157-45.809l-8.285-8.56c3.016-4.224 9.913-15.154 11.444-20.056"/><path fill="#9c9fa9" d="M185.882 137.552c1.525 1.031 6.204 4.171 7.38 5.47-4.072 7.119-7.015 15.877-10.539 23.146l-8.285-8.56c3.016-4.224 9.913-15.154 11.444-20.056"/><path fill="#bdc1c7" d="M144.336 108.468c13.981 9.305 28.27 18.838 41.546 29.084-1.531 4.902-8.428 15.832-11.444 20.056-4.54-4.407-31.45-29.661-33.489-32.892 1.311-2.93 2.604-12.413 3.387-16.248"/><path fill="#9c9fa9" d="M92.803 77.637c12.625 6.54 40.188 22.905 51.533 30.831-.783 3.835-2.076 13.318-3.387 16.248-14.856-15.886-34.23-31.346-48.146-47.08"/><path fill="#e09c6e" d="m1946.26 128.581 1.12 1.892c-20.33 32.844-40.22 62.889-65.39 92.345-13.35 15.614-29.31 31.896-43.57 46.836a13415 13415 0 0 1-97.02 99.539c-34.86 35.915-69.77 75.75-103.51 113.092a11285 11285 0 0 1-191.27 209.229l-139.13 147.499a52953 52953 0 0 1-587.763 635.127c-2.831 3.04-12.589 14.18-15.599 14.29-.816-5.18-.44-6.27 2.917-10.02 30.892-34.51 62.925-68.42 94.258-102.46l231.517-248.21 510.14-551.211 264.51-285.504c34.82-38.324 70.28-75.85 103.18-115.875 12.32-14.997 24.86-30.407 35.61-46.569"/><path fill="#9c9fa9" d="m143.388 1787.01 72.085 72.83c5.223 5.19 27.284 27.26 31.777 30.38 1.151 1.44 1.044 1.42 1.899 3.08-3.169 6.65-32.262 34.39-39.132 41.2-27.362-23.85-54.469-51.74-81.666-76.16-4.742-4.26-29.497-26.29-31.675-29.68l1.33-1.75c15.828-13.25 29.956-26.47 45.382-39.9"/><path fill="#ecdcd3" d="M98.005 1826.91c4.789 2.54 28.546 25.21 33.692 29.97l77.306 71.51c7.164-7.13 31.678-32.95 38.247-38.17 1.151 1.44 1.044 1.42 1.899 3.08-3.169 6.65-32.262 34.39-39.132 41.2-27.362-23.85-54.469-51.74-81.666-76.16-4.742-4.26-29.497-26.29-31.675-29.68z"/><path fill="#bdc1c7" d="M1800.36 1890.6c9.48-7.34 30.58-28.98 39.25-37.67l65.31-65.51 21.47 20.1 22.56 20.47c.09 1.8.62 1.83-.71 3.04-36.75 33.33-71.97 70.46-109.27 102.99-5.33-5.19-39.31-36.71-39.97-41.7z"/><path fill="#9c9fa9" d="M1800.36 1890.6c9.48-7.34 30.58-28.98 39.25-37.67l65.31-65.51 21.47 20.1c-8.05 5.68-23.63 22.46-31.14 30.22l-50.51 52.43c-6.65 6.9-14.64 15.99-21.36 22.43-7-7.1-15.71-15.04-23.02-22"/><path fill="#ecdcd3" d="M1839.63 1928.92c10.11-10.26 103.71-99.82 109.32-100.93.09 1.8.62 1.83-.71 3.04-36.75 33.33-71.97 70.46-109.27 102.99-5.33-5.19-39.31-36.71-39.97-41.7l1.36-1.72c7.31 6.96 16.02 14.9 23.02 22 4.31 4.91 11.45 11.56 16.25 16.32"/><path fill="#e09c6e" d="M104.387 132.438c10.68 15.998 24.297 31.643 36.439 46.579 25.074 30.844 51.811 59.75 78.535 89.156l197.698 213.631 292.049 316.467L821.33 918.653c25.604 27.203 51.447 54.338 76.731 81.847 3.098 3.37 4.759 4.47 4.429 8.02-6.756 2.2-34.138-31.126-39.895-37.31l-62.504-66.795-476.535-517.279c-50.035-54.058-105.526-105.604-154.635-160.83-23.69-26.642-46.485-60.387-65.176-90.618z"/><path fill="#e09c6e" d="M1456.78 1535.66c4.91 1.63 329.6 307.15 344.58 326.47-.39 3.07-1.11 2.8-3.82 5.58-44.45-38.97-88.04-78.9-130.76-119.77l-216.18-206.07z"/><path fill="#e09c6e" d="M589.899 1535.81c2.612 2.15 3.643 2.7 5.208 5.76-.981 2.85-24.37 24.59-28.247 28.41a8933 8933 0 0 1-157.595 151.49c-50.733 48.09-105.739 100.02-158.753 145.73-2.949-.73-3.349-1.63-4.551-3.59 2.736-10.68 309.326-295.74 343.938-327.8"/><path fill="#e09c6e" d="M1033.4 1147.8c4.37 3.04 24.17 25.12 28.42 29.78 17.44 19.16 35 38.22 52.68 57.17 55 58.44 109.63 117.24 163.88 176.38 20.57 22.38 41.33 44.59 61.81 67.05 2.54 2.78 5.77 6.53 3.32 10.22l-2.26.24c-82.36-90.01-167.11-177.08-249.56-266.9-20.46-22.29-43.26-45.58-63.06-68.17.83-3.24 1.68-3.03 4.77-5.77"/><path fill="#e09c6e" d="M1274.8 1690.99c48.03-56.95 104.75-109.39 160.41-159.03 7.48-6.67 29.55-26.05 36.88-30.16a3059 3059 0 0 1-193.26 189.92z"/><path fill="#e09c6e" d="M583.358 1507.28a2311 2311 0 0 1 133.438 122.85c20.365 20.47 47.562 48.64 64.892 71.57-16.192-11.87-36.57-31.78-51.862-45.97a2817 2817 0 0 1-89.882-86.63c-18.483-18.81-37.511-40.15-56.075-58.25z"/><path fill="#e09c6e" d="M381.5 1296.04c36.021 36.55 74.927 70.05 109.013 108.76 9.766 11.09 25.356 27.71 32.659 40.16-24.364-19.26-45.149-40.24-66.9-62.38-11.458-11.65-23.977-22.59-35.116-34.58-14.181-16.21-27.888-33.81-41.355-50.66z"/><path fill="#e09c6e" d="m1667.02 1295.48 2.19.77c-19.42 23.65-39.54 49.45-61.68 70.42-26.9 25.49-52.5 55.76-82.63 77.36 7.08-10.6 19.83-24.72 28.34-34.41 35.36-40.25 75.26-76.84 113.78-114.14"/><path fill="#e09c6e" d="M164.378 1922.47c15.146 12.09 31.19 28.6 46.553 40.86 14.192-11.7 30.693-26.52 44.348-39.06l1.081 2.12c-15.692 19.93-26.392 31.34-43.963 49.73-17.113-16.6-32.155-33.79-48.508-50.81z"/><path fill="#e09c6e" d="M1890.63 1916.12c-8.49 12.37-43.01 47.67-54.27 59.42-7.55-7.99-15.55-15.23-23.15-23.16-7.94-8.29-14.41-17.24-21.72-26.04l1-1.82c14.94 12.74 29.57 25.8 44.66 38.56 17.49-16.04 35.32-31.7 53.48-46.96"/><path fill="#926650" d="M103.745 135.688c-1.116-1.688-7.99-12.877-7.562-14.1l.35-.194.264.142-.011.304c.666.387.513.188.87.718l5.152 7.556 1.579 2.324z"/><path fill="#926650" d="M1946.26 128.581c.98-1.669 5.48-9.326 7.08-10.012.77.218.19 1.487-.05 1.924-1.82 3.399-3.73 6.793-5.91 9.98z"/><path fill="#b78366" d="m1274.8 1690.99 4.03.73c-3.65 3.19-7.61 6.38-11.33 9.56 3.06-5.41 3.15-5.4 7.3-10.29"/><path fill="#926650" d="M573.262 1500.16c2.899 1.59 8.058 4.46 10.096 7.12l.511 3.57c-3.36-3.02-7.342-7.36-10.607-10.69"/><path fill="#b78366" d="M1667.02 1295.48c1.19-1.26 4.81-5.5 6.31-5.9.78.37.09.93-.09 1.61l.1-.19-.48.72a69 69 0 0 1-3.65 4.53z"/><path fill="#926650" d="M163.889 1925.31c-1.037-1.05-5.646-5.59-5.952-6.73l.102-.16c.471-.11.581-.12 1.284.15l.001-.02c1.59.77 3.62 2.71 5.054 3.92z"/><path fill="#b78366" d="M379.801 1297.34c-.86-.96-4.456-5.21-4.59-6.17-.438-3.18 6.322 4.91 6.289 4.87z"/><path fill="#b78366" d="M255.279 1924.27c.715-.79 2.789-3.56 4.108-3.45.804 1.2-2.509 4.93-3.027 5.57z"/><path fill="#926650" d="M1791.49 1926.34c-.39-.45-3.71-3.73-2.97-4.71 1.45-.2 3.07 1.9 3.97 2.89z"/></svg>