<svg xmlns="http://www.w3.org/2000/svg" width="2048" height="2048" viewBox="0 0 2048 2048"><path fill="#272933" d="M0 0h2048v2048H0z"/><path fill="#010100" d="M1102.7 359.407c11.78-1.862 43.8.32 56.85 1.756 65.7 7.233 126.41 25.631 187.74 49.482 22.28 8.665 44.42 18.547 66.82 27.355-18.78 14.451-36.66 29.369-55.8 43.586a711 711 0 0 1 121.98 99.372c124.24 127.503 192.2 299.478 188.69 477.472-4.27 170.44-76.1 332.2-199.68 449.67a646.4 646.4 0 0 1-370.11 176.69c-31.4 3.65-66.18 4.06-97.69 3.37-152.325-3.03-302.99-68.5-415.222-170.38-124.246-111.44-198.707-267.98-206.764-434.68-8.121-157.501 47.184-311.69 153.559-428.12 85.651-94.296 216.294-177.368 346.408-183.688 26.902-61.984 61.225-68.235 121.409-86.326 34.51-10.375 65.13-22.49 101.81-25.559"/><path fill="#129ea5" d="M1101.4 404.353c14.05-1.746 37.89.428 52.53 2.023 63.51 6.918 112.74 21.382 171.08 45.819-16.61 10.083-35.62 23.225-52.51 32.041 4.28 2.503 8.71 4.796 13.1 7.092 60.76 31.771 114.62 70.857 162.4 120.202 114.9 117.98 178.65 276.501 177.43 441.18-2.83 158.55-68.72 309.43-183.09 419.26-102.83 100.93-238.6 161.41-382.41 170.37-20.57 1.31-39.35.93-60.01.54-145.741-9.09-269.636-58.23-380.316-155.15-111.746-97.85-186.763-247.54-195.581-396.25-9.827-147.655 40.466-293.01 139.446-403.016a580.4 580.4 0 0 1 88.269-80.103c85.36-63.257 162.004-89.344 267.429-95.466-1.601-26.849 12.708-55.219 37.299-65.972 17.261-7.547 44.294-14.588 62.814-19.897 25.51-7.317 56.38-19.855 82.12-22.673"/><path fill="#010100" d="M1103 409.376c14.12-1.108 28.25.396 42.31 1.608 60.08 5.18 112.43 20.272 168.52 41.432-17.57 11.863-33.93 22.267-53.25 31.133 78.56 41.981 130.97 74.619 192.8 140.745 111.69 119.654 171.56 278.601 166.58 442.206-6.91 158.04-76.57 306.8-193.53 413.31-116.01 107.97-270.63 164.63-428.93 157.16-16.502-.03-44.823-3.39-61.203-5.77a608.7 608.7 0 0 1-318.372-151.66c-109.924-99.71-182.125-246.6-189.113-395.28a543.44 543.44 0 0 1 142.13-396.519c97.322-106.86 209.284-163.464 353.336-170.114-2.681-31.054 12.989-60.731 44.074-69.953 11.897-3.53 23.92-7.221 35.788-10.876l49.19-14.745c17.13-5.164 31.86-10.488 49.67-12.677"/><defs><linearGradient id="a" x1="767.977" x2="1315.193" y1="1572.016" y2="462.452" gradientUnits="userSpaceOnUse"><stop offset="0" stop-color="#c1c1c1"/><stop offset="1" stop-color="#e5e5e4"/></linearGradient></defs><path fill="url(#a)" d="M1103.19 414.318c9.61-.943 25.79.189 35.79.996 56.82 4.594 110.74 18.243 163.9 38.439-20.02 13.491-32.56 20.719-55.42 29.612a647.8 647.8 0 0 1 201.33 143.389c110.72 118.331 170.43 275.479 166.22 437.476-6.2 154.9-73.2 301.12-186.47 406.97-119.33 111.29-266 166.91-429.04 161.04-139.895-4.41-280.208-65.09-382.396-160.12-111.088-102.77-177.139-245.23-183.805-396.42a539.3 539.3 0 0 1 146.4-390.409 575 575 0 0 1 86.468-75.356c84.675-60.492 160.388-84.385 263.484-87.89-2.291-18.353.275-35.454 11.941-50.349a57.3 57.3 0 0 1 19.766-16.142c8.013-3.98 46.242-15 56.352-17.693 24.7-6.577 61.64-20.592 85.48-23.543"/><path fill="#010100" d="M936.966 542.415c1.145-.123 6.613-.635 7.339.091 12.259 12.25 28.723 31.378 43.613 40.007 8.276 4.796 35.032 10.321 46.012 13.646 49.59 15.015 88.51 38.871 127.59 72.457q6.435-25.24 13.14-50.411c41.92 14.365 70.29 24.933 107.99 49.355a457.5 457.5 0 0 1 199.18 286.584c25.67 120.156-1.33 242.686-67.7 345.116-68.42 104.37-175.08 177.71-297.02 204.26a433 433 0 0 1-56.85 8.5c-269.253 21.52-516.767-190.21-537.68-459.49a500.9 500.9 0 0 1 117.793-359.735c77.506-90.412 178.261-141.407 296.593-150.38"/><path fill="#129ea5" d="m939.511 547.491 2.386.352c9.759 9.8 33.075 32.486 44.137 39.338 5.726 3.546 37.476 10.941 46.846 13.901 51.76 16.354 91.35 40.088 131.55 76.508 4.35-17.543 9-35.01 13.95-52.391 27.09 6.693 69.05 26.522 92.86 41.016A452.3 452.3 0 0 1 1475.36 947.9c26.96 111.28 4.03 236.77-55.91 333.48-71.47 115.32-170.99 185.55-301.69 217.31-10.64 2.08-21.5 4.09-32.22 5.66-277.594 39.58-547.097-186.14-558.892-466.02-10.131-240.397 161.734-479.17 412.863-490.839"/><path fill="#010100" d="M932.718 552.426c1.218-.141 2.521-.334 3.757-.297 5.683.171 35.537 32.908 45.108 38.434 14.261 8.233 33.447 9.911 49.117 15.005a350.96 350.96 0 0 1 137.24 81.58c4.32-18.494 8.96-36.912 13.92-55.245 28.15 7.461 61.31 23.594 86.17 38.422a443.32 443.32 0 0 1 200.19 271.05c29.13 115.985 7.82 238.065-54.48 339.195-67.24 109.14-167.73 180.46-291.02 211.25-20.1 4.79-40.52 8.08-61.11 9.86-261.209 23.4-506.689-183.59-528.883-444.72a493.2 493.2 0 0 1 115.984-358.464 409.68 409.68 0 0 1 284.007-146.07"/><path fill="#272933" d="M914.195 599.418c1.958-.305 4.512-1.003 6.11.516 12.002 11.402 23.761 22.687 38.318 30.937 13.721 7.776 29.601 10.15 44.667 13.911 12.32 3.089 24.22 7.568 36.16 11.737 35.98 12.555 61.3 32.75 89.93 57.056l64.93 56.185 18.33-77.912a395.45 395.45 0 0 1 201.98 225.24c35.63 98.892 28.14 205.662-16.73 300.282-49.82 105.03-136.15 180.59-245.09 219.61a401.5 401.5 0 0 1-86.75 19.38c-115.914 13.12-231.469-24.76-322.024-97.18a446.24 446.24 0 0 1-166.453-299.01 440.8 440.8 0 0 1 94.595-319.829c59.817-74.362 145.834-130.569 242.027-140.923"/><path fill="#010100" d="M1120.6 462.224c-.23.041 3.22-.398 2.5.327-14.37 14.57-29.83 29.144-44.71 43.549-11.67-4.637-23.07-10.154-34.69-14.888-7.77-3.393-15.56-6.616-23.1-10.5 13.26-2.237 26.21-5.002 39.41-7.472l11.49-2.118c16.35-2.894 32.81-5.757 49.1-8.898"/></svg>