<svg xmlns="http://www.w3.org/2000/svg" width="2048" height="2048" viewBox="0 0 2048 2048"><path fill="#1d1d25" d="M0 0h2048v2048H0z"/><path fill="#d97d31" d="M1218.12 85.231c3.18-.391 4.95-.554 8.2-.368a46.15 46.15 0 0 1 32.5 16.33 42.58 42.58 0 0 1 10.02 31.976c-2.65 24.147-25.79 37.076-44.13 51.44 13.1 16.025 19.12 25.661 25.2 45.094 17.58-11.717 37.78-23.363 56.42-33.395 71.27-38.369 146.54-69.995 223.01-96.432 17.1-4.907 37.08-14.867 54.94-14.838 24.17.04 45.95 22.934 43.96 46.957-1.88 22.672-20.56 36.302-35.94 49.902 17.99 13.663 22.82 23.584 28.39 44.801 16.62-10.986 43.42-25.226 61.36-34.585 74.83-39.038 153.66-72.594 233.5-99.964 13.45-4.675 24.6-4.511 37.37 2.106 24.99 12.948 31.15 46.151 11.21 66.472-10.19 10.384-23.36 18.884-35.04 27.93a1425 1425 0 0 0-58.15 47.017c-103.69 88.333-210.31 191.404-280.24 309.482-13.78 23.26-38.99 74.173-37.16 101.167 1.42 10.729 7.47 20.269 10.2 30.679 7.74 29.585-21.8 46.197-38.86 65.479-54.11 61.02-93.79 144.157-88.37 227.154 3.59 33.155 29.32 65.295-3.99 92.785-94.47 77.99-134.21 214.21-132.42 333.13 2.09 138.97 63.23 281.7 138.42 396.9 11.01 16.96 22.39 33.67 34.15 50.12 12.45 17.43 26.4 36.22 40.01 53.06 16.91 20.93 5.5 48.88-19.54 54.42-22.72 5.02-51.65-24.11-69.28-38.38a1258 1258 0 0 1-82.07-71.33c-110.98-105.56-197.08-230.13-243.31-376.85a1077 1077 0 0 1-33.42-144.6c-31.74-.17-64.33.31-95.935-.47-14.884 95.87 7.818 200.83 40.825 290.52 39.73 105.2 102.07 199.57 170.35 288.07 27.42 34.96-12.59 75.05-50.49 47.77-163.016-117.32-294.427-275.09-363.755-465.09-19.507-53.46-29.24-106.76-40.366-163.29-33.151.19-66.303.19-99.454-.01-1.179 7.4-1.84 14.79-2.451 22.31-13.469 165.99 59.628 321.83 143.666 460.14 22 36.21 46.842 68.66 70.282 103.71 4.104 6.13 3.743 17.32 1.466 23.99a32.35 32.35 0 0 1-16.928 18.94 33.85 33.85 0 0 1-27.422.84c-13.272-5.41-48.51-36.1-61.183-46.76-123.795-104.08-234.94-247.88-296.039-398.16-57.95-142.53-77.87-315.71-45.59-466.85 10.391-48.658 26.129-91.77 45.418-137.283-8.657-28.403-24.531-24.306-30.485-49.044-3.227-13.407 6.193-36.246 11.078-49.624 27.66-75.75 67.7-149.802 112.652-216.629a1147 1147 0 0 1 132.202-162.527c124.935-129.6 253.389-214.077 418.249-284.401a1571 1571 0 0 1 91.2-35.238c11.79-4.177 33.76-12.226 45.77-14.573"/><path fill="#1d1d25" d="M1216.73 93.246c25.28-2.79 47.13 13.684 44.55 39.797-1.93 19.597-33.16 39.229-47.97 50.823 18.37 21.218 26.07 30.89 30.74 58.55 89.4-57.419 187.13-100.618 287.33-135.192 24.28-7.166 58.01-26.725 79.25-2.628 28.4 32.212-8.96 58.866-29.79 77.643 23.87 19.352 29.6 26.083 33.33 57.258 52.76-33.541 115.61-63.34 172.67-88.757 41.67-18.559 85.27-35.815 128.44-50.673 13.24-4.42 21.85-4.887 34.59 1.34 19.43 9.499 24.58 38.04 9.33 53.308-11.08 11.087-27.4 22.169-40.37 32.087a1262 1262 0 0 0-53.67 43.429c-99.8 84.936-196.8 178.923-268.25 289.779-20.18 31.321-49.65 85.087-51.67 123.902-.82 15.906 20.58 39.208 7.36 58.187-9.43 13.545-20.65 20.839-31.49 32.931-57.32 63.556-98.43 149.849-91.89 236.974 1.88 25.009 19.81 49.246 8.24 73.026-3.43 6.8-13.67 14.73-19.57 19.96-58.09 51.56-93.4 125.69-111.09 200.33-46.47 191.65 26.29 378.67 129.41 538.18 13.79 21.29 28.37 42.05 43.71 62.24 12.77 16.88 44.38 45.44 28.14 66.13-13.72 17.49-31.39 11.38-46.46.15-211.12-157.25-352.51-357.36-390.22-620.6-34.19-1.4-74.488-.46-109.137-.53-11.056 97.82-1.936 176.81 29.611 270.34 26.336 80.64 71.376 163.56 119.166 233.72 11.86 17.55 24.13 34.82 36.79 51.81 9.33 12.48 18.68 24.84 28.04 37.51 12.61 17.06 3.53 37.71-16.93 41.62-12.03 2.3-22.16-5.51-31.49-12.32-209.837-153.19-356.669-364.91-395.055-624.51l-113.189-.26c-23.068 176.81 49.174 344.95 140.338 492.33a1657 1657 0 0 0 45.107 67.67c8.496 12.04 17.762 23.75 25.247 36.2 7.71 12.34.994 27.78-11.737 33.61-15.018 6.87-28.449-2.77-39.757-11.86-15.088-12.11-29.712-24.33-44.39-36.91-123.15-105.59-227.33-241.1-289.198-391.57-57.798-142.52-77.377-309.65-45.447-460.64 11.052-51.057 25.716-92.534 46.263-140.266-2.491-7.843-5.054-15.078-10.026-21.768-6.469-8.705-16.751-15.205-20.353-25.833-8.608-25.4 49.358-139.879 63.595-166.724 94.689-178.534 243.637-334.344 414.011-442.292 98.408-62.351 212.511-113.363 323.891-147.5"/><defs><linearGradient id="a" x1="804.336" x2="1404.875" y1="921.944" y2="996.178" gradientUnits="userSpaceOnUse"><stop offset="0" stop-color="#d3d3d3"/><stop offset="1" stop-color="#f9f9f9"/></linearGradient></defs><path fill="url(#a)" d="m1509.38 167.903.98.293c-1.5 3.09-72.06 56.532-82.64 65.196-110.44 90.418-241.35 214.197-295.4 348.894-3.8 9.466-8.03 19.391-9.8 29.462-3.88 22.004 6.94 55.007 15.56 75.157-57.95 56.762-103.93 169.441-109.64 250.581-1.75 24.843 4.87 71.024 21.21 89.924-15.06 11.38-32.65 26.45-44.56 40.83-42.886 51.74-69.068 119.58-84.299 184.04-46.634 197.36 22.527 379.25 127.309 545.69-22.37-20.52-46.57-46.5-66.813-68.68a728 728 0 0 1-60.458-75.47c-123.451-177.94-181.898-404.54-125.668-617.04a502.7 502.7 0 0 1 28.471-79.825c8.056-17.654 18.903-32.722 27.458-49.212 13.496-26.016-21.778-65.918-36.418-85.814 20.474-48.737 45.253-93.922 70.461-139.703 107.426-195.097 261.827-334.421 457.687-437.944 56.55-29.891 108.01-50.738 166.56-76.379"/><path fill="#dedede" d="m1154.1 166.207 1.87 1.963c-136.7 103.542-338.273 265.634-383.693 447.889-4.364 17.512 6.553 55.547 16.868 71.448-64.029 61.011-106.938 169.388-111.873 257.921-1.119 20.066 11.089 67.682 23.665 83.602-95.479 92.04-136.472 201.35-139.783 333.23-2.816 112.15 35.077 225.46 82.212 325.7 11.731 24.95 34.16 67.84 49.977 89.79l-1.384 1.79c-22.29-22.8-46.731-52.21-66.278-76.91-115.896-146.46-192.739-322.94-189.95-512.08.707-47.93 2.379-87.83 11.659-135.95a598 598 0 0 1 23.326-86.521c3.836-10.649 8.044-20.707 12.369-31.037 4.061-9.699 16.026-30.612 17.031-39.96 2.519-23.426-19.986-49.166-34.457-65.779a601 601 0 0 1 11.842-30.414 1144.9 1144.9 0 0 1 466.635-533.013c65.914-39.518 138.644-72.904 209.964-101.669"/><path fill="#dedede" d="M1463.42 720.027c4.98-4.877 14.53-20.261 20.34-21.543-12.18 16.245-23.15 27.632-35.17 45.894-7.28 11.061-16.67 28.632-23.11 37.656-5.97 13.773-14.63 28.866-20.08 43.033-14.92 38.743-30.54 93.633-28.05 135.285.75 12.513 10.6 41.458 13.05 58.798-61.7 56.56-98.64 118.81-124.39 198.44-2.28 2.12-3.16 4.15-4.04 7.04-2.49 8.22-14.46-.77-22.23-.59-9.68.23-9.71 3.61-18.3 4.54-13.23 1.43-31.98-7.56-43.58-2.55-14.24 6.15-25.17-1.61-41.39 1.74l-1.71 4.65c-2.95.03-4.77-2.42-8.42-4.37-3.44 3.13-5.76 5.31-9.58 8.04-.94-2.83-1.38-27.68-1.86-33.43-1.35-95.27 35.91-213.286 87.67-292.78 16.51-25.347-21.53-67.02-37.29-84.197 13.58-35.01 25.99-62.128 42.29-95.785 3.78 1.903 2.52 1.05 4.99 5.07 5.67 1.302 16.54-3.838 23.35-3.557 2.33.096 7.75-.24 10.36-.321l4.75 4.744c10.96-.819 38.69 1.602 46.97-3.661 3.86-2.455 87.59-.017 100.82-.85.66-.775 3.4-3.815 4.18-3.861 9.57-.559 45.51 1.784 52.46-1.128 1.06-1.94 1.67-3.693 2.32-5.802 2.37-1.234 2.87-.809 5.65-.505"/><path fill="#dedede" d="M1463.42 720.027c4.98-4.877 14.53-20.261 20.34-21.543-12.18 16.245-23.15 27.632-35.17 45.894-7.28 11.061-16.67 28.632-23.11 37.656-.06-9.989 25.58-44.061 31.99-53.557.73-1.09 2.21-2.733 1.99-3.975-1.13-6.368 1.11.449 3.96-4.475"/><defs><linearGradient id="b" x1="1301.539" x2="1618.133" y1="788.947" y2="263.482" gradientUnits="userSpaceOnUse"><stop offset="0" stop-color="#b5b5b5"/><stop offset="1" stop-color="#e3e3e3"/></linearGradient></defs><path fill="url(#b)" d="M1522.08 356.595c10.94-9.564 34.51-25.019 47.46-33.732 84.79-57.023 176.78-99.452 269.85-140.67-50.93 43.352-95.65 90.399-143.08 136.862l-1.18 1.517c-3.95 5.047-11.75 12.789-16.45 17.672-12.02 12.466-24.2 25.668-35.82 38.426-48.37 53.073-131.07 165.511-144.91 235.973a112.3 112.3 0 0 0-1.12 34.808c1.21 10.63 3.59 20.147 6.86 30.281-3.18 3.394-17.52 18.969-19.93 20.752-5.81 1.282-15.36 16.666-20.34 21.543-2.78-.304-3.28-.729-5.65.505-.65 2.109-1.26 3.862-2.32 5.802-6.95 2.912-42.89.569-52.46 1.128-.78.046-3.52 3.086-4.18 3.861-13.23.833-96.96-1.605-100.82.85-8.28 5.263-36.01 2.842-46.97 3.661l-4.75-4.744c-2.61.081-8.03.417-10.36.321-6.81-.281-17.68 4.859-23.35 3.557-2.47-4.02-1.21-3.167-4.99-5.07 3.29-8.214 18.86-35.555 23.58-43.652 64.05-109.859 147.91-212.298 245.58-293.961 11.41-9.542 33.17-28.174 45.35-35.69"/><path fill="#dedede" d="M1522.08 356.595c10.94-9.564 34.51-25.019 47.46-33.732 84.79-57.023 176.78-99.452 269.85-140.67-50.93 43.352-95.65 90.399-143.08 136.862.36-3.16.75-3.922 2.11-6.669-8.91-5.299-63.27-5.865-76.98-7.068-20.87 13.947-24.87 6.375-42.98 14.554-16.71 7.551-37.48 27.04-53.68 36.61z"/><defs><linearGradient id="c" x1="1214.105" x2="1174.2" y1="1221.012" y2="1580.246" gradientUnits="userSpaceOnUse"><stop offset="0" stop-color="#c2c2c2"/><stop offset="1" stop-color="#fff"/></linearGradient></defs><path fill="url(#c)" d="M1209.27 1575.14c-4.3-4.68-17.82-34-21.33-41.43a754.7 754.7 0 0 1-72.63-275.17c-.92-14.85-2.29-41.16-.41-55.88.48 5.75.92 30.6 1.86 33.43 3.82-2.73 6.14-4.91 9.58-8.04 3.65 1.95 5.47 4.4 8.42 4.37l1.71-4.65c16.22-3.35 27.15 4.41 41.39-1.74 11.6-5.01 30.35 3.98 43.58 2.55 8.59-.93 8.62-4.31 18.3-4.54 7.77-.18 19.74 8.81 22.23.59.88-2.89 1.76-4.92 4.04-7.04-38.16 137.78-31.65 225.38 8.53 361.75-1.52-.92-2.63-1.89-4.04-3-3.61.4-4.32 7.17-9.15 9.7-10.44 4.66-28.03-.14-38.67-2.87-3.67-.94-5.42-5.91-13.41-8.03"/><path fill="#dedede" d="M1249.6 1582.85c.58-.04.75-.15 1.12.09.06.23.11.46.17.69-.21-.01-1.3-.11-1.46-.12-.05-.32-.06-.12.17-.66"/><path fill="#dedede" d="M1209.27 1575.14c7.99 2.12 9.74 7.09 13.41 8.03 10.64 2.73 28.23 7.53 38.67 2.87 4.83-2.53 5.54-9.3 9.15-9.7 1.41 1.11 2.52 2.08 4.04 3 9.24 25.21 16.54 47.93 26.8 73.29a797.5 797.5 0 0 0 71.38 135.94c-2.15-.52-2.57-.68-4.71-1.52-51.3-55.8-125.63-143.89-158.74-211.91"/><path fill="#c6c5c4" d="M1368.01 1787.05c2.14.84 2.56 1 4.71 1.52 2.51 2.6 4.55 6.91 6.36 10.15-3.61-3.71-7.7-7.79-11.07-11.67"/><path fill="#dedede" d="M1154.1 166.207c.97-.473 5-2.959 6.24-1.811.16.971-3.76 3.333-4.37 3.774z"/><path fill="#c6c5c4" d="M693.343 1777.75c.708 1.12 2.254 2.97 2.258 4.38l-.257.27c-1.13-.22-2.572-2.02-3.385-2.86z"/></svg>