<svg xmlns="http://www.w3.org/2000/svg" width="2048" height="2048" viewBox="0 0 2048 2048"><path fill="#242425" d="M0 0h2048v2048H0z"/><path fill="#3a2822" d="M1014.76 388.344c86.37 2.183 168.39 43.079 193.44 131.119a168 168 0 0 1 6.11 37.181c2.26 51.719-3.65 107.576-3.49 159.634.21 66.011 4.93 98.523-27.95 157.959 14.23 18.903 80.08 126.133 82.58 126.233 77.33 3.38 99.6 38.96 157.82 104.28 24.38 27.29 48.62 54.71 72.7 82.26 16.81 19.1 46.71 49.85 57.34 72.07 33.25 69.51 13.54 146.87-39.13 200.67a204.92 204.92 0 0 1-142.83 61.78c-44.71.45-91.69-16.23-124.71-49.62-8.56-8.65-17.76-25.49-26.27-35.83a6420 6420 0 0 0-63.84-76.08c-9.6-11.37-24.08-29.94-34.09-39.59l-1.11-1.06-110.86-.11c-27.47 0-59.734-.78-86.825.61-12.185 16.93-27.916 36.26-41.731 52.15-67.836 78.03-112.328 179.61-233.161 160.83a201.35 201.35 0 0 1-130.711-79.93c-31.011-42.76-44.331-96.67-36.832-148.9 4.01-27.93 12.886-42.48 29.257-64.22 17.539-23.28 35.645-45.62 54.15-68.12 31.258-38.02 61.468-76.86 93.181-114.49 6.659-7.93 18.019-17.17 26.372-23.27 38.01-27.75 82.145-40.09 128.859-32.52l59.995-117.006c-18.693-20.609-30.702-46.356-35.656-73.635-3.225-17.759-2.041-38.798-1.761-57.009q1.24-51.931 3.518-103.826l2.287-70.182c.815-24.307.36-44.304 6.42-68.167 16.489-64.936 74.976-110.765 139.94-120.643 8.856-1.347 17.888-1.954 26.988-2.568"/><path fill="#242425" d="M1011.55 391.455c84.99-3.978 175.66 48.043 195.61 134.548a180.6 180.6 0 0 1 4.15 32.754c.5 15.512-.35 33.899-.73 49.662l-2.01 86.106-.95 64.743c-.68 48.492-1.26 71.22-27.94 114.226 18.12 29.506 38.51 58.865 56.69 88.514 8.63 14.086 18.37 27.596 26.58 42.082 2.65-.03 5.3.02 7.95.14a144.54 144.54 0 0 1 102.08 47.48c36.79 40.4 72.61 83 109.14 123.83 18.71 20.91 56.27 59.81 68.16 83.64 36.08 72.34 10.5 155.98-48.42 208.54a200.91 200.91 0 0 1-145.26 50.6 163.8 163.8 0 0 1-90.37-33.42c-29.32-22.4-23.89-27.33-43.64-50.46-32.77-38.37-66.09-80.02-99.48-117.65-34.79-.39-69.57-.59-104.36-.59l-95.55-.04c-22.563 30.02-50.965 63.48-74.773 93.09l-35.101 43.59c-14.105 17.5-23.956 31.58-41.765 45.7-33.852 26.85-76.19 37.96-119.171 32.01a198.06 198.06 0 0 1-130.961-77.36c-31.222-41.29-44.465-95.81-37.849-147.07 3.237-30.46 16.511-49.23 34.853-72.72 36.527-46.78 75.011-92.32 111.968-138.8 9.175-11.54 19.199-24.31 29.149-35.05a198.2 198.2 0 0 1 27.077-24.36c38.12-28.15 82.174-37.536 128.502-30.59 18.342-40.995 42.618-81.4 60.72-120.796a148.08 148.08 0 0 1-37.822-89.406c-1.821-29.603 1.804-81.265 2.767-112.402q1.127-44.997 2.884-89.974c.895-26.819.354-54.473 6.952-80.424a148.4 148.4 0 0 1 33.123-61.834c34.502-38.446 77.066-55.566 127.797-58.309"/><path fill="#cdcdcd" d="M951.759 415.666c30.668-15.967 85.481-15.584 117.731-4.157 22.81 8.081 34.98 14.618 54.37 29.274 40.19 37.116 54.55 72.37 52.19 126.971-1.19 27.233-1.53 56.096-2.12 83.432l-1.92 89.102c-.56 21.608-.18 47.272-5.31 68.025a146.3 146.3 0 0 1-34.57 63.312 158.68 158.68 0 0 1-111.45 51.57c-7.05.22-15.3-.074-22.372-.629 3.312-6.786 15.432-33.657 18.962-37.924 2.61-4.854 6.33-11.051 7.8-16.193 2.12-1.667 7.98-3.459 10.79-4.224 41.58-11.34 66.23-55 67.97-96.114.77-18.33 1.35-37.861 1.85-56.821l2.59-105.535c-.43-37.807-.52-66.649-30.3-95.916a84.9 84.9 0 0 0-61-24.612c-25.485.276-51.019 12.09-68.62 30.343a95.23 95.23 0 0 0-23.965 44.158c-3.831 15.788-3.38 30.67-3.646 46.765-.845 51.162-2.675 102.336-3.03 153.501-.069 9.923 1.964 21.237 5.101 30.602l-32.218 64.08c-2.981 5.968-6.115 11.663-9.315 17.512-34.869-37.835-32.485-81.425-31.063-128.722l2.564-81.22 2.329-75.609c.475-15.951.602-36.24 2.642-51.72a145.3 145.3 0 0 1 11.068-39.794 150.33 150.33 0 0 1 82.942-79.457"/><path fill="#696969" d="M1123.86 440.783c40.19 37.116 54.55 72.37 52.19 126.971-1.19 27.233-1.53 56.096-2.12 83.432l-1.92 89.102c-.56 21.608-.18 47.272-5.31 68.025a146.3 146.3 0 0 1-34.57 63.312 158.68 158.68 0 0 1-111.45 51.57c-7.05.22-15.3-.074-22.372-.629 3.312-6.786 15.432-33.657 18.962-37.924 4.07 1.455 19.8-7.743 24.94-9.847 32.88-13.451 58.44-34.026 73.52-66.844 5.53-11.9 9.32-24.533 11.26-37.512 2.44-16.635 2.54-36.083 2.65-53.107.41-64.349 14.4-125.294-20.21-183.891a123.3 123.3 0 0 0-19.68-25.496c-9.25-9.041-27.78-19.104-30.08-25.277 1.35-10.301 53.33-32.055 64.19-41.885"/><path fill="#fdfdfd" d="m951.759 415.666-.031 1.551c-7.073 3.333-16.119 7.234-22.013 12.222l2.642 1.549c2.668-1.843 6.84-5.162 9.802-5.812l.355.833c-4.92 3.636-12.277 8.558-16.572 12.295a160.45 160.45 0 0 0-52.352 96.477c-3.762 24.462-4.158 70.879-5.427 97.977a2931 2931 0 0 0-3.917 100.559c-.524 17.292-2.247 38.737-.296 55.733 1.916 16.704 13.555 54.679 26.642 65.626-2.981 5.968-6.115 11.663-9.315 17.512-34.869-37.835-32.485-81.425-31.063-128.722l2.564-81.22 2.329-75.609c.475-15.951.602-36.24 2.642-51.72a145.3 145.3 0 0 1 11.068-39.794 150.33 150.33 0 0 1 82.942-79.457"/><path fill="#fdfdfd" d="M1109.49 586.688c4.73 34.906 4.31 174.366-2.63 205.654a119.5 119.5 0 0 1-21.13 45.27 82.05 82.05 0 0 1-55.79 31.94c-2.77.308-2.74.122-4.87-1.103 2.12-1.667 7.98-3.459 10.79-4.224 41.58-11.34 66.23-55 67.97-96.114.77-18.33 1.35-37.861 1.85-56.821l2.59-105.535c1.66-2.953 1.14-14.754 1.22-19.067"/><path fill="#cdcdcd" d="M524.324 1426.84c-8.031-5.95-16.687-25.53-20.337-35.02-13.373-34.77-13.247-85.47 2.47-119.41 7.487-16.16 32.911-47.53 44.525-61.87l45.415-56 45.98-56.72c11.708-14.31 24.882-31.02 38.626-43.18a162.3 162.3 0 0 1 58.278-33.11c13.798-4.54 57.486-12.25 69.069-6.35l-.443 2.04c-14.951 29.72-25.422 46.42-26.056 80.76-68.315-2.23-86.127 40.91-126.748 87.94-24.898 28.82-51.058 59.53-71.497 91.39-6.061 10.15-9.576 28.12-9.903 39.96a96.4 96.4 0 0 0 26.761 69.17 86.25 86.25 0 0 0 61.252 26.33c34.652.6 59.038-14.92 80.351-41.12 21.337-26.24 42.437-52.68 63.491-79.14 1.535-1.92 3.534-3.05 5.857-3.75 5.572 2.36 7.485 12.41 9.412 18.22 6.216 15.83 16.909 35.58 30.664 46.08a2939 2939 0 0 1-46.059 57.06c-34.762 42.7-61.111 77.93-120.382 85.61a172.66 172.66 0 0 1-128.32-36.16 189.2 189.2 0 0 1-32.068-32.01z"/><path fill="#696969" d="M820.827 1306.98c6.216 15.83 16.909 35.58 30.664 46.08a2939 2939 0 0 1-46.059 57.06c-34.762 42.7-61.111 77.93-120.382 85.61a172.66 172.66 0 0 1-128.32-36.16 189.2 189.2 0 0 1-32.068-32.01c2.087-1.53 2.438-1.89 5.269-1.41 38.153 6.63 76.831 14.18 115.424 16.63 69.582 4.42 108.898-50.56 147.518-98.99 7.483-9.39 22.853-26.51 27.954-36.81"/><path fill="#fdfdfd" d="M524.324 1426.84c-8.031-5.95-16.687-25.53-20.337-35.02-13.373-34.77-13.247-85.47 2.47-119.41 7.487-16.16 32.911-47.53 44.525-61.87l45.415-56 45.98-56.72c11.708-14.31 24.882-31.02 38.626-43.18a162.3 162.3 0 0 1 58.278-33.11c13.798-4.54 57.486-12.25 69.069-6.35l-.443 2.04c-17.171 8.52-26.869 7.7-44.928 11.79-20.515 4.65-44.485 16.14-62.181 27.78-19.359 12.73-37.228 37.94-51.883 56.14a4909 4909 0 0 0-46.701 57.69c-21.785 27.09-49.143 57.99-67.629 86.07-28.766 43.68-37.026 99.54-16.957 148.26 1.641 3.98 7.173 18.41 6.696 21.89"/><path fill="#cdcdcd" d="M1274.27 1034.59c51.34 13.18 60.14 24.65 93.19 62.64l46.47 52.8 61.68 69.87c10.72 12.22 27.59 29.77 35.46 43.3 57.95 99.55-29.92 217.52-134.36 230.29-5.86.72-12.35 1.75-18.13 1.54-29.65-.45-56.43-4.85-81.56-21.94-21.05-14.31-32.37-34.31-48.48-53.36-19.77-23.34-40.49-46.48-59.6-70.37 24.87-3.64 50.52-6.46 75.53-9.73 27.16 30.36 47.45 64.28 89.39 74.07a86.75 86.75 0 0 0 66.48-11.3 93.86 93.86 0 0 0 40.5-58.3c6.32-28.96-2.69-52.93-18.24-77.03-5.33-7-10.98-13.54-16.84-20.11-35.94-40.36-70.17-82.44-107.27-121.74-5.99-6.34-15.02-12.05-22.31-16.65l5.38-6.77c1.28-2.27 2.55-5.26 3.68-7.71 7.11-31.17-5.33-32.32-10.97-59.5"/><path fill="#696969" d="M1274.27 1034.59c51.34 13.18 60.14 24.65 93.19 62.64l46.47 52.8 61.68 69.87c10.72 12.22 27.59 29.77 35.46 43.3 57.95 99.55-29.92 217.52-134.36 230.29-5.86.72-12.35 1.75-18.13 1.54 8.13-1.55 15.71-4.06 23.33-7.26a153.9 153.9 0 0 0 84.6-86.28c15.05-37.8 17.07-80.96.51-118.7-11.97-24.22-37.58-40.79-56.99-60.65-35.87-36.72-77.89-109.61-124.79-128.05 7.11-31.17-5.33-32.32-10.97-59.5"/><path fill="#fdfdfd" d="m1276.18 1108.57 5.38-6.77c11.34 7.23 19.47 16.24 28.69 25.85 11.87 12.36 24.9 24.14 35.31 37.76 20.41 26.7 43.22 51.15 65.34 76.37 4.64 5.31 9.08 12.03 12.72 18.08.42.75-.75 5.88-1.02 7.21-5.33-7-10.98-13.54-16.84-20.11-35.94-40.36-70.17-82.44-107.27-121.74-5.99-6.34-15.02-12.05-22.31-16.65"/><path fill="#3a2822" d="M972.433 931.471c36.747 23.656 70.707 22.332 111.347 13.247 17.67 29.162 37.3 59.042 55.65 87.912-55.07 36.12-84.25 80.95-84.51 147.7.54 9.67 1.4 15.52 3.06 25.13-25.95-.41-52.68-.07-78.692-.03 6.815-60.5-19.324-107.49-71.141-138.7 22.038-43.43 42.878-91.139 64.286-135.259"/><path fill="#242425" d="M973.543 935.535c25.36 13.63 52.577 21.926 81.477 17.377 6.22-.979 22.3-4.218 27.72-3.587 5.18 6.082 14.62 22.326 19.56 30.111a1046 1046 0 0 0 34.5 52.024c-52.82 30.07-84.26 86.49-84.94 146.79.35 7.45 1.65 17.05 3.02 24.38-23.84-.45-48.88-.1-72.819-.12 7.422-60.67-21.092-103.72-69.835-136.95 13.633-32.95 32.033-65.55 46.42-98.323 4.598-10.473 9.531-21.639 14.897-31.702"/><defs><linearGradient id="a" x1="1036.522" x2="1038.371" y1="1263.394" y2="1175.928" gradientUnits="userSpaceOnUse"><stop offset="0" stop-color="#bababa"/><stop offset="1" stop-color="#fff"/></linearGradient></defs><path fill="url(#a)" d="M800.504 1157.38c10.846 16.19 30.41 35.64 46.497 46.88 2.382 1.2 4.781 2.36 7.196 3.49a91.2 91.2 0 0 0 30.501 7.89c13.766 1.1 33.81.54 47.973.54l83.829-.06 108.57.09c18.02-.01 36.02.13 54.03-.23 14.09-.28 26-4.1 36.5-13.85 7.53-6.99 11.02-15.04 15.19-24.16l8.03-.21c13.45 4.79 19.69 7.76 31.72 15.44.85 48.21-32.77 83.54-80.2 89.23-8.4 1-17.54.83-26.03.95-61.99.37-123.99.36-185.99-.03l-56.115.01c-33.155.1-67.473 1-96.344-18.72-11.139-6.45-25.876-19.1-32.436-30.3-17.111-23.82-12.131-45.53 2.186-69.27 1.962-3.76 2.317-4.34 4.893-7.69"/><path fill="#696969" d="M1238.82 1177.76c13.45 4.79 19.69 7.76 31.72 15.44.85 48.21-32.77 83.54-80.2 89.23-8.4 1-17.54.83-26.03.95-61.99.37-123.99.36-185.99-.03l-56.115.01c-33.155.1-67.473 1-96.344-18.72 79.18-3.85 159.93-5.27 239.479-8.67l56.98-2.1c9.18-.33 23.57-.49 32.33-1.69 8.05.11 13.09-.35 20.79-2.21 11.02-.61 29.15-10.56 37.35-18.08 17.62-16.15 24.29-30.8 26.03-54.13"/><path fill="#cdcdcd" d="M800.504 1157.38c10.846 16.19 30.41 35.64 46.497 46.88l-2.039 1.33c-.689 7.03-.641 10.7-.423 17.79 3.565-.11 7.378-.71 10.223 1.13 1.113 2.3 1.285 2.87 2 5.34 5.963 4.23 17.329-2.4 23.269 2.83.331 2.4.045 4.76 1.744 6.28 5.908 5.27 7.396 9.01 5.966 16.65-5.662 3.84-5.334-2.21-11.757 3.19l-.125 1.45c10.844 1.38 47.934-1.56 60.649-1.75 71.352-1.09 142.342-5.83 213.882-7.63l.95-.86c2.28-2.06 3.27-3.48 6.23-3.81 2.66 1.37 1.79.31 2.99 2.93-1.84 1.96-3.36 2.19-5.91 3.05-8.76 1.2-23.15 1.36-32.33 1.69l-56.98 2.1c-79.549 3.4-160.299 4.82-239.479 8.67-11.139-6.45-25.876-19.1-32.436-30.3-17.111-23.82-12.131-45.53 2.186-69.27 1.962-3.76 2.317-4.34 4.893-7.69"/><path fill="#fdfdfd" d="M795.611 1165.07c.172 5.11-2.199 5.83-2.389 7.95-.897 10.02-3.834 18.69-4.363 29.98-.524 11.16 4.591 21.98 4.566 31.34-17.111-23.82-12.131-45.53 2.186-69.27"/><path fill="#cdcdcd" d="m1230.79 1177.97 8.03-.21c-1.74 23.33-8.41 37.98-26.03 54.13-8.2 7.52-26.33 17.47-37.35 18.08-1.54-.79-.91-.59-2.52-.98l-4.41-1.07c-1.47-2.54-1.03-3.78-.75-6.72 1.52-2.3 1.61-2.08 4.17-3.25l1.73.66c2.96 3.77 1.55 7.5 3.98 9.18 7.94-2.21 13.44-3.38 18.27-9.4.63-3.44.86-1.83-.78-4.97-21.45-1.71-43.96-5.22-65.43-2.83-1.8.2.04 3.49-2.96 5.92-3.99.32-5.1 1.12-8.23-1.84-.32 3.94.4 4-1.77 5.92l-1.37-.9c-.08-2.17-.16-4.34-.27-6.5l-1.43-1.08c-5.28-.03-12.56.06-17.09 2.96-.28 2.44-.31 2.47-1.19 4.77-2.76.95-3.1.7-6.09.58-2.43-2.25-1.52-.81-1.87-4.96 1.2-2.69 2.81-3.33 5.32-5.01l1.06-.7c-3.68-1.26-7.53.73-10.65.42-10.3-.99-23.54-2.01-33.8-.74-3.37 3.37-3.71 3.87-8.5 3.17l-1.94-3c-11.62-1.94-36.5-1.16-48.74-1.6-11.001-.39-24.337 1.97-36.357 1.76-3.121 1.95-4.42 3.26-8.048 3l-1.169-.87c-.508-.38-1.034-.73-1.531-1.12-9.614-7.5-59.876 3.51-89.025-17.51 31.178 13.53 37.923 12.97 71.86 13.61 23.783.31 47.568.44 71.354.4 57.946.21 116.236 1.77 174.396 1.33 20.04-.15 28.73-3.16 44.1-17.6 6.65-6.24 16.08-20.54 17.64-30.27.16-.98-1.51-1.87-2.61-2.76"/><path fill="#cdcdcd" d="M929.225 1239.83a4.915 4.915 0 0 1 7.686 3.76 4.91 4.91 0 0 1-2.229 4.42 4.914 4.914 0 0 1-6.77-1.39 4.92 4.92 0 0 1 1.313-6.79"/><path fill="#cdcdcd" d="M1009.19 1239.78a4.894 4.894 0 1 1 5.31 8.22 4.893 4.893 0 0 1-5.31-8.22"/><path fill="#cdcdcd" d="M976.114 1239.49c8.681-.34 8.656-.81 8.069 7.87-7.452.27-10.05 1.09-8.069-7.87"/><path fill="#cdcdcd" d="M991.897 1247.33c3.639.22 9.543-1.19 7.46 4.29-5.547.07-7.002 1.2-7.46-4.29"/><path fill="#cdcdcd" d="M883.768 1193.27c-14.101-2.5-25.931-5.17-38.993-11.48-52.668-25.41-63.886-87.22-38.633-136.74 32.08-63.579 64.417-127.354 96.663-190.798 21.865-43.019 37.898-85.432 87.744-102.524 23.981-8.225 48.171-7.54 71.081 3.747 1.58.721 2.75 1.378 4.26 2.215 8.99 5.05 19.86 14.161 27.01 21.658-19.72 8.895-36.07 19.976-54.23 29.171-29.13 14.745-33.23 10.349-56.275 36.357-8.409 12.119-18.346 32.854-25.153 46.403l-34.694 69.156-41.989 83.795c-5.656 11.32-18.088 34.89-22.216 46.31-15.411 37.64-8.96 69.17 18.777 98.16z"/><path fill="#fdfdfd" d="M883.768 1193.27c-14.101-2.5-25.931-5.17-38.993-11.48-52.668-25.41-63.886-87.22-38.633-136.74 32.08-63.579 64.417-127.354 96.663-190.798 21.865-43.019 37.898-85.432 87.744-102.524 23.981-8.225 48.171-7.54 71.081 3.747l-1.97 2.097c-18.08-4.766-36.32-1.95-54.24 1.406a156 156 0 0 0-68.613 47.084c-6.806 8.25-15.701 26.301-20.937 36.318a3813 3813 0 0 0-29.873 58.221c-23.467 46.521-47.315 92.831-70.533 139.469-7.658 15.38-17.56 43.87-12.269 60.79 2.532-3.45 29.461-6.32 35.296-7.1l19.852-3.22c-15.411 37.64-8.96 69.17 18.777 98.16z"/><path fill="#696969" d="M803.195 1100.86c2.532-3.45 29.461-6.32 35.296-7.1l19.852-3.22c-15.411 37.64-8.96 69.17 18.777 98.16a80.4 80.4 0 0 1-13.568-5.79 121.31 121.31 0 0 1-58.334-74.43q-1.061-3.795-2.023-7.62"/><path fill="#696969" d="M1005.42 758.978c17.92-3.356 36.16-6.172 54.24-1.406l1.97-2.097c1.58.721 2.75 1.378 4.26 2.215 8.99 5.05 19.86 14.161 27.01 21.658-19.72 8.895-36.07 19.976-54.23 29.171-29.13 14.745-33.23 10.349-56.275 36.357.746-6.517 5.773-23.945 7.604-30.591z"/><path fill="#cdcdcd" d="M1061.63 755.475c1.58.721 2.75 1.378 4.26 2.215-3.12.338-3.1.418-6.23-.118z"/><path fill="#3a2822" d="M783.692 1115.08c.512 2.43 2.103 3.82 2.088 3.7 1.25 10.19 4.292 19.21 7.933 28.79-10.257 12.12-18.734 32.24-21.876 47.73-6.565 32.38 5.796 62.62 29.178 84.94-16.671 21.85-35.839 44.58-53.209 65.46-17.944 21.57-33.005 48.75-62.897 52.18-36.929 5.04-73.585-24.49-77.932-61.14-3.47-29.26 11.43-47.82 28.667-69.21l61.646-75.67c11.147-13.81 25.34-33.2 37.868-44.83 8.739-8.12 31.802-17.66 43.568-18.98 2.378-.27 2.015.02 5.027-.92 1.397-2.41 1.144-2.46 1.114-5.32-3.529-5.35-11.142-3.28-17.493-3.37 5.826-1.26 10.984-.93 16.318-3.36"/><path fill="#242425" d="M780.091 1130.06c1.667.2 2.566.43 4.202.79 3.343 4.93 4.37 10.21 6.36 16.07-30.832 46.66-33.616 92.41 7.177 133.96-19.706 21.2-39.938 48.55-58.706 71.19-25.75 31.08-40.685 55.22-86.745 38.64-19.517-8.97-35.134-24.55-40.854-45.62-9.543-35.15 12.553-58.61 32.838-83.65l44.251-54.25c10.857-13.42 22.474-27.54 32.961-41.13 16.791-21.76 32.154-29.13 58.516-36"/><path fill="#3a2822" d="M1022.52 513.22c30.12-3.984 68.33 19.592 72.7 49.841 3.54 24.518.93 59.174.22 84.233-1.1 38.897-1.91 77.801-2.45 116.71-16-14.743-32.86-22.041-53.54-27.427-32.08-4.682-55.838.563-82.401 19.404 4.425-61.332.744-126.583 6.333-187.962 2.666-29.269 30.776-50.213 59.138-54.799"/><path fill="#242425" d="M1017.75 516.487c44.12-3.35 76.3 18.873 76.34 65.773.04 58.472-3.83 117.4-3.74 175.804-13.41-11.266-33.23-19.181-49.89-24.193-5.07-.407-9.66-1.513-15.15-1.723-24.07-.92-45.178 5.081-65.071 18.502.622-42.55 1.792-85.09 3.51-127.61.784-20.384-1.714-52.409 7.245-70.967 8.977-18.591 26.942-30.263 46.756-35.586"/><path fill="#242425" d="M1268.84 1122.94c23.26 4.28 57.05 50.02 73.26 68.38l46.05 52.55c23.06 26.27 50.76 53.8 44.03 92.59-3.02 17.41-15.27 35.58-29.94 45.4a64.57 64.57 0 0 1-48.57 9.63c-33.78-6.69-46.29-30.16-67.5-54.31-12.12-13.81-25.29-28.71-36.56-43.07 50.61-41.18 64.51-94.91 28.84-151.55-4.1-4.68-9.12-9.22-11.81-14.64.14-2.86.35-2.69 2.2-4.98"/><path fill="#3a2822" d="M1268.84 1122.94c23.26 4.28 57.05 50.02 73.26 68.38l46.05 52.55c23.06 26.27 50.76 53.8 44.03 92.59-3.02 17.41-15.27 35.58-29.94 45.4a64.57 64.57 0 0 1-48.57 9.63c-33.78-6.69-46.29-30.16-67.5-54.31-12.12-13.81-25.29-28.71-36.56-43.07 50.61-41.18 64.51-94.91 28.84-151.55l1.53-.37c7.45 8.93 14.06 19.68 16.89 31.26 12.39 50.58-3.86 87.85-43.8 121.69 22.01 20.1 42.68 52.13 64.04 73.71 12.72 12.84 30.49 20.66 48.33 20.92 16.85.34 33.11-6.23 45-18.19a65.75 65.75 0 0 0 19.71-46.82c-.09-33.88-24.52-57.21-45.41-80.78-30.59-34.52-60.04-69.94-91.69-103.54-6.07-6.44-20.37-12.41-24.21-17.5"/><path fill="#cdcdcd" d="M1126.09 950.218c11.2-6.328 33.8-19.633 44.86-24.552l32.75 51.319c27.04 41.845 45.96 72.685 34.3 125.955-1.62 7.46-3.9 14.75-6.81 21.81-10.7 23.52-26.36 44.78-50.01 56.55-2.4-8.77-7.88-30.49-11.27-38.34 2.24-10.51 8.28-18.79 9.62-31.77 3.82-36.77-14.94-60.48-33.43-89.23-5.53-8.6-36.23-55.099-36.87-60.729 1.53-3.513 1.63-2.632 5.91-4.982z"/><path fill="#696969" d="M1126.09 950.218c11.2-6.328 33.8-19.633 44.86-24.552l32.75 51.319c27.04 41.845 45.96 72.685 34.3 125.955-1.62 7.46-3.9 14.75-6.81 21.81-.03-4.09-.13-8.17-.31-12.25-1.79-34.06-17.66-76.96-44.28-99.74-8.1-6.93-18.45-9.25-27.06-18.569-9.8-10.597-23.84-35.204-33.45-43.973"/><path fill="#fdfdfd" d="M1115.14 956.249c12.52 16.807 23.91 34.236 35.52 51.601 29.56 44.22 64.18 85.02 22.12 134.58l-2.87.53c2.24-10.51 8.28-18.79 9.62-31.77 3.82-36.77-14.94-60.48-33.43-89.23-5.53-8.6-36.23-55.099-36.87-60.729 1.53-3.513 1.63-2.632 5.91-4.982"/><path fill="#cdcdcd" d="M1147.83 1041.74c2 2.87 4.07 6.23 5.99 9.2 14.28 23.01 19.92 39.33 15.7 66.31-29.39 20.24-37.01 55.97-24.54 88.4l-75.85-.01c-.84-5.38-2.35-12.89-2.18-18.15-2.22-12.51.45-35.05 3.78-47.24 12.17-44.59 38.26-75.22 77.1-98.51"/><path fill="#fdfdfd" d="M1147.83 1041.74c2 2.87 4.07 6.23 5.99 9.2l-.7.59c-7.76 6.4-17.7 11.65-25.18 17.89-26.47 22.11-43.98 48.54-53.69 81.58-2.57 8.74-5.6 32.45-7.3 36.49-2.22-12.51.45-35.05 3.78-47.24 12.17-44.59 38.26-75.22 77.1-98.51"/><path fill="#d07836" d="M1268.53 1014.69c74.18 6.55 90.22 38.91 135.31 89.28l58.02 65.93c20.39 22.96 42.23 46.79 61.89 70.31a141.83 141.83 0 0 1 31.54 103.7c-4.54 48.44-29.67 90.51-67.07 120.98a188.6 188.6 0 0 1-88.01 40.25c-4.13-.36-9.28-2.41-11.7.25-.71.18-.35.19-1.05-.02-.96-1-.78-3.19-1.02-4.64a193.34 193.34 0 0 0 123.89-82.34c22.68-34.06 33.29-76.13 24.87-116.58a138.3 138.3 0 0 0-20.1-48.48c-6.4-9.58-21-25.74-28.92-34.78l-48.19-54.69-56.49-64.2c-8.91-10.22-21.5-25.63-30.61-34.99a123.8 123.8 0 0 0-20.56-16.88c-19.64-12.8-35.33-17.25-57.76-22.17z"/><path fill="#d07836" d="M1145.14 445.772c18.91 17.146 30.47 31.305 41.81 54.375 16.57 33.71 13.61 64.601 12.75 100.862l-1.87 79.957-1.47 66.852c-.17 10.592-.82 22.141-.45 32.642 2.83 80.959-71.34 157.387-152.32 159.599-10.38.244-20.73-.981-30.76-3.638 2.87-4.095 3.91-2.506 9.79-4.31 41.85-4.133 72.62-14.877 104.5-43.291 31.14-28.228 51.23-67.673 52.46-109.848 1.89-65.189 2.47-129.903 4.46-195.027.66-21.772 2.27-42.42-2.28-63.882a155.3 155.3 0 0 0-38.11-72.61z"/><path fill="#d07836" d="M1258.85 1137.39c13.78 13.97 21.68 25.04 26.08 45.01 12 57.08-27.66 109.91-83.33 120.6-25.37 4.88-60.97 2.83-87.53 2.72l-108.82-.03-76.04.17c-37.485.16-71.833 1.77-104.335-20.78-11.099-7.7-23.304-17.61-30.61-29.13.688-1.11 1.385-2.17 2.101-3.26 41.277 40.77 81.495 39.47 134.965 39.38l69.679-.11 117.49-.02c47.48.03 99.56 7.71 135.32-31.37 20.92-22.86 26.26-45.06 25.06-75.36-5.16-24.17-9.07-27.08-20.03-47.82"/><path fill="#bc6c35" d="M1258.85 1137.39c13.78 13.97 21.68 25.04 26.08 45.01l-1.54-2.08-.88-1.17c-2.25-3.07-2.89-9.55-4.32-10.11-1.56 1.24.13 4.1.81 5.54 1.74 3.7.39 6.71-.12 10.63-5.16-24.17-9.07-27.08-20.03-47.82"/><path fill="#d07836" d="M1010.5 494.327c19.14-1.048 35.73 2.629 51.51 13.937-10.29-3.067-20.19-5.514-30.98-5.882a75.92 75.92 0 0 0-55.237 21.265A81.3 81.3 0 0 0 953.55 561.7c-4.142 16.077-3.839 58.426-4.289 77.609l-2.7 105.941-.385 17.39c-6.933 7.314-10.965 11.517-16.881 19.614-3.559-17.453-2.88-27.713-2.593-45.366l.861-51.739 1.17-67.004c.563-32.814-1.239-62.907 20.528-90.243 16.035-20.136 35.936-30.274 61.239-33.575"/><path fill="#d07836" d="m892.466 1316.73 16.497.21c-18.07 23.42-37.571 47.81-56.714 70.41-23.597 27.86-45.47 59.14-69.792 86.1-58.665 65.02-153.719 58.65-217.784 8.24-5.106-4.02-10-8.31-14.663-12.84l1.971-1.87c57.408 44.16 141.765 54.83 203.168 9.92 29.378-21.48 50.982-56.46 75.13-83.53 20.322-24.66 43.021-51.66 62.187-76.64"/><path fill="#d07836" d="M627.546 1395.55c-2.091-1.22-4.149-2.5-6.171-3.83-38.729-25.23-51.913-79.58-25.139-119.18 16.835-24.89 39.991-49.28 58.776-73.02 19.541-24.69 40.402-50.45 62.585-72.61 12.452-11.87 46.251-26.71 64.244-18.36 1.284.6 1.548 4.8 1.851 6.53-5.334 2.43-10.492 2.1-16.318 3.36-11.931 3.3-28.376 9.45-37.361 18.24-21.585 21.89-41.684 47.43-60.64 71.77-20.046 25.75-45.976 51.69-62.209 79.56-21.637 37.14-10.599 79.37 21.781 104.99z"/><path fill="#d07836" d="M1162.5 896.138c3.44-3.933 6.87-7.883 10.27-11.851 15.97 25.612 32.71 50.737 48.94 76.164 20.17 31.607 40.09 56.949 44.11 95.519 5.67 54.45-18.7 98.61-64.92 126.74l-2.61 1.57-.93-2.06c31.63-24.95 46.02-52.05 51.61-93.29 9.24-68.18-41.62-117.185-73.09-171.675-4.16-7.207-9.21-13.925-13.38-21.117"/><path fill="#d07836" d="M1017.41 826.312c-23.212 25.824-29.071 45.739-43.778 76.385l-59.92 126.603a5455 5455 0 0 1-25.301 53.06c-15.785 32.08-27.209 44.35-16.873 80.99-.776 1.09-1.149 1.45-2.077 2.46-24.256-42.5-1.502-76.23 17.669-114.87l44.623-89.12 32.389-64.821c16.139-32.281 21.804-51.056 53.268-70.687"/><path fill="#696969" d="M918.413 1108.38c13.631 6.55 27.587 38.12 30.484 52.62 3.086 15.45 1.507 29.83-2.389 44.82l-22.185.13c-10.888.05-21.776-.02-32.662-.2l.353-.78c6.989-15.87 11.329-15.92 15.769-34.48l.928-4.01c1.077-4.82 2.165-9.65 3.137-14.49l.887-4.51c2.474-12.81 4.666-26.08 5.678-39.1"/><path fill="#d07836" d="m1227.7 1306.6 12.5-5.93c20.08 22.16 59.18 75.05 80.81 88.94 11.24 7.22 23.57 10.85 36.53 13.58 6.66-.32 14.49-.3 21.28-.42l-.86.32c-4.16 1.56-4.39 2.14-8.99 2.59-25.26 5.19-53.51-3.25-71.77-20.85-24.62-23.73-46.12-53.01-69.5-78.23"/><path fill="#8b522d" d="M1357.54 1403.19c6.66-.32 14.49-.3 21.28-.42l-.86.32c-4.16 1.56-4.39 2.14-8.99 2.59-3.68-2.11-7.05-1.49-11.43-2.49"/><path fill="#d07836" d="M903.478 1076.44c34.647 17.42 62.86 59.92 66.088 98.29.552 6.57 1.12 26.06-2.89 30.92-4.298.22-5.75.29-9.981-.18-.469-1.95-.629-1.57-.211-3.33 10.271-43.25-8.927-84.87-43.29-111.49-3.22-2.49-7.631-4.81-11.202-7.3-.962-2.78.059-3.31 1.486-6.91"/><path fill="#d07836" d="M1153.48 1150.09c1-3 2.18-4.45 3.78-7.19l.38-.63-1.02 7.05c-.72 4.87-.48 8.66-.9 13.38.95 13.61 2.49 26.3 8.63 38.71.3.62 1.32 2.52 1.04 3.25-.8.48-1.45.53-2.39.58-8.29.39-8.55.82-11.58-7.59-5.71-15.84-4.79-32.13 2.06-47.56"/><path fill="#bc6c35" d="M1328.87 1502.67c3.62-.39 6.87-.6 10.5-.11 16.44 2.21 30.91.51 47.07-1.83.24 1.45.06 3.64 1.02 4.64.7.21.34.2 1.05.02 2.42-2.66 7.57-.61 11.7-.25-24.96 5.56-46.87 2.28-71.34-2.47"/><path fill="#bc6c35" d="m999.138 931.932 23.482.179c-5.88 1.804-6.92.215-9.79 4.31-5.31-1.333-8.69-2.419-13.692-4.489"/><path fill="#8b522d" d="M550.01 1468.85c-4.465-3.97-9.267-9.1-13.574-13.4 5.791 3.96 10.143 6.82 15.545 11.53z"/><path fill="#bc6c35" d="M787.389 1243.07c2.67 2.66 4.531 4.74 7.047 7.5l1.93 2.12c-.716 1.09-1.413 2.15-2.101 3.26-2.556-3.24-4.927-9-6.876-12.88"/><path fill="#bc6c35" d="M871.538 1163.35c2.092 4 3.341 7.61 4.98 11.76-2.606-3.15-5.001-5.74-7.057-9.3.928-1.01 1.301-1.37 2.077-2.46"/><path fill="#bc6c35" d="M1143.65 447.453c-7.84-7.093-6.47-8.367 1.49-1.681z"/><path fill="#bc6c35" d="M628.945 1393c1.086.83 4.697 3.3 5.152 4.5-.666 1.34-5.952-1.65-6.551-1.95z"/><path fill="#8b522d" d="M1198.29 1184.28c-7.28 4.2-7.55 2.18-.93-2.06z"/></svg>