<svg xmlns="http://www.w3.org/2000/svg" width="2048" height="2048" viewBox="0 0 2048 2048"><path fill="#232429" d="M0 0h2048v2048H0z"/><path fill="#000100" d="M1023.61 118.826c1.45 1.863 8.47 35.373 9.68 40.434 6.61 28.08 14.12 55.94 22.52 83.536 54.91 181.975 148.89 353.52 238.97 519.865 3.47 6.415 6.93 12.808 10.5 19.171l51.49 92.022c23.53 41.444 46.12 79.359 62.49 124.54 53.66 148.146 18.29 318.396-95.23 428.946-30.2 29.42-59.42 50.33-92.4 76.13-47.83 37.42-88.65 79.76-120.97 131.35-40.4 64.48-59.52 132.56-72.23 206.91-4.66 27.26-8.68 56.25-14.42 83.28-2.21-1.47-5.6-27.23-6.04-31.37-17.19-160.75-75.82-302.57-211.311-398.53-50.953-36.08-95.96-74.51-132.766-127.93a407.13 407.13 0 0 1-59.964-316.8c18.001-79.419 50.063-123.901 88.424-193.123C786.192 705.968 871.08 554.18 937.705 394.362c21.224-50.911 42.728-105.833 58.443-158.829a1143 1143 0 0 0 27.462-116.707"/><path fill="#000100" d="M781.895 784.153c70.356-127.01 150.092-279.499 201.689-414.962a1886 1886 0 0 0 25.156-69.496c2.19-6.553 13.12-43.266 15.57-44.966l.97 2.433c41.41 140.062 103.44 274.979 170.96 404.097 4.74 9.065 15.23 26.643 18.37 35.712 4.05 5.656 31.44 55.514 32.91 60.954 14.73 22.846 31.04 57.002 45.39 81.51 4.96 8.468 26.33 45.831 29.66 53.38 6.33 9.023 13.44 24.603 19.45 34.291 19.62 31.66 54.11 100.944 58.81 138.224 21.21 94.16 4.02 183.78-45.03 266.08-37.15 58.68-76.18 88.75-130.1 129.69-80.07 60.79-145.07 135.26-179.93 230.56-9.51 26.01-14.64 46-21.35 72.84-35.188-150.96-113-243.69-237.552-332.07-86.116-61.11-144.737-167.33-147.816-273.82-5.529-51.92 12.671-123.11 32.947-170.632 1.212-2.852 1.978-4.846 3.517-7.523l1.132-3.385c.77-1.212 1.2-1.972 1.828-3.317l1.982-4.113a503 503 0 0 1 12.179-23.679c2.595-6.021 17.94-31.965 22.101-39.482l47.518-86.179c4.44-9.588 14.265-26.267 19.639-36.147"/><path fill="#aeadae" d="M1168.73 646.404c9.26 19.021 22.69 45.253 33.53 63.324 5.21-5.06 7.86-7.272 9.57-14.396l1.92 3.511c.87-1.695.69-1.182.86-1.872 4.05 5.656 31.44 55.514 32.91 60.954 14.73 22.846 31.04 57.002 45.39 81.51 4.96 8.468 26.33 45.831 29.66 53.38 6.33 9.023 13.44 24.603 19.45 34.291 19.62 31.66 54.11 100.944 58.81 138.224 21.21 94.16 4.02 183.78-45.03 266.08-37.15 58.68-76.18 88.75-130.1 129.69-80.07 60.79-145.07 135.26-179.93 230.56-9.51 26.01-14.64 46-21.35 72.84-35.188-150.96-113-243.69-237.552-332.07-86.116-61.11-144.737-167.33-147.816-273.82l2.243 3.05.774.1-.738-5.17 1.333-1.26c1.873 3.46 1.524 13.66 1.59 18.29.091-8.02-.01-17.12.741-25.02l.115-1.1c1.147 12.25 1.597 23.41 3.26 35.69A341.9 341.9 0 0 0 699.454 1324c3.962 6.18 17.41 26.02 21.734 30.23l4.724 3.56c-1.716-4.92-4.496-3.57-3.789-11.05 1.123-11.88 3.862-1.75 9.404-10.1 2.404-3.84-5.861-14.31-8.151-17.82-74.763-114.4-66.292-258.98 1.872-374.386 21.421-36.27 39.08-75.668 60.527-111.543l-.336 4.766c5.948-5.004 19.605-41.168 27.003-50.504 4.393-5.544 12.74-25.136 16.886-32.487 1.887 10.486-60.066 109.235-58.796 119.459-1.501 4.38-16.973 32.025-19.954 37.528-20.058 35.98-38.781 69.349-52.528 108.317-64.574 183.03 31.536 373.97 215.48 435.92a350.44 350.44 0 0 0 267.74-18.73 347.76 347.76 0 0 0 175.94-200.02 344.7 344.7 0 0 0-14.48-249.845c-17.71-39.094-49.55-90.551-70.86-129.406a5594 5594 0 0 1-105.43-200.944c.07-5.021.53-5.686 2.29-10.541"/><defs><linearGradient id="a" x1="1370.738" x2="1111.426" y1="1309.664" y2="1235.31" gradientUnits="userSpaceOnUse"><stop offset="0" stop-color="#232731"/><stop offset="1" stop-color="#6e6e76"/></linearGradient></defs><path fill="url(#a)" d="M1247.52 757.925c14.73 22.846 31.04 57.002 45.39 81.51 4.96 8.468 26.33 45.831 29.66 53.38 6.33 9.023 13.44 24.603 19.45 34.291 19.62 31.66 54.11 100.944 58.81 138.224 21.21 94.16 4.02 183.78-45.03 266.08-37.15 58.68-76.18 88.75-130.1 129.69-80.07 60.79-145.07 135.26-179.93 230.56-9.51 26.01-14.64 46-21.35 72.84-35.188-150.96-113-243.69-237.552-332.07-86.116-61.11-144.737-167.33-147.816-273.82l2.243 3.05.774.1-.738-5.17 1.333-1.26c1.873 3.46 1.524 13.66 1.59 18.29.091-8.02-.01-17.12.741-25.02l.115-1.1c1.147 12.25 1.597 23.41 3.26 35.69A341.9 341.9 0 0 0 699.454 1324c3.962 6.18 17.41 26.02 21.734 30.23 4.845 7.28 13.202 15.93 19.239 22.44 29.919 32.28 65.446 57.16 100.199 83.8 10.992 8.42 28.827 25.99 38.076 32.31 37.473 37.53 57.916 58.86 87.697 103.11 12.594 21.24 20.724 34.55 31.488 56.97 1.801-.26.779-.3 3.023.55 5.54 11.36 17.37 39.4 20.58 51.61l.96 3.61 1.53-1.87c.52-8.91 7.45-17.15 9.08-28.09 9.07-60.88 26.83-119.21 47.63-176.97 2.5-6.94 6.01-15.92 7.44-23.04-8.39.99-32.96 4.62-39.75 2.77 4.21-1.1 22.35-2.22 29.11-3.31 19.11-3.08 35.28-7.22 53.87-12.38 12.94-5.8 27.86-9.84 42.74-16.62a358.8 358.8 0 0 0 186.9-198.91c36.83-98.54 23.29-207.79-27.35-298.275-6.08-10.868-13.68-22.897-18.72-34.149l-.32-.746c-7.37-10.809-16.84-29.99-23.85-41.917-17.09-29.086-32.15-58.367-47.64-88.172l.43-.883c2.76 2.582 18.25 34.3 22.15 40.77l1.23.228c4.31-20.64 8.97-15.697-3.03-35.382-4.23-6.946-15.95-26.575-16.38-33.759"/><path fill="#d7773f" d="M1400.83 1065.33c21.21 94.16 4.02 183.78-45.03 266.08-37.15 58.68-76.18 88.75-130.1 129.69-80.07 60.79-145.07 135.26-179.93 230.56-9.51 26.01-14.64 46-21.35 72.84-35.188-150.96-113-243.69-237.552-332.07-86.116-61.11-144.737-167.33-147.816-273.82l2.243 3.05.774.1-.738-5.17 1.333-1.26c1.873 3.46 1.524 13.66 1.59 18.29.091-8.02-.01-17.12.741-25.02l.115-1.1c1.147 12.25 1.597 23.41 3.26 35.69A341.9 341.9 0 0 0 699.454 1324c3.962 6.18 17.41 26.02 21.734 30.23 4.845 7.28 13.202 15.93 19.239 22.44 29.919 32.28 65.446 57.16 100.199 83.8 10.992 8.42 28.827 25.99 38.076 32.31 37.473 37.53 57.916 58.86 87.697 103.11 12.594 21.24 20.724 34.55 31.488 56.97 7.973 18.04 16.053 36.1 21.583 55.07 1.81 6.2 3.4 12.42 5.74 18.45l.88-.15c3.72-7.56 11.81-36.28 16.43-48.2 15.53-40.12 32.19-67.07 55.92-102.17 2.53-2.67 6.58-8.08 8.9-11.22 49.51-66.79 118.7-110.1 181.19-162.8 23.75-20.03 46.66-49.71 63.94-75.77 2.38-6.13 16.72-29.87 21.29-39.77 20.35-44.06 33.15-99.64 33.2-148.31-.11-15.95-1.1-31.88-2.97-47.73-.64-5.36-3.6-21.01-3.16-24.93"/><path fill="#f7ece9" d="m878.702 1492.78.56-1.83c4.335 3.28 3.078 4.19 7.602 5.45 4.103-2.42 7.251-12.56 8.992-17.18 2.867-7.61-.937-10.34 6.997-15.4l.455-1.83c-2.943-.97-5.867-2-8.773-3.08l-.193-.72c8.84 1.83 18.26 6.15 27.365 8.63a579 579 0 0 0 61.73 12.61c3.758.54 13.061 1.5 16.097 2.75-6.156-.74-10.001-.01-12.122 7.37-3.877 13.5-6.081 27.78-10.153 41.3-2.992 8.28-16.219 41.68-16.417 50.06 2.119 5.79 6.687 11.13 7.356 14.8l-1.799.18c-29.781-44.25-50.224-65.58-87.697-103.11"/><path fill="#f7ece9" d="M781.895 784.153c70.356-127.01 150.092-279.499 201.689-414.962a1886 1886 0 0 0 25.156-69.496c2.19-6.553 13.12-43.266 15.57-44.966l.97 2.433c41.41 140.062 103.44 274.979 170.96 404.097 4.74 9.065 15.23 26.643 18.37 35.712-.17.69.01.177-.86 1.872l-1.92-3.511c-1.71 7.124-4.36 9.336-9.57 14.396-10.84-18.071-24.27-44.303-33.53-63.324-9.71-18.637-19.81-40.729-28.97-59.867a2590 2590 0 0 1-46.13-100.401c-11.56-27.299-22.18-56.28-33.8-83.055-4.35 5.824-7.46-10.843-12.12-15.467-3.17-5.083-15.5-40.68-17.42-47.378-1.53-4.371-2.95-9.313-4.36-13.78-2.62 9.085-6.27 23.285-10.05 31.729-5.55 21.767-26.165 71.387-34.932 92.663-47.419 115.087-105.762 226.196-163.749 336.24a6704 6704 0 0 1-32.371 61.359c-2.802 5.238-11.071 21.493-14.296 25.678-1.27-10.224 60.683-108.973 58.796-119.459-4.146 7.351-12.493 26.943-16.886 32.487-7.398 9.336-21.055 45.5-27.003 50.504l.336-4.766c-21.447 35.875-39.106 75.273-60.527 111.543-68.164 115.406-76.635 259.986-1.872 374.386 2.29 3.51 10.555 13.98 8.151 17.82-5.542 8.35-8.281-1.78-9.404 10.1-.707 7.48 2.073 6.13 3.789 11.05l-4.724-3.56c-4.324-4.21-17.772-24.05-21.734-30.23a341.9 341.9 0 0 1-51.084-140.81c-1.663-12.28-2.113-23.44-3.26-35.69l-.115 1.1c-.751 7.9-.65 17-.741 25.02-.066-4.63.283-14.83-1.59-18.29l-1.333 1.26.738 5.17-.774-.1-2.243-3.05c-5.529-51.92 12.671-123.11 32.947-170.632 1.212-2.852 1.978-4.846 3.517-7.523l1.132-3.385c.77-1.212 1.2-1.972 1.828-3.317l1.982-4.113a503 503 0 0 1 12.179-23.679c2.595-6.021 17.94-31.965 22.101-39.482l47.518-86.179c4.44-9.588 14.265-26.267 19.639-36.147"/><path fill="#d46937" d="M781.895 784.153c70.356-127.01 150.092-279.499 201.689-414.962a1886 1886 0 0 0 25.156-69.496c2.19-6.553 13.12-43.266 15.57-44.966l.97 2.433c-6.14 13.568-9.68 32.17-14.39 46.5-56.093 170.848-141.868 330.427-226.168 488.601-5.823 10.809-12.232 23.4-18.377 33.861a3263 3263 0 0 1-71.583 128.921l.057-1.186c.068-1.733.318-5.92-1.285-7.16l-.897-.738c2.595-6.021 17.94-31.965 22.101-39.482l47.518-86.179c4.44-9.588 14.265-26.267 19.639-36.147"/><path fill="#707178" d="M785.775 832.891c16.682-27.31 36.686-69.767 52.089-99.045 67.68-128.647 137.041-265.873 182.026-404.224.17 5.742.26 11.951-1.74 17.435-2 5.474-2.13 3.922-2.24 9.789l-.03 1.339c-5.55 21.767-26.165 71.387-34.932 92.663-47.419 115.087-105.762 226.196-163.749 336.24a6704 6704 0 0 1-32.371 61.359c-2.802 5.238-11.071 21.493-14.296 25.678-1.27-10.224 60.683-108.973 58.796-119.459-4.146 7.351-12.493 26.943-16.886 32.487-7.398 9.336-21.055 45.5-27.003 50.504z"/><path fill="#d46937" d="M671.999 987.978c1.34 2.229 2.536 5.082 3.86 6.955A382.8 382.8 0 0 0 645.11 1147.5l-.115 1.1c-.751 7.9-.65 17-.741 25.02-.066-4.63.283-14.83-1.59-18.29l-1.333 1.26.738 5.17-.774-.1-2.243-3.05c-5.529-51.92 12.671-123.11 32.947-170.632"/><path fill="#707178" d="M1030.29 340.236c.19-.96.55-4.65 1.16-5.222l.06.009c3.06 3.557 1.75 9.385 7.69 13.272 1.46 2.884 6 15.978 7.33 19.737 4.11 11.618 9.39 23.536 13.3 35.049-4.35 5.824-7.46-10.843-12.12-15.467-3.17-5.083-15.5-40.68-17.42-47.378"/><path fill="#d7773f" d="m692.637 945.961.897.738c1.603 1.24 1.353 5.427 1.285 7.16l-.057 1.186c-7.031 13.751-12.423 26.948-18.903 39.888-1.324-1.873-2.52-4.726-3.86-6.955 1.212-2.852 1.978-4.846 3.517-7.523l1.132-3.385c.77-1.212 1.2-1.972 1.828-3.317l1.982-4.113a503 503 0 0 1 12.179-23.679"/><path fill="#d46937" d="m675.516 980.455 1.132-3.385c.165 1.076 1.859 8.168 1.66 8.358-2.735 2.605-2.585-3.549-2.792-4.973"/><path fill="#aeadae" d="M1026.04 311.435c4.66 10.842 9.56 25.417 13.16 36.86-5.94-3.887-4.63-9.715-7.69-13.272l-.06-.009c-.61.572-.97 4.262-1.16 5.222-1.53-4.371-2.95-9.313-4.36-13.78-2.62 9.085-6.27 23.285-10.05 31.729l.03-1.339c.11-5.867.24-4.315 2.24-9.789 2-5.484 1.91-11.693 1.74-17.435 1.86-6.472 3.76-11.903 6.15-18.187"/><defs><linearGradient id="b" x1="1098.055" x2="1124.148" y1="531.665" y2="522.932" gradientUnits="userSpaceOnUse"><stop offset="0" stop-color="#7f7b83"/><stop offset="1" stop-color="#acaeb0"/></linearGradient></defs><path fill="url(#b)" d="M1047.71 387.614c4.66 4.624 7.77 21.291 12.12 15.467 11.62 26.775 22.24 55.756 33.8 83.055a2590 2590 0 0 0 46.13 100.401c9.16 19.138 19.26 41.23 28.97 59.867-1.76 4.855-2.22 5.52-2.29 10.541-7.89-14.419-17.09-34.317-24.26-49.264a2716 2716 0 0 1-44.57-96.922c-15.69-35.858-38.17-86.615-49.9-123.145"/><path fill="#c40316" d="m1022.71 432.222 4.2-10.893c48.85 121.682 97.23 222.923 157.63 339.36a7283 7283 0 0 0 72.33 134.663c29.79 54.354 62.48 105.048 76.54 165.748a303.48 303.48 0 0 1-18.01 189.76 309.52 309.52 0 0 1-136.68 147.72c-14.24 7.74-24.49 11.3-38.6 17.63-13.08 4.69-25.4 9.09-39.1 11.99l-12.04 2.65c-13.43 2.45-26.41 4.48-40.07 5.3-209.247 18.49-382.44-175.63-328.175-381.46 16.121-61.139 43.418-102.685 73.418-157.431a8836 8836 0 0 0 71.673-133.677A4695 4695 0 0 0 970.3 554.762c19.225-41.866 34.92-80.259 52.41-122.54"/><path fill="#d7773f" d="m1022.71 432.222 4.2-10.893c48.85 121.682 97.23 222.923 157.63 339.36a7283 7283 0 0 0 72.33 134.663c29.79 54.354 62.48 105.048 76.54 165.748a303.48 303.48 0 0 1-18.01 189.76 309.52 309.52 0 0 1-136.68 147.72c-14.24 7.74-24.49 11.3-38.6 17.63l-1.36-4.9c72.45-32.65 129.25-81.71 163.42-154.62a291 291 0 0 0 20.04-195.98c-12.81-53.7-37.41-90.882-63.63-138.491a7793 7793 0 0 1-62.31-114.909 4110 4110 0 0 1-107.73-219.414c-22.14-48.318-47.71-105.662-65.84-155.674"/><path fill="#d7773f" d="m1138.76 1411.31 1.36 4.9c-13.08 4.69-25.4 9.09-39.1 11.99l-12.04 2.65c-13.43 2.45-26.41 4.48-40.07 5.3 6.55-1.94 10.91-2.6 17.74-3.6 25.57-3.74 48.41-11.75 72.11-21.24"/><path fill="#f7ece9" d="m1000.4 573.219 2.12 4.123c-26.556 100.425-65.259 184.828-106.129 279.582-18.178 42.144-38.649 90.354-53.027 133.663a410 410 0 0 0-19.182 83.533c-2.832 25.07-2.621 55.7-8.458 80.07-1.346 4.18-5.394 8.07-9.341 9.54-22.094 8.24-40.386-15.67-47.173-33.73-12.023-31.98-3.073-67.68 6.868-98.99 35.357-111.318 101.714-209.875 159.084-310.797a1889 1889 0 0 0 75.238-146.994"/><path fill="#f7ece9" d="M823.274 1211.88c22.786-2.34 43.137 14.28 45.408 37.07s-14.399 43.1-37.198 45.31c-22.71 2.19-42.917-14.4-45.179-37.1s14.272-42.96 36.969-45.28"/><path fill="#fec8bf" d="M1006.32 559.643c-.97 5.769-2.23 10.835-3.51 16.481l-.29 1.218-2.12-4.123c1.42-4.133 4.02-9.582 5.92-13.576"/></svg>