<svg xmlns="http://www.w3.org/2000/svg" width="2048" height="2048" viewBox="0 0 2048 2048"><path fill="#251f31" d="M0 0h2048v2048H0z"/><path fill="#020408" d="M1176.11 216.5c6.93-.755 18.77-.788 25.93-.706 124.21 1.433 230.69 44.486 320.74 128.667a493 493 0 0 1 37.32 39.188c7.31 8.616 15.23 19.234 22.7 27.297 11.63 12.555 26.54 24.257 38.56 36.439 104.44 105.79 144.06 263.794 143.74 408.333-.58 265.462-115.79 534.762-302.87 722.002-138.26 138.38-319.64 242.03-518.809 242.39-68.469-.65-138.046-18.98-199.023-49.72-17.9-9.03-36.951-13.38-55.672-20.94a519.3 519.3 0 0 1-141.277-86.11c-30.967-26.26-61.486-60-84.994-93.41-183.869-261.27-110.29-628.771 45.443-883.911C650.08 453.079 894.2 238.857 1176.11 216.5"/><path fill="#09e3d5" d="M1181.4 261.54c3.66-.092 7.32-.165 10.99-.217a429.1 429.1 0 0 1 301.56 119.751c109.22 107.065 154.94 255.185 156.06 405.271 1.93 257.065-115.92 515.235-295.14 696.925-127.79 129.56-302.24 242-489.856 243.71-276.124 1.93-455.27-229.91-466.528-491.19-10.866-252.176 99.293-505.175 265.698-691.122C792.923 400.81 983.564 271.463 1181.4 261.54"/><path fill="#251f31" d="M1194.5 279.499c280.29 5.645 436.43 248.825 435.99 509.162-.42 251.339-108.59 498.539-283.63 677.469-130.31 133.21-299.28 240.11-490.357 241.36-272.429-7.73-434.647-237.45-439.342-494.14-4.553-248.927 106.025-495.588 275.25-675.025C822.865 399.998 999.6 284.643 1194.5 279.499"/><path fill="#cbcbce" d="m1530.13 1079.79 1.57.75c-.28 7.27-5.91 21.18-8.68 28.46a978.4 978.4 0 0 1-69.67 143.88c-13.91 23.36-45.23 73.4-66.36 90.8-5.08 4.17-47.13 14.64-57.27 17.17-126.56 31.55-249.83 22.92-363.22-44.65-19.47-10.76-43.969-27.58-60.581-42.43 202.821 22.96 349.821-16.95 523.291-123.96a925 925 0 0 0 55.89-37.64c15.59-11.47 28.34-22.29 45.03-32.38"/><path fill="#cbcbce" d="M1568.9 662.681c2.76 2.428 4.56 10.072 5.4 13.789 16.96 74.763 17.68 152.106 6.97 227.828-.92 6.452-2.07 16.649-6.15 21.852-17.21 21.959-37.47 42.51-57.04 62.476a850.4 850.4 0 0 1-426.21 240.164c-6.29 1.34-14.65 2.31-21.17 3.24 6.2-5.21 12.87-10.24 19.65-14.54 187.55-118.92 346.3-282.591 444.66-482.92 11.52-23.464 22.33-48.029 33.89-71.889"/><path fill="#cbcbce" d="M791.789 1212.41c6.416 2.55 25.122 28.53 31.363 35.47 16.282 18.11 32.673 36.71 49.167 54.57 82.226 89.04 192.271 144.34 312.641 157.8 33.03 3.92 60.92 4.66 94.2 5.58-22.62 26-52.5 48.18-80.42 68.29-28.68 19.94-101.52 67.46-133.66 77.41-26.24-3.6-84.086-47.66-100.039-60.86-92.111-76.2-163.607-219.64-173.252-338.26"/><path fill="#cbcbce" d="M1377.49 381.907c7.26 3.015 22.1 12.935 28.54 17.5 45.77 32.458 94.26 85.919 117.73 137.211-1.61 17.593-12.67 57.204-17.87 75.337a981 981 0 0 1-218.11 386.669c-19.08 20.246-51.36 52.766-72.95 69.856 7.06-15.96 16.88-31.97 25.1-47.44 93.05-175.128 155.78-374.57 145.34-574.577-1.12-21.4-4.67-43.252-7.78-64.556"/><path fill="#cbcbce" d="m754.313 1069.64.824.77c2.015 5.66-1.553 59.31-1.835 70.02a965 965 0 0 0-.186 47.93c3.944 145.07 47.106 293.95 143.06 405.3 21.413 24.85 35.736 35.11 57.981 56.19-21.737 5.27-47.034 8.26-69.407 9.31-47.905 3.37-103.529-8.33-148.667-23.79-8.782-9.98-15.792-30.48-20.191-43.39-44.283-129.94-36.523-276.47-1.734-407.64 9.202-34.7 24.15-82.49 40.155-114.7"/><path fill="#cbcbce" d="M805.975 878.074c1.439 1.929-12.923 24.551-15.019 28.016a785 785 0 0 0-17.247 30.161 1357 1357 0 0 0-63.747 128.489c-59.872 140.49-92.79 284.76-90.825 438.17.281 22 2.676 45.21 4.732 67.18-19.062-9.35-45.036-39.69-58.69-56.78q-1.962-2.4-3.861-4.86c-21.816-28.25-44.992-66.03-57.501-99.28-4.242-11.27 10.951-70.42 14.562-83.85 44.258-164.62 151.771-343.507 287.596-447.246"/><path fill="#cbcbce" d="M1187.21 329.422c27.44-2.044 70.74 3.837 95.48 17.095 1.91 3.363 3.68 6.793 5.34 10.284 15.32 33.018 25.06 77.808 29.25 113.78 15.61 133.975-8.21 272.831-53.77 398.904-1.89-12.753-2.54-30.991-3.34-44.237-.27-8.597-.97-17.15-1.62-25.783-10.14-133.466-40.16-271.662-120.35-381.672-17.51-24.033-38-43.689-57.45-65.817-1.47-1.664-.86-1.874-.41-3.757 10.11-8.922 89.97-17.896 106.87-18.797"/><path fill="#cbcbce" d="m951.479 712.363 1.656.141c-1.758 3.758-54.299 38.436-62.51 43.998C773.922 835.557 667.23 930.783 584.83 1045.96a999 999 0 0 0-82.642 134.45 1063 1063 0 0 0-23.476 49.78c-2.406 5.35-11.69 28.05-15.163 30.35q-.666-3.615-1.136-7.26c-9.322-67.31-3.724-141.69 8.971-208.23 4.036-16.59 5.577-37.55 16.746-51.114 115.94-140.785 280.049-256.454 463.349-281.573"/><path fill="#cbcbce" d="M843.594 581.429c84.593-5.616 191.006 33.474 253.356 90.565-39.43-6.366-74.97-7.052-114.649-5.909-105.27 3.032-191.055 28.663-284.637 74.961a823.4 823.4 0 0 0-102.441 62.488c-18.895 13.546-36.935 28.151-55.66 41.485a775.6 775.6 0 0 1 90.628-168.314c12.549-17.591 29.652-38.597 43.247-55.99 16.403-5.596 32.749-12.279 49.299-17.573a472 472 0 0 1 120.857-21.713"/><path fill="#cbcbce" d="M968.973 382.002c8.895-.298 22.675 8.184 30.376 12.834 121.711 73.489 175.311 190.594 208.881 323.013-9.04-7.616-24.14-25.922-33.13-35.471a691 691 0 0 0-60.06-56.668c-97.96-79.968-200.822-120.933-327.759-118.415 8.832-9.377 23.984-22.295 34.008-30.566 43.977-36.281 94.931-72.554 147.684-94.727"/></svg>