<svg xmlns="http://www.w3.org/2000/svg" width="2048" height="2048" viewBox="0 0 2048 2048"><path fill="#22202a" d="M0 0h2048v2048H0z"/><path fill="#10c8c0" d="M1018.61 214.083c30.96 4.228 51.85 21.603 77.9 37.459a6209 6209 0 0 0 77.89 45.956c37.46 21.626 77.27 41.087 114.45 63.192 18.35 10.913 36.13 27.002 55.11 37.662 22.53 12.653 45.68 24.494 68.9 35.837 11.1 5.426 25.12 10.216 35.33 16.523 53.03 32.758 104.39 67.548 157.71 99.86 42.14 25.543 79.14 33.876 113.43 70.576-3.24 48.805-7.23 96.172-4.62 145.21.86 16.06 1.34 33.445 1.17 49.501l-1.2 460.011c-.21 37.76 4.49 75.15 3.93 112.91-.18 12.67-1.06 25.3-1.9 37.94-75.57 46.75-152.53 91.05-229.01 136.36-22.78 12.43-43.01 28.18-65.39 41.22-65.92 38.4-139.56 72.68-201.36 117.29-33.85 24.43-64.97 34.09-98.49 54.49-30.89 18.81-59.39 40.51-91.08 59.58-2.1 1.48-1.24 1.17-3.82 1.43-24.39-16.37-55.332-31.17-81.195-46.27-28.317-14.91-56.6-38.65-84.809-52.69-28.191-14.03-52.387-20.82-79.394-39.72-39.738-27.8-78.627-56.44-121.988-78.5-15.836-8.06-31.941-11.77-47.729-19.45-18.158-9.77-37.073-22.21-54.824-32.99l-93.95-56.54-74.713-44.36c-20.11-12.01-40.764-23.79-58.849-38.71-.136-50.64 6.54-101.65 3.639-151.94-2.305-39.95-5.629-75.6-3.075-116.17 6.363-101.1 3.478-202.114 1.484-303.251l-3.103-235.357c23.39-18.341 50.053-31.503 75.807-46.367a5920 5920 0 0 0 89.646-53.555l232.422-141.433c19.212-11.948 43.544-33.896 63.324-42.994 42.872-19.719 85.093-39.892 127.107-61.562 34.564-17.827 66.268-45.853 101.25-61.148"/><path d="M1020.11 223.708c11.69 5.703 23.17 12.035 34.62 18.215 60.77 32.784 121.23 66.14 181.7 99.458 14 8.22 26.7 19.236 40.4 27.797 46.11 28.813 93.47 55.177 141.99 79.695 28.51 14.3 54.94 32.687 82.58 48.402 71.83 40.84 140.66 79.977 207.62 128.932.54 66.838-6.1 133.916-5.07 200.825.34 21.876-.11 43.743.34 65.682.29 20.632.72 41.992.4 62.607-2.9 21.463-2.99 69.759-.53 91.389 1.05 35.67-.03 71.54.98 106.3-1.64 39.88.88 77.57 2.01 117.12 1.41 49.31-2.4 104.82.76 153.7a3882 3882 0 0 1-202.48 123.18c-37.57 21.03-75.43 40.57-113.42 60.63-30.62 16.17-59.97 38.79-91 54.93-20.33 10.57-40.84 22.32-60.7 33.77-71.02 41.59-141.59 83.95-211.71 127.05-50.373-26.19-99.635-55.18-148.662-83.71-31.809-16.94-63.375-33.5-93.559-53.37-40.543-26.69-84.322-48.42-124.765-75.48-6.505-4.36-18.488-8.77-25.95-12.27a427 427 0 0 1-29.131-15.39c-77.641-44.21-153.199-92.82-230.34-137.93-12.133-7.1-24.035-14.27-35.879-21.85-1.062-89.02-.609-177.4.894-266.39 1.497-88.63-3.017-177.491.942-266.16.896-20.062-1.778-41.892-2.004-62.209l-1.226-201.34 102.167-65.616c35.527-22.984 71.167-45.618 107.291-67.678 16.752-10.231 33.004-15.071 49.237-23.755 23.648-12.65 48.792-27.483 71.835-41.334l232.349-137.854c37.348-21.71 80.146-48.044 118.311-67.346"/><path fill="#cdd1d6" d="M367.746 654.1c34.751 18.737 73.214 42.628 107.576 62.865l202.125 118.737a18353 18353 0 0 1 278.414 163.963c8.714 5.235 59.669 34.755 63.589 38.975-1.8 16.67-.64 54.9-.64 73.34l.1 148.96.18 329.37c.06 65.21 1.25 134-.2 198.85l-305.892-177.7c-84.738-49.04-174.702-99.22-257.94-149.99l-81.239-47.05c-3.223-1.8-3.443-2.03-6.096-4.32-1.267-6.57-.719-49.19-.715-58.52l.089-135.83a275 275 0 0 1-.1-9.48z"/><path fill="#687882" d="M769.816 1164a128.9 128.9 0 0 1-8.607-55.27c1.79-25.13 12.142-48.31 31.384-64.91a83.63 83.63 0 0 1 62.097-20.42c34.181 2.98 62.256 22.86 83.617 48.54 17.035-7.99 37.865-15.03 55.294-22.43 8.419-3.57 17.859-6.45 25.849-10.87-1.8 16.67-.64 54.9-.64 73.34l.1 148.96.18 329.37c.06 65.21 1.25 134-.2 198.85l-305.892-177.7c-84.738-49.04-174.702-99.22-257.94-149.99 8.068-22.03 21.032-44.53 32.506-64.86 17.022 8.09 34.585 12.37 53.546 10.13a78.95 78.95 0 0 0 53.328-30.66c20.836-27.13 21.337-57.29 17.007-89.8 1.589-.44 66.753-55.33 75.042-61.77a1574 1574 0 0 1 48.808-36.08c10.652-7.47 24.664-16.53 34.521-24.43"/><path d="M769.816 1164a128.9 128.9 0 0 1-8.607-55.27c1.79-25.13 12.142-48.31 31.384-64.91a83.63 83.63 0 0 1 62.097-20.42c34.181 2.98 62.256 22.86 83.617 48.54 21.979 30.92 32.87 66 26.695 104.26-7.902 48.97-48.432 84.09-98.986 75.37-41.497-7.16-84.497-47.42-96.2-87.57"/><path d="M728.586 1323.37c25.604-3.18 56.977 9.79 76.6 25.58a134.19 134.19 0 0 1 48.507 91.11c5.308 54.58-23.973 103.98-81.385 109.53-27.962.95-53.746-9.68-75.646-26.61a127.93 127.93 0 0 1-49.125-85.86c-6.468-55.28 22.761-107.05 81.049-113.75"/><path fill="#687882" d="M514.758 1008.75c16.465 50.46 63.668 101.06 120.125 100.36-12.775 8.79-97.203 68.54-99.758 75.56 42.049 20.55 66.049 56.69 76.32 101.61 4.33 32.51 3.829 62.67-17.007 89.8a78.95 78.95 0 0 1-53.328 30.66c-18.961 2.24-36.524-2.04-53.546-10.13-11.474 20.33-24.438 42.83-32.506 64.86l-81.239-47.05c-3.223-1.8-3.443-2.03-6.096-4.32-1.267-6.57-.719-49.19-.715-58.52l.089-135.83a275 275 0 0 1-.1-9.48l3.444 2.8c35.4-70.28 90.194-143.59 144.317-200.32"/><path d="M419.559 1322.69c-2.681-6.66-5.275-13.07-7.19-19.99-22.83-82.51 39.192-153.35 122.756-118.03 42.049 20.55 66.049 56.69 76.32 101.61 4.33 32.51 3.829 62.67-17.007 89.8a78.95 78.95 0 0 1-53.328 30.66c-18.961 2.24-36.524-2.04-53.546-10.13-31.669-16.69-53.477-41.24-68.005-73.92"/><path fill="#cdd1d6" d="M373.819 1414.42c8.873-23.08 31.962-71.57 45.74-91.73 14.528 32.68 36.336 57.23 68.005 73.92-11.474 20.33-24.438 42.83-32.506 64.86z"/><path fill="#b6bcc2" d="m366.997 1206.27 3.444 2.8c-1.351 3.83-1.162 3.27-3.344 6.68a275 275 0 0 1-.1-9.48"/><path d="M514.758 1008.75c-8.685-29.068-9.338-59.394 5.463-86.698a85.3 85.3 0 0 1 50.782-40.99c61.978-17.799 127.571 37.793 141.525 95.659 7.535 31.249 7.599 60.799-8.61 89.309a84.35 84.35 0 0 1-52.228 40.3 82.5 82.5 0 0 1-16.807 2.78c-56.457.7-103.66-49.9-120.125-100.36"/><path fill="#687882" d="m1024.35 252.167 227.48 131.66 346.86 203.223c23.99 13.99 46.09 29.609 71.54 43.818l2.62 1.869c-1.17 5.531-26.01 16.578-32.18 20.112-70.52 40.401-143.11 77.117-214.13 116.61a7238 7238 0 0 0-226.31 129.939c-58.52 35.312-117.36 73.412-175.82 109.342l-18.27-10.687c-20.887-10.851-45.754-26.026-66.262-37.904a11573 11573 0 0 1-134.963-79.037L395.83 641.584l-17.434-10.609c64.467-36.05 129.694-77.388 193.202-115.599l241.063-142.761c62.665-37.28 128.76-68.249 190.339-107.567 6.93-4.424 14.3-8.596 21.35-12.881"/><path fill="#cdd1d6" d="m1024.35 252.167 227.48 131.66c-15.35 16.104-70.62 62.305-90.14 71.729-8.97 29.868-27.65 49.653-55.01 64.365a169.6 169.6 0 0 1-45.5 16.371c-3.8.785-11.4 1.5-14.17 2.201l3.13.974c-1.42 3.73-17.58 13.22-22.19 16.297a1904 1904 0 0 1-116.41 72.062c-11.568 6.733-85.433 49.893-94.109 47.965-15.888 20.306-34.918 33.219-58.81 42.271a170.69 170.69 0 0 1-130.902-4.29c-31.963-14.613-53.886-35.659-65.986-68.619-8.158-.287-34.777-5.575-45.908-6.703-44.291-4.49-76.479-2.105-119.995 3.134l-17.434-10.609c64.467-36.05 129.694-77.388 193.202-115.599l241.063-142.761c62.665-37.28 128.76-68.249 190.339-107.567 6.93-4.424 14.3-8.596 21.35-12.881"/><path d="M561.733 645.153c-18.825-62.957 30.908-111.582 87.709-127.956a165.76 165.76 0 0 1 125.855 14.709c48.665 27.452 79.108 81.416 48.266 134.062a196 196 0 0 1-6.132 9.823c-15.888 20.306-34.918 33.219-58.81 42.271a170.69 170.69 0 0 1-130.902-4.29c-31.963-14.613-53.886-35.659-65.986-68.619"/><path fill="#cdd1d6" d="M684.873 530.411c14.637-.844 27.433-.631 41.66 3.544-9.896.912-19.655 1.677-29.296 4.163-56.755 14.638-97.519 56.765-97.317 116.324.333 7.096 1.661 12.231 3.716 18.927-62.761-69.249 4.75-136.247 81.237-142.958"/><path d="M1047.01 538.493c-51.538 8.563-123.909-15.813-148.427-61.918-54.431-105.094 77.792-172.084 167.267-146.48 56.82 16.259 112.9 59.289 95.84 125.461-8.97 29.868-27.65 49.653-55.01 64.365a169.6 169.6 0 0 1-45.5 16.371c-3.8.785-11.4 1.5-14.17 2.201"/><path fill="#cdd1d6" d="M1023.62 344.55c3.44.166 6.89.371 10.34.614l.59 1.894c-1.81.223-3.63.421-5.44.594q-4.905.99-9.72 2.359c-59.946 16.801-105.678 73.563-87.232 137.198-30.017-32.135-35.521-73.19-3.065-106.862 24.843-25.776 59.354-35.392 94.527-35.797"/><path fill="#b6bcc2" d="M1023.62 344.55c3.44.166 6.89.371 10.34.614l.59 1.894c-1.81.223-3.63.421-5.44.594-2.52-1.783-2.67-1.87-5.49-3.102"/><path fill="#687882" d="M1033.96 345.164c1.07.038 2.44-.089 3.46.37.4.926-2.46 1.418-2.87 1.524z"/><path d="M1101.01 902.284a189.6 189.6 0 0 1-69.95 17.248c-41.295 1.874-83.671-12.068-114.441-39.926-41.214-37.313-45.066-94.387-5.946-134.925 28.431-29.73 68.778-42.786 109.507-43.838 62.75-1.621 143.81 40.668 145.1 111.297.53 28.989-14.8 50.534-34.42 70.585a248.4 248.4 0 0 1-29.85 19.559"/><path fill="#687882" d="M930.19 864.14c-38.945-35.14-31.55-88.035 9.361-117.881 34.73-25.338 70.239-29.301 111.589-23.467-2.17.726-4.34 1.484-6.49 2.275-6.79-.176-18.48 2.355-24.99 4.045-41.263 10.706-77.644 41.351-89.981 82.884-5.654 19.034-4.638 33.191.511 52.144"/><path fill="#22202a" d="M1051.14 722.792c.88.077 3.1.073 3.74.869.07.091.06.398-.04.476-1.5 1.242-8.59.939-10.19.93 2.15-.791 4.32-1.549 6.49-2.275"/><path fill="#cdd1d6" d="m1670.23 630.868 2.62 1.869c-1.17 5.531-26.01 16.578-32.18 20.112-70.52 40.401-143.11 77.117-214.13 116.61a7238 7238 0 0 0-226.31 129.939c-58.52 35.312-117.36 73.412-175.82 109.342l-18.27-10.687c30.23-35.932 61.37-63.545 94.87-95.769a248.4 248.4 0 0 0 29.85-19.559c4.33-2.303 8.57-5.297 12.78-7.867 24.39-14.91 48.76-30.358 73.79-44.165a3303 3303 0 0 1 159.4-83.169c64.29-31.769 126.7-60.297 194.73-83.321 32.78-11.093 65.24-24.07 98.67-33.335"/><path d="M1331.65 510.379c86.28-12.179 204.2 71.753 139.74 163.164-22.99 32.595-65.59 48.602-103.68 54.267-42.41 3.825-81.6-4.444-116.24-29.945-51.13-37.644-58.55-103.64-11.51-148.05 25.5-24.074 57.23-35.448 91.69-39.436"/><path fill="#687882" d="M1337.32 529.409c19.14-1.134 29.89.997 48.34 4.976l-2.16.164c-68.54 5.379-133.35 52.109-127.23 126.651.95 6.703 3.02 12.832 4.98 19.309-61.16-53.546-26.47-124.224 43.13-145.049 11.68-3.494 20.77-5.007 32.94-6.051"/><path fill="#687882" d="M1308.41 1194.27c8.27 4.5 22.42 11.4 29.84 16.27 2.07 1.01 2.89 1.33 4.72 2.69 15.21 8.26 30.88 17.54 46.21 25.19-21.62 30.13-45.79 68.05-65.98 99.48-3.03 6.34-21.79 33.13-26.44 40.12l-56.69 86.45-133.6 205.7c-17.07 26.09-39.22 63.46-56.82 87.61 3.4-12.09 15.39-37.91 20.7-50.11 16.27-37.54 33.08-74.84 50.42-111.9z"/><path fill="#cdd1d6" d="M1341.16 1216.27c-.58-2.2-.14-2 1.81-3.04 15.21 8.26 30.88 17.54 46.21 25.19-21.62 30.13-45.79 68.05-65.98 99.48.05-4.24 5.66-14.29 7.59-18.66 14.2-32.09 27.4-69.57 10.37-102.97"/><path fill="#b6bcc2" d="M1338.25 1210.54c2.07 1.01 2.89 1.33 4.72 2.69-1.95 1.04-2.39.84-1.81 3.04-1.35-1.43-4.26-3.95-2.91-5.73"/><path fill="#cdd1d6" d="M1669.4 665.601c-8.04 19.589-19.13 41.524-28.37 60.883l-47 98.397-177.34 370.189-10.83 23.02c-24.63-12.17-59.36-31.28-83.21-44.87 27.41-36.48 56.69-82.87 82.96-121.16l191.12-280.403c23.55-34.161 48.59-72.908 72.67-106.056"/><path fill="#687882" d="m1405.61 1052.06-.45 1.52c-10.74 35.66-38.44 74.73-18.45 112.28 6.68 12.55 17.64 22.38 29.98 29.21l-10.83 23.02c-24.63-12.17-59.36-31.28-83.21-44.87 27.41-36.48 56.69-82.87 82.96-121.16"/><path fill="#687882" d="M1169.32 1005.65c45.95-29.179 96.27-59.87 141.02-90.147-7.19 13.456-17 27.969-25.28 41.038l-37.74 59.539c-.58 1.71-12.57 19.61-14.53 22.67l-41.14 64.74c-4.91-3.24-9.82-6.21-15-8.97-26.86-14.26-53.44-29.85-80.77-43.13 21.91-14.06 44.99-27.81 67.13-41.67 2.17-1.47 4.05-2.72 6.31-4.07"/><path fill="#cdd1d6" d="M1169.32 1005.65c45.95-29.179 96.27-59.87 141.02-90.147-7.19 13.456-17 27.969-25.28 41.038l-37.74 59.539c-.33-2.95 1.6-8.81 2.57-11.92 15.77-50.79-64.27-5.073-78.7 3.02z"/><path fill="#8f98a1" d="m1169.32 1005.65 1.87 1.53c-3.13 2.34-4.29 2.44-8.18 2.54 2.17-1.47 4.05-2.72 6.31-4.07"/><path fill="#687882" d="M1525.91 1322.92c6.28 2.8 32.03 16.9 37.33 20.7 19.45 10.47 38.79 21.71 58.32 32.31-9.44 6.3-18.78 11.98-28.23 18.11-4.68 4.39-24.11 15.63-30.32 19.43-46.6 28.52-91.96 61.54-138.96 89.18 34.22-58.14 68.8-120.75 101.86-179.73"/><path fill="#cdd1d6" d="M1563.24 1343.62c19.45 10.47 38.79 21.71 58.32 32.31-9.44 6.3-18.78 11.98-28.23 18.11-4.98-12.16-6.37-21.16-15.05-32.28-1.43-1.83-15.83-18.35-15.51-17.32.09-.39-.01-.14.47-.82"/><path fill="#687882" d="M1633.89 1134.05c.05 8.33.04 16.65-.04 24.98.3 47.27-1.51 95.96-1.98 143.45.73 15.55-.84 35.02-1 51.3-29.51-14.85-64.8-34.05-93.39-50.4 8.51-17.25 22.28-39.89 32.03-57.03z"/><path fill="#cdd1d6" d="M1633.85 1159.03c.3 47.27-1.51 95.96-1.98 143.45-1.22 7.57-1.09 20.57-1.25 28.61-30.54-39.67-15.41-93.23-5.92-137.4 1.72-8.02 5.51-28.04 9.15-34.66"/><path fill="#687882" d="M1081.75 1068.28c29.7 16.74 68.85 37.98 97.12 56.19-29.87 47.31-65.12 99.28-93.17 147-1.79 2.76-4.25 7.3-3.96.86z"/><path fill="#5e6f7a" d="m1081.74 1272.33 3.96-.86c-1.79 2.76-4.25 7.3-3.96.86"/></svg>