<svg xmlns="http://www.w3.org/2000/svg" width="2048" height="2048" viewBox="0 0 2048 2048"><path fill="#262930" d="M0 0h2048v2048H0z"/><path fill="#06060a" d="m1269.54 707.691.92-.5c50.95-28.306 99.88-80.373 126.94-131.424 44.8-84.531 40.83-197.519-5.15-281.068a307 307 0 0 1 41.96 31.108c144.62 128.759 132.46 350.698 39.5 504.638-17.53 29.03-37.66 57.528-60.24 82.828a254 254 0 0 1 6.97 16.337 225 225 0 0 1 1.16 155.19c-4.46 12.66-10.62 24.53-16.15 36.79 15.51 3.55 31 7.22 46.46 11.01-.25 26.34-.25 52.68.01 79.02-29.14 27.85-26.88 59.86-8.22 92.97 1.69 2.94 4.15 5.49 6.4 8.05-35.97 32.45-77.62 66.94-111.79 100.27-17.91-4.11-56.54-15.22-73.89-21.15l52.55 148.66c-71.78 26.71-129.52 61.75-189.93 107.79l-205.327-.11c-12.45-10.56-25.47-19.36-38.929-28.53a714 714 0 0 0-150.244-79.3c18.278-47.41 35.307-99.96 52.536-148.34l-72.924 21.2c-36.501-32.51-77.493-66.69-112.599-99.97 24.773-34.05 29.653-70.18-1.887-101.77.402-25.93-.042-52.94.044-79.01 12.773-1.9 34.787-7.61 47.719-10.55a320 320 0 0 1-12.424-26.61c-24.151-60.23-21.275-123.298 4.161-182.511-16.239-16.377-36.465-44.913-49.431-64.226-115.95-172.697-121.721-426.879 66.765-551.614l1.011 1.372c-4.167 8.151-12.37 27.988-15.104 35.408a305.97 305.97 0 0 0-9.693 184.361c21.368 80.857 79.335 147.643 150.713 189.295 14.65-7.591 28.694-16.052 43.936-23.77a466 466 0 0 1 88.648-33.689 438.45 438.45 0 0 1 272.059 15.853c30.56 12.112 55.3 25.604 83.47 41.992"/><path fill="#cfd1d8" d="m1318.17 1104.11-1.16-3.61c-.53-1.67-7.2-13.31 4.71-11.04 1.62.3 7.63 10.6 8.96 12.92 11.49 19.14 19.94 31.44 22.9 53.89 13.81 3.89 30.52 8.17 44.02 12.64-42.29 25.38-58.15 72.34-48.06 119.34-8.56 7.3-17.01 14.73-25.35 22.28-26.87-16.07-65.88-32.69-97.4-33.87-5.04.88-4.61-1.48-8.88 1.76 7.35 1.39 14.68 2.95 21.97 4.67-29.13 6.51-45.77 12.19-70.22 30.8-20.69 19.38-33.4 35.17-46.4 61.15l1.94 1.36a326 326 0 0 1 36.79-36.44c-1.91 16.42 1.83 30.35 6.08 46.14 9.91-26.1 20.24-37.71 48.15-45.74 4.09-1.48 9.52-2.68 13.83-3.76l.99 1.56c-16.59 19.16-25.61 28.25-29.4 53.68l2.29-1.8c1.86-7.66 4.34-12.63 8.18-19.53 9.62 35.69 19.49 71.32 29.63 106.87-6.9 2.98-14.18 5.99-20.98 9.11-7.99-14.82-16.88-32.24-25.28-46.53.11 19.63.48 39.26 1.11 58.88-7.55 3.94-17.94 8.96-25.05 13.21-9.63-16.71-19.47-34.39-29.5-50.8l1.39 62.43c-9.69 6.34-17.05 11.66-26.25 18.63-9.63-20.61-19.61-41.05-29.94-61.31 1.08 22.64 2.73 52.05 2.58 74.36q-29.28-.33-58.56-.03c-2.29-21.92-4.46-49.45-7.7-70.83l-8.55 70.72-55.239-.01c.231-14.09 1.442-43.49.286-56.25-.539-5.9.923-9.8-.581-15.35-8.482 13.32-22.543 43.12-30.483 58.69a1073 1073 0 0 1-23.182-18.67c-.586-18.83.648-43.43 1.049-62.67-10.197 16.31-19.463 33.78-29.817 50.27-7.568-3.34-16.67-8.45-24.12-12.39.142-19.79.445-39.58.91-59.36-9.157 15.16-17.531 31.19-26.222 46.7-7.651-2.66-13.469-4.99-20.909-8.23a4024 4024 0 0 0 33.497-106.78c3.695 7.03 5.326 13.16 6.882 20.81l2.267.23a698 698 0 0 1-2.339-15.19c-3.707-10.16-8.214-16.43-14.22-25.42-3.393-4.46-6.94-9.08-10.261-13.58 1.643-.2 1.898-.13 3.311-.71l9.029 2.7.917.24c27.189 9.51 36.923 20.24 45.775 47.56 3.256-16.75 7.084-30.37 5.646-47.54a213 213 0 0 1 21.178 18.94c2.754 2.89 12.13 13.51 15.01 14.29-2.162-4.52-5.241-9.72-7.714-14.17-11.448-18.86-21.051-30.6-37.751-44.94-23.115-17.95-38.999-24.49-67.309-29.81a189.5 189.5 0 0 1 37.958-6.64c2.967-.88 4.495-1.2 7.575-1.45-8.723-1.2-15.069-.3-23.686-.57-34.305.8-78.858 15.76-108.481 33.32l-24.779-21.02c6.641-24.09 4.061-46.56-4.895-69.53-11.913-23.14-18.269-34.1-41.021-48.71l-1.618-1.06c14.37-4.15 29.5-9.02 43.937-12.68 1.465-14.04 5.529-24.62 14.055-36.27 4.78-8.65 11.799-18.28 17.487-26.54 3.437-4.4 6.816-2.08 6.336-.33-3.829 13.92-5.614 24.86-5.406 39.26.802 2.31 4.067 11.75 5.142 13.34 11.473 16.92 30.682 30.73 48.547 39.36 23.413 11.32 46.196 14.68 71.604 12.91-27.392 20.01-57.061 26.2-89.646 32.02l-9.854.98.245 1.99 12.658.4a232.1 232.1 0 0 0 125.66-30.61c22.964-13.07 47.69-31.45 55.05-58.04l3.636.25c.218 28.81-11.398 48.51-30.445 69.8l.912 2c32.479-26.13 53.63-58.27 68.265-96.8 12.424-7.71 21.764-16.95 31.384-27.81.57-.65 1.86-.97 2.69-1.23 2.97 2.62 2.97 2.86 5.46 5.86 8.53 10.26 18.33 17.95 29.28 25.3 6.2 36.83 43.01 71.96 69.85 96.64l.82-1.97c-25.74-25.97-46.66-56.44-37.04-94.02 1.83 25.49 6.8 41.69 27.34 58.9 33.97 28.48 84.69 46.29 128.53 51.07 15.53 1.7 31.38.47 46.79.45l1.34-2.2c-27.46.28-72.79-14.3-96.19-29.39-7.43-5.3 3.35-2.84 7.56-2.62 39.05-1.63 66.08-13.14 95.26-38.46 3-3.57 6.8-6.84 9.54-10.6 10.67-14.62 8.8-29.39 5.7-45.77"/><path fill="#7e8698" d="m1318.17 1104.11-1.16-3.61c-.53-1.67-7.2-13.31 4.71-11.04 1.62.3 7.63 10.6 8.96 12.92 11.49 19.14 19.94 31.44 22.9 53.89 13.81 3.89 30.52 8.17 44.02 12.64-42.29 25.38-58.15 72.34-48.06 119.34-8.56 7.3-17.01 14.73-25.35 22.28-26.87-16.07-65.88-32.69-97.4-33.87-5.04.88-4.61-1.48-8.88 1.76 7.35 1.39 14.68 2.95 21.97 4.67-29.13 6.51-45.77 12.19-70.22 30.8-20.69 19.38-33.4 35.17-46.4 61.15l1.94 1.36a326 326 0 0 1 36.79-36.44c-1.91 16.42 1.83 30.35 6.08 46.14 9.91-26.1 20.24-37.71 48.15-45.74 4.09-1.48 9.52-2.68 13.83-3.76l.99 1.56c-16.59 19.16-25.61 28.25-29.4 53.68l2.29-1.8c1.86-7.66 4.34-12.63 8.18-19.53 9.62 35.69 19.49 71.32 29.63 106.87-6.9 2.98-14.18 5.99-20.98 9.11-7.99-14.82-16.88-32.24-25.28-46.53.11 19.63.48 39.26 1.11 58.88-7.55 3.94-17.94 8.96-25.05 13.21-9.63-16.71-19.47-34.39-29.5-50.8l1.39 62.43c-9.69 6.34-17.05 11.66-26.25 18.63-9.63-20.61-19.61-41.05-29.94-61.31 1.08 22.64 2.73 52.05 2.58 74.36q-29.28-.33-58.56-.03c-2.29-21.92-4.46-49.45-7.7-70.83l-8.55 70.72-55.239-.01c.231-14.09 1.442-43.49.286-56.25l.667.13c.396 2.65.028 1.4 1.08 3.79 13.72 4.03 48.036-6.97 60.706-14.61 2.2-9.84 1.96-62.62 1.62-75.69-.91-33.99 1.61-77.41-1.01-110.59-7.2 16.88-21.21 61.66-26.687 80.39l-7.522-5.67c1.534-5.67 3.414-11.21 5.353-16.76 10.026-28.66 19.046-57.72 29.416-86.26 7.72 23.27 17.45 46.49 25.65 69.65 3.55 10.04 7.54 21.09 11.91 30.76-.72 1.34-.56.58-.23 2.33 5.14-2.28 53.75-43.34 60.27-48.85-7.34-18.83-21.2-48.31-30.1-66.71 7.73-5.95 13.98-10.75 21.2-17.4-18.65-28.97-50.99-72.69-65.01-101.94-7.73 8.83-15.83 17.77-22.97 27.05l-.47-77.66c2.97 2.62 2.97 2.86 5.46 5.86 8.53 10.26 18.33 17.95 29.28 25.3 6.2 36.83 43.01 71.96 69.85 96.64l.82-1.97c-25.74-25.97-46.66-56.44-37.04-94.02 1.83 25.49 6.8 41.69 27.34 58.9 33.97 28.48 84.69 46.29 128.53 51.07 15.53 1.7 31.38.47 46.79.45l1.34-2.2c-27.46.28-72.79-14.3-96.19-29.39-7.43-5.3 3.35-2.84 7.56-2.62 39.05-1.63 66.08-13.14 95.26-38.46 3-3.57 6.8-6.84 9.54-10.6 10.67-14.62 8.8-29.39 5.7-45.77"/><path fill="#c5c8d2" d="m1318.17 1104.11-1.16-3.61c-.53-1.67-7.2-13.31 4.71-11.04 1.62.3 7.63 10.6 8.96 12.92l-1.1 1.94c5.02 13.55 13.2 23.18 14.63 38.67 4.4 47.56-43.58 54.36-79.03 55.45 9.31-7.53 23.47-18.77 33.11-25.61.56-1.85.72-2.94 2.08-4.35.02-.03 1.35-1.33 1.42-1.82.06-.45-.19-.56-.55-.89-.38-.35.1.34-.25-.22.12-.9 1.53-3.92 1.94-5.07 3-3.57 6.8-6.84 9.54-10.6 10.67-14.62 8.8-29.39 5.7-45.77"/><path fill="#fcfdfd" d="M1317.78 1154.97c4.04-5.64 6.83-13.59 8.64-20.25 1.82-6.69.44-11.63 2.13-18.25 8.64 20.4 13.61 47.37-9.69 61.99-6.78 4.25-15.21 5.86-23.02 7.42 6.4-10.45 17.39-21.29 21.94-30.91"/><path fill="#a1a5b3" d="m1318.17 1104.11-1.16-3.61c-.53-1.67-7.2-13.31 4.71-11.04 1.62.3 7.63 10.6 8.96 12.92l-1.1 1.94-.53-.46-1.37 2.91c.76 3.14.62 3.07.14 6.34.36 1.15.69 2.16.73 3.36-1.69 6.62-.31 11.56-2.13 18.25-1.81 6.66-4.6 14.61-8.64 20.25-6.65 3.07-12.87 12.56-19.49 17.86.56-1.85.72-2.94 2.08-4.35.02-.03 1.35-1.33 1.42-1.82.06-.45-.19-.56-.55-.89-.38-.35.1.34-.25-.22.12-.9 1.53-3.92 1.94-5.07 3-3.57 6.8-6.84 9.54-10.6 10.67-14.62 8.8-29.39 5.7-45.77"/><path fill="#7e8698" d="m1318.17 1104.11-1.16-3.61c-.53-1.67-7.2-13.31 4.71-11.04 1.62.3 7.63 10.6 8.96 12.92l-1.1 1.94-.53-.46-1.37 2.91c.76 3.14.62 3.07.14 6.34-1.22-3.19-6.51-13.63-9.29-15.6-.24 1.63-.23 4.69-.36 6.6"/><path fill="#a1a5b3" d="M1327.68 1106.77c-.37-1.17-2.34-6.36-1.18-7.38 1.44-.24 2.28 3.66 2.55 4.47z"/><path fill="#5b6272" d="M1168.07 1386.1c9.91-26.1 20.24-37.71 48.15-45.74-33.32 20.88-35.9 31.28-46.04 69.57-7.05-7.4-19.55-21.29-26.79-27.76-10.88 4.49-21.96 10.46-32.49 15.83 2.42-5.56 4.2-10.45 7.78-15.34 1.2-2.06 3.17-6.01 4.58-7.62l1.94 1.36a326 326 0 0 1 36.79-36.44c-1.91 16.42 1.83 30.35 6.08 46.14"/><path fill="#262930" d="m1123.26 1375.04 1.94 1.36c-.98 1.15-4.63 6.13-5.69 6.62-.4-.05-.14.03-.83-.36 1.2-2.06 3.17-6.01 4.58-7.62"/><path fill="#5b6272" d="M1127.39 1286.15c21.12-2.71 52.97-11.6 73.84-9.89 2.77 1.55 13.42 2.14 16.68 2.16 7.35 1.39 14.68 2.95 21.97 4.67-29.13 6.51-45.77 12.19-70.22 30.8-.72-1.48-1.46-2.96-2.22-4.41-7.43-14.12-25.62-18.79-40.05-23.33"/><path fill="#262930" d="M1201.23 1276.26c4.9-.17 21.47-1.37 25.56.4-5.04.88-4.61-1.48-8.88 1.76-3.26-.02-13.91-.61-16.68-2.16"/><path fill="#5b6272" d="M1129.34 1216.75c1.5 1.36 9.09 8.14 9.55 9.6l-.12.37c-1.83.76-9.45-6.93-10.25-8z"/><path fill="#868794" d="M1200.11 1201.56c-7.43-5.3 3.35-2.84 7.56-2.62-2.63.98-5 1.57-7.56 2.62"/><path fill="#5b6272" d="M1203.93 1390.04c-.3 1.98-.91 9.09-1.77 10.32-.12.01-.24.02-.35.04-1.03-1.35-.42-6.88-.17-8.56z"/><path fill="#5b6272" d="M1296.3 1230.95c.86-.01 6.02-.41 6.17 1.01-.73 1.32-6.41 1.15-7.51 1.19z"/><path fill="#06060a" d="M1045.18 1154.89c18.66 29.25 38.29 60.71 58.38 88.98-7.04 4.91-13.81 10.18-20.63 15.4 9.84 23.28 20.56 45.89 30.44 69.1-16.17 12.94-36.24 31.71-52.13 45.73-4.37-9.67-8.36-20.72-11.91-30.76-8.2-23.16-17.93-46.38-25.65-69.65-10.37 28.54-19.39 57.6-29.416 86.26-1.939 5.55-3.819 11.09-5.353 16.76-16.062-16.26-37.45-33.39-54.852-49.27l29.854-68.76c-6.128-4.53-13.343-9.27-19.681-13.64a5886 5886 0 0 1 58.458-89.05l20.01 26.44c7.7-9.01 15.19-18.19 22.48-27.54"/><path fill="#7e8698" d="M709.665 1119.97c-4.112 13.83-11.922 25.12-2.927 42.63 6.014 11.7 22.765 26.6 34.051 33.44l.715.44c-12.797 2.98-39.859 10.72-47.192 22.21-11.913-23.14-18.269-34.1-41.021-48.71l-1.618-1.06c14.37-4.15 29.5-9.02 43.937-12.68 1.465-14.04 5.529-24.62 14.055-36.27"/><path fill="#7e8698" d="m825.839 1337.31 9.029 2.7.917.24c27.189 9.51 36.923 20.24 45.775 47.56 3.256-16.75 7.084-30.37 5.646-47.54a213 213 0 0 1 21.178 18.94c2.754 2.89 12.13 13.51 15.01 14.29 3.009 3.85 10.897 20.43 13.544 25.64-8.431-4.82-21.113-12.5-29.924-15.54-8.218 5.46-22.016 20.45-29.427 28.17-2.52-12.89-10.441-52.45-24.637-56.79-6.267 3.59-5.696 15.41-5.941 22.04-3.707-10.16-8.214-16.43-14.22-25.42-3.393-4.46-6.94-9.08-10.261-13.58 1.643-.2 1.898-.13 3.311-.71"/><path fill="#7e8698" d="m825.839 1337.31 9.029 2.7.917.24c-1.286 2.47-2.222 8.2-2.996 11.35-3.393-4.46-6.94-9.08-10.261-13.58 1.643-.2 1.898-.13 3.311-.71"/><path fill="#7e8698" d="M873.263 1276.26c21.703 3.21 35.312 5.99 56.532 11.58-16.271 5.49-43.879 10.58-51.866 26.55-23.115-17.95-38.999-24.49-67.309-29.81a189.5 189.5 0 0 1 37.958-6.64c5.784.07 20.084.87 24.685-1.68"/><path fill="#fcfdfd" d="M718.478 1120.37c2.674-4.13 4.053-8.41 7.23-12.53l3.151-4.08c-1.881 4.87-3.802 9.91-5.747 14.74-10.716 31.85 9.068 47.86 29.817 68.23-36.651-12.61-45.357-28.97-34.451-66.36"/><path fill="#c5c8d2" d="M727.152 1093.43c3.437-4.4 6.816-2.08 6.336-.33-3.829 13.92-5.614 24.86-5.406 39.26-1.089-2.63-4.093-11.1-4.97-13.86 1.945-4.83 3.866-9.87 5.747-14.74l-3.151 4.08c-3.177 4.12-4.556 8.4-7.23 12.53-.428-.08-1.314-.16-1.736-.46 1.903-3.03 4.663-11.36 6.587-12.53 4.272-2.62 6.501-4.88 7.577-9.9l.599-2.91-.044.22.049-1.72.056.19-.096-.18c-.954-.12-3.272.25-4.318.35"/><path fill="#5b6272" d="M832.467 1275.92c10.436-2.34 30.075-.54 40.796.34-4.601 2.55-18.901 1.75-24.685 1.68 2.967-.88 4.495-1.2 7.575-1.45-8.723-1.2-15.069-.3-23.686-.57"/><path fill="#262930" d="M959.476 1483.61c.192-.66.318-1.35.875-1.82 1.708.25.496 15.59.373 17.3l-.667-.13c-.539-5.9.923-9.8-.581-15.35"/><path fill="#474952" d="M910.267 1225.37c3.378-3.47 6.937-7.28 10.412-10.61l.912 2c-2.425 2.88-8.096 6.5-11.324 8.61"/><path fill="#474952" d="m749.004 1231.17 4.871-.2.245 1.99-3.957.65z"/><path fill="#5b6272" d="m847.081 1391.98 2.267.23c-.102 1.11-.206 5.38-.871 6.11-.906-1.21-1.235-4.91-1.396-6.34"/><path fill="#868794" d="m750.163 1233.61-1.045-.26c-1.009-.25-2.824-.56-3.6-1.42-.064-.28-.085-.15.051-.38 1.007-.56 2.335-.38 3.435-.38z"/><path fill="#fcfdfd" d="M724.776 1294.32c9.87-48.02 73.658-47.42 110.952-43.11-.308 1.92-1.758 1.73-3.643 2.7-41.433-.77-75.304 16.68-107.309 40.41"/><path fill="#c5c8d2" d="M835.728 1251.21c3.977.13 11.545 1.63 15.579 2.32-7.244.47-11.839.69-19.222.38 1.885-.97 3.335-.78 3.643-2.7"/><path fill="#cfd1d8" d="M852.781 728.535c59.921-32.896 120.793-46.995 188.699-45.602 23.2.87 81.21 10.049 100.82 20.692a256.7 256.7 0 0 1 83.11 46.432c-7.58 6.994-13.34 7.802-23.23 8.257-13.53-1.493-23.22-3.557-34.8 5.239-8.18 6.211-8.18 9.397-12.99 14.638-37.96 68.154 32.64 126.534 86.86 156.631 4.16 2.302 8.34 4.568 12.55 6.796l4.16 1.991.21 1.176c-26.66 15.539-53.01 32.399-79.8 47.425 41.65-10.257 105.36-26.77 143.42-3.006 34.61 21.616 42.02 62.476-1.9 81.456-19.7-56.53-69.31-68.33-122.49-49.02-35.8 13.01-59.66 34.34-78.48 67.19-14 7.9-21.98 8.74-36.91 1.91 1.43-11.54 2.59-21.11 6.11-32.33-8.78 8.89-12.71 14.15-19.17 24.86-39.49-32.44-11.58-74.24 23.52-93.87l-1.87-1.853c-32.45 14.733-46.41 22.313-66.57 51.073-17.77-26.73-39.248-41.565-68.91-53.512q-2.534.17-5.071.269c22.344 10.536 53.121 42.033 50.171 69.453-1.311 12.17-10.058 19.24-19.197 26.08-5.425-8.05-13.826-16.56-20.64-23.6 3 10.46 4.967 21.2 5.875 32.05-2.181.95-4.382 1.86-6.601 2.72-32.54 12.41-37.541-19.75-56.342-37.65-33.605-31.98-86.663-52.47-132.12-35.12-25.732 9.83-37.954 27.2-48.402 51.74-14.137-10.9-25.819-26.38-20.901-45.27a61.07 61.07 0 0 1 28.769-37.502c38.347-21.908 99.337-7.374 139.838 3.703-22.39-15.388-52.87-32.823-76.553-47.23 7.046-4.851 23.121-12.934 31.063-17.174 31.393-19.443 59.535-43.441 75.289-77.909 9.49-20.762 10.909-46.222 2.348-67.543-5.975-14.88-19.767-34.298-38.212-30.992-8.036 1.441-15.27 5.649-23.737 6.047-9.461.446-14.234-1.84-22.572-5.416 12.606-9.559 21.041-15.339 34.656-23.229"/><path fill="#7e8698" d="M1041.48 682.933c23.2.87 81.21 10.049 100.82 20.692a256.7 256.7 0 0 1 83.11 46.432c-7.58 6.994-13.34 7.802-23.23 8.257-13.53-1.493-23.22-3.557-34.8 5.239-8.18 6.211-8.18 9.397-12.99 14.638-37.96 68.154 32.64 126.534 86.86 156.631 4.16 2.302 8.34 4.568 12.55 6.796l4.16 1.991.21 1.176c-26.66 15.539-53.01 32.399-79.8 47.425 41.65-10.257 105.36-26.77 143.42-3.006 34.61 21.616 42.02 62.476-1.9 81.456-19.7-56.53-69.31-68.33-122.49-49.02-35.8 13.01-59.66 34.34-78.48 67.19-14 7.9-21.98 8.74-36.91 1.91 1.43-11.54 2.59-21.11 6.11-32.33-8.78 8.89-12.71 14.15-19.17 24.86-39.49-32.44-11.58-74.24 23.52-93.87l-1.87-1.853c-32.45 14.733-46.41 22.313-66.57 51.073-17.77-26.73-39.248-41.565-68.91-53.512q-2.534.17-5.071.269c-1.294-.48-2.552-.995-3.832-1.508l1.566-1.095c-1.474-.794-3.023-.867-2.284-2.544l.39-.966c-1.65-.777-1.946-.752-3.844-1.122-20.692-6.535-51.189-12.139-68.939-19.054 68.221-12.664 133.114-40.385 179.534-93.963 46.2-53.312 45.06-136.28-11.16-182.192"/><path fill="#cfd1d8" d="m1253.8 941.618-1.98.714c-21.32-3.94-49.3-19.033-67.57-30.477-40.1-25.123-75.76-73.052-44.31-119.151 2.82-4.129 9.7-13.565 14.45-14.513-37.96 68.154 32.64 126.534 86.86 156.631 4.16 2.302 8.34 4.568 12.55 6.796"/><path fill="#c5c8d2" d="M947.783 982.774c-1.474-.794-3.023-.867-2.284-2.544l.39-.966c32.07 9.427 54.981 17.691 77.561 42.856 16.99-19.27 33.88-26.751 58.12-35.043 5.14-1.759 17.76-5.833 22.91-4.396-1.76 2.584-8.04 4.867-11.19 6.332l-.82.387-1.87-1.853c-32.45 14.733-46.41 22.313-66.57 51.073-17.77-26.73-39.248-41.565-68.91-53.512q-2.534.17-5.071.269c-1.294-.48-2.552-.995-3.832-1.508z"/><path fill="#262930" d="M1104.48 982.681c-1.76 2.584-8.04 4.867-11.19 6.332l-.82.387-1.87-1.853c4.81-2.057 8.85-3.38 13.88-4.866"/><path fill="#474952" d="M947.783 982.774c2.938.749 4.486 1.255 7.337 2.334q-2.534.17-5.071.269c-1.294-.48-2.552-.995-3.832-1.508z"/><path fill="#cfd1d8" d="M1142.3 703.625a256.7 256.7 0 0 1 83.11 46.432c-7.58 6.994-13.34 7.802-23.23 8.257-4.36-34.288-55.18-46.168-59.88-54.689"/><path fill="#7e8698" d="M818.125 751.764c12.606-9.559 21.041-15.339 34.656-23.229 4.2 2.035 16.056 1.154 21.482 1.351 28.95 1.051 53.519 19.737 64.918 45.971a92.28 92.28 0 0 1 .769 71.849c-18.047 44.394-70.057 71.705-114.941 79.871 31.393-19.443 59.535-43.441 75.289-77.909 9.49-20.762 10.909-46.222 2.348-67.543-5.975-14.88-19.767-34.298-38.212-30.992-8.036 1.441-15.27 5.649-23.737 6.047-9.461.446-14.234-1.84-22.572-5.416"/><path fill="#a1a5b3" d="M942.045 978.142c1.898.37 2.194.345 3.844 1.122l-.39.966c-.739 1.677.81 1.75 2.284 2.544l-1.566 1.095c-.845-.241-8.294-2.782-8.016-3.615 2.445-.718 2.604.325 3.844-2.112"/><path fill="#7e8698" d="M725.996 1043.97c24.076-53.532 98.093-49.84 142.275-28.29 28.608 13.96 62.07 39.17 73.351 69.94a86 86 0 0 1 1.791 5.37c-11.892-18.33-22.115-31.79-39.345-45.84-43.436-35.43-107.912-50.626-157.295-18.06-6.572 4.34-14.903 11.93-19.179 18.71z"/><path fill="#fcfdfd" d="M930.31 985.698c14.9 3.133 38.377 25.812 46.316 38.632 8.129 13.12 9.998 19.69 6.453 34.45-8.64 5.47-15.112-23.51-18.55-30.37-8.892-17.72-20.778-28.71-34.219-42.712"/><path fill="#a1a5b3" d="M727.594 1045.8c-4.258 10.77-4.632 5.03-1.598-1.83z"/><path fill="#7e8698" d="m1467.61 443.299 1.86-3.184c32.28 109.504 12.62 201.87-41.44 300.153-44.63 81.145-108.77 151.883-207.81 158.185-20.47-19.144-41.42-42.02-42.11-71.405-.88-36.936 13.93-34.037 40.07-42.622 131.38-40.675 223.36-146.688 247.85-281.503.12-3.421.89-7.38 1.27-10.979.85-20.731 2.07-26.63.31-48.645"/><path fill="#cfd1d8" d="M1466.03 502.923c2.32 4.008 1.64 5.72 2.19 10.437-5.26 107.142-60.51 220.275-139.92 292.032-22.24 20.091-43.17 36.272-71.78 46.506-39.48-7.726-58.43-26.858-38.34-67.472 131.38-40.675 223.36-146.688 247.85-281.503"/><path fill="#c5c8d2" d="M1467.3 491.944c3.03 5.376 1.69 15.154.92 21.416-.55-4.717.13-6.429-2.19-10.437.12-3.421.89-7.38 1.27-10.979"/><path fill="#7e8698" d="M584.182 433.223c-2.913 29.932-2.602 46.142.436 75.41.431 2.522.882 5.032 1.245 7.565a356.6 356.6 0 0 0 157.913 227.914c32.268 20.871 69.093 37.607 106.77 45.437 20.566 4.148 27.219 14.673 22.417 35.876-7.847 34.644-32.42 60.727-61.338 79.958a90 90 0 0 1-2.881-.937c-96.734-32.921-151.674-93.06-196.782-182.443-45.522-90.203-61.255-191.719-27.78-288.78"/><path fill="#cfd1d8" d="M585.863 516.198a356.6 356.6 0 0 0 157.913 227.914c32.268 20.871 69.093 37.607 106.77 45.437 6.556 12.167 6.228 20.57-2.379 31.471-6.208 9.221-30.457 28.167-41.86 27.436-24.357-1.561-70.808-38.491-88.277-53.599A397.73 397.73 0 0 1 583.734 525.5c.55-4.354.036-5.81 2.129-9.302"/><path fill="#fcfdfd" d="M655.968 701.709c31.23 41.565 71.954 71.728 114.229 101.323 12.46 8.723 26.318 16.979 38.495 25.811-68.939-24.868-114.723-66.325-155.051-126.928z"/><path fill="#c5c8d2" d="M653.641 701.915c-1.208-1.357-6.635-7.33-5.64-9.161 1.721-.535 6.881 7.512 7.967 8.955z"/><path fill="#c5c8d2" d="M583.734 525.5c-.766-5.856-1.941-11.924.884-16.867.431 2.522.882 5.032 1.245 7.565-2.093 3.492-1.579 4.948-2.129 9.302"/><path fill="#8c5433" d="M784.592 1508.51c56.004 20.25 112.756 45.87 157.83 85.88 54.489 1.33 110.148-.61 164.648.32 48.55-40.92 98.14-65.43 158.24-85.15l.76 1.53c-4.74 1.54-21.71 10.21-26.95 12.67-47.82 22.44-86.76 47.35-128.74 78.86-21.7-.6-46.17.1-68.15.06-34.55-.34-69.106-.27-103.654.22-41.974-34.31-105.136-70.22-154.722-92.52z"/><defs><linearGradient id="a" x1="663.486" x2="609.889" y1="762.224" y2="805.065" gradientUnits="userSpaceOnUse"><stop offset="0" stop-color="#72462f"/><stop offset="1" stop-color="#945835"/></linearGradient></defs><path fill="url(#a)" d="M553.664 623.789a494.1 494.1 0 0 0 188.928 307.127l-15.86 5.891c-81.691-69.441-128.681-140.72-159.997-244.433-5.826-19.295-9.213-49.085-14.025-63.783.332-1.609.67-3.183.954-4.802"/><path fill="#8c5433" d="m1496.09 628.833 1.18 1.733c-2.21 8.568-3.59 18.514-5.47 27.354a536 536 0 0 1-10.78 41.555 475.3 475.3 0 0 1-158.11 237.118c-5.85-2.633-9.15-3.65-15.24-5.506 4.77-3.38 9.5-6.812 14.2-10.295 16.13-12.142 29.74-25.827 43.61-40.18 53.4-55.297 92.58-125.426 116.1-198.37 4.8-14.875 12.35-37.854 14.51-53.409"/><path fill="#8c5433" d="M1384.77 1300.5c-12.61-52.29-10.31-86.71 22.35-131.05l-.06 15.75c-26.48 37.21-29.21 76.91-16.73 120.02-21.36 18.67-44.51 38.27-65.1 57.58-18.53-7.52-64.15-20.01-84.25-23.42l1.25-3.51c29.62-1.49 53.65 6.63 81.2 16.2 21.37-18.34 38.8-34.54 61.34-51.57"/><path fill="#8c5433" d="M642.818 1168.65c4.431 5.8 8.467 11.89 12.08 18.24 21.737 38.34 19.622 73.69 8.293 114.31 23.376 18.35 39.9 31.47 62.344 51.72 26.307-11.9 54.597-17.27 83.34-17.51 3.113 1.14 3.487.63 4.59 3.55a893 893 0 0 0-90.037 23.47c-19.855-18.86-43.563-38.91-64.402-57.01 1.335-5.31 2.629-10.63 3.882-15.95 8.797-39.13.933-72.06-19.93-105.3z"/><path fill="#8c5433" d="M1378.75 948.875c6.62 7.291 11.48 39.822 12.3 49.637 2.1 25.228-2.22 61.598-13.38 84.438l-1.55.38-6.51-10.75c15.39-37.23 17.66-79.474 2.59-117.167z"/><path fill="#8c5433" d="M671.298 949.089c1.997 1.396 4.863 4.554 6.696 6.428-13.385 37.526-13.087 79.993 3.183 116.573l-4.735 9.63-1.754 1.96-1.338-.63a184.63 184.63 0 0 1-2.052-133.961"/><path fill="#311d14" d="M552.71 628.591c-.49-2.206-3.9-26.087-2.977-26.922l.327.065c1.084 4.034 3.443 18.463 3.604 22.055-.284 1.619-.622 3.193-.954 4.802"/><path fill="#311d14" d="M1496.09 628.833c.59-6.276 2.83-12.806 3.4-17.868 1.22 2.008-1.37 16.692-2.22 19.601z"/><path fill="#6e4835" d="M808.875 1335.41c5.904.44 11.133.78 16.964 1.9-1.413.58-1.668.51-3.311.71-4.026-.93-4.995.78-9.063.94-1.103-2.92-1.477-2.41-4.59-3.55"/><path fill="#a1a5b3" d="m948.981 1136.2 2.539-2.85c-.299 3.98-.178 7.6-.396 11.61l-3.636-.25c.606-3.24 1.174-5.18 1.493-8.51"/><path fill="#6e4835" d="M1235.79 1336.12c2.21-.16 4.23-.2 6.44-.25l-1.25 3.51c-1.94-.62-3.88-1.27-5.81-1.95z"/><path fill="#311d14" d="M1265.31 1509.56c2.28-.99 6.13-2.51 8.61-2.56l.04-.14h.31l.05.18c-.39.32-.79.63-1.18.94l.11-.14c-2.61 1.35-4.51 2.15-7.18 3.25z"/><path fill="#311d14" d="M783.854 1510.38c-8.165-3.02-8.855-5.44.738-1.87z"/><path fill="#5b6272" d="M1467.61 443.299c-.18-1.22-1.22-7.449-.15-8.428 1.01.939 1.63 3.829 2.01 5.244z"/><path fill="#5b6272" d="M948.981 1136.2c.023-.85-.23-6.77 1.201-6.79.986.54 1.176 3.08 1.338 3.94z"/><path fill="#311d14" d="M1230.05 1336.6c1.32-.49 2.5-.57 3.9-.51l1.84.03-.62 1.31c-1.37.26-2.75.5-4.13.73z"/></svg>