<svg xmlns="http://www.w3.org/2000/svg" width="2048" height="2048" viewBox="0 0 2048 2048"><path fill="#22252d" d="M0 0h2048v2048H0z"/><path d="M1116.62 47.747c.97 9.03-4.83 49.291-6.11 61.127-4.01 37.43-8.22 74.839-12.62 112.226-4.64 36.343-10.67 76.876-14.43 112.992 7.74 5.776 8.47 8.07 12.54 16.586a676.7 676.7 0 0 1 241.95 73.665c11.16 5.924 30.37 15.972 39.99 23.637 135.37-27.333 267.74-35.611 404.13-53.637-21.46 14.138-48.15 37.207-69.37 52.813-56.43 41.506-111.79 86.698-168.54 127.615 4.6 13.245-.92 18.474 1.51 23.21 3.08 6.004 16.08 20.925 21.09 27.275 6.54 8.3 12.8 16.819 18.76 25.544 42.76 62.832 83.6 144.534 98.13 219.726a16963 16963 0 0 1 203.16 158.534c38.68 30.38 85.18 64.84 122.14 96.2-18.61-1.09-57.08-7.15-76.96-9.68l-123.24-15.92c-31.5-4.34-65.64-9.81-97.06-13.18-5.97 6.82-8.17 9.05-16.34 12.87-3.35 20.34-5.29 37.06-9.75 57.84-15.35 71.49-50.69 162.08-93.36 221.84 14.84 54.53 23.43 121.06 31.34 176.87a7178 7178 0 0 1 27.74 216.33c-20.15-23.57-42.27-52.93-61.45-77.75l-68.8-87.94c-13.18-16.8-34.82-46.18-48.6-60.91-10.3 1.04-11.63.63-20.99-2.76-8.03 8.35-24.75 21.46-34.21 28.75-67.26 51.81-158.36 95.42-241.43 113.64-79.14 106.77-164.44 210.19-244.299 316.23l-1.592 1.36c-2.919-5.61 30.23-265.26 33.968-289.69-6.52-6.05-8.935-8.7-12.457-16.82-10.898-.62-29.005-3.58-39.805-5.36-80.971-13.36-178.156-45.75-246.624-91.78-85.285 15.55-171.237 26.39-257.037 38.44l-88.465 12.7c-15.761 2.2-34.83 5.36-50.488 5.94l235.254-181.5c-3.188-10.13-3.063-13.39.792-23.16-10.043-9.92-26.1-31.48-34.241-42.76a617.3 617.3 0 0 1-103.455-229.1c-90.163-66.2-176.987-138.5-265.118-207.511-20.237-15.847-41.495-32.373-60.98-49.053 5.703.854 11.632 1.68 17.355 2.36 92.372 10.974 184.919 24.645 277.343 34.943 5.751-7.161 8.257-9.285 16.811-13.466 11.007-97.942 50.512-196.856 103.151-279.68-10.5-50.973-16.932-103.944-26.795-155.182-5.672-29.461-10.94-60.368-15.232-90.04a2858 2858 0 0 1-16.431-148.146l121.65 156.149c18.603 23.833 37.05 48.653 56.001 72.103 8.883-.703 11.82-.576 20.275 2.122C650.15 458.469 723 414.173 789.117 387.858c27.124-10.796 55.08-18.698 83.157-26.466 8.117-8.804 17.731-21.926 25.187-31.513l44.831-57.853 106.288-136.698c21.87-28.267 45.56-60.197 68.04-87.581"/><path fill="#22252d" d="M1049.59 512.768c92.25 1.101 196.99 42.186 269.12 98.85-27.98 50.88-62.2 106.781-92.13 156.951a8977 8977 0 0 0 173.65-86.703c80.73 79.466 114.78 151.665 132.36 262.706l-118.6 26.298c-12.79 2.84-46.12 9.186-56.67 12.988 18.97 7.863 43.11 16.023 62.66 23.272 38.49 14.15 76.84 28.7 115.03 43.65-.75 88.25-39.44 193.77-94.31 262.4a7344 7344 0 0 0-117.92-63.49c-15.22-8.09-31.77-16.13-46.59-24.56 4.87 12.87 15.53 32.5 21.99 45.13 13.33 26.46 26.87 52.82 40.61 79.08 8.09 15.51 20.95 39.04 27.49 54.75a466.36 466.36 0 0 1-257.3 126.45c-11.77-57.26-28.12-121.78-41.98-178.75-16.68 43.66-45.72 133.69-65.33 181.85-.32.79-4.206.58-5.657.61a477.53 477.53 0 0 1-268.873-93.96c20.447-37.38 46.007-75.44 66.998-112.93 7.457-13.31 20.893-34.48 26.918-48.06a7474 7474 0 0 0-175.168 84.81c-18.124-19.94-33.72-36.24-49.739-58.29-40.198-55.32-71.799-132.76-80.722-200.85 34.979-8.04 70.216-15.89 105.267-23.61 24.64-5.43 49.706-9.74 74.436-15.24-13.266-6.41-42.292-16.74-56.862-22.43l-122.259-47.624c-.355-14.812 2.596-38.173 4.764-53.028 11.235-77.014 39.662-149.2 88.425-210.299 16.366 7.456 44.746 23.667 60.866 32.691 32.48 18.181 67.434 36.713 99.376 55.623-3.584-8.35-7.753-16.925-11.854-25.062-24.917-49.447-48.679-99.961-74.396-148.974 75.868-75.23 155.859-113.372 260.228-131.467 4.803 18.853 9.164 42.879 13.205 62.239a9183 9183 0 0 1 24.666 122.079c3.64-8.447 7.309-18.88 10.34-27.608 18.481-53.21 40.111-106.146 57.961-159.492"/><path fill="#bbc1c9" d="M436.577 375.815a651 651 0 0 0 17.534 23.112c36.728 46.262 71.687 94.342 108.899 140.176 16.267-12.217 28.285-5.97 37.306 10.567 2.54-4.67 7.725-14.776 11.295-18.063 38.511-36.141 84.452-60.987 130.419-86.037 47.973-26.143 93.55-40.626 145.376-56.504 19.48 18.821 50.108 52.832 61.458 77.086 2.053 5.832 4.626 12.626 6.338 18.481-87.668 6.875-184.083 48.998-252.043 104.152a392 392 0 0 0-30.399 27.248c-3.783 3.74-11.28 10.481-14.182 14.398-4.403 5.945-10.632 8.565-14.329 12.379 8.749 17.719 19.328 35.115 28.241 52.743 8.157 16.13 15.986 32.638 24.014 48.877-34.63-18.339-77.875-49.76-113.714-63.646-24.78-9.6-71.232-15.163-99.406-20.773-6.523-36.31-12.084-72.528-17.61-108.972-4.902-27.742-9.632-55.355-13.704-83.238-4.487-30.722-7.866-61.874-15.493-91.986"/><path fill="#985424" d="M948.864 466.152c2.053 5.832 4.626 12.626 6.338 18.481-87.668 6.875-184.083 48.998-252.043 104.152a392 392 0 0 0-30.399 27.248c-3.783 3.74-11.28 10.481-14.182 14.398-4.403 5.945-10.632 8.565-14.329 12.379-.434-3.253-5.72-10.858-7.683-13.933 74.786-80.663 174.84-135.577 282.466-158.04 9.101-1.899 19.505-2.203 28.21-4.285z"/><path fill="#bbc1c9" d="M1078.1 144.069c-3.16 38.691-9.51 76.584-15.03 114.897-4.52 31.324-8.15 61.827-13.52 93.179 22.73 5.418 23.86 17.996 16.01 37.464l19.87-9.698a616.4 616.4 0 0 1 217.47 62.865c23.64 11.938 47.22 27.548 70.93 38.614a1215 1215 0 0 0-10.07 50.351c-2.27 12.639-5.56 34.301-9.97 45.697-1.78 3.926-6.12 11.344-8.32 15.411-21.81-15.113-35.3-26.56-59.21-40.642-85.03-50.071-164.57-68.865-262.36-70.111l-32.846 104.931c-6.862-43.532-14.222-100.33-34.238-138.945-9.13-17.614-42.168-54.952-56.754-68.585 5.292-7.577 10.934-15.263 16.001-22.958 15.381-23.354 33.086-44.778 50.089-66.983l84.328-108.947c9.42-11.925 18.18-24.74 27.62-36.54"/><path fill="#985424" d="M1027.84 465.931c30.71.018 64.42 2.613 94.76 7.325 82.11 12.754 165.11 55.125 231.19 104.182-1.78 3.926-6.12 11.344-8.32 15.411-21.81-15.113-35.3-26.56-59.21-40.642-85.03-50.071-164.57-68.865-262.36-70.111z"/><path fill="#bbc1c9" d="M1391.52 476.879c89.1-14.409 192.15-32.049 282.47-39.531-12.67 8.882-25.13 18.196-37.5 27.496-42.95 32.291-86.99 63.627-129.33 96.691 14.39 15.584 10.57 27.146-6.26 38.202 16.44 10.931 30.88 30.268 43.05 46.251 36.58 48.049 70.48 106.688 89.69 164.021 8.3 24.761 15.33 52.716 23.37 78.298-22.21 18.82-49.37 45.974-73.14 60.528-6.46 3.746-11.29 6.099-18.09 9.246-15.95-133.606-64.49-223.625-162.82-314.957l-96.87 51.799c21.32-34.909 49.85-77.079 63.68-115.016 5.3-14.531 8.84-38.621 11.74-54.414 3.09-16.255 6.42-32.461 10.01-48.614"/><path fill="#985424" d="M1402.96 643.124c5.52-3.031 10.5-6.038 15.87-9.327 76.98 73.805 117.07 137.609 148.18 240.574 4.49 14.871 7.64 29.155 10.87 44.342 1.17 5.54 4.38 26.288 5.99 30.122-6.46 3.746-11.29 6.099-18.09 9.246-15.95-133.606-64.49-223.625-162.82-314.957"/><path fill="#bbc1c9" d="M487.614 675.328c25.666 10.184 59.127 10.805 88.167 19.092 6.074 2.452 10.711 4.541 16.592 7.43-72.397 101.799-106.114 187.321-107.888 314.3 3.986 1.43 11.217 5.4 15.306 7.41 27.667 13.62 56.179 24.48 84.869 35.74-11.712 2.88-35.493 7.51-47.315 9.09-43.596 5.81-77.855 7.89-112.954 37.69-16.137 13.7-29.23 28.19-43.751 43.6-20.772-14.22-50.184-38.58-70.904-54.5L144.763 967.293c65.698 10.186 142.129 18.401 208.667 25.989 5.618-22.447 18.274-23.052 36.478-13.379-2.51-8.245-5.006-14.09-8.405-22.072a706.6 706.6 0 0 1 106.111-282.503"/><path fill="#985424" d="M575.781 694.42c6.074 2.452 10.711 4.541 16.592 7.43-72.397 101.799-106.114 187.321-107.888 314.3l-15.628-4.09c-1.965-99.765 24.613-183.284 74.847-269.507 9.353-16.055 21.443-32.714 32.077-48.133"/><path fill="#bbc1c9" d="M1349.83 1302.02c21.75 10.94 45.09 24.22 66.47 36.14 15.24 8.5 37.01 24.36 54.1 29.65 29.28 9.07 64.23 14.04 94.44 20.33 3.43 47.07 13.72 97.02 22.04 143.96 7.89 44.49 14.81 95.54 24.1 139.06-11.66-15.24-125.26-160-128.21-160.21-10.68-.76-16.75 9.36-28.08-2.21-3.15-3.21-4.9-7.25-6.56-11.36-16.62 22.57-25.24 28.54-46.8 46.62-58.51 49.05-123.18 77.2-194.93 100.84-14.77 4.87-31.04 8.86-45.42 13.87-23.36-26.8-47.16-45.54-59.84-78.89l-5.36-16.48c108.71-15.3 171.39-41.52 259.23-109.5 7.83-6.13 15.4-12.57 22.71-19.31 7.21-6.75 21.64-23.2 29.41-26.56-14.96-32.19-39.3-74.62-57.3-105.95"/><path fill="#985424" d="M1095.78 1563.34c108.71-15.3 171.39-41.52 259.23-109.5 7.83-6.13 15.4-12.57 22.71-19.31 7.21-6.75 21.64-23.2 29.41-26.56l7.29 12.95c-64.13 63.86-143.79 115.2-231.78 139.17-4.45 1.21-82.53 20.42-81.5 19.73z"/><path fill="#bbc1c9" d="M698.578 1459.24c99.909 71.73 201.652 107.51 324.942 106.49 1.96-4.14 5.32-15.38 7.82-21.27 11.42-26.87 20.7-54.66 30.85-82.09 9.82 47.85 10.99 103.79 35.29 146.9 9.44 16.75 35.92 45.79 50.67 58.71-57.01 77.36-117.82 153.26-176.572 229.38 3.997-21.42 6.686-56.02 9.08-78.61l13.409-125.04c-19.543-10.2-19.126-18.8-10-37.25-4.264 2.01-15.201 7.26-19.152 8.5-13.659 4.29-38.051-2.09-52.106-4.82-54.632-10.64-107.792-26.85-158.455-49.97-27.502-12.56-53.027-27.03-79.746-40.85 1.517-19.85 11.962-75.81 18.868-94.52 1.742-5.17 3.442-10.36 5.102-15.56"/><path fill="#985424" d="M698.578 1459.24c99.909 71.73 201.652 107.51 324.942 106.49-2.03 4.85-4.46 12.45-6.3 17.59-107.121 5.21-239.394-43.7-323.744-108.52 1.742-5.17 3.442-10.36 5.102-15.56"/><defs><linearGradient id="a" x1="310.962" x2="667.42" y1="1266.128" y2="1551.748" gradientUnits="userSpaceOnUse"><stop offset="0" stop-color="#b9bfc8"/><stop offset="1" stop-color="#dde1e7"/></linearGradient></defs><path fill="url(#a)" d="m467.653 1098.36 17.274-6.05c14.167 111.81 48.06 197.92 127.342 280.5 8.006 8.34 22.947 25.01 30.792 31.68 34.814-17.44 65.379-35.11 99.078-54.63-13.555 28.34-36.444 61.61-52.281 89.24-22.097 38.56-26.405 86.02-32.115 129.92-27.757 3.6-57.498 9.82-85.822 14.04l-197.717 28.72c54.976-39.08 111.39-84.23 165.938-124.83-12.171-14.19-8.559-26.38 5.539-36.93-10.087-9.31-24.281-27.42-33.39-38.5a554.4 554.4 0 0 1-92.56-165.49c-9.858-27.71-17.603-56.39-26.915-84.39 19.914-21.79 48.906-50.07 74.837-63.28"/><path fill="#985424" d="m467.653 1098.36 17.274-6.05c14.167 111.81 48.06 197.92 127.342 280.5 8.006 8.34 22.947 25.01 30.792 31.68l-13.005 7.62c-34.557-23.71-70.192-77.32-92.784-113.01-38.703-61.15-58.407-129.84-69.619-200.74"/><path fill="#bbc1c9" d="M1669.19 899.284c50 37.459 99.75 77.57 149.84 115.516l53.94 40.81c7.45 5.55 24.54 17.46 30.33 23.08-16.84-2.95-34.45-3.2-51.22-5.54-51.86-7.22-105.22-11.72-156.42-22.33-4.49 22.93-16.36 29.8-37.69 18.86 2.22 8.45 3.51 12.7 8.12 20.41-7.95 86.86-37.03 155.83-77.47 232.51-8.01 15.17-19.66 32.87-28.66 48.13-18.43-5.44-35.08-6.65-53.83-9.91-12.26-2.14-24.06-6.26-35.64-10.71-4.36-1.98-8.86-4.24-13.2-6.33 60.33-78.11 96.78-162.85 106.35-261.91 1.61-16.66 2.77-38.77 1.46-55.24-31.2-11.99-69.33-26.4-101.12-36.561 39.04-8.275 97.58-12.845 132.56-30.803 18.97-9.736 57.81-43.716 72.65-59.982"/><path fill="#985424" d="M1565.1 1026.63c5.72 2.12 11.68 4.43 17.41 6.43-1.41 122.26-38.91 220.42-112.02 317.05-4.36-1.98-8.86-4.24-13.2-6.33 60.33-78.11 96.78-162.85 106.35-261.91 1.61-16.66 2.77-38.77 1.46-55.24"/></svg>