<svg xmlns="http://www.w3.org/2000/svg" width="2048" height="2048" viewBox="0 0 2048 2048"><path fill="#14171f" d="M0 0h2048v2048H0z"/><path fill="#cdd0d9" d="M1289.78 133.636c25.2 30.452 57.78 78.037 75.54 113.636-2.43 5.863 6.4 23.037 5.08 33.8l-9.69-16.168c49.3 159.892 45.61 279.753.2 439.773a960.6 960.6 0 0 1-76.2 193.246c-44.52 84.221-92.95 140.057-157.44 208.917l2.14 1.76c36.81-23.49 74.27-45.79 111.25-69.43.59 41.1-.18 82.17.5 123.25.08 4.3 1.06 12.3.08 15.88 5.94-4.46 11.4-8.74 17.8-12.51 6.68-15.52 13.5-33.95 30.15-39.95 59.89-21.57 73.29-17.69 128.12 5.63-.68-10.12-1.63-17.02-3.17-27.01 7.27 5.71 17.1 13.62 22.9 20.87.99 19.08 2.17 38.15 3.54 57.2l-.93 1.8c-5.09 9.66-19.5 29.58-21.93 35.81-7.47 19.13-12.95 37.15-21.2 56.83l14.79-5.91c-2.6 12.5-4.79 23.38-6.61 36.01-10.73 5.45-27.23 12.8-36.81 18.59l-3.69 9.27c-16.25 7.28-34.83 17.01-50.48 25.64a3503 3503 0 0 1-75.66-33.86c-9.93 1.56-19.91 2.87-29.91 3.94-29.13 3.7-33.04 2.74-57.64-14.53-17.47-12.26-33.56-22.93-49.17-37.96-11.56-.06-23.93.08-35.41-.27l-41.17-52.51c-12.78 17.65-26.949 35.35-40.373 52.59-11.645.09-23.825.38-35.423.27-24.089 21.5-61.236 57.67-94.007 54.06-14.26-1.56-28.755-3.32-43.026-5.55l-14.007 6.47c-.056 9.1-1.283 62.7 1.296 67.56a398 398 0 0 1-25.714 16.89c3.746 3.27 10.116 8.54 13.403 11.9 11.817 1.56 25.148 3.59 36.927 4.73 2.587 2.28 8.397 7.12 10.487 9.44-1.977 10.5-.689 61.37-.195 73.79-2.6-6.74-5.859-13.2-9.732-19.3-20.868-32.34-58.131-37.82-92.417-47.36-67.694-18.82-71.746 45.03-80.595 92.98-6.327-9.23-12.649-19.47-18.444-29.04-32.249-53.25-67.32-105.66-98.739-159.34 13.34-6.34 27.603-14.78 40.4-22.16 18.855 25.24 36.988 53.89 55.547 79.81 26.805.25 53.685-.29 80.452.17 1.387-.17 2.422-.47 3.78-.8l-1.949-1.8c-21.577-8.62-44.896-19.58-66.729-28.75-2.815-8.58-5.535-17.2-8.161-25.84-.957 1.11-1.436 1.56-2.136 2.72.631 5.1 1.654 10.89 2.445 16.03-12.103-20.97-28.065-43.92-41.634-64.41 4.122-19.15 8.121-38.85 12.947-57.79-8.757-14.29-16.555-32.46-23.509-47.82a5171 5171 0 0 1-36.94-84.15c36.724-31.68 74.821-64.88 112.544-95.18 1.69-32.891-2.265-45.746-22.077-72.922 21.349 9.964 42.848 21.663 64.325 30.949 15.883 6.57 36.55 8.125 51.427 16.773 12.198 7.08 24.621 18.39 36.332 26.89 45.095 26.93 91.111 58.39 136.796 85.93-4.376-5.35-10.596-11.68-15.475-16.65-71.912-73.37-130.074-153.696-171.898-247.977-60.675-136.777-100.549-287.829-83.994-438.489 5.478-49.849 17.617-95.803 31.67-143.679-5.162 8.05-10.285 17.362-15.107 25.711l-.654-3.572c-1.52-5.357.279-6.37-3.058-10.579 1.694-4.522 7.699-15.943 10.028-20.126 1.007-2.852 9.707-18.667 11.406-21.876 19.063-36.007 42.789-69.071 67.222-101.608-59.719 150.791-71.826 293.629-32.546 451.594 10.685 42.97 20.259 76.529 37.486 118.08 60.489-54.632 167.477-101.08 248.659-105.338 90.66-4.756 208.64 46.179 276.04 104.448.43-1.007.85-2.02 1.25-3.038 71.93-181.464 79.24-385.791.69-566.385"/><path fill="#14171f" d="M639.181 952.578c21.349 9.964 42.848 21.663 64.325 30.949 15.883 6.57 36.55 8.125 51.427 16.773 12.198 7.08 24.621 18.39 36.332 26.89-1.277 11.11-.73 47.81-.462 60.31.512 23.85-1.05 53 .01 76.12 6.777 10.08 44.501 34.28 56.469 34.5 30.091.57 43.779 17.75 68.803 33.66-1.959-6.83-3.971-13.64-6.037-20.44 15.556 22.84 27.327 29.13 49.611 45.25 14.556-18.67 33.157-41.44 46.341-60.57l-30.858-65.57c15.943 18.38 33.938 40.56 50.288 57.72 15.59-18.47 32.34-38.73 48.71-56.29l-30.14 64.11c15.16 20.68 31.01 40.85 47.52 60.47 15.25-10.62 32.41-23.76 44.24-38.18l2.65-4.03.95.07c-.61 3.52-.69 4.22-1.95 7.68-1.13 3.16-2.22 7.12-3.21 10.39 9.14-6.44 34.53-25.78 43.91-29.04 24.43-8.5 40.43-8.14 63.13-25.05 5.94-4.46 11.4-8.74 17.8-12.51 6.68-15.52 13.5-33.95 30.15-39.95 59.89-21.57 73.29-17.69 128.12 5.63-.68-10.12-1.63-17.02-3.17-27.01 7.27 5.71 17.1 13.62 22.9 20.87.99 19.08 2.17 38.15 3.54 57.2l-.93 1.8c-5.09 9.66-19.5 29.58-21.93 35.81-7.47 19.13-12.95 37.15-21.2 56.83l14.79-5.91c-2.6 12.5-4.79 23.38-6.61 36.01-10.73 5.45-27.23 12.8-36.81 18.59l-3.69 9.27c-16.25 7.28-34.83 17.01-50.48 25.64a3503 3503 0 0 1-75.66-33.86c-9.93 1.56-19.91 2.87-29.91 3.94-29.13 3.7-33.04 2.74-57.64-14.53-17.47-12.26-33.56-22.93-49.17-37.96-11.56-.06-23.93.08-35.41-.27l-41.17-52.51c-12.78 17.65-26.949 35.35-40.373 52.59-11.645.09-23.825.38-35.423.27-24.089 21.5-61.236 57.67-94.007 54.06-14.26-1.56-28.755-3.32-43.026-5.55l-14.007 6.47c-.056 9.1-1.283 62.7 1.296 67.56a398 398 0 0 1-25.714 16.89c3.746 3.27 10.116 8.54 13.403 11.9 11.817 1.56 25.148 3.59 36.927 4.73 2.587 2.28 8.397 7.12 10.487 9.44-1.977 10.5-.689 61.37-.195 73.79-2.6-6.74-5.859-13.2-9.732-19.3-20.868-32.34-58.131-37.82-92.417-47.36-67.694-18.82-71.746 45.03-80.595 92.98-6.327-9.23-12.649-19.47-18.444-29.04-32.249-53.25-67.32-105.66-98.739-159.34 13.34-6.34 27.603-14.78 40.4-22.16 18.855 25.24 36.988 53.89 55.547 79.81 26.805.25 53.685-.29 80.452.17 1.387-.17 2.422-.47 3.78-.8l-1.949-1.8c-21.577-8.62-44.896-19.58-66.729-28.75-2.815-8.58-5.535-17.2-8.161-25.84-.957 1.11-1.436 1.56-2.136 2.72.631 5.1 1.654 10.89 2.445 16.03-12.103-20.97-28.065-43.92-41.634-64.41 4.122-19.15 8.121-38.85 12.947-57.79-8.757-14.29-16.555-32.46-23.509-47.82a5171 5171 0 0 1-36.94-84.15c36.724-31.68 74.821-64.88 112.544-95.18 1.69-32.891-2.265-45.746-22.077-72.922"/><path fill="#a6adbd" d="M639.181 952.578c21.349 9.964 42.848 21.663 64.325 30.949 15.883 6.57 36.55 8.125 51.427 16.773 12.198 7.08 24.621 18.39 36.332 26.89-1.277 11.11-.73 47.81-.462 60.31.512 23.85-1.05 53 .01 76.12-5.653-12.72-14.294-32.95-28.137-38.09-48.771-18.14-85.141-19.87-128.709 11.88-.104-12.35-.455-21.32 1.616-33.59a887 887 0 0 0-21.424 22.26 2839 2839 0 0 1-3.626 56.93c6.02 9.81 19.085 29.91 23.438 39.6 7.751 17.25 12.857 38.07 21.218 56.11-5.847-2.56-10.946-4.72-16.529-7.85q3.861 16.11 8.028 32.13a1851 1851 0 0 1 36.325 19.07l6.222 12.79c15.931 8.66 32.464 16.83 48.159 25.6l60.53-27.24c-.056 9.1-1.283 62.7 1.296 67.56a398 398 0 0 1-25.714 16.89c3.746 3.27 10.116 8.54 13.403 11.9 11.817 1.56 25.148 3.59 36.927 4.73 2.587 2.28 8.397 7.12 10.487 9.44-1.977 10.5-.689 61.37-.195 73.79-2.6-6.74-5.859-13.2-9.732-19.3-20.868-32.34-58.131-37.82-92.417-47.36-67.694-18.82-71.746 45.03-80.595 92.98-6.327-9.23-12.649-19.47-18.444-29.04-32.249-53.25-67.32-105.66-98.739-159.34 13.34-6.34 27.603-14.78 40.4-22.16 18.855 25.24 36.988 53.89 55.547 79.81 26.805.25 53.685-.29 80.452.17 1.387-.17 2.422-.47 3.78-.8l-1.949-1.8c-21.577-8.62-44.896-19.58-66.729-28.75-2.815-8.58-5.535-17.2-8.161-25.84-.957 1.11-1.436 1.56-2.136 2.72.631 5.1 1.654 10.89 2.445 16.03-12.103-20.97-28.065-43.92-41.634-64.41 4.122-19.15 8.121-38.85 12.947-57.79-8.757-14.29-16.555-32.46-23.509-47.82a5171 5171 0 0 1-36.94-84.15c36.724-31.68 74.821-64.88 112.544-95.18 1.69-32.891-2.265-45.746-22.077-72.922"/><path fill="#2a2f3c" d="m633.475 1349.26 2.398.69 1.668 6.15c-.957 1.11-1.436 1.56-2.136 2.72-.79-2.19-1.429-7.02-1.93-9.56"/><path fill="#696d7a" d="M633.475 1349.26c-.294-1.83-.634-3.73-.644-5.59l.026.5.156-1.54c.109-.06.217-.12.325-.17 1.139.91 2.143 5.9 2.535 7.49z"/><path fill="#f1ceab" d="M679.573 257.759c.255 6.221-5.639 22.265-6.97 30.705-1.52-5.357.279-6.37-3.058-10.579 1.694-4.522 7.699-15.943 10.028-20.126"/><path fill="#2a2f3c" d="m1127.27 1106.84 2.14 1.76c-5.27 3.47-7.35 2.89-2.14-1.76"/><path fill="#14171f" d="M773.596 731.641c31.245-24.119 53.337-38.978 91.179-52.965-18.201 83.698-1.875 160.762 37.82 235.384l-2.711.904c-57.782-56.587-91.42-111.554-126.288-183.323"/><path fill="#14171f" d="M1184.38 678.26c31.82 10.704 65.43 31.9 91.48 52.84a624.7 624.7 0 0 1-90.55 145.32c-14.5 17-25.37 28.746-41.31 44.383 42.11-77.919 59.66-154.565 40.38-242.543"/><path fill="#2a2f3c" d="M902.595 914.06c4.917 5.882 2.282 5.947-2.711.904z"/><path fill="#cdd0d9" d="M984.387 1277.97c13.424-17.24 27.593-34.94 40.373-52.59l41.17 52.51c11.48.35 23.85.21 35.41.27 15.61 15.03 31.7 25.7 49.17 37.96 24.6 17.27 28.51 18.23 57.64 14.53.08 6.95 1.16 38.13-1.21 42.07l-2.02.95c6.58.81 62.36 38.16 71.86 44.23l-12.19 11.52-23.05 3.11-15.16 1.63c-5.89 5.56-13.17 12.07-18.68 17.84 1.57 13.39.91 33.85.54 47.52-1.48 54.84 1.76 110.23-.01 164.97l-9.18 9.33c.11 21.04 2.51 35.85 3.93 55.96 1.2 4.66 2.01 10.4 2.76 15.23 2.25 14.44 5.83 28.46 8.94 42.72-4.02 4.71-7.91 8.96-11.97 13.58a3006 3006 0 0 1-47.15 52.51c3.5-100.44 13.78-189.41-6.58-291.2-2.36 8.27-4.53 22.23-6.16 31.05-3.39 18.63-6.89 37.24-10.48 55.83l-37.55 189.23c-13.17 11.42-27.12 22.82-40.53 34l-17.14-163.3c-3.23-29.52-9.36-71.78-10.84-100.47l-2.32 1.05c-1.58 21.24-4.59 44.61-6.91 65.94l-14.59 135.37c-1.87 18.61-4.903 43.18-5.809 61.41l-39.984-32.58-31.478-155.07c-7.424-38.4-15.22-84.05-24.118-121.7-18.478 86.37-13.536 178.04-7.536 265.37.573 8.34 1.381 17.21 1.534 25.53l-46.241-51.45c-4.208-4.81-9.085-9.7-13.499-14.43 3.937-17.62 7.598-35.09 10.545-52.91.651-3.93 1.179-7.72 2.183-11.6.826-14.33 3.81-32.55 5.017-48.24-6.21-7.3-12.239-13.04-19.08-19.7-9.432-8.49-19.927-19.09-29.11-28.15 11.752-14.61 23.703-34.01 28.821-52.15 7.346-22.56 7.132-35.15.423-58.12-.494-12.42-1.782-63.29.195-73.79-2.09-2.32-7.9-7.16-10.487-9.44-11.779-1.14-25.11-3.17-36.927-4.73-3.287-3.36-9.657-8.63-13.403-11.9a398 398 0 0 0 25.714-16.89c-2.579-4.86-1.352-58.46-1.296-67.56l14.007-6.47c14.271 2.23 28.766 3.99 43.026 5.55 32.771 3.61 69.918-32.56 94.007-54.06 11.598.11 23.778-.18 35.423-.27"/><path fill="#14171f" d="m1120.93 1344.82 1.32-3.45c11.11 12.08 22.01 24.35 32.7 36.8l49.97-4.5c6.58.81 62.36 38.16 71.86 44.23l-12.19 11.52-23.05 3.11-15.16 1.63c-5.89 5.56-13.17 12.07-18.68 17.84-17.99 16.8-36.95 36.38-55.11 53.77 8.94-22.08 18.06-49.83 26.18-72.64-4.51-3.41-22.86-16.92-24.8-20.08-11.51-18.76-23.79-48.16-33.04-68.23"/><path fill="#14171f" d="M895.44 1378.17q18.723-21.75 37.795-43.2c-10.845 23.41-24.781 56-37.501 78.52-1.498 2.65-20.29 16.36-23.826 19.23 8.018 23.94 17.154 48.74 24.744 72.52a5300 5300 0 0 1-62.329-61.5c-2.09-2.32-7.9-7.16-10.487-9.44-11.779-1.14-25.11-3.17-36.927-4.73-3.287-3.36-9.657-8.63-13.403-11.9a398 398 0 0 0 25.714-16.89c12.364-7.87 31.079-20.53 43.529-27.18 16.752 1.08 36.083 2.49 52.691 4.57"/><path fill="#a6adbd" d="M833.705 1575.65c.803 22.05 1.156 58.6.289 80.3-9.432-8.49-19.927-19.09-29.11-28.15 11.752-14.61 23.703-34.01 28.821-52.15"/><path fill="#a6adbd" d="M848.057 1723.89c1.547 6.27.9 68.61.771 78.94-4.208-4.81-9.085-9.7-13.499-14.43 3.937-17.62 7.598-35.09 10.545-52.91.651-3.93 1.179-7.72 2.183-11.6"/><path fill="#a6adbd" d="M1202.98 1729.78c1.2 4.66 2.01 10.4 2.76 15.23 2.25 14.44 5.83 28.46 8.94 42.72-4.02 4.71-7.91 8.96-11.97 13.58.16-23.08-.83-48.79.27-71.53"/><path fill="#2a2f3c" d="m1120.93 1344.82-.41-.85c-.55-1.11-2.66-4.86-1.99-6.14 1.07-.47 3.28 2.91 3.72 3.54z"/><path fill="#696d7a" d="M1023.96 1610.01c.08-2.86 1.4-11.46 2.1-3.04l.22 1.99z"/><path fill="#14171f" d="m1025.26 1290.64 26.86 34.26c5.24-4.04 11.1-8.14 16.47-12.07-3.6 8.42-7.05 17.16-10.52 25.65 4.31 14.78 9.35 33.1 14.82 47.34 3.25 8.47 13.87 24.5 18.96 32.66l27.04 43.81c-9.88 14.37-27.41 38.56-35.55 53.03-5.32 9.46-16.67 38.78-21.54 50.47-2.39-16.18-4.14-34.36-6.08-50.74-6.92-4.55-13.9-9.67-20.68-14.48-1.75-12.94-2.16-38.1-2.96-51.96l-6-101.61c-.7 2.08-1.43 4.15-2.17 6.22.08 14.39-1.69 33.8-2.57 48.75-2.15 32.73-3.92 65.49-5.3 98.26l-21.814 15.33c-.807 14.02-4.176 34.72-5.851 49.59-5.15-11.49-15.405-39.19-20.913-48.48-9.201-15.51-26.194-38.46-36.934-53.74l29.411-47.21c3.964-6.38 14.717-22.94 17.261-29.17 5.819-14.24 10.993-33.68 15.435-48.76-3.193-8.22-6.869-16.61-10.307-24.76a383 383 0 0 1 16.264 11.55c8.948-11 17.898-22.75 26.668-33.94"/><path fill="#696d7a" d="M1023.91 1353.22c.03-2.78.12-12.49 1.6-14.5.72 1.37.64 6.63.57 8.28-.7 2.08-1.43 4.15-2.17 6.22"/><path fill="#a6adbd" d="M1240.66 1039.17c9.74-6.48 19.11-12.85 28.57-19.7 7.18-5.2 16.19-13.91 23.69-17.89 16.47-8.754 37.65-9.712 54.8-17.315 20.78-9.209 40.86-22.453 61.86-30.729-17.96 24.294-21.78 40.353-21.5 71.154a6957 6957 0 0 1 70.14 59.37c11.11 9.57 31.67 28.36 42.73 36.33-18.47 38.42-38.47 97.97-59.53 131.35 2.98 18.35 8.16 39.6 12.91 57.58-14.74 19.92-27.6 39.73-41.17 60.44-5.29 9.94-1.99-3.76-1.5-6.01l.82-4.21c-.6-1.18-1.23-2.35-1.88-3.5-3.16 8.59-7.23 20.77-10.87 28.88-19.08 7.32-41.99 17.38-60.71 25.87 1.28.84 2.44 1.67 3.69 2.55 23.83-.99 52.89-.19 77.09-.11 17.01-24.85 37.08-56.48 54.64-80.01 13.37 7.7 26.88 15.14 40.52 22.33-39.32 59.16-77.97 125.82-116.46 186.38-18.19-95.4-26.5-109.52-124.38-78.92-26.74 11.74-46.69 22.34-58.03 50.95-16.66 42.08 3.46 80.64 28.63 113.96l-36.49 36.57c1.77-54.74-1.47-110.13.01-164.97.37-13.67 1.03-34.13-.54-47.52 5.51-5.77 12.79-12.28 18.68-17.84l15.16-1.63 23.05-3.11 12.19-11.52c-9.5-6.07-65.28-43.42-71.86-44.23l2.02-.95c2.37-3.94 1.29-35.12 1.21-42.07 10-1.07 19.98-2.38 29.91-3.94a3503 3503 0 0 0 75.66 33.86c15.65-8.63 34.23-18.36 50.48-25.64l3.69-9.27c9.58-5.79 26.08-13.14 36.81-18.59 1.82-12.63 4.01-23.51 6.61-36.01l-14.79 5.91c8.25-19.68 13.73-37.7 21.2-56.83 2.43-6.23 16.84-26.15 21.93-35.81l.93-1.8c-1.37-19.05-2.55-38.12-3.54-57.2-5.8-7.25-15.63-15.16-22.9-20.87 1.54 9.99 2.49 16.89 3.17 27.01-54.83-23.32-68.23-27.2-128.12-5.63-16.65 6-23.47 24.43-30.15 39.95-6.4 3.77-11.86 8.05-17.8 12.51.98-3.58 0-11.58-.08-15.88-.68-41.08.09-82.15-.5-123.25"/><path fill="#2a2f3c" d="M1410.6 1356.04c1.01-3.55 3.47-9.85 4.87-13.3-.78 5.32-1.46 11.71-2.99 16.8-.6-1.18-1.23-2.35-1.88-3.5"/><path fill="#989eaf" d="M1411.66 1363.75c.28 3.1.11 3.26 1.5 6.01-5.29 9.94-1.99-3.76-1.5-6.01"/><path fill="#2a2f3c" d="M1339.02 1410.79c1.28.84 2.44 1.67 3.69 2.55l-1.2-.08c-.59-.03-5.4.18-4.92-1.29.94-.79 1.18-.77 2.43-1.18"/><path fill="#e68842" d="M579.489 732.121a1029 1029 0 0 0 25.196 186.941c-31.881 40.757-42.378 82.558-28.929 132.448a7001 7001 0 0 1-67.385 72.67c3.6 9.21 10.123 21.06 14.952 30.07 16.894 31.5 31.353 66.82 48.979 97.68q-2.942 20.7-5.656 41.43a1212 1212 0 0 1-25.939 16.36c-18.763 11.76-41.514 26-60.92 36.62l132.999 196.82c18.625 27.71 46.388 71.99 66.368 97.21-2.432-37.52-4.605-68.24 3.058-105.88 2.055 1.37 2.069 1.42 4.396 2.34-6.135 48.74-1.034 92.68 5.796 140.97l-217.97-332.55c16.368-10.64 44.13-30.56 60.407-38.87 4.611-3.78 21.422-14.31 27.35-18.41l4.88-36.24c-22.534-41.75-44.3-85.7-66.411-127.99 22.12-24.09 45.534-49.98 68.523-73-13.185-47.77-4.173-92.223 26.425-131.283-12.306-54.296-21.462-126.03-21.825-181.946 4.194-2.666 3.737-1.54 5.706-5.39"/><path fill="#e68842" d="M1445.27 917.788c9.55-39.064 15.78-81.206 20.53-121.161 2.03-17.123 1.95-35.39 4.1-52.06l.13 1.221c.54 5.38-.34 13.952.61 17.298l1.74.564.7-1.052c1.13-1.658.7-1.038 2.07-2.843-.3 41.031-10.53 120.423-21.24 159.108 25.49 33.279 38.55 67.812 33.02 110.467-1 7.24-2.47 14.41-4.41 21.46 23.06 23.87 45.77 48.07 68.13 72.58l-66.93 128.54q2.325 18.48 5.07 36.9c26.98 17.82 61.62 37.9 87.01 56.49a22347 22347 0 0 0-147.15 222.2c-20.26 30.85-45.41 72.53-66.22 101.5-.59 1.63-1.17 3.64-2.85 4.33-1.51-1.16.26-12.43 1.16-14.04 2.14-35.8 6.04-65.93 4.39-102.47.74 1.14 1.82 2.24 1.86 3.67.02.6-.35 3.04.5 3.2 2.56-1.46 1.54-18.05 1.75-21.93 5.4 26.65 3.24 71.39.95 98.77 20.74-27.46 45.33-66.8 64.94-95.97q66.63-99.87 135.42-198.27c-29.02-16.7-57.69-33.99-86.01-51.85-2.36-13.99-4.45-28.24-6.69-42.28 8.87-15.52 18.52-35.81 26.57-52.01l38.38-76.97c-22.3-21.94-45.78-48.61-67.15-71.94 2.45-8.15 4.24-16.48 5.36-24.92 5.07-39.058-12.3-78.198-35.74-108.532"/><path fill="#e79050" d="M1362.43 1669c-.59 1.63-1.17 3.64-2.85 4.33-1.51-1.16.26-12.43 1.16-14.04 1.43 5.18-1.76 4.9 1.69 9.71"/><path fill="#e68842" d="M1292.66 1629.18c-16.43-19.77-44.23-54.8-45.25-80.67-1.37-34.53 44.37-61.64 75.67-62.52 2.89 6.8 1.85 1.25 5.82 4.33-.05.14-.05.27-.21.3-8.99 1.24-9.12-2.22-16.21 3.14-30.25 10.84-69.9 35.35-54.17 72.93 10.06 24.03 26.19 41.24 40.61 62.17-20.68 18.1-58.29 54.44-59.37 82-.89 22.94 14.76 64.46 24.04 86.08-38.28 37.04-76.76 73.85-115.45 110.46l-.7-4.54c35.24-36.39 70.98-72.3 107.21-107.7-9.74-23.53-22.46-65.55-19.96-90.39 2.92-28.93 35.58-59.1 57.97-75.59"/><path fill="#e68842" d="M735.993 1493.53c.622-2.76.684-5.63 4.879-3.42 3.37 1.78 6.832.88 10.693.98 13.59 4.79 21.55 9.97 32.278 19.42 36.829 32.41 12.643 68-10.139 99.68l-4.522 5.63-10.399 12.7c71.356 64.5 67.442 78.9 37.523 166.99 16.27 18.83 45.85 45.77 64.385 64.75a75 75 0 0 0-2.097 5.93 6603 6603 0 0 1-71.476-68.65c32.263-88.48 38.743-99.15-35.141-168.13 14.652-19.36 34.379-44.14 42.028-67.01 11.563-34.58-29.957-60.87-58.012-68.87"/><path fill="#e68842" d="m875.929 596.308 8.635-3.573c38.132-15.589 83.933-29.483 125.156-33.101 51.43-4.515 114.32 15.359 160.89 34.92-4.39.6-5.08.794-8.95 3.188-74.96-24.74-139.09-35.968-217.164-15.979-15.97 4.088-44.596 14.767-58.079 16.96-1.3-.643-8.992-2.132-10.488-2.415"/><path fill="#e68842" d="M1136.79 1861.05c-7.52 6.14-32.16 26.85-39.92 31.43-23.47 18.26-47.2 36.19-71.19 53.78-20.71-14.21-49.095-35.02-68.497-50.91-12.542-9.43-29.351-21.77-40.606-32.52 12.656 6.46 32.502 20.17 44.696 28.37 20.264 12.34 43.517 29.05 63.857 42.38 20.26-13.86 48.02-33.31 68.65-45.32 9.68-7.39 31.98-21.82 43.01-27.21"/><path fill="#f6e3c3" d="M1370.4 281.072c1.32-10.763-7.51-27.937-5.08-33.8 31.48 59.034 61.22 137.022 77.61 201.188 1.24 14.81 13.9 54.887 11.17 66.917-2.12-7.984-4.1-17.584-5.77-25.73-15.37-74.996-44.16-140.536-77.93-208.575"/><path fill="#e79050" d="M573.783 737.511c-4.565-120.92 13.583-233.119 50.759-347.75 1.06 3.048 1.89 3.632 3.777 6.376-29.277 85.834-45.446 162.436-48.524 253.446-.884 26.141-1.932 56.522-.306 82.538-1.969 3.85-1.512 2.724-5.706 5.39"/><path fill="#e79050" d="M1442.93 448.46c6.93 22.796 12.31 51.181 16.36 74.657a1109.7 1109.7 0 0 1 16.9 193.312c-.01 10.772.34 33.531-1.04 43.326-1.37 1.805-.94 1.185-2.07 2.843l-.7 1.052-1.74-.564c-.95-3.346-.07-11.918-.61-17.298l-.13-1.221c-.73-11.476.79-25.641.78-37.487-.07-56.928-3.56-114.285-13.14-170.442-1.06-6.243-2.75-13.359-3.3-19.527l-.14-1.734c2.73-12.03-9.93-52.107-11.17-66.917"/><path fill="#f1ceab" d="M624.542 389.761c8.888-22.377 19.685-58.461 30.785-79.022-.383 7.359-2.651 12.145-2.925 19.498-.189 5.084-4.808 7.274-4.019 14.852-.751 2.644-5.941 14.025-7.413 17.571-4.587 11.043-8.291 22.516-12.651 33.477-1.887-2.744-2.717-3.328-3.777-6.376"/><path fill="#e79050" d="M1323.08 1485.99c29.25 4.07 42.53 28.52 46.16 55.77-.21 3.88.81 20.47-1.75 21.93-.85-.16-.48-2.6-.5-3.2-.04-1.43-1.12-2.53-1.86-3.67-3.03-36.63-6.43-69.08-52.65-63.06 7.09-5.36 7.22-1.9 16.21-3.14.16-.03.16-.16.21-.3-3.97-3.08-2.93 2.47-5.82-4.33"/><path fill="#f6e3c3" d="M669.545 277.885c3.337 4.209 1.538 5.222 3.058 10.579l.654 3.572c-8.785 18.141-16.393 35.005-24.874 53.053-.789-7.578 3.83-9.768 4.019-14.852.274-7.353 2.542-12.139 2.925-19.498 1.053-4.188 11.863-27.705 14.218-32.854"/><path fill="#e79050" d="M860.691 1860.26a1887 1887 0 0 1 46.196 47.07c9.218 9.56 15.641 14.56 23.344 25.31-12.851-10.43-26.214-23.12-38.167-34.71-10.326-10.02-23.794-21.6-33.47-31.74a75 75 0 0 1 2.097-5.93"/><path fill="#e79050" d="M795.426 639.102a557.3 557.3 0 0 1 80.503-42.794c1.496.283 9.188 1.772 10.488 2.415-31.362 12.96-59.601 23.685-89.104 41.534z"/><path fill="#e79050" d="M1170.61 594.554c26.36 12.085 47.55 22.705 72.52 37.728l-1.02 1.936c-28.5-15.224-50.87-24.423-80.45-36.476 3.87-2.394 4.56-2.588 8.95-3.188"/><path fill="#e79050" d="M682.212 1534.49c10.176-33.86 26.686-57.81 65.889-44.59l3.464 1.19c-3.861-.1-7.323.8-10.693-.98-4.195-2.21-4.257.66-4.879 3.42-12.174-.83-20.467-3.11-31.396 5.06-13.735 10.26-13.759 23.91-17.989 38.24-2.327-.92-2.341-.97-4.396-2.34"/><path fill="#e79050" d="M1119.24 1933.41c8.39-10.94 18.42-20.79 28.2-30.55l.7 4.54c-7.72 7.42-20.98 19.97-28.9 26.01"/><path fill="#825137" d="M1243.13 632.282c2.02.725 19.06 11.48 19.86 13.137-1.25 1.52-8.69-3.76-10.01-4.577a119 119 0 0 0-7.37-4.261c-1.44-.772-2.23-1.403-3.5-2.363z"/><path fill="#825137" d="M797.313 640.257c-1.069.644-6.496 4.265-7.715 3.271l.018-.211 1.232-1.33-.621.52c1.762-1.422 3.19-2.433 5.199-3.405z"/></svg>