<svg xmlns="http://www.w3.org/2000/svg" width="2048" height="2048" viewBox="0 0 2048 2048"><path fill="#21242a" d="M0 0h2048v2048H0z"/><path d="M1024.18 45.683c4.39 10.06 14.37 47.147 18.07 59.736l51.59 175.8c12.02 40.093 17.97 74.9 41.96 110.143-12 6.039-57.92 26.074-68.91 29.604-.06 5.168.39 10.505.72 15.679 18.93 2.441 37.76 6.647 56.32 10.799 100.08 22.383 191.66 66.155 269.88 132.513 96.78 82.109 165.39 188.791 196.83 311.912 6.67 26.103 14.63 61.71 16.69 88.646 4.51.368 7.54.943 12.01 1.783a4070 4070 0 0 0 34.84-70.203c29.13 25.052 88.74 36.775 126.71 47.752l144 42.283c24.34 7.14 50.17 13.91 74.16 21.58-30.96 10.52-65.13 19.44-96.74 28.39l-130.51 37.56-51.89 14.88c-32.74 9.35-37.9 11.47-65.96 31.5-13.48-20.65-23.05-46.13-37.14-66.54-.95-1.37-7.13-2.22-8.16 3.98-18.13 109.53-56.91 213.68-125.74 301.65-101.32 129.77-250.03 214-413.44 234.16-.72 5.49-2.11 12.21-3.12 17.77 23.49 9.1 46.37 19.46 70.14 28.36a156.6 156.6 0 0 0-20.66 35.85c-8.38 20.39-19.36 63.18-25.92 85.82l-46.32 159.35c-3.11 10.77-15.74 57.91-19.56 64.95l-59.111-201.83-20.377-69.53c-9.666-32.42-12.841-45.64-32.318-74.2 16.999-8.72 49.954-21.81 68.245-28.94-.354-6.72-.89-10.56-1.994-17.2-71.805-6.86-154.162-35.21-217.313-69.26-135.008-72.28-238.374-192.12-290.066-336.27-14.482-39.99-24.075-85.15-31.203-127.1 2.188-6.09-8.582-11.3-10.627-8.36-8.221 11.82-30.291 58.62-36.19 68.9-30.869-22.85-39.744-24.43-76.824-35.39l-67.914-19.74-199.992-58.51c20.445-6.75 44.148-13.08 65.053-19.3l162.03-47.582 52.298-15.374c29.972-8.783 40.747-11.022 65.984-30.403 4.377 9.982 34.853 64.719 42.616 68.516 3.051-1.545 2.666-5.898 3.307-9.617 18.408-106.824 55.804-205.351 121.241-292.215a628.25 628.25 0 0 1 313.087-218.25c36.197-11.128 69.925-17.729 107.227-23.018l1.871-15.989-71.223-29.668c20.503-26.687 23.242-40.441 32.462-71.658l19.435-66.858z"/><path fill="#c7c7ca" d="M992.014 677.303c6.113-11.294-2.986-13.188 9.516-22.089 15.01-10.685 30.21-22.275 43.47-35.143 1.44-1.399 3.79-5.298 5.52-7.316l1.34.247q3.375 38.84 5.79 77.755c.75 11.695 2.51 30.83 2.39 42.161 1.43 8.311 1.95 21.673 2.55 30.384l3.62 50.499 5.09 66.25c.86 11.428 1.78 22.847 2.28 34.295.29 6.704-2.43 9.414-6.93 13.85 3.78 3.076 16.55 13.202 18.53 16.723-3.87.068-13.06-9.334-16.49-12.461 2.51 15.1 4.55 31.631 6.3 46.794.43 3.662 11.35 10.166 9.92 20.788a63.95 63.95 0 0 1-4.85 56.05c-1.81 6.47-3.06 41.38-.65 47.46 1.55 1.21 1.28 1.4 2.92 1.67-5.01 5.27-8.5 8.12-14.16 12.74 2.14 3.4 4.52 7 6.49 10.48-2.15 12.62-.94 23.91-2.25 36.18-3.39 31.9-2.86 67.11-7.35 98.58-.49 25.95-4.69 55.1-6.49 81.32-.34 4.96-2.57 33.77-3.4 36.57-.21 13.86-2.52 31.98-3.37 46.61l-13.28 161.61-3.98 47.6c-.42 4.84-1.45 20.14-2.49 24.38-.13-2.98.08-3.43-.81-6.26-.2 4.12-.25 12.77-1.54 16.26-12.02-1.45-11.69-6.05-12.22-17l-.57 8.25c-1.87-8.61-5.2-51.09-5.89-61.81-1.55-23.78-6.63-57.22-7.01-79.99-1.48-9.76-2.35-25.01-3.23-35.37-2.4-28.83-4.404-57.68-6.011-86.57-.631-5.06-.849-9.43-.876-14.53-1.912-11.67-3.305-38.59-4.328-51.46l-8.379-110.07q-1.203-16.275-2.183-32.58c-1.194-15.03-2.94-30.32-3.332-45.36-2.738-11.17-1.295-17.96 6.86-25.91-10.386-9.15-19.764-17.56-29.675-27.2-5.257-4.02-17.234-16.24-22.511-21.35-3.532 3.08-5.793 4.29-9.788 6.68-20.32-.38-61.688-4.56-82.816-6.62-25.164-2.01-63.318-3.66-87.497-7.29 4.354-2.63 5.635.2 9.462-1.71 3.281-18.28 1.156-54.16-2.785-73.143-1.435-6.911-4.244-1.022-11.812-4.811 54.876-5.192 119.699-12.039 174.32-15.074 5.824 2.846 6.742 3.625 11.67 7.758 14.997-16.488 34.126-33.537 50.637-48.868-2.793-2.643-7.438-6.916-7.382-10.989.335-24.227 3.082-49.497 4.926-73.59z"/><path fill="#9c9ca5" d="M1060.04 732.918c1.43 8.311 1.95 21.673 2.55 30.384l3.62 50.499 5.09 66.25c.86 11.428 1.78 22.847 2.28 34.295.29 6.704-2.43 9.414-6.93 13.85 3.78 3.076 16.55 13.202 18.53 16.723-3.87.068-13.06-9.334-16.49-12.461 2.51 15.1 4.55 31.631 6.3 46.794.43 3.662 11.35 10.166 9.92 20.788a63.97 63.97 0 0 0-36.21-36.405 63.94 63.94 0 0 0-51.31 1.974c4.16-7.129 7.07-.806 5.2-14.537-.7-5.136.94-13.741.85-19.512-.66-40.406 5.03-80.852 1.55-121.22-.6-6.937-.62-14.281-.64-21.254.54-.989 10.28-3.204 14.87-7.027 13.78-11.476 20.49-23.135 36.45-31.561 3.55-5.216 4-11.511 4.37-17.58"/><path d="M997.39 965.609a63.94 63.94 0 0 1 51.31-1.974 63.97 63.97 0 0 1 36.21 36.405 63.95 63.95 0 0 1-4.85 56.05c-13.38 22.23-38.86 34.16-64.5 30.21s-46.351-23-52.419-48.22c-7.025-29.21 7.227-59.361 34.249-72.471"/><path fill="#9c9ca5" d="M1004.01 1520.74c.78-.37 1.56-.75 2.34-1.12 7.76-20.1 18.37-40.39 24.49-60.97 4.33-14.54 11.17-24.26 16.97-38.04.11 2.68-.32 15.17.44 17.02l.14.07c.46-.61 1.18-6.45 3.41-10l-13.28 161.61-3.98 47.6c-.42 4.84-1.45 20.14-2.49 24.38-.13-2.98.08-3.43-.81-6.26-.2 4.12-.25 12.77-1.54 16.26-12.02-1.45-11.69-6.05-12.22-17l-.57 8.25c-1.87-8.61-5.2-51.09-5.89-61.81-1.55-23.78-6.63-57.22-7.01-79.99"/><defs><linearGradient id="a" x1="1105.855" x2="1031.017" y1="1120.109" y2="1155.928" gradientUnits="userSpaceOnUse"><stop offset="0" stop-color="#868693"/><stop offset="1" stop-color="#a3a3aa"/></linearGradient></defs><path fill="url(#a)" d="M963.141 1038.08c6.068 25.22 26.778 44.27 52.419 48.22s51.12-7.98 64.5-30.21c-1.81 6.47-3.06 41.38-.65 47.46 1.55 1.21 1.28 1.4 2.92 1.67-5.01 5.27-8.5 8.12-14.16 12.74 2.14 3.4 4.52 7 6.49 10.48-2.15 12.62-.94 23.91-2.25 36.18-3.39 31.9-2.86 67.11-7.35 98.58-1.12-8.27 1.2-38.35-1.57-43.98-12.75-25.95-28.03-53.34-40.25-79.85-7.97-17.3-11.73-34.53-20.26-51.4-1.56-3.1-12.332-6.66-15.267-9.23-9.304-6.49-28.062-29.29-24.572-40.66"/><path fill="#9c9ca5" d="M837.741 1070.4c9.686-4.18 13.093 2.89 16.461-1.96-2.327-21.1-1.244-35.87 2.428-56.64 1.368-7.74 1.192-27.006 10.994-28.13 1.027 2.617 3.824 11.266 5.873 12.508 8.302 5.072 11.134 14.752 19.653 20.692-.522-.36 12.147 10.81 11.503 9.94 10.136 13.74 26.13 17.92 35.557 31.76 3.696 5.42 17.848 15.01 18.808 17.62-.472 3.14-.393 2.96-1.975 5.7 4.05.02 24.738-.29 27.042.62-11.046.47-25.361 2.06-35.54 2.21l.716.86c1.916 2.32 2.934 3.16 3.595 6.11-5.257-4.02-17.234-16.24-22.511-21.35-3.532 3.08-5.793 4.29-9.788 6.68-20.32-.38-61.688-4.56-82.816-6.62"/><path fill="#9c9ca5" d="M981.186 1222.74c5.164 12.61 2.189 21.13 6.981 32.14 7.6 17.47 25.073 43.1 27.483 62 .56 4.37-13.13 45.09-15.35 51.7l-3.066 2.27c-1.087 1.14-1.071 1.22-2.644 1.61-.086.23-.501 10.04-.697 11.81-1.912-11.67-3.305-38.59-4.328-51.46z"/><path fill="#c4c4c7" d="M975.671 1144.8c.558-2.74-.446-7.33.47-8.73.107-.01.215-.02.322-.04 1.42 1.81-.27 26.11 3.586 30.47-.094-.11 2.055 4.61 1.929 5.11-1.301.99-2.263-.88-2.595-1.89-3.675 3.23 4.695 3.45 4.264 5.21-.456.44-1.013.43-1.511.76-.16 1.21 2.449 5.19.166 6.17-1.056-.34-1.528-1.71-2.019-2.61l.137.08-.085-.08c-3.142 4.6 8.816 5.03 4.322 12.94-1.076 1.9-4.843-1.39-5.654-2.03-1.194-15.03-2.94-30.32-3.332-45.36"/><path fill="#a9a8af" d="M1055.17 1381.09c-.21 13.86-2.52 31.98-3.37 46.61-2.23 3.55-2.95 9.39-3.41 10l-.14-.07c-.76-1.85-.33-14.34-.44-17.02 2.65-8.07 2.17-11.55 3.67-19.61 1.39-7.44-.55-13.86 3.69-19.91"/><path fill="#a9a8af" d="M993.893 1384.27c.196-1.77.611-11.58.697-11.81 1.573-.39 1.557-.47 2.644-1.61.1 1.08.221 4.23.373 5.1.849.04 1.57-.55 2.375-.78.778.64.618 1.15.038 1.9-3.537.87-.365 3.06-2.456 5.6-.619.76.553 1.56.734 1.93.578 1.16-1.455 2.58-1.772 4.17l.087.19c.824.09 1.294-.6 2.054-.67.537 1.41-3.152 8.25-3.898 10.51-.631-5.06-.849-9.43-.876-14.53"/><path fill="#c4c4c7" d="M1068.69 932.458c3.43 3.127 12.62 12.529 16.49 12.461a948 948 0 0 1 33.92 30.686c2.97-2.446 5.42-4.629 8.73-6.612 21.83-.906 75.99 5.017 99.84 7.198 15.67 1.143 51.56 3.457 65.79 5.912 24.63.788 49.92 4.525 74.52 6.293 5.32.382 11.31.925 16.57 1.767-6.23 1.201-11.21-.254-16.45 1.079-3.41 7.757-3.52 55.288-2.25 63.378 2.75 1.24 1.65.85 4.98.71l2.05 1.18-160.17 14.53c-19.3 1.73-66.64 7-84.65 6.12-3-1.99-7.19-4.6-9.89-6.83a951 951 0 0 1-35.84 34.89c-1.64-.27-1.37-.46-2.92-1.67-2.41-6.08-1.16-40.99.65-47.46a63.95 63.95 0 0 0 4.85-56.05c1.43-10.622-9.49-17.126-9.92-20.788-1.75-15.163-3.79-31.694-6.3-46.794"/><path fill="#9c9ca5" d="M1227.67 976.191c15.67 1.143 51.56 3.457 65.79 5.912-6.98 2.26-12.74.066-21.06.481.23 11.493.96 22.706-1.94 33.416-.42 1.53.92 20.02-4.11 21.41-2.02-1.16.59-4.34-.26-6.92-1.83-5.55.63-15.15-.96-20.58-1.56-5.35-2.09-7.96-1.62-13.91.38-4.338-1.57-6.94-.74-10.964.18-.883 1.32-2.457.53-3.443-9.56-3.159-25.15-.241-35.63-5.402"/><path fill="#9c9ca5" d="M1265.07 1046.81c7.95 2.18 7.91 7.61 3.88 13.89-4.84 3.14-3.48-8.78-3.88-13.89"/><defs><linearGradient id="b" x1="1627.235" x2="1605.382" y1="963.83" y2="1094.271" gradientUnits="userSpaceOnUse"><stop offset="0" stop-color="#8d8d97"/><stop offset="1" stop-color="#b0afb6"/></linearGradient></defs><path fill="url(#b)" d="M1670.61 968.047c23.05 8.279 47.36 14.174 71.07 20.416l136.73 34.607c-14.05 4.6-34.28 8.8-49.19 12.46-28.16 7.13-56.27 14.44-84.32 21.96-23.97 6.25-51.8 12.75-74.4 21.79 7.84-23.38 20.49-35.79 38.76-52.46-46.78 2.23-97.22 8-144.22 12.39l-192.16 17.3-2.05-1.18c-3.33.14-2.23.53-4.98-.71-1.27-8.09-1.16-55.621 2.25-63.378 5.24-1.333 10.22.122 16.45-1.079 16.09-.16 59.36 5.369 77.4 7.015q65.37 5.538 130.65 12.002c36.14 3.8 80.96 9.69 116.83 11.1-16.3-15.31-32.68-29.877-38.82-52.233"/><path fill="#9c9ca5" d="M1071.94 489.449c13.32 1.07 30.32 4.752 43.46 7.956 236.18 57.595 403.04 234.864 437.05 476.112-11.02-1.921-23.22-4.675-34.27-6.934-6.62-88.875-44.61-174.727-99.8-244.104-89.58-112.593-200.43-181.574-344.25-197.465-.47-11.577-1.46-23.94-2.19-35.565"/><defs><linearGradient id="c" x1="863.779" x2="587.991" y1="779.42" y2="671.58" gradientUnits="userSpaceOnUse"><stop offset="0" stop-color="#9797a1"/><stop offset="1" stop-color="#dbdadc"/></linearGradient></defs><path fill="url(#c)" d="m973.525 486.377.866.015.933 1.421c-1.674 10.643-4.765 22.638-7.232 33.244-79.449 5.769-167.399 42.649-231.83 88.432a531.2 531.2 0 0 0-202.317 276.092c-8.131 26.462-13.442 52.798-18.021 80.025a1337 1337 0 0 0-24.946 3.731l-1.964-.488c-1.776-4.395 3.569-28.163 4.683-34.304a549.5 549.5 0 0 1 95.751-220.86c95.067-128.092 227.131-204.026 384.077-227.308"/><defs><linearGradient id="d" x1="1085.32" x2="953.151" y1="469.74" y2="435.997" gradientUnits="userSpaceOnUse"><stop offset="0" stop-color="#9898a0"/><stop offset="1" stop-color="#cac9ce"/></linearGradient></defs><path fill="url(#d)" d="M1018.54 189.762c1.55-6.727 3-13.55 4.39-20.312.14-.664.34-3.369 1.66-2.982.13.399.27.799.41 1.198 8.93 37.338 20.1 76.493 29.94 113.789 6.86 26.036 16.81 68.206 26.35 92.116-21.67-7.011-36.96-21.978-52.37-38.347-.35 26.676 5.56 59.949 7.05 87.132.42 7.76 1.99 17.435 1.97 24.948l10.15 116.199c.71 8.025 4.25 44.38 3.77 49.499l-1.34-.247c-1.73 2.018-4.08 5.917-5.52 7.316-13.26 12.868-28.46 24.458-43.47 35.143-12.502 8.901-3.403 10.795-9.516 22.089 1.628-32.189 5.121-67.28 7.817-99.616l12.419-149.071c2.62-30.333 6.42-63.984 7.66-94.09-16.81 17.313-29.927 31.752-52.983 39.499 13.706-34.152 22.366-80.429 33.503-116.235 4.04-19.538 11.76-49.144 18.11-68.028"/><path fill="#9c9ca5" d="M1018.54 189.762c1.55-6.727 3-13.55 4.39-20.312.14-.664.34-3.369 1.66-2.982.13.399.27.799.41 1.198 8.93 37.338 20.1 76.493 29.94 113.789 6.86 26.036 16.81 68.206 26.35 92.116-21.67-7.011-36.96-21.978-52.37-38.347-.35 26.676 5.56 59.949 7.05 87.132.42 7.76 1.99 17.435 1.97 24.948-3.07-5.189-5.68-37.759-6.26-45.082-2.06-25.985-6.79-52.922-7.22-78.949-.57-34-.45-68.3-.39-102.272-.08-4.874-.07-8.641-.4-13.514-.08-1.381.13-1.993-.46-3.162-.47.178-.26.142-.62.147-.39-.5 2.13-16.668.87-18.945-3.95-7.097-1.33 5.989-4.92 4.235"/><path fill="#c7c7ca" d="M1018.54 189.762c1.55-6.727 3-13.55 4.39-20.312.14-.664.34-3.369 1.66-2.982.13.399.27.799.41 1.198-.28 17.935 1.45 32.943-.68 51.334l-.25 2.001c-.08-4.874-.07-8.641-.4-13.514-.08-1.381.13-1.993-.46-3.162-.47.178-.26.142-.62.147-.39-.5 2.13-16.668.87-18.945-3.95-7.097-1.33 5.989-4.92 4.235"/><path fill="#c4c4c7" d="M1018.54 189.762c3.59 1.754.97-11.332 4.92-4.235 1.26 2.277-1.26 18.445-.87 18.945.36-.005.15.031.62-.147.59 1.169.38 1.781.46 3.162-.59 5.171-1.46 52.808-1.26 52.622-1.21-4.146-.4-16.651-1.37-23.345-1.85 4.222-4.58 16.892-10.74 14.836-3.22-1.073-2.89 9.192-9.87 6.19 4.04-19.538 11.76-49.144 18.11-68.028"/><defs><linearGradient id="e" x1="1311.397" x2="1425.594" y1="1279.27" y2="1361.348" gradientUnits="userSpaceOnUse"><stop offset="0" stop-color="#9c9ba4"/><stop offset="1" stop-color="#bfbec3"/></linearGradient></defs><path fill="url(#e)" d="M1518.24 1077.06c11.13-1.97 24.59-4.02 35.45-6.4-9.5 55.54-20.26 100.99-43.17 153.27-1.76 4.01-9.52 21.62-11.89 24.09-7.49 18.5-27.16 50.06-38.55 66.56a559.1 559.1 0 0 1-241.33 199.39c-16.09 6.82-62.03 23.53-78.97 25.55 3.7-4.1 1.34-2.39 6.05-3.07-.63-2.72-4.18 1.17-.81-6.51 2.67-6.09 4.7-11.66 3.26-18.45-.63-2.98-.76-3.07 1.83-5.01l1.17-1.1c3.56-.97 7.11-1.97 10.65-2.99 128.41-37.24 242.01-132.44 303.5-250.64 5.13-9.85 9.51-20.23 14.85-29.94 22.91-57.13 29.52-82.67 37.96-144.75"/><path fill="#c4c4c7" d="M543.947 1001.93c9.882-2.003 36.385-3.352 48.145-4.585q76.471-7.366 153.017-13.899c7.568 3.789 10.377-2.1 11.812 4.811 3.941 18.983 6.066 54.863 2.785 73.143-3.827 1.91-5.108-.92-9.462 1.71-8.678 0-28.67-2.42-38.328-3.32l-73.818-6.76-57.134-4.94c-5.646-.48-23.342-1.57-28.039-2.97-9.55-.12-25.157-1.99-35.091-2.9l-64.966-5.99c3.422-6.01.846-12.19 1.666-18.74.839-6.7-2.835-5.17-8.443-6.62 6.031-.98 13.466-1.53 19.611-2.01 25.989-2.02 52.249-5.45 78.245-6.93"/><defs><linearGradient id="f" x1="453.61" x2="540.758" y1="1030.16" y2="1021.31" gradientUnits="userSpaceOnUse"><stop offset="0" stop-color="#a7a6ae"/><stop offset="1" stop-color="#eeefed"/></linearGradient></defs><path fill="url(#f)" d="M446.091 1010.87c6.031-.98 13.466-1.53 19.611-2.01 25.989-2.02 52.249-5.45 78.245-6.93l6.264.79-1.142.02c-4.191.12-4.596-.01-8.336 1.53-2.33 4.46-.856 19.35-1.537 25.1-.615 5.19-3.457 7.94-2.915 12.89 3.288 2.25 12.914-1.35 16.644 2.86-9.55-.12-25.157-1.99-35.091-2.9l-64.966-5.99c3.422-6.01.846-12.19 1.666-18.74.839-6.7-2.835-5.17-8.443-6.62"/><defs><linearGradient id="g" x1="732.227" x2="782.042" y1="1464.563" y2="1381.361" gradientUnits="userSpaceOnUse"><stop offset="0" stop-color="#878792"/><stop offset="1" stop-color="#dddcdd"/></linearGradient></defs><path fill="url(#g)" d="M554.447 1276.08c6.018.35 20.391-13.96 22.071-18.64 21.765 34.89 42.358 65.9 70.441 96.46 10.326 11.24 20.827 20.8 31.31 31.56 84.46 73.12 178.568 120.25 290.48 132.77.926 11.72 1.724 23.44 2.394 35.18-96.696-17.64-181.497-43.94-260.572-104.72-8.468-6.51-42.933-32.27-47.81-39.86-34.763-27.68-86.195-94.53-108.314-132.75"/><defs><linearGradient id="h" x1="999.309" x2="1005.994" y1="1668.678" y2="1872.525" gradientUnits="userSpaceOnUse"><stop offset="0" stop-color="#bbbabf"/><stop offset="1" stop-color="#e7e8e6"/></linearGradient></defs><path fill="url(#h)" d="m1016.91 1662.54.57-8.25c.53 10.95.2 15.55 12.22 17 1.29-3.49 1.34-12.14 1.54-16.26.89 2.83.68 3.28.81 6.26-.53 12.99-2.09 33.91-3.67 46.93l.76 2.87c7.04-2.3 23.36-29.34 52.09-36.34-9.44 23.54-20.05 65.43-26.37 91.1-8.01 32.5-18.94 68.35-26.31 100.37-1.71 1.73-3.04 3.2-4.62 5.06-.08 2.34.45 3.42-1.58 4.42-10.65-42.55-27.058-94.44-35.804-135.9-.639-1.15-.999-1.98-1.333-3.31l-.981-4c-3.339-14.15-8.101-31.95-12.624-45.81l-4.719-12.52c23.505 7.29 36.791 22.01 53.281 39.5.06-15.99-2.34-34.68-3.26-51.12"/><defs><linearGradient id="i" x1="1058.514" x2="1019.028" y1="1772.867" y2="1765.172" gradientUnits="userSpaceOnUse"><stop offset="0" stop-color="#82838e"/><stop offset="1" stop-color="#9c9ba5"/></linearGradient></defs><path fill="url(#i)" d="m1028.38 1708.22.76 2.87c7.04-2.3 23.36-29.34 52.09-36.34-9.44 23.54-20.05 65.43-26.37 91.1-8.01 32.5-18.94 68.35-26.31 100.37-1.71 1.73-3.04 3.2-4.62 5.06.12-48.01-.77-94.85 3.24-142.78.3-3.51.53-18.31 1.21-20.28"/><path fill="#a9a8af" d="M971.608 1686.68c6.551 6.14 7.488 9.62 16.043 12.96 6.963 2.71 20.109 17.98 25.129 23.46l-3.23 1.83c-3.13 1.76-7.79 5.59-11.015 5.6-9.197.03-11.103 8.69-11.989 9.27-.639-1.15-.999-1.98-1.333-3.31l-.981-4c-3.339-14.15-8.101-31.95-12.624-45.81"/><defs><linearGradient id="j" x1="284.553" x2="319.617" y1="1056.435" y2="950.927" gradientUnits="userSpaceOnUse"><stop offset="0" stop-color="#a09fa7"/><stop offset="1" stop-color="#fff"/></linearGradient></defs><path fill="url(#j)" d="M337.295 981.018c13.209-3.623 26.321-7.146 39.05-12.295-7.531 23.414-20.308 35.527-38.614 51.527 17.545-.52 36.822-2.54 54.305-4.62 9.756 2.12 10.176 1.93 9.8 10.95-.219 5.25-2.583 1.13-.101 3.92-.162.25-7.784.42-9.081.54-16.084-.56-36.122-2.99-52.551-4.42l-.128 1.81c2.539 2.46 12.787 12.21 14.287 14.85 4.931 4.71 23.742 27.96 21.079 34.08-1.174.74-16.664-4.47-19.364-5.25l-1.839-.51c-2.013-.59-4.034-1.13-6.032-1.78-14.772-2.67-45.237-12.67-61.238-16.38-9.442-2.2-45.766-11.37-52.984-14.14-8.882-1.66-18.481-4.84-27.419-7.01l-4.013-.98-4.464-1.05-4.501-1.06c-2.689-.61-5.383-1.19-8.056-1.86l-15.403-3.58 27.246-7.34c9.387-3.35 35.52-8.91 46.194-11.58z"/><path fill="#c4c4c7" d="m170.028 1023.76 27.246-7.34.869.44c.279.19.558.37.836.55l.015.19c-1.908 1.33-8.367 1.58-9.481 2.91l-.001.21c.84.49.629.24 1.101.94-.13.68-.763 1.03-1.121 1.59.309.39 39.109.97 41.001 1.51.066 1.39-5.996 1.27-6.021 1.28-2.21 1.58-28.29-3.54-21.808 3.86 2.139.62 5.569 1.19 7.945 1.81l4.013.99c6.299 1.2 13.691 4.37 19.703 5.37.103.34-.34 1.03-.441 1.23-8.882-1.66-18.481-4.84-27.419-7.01l-4.013-.98-4.464-1.05-4.501-1.06c-2.689-.61-5.383-1.19-8.056-1.86z"/><path fill="#c4c4c7" d="M354.262 1043.28c4.931 4.71 23.742 27.96 21.079 34.08-1.174.74-16.664-4.47-19.364-5.25l-1.839-.51c-2.013-.59-4.034-1.13-6.032-1.78.809-4.37 11.116 3.06 14.182 2.01 1.471-4.17.491-8.4 2.34-12.9.927-2.25-10.056-9.16-10.366-15.65"/><path fill="#a1551f" d="M1556.66 1074.19c3.59-.26 4.95-.53 8.54.2.25.7.68 1.77.59 2.49-30.75 251.06-231.03 457.32-483.23 487.14-3.55.13-7.21.69-10.24-.9l-.58-2.25c2.36-9.12 14.94-6.16 23.96-7.62 19.07-2.94 37.96-6.95 56.58-12a538.7 538.7 0 0 0 179.13-87.15c127.36-93.57 201.4-224.98 225.25-379.91"/><path fill="#c4c4c7" d="M905.158 1103.5c9.375 5.92 15.922 9.78 25.938 14.77.843 3.08 1.342 6.07 2.211 9.28l2.832-4.18c10.944 4.85 9.878 17.36 11.781 28.38l-102.851 78.12c-12.183 9.17-37.249 29.09-49.166 36.69 5.549-9.38 16.835-22.98 23.923-31.71l-2.348-2.37a353 353 0 0 0 8.404-6.45l-3.967-.24c-1.745.91-4.472 1.42-6.62 2.12 6.366-8.87 22.776-32.59 30.005-40.05 6.052-10.66 29.542-41.3 37.711-52.52 1.726-2.36 3.388-4.77 5.12-7.13 5.493-8.36 11.17-16.6 17.027-24.71"/><path fill="#a1551f" d="M936.139 1123.37c10.944 4.85 9.878 17.36 11.781 28.38l-102.851 78.12c-12.183 9.17-37.249 29.09-49.166 36.69 5.549-9.38 16.835-22.98 23.923-31.71l-2.348-2.37a353 353 0 0 0 8.404-6.45c8.925-6.58 18.708-13.64 27.363-20.41l83.353-60.51c-.892-5.94-2.658-12.41-3.291-17.56z"/><path fill="#1e0c04" d="m936.139 1123.37 3.99 22.44-83.97 61.24c-8.576 6.34-29.798 21.06-36.333 27.8l-2.348-2.37a353 353 0 0 0 8.404-6.45c8.925-6.58 18.708-13.64 27.363-20.41l83.353-60.51c-.892-5.94-2.658-12.41-3.291-17.56z"/><defs><linearGradient id="k" x1="930.947" x2="885.758" y1="1157.399" y2="1150.475" gradientUnits="userSpaceOnUse"><stop offset="0" stop-color="#8d8d96"/><stop offset="1" stop-color="#aeadb5"/></linearGradient></defs><path fill="url(#k)" d="M931.096 1118.27c.843 3.08 1.342 6.07 2.211 9.28.633 5.15 2.399 11.62 3.291 17.56l-83.353 60.51c1.644-3.49 1.767-3.5 2.323-7.27.43.34 1.218 1.2 1.861 1.13 4.871-3.68 19.246-14.48 23.901-16.62.526-.8-.292-5.77.752-7.28.205-.3 1.351-2.62 1.235-3.16-.65-3.02 4.531-4.91 4.948-6.1-.374-.43-.769-.35-1.457-.47 1.682-2.34 3.285-2.9 4.676-4.86 1.764-2.5 3.8-4.8 6.069-6.86 3.018-2.76 5.079-5.73 8.125-8.28.822-.41 23.411-25.18 25.418-27.58"/><path fill="#c7c7ca" d="m821.915 1225.79 1.01-.65c8.293-5.28 12.873-14.81 21.53-19.51 4.599-2.49 6.215-5.09 11.113-7.28-.556 3.77-.679 3.78-2.323 7.27-8.655 6.77-18.438 13.83-27.363 20.41z"/><path fill="#c7c7ca" d="M902.954 1145.88c.261-.39 1.13-1.86 1.617-2.09.66.32.832 1.45 1.107 2.06-3.046 2.55-5.107 5.52-8.125 8.28a42 42 0 0 0-6.069 6.86c-1.391 1.96-2.994 2.52-4.676 4.86-8.746 2.44 2.374-1.1-1.263-6.63 4.29-1.73 13.982-10.18 17.409-13.34"/><path fill="#9c9ca5" d="M883.011 1135.34c1.726-2.36 3.388-4.77 5.12-7.13 1.426 6.93 6.005 2.79 9.826 11.56-1.433 1.65-1.631 2.33-3.617.83-3.364-2.54-7.467-3.7-11.329-5.26"/><path fill="#a1551f" d="M965.492 527.408c.89-.226 3.013-.236 4.034-.282 2.467 2.988 1.662 1.291 2.151 5.422-.946 1.672-1.174 2.827-3.552 3.073-178.492 18.447-340.187 154.459-405.99 317.781a576 576 0 0 0-20.639 59.574c-2.354 8.378-9.708 47.39-13.058 52.108-3.858.473-3.258 1.019-6.057-.478-.083-.449-.508-2.092-.455-2.47 25.473-181.284 157.671-341.446 327.856-406.881 38.31-14.73 75.046-22.921 115.71-27.847"/><path fill="#a1551f" d="M1131.95 497.724c-9.54-1.179-26.92-6.644-37.75-8.288-7.22-1.097-22.93-3.029-28.54-4.637 7.6-4.476 63.23 7.034 74.57 9.754 138.01 28.583 261.44 122.804 338.13 239.413a555.8 555.8 0 0 1 82.86 212.007c1.13 6.97 6.47 23.441 2.35 29.368-.67.958-5.67 1.752-7.16 2.032-5.98-40.605-11.81-71.194-24.5-110.212a562.7 562.7 0 0 0-196.92-273.119c-62.84-46.661-127.52-75.565-203.04-96.318"/><path fill="#9c9ca5" d="M484.409 1074.75c10.381.91 20.771 1.72 31.166 2.45 3.747 42.78 25.081 107.44 42.959 146.6 4.368 9.57 12.773 23.54 17.984 33.64-1.68 4.68-16.053 18.99-22.071 18.64-3.235-3.66-13.776-23.73-16.331-28.9a571.4 571.4 0 0 1-53.707-172.43"/><path fill="#c4c4c7" d="M802.443 795.427c2.216 1.848 10.029 8.108 11.714 9.843 8.787 4.824 22.217 15.551 30.442 21.565 11.013 8.052 22.844 16.088 33.664 24.254 21.172 15.926 44.736 31.504 66.546 46.924-3.788 7.733-7.833 18.332-11.933 25.505-10.292 4.605-21.271 10.711-30.967 16.403-33.774-46.04-66.432-94.743-100.37-141.286z"/><defs><linearGradient id="l" x1="941.583" x2="856.806" y1="882.557" y2="879.723" gradientUnits="userSpaceOnUse"><stop offset="0" stop-color="#81818c"/><stop offset="1" stop-color="#9e9fa9"/></linearGradient></defs><path fill="url(#l)" d="M846.833 837.34c4.729 1.136 15.366 5.74 19.596 8.432 8.265 5.262-.159 3.846 11.834 5.317 21.172 15.926 44.736 31.504 66.546 46.924-3.788 7.733-7.833 18.332-11.933 25.505-26.366-27.977-60.302-57.583-86.043-86.178"/><path fill="#9c9ca5" d="M814.157 805.27c8.787 4.824 22.217 15.551 30.442 21.565 11.013 8.052 22.844 16.088 33.664 24.254-11.993-1.471-3.569-.055-11.834-5.317-4.23-2.692-14.867-7.296-19.596-8.432-3.051-2.159-29.966-28.788-32.676-32.07"/><path fill="#9c9ca5" d="M1142.59 1109.95c3.55 1.51 5 3.78 7.13 7.35l2.39-1.65c2.18.73 5.84 1.95 7.28 3.76 32.76 41.34 63.35 84.4 95.61 126.13 4.63 5.98 9.06 12.06 13.83 17.93-6.35-4.61-19.79-13.61-23.24-20.33l-2.92-1.59c-4.94-2.82-12.71-8.08-17.1-11.87-6.84-4.5-50.85-36.33-55.55-41-9.19-5.89-26.86-19.05-35.6-26.16-4.23-2.28-22.21-15.88-25.62-18.74 2.03-4.48 3.83-8.81 5.8-13.29l3.78-8.86c6.74-3.19 13.87-6.28 20.67-9.45 1.2-.81 2.3-1.49 3.54-2.23"/><path fill="#c7c7ca" d="M1139.05 1112.18c1.2-.81 2.3-1.49 3.54-2.23 6.37 14.88.56 23.36 3.37 36.31l.06.32-.31 1.26c-.18.64 5.33 15.69 5.98 16.9 3.89 7.24 14.85 16.57 18.33 23.94-9.19-5.89-26.86-19.05-35.6-26.16-4.23-2.28-22.21-15.88-25.62-18.74 2.03-4.48 3.83-8.81 5.8-13.29l3.78-8.86c6.74-3.19 13.87-6.28 20.67-9.45"/><path fill="#9c9ca5" d="M1114.6 1130.49c3.28 2.2 6.46 4.46 9.7 6.46l1.37 1.09c3.95 3.07 5.48 5.41 7.13 10.12-.86 3.89 5.04 14.33 5 13.15-.69.59-1.78.17-3.38 1.21-4.23-2.28-22.21-15.88-25.62-18.74 2.03-4.48 3.83-8.81 5.8-13.29"/><path fill="#9c9ca5" d="m1124.3 1136.95 1.37 1.09c3.95 3.07 5.48 5.41 7.13 10.12l-.56-.21c-4.17-1.53-8.34-4.48-8.02-9.4z"/><path fill="#a9a8af" d="M1139.05 1112.18c1.2-.81 2.3-1.49 3.54-2.23 6.37 14.88.56 23.36 3.37 36.31-3.93-3.59-4.2-3.8-5.74-8.7-1.52-2.47.26-8.91-1.44-10.39-1.85-1.61-1.81-3.88-1.21-6.63 2.76-.41 1.62-5.77 1.48-8.36"/><path fill="#a1551f" d="m1149.72 1117.3 2.39-1.65c2.18.73 5.84 1.95 7.28 3.76 32.76 41.34 63.35 84.4 95.61 126.13 4.63 5.98 9.06 12.06 13.83 17.93-6.35-4.61-19.79-13.61-23.24-20.33l-2.92-1.59c-4.94-2.82-12.71-8.08-17.1-11.87.74-1.99.9-2.18 1.17-4.22-.18-1.68-.31-3.37-.39-5.06-2.29-3.7-6.15-8.16-8.79-11.76-22.31-30.55-46.21-60.32-67.84-91.34"/><path fill="#1e0c04" d="m1149.72 1117.3 2.39-1.65c17.95 28.35 45.53 60.64 65.13 88.45 7.81 11.08 22.5 27.66 28.35 39.04l-2.92-1.59c-4.94-2.82-12.71-8.08-17.1-11.87.74-1.99.9-2.18 1.17-4.22-.18-1.68-.31-3.37-.39-5.06-2.29-3.7-6.15-8.16-8.79-11.76-22.31-30.55-46.21-60.32-67.84-91.34"/><path fill="#c7c7ca" d="M1226.35 1220.4c5.4 6.29 11.81 14.23 16.32 21.15-4.94-2.82-12.71-8.08-17.1-11.87.74-1.99.9-2.18 1.17-4.22-.18-1.68-.31-3.37-.39-5.06"/><defs><linearGradient id="m" x1="1155.43" x2="1215.298" y1="1193.873" y2="1179.957" gradientUnits="userSpaceOnUse"><stop offset="0" stop-color="#c6c7c7"/><stop offset="1" stop-color="#f4f2f4"/></linearGradient></defs><path fill="url(#m)" d="M1170.02 1188.68c-3.48-7.37-14.44-16.7-18.33-23.94-.65-1.21-6.16-16.26-5.98-16.9l.31-1.26c26.91 25.73 53.97 52.8 80.72 78.88-.27 2.04-.43 2.23-1.17 4.22-6.84-4.5-50.85-36.33-55.55-41"/><path fill="#c4c4c7" d="M1247.85 794.337c-37.09 43.052-76.34 95.341-111.39 140.575-4.54-2.923-14.63-9.814-19.02-11.941-4.11-8.364-7.88-17.03-11.68-25.553a9054 9054 0 0 1 85.42-61.717c4.59-3.854 13-9.949 18.13-13.122 12.21-9.181 27.18-18.911 38.54-28.242"/><path fill="#9c9ca5" d="M1247.85 794.337c-37.09 43.052-76.34 95.341-111.39 140.575-4.54-2.923-14.63-9.814-19.02-11.941 3.96-3.005 21.15-21.336 26.1-26.279l62.83-62.43-1-.248.63-.977 4.2-.421c-.03.028 1.18-1.49 1.16-1.481.44-.321.61-1.76.4-2.132-1.15-2.002 5.94-5.672 4.81-6.89l-.63-.164.08-.073c-.92-.275-5.18.644-6.71.703 12.21-9.181 27.18-18.911 38.54-28.242"/><path fill="#a9a8af" d="M1209.31 822.579c1.53-.059 5.79-.978 6.71-.703l-.08.073.63.164c1.13 1.218-5.96 4.888-4.81 6.89.21.372.04 1.811-.4 2.132.02-.009-1.19 1.509-1.16 1.481-6.74-8.381-8.39-.468-19.02 3.085 4.59-3.854 13-9.949 18.13-13.122"/><path fill="#a9a8af" d="M1077.3 1517.27c25.63-2 49.07-5.89 73.98-11.89l-1.17 1.1c-2.59 1.94-2.46 2.03-1.83 5.01 1.44 6.79-.59 12.36-3.26 18.45-3.37 7.68.18 3.79.81 6.51-4.71.68-2.35-1.03-6.05 3.07-9.71 4.7-54.3 10.9-66.01 12.01 1.7-10.68 2.8-23.4 3.53-34.26"/><path fill="#a1551f" d="m1266.9 789.903.85 1.479c-9.87 13.068-118.2 152.231-120.15 153.269l-2.08-1.462c-2.41-1.653-3.29-2.52-5.42-4.46l.05-1.62 62.79-80.828c13.63-17.554 28.16-39.417 46.35-52.333a195 195 0 0 0 17.61-14.045"/><path fill="#a1551f" d="M610.603 1303.53c-29.603-41.65-53.779-86.35-69.472-135.05-3.919-12.17-21.806-74.33-18.074-81.65l2.357-.71c1.183.33 2.55.7 4.099 1.13 2.358 6.98 5.985 25.62 7.359 32.01 13.222 61.51 41.164 123.31 75.214 176.14l.185 1.41c.592 3.23-.22 3.71-1.668 6.72"/><path fill="#a1551f" d="M741.177 1474.28c56.93 34.67 99.01 54.07 164.265 70.56a705 705 0 0 0 50.02 10.61c7.58 1.26 15.971-.81 20.767 4.53.623 4.13 1.224 2.67-.361 5.39-12.337-.28-33.017-4.7-45.523-6.95-60.214-10.8-143.035-42.7-192.345-79.62 1.1-1.48 2.053-3.06 3.177-4.52"/><path fill="#9c9ca5" d="M392.036 1015.63c10.142-1.37 22.618-1.91 32.961-2.85 5.093-.47 16.504-1.9 21.094-1.91 5.608 1.45 9.282-.08 8.443 6.62-.82 6.55 1.756 12.73-1.666 18.74-11.895-.86-23.92-2.19-35.869-3.06-6.683-.49-18.118-.79-24.345-2.13 1.297-.12 8.919-.29 9.081-.54-2.482-2.79-.118 1.33.101-3.92.376-9.02-.044-8.83-9.8-10.95"/><path fill="#a1551f" d="M738 1478.8c-31.282-20.39-59.743-45.05-85.345-72.19-.933-.99-4.639-4.71-4.648-6.08.151-.25.041-.16.341-.26 1.393.23 17.487 15.68 20.054 18.03a544 544 0 0 0 49.931 40.34c6.602 4.73 17.097 11.21 22.844 15.64-1.124 1.46-2.077 3.04-3.177 4.52"/><path fill="#a1551f" d="M612.086 1295.4c23.423 35.35 50.788 68.53 80.776 98.15.403.4.511.62.809.98l-.038.15c-1.09.5-6.307-4.48-7.231-5.34-27.419-25.57-54.492-54.91-75.799-85.81 1.448-3.01 2.26-3.49 1.668-6.72z"/><path fill="#c4c4c7" d="M815.295 1227.91c2.148-.7 4.875-1.21 6.62-2.12l3.967.24a353 353 0 0 1-8.404 6.45c-4.643 3.58-8.918 7.12-13.42 10.86 3.448-5.11 7.167-10.83 11.237-15.43"/><path fill="#9c9ca5" d="M1028.55 1866.22c-1.02 4.1-2.26 10.54-4.24 14.33-.05.1-.41.14-.52.08-1.16-.68-1.32-3.93-1.44-4.93 2.03-1 1.5-2.08 1.58-4.42 1.58-1.86 2.91-3.33 4.62-5.06"/><path fill="#c7c7ca" d="M801.539 798.635c-.801-1.079-4.862-5.861-4.606-6.883l.232-.079c1.548.385 3.956 2.71 5.278 3.754z"/></svg>