<?xml version="1.0" encoding="utf-8" ?><svg xmlns="http://www.w3.org/2000/svg" xmlns:xlink="http://www.w3.org/1999/xlink" width="1024" height="1024" viewBox="0 0 1024 1024"><path fill="#242425" d="M0 0L1024 0L1024 1024L0 1024L0 0Z"/><path d="M512.596 232.713C519.342 232.698 525.621 234.938 530.426 239.772C540.595 250.004 538.499 264.959 538.546 278.123C538.635 294.088 538.602 310.053 538.446 326.017C550.989 325.905 564.497 324.099 574.743 331.85C580.771 336.443 584.726 343.245 585.735 350.756C586.935 359.584 584.285 366.032 579.182 372.865C608.811 387.681 630.772 415.844 644.116 445.706C675.489 515.919 648.014 599.136 602.326 656.725C597.048 663.427 591.45 669.87 585.551 676.032C573.148 688.965 563.867 696.644 554.456 712.687C546.487 726.272 548.003 736.862 542.539 750.453C538.164 761.334 523.919 787.818 512.929 792.596C503.453 792.235 494.51 774.231 489.432 766.979C477.297 749.653 478.425 728.595 467.868 710.933C460.42 698.474 449.997 689.557 440.479 678.95C430.02 667.077 420.224 654.636 411.135 641.683C381.949 599.195 358.925 531.735 369.253 480.053C376.242 445.079 392.998 413.172 420.374 389.641C428.014 383.074 436.896 377.553 445.207 371.909C435.271 355.473 439.335 333.704 459.818 327.294C466.775 325.117 478.82 325.931 486.498 325.967C486.628 310.785 486.606 295.603 486.43 280.422C486.319 258.952 483.41 234.929 512.596 232.713Z"/><path fill="#C0BFBF" d="M511.202 250.045C524.463 250.47 521.437 263.327 521.354 273.136C521.269 284.999 521.272 296.862 521.365 308.725C521.395 314.013 521.161 326.695 522.323 331.156C527.362 351.42 551.879 337.178 563.967 344.674C572.038 349.679 570.927 362.208 561.093 364.776C553.949 365.618 546.926 373.862 554.756 378.942C563.321 384.499 572.997 387.394 581.642 393.82C612.733 416.929 632.911 449.238 638.009 487.985C645.849 547.571 621.428 607.448 583.633 652.734C570.57 668.377 554.501 681.161 543.429 698.381C533.157 714.358 531.14 727.315 526.551 744.783C524.664 751.966 516.631 763.742 512.014 769.809C505.82 762.701 497.402 747.998 495.61 738.725C492.671 723.524 490.023 714.413 481.841 700.894C473.745 687.517 463.404 677.873 452.84 666.556C441.355 654.254 430.399 640.95 421.153 626.854C393.621 584.425 376.953 525.699 387.397 475.466C394.719 440.249 416.836 409.353 447.037 390.396C455.15 385.304 461.686 382.405 470.011 378.015C471.504 377.228 474.405 373.825 474.181 372.11C473.265 365.091 461.983 366.44 458.008 360.549C456.202 357.873 455.196 354.822 455.919 352.133C461.163 334.285 485.523 348.206 496.994 339.279C504.51 333.429 503.337 320.616 503.365 311.97L503.321 275.745C503.301 269.843 502.879 261.512 503.642 255.916C505.999 252.224 507.156 251.347 511.202 250.045Z"/><path d="M509.256 387.719C509.662 387.695 510.067 387.678 510.473 387.668C537.85 386.949 566.284 399.378 585.856 418.331C609.524 441.288 623.079 472.723 623.527 505.693C624.272 559.042 599.332 613.101 562.765 651.204C553.96 660.379 543.399 656.943 549.514 644.562C550.364 642.842 557.719 635.967 559.638 633.814C564.431 628.37 568.915 622.662 573.07 616.717C593.206 588.177 605.945 554.516 609.039 519.666C614.234 461.165 576.446 405.744 515.411 401.637C508.006 401.479 500.608 402.169 493.361 403.697C468.031 409.017 445.662 425.403 431.873 447.054C397.984 500.266 419.295 571.418 452.959 618.937C456.809 624.375 461.006 629.56 465.524 634.458C469.473 638.733 475.106 642.755 476.21 648.795C476.498 650.369 476.407 653.897 475.031 654.92C465.734 661.829 456.827 644.806 451.038 639.379C429.521 614.27 414.219 582.911 405.846 551.039C402.962 540.062 401.65 528.349 400.802 517.06C396.534 467.975 422.466 418.725 467.525 397.494C481.319 390.994 494.084 388.532 509.256 387.719Z"/><path d="M509.886 513.605C539.926 510.921 542.851 568.464 515.334 576.956C486.661 581.67 480.621 519.838 509.886 513.605Z"/><path fill="#242425" d="M511.66 527.421C521.597 528.061 523.308 555.61 513.197 561.211C505.453 561.079 504.865 552.906 504.66 546.676C504.423 539.492 505.209 531.774 511.66 527.421Z"/><path d="M464.556 459.825C478.546 457.088 492.095 466.25 494.766 480.254C497.437 494.258 488.211 507.763 474.195 510.367C460.272 512.954 446.876 503.803 444.224 489.893C441.571 475.983 450.658 462.544 464.556 459.825Z"/><path fill="#242425" d="M468.959 474.165C482.336 474.663 484.965 493.093 471.217 496.168C468.6 496.132 466.7 496.073 464.392 494.693C461.771 493.141 459.889 490.596 459.173 487.636C457.485 480.479 462.171 475.457 468.959 474.165Z"/><path d="M553.231 459.921C566.683 458.823 578.54 468.693 579.902 482.121C581.264 495.55 571.63 507.599 558.231 509.225C549.325 510.305 540.531 506.49 535.237 499.248C529.943 492.006 528.976 482.468 532.708 474.311C536.441 466.153 544.29 460.65 553.231 459.921Z"/><path fill="#242425" d="M554.832 474.351C560.424 474.107 565.158 478.438 565.411 484.03C565.664 489.622 561.34 494.363 555.748 494.624C550.144 494.886 545.391 490.551 545.137 484.947C544.884 479.342 549.227 474.595 554.832 474.351Z"/></svg>