<?xml version="1.0" encoding="utf-8" ?><svg xmlns="http://www.w3.org/2000/svg" xmlns:xlink="http://www.w3.org/1999/xlink" width="1024" height="1024" viewBox="0 0 1024 1024"><path fill="#242425" d="M0 0L1024 0L1024 1024L0 1024L0 0Z"/><path d="M512.061 238.405C512.405 238.607 531.361 263.447 533.282 265.845C578.911 270.507 622.449 287.347 659.339 314.603C701.094 345.387 733.003 392.237 748.284 441.739C753.872 459.84 755.263 472.031 758.094 490.366C762.94 493.674 781.124 507.889 784.488 511.756C779.643 516.985 764.744 528.075 758.415 533.49C752.492 575.176 742.034 610.24 718.247 645.795C686.557 693.163 638.634 728.964 584.279 746.274C568.196 751.396 550.915 755.542 534.116 756.543C526.076 763.87 520.013 778.281 511.255 779.927C504.427 778.018 495.822 762.553 491.225 756.513C480.997 754.912 471.199 754.805 460.677 752.547C353.743 729.603 278.247 642.122 266.236 534.302C257.503 527.473 246.206 519.178 238.132 511.93C247.294 504.853 257.815 496.983 266.452 489.469C266.553 482.746 267.911 474.951 269.079 468.288C285.694 373.491 360.695 295.687 453.581 272.485C466.897 269.159 478.232 267.734 491.603 265.38C497.407 257.106 505.653 246.241 512.061 238.405Z"/><path fill="#6A6A6A" d="M620.933 388.226L621.947 388.311C623.048 390.324 622.488 415.775 622.467 419.874C617.279 419.416 612.868 418.803 608.499 422.383C604.537 425.629 604.284 430.833 607.954 434.434C612.147 438.547 617.074 438.028 622.489 438.019L622.493 587.528C617.735 587.442 614.452 586.883 610.659 590.395C608.759 592.154 607.631 594.775 607.716 597.378C607.793 599.727 608.827 601.942 610.578 603.51C614.349 606.911 617.889 606.283 622.505 605.986L622.558 635.144C602.372 634.693 581.282 634.907 561.019 634.808C510.039 634.542 459.058 634.603 408.079 634.991L401.965 635.025L402.018 606.183C408.348 606.341 415.066 604.986 415.26 597.1C415.33 594.732 414.445 592.436 412.804 590.727C409.6 587.381 406.606 587.607 402.334 587.465C401.774 582.004 401.931 574.556 401.919 568.973L401.865 538.597C401.655 505.058 401.693 471.517 401.979 437.978C406.476 437.91 410.444 438.141 414.037 434.855C417.818 431.397 417.822 425.932 414.065 422.442C410.162 418.817 406.586 419.389 401.655 419.502C401.342 410.244 401.507 398.077 401.841 388.858L519.043 388.869C551.652 388.941 588.519 389.631 620.933 388.226Z"/><path d="M468.619 445.708C483.065 444.9 501.908 448.127 512.725 458.689C516.526 462.4 516.485 465.953 516.175 470.77C537.232 459.495 573.045 459.446 592.08 475.758C596.032 479.144 596.398 482.675 596.481 487.708C596.768 505.121 596.966 522.562 597.051 539.977C596.596 544.913 598.403 557.091 594.717 560.458C583.7 570.523 567.434 574.375 553.229 574.552C537.859 574.368 525.918 571.821 512.982 563.661C487.663 578.886 458.768 579.654 433.519 563.454C425.466 558.288 427.524 544.574 427.49 535.91L427.374 504.254L427.305 479.559C427.299 470.7 425.755 462.053 433.871 456.11C443.86 448.796 456.571 446.589 468.619 445.708Z"/><path fill="#FFEB62" d="M547.831 475.712C555.361 475.193 579.58 476.973 581.249 486.324C579.735 493.731 561.817 495.895 555.625 496.476C550.332 496.595 520.898 496.305 520.313 486.188C519.909 479.184 541.538 476.202 547.831 475.712Z"/><path fill="#FFEB62" d="M468.488 458.707C473.403 458.518 478.326 458.765 483.198 459.445C488.148 460.163 498.886 462.448 501.944 466.551C503.472 474.458 482.621 477.471 477.125 478.002C469.702 478.345 444.268 477.376 442.42 467.986C443.997 461.198 462.752 459.096 468.488 458.707Z"/><path fill="#FFEB62" d="M521.107 522.856C537.15 533.288 564.932 531.597 581.617 523.307C581.549 526.363 581.682 529.191 580.596 532.012C568.051 542.671 537.034 543.175 523.119 533.609C520.572 531.858 521.161 526.014 521.107 522.856Z"/><path fill="#FFEB62" d="M441.002 505.056C458.027 513.628 485.071 513.603 502.45 505.964C502.512 508.392 502.972 512.845 501.649 514.533C486.771 524.1 458.411 525.164 443.216 514.182C440.451 512.183 440.987 508.266 441.002 505.056Z"/><path fill="#FFEB62" d="M440.91 483.269C457.661 493.426 485.467 493.015 502.333 483.085C502.359 485.892 502.418 488.699 502.51 491.505C486.857 501.995 456.214 501.832 440.927 490.809C440.856 488.377 440.91 485.722 440.91 483.269Z"/><path fill="#FFEB62" d="M520.76 546.492C539.226 555.234 563.245 555.329 581.508 546.011L581.457 554.092C567.094 563.14 537.672 565.032 522.631 554.612C520.603 553.207 520.869 548.967 520.76 546.492Z"/><path fill="#FFEB62" d="M440.556 547.597C459.915 556.476 482.837 558.262 501.959 547.803C501.96 550.33 501.794 552.699 501.641 555.215C488.058 566.25 455.042 563.719 441.121 553.799C440.872 551.88 440.73 549.558 440.556 547.597Z"/><path fill="#FFEB62" d="M581.46 502.562L581.918 503.25C582.505 510.72 572.874 513.784 566.842 515.358C552.247 519.166 535.337 517.809 522.13 510.166C520.877 507.791 520.854 505.437 520.595 502.778C536.411 512.691 565.055 510.578 581.46 502.562Z"/><path fill="#FFEB62" d="M440.497 526.817C455.295 535.292 474.368 536.099 490.862 532.55C493.864 531.904 500.032 528.82 501.778 529.322L502.322 530.483C502.111 532.14 502.167 532.642 501.232 534.054C495.826 537.987 490.949 540.044 484.012 541.045C473.048 542.627 454.568 542.28 445.045 535.851C441.415 533.401 440.935 530.707 440.497 526.817Z"/><path fill="#6A6A6A" d="M609.736 649.749L630.353 649.632C622.668 655.234 614.887 662.19 607.288 667.637C589.292 680.539 572.874 693.577 556.543 708.583C540.386 723.428 527.256 738.557 512.705 754.922C495.827 736.284 481.188 721.077 462.188 704.845C452.539 695.925 441.458 687.905 431.248 679.612C418.382 669.163 404.611 659.619 391.116 649.989C412.975 649.201 439.872 649.88 462.118 649.854L609.736 649.749Z"/><path d="M507.855 663.119C519.321 660.782 530.508 668.189 532.833 679.657C535.158 691.126 527.739 702.305 516.269 704.618C504.815 706.928 493.655 699.522 491.334 688.071C489.012 676.619 496.406 665.452 507.855 663.119Z"/><path fill="#6A6A6A" d="M510.266 678.656C512.187 677.936 514.348 678.355 515.862 679.74C517.375 681.125 517.983 683.241 517.436 685.218C516.889 687.195 515.28 688.697 513.27 689.108C510.481 689.677 507.724 688.006 506.937 685.27C506.151 682.535 507.6 679.655 510.266 678.656Z"/><path fill="#6A6A6A" d="M374.27 391.402C375.373 392.553 374.995 411.314 374.996 414.469L375.046 461.559L374.937 633.554C366.248 621.814 359.263 610.728 351.055 598.969C344.522 589.751 337.712 580.733 330.634 571.928C314.441 551.548 288.871 528.902 268.827 512.364C288.977 494.197 309.257 477.874 326.497 456.39C343.459 435.252 357.74 412.878 374.27 391.402Z"/><path d="M337.898 489.729C345.814 488.097 353.995 490.857 359.304 496.952C364.613 503.047 366.225 511.53 363.522 519.148C360.819 526.765 354.221 532.335 346.258 533.72C334.207 535.817 322.704 527.857 320.42 515.84C318.137 503.824 325.918 492.198 337.898 489.729Z"/><path fill="#6A6A6A" d="M341.021 505.477C344.651 505.348 347.587 506.146 348.975 509.93C349.532 511.402 349.411 513.045 348.644 514.42C347.476 516.52 346.045 516.866 343.91 517.456C335.078 517.655 332.305 510.218 341.021 505.477Z"/><path fill="#6A6A6A" d="M511.95 270.389C513.861 271.949 516.591 275.819 518.49 277.885C542.78 304.299 571.089 327.096 598.647 349.993C608.419 358.112 619.139 365.2 628.794 373.723C617.366 374.35 600.971 373.872 589.311 373.882L512.25 373.974L441.611 373.949C426.35 373.955 409.818 374.197 394.674 373.522C399.579 368.525 409.114 361.474 414.838 357.039C425.379 348.993 435.786 340.774 446.054 332.384C461.449 319.771 476.306 306.515 490.586 292.652C498.287 285.055 504.643 277.786 511.95 270.389Z"/><path d="M508.592 318.795C520.345 316.813 531.477 324.739 533.449 336.493C535.422 348.247 527.487 359.373 515.731 361.336C503.989 363.297 492.879 355.373 490.909 343.632C488.938 331.892 496.853 320.775 508.592 318.795Z"/><path fill="#6A6A6A" d="M509.667 334.655C512.544 333.272 515.998 334.467 517.405 337.332C518.812 340.197 517.647 343.661 514.794 345.092C511.906 346.541 508.391 345.359 506.967 342.459C505.543 339.559 506.755 336.054 509.667 334.655Z"/><path fill="#6A6A6A" d="M649.484 392.714C657.053 398.545 672.422 423.008 678.285 431.546C682.713 437.862 687.393 443.998 692.313 449.939C711.723 473.687 730.554 491.025 753.005 511.376C744.933 519.578 735.718 527.883 727.387 536.009C715.867 547.07 704.896 558.69 694.514 570.825C677.951 590.806 665.551 611.023 649.666 630.467C648.855 604.615 649.377 575.883 649.325 549.907C649.011 497.51 649.064 445.111 649.484 392.714Z"/><path d="M677.032 490.364C689.052 488.263 700.527 496.222 702.77 508.216C705.014 520.211 697.192 531.779 685.225 534.164C677.356 535.733 669.252 532.95 664.007 526.878C658.762 520.807 657.186 512.384 659.882 504.827C662.578 497.27 669.128 491.746 677.032 490.364Z"/><path fill="#6A6A6A" d="M678.356 506.536C686.568 506.536 691.441 511.536 683.719 517.74C675.474 519.716 671.173 510.988 678.356 506.536Z"/><path fill="#6A6A6A" d="M740.127 546.913L740.498 547.114C740.937 549.179 738.46 558.317 737.91 560.735C731.426 589.242 719.755 616.417 703.246 640.572C666.811 692.755 611.268 728.465 548.669 739.953L548.227 739.488C549.232 737.525 556.401 730.697 558.31 728.815C574.034 713.304 591.124 699.633 608.426 685.99C622.34 675.019 639.872 663.591 652.279 651.122C666.199 637.132 678.561 617.24 690.267 601.16C705.716 579.938 720.569 564.049 740.127 546.913Z"/><path fill="#6A6A6A" d="M549.509 284.333C636.307 299.146 707.854 362.122 733.193 446.46C736.207 456.492 738.952 465.022 740.104 475.56C729.386 470.227 705.832 442.923 698.243 432.995C691.322 423.941 684.171 410.888 677.066 401.176C670.084 391.756 662.459 382.83 654.245 374.463C643.212 363.144 628.528 352.866 615.783 343.2C590.384 323.937 570.859 308.256 549.509 284.333Z"/><path fill="#6A6A6A" d="M283.821 546.297C285.439 547.49 287.17 549.282 288.665 550.679C306.879 567.706 323.725 586.636 337.783 607.253C350.602 626.031 362.183 646.914 380.858 660.654C414.453 685.373 446.162 708.994 475.85 738.469C466.597 736.819 456.756 735.251 447.71 732.753C414.115 723.475 387.136 707.974 361.007 685.259C325.232 654.16 301.276 616.341 289.073 570.579C287.467 564.554 284.233 552.364 283.821 546.297Z"/><path fill="#6A6A6A" d="M472.295 284.626L473.099 284.706C471.866 291.644 435.081 321.765 428.768 326.608L394.569 352.868C385.973 359.44 376.905 365.793 369.396 373.564C353.969 389.527 344 407.047 331.682 424.663C320.771 440.266 299.633 464.543 285.068 476.57L284.414 476.537C283.926 473.931 286.04 465.984 286.705 462.957C307.019 370.442 379.921 302.703 472.295 284.626Z"/></svg>