<?xml version="1.0" encoding="utf-8" ?><svg xmlns="http://www.w3.org/2000/svg" xmlns:xlink="http://www.w3.org/1999/xlink" width="1024" height="1024" viewBox="0 0 1024 1024"><path fill="#262A29" d="M0 0L1024 0L1024 1024L0 1024L0 0Z"/><path fill="#1F564B" d="M509.438 123.774C514.633 123.66 516.99 122.94 522.479 123.914C564.628 131.388 587.004 169.218 604.462 203.979C621.304 237.85 638.998 271.288 657.76 304.204C663.093 313.561 667.344 325.395 672.491 334.95L707.423 399.251C724.245 430.059 741.351 459.115 745.338 494.687C745.777 498.609 746.758 503.956 746.77 507.821C746.954 567.726 709.263 618.734 682.846 669.788C676.429 682.19 670.613 694.844 664.343 707.198C649.208 737.75 633.245 767.885 616.471 797.568C613.212 803.39 610.522 809.83 607.204 815.743C598.896 830.365 589.467 844.321 579.001 857.485C576.826 860.241 574.852 863.908 572.671 866.259C558.446 881.594 534.994 893.71 513.979 894.363C513.189 894.765 512.099 894.846 511.213 894.825C453.713 893.481 412.939 812.74 392.299 772.882L350.225 690.337C348.2 686.415 345.398 682.325 343.128 678.033C333.116 659.091 323.403 639.965 313.38 621.033C308.646 612.05 302.558 603.378 297.935 594.385C286.715 572.556 276.685 547.603 276.988 522.65C277.242 501.817 280.393 476.72 287.83 457.293C294.597 439.614 305.086 422.163 313.903 405.412C326.909 382.096 339.641 359.205 351.862 335.493C366.301 306.842 380.384 278.014 394.108 249.014C397.641 241.625 400.442 233.76 404.346 226.604C410.899 214.594 416.916 202.123 423.797 190.311C431.721 176.589 441.226 163.844 452.118 152.335C467.48 136.025 486.441 124.44 509.438 123.774Z"/><path fill="#2DA28C" d="M509.245 134.75L514.167 134.73C532.922 134.818 551.466 145.255 564.556 158.396C590.288 184.198 603.322 221.016 620.485 252.621C629.893 269.945 639.575 287.178 648.966 304.516C654.341 314.44 658.597 325.248 664.203 335.228C675.456 355.263 686.542 375.284 696.955 395.771C716.794 431.861 739.333 469.61 737.734 512.403C735.63 568.725 700.242 618.129 675.48 666.69L642.311 731.53C637.941 740.051 633.572 750.773 628.729 758.791C600.765 805.075 575.01 883.781 509.875 882.755C503.745 885.096 479.731 874.567 474.181 870.453C456.725 857.513 441.904 840.614 429.785 822.656C417.54 804.512 408.289 785.133 398.285 765.816L358.768 689.352L319.11 614.825C306.367 591.127 292.93 571.009 288.005 543.775C283.434 518.499 286.476 490.871 293.398 466.232C297.631 451.161 308.435 431.822 316.031 418.156L337.073 380.89C344.796 367.521 351.422 353.08 359.11 339.64C362.881 333.046 365.56 326.042 368.871 319.241L400.257 255.615C402.969 250.089 405.049 244.26 407.765 238.736C411.309 231.531 415.489 224.585 419.399 217.571C422.616 211.801 424.764 204.88 428.426 199.537C432.812 193.137 436.825 186.434 441.056 179.926C445.216 173.529 450.64 167.479 455.918 162.058C469.158 148.459 480.004 140.647 498.879 136.371C502.021 135.659 505.276 135.637 508.406 134.941L509.245 134.75Z"/><path fill="#1F564B" d="M509.041 163.481C513.872 162.979 516.056 163.741 518.543 168.075C521.015 172.385 523.15 176.807 525.448 181.205L538.399 205.816L575.264 274.494L700.654 510.937C696.822 519.332 691.59 528.846 687.309 537.267C675.392 560.538 663.298 583.717 651.027 606.804C618.192 670.335 584.577 733.46 550.19 796.164L529.545 834.746C526.603 840.369 520.075 854.708 515.715 858.442C506.118 861.113 502.842 849.152 499.069 841.933L487.358 819.877C473.302 794.138 459.484 768.27 445.905 742.276C404.506 665.871 363.859 589.062 323.969 511.859C340.678 481.262 356.869 448.77 373.116 417.788L452.477 267.406L487.791 200.113C493.542 189.038 499.486 177.982 505.145 166.853C505.691 165.78 508.036 164.186 509.041 163.481Z"/><path fill="#060D0C" d="M394.841 605.927C395.383 611.03 401.877 618.932 402.839 623.093C399.98 621.949 400.967 618.901 397.069 617.367C392.084 615.405 390.286 606.934 387.036 602.962C385.36 600.844 384.309 593.887 382.606 590.725C379.132 584.272 373.132 576.395 370.016 570.015C367.731 565.336 365.628 555.762 363.315 550.825C361.576 547.113 357.464 542.179 355.232 538.361C349.257 528.145 346.57 513.388 348.683 501.744C349.34 498.124 353.16 489.654 354.768 485.96C357.134 480.816 358.745 475.218 361.172 470.117C362.866 466.559 365.293 463.045 367.195 459.548C374.078 446.893 379.519 433.514 386.305 420.825C387.526 418.542 391.831 415.745 393.431 413.479C396.598 408.685 399.688 402.76 402.563 397.773C404.352 394.671 403.755 389.143 405.031 385.654C407.843 377.97 416.293 369.297 419.582 363.167C422.587 357.566 421.362 351.671 426.041 343.333C430.375 335.609 433.713 331.737 438.584 324.563C439.897 322.629 442.061 312.942 443.401 310.037C445.525 305.405 448.992 301.459 451.518 297.05C452.458 295.41 455.165 287.095 455.745 286.605C464.529 279.181 465.927 266.235 471.473 256.486C472.978 253.842 476.11 253.11 477.552 250.024L477.943 249.201C479.979 244.838 481.999 236.756 483.663 233.487C485.464 229.948 495.212 218.956 498.257 215.346C499.187 214.327 503.697 211.327 504.829 211.119C508.995 210.354 518.23 208.486 521.985 211.252C531.072 218.342 535.864 231.608 543.636 240.692C545.623 243.015 547.923 254.682 549.817 257.077C559.393 269.188 563.957 277.284 568.388 292.195C569.627 296.362 581.078 306.173 581.671 312.072C582.488 321.525 587.82 324.478 592.314 331.775C594.085 334.651 594.873 343.671 597.109 346.057C607.975 357.65 610.419 370.272 616.267 384.254C617.86 388.061 623.458 393.13 625.761 396.573C628.634 400.91 631.661 407.699 633.907 412.473C635.197 415.216 635.204 420.439 636.816 423.202C639.811 429.329 644.635 433.911 648.171 439.325C652.731 446.306 654.831 455.125 658.344 462.503C661.704 468.716 665.3 474.704 668.943 480.782C672.672 486.999 672.729 494.527 675.056 500.446C678.631 509.539 677.232 515.326 675.482 524.852C674.834 528.378 673.747 533.477 672.367 536.861C667.463 545.112 662.197 553.335 657.177 561.471C654.258 567.644 651.632 574.107 648.686 580.253C646.41 585.001 637.243 595.522 636.071 600.066C633.529 609.917 631.676 617.012 625.534 625.982C623.285 629.268 619.293 631.739 617.46 635.315C614.006 644.488 612.753 653.324 606.478 661.461C604.051 664.609 601.044 668.046 599.035 671.487C596.88 676.478 596.822 680.9 594.514 686.012C592.926 689.53 588.053 694.479 586.991 697.374C582.913 708.392 580.517 716.581 572.931 725.998C568.594 731.383 563.078 748.882 557.808 752.899C548.769 759.788 551.381 768.016 546.298 776.089C539.111 787.504 532.589 801.095 524.105 811.432C522.741 813.057 509.891 813.851 507.163 813.974C503.043 814.161 500.482 807.537 498.13 804.804C496.373 802.762 495.576 799.395 495.846 796.603C497.745 799.569 503.883 811.79 505.815 812.76L506.461 812.138C506.438 811.047 506.596 810.976 506.18 810.112C505.892 810.985 506.163 810.675 505.436 811.094C503.326 808.604 495.33 793.775 493.312 790.024C493.93 787.921 494.321 785.707 494.757 783.553L494.007 783.714C493.654 785.119 493.674 785.065 492.913 786.299C493.154 784.175 493.519 784.099 492.749 782.495C492.339 783.531 491.928 785.545 491.652 786.712C488.167 779.647 467.513 745.037 467.342 740.994L466.195 740.441C462.656 735.425 458.792 726.194 455.29 720.413C455.539 725.377 459.287 727.599 459.659 731.318C450.722 723.305 446.852 722.111 443.608 709.462C442.871 706.587 441.901 706.667 442.373 703.007C443.021 697.986 435.219 693.203 432.983 688.997C429.719 684.009 429.379 679.056 429.291 673.23L430.317 674.849C431.088 676.635 432.091 679.044 433.443 680.488L434.007 680.175C433.275 678.79 433.149 678.781 432.984 677.26C434.412 674.321 436.176 673.533 439.027 671.801L439.993 671.064C440.744 669.248 440.555 669.925 440.179 667.745C435.515 669.235 432.647 673.492 430.696 673.874C423.507 658.234 410.815 638.742 404.369 623.316L401.626 618.553C400.57 615.982 396.356 608.239 394.841 605.927Z"/><defs><linearGradient id="gradient_0" gradientUnits="userSpaceOnUse" x1="452.60416" y1="592.9267" x2="409.66171" y2="610.98932"><stop offset="0" stop-color="#1D1416"/><stop offset="1" stop-color="#263330"/></linearGradient></defs><path fill="url(#gradient_0)" d="M385.974 522.155C387.529 522.14 389.264 522.161 390.799 522.079C400.088 522.012 409.377 522.008 418.666 522.067C421.672 527.298 426.158 537.979 428.868 543.893C430.26 546.139 431.049 548.08 432.116 550.478C438.224 561.31 443.42 573.958 449.07 585.072C450.315 587.521 453.918 595.741 455.13 597.602C456.037 599.198 456.708 600.356 457.439 602.032C453.427 613.243 449.475 624.476 445.583 635.73C449.185 640.048 452.764 644.388 455.994 648.992L463.286 646.424C463.606 656.1 463.449 658.975 468.449 667.841C469.418 669.559 471.754 674.561 472.297 676.395C471.497 678.587 473.604 681.302 471.279 683.418C469.068 682.534 469.127 681.475 468.763 679.286L468.099 678.93L467.792 679.08C466.353 676.675 461.205 665.274 459.97 662.478L451.807 662.594C449.417 664.401 446.994 666.164 444.54 667.882C443.741 667.77 443.824 667.854 442.987 668.024L442.022 669.568L441.421 669.477C440.913 667.883 440.94 667.407 440.991 665.791L440.337 665.08C439.934 666.451 439.906 666.354 440.179 667.745C435.515 669.235 432.647 673.492 430.696 673.874C423.507 658.234 410.815 638.742 404.369 623.316L401.626 618.553C402.821 615.379 404.615 606.91 406.749 605.138C410.804 601.499 409.138 599.226 407.298 594.888L407.474 594.431L407.757 593.667C409.336 589.503 410.065 586.295 411.128 581.986C406.146 581.182 400.886 580.05 395.911 579.069C394.368 576.327 392.818 572.585 391.508 569.646C392.084 568.452 392.424 568.113 393.209 567.058C392.083 564.485 391.088 562.058 389.694 559.614C382.986 558.66 376.273 557.747 369.554 556.876C366.913 552.351 352.392 525.661 351.807 522.3L352.907 521.651C361.466 522.822 376.638 521.759 385.974 522.155Z"/><path fill="#CFD1D0" d="M352.907 521.651C361.466 522.822 376.638 521.759 385.974 522.155C387.594 523.446 389.027 525.45 390.569 526.424C394.829 529.113 397.728 530.342 401.214 534.101C399.864 538.583 398.438 543.041 396.937 547.475C403.443 550.825 410.986 553.491 417.892 556.017C415.697 563.451 413.766 570.961 412.103 578.532C407.415 577.823 402.266 577.213 397.643 576.428L393.209 567.058C392.083 564.485 391.088 562.058 389.694 559.614C382.986 558.66 376.273 557.747 369.554 556.876C366.913 552.351 352.392 525.661 351.807 522.3L352.907 521.651Z"/><defs><linearGradient id="gradient_1" gradientUnits="userSpaceOnUse" x1="451.12888" y1="622.90021" x2="410.69943" y2="637.95917"><stop offset="0" stop-color="#C0B6B8"/><stop offset="1" stop-color="#C8D5D1"/></linearGradient></defs><path fill="url(#gradient_1)" d="M410.976 594.206C413.878 594.758 417.305 595.538 420.208 595.687C422.975 597.987 425.728 600.211 428.326 602.703C426.984 608.791 425.769 614.907 424.682 621.045C429.751 621.076 434.925 621.038 439.978 621.315C442.935 618.401 446.839 614.324 449.92 611.71C446.703 619.786 442.915 629.172 440.592 637.565C442.107 639.6 443.035 640.794 444.243 643.074C443.367 647.72 440.55 661.035 440.337 665.08C439.934 666.451 439.906 666.354 440.179 667.745C435.515 669.235 432.647 673.492 430.696 673.874C423.507 658.234 410.815 638.742 404.369 623.316L401.626 618.553C402.821 615.379 404.615 606.91 406.749 605.138L408.336 606.531C409.148 606.166 409.958 605.796 410.766 605.421L413.101 602.631L410.976 594.206Z"/><path fill="#23403A" d="M406.749 605.138L408.336 606.531C409.148 606.166 409.958 605.796 410.766 605.421C407.025 611.138 406.871 617.275 404.369 623.316L401.626 618.553C402.821 615.379 404.615 606.91 406.749 605.138Z"/><path fill="#CFD1D0" d="M432.116 550.478C438.224 561.31 443.42 573.958 449.07 585.072C450.315 587.521 453.918 595.741 455.13 597.602C448.807 613.089 450.603 607.127 439.296 619.059C435.289 618.935 430.902 619.012 426.863 619L430.516 601.797C427.285 598.615 424.436 595.851 420.993 592.863C417.451 592.416 416.183 591.929 412.813 590.797C417.071 579.961 420.314 568.263 424.307 557.228L432.116 550.478Z"/><path fill="#CFD1D0" d="M390.799 522.079C400.088 522.012 409.377 522.008 418.666 522.067C421.672 527.298 426.158 537.979 428.868 543.893L420.889 550.909L404.113 545.383C405.042 542.055 405.798 538.093 406.534 534.667C400.961 525.646 396.399 527.917 390.799 522.079Z"/><path fill="#CFD1D0" d="M448.305 644.741C449.465 645.726 453.836 651.172 454.988 652.56L460.448 651.057L460.4 659.255L454.478 659.685C449.345 659.932 448.216 661.723 443.966 664.826C445.841 658.149 447.408 651.628 448.305 644.741Z"/><defs><linearGradient id="gradient_2" gradientUnits="userSpaceOnUse" x1="499.39178" y1="731.65497" x2="470.16348" y2="746.31903"><stop offset="0" stop-color="#BEBFBF"/><stop offset="1" stop-color="#C7D6D1"/></linearGradient></defs><path fill="url(#gradient_2)" d="M473.229 698.7C474.948 696.98 478.514 692.743 481.032 693.036L482.212 694.56C486.771 704.524 490.305 716.668 494.887 727.376L489.563 735.886C491.707 744.132 496.37 759.236 496.217 767.335C496.179 769.364 493.245 779.307 492.749 782.495C492.339 783.531 491.928 785.545 491.652 786.712C488.167 779.647 467.513 745.037 467.342 740.994L466.195 740.441C462.656 735.425 458.792 726.194 455.29 720.413C455.094 719.591 453.694 716.601 453.274 715.654C458.702 710.641 465.143 705.474 470.819 700.542C472.231 699.818 472.038 699.819 473.229 698.7Z"/><path fill="#CFD1D0" d="M470.819 700.542C472.082 702.868 472.433 703.645 473.257 706.156C472.103 707.707 470.603 709.605 469.623 711.222L472.774 719.272C470.101 725.672 466.671 733.499 466.195 740.441C462.656 735.425 458.792 726.194 455.29 720.413C455.094 719.591 453.694 716.601 453.274 715.654C458.702 710.641 465.143 705.474 470.819 700.542Z"/><path fill="#202C29" d="M470.819 700.542C472.231 699.818 472.038 699.819 473.229 698.7C474.287 701.357 475.321 703.862 476.154 706.606L471.886 711.062C472.876 714.005 473.84 716.957 474.776 719.918C468.987 731.18 470.619 731.12 467.342 740.994L466.195 740.441C466.671 733.499 470.101 725.672 472.774 719.272L469.623 711.222C470.603 709.605 472.103 707.707 473.257 706.156C472.433 703.645 472.082 702.868 470.819 700.542Z"/><defs><linearGradient id="gradient_3" gradientUnits="userSpaceOnUse" x1="517.94684" y1="738.55823" x2="480.01712" y2="753.14795"><stop offset="0" stop-color="#BEBBBB"/><stop offset="1" stop-color="#C6D4D1"/></linearGradient></defs><path fill="url(#gradient_3)" d="M485.197 693.35C484.661 691.677 483.846 690.401 484.721 689.037C486.808 685.785 491.662 682.524 494.761 680.147C507.179 704.582 505.899 701.748 505.941 728.605L505.935 785.232C505.957 791.032 505.634 805.02 506.18 810.112C505.892 810.985 506.163 810.675 505.436 811.094C503.326 808.604 495.33 793.775 493.312 790.024C493.93 787.921 494.321 785.707 494.757 783.553L494.007 783.714C493.654 785.119 493.674 785.065 492.913 786.299C493.154 784.175 493.519 784.099 492.749 782.495C493.245 779.307 496.179 769.364 496.217 767.335C496.37 759.236 491.707 744.132 489.563 735.886L494.887 727.376C490.305 716.668 486.771 704.524 482.212 694.56L482.523 694.238C482.542 692.623 482.103 692.355 482.903 691.089C484.212 691.917 483.764 691.339 484.152 692.981L485.197 693.35Z"/><path fill="#202C29" d="M482.212 694.56L482.523 694.238C482.542 692.623 482.103 692.355 482.903 691.089C484.212 691.917 483.764 691.339 484.152 692.981L485.197 693.35C489.502 700.97 496.099 718.581 499.404 727.114C497.311 730.131 495.1 733.227 493.147 736.322C494.987 744.782 498.441 758.62 498.462 767.004C498.468 769.8 495.595 780.324 494.757 783.553L494.007 783.714C493.654 785.119 493.674 785.065 492.913 786.299C493.154 784.175 493.519 784.099 492.749 782.495C493.245 779.307 496.179 769.364 496.217 767.335C496.37 759.236 491.707 744.132 489.563 735.886L494.887 727.376C490.305 716.668 486.771 704.524 482.212 694.56Z"/><path fill="#CFD1D0" d="M457.439 602.032C466.977 623.544 478.998 646.517 489.367 667.803C484.326 672.258 479.256 676.679 474.157 681.067L472.297 676.395C471.754 674.561 469.418 669.559 468.449 667.841C463.449 658.975 463.606 656.1 463.286 646.424L455.994 648.992C452.764 644.388 449.185 640.048 445.583 635.73C449.475 624.476 453.427 613.243 457.439 602.032Z"/><defs><linearGradient id="gradient_4" gradientUnits="userSpaceOnUse" x1="464.31982" y1="669.10876" x2="438.51648" y2="693.58289"><stop offset="0" stop-color="#C0BCBD"/><stop offset="1" stop-color="#C6CFCC"/></linearGradient></defs><path fill="url(#gradient_4)" d="M451.807 662.594L459.97 662.478C461.205 665.274 466.353 676.675 467.792 679.08C468.364 680.878 469.001 683.096 469.728 684.802C464.46 689.454 451.051 700.145 447.204 704.418L447.149 705.267L446.296 704.94C443.71 701.21 435.369 684.93 433.443 680.488L434.007 680.175C433.275 678.79 433.149 678.781 432.984 677.26C434.412 674.321 436.176 673.533 439.027 671.801L439.993 671.064C440.744 669.248 440.555 669.925 440.179 667.745C439.906 666.354 439.934 666.451 440.337 665.08L440.991 665.791C440.94 667.407 440.913 667.883 441.421 669.477L442.022 669.568L442.987 668.024C443.824 667.854 443.741 667.77 444.54 667.882C446.994 666.164 449.417 664.401 451.807 662.594Z"/><path fill="#23403A" d="M440.179 667.745C439.906 666.354 439.934 666.451 440.337 665.08L440.991 665.791C440.94 667.407 440.913 667.883 441.421 669.477L442.022 669.568L442.987 668.024C443.824 667.854 443.741 667.77 444.54 667.882C443.707 668.872 443.257 669.401 442.311 670.317C444.018 681.272 443.773 682.544 440.929 692.973C442.168 695.679 445.379 702.26 447.204 704.418L447.149 705.267L446.296 704.94C443.71 701.21 435.369 684.93 433.443 680.488L434.007 680.175C433.275 678.79 433.149 678.781 432.984 677.26C434.412 674.321 436.176 673.533 439.027 671.801L439.993 671.064C440.744 669.248 440.555 669.925 440.179 667.745Z"/><path fill="#CFD1D0" d="M434.007 680.175C433.275 678.79 433.149 678.781 432.984 677.26C434.412 674.321 436.176 673.533 439.027 671.801C439.985 679.151 440.429 681.783 438.856 688.96C437.404 686.293 435.57 682.682 434.007 680.175Z"/><path fill="#CFD1D0" d="M370.705 559.277C376.534 560.53 382.485 561.289 388.39 562.135L391.508 569.646C392.818 572.585 394.368 576.327 395.911 579.069C400.886 580.05 406.146 581.182 411.128 581.986C410.065 586.295 409.336 589.503 407.757 593.667L407.474 594.431L407.298 594.888C409.138 599.226 410.804 601.499 406.749 605.138C404.615 606.91 402.821 615.379 401.626 618.553C400.57 615.982 396.356 608.239 394.841 605.927C394.135 603.978 392.218 600.612 391.185 598.651C389.78 595.263 386.088 588.658 384.302 585.245L370.705 559.277Z"/><path fill="#23403A" d="M391.185 598.651C389.12 596.995 350.386 523.691 350.455 521.808C351.583 520.579 350.909 520.883 352.504 520.784L352.907 521.651L351.807 522.3C352.392 525.661 366.913 552.351 369.554 556.876C376.273 557.747 382.986 558.66 389.694 559.614C391.088 562.058 392.083 564.485 393.209 567.058C392.424 568.113 392.084 568.452 391.508 569.646L388.39 562.135C382.485 561.289 376.534 560.53 370.705 559.277L384.302 585.245C386.088 588.658 389.78 595.263 391.185 598.651Z"/><path fill="#202C29" d="M662.897 521.951C665.653 521.16 669.745 520.807 672.519 521.695L673.439 522.591C673.211 525.299 657.738 554.036 655.691 557.974C630.328 607.162 604.44 656.077 578.032 704.712C575.254 706.011 572.775 702.787 570.947 700.917L570.857 699.846C569.38 698.417 567.387 696.751 565.816 695.357C564.557 694.343 563.618 693.457 562.441 692.344C553.542 685.04 543.52 675.724 534.879 667.957C545.46 646.888 555.286 625.451 565.832 604.44C566.807 604.104 567.655 603.841 568.639 603.538C568.398 603.176 567.631 602.025 567.718 601.768C570.797 592.684 584.787 564.776 588.423 557.715C588.839 556.584 589.392 555.585 589.934 554.505C594.772 543.647 600.277 532.55 605.237 521.517L622.033 522.077L627.475 522.113C639.273 521.75 651.029 522.415 662.897 521.951Z"/><defs><linearGradient id="gradient_5" gradientUnits="userSpaceOnUse" x1="562.71545" y1="582.65143" x2="621.94281" y2="648.61499"><stop offset="0" stop-color="#BDB5B7"/><stop offset="1" stop-color="#C3D2CC"/></linearGradient></defs><path fill="url(#gradient_5)" d="M588.423 557.715C590.843 559.37 595.276 562.623 598.052 563.78C597.955 563.74 601.024 563.33 601.175 563.456C606.02 567.478 606.274 577.793 608.975 582.24C610.821 585.277 616.903 590.798 619.457 593.293C617.103 595.793 614.867 598.143 612.664 600.782C616.05 605.587 619.824 611.113 623.753 615.438C624.481 617.392 594.869 671.749 591.713 677.627C589.394 667.64 587.287 656.935 585.116 646.851L589.982 634.01C586.309 631.197 582.574 627.707 579.098 624.597C579.672 622.618 580.273 620.647 580.899 618.683C579.181 616.146 570.72 605.756 568.639 603.538C568.398 603.176 567.631 602.025 567.718 601.768C570.797 592.684 584.787 564.776 588.423 557.715Z"/><path fill="#262A29" d="M605.237 521.517L622.033 522.077L627.475 522.113C626.732 532.428 624.762 545.135 632.086 553.791L633.385 553.827L633.448 555.347L635.175 555.039C634.004 556.247 633.461 556.313 633.659 558.21C634.076 562.206 634.615 565.323 634.537 569.409L631.137 575.433C632.376 576.108 635.955 577.937 636.842 578.718C638.718 581.593 641.311 581.24 640.519 584.559L639.758 585.009C637.973 584.14 636.402 582.793 634.944 582.85C636.225 584.189 638.143 585.318 639.719 586.359C637.635 590.438 627.119 611.842 625.125 613.825L624.764 613.919L623.753 615.438C619.824 611.113 616.05 605.587 612.664 600.782C614.867 598.143 617.103 595.793 619.457 593.293C616.903 590.798 610.821 585.277 608.975 582.24C606.274 577.793 606.02 567.478 601.175 563.456C601.024 563.33 597.955 563.74 598.052 563.78C595.276 562.623 590.843 559.37 588.423 557.715C588.839 556.584 589.392 555.585 589.934 554.505C594.772 543.647 600.277 532.55 605.237 521.517Z"/><defs><linearGradient id="gradient_6" gradientUnits="userSpaceOnUse" x1="601.02698" y1="569.11603" x2="637.91498" y2="587.17365"><stop offset="0" stop-color="#BCB6B6"/><stop offset="1" stop-color="#C3D1CD"/></linearGradient></defs><path fill="url(#gradient_6)" d="M610.132 549.863L621.912 546.38C628.665 560.53 632.074 562.248 625.057 576.87C628.212 579.206 631.494 581.006 634.944 582.85C636.225 584.189 638.143 585.318 639.719 586.359C637.635 590.438 627.119 611.842 625.125 613.825L624.764 613.919C622.597 610.441 617.062 604.174 614.251 600.882C616.462 598.425 618.918 595.918 621.203 593.505C618.035 589.615 613.668 584.977 610.249 581.164C608.754 572.205 608.211 569.036 603.791 561.209C607.312 556.813 608.039 554.946 610.132 549.863Z"/><path fill="#CFD1D0" d="M605.237 521.517L622.033 522.077C621.731 527.805 620.947 534.587 620.914 540.139C616.454 541.53 609.964 543.397 605.906 545.339C603.664 551.286 602.68 554.959 597.96 559.323C595.418 557.696 592.634 555.777 589.934 554.505C594.772 543.647 600.277 532.55 605.237 521.517Z"/><path fill="#CFD1D0" d="M565.832 604.44C569.467 610.079 572.944 614.18 576.473 619.353L574.175 625.487C577.46 628.693 580.912 631.965 584.129 635.217C582.768 638.578 580.968 642.711 579.848 646.081C580.875 651.449 582.031 656.792 583.314 662.104C581.193 664.102 579.083 666.022 577.114 668.171L569.968 663.081C568.293 669.374 566.682 675.682 565.134 682.007C564.572 684.288 563.153 690.682 562.441 692.344C553.542 685.04 543.52 675.724 534.879 667.957C545.46 646.888 555.286 625.451 565.832 604.44Z"/><defs><linearGradient id="gradient_7" gradientUnits="userSpaceOnUse" x1="625.90765" y1="529.45721" x2="664.96838" y2="542.1142"><stop offset="0" stop-color="#BEBABA"/><stop offset="1" stop-color="#C6D0CE"/></linearGradient></defs><path fill="url(#gradient_7)" d="M662.897 521.951L673.082 522.093C672.095 524.177 671.342 526.333 669.669 527.824C668.867 529.331 668.772 529.312 668.683 531.084C663 533.679 661.183 533.821 654.897 533.906C650.706 541.238 647.347 547.797 639.869 552.306C638.296 553.254 637.009 554.593 635.175 555.039L633.448 555.347L633.385 553.827L632.086 553.791C624.762 545.135 626.732 532.428 627.475 522.113C639.273 521.75 651.029 522.415 662.897 521.951Z"/><path fill="#23403A" d="M653.289 531.207C661.649 531.447 661.857 530.739 669.669 527.824C668.867 529.331 668.772 529.312 668.683 531.084C663 533.679 661.183 533.821 654.897 533.906C650.706 541.238 647.347 547.797 639.869 552.306C638.296 553.254 637.009 554.593 635.175 555.039L633.448 555.347L633.385 553.827C635.089 550.687 643.47 546.732 645.65 543.91C648.365 540.395 650.855 535.227 653.289 531.207Z"/><path fill="#CFD1D0" d="M654.897 533.906C661.183 533.821 663 533.679 668.683 531.084C660.074 548.121 650.723 564.928 642.169 581.992C640.562 580.912 638.583 579.457 636.842 578.718C635.955 577.937 632.376 576.108 631.137 575.433L634.537 569.409C634.615 565.323 634.076 562.206 633.659 558.21C633.461 556.313 634.004 556.247 635.175 555.039C637.009 554.593 638.296 553.254 639.869 552.306C647.347 547.797 650.706 541.238 654.897 533.906Z"/><path fill="#CFD1D0" d="M578.313 671.757C580.6 669.63 581.849 668.343 583.906 665.973C585.233 671.769 586.548 678.086 588.008 683.808C584.384 690.82 580.684 697.793 576.91 704.726C575.266 703.351 572.556 700.929 570.857 699.846C569.38 698.417 567.387 696.751 565.816 695.357C567.917 686.138 569.689 676.698 571.842 667.526C574.468 669.546 575.335 670.202 578.313 671.757Z"/><path fill="#CFD1D0" d="M433.688 344.03C433.744 340.255 442.564 325.607 444.803 321.517L445.608 321.625C458.623 331.59 476.801 344.425 488.872 354.86C483.56 366.434 478.11 377.945 472.52 389.388C471.518 391.975 470.862 394.032 469.319 396.354C458.635 417.553 448.387 441.822 437.326 462.394C435.923 466.014 432.923 471.796 431.165 475.461C425.066 471.278 408.695 461.169 402.513 458.327C392.34 457.983 401.343 451.498 392.748 451.527C393.016 457.274 386.747 457.79 387.985 461.493C390.114 461.695 391.816 459.348 393.208 457.877C394.76 458.742 398.005 460.168 398.484 461.712L402.8 463.975C402.199 467.969 401.503 471.949 400.713 475.91L395.079 476.476C393.45 483.089 390.035 495.387 389.103 501.685C382.214 501.902 375.322 501.984 368.43 501.932C365.513 501.933 358.408 501.779 355.823 502.214C354.191 502.781 353.524 502.915 352.009 502.156L351.556 500.689C351.617 500.212 409.436 386.967 411.878 384.774C412.248 382.419 427.289 353.581 428.748 353.141C430.6 349.995 432.038 347.293 433.688 344.03Z"/><defs><linearGradient id="gradient_8" gradientUnits="userSpaceOnUse" x1="445.04272" y1="439.11545" x2="393.59467" y2="418.9816"><stop offset="0" stop-color="#C0B8BA"/><stop offset="1" stop-color="#C3CFCA"/></linearGradient></defs><path fill="url(#gradient_8)" d="M355.823 502.214C354.191 502.781 353.524 502.915 352.009 502.156L351.556 500.689C351.617 500.212 409.436 386.967 411.878 384.774L412.567 384.999C414.658 386.534 416.136 388.381 417.795 390.358C421.666 394.972 424.342 396.282 429.637 398.814C429.432 400.928 429.275 403.093 428.893 405.177C431.497 409.489 433.437 413.049 435.741 417.489C433.595 419.722 431.749 421.573 429.876 424.049C430.421 426.27 430.75 427.652 431.054 429.905C429.48 433.17 426.831 437.088 427.64 440.233C430.331 444.876 433.151 454.631 435.636 457.759C436.436 459.398 436.666 461.111 437.326 462.394C435.923 466.014 432.923 471.796 431.165 475.461C425.066 471.278 408.695 461.169 402.513 458.327C392.34 457.983 401.343 451.498 392.748 451.527C393.016 457.274 386.747 457.79 387.985 461.493C390.114 461.695 391.816 459.348 393.208 457.877C394.76 458.742 398.005 460.168 398.484 461.712L402.8 463.975C402.199 467.969 401.503 471.949 400.713 475.91L395.079 476.476C393.45 483.089 390.035 495.387 389.103 501.685C382.214 501.902 375.322 501.984 368.43 501.932C365.513 501.933 358.408 501.779 355.823 502.214Z"/><defs><linearGradient id="gradient_9" gradientUnits="userSpaceOnUse" x1="394.86536" y1="487.98499" x2="361.90125" y2="476.29984"><stop offset="0" stop-color="#C0BBBC"/><stop offset="1" stop-color="#C5D2CE"/></linearGradient></defs><path fill="url(#gradient_9)" d="M369.215 468.132C378.418 466.188 386.741 465.752 393.364 459.292C395.272 460.308 396.477 460.921 398.484 461.712L402.8 463.975C402.199 467.969 401.503 471.949 400.713 475.91L395.079 476.476C393.45 483.089 390.035 495.387 389.103 501.685C382.214 501.902 375.322 501.984 368.43 501.932C365.513 501.933 358.408 501.779 355.823 502.214C353.838 501.935 353.631 502.281 352.604 501.137C354.063 497.3 357.172 491.607 359.076 487.826C362.343 481.339 365.699 474.466 369.215 468.132Z"/><path fill="#23403A" d="M355.823 502.214C354.191 502.781 353.524 502.915 352.009 502.156L351.556 500.689C351.617 500.212 409.436 386.967 411.878 384.774L412.567 384.999C404.639 397.833 394.768 418.952 387.34 433.044C391.486 439.467 392.797 442.772 397.861 448.71L397.397 455.524C398.909 456.312 401.157 457.393 402.513 458.327C392.34 457.983 401.343 451.498 392.748 451.527C393.016 457.274 386.747 457.79 387.985 461.493C390.114 461.695 391.816 459.348 393.208 457.877C394.76 458.742 398.005 460.168 398.484 461.712C396.477 460.921 395.272 460.308 393.364 459.292C386.741 465.752 378.418 466.188 369.215 468.132C365.699 474.466 362.343 481.339 359.076 487.826C357.172 491.607 354.063 497.3 352.604 501.137C353.631 502.281 353.838 501.935 355.823 502.214Z"/><path fill="#CFD1D0" d="M384.566 438.8C385.821 441.066 387.273 443.59 388.735 445.717C391.327 449.491 391.977 449.51 391.703 454.316C389.126 456.578 388.175 457.525 385.949 460.158C383.503 460.98 380.137 461.709 377.57 462.344L370.858 464.455C375.253 456.166 379.831 446.708 384.566 438.8Z"/><path fill="#CFD1D0" d="M446.184 380.29L451.312 379.106C457.068 384.824 463.429 390.655 469.319 396.354C458.635 417.553 448.387 441.822 437.326 462.394C436.666 461.111 436.436 459.398 435.636 457.759C433.151 454.631 430.331 444.876 427.64 440.233L429.165 439.524C429.427 437.637 432.368 432.16 433.373 430.149C433.019 428.384 432.517 426.537 432.079 424.782C433.71 422.513 436.161 419.997 438.08 417.892C436.598 414.175 433.627 408.903 431.701 405.238C431.829 404.577 431.976 403.927 432.113 403.269C432.56 401.121 443.87 384.256 446.184 380.29Z"/><path fill="#060D0C" d="M429.165 439.524C431.365 443.663 434.688 453.244 435.636 457.759C433.151 454.631 430.331 444.876 427.64 440.233L429.165 439.524Z"/><path fill="#CFD1D0" d="M445.608 321.625C458.623 331.59 476.801 344.425 488.872 354.86C483.56 366.434 478.11 377.945 472.52 389.388C466.32 383.35 460.554 378.548 453.778 373.204C450.655 357.887 446.952 342.694 442.677 327.658L445.608 321.625Z"/><defs><linearGradient id="gradient_10" gradientUnits="userSpaceOnUse" x1="462.77182" y1="403.63776" x2="413.77408" y2="369.43198"><stop offset="0" stop-color="#190B0E"/><stop offset="1" stop-color="#27413B"/></linearGradient></defs><path fill="url(#gradient_10)" d="M433.688 344.03C433.744 340.255 442.564 325.607 444.803 321.517L445.608 321.625L442.677 327.658C446.952 342.694 450.655 357.887 453.778 373.204C460.554 378.548 466.32 383.35 472.52 389.388C471.518 391.975 470.862 394.032 469.319 396.354C463.429 390.655 457.068 384.824 451.312 379.106L446.184 380.29C443.87 384.256 432.56 401.121 432.113 403.269C431.976 403.927 431.829 404.577 431.701 405.238C433.627 408.903 436.598 414.175 438.08 417.892C436.161 419.997 433.71 422.513 432.079 424.782C432.517 426.537 433.019 428.384 433.373 430.149C432.368 432.16 429.427 437.637 429.165 439.524L427.64 440.233C426.831 437.088 429.48 433.17 431.054 429.905C430.75 427.652 430.421 426.27 429.876 424.049C431.749 421.573 433.595 419.722 435.741 417.489C433.437 413.049 431.497 409.489 428.893 405.177C429.275 403.093 429.432 400.928 429.637 398.814C424.342 396.282 421.666 394.972 417.795 390.358C416.136 388.381 414.658 386.534 412.567 384.999L411.878 384.774C412.248 382.419 427.289 353.581 428.748 353.141C427.805 357.16 417.98 374.438 415.413 379.746C422.43 388.586 421.635 388.13 431.848 393.163C434.77 388.054 439.201 379.886 442.557 375.329C444.271 374.663 446.137 374.072 447.888 373.479C446.102 363.365 442.06 343.419 439.112 333.812C437.311 337.409 435.699 340.553 433.688 344.03Z"/><path fill="#CFD1D0" d="M550.194 496.439C551.135 496.744 557.229 503.94 558.633 505.447C557.111 510.343 556.25 513.666 555.212 518.687C551.294 521.432 547.436 524.263 543.641 527.176C545.015 531.984 547.042 541.57 548.791 545.701C549.397 543.466 546.222 530.53 545.456 527.681C549.285 524.735 552.673 522.468 556.678 519.815C557.688 515.499 559.012 511.136 560.244 506.867C564.023 509.537 565.895 510.342 570.133 511.587C573.57 509.558 579.554 504.596 582.914 501.935C584.551 505.306 586.143 508.699 587.69 512.113C581.962 525.297 574.535 540.077 568.229 553.035C558.305 573.247 548.556 593.544 538.983 613.924C534.111 624.243 529.119 635.509 523.958 645.591C522.289 638.358 517.142 624.753 514.546 617.341C515.16 614.485 516.154 611.259 516.961 608.406C511.372 601.143 505.952 593.013 500.475 585.51L503.946 575.223L515.022 573.502C517.397 568.109 520.239 562.095 522.049 556.543C519.571 553.233 518.308 551.544 515.385 548.686L509.126 549.054C502.815 540.992 500.653 539.011 492.834 532.701C494.261 529.009 496.132 524.906 497.705 521.23C501.218 520.633 504.406 520.123 507.861 519.233C508.769 515.243 509.118 510.785 509.547 506.685C516.693 505.682 523.929 504.019 531.005 502.509L534.093 506.247C538.103 504.278 546.136 498.98 550.194 496.439Z"/><defs><linearGradient id="gradient_11" gradientUnits="userSpaceOnUse" x1="591.85272" y1="480.83063" x2="656.03406" y2="457.4837"><stop offset="0" stop-color="#BDB8B9"/><stop offset="1" stop-color="#C3CBC8"/></linearGradient></defs><path fill="url(#gradient_11)" d="M617.585 394.538C618.892 398.206 623.326 405.562 625.428 409.295C626.036 410.532 626.441 411.162 626.797 412.498C633.451 425.138 640.961 440.807 647.806 452.87C651.743 455.467 666.375 488.064 670.331 494.017C671.226 495.363 673.503 500.615 674.038 502.354C672.56 502.774 667.616 502.57 665.678 502.634L665.165 502.063C654.939 501.93 641.192 501.405 631.37 502.021L626.296 501.853L605.515 501.825C595.304 481.044 585.352 460.137 575.661 439.109C574.444 437.335 574.256 436.59 573.487 434.536C574.805 433.22 576.656 431.746 578.109 430.519C582.634 430.461 587.452 430.109 591.992 429.857C598.927 417.114 604.264 408.27 612.898 396.535C613.632 397.714 613.919 397.974 614.175 399.342L617.585 394.538Z"/><defs><linearGradient id="gradient_12" gradientUnits="userSpaceOnUse" x1="594.47253" y1="461.50406" x2="637.83112" y2="427.23395"><stop offset="0" stop-color="#15090C"/><stop offset="1" stop-color="#2C4740"/></linearGradient></defs><path fill="url(#gradient_12)" d="M617.585 394.538C618.892 398.206 623.326 405.562 625.428 409.295C626.036 410.532 626.441 411.162 626.797 412.498C633.451 425.138 640.961 440.807 647.806 452.87C651.743 455.467 666.375 488.064 670.331 494.017C671.226 495.363 673.503 500.615 674.038 502.354C672.56 502.774 667.616 502.57 665.678 502.634L665.165 502.063C667.046 501.882 671.318 501.923 673.363 501.885C667.138 489.862 660.829 477.882 654.434 465.948C651.693 467.364 649.5 468.388 646.663 469.605C643.693 468.661 641.412 467.506 638.606 466.17C632.072 468.719 628.216 469.569 621.341 470.24C616.82 462.814 612.007 451.811 608.768 443.776C604.175 441.059 599.484 437.997 594.954 435.138C590.658 435.649 583.989 435.735 579.507 435.933C578.109 436.848 576.914 437.997 575.661 439.109C574.444 437.335 574.256 436.59 573.487 434.536C574.805 433.22 576.656 431.746 578.109 430.519C582.634 430.461 587.452 430.109 591.992 429.857C598.927 417.114 604.264 408.27 612.898 396.535C613.632 397.714 613.919 397.974 614.175 399.342L617.585 394.538Z"/><path fill="#CFD1D0" d="M626.797 412.498C633.451 425.138 640.961 440.807 647.806 452.87C648.884 455.399 650.877 459.076 652.158 461.625C650.468 462.478 648.379 463.353 646.624 464.145C644.091 463.317 641.44 462.106 638.97 461.055C634.101 462.506 629.213 463.895 624.309 465.223C620.456 457.108 616.955 448.829 613.175 440.659C615.676 436.533 617.703 433.06 619.963 428.78C619.596 426.624 619.474 422.792 619.331 420.493C622.445 417.573 624.045 415.789 626.797 412.498Z"/><path fill="#CFD1D0" d="M617.585 394.538C618.892 398.206 623.326 405.562 625.428 409.295C622.136 413.159 619.13 416.155 615.554 419.724C615.972 422.21 616.24 425.275 616.533 427.821C614.176 431.06 612.047 434.316 609.843 437.655C605.835 435.097 600.62 432.245 596.433 429.815C601.768 419.332 607.692 409.158 614.175 399.342L617.585 394.538Z"/><path fill="#262A29" d="M622.787 475.413C626.464 480.002 630.507 486.682 633.136 491.982C632.202 494.783 630.909 498.137 630.548 501.004C631.156 501.953 630.804 501.696 631.37 502.021L626.296 501.853C627.457 498.678 628.626 495.309 629.849 492.176C627.831 487.411 623.982 479.971 622.787 475.413Z"/><path fill="#CFD1D0" d="M573.276 325.515L573.413 324.316C575.656 322.825 576.127 321.887 578.417 321.752C581.927 323.637 584.119 329.053 585.652 332.785L585.208 333.41L586.387 335.864C587.443 337.21 587.458 336.929 587.877 338.481C592.917 348.561 598.94 359.544 604.374 369.462L604.798 370.695C607.965 376.59 612.627 386.066 616.065 391.341C617.298 392.61 617.193 392.829 617.585 394.538L614.175 399.342C613.919 397.974 613.632 397.714 612.898 396.535C604.264 408.27 598.927 417.114 591.992 429.857C587.452 430.109 582.634 430.461 578.109 430.519C576.656 431.746 574.805 433.22 573.487 434.536C570.498 429.116 565.585 418.896 563.401 413.291C562.793 411.639 562.198 410.171 561.516 408.548C559.16 406.787 537.623 361.203 534.09 354.287C546.071 344.39 561.35 335.185 573.276 325.515Z"/><defs><linearGradient id="gradient_13" gradientUnits="userSpaceOnUse" x1="563.75403" y1="404.09479" x2="615.15698" y2="400.22363"><stop offset="0" stop-color="#BBB7B8"/><stop offset="1" stop-color="#C8CFCD"/></linearGradient></defs><path fill="url(#gradient_13)" d="M596.226 373.406C599.098 372.55 601.956 371.647 604.798 370.695C607.965 376.59 612.627 386.066 616.065 391.341C617.298 392.61 617.193 392.829 617.585 394.538L614.175 399.342C613.919 397.974 613.632 397.714 612.898 396.535C604.264 408.27 598.927 417.114 591.992 429.857C587.452 430.109 582.634 430.461 578.109 430.519C576.656 431.746 574.805 433.22 573.487 434.536C570.498 429.116 565.585 418.896 563.401 413.291C565.348 411.582 566.626 410.156 568.367 408.265C568.733 398.008 570.466 393.624 573.178 383.555C576.08 383.548 578.082 383.29 580.928 382.946C581.848 385.22 583.504 390.901 585.863 391.48L587.089 390.128C592.2 383.473 592.909 381.065 596.226 373.406Z"/><path fill="#23403A" d="M616.065 391.341C617.298 392.61 617.193 392.829 617.585 394.538L614.175 399.342C613.919 397.974 613.632 397.714 612.898 396.535C614.059 394.958 615.626 393.181 616.065 391.341Z"/><path fill="#CFD1D0" d="M586.387 335.864C587.443 337.21 587.458 336.929 587.877 338.481C592.917 348.561 598.94 359.544 604.374 369.462L604.798 370.695C601.956 371.647 599.098 372.55 596.226 373.406C592.909 381.065 592.2 383.473 587.089 390.128L585.756 389.644C584.473 386.621 583.314 383.571 581.54 380.815C578.7 381.103 575.857 381.348 573.01 381.55C574.521 378.213 578.584 372.677 580.739 369.569C579.773 361.461 577.196 353.227 576.649 344.717L576.798 341.183C579.771 339.4 583.314 337.556 586.387 335.864Z"/><path fill="#202C29" d="M604.374 369.462L604.798 370.695C601.956 371.647 599.098 372.55 596.226 373.406C592.909 381.065 592.2 383.473 587.089 390.128L585.756 389.644C590.848 382.687 591.844 380.102 595.126 372.272C597.998 371.08 601.21 370.647 604.374 369.462Z"/><path fill="#23403A" d="M586.387 335.864C587.443 337.21 587.458 336.929 587.877 338.481C585.258 339.596 579.208 343.082 576.649 344.717L576.798 341.183C579.771 339.4 583.314 337.556 586.387 335.864Z"/><path fill="#262A29" d="M573.276 325.515L573.413 324.316C575.656 322.825 576.127 321.887 578.417 321.752C581.927 323.637 584.119 329.053 585.652 332.785L585.208 333.41L586.387 335.864C583.314 337.556 579.771 339.4 576.798 341.183L576.649 344.717C577.196 353.227 579.773 361.461 580.739 369.569C578.584 372.677 574.521 378.213 573.01 381.55C575.857 381.348 578.7 381.103 581.54 380.815C583.314 383.571 584.473 386.621 585.756 389.644L587.089 390.128L585.863 391.48C583.504 390.901 581.848 385.22 580.928 382.946C578.082 383.29 576.08 383.548 573.178 383.555C570.466 393.624 568.733 398.008 568.367 408.265C566.626 410.156 565.348 411.582 563.401 413.291C562.793 411.639 562.198 410.171 561.516 408.548C562.016 407.871 562.991 406.41 563.072 405.586C564.003 396.046 566.185 385.992 569.252 376.915C569.472 376.263 574.013 369.966 574.832 368.762C573.363 361.108 571.335 352.356 571.005 344.587C570.835 340.566 574.358 328.19 573.276 325.515Z"/><path fill="#CFD1D0" d="M576.798 341.183C577.231 334.63 578.299 328.499 578.584 321.678C580.851 325.553 582.808 329.602 585.208 333.41L586.387 335.864C583.314 337.556 579.771 339.4 576.798 341.183Z"/><path fill="#CFD1D0" d="M479.939 420.488C484.621 423.495 489.38 426.253 494.175 429.072L492.277 436.782L496.657 438.965L493.169 447.897L499.212 450.53C500.073 453.44 501.067 456.439 501.983 459.344C507.238 457.87 512.512 456.463 517.804 455.125C522.176 458.096 526.512 461.12 530.81 464.197C527.81 468.41 524.834 472.639 521.88 476.884C524.107 483.786 527.099 491.397 529.636 498.259C521.615 499.465 512.733 501.269 504.728 502.814C504.528 506.079 505.098 511.622 503.791 514.477C503.497 515.12 502.802 515.062 501.878 515.291C499.553 515.56 496.213 516.306 493.839 516.761C492.04 520.017 489.613 525.811 487.994 529.358C484.263 521.919 480.808 514.674 476.964 507.192L467.057 510.022L462.303 500.109L468.962 485.239C464.158 479.867 460.58 475.137 456.478 469.321C463.189 454.307 472.299 435.033 479.939 420.488Z"/><path fill="#CFD1D0" d="M518.458 219.536L521.838 216.311C526.15 223.928 533 235.348 536.534 243.105C536.91 243.898 538.143 245.534 538.237 245.873C549.875 267.271 561.346 288.76 572.648 310.337C570.632 311.75 557.116 321.621 555.806 321.607L555.542 320.024L554.157 320.562C553.703 321.761 553.817 322.754 553.191 323.681L552.578 323.639L552.397 320.496C552.179 321.895 552.09 324.085 551.87 325.199C544.086 330.683 536.39 336.292 528.786 342.023C523.031 331.292 517.792 323.364 518.486 311.044C518.66 307.956 518.494 298.279 518.205 295.305L518.145 294.748C517.738 296.746 517.695 304.616 517.645 306.905C517.369 304.104 517.116 288.654 518.34 286.809C518.798 283.53 518.552 269.104 518.546 265.393L518.458 219.536Z"/><path fill="#CFD1D0" d="M518.145 294.748L518.773 293.283C521.256 292.778 527.403 294.684 530.215 295.309C531.479 297.682 532.716 300.07 533.926 302.471C538.399 302.607 542.87 302.8 547.338 303.051C548.673 304.808 550.24 306.761 551.397 308.608C551.422 312.589 551.264 321.617 551.87 325.199C544.086 330.683 536.39 336.292 528.786 342.023C523.031 331.292 517.792 323.364 518.486 311.044C518.66 307.956 518.494 298.279 518.205 295.305L518.145 294.748Z"/><path fill="#CFD1D0" d="M543.635 271.727C540.973 263.751 535.002 253.309 538.237 245.873C549.875 267.271 561.346 288.76 572.648 310.337C570.632 311.75 557.116 321.621 555.806 321.607L555.542 320.024C555.624 317.421 555.766 311.299 555.083 309.035C552.68 301.075 544.152 290.129 539.273 283C541.087 278.923 542.199 275.96 543.635 271.727Z"/><defs><linearGradient id="gradient_14" gradientUnits="userSpaceOnUse" x1="522.49615" y1="297.8045" x2="556.03528" y2="277.60324"><stop offset="0" stop-color="#0D0707"/><stop offset="1" stop-color="#395B53"/></linearGradient></defs><path fill="url(#gradient_14)" d="M536.534 243.105C536.91 243.898 538.143 245.534 538.237 245.873C535.002 253.309 540.973 263.751 543.635 271.727C542.199 275.96 541.087 278.923 539.273 283C544.152 290.129 552.68 301.075 555.083 309.035C555.766 311.299 555.624 317.421 555.542 320.024L554.157 320.562C553.703 321.761 553.817 322.754 553.191 323.681L552.578 323.639L552.397 320.496C552.179 321.895 552.09 324.085 551.87 325.199C551.264 321.617 551.422 312.589 551.397 308.608C550.24 306.761 548.673 304.808 547.338 303.051C542.87 302.8 538.399 302.607 533.926 302.471C532.716 300.07 531.479 297.682 530.215 295.309C527.403 294.684 521.256 292.778 518.773 293.283L518.145 294.748C517.738 296.746 517.695 304.616 517.645 306.905C517.369 304.104 517.116 288.654 518.34 286.809C518.354 288.208 518.357 288.644 518.584 290.015C520.466 292.246 528.742 293.127 531.886 293.739L535.062 300.225C538.305 300.44 542.634 300.354 545.965 300.377C542.48 294.691 539.037 289.206 535.954 283.287C537.777 279.285 539.356 275.681 540.971 271.595C537.626 258.808 533.339 256.697 536.534 243.105Z"/><defs><linearGradient id="gradient_15" gradientUnits="userSpaceOnUse" x1="483.47897" y1="301.17319" x2="462.6405" y2="288.77728"><stop offset="0" stop-color="#C2BDBD"/><stop offset="1" stop-color="#C4D3CD"/></linearGradient></defs><path fill="url(#gradient_15)" d="M501.36 216.226C502.6 217.218 504.101 218.355 505.276 219.389C505.949 239.238 505.44 261.39 505.4 281.412L505.481 287.011C505.545 296.007 505.67 305.061 505.546 314.051C505.409 324.057 498.673 333.576 494.461 342.47C488.803 338.336 483.185 334.149 477.606 329.908C477.622 328.102 477.701 325.924 477.584 324.149C477.169 325.195 476.97 326.188 476.695 327.281L476.331 327.262L475.559 323.753C475.487 325.128 475.582 325.896 474.87 327.075L473.738 327.155C471.581 326.195 470.383 324.489 468.768 322.694L470.338 320.043L468.168 321.293C464.519 321.06 455.171 313.311 451.78 310.745L475.537 265.75C476.501 263.336 476.778 262.55 478.148 260.395L501.36 216.226Z"/><defs><linearGradient id="gradient_16" gradientUnits="userSpaceOnUse" x1="515.39172" y1="268.19455" x2="483.10776" y2="237.0421"><stop offset="0" stop-color="#C1BCBD"/><stop offset="1" stop-color="#C7DBD4"/></linearGradient></defs><path fill="url(#gradient_16)" d="M501.36 216.226C502.6 217.218 504.101 218.355 505.276 219.389C505.949 239.238 505.44 261.39 505.4 281.412C496.041 283.762 497.446 287.565 487.963 280.5C485.421 271.611 482.467 268.583 478.148 260.395L501.36 216.226Z"/><path fill="#CFD1D0" d="M493.07 289.733C498.565 290.349 500.683 289.38 505.481 287.011C505.545 296.007 505.67 305.061 505.546 314.051C505.409 324.057 498.673 333.576 494.461 342.47C488.803 338.336 483.185 334.149 477.606 329.908C477.622 328.102 477.701 325.924 477.584 324.149C477.833 322.645 477.733 312.842 477.787 310.412C479.641 309.732 482.404 309.134 484.384 308.642C487.324 303.563 490.765 295.18 493.07 289.733Z"/><defs><linearGradient id="gradient_17" gradientUnits="userSpaceOnUse" x1="496.20023" y1="303.90176" x2="465.00946" y2="289.44086"><stop offset="0" stop-color="#180C0F"/><stop offset="1" stop-color="#37514C"/></linearGradient></defs><path fill="url(#gradient_17)" d="M475.537 265.75C476.501 263.336 476.778 262.55 478.148 260.395C482.467 268.583 485.421 271.611 487.963 280.5C497.446 287.565 496.041 283.762 505.4 281.412L505.481 287.011C500.683 289.38 498.565 290.349 493.07 289.733C490.765 295.18 487.324 303.563 484.384 308.642C482.404 309.134 479.641 309.732 477.787 310.412C477.733 312.842 477.833 322.645 477.584 324.149C477.169 325.195 476.97 326.188 476.695 327.281L476.331 327.262L475.559 323.753C475.487 325.128 475.582 325.896 474.87 327.075L473.738 327.155C471.581 326.195 470.383 324.489 468.768 322.694L470.338 320.043C470.753 319.241 474.01 317.266 475.017 316.585C474.946 313.533 474.667 311.381 475.863 308.616C478.426 306.45 480.971 307.815 482.31 305.277C485.191 299.817 487.347 292.91 489.469 287.125C487.363 285.74 486.632 285.174 484.784 283.461C484.092 280.697 483.601 276.839 483.151 273.927C480.088 270.957 478.271 269.016 475.537 265.75Z"/><path fill="#CFD1D0" d="M470.338 320.043C470.753 319.241 474.01 317.266 475.017 316.585C475.106 318.093 475.263 322.518 475.559 323.753C475.487 325.128 475.582 325.896 474.87 327.075L473.738 327.155C471.581 326.195 470.383 324.489 468.768 322.694L470.338 320.043Z"/><defs><linearGradient id="gradient_18" gradientUnits="userSpaceOnUse" x1="533.33783" y1="706.99402" x2="558.99927" y2="761.8454"><stop offset="0" stop-color="#191314"/><stop offset="1" stop-color="#2F544B"/></linearGradient></defs><path fill="url(#gradient_18)" d="M529.682 680.701C533.853 684.02 549.258 696.741 551.922 700.095C554.01 701.223 554.113 701.284 555.708 703.004C560.871 707.398 565.959 711.878 570.972 716.442C566.803 724.339 562.592 732.213 558.34 740.066C557.74 741.46 557.55 742.116 556.547 743.291C552.368 750.949 545.898 762.266 542.193 770.107C541.419 771.171 540.661 772.129 540.015 773.273C539.327 776.763 521.801 807.318 518.986 812.26L518.957 756.311C518.944 742.943 518.697 728.746 519.056 715.441C519.848 713.947 519.452 713.945 519.06 711.796C518.73 699.624 523.874 691.287 529.682 680.701Z"/><path fill="#CFD1D0" d="M519.056 715.441C523.501 717.191 526.953 718.551 531.56 719.897C534.619 718.958 537.177 718.097 540.175 716.977L541.844 723.724C538.945 727.013 536.123 730.369 533.378 733.788C535.13 744.385 535.272 745.819 532.125 756.37C536.29 762.394 537.764 766.236 540.015 773.273C539.327 776.763 521.801 807.318 518.986 812.26L518.957 756.311C518.944 742.943 518.697 728.746 519.056 715.441Z"/><path fill="#CFD1D0" d="M529.682 680.701C533.853 684.02 549.258 696.741 551.922 700.095C543.848 716.145 546.43 709.475 531.078 715.599C527.356 714.346 522.813 712.678 519.06 711.796C518.73 699.624 523.874 691.287 529.682 680.701Z"/><path fill="#CFD1D0" d="M555.708 703.004C560.871 707.398 565.959 711.878 570.972 716.442C566.803 724.339 562.592 732.213 558.34 740.066C554.332 738.492 546.664 723.227 545.539 718.754C550.849 713.859 552.651 709.355 555.708 703.004Z"/><path fill="#CFD1D0" d="M544.622 727.282C549.511 732.566 552.67 739.662 556.547 743.291C552.368 750.949 545.898 762.266 542.193 770.107C539.303 764.898 539.38 762.173 535.083 755.78C538.849 746.625 538.692 745.207 537.314 735.405L544.622 727.282Z"/><path fill="#CFD1D0" d="M511.693 354.31C514.57 357.013 544.34 420.918 547.656 428.503C544.949 440.759 544.989 445.568 537.539 455.768L533.944 451.75C530.881 448.15 527.313 444.766 523.939 441.433C523.94 436.043 523.91 431.52 523.538 426.121C520.011 421.092 515.957 415.9 512.23 410.97C512.69 407.698 513.048 404.237 513.442 400.941C508.414 399.184 504.893 397.825 499.995 395.7C498.611 393.451 496.811 389.672 495.556 387.218C501.011 376.407 505.732 364.841 511.693 354.31Z"/><path fill="#CFD1D0" d="M488.429 536.112L489.115 536.129C497.386 542.16 500.334 545.17 507.217 552.562C509.22 552.442 511.384 552.186 513.396 551.991C514.96 553.604 516.546 555.383 518.079 557.043C516.547 561.035 514.37 565.72 512.647 569.703C509.182 569.976 504.522 570.804 501 571.326C497.687 580.083 494.742 588.913 491.307 597.651C490.241 598.468 488.839 599.722 487.781 600.616L481.906 606.129C475.572 593.996 468.981 579.544 463.026 567.039C466.404 561.163 468.072 555.674 470.967 550.149C472.064 548.055 478.085 540.708 479.997 538.101L488.429 536.112Z"/><path fill="#CFD1D0" d="M551.713 436.863C554.321 439.64 577.123 489.681 579.903 495.647C576.541 498.68 572.815 502.253 569.12 504.777C564.741 502.391 562.725 500.211 559.364 496.659L552.577 487.979C548.01 490.108 542.835 493.229 538.412 495.784C535.916 489.172 533.762 483.643 530.827 477.23C535.688 469.366 541.63 462.381 546.646 454.681C549.802 449.835 550.683 442.55 551.713 436.863Z"/><path fill="#CFD1D0" d="M494.023 390.873L498.511 397.653C502.51 399.335 507.125 400.925 511.231 402.442C510.796 405.808 510.589 408.584 510.388 411.978C513.922 417.25 517.577 421.914 521.043 427.415C521.016 432.486 520.875 437.659 520.785 442.739C523.862 446.277 533.821 455.81 534.206 459.569L533.573 460.105C529.69 459.831 523.711 455.391 520.246 453.127L519.066 452.378C515.616 452.122 506.944 455.488 503.276 456.758L501.045 448.664L495.986 446.972C497.206 444.244 499.046 441.314 498.839 438.621C498.088 436.943 496.862 436.577 495.192 435.677L496.375 427.733C491.852 424.663 485.672 421.341 480.837 418.572C484.84 409.424 489.622 399.88 494.023 390.873Z"/><path fill="#CFD1D0" d="M499.167 588.88C501.92 591.607 510.914 604.313 514.989 608.919C514.102 611.693 513.364 614.574 512.599 617.388C515.959 626.17 519.544 639.932 522.249 649.216C520.816 652.496 514.405 668.427 512.251 669.343L511.325 668.327C502.54 648.76 492.708 629.298 483.858 609.647C493.672 599.829 494.101 602.119 499.167 588.88Z"/><path fill="#CFD1D0" d="M454.87 472.304C455.898 473.116 463.179 483.216 465.127 485.521C463.547 489.539 460.159 496.241 458.221 500.35C459.931 503.715 461.605 507.097 463.243 510.497C461.035 512.366 458.436 514.938 456.283 516.958L449.284 518.738C446.489 519.631 443.707 520.562 440.937 521.532C439.311 518.474 437.677 514.877 436.159 511.719C442.269 499.793 449.265 484.539 454.87 472.304Z"/><path fill="#CFD1D0" d="M406.718 465.784C413.563 470.111 422.422 474.911 429.533 479.001C426.602 485.305 423.138 491.998 420.045 498.276L418.439 501.77L409.551 501.661L409.445 493.578L405.376 490.815L408.152 485.744C406.77 482.786 405.432 479.807 404.137 476.81C404.798 473.152 405.808 469.403 406.718 465.784Z"/><path fill="#CFD1D0" d="M452.306 524.532C455.629 524.128 462.004 532.704 464.601 535.352C468.678 535.873 470.967 536.352 474.834 537.586C472.372 542.066 468.141 545.778 465.934 550.539C464.815 552.953 464.02 555.665 463.216 558.201L461.253 562.928C455.546 551.802 448.704 538.301 443.748 526.886L452.306 524.532Z"/><path fill="#CFD1D0" d="M475.046 509.541L476.219 509.773C478.46 513.153 483.836 525.523 485.748 529.857C479.793 532.244 477.998 531.749 471.888 530.316C470.486 530.061 468.966 529.707 467.561 529.407C465.011 526.248 461.775 522.733 459.067 519.639C461.423 517.067 463.751 514.47 466.052 511.85C468.988 511.461 472.178 510.394 475.046 509.541Z"/><path fill="#CFD1D0" d="M401.002 478.719L402.144 478.71C403.762 480.668 405.238 483.809 406.459 486.125L403.614 491.01L408.016 494.084L408.195 501.821L402.375 501.748L391.453 501.583C392.591 496.703 395.21 483.646 396.741 479.727C398.32 478.556 398.658 478.924 401.002 478.719Z"/></svg>