<?xml version="1.0" encoding="utf-8" ?><svg xmlns="http://www.w3.org/2000/svg" xmlns:xlink="http://www.w3.org/1999/xlink" width="1024" height="1024" viewBox="0 0 1024 1024"><path fill="#242425" d="M0 0L1024 0L1024 1024L0 1024L0 0Z"/><path d="M499.85 210.711C542.54 208.301 584.814 220.204 619.974 244.536C663.038 274.169 692.561 319.7 702.048 371.106C714.185 438.994 689.046 508.919 636.665 553.035C606.702 578.27 576.518 591.428 538.08 598.195C538.361 626.206 538.493 654.219 538.477 682.231C560.158 691.445 574.663 708.868 579.428 732.101C583 749.947 579.264 768.48 569.057 783.548C558.211 799.772 543.882 809.102 524.937 812.86C442.329 824.366 411.832 715.877 486.133 681.644C486.458 653.83 486.394 626.013 485.94 598.202C386.561 585.091 312.934 493.058 319.084 393.531C321.673 351.628 338.843 308.688 366.445 276.958C400.109 237.724 448.246 213.819 499.85 210.711Z"/><path fill="#C0BFBF" d="M506.026 269.724C515.192 269.454 521.534 270.138 530.493 271.217C534.219 279.029 537.932 288.208 541.455 296.22L554.428 324.98C557.244 331.345 562.358 344.003 565.746 349.411C570.921 350.512 583.859 351.603 589.785 352.28C605.713 354.182 621.651 355.999 637.599 357.732C640.921 367.273 643.162 377.158 644.278 387.2C647.702 416.32 641.043 455.233 622.625 478.533C614.626 470.258 608.649 457.934 599.491 451.563C595.616 448.867 586.302 455.715 589.421 460.885C596.105 471.964 604.724 482.466 612.61 492.82C589.046 520.183 555.551 537.028 519.534 539.631C519.164 514.884 518.722 488.694 519.137 463.976C526.901 459.798 534.825 454.915 542.53 450.482C551.694 445.211 561.549 439.826 570.169 433.806L570.223 407.058C570.244 400.158 572.333 386.865 562.167 386.352C550.19 385.749 554.33 416.504 554.495 424.412C543.073 431.056 530.705 438.974 519.435 445.238L519.262 373.327L519.37 346.327C519.388 341.072 520.254 330.106 517.298 325.791C513.632 320.44 504.134 323.056 503.837 330.327C503.418 340.587 503.63 350.939 503.608 361.253L503.502 415.832C503.526 425.567 503.914 435.536 503.641 445.227C492.069 437.916 480.376 430.801 468.564 423.883C468.852 415.869 472.87 385.866 461.073 386.312C451.346 386.679 453.485 402.516 453.505 409.109L453.582 433.116C457.314 436.425 464.785 440.503 469.184 443.173C478.009 448.528 486.835 453.624 495.411 459.415C485.036 470.196 473.965 480.107 463.199 490.478C461.261 492.345 459.631 494.219 458.132 496.452C458.728 501.609 465.859 525.588 467.583 531.639C422.438 517.381 384.53 472.101 378.229 425.157C392.079 411.796 405.755 398.256 419.253 384.541C424.557 379.201 436.199 368.073 440.26 362.727C439.889 357.691 438.847 351.343 438.237 346.174L434.529 314.749C433.75 308.595 432.607 301.858 432.396 295.71C452.748 278.896 480.087 271.384 506.026 269.724Z"/><path fill="#ECC673" d="M504.441 693.361C533.24 689.3 559.858 709.412 563.817 738.226C567.777 767.039 547.57 793.586 518.742 797.442C490.059 801.28 463.675 781.196 459.736 752.527C455.796 723.858 475.786 697.402 504.441 693.361Z"/><path d="M507.709 703.905C530.677 701.764 551.035 718.641 553.188 741.607C555.341 764.574 538.475 784.941 515.509 787.105C492.527 789.272 472.142 772.391 469.988 749.407C467.833 726.424 484.725 706.048 507.709 703.905Z"/><path fill="#242425" d="M505.864 720.35C519.651 717.786 532.911 726.873 535.495 740.657C538.079 754.441 529.011 767.714 515.231 770.318C501.422 772.928 488.116 763.837 485.527 750.025C482.937 736.212 492.047 722.919 505.864 720.35Z"/><path fill="#C0BFBF" d="M428.601 247.355L429.357 247.501C431.879 249.831 438.623 266.908 439.969 270.909C422.169 282.179 409.891 291.589 396.23 307.693C366.907 342.259 357.959 382.492 363.33 426.467C360.548 424.948 357.316 422.847 354.571 421.155L335.493 409.486C334.929 339.403 367.758 282.369 428.601 247.355Z"/><path fill="#C0BFBF" d="M592.251 531.923C594.432 533.971 604.821 552.05 606.139 555.581C558.372 585.617 504.695 591.56 451.596 572.527L438.614 567.461C442.635 559.614 447.131 551.471 451.335 543.699C459.995 546.623 470.923 550.514 479.753 552.461C519.901 561.314 557.754 553.181 592.251 531.923Z"/><path fill="#C0BFBF" d="M562.601 234.919C563.567 235.124 565.532 235.755 566.536 236.054C604.01 247.229 644.325 278.346 662.926 313.115C658.399 321.035 651.526 330.661 646.345 338.339L643.498 332.772C641.897 329.659 640.16 326.618 638.291 323.658C618.939 293.114 588.72 269.468 553.741 260.001C548.556 258.598 543.34 257.448 538.097 256.29C545.482 248.693 554.218 241.382 562.601 234.919Z"/><path fill="#C0BFBF" d="M683.522 423.702C685.737 423.531 685.8 423.136 687.288 424.07C687.844 426.223 687.011 430.692 686.685 433.007C680.569 476.344 655.178 519.705 620.102 546.025L617.188 540.795C613.573 534.374 609.711 527.768 606.564 521.135C638.15 494.325 652.576 466.37 660.308 426.309C668.038 425.372 675.776 424.502 683.522 423.702Z"/><path fill="#C0BFBF" d="M550.212 275.238C579.401 285.606 603.816 301.718 621.588 327.622C624.313 331.594 627.418 336.435 629.236 340.877C611.5 338.724 593.752 336.678 575.992 334.738C568.604 315.678 556.423 294.101 550.212 275.238Z"/><path fill="#C0BFBF" d="M503.287 226.714C518.098 226.072 528.718 227.397 543.109 229.751C534.338 237.609 525.394 246.084 516.482 253.671C503.566 253.454 492.591 254.904 479.886 256.951C470.981 258.649 463.569 261.118 454.958 263.885C451.091 255.987 447.771 247.833 445.022 239.481C464.409 231.707 482.521 227.932 503.287 226.714Z"/><path fill="#C0BFBF" d="M386.591 488.484C400.738 509.413 414.964 523.533 436.931 536.254C432.513 544.196 428.516 551.293 424.432 559.446L419.755 556.932C398.958 545.451 381.581 528.085 367.643 509.038C373.886 502.433 380.786 495.397 386.591 488.484Z"/><path fill="#C0BFBF" d="M416.936 309.456C417.425 310.22 422.834 352.477 423.561 357.749C409.912 370.173 394.066 386.451 380.983 399.644L377.321 402.993C377.329 402.15 377.343 401.307 377.361 400.464C378.097 366.768 392.585 332.821 416.936 309.456Z"/><path fill="#C0BFBF" d="M671.73 329.34C673.101 330.74 675.751 337.304 676.567 339.378C685.373 361.758 688.096 382.679 689.304 406.431C683.839 407.301 677.575 407.794 672.016 408.355C668.738 408.58 664.624 409.174 661.296 409.563C661.892 390.08 659.208 374.1 653.783 355.541C660.034 347.511 666.081 337.917 671.73 329.34Z"/><path fill="#242425" d="M502.153 599.524L521.922 599.655C521.59 618.49 522.625 638.258 522.257 657.144C522.176 661.299 522.607 674.265 521.888 677.446C517.078 676.501 506.903 676.816 502.024 677.592L502.153 599.524Z"/><path fill="#C0BFBF" d="M336.735 428.92C345.146 434.237 357.797 442.032 366.397 446.307C369.794 457.627 372.459 464.295 377.828 474.74C374.598 478.769 371.719 481.433 367.991 484.918C364.419 488.323 361.906 491.042 358.64 494.711C348.656 475.779 338.38 450.247 336.735 428.92Z"/><path fill="#C0BFBF" d="M502.885 475.512C504.112 477.161 503.34 533.274 503.091 539.713C497.647 539.036 492.213 538.277 486.792 537.435L484.792 531.126C481.636 521.003 478.564 510.854 475.578 500.68C484.478 492.696 493.933 482.715 502.885 475.512Z"/></svg>